<REAPER_PROJECT 0.1 "6.10/linux-arm" 1589231999
  RIPPLE 0
  GROUPOVERRIDE 0 0 0
  AUTOXFADE 3
  ENVATTACH 1
  POOLEDENVATTACH 0
  MIXERUIFLAGS 11 48
  PEAKGAIN 1
  FEEDBACK 0
  PANLAW 1
  PROJOFFS 0 0 0
  MAXPROJLEN 0 600
  GRID 3199 8 1 8 1 0 0 0
  TIMEMODE 1 5 -1 30 0 0 -1
  VIDEO_CONFIG 0 0 256
  PANMODE 3
  CURSOR 1
  ZOOM 12.71868690114718 0 0
  VZOOMEX 6 0
  USE_REC_CFG 0
  RECMODE 1
  SMPTESYNC 0 30 100 40 1000 300 0 0 1 0 0
  LOOP 1
  LOOPGRAN 0 4
  RECORD_PATH "" ""
  <RECORD_CFG
  >
  <APPLYFX_CFG
  >
  RENDER_FILE ""
  RENDER_PATTERN ""
  RENDER_FMT 0 2 0
  RENDER_1X 0
  RENDER_RANGE 0 0 220 18 1000
  RENDER_RESAMPLE 3 0 1
  RENDER_ADDTOPROJ 0
  RENDER_STEMS 0
  RENDER_DITHER 0
  TIMELOCKMODE 1
  TEMPOENVLOCKMODE 1
  ITEMMIX 0
  DEFPITCHMODE 589824 0
  TAKELANE 1
  SAMPLERATE 44100 0 0
  <RENDER_CFG
  >
  LOCK 1
  <METRONOME 7 2
    VOL 0.25 0.125
    FREQ 800 1600 1
    BEATLEN 4
    SAMPLES "" ""
    PATTERN 2863311530 2863311529
  >
  GLOBAL_AUTO -1
  TEMPO 120 4 4
  PLAYRATE 1 0 0.25 4
  SELECTION 96 0
  SELECTION2 96 0
  MASTERAUTOMODE 0
  MASTERTRACKHEIGHT 0 0
  MASTERPEAKCOL 24935548
  MASTERMUTESOLO 0
  MASTERTRACKVIEW 0 0.6667 0.5 0.5 0 0 0 0 0 0
  MASTERHWOUT 0 0 1 0 0 0 0 -1
  MASTER_NCH 2 2
  MASTER_VOLUME 1 0 -1 -1 1
  MASTER_FX 1
  MASTER_SEL 0
  <MASTERPLAYSPEEDENV
    ACT 0 -1
    VIS 0 1 1
    LANEHEIGHT 0 0
    ARM 0
    DEFSHAPE 0 -1 -1
  >
  <TEMPOENVEX
    ACT 0 -1
    VIS 1 0 1
    LANEHEIGHT 0 0
    ARM 0
    DEFSHAPE 1 -1 -1
  >
  <PROJBAY
  >
  <TRACK {F73B46BF-2722-5415-E73E-4559C2DD7736}
    NAME ""
    PEAKCOL 16576
    BEAT -1
    AUTOMODE 0
    VOLPAN 0.00052194381917 0 -1 -1 1
    MUTESOLO 0 0 0
    IPHASE 0
    PLAYOFFS 0 1
    ISBUS 0 0
    BUSCOMP 0 0 0 0 0
    SHOWINMIX 1 0.6667 0.5 1 0.5 0 0 0
    FREEMODE 0
    SEL 1
    REC 0 5056 1 0 0 0 0
    VU 2
    TRACKHEIGHT 21 0 0
    INQ 0 0 0 0.5 100 0 0 100
    NCHAN 2
    FX 0
    TRACKID {F73B46BF-2722-5415-E73E-4559C2DD7736}
    PERF 0
    MIDIOUT -1
    MAINSEND 1 0
    <FXCHAIN
      WNDRECT 346 266 902 608
      SHOW 0
      LASTSEL 5
      DOCKED 0
      BYPASS 0 0 0
      <VST "VST: ReaEQ (Cockos)" reaeq.vst.so 0 "" 1919247729<56535472656571726561657100000000> ""
        cWVlcu5e7f4CAAAAAQAAAAAAAAACAAAAAAAAAAIAAAABAAAAAAAAAAIAAAAAAAAAqAAAAAEAAAAAABAA
        IQAAAAQAAAAEAAAAAQAAAH+4Xhmm+DRAAAAAAAAA8D8AAAAAAAAAQAEIAAAAAQAAAAAAAAAAwHJAAAAAAAAA8D8AAAAAAAAAQAEIAAAAAQAAAAAAAAAAQI9AAAAAAAAA
        8D8AAAAAAAAAQAEDAAAAAQAAABMBaCorbdRAAAAAAAAA8D8AAAAAAAAAQAEBAAAAAQAAAAAAAAAAAPA/AAAAAJoCAACcAQAA
        AEhpZ2ggbG93IHBhc3MAEAAAAA==
      >
      PRESETNAME "High low pass"
      FLOATPOS 0 0 0 0
      FXID {E8289135-54FF-A1DC-F093-4DEA30092053}
      WAK 0 0
      BYPASS 0 0 0
      <VST "VSTi: ReaSynth (Cockos)" reasynth.vst.so 0 "" 1919251321<5653547265737972656173796E746800> ""
        eXNlcu9e7f4AAAAAAgAAAAEAAAAAAAAAAgAAAAAAAAA8AAAAAAAAAAAAEAA=
        776t3g3wrd6lm8Q7F7fROgAAAAAAAAAAAAAAAJCNuT3oZ4g9AACAPwAAAD8AAIA/AAAAAAAAAD8AAAAA
        AAAQAAAA
      >
      FLOATPOS 0 0 0 0
      FXID {75103AB5-7D2B-7153-1110-D55214987CB5}
      WAK 0 0
      BYPASS 0 0 0
      <JS guitar/amp-model ""
        "Dumble Overdrive Special - Tweed Deluxe.wav" -21.000000 1.000000 0.000000 73.000000 256.000000 - - - - - - - - - - - - - - - - - - - - - - - - - - - - - - - - - - - - - - - - - - - - - - - - - - - - - - - - - - 
      >
      FLOATPOS 0 0 0 0
      FXID {C054EDE4-8EA4-5119-6CA6-73D2D2E31610}
      WAK 0 0
      BYPASS 0 0 0
      <VST "VST: ReaComp (Cockos)" reacomp.vst.so 0 "" 1919247213<5653547265636D726561636F6D700000> ""
        bWNlcu9e7f4EAAAAAQAAAAAAAAACAAAAAAAAAAQAAAAAAAAACAAAAAAAAAACAAAAAQAAAAAAAAACAAAAAAAAAFQAAAAAAAAAAAAQAA==
        776t3g3wrd5FoYg9/AWpPKWbxDsK16M8AAAAAAAAAAAAAIA/AAAAAAAAAAAAAAAAnNEHMwAAgD8AAAAAzMxMPQAAAAAAAAAAAAAAAAAAgD7YiZ09
        AAAQAAAA
      >
      FLOATPOS 0 0 0 0
      FXID {02C456F9-6B05-ECC6-D094-EA336968B5DA}
      WAK 0 0
      BYPASS 0 0 0
      <VST "VST: ReaDelay (Cockos)" readelay.vst.so 0 "" 1919247468<5653547265646C72656164656C617900> ""
        bGRlcu5e7f4CAAAAAQAAAAAAAAACAAAAAAAAAAIAAAABAAAAAAAAAAIAAAAAAAAA/AAAAAEAAAAAAAAA
        AAAAAAAAAAAFAAAALAAAAAIAAAAEAAAAAACAPwAAgD8AAAAAAACAPwAAAAAAAIA7vTeGNQAAgD8AAAAAAACAPwAAgD8AAIA/AAAAAAAAAAAAAIA/AAAAAAAAADwAAAAA
        AACAPwAAAAAAAIA/AACAP+87NT8AAIA/AAAAAAAAgD8AAAAAAABAPL03hjUAAIA/AAAAAAAAgD8AAIA/zk0AP6abhD4AAAAAAACAPwAAAAAAAIA8vTeGNQAAgD8AAAAA
        AACAPwAAgD8aqrU+pHA9PwAAAAAAAIA/AAAAAAAAoDy9N4Y1AACAPwAAAAAAAIA/AACAP/npAD4AAAA/
        AHN0b2NrIC0gYmFzaWMgNSB0YXAgcGluZyBwb25nAAAAAAA=
      >
      PRESETNAME "stock - basic 5 tap ping pong"
      FLOATPOS 0 0 0 0
      FXID {9F37C55C-00A2-8F2B-E9AA-B51575560C73}
      WAK 0 0
      BYPASS 0 0 0
      <VST "VST: ReaVerb (Cockos)" reaverb.vst.so 0 "" 1919252066<56535472657662726561766572620000> ""
        YnZlcu5e7f4CAAAAAQAAAAAAAAACAAAAAAAAAAIAAAABAAAAAAAAAAIAAAAAAAAAcAAAAAEAAAAAAAAA
        AAAAwcybgD4AAIA/AAAAAAAAgD8AAIA/AAAAPwAAgD8AAAAAVkVSQkdFTgAYAAAAAAAAAJHgV0QdrLRA3rK7QsHIjEIAAIC/RUNIT0dFTgAcAAAAy/i2QLUjdUJdzdM/
        osdfP5lRrzyRzYxAnMQAPw==
        AHN3ZWV0dmVyYm8AAAAAAA==
      >
      PRESETNAME sweetverbo
      FLOATPOS 0 0 0 0
      FXID {E8BBF139-73BA-C8CB-23E4-259656AC53BA}
      WAK 0 0
    >
    <ITEM
      POSITION 0
      SNAPOFFS 0
      LENGTH 8
      LOOP 1
      ALLTAKES 0
      FADEIN 1 0 0 1 0 0
      FADEOUT 1 0 0 1 0 0
      MUTE 0
      SEL 1
      IGUID {23A366AA-7091-722F-9481-F0ABB120B2DC}
      IID 10
      NAME "01-Recorded MIDI"
      VOLPAN 1 0 1 -1
      SOFFS 0 0
      PLAYRATE 1 1 0 -1 0 0.0021
      CHANMODE 0
      GUID {5467F500-DBEB-71A6-C06A-3E6A9E119C58}
      RECPASS 1
      <SOURCE MIDI
        HASDATA 1 960 QN
        CCINTERP 32
        POOLEDEVTS {13FC6AF0-B2B3-3E1C-1877-9AA7A465122D}
        E 0 90 3c 48
        E 0 90 40 48
        E 0 90 43 48
        E 1920 80 3c 00
        E 0 80 40 00
        E 0 80 43 00
        E 0 90 3c 48
        E 0 90 40 48
        E 0 90 43 48
        E 260 80 3c 00
        E 0 80 40 00
        E 0 80 43 00
        E 440 90 3c 48
        E 0 90 40 48
        E 0 90 43 48
        E 260 80 3c 00
        E 0 80 40 00
        E 0 80 43 00
        e 514 90 3c 48
        e 0 90 40 48
        e 0 90 43 48
        e 260 80 3c 00
        e 0 80 40 00
        e 0 80 43 00
        E 186 90 43 48
        E 0 90 47 48
        E 20 90 40 48
        E 1900 80 43 00
        E 0 80 47 00
        E 0 80 40 00
        E 0 90 43 48
        E 0 90 47 48
        E 20 90 40 48
        E 240 80 43 00
        E 0 80 47 00
        E 0 80 40 00
        E 440 90 43 48
        E 0 90 47 48
        E 20 90 40 48
        E 240 80 43 00
        E 0 80 47 00
        E 0 80 40 00
        e 514 90 43 48
        e 0 90 47 48
        e 20 90 40 48
        e 240 80 43 00
        e 0 80 47 00
        e 0 80 40 00
        E 186 90 41 48
        E 0 90 45 48
        E 0 90 48 48
        E 1920 80 41 00
        E 0 80 45 00
        E 0 80 48 00
        E 0 90 41 48
        E 0 90 45 48
        E 0 90 48 48
        E 260 80 41 00
        E 0 80 45 00
        E 0 80 48 00
        E 440 90 41 48
        E 0 90 45 48
        E 0 90 48 48
        E 260 80 41 00
        E 0 80 45 00
        E 0 80 48 00
        e 514 90 41 48
        e 0 90 45 48
        e 0 90 48 48
        e 260 80 41 00
        e 0 80 45 00
        e 0 80 48 00
        E 162 90 3e 48
        E 24 90 41 48
        E 0 90 45 48
        E 1896 90 3e 48
        E 24 80 3e 00
        E 0 80 41 00
        E 0 80 45 00
        E 0 90 41 48
        E 0 90 45 48
        E 260 80 3e 00
        E 0 80 41 00
        E 0 80 45 00
        E 416 90 3e 48
        E 24 90 41 48
        E 0 90 45 48
        E 260 80 3e 00
        E 0 80 41 00
        E 0 80 45 00
        e 490 90 3e 48
        e 24 90 41 48
        e 0 90 45 48
        e 260 80 3e 00
        e 0 80 41 00
        e 0 80 45 00
        E 186 b0 7b 00
        CHASE_CC_TAKEOFFS 1
        GUID {7B9D708B-43E1-C8D4-C4B3-87E2A6C27801}
        IGNTEMPO 0 120 4 4
        SRCCOLOR 17
        VELLANE -1 100 0
        CFGEDITVIEW 0 0.045808 45 12 0 -1 0 0 0 0.5
        KEYSNAP 0
        TRACKSEL 0
        EVTFILTER 0 -1 -1 -1 -1 0 0 0 0 -1 -1 -1 -1 0 -1 0 -1 -1
        CFGEDIT 1 1 0 1 0 0 1 1 1 1 1 1 58 171 1253 866 0 0 0 0 0.25 0 0 0 0 0.5 0 0 1 64
      >
    >
    <ITEM
      POSITION 8
      SNAPOFFS 0
      LENGTH 8
      LOOP 1
      ALLTAKES 0
      FADEIN 1 0 0 1 0 0
      FADEOUT 1 0 0 1 0 0
      MUTE 0
      SEL 1
      IGUID {19D7C30F-6A4F-DFD9-E5D4-88DDDA8A7F60}
      IID 11
      NAME "01-Recorded MIDI"
      VOLPAN 1 0 1 -1
      SOFFS 0 0
      PLAYRATE 1 1 0 -1 0 0.0021
      CHANMODE 0
      GUID {38707A9E-28CC-DEAD-FF07-63CEF6D1C5A7}
      RECPASS 1
      <SOURCE MIDI
        HASDATA 1 960 QN
        CCINTERP 32
        POOLEDEVTS {44ED55B8-C1BD-F240-A8C4-91FD54160D52}
        E 0 90 3c 48
        E 0 90 40 48
        E 0 90 43 48
        E 1920 80 3c 00
        E 0 80 40 00
        E 0 80 43 00
        E 0 90 3c 48
        E 0 90 40 48
        E 0 90 43 48
        E 260 80 3c 00
        E 0 80 40 00
        E 0 80 43 00
        E 440 90 3c 48
        E 0 90 40 48
        E 0 90 43 48
        E 260 80 3c 00
        E 0 80 40 00
        E 0 80 43 00
        e 514 90 3c 48
        e 0 90 40 48
        e 0 90 43 48
        e 260 80 3c 00
        e 0 80 40 00
        e 0 80 43 00
        E 186 90 43 48
        E 0 90 47 48
        E 20 90 40 48
        E 1900 80 43 00
        E 0 80 47 00
        E 0 80 40 00
        E 0 90 43 48
        E 0 90 47 48
        E 20 90 40 48
        E 240 80 43 00
        E 0 80 47 00
        E 0 80 40 00
        E 440 90 43 48
        E 0 90 47 48
        E 20 90 40 48
        E 240 80 43 00
        E 0 80 47 00
        E 0 80 40 00
        e 514 90 43 48
        e 0 90 47 48
        e 20 90 40 48
        e 240 80 43 00
        e 0 80 47 00
        e 0 80 40 00
        E 186 90 41 48
        E 0 90 45 48
        E 0 90 48 48
        E 1920 80 41 00
        E 0 80 45 00
        E 0 80 48 00
        E 0 90 41 48
        E 0 90 45 48
        E 0 90 48 48
        E 260 80 41 00
        E 0 80 45 00
        E 0 80 48 00
        E 440 90 41 48
        E 0 90 45 48
        E 0 90 48 48
        E 260 80 41 00
        E 0 80 45 00
        E 0 80 48 00
        e 514 90 41 48
        e 0 90 45 48
        e 0 90 48 48
        e 260 80 41 00
        e 0 80 45 00
        e 0 80 48 00
        E 162 90 3e 48
        E 24 90 41 48
        E 0 90 45 48
        E 1896 90 3e 48
        E 24 80 3e 00
        E 0 80 41 00
        E 0 80 45 00
        E 0 90 41 48
        E 0 90 45 48
        E 260 80 3e 00
        E 0 80 41 00
        E 0 80 45 00
        E 416 90 3e 48
        E 24 90 41 48
        E 0 90 45 48
        E 260 80 3e 00
        E 0 80 41 00
        E 0 80 45 00
        e 490 90 3e 48
        e 24 90 41 48
        e 0 90 45 48
        e 260 80 3e 00
        e 0 80 41 00
        e 0 80 45 00
        E 186 b0 7b 00
        CHASE_CC_TAKEOFFS 1
        GUID {3131B4E2-B370-E352-A9C5-C8CA31551A86}
        IGNTEMPO 0 120 4 4
        SRCCOLOR 18
        VELLANE -1 100 0
        CFGEDITVIEW 0 0.045808 45 12 0 -1 0 0 0 0.5
        KEYSNAP 0
        TRACKSEL 0
        EVTFILTER 0 -1 -1 -1 -1 0 0 0 0 -1 -1 -1 -1 0 -1 0 -1 -1
        CFGEDIT 1 1 0 1 0 0 1 1 1 1 1 1 58 171 1253 866 0 0 0 0 0.25 0 0 0 0 0.5 0 0 1 64
      >
    >
    <ITEM
      POSITION 16
      SNAPOFFS 0
      LENGTH 8
      LOOP 1
      ALLTAKES 0
      FADEIN 1 0 0 1 0 0
      FADEOUT 1 0 0 1 0 0
      MUTE 0
      SEL 1
      IGUID {68B4996A-34C1-FF9D-6F3C-40E2B6FCFB25}
      IID 12
      NAME "01-Recorded MIDI"
      VOLPAN 1 0 1 -1
      SOFFS 0 0
      PLAYRATE 1 1 0 -1 0 0.0021
      CHANMODE 0
      GUID {899732D9-D36E-7039-FDF2-02594808E707}
      RECPASS 1
      <SOURCE MIDI
        HASDATA 1 960 QN
        CCINTERP 32
        POOLEDEVTS {C2279713-72CD-5DCB-A9AE-86953835C5E0}
        E 0 90 3c 48
        E 0 90 40 48
        E 0 90 43 48
        E 1920 80 3c 00
        E 0 80 40 00
        E 0 80 43 00
        E 0 90 3c 48
        E 0 90 40 48
        E 0 90 43 48
        E 260 80 3c 00
        E 0 80 40 00
        E 0 80 43 00
        E 440 90 3c 48
        E 0 90 40 48
        E 0 90 43 48
        E 260 80 3c 00
        E 0 80 40 00
        E 0 80 43 00
        e 514 90 3c 48
        e 0 90 40 48
        e 0 90 43 48
        e 260 80 3c 00
        e 0 80 40 00
        e 0 80 43 00
        E 186 90 43 48
        E 0 90 47 48
        E 20 90 40 48
        E 1900 80 43 00
        E 0 80 47 00
        E 0 80 40 00
        E 0 90 43 48
        E 0 90 47 48
        E 20 90 40 48
        E 240 80 43 00
        E 0 80 47 00
        E 0 80 40 00
        E 440 90 43 48
        E 0 90 47 48
        E 20 90 40 48
        E 240 80 43 00
        E 0 80 47 00
        E 0 80 40 00
        e 514 90 43 48
        e 0 90 47 48
        e 20 90 40 48
        e 240 80 43 00
        e 0 80 47 00
        e 0 80 40 00
        E 186 90 41 48
        E 0 90 45 48
        E 0 90 48 48
        E 1920 80 41 00
        E 0 80 45 00
        E 0 80 48 00
        E 0 90 41 48
        E 0 90 45 48
        E 0 90 48 48
        E 260 80 41 00
        E 0 80 45 00
        E 0 80 48 00
        E 440 90 41 48
        E 0 90 45 48
        E 0 90 48 48
        E 260 80 41 00
        E 0 80 45 00
        E 0 80 48 00
        e 514 90 41 48
        e 0 90 45 48
        e 0 90 48 48
        e 260 80 41 00
        e 0 80 45 00
        e 0 80 48 00
        E 162 90 3e 48
        E 24 90 41 48
        E 0 90 45 48
        E 1896 90 3e 48
        E 24 80 3e 00
        E 0 80 41 00
        E 0 80 45 00
        E 0 90 41 48
        E 0 90 45 48
        E 260 80 3e 00
        E 0 80 41 00
        E 0 80 45 00
        E 416 90 3e 48
        E 24 90 41 48
        E 0 90 45 48
        E 260 80 3e 00
        E 0 80 41 00
        E 0 80 45 00
        e 490 90 3e 48
        e 24 90 41 48
        e 0 90 45 48
        e 260 80 3e 00
        e 0 80 41 00
        e 0 80 45 00
        E 186 b0 7b 00
        CHASE_CC_TAKEOFFS 1
        GUID {48C567A2-895C-FB9B-FDBA-0ADB7004ABF3}
        IGNTEMPO 0 120 4 4
        SRCCOLOR 19
        VELLANE -1 100 0
        CFGEDITVIEW 0 0.045808 45 12 0 -1 0 0 0 0.5
        KEYSNAP 0
        TRACKSEL 0
        EVTFILTER 0 -1 -1 -1 -1 0 0 0 0 -1 -1 -1 -1 0 -1 0 -1 -1
        CFGEDIT 1 1 0 1 0 0 1 1 1 1 1 1 58 171 1253 866 0 0 0 0 0.25 0 0 0 0 0.5 0 0 1 64
      >
    >
    <ITEM
      POSITION 24
      SNAPOFFS 0
      LENGTH 8
      LOOP 1
      ALLTAKES 0
      FADEIN 1 0 0 1 0 0
      FADEOUT 1 0 0 1 0 0
      MUTE 0
      SEL 1
      IGUID {FCAF5E72-6745-645E-05DE-28A400B31E01}
      IID 13
      NAME "01-Recorded MIDI"
      VOLPAN 1 0 1 -1
      SOFFS 0 0
      PLAYRATE 1 1 0 -1 0 0.0021
      CHANMODE 0
      GUID {338F2F76-9EB2-972F-58D0-4244BDC849CD}
      RECPASS 1
      <SOURCE MIDI
        HASDATA 1 960 QN
        CCINTERP 32
        POOLEDEVTS {801D4218-6C0D-B713-1CE5-762411BB953A}
        E 0 90 3c 48
        E 0 90 40 48
        E 0 90 43 48
        E 1920 80 3c 00
        E 0 80 40 00
        E 0 80 43 00
        E 0 90 3c 48
        E 0 90 40 48
        E 0 90 43 48
        E 260 80 3c 00
        E 0 80 40 00
        E 0 80 43 00
        E 440 90 3c 48
        E 0 90 40 48
        E 0 90 43 48
        E 260 80 3c 00
        E 0 80 40 00
        E 0 80 43 00
        e 514 90 3c 48
        e 0 90 40 48
        e 0 90 43 48
        e 260 80 3c 00
        e 0 80 40 00
        e 0 80 43 00
        E 186 90 43 48
        E 0 90 47 48
        E 20 90 40 48
        E 1900 80 43 00
        E 0 80 47 00
        E 0 80 40 00
        E 0 90 43 48
        E 0 90 47 48
        E 20 90 40 48
        E 240 80 43 00
        E 0 80 47 00
        E 0 80 40 00
        E 440 90 43 48
        E 0 90 47 48
        E 20 90 40 48
        E 240 80 43 00
        E 0 80 47 00
        E 0 80 40 00
        e 514 90 43 48
        e 0 90 47 48
        e 20 90 40 48
        e 240 80 43 00
        e 0 80 47 00
        e 0 80 40 00
        E 186 90 41 48
        E 0 90 45 48
        E 0 90 48 48
        E 1920 80 41 00
        E 0 80 45 00
        E 0 80 48 00
        E 0 90 41 48
        E 0 90 45 48
        E 0 90 48 48
        E 260 80 41 00
        E 0 80 45 00
        E 0 80 48 00
        E 440 90 41 48
        E 0 90 45 48
        E 0 90 48 48
        E 260 80 41 00
        E 0 80 45 00
        E 0 80 48 00
        e 514 90 41 48
        e 0 90 45 48
        e 0 90 48 48
        e 260 80 41 00
        e 0 80 45 00
        e 0 80 48 00
        E 162 90 3e 48
        E 24 90 41 48
        E 0 90 45 48
        E 1896 90 3e 48
        E 24 80 3e 00
        E 0 80 41 00
        E 0 80 45 00
        E 0 90 41 48
        E 0 90 45 48
        E 260 80 3e 00
        E 0 80 41 00
        E 0 80 45 00
        E 416 90 3e 48
        E 24 90 41 48
        E 0 90 45 48
        E 260 80 3e 00
        E 0 80 41 00
        E 0 80 45 00
        e 490 90 3e 48
        e 24 90 41 48
        e 0 90 45 48
        e 260 80 3e 00
        e 0 80 41 00
        e 0 80 45 00
        E 186 b0 7b 00
        CHASE_CC_TAKEOFFS 1
        GUID {1DE38800-E2A1-41B5-9C8C-3291891093B1}
        IGNTEMPO 0 120 4 4
        SRCCOLOR 20
        VELLANE -1 100 0
        CFGEDITVIEW 0 0.045808 45 12 0 -1 0 0 0 0.5
        KEYSNAP 0
        TRACKSEL 0
        EVTFILTER 0 -1 -1 -1 -1 0 0 0 0 -1 -1 -1 -1 0 -1 0 -1 -1
        CFGEDIT 1 1 0 1 0 0 1 1 1 1 1 1 58 171 1253 866 0 0 0 0 0.25 0 0 0 0 0.5 0 0 1 64
      >
    >
    <ITEM
      POSITION 32
      SNAPOFFS 0
      LENGTH 8
      LOOP 1
      ALLTAKES 0
      FADEIN 1 0 0 1 0 0
      FADEOUT 1 0 0 1 0 0
      MUTE 0
      SEL 1
      IGUID {EBAB0996-0B07-7355-05EE-4795B05B12B9}
      IID 14
      NAME "01-Recorded MIDI"
      VOLPAN 1 0 1 -1
      SOFFS 0 0
      PLAYRATE 1 1 0 -1 0 0.0021
      CHANMODE 0
      GUID {D9579EC6-94FE-CC1A-E565-5C297AA69178}
      RECPASS 1
      <SOURCE MIDI
        HASDATA 1 960 QN
        CCINTERP 32
        POOLEDEVTS {C4E79D74-322D-3449-13B3-511E79F85871}
        E 0 90 3c 48
        E 0 90 40 48
        E 0 90 43 48
        E 1920 80 3c 00
        E 0 80 40 00
        E 0 80 43 00
        E 0 90 3c 48
        E 0 90 40 48
        E 0 90 43 48
        E 260 80 3c 00
        E 0 80 40 00
        E 0 80 43 00
        E 440 90 3c 48
        E 0 90 40 48
        E 0 90 43 48
        E 260 80 3c 00
        E 0 80 40 00
        E 0 80 43 00
        e 514 90 3c 48
        e 0 90 40 48
        e 0 90 43 48
        e 260 80 3c 00
        e 0 80 40 00
        e 0 80 43 00
        E 186 90 43 48
        E 0 90 47 48
        E 20 90 40 48
        E 1900 80 43 00
        E 0 80 47 00
        E 0 80 40 00
        E 0 90 43 48
        E 0 90 47 48
        E 20 90 40 48
        E 240 80 43 00
        E 0 80 47 00
        E 0 80 40 00
        E 440 90 43 48
        E 0 90 47 48
        E 20 90 40 48
        E 240 80 43 00
        E 0 80 47 00
        E 0 80 40 00
        e 514 90 43 48
        e 0 90 47 48
        e 20 90 40 48
        e 240 80 43 00
        e 0 80 47 00
        e 0 80 40 00
        E 186 90 41 48
        E 0 90 45 48
        E 0 90 48 48
        E 1920 80 41 00
        E 0 80 45 00
        E 0 80 48 00
        E 0 90 41 48
        E 0 90 45 48
        E 0 90 48 48
        E 260 80 41 00
        E 0 80 45 00
        E 0 80 48 00
        E 440 90 41 48
        E 0 90 45 48
        E 0 90 48 48
        E 260 80 41 00
        E 0 80 45 00
        E 0 80 48 00
        e 514 90 41 48
        e 0 90 45 48
        e 0 90 48 48
        e 260 80 41 00
        e 0 80 45 00
        e 0 80 48 00
        E 162 90 3e 48
        E 24 90 41 48
        E 0 90 45 48
        E 1896 90 3e 48
        E 24 80 3e 00
        E 0 80 41 00
        E 0 80 45 00
        E 0 90 41 48
        E 0 90 45 48
        E 260 80 3e 00
        E 0 80 41 00
        E 0 80 45 00
        E 416 90 3e 48
        E 24 90 41 48
        E 0 90 45 48
        E 260 80 3e 00
        E 0 80 41 00
        E 0 80 45 00
        e 490 90 3e 48
        e 24 90 41 48
        e 0 90 45 48
        e 260 80 3e 00
        e 0 80 41 00
        e 0 80 45 00
        E 186 b0 7b 00
        CHASE_CC_TAKEOFFS 1
        GUID {0C3271F4-E233-9088-9B25-A722FAE7C579}
        IGNTEMPO 0 120 4 4
        SRCCOLOR 21
        VELLANE -1 100 0
        CFGEDITVIEW 0 0.045808 45 12 0 -1 0 0 0 0.5
        KEYSNAP 0
        TRACKSEL 0
        EVTFILTER 0 -1 -1 -1 -1 0 0 0 0 -1 -1 -1 -1 0 -1 0 -1 -1
        CFGEDIT 1 1 0 1 0 0 1 1 1 1 1 1 58 171 1253 866 0 0 0 0 0.25 0 0 0 0 0.5 0 0 1 64
      >
    >
    <ITEM
      POSITION 40
      SNAPOFFS 0
      LENGTH 8
      LOOP 1
      ALLTAKES 0
      FADEIN 1 0 0 1 0 0
      FADEOUT 1 0 0 1 0 0
      MUTE 0
      SEL 1
      IGUID {F47B6739-58E3-F8E2-CAED-CB8104F27258}
      IID 15
      NAME "01-Recorded MIDI"
      VOLPAN 1 0 1 -1
      SOFFS 0 0
      PLAYRATE 1 1 0 -1 0 0.0021
      CHANMODE 0
      GUID {CCAAF4D1-42BD-EC1B-6F5C-EFB864732BB9}
      RECPASS 1
      <SOURCE MIDI
        HASDATA 1 960 QN
        CCINTERP 32
        POOLEDEVTS {E0FE7672-22A7-FB62-2FA2-C9C9CBE55D5B}
        E 0 90 3c 48
        E 0 90 40 48
        E 0 90 43 48
        E 1920 80 3c 00
        E 0 80 40 00
        E 0 80 43 00
        E 0 90 3c 48
        E 0 90 40 48
        E 0 90 43 48
        E 260 80 3c 00
        E 0 80 40 00
        E 0 80 43 00
        E 440 90 3c 48
        E 0 90 40 48
        E 0 90 43 48
        E 260 80 3c 00
        E 0 80 40 00
        E 0 80 43 00
        e 514 90 3c 48
        e 0 90 40 48
        e 0 90 43 48
        e 260 80 3c 00
        e 0 80 40 00
        e 0 80 43 00
        E 186 90 43 48
        E 0 90 47 48
        E 20 90 40 48
        E 1900 80 43 00
        E 0 80 47 00
        E 0 80 40 00
        E 0 90 43 48
        E 0 90 47 48
        E 20 90 40 48
        E 240 80 43 00
        E 0 80 47 00
        E 0 80 40 00
        E 440 90 43 48
        E 0 90 47 48
        E 20 90 40 48
        E 240 80 43 00
        E 0 80 47 00
        E 0 80 40 00
        e 514 90 43 48
        e 0 90 47 48
        e 20 90 40 48
        e 240 80 43 00
        e 0 80 47 00
        e 0 80 40 00
        E 186 90 41 48
        E 0 90 45 48
        E 0 90 48 48
        E 1920 80 41 00
        E 0 80 45 00
        E 0 80 48 00
        E 0 90 41 48
        E 0 90 45 48
        E 0 90 48 48
        E 260 80 41 00
        E 0 80 45 00
        E 0 80 48 00
        E 440 90 41 48
        E 0 90 45 48
        E 0 90 48 48
        E 260 80 41 00
        E 0 80 45 00
        E 0 80 48 00
        e 514 90 41 48
        e 0 90 45 48
        e 0 90 48 48
        e 260 80 41 00
        e 0 80 45 00
        e 0 80 48 00
        E 162 90 3e 48
        E 24 90 41 48
        E 0 90 45 48
        E 1896 90 3e 48
        E 24 80 3e 00
        E 0 80 41 00
        E 0 80 45 00
        E 0 90 41 48
        E 0 90 45 48
        E 260 80 3e 00
        E 0 80 41 00
        E 0 80 45 00
        E 416 90 3e 48
        E 24 90 41 48
        E 0 90 45 48
        E 260 80 3e 00
        E 0 80 41 00
        E 0 80 45 00
        e 490 90 3e 48
        e 24 90 41 48
        e 0 90 45 48
        e 260 80 3e 00
        e 0 80 41 00
        e 0 80 45 00
        E 186 b0 7b 00
        CHASE_CC_TAKEOFFS 1
        GUID {040E7AF8-3572-5D91-3C86-797AEE7444D4}
        IGNTEMPO 0 120 4 4
        SRCCOLOR 22
        VELLANE -1 100 0
        CFGEDITVIEW 0 0.045808 45 12 0 -1 0 0 0 0.5
        KEYSNAP 0
        TRACKSEL 0
        EVTFILTER 0 -1 -1 -1 -1 0 0 0 0 -1 -1 -1 -1 0 -1 0 -1 -1
        CFGEDIT 1 1 0 1 0 0 1 1 1 1 1 1 58 171 1253 866 0 0 0 0 0.25 0 0 0 0 0.5 0 0 1 64
      >
    >
    <ITEM
      POSITION 48
      SNAPOFFS 0
      LENGTH 8
      LOOP 1
      ALLTAKES 0
      FADEIN 1 0 0 1 0 0
      FADEOUT 1 0 0 1 0 0
      MUTE 0
      SEL 1
      IGUID {59FFC571-622D-C67C-4F9D-92B6F95918E9}
      IID 16
      NAME "01-Recorded MIDI"
      VOLPAN 1 0 1 -1
      SOFFS 0 0
      PLAYRATE 1 1 0 -1 0 0.0021
      CHANMODE 0
      GUID {00E89AC3-41F9-CE77-9091-EE8D36023259}
      RECPASS 1
      <SOURCE MIDI
        HASDATA 1 960 QN
        CCINTERP 32
        POOLEDEVTS {E066097B-1419-2DEE-9A7D-777D819671ED}
        E 0 90 3c 48
        E 0 90 40 48
        E 0 90 43 48
        E 1920 80 3c 00
        E 0 80 40 00
        E 0 80 43 00
        E 0 90 3c 48
        E 0 90 40 48
        E 0 90 43 48
        E 260 80 3c 00
        E 0 80 40 00
        E 0 80 43 00
        E 440 90 3c 48
        E 0 90 40 48
        E 0 90 43 48
        E 260 80 3c 00
        E 0 80 40 00
        E 0 80 43 00
        e 514 90 3c 48
        e 0 90 40 48
        e 0 90 43 48
        e 260 80 3c 00
        e 0 80 40 00
        e 0 80 43 00
        E 186 90 43 48
        E 0 90 47 48
        E 20 90 40 48
        E 1900 80 43 00
        E 0 80 47 00
        E 0 80 40 00
        E 0 90 43 48
        E 0 90 47 48
        E 20 90 40 48
        E 240 80 43 00
        E 0 80 47 00
        E 0 80 40 00
        E 440 90 43 48
        E 0 90 47 48
        E 20 90 40 48
        E 240 80 43 00
        E 0 80 47 00
        E 0 80 40 00
        e 514 90 43 48
        e 0 90 47 48
        e 20 90 40 48
        e 240 80 43 00
        e 0 80 47 00
        e 0 80 40 00
        E 186 90 41 48
        E 0 90 45 48
        E 0 90 48 48
        E 1920 80 41 00
        E 0 80 45 00
        E 0 80 48 00
        E 0 90 41 48
        E 0 90 45 48
        E 0 90 48 48
        E 260 80 41 00
        E 0 80 45 00
        E 0 80 48 00
        E 440 90 41 48
        E 0 90 45 48
        E 0 90 48 48
        E 260 80 41 00
        E 0 80 45 00
        E 0 80 48 00
        e 514 90 41 48
        e 0 90 45 48
        e 0 90 48 48
        e 260 80 41 00
        e 0 80 45 00
        e 0 80 48 00
        E 162 90 3e 48
        E 24 90 41 48
        E 0 90 45 48
        E 1896 90 3e 48
        E 24 80 3e 00
        E 0 80 41 00
        E 0 80 45 00
        E 0 90 41 48
        E 0 90 45 48
        E 260 80 3e 00
        E 0 80 41 00
        E 0 80 45 00
        E 416 90 3e 48
        E 24 90 41 48
        E 0 90 45 48
        E 260 80 3e 00
        E 0 80 41 00
        E 0 80 45 00
        e 490 90 3e 48
        e 24 90 41 48
        e 0 90 45 48
        e 260 80 3e 00
        e 0 80 41 00
        e 0 80 45 00
        E 186 b0 7b 00
        CHASE_CC_TAKEOFFS 1
        GUID {2338968B-6CF9-9F40-300F-DEB89D3392EA}
        IGNTEMPO 0 120 4 4
        SRCCOLOR 23
        VELLANE -1 100 0
        CFGEDITVIEW 0 0.045808 45 12 0 -1 0 0 0 0.5
        KEYSNAP 0
        TRACKSEL 0
        EVTFILTER 0 -1 -1 -1 -1 0 0 0 0 -1 -1 -1 -1 0 -1 0 -1 -1
        CFGEDIT 1 1 0 1 0 0 1 1 1 1 1 1 58 171 1253 866 0 0 0 0 0.25 0 0 0 0 0.5 0 0 1 64
      >
    >
    <ITEM
      POSITION 56
      SNAPOFFS 0
      LENGTH 8
      LOOP 1
      ALLTAKES 0
      FADEIN 1 0 0 1 0 0
      FADEOUT 1 0 0 1 0 0
      MUTE 0
      SEL 1
      IGUID {286F9F1E-4375-9125-B7B0-4957E9FB2E8F}
      IID 17
      NAME "01-Recorded MIDI"
      VOLPAN 1 0 1 -1
      SOFFS 0 0
      PLAYRATE 1 1 0 -1 0 0.0021
      CHANMODE 0
      GUID {378C1610-965C-8314-17D7-ED8DAB0B78F2}
      RECPASS 1
      <SOURCE MIDI
        HASDATA 1 960 QN
        CCINTERP 32
        POOLEDEVTS {F61328D0-FCFF-A0ED-4929-A4FF59D23A9D}
        E 0 90 3c 48
        E 0 90 40 48
        E 0 90 43 48
        E 1920 80 3c 00
        E 0 80 40 00
        E 0 80 43 00
        E 0 90 3c 48
        E 0 90 40 48
        E 0 90 43 48
        E 260 80 3c 00
        E 0 80 40 00
        E 0 80 43 00
        E 440 90 3c 48
        E 0 90 40 48
        E 0 90 43 48
        E 260 80 3c 00
        E 0 80 40 00
        E 0 80 43 00
        e 514 90 3c 48
        e 0 90 40 48
        e 0 90 43 48
        e 260 80 3c 00
        e 0 80 40 00
        e 0 80 43 00
        E 186 90 43 48
        E 0 90 47 48
        E 20 90 40 48
        E 1900 80 43 00
        E 0 80 47 00
        E 0 80 40 00
        E 0 90 43 48
        E 0 90 47 48
        E 20 90 40 48
        E 240 80 43 00
        E 0 80 47 00
        E 0 80 40 00
        E 440 90 43 48
        E 0 90 47 48
        E 20 90 40 48
        E 240 80 43 00
        E 0 80 47 00
        E 0 80 40 00
        e 514 90 43 48
        e 0 90 47 48
        e 20 90 40 48
        e 240 80 43 00
        e 0 80 47 00
        e 0 80 40 00
        E 186 90 41 48
        E 0 90 45 48
        E 0 90 48 48
        E 1920 80 41 00
        E 0 80 45 00
        E 0 80 48 00
        E 0 90 41 48
        E 0 90 45 48
        E 0 90 48 48
        E 260 80 41 00
        E 0 80 45 00
        E 0 80 48 00
        E 440 90 41 48
        E 0 90 45 48
        E 0 90 48 48
        E 260 80 41 00
        E 0 80 45 00
        E 0 80 48 00
        e 514 90 41 48
        e 0 90 45 48
        e 0 90 48 48
        e 260 80 41 00
        e 0 80 45 00
        e 0 80 48 00
        E 162 90 3e 48
        E 24 90 41 48
        E 0 90 45 48
        E 1896 90 3e 48
        E 24 80 3e 00
        E 0 80 41 00
        E 0 80 45 00
        E 0 90 41 48
        E 0 90 45 48
        E 260 80 3e 00
        E 0 80 41 00
        E 0 80 45 00
        E 416 90 3e 48
        E 24 90 41 48
        E 0 90 45 48
        E 260 80 3e 00
        E 0 80 41 00
        E 0 80 45 00
        e 490 90 3e 48
        e 24 90 41 48
        e 0 90 45 48
        e 260 80 3e 00
        e 0 80 41 00
        e 0 80 45 00
        E 186 b0 7b 00
        CHASE_CC_TAKEOFFS 1
        GUID {A64857E2-94F8-0990-20DF-4C1E9B5E6251}
        IGNTEMPO 0 120 4 4
        SRCCOLOR 24
        VELLANE -1 100 0
        CFGEDITVIEW 0 0.045808 45 12 0 -1 0 0 0 0.5
        KEYSNAP 0
        TRACKSEL 0
        EVTFILTER 0 -1 -1 -1 -1 0 0 0 0 -1 -1 -1 -1 0 -1 0 -1 -1
        CFGEDIT 1 1 0 1 0 0 1 1 1 1 1 1 58 171 1253 866 0 0 0 0 0.25 0 0 0 0 0.5 0 0 1 64
      >
    >
    <ITEM
      POSITION 64
      SNAPOFFS 0
      LENGTH 8
      LOOP 1
      ALLTAKES 0
      FADEIN 1 0 0 1 0 0
      FADEOUT 1 0 0 1 0 0
      MUTE 0
      SEL 1
      IGUID {753B5380-D6D0-DB93-8F30-319AB6A7797D}
      IID 18
      NAME "01-Recorded MIDI"
      VOLPAN 1 0 1 -1
      SOFFS 0 0
      PLAYRATE 1 1 0 -1 0 0.0021
      CHANMODE 0
      GUID {B79D3235-2F26-0657-1402-39BA921E7EDA}
      RECPASS 1
      <SOURCE MIDI
        HASDATA 1 960 QN
        CCINTERP 32
        POOLEDEVTS {08A1831D-7484-CF7D-3FD1-1B0C45573FF8}
        E 0 90 3c 48
        E 0 90 40 48
        E 0 90 43 48
        E 1920 80 3c 00
        E 0 80 40 00
        E 0 80 43 00
        E 0 90 3c 48
        E 0 90 40 48
        E 0 90 43 48
        E 260 80 3c 00
        E 0 80 40 00
        E 0 80 43 00
        E 440 90 3c 48
        E 0 90 40 48
        E 0 90 43 48
        E 260 80 3c 00
        E 0 80 40 00
        E 0 80 43 00
        e 514 90 3c 48
        e 0 90 40 48
        e 0 90 43 48
        e 260 80 3c 00
        e 0 80 40 00
        e 0 80 43 00
        E 186 90 43 48
        E 0 90 47 48
        E 20 90 40 48
        E 1900 80 43 00
        E 0 80 47 00
        E 0 80 40 00
        E 0 90 43 48
        E 0 90 47 48
        E 20 90 40 48
        E 240 80 43 00
        E 0 80 47 00
        E 0 80 40 00
        E 440 90 43 48
        E 0 90 47 48
        E 20 90 40 48
        E 240 80 43 00
        E 0 80 47 00
        E 0 80 40 00
        e 514 90 43 48
        e 0 90 47 48
        e 20 90 40 48
        e 240 80 43 00
        e 0 80 47 00
        e 0 80 40 00
        E 186 90 41 48
        E 0 90 45 48
        E 0 90 48 48
        E 1920 80 41 00
        E 0 80 45 00
        E 0 80 48 00
        E 0 90 41 48
        E 0 90 45 48
        E 0 90 48 48
        E 260 80 41 00
        E 0 80 45 00
        E 0 80 48 00
        E 440 90 41 48
        E 0 90 45 48
        E 0 90 48 48
        E 260 80 41 00
        E 0 80 45 00
        E 0 80 48 00
        e 514 90 41 48
        e 0 90 45 48
        e 0 90 48 48
        e 260 80 41 00
        e 0 80 45 00
        e 0 80 48 00
        E 162 90 3e 48
        E 24 90 41 48
        E 0 90 45 48
        E 1896 90 3e 48
        E 24 80 3e 00
        E 0 80 41 00
        E 0 80 45 00
        E 0 90 41 48
        E 0 90 45 48
        E 260 80 3e 00
        E 0 80 41 00
        E 0 80 45 00
        E 416 90 3e 48
        E 24 90 41 48
        E 0 90 45 48
        E 260 80 3e 00
        E 0 80 41 00
        E 0 80 45 00
        e 490 90 3e 48
        e 24 90 41 48
        e 0 90 45 48
        e 260 80 3e 00
        e 0 80 41 00
        e 0 80 45 00
        E 186 b0 7b 00
        CHASE_CC_TAKEOFFS 1
        GUID {19362806-85F2-5D9E-E1F9-07BE0CF3D16E}
        IGNTEMPO 0 120 4 4
        SRCCOLOR 25
        VELLANE -1 100 0
        CFGEDITVIEW 0 0.045808 45 12 0 -1 0 0 0 0.5
        KEYSNAP 0
        TRACKSEL 0
        EVTFILTER 0 -1 -1 -1 -1 0 0 0 0 -1 -1 -1 -1 0 -1 0 -1 -1
        CFGEDIT 1 1 0 1 0 0 1 1 1 1 1 1 58 171 1253 866 0 0 0 0 0.25 0 0 0 0 0.5 0 0 1 64
      >
    >
    <ITEM
      POSITION 72
      SNAPOFFS 0
      LENGTH 8
      LOOP 1
      ALLTAKES 0
      FADEIN 1 0 0 1 0 0
      FADEOUT 1 0 0 1 0 0
      MUTE 0
      SEL 1
      IGUID {0C504511-ACEA-6375-B459-0403E73A8F81}
      IID 19
      NAME "01-Recorded MIDI"
      VOLPAN 1 0 1 -1
      SOFFS 0 0
      PLAYRATE 1 1 0 -1 0 0.0021
      CHANMODE 0
      GUID {55B069AE-22D6-8856-A1D6-795DD434AEF4}
      RECPASS 1
      <SOURCE MIDI
        HASDATA 1 960 QN
        CCINTERP 32
        POOLEDEVTS {38FF4A22-42E5-9C04-8714-D9090C0F2C14}
        E 0 90 3c 48
        E 0 90 40 48
        E 0 90 43 48
        E 1920 80 3c 00
        E 0 80 40 00
        E 0 80 43 00
        E 0 90 3c 48
        E 0 90 40 48
        E 0 90 43 48
        E 260 80 3c 00
        E 0 80 40 00
        E 0 80 43 00
        E 440 90 3c 48
        E 0 90 40 48
        E 0 90 43 48
        E 260 80 3c 00
        E 0 80 40 00
        E 0 80 43 00
        e 514 90 3c 48
        e 0 90 40 48
        e 0 90 43 48
        e 260 80 3c 00
        e 0 80 40 00
        e 0 80 43 00
        E 186 90 43 48
        E 0 90 47 48
        E 20 90 40 48
        E 1900 80 43 00
        E 0 80 47 00
        E 0 80 40 00
        E 0 90 43 48
        E 0 90 47 48
        E 20 90 40 48
        E 240 80 43 00
        E 0 80 47 00
        E 0 80 40 00
        E 440 90 43 48
        E 0 90 47 48
        E 20 90 40 48
        E 240 80 43 00
        E 0 80 47 00
        E 0 80 40 00
        e 514 90 43 48
        e 0 90 47 48
        e 20 90 40 48
        e 240 80 43 00
        e 0 80 47 00
        e 0 80 40 00
        E 186 90 41 48
        E 0 90 45 48
        E 0 90 48 48
        E 1920 80 41 00
        E 0 80 45 00
        E 0 80 48 00
        E 0 90 41 48
        E 0 90 45 48
        E 0 90 48 48
        E 260 80 41 00
        E 0 80 45 00
        E 0 80 48 00
        E 440 90 41 48
        E 0 90 45 48
        E 0 90 48 48
        E 260 80 41 00
        E 0 80 45 00
        E 0 80 48 00
        e 514 90 41 48
        e 0 90 45 48
        e 0 90 48 48
        e 260 80 41 00
        e 0 80 45 00
        e 0 80 48 00
        E 162 90 3e 48
        E 24 90 41 48
        E 0 90 45 48
        E 1896 90 3e 48
        E 24 80 3e 00
        E 0 80 41 00
        E 0 80 45 00
        E 0 90 41 48
        E 0 90 45 48
        E 260 80 3e 00
        E 0 80 41 00
        E 0 80 45 00
        E 416 90 3e 48
        E 24 90 41 48
        E 0 90 45 48
        E 260 80 3e 00
        E 0 80 41 00
        E 0 80 45 00
        e 490 90 3e 48
        e 24 90 41 48
        e 0 90 45 48
        e 260 80 3e 00
        e 0 80 41 00
        e 0 80 45 00
        E 186 b0 7b 00
        CHASE_CC_TAKEOFFS 1
        GUID {6844F8A9-6BE9-023C-4A46-0A676470C99B}
        IGNTEMPO 0 120 4 4
        SRCCOLOR 26
        VELLANE -1 100 0
        CFGEDITVIEW 0 0.045808 45 12 0 -1 0 0 0 0.5
        KEYSNAP 0
        TRACKSEL 0
        EVTFILTER 0 -1 -1 -1 -1 0 0 0 0 -1 -1 -1 -1 0 -1 0 -1 -1
        CFGEDIT 1 1 0 1 0 0 1 1 1 1 1 1 58 171 1253 866 0 0 0 0 0.25 0 0 0 0 0.5 0 0 1 64
      >
    >
    <ITEM
      POSITION 80
      SNAPOFFS 0
      LENGTH 8
      LOOP 1
      ALLTAKES 0
      FADEIN 1 0 0 1 0 0
      FADEOUT 1 0 0 1 0 0
      MUTE 0
      SEL 1
      IGUID {BF18406B-5EDB-1E04-85F7-550CA8F5AA6E}
      IID 20
      NAME "01-Recorded MIDI"
      VOLPAN 1 0 1 -1
      SOFFS 0 0
      PLAYRATE 1 1 0 -1 0 0.0021
      CHANMODE 0
      GUID {04E3B4B5-1AF5-D055-9125-43AB5CC29683}
      RECPASS 1
      <SOURCE MIDI
        HASDATA 1 960 QN
        CCINTERP 32
        POOLEDEVTS {09557A27-668F-9FCA-83D1-6D312290C416}
        E 0 90 3c 48
        E 0 90 40 48
        E 0 90 43 48
        E 1920 80 3c 00
        E 0 80 40 00
        E 0 80 43 00
        E 0 90 3c 48
        E 0 90 40 48
        E 0 90 43 48
        E 260 80 3c 00
        E 0 80 40 00
        E 0 80 43 00
        E 440 90 3c 48
        E 0 90 40 48
        E 0 90 43 48
        E 260 80 3c 00
        E 0 80 40 00
        E 0 80 43 00
        e 514 90 3c 48
        e 0 90 40 48
        e 0 90 43 48
        e 260 80 3c 00
        e 0 80 40 00
        e 0 80 43 00
        E 186 90 43 48
        E 0 90 47 48
        E 20 90 40 48
        E 1900 80 43 00
        E 0 80 47 00
        E 0 80 40 00
        E 0 90 43 48
        E 0 90 47 48
        E 20 90 40 48
        E 240 80 43 00
        E 0 80 47 00
        E 0 80 40 00
        E 440 90 43 48
        E 0 90 47 48
        E 20 90 40 48
        E 240 80 43 00
        E 0 80 47 00
        E 0 80 40 00
        e 514 90 43 48
        e 0 90 47 48
        e 20 90 40 48
        e 240 80 43 00
        e 0 80 47 00
        e 0 80 40 00
        E 186 90 41 48
        E 0 90 45 48
        E 0 90 48 48
        E 1920 80 41 00
        E 0 80 45 00
        E 0 80 48 00
        E 0 90 41 48
        E 0 90 45 48
        E 0 90 48 48
        E 260 80 41 00
        E 0 80 45 00
        E 0 80 48 00
        E 440 90 41 48
        E 0 90 45 48
        E 0 90 48 48
        E 260 80 41 00
        E 0 80 45 00
        E 0 80 48 00
        e 514 90 41 48
        e 0 90 45 48
        e 0 90 48 48
        e 260 80 41 00
        e 0 80 45 00
        e 0 80 48 00
        E 162 90 3e 48
        E 24 90 41 48
        E 0 90 45 48
        E 1896 90 3e 48
        E 24 80 3e 00
        E 0 80 41 00
        E 0 80 45 00
        E 0 90 41 48
        E 0 90 45 48
        E 260 80 3e 00
        E 0 80 41 00
        E 0 80 45 00
        E 416 90 3e 48
        E 24 90 41 48
        E 0 90 45 48
        E 260 80 3e 00
        E 0 80 41 00
        E 0 80 45 00
        e 490 90 3e 48
        e 24 90 41 48
        e 0 90 45 48
        e 260 80 3e 00
        e 0 80 41 00
        e 0 80 45 00
        E 186 b0 7b 00
        CHASE_CC_TAKEOFFS 1
        GUID {E611ADB6-4869-6CCA-8E83-3954D5E743B1}
        IGNTEMPO 0 120 4 4
        SRCCOLOR 27
        VELLANE -1 100 0
        CFGEDITVIEW 0 0.045808 45 12 0 -1 0 0 0 0.5
        KEYSNAP 0
        TRACKSEL 0
        EVTFILTER 0 -1 -1 -1 -1 0 0 0 0 -1 -1 -1 -1 0 -1 0 -1 -1
        CFGEDIT 1 1 0 1 0 0 1 1 1 1 1 1 58 171 1253 866 0 0 0 0 0.25 0 0 0 0 0.5 0 0 1 64
      >
    >
    <ITEM
      POSITION 88
      SNAPOFFS 0
      LENGTH 8
      LOOP 1
      ALLTAKES 0
      FADEIN 1 0 0 1 0 0
      FADEOUT 1 0 0 1 0 0
      MUTE 0
      SEL 1
      IGUID {57020AD3-A32C-2789-6A4C-B6F450F3C823}
      IID 21
      NAME "01-Recorded MIDI"
      VOLPAN 1 0 1 -1
      SOFFS 0 0
      PLAYRATE 1 1 0 -1 0 0.0021
      CHANMODE 0
      GUID {48AC9D0F-B1EA-33BA-1C45-E0B0B82AA2DC}
      RECPASS 1
      <SOURCE MIDI
        HASDATA 1 960 QN
        CCINTERP 32
        POOLEDEVTS {2EB210EA-C0A6-DA4D-D76A-E6F24C76292C}
        E 0 90 3c 48
        E 0 90 40 48
        E 0 90 43 48
        E 1920 80 3c 00
        E 0 80 40 00
        E 0 80 43 00
        E 0 90 3c 48
        E 0 90 40 48
        E 0 90 43 48
        E 260 80 3c 00
        E 0 80 40 00
        E 0 80 43 00
        E 440 90 3c 48
        E 0 90 40 48
        E 0 90 43 48
        E 260 80 3c 00
        E 0 80 40 00
        E 0 80 43 00
        e 514 90 3c 48
        e 0 90 40 48
        e 0 90 43 48
        e 260 80 3c 00
        e 0 80 40 00
        e 0 80 43 00
        E 186 90 43 48
        E 0 90 47 48
        E 20 90 40 48
        E 1900 80 43 00
        E 0 80 47 00
        E 0 80 40 00
        E 0 90 43 48
        E 0 90 47 48
        E 20 90 40 48
        E 240 80 43 00
        E 0 80 47 00
        E 0 80 40 00
        E 440 90 43 48
        E 0 90 47 48
        E 20 90 40 48
        E 240 80 43 00
        E 0 80 47 00
        E 0 80 40 00
        e 514 90 43 48
        e 0 90 47 48
        e 20 90 40 48
        e 240 80 43 00
        e 0 80 47 00
        e 0 80 40 00
        E 186 90 41 48
        E 0 90 45 48
        E 0 90 48 48
        E 1920 80 41 00
        E 0 80 45 00
        E 0 80 48 00
        E 0 90 41 48
        E 0 90 45 48
        E 0 90 48 48
        E 260 80 41 00
        E 0 80 45 00
        E 0 80 48 00
        E 440 90 41 48
        E 0 90 45 48
        E 0 90 48 48
        E 260 80 41 00
        E 0 80 45 00
        E 0 80 48 00
        e 514 90 41 48
        e 0 90 45 48
        e 0 90 48 48
        e 260 80 41 00
        e 0 80 45 00
        e 0 80 48 00
        E 162 90 3e 48
        E 24 90 41 48
        E 0 90 45 48
        E 1896 90 3e 48
        E 24 80 3e 00
        E 0 80 41 00
        E 0 80 45 00
        E 0 90 41 48
        E 0 90 45 48
        E 260 80 3e 00
        E 0 80 41 00
        E 0 80 45 00
        E 416 90 3e 48
        E 24 90 41 48
        E 0 90 45 48
        E 260 80 3e 00
        E 0 80 41 00
        E 0 80 45 00
        e 490 90 3e 48
        e 24 90 41 48
        e 0 90 45 48
        e 260 80 3e 00
        e 0 80 41 00
        e 0 80 45 00
        E 186 b0 7b 00
        CHASE_CC_TAKEOFFS 1
        GUID {C762B555-17FC-D765-5340-11D3487D2955}
        IGNTEMPO 0 120 4 4
        SRCCOLOR 28
        VELLANE -1 100 0
        CFGEDITVIEW 0 0.045808 45 12 0 -1 0 0 0 0.5
        KEYSNAP 0
        TRACKSEL 0
        EVTFILTER 0 -1 -1 -1 -1 0 0 0 0 -1 -1 -1 -1 0 -1 0 -1 -1
        CFGEDIT 1 1 0 1 0 0 1 1 1 1 1 1 58 171 1253 866 0 0 0 0 0.25 0 0 0 0 0.5 0 0 1 64
      >
    >
  >
  <TRACK {34D8766F-44A7-6F4B-E3ED-75786D262785}
    NAME ""
    PEAKCOL 16576
    BEAT -1
    AUTOMODE 0
    VOLPAN 0.00052194381917 0 -1 -1 1
    MUTESOLO 0 0 0
    IPHASE 0
    PLAYOFFS 0 1
    ISBUS 0 0
    BUSCOMP 0 0 0 0 0
    SHOWINMIX 1 0.6667 0.5 1 0.5 0 0 0
    FREEMODE 0
    SEL 0
    REC 0 5056 1 0 0 0 0
    VU 2
    TRACKHEIGHT 21 0 0
    INQ 0 0 0 0.5 100 0 0 100
    NCHAN 2
    FX 0
    TRACKID {34D8766F-44A7-6F4B-E3ED-75786D262785}
    PERF 0
    MIDIOUT -1
    MAINSEND 1 0
    <FXCHAIN
      WNDRECT 346 266 902 608
      SHOW 0
      LASTSEL 5
      DOCKED 0
      BYPASS 0 0 0
      <VST "VST: ReaEQ (Cockos)" reaeq.vst.so 0 "" 1919247729<56535472656571726561657100000000> ""
        cWVlcu5e7f4CAAAAAQAAAAAAAAACAAAAAAAAAAIAAAABAAAAAAAAAAIAAAAAAAAAqAAAAAEAAAAAABAA
        IQAAAAQAAAAEAAAAAQAAAGm4Xhmm+DRAAAAAAAAA8D8AAAAAAAAAQAEIAAAAAQAAAAAAAAAAwHJAAAAAAAAA8D8AAAAAAAAAQAEIAAAAAQAAAAAAAAAAQI9AAAAAAAAA
        8D8AAAAAAAAAQAEDAAAAAQAAAAEBaCorbdRAAAAAAAAA8D8AAAAAAAAAQAEBAAAAAQAAAAAAAAAAAPA/AAAAAJoCAACcAQAA
        AEhpZ2ggbG93IHBhc3MAEAAAAA==
      >
      PRESETNAME "High low pass"
      FLOATPOS 0 0 0 0
      FXID {640E2670-5271-73B3-6EF8-27F608DB6BD8}
      WAK 0 0
      BYPASS 0 0 0
      <VST "VSTi: ReaSynth (Cockos)" reasynth.vst.so 0 "" 1919251321<5653547265737972656173796E746800> ""
        eXNlcu9e7f4AAAAAAgAAAAEAAAAAAAAAAgAAAAAAAAA8AAAAAAAAAAAAEAA=
        776t3g3wrd6lm8Q7F7fROgAAAAAAAAAAAAAAAJCNuT3oZ4g9AACAPwAAAD8AAIA/AAAAAAAAAD8AAAAA
        AAAQAAAA
      >
      FLOATPOS 0 0 0 0
      FXID {C0F1F01F-1B81-223A-F765-7CC946ACB4CF}
      WAK 0 0
      BYPASS 0 0 0
      <JS guitar/amp-model ""
        "Dumble Overdrive Special - Tweed Deluxe.wav" -21.000000 1.000000 0.000000 73.000000 256.000000 - - - - - - - - - - - - - - - - - - - - - - - - - - - - - - - - - - - - - - - - - - - - - - - - - - - - - - - - - - 
      >
      FLOATPOS 0 0 0 0
      FXID {BC07B308-E2F3-4616-658D-E9AC463CC1CD}
      WAK 0 0
      BYPASS 0 0 0
      <VST "VST: ReaComp (Cockos)" reacomp.vst.so 0 "" 1919247213<5653547265636D726561636F6D700000> ""
        bWNlcu9e7f4EAAAAAQAAAAAAAAACAAAAAAAAAAQAAAAAAAAACAAAAAAAAAACAAAAAQAAAAAAAAACAAAAAAAAAFQAAAAAAAAAAAAQAA==
        776t3g3wrd5FoYg9/AWpPKWbxDsK16M8AAAAAAAAAAAAAIA/AAAAAAAAAAAAAAAAnNEHMwAAgD8AAAAAzMxMPQAAAAAAAAAAAAAAAAAAgD7YiZ09
        AAAQAAAA
      >
      FLOATPOS 0 0 0 0
      FXID {4ACCB17A-735A-A2E9-FA57-882AC9F059B8}
      WAK 0 0
      BYPASS 0 0 0
      <VST "VST: ReaDelay (Cockos)" readelay.vst.so 0 "" 1919247468<5653547265646C72656164656C617900> ""
        bGRlcu5e7f4CAAAAAQAAAAAAAAACAAAAAAAAAAIAAAABAAAAAAAAAAIAAAAAAAAA/AAAAAEAAAAAAAAA
        AAAAAAAAAAAFAAAALAAAAAIAAAAEAAAAAACAPwAAgD8AAAAAAACAPwAAAAAAAIA7vTeGNQAAgD8AAAAAAACAPwAAgD8AAIA/AAAAAAAAAAAAAIA/AAAAAAAAADwAAAAA
        AACAPwAAAAAAAIA/AACAP+87NT8AAIA/AAAAAAAAgD8AAAAAAABAPL03hjUAAIA/AAAAAAAAgD8AAIA/zk0AP6abhD4AAAAAAACAPwAAAAAAAIA8vTeGNQAAgD8AAAAA
        AACAPwAAgD8aqrU+pHA9PwAAAAAAAIA/AAAAAAAAoDy9N4Y1AACAPwAAAAAAAIA/AACAP/npAD4AAAA/
        AHN0b2NrIC0gYmFzaWMgNSB0YXAgcGluZyBwb25nAAAAAAA=
      >
      PRESETNAME "stock - basic 5 tap ping pong"
      FLOATPOS 0 0 0 0
      FXID {D8B35CE8-72E3-951E-1639-9270A43B7C52}
      WAK 0 0
      BYPASS 0 0 0
      <VST "VST: ReaVerb (Cockos)" reaverb.vst.so 0 "" 1919252066<56535472657662726561766572620000> ""
        YnZlcu5e7f4CAAAAAQAAAAAAAAACAAAAAAAAAAIAAAABAAAAAAAAAAIAAAAAAAAAcAAAAAEAAAAAAAAA
        AAAAwcybgD4AAIA/AAAAAAAAgD8AAIA/AAAAPwAAgD8AAAAAVkVSQkdFTgAYAAAAAAAAAJHgV0QdrLRA3rK7QsHIjEIAAIC/RUNIT0dFTgAcAAAAy/i2QLUjdUJdzdM/
        osdfP5lRrzyRzYxAnMQAPw==
        AHN3ZWV0dmVyYm8AAAAAAA==
      >
      PRESETNAME sweetverbo
      FLOATPOS 0 0 0 0
      FXID {78F4673F-BD80-EA3E-5342-2AC649D5180E}
      WAK 0 0
    >
    <ITEM
      POSITION 0
      SNAPOFFS 0
      LENGTH 8
      LOOP 1
      ALLTAKES 0
      FADEIN 1 0 0 1 0 0
      FADEOUT 1 0 0 1 0 0
      MUTE 0
      SEL 1
      IGUID {1585288D-ACB1-C1FA-30CF-824092185241}
      IID 10
      NAME "01-Recorded MIDI"
      VOLPAN 1 0 1 -1
      SOFFS 0 0
      PLAYRATE 1 1 0 -1 0 0.0021
      CHANMODE 0
      GUID {12588A47-B60B-64E9-FCEA-E87B74B3E063}
      RECPASS 1
      <SOURCE MIDI
        HASDATA 1 960 QN
        CCINTERP 32
        POOLEDEVTS {1EFB8D39-6C88-4F05-0120-F829C5C780EC}
        E 0 90 3c 48
        E 0 90 40 48
        E 0 90 43 48
        E 1920 80 3c 00
        E 0 80 40 00
        E 0 80 43 00
        E 0 90 3c 48
        E 0 90 40 48
        E 0 90 43 48
        E 260 80 3c 00
        E 0 80 40 00
        E 0 80 43 00
        E 440 90 3c 48
        E 0 90 40 48
        E 0 90 43 48
        E 260 80 3c 00
        E 0 80 40 00
        E 0 80 43 00
        e 514 90 3c 48
        e 0 90 40 48
        e 0 90 43 48
        e 260 80 3c 00
        e 0 80 40 00
        e 0 80 43 00
        E 186 90 43 48
        E 0 90 47 48
        E 20 90 40 48
        E 1900 80 43 00
        E 0 80 47 00
        E 0 80 40 00
        E 0 90 43 48
        E 0 90 47 48
        E 20 90 40 48
        E 240 80 43 00
        E 0 80 47 00
        E 0 80 40 00
        E 440 90 43 48
        E 0 90 47 48
        E 20 90 40 48
        E 240 80 43 00
        E 0 80 47 00
        E 0 80 40 00
        e 514 90 43 48
        e 0 90 47 48
        e 20 90 40 48
        e 240 80 43 00
        e 0 80 47 00
        e 0 80 40 00
        E 186 90 41 48
        E 0 90 45 48
        E 0 90 48 48
        E 1920 80 41 00
        E 0 80 45 00
        E 0 80 48 00
        E 0 90 41 48
        E 0 90 45 48
        E 0 90 48 48
        E 260 80 41 00
        E 0 80 45 00
        E 0 80 48 00
        E 440 90 41 48
        E 0 90 45 48
        E 0 90 48 48
        E 260 80 41 00
        E 0 80 45 00
        E 0 80 48 00
        e 514 90 41 48
        e 0 90 45 48
        e 0 90 48 48
        e 260 80 41 00
        e 0 80 45 00
        e 0 80 48 00
        E 162 90 3e 48
        E 24 90 41 48
        E 0 90 45 48
        E 1896 90 3e 48
        E 24 80 3e 00
        E 0 80 41 00
        E 0 80 45 00
        E 0 90 41 48
        E 0 90 45 48
        E 260 80 3e 00
        E 0 80 41 00
        E 0 80 45 00
        E 416 90 3e 48
        E 24 90 41 48
        E 0 90 45 48
        E 260 80 3e 00
        E 0 80 41 00
        E 0 80 45 00
        e 490 90 3e 48
        e 24 90 41 48
        e 0 90 45 48
        e 260 80 3e 00
        e 0 80 41 00
        e 0 80 45 00
        E 186 b0 7b 00
        CHASE_CC_TAKEOFFS 1
        GUID {7B9D708B-43E1-C8D4-C4B3-87E2A6C27801}
        IGNTEMPO 0 120 4 4
        SRCCOLOR 17
        VELLANE -1 100 0
        CFGEDITVIEW 0 0.045808 45 12 0 -1 0 0 0 0.5
        KEYSNAP 0
        TRACKSEL 0
        EVTFILTER 0 -1 -1 -1 -1 0 0 0 0 -1 -1 -1 -1 0 -1 0 -1 -1
        CFGEDIT 1 1 0 1 0 0 1 1 1 1 1 1 58 171 1253 866 0 0 0 0 0.25 0 0 0 0 0.5 0 0 1 64
      >
    >
    <ITEM
      POSITION 8
      SNAPOFFS 0
      LENGTH 8
      LOOP 1
      ALLTAKES 0
      FADEIN 1 0 0 1 0 0
      FADEOUT 1 0 0 1 0 0
      MUTE 0
      SEL 1
      IGUID {057C6EED-7C03-3BA6-A0E3-3566D41FDBB3}
      IID 11
      NAME "01-Recorded MIDI"
      VOLPAN 1 0 1 -1
      SOFFS 0 0
      PLAYRATE 1 1 0 -1 0 0.0021
      CHANMODE 0
      GUID {0AF87ACA-5195-BFF2-261A-A31F3A681178}
      RECPASS 1
      <SOURCE MIDI
        HASDATA 1 960 QN
        CCINTERP 32
        POOLEDEVTS {73FC01D1-4724-C373-50BD-ABF9E7106540}
        E 0 90 3c 48
        E 0 90 40 48
        E 0 90 43 48
        E 1920 80 3c 00
        E 0 80 40 00
        E 0 80 43 00
        E 0 90 3c 48
        E 0 90 40 48
        E 0 90 43 48
        E 260 80 3c 00
        E 0 80 40 00
        E 0 80 43 00
        E 440 90 3c 48
        E 0 90 40 48
        E 0 90 43 48
        E 260 80 3c 00
        E 0 80 40 00
        E 0 80 43 00
        e 514 90 3c 48
        e 0 90 40 48
        e 0 90 43 48
        e 260 80 3c 00
        e 0 80 40 00
        e 0 80 43 00
        E 186 90 43 48
        E 0 90 47 48
        E 20 90 40 48
        E 1900 80 43 00
        E 0 80 47 00
        E 0 80 40 00
        E 0 90 43 48
        E 0 90 47 48
        E 20 90 40 48
        E 240 80 43 00
        E 0 80 47 00
        E 0 80 40 00
        E 440 90 43 48
        E 0 90 47 48
        E 20 90 40 48
        E 240 80 43 00
        E 0 80 47 00
        E 0 80 40 00
        e 514 90 43 48
        e 0 90 47 48
        e 20 90 40 48
        e 240 80 43 00
        e 0 80 47 00
        e 0 80 40 00
        E 186 90 41 48
        E 0 90 45 48
        E 0 90 48 48
        E 1920 80 41 00
        E 0 80 45 00
        E 0 80 48 00
        E 0 90 41 48
        E 0 90 45 48
        E 0 90 48 48
        E 260 80 41 00
        E 0 80 45 00
        E 0 80 48 00
        E 440 90 41 48
        E 0 90 45 48
        E 0 90 48 48
        E 260 80 41 00
        E 0 80 45 00
        E 0 80 48 00
        e 514 90 41 48
        e 0 90 45 48
        e 0 90 48 48
        e 260 80 41 00
        e 0 80 45 00
        e 0 80 48 00
        E 162 90 3e 48
        E 24 90 41 48
        E 0 90 45 48
        E 1896 90 3e 48
        E 24 80 3e 00
        E 0 80 41 00
        E 0 80 45 00
        E 0 90 41 48
        E 0 90 45 48
        E 260 80 3e 00
        E 0 80 41 00
        E 0 80 45 00
        E 416 90 3e 48
        E 24 90 41 48
        E 0 90 45 48
        E 260 80 3e 00
        E 0 80 41 00
        E 0 80 45 00
        e 490 90 3e 48
        e 24 90 41 48
        e 0 90 45 48
        e 260 80 3e 00
        e 0 80 41 00
        e 0 80 45 00
        E 186 b0 7b 00
        CHASE_CC_TAKEOFFS 1
        GUID {3131B4E2-B370-E352-A9C5-C8CA31551A86}
        IGNTEMPO 0 120 4 4
        SRCCOLOR 18
        VELLANE -1 100 0
        CFGEDITVIEW 0 0.045808 45 12 0 -1 0 0 0 0.5
        KEYSNAP 0
        TRACKSEL 0
        EVTFILTER 0 -1 -1 -1 -1 0 0 0 0 -1 -1 -1 -1 0 -1 0 -1 -1
        CFGEDIT 1 1 0 1 0 0 1 1 1 1 1 1 58 171 1253 866 0 0 0 0 0.25 0 0 0 0 0.5 0 0 1 64
      >
    >
    <ITEM
      POSITION 16
      SNAPOFFS 0
      LENGTH 8
      LOOP 1
      ALLTAKES 0
      FADEIN 1 0 0 1 0 0
      FADEOUT 1 0 0 1 0 0
      MUTE 0
      SEL 1
      IGUID {43BD1F1D-7513-ED2C-1695-91AD0C10FD37}
      IID 12
      NAME "01-Recorded MIDI"
      VOLPAN 1 0 1 -1
      SOFFS 0 0
      PLAYRATE 1 1 0 -1 0 0.0021
      CHANMODE 0
      GUID {19927DA3-547A-EED7-F6FB-C2CB0F39DB6F}
      RECPASS 1
      <SOURCE MIDI
        HASDATA 1 960 QN
        CCINTERP 32
        POOLEDEVTS {1A0E1383-1EDC-22B0-AC6B-66792F005064}
        E 0 90 3c 48
        E 0 90 40 48
        E 0 90 43 48
        E 1920 80 3c 00
        E 0 80 40 00
        E 0 80 43 00
        E 0 90 3c 48
        E 0 90 40 48
        E 0 90 43 48
        E 260 80 3c 00
        E 0 80 40 00
        E 0 80 43 00
        E 440 90 3c 48
        E 0 90 40 48
        E 0 90 43 48
        E 260 80 3c 00
        E 0 80 40 00
        E 0 80 43 00
        e 514 90 3c 48
        e 0 90 40 48
        e 0 90 43 48
        e 260 80 3c 00
        e 0 80 40 00
        e 0 80 43 00
        E 186 90 43 48
        E 0 90 47 48
        E 20 90 40 48
        E 1900 80 43 00
        E 0 80 47 00
        E 0 80 40 00
        E 0 90 43 48
        E 0 90 47 48
        E 20 90 40 48
        E 240 80 43 00
        E 0 80 47 00
        E 0 80 40 00
        E 440 90 43 48
        E 0 90 47 48
        E 20 90 40 48
        E 240 80 43 00
        E 0 80 47 00
        E 0 80 40 00
        e 514 90 43 48
        e 0 90 47 48
        e 20 90 40 48
        e 240 80 43 00
        e 0 80 47 00
        e 0 80 40 00
        E 186 90 41 48
        E 0 90 45 48
        E 0 90 48 48
        E 1920 80 41 00
        E 0 80 45 00
        E 0 80 48 00
        E 0 90 41 48
        E 0 90 45 48
        E 0 90 48 48
        E 260 80 41 00
        E 0 80 45 00
        E 0 80 48 00
        E 440 90 41 48
        E 0 90 45 48
        E 0 90 48 48
        E 260 80 41 00
        E 0 80 45 00
        E 0 80 48 00
        e 514 90 41 48
        e 0 90 45 48
        e 0 90 48 48
        e 260 80 41 00
        e 0 80 45 00
        e 0 80 48 00
        E 162 90 3e 48
        E 24 90 41 48
        E 0 90 45 48
        E 1896 90 3e 48
        E 24 80 3e 00
        E 0 80 41 00
        E 0 80 45 00
        E 0 90 41 48
        E 0 90 45 48
        E 260 80 3e 00
        E 0 80 41 00
        E 0 80 45 00
        E 416 90 3e 48
        E 24 90 41 48
        E 0 90 45 48
        E 260 80 3e 00
        E 0 80 41 00
        E 0 80 45 00
        e 490 90 3e 48
        e 24 90 41 48
        e 0 90 45 48
        e 260 80 3e 00
        e 0 80 41 00
        e 0 80 45 00
        E 186 b0 7b 00
        CHASE_CC_TAKEOFFS 1
        GUID {48C567A2-895C-FB9B-FDBA-0ADB7004ABF3}
        IGNTEMPO 0 120 4 4
        SRCCOLOR 19
        VELLANE -1 100 0
        CFGEDITVIEW 0 0.045808 45 12 0 -1 0 0 0 0.5
        KEYSNAP 0
        TRACKSEL 0
        EVTFILTER 0 -1 -1 -1 -1 0 0 0 0 -1 -1 -1 -1 0 -1 0 -1 -1
        CFGEDIT 1 1 0 1 0 0 1 1 1 1 1 1 58 171 1253 866 0 0 0 0 0.25 0 0 0 0 0.5 0 0 1 64
      >
    >
    <ITEM
      POSITION 24
      SNAPOFFS 0
      LENGTH 8
      LOOP 1
      ALLTAKES 0
      FADEIN 1 0 0 1 0 0
      FADEOUT 1 0 0 1 0 0
      MUTE 0
      SEL 1
      IGUID {6AEF0575-091A-7129-9E6B-594EA1483194}
      IID 13
      NAME "01-Recorded MIDI"
      VOLPAN 1 0 1 -1
      SOFFS 0 0
      PLAYRATE 1 1 0 -1 0 0.0021
      CHANMODE 0
      GUID {C9FF5122-3475-1550-725C-F07E027D7F4B}
      RECPASS 1
      <SOURCE MIDI
        HASDATA 1 960 QN
        CCINTERP 32
        POOLEDEVTS {FBA4D5FE-4975-E817-B0DB-1B8D61732680}
        E 0 90 3c 48
        E 0 90 40 48
        E 0 90 43 48
        E 1920 80 3c 00
        E 0 80 40 00
        E 0 80 43 00
        E 0 90 3c 48
        E 0 90 40 48
        E 0 90 43 48
        E 260 80 3c 00
        E 0 80 40 00
        E 0 80 43 00
        E 440 90 3c 48
        E 0 90 40 48
        E 0 90 43 48
        E 260 80 3c 00
        E 0 80 40 00
        E 0 80 43 00
        e 514 90 3c 48
        e 0 90 40 48
        e 0 90 43 48
        e 260 80 3c 00
        e 0 80 40 00
        e 0 80 43 00
        E 186 90 43 48
        E 0 90 47 48
        E 20 90 40 48
        E 1900 80 43 00
        E 0 80 47 00
        E 0 80 40 00
        E 0 90 43 48
        E 0 90 47 48
        E 20 90 40 48
        E 240 80 43 00
        E 0 80 47 00
        E 0 80 40 00
        E 440 90 43 48
        E 0 90 47 48
        E 20 90 40 48
        E 240 80 43 00
        E 0 80 47 00
        E 0 80 40 00
        e 514 90 43 48
        e 0 90 47 48
        e 20 90 40 48
        e 240 80 43 00
        e 0 80 47 00
        e 0 80 40 00
        E 186 90 41 48
        E 0 90 45 48
        E 0 90 48 48
        E 1920 80 41 00
        E 0 80 45 00
        E 0 80 48 00
        E 0 90 41 48
        E 0 90 45 48
        E 0 90 48 48
        E 260 80 41 00
        E 0 80 45 00
        E 0 80 48 00
        E 440 90 41 48
        E 0 90 45 48
        E 0 90 48 48
        E 260 80 41 00
        E 0 80 45 00
        E 0 80 48 00
        e 514 90 41 48
        e 0 90 45 48
        e 0 90 48 48
        e 260 80 41 00
        e 0 80 45 00
        e 0 80 48 00
        E 162 90 3e 48
        E 24 90 41 48
        E 0 90 45 48
        E 1896 90 3e 48
        E 24 80 3e 00
        E 0 80 41 00
        E 0 80 45 00
        E 0 90 41 48
        E 0 90 45 48
        E 260 80 3e 00
        E 0 80 41 00
        E 0 80 45 00
        E 416 90 3e 48
        E 24 90 41 48
        E 0 90 45 48
        E 260 80 3e 00
        E 0 80 41 00
        E 0 80 45 00
        e 490 90 3e 48
        e 24 90 41 48
        e 0 90 45 48
        e 260 80 3e 00
        e 0 80 41 00
        e 0 80 45 00
        E 186 b0 7b 00
        CHASE_CC_TAKEOFFS 1
        GUID {1DE38800-E2A1-41B5-9C8C-3291891093B1}
        IGNTEMPO 0 120 4 4
        SRCCOLOR 20
        VELLANE -1 100 0
        CFGEDITVIEW 0 0.045808 45 12 0 -1 0 0 0 0.5
        KEYSNAP 0
        TRACKSEL 0
        EVTFILTER 0 -1 -1 -1 -1 0 0 0 0 -1 -1 -1 -1 0 -1 0 -1 -1
        CFGEDIT 1 1 0 1 0 0 1 1 1 1 1 1 58 171 1253 866 0 0 0 0 0.25 0 0 0 0 0.5 0 0 1 64
      >
    >
    <ITEM
      POSITION 32
      SNAPOFFS 0
      LENGTH 8
      LOOP 1
      ALLTAKES 0
      FADEIN 1 0 0 1 0 0
      FADEOUT 1 0 0 1 0 0
      MUTE 0
      SEL 1
      IGUID {2FDAE80F-AD6D-E7DA-3280-3B22E4486DA4}
      IID 14
      NAME "01-Recorded MIDI"
      VOLPAN 1 0 1 -1
      SOFFS 0 0
      PLAYRATE 1 1 0 -1 0 0.0021
      CHANMODE 0
      GUID {07C6AA10-C006-3DE5-7627-EAE65E95FF4C}
      RECPASS 1
      <SOURCE MIDI
        HASDATA 1 960 QN
        CCINTERP 32
        POOLEDEVTS {DCF69B82-6C7D-6D8C-9D9E-D1ADB2E5A03E}
        E 0 90 3c 48
        E 0 90 40 48
        E 0 90 43 48
        E 1920 80 3c 00
        E 0 80 40 00
        E 0 80 43 00
        E 0 90 3c 48
        E 0 90 40 48
        E 0 90 43 48
        E 260 80 3c 00
        E 0 80 40 00
        E 0 80 43 00
        E 440 90 3c 48
        E 0 90 40 48
        E 0 90 43 48
        E 260 80 3c 00
        E 0 80 40 00
        E 0 80 43 00
        e 514 90 3c 48
        e 0 90 40 48
        e 0 90 43 48
        e 260 80 3c 00
        e 0 80 40 00
        e 0 80 43 00
        E 186 90 43 48
        E 0 90 47 48
        E 20 90 40 48
        E 1900 80 43 00
        E 0 80 47 00
        E 0 80 40 00
        E 0 90 43 48
        E 0 90 47 48
        E 20 90 40 48
        E 240 80 43 00
        E 0 80 47 00
        E 0 80 40 00
        E 440 90 43 48
        E 0 90 47 48
        E 20 90 40 48
        E 240 80 43 00
        E 0 80 47 00
        E 0 80 40 00
        e 514 90 43 48
        e 0 90 47 48
        e 20 90 40 48
        e 240 80 43 00
        e 0 80 47 00
        e 0 80 40 00
        E 186 90 41 48
        E 0 90 45 48
        E 0 90 48 48
        E 1920 80 41 00
        E 0 80 45 00
        E 0 80 48 00
        E 0 90 41 48
        E 0 90 45 48
        E 0 90 48 48
        E 260 80 41 00
        E 0 80 45 00
        E 0 80 48 00
        E 440 90 41 48
        E 0 90 45 48
        E 0 90 48 48
        E 260 80 41 00
        E 0 80 45 00
        E 0 80 48 00
        e 514 90 41 48
        e 0 90 45 48
        e 0 90 48 48
        e 260 80 41 00
        e 0 80 45 00
        e 0 80 48 00
        E 162 90 3e 48
        E 24 90 41 48
        E 0 90 45 48
        E 1896 90 3e 48
        E 24 80 3e 00
        E 0 80 41 00
        E 0 80 45 00
        E 0 90 41 48
        E 0 90 45 48
        E 260 80 3e 00
        E 0 80 41 00
        E 0 80 45 00
        E 416 90 3e 48
        E 24 90 41 48
        E 0 90 45 48
        E 260 80 3e 00
        E 0 80 41 00
        E 0 80 45 00
        e 490 90 3e 48
        e 24 90 41 48
        e 0 90 45 48
        e 260 80 3e 00
        e 0 80 41 00
        e 0 80 45 00
        E 186 b0 7b 00
        CHASE_CC_TAKEOFFS 1
        GUID {0C3271F4-E233-9088-9B25-A722FAE7C579}
        IGNTEMPO 0 120 4 4
        SRCCOLOR 21
        VELLANE -1 100 0
        CFGEDITVIEW 0 0.045808 45 12 0 -1 0 0 0 0.5
        KEYSNAP 0
        TRACKSEL 0
        EVTFILTER 0 -1 -1 -1 -1 0 0 0 0 -1 -1 -1 -1 0 -1 0 -1 -1
        CFGEDIT 1 1 0 1 0 0 1 1 1 1 1 1 58 171 1253 866 0 0 0 0 0.25 0 0 0 0 0.5 0 0 1 64
      >
    >
    <ITEM
      POSITION 40
      SNAPOFFS 0
      LENGTH 8
      LOOP 1
      ALLTAKES 0
      FADEIN 1 0 0 1 0 0
      FADEOUT 1 0 0 1 0 0
      MUTE 0
      SEL 1
      IGUID {9DBFA313-286D-481F-F28A-4FC65D5D6EAE}
      IID 15
      NAME "01-Recorded MIDI"
      VOLPAN 1 0 1 -1
      SOFFS 0 0
      PLAYRATE 1 1 0 -1 0 0.0021
      CHANMODE 0
      GUID {7CFAD28C-0B47-DBCC-E1B6-A4D780BABA44}
      RECPASS 1
      <SOURCE MIDI
        HASDATA 1 960 QN
        CCINTERP 32
        POOLEDEVTS {FAAD5F60-45BC-EEF0-E32F-AAFF6F67EC8A}
        E 0 90 3c 48
        E 0 90 40 48
        E 0 90 43 48
        E 1920 80 3c 00
        E 0 80 40 00
        E 0 80 43 00
        E 0 90 3c 48
        E 0 90 40 48
        E 0 90 43 48
        E 260 80 3c 00
        E 0 80 40 00
        E 0 80 43 00
        E 440 90 3c 48
        E 0 90 40 48
        E 0 90 43 48
        E 260 80 3c 00
        E 0 80 40 00
        E 0 80 43 00
        e 514 90 3c 48
        e 0 90 40 48
        e 0 90 43 48
        e 260 80 3c 00
        e 0 80 40 00
        e 0 80 43 00
        E 186 90 43 48
        E 0 90 47 48
        E 20 90 40 48
        E 1900 80 43 00
        E 0 80 47 00
        E 0 80 40 00
        E 0 90 43 48
        E 0 90 47 48
        E 20 90 40 48
        E 240 80 43 00
        E 0 80 47 00
        E 0 80 40 00
        E 440 90 43 48
        E 0 90 47 48
        E 20 90 40 48
        E 240 80 43 00
        E 0 80 47 00
        E 0 80 40 00
        e 514 90 43 48
        e 0 90 47 48
        e 20 90 40 48
        e 240 80 43 00
        e 0 80 47 00
        e 0 80 40 00
        E 186 90 41 48
        E 0 90 45 48
        E 0 90 48 48
        E 1920 80 41 00
        E 0 80 45 00
        E 0 80 48 00
        E 0 90 41 48
        E 0 90 45 48
        E 0 90 48 48
        E 260 80 41 00
        E 0 80 45 00
        E 0 80 48 00
        E 440 90 41 48
        E 0 90 45 48
        E 0 90 48 48
        E 260 80 41 00
        E 0 80 45 00
        E 0 80 48 00
        e 514 90 41 48
        e 0 90 45 48
        e 0 90 48 48
        e 260 80 41 00
        e 0 80 45 00
        e 0 80 48 00
        E 162 90 3e 48
        E 24 90 41 48
        E 0 90 45 48
        E 1896 90 3e 48
        E 24 80 3e 00
        E 0 80 41 00
        E 0 80 45 00
        E 0 90 41 48
        E 0 90 45 48
        E 260 80 3e 00
        E 0 80 41 00
        E 0 80 45 00
        E 416 90 3e 48
        E 24 90 41 48
        E 0 90 45 48
        E 260 80 3e 00
        E 0 80 41 00
        E 0 80 45 00
        e 490 90 3e 48
        e 24 90 41 48
        e 0 90 45 48
        e 260 80 3e 00
        e 0 80 41 00
        e 0 80 45 00
        E 186 b0 7b 00
        CHASE_CC_TAKEOFFS 1
        GUID {040E7AF8-3572-5D91-3C86-797AEE7444D4}
        IGNTEMPO 0 120 4 4
        SRCCOLOR 22
        VELLANE -1 100 0
        CFGEDITVIEW 0 0.045808 45 12 0 -1 0 0 0 0.5
        KEYSNAP 0
        TRACKSEL 0
        EVTFILTER 0 -1 -1 -1 -1 0 0 0 0 -1 -1 -1 -1 0 -1 0 -1 -1
        CFGEDIT 1 1 0 1 0 0 1 1 1 1 1 1 58 171 1253 866 0 0 0 0 0.25 0 0 0 0 0.5 0 0 1 64
      >
    >
    <ITEM
      POSITION 48
      SNAPOFFS 0
      LENGTH 8
      LOOP 1
      ALLTAKES 0
      FADEIN 1 0 0 1 0 0
      FADEOUT 1 0 0 1 0 0
      MUTE 0
      SEL 1
      IGUID {D031652A-8636-5461-A673-4549330CBC9F}
      IID 16
      NAME "01-Recorded MIDI"
      VOLPAN 1 0 1 -1
      SOFFS 0 0
      PLAYRATE 1 1 0 -1 0 0.0021
      CHANMODE 0
      GUID {35CD87F6-E628-73B1-C8BE-1CAF05C006B1}
      RECPASS 1
      <SOURCE MIDI
        HASDATA 1 960 QN
        CCINTERP 32
        POOLEDEVTS {C0E650E4-E24F-B1E7-641C-C02CF8F8E236}
        E 0 90 3c 48
        E 0 90 40 48
        E 0 90 43 48
        E 1920 80 3c 00
        E 0 80 40 00
        E 0 80 43 00
        E 0 90 3c 48
        E 0 90 40 48
        E 0 90 43 48
        E 260 80 3c 00
        E 0 80 40 00
        E 0 80 43 00
        E 440 90 3c 48
        E 0 90 40 48
        E 0 90 43 48
        E 260 80 3c 00
        E 0 80 40 00
        E 0 80 43 00
        e 514 90 3c 48
        e 0 90 40 48
        e 0 90 43 48
        e 260 80 3c 00
        e 0 80 40 00
        e 0 80 43 00
        E 186 90 43 48
        E 0 90 47 48
        E 20 90 40 48
        E 1900 80 43 00
        E 0 80 47 00
        E 0 80 40 00
        E 0 90 43 48
        E 0 90 47 48
        E 20 90 40 48
        E 240 80 43 00
        E 0 80 47 00
        E 0 80 40 00
        E 440 90 43 48
        E 0 90 47 48
        E 20 90 40 48
        E 240 80 43 00
        E 0 80 47 00
        E 0 80 40 00
        e 514 90 43 48
        e 0 90 47 48
        e 20 90 40 48
        e 240 80 43 00
        e 0 80 47 00
        e 0 80 40 00
        E 186 90 41 48
        E 0 90 45 48
        E 0 90 48 48
        E 1920 80 41 00
        E 0 80 45 00
        E 0 80 48 00
        E 0 90 41 48
        E 0 90 45 48
        E 0 90 48 48
        E 260 80 41 00
        E 0 80 45 00
        E 0 80 48 00
        E 440 90 41 48
        E 0 90 45 48
        E 0 90 48 48
        E 260 80 41 00
        E 0 80 45 00
        E 0 80 48 00
        e 514 90 41 48
        e 0 90 45 48
        e 0 90 48 48
        e 260 80 41 00
        e 0 80 45 00
        e 0 80 48 00
        E 162 90 3e 48
        E 24 90 41 48
        E 0 90 45 48
        E 1896 90 3e 48
        E 24 80 3e 00
        E 0 80 41 00
        E 0 80 45 00
        E 0 90 41 48
        E 0 90 45 48
        E 260 80 3e 00
        E 0 80 41 00
        E 0 80 45 00
        E 416 90 3e 48
        E 24 90 41 48
        E 0 90 45 48
        E 260 80 3e 00
        E 0 80 41 00
        E 0 80 45 00
        e 490 90 3e 48
        e 24 90 41 48
        e 0 90 45 48
        e 260 80 3e 00
        e 0 80 41 00
        e 0 80 45 00
        E 186 b0 7b 00
        CHASE_CC_TAKEOFFS 1
        GUID {2338968B-6CF9-9F40-300F-DEB89D3392EA}
        IGNTEMPO 0 120 4 4
        SRCCOLOR 23
        VELLANE -1 100 0
        CFGEDITVIEW 0 0.045808 45 12 0 -1 0 0 0 0.5
        KEYSNAP 0
        TRACKSEL 0
        EVTFILTER 0 -1 -1 -1 -1 0 0 0 0 -1 -1 -1 -1 0 -1 0 -1 -1
        CFGEDIT 1 1 0 1 0 0 1 1 1 1 1 1 58 171 1253 866 0 0 0 0 0.25 0 0 0 0 0.5 0 0 1 64
      >
    >
    <ITEM
      POSITION 56
      SNAPOFFS 0
      LENGTH 8
      LOOP 1
      ALLTAKES 0
      FADEIN 1 0 0 1 0 0
      FADEOUT 1 0 0 1 0 0
      MUTE 0
      SEL 1
      IGUID {CA8C2936-2566-4C08-97B8-2EB9FD2B1C04}
      IID 17
      NAME "01-Recorded MIDI"
      VOLPAN 1 0 1 -1
      SOFFS 0 0
      PLAYRATE 1 1 0 -1 0 0.0021
      CHANMODE 0
      GUID {048024A8-2E13-DB0A-3AAC-48C08B0F4BDA}
      RECPASS 1
      <SOURCE MIDI
        HASDATA 1 960 QN
        CCINTERP 32
        POOLEDEVTS {41F8E8BF-B1CE-4258-7560-E5FD7C65CDAA}
        E 0 90 3c 48
        E 0 90 40 48
        E 0 90 43 48
        E 1920 80 3c 00
        E 0 80 40 00
        E 0 80 43 00
        E 0 90 3c 48
        E 0 90 40 48
        E 0 90 43 48
        E 260 80 3c 00
        E 0 80 40 00
        E 0 80 43 00
        E 440 90 3c 48
        E 0 90 40 48
        E 0 90 43 48
        E 260 80 3c 00
        E 0 80 40 00
        E 0 80 43 00
        e 514 90 3c 48
        e 0 90 40 48
        e 0 90 43 48
        e 260 80 3c 00
        e 0 80 40 00
        e 0 80 43 00
        E 186 90 43 48
        E 0 90 47 48
        E 20 90 40 48
        E 1900 80 43 00
        E 0 80 47 00
        E 0 80 40 00
        E 0 90 43 48
        E 0 90 47 48
        E 20 90 40 48
        E 240 80 43 00
        E 0 80 47 00
        E 0 80 40 00
        E 440 90 43 48
        E 0 90 47 48
        E 20 90 40 48
        E 240 80 43 00
        E 0 80 47 00
        E 0 80 40 00
        e 514 90 43 48
        e 0 90 47 48
        e 20 90 40 48
        e 240 80 43 00
        e 0 80 47 00
        e 0 80 40 00
        E 186 90 41 48
        E 0 90 45 48
        E 0 90 48 48
        E 1920 80 41 00
        E 0 80 45 00
        E 0 80 48 00
        E 0 90 41 48
        E 0 90 45 48
        E 0 90 48 48
        E 260 80 41 00
        E 0 80 45 00
        E 0 80 48 00
        E 440 90 41 48
        E 0 90 45 48
        E 0 90 48 48
        E 260 80 41 00
        E 0 80 45 00
        E 0 80 48 00
        e 514 90 41 48
        e 0 90 45 48
        e 0 90 48 48
        e 260 80 41 00
        e 0 80 45 00
        e 0 80 48 00
        E 162 90 3e 48
        E 24 90 41 48
        E 0 90 45 48
        E 1896 90 3e 48
        E 24 80 3e 00
        E 0 80 41 00
        E 0 80 45 00
        E 0 90 41 48
        E 0 90 45 48
        E 260 80 3e 00
        E 0 80 41 00
        E 0 80 45 00
        E 416 90 3e 48
        E 24 90 41 48
        E 0 90 45 48
        E 260 80 3e 00
        E 0 80 41 00
        E 0 80 45 00
        e 490 90 3e 48
        e 24 90 41 48
        e 0 90 45 48
        e 260 80 3e 00
        e 0 80 41 00
        e 0 80 45 00
        E 186 b0 7b 00
        CHASE_CC_TAKEOFFS 1
        GUID {A64857E2-94F8-0990-20DF-4C1E9B5E6251}
        IGNTEMPO 0 120 4 4
        SRCCOLOR 24
        VELLANE -1 100 0
        CFGEDITVIEW 0 0.045808 45 12 0 -1 0 0 0 0.5
        KEYSNAP 0
        TRACKSEL 0
        EVTFILTER 0 -1 -1 -1 -1 0 0 0 0 -1 -1 -1 -1 0 -1 0 -1 -1
        CFGEDIT 1 1 0 1 0 0 1 1 1 1 1 1 58 171 1253 866 0 0 0 0 0.25 0 0 0 0 0.5 0 0 1 64
      >
    >
    <ITEM
      POSITION 64
      SNAPOFFS 0
      LENGTH 8
      LOOP 1
      ALLTAKES 0
      FADEIN 1 0 0 1 0 0
      FADEOUT 1 0 0 1 0 0
      MUTE 0
      SEL 1
      IGUID {6728C7F1-AEA0-6A33-9ED1-DA10E0FD182A}
      IID 18
      NAME "01-Recorded MIDI"
      VOLPAN 1 0 1 -1
      SOFFS 0 0
      PLAYRATE 1 1 0 -1 0 0.0021
      CHANMODE 0
      GUID {03F81559-C2CA-F91E-B388-D9DBA7B9C560}
      RECPASS 1
      <SOURCE MIDI
        HASDATA 1 960 QN
        CCINTERP 32
        POOLEDEVTS {9576525C-BC5E-9582-0CD9-0B9E9D9E45F7}
        E 0 90 3c 48
        E 0 90 40 48
        E 0 90 43 48
        E 1920 80 3c 00
        E 0 80 40 00
        E 0 80 43 00
        E 0 90 3c 48
        E 0 90 40 48
        E 0 90 43 48
        E 260 80 3c 00
        E 0 80 40 00
        E 0 80 43 00
        E 440 90 3c 48
        E 0 90 40 48
        E 0 90 43 48
        E 260 80 3c 00
        E 0 80 40 00
        E 0 80 43 00
        e 514 90 3c 48
        e 0 90 40 48
        e 0 90 43 48
        e 260 80 3c 00
        e 0 80 40 00
        e 0 80 43 00
        E 186 90 43 48
        E 0 90 47 48
        E 20 90 40 48
        E 1900 80 43 00
        E 0 80 47 00
        E 0 80 40 00
        E 0 90 43 48
        E 0 90 47 48
        E 20 90 40 48
        E 240 80 43 00
        E 0 80 47 00
        E 0 80 40 00
        E 440 90 43 48
        E 0 90 47 48
        E 20 90 40 48
        E 240 80 43 00
        E 0 80 47 00
        E 0 80 40 00
        e 514 90 43 48
        e 0 90 47 48
        e 20 90 40 48
        e 240 80 43 00
        e 0 80 47 00
        e 0 80 40 00
        E 186 90 41 48
        E 0 90 45 48
        E 0 90 48 48
        E 1920 80 41 00
        E 0 80 45 00
        E 0 80 48 00
        E 0 90 41 48
        E 0 90 45 48
        E 0 90 48 48
        E 260 80 41 00
        E 0 80 45 00
        E 0 80 48 00
        E 440 90 41 48
        E 0 90 45 48
        E 0 90 48 48
        E 260 80 41 00
        E 0 80 45 00
        E 0 80 48 00
        e 514 90 41 48
        e 0 90 45 48
        e 0 90 48 48
        e 260 80 41 00
        e 0 80 45 00
        e 0 80 48 00
        E 162 90 3e 48
        E 24 90 41 48
        E 0 90 45 48
        E 1896 90 3e 48
        E 24 80 3e 00
        E 0 80 41 00
        E 0 80 45 00
        E 0 90 41 48
        E 0 90 45 48
        E 260 80 3e 00
        E 0 80 41 00
        E 0 80 45 00
        E 416 90 3e 48
        E 24 90 41 48
        E 0 90 45 48
        E 260 80 3e 00
        E 0 80 41 00
        E 0 80 45 00
        e 490 90 3e 48
        e 24 90 41 48
        e 0 90 45 48
        e 260 80 3e 00
        e 0 80 41 00
        e 0 80 45 00
        E 186 b0 7b 00
        CHASE_CC_TAKEOFFS 1
        GUID {19362806-85F2-5D9E-E1F9-07BE0CF3D16E}
        IGNTEMPO 0 120 4 4
        SRCCOLOR 25
        VELLANE -1 100 0
        CFGEDITVIEW 0 0.045808 45 12 0 -1 0 0 0 0.5
        KEYSNAP 0
        TRACKSEL 0
        EVTFILTER 0 -1 -1 -1 -1 0 0 0 0 -1 -1 -1 -1 0 -1 0 -1 -1
        CFGEDIT 1 1 0 1 0 0 1 1 1 1 1 1 58 171 1253 866 0 0 0 0 0.25 0 0 0 0 0.5 0 0 1 64
      >
    >
    <ITEM
      POSITION 72
      SNAPOFFS 0
      LENGTH 8
      LOOP 1
      ALLTAKES 0
      FADEIN 1 0 0 1 0 0
      FADEOUT 1 0 0 1 0 0
      MUTE 0
      SEL 1
      IGUID {B7D8B22D-B992-5177-F34F-8C50283C5475}
      IID 19
      NAME "01-Recorded MIDI"
      VOLPAN 1 0 1 -1
      SOFFS 0 0
      PLAYRATE 1 1 0 -1 0 0.0021
      CHANMODE 0
      GUID {ECC53517-3ED1-A043-3421-08A02821E83A}
      RECPASS 1
      <SOURCE MIDI
        HASDATA 1 960 QN
        CCINTERP 32
        POOLEDEVTS {F42EE529-A64A-3DD7-EC62-ED7844AE04F6}
        E 0 90 3c 48
        E 0 90 40 48
        E 0 90 43 48
        E 1920 80 3c 00
        E 0 80 40 00
        E 0 80 43 00
        E 0 90 3c 48
        E 0 90 40 48
        E 0 90 43 48
        E 260 80 3c 00
        E 0 80 40 00
        E 0 80 43 00
        E 440 90 3c 48
        E 0 90 40 48
        E 0 90 43 48
        E 260 80 3c 00
        E 0 80 40 00
        E 0 80 43 00
        e 514 90 3c 48
        e 0 90 40 48
        e 0 90 43 48
        e 260 80 3c 00
        e 0 80 40 00
        e 0 80 43 00
        E 186 90 43 48
        E 0 90 47 48
        E 20 90 40 48
        E 1900 80 43 00
        E 0 80 47 00
        E 0 80 40 00
        E 0 90 43 48
        E 0 90 47 48
        E 20 90 40 48
        E 240 80 43 00
        E 0 80 47 00
        E 0 80 40 00
        E 440 90 43 48
        E 0 90 47 48
        E 20 90 40 48
        E 240 80 43 00
        E 0 80 47 00
        E 0 80 40 00
        e 514 90 43 48
        e 0 90 47 48
        e 20 90 40 48
        e 240 80 43 00
        e 0 80 47 00
        e 0 80 40 00
        E 186 90 41 48
        E 0 90 45 48
        E 0 90 48 48
        E 1920 80 41 00
        E 0 80 45 00
        E 0 80 48 00
        E 0 90 41 48
        E 0 90 45 48
        E 0 90 48 48
        E 260 80 41 00
        E 0 80 45 00
        E 0 80 48 00
        E 440 90 41 48
        E 0 90 45 48
        E 0 90 48 48
        E 260 80 41 00
        E 0 80 45 00
        E 0 80 48 00
        e 514 90 41 48
        e 0 90 45 48
        e 0 90 48 48
        e 260 80 41 00
        e 0 80 45 00
        e 0 80 48 00
        E 162 90 3e 48
        E 24 90 41 48
        E 0 90 45 48
        E 1896 90 3e 48
        E 24 80 3e 00
        E 0 80 41 00
        E 0 80 45 00
        E 0 90 41 48
        E 0 90 45 48
        E 260 80 3e 00
        E 0 80 41 00
        E 0 80 45 00
        E 416 90 3e 48
        E 24 90 41 48
        E 0 90 45 48
        E 260 80 3e 00
        E 0 80 41 00
        E 0 80 45 00
        e 490 90 3e 48
        e 24 90 41 48
        e 0 90 45 48
        e 260 80 3e 00
        e 0 80 41 00
        e 0 80 45 00
        E 186 b0 7b 00
        CHASE_CC_TAKEOFFS 1
        GUID {6844F8A9-6BE9-023C-4A46-0A676470C99B}
        IGNTEMPO 0 120 4 4
        SRCCOLOR 26
        VELLANE -1 100 0
        CFGEDITVIEW 0 0.045808 45 12 0 -1 0 0 0 0.5
        KEYSNAP 0
        TRACKSEL 0
        EVTFILTER 0 -1 -1 -1 -1 0 0 0 0 -1 -1 -1 -1 0 -1 0 -1 -1
        CFGEDIT 1 1 0 1 0 0 1 1 1 1 1 1 58 171 1253 866 0 0 0 0 0.25 0 0 0 0 0.5 0 0 1 64
      >
    >
    <ITEM
      POSITION 80
      SNAPOFFS 0
      LENGTH 8
      LOOP 1
      ALLTAKES 0
      FADEIN 1 0 0 1 0 0
      FADEOUT 1 0 0 1 0 0
      MUTE 0
      SEL 1
      IGUID {8EEC5DE2-999F-1D0A-A422-A79A7622A22F}
      IID 20
      NAME "01-Recorded MIDI"
      VOLPAN 1 0 1 -1
      SOFFS 0 0
      PLAYRATE 1 1 0 -1 0 0.0021
      CHANMODE 0
      GUID {89FC3678-6A08-1909-978B-48CA6D71C037}
      RECPASS 1
      <SOURCE MIDI
        HASDATA 1 960 QN
        CCINTERP 32
        POOLEDEVTS {67B110B4-FAD6-4567-F2F8-89C021874FAB}
        E 0 90 3c 48
        E 0 90 40 48
        E 0 90 43 48
        E 1920 80 3c 00
        E 0 80 40 00
        E 0 80 43 00
        E 0 90 3c 48
        E 0 90 40 48
        E 0 90 43 48
        E 260 80 3c 00
        E 0 80 40 00
        E 0 80 43 00
        E 440 90 3c 48
        E 0 90 40 48
        E 0 90 43 48
        E 260 80 3c 00
        E 0 80 40 00
        E 0 80 43 00
        e 514 90 3c 48
        e 0 90 40 48
        e 0 90 43 48
        e 260 80 3c 00
        e 0 80 40 00
        e 0 80 43 00
        E 186 90 43 48
        E 0 90 47 48
        E 20 90 40 48
        E 1900 80 43 00
        E 0 80 47 00
        E 0 80 40 00
        E 0 90 43 48
        E 0 90 47 48
        E 20 90 40 48
        E 240 80 43 00
        E 0 80 47 00
        E 0 80 40 00
        E 440 90 43 48
        E 0 90 47 48
        E 20 90 40 48
        E 240 80 43 00
        E 0 80 47 00
        E 0 80 40 00
        e 514 90 43 48
        e 0 90 47 48
        e 20 90 40 48
        e 240 80 43 00
        e 0 80 47 00
        e 0 80 40 00
        E 186 90 41 48
        E 0 90 45 48
        E 0 90 48 48
        E 1920 80 41 00
        E 0 80 45 00
        E 0 80 48 00
        E 0 90 41 48
        E 0 90 45 48
        E 0 90 48 48
        E 260 80 41 00
        E 0 80 45 00
        E 0 80 48 00
        E 440 90 41 48
        E 0 90 45 48
        E 0 90 48 48
        E 260 80 41 00
        E 0 80 45 00
        E 0 80 48 00
        e 514 90 41 48
        e 0 90 45 48
        e 0 90 48 48
        e 260 80 41 00
        e 0 80 45 00
        e 0 80 48 00
        E 162 90 3e 48
        E 24 90 41 48
        E 0 90 45 48
        E 1896 90 3e 48
        E 24 80 3e 00
        E 0 80 41 00
        E 0 80 45 00
        E 0 90 41 48
        E 0 90 45 48
        E 260 80 3e 00
        E 0 80 41 00
        E 0 80 45 00
        E 416 90 3e 48
        E 24 90 41 48
        E 0 90 45 48
        E 260 80 3e 00
        E 0 80 41 00
        E 0 80 45 00
        e 490 90 3e 48
        e 24 90 41 48
        e 0 90 45 48
        e 260 80 3e 00
        e 0 80 41 00
        e 0 80 45 00
        E 186 b0 7b 00
        CHASE_CC_TAKEOFFS 1
        GUID {E611ADB6-4869-6CCA-8E83-3954D5E743B1}
        IGNTEMPO 0 120 4 4
        SRCCOLOR 27
        VELLANE -1 100 0
        CFGEDITVIEW 0 0.045808 45 12 0 -1 0 0 0 0.5
        KEYSNAP 0
        TRACKSEL 0
        EVTFILTER 0 -1 -1 -1 -1 0 0 0 0 -1 -1 -1 -1 0 -1 0 -1 -1
        CFGEDIT 1 1 0 1 0 0 1 1 1 1 1 1 58 171 1253 866 0 0 0 0 0.25 0 0 0 0 0.5 0 0 1 64
      >
    >
    <ITEM
      POSITION 88
      SNAPOFFS 0
      LENGTH 8
      LOOP 1
      ALLTAKES 0
      FADEIN 1 0 0 1 0 0
      FADEOUT 1 0 0 1 0 0
      MUTE 0
      SEL 1
      IGUID {E3A162BC-4359-47DA-C7B7-DD0723CBEE8D}
      IID 21
      NAME "01-Recorded MIDI"
      VOLPAN 1 0 1 -1
      SOFFS 0 0
      PLAYRATE 1 1 0 -1 0 0.0021
      CHANMODE 0
      GUID {FC62AC93-8EFC-E69A-774B-0F6811F34907}
      RECPASS 1
      <SOURCE MIDI
        HASDATA 1 960 QN
        CCINTERP 32
        POOLEDEVTS {C6506636-D42C-2E7E-30B9-EF4DB4F8B89E}
        E 0 90 3c 48
        E 0 90 40 48
        E 0 90 43 48
        E 1920 80 3c 00
        E 0 80 40 00
        E 0 80 43 00
        E 0 90 3c 48
        E 0 90 40 48
        E 0 90 43 48
        E 260 80 3c 00
        E 0 80 40 00
        E 0 80 43 00
        E 440 90 3c 48
        E 0 90 40 48
        E 0 90 43 48
        E 260 80 3c 00
        E 0 80 40 00
        E 0 80 43 00
        e 514 90 3c 48
        e 0 90 40 48
        e 0 90 43 48
        e 260 80 3c 00
        e 0 80 40 00
        e 0 80 43 00
        E 186 90 43 48
        E 0 90 47 48
        E 20 90 40 48
        E 1900 80 43 00
        E 0 80 47 00
        E 0 80 40 00
        E 0 90 43 48
        E 0 90 47 48
        E 20 90 40 48
        E 240 80 43 00
        E 0 80 47 00
        E 0 80 40 00
        E 440 90 43 48
        E 0 90 47 48
        E 20 90 40 48
        E 240 80 43 00
        E 0 80 47 00
        E 0 80 40 00
        e 514 90 43 48
        e 0 90 47 48
        e 20 90 40 48
        e 240 80 43 00
        e 0 80 47 00
        e 0 80 40 00
        E 186 90 41 48
        E 0 90 45 48
        E 0 90 48 48
        E 1920 80 41 00
        E 0 80 45 00
        E 0 80 48 00
        E 0 90 41 48
        E 0 90 45 48
        E 0 90 48 48
        E 260 80 41 00
        E 0 80 45 00
        E 0 80 48 00
        E 440 90 41 48
        E 0 90 45 48
        E 0 90 48 48
        E 260 80 41 00
        E 0 80 45 00
        E 0 80 48 00
        e 514 90 41 48
        e 0 90 45 48
        e 0 90 48 48
        e 260 80 41 00
        e 0 80 45 00
        e 0 80 48 00
        E 162 90 3e 48
        E 24 90 41 48
        E 0 90 45 48
        E 1896 90 3e 48
        E 24 80 3e 00
        E 0 80 41 00
        E 0 80 45 00
        E 0 90 41 48
        E 0 90 45 48
        E 260 80 3e 00
        E 0 80 41 00
        E 0 80 45 00
        E 416 90 3e 48
        E 24 90 41 48
        E 0 90 45 48
        E 260 80 3e 00
        E 0 80 41 00
        E 0 80 45 00
        e 490 90 3e 48
        e 24 90 41 48
        e 0 90 45 48
        e 260 80 3e 00
        e 0 80 41 00
        e 0 80 45 00
        E 186 b0 7b 00
        CHASE_CC_TAKEOFFS 1
        GUID {C762B555-17FC-D765-5340-11D3487D2955}
        IGNTEMPO 0 120 4 4
        SRCCOLOR 28
        VELLANE -1 100 0
        CFGEDITVIEW 0 0.045808 45 12 0 -1 0 0 0 0.5
        KEYSNAP 0
        TRACKSEL 0
        EVTFILTER 0 -1 -1 -1 -1 0 0 0 0 -1 -1 -1 -1 0 -1 0 -1 -1
        CFGEDIT 1 1 0 1 0 0 1 1 1 1 1 1 58 171 1253 866 0 0 0 0 0.25 0 0 0 0 0.5 0 0 1 64
      >
    >
  >
  <TRACK {770CB815-CFED-FE2A-ECF9-2DF5039D7507}
    NAME ""
    PEAKCOL 16576
    BEAT -1
    AUTOMODE 0
    VOLPAN 0.00052194381917 0 -1 -1 1
    MUTESOLO 0 0 0
    IPHASE 0
    PLAYOFFS 0 1
    ISBUS 0 0
    BUSCOMP 0 0 0 0 0
    SHOWINMIX 1 0.6667 0.5 1 0.5 0 0 0
    FREEMODE 0
    SEL 0
    REC 0 5056 1 0 0 0 0
    VU 2
    TRACKHEIGHT 21 0 0
    INQ 0 0 0 0.5 100 0 0 100
    NCHAN 2
    FX 0
    TRACKID {770CB815-CFED-FE2A-ECF9-2DF5039D7507}
    PERF 0
    MIDIOUT -1
    MAINSEND 1 0
    <FXCHAIN
      WNDRECT 346 266 902 608
      SHOW 0
      LASTSEL 5
      DOCKED 0
      BYPASS 0 0 0
      <VST "VST: ReaEQ (Cockos)" reaeq.vst.so 0 "" 1919247729<56535472656571726561657100000000> ""
        cWVlcu5e7f4CAAAAAQAAAAAAAAACAAAAAAAAAAIAAAABAAAAAAAAAAIAAAAAAAAAqAAAAAEAAAAAABAA
        IQAAAAQAAAAEAAAAAQAAAFS4Xhmm+DRAAAAAAAAA8D8AAAAAAAAAQAEIAAAAAQAAAAAAAAAAwHJAAAAAAAAA8D8AAAAAAAAAQAEIAAAAAQAAAAAAAAAAQI9AAAAAAAAA
        8D8AAAAAAAAAQAEDAAAAAQAAAAABaCorbdRAAAAAAAAA8D8AAAAAAAAAQAEBAAAAAQAAAAAAAAAAAPA/AAAAAJoCAACcAQAA
        AEhpZ2ggbG93IHBhc3MAEAAAAA==
      >
      PRESETNAME "High low pass"
      FLOATPOS 0 0 0 0
      FXID {8828B062-ADC6-7E83-D430-73086A6B2037}
      WAK 0 0
      BYPASS 0 0 0
      <VST "VSTi: ReaSynth (Cockos)" reasynth.vst.so 0 "" 1919251321<5653547265737972656173796E746800> ""
        eXNlcu9e7f4AAAAAAgAAAAEAAAAAAAAAAgAAAAAAAAA8AAAAAAAAAAAAEAA=
        776t3g3wrd6lm8Q7F7fROgAAAAAAAAAAAAAAAJCNuT3oZ4g9AACAPwAAAD8AAIA/AAAAAAAAAD8AAAAA
        AAAQAAAA
      >
      FLOATPOS 0 0 0 0
      FXID {D2E5CC47-1B9E-17FB-8517-F34BCF66AF69}
      WAK 0 0
      BYPASS 0 0 0
      <JS guitar/amp-model ""
        "Dumble Overdrive Special - Tweed Deluxe.wav" -21.000000 1.000000 0.000000 73.000000 256.000000 - - - - - - - - - - - - - - - - - - - - - - - - - - - - - - - - - - - - - - - - - - - - - - - - - - - - - - - - - - 
      >
      FLOATPOS 0 0 0 0
      FXID {357EB9AD-F206-676D-3D7C-C58EFD26A024}
      WAK 0 0
      BYPASS 0 0 0
      <VST "VST: ReaComp (Cockos)" reacomp.vst.so 0 "" 1919247213<5653547265636D726561636F6D700000> ""
        bWNlcu9e7f4EAAAAAQAAAAAAAAACAAAAAAAAAAQAAAAAAAAACAAAAAAAAAACAAAAAQAAAAAAAAACAAAAAAAAAFQAAAAAAAAAAAAQAA==
        776t3g3wrd5FoYg9/AWpPKWbxDsK16M8AAAAAAAAAAAAAIA/AAAAAAAAAAAAAAAAnNEHMwAAgD8AAAAAzMxMPQAAAAAAAAAAAAAAAAAAgD7YiZ09
        AAAQAAAA
      >
      FLOATPOS 0 0 0 0
      FXID {AA793B62-7F7D-6F19-CCBA-9F9E3D0B58A6}
      WAK 0 0
      BYPASS 0 0 0
      <VST "VST: ReaDelay (Cockos)" readelay.vst.so 0 "" 1919247468<5653547265646C72656164656C617900> ""
        bGRlcu5e7f4CAAAAAQAAAAAAAAACAAAAAAAAAAIAAAABAAAAAAAAAAIAAAAAAAAA/AAAAAEAAAAAAAAA
        AAAAAAAAAAAFAAAALAAAAAIAAAAEAAAAAACAPwAAgD8AAAAAAACAPwAAAAAAAIA7vTeGNQAAgD8AAAAAAACAPwAAgD8AAIA/AAAAAAAAAAAAAIA/AAAAAAAAADwAAAAA
        AACAPwAAAAAAAIA/AACAP+87NT8AAIA/AAAAAAAAgD8AAAAAAABAPL03hjUAAIA/AAAAAAAAgD8AAIA/zk0AP6abhD4AAAAAAACAPwAAAAAAAIA8vTeGNQAAgD8AAAAA
        AACAPwAAgD8aqrU+pHA9PwAAAAAAAIA/AAAAAAAAoDy9N4Y1AACAPwAAAAAAAIA/AACAP/npAD4AAAA/
        AHN0b2NrIC0gYmFzaWMgNSB0YXAgcGluZyBwb25nAAAAAAA=
      >
      PRESETNAME "stock - basic 5 tap ping pong"
      FLOATPOS 0 0 0 0
      FXID {C2E203FD-3EE4-931E-6CBC-7C389293697F}
      WAK 0 0
      BYPASS 0 0 0
      <VST "VST: ReaVerb (Cockos)" reaverb.vst.so 0 "" 1919252066<56535472657662726561766572620000> ""
        YnZlcu5e7f4CAAAAAQAAAAAAAAACAAAAAAAAAAIAAAABAAAAAAAAAAIAAAAAAAAAcAAAAAEAAAAAAAAA
        AAAAwcybgD4AAIA/AAAAAAAAgD8AAIA/AAAAPwAAgD8AAAAAVkVSQkdFTgAYAAAAAAAAAJHgV0QdrLRA3rK7QsHIjEIAAIC/RUNIT0dFTgAcAAAAy/i2QLUjdUJdzdM/
        osdfP5lRrzyRzYxAnMQAPw==
        AHN3ZWV0dmVyYm8AAAAAAA==
      >
      PRESETNAME sweetverbo
      FLOATPOS 0 0 0 0
      FXID {EBEFE3E9-5F2C-FCAC-30C9-79A089123880}
      WAK 0 0
    >
    <ITEM
      POSITION 0
      SNAPOFFS 0
      LENGTH 8
      LOOP 1
      ALLTAKES 0
      FADEIN 1 0 0 1 0 0
      FADEOUT 1 0 0 1 0 0
      MUTE 0
      SEL 1
      IGUID {BA1AF609-B2F3-9D6F-37FF-0ECE5F1F42C8}
      IID 10
      NAME "01-Recorded MIDI"
      VOLPAN 1 0 1 -1
      SOFFS 0 0
      PLAYRATE 1 1 0 -1 0 0.0021
      CHANMODE 0
      GUID {BA647B45-DB3F-990C-A1A0-B4075CBE3370}
      RECPASS 1
      <SOURCE MIDI
        HASDATA 1 960 QN
        CCINTERP 32
        POOLEDEVTS {19E12AF9-A2D2-7A48-C64E-5AC28FF3A559}
        E 0 90 3c 48
        E 0 90 40 48
        E 0 90 43 48
        E 1920 80 3c 00
        E 0 80 40 00
        E 0 80 43 00
        E 0 90 3c 48
        E 0 90 40 48
        E 0 90 43 48
        E 260 80 3c 00
        E 0 80 40 00
        E 0 80 43 00
        E 440 90 3c 48
        E 0 90 40 48
        E 0 90 43 48
        E 260 80 3c 00
        E 0 80 40 00
        E 0 80 43 00
        e 514 90 3c 48
        e 0 90 40 48
        e 0 90 43 48
        e 260 80 3c 00
        e 0 80 40 00
        e 0 80 43 00
        E 186 90 43 48
        E 0 90 47 48
        E 20 90 40 48
        E 1900 80 43 00
        E 0 80 47 00
        E 0 80 40 00
        E 0 90 43 48
        E 0 90 47 48
        E 20 90 40 48
        E 240 80 43 00
        E 0 80 47 00
        E 0 80 40 00
        E 440 90 43 48
        E 0 90 47 48
        E 20 90 40 48
        E 240 80 43 00
        E 0 80 47 00
        E 0 80 40 00
        e 514 90 43 48
        e 0 90 47 48
        e 20 90 40 48
        e 240 80 43 00
        e 0 80 47 00
        e 0 80 40 00
        E 186 90 41 48
        E 0 90 45 48
        E 0 90 48 48
        E 1920 80 41 00
        E 0 80 45 00
        E 0 80 48 00
        E 0 90 41 48
        E 0 90 45 48
        E 0 90 48 48
        E 260 80 41 00
        E 0 80 45 00
        E 0 80 48 00
        E 440 90 41 48
        E 0 90 45 48
        E 0 90 48 48
        E 260 80 41 00
        E 0 80 45 00
        E 0 80 48 00
        e 514 90 41 48
        e 0 90 45 48
        e 0 90 48 48
        e 260 80 41 00
        e 0 80 45 00
        e 0 80 48 00
        E 162 90 3e 48
        E 24 90 41 48
        E 0 90 45 48
        E 1896 90 3e 48
        E 24 80 3e 00
        E 0 80 41 00
        E 0 80 45 00
        E 0 90 41 48
        E 0 90 45 48
        E 260 80 3e 00
        E 0 80 41 00
        E 0 80 45 00
        E 416 90 3e 48
        E 24 90 41 48
        E 0 90 45 48
        E 260 80 3e 00
        E 0 80 41 00
        E 0 80 45 00
        e 490 90 3e 48
        e 24 90 41 48
        e 0 90 45 48
        e 260 80 3e 00
        e 0 80 41 00
        e 0 80 45 00
        E 186 b0 7b 00
        CHASE_CC_TAKEOFFS 1
        GUID {7B9D708B-43E1-C8D4-C4B3-87E2A6C27801}
        IGNTEMPO 0 120 4 4
        SRCCOLOR 17
        VELLANE -1 100 0
        CFGEDITVIEW 0 0.045808 45 12 0 -1 0 0 0 0.5
        KEYSNAP 0
        TRACKSEL 0
        EVTFILTER 0 -1 -1 -1 -1 0 0 0 0 -1 -1 -1 -1 0 -1 0 -1 -1
        CFGEDIT 1 1 0 1 0 0 1 1 1 1 1 1 58 171 1253 866 0 0 0 0 0.25 0 0 0 0 0.5 0 0 1 64
      >
    >
    <ITEM
      POSITION 8
      SNAPOFFS 0
      LENGTH 8
      LOOP 1
      ALLTAKES 0
      FADEIN 1 0 0 1 0 0
      FADEOUT 1 0 0 1 0 0
      MUTE 0
      SEL 1
      IGUID {8AAD11E0-A442-F758-AE1D-B151491B3B64}
      IID 11
      NAME "01-Recorded MIDI"
      VOLPAN 1 0 1 -1
      SOFFS 0 0
      PLAYRATE 1 1 0 -1 0 0.0021
      CHANMODE 0
      GUID {62514046-7089-D96A-E28E-702CC9D8DFE2}
      RECPASS 1
      <SOURCE MIDI
        HASDATA 1 960 QN
        CCINTERP 32
        POOLEDEVTS {E16EEBBB-1ABB-4FC6-2DB2-089F96F05442}
        E 0 90 3c 48
        E 0 90 40 48
        E 0 90 43 48
        E 1920 80 3c 00
        E 0 80 40 00
        E 0 80 43 00
        E 0 90 3c 48
        E 0 90 40 48
        E 0 90 43 48
        E 260 80 3c 00
        E 0 80 40 00
        E 0 80 43 00
        E 440 90 3c 48
        E 0 90 40 48
        E 0 90 43 48
        E 260 80 3c 00
        E 0 80 40 00
        E 0 80 43 00
        e 514 90 3c 48
        e 0 90 40 48
        e 0 90 43 48
        e 260 80 3c 00
        e 0 80 40 00
        e 0 80 43 00
        E 186 90 43 48
        E 0 90 47 48
        E 20 90 40 48
        E 1900 80 43 00
        E 0 80 47 00
        E 0 80 40 00
        E 0 90 43 48
        E 0 90 47 48
        E 20 90 40 48
        E 240 80 43 00
        E 0 80 47 00
        E 0 80 40 00
        E 440 90 43 48
        E 0 90 47 48
        E 20 90 40 48
        E 240 80 43 00
        E 0 80 47 00
        E 0 80 40 00
        e 514 90 43 48
        e 0 90 47 48
        e 20 90 40 48
        e 240 80 43 00
        e 0 80 47 00
        e 0 80 40 00
        E 186 90 41 48
        E 0 90 45 48
        E 0 90 48 48
        E 1920 80 41 00
        E 0 80 45 00
        E 0 80 48 00
        E 0 90 41 48
        E 0 90 45 48
        E 0 90 48 48
        E 260 80 41 00
        E 0 80 45 00
        E 0 80 48 00
        E 440 90 41 48
        E 0 90 45 48
        E 0 90 48 48
        E 260 80 41 00
        E 0 80 45 00
        E 0 80 48 00
        e 514 90 41 48
        e 0 90 45 48
        e 0 90 48 48
        e 260 80 41 00
        e 0 80 45 00
        e 0 80 48 00
        E 162 90 3e 48
        E 24 90 41 48
        E 0 90 45 48
        E 1896 90 3e 48
        E 24 80 3e 00
        E 0 80 41 00
        E 0 80 45 00
        E 0 90 41 48
        E 0 90 45 48
        E 260 80 3e 00
        E 0 80 41 00
        E 0 80 45 00
        E 416 90 3e 48
        E 24 90 41 48
        E 0 90 45 48
        E 260 80 3e 00
        E 0 80 41 00
        E 0 80 45 00
        e 490 90 3e 48
        e 24 90 41 48
        e 0 90 45 48
        e 260 80 3e 00
        e 0 80 41 00
        e 0 80 45 00
        E 186 b0 7b 00
        CHASE_CC_TAKEOFFS 1
        GUID {3131B4E2-B370-E352-A9C5-C8CA31551A86}
        IGNTEMPO 0 120 4 4
        SRCCOLOR 18
        VELLANE -1 100 0
        CFGEDITVIEW 0 0.045808 45 12 0 -1 0 0 0 0.5
        KEYSNAP 0
        TRACKSEL 0
        EVTFILTER 0 -1 -1 -1 -1 0 0 0 0 -1 -1 -1 -1 0 -1 0 -1 -1
        CFGEDIT 1 1 0 1 0 0 1 1 1 1 1 1 58 171 1253 866 0 0 0 0 0.25 0 0 0 0 0.5 0 0 1 64
      >
    >
    <ITEM
      POSITION 16
      SNAPOFFS 0
      LENGTH 8
      LOOP 1
      ALLTAKES 0
      FADEIN 1 0 0 1 0 0
      FADEOUT 1 0 0 1 0 0
      MUTE 0
      SEL 1
      IGUID {CE25EDED-1BE1-C59D-33A6-25ED0F13E035}
      IID 12
      NAME "01-Recorded MIDI"
      VOLPAN 1 0 1 -1
      SOFFS 0 0
      PLAYRATE 1 1 0 -1 0 0.0021
      CHANMODE 0
      GUID {4CD5E714-A38B-2ACB-700C-94F0DD0C0D73}
      RECPASS 1
      <SOURCE MIDI
        HASDATA 1 960 QN
        CCINTERP 32
        POOLEDEVTS {32342148-0229-2710-9DDB-645E2F33D295}
        E 0 90 3c 48
        E 0 90 40 48
        E 0 90 43 48
        E 1920 80 3c 00
        E 0 80 40 00
        E 0 80 43 00
        E 0 90 3c 48
        E 0 90 40 48
        E 0 90 43 48
        E 260 80 3c 00
        E 0 80 40 00
        E 0 80 43 00
        E 440 90 3c 48
        E 0 90 40 48
        E 0 90 43 48
        E 260 80 3c 00
        E 0 80 40 00
        E 0 80 43 00
        e 514 90 3c 48
        e 0 90 40 48
        e 0 90 43 48
        e 260 80 3c 00
        e 0 80 40 00
        e 0 80 43 00
        E 186 90 43 48
        E 0 90 47 48
        E 20 90 40 48
        E 1900 80 43 00
        E 0 80 47 00
        E 0 80 40 00
        E 0 90 43 48
        E 0 90 47 48
        E 20 90 40 48
        E 240 80 43 00
        E 0 80 47 00
        E 0 80 40 00
        E 440 90 43 48
        E 0 90 47 48
        E 20 90 40 48
        E 240 80 43 00
        E 0 80 47 00
        E 0 80 40 00
        e 514 90 43 48
        e 0 90 47 48
        e 20 90 40 48
        e 240 80 43 00
        e 0 80 47 00
        e 0 80 40 00
        E 186 90 41 48
        E 0 90 45 48
        E 0 90 48 48
        E 1920 80 41 00
        E 0 80 45 00
        E 0 80 48 00
        E 0 90 41 48
        E 0 90 45 48
        E 0 90 48 48
        E 260 80 41 00
        E 0 80 45 00
        E 0 80 48 00
        E 440 90 41 48
        E 0 90 45 48
        E 0 90 48 48
        E 260 80 41 00
        E 0 80 45 00
        E 0 80 48 00
        e 514 90 41 48
        e 0 90 45 48
        e 0 90 48 48
        e 260 80 41 00
        e 0 80 45 00
        e 0 80 48 00
        E 162 90 3e 48
        E 24 90 41 48
        E 0 90 45 48
        E 1896 90 3e 48
        E 24 80 3e 00
        E 0 80 41 00
        E 0 80 45 00
        E 0 90 41 48
        E 0 90 45 48
        E 260 80 3e 00
        E 0 80 41 00
        E 0 80 45 00
        E 416 90 3e 48
        E 24 90 41 48
        E 0 90 45 48
        E 260 80 3e 00
        E 0 80 41 00
        E 0 80 45 00
        e 490 90 3e 48
        e 24 90 41 48
        e 0 90 45 48
        e 260 80 3e 00
        e 0 80 41 00
        e 0 80 45 00
        E 186 b0 7b 00
        CHASE_CC_TAKEOFFS 1
        GUID {48C567A2-895C-FB9B-FDBA-0ADB7004ABF3}
        IGNTEMPO 0 120 4 4
        SRCCOLOR 19
        VELLANE -1 100 0
        CFGEDITVIEW 0 0.045808 45 12 0 -1 0 0 0 0.5
        KEYSNAP 0
        TRACKSEL 0
        EVTFILTER 0 -1 -1 -1 -1 0 0 0 0 -1 -1 -1 -1 0 -1 0 -1 -1
        CFGEDIT 1 1 0 1 0 0 1 1 1 1 1 1 58 171 1253 866 0 0 0 0 0.25 0 0 0 0 0.5 0 0 1 64
      >
    >
    <ITEM
      POSITION 24
      SNAPOFFS 0
      LENGTH 8
      LOOP 1
      ALLTAKES 0
      FADEIN 1 0 0 1 0 0
      FADEOUT 1 0 0 1 0 0
      MUTE 0
      SEL 1
      IGUID {9A6546E5-D668-A0B9-9C38-A9104069C71D}
      IID 13
      NAME "01-Recorded MIDI"
      VOLPAN 1 0 1 -1
      SOFFS 0 0
      PLAYRATE 1 1 0 -1 0 0.0021
      CHANMODE 0
      GUID {3A43D583-8887-F198-2A96-F53BED2F9AFE}
      RECPASS 1
      <SOURCE MIDI
        HASDATA 1 960 QN
        CCINTERP 32
        POOLEDEVTS {20E5D48A-B31B-8325-9B89-5AC310D66996}
        E 0 90 3c 48
        E 0 90 40 48
        E 0 90 43 48
        E 1920 80 3c 00
        E 0 80 40 00
        E 0 80 43 00
        E 0 90 3c 48
        E 0 90 40 48
        E 0 90 43 48
        E 260 80 3c 00
        E 0 80 40 00
        E 0 80 43 00
        E 440 90 3c 48
        E 0 90 40 48
        E 0 90 43 48
        E 260 80 3c 00
        E 0 80 40 00
        E 0 80 43 00
        e 514 90 3c 48
        e 0 90 40 48
        e 0 90 43 48
        e 260 80 3c 00
        e 0 80 40 00
        e 0 80 43 00
        E 186 90 43 48
        E 0 90 47 48
        E 20 90 40 48
        E 1900 80 43 00
        E 0 80 47 00
        E 0 80 40 00
        E 0 90 43 48
        E 0 90 47 48
        E 20 90 40 48
        E 240 80 43 00
        E 0 80 47 00
        E 0 80 40 00
        E 440 90 43 48
        E 0 90 47 48
        E 20 90 40 48
        E 240 80 43 00
        E 0 80 47 00
        E 0 80 40 00
        e 514 90 43 48
        e 0 90 47 48
        e 20 90 40 48
        e 240 80 43 00
        e 0 80 47 00
        e 0 80 40 00
        E 186 90 41 48
        E 0 90 45 48
        E 0 90 48 48
        E 1920 80 41 00
        E 0 80 45 00
        E 0 80 48 00
        E 0 90 41 48
        E 0 90 45 48
        E 0 90 48 48
        E 260 80 41 00
        E 0 80 45 00
        E 0 80 48 00
        E 440 90 41 48
        E 0 90 45 48
        E 0 90 48 48
        E 260 80 41 00
        E 0 80 45 00
        E 0 80 48 00
        e 514 90 41 48
        e 0 90 45 48
        e 0 90 48 48
        e 260 80 41 00
        e 0 80 45 00
        e 0 80 48 00
        E 162 90 3e 48
        E 24 90 41 48
        E 0 90 45 48
        E 1896 90 3e 48
        E 24 80 3e 00
        E 0 80 41 00
        E 0 80 45 00
        E 0 90 41 48
        E 0 90 45 48
        E 260 80 3e 00
        E 0 80 41 00
        E 0 80 45 00
        E 416 90 3e 48
        E 24 90 41 48
        E 0 90 45 48
        E 260 80 3e 00
        E 0 80 41 00
        E 0 80 45 00
        e 490 90 3e 48
        e 24 90 41 48
        e 0 90 45 48
        e 260 80 3e 00
        e 0 80 41 00
        e 0 80 45 00
        E 186 b0 7b 00
        CHASE_CC_TAKEOFFS 1
        GUID {1DE38800-E2A1-41B5-9C8C-3291891093B1}
        IGNTEMPO 0 120 4 4
        SRCCOLOR 20
        VELLANE -1 100 0
        CFGEDITVIEW 0 0.045808 45 12 0 -1 0 0 0 0.5
        KEYSNAP 0
        TRACKSEL 0
        EVTFILTER 0 -1 -1 -1 -1 0 0 0 0 -1 -1 -1 -1 0 -1 0 -1 -1
        CFGEDIT 1 1 0 1 0 0 1 1 1 1 1 1 58 171 1253 866 0 0 0 0 0.25 0 0 0 0 0.5 0 0 1 64
      >
    >
    <ITEM
      POSITION 32
      SNAPOFFS 0
      LENGTH 8
      LOOP 1
      ALLTAKES 0
      FADEIN 1 0 0 1 0 0
      FADEOUT 1 0 0 1 0 0
      MUTE 0
      SEL 1
      IGUID {A7B8B4E1-428D-7367-549C-A002197CB915}
      IID 14
      NAME "01-Recorded MIDI"
      VOLPAN 1 0 1 -1
      SOFFS 0 0
      PLAYRATE 1 1 0 -1 0 0.0021
      CHANMODE 0
      GUID {9BBF6926-ADDC-CD9F-7971-B5046ED383A1}
      RECPASS 1
      <SOURCE MIDI
        HASDATA 1 960 QN
        CCINTERP 32
        POOLEDEVTS {2FFD4823-A861-D92E-0BCC-638C2B16C86A}
        E 0 90 3c 48
        E 0 90 40 48
        E 0 90 43 48
        E 1920 80 3c 00
        E 0 80 40 00
        E 0 80 43 00
        E 0 90 3c 48
        E 0 90 40 48
        E 0 90 43 48
        E 260 80 3c 00
        E 0 80 40 00
        E 0 80 43 00
        E 440 90 3c 48
        E 0 90 40 48
        E 0 90 43 48
        E 260 80 3c 00
        E 0 80 40 00
        E 0 80 43 00
        e 514 90 3c 48
        e 0 90 40 48
        e 0 90 43 48
        e 260 80 3c 00
        e 0 80 40 00
        e 0 80 43 00
        E 186 90 43 48
        E 0 90 47 48
        E 20 90 40 48
        E 1900 80 43 00
        E 0 80 47 00
        E 0 80 40 00
        E 0 90 43 48
        E 0 90 47 48
        E 20 90 40 48
        E 240 80 43 00
        E 0 80 47 00
        E 0 80 40 00
        E 440 90 43 48
        E 0 90 47 48
        E 20 90 40 48
        E 240 80 43 00
        E 0 80 47 00
        E 0 80 40 00
        e 514 90 43 48
        e 0 90 47 48
        e 20 90 40 48
        e 240 80 43 00
        e 0 80 47 00
        e 0 80 40 00
        E 186 90 41 48
        E 0 90 45 48
        E 0 90 48 48
        E 1920 80 41 00
        E 0 80 45 00
        E 0 80 48 00
        E 0 90 41 48
        E 0 90 45 48
        E 0 90 48 48
        E 260 80 41 00
        E 0 80 45 00
        E 0 80 48 00
        E 440 90 41 48
        E 0 90 45 48
        E 0 90 48 48
        E 260 80 41 00
        E 0 80 45 00
        E 0 80 48 00
        e 514 90 41 48
        e 0 90 45 48
        e 0 90 48 48
        e 260 80 41 00
        e 0 80 45 00
        e 0 80 48 00
        E 162 90 3e 48
        E 24 90 41 48
        E 0 90 45 48
        E 1896 90 3e 48
        E 24 80 3e 00
        E 0 80 41 00
        E 0 80 45 00
        E 0 90 41 48
        E 0 90 45 48
        E 260 80 3e 00
        E 0 80 41 00
        E 0 80 45 00
        E 416 90 3e 48
        E 24 90 41 48
        E 0 90 45 48
        E 260 80 3e 00
        E 0 80 41 00
        E 0 80 45 00
        e 490 90 3e 48
        e 24 90 41 48
        e 0 90 45 48
        e 260 80 3e 00
        e 0 80 41 00
        e 0 80 45 00
        E 186 b0 7b 00
        CHASE_CC_TAKEOFFS 1
        GUID {0C3271F4-E233-9088-9B25-A722FAE7C579}
        IGNTEMPO 0 120 4 4
        SRCCOLOR 21
        VELLANE -1 100 0
        CFGEDITVIEW 0 0.045808 45 12 0 -1 0 0 0 0.5
        KEYSNAP 0
        TRACKSEL 0
        EVTFILTER 0 -1 -1 -1 -1 0 0 0 0 -1 -1 -1 -1 0 -1 0 -1 -1
        CFGEDIT 1 1 0 1 0 0 1 1 1 1 1 1 58 171 1253 866 0 0 0 0 0.25 0 0 0 0 0.5 0 0 1 64
      >
    >
    <ITEM
      POSITION 40
      SNAPOFFS 0
      LENGTH 8
      LOOP 1
      ALLTAKES 0
      FADEIN 1 0 0 1 0 0
      FADEOUT 1 0 0 1 0 0
      MUTE 0
      SEL 1
      IGUID {9B68F98D-A50D-C8D6-0FE7-C7F5D8CBD57F}
      IID 15
      NAME "01-Recorded MIDI"
      VOLPAN 1 0 1 -1
      SOFFS 0 0
      PLAYRATE 1 1 0 -1 0 0.0021
      CHANMODE 0
      GUID {636D9FC5-93C2-6691-49E2-C9F8B0CB6CEC}
      RECPASS 1
      <SOURCE MIDI
        HASDATA 1 960 QN
        CCINTERP 32
        POOLEDEVTS {E2EE06F3-F342-6FE1-C158-9451A2E4EB86}
        E 0 90 3c 48
        E 0 90 40 48
        E 0 90 43 48
        E 1920 80 3c 00
        E 0 80 40 00
        E 0 80 43 00
        E 0 90 3c 48
        E 0 90 40 48
        E 0 90 43 48
        E 260 80 3c 00
        E 0 80 40 00
        E 0 80 43 00
        E 440 90 3c 48
        E 0 90 40 48
        E 0 90 43 48
        E 260 80 3c 00
        E 0 80 40 00
        E 0 80 43 00
        e 514 90 3c 48
        e 0 90 40 48
        e 0 90 43 48
        e 260 80 3c 00
        e 0 80 40 00
        e 0 80 43 00
        E 186 90 43 48
        E 0 90 47 48
        E 20 90 40 48
        E 1900 80 43 00
        E 0 80 47 00
        E 0 80 40 00
        E 0 90 43 48
        E 0 90 47 48
        E 20 90 40 48
        E 240 80 43 00
        E 0 80 47 00
        E 0 80 40 00
        E 440 90 43 48
        E 0 90 47 48
        E 20 90 40 48
        E 240 80 43 00
        E 0 80 47 00
        E 0 80 40 00
        e 514 90 43 48
        e 0 90 47 48
        e 20 90 40 48
        e 240 80 43 00
        e 0 80 47 00
        e 0 80 40 00
        E 186 90 41 48
        E 0 90 45 48
        E 0 90 48 48
        E 1920 80 41 00
        E 0 80 45 00
        E 0 80 48 00
        E 0 90 41 48
        E 0 90 45 48
        E 0 90 48 48
        E 260 80 41 00
        E 0 80 45 00
        E 0 80 48 00
        E 440 90 41 48
        E 0 90 45 48
        E 0 90 48 48
        E 260 80 41 00
        E 0 80 45 00
        E 0 80 48 00
        e 514 90 41 48
        e 0 90 45 48
        e 0 90 48 48
        e 260 80 41 00
        e 0 80 45 00
        e 0 80 48 00
        E 162 90 3e 48
        E 24 90 41 48
        E 0 90 45 48
        E 1896 90 3e 48
        E 24 80 3e 00
        E 0 80 41 00
        E 0 80 45 00
        E 0 90 41 48
        E 0 90 45 48
        E 260 80 3e 00
        E 0 80 41 00
        E 0 80 45 00
        E 416 90 3e 48
        E 24 90 41 48
        E 0 90 45 48
        E 260 80 3e 00
        E 0 80 41 00
        E 0 80 45 00
        e 490 90 3e 48
        e 24 90 41 48
        e 0 90 45 48
        e 260 80 3e 00
        e 0 80 41 00
        e 0 80 45 00
        E 186 b0 7b 00
        CHASE_CC_TAKEOFFS 1
        GUID {040E7AF8-3572-5D91-3C86-797AEE7444D4}
        IGNTEMPO 0 120 4 4
        SRCCOLOR 22
        VELLANE -1 100 0
        CFGEDITVIEW 0 0.045808 45 12 0 -1 0 0 0 0.5
        KEYSNAP 0
        TRACKSEL 0
        EVTFILTER 0 -1 -1 -1 -1 0 0 0 0 -1 -1 -1 -1 0 -1 0 -1 -1
        CFGEDIT 1 1 0 1 0 0 1 1 1 1 1 1 58 171 1253 866 0 0 0 0 0.25 0 0 0 0 0.5 0 0 1 64
      >
    >
    <ITEM
      POSITION 48
      SNAPOFFS 0
      LENGTH 8
      LOOP 1
      ALLTAKES 0
      FADEIN 1 0 0 1 0 0
      FADEOUT 1 0 0 1 0 0
      MUTE 0
      SEL 1
      IGUID {348EC61F-2DE2-1C88-E132-6056C29E6739}
      IID 16
      NAME "01-Recorded MIDI"
      VOLPAN 1 0 1 -1
      SOFFS 0 0
      PLAYRATE 1 1 0 -1 0 0.0021
      CHANMODE 0
      GUID {2A17FAFF-E4F1-17BF-87D1-7D069A24880B}
      RECPASS 1
      <SOURCE MIDI
        HASDATA 1 960 QN
        CCINTERP 32
        POOLEDEVTS {6AA92765-FA01-E06C-6658-5231AA1B7351}
        E 0 90 3c 48
        E 0 90 40 48
        E 0 90 43 48
        E 1920 80 3c 00
        E 0 80 40 00
        E 0 80 43 00
        E 0 90 3c 48
        E 0 90 40 48
        E 0 90 43 48
        E 260 80 3c 00
        E 0 80 40 00
        E 0 80 43 00
        E 440 90 3c 48
        E 0 90 40 48
        E 0 90 43 48
        E 260 80 3c 00
        E 0 80 40 00
        E 0 80 43 00
        e 514 90 3c 48
        e 0 90 40 48
        e 0 90 43 48
        e 260 80 3c 00
        e 0 80 40 00
        e 0 80 43 00
        E 186 90 43 48
        E 0 90 47 48
        E 20 90 40 48
        E 1900 80 43 00
        E 0 80 47 00
        E 0 80 40 00
        E 0 90 43 48
        E 0 90 47 48
        E 20 90 40 48
        E 240 80 43 00
        E 0 80 47 00
        E 0 80 40 00
        E 440 90 43 48
        E 0 90 47 48
        E 20 90 40 48
        E 240 80 43 00
        E 0 80 47 00
        E 0 80 40 00
        e 514 90 43 48
        e 0 90 47 48
        e 20 90 40 48
        e 240 80 43 00
        e 0 80 47 00
        e 0 80 40 00
        E 186 90 41 48
        E 0 90 45 48
        E 0 90 48 48
        E 1920 80 41 00
        E 0 80 45 00
        E 0 80 48 00
        E 0 90 41 48
        E 0 90 45 48
        E 0 90 48 48
        E 260 80 41 00
        E 0 80 45 00
        E 0 80 48 00
        E 440 90 41 48
        E 0 90 45 48
        E 0 90 48 48
        E 260 80 41 00
        E 0 80 45 00
        E 0 80 48 00
        e 514 90 41 48
        e 0 90 45 48
        e 0 90 48 48
        e 260 80 41 00
        e 0 80 45 00
        e 0 80 48 00
        E 162 90 3e 48
        E 24 90 41 48
        E 0 90 45 48
        E 1896 90 3e 48
        E 24 80 3e 00
        E 0 80 41 00
        E 0 80 45 00
        E 0 90 41 48
        E 0 90 45 48
        E 260 80 3e 00
        E 0 80 41 00
        E 0 80 45 00
        E 416 90 3e 48
        E 24 90 41 48
        E 0 90 45 48
        E 260 80 3e 00
        E 0 80 41 00
        E 0 80 45 00
        e 490 90 3e 48
        e 24 90 41 48
        e 0 90 45 48
        e 260 80 3e 00
        e 0 80 41 00
        e 0 80 45 00
        E 186 b0 7b 00
        CHASE_CC_TAKEOFFS 1
        GUID {2338968B-6CF9-9F40-300F-DEB89D3392EA}
        IGNTEMPO 0 120 4 4
        SRCCOLOR 23
        VELLANE -1 100 0
        CFGEDITVIEW 0 0.045808 45 12 0 -1 0 0 0 0.5
        KEYSNAP 0
        TRACKSEL 0
        EVTFILTER 0 -1 -1 -1 -1 0 0 0 0 -1 -1 -1 -1 0 -1 0 -1 -1
        CFGEDIT 1 1 0 1 0 0 1 1 1 1 1 1 58 171 1253 866 0 0 0 0 0.25 0 0 0 0 0.5 0 0 1 64
      >
    >
    <ITEM
      POSITION 56
      SNAPOFFS 0
      LENGTH 8
      LOOP 1
      ALLTAKES 0
      FADEIN 1 0 0 1 0 0
      FADEOUT 1 0 0 1 0 0
      MUTE 0
      SEL 1
      IGUID {70721F60-06ED-6514-D244-29EF54905661}
      IID 17
      NAME "01-Recorded MIDI"
      VOLPAN 1 0 1 -1
      SOFFS 0 0
      PLAYRATE 1 1 0 -1 0 0.0021
      CHANMODE 0
      GUID {69E7AF30-361A-CD80-A5D8-F3EFC845F4D7}
      RECPASS 1
      <SOURCE MIDI
        HASDATA 1 960 QN
        CCINTERP 32
        POOLEDEVTS {4F8C3E1D-D3ED-5E12-7071-1C849A40ADF0}
        E 0 90 3c 48
        E 0 90 40 48
        E 0 90 43 48
        E 1920 80 3c 00
        E 0 80 40 00
        E 0 80 43 00
        E 0 90 3c 48
        E 0 90 40 48
        E 0 90 43 48
        E 260 80 3c 00
        E 0 80 40 00
        E 0 80 43 00
        E 440 90 3c 48
        E 0 90 40 48
        E 0 90 43 48
        E 260 80 3c 00
        E 0 80 40 00
        E 0 80 43 00
        e 514 90 3c 48
        e 0 90 40 48
        e 0 90 43 48
        e 260 80 3c 00
        e 0 80 40 00
        e 0 80 43 00
        E 186 90 43 48
        E 0 90 47 48
        E 20 90 40 48
        E 1900 80 43 00
        E 0 80 47 00
        E 0 80 40 00
        E 0 90 43 48
        E 0 90 47 48
        E 20 90 40 48
        E 240 80 43 00
        E 0 80 47 00
        E 0 80 40 00
        E 440 90 43 48
        E 0 90 47 48
        E 20 90 40 48
        E 240 80 43 00
        E 0 80 47 00
        E 0 80 40 00
        e 514 90 43 48
        e 0 90 47 48
        e 20 90 40 48
        e 240 80 43 00
        e 0 80 47 00
        e 0 80 40 00
        E 186 90 41 48
        E 0 90 45 48
        E 0 90 48 48
        E 1920 80 41 00
        E 0 80 45 00
        E 0 80 48 00
        E 0 90 41 48
        E 0 90 45 48
        E 0 90 48 48
        E 260 80 41 00
        E 0 80 45 00
        E 0 80 48 00
        E 440 90 41 48
        E 0 90 45 48
        E 0 90 48 48
        E 260 80 41 00
        E 0 80 45 00
        E 0 80 48 00
        e 514 90 41 48
        e 0 90 45 48
        e 0 90 48 48
        e 260 80 41 00
        e 0 80 45 00
        e 0 80 48 00
        E 162 90 3e 48
        E 24 90 41 48
        E 0 90 45 48
        E 1896 90 3e 48
        E 24 80 3e 00
        E 0 80 41 00
        E 0 80 45 00
        E 0 90 41 48
        E 0 90 45 48
        E 260 80 3e 00
        E 0 80 41 00
        E 0 80 45 00
        E 416 90 3e 48
        E 24 90 41 48
        E 0 90 45 48
        E 260 80 3e 00
        E 0 80 41 00
        E 0 80 45 00
        e 490 90 3e 48
        e 24 90 41 48
        e 0 90 45 48
        e 260 80 3e 00
        e 0 80 41 00
        e 0 80 45 00
        E 186 b0 7b 00
        CHASE_CC_TAKEOFFS 1
        GUID {A64857E2-94F8-0990-20DF-4C1E9B5E6251}
        IGNTEMPO 0 120 4 4
        SRCCOLOR 24
        VELLANE -1 100 0
        CFGEDITVIEW 0 0.045808 45 12 0 -1 0 0 0 0.5
        KEYSNAP 0
        TRACKSEL 0
        EVTFILTER 0 -1 -1 -1 -1 0 0 0 0 -1 -1 -1 -1 0 -1 0 -1 -1
        CFGEDIT 1 1 0 1 0 0 1 1 1 1 1 1 58 171 1253 866 0 0 0 0 0.25 0 0 0 0 0.5 0 0 1 64
      >
    >
    <ITEM
      POSITION 64
      SNAPOFFS 0
      LENGTH 8
      LOOP 1
      ALLTAKES 0
      FADEIN 1 0 0 1 0 0
      FADEOUT 1 0 0 1 0 0
      MUTE 0
      SEL 1
      IGUID {1D564E37-5E70-A75D-5D09-1B6B3C879839}
      IID 18
      NAME "01-Recorded MIDI"
      VOLPAN 1 0 1 -1
      SOFFS 0 0
      PLAYRATE 1 1 0 -1 0 0.0021
      CHANMODE 0
      GUID {F17FD46F-8692-07C3-A359-A8485C9CF2F5}
      RECPASS 1
      <SOURCE MIDI
        HASDATA 1 960 QN
        CCINTERP 32
        POOLEDEVTS {A7C1DEFF-5B95-9FCE-77FF-A515AA8A60E2}
        E 0 90 3c 48
        E 0 90 40 48
        E 0 90 43 48
        E 1920 80 3c 00
        E 0 80 40 00
        E 0 80 43 00
        E 0 90 3c 48
        E 0 90 40 48
        E 0 90 43 48
        E 260 80 3c 00
        E 0 80 40 00
        E 0 80 43 00
        E 440 90 3c 48
        E 0 90 40 48
        E 0 90 43 48
        E 260 80 3c 00
        E 0 80 40 00
        E 0 80 43 00
        e 514 90 3c 48
        e 0 90 40 48
        e 0 90 43 48
        e 260 80 3c 00
        e 0 80 40 00
        e 0 80 43 00
        E 186 90 43 48
        E 0 90 47 48
        E 20 90 40 48
        E 1900 80 43 00
        E 0 80 47 00
        E 0 80 40 00
        E 0 90 43 48
        E 0 90 47 48
        E 20 90 40 48
        E 240 80 43 00
        E 0 80 47 00
        E 0 80 40 00
        E 440 90 43 48
        E 0 90 47 48
        E 20 90 40 48
        E 240 80 43 00
        E 0 80 47 00
        E 0 80 40 00
        e 514 90 43 48
        e 0 90 47 48
        e 20 90 40 48
        e 240 80 43 00
        e 0 80 47 00
        e 0 80 40 00
        E 186 90 41 48
        E 0 90 45 48
        E 0 90 48 48
        E 1920 80 41 00
        E 0 80 45 00
        E 0 80 48 00
        E 0 90 41 48
        E 0 90 45 48
        E 0 90 48 48
        E 260 80 41 00
        E 0 80 45 00
        E 0 80 48 00
        E 440 90 41 48
        E 0 90 45 48
        E 0 90 48 48
        E 260 80 41 00
        E 0 80 45 00
        E 0 80 48 00
        e 514 90 41 48
        e 0 90 45 48
        e 0 90 48 48
        e 260 80 41 00
        e 0 80 45 00
        e 0 80 48 00
        E 162 90 3e 48
        E 24 90 41 48
        E 0 90 45 48
        E 1896 90 3e 48
        E 24 80 3e 00
        E 0 80 41 00
        E 0 80 45 00
        E 0 90 41 48
        E 0 90 45 48
        E 260 80 3e 00
        E 0 80 41 00
        E 0 80 45 00
        E 416 90 3e 48
        E 24 90 41 48
        E 0 90 45 48
        E 260 80 3e 00
        E 0 80 41 00
        E 0 80 45 00
        e 490 90 3e 48
        e 24 90 41 48
        e 0 90 45 48
        e 260 80 3e 00
        e 0 80 41 00
        e 0 80 45 00
        E 186 b0 7b 00
        CHASE_CC_TAKEOFFS 1
        GUID {19362806-85F2-5D9E-E1F9-07BE0CF3D16E}
        IGNTEMPO 0 120 4 4
        SRCCOLOR 25
        VELLANE -1 100 0
        CFGEDITVIEW 0 0.045808 45 12 0 -1 0 0 0 0.5
        KEYSNAP 0
        TRACKSEL 0
        EVTFILTER 0 -1 -1 -1 -1 0 0 0 0 -1 -1 -1 -1 0 -1 0 -1 -1
        CFGEDIT 1 1 0 1 0 0 1 1 1 1 1 1 58 171 1253 866 0 0 0 0 0.25 0 0 0 0 0.5 0 0 1 64
      >
    >
    <ITEM
      POSITION 72
      SNAPOFFS 0
      LENGTH 8
      LOOP 1
      ALLTAKES 0
      FADEIN 1 0 0 1 0 0
      FADEOUT 1 0 0 1 0 0
      MUTE 0
      SEL 1
      IGUID {4E9B2112-BF92-8EC7-8296-13FD4F5B9E43}
      IID 19
      NAME "01-Recorded MIDI"
      VOLPAN 1 0 1 -1
      SOFFS 0 0
      PLAYRATE 1 1 0 -1 0 0.0021
      CHANMODE 0
      GUID {F4815918-E606-E05B-D788-EC10C6B0C636}
      RECPASS 1
      <SOURCE MIDI
        HASDATA 1 960 QN
        CCINTERP 32
        POOLEDEVTS {FD04B9AC-0D56-D031-83F5-439386B37D1B}
        E 0 90 3c 48
        E 0 90 40 48
        E 0 90 43 48
        E 1920 80 3c 00
        E 0 80 40 00
        E 0 80 43 00
        E 0 90 3c 48
        E 0 90 40 48
        E 0 90 43 48
        E 260 80 3c 00
        E 0 80 40 00
        E 0 80 43 00
        E 440 90 3c 48
        E 0 90 40 48
        E 0 90 43 48
        E 260 80 3c 00
        E 0 80 40 00
        E 0 80 43 00
        e 514 90 3c 48
        e 0 90 40 48
        e 0 90 43 48
        e 260 80 3c 00
        e 0 80 40 00
        e 0 80 43 00
        E 186 90 43 48
        E 0 90 47 48
        E 20 90 40 48
        E 1900 80 43 00
        E 0 80 47 00
        E 0 80 40 00
        E 0 90 43 48
        E 0 90 47 48
        E 20 90 40 48
        E 240 80 43 00
        E 0 80 47 00
        E 0 80 40 00
        E 440 90 43 48
        E 0 90 47 48
        E 20 90 40 48
        E 240 80 43 00
        E 0 80 47 00
        E 0 80 40 00
        e 514 90 43 48
        e 0 90 47 48
        e 20 90 40 48
        e 240 80 43 00
        e 0 80 47 00
        e 0 80 40 00
        E 186 90 41 48
        E 0 90 45 48
        E 0 90 48 48
        E 1920 80 41 00
        E 0 80 45 00
        E 0 80 48 00
        E 0 90 41 48
        E 0 90 45 48
        E 0 90 48 48
        E 260 80 41 00
        E 0 80 45 00
        E 0 80 48 00
        E 440 90 41 48
        E 0 90 45 48
        E 0 90 48 48
        E 260 80 41 00
        E 0 80 45 00
        E 0 80 48 00
        e 514 90 41 48
        e 0 90 45 48
        e 0 90 48 48
        e 260 80 41 00
        e 0 80 45 00
        e 0 80 48 00
        E 162 90 3e 48
        E 24 90 41 48
        E 0 90 45 48
        E 1896 90 3e 48
        E 24 80 3e 00
        E 0 80 41 00
        E 0 80 45 00
        E 0 90 41 48
        E 0 90 45 48
        E 260 80 3e 00
        E 0 80 41 00
        E 0 80 45 00
        E 416 90 3e 48
        E 24 90 41 48
        E 0 90 45 48
        E 260 80 3e 00
        E 0 80 41 00
        E 0 80 45 00
        e 490 90 3e 48
        e 24 90 41 48
        e 0 90 45 48
        e 260 80 3e 00
        e 0 80 41 00
        e 0 80 45 00
        E 186 b0 7b 00
        CHASE_CC_TAKEOFFS 1
        GUID {6844F8A9-6BE9-023C-4A46-0A676470C99B}
        IGNTEMPO 0 120 4 4
        SRCCOLOR 26
        VELLANE -1 100 0
        CFGEDITVIEW 0 0.045808 45 12 0 -1 0 0 0 0.5
        KEYSNAP 0
        TRACKSEL 0
        EVTFILTER 0 -1 -1 -1 -1 0 0 0 0 -1 -1 -1 -1 0 -1 0 -1 -1
        CFGEDIT 1 1 0 1 0 0 1 1 1 1 1 1 58 171 1253 866 0 0 0 0 0.25 0 0 0 0 0.5 0 0 1 64
      >
    >
    <ITEM
      POSITION 80
      SNAPOFFS 0
      LENGTH 8
      LOOP 1
      ALLTAKES 0
      FADEIN 1 0 0 1 0 0
      FADEOUT 1 0 0 1 0 0
      MUTE 0
      SEL 1
      IGUID {31C6D157-1F60-59F1-61FD-1936212F7E38}
      IID 20
      NAME "01-Recorded MIDI"
      VOLPAN 1 0 1 -1
      SOFFS 0 0
      PLAYRATE 1 1 0 -1 0 0.0021
      CHANMODE 0
      GUID {D8D91605-DECD-43A1-B0E6-B4C5195990A6}
      RECPASS 1
      <SOURCE MIDI
        HASDATA 1 960 QN
        CCINTERP 32
        POOLEDEVTS {9EB3914B-A010-6359-9362-9F70AE7F17DA}
        E 0 90 3c 48
        E 0 90 40 48
        E 0 90 43 48
        E 1920 80 3c 00
        E 0 80 40 00
        E 0 80 43 00
        E 0 90 3c 48
        E 0 90 40 48
        E 0 90 43 48
        E 260 80 3c 00
        E 0 80 40 00
        E 0 80 43 00
        E 440 90 3c 48
        E 0 90 40 48
        E 0 90 43 48
        E 260 80 3c 00
        E 0 80 40 00
        E 0 80 43 00
        e 514 90 3c 48
        e 0 90 40 48
        e 0 90 43 48
        e 260 80 3c 00
        e 0 80 40 00
        e 0 80 43 00
        E 186 90 43 48
        E 0 90 47 48
        E 20 90 40 48
        E 1900 80 43 00
        E 0 80 47 00
        E 0 80 40 00
        E 0 90 43 48
        E 0 90 47 48
        E 20 90 40 48
        E 240 80 43 00
        E 0 80 47 00
        E 0 80 40 00
        E 440 90 43 48
        E 0 90 47 48
        E 20 90 40 48
        E 240 80 43 00
        E 0 80 47 00
        E 0 80 40 00
        e 514 90 43 48
        e 0 90 47 48
        e 20 90 40 48
        e 240 80 43 00
        e 0 80 47 00
        e 0 80 40 00
        E 186 90 41 48
        E 0 90 45 48
        E 0 90 48 48
        E 1920 80 41 00
        E 0 80 45 00
        E 0 80 48 00
        E 0 90 41 48
        E 0 90 45 48
        E 0 90 48 48
        E 260 80 41 00
        E 0 80 45 00
        E 0 80 48 00
        E 440 90 41 48
        E 0 90 45 48
        E 0 90 48 48
        E 260 80 41 00
        E 0 80 45 00
        E 0 80 48 00
        e 514 90 41 48
        e 0 90 45 48
        e 0 90 48 48
        e 260 80 41 00
        e 0 80 45 00
        e 0 80 48 00
        E 162 90 3e 48
        E 24 90 41 48
        E 0 90 45 48
        E 1896 90 3e 48
        E 24 80 3e 00
        E 0 80 41 00
        E 0 80 45 00
        E 0 90 41 48
        E 0 90 45 48
        E 260 80 3e 00
        E 0 80 41 00
        E 0 80 45 00
        E 416 90 3e 48
        E 24 90 41 48
        E 0 90 45 48
        E 260 80 3e 00
        E 0 80 41 00
        E 0 80 45 00
        e 490 90 3e 48
        e 24 90 41 48
        e 0 90 45 48
        e 260 80 3e 00
        e 0 80 41 00
        e 0 80 45 00
        E 186 b0 7b 00
        CHASE_CC_TAKEOFFS 1
        GUID {E611ADB6-4869-6CCA-8E83-3954D5E743B1}
        IGNTEMPO 0 120 4 4
        SRCCOLOR 27
        VELLANE -1 100 0
        CFGEDITVIEW 0 0.045808 45 12 0 -1 0 0 0 0.5
        KEYSNAP 0
        TRACKSEL 0
        EVTFILTER 0 -1 -1 -1 -1 0 0 0 0 -1 -1 -1 -1 0 -1 0 -1 -1
        CFGEDIT 1 1 0 1 0 0 1 1 1 1 1 1 58 171 1253 866 0 0 0 0 0.25 0 0 0 0 0.5 0 0 1 64
      >
    >
    <ITEM
      POSITION 88
      SNAPOFFS 0
      LENGTH 8
      LOOP 1
      ALLTAKES 0
      FADEIN 1 0 0 1 0 0
      FADEOUT 1 0 0 1 0 0
      MUTE 0
      SEL 1
      IGUID {F3AA55A0-3022-00F5-05C6-521B1CCCF696}
      IID 21
      NAME "01-Recorded MIDI"
      VOLPAN 1 0 1 -1
      SOFFS 0 0
      PLAYRATE 1 1 0 -1 0 0.0021
      CHANMODE 0
      GUID {FFE6B6A5-222E-2ECC-9CA3-E3ED4FFE55BF}
      RECPASS 1
      <SOURCE MIDI
        HASDATA 1 960 QN
        CCINTERP 32
        POOLEDEVTS {E3752D10-246E-6D71-1951-BDE7C15EF6BC}
        E 0 90 3c 48
        E 0 90 40 48
        E 0 90 43 48
        E 1920 80 3c 00
        E 0 80 40 00
        E 0 80 43 00
        E 0 90 3c 48
        E 0 90 40 48
        E 0 90 43 48
        E 260 80 3c 00
        E 0 80 40 00
        E 0 80 43 00
        E 440 90 3c 48
        E 0 90 40 48
        E 0 90 43 48
        E 260 80 3c 00
        E 0 80 40 00
        E 0 80 43 00
        e 514 90 3c 48
        e 0 90 40 48
        e 0 90 43 48
        e 260 80 3c 00
        e 0 80 40 00
        e 0 80 43 00
        E 186 90 43 48
        E 0 90 47 48
        E 20 90 40 48
        E 1900 80 43 00
        E 0 80 47 00
        E 0 80 40 00
        E 0 90 43 48
        E 0 90 47 48
        E 20 90 40 48
        E 240 80 43 00
        E 0 80 47 00
        E 0 80 40 00
        E 440 90 43 48
        E 0 90 47 48
        E 20 90 40 48
        E 240 80 43 00
        E 0 80 47 00
        E 0 80 40 00
        e 514 90 43 48
        e 0 90 47 48
        e 20 90 40 48
        e 240 80 43 00
        e 0 80 47 00
        e 0 80 40 00
        E 186 90 41 48
        E 0 90 45 48
        E 0 90 48 48
        E 1920 80 41 00
        E 0 80 45 00
        E 0 80 48 00
        E 0 90 41 48
        E 0 90 45 48
        E 0 90 48 48
        E 260 80 41 00
        E 0 80 45 00
        E 0 80 48 00
        E 440 90 41 48
        E 0 90 45 48
        E 0 90 48 48
        E 260 80 41 00
        E 0 80 45 00
        E 0 80 48 00
        e 514 90 41 48
        e 0 90 45 48
        e 0 90 48 48
        e 260 80 41 00
        e 0 80 45 00
        e 0 80 48 00
        E 162 90 3e 48
        E 24 90 41 48
        E 0 90 45 48
        E 1896 90 3e 48
        E 24 80 3e 00
        E 0 80 41 00
        E 0 80 45 00
        E 0 90 41 48
        E 0 90 45 48
        E 260 80 3e 00
        E 0 80 41 00
        E 0 80 45 00
        E 416 90 3e 48
        E 24 90 41 48
        E 0 90 45 48
        E 260 80 3e 00
        E 0 80 41 00
        E 0 80 45 00
        e 490 90 3e 48
        e 24 90 41 48
        e 0 90 45 48
        e 260 80 3e 00
        e 0 80 41 00
        e 0 80 45 00
        E 186 b0 7b 00
        CHASE_CC_TAKEOFFS 1
        GUID {C762B555-17FC-D765-5340-11D3487D2955}
        IGNTEMPO 0 120 4 4
        SRCCOLOR 28
        VELLANE -1 100 0
        CFGEDITVIEW 0 0.045808 45 12 0 -1 0 0 0 0.5
        KEYSNAP 0
        TRACKSEL 0
        EVTFILTER 0 -1 -1 -1 -1 0 0 0 0 -1 -1 -1 -1 0 -1 0 -1 -1
        CFGEDIT 1 1 0 1 0 0 1 1 1 1 1 1 58 171 1253 866 0 0 0 0 0.25 0 0 0 0 0.5 0 0 1 64
      >
    >
  >
  <TRACK {C178DF57-1D15-495D-4DD8-043C6DFA4C43}
    NAME ""
    PEAKCOL 16576
    BEAT -1
    AUTOMODE 0
    VOLPAN 0.00052194381917 0 -1 -1 1
    MUTESOLO 0 0 0
    IPHASE 0
    PLAYOFFS 0 1
    ISBUS 0 0
    BUSCOMP 0 0 0 0 0
    SHOWINMIX 1 0.6667 0.5 1 0.5 0 0 0
    FREEMODE 0
    SEL 0
    REC 0 5056 1 0 0 0 0
    VU 2
    TRACKHEIGHT 21 0 0
    INQ 0 0 0 0.5 100 0 0 100
    NCHAN 2
    FX 0
    TRACKID {C178DF57-1D15-495D-4DD8-043C6DFA4C43}
    PERF 0
    MIDIOUT -1
    MAINSEND 1 0
    <FXCHAIN
      WNDRECT 346 266 902 608
      SHOW 0
      LASTSEL 5
      DOCKED 0
      BYPASS 0 0 0
      <VST "VST: ReaEQ (Cockos)" reaeq.vst.so 0 "" 1919247729<56535472656571726561657100000000> ""
        cWVlcu5e7f4CAAAAAQAAAAAAAAACAAAAAAAAAAIAAAABAAAAAAAAAAIAAAAAAAAAqAAAAAEAAAAAABAA
        IQAAAAQAAAAEAAAAAQAAAEG4Xhmm+DRAAAAAAAAA8D8AAAAAAAAAQAEIAAAAAQAAAAAAAAAAwHJAAAAAAAAA8D8AAAAAAAAAQAEIAAAAAQAAAAAAAAAAQI9AAAAAAAAA
        8D8AAAAAAAAAQAEDAAAAAQAAAAABaCorbdRAAAAAAAAA8D8AAAAAAAAAQAEBAAAAAQAAAAAAAAAAAPA/AAAAAJoCAACcAQAA
        AEhpZ2ggbG93IHBhc3MAEAAAAA==
      >
      PRESETNAME "High low pass"
      FLOATPOS 0 0 0 0
      FXID {943DB5D8-59EA-AB51-4DF5-3B29C2CEC6B7}
      WAK 0 0
      BYPASS 0 0 0
      <VST "VSTi: ReaSynth (Cockos)" reasynth.vst.so 0 "" 1919251321<5653547265737972656173796E746800> ""
        eXNlcu9e7f4AAAAAAgAAAAEAAAAAAAAAAgAAAAAAAAA8AAAAAAAAAAAAEAA=
        776t3g3wrd6lm8Q7F7fROgAAAAAAAAAAAAAAAJCNuT3oZ4g9AACAPwAAAD8AAIA/AAAAAAAAAD8AAAAA
        AAAQAAAA
      >
      FLOATPOS 0 0 0 0
      FXID {697EEFDA-3F3C-DD73-C2B4-16D62A1BB976}
      WAK 0 0
      BYPASS 0 0 0
      <JS guitar/amp-model ""
        "Dumble Overdrive Special - Tweed Deluxe.wav" -21.000000 1.000000 0.000000 73.000000 256.000000 - - - - - - - - - - - - - - - - - - - - - - - - - - - - - - - - - - - - - - - - - - - - - - - - - - - - - - - - - - 
      >
      FLOATPOS 0 0 0 0
      FXID {A1FB7114-5EB3-3D17-2F07-A9F48782E233}
      WAK 0 0
      BYPASS 0 0 0
      <VST "VST: ReaComp (Cockos)" reacomp.vst.so 0 "" 1919247213<5653547265636D726561636F6D700000> ""
        bWNlcu9e7f4EAAAAAQAAAAAAAAACAAAAAAAAAAQAAAAAAAAACAAAAAAAAAACAAAAAQAAAAAAAAACAAAAAAAAAFQAAAAAAAAAAAAQAA==
        776t3g3wrd5FoYg9/AWpPKWbxDsK16M8AAAAAAAAAAAAAIA/AAAAAAAAAAAAAAAAnNEHMwAAgD8AAAAAzMxMPQAAAAAAAAAAAAAAAAAAgD7YiZ09
        AAAQAAAA
      >
      FLOATPOS 0 0 0 0
      FXID {8DB0DB8C-9FA8-BA34-C29C-EE065A25879D}
      WAK 0 0
      BYPASS 0 0 0
      <VST "VST: ReaDelay (Cockos)" readelay.vst.so 0 "" 1919247468<5653547265646C72656164656C617900> ""
        bGRlcu5e7f4CAAAAAQAAAAAAAAACAAAAAAAAAAIAAAABAAAAAAAAAAIAAAAAAAAA/AAAAAEAAAAAAAAA
        AAAAAAAAAAAFAAAALAAAAAIAAAAEAAAAAACAPwAAgD8AAAAAAACAPwAAAAAAAIA7vTeGNQAAgD8AAAAAAACAPwAAgD8AAIA/AAAAAAAAAAAAAIA/AAAAAAAAADwAAAAA
        AACAPwAAAAAAAIA/AACAP+87NT8AAIA/AAAAAAAAgD8AAAAAAABAPL03hjUAAIA/AAAAAAAAgD8AAIA/zk0AP6abhD4AAAAAAACAPwAAAAAAAIA8vTeGNQAAgD8AAAAA
        AACAPwAAgD8aqrU+pHA9PwAAAAAAAIA/AAAAAAAAoDy9N4Y1AACAPwAAAAAAAIA/AACAP/npAD4AAAA/
        AHN0b2NrIC0gYmFzaWMgNSB0YXAgcGluZyBwb25nAAAAAAA=
      >
      PRESETNAME "stock - basic 5 tap ping pong"
      FLOATPOS 0 0 0 0
      FXID {25DBB52B-7BFA-92AC-BB95-CE20387B9501}
      WAK 0 0
      BYPASS 0 0 0
      <VST "VST: ReaVerb (Cockos)" reaverb.vst.so 0 "" 1919252066<56535472657662726561766572620000> ""
        YnZlcu5e7f4CAAAAAQAAAAAAAAACAAAAAAAAAAIAAAABAAAAAAAAAAIAAAAAAAAAcAAAAAEAAAAAAAAA
        AAAAwcybgD4AAIA/AAAAAAAAgD8AAIA/AAAAPwAAgD8AAAAAVkVSQkdFTgAYAAAAAAAAAJHgV0QdrLRA3rK7QsHIjEIAAIC/RUNIT0dFTgAcAAAAy/i2QLUjdUJdzdM/
        osdfP5lRrzyRzYxAnMQAPw==
        AHN3ZWV0dmVyYm8AAAAAAA==
      >
      PRESETNAME sweetverbo
      FLOATPOS 0 0 0 0
      FXID {2A2BFF62-A07A-1ABB-740D-EE1BEB25A701}
      WAK 0 0
    >
    <ITEM
      POSITION 0
      SNAPOFFS 0
      LENGTH 8
      LOOP 1
      ALLTAKES 0
      FADEIN 1 0 0 1 0 0
      FADEOUT 1 0 0 1 0 0
      MUTE 0
      SEL 1
      IGUID {EF18A0BD-2BEA-3673-325A-C70AAC6F02FA}
      IID 10
      NAME "01-Recorded MIDI"
      VOLPAN 1 0 1 -1
      SOFFS 0 0
      PLAYRATE 1 1 0 -1 0 0.0021
      CHANMODE 0
      GUID {44A062CF-8AAF-BFC3-66E9-BB7254AD219A}
      RECPASS 1
      <SOURCE MIDI
        HASDATA 1 960 QN
        CCINTERP 32
        POOLEDEVTS {78994425-B862-F9FE-DC16-B20C24178CFE}
        E 0 90 3c 48
        E 0 90 40 48
        E 0 90 43 48
        E 1920 80 3c 00
        E 0 80 40 00
        E 0 80 43 00
        E 0 90 3c 48
        E 0 90 40 48
        E 0 90 43 48
        E 260 80 3c 00
        E 0 80 40 00
        E 0 80 43 00
        E 440 90 3c 48
        E 0 90 40 48
        E 0 90 43 48
        E 260 80 3c 00
        E 0 80 40 00
        E 0 80 43 00
        e 514 90 3c 48
        e 0 90 40 48
        e 0 90 43 48
        e 260 80 3c 00
        e 0 80 40 00
        e 0 80 43 00
        E 186 90 43 48
        E 0 90 47 48
        E 20 90 40 48
        E 1900 80 43 00
        E 0 80 47 00
        E 0 80 40 00
        E 0 90 43 48
        E 0 90 47 48
        E 20 90 40 48
        E 240 80 43 00
        E 0 80 47 00
        E 0 80 40 00
        E 440 90 43 48
        E 0 90 47 48
        E 20 90 40 48
        E 240 80 43 00
        E 0 80 47 00
        E 0 80 40 00
        e 514 90 43 48
        e 0 90 47 48
        e 20 90 40 48
        e 240 80 43 00
        e 0 80 47 00
        e 0 80 40 00
        E 186 90 41 48
        E 0 90 45 48
        E 0 90 48 48
        E 1920 80 41 00
        E 0 80 45 00
        E 0 80 48 00
        E 0 90 41 48
        E 0 90 45 48
        E 0 90 48 48
        E 260 80 41 00
        E 0 80 45 00
        E 0 80 48 00
        E 440 90 41 48
        E 0 90 45 48
        E 0 90 48 48
        E 260 80 41 00
        E 0 80 45 00
        E 0 80 48 00
        e 514 90 41 48
        e 0 90 45 48
        e 0 90 48 48
        e 260 80 41 00
        e 0 80 45 00
        e 0 80 48 00
        E 162 90 3e 48
        E 24 90 41 48
        E 0 90 45 48
        E 1896 90 3e 48
        E 24 80 3e 00
        E 0 80 41 00
        E 0 80 45 00
        E 0 90 41 48
        E 0 90 45 48
        E 260 80 3e 00
        E 0 80 41 00
        E 0 80 45 00
        E 416 90 3e 48
        E 24 90 41 48
        E 0 90 45 48
        E 260 80 3e 00
        E 0 80 41 00
        E 0 80 45 00
        e 490 90 3e 48
        e 24 90 41 48
        e 0 90 45 48
        e 260 80 3e 00
        e 0 80 41 00
        e 0 80 45 00
        E 186 b0 7b 00
        CHASE_CC_TAKEOFFS 1
        GUID {7B9D708B-43E1-C8D4-C4B3-87E2A6C27801}
        IGNTEMPO 0 120 4 4
        SRCCOLOR 17
        VELLANE -1 100 0
        CFGEDITVIEW 0 0.045808 45 12 0 -1 0 0 0 0.5
        KEYSNAP 0
        TRACKSEL 0
        EVTFILTER 0 -1 -1 -1 -1 0 0 0 0 -1 -1 -1 -1 0 -1 0 -1 -1
        CFGEDIT 1 1 0 1 0 0 1 1 1 1 1 1 58 171 1253 866 0 0 0 0 0.25 0 0 0 0 0.5 0 0 1 64
      >
    >
    <ITEM
      POSITION 8
      SNAPOFFS 0
      LENGTH 8
      LOOP 1
      ALLTAKES 0
      FADEIN 1 0 0 1 0 0
      FADEOUT 1 0 0 1 0 0
      MUTE 0
      SEL 1
      IGUID {88ABDC37-F0AB-44B7-5AC0-537A49DFE369}
      IID 11
      NAME "01-Recorded MIDI"
      VOLPAN 1 0 1 -1
      SOFFS 0 0
      PLAYRATE 1 1 0 -1 0 0.0021
      CHANMODE 0
      GUID {EB3638F0-12BD-F1B7-32F5-D72F716A2C27}
      RECPASS 1
      <SOURCE MIDI
        HASDATA 1 960 QN
        CCINTERP 32
        POOLEDEVTS {7D50AAB7-414C-2EEC-D59B-97F2095D8C8B}
        E 0 90 3c 48
        E 0 90 40 48
        E 0 90 43 48
        E 1920 80 3c 00
        E 0 80 40 00
        E 0 80 43 00
        E 0 90 3c 48
        E 0 90 40 48
        E 0 90 43 48
        E 260 80 3c 00
        E 0 80 40 00
        E 0 80 43 00
        E 440 90 3c 48
        E 0 90 40 48
        E 0 90 43 48
        E 260 80 3c 00
        E 0 80 40 00
        E 0 80 43 00
        e 514 90 3c 48
        e 0 90 40 48
        e 0 90 43 48
        e 260 80 3c 00
        e 0 80 40 00
        e 0 80 43 00
        E 186 90 43 48
        E 0 90 47 48
        E 20 90 40 48
        E 1900 80 43 00
        E 0 80 47 00
        E 0 80 40 00
        E 0 90 43 48
        E 0 90 47 48
        E 20 90 40 48
        E 240 80 43 00
        E 0 80 47 00
        E 0 80 40 00
        E 440 90 43 48
        E 0 90 47 48
        E 20 90 40 48
        E 240 80 43 00
        E 0 80 47 00
        E 0 80 40 00
        e 514 90 43 48
        e 0 90 47 48
        e 20 90 40 48
        e 240 80 43 00
        e 0 80 47 00
        e 0 80 40 00
        E 186 90 41 48
        E 0 90 45 48
        E 0 90 48 48
        E 1920 80 41 00
        E 0 80 45 00
        E 0 80 48 00
        E 0 90 41 48
        E 0 90 45 48
        E 0 90 48 48
        E 260 80 41 00
        E 0 80 45 00
        E 0 80 48 00
        E 440 90 41 48
        E 0 90 45 48
        E 0 90 48 48
        E 260 80 41 00
        E 0 80 45 00
        E 0 80 48 00
        e 514 90 41 48
        e 0 90 45 48
        e 0 90 48 48
        e 260 80 41 00
        e 0 80 45 00
        e 0 80 48 00
        E 162 90 3e 48
        E 24 90 41 48
        E 0 90 45 48
        E 1896 90 3e 48
        E 24 80 3e 00
        E 0 80 41 00
        E 0 80 45 00
        E 0 90 41 48
        E 0 90 45 48
        E 260 80 3e 00
        E 0 80 41 00
        E 0 80 45 00
        E 416 90 3e 48
        E 24 90 41 48
        E 0 90 45 48
        E 260 80 3e 00
        E 0 80 41 00
        E 0 80 45 00
        e 490 90 3e 48
        e 24 90 41 48
        e 0 90 45 48
        e 260 80 3e 00
        e 0 80 41 00
        e 0 80 45 00
        E 186 b0 7b 00
        CHASE_CC_TAKEOFFS 1
        GUID {3131B4E2-B370-E352-A9C5-C8CA31551A86}
        IGNTEMPO 0 120 4 4
        SRCCOLOR 18
        VELLANE -1 100 0
        CFGEDITVIEW 0 0.045808 45 12 0 -1 0 0 0 0.5
        KEYSNAP 0
        TRACKSEL 0
        EVTFILTER 0 -1 -1 -1 -1 0 0 0 0 -1 -1 -1 -1 0 -1 0 -1 -1
        CFGEDIT 1 1 0 1 0 0 1 1 1 1 1 1 58 171 1253 866 0 0 0 0 0.25 0 0 0 0 0.5 0 0 1 64
      >
    >
    <ITEM
      POSITION 16
      SNAPOFFS 0
      LENGTH 8
      LOOP 1
      ALLTAKES 0
      FADEIN 1 0 0 1 0 0
      FADEOUT 1 0 0 1 0 0
      MUTE 0
      SEL 1
      IGUID {55312732-6480-2643-87C2-01B6C67CA36A}
      IID 12
      NAME "01-Recorded MIDI"
      VOLPAN 1 0 1 -1
      SOFFS 0 0
      PLAYRATE 1 1 0 -1 0 0.0021
      CHANMODE 0
      GUID {8E9CFCC3-9783-A8F2-F7EB-D835B2412400}
      RECPASS 1
      <SOURCE MIDI
        HASDATA 1 960 QN
        CCINTERP 32
        POOLEDEVTS {9F34883D-1B5C-5F03-CD16-60027943862D}
        E 0 90 3c 48
        E 0 90 40 48
        E 0 90 43 48
        E 1920 80 3c 00
        E 0 80 40 00
        E 0 80 43 00
        E 0 90 3c 48
        E 0 90 40 48
        E 0 90 43 48
        E 260 80 3c 00
        E 0 80 40 00
        E 0 80 43 00
        E 440 90 3c 48
        E 0 90 40 48
        E 0 90 43 48
        E 260 80 3c 00
        E 0 80 40 00
        E 0 80 43 00
        e 514 90 3c 48
        e 0 90 40 48
        e 0 90 43 48
        e 260 80 3c 00
        e 0 80 40 00
        e 0 80 43 00
        E 186 90 43 48
        E 0 90 47 48
        E 20 90 40 48
        E 1900 80 43 00
        E 0 80 47 00
        E 0 80 40 00
        E 0 90 43 48
        E 0 90 47 48
        E 20 90 40 48
        E 240 80 43 00
        E 0 80 47 00
        E 0 80 40 00
        E 440 90 43 48
        E 0 90 47 48
        E 20 90 40 48
        E 240 80 43 00
        E 0 80 47 00
        E 0 80 40 00
        e 514 90 43 48
        e 0 90 47 48
        e 20 90 40 48
        e 240 80 43 00
        e 0 80 47 00
        e 0 80 40 00
        E 186 90 41 48
        E 0 90 45 48
        E 0 90 48 48
        E 1920 80 41 00
        E 0 80 45 00
        E 0 80 48 00
        E 0 90 41 48
        E 0 90 45 48
        E 0 90 48 48
        E 260 80 41 00
        E 0 80 45 00
        E 0 80 48 00
        E 440 90 41 48
        E 0 90 45 48
        E 0 90 48 48
        E 260 80 41 00
        E 0 80 45 00
        E 0 80 48 00
        e 514 90 41 48
        e 0 90 45 48
        e 0 90 48 48
        e 260 80 41 00
        e 0 80 45 00
        e 0 80 48 00
        E 162 90 3e 48
        E 24 90 41 48
        E 0 90 45 48
        E 1896 90 3e 48
        E 24 80 3e 00
        E 0 80 41 00
        E 0 80 45 00
        E 0 90 41 48
        E 0 90 45 48
        E 260 80 3e 00
        E 0 80 41 00
        E 0 80 45 00
        E 416 90 3e 48
        E 24 90 41 48
        E 0 90 45 48
        E 260 80 3e 00
        E 0 80 41 00
        E 0 80 45 00
        e 490 90 3e 48
        e 24 90 41 48
        e 0 90 45 48
        e 260 80 3e 00
        e 0 80 41 00
        e 0 80 45 00
        E 186 b0 7b 00
        CHASE_CC_TAKEOFFS 1
        GUID {48C567A2-895C-FB9B-FDBA-0ADB7004ABF3}
        IGNTEMPO 0 120 4 4
        SRCCOLOR 19
        VELLANE -1 100 0
        CFGEDITVIEW 0 0.045808 45 12 0 -1 0 0 0 0.5
        KEYSNAP 0
        TRACKSEL 0
        EVTFILTER 0 -1 -1 -1 -1 0 0 0 0 -1 -1 -1 -1 0 -1 0 -1 -1
        CFGEDIT 1 1 0 1 0 0 1 1 1 1 1 1 58 171 1253 866 0 0 0 0 0.25 0 0 0 0 0.5 0 0 1 64
      >
    >
    <ITEM
      POSITION 24
      SNAPOFFS 0
      LENGTH 8
      LOOP 1
      ALLTAKES 0
      FADEIN 1 0 0 1 0 0
      FADEOUT 1 0 0 1 0 0
      MUTE 0
      SEL 1
      IGUID {49E6D3BB-8B5C-3B17-84DF-AC131D96F0CF}
      IID 13
      NAME "01-Recorded MIDI"
      VOLPAN 1 0 1 -1
      SOFFS 0 0
      PLAYRATE 1 1 0 -1 0 0.0021
      CHANMODE 0
      GUID {95EF61B8-A80C-442A-C053-4D9526B14AF6}
      RECPASS 1
      <SOURCE MIDI
        HASDATA 1 960 QN
        CCINTERP 32
        POOLEDEVTS {68192EB3-0C83-E166-407A-6A581AFFF9E2}
        E 0 90 3c 48
        E 0 90 40 48
        E 0 90 43 48
        E 1920 80 3c 00
        E 0 80 40 00
        E 0 80 43 00
        E 0 90 3c 48
        E 0 90 40 48
        E 0 90 43 48
        E 260 80 3c 00
        E 0 80 40 00
        E 0 80 43 00
        E 440 90 3c 48
        E 0 90 40 48
        E 0 90 43 48
        E 260 80 3c 00
        E 0 80 40 00
        E 0 80 43 00
        e 514 90 3c 48
        e 0 90 40 48
        e 0 90 43 48
        e 260 80 3c 00
        e 0 80 40 00
        e 0 80 43 00
        E 186 90 43 48
        E 0 90 47 48
        E 20 90 40 48
        E 1900 80 43 00
        E 0 80 47 00
        E 0 80 40 00
        E 0 90 43 48
        E 0 90 47 48
        E 20 90 40 48
        E 240 80 43 00
        E 0 80 47 00
        E 0 80 40 00
        E 440 90 43 48
        E 0 90 47 48
        E 20 90 40 48
        E 240 80 43 00
        E 0 80 47 00
        E 0 80 40 00
        e 514 90 43 48
        e 0 90 47 48
        e 20 90 40 48
        e 240 80 43 00
        e 0 80 47 00
        e 0 80 40 00
        E 186 90 41 48
        E 0 90 45 48
        E 0 90 48 48
        E 1920 80 41 00
        E 0 80 45 00
        E 0 80 48 00
        E 0 90 41 48
        E 0 90 45 48
        E 0 90 48 48
        E 260 80 41 00
        E 0 80 45 00
        E 0 80 48 00
        E 440 90 41 48
        E 0 90 45 48
        E 0 90 48 48
        E 260 80 41 00
        E 0 80 45 00
        E 0 80 48 00
        e 514 90 41 48
        e 0 90 45 48
        e 0 90 48 48
        e 260 80 41 00
        e 0 80 45 00
        e 0 80 48 00
        E 162 90 3e 48
        E 24 90 41 48
        E 0 90 45 48
        E 1896 90 3e 48
        E 24 80 3e 00
        E 0 80 41 00
        E 0 80 45 00
        E 0 90 41 48
        E 0 90 45 48
        E 260 80 3e 00
        E 0 80 41 00
        E 0 80 45 00
        E 416 90 3e 48
        E 24 90 41 48
        E 0 90 45 48
        E 260 80 3e 00
        E 0 80 41 00
        E 0 80 45 00
        e 490 90 3e 48
        e 24 90 41 48
        e 0 90 45 48
        e 260 80 3e 00
        e 0 80 41 00
        e 0 80 45 00
        E 186 b0 7b 00
        CHASE_CC_TAKEOFFS 1
        GUID {1DE38800-E2A1-41B5-9C8C-3291891093B1}
        IGNTEMPO 0 120 4 4
        SRCCOLOR 20
        VELLANE -1 100 0
        CFGEDITVIEW 0 0.045808 45 12 0 -1 0 0 0 0.5
        KEYSNAP 0
        TRACKSEL 0
        EVTFILTER 0 -1 -1 -1 -1 0 0 0 0 -1 -1 -1 -1 0 -1 0 -1 -1
        CFGEDIT 1 1 0 1 0 0 1 1 1 1 1 1 58 171 1253 866 0 0 0 0 0.25 0 0 0 0 0.5 0 0 1 64
      >
    >
    <ITEM
      POSITION 32
      SNAPOFFS 0
      LENGTH 8
      LOOP 1
      ALLTAKES 0
      FADEIN 1 0 0 1 0 0
      FADEOUT 1 0 0 1 0 0
      MUTE 0
      SEL 1
      IGUID {9846B682-C46B-8A64-8D27-690C7537089D}
      IID 14
      NAME "01-Recorded MIDI"
      VOLPAN 1 0 1 -1
      SOFFS 0 0
      PLAYRATE 1 1 0 -1 0 0.0021
      CHANMODE 0
      GUID {61D1CDC0-7726-096B-CDAA-7679B5DFE07B}
      RECPASS 1
      <SOURCE MIDI
        HASDATA 1 960 QN
        CCINTERP 32
        POOLEDEVTS {D3357D45-1DBE-735F-BA25-D0EA5F5B5EC6}
        E 0 90 3c 48
        E 0 90 40 48
        E 0 90 43 48
        E 1920 80 3c 00
        E 0 80 40 00
        E 0 80 43 00
        E 0 90 3c 48
        E 0 90 40 48
        E 0 90 43 48
        E 260 80 3c 00
        E 0 80 40 00
        E 0 80 43 00
        E 440 90 3c 48
        E 0 90 40 48
        E 0 90 43 48
        E 260 80 3c 00
        E 0 80 40 00
        E 0 80 43 00
        e 514 90 3c 48
        e 0 90 40 48
        e 0 90 43 48
        e 260 80 3c 00
        e 0 80 40 00
        e 0 80 43 00
        E 186 90 43 48
        E 0 90 47 48
        E 20 90 40 48
        E 1900 80 43 00
        E 0 80 47 00
        E 0 80 40 00
        E 0 90 43 48
        E 0 90 47 48
        E 20 90 40 48
        E 240 80 43 00
        E 0 80 47 00
        E 0 80 40 00
        E 440 90 43 48
        E 0 90 47 48
        E 20 90 40 48
        E 240 80 43 00
        E 0 80 47 00
        E 0 80 40 00
        e 514 90 43 48
        e 0 90 47 48
        e 20 90 40 48
        e 240 80 43 00
        e 0 80 47 00
        e 0 80 40 00
        E 186 90 41 48
        E 0 90 45 48
        E 0 90 48 48
        E 1920 80 41 00
        E 0 80 45 00
        E 0 80 48 00
        E 0 90 41 48
        E 0 90 45 48
        E 0 90 48 48
        E 260 80 41 00
        E 0 80 45 00
        E 0 80 48 00
        E 440 90 41 48
        E 0 90 45 48
        E 0 90 48 48
        E 260 80 41 00
        E 0 80 45 00
        E 0 80 48 00
        e 514 90 41 48
        e 0 90 45 48
        e 0 90 48 48
        e 260 80 41 00
        e 0 80 45 00
        e 0 80 48 00
        E 162 90 3e 48
        E 24 90 41 48
        E 0 90 45 48
        E 1896 90 3e 48
        E 24 80 3e 00
        E 0 80 41 00
        E 0 80 45 00
        E 0 90 41 48
        E 0 90 45 48
        E 260 80 3e 00
        E 0 80 41 00
        E 0 80 45 00
        E 416 90 3e 48
        E 24 90 41 48
        E 0 90 45 48
        E 260 80 3e 00
        E 0 80 41 00
        E 0 80 45 00
        e 490 90 3e 48
        e 24 90 41 48
        e 0 90 45 48
        e 260 80 3e 00
        e 0 80 41 00
        e 0 80 45 00
        E 186 b0 7b 00
        CHASE_CC_TAKEOFFS 1
        GUID {0C3271F4-E233-9088-9B25-A722FAE7C579}
        IGNTEMPO 0 120 4 4
        SRCCOLOR 21
        VELLANE -1 100 0
        CFGEDITVIEW 0 0.045808 45 12 0 -1 0 0 0 0.5
        KEYSNAP 0
        TRACKSEL 0
        EVTFILTER 0 -1 -1 -1 -1 0 0 0 0 -1 -1 -1 -1 0 -1 0 -1 -1
        CFGEDIT 1 1 0 1 0 0 1 1 1 1 1 1 58 171 1253 866 0 0 0 0 0.25 0 0 0 0 0.5 0 0 1 64
      >
    >
    <ITEM
      POSITION 40
      SNAPOFFS 0
      LENGTH 8
      LOOP 1
      ALLTAKES 0
      FADEIN 1 0 0 1 0 0
      FADEOUT 1 0 0 1 0 0
      MUTE 0
      SEL 1
      IGUID {869D63D7-F982-1E3B-3184-5A29356A5344}
      IID 15
      NAME "01-Recorded MIDI"
      VOLPAN 1 0 1 -1
      SOFFS 0 0
      PLAYRATE 1 1 0 -1 0 0.0021
      CHANMODE 0
      GUID {8AB6FD18-1F6F-EA29-DF79-120E95177C80}
      RECPASS 1
      <SOURCE MIDI
        HASDATA 1 960 QN
        CCINTERP 32
        POOLEDEVTS {D51D88F5-E7C6-995F-F86B-9A17134F78E9}
        E 0 90 3c 48
        E 0 90 40 48
        E 0 90 43 48
        E 1920 80 3c 00
        E 0 80 40 00
        E 0 80 43 00
        E 0 90 3c 48
        E 0 90 40 48
        E 0 90 43 48
        E 260 80 3c 00
        E 0 80 40 00
        E 0 80 43 00
        E 440 90 3c 48
        E 0 90 40 48
        E 0 90 43 48
        E 260 80 3c 00
        E 0 80 40 00
        E 0 80 43 00
        e 514 90 3c 48
        e 0 90 40 48
        e 0 90 43 48
        e 260 80 3c 00
        e 0 80 40 00
        e 0 80 43 00
        E 186 90 43 48
        E 0 90 47 48
        E 20 90 40 48
        E 1900 80 43 00
        E 0 80 47 00
        E 0 80 40 00
        E 0 90 43 48
        E 0 90 47 48
        E 20 90 40 48
        E 240 80 43 00
        E 0 80 47 00
        E 0 80 40 00
        E 440 90 43 48
        E 0 90 47 48
        E 20 90 40 48
        E 240 80 43 00
        E 0 80 47 00
        E 0 80 40 00
        e 514 90 43 48
        e 0 90 47 48
        e 20 90 40 48
        e 240 80 43 00
        e 0 80 47 00
        e 0 80 40 00
        E 186 90 41 48
        E 0 90 45 48
        E 0 90 48 48
        E 1920 80 41 00
        E 0 80 45 00
        E 0 80 48 00
        E 0 90 41 48
        E 0 90 45 48
        E 0 90 48 48
        E 260 80 41 00
        E 0 80 45 00
        E 0 80 48 00
        E 440 90 41 48
        E 0 90 45 48
        E 0 90 48 48
        E 260 80 41 00
        E 0 80 45 00
        E 0 80 48 00
        e 514 90 41 48
        e 0 90 45 48
        e 0 90 48 48
        e 260 80 41 00
        e 0 80 45 00
        e 0 80 48 00
        E 162 90 3e 48
        E 24 90 41 48
        E 0 90 45 48
        E 1896 90 3e 48
        E 24 80 3e 00
        E 0 80 41 00
        E 0 80 45 00
        E 0 90 41 48
        E 0 90 45 48
        E 260 80 3e 00
        E 0 80 41 00
        E 0 80 45 00
        E 416 90 3e 48
        E 24 90 41 48
        E 0 90 45 48
        E 260 80 3e 00
        E 0 80 41 00
        E 0 80 45 00
        e 490 90 3e 48
        e 24 90 41 48
        e 0 90 45 48
        e 260 80 3e 00
        e 0 80 41 00
        e 0 80 45 00
        E 186 b0 7b 00
        CHASE_CC_TAKEOFFS 1
        GUID {040E7AF8-3572-5D91-3C86-797AEE7444D4}
        IGNTEMPO 0 120 4 4
        SRCCOLOR 22
        VELLANE -1 100 0
        CFGEDITVIEW 0 0.045808 45 12 0 -1 0 0 0 0.5
        KEYSNAP 0
        TRACKSEL 0
        EVTFILTER 0 -1 -1 -1 -1 0 0 0 0 -1 -1 -1 -1 0 -1 0 -1 -1
        CFGEDIT 1 1 0 1 0 0 1 1 1 1 1 1 58 171 1253 866 0 0 0 0 0.25 0 0 0 0 0.5 0 0 1 64
      >
    >
    <ITEM
      POSITION 48
      SNAPOFFS 0
      LENGTH 8
      LOOP 1
      ALLTAKES 0
      FADEIN 1 0 0 1 0 0
      FADEOUT 1 0 0 1 0 0
      MUTE 0
      SEL 1
      IGUID {4B651B90-271F-202F-8536-65585DD404DF}
      IID 16
      NAME "01-Recorded MIDI"
      VOLPAN 1 0 1 -1
      SOFFS 0 0
      PLAYRATE 1 1 0 -1 0 0.0021
      CHANMODE 0
      GUID {80408FF6-E340-16DD-75DA-818A9CF8CE7B}
      RECPASS 1
      <SOURCE MIDI
        HASDATA 1 960 QN
        CCINTERP 32
        POOLEDEVTS {CF0FDC2F-D396-17E3-D969-4859A61FB4AF}
        E 0 90 3c 48
        E 0 90 40 48
        E 0 90 43 48
        E 1920 80 3c 00
        E 0 80 40 00
        E 0 80 43 00
        E 0 90 3c 48
        E 0 90 40 48
        E 0 90 43 48
        E 260 80 3c 00
        E 0 80 40 00
        E 0 80 43 00
        E 440 90 3c 48
        E 0 90 40 48
        E 0 90 43 48
        E 260 80 3c 00
        E 0 80 40 00
        E 0 80 43 00
        e 514 90 3c 48
        e 0 90 40 48
        e 0 90 43 48
        e 260 80 3c 00
        e 0 80 40 00
        e 0 80 43 00
        E 186 90 43 48
        E 0 90 47 48
        E 20 90 40 48
        E 1900 80 43 00
        E 0 80 47 00
        E 0 80 40 00
        E 0 90 43 48
        E 0 90 47 48
        E 20 90 40 48
        E 240 80 43 00
        E 0 80 47 00
        E 0 80 40 00
        E 440 90 43 48
        E 0 90 47 48
        E 20 90 40 48
        E 240 80 43 00
        E 0 80 47 00
        E 0 80 40 00
        e 514 90 43 48
        e 0 90 47 48
        e 20 90 40 48
        e 240 80 43 00
        e 0 80 47 00
        e 0 80 40 00
        E 186 90 41 48
        E 0 90 45 48
        E 0 90 48 48
        E 1920 80 41 00
        E 0 80 45 00
        E 0 80 48 00
        E 0 90 41 48
        E 0 90 45 48
        E 0 90 48 48
        E 260 80 41 00
        E 0 80 45 00
        E 0 80 48 00
        E 440 90 41 48
        E 0 90 45 48
        E 0 90 48 48
        E 260 80 41 00
        E 0 80 45 00
        E 0 80 48 00
        e 514 90 41 48
        e 0 90 45 48
        e 0 90 48 48
        e 260 80 41 00
        e 0 80 45 00
        e 0 80 48 00
        E 162 90 3e 48
        E 24 90 41 48
        E 0 90 45 48
        E 1896 90 3e 48
        E 24 80 3e 00
        E 0 80 41 00
        E 0 80 45 00
        E 0 90 41 48
        E 0 90 45 48
        E 260 80 3e 00
        E 0 80 41 00
        E 0 80 45 00
        E 416 90 3e 48
        E 24 90 41 48
        E 0 90 45 48
        E 260 80 3e 00
        E 0 80 41 00
        E 0 80 45 00
        e 490 90 3e 48
        e 24 90 41 48
        e 0 90 45 48
        e 260 80 3e 00
        e 0 80 41 00
        e 0 80 45 00
        E 186 b0 7b 00
        CHASE_CC_TAKEOFFS 1
        GUID {2338968B-6CF9-9F40-300F-DEB89D3392EA}
        IGNTEMPO 0 120 4 4
        SRCCOLOR 23
        VELLANE -1 100 0
        CFGEDITVIEW 0 0.045808 45 12 0 -1 0 0 0 0.5
        KEYSNAP 0
        TRACKSEL 0
        EVTFILTER 0 -1 -1 -1 -1 0 0 0 0 -1 -1 -1 -1 0 -1 0 -1 -1
        CFGEDIT 1 1 0 1 0 0 1 1 1 1 1 1 58 171 1253 866 0 0 0 0 0.25 0 0 0 0 0.5 0 0 1 64
      >
    >
    <ITEM
      POSITION 56
      SNAPOFFS 0
      LENGTH 8
      LOOP 1
      ALLTAKES 0
      FADEIN 1 0 0 1 0 0
      FADEOUT 1 0 0 1 0 0
      MUTE 0
      SEL 1
      IGUID {0921429F-3375-AC52-3C46-8022EF4A6D34}
      IID 17
      NAME "01-Recorded MIDI"
      VOLPAN 1 0 1 -1
      SOFFS 0 0
      PLAYRATE 1 1 0 -1 0 0.0021
      CHANMODE 0
      GUID {E7301E36-E80F-59E6-D8E5-96EFA9B5C71D}
      RECPASS 1
      <SOURCE MIDI
        HASDATA 1 960 QN
        CCINTERP 32
        POOLEDEVTS {450C6E0F-F26F-30EA-4300-6EE331849BD0}
        E 0 90 3c 48
        E 0 90 40 48
        E 0 90 43 48
        E 1920 80 3c 00
        E 0 80 40 00
        E 0 80 43 00
        E 0 90 3c 48
        E 0 90 40 48
        E 0 90 43 48
        E 260 80 3c 00
        E 0 80 40 00
        E 0 80 43 00
        E 440 90 3c 48
        E 0 90 40 48
        E 0 90 43 48
        E 260 80 3c 00
        E 0 80 40 00
        E 0 80 43 00
        e 514 90 3c 48
        e 0 90 40 48
        e 0 90 43 48
        e 260 80 3c 00
        e 0 80 40 00
        e 0 80 43 00
        E 186 90 43 48
        E 0 90 47 48
        E 20 90 40 48
        E 1900 80 43 00
        E 0 80 47 00
        E 0 80 40 00
        E 0 90 43 48
        E 0 90 47 48
        E 20 90 40 48
        E 240 80 43 00
        E 0 80 47 00
        E 0 80 40 00
        E 440 90 43 48
        E 0 90 47 48
        E 20 90 40 48
        E 240 80 43 00
        E 0 80 47 00
        E 0 80 40 00
        e 514 90 43 48
        e 0 90 47 48
        e 20 90 40 48
        e 240 80 43 00
        e 0 80 47 00
        e 0 80 40 00
        E 186 90 41 48
        E 0 90 45 48
        E 0 90 48 48
        E 1920 80 41 00
        E 0 80 45 00
        E 0 80 48 00
        E 0 90 41 48
        E 0 90 45 48
        E 0 90 48 48
        E 260 80 41 00
        E 0 80 45 00
        E 0 80 48 00
        E 440 90 41 48
        E 0 90 45 48
        E 0 90 48 48
        E 260 80 41 00
        E 0 80 45 00
        E 0 80 48 00
        e 514 90 41 48
        e 0 90 45 48
        e 0 90 48 48
        e 260 80 41 00
        e 0 80 45 00
        e 0 80 48 00
        E 162 90 3e 48
        E 24 90 41 48
        E 0 90 45 48
        E 1896 90 3e 48
        E 24 80 3e 00
        E 0 80 41 00
        E 0 80 45 00
        E 0 90 41 48
        E 0 90 45 48
        E 260 80 3e 00
        E 0 80 41 00
        E 0 80 45 00
        E 416 90 3e 48
        E 24 90 41 48
        E 0 90 45 48
        E 260 80 3e 00
        E 0 80 41 00
        E 0 80 45 00
        e 490 90 3e 48
        e 24 90 41 48
        e 0 90 45 48
        e 260 80 3e 00
        e 0 80 41 00
        e 0 80 45 00
        E 186 b0 7b 00
        CHASE_CC_TAKEOFFS 1
        GUID {A64857E2-94F8-0990-20DF-4C1E9B5E6251}
        IGNTEMPO 0 120 4 4
        SRCCOLOR 24
        VELLANE -1 100 0
        CFGEDITVIEW 0 0.045808 45 12 0 -1 0 0 0 0.5
        KEYSNAP 0
        TRACKSEL 0
        EVTFILTER 0 -1 -1 -1 -1 0 0 0 0 -1 -1 -1 -1 0 -1 0 -1 -1
        CFGEDIT 1 1 0 1 0 0 1 1 1 1 1 1 58 171 1253 866 0 0 0 0 0.25 0 0 0 0 0.5 0 0 1 64
      >
    >
    <ITEM
      POSITION 64
      SNAPOFFS 0
      LENGTH 8
      LOOP 1
      ALLTAKES 0
      FADEIN 1 0 0 1 0 0
      FADEOUT 1 0 0 1 0 0
      MUTE 0
      SEL 1
      IGUID {E5F40459-45A2-BF81-64A3-819D4C98A31A}
      IID 18
      NAME "01-Recorded MIDI"
      VOLPAN 1 0 1 -1
      SOFFS 0 0
      PLAYRATE 1 1 0 -1 0 0.0021
      CHANMODE 0
      GUID {172ECC93-8B3B-D372-BFE4-5F3BCE5BFE0A}
      RECPASS 1
      <SOURCE MIDI
        HASDATA 1 960 QN
        CCINTERP 32
        POOLEDEVTS {03216BE8-B23F-68A0-ED0B-D9A3F28BE50E}
        E 0 90 3c 48
        E 0 90 40 48
        E 0 90 43 48
        E 1920 80 3c 00
        E 0 80 40 00
        E 0 80 43 00
        E 0 90 3c 48
        E 0 90 40 48
        E 0 90 43 48
        E 260 80 3c 00
        E 0 80 40 00
        E 0 80 43 00
        E 440 90 3c 48
        E 0 90 40 48
        E 0 90 43 48
        E 260 80 3c 00
        E 0 80 40 00
        E 0 80 43 00
        e 514 90 3c 48
        e 0 90 40 48
        e 0 90 43 48
        e 260 80 3c 00
        e 0 80 40 00
        e 0 80 43 00
        E 186 90 43 48
        E 0 90 47 48
        E 20 90 40 48
        E 1900 80 43 00
        E 0 80 47 00
        E 0 80 40 00
        E 0 90 43 48
        E 0 90 47 48
        E 20 90 40 48
        E 240 80 43 00
        E 0 80 47 00
        E 0 80 40 00
        E 440 90 43 48
        E 0 90 47 48
        E 20 90 40 48
        E 240 80 43 00
        E 0 80 47 00
        E 0 80 40 00
        e 514 90 43 48
        e 0 90 47 48
        e 20 90 40 48
        e 240 80 43 00
        e 0 80 47 00
        e 0 80 40 00
        E 186 90 41 48
        E 0 90 45 48
        E 0 90 48 48
        E 1920 80 41 00
        E 0 80 45 00
        E 0 80 48 00
        E 0 90 41 48
        E 0 90 45 48
        E 0 90 48 48
        E 260 80 41 00
        E 0 80 45 00
        E 0 80 48 00
        E 440 90 41 48
        E 0 90 45 48
        E 0 90 48 48
        E 260 80 41 00
        E 0 80 45 00
        E 0 80 48 00
        e 514 90 41 48
        e 0 90 45 48
        e 0 90 48 48
        e 260 80 41 00
        e 0 80 45 00
        e 0 80 48 00
        E 162 90 3e 48
        E 24 90 41 48
        E 0 90 45 48
        E 1896 90 3e 48
        E 24 80 3e 00
        E 0 80 41 00
        E 0 80 45 00
        E 0 90 41 48
        E 0 90 45 48
        E 260 80 3e 00
        E 0 80 41 00
        E 0 80 45 00
        E 416 90 3e 48
        E 24 90 41 48
        E 0 90 45 48
        E 260 80 3e 00
        E 0 80 41 00
        E 0 80 45 00
        e 490 90 3e 48
        e 24 90 41 48
        e 0 90 45 48
        e 260 80 3e 00
        e 0 80 41 00
        e 0 80 45 00
        E 186 b0 7b 00
        CHASE_CC_TAKEOFFS 1
        GUID {19362806-85F2-5D9E-E1F9-07BE0CF3D16E}
        IGNTEMPO 0 120 4 4
        SRCCOLOR 25
        VELLANE -1 100 0
        CFGEDITVIEW 0 0.045808 45 12 0 -1 0 0 0 0.5
        KEYSNAP 0
        TRACKSEL 0
        EVTFILTER 0 -1 -1 -1 -1 0 0 0 0 -1 -1 -1 -1 0 -1 0 -1 -1
        CFGEDIT 1 1 0 1 0 0 1 1 1 1 1 1 58 171 1253 866 0 0 0 0 0.25 0 0 0 0 0.5 0 0 1 64
      >
    >
    <ITEM
      POSITION 72
      SNAPOFFS 0
      LENGTH 8
      LOOP 1
      ALLTAKES 0
      FADEIN 1 0 0 1 0 0
      FADEOUT 1 0 0 1 0 0
      MUTE 0
      SEL 1
      IGUID {D2D7BAA7-484A-99B8-5184-288CAF079CB7}
      IID 19
      NAME "01-Recorded MIDI"
      VOLPAN 1 0 1 -1
      SOFFS 0 0
      PLAYRATE 1 1 0 -1 0 0.0021
      CHANMODE 0
      GUID {CAEC0C35-5E88-95CE-445B-18B0223F721F}
      RECPASS 1
      <SOURCE MIDI
        HASDATA 1 960 QN
        CCINTERP 32
        POOLEDEVTS {38B72621-52EE-9469-0145-46CC73A7AD65}
        E 0 90 3c 48
        E 0 90 40 48
        E 0 90 43 48
        E 1920 80 3c 00
        E 0 80 40 00
        E 0 80 43 00
        E 0 90 3c 48
        E 0 90 40 48
        E 0 90 43 48
        E 260 80 3c 00
        E 0 80 40 00
        E 0 80 43 00
        E 440 90 3c 48
        E 0 90 40 48
        E 0 90 43 48
        E 260 80 3c 00
        E 0 80 40 00
        E 0 80 43 00
        e 514 90 3c 48
        e 0 90 40 48
        e 0 90 43 48
        e 260 80 3c 00
        e 0 80 40 00
        e 0 80 43 00
        E 186 90 43 48
        E 0 90 47 48
        E 20 90 40 48
        E 1900 80 43 00
        E 0 80 47 00
        E 0 80 40 00
        E 0 90 43 48
        E 0 90 47 48
        E 20 90 40 48
        E 240 80 43 00
        E 0 80 47 00
        E 0 80 40 00
        E 440 90 43 48
        E 0 90 47 48
        E 20 90 40 48
        E 240 80 43 00
        E 0 80 47 00
        E 0 80 40 00
        e 514 90 43 48
        e 0 90 47 48
        e 20 90 40 48
        e 240 80 43 00
        e 0 80 47 00
        e 0 80 40 00
        E 186 90 41 48
        E 0 90 45 48
        E 0 90 48 48
        E 1920 80 41 00
        E 0 80 45 00
        E 0 80 48 00
        E 0 90 41 48
        E 0 90 45 48
        E 0 90 48 48
        E 260 80 41 00
        E 0 80 45 00
        E 0 80 48 00
        E 440 90 41 48
        E 0 90 45 48
        E 0 90 48 48
        E 260 80 41 00
        E 0 80 45 00
        E 0 80 48 00
        e 514 90 41 48
        e 0 90 45 48
        e 0 90 48 48
        e 260 80 41 00
        e 0 80 45 00
        e 0 80 48 00
        E 162 90 3e 48
        E 24 90 41 48
        E 0 90 45 48
        E 1896 90 3e 48
        E 24 80 3e 00
        E 0 80 41 00
        E 0 80 45 00
        E 0 90 41 48
        E 0 90 45 48
        E 260 80 3e 00
        E 0 80 41 00
        E 0 80 45 00
        E 416 90 3e 48
        E 24 90 41 48
        E 0 90 45 48
        E 260 80 3e 00
        E 0 80 41 00
        E 0 80 45 00
        e 490 90 3e 48
        e 24 90 41 48
        e 0 90 45 48
        e 260 80 3e 00
        e 0 80 41 00
        e 0 80 45 00
        E 186 b0 7b 00
        CHASE_CC_TAKEOFFS 1
        GUID {6844F8A9-6BE9-023C-4A46-0A676470C99B}
        IGNTEMPO 0 120 4 4
        SRCCOLOR 26
        VELLANE -1 100 0
        CFGEDITVIEW 0 0.045808 45 12 0 -1 0 0 0 0.5
        KEYSNAP 0
        TRACKSEL 0
        EVTFILTER 0 -1 -1 -1 -1 0 0 0 0 -1 -1 -1 -1 0 -1 0 -1 -1
        CFGEDIT 1 1 0 1 0 0 1 1 1 1 1 1 58 171 1253 866 0 0 0 0 0.25 0 0 0 0 0.5 0 0 1 64
      >
    >
    <ITEM
      POSITION 80
      SNAPOFFS 0
      LENGTH 8
      LOOP 1
      ALLTAKES 0
      FADEIN 1 0 0 1 0 0
      FADEOUT 1 0 0 1 0 0
      MUTE 0
      SEL 1
      IGUID {CD023810-6406-FAFB-11D8-9146F855FE04}
      IID 20
      NAME "01-Recorded MIDI"
      VOLPAN 1 0 1 -1
      SOFFS 0 0
      PLAYRATE 1 1 0 -1 0 0.0021
      CHANMODE 0
      GUID {54CE5CA3-0D27-C1F5-685F-413C192B7ED7}
      RECPASS 1
      <SOURCE MIDI
        HASDATA 1 960 QN
        CCINTERP 32
        POOLEDEVTS {A4D3C192-37D7-ED10-3689-EB4F5DE9C437}
        E 0 90 3c 48
        E 0 90 40 48
        E 0 90 43 48
        E 1920 80 3c 00
        E 0 80 40 00
        E 0 80 43 00
        E 0 90 3c 48
        E 0 90 40 48
        E 0 90 43 48
        E 260 80 3c 00
        E 0 80 40 00
        E 0 80 43 00
        E 440 90 3c 48
        E 0 90 40 48
        E 0 90 43 48
        E 260 80 3c 00
        E 0 80 40 00
        E 0 80 43 00
        e 514 90 3c 48
        e 0 90 40 48
        e 0 90 43 48
        e 260 80 3c 00
        e 0 80 40 00
        e 0 80 43 00
        E 186 90 43 48
        E 0 90 47 48
        E 20 90 40 48
        E 1900 80 43 00
        E 0 80 47 00
        E 0 80 40 00
        E 0 90 43 48
        E 0 90 47 48
        E 20 90 40 48
        E 240 80 43 00
        E 0 80 47 00
        E 0 80 40 00
        E 440 90 43 48
        E 0 90 47 48
        E 20 90 40 48
        E 240 80 43 00
        E 0 80 47 00
        E 0 80 40 00
        e 514 90 43 48
        e 0 90 47 48
        e 20 90 40 48
        e 240 80 43 00
        e 0 80 47 00
        e 0 80 40 00
        E 186 90 41 48
        E 0 90 45 48
        E 0 90 48 48
        E 1920 80 41 00
        E 0 80 45 00
        E 0 80 48 00
        E 0 90 41 48
        E 0 90 45 48
        E 0 90 48 48
        E 260 80 41 00
        E 0 80 45 00
        E 0 80 48 00
        E 440 90 41 48
        E 0 90 45 48
        E 0 90 48 48
        E 260 80 41 00
        E 0 80 45 00
        E 0 80 48 00
        e 514 90 41 48
        e 0 90 45 48
        e 0 90 48 48
        e 260 80 41 00
        e 0 80 45 00
        e 0 80 48 00
        E 162 90 3e 48
        E 24 90 41 48
        E 0 90 45 48
        E 1896 90 3e 48
        E 24 80 3e 00
        E 0 80 41 00
        E 0 80 45 00
        E 0 90 41 48
        E 0 90 45 48
        E 260 80 3e 00
        E 0 80 41 00
        E 0 80 45 00
        E 416 90 3e 48
        E 24 90 41 48
        E 0 90 45 48
        E 260 80 3e 00
        E 0 80 41 00
        E 0 80 45 00
        e 490 90 3e 48
        e 24 90 41 48
        e 0 90 45 48
        e 260 80 3e 00
        e 0 80 41 00
        e 0 80 45 00
        E 186 b0 7b 00
        CHASE_CC_TAKEOFFS 1
        GUID {E611ADB6-4869-6CCA-8E83-3954D5E743B1}
        IGNTEMPO 0 120 4 4
        SRCCOLOR 27
        VELLANE -1 100 0
        CFGEDITVIEW 0 0.045808 45 12 0 -1 0 0 0 0.5
        KEYSNAP 0
        TRACKSEL 0
        EVTFILTER 0 -1 -1 -1 -1 0 0 0 0 -1 -1 -1 -1 0 -1 0 -1 -1
        CFGEDIT 1 1 0 1 0 0 1 1 1 1 1 1 58 171 1253 866 0 0 0 0 0.25 0 0 0 0 0.5 0 0 1 64
      >
    >
    <ITEM
      POSITION 88
      SNAPOFFS 0
      LENGTH 8
      LOOP 1
      ALLTAKES 0
      FADEIN 1 0 0 1 0 0
      FADEOUT 1 0 0 1 0 0
      MUTE 0
      SEL 1
      IGUID {220F34EC-4441-942E-2AC2-2F6D12307A11}
      IID 21
      NAME "01-Recorded MIDI"
      VOLPAN 1 0 1 -1
      SOFFS 0 0
      PLAYRATE 1 1 0 -1 0 0.0021
      CHANMODE 0
      GUID {DF696FD0-F260-5BBA-0B01-9B494E4E47DF}
      RECPASS 1
      <SOURCE MIDI
        HASDATA 1 960 QN
        CCINTERP 32
        POOLEDEVTS {24A934EB-0FFF-760F-7F19-BAF6681501B2}
        E 0 90 3c 48
        E 0 90 40 48
        E 0 90 43 48
        E 1920 80 3c 00
        E 0 80 40 00
        E 0 80 43 00
        E 0 90 3c 48
        E 0 90 40 48
        E 0 90 43 48
        E 260 80 3c 00
        E 0 80 40 00
        E 0 80 43 00
        E 440 90 3c 48
        E 0 90 40 48
        E 0 90 43 48
        E 260 80 3c 00
        E 0 80 40 00
        E 0 80 43 00
        e 514 90 3c 48
        e 0 90 40 48
        e 0 90 43 48
        e 260 80 3c 00
        e 0 80 40 00
        e 0 80 43 00
        E 186 90 43 48
        E 0 90 47 48
        E 20 90 40 48
        E 1900 80 43 00
        E 0 80 47 00
        E 0 80 40 00
        E 0 90 43 48
        E 0 90 47 48
        E 20 90 40 48
        E 240 80 43 00
        E 0 80 47 00
        E 0 80 40 00
        E 440 90 43 48
        E 0 90 47 48
        E 20 90 40 48
        E 240 80 43 00
        E 0 80 47 00
        E 0 80 40 00
        e 514 90 43 48
        e 0 90 47 48
        e 20 90 40 48
        e 240 80 43 00
        e 0 80 47 00
        e 0 80 40 00
        E 186 90 41 48
        E 0 90 45 48
        E 0 90 48 48
        E 1920 80 41 00
        E 0 80 45 00
        E 0 80 48 00
        E 0 90 41 48
        E 0 90 45 48
        E 0 90 48 48
        E 260 80 41 00
        E 0 80 45 00
        E 0 80 48 00
        E 440 90 41 48
        E 0 90 45 48
        E 0 90 48 48
        E 260 80 41 00
        E 0 80 45 00
        E 0 80 48 00
        e 514 90 41 48
        e 0 90 45 48
        e 0 90 48 48
        e 260 80 41 00
        e 0 80 45 00
        e 0 80 48 00
        E 162 90 3e 48
        E 24 90 41 48
        E 0 90 45 48
        E 1896 90 3e 48
        E 24 80 3e 00
        E 0 80 41 00
        E 0 80 45 00
        E 0 90 41 48
        E 0 90 45 48
        E 260 80 3e 00
        E 0 80 41 00
        E 0 80 45 00
        E 416 90 3e 48
        E 24 90 41 48
        E 0 90 45 48
        E 260 80 3e 00
        E 0 80 41 00
        E 0 80 45 00
        e 490 90 3e 48
        e 24 90 41 48
        e 0 90 45 48
        e 260 80 3e 00
        e 0 80 41 00
        e 0 80 45 00
        E 186 b0 7b 00
        CHASE_CC_TAKEOFFS 1
        GUID {C762B555-17FC-D765-5340-11D3487D2955}
        IGNTEMPO 0 120 4 4
        SRCCOLOR 28
        VELLANE -1 100 0
        CFGEDITVIEW 0 0.045808 45 12 0 -1 0 0 0 0.5
        KEYSNAP 0
        TRACKSEL 0
        EVTFILTER 0 -1 -1 -1 -1 0 0 0 0 -1 -1 -1 -1 0 -1 0 -1 -1
        CFGEDIT 1 1 0 1 0 0 1 1 1 1 1 1 58 171 1253 866 0 0 0 0 0.25 0 0 0 0 0.5 0 0 1 64
      >
    >
  >
  <TRACK {DC4A4FCE-39FB-958E-8AF8-DC4ABAEC2897}
    NAME ""
    PEAKCOL 16576
    BEAT -1
    AUTOMODE 0
    VOLPAN 0.00052194381917 0 -1 -1 1
    MUTESOLO 0 0 0
    IPHASE 0
    PLAYOFFS 0 1
    ISBUS 0 0
    BUSCOMP 0 0 0 0 0
    SHOWINMIX 1 0.6667 0.5 1 0.5 0 0 0
    FREEMODE 0
    SEL 0
    REC 0 5056 1 0 0 0 0
    VU 2
    TRACKHEIGHT 21 0 0
    INQ 0 0 0 0.5 100 0 0 100
    NCHAN 2
    FX 0
    TRACKID {DC4A4FCE-39FB-958E-8AF8-DC4ABAEC2897}
    PERF 0
    MIDIOUT -1
    MAINSEND 1 0
    <FXCHAIN
      WNDRECT 346 266 902 608
      SHOW 0
      LASTSEL 5
      DOCKED 0
      BYPASS 0 0 0
      <VST "VST: ReaEQ (Cockos)" reaeq.vst.so 0 "" 1919247729<56535472656571726561657100000000> ""
        cWVlcu5e7f4CAAAAAQAAAAAAAAACAAAAAAAAAAIAAAABAAAAAAAAAAIAAAAAAAAAqAAAAAEAAAAAABAA
        IQAAAAQAAAAEAAAAAQAAAEC4Xhmm+DRAAAAAAAAA8D8AAAAAAAAAQAEIAAAAAQAAAAAAAAAAwHJAAAAAAAAA8D8AAAAAAAAAQAEIAAAAAQAAAAAAAAAAQI9AAAAAAAAA
        8D8AAAAAAAAAQAEDAAAAAQAAAAABaCorbdRAAAAAAAAA8D8AAAAAAAAAQAEBAAAAAQAAAAAAAAAAAPA/AAAAAJoCAACcAQAA
        AEhpZ2ggbG93IHBhc3MAEAAAAA==
      >
      PRESETNAME "High low pass"
      FLOATPOS 0 0 0 0
      FXID {AFFB31CB-8499-6C3C-681F-7A2643294176}
      WAK 0 0
      BYPASS 0 0 0
      <VST "VSTi: ReaSynth (Cockos)" reasynth.vst.so 0 "" 1919251321<5653547265737972656173796E746800> ""
        eXNlcu9e7f4AAAAAAgAAAAEAAAAAAAAAAgAAAAAAAAA8AAAAAAAAAAAAEAA=
        776t3g3wrd6lm8Q7F7fROgAAAAAAAAAAAAAAAJCNuT3oZ4g9AACAPwAAAD8AAIA/AAAAAAAAAD8AAAAA
        AAAQAAAA
      >
      FLOATPOS 0 0 0 0
      FXID {2AE8C31F-A7BF-94F5-6F00-56092D31872D}
      WAK 0 0
      BYPASS 0 0 0
      <JS guitar/amp-model ""
        "Dumble Overdrive Special - Tweed Deluxe.wav" -21.000000 1.000000 0.000000 73.000000 256.000000 - - - - - - - - - - - - - - - - - - - - - - - - - - - - - - - - - - - - - - - - - - - - - - - - - - - - - - - - - - 
      >
      FLOATPOS 0 0 0 0
      FXID {D8BC49E8-1E2B-D301-6095-46520EC639BC}
      WAK 0 0
      BYPASS 0 0 0
      <VST "VST: ReaComp (Cockos)" reacomp.vst.so 0 "" 1919247213<5653547265636D726561636F6D700000> ""
        bWNlcu9e7f4EAAAAAQAAAAAAAAACAAAAAAAAAAQAAAAAAAAACAAAAAAAAAACAAAAAQAAAAAAAAACAAAAAAAAAFQAAAAAAAAAAAAQAA==
        776t3g3wrd5FoYg9/AWpPKWbxDsK16M8AAAAAAAAAAAAAIA/AAAAAAAAAAAAAAAAnNEHMwAAgD8AAAAAzMxMPQAAAAAAAAAAAAAAAAAAgD7YiZ09
        AAAQAAAA
      >
      FLOATPOS 0 0 0 0
      FXID {0A80C7D9-F167-9618-9067-1022409D81FB}
      WAK 0 0
      BYPASS 0 0 0
      <VST "VST: ReaDelay (Cockos)" readelay.vst.so 0 "" 1919247468<5653547265646C72656164656C617900> ""
        bGRlcu5e7f4CAAAAAQAAAAAAAAACAAAAAAAAAAIAAAABAAAAAAAAAAIAAAAAAAAA/AAAAAEAAAAAAAAA
        AAAAAAAAAAAFAAAALAAAAAIAAAAEAAAAAACAPwAAgD8AAAAAAACAPwAAAAAAAIA7vTeGNQAAgD8AAAAAAACAPwAAgD8AAIA/AAAAAAAAAAAAAIA/AAAAAAAAADwAAAAA
        AACAPwAAAAAAAIA/AACAP+87NT8AAIA/AAAAAAAAgD8AAAAAAABAPL03hjUAAIA/AAAAAAAAgD8AAIA/zk0AP6abhD4AAAAAAACAPwAAAAAAAIA8vTeGNQAAgD8AAAAA
        AACAPwAAgD8aqrU+pHA9PwAAAAAAAIA/AAAAAAAAoDy9N4Y1AACAPwAAAAAAAIA/AACAP/npAD4AAAA/
        AHN0b2NrIC0gYmFzaWMgNSB0YXAgcGluZyBwb25nAAAAAAA=
      >
      PRESETNAME "stock - basic 5 tap ping pong"
      FLOATPOS 0 0 0 0
      FXID {E6833AD0-E703-A8C2-D02B-E329BCFA6AC4}
      WAK 0 0
      BYPASS 0 0 0
      <VST "VST: ReaVerb (Cockos)" reaverb.vst.so 0 "" 1919252066<56535472657662726561766572620000> ""
        YnZlcu5e7f4CAAAAAQAAAAAAAAACAAAAAAAAAAIAAAABAAAAAAAAAAIAAAAAAAAAcAAAAAEAAAAAAAAA
        AAAAwcybgD4AAIA/AAAAAAAAgD8AAIA/AAAAPwAAgD8AAAAAVkVSQkdFTgAYAAAAAAAAAJHgV0QdrLRA3rK7QsHIjEIAAIC/RUNIT0dFTgAcAAAAy/i2QLUjdUJdzdM/
        osdfP5lRrzyRzYxAnMQAPw==
        AHN3ZWV0dmVyYm8AAAAAAA==
      >
      PRESETNAME sweetverbo
      FLOATPOS 0 0 0 0
      FXID {867A517A-E73B-8F5A-E980-FB31B99C9245}
      WAK 0 0
    >
    <ITEM
      POSITION 0
      SNAPOFFS 0
      LENGTH 8
      LOOP 1
      ALLTAKES 0
      FADEIN 1 0 0 1 0 0
      FADEOUT 1 0 0 1 0 0
      MUTE 0
      SEL 1
      IGUID {C47F705E-D941-7FCB-B0DA-17BDCD595347}
      IID 10
      NAME "01-Recorded MIDI"
      VOLPAN 1 0 1 -1
      SOFFS 0 0
      PLAYRATE 1 1 0 -1 0 0.0021
      CHANMODE 0
      GUID {465D8488-C0D6-E444-C6A8-63CFED86A4CC}
      RECPASS 1
      <SOURCE MIDI
        HASDATA 1 960 QN
        CCINTERP 32
        POOLEDEVTS {CE9B425E-25A5-502A-0EEF-C31FFFC80290}
        E 0 90 3c 48
        E 0 90 40 48
        E 0 90 43 48
        E 1920 80 3c 00
        E 0 80 40 00
        E 0 80 43 00
        E 0 90 3c 48
        E 0 90 40 48
        E 0 90 43 48
        E 260 80 3c 00
        E 0 80 40 00
        E 0 80 43 00
        E 440 90 3c 48
        E 0 90 40 48
        E 0 90 43 48
        E 260 80 3c 00
        E 0 80 40 00
        E 0 80 43 00
        e 514 90 3c 48
        e 0 90 40 48
        e 0 90 43 48
        e 260 80 3c 00
        e 0 80 40 00
        e 0 80 43 00
        E 186 90 43 48
        E 0 90 47 48
        E 20 90 40 48
        E 1900 80 43 00
        E 0 80 47 00
        E 0 80 40 00
        E 0 90 43 48
        E 0 90 47 48
        E 20 90 40 48
        E 240 80 43 00
        E 0 80 47 00
        E 0 80 40 00
        E 440 90 43 48
        E 0 90 47 48
        E 20 90 40 48
        E 240 80 43 00
        E 0 80 47 00
        E 0 80 40 00
        e 514 90 43 48
        e 0 90 47 48
        e 20 90 40 48
        e 240 80 43 00
        e 0 80 47 00
        e 0 80 40 00
        E 186 90 41 48
        E 0 90 45 48
        E 0 90 48 48
        E 1920 80 41 00
        E 0 80 45 00
        E 0 80 48 00
        E 0 90 41 48
        E 0 90 45 48
        E 0 90 48 48
        E 260 80 41 00
        E 0 80 45 00
        E 0 80 48 00
        E 440 90 41 48
        E 0 90 45 48
        E 0 90 48 48
        E 260 80 41 00
        E 0 80 45 00
        E 0 80 48 00
        e 514 90 41 48
        e 0 90 45 48
        e 0 90 48 48
        e 260 80 41 00
        e 0 80 45 00
        e 0 80 48 00
        E 162 90 3e 48
        E 24 90 41 48
        E 0 90 45 48
        E 1896 90 3e 48
        E 24 80 3e 00
        E 0 80 41 00
        E 0 80 45 00
        E 0 90 41 48
        E 0 90 45 48
        E 260 80 3e 00
        E 0 80 41 00
        E 0 80 45 00
        E 416 90 3e 48
        E 24 90 41 48
        E 0 90 45 48
        E 260 80 3e 00
        E 0 80 41 00
        E 0 80 45 00
        e 490 90 3e 48
        e 24 90 41 48
        e 0 90 45 48
        e 260 80 3e 00
        e 0 80 41 00
        e 0 80 45 00
        E 186 b0 7b 00
        CHASE_CC_TAKEOFFS 1
        GUID {7B9D708B-43E1-C8D4-C4B3-87E2A6C27801}
        IGNTEMPO 0 120 4 4
        SRCCOLOR 17
        VELLANE -1 100 0
        CFGEDITVIEW 0 0.045808 45 12 0 -1 0 0 0 0.5
        KEYSNAP 0
        TRACKSEL 0
        EVTFILTER 0 -1 -1 -1 -1 0 0 0 0 -1 -1 -1 -1 0 -1 0 -1 -1
        CFGEDIT 1 1 0 1 0 0 1 1 1 1 1 1 58 171 1253 866 0 0 0 0 0.25 0 0 0 0 0.5 0 0 1 64
      >
    >
    <ITEM
      POSITION 8
      SNAPOFFS 0
      LENGTH 8
      LOOP 1
      ALLTAKES 0
      FADEIN 1 0 0 1 0 0
      FADEOUT 1 0 0 1 0 0
      MUTE 0
      SEL 1
      IGUID {14C8867C-A146-DE7C-DA0D-2D0CF2B5C3D3}
      IID 11
      NAME "01-Recorded MIDI"
      VOLPAN 1 0 1 -1
      SOFFS 0 0
      PLAYRATE 1 1 0 -1 0 0.0021
      CHANMODE 0
      GUID {03BB0744-3D02-C5BC-487C-12D2B5092B03}
      RECPASS 1
      <SOURCE MIDI
        HASDATA 1 960 QN
        CCINTERP 32
        POOLEDEVTS {B5B698C4-405D-A9BB-F880-EAAC88706AA0}
        E 0 90 3c 48
        E 0 90 40 48
        E 0 90 43 48
        E 1920 80 3c 00
        E 0 80 40 00
        E 0 80 43 00
        E 0 90 3c 48
        E 0 90 40 48
        E 0 90 43 48
        E 260 80 3c 00
        E 0 80 40 00
        E 0 80 43 00
        E 440 90 3c 48
        E 0 90 40 48
        E 0 90 43 48
        E 260 80 3c 00
        E 0 80 40 00
        E 0 80 43 00
        e 514 90 3c 48
        e 0 90 40 48
        e 0 90 43 48
        e 260 80 3c 00
        e 0 80 40 00
        e 0 80 43 00
        E 186 90 43 48
        E 0 90 47 48
        E 20 90 40 48
        E 1900 80 43 00
        E 0 80 47 00
        E 0 80 40 00
        E 0 90 43 48
        E 0 90 47 48
        E 20 90 40 48
        E 240 80 43 00
        E 0 80 47 00
        E 0 80 40 00
        E 440 90 43 48
        E 0 90 47 48
        E 20 90 40 48
        E 240 80 43 00
        E 0 80 47 00
        E 0 80 40 00
        e 514 90 43 48
        e 0 90 47 48
        e 20 90 40 48
        e 240 80 43 00
        e 0 80 47 00
        e 0 80 40 00
        E 186 90 41 48
        E 0 90 45 48
        E 0 90 48 48
        E 1920 80 41 00
        E 0 80 45 00
        E 0 80 48 00
        E 0 90 41 48
        E 0 90 45 48
        E 0 90 48 48
        E 260 80 41 00
        E 0 80 45 00
        E 0 80 48 00
        E 440 90 41 48
        E 0 90 45 48
        E 0 90 48 48
        E 260 80 41 00
        E 0 80 45 00
        E 0 80 48 00
        e 514 90 41 48
        e 0 90 45 48
        e 0 90 48 48
        e 260 80 41 00
        e 0 80 45 00
        e 0 80 48 00
        E 162 90 3e 48
        E 24 90 41 48
        E 0 90 45 48
        E 1896 90 3e 48
        E 24 80 3e 00
        E 0 80 41 00
        E 0 80 45 00
        E 0 90 41 48
        E 0 90 45 48
        E 260 80 3e 00
        E 0 80 41 00
        E 0 80 45 00
        E 416 90 3e 48
        E 24 90 41 48
        E 0 90 45 48
        E 260 80 3e 00
        E 0 80 41 00
        E 0 80 45 00
        e 490 90 3e 48
        e 24 90 41 48
        e 0 90 45 48
        e 260 80 3e 00
        e 0 80 41 00
        e 0 80 45 00
        E 186 b0 7b 00
        CHASE_CC_TAKEOFFS 1
        GUID {3131B4E2-B370-E352-A9C5-C8CA31551A86}
        IGNTEMPO 0 120 4 4
        SRCCOLOR 18
        VELLANE -1 100 0
        CFGEDITVIEW 0 0.045808 45 12 0 -1 0 0 0 0.5
        KEYSNAP 0
        TRACKSEL 0
        EVTFILTER 0 -1 -1 -1 -1 0 0 0 0 -1 -1 -1 -1 0 -1 0 -1 -1
        CFGEDIT 1 1 0 1 0 0 1 1 1 1 1 1 58 171 1253 866 0 0 0 0 0.25 0 0 0 0 0.5 0 0 1 64
      >
    >
    <ITEM
      POSITION 16
      SNAPOFFS 0
      LENGTH 8
      LOOP 1
      ALLTAKES 0
      FADEIN 1 0 0 1 0 0
      FADEOUT 1 0 0 1 0 0
      MUTE 0
      SEL 1
      IGUID {F9AF4AE4-22E4-EFE4-3FEE-4BE89F72E580}
      IID 12
      NAME "01-Recorded MIDI"
      VOLPAN 1 0 1 -1
      SOFFS 0 0
      PLAYRATE 1 1 0 -1 0 0.0021
      CHANMODE 0
      GUID {84A52918-CEC0-B7DE-5CA2-080E2947F1F0}
      RECPASS 1
      <SOURCE MIDI
        HASDATA 1 960 QN
        CCINTERP 32
        POOLEDEVTS {C76E1E3D-ADE9-67A2-9ABA-B11DBC78A65E}
        E 0 90 3c 48
        E 0 90 40 48
        E 0 90 43 48
        E 1920 80 3c 00
        E 0 80 40 00
        E 0 80 43 00
        E 0 90 3c 48
        E 0 90 40 48
        E 0 90 43 48
        E 260 80 3c 00
        E 0 80 40 00
        E 0 80 43 00
        E 440 90 3c 48
        E 0 90 40 48
        E 0 90 43 48
        E 260 80 3c 00
        E 0 80 40 00
        E 0 80 43 00
        e 514 90 3c 48
        e 0 90 40 48
        e 0 90 43 48
        e 260 80 3c 00
        e 0 80 40 00
        e 0 80 43 00
        E 186 90 43 48
        E 0 90 47 48
        E 20 90 40 48
        E 1900 80 43 00
        E 0 80 47 00
        E 0 80 40 00
        E 0 90 43 48
        E 0 90 47 48
        E 20 90 40 48
        E 240 80 43 00
        E 0 80 47 00
        E 0 80 40 00
        E 440 90 43 48
        E 0 90 47 48
        E 20 90 40 48
        E 240 80 43 00
        E 0 80 47 00
        E 0 80 40 00
        e 514 90 43 48
        e 0 90 47 48
        e 20 90 40 48
        e 240 80 43 00
        e 0 80 47 00
        e 0 80 40 00
        E 186 90 41 48
        E 0 90 45 48
        E 0 90 48 48
        E 1920 80 41 00
        E 0 80 45 00
        E 0 80 48 00
        E 0 90 41 48
        E 0 90 45 48
        E 0 90 48 48
        E 260 80 41 00
        E 0 80 45 00
        E 0 80 48 00
        E 440 90 41 48
        E 0 90 45 48
        E 0 90 48 48
        E 260 80 41 00
        E 0 80 45 00
        E 0 80 48 00
        e 514 90 41 48
        e 0 90 45 48
        e 0 90 48 48
        e 260 80 41 00
        e 0 80 45 00
        e 0 80 48 00
        E 162 90 3e 48
        E 24 90 41 48
        E 0 90 45 48
        E 1896 90 3e 48
        E 24 80 3e 00
        E 0 80 41 00
        E 0 80 45 00
        E 0 90 41 48
        E 0 90 45 48
        E 260 80 3e 00
        E 0 80 41 00
        E 0 80 45 00
        E 416 90 3e 48
        E 24 90 41 48
        E 0 90 45 48
        E 260 80 3e 00
        E 0 80 41 00
        E 0 80 45 00
        e 490 90 3e 48
        e 24 90 41 48
        e 0 90 45 48
        e 260 80 3e 00
        e 0 80 41 00
        e 0 80 45 00
        E 186 b0 7b 00
        CHASE_CC_TAKEOFFS 1
        GUID {48C567A2-895C-FB9B-FDBA-0ADB7004ABF3}
        IGNTEMPO 0 120 4 4
        SRCCOLOR 19
        VELLANE -1 100 0
        CFGEDITVIEW 0 0.045808 45 12 0 -1 0 0 0 0.5
        KEYSNAP 0
        TRACKSEL 0
        EVTFILTER 0 -1 -1 -1 -1 0 0 0 0 -1 -1 -1 -1 0 -1 0 -1 -1
        CFGEDIT 1 1 0 1 0 0 1 1 1 1 1 1 58 171 1253 866 0 0 0 0 0.25 0 0 0 0 0.5 0 0 1 64
      >
    >
    <ITEM
      POSITION 24
      SNAPOFFS 0
      LENGTH 8
      LOOP 1
      ALLTAKES 0
      FADEIN 1 0 0 1 0 0
      FADEOUT 1 0 0 1 0 0
      MUTE 0
      SEL 1
      IGUID {4636FAD2-7CB5-0F94-4670-5653F639FB2D}
      IID 13
      NAME "01-Recorded MIDI"
      VOLPAN 1 0 1 -1
      SOFFS 0 0
      PLAYRATE 1 1 0 -1 0 0.0021
      CHANMODE 0
      GUID {7094ED22-F88B-16CD-AB4A-604D05F6A004}
      RECPASS 1
      <SOURCE MIDI
        HASDATA 1 960 QN
        CCINTERP 32
        POOLEDEVTS {64442E9B-EDB3-3642-AA0C-C11DC54A7DEF}
        E 0 90 3c 48
        E 0 90 40 48
        E 0 90 43 48
        E 1920 80 3c 00
        E 0 80 40 00
        E 0 80 43 00
        E 0 90 3c 48
        E 0 90 40 48
        E 0 90 43 48
        E 260 80 3c 00
        E 0 80 40 00
        E 0 80 43 00
        E 440 90 3c 48
        E 0 90 40 48
        E 0 90 43 48
        E 260 80 3c 00
        E 0 80 40 00
        E 0 80 43 00
        e 514 90 3c 48
        e 0 90 40 48
        e 0 90 43 48
        e 260 80 3c 00
        e 0 80 40 00
        e 0 80 43 00
        E 186 90 43 48
        E 0 90 47 48
        E 20 90 40 48
        E 1900 80 43 00
        E 0 80 47 00
        E 0 80 40 00
        E 0 90 43 48
        E 0 90 47 48
        E 20 90 40 48
        E 240 80 43 00
        E 0 80 47 00
        E 0 80 40 00
        E 440 90 43 48
        E 0 90 47 48
        E 20 90 40 48
        E 240 80 43 00
        E 0 80 47 00
        E 0 80 40 00
        e 514 90 43 48
        e 0 90 47 48
        e 20 90 40 48
        e 240 80 43 00
        e 0 80 47 00
        e 0 80 40 00
        E 186 90 41 48
        E 0 90 45 48
        E 0 90 48 48
        E 1920 80 41 00
        E 0 80 45 00
        E 0 80 48 00
        E 0 90 41 48
        E 0 90 45 48
        E 0 90 48 48
        E 260 80 41 00
        E 0 80 45 00
        E 0 80 48 00
        E 440 90 41 48
        E 0 90 45 48
        E 0 90 48 48
        E 260 80 41 00
        E 0 80 45 00
        E 0 80 48 00
        e 514 90 41 48
        e 0 90 45 48
        e 0 90 48 48
        e 260 80 41 00
        e 0 80 45 00
        e 0 80 48 00
        E 162 90 3e 48
        E 24 90 41 48
        E 0 90 45 48
        E 1896 90 3e 48
        E 24 80 3e 00
        E 0 80 41 00
        E 0 80 45 00
        E 0 90 41 48
        E 0 90 45 48
        E 260 80 3e 00
        E 0 80 41 00
        E 0 80 45 00
        E 416 90 3e 48
        E 24 90 41 48
        E 0 90 45 48
        E 260 80 3e 00
        E 0 80 41 00
        E 0 80 45 00
        e 490 90 3e 48
        e 24 90 41 48
        e 0 90 45 48
        e 260 80 3e 00
        e 0 80 41 00
        e 0 80 45 00
        E 186 b0 7b 00
        CHASE_CC_TAKEOFFS 1
        GUID {1DE38800-E2A1-41B5-9C8C-3291891093B1}
        IGNTEMPO 0 120 4 4
        SRCCOLOR 20
        VELLANE -1 100 0
        CFGEDITVIEW 0 0.045808 45 12 0 -1 0 0 0 0.5
        KEYSNAP 0
        TRACKSEL 0
        EVTFILTER 0 -1 -1 -1 -1 0 0 0 0 -1 -1 -1 -1 0 -1 0 -1 -1
        CFGEDIT 1 1 0 1 0 0 1 1 1 1 1 1 58 171 1253 866 0 0 0 0 0.25 0 0 0 0 0.5 0 0 1 64
      >
    >
    <ITEM
      POSITION 32
      SNAPOFFS 0
      LENGTH 8
      LOOP 1
      ALLTAKES 0
      FADEIN 1 0 0 1 0 0
      FADEOUT 1 0 0 1 0 0
      MUTE 0
      SEL 1
      IGUID {3A81E6A6-A316-3673-524E-0BD1E30F7BE8}
      IID 14
      NAME "01-Recorded MIDI"
      VOLPAN 1 0 1 -1
      SOFFS 0 0
      PLAYRATE 1 1 0 -1 0 0.0021
      CHANMODE 0
      GUID {60B2F477-775B-8A1B-6BF9-111259B5CD43}
      RECPASS 1
      <SOURCE MIDI
        HASDATA 1 960 QN
        CCINTERP 32
        POOLEDEVTS {740DFA82-E0C9-60F7-0CB2-4061F862F5CE}
        E 0 90 3c 48
        E 0 90 40 48
        E 0 90 43 48
        E 1920 80 3c 00
        E 0 80 40 00
        E 0 80 43 00
        E 0 90 3c 48
        E 0 90 40 48
        E 0 90 43 48
        E 260 80 3c 00
        E 0 80 40 00
        E 0 80 43 00
        E 440 90 3c 48
        E 0 90 40 48
        E 0 90 43 48
        E 260 80 3c 00
        E 0 80 40 00
        E 0 80 43 00
        e 514 90 3c 48
        e 0 90 40 48
        e 0 90 43 48
        e 260 80 3c 00
        e 0 80 40 00
        e 0 80 43 00
        E 186 90 43 48
        E 0 90 47 48
        E 20 90 40 48
        E 1900 80 43 00
        E 0 80 47 00
        E 0 80 40 00
        E 0 90 43 48
        E 0 90 47 48
        E 20 90 40 48
        E 240 80 43 00
        E 0 80 47 00
        E 0 80 40 00
        E 440 90 43 48
        E 0 90 47 48
        E 20 90 40 48
        E 240 80 43 00
        E 0 80 47 00
        E 0 80 40 00
        e 514 90 43 48
        e 0 90 47 48
        e 20 90 40 48
        e 240 80 43 00
        e 0 80 47 00
        e 0 80 40 00
        E 186 90 41 48
        E 0 90 45 48
        E 0 90 48 48
        E 1920 80 41 00
        E 0 80 45 00
        E 0 80 48 00
        E 0 90 41 48
        E 0 90 45 48
        E 0 90 48 48
        E 260 80 41 00
        E 0 80 45 00
        E 0 80 48 00
        E 440 90 41 48
        E 0 90 45 48
        E 0 90 48 48
        E 260 80 41 00
        E 0 80 45 00
        E 0 80 48 00
        e 514 90 41 48
        e 0 90 45 48
        e 0 90 48 48
        e 260 80 41 00
        e 0 80 45 00
        e 0 80 48 00
        E 162 90 3e 48
        E 24 90 41 48
        E 0 90 45 48
        E 1896 90 3e 48
        E 24 80 3e 00
        E 0 80 41 00
        E 0 80 45 00
        E 0 90 41 48
        E 0 90 45 48
        E 260 80 3e 00
        E 0 80 41 00
        E 0 80 45 00
        E 416 90 3e 48
        E 24 90 41 48
        E 0 90 45 48
        E 260 80 3e 00
        E 0 80 41 00
        E 0 80 45 00
        e 490 90 3e 48
        e 24 90 41 48
        e 0 90 45 48
        e 260 80 3e 00
        e 0 80 41 00
        e 0 80 45 00
        E 186 b0 7b 00
        CHASE_CC_TAKEOFFS 1
        GUID {0C3271F4-E233-9088-9B25-A722FAE7C579}
        IGNTEMPO 0 120 4 4
        SRCCOLOR 21
        VELLANE -1 100 0
        CFGEDITVIEW 0 0.045808 45 12 0 -1 0 0 0 0.5
        KEYSNAP 0
        TRACKSEL 0
        EVTFILTER 0 -1 -1 -1 -1 0 0 0 0 -1 -1 -1 -1 0 -1 0 -1 -1
        CFGEDIT 1 1 0 1 0 0 1 1 1 1 1 1 58 171 1253 866 0 0 0 0 0.25 0 0 0 0 0.5 0 0 1 64
      >
    >
    <ITEM
      POSITION 40
      SNAPOFFS 0
      LENGTH 8
      LOOP 1
      ALLTAKES 0
      FADEIN 1 0 0 1 0 0
      FADEOUT 1 0 0 1 0 0
      MUTE 0
      SEL 1
      IGUID {F94D4939-5B81-A586-B8B6-6092F2892841}
      IID 15
      NAME "01-Recorded MIDI"
      VOLPAN 1 0 1 -1
      SOFFS 0 0
      PLAYRATE 1 1 0 -1 0 0.0021
      CHANMODE 0
      GUID {21B36D86-0645-FF1D-60E4-190C52467EA5}
      RECPASS 1
      <SOURCE MIDI
        HASDATA 1 960 QN
        CCINTERP 32
        POOLEDEVTS {C0D4C951-DFE6-4C9F-706E-339EA4C8CE93}
        E 0 90 3c 48
        E 0 90 40 48
        E 0 90 43 48
        E 1920 80 3c 00
        E 0 80 40 00
        E 0 80 43 00
        E 0 90 3c 48
        E 0 90 40 48
        E 0 90 43 48
        E 260 80 3c 00
        E 0 80 40 00
        E 0 80 43 00
        E 440 90 3c 48
        E 0 90 40 48
        E 0 90 43 48
        E 260 80 3c 00
        E 0 80 40 00
        E 0 80 43 00
        e 514 90 3c 48
        e 0 90 40 48
        e 0 90 43 48
        e 260 80 3c 00
        e 0 80 40 00
        e 0 80 43 00
        E 186 90 43 48
        E 0 90 47 48
        E 20 90 40 48
        E 1900 80 43 00
        E 0 80 47 00
        E 0 80 40 00
        E 0 90 43 48
        E 0 90 47 48
        E 20 90 40 48
        E 240 80 43 00
        E 0 80 47 00
        E 0 80 40 00
        E 440 90 43 48
        E 0 90 47 48
        E 20 90 40 48
        E 240 80 43 00
        E 0 80 47 00
        E 0 80 40 00
        e 514 90 43 48
        e 0 90 47 48
        e 20 90 40 48
        e 240 80 43 00
        e 0 80 47 00
        e 0 80 40 00
        E 186 90 41 48
        E 0 90 45 48
        E 0 90 48 48
        E 1920 80 41 00
        E 0 80 45 00
        E 0 80 48 00
        E 0 90 41 48
        E 0 90 45 48
        E 0 90 48 48
        E 260 80 41 00
        E 0 80 45 00
        E 0 80 48 00
        E 440 90 41 48
        E 0 90 45 48
        E 0 90 48 48
        E 260 80 41 00
        E 0 80 45 00
        E 0 80 48 00
        e 514 90 41 48
        e 0 90 45 48
        e 0 90 48 48
        e 260 80 41 00
        e 0 80 45 00
        e 0 80 48 00
        E 162 90 3e 48
        E 24 90 41 48
        E 0 90 45 48
        E 1896 90 3e 48
        E 24 80 3e 00
        E 0 80 41 00
        E 0 80 45 00
        E 0 90 41 48
        E 0 90 45 48
        E 260 80 3e 00
        E 0 80 41 00
        E 0 80 45 00
        E 416 90 3e 48
        E 24 90 41 48
        E 0 90 45 48
        E 260 80 3e 00
        E 0 80 41 00
        E 0 80 45 00
        e 490 90 3e 48
        e 24 90 41 48
        e 0 90 45 48
        e 260 80 3e 00
        e 0 80 41 00
        e 0 80 45 00
        E 186 b0 7b 00
        CHASE_CC_TAKEOFFS 1
        GUID {040E7AF8-3572-5D91-3C86-797AEE7444D4}
        IGNTEMPO 0 120 4 4
        SRCCOLOR 22
        VELLANE -1 100 0
        CFGEDITVIEW 0 0.045808 45 12 0 -1 0 0 0 0.5
        KEYSNAP 0
        TRACKSEL 0
        EVTFILTER 0 -1 -1 -1 -1 0 0 0 0 -1 -1 -1 -1 0 -1 0 -1 -1
        CFGEDIT 1 1 0 1 0 0 1 1 1 1 1 1 58 171 1253 866 0 0 0 0 0.25 0 0 0 0 0.5 0 0 1 64
      >
    >
    <ITEM
      POSITION 48
      SNAPOFFS 0
      LENGTH 8
      LOOP 1
      ALLTAKES 0
      FADEIN 1 0 0 1 0 0
      FADEOUT 1 0 0 1 0 0
      MUTE 0
      SEL 1
      IGUID {9DFB5745-37DB-E35D-5F48-0747F6C2E400}
      IID 16
      NAME "01-Recorded MIDI"
      VOLPAN 1 0 1 -1
      SOFFS 0 0
      PLAYRATE 1 1 0 -1 0 0.0021
      CHANMODE 0
      GUID {0B86BD01-0F42-B4F1-B1C1-1E3D55FBF36D}
      RECPASS 1
      <SOURCE MIDI
        HASDATA 1 960 QN
        CCINTERP 32
        POOLEDEVTS {FEAA2080-124A-DB77-8EE6-A3DF12F12615}
        E 0 90 3c 48
        E 0 90 40 48
        E 0 90 43 48
        E 1920 80 3c 00
        E 0 80 40 00
        E 0 80 43 00
        E 0 90 3c 48
        E 0 90 40 48
        E 0 90 43 48
        E 260 80 3c 00
        E 0 80 40 00
        E 0 80 43 00
        E 440 90 3c 48
        E 0 90 40 48
        E 0 90 43 48
        E 260 80 3c 00
        E 0 80 40 00
        E 0 80 43 00
        e 514 90 3c 48
        e 0 90 40 48
        e 0 90 43 48
        e 260 80 3c 00
        e 0 80 40 00
        e 0 80 43 00
        E 186 90 43 48
        E 0 90 47 48
        E 20 90 40 48
        E 1900 80 43 00
        E 0 80 47 00
        E 0 80 40 00
        E 0 90 43 48
        E 0 90 47 48
        E 20 90 40 48
        E 240 80 43 00
        E 0 80 47 00
        E 0 80 40 00
        E 440 90 43 48
        E 0 90 47 48
        E 20 90 40 48
        E 240 80 43 00
        E 0 80 47 00
        E 0 80 40 00
        e 514 90 43 48
        e 0 90 47 48
        e 20 90 40 48
        e 240 80 43 00
        e 0 80 47 00
        e 0 80 40 00
        E 186 90 41 48
        E 0 90 45 48
        E 0 90 48 48
        E 1920 80 41 00
        E 0 80 45 00
        E 0 80 48 00
        E 0 90 41 48
        E 0 90 45 48
        E 0 90 48 48
        E 260 80 41 00
        E 0 80 45 00
        E 0 80 48 00
        E 440 90 41 48
        E 0 90 45 48
        E 0 90 48 48
        E 260 80 41 00
        E 0 80 45 00
        E 0 80 48 00
        e 514 90 41 48
        e 0 90 45 48
        e 0 90 48 48
        e 260 80 41 00
        e 0 80 45 00
        e 0 80 48 00
        E 162 90 3e 48
        E 24 90 41 48
        E 0 90 45 48
        E 1896 90 3e 48
        E 24 80 3e 00
        E 0 80 41 00
        E 0 80 45 00
        E 0 90 41 48
        E 0 90 45 48
        E 260 80 3e 00
        E 0 80 41 00
        E 0 80 45 00
        E 416 90 3e 48
        E 24 90 41 48
        E 0 90 45 48
        E 260 80 3e 00
        E 0 80 41 00
        E 0 80 45 00
        e 490 90 3e 48
        e 24 90 41 48
        e 0 90 45 48
        e 260 80 3e 00
        e 0 80 41 00
        e 0 80 45 00
        E 186 b0 7b 00
        CHASE_CC_TAKEOFFS 1
        GUID {2338968B-6CF9-9F40-300F-DEB89D3392EA}
        IGNTEMPO 0 120 4 4
        SRCCOLOR 23
        VELLANE -1 100 0
        CFGEDITVIEW 0 0.045808 45 12 0 -1 0 0 0 0.5
        KEYSNAP 0
        TRACKSEL 0
        EVTFILTER 0 -1 -1 -1 -1 0 0 0 0 -1 -1 -1 -1 0 -1 0 -1 -1
        CFGEDIT 1 1 0 1 0 0 1 1 1 1 1 1 58 171 1253 866 0 0 0 0 0.25 0 0 0 0 0.5 0 0 1 64
      >
    >
    <ITEM
      POSITION 56
      SNAPOFFS 0
      LENGTH 8
      LOOP 1
      ALLTAKES 0
      FADEIN 1 0 0 1 0 0
      FADEOUT 1 0 0 1 0 0
      MUTE 0
      SEL 1
      IGUID {90118694-23E5-89B4-230A-36EA93D68EBC}
      IID 17
      NAME "01-Recorded MIDI"
      VOLPAN 1 0 1 -1
      SOFFS 0 0
      PLAYRATE 1 1 0 -1 0 0.0021
      CHANMODE 0
      GUID {80D80735-10EF-9639-8E4F-149FE363E7DB}
      RECPASS 1
      <SOURCE MIDI
        HASDATA 1 960 QN
        CCINTERP 32
        POOLEDEVTS {AD5BA412-DB1C-5E6F-F869-C57A0D399CDE}
        E 0 90 3c 48
        E 0 90 40 48
        E 0 90 43 48
        E 1920 80 3c 00
        E 0 80 40 00
        E 0 80 43 00
        E 0 90 3c 48
        E 0 90 40 48
        E 0 90 43 48
        E 260 80 3c 00
        E 0 80 40 00
        E 0 80 43 00
        E 440 90 3c 48
        E 0 90 40 48
        E 0 90 43 48
        E 260 80 3c 00
        E 0 80 40 00
        E 0 80 43 00
        e 514 90 3c 48
        e 0 90 40 48
        e 0 90 43 48
        e 260 80 3c 00
        e 0 80 40 00
        e 0 80 43 00
        E 186 90 43 48
        E 0 90 47 48
        E 20 90 40 48
        E 1900 80 43 00
        E 0 80 47 00
        E 0 80 40 00
        E 0 90 43 48
        E 0 90 47 48
        E 20 90 40 48
        E 240 80 43 00
        E 0 80 47 00
        E 0 80 40 00
        E 440 90 43 48
        E 0 90 47 48
        E 20 90 40 48
        E 240 80 43 00
        E 0 80 47 00
        E 0 80 40 00
        e 514 90 43 48
        e 0 90 47 48
        e 20 90 40 48
        e 240 80 43 00
        e 0 80 47 00
        e 0 80 40 00
        E 186 90 41 48
        E 0 90 45 48
        E 0 90 48 48
        E 1920 80 41 00
        E 0 80 45 00
        E 0 80 48 00
        E 0 90 41 48
        E 0 90 45 48
        E 0 90 48 48
        E 260 80 41 00
        E 0 80 45 00
        E 0 80 48 00
        E 440 90 41 48
        E 0 90 45 48
        E 0 90 48 48
        E 260 80 41 00
        E 0 80 45 00
        E 0 80 48 00
        e 514 90 41 48
        e 0 90 45 48
        e 0 90 48 48
        e 260 80 41 00
        e 0 80 45 00
        e 0 80 48 00
        E 162 90 3e 48
        E 24 90 41 48
        E 0 90 45 48
        E 1896 90 3e 48
        E 24 80 3e 00
        E 0 80 41 00
        E 0 80 45 00
        E 0 90 41 48
        E 0 90 45 48
        E 260 80 3e 00
        E 0 80 41 00
        E 0 80 45 00
        E 416 90 3e 48
        E 24 90 41 48
        E 0 90 45 48
        E 260 80 3e 00
        E 0 80 41 00
        E 0 80 45 00
        e 490 90 3e 48
        e 24 90 41 48
        e 0 90 45 48
        e 260 80 3e 00
        e 0 80 41 00
        e 0 80 45 00
        E 186 b0 7b 00
        CHASE_CC_TAKEOFFS 1
        GUID {A64857E2-94F8-0990-20DF-4C1E9B5E6251}
        IGNTEMPO 0 120 4 4
        SRCCOLOR 24
        VELLANE -1 100 0
        CFGEDITVIEW 0 0.045808 45 12 0 -1 0 0 0 0.5
        KEYSNAP 0
        TRACKSEL 0
        EVTFILTER 0 -1 -1 -1 -1 0 0 0 0 -1 -1 -1 -1 0 -1 0 -1 -1
        CFGEDIT 1 1 0 1 0 0 1 1 1 1 1 1 58 171 1253 866 0 0 0 0 0.25 0 0 0 0 0.5 0 0 1 64
      >
    >
    <ITEM
      POSITION 64
      SNAPOFFS 0
      LENGTH 8
      LOOP 1
      ALLTAKES 0
      FADEIN 1 0 0 1 0 0
      FADEOUT 1 0 0 1 0 0
      MUTE 0
      SEL 1
      IGUID {B8752184-36AC-1256-397E-5B7D3480BDA1}
      IID 18
      NAME "01-Recorded MIDI"
      VOLPAN 1 0 1 -1
      SOFFS 0 0
      PLAYRATE 1 1 0 -1 0 0.0021
      CHANMODE 0
      GUID {569901E2-40AB-33D6-D651-F922C4F3352C}
      RECPASS 1
      <SOURCE MIDI
        HASDATA 1 960 QN
        CCINTERP 32
        POOLEDEVTS {F47318B5-3A76-1E39-7408-149A29E8EABC}
        E 0 90 3c 48
        E 0 90 40 48
        E 0 90 43 48
        E 1920 80 3c 00
        E 0 80 40 00
        E 0 80 43 00
        E 0 90 3c 48
        E 0 90 40 48
        E 0 90 43 48
        E 260 80 3c 00
        E 0 80 40 00
        E 0 80 43 00
        E 440 90 3c 48
        E 0 90 40 48
        E 0 90 43 48
        E 260 80 3c 00
        E 0 80 40 00
        E 0 80 43 00
        e 514 90 3c 48
        e 0 90 40 48
        e 0 90 43 48
        e 260 80 3c 00
        e 0 80 40 00
        e 0 80 43 00
        E 186 90 43 48
        E 0 90 47 48
        E 20 90 40 48
        E 1900 80 43 00
        E 0 80 47 00
        E 0 80 40 00
        E 0 90 43 48
        E 0 90 47 48
        E 20 90 40 48
        E 240 80 43 00
        E 0 80 47 00
        E 0 80 40 00
        E 440 90 43 48
        E 0 90 47 48
        E 20 90 40 48
        E 240 80 43 00
        E 0 80 47 00
        E 0 80 40 00
        e 514 90 43 48
        e 0 90 47 48
        e 20 90 40 48
        e 240 80 43 00
        e 0 80 47 00
        e 0 80 40 00
        E 186 90 41 48
        E 0 90 45 48
        E 0 90 48 48
        E 1920 80 41 00
        E 0 80 45 00
        E 0 80 48 00
        E 0 90 41 48
        E 0 90 45 48
        E 0 90 48 48
        E 260 80 41 00
        E 0 80 45 00
        E 0 80 48 00
        E 440 90 41 48
        E 0 90 45 48
        E 0 90 48 48
        E 260 80 41 00
        E 0 80 45 00
        E 0 80 48 00
        e 514 90 41 48
        e 0 90 45 48
        e 0 90 48 48
        e 260 80 41 00
        e 0 80 45 00
        e 0 80 48 00
        E 162 90 3e 48
        E 24 90 41 48
        E 0 90 45 48
        E 1896 90 3e 48
        E 24 80 3e 00
        E 0 80 41 00
        E 0 80 45 00
        E 0 90 41 48
        E 0 90 45 48
        E 260 80 3e 00
        E 0 80 41 00
        E 0 80 45 00
        E 416 90 3e 48
        E 24 90 41 48
        E 0 90 45 48
        E 260 80 3e 00
        E 0 80 41 00
        E 0 80 45 00
        e 490 90 3e 48
        e 24 90 41 48
        e 0 90 45 48
        e 260 80 3e 00
        e 0 80 41 00
        e 0 80 45 00
        E 186 b0 7b 00
        CHASE_CC_TAKEOFFS 1
        GUID {19362806-85F2-5D9E-E1F9-07BE0CF3D16E}
        IGNTEMPO 0 120 4 4
        SRCCOLOR 25
        VELLANE -1 100 0
        CFGEDITVIEW 0 0.045808 45 12 0 -1 0 0 0 0.5
        KEYSNAP 0
        TRACKSEL 0
        EVTFILTER 0 -1 -1 -1 -1 0 0 0 0 -1 -1 -1 -1 0 -1 0 -1 -1
        CFGEDIT 1 1 0 1 0 0 1 1 1 1 1 1 58 171 1253 866 0 0 0 0 0.25 0 0 0 0 0.5 0 0 1 64
      >
    >
    <ITEM
      POSITION 72
      SNAPOFFS 0
      LENGTH 8
      LOOP 1
      ALLTAKES 0
      FADEIN 1 0 0 1 0 0
      FADEOUT 1 0 0 1 0 0
      MUTE 0
      SEL 1
      IGUID {F11CFA4F-5A57-56B7-621B-F7CEED019DE1}
      IID 19
      NAME "01-Recorded MIDI"
      VOLPAN 1 0 1 -1
      SOFFS 0 0
      PLAYRATE 1 1 0 -1 0 0.0021
      CHANMODE 0
      GUID {0B340B06-EB26-47D6-F380-B341A72E7A9A}
      RECPASS 1
      <SOURCE MIDI
        HASDATA 1 960 QN
        CCINTERP 32
        POOLEDEVTS {A117FFB4-AE09-C092-F46F-7E50169C1C34}
        E 0 90 3c 48
        E 0 90 40 48
        E 0 90 43 48
        E 1920 80 3c 00
        E 0 80 40 00
        E 0 80 43 00
        E 0 90 3c 48
        E 0 90 40 48
        E 0 90 43 48
        E 260 80 3c 00
        E 0 80 40 00
        E 0 80 43 00
        E 440 90 3c 48
        E 0 90 40 48
        E 0 90 43 48
        E 260 80 3c 00
        E 0 80 40 00
        E 0 80 43 00
        e 514 90 3c 48
        e 0 90 40 48
        e 0 90 43 48
        e 260 80 3c 00
        e 0 80 40 00
        e 0 80 43 00
        E 186 90 43 48
        E 0 90 47 48
        E 20 90 40 48
        E 1900 80 43 00
        E 0 80 47 00
        E 0 80 40 00
        E 0 90 43 48
        E 0 90 47 48
        E 20 90 40 48
        E 240 80 43 00
        E 0 80 47 00
        E 0 80 40 00
        E 440 90 43 48
        E 0 90 47 48
        E 20 90 40 48
        E 240 80 43 00
        E 0 80 47 00
        E 0 80 40 00
        e 514 90 43 48
        e 0 90 47 48
        e 20 90 40 48
        e 240 80 43 00
        e 0 80 47 00
        e 0 80 40 00
        E 186 90 41 48
        E 0 90 45 48
        E 0 90 48 48
        E 1920 80 41 00
        E 0 80 45 00
        E 0 80 48 00
        E 0 90 41 48
        E 0 90 45 48
        E 0 90 48 48
        E 260 80 41 00
        E 0 80 45 00
        E 0 80 48 00
        E 440 90 41 48
        E 0 90 45 48
        E 0 90 48 48
        E 260 80 41 00
        E 0 80 45 00
        E 0 80 48 00
        e 514 90 41 48
        e 0 90 45 48
        e 0 90 48 48
        e 260 80 41 00
        e 0 80 45 00
        e 0 80 48 00
        E 162 90 3e 48
        E 24 90 41 48
        E 0 90 45 48
        E 1896 90 3e 48
        E 24 80 3e 00
        E 0 80 41 00
        E 0 80 45 00
        E 0 90 41 48
        E 0 90 45 48
        E 260 80 3e 00
        E 0 80 41 00
        E 0 80 45 00
        E 416 90 3e 48
        E 24 90 41 48
        E 0 90 45 48
        E 260 80 3e 00
        E 0 80 41 00
        E 0 80 45 00
        e 490 90 3e 48
        e 24 90 41 48
        e 0 90 45 48
        e 260 80 3e 00
        e 0 80 41 00
        e 0 80 45 00
        E 186 b0 7b 00
        CHASE_CC_TAKEOFFS 1
        GUID {6844F8A9-6BE9-023C-4A46-0A676470C99B}
        IGNTEMPO 0 120 4 4
        SRCCOLOR 26
        VELLANE -1 100 0
        CFGEDITVIEW 0 0.045808 45 12 0 -1 0 0 0 0.5
        KEYSNAP 0
        TRACKSEL 0
        EVTFILTER 0 -1 -1 -1 -1 0 0 0 0 -1 -1 -1 -1 0 -1 0 -1 -1
        CFGEDIT 1 1 0 1 0 0 1 1 1 1 1 1 58 171 1253 866 0 0 0 0 0.25 0 0 0 0 0.5 0 0 1 64
      >
    >
    <ITEM
      POSITION 80
      SNAPOFFS 0
      LENGTH 8
      LOOP 1
      ALLTAKES 0
      FADEIN 1 0 0 1 0 0
      FADEOUT 1 0 0 1 0 0
      MUTE 0
      SEL 1
      IGUID {92A973F6-DEA7-EC05-4BD4-980655D98F1B}
      IID 20
      NAME "01-Recorded MIDI"
      VOLPAN 1 0 1 -1
      SOFFS 0 0
      PLAYRATE 1 1 0 -1 0 0.0021
      CHANMODE 0
      GUID {CEFFE897-14A3-C1D9-49CD-6D75EDBAF040}
      RECPASS 1
      <SOURCE MIDI
        HASDATA 1 960 QN
        CCINTERP 32
        POOLEDEVTS {3BA2F3DE-08DA-3FE2-756A-19675E0D2FA4}
        E 0 90 3c 48
        E 0 90 40 48
        E 0 90 43 48
        E 1920 80 3c 00
        E 0 80 40 00
        E 0 80 43 00
        E 0 90 3c 48
        E 0 90 40 48
        E 0 90 43 48
        E 260 80 3c 00
        E 0 80 40 00
        E 0 80 43 00
        E 440 90 3c 48
        E 0 90 40 48
        E 0 90 43 48
        E 260 80 3c 00
        E 0 80 40 00
        E 0 80 43 00
        e 514 90 3c 48
        e 0 90 40 48
        e 0 90 43 48
        e 260 80 3c 00
        e 0 80 40 00
        e 0 80 43 00
        E 186 90 43 48
        E 0 90 47 48
        E 20 90 40 48
        E 1900 80 43 00
        E 0 80 47 00
        E 0 80 40 00
        E 0 90 43 48
        E 0 90 47 48
        E 20 90 40 48
        E 240 80 43 00
        E 0 80 47 00
        E 0 80 40 00
        E 440 90 43 48
        E 0 90 47 48
        E 20 90 40 48
        E 240 80 43 00
        E 0 80 47 00
        E 0 80 40 00
        e 514 90 43 48
        e 0 90 47 48
        e 20 90 40 48
        e 240 80 43 00
        e 0 80 47 00
        e 0 80 40 00
        E 186 90 41 48
        E 0 90 45 48
        E 0 90 48 48
        E 1920 80 41 00
        E 0 80 45 00
        E 0 80 48 00
        E 0 90 41 48
        E 0 90 45 48
        E 0 90 48 48
        E 260 80 41 00
        E 0 80 45 00
        E 0 80 48 00
        E 440 90 41 48
        E 0 90 45 48
        E 0 90 48 48
        E 260 80 41 00
        E 0 80 45 00
        E 0 80 48 00
        e 514 90 41 48
        e 0 90 45 48
        e 0 90 48 48
        e 260 80 41 00
        e 0 80 45 00
        e 0 80 48 00
        E 162 90 3e 48
        E 24 90 41 48
        E 0 90 45 48
        E 1896 90 3e 48
        E 24 80 3e 00
        E 0 80 41 00
        E 0 80 45 00
        E 0 90 41 48
        E 0 90 45 48
        E 260 80 3e 00
        E 0 80 41 00
        E 0 80 45 00
        E 416 90 3e 48
        E 24 90 41 48
        E 0 90 45 48
        E 260 80 3e 00
        E 0 80 41 00
        E 0 80 45 00
        e 490 90 3e 48
        e 24 90 41 48
        e 0 90 45 48
        e 260 80 3e 00
        e 0 80 41 00
        e 0 80 45 00
        E 186 b0 7b 00
        CHASE_CC_TAKEOFFS 1
        GUID {E611ADB6-4869-6CCA-8E83-3954D5E743B1}
        IGNTEMPO 0 120 4 4
        SRCCOLOR 27
        VELLANE -1 100 0
        CFGEDITVIEW 0 0.045808 45 12 0 -1 0 0 0 0.5
        KEYSNAP 0
        TRACKSEL 0
        EVTFILTER 0 -1 -1 -1 -1 0 0 0 0 -1 -1 -1 -1 0 -1 0 -1 -1
        CFGEDIT 1 1 0 1 0 0 1 1 1 1 1 1 58 171 1253 866 0 0 0 0 0.25 0 0 0 0 0.5 0 0 1 64
      >
    >
    <ITEM
      POSITION 88
      SNAPOFFS 0
      LENGTH 8
      LOOP 1
      ALLTAKES 0
      FADEIN 1 0 0 1 0 0
      FADEOUT 1 0 0 1 0 0
      MUTE 0
      SEL 1
      IGUID {E3018C83-90CE-9DEF-A1AB-F3745CA394EA}
      IID 21
      NAME "01-Recorded MIDI"
      VOLPAN 1 0 1 -1
      SOFFS 0 0
      PLAYRATE 1 1 0 -1 0 0.0021
      CHANMODE 0
      GUID {F3F15D15-62D8-CBE2-C648-29AC728E0829}
      RECPASS 1
      <SOURCE MIDI
        HASDATA 1 960 QN
        CCINTERP 32
        POOLEDEVTS {1E69FC08-A1B1-122D-A742-F3421B246D92}
        E 0 90 3c 48
        E 0 90 40 48
        E 0 90 43 48
        E 1920 80 3c 00
        E 0 80 40 00
        E 0 80 43 00
        E 0 90 3c 48
        E 0 90 40 48
        E 0 90 43 48
        E 260 80 3c 00
        E 0 80 40 00
        E 0 80 43 00
        E 440 90 3c 48
        E 0 90 40 48
        E 0 90 43 48
        E 260 80 3c 00
        E 0 80 40 00
        E 0 80 43 00
        e 514 90 3c 48
        e 0 90 40 48
        e 0 90 43 48
        e 260 80 3c 00
        e 0 80 40 00
        e 0 80 43 00
        E 186 90 43 48
        E 0 90 47 48
        E 20 90 40 48
        E 1900 80 43 00
        E 0 80 47 00
        E 0 80 40 00
        E 0 90 43 48
        E 0 90 47 48
        E 20 90 40 48
        E 240 80 43 00
        E 0 80 47 00
        E 0 80 40 00
        E 440 90 43 48
        E 0 90 47 48
        E 20 90 40 48
        E 240 80 43 00
        E 0 80 47 00
        E 0 80 40 00
        e 514 90 43 48
        e 0 90 47 48
        e 20 90 40 48
        e 240 80 43 00
        e 0 80 47 00
        e 0 80 40 00
        E 186 90 41 48
        E 0 90 45 48
        E 0 90 48 48
        E 1920 80 41 00
        E 0 80 45 00
        E 0 80 48 00
        E 0 90 41 48
        E 0 90 45 48
        E 0 90 48 48
        E 260 80 41 00
        E 0 80 45 00
        E 0 80 48 00
        E 440 90 41 48
        E 0 90 45 48
        E 0 90 48 48
        E 260 80 41 00
        E 0 80 45 00
        E 0 80 48 00
        e 514 90 41 48
        e 0 90 45 48
        e 0 90 48 48
        e 260 80 41 00
        e 0 80 45 00
        e 0 80 48 00
        E 162 90 3e 48
        E 24 90 41 48
        E 0 90 45 48
        E 1896 90 3e 48
        E 24 80 3e 00
        E 0 80 41 00
        E 0 80 45 00
        E 0 90 41 48
        E 0 90 45 48
        E 260 80 3e 00
        E 0 80 41 00
        E 0 80 45 00
        E 416 90 3e 48
        E 24 90 41 48
        E 0 90 45 48
        E 260 80 3e 00
        E 0 80 41 00
        E 0 80 45 00
        e 490 90 3e 48
        e 24 90 41 48
        e 0 90 45 48
        e 260 80 3e 00
        e 0 80 41 00
        e 0 80 45 00
        E 186 b0 7b 00
        CHASE_CC_TAKEOFFS 1
        GUID {C762B555-17FC-D765-5340-11D3487D2955}
        IGNTEMPO 0 120 4 4
        SRCCOLOR 28
        VELLANE -1 100 0
        CFGEDITVIEW 0 0.045808 45 12 0 -1 0 0 0 0.5
        KEYSNAP 0
        TRACKSEL 0
        EVTFILTER 0 -1 -1 -1 -1 0 0 0 0 -1 -1 -1 -1 0 -1 0 -1 -1
        CFGEDIT 1 1 0 1 0 0 1 1 1 1 1 1 58 171 1253 866 0 0 0 0 0.25 0 0 0 0 0.5 0 0 1 64
      >
    >
  >
  <TRACK {DD1C7975-040C-1CD6-D926-0F838E001798}
    NAME ""
    PEAKCOL 16576
    BEAT -1
    AUTOMODE 0
    VOLPAN 0.00052194381917 0 -1 -1 1
    MUTESOLO 0 0 0
    IPHASE 0
    PLAYOFFS 0 1
    ISBUS 0 0
    BUSCOMP 0 0 0 0 0
    SHOWINMIX 1 0.6667 0.5 1 0.5 0 0 0
    FREEMODE 0
    SEL 0
    REC 0 5056 1 0 0 0 0
    VU 2
    TRACKHEIGHT 21 0 0
    INQ 0 0 0 0.5 100 0 0 100
    NCHAN 2
    FX 0
    TRACKID {DD1C7975-040C-1CD6-D926-0F838E001798}
    PERF 0
    MIDIOUT -1
    MAINSEND 1 0
    <FXCHAIN
      WNDRECT 346 266 902 608
      SHOW 0
      LASTSEL 5
      DOCKED 0
      BYPASS 0 0 0
      <VST "VST: ReaEQ (Cockos)" reaeq.vst.so 0 "" 1919247729<56535472656571726561657100000000> ""
        cWVlcu5e7f4CAAAAAQAAAAAAAAACAAAAAAAAAAIAAAABAAAAAAAAAAIAAAAAAAAAqAAAAAEAAAAAABAA
        IQAAAAQAAAAEAAAAAQAAAEC4Xhmm+DRAAAAAAAAA8D8AAAAAAAAAQAEIAAAAAQAAAAAAAAAAwHJAAAAAAAAA8D8AAAAAAAAAQAEIAAAAAQAAAAAAAAAAQI9AAAAAAAAA
        8D8AAAAAAAAAQAEDAAAAAQAAAAABaCorbdRAAAAAAAAA8D8AAAAAAAAAQAEBAAAAAQAAAAAAAAAAAPA/AAAAAJoCAACcAQAA
        AEhpZ2ggbG93IHBhc3MAEAAAAA==
      >
      PRESETNAME "High low pass"
      FLOATPOS 0 0 0 0
      FXID {E63D219D-F390-5B32-0A3B-FE715F3455A3}
      WAK 0 0
      BYPASS 0 0 0
      <VST "VSTi: ReaSynth (Cockos)" reasynth.vst.so 0 "" 1919251321<5653547265737972656173796E746800> ""
        eXNlcu9e7f4AAAAAAgAAAAEAAAAAAAAAAgAAAAAAAAA8AAAAAAAAAAAAEAA=
        776t3g3wrd6lm8Q7F7fROgAAAAAAAAAAAAAAAJCNuT3oZ4g9AACAPwAAAD8AAIA/AAAAAAAAAD8AAAAA
        AAAQAAAA
      >
      FLOATPOS 0 0 0 0
      FXID {EC75C244-3934-D1E8-891B-29781CE5B84C}
      WAK 0 0
      BYPASS 0 0 0
      <JS guitar/amp-model ""
        "Dumble Overdrive Special - Tweed Deluxe.wav" -21.000000 1.000000 0.000000 73.000000 256.000000 - - - - - - - - - - - - - - - - - - - - - - - - - - - - - - - - - - - - - - - - - - - - - - - - - - - - - - - - - - 
      >
      FLOATPOS 0 0 0 0
      FXID {B78721D3-C033-3195-CB51-2429F29D8F70}
      WAK 0 0
      BYPASS 0 0 0
      <VST "VST: ReaComp (Cockos)" reacomp.vst.so 0 "" 1919247213<5653547265636D726561636F6D700000> ""
        bWNlcu9e7f4EAAAAAQAAAAAAAAACAAAAAAAAAAQAAAAAAAAACAAAAAAAAAACAAAAAQAAAAAAAAACAAAAAAAAAFQAAAAAAAAAAAAQAA==
        776t3g3wrd5FoYg9/AWpPKWbxDsK16M8AAAAAAAAAAAAAIA/AAAAAAAAAAAAAAAAnNEHMwAAgD8AAAAAzMxMPQAAAAAAAAAAAAAAAAAAgD7YiZ09
        AAAQAAAA
      >
      FLOATPOS 0 0 0 0
      FXID {665FDF4B-F56F-4A5C-2AB6-A46ED1AF1DCE}
      WAK 0 0
      BYPASS 0 0 0
      <VST "VST: ReaDelay (Cockos)" readelay.vst.so 0 "" 1919247468<5653547265646C72656164656C617900> ""
        bGRlcu5e7f4CAAAAAQAAAAAAAAACAAAAAAAAAAIAAAABAAAAAAAAAAIAAAAAAAAA/AAAAAEAAAAAAAAA
        AAAAAAAAAAAFAAAALAAAAAIAAAAEAAAAAACAPwAAgD8AAAAAAACAPwAAAAAAAIA7vTeGNQAAgD8AAAAAAACAPwAAgD8AAIA/AAAAAAAAAAAAAIA/AAAAAAAAADwAAAAA
        AACAPwAAAAAAAIA/AACAP+87NT8AAIA/AAAAAAAAgD8AAAAAAABAPL03hjUAAIA/AAAAAAAAgD8AAIA/zk0AP6abhD4AAAAAAACAPwAAAAAAAIA8vTeGNQAAgD8AAAAA
        AACAPwAAgD8aqrU+pHA9PwAAAAAAAIA/AAAAAAAAoDy9N4Y1AACAPwAAAAAAAIA/AACAP/npAD4AAAA/
        AHN0b2NrIC0gYmFzaWMgNSB0YXAgcGluZyBwb25nAAAAAAA=
      >
      PRESETNAME "stock - basic 5 tap ping pong"
      FLOATPOS 0 0 0 0
      FXID {0DDEDB64-DF8B-ADAB-5D0B-1597F63EC8F9}
      WAK 0 0
      BYPASS 0 0 0
      <VST "VST: ReaVerb (Cockos)" reaverb.vst.so 0 "" 1919252066<56535472657662726561766572620000> ""
        YnZlcu5e7f4CAAAAAQAAAAAAAAACAAAAAAAAAAIAAAABAAAAAAAAAAIAAAAAAAAAcAAAAAEAAAAAAAAA
        AAAAwcybgD4AAIA/AAAAAAAAgD8AAIA/AAAAPwAAgD8AAAAAVkVSQkdFTgAYAAAAAAAAAJHgV0QdrLRA3rK7QsHIjEIAAIC/RUNIT0dFTgAcAAAAy/i2QLUjdUJdzdM/
        osdfP5lRrzyRzYxAnMQAPw==
        AHN3ZWV0dmVyYm8AAAAAAA==
      >
      PRESETNAME sweetverbo
      FLOATPOS 0 0 0 0
      FXID {D93485BB-08D2-5B9D-890A-E046333287D4}
      WAK 0 0
    >
    <ITEM
      POSITION 0
      SNAPOFFS 0
      LENGTH 8
      LOOP 1
      ALLTAKES 0
      FADEIN 1 0 0 1 0 0
      FADEOUT 1 0 0 1 0 0
      MUTE 0
      SEL 1
      IGUID {0863AAE6-2EA4-E00F-60CC-AD159C4EFAC4}
      IID 10
      NAME "01-Recorded MIDI"
      VOLPAN 1 0 1 -1
      SOFFS 0 0
      PLAYRATE 1 1 0 -1 0 0.0021
      CHANMODE 0
      GUID {A39D142A-C92C-3A30-7A45-E9B411BF0E3B}
      RECPASS 1
      <SOURCE MIDI
        HASDATA 1 960 QN
        CCINTERP 32
        POOLEDEVTS {4121348B-8AA6-2064-1E09-17930E0EDBE1}
        E 0 90 3c 48
        E 0 90 40 48
        E 0 90 43 48
        E 1920 80 3c 00
        E 0 80 40 00
        E 0 80 43 00
        E 0 90 3c 48
        E 0 90 40 48
        E 0 90 43 48
        E 260 80 3c 00
        E 0 80 40 00
        E 0 80 43 00
        E 440 90 3c 48
        E 0 90 40 48
        E 0 90 43 48
        E 260 80 3c 00
        E 0 80 40 00
        E 0 80 43 00
        e 514 90 3c 48
        e 0 90 40 48
        e 0 90 43 48
        e 260 80 3c 00
        e 0 80 40 00
        e 0 80 43 00
        E 186 90 43 48
        E 0 90 47 48
        E 20 90 40 48
        E 1900 80 43 00
        E 0 80 47 00
        E 0 80 40 00
        E 0 90 43 48
        E 0 90 47 48
        E 20 90 40 48
        E 240 80 43 00
        E 0 80 47 00
        E 0 80 40 00
        E 440 90 43 48
        E 0 90 47 48
        E 20 90 40 48
        E 240 80 43 00
        E 0 80 47 00
        E 0 80 40 00
        e 514 90 43 48
        e 0 90 47 48
        e 20 90 40 48
        e 240 80 43 00
        e 0 80 47 00
        e 0 80 40 00
        E 186 90 41 48
        E 0 90 45 48
        E 0 90 48 48
        E 1920 80 41 00
        E 0 80 45 00
        E 0 80 48 00
        E 0 90 41 48
        E 0 90 45 48
        E 0 90 48 48
        E 260 80 41 00
        E 0 80 45 00
        E 0 80 48 00
        E 440 90 41 48
        E 0 90 45 48
        E 0 90 48 48
        E 260 80 41 00
        E 0 80 45 00
        E 0 80 48 00
        e 514 90 41 48
        e 0 90 45 48
        e 0 90 48 48
        e 260 80 41 00
        e 0 80 45 00
        e 0 80 48 00
        E 162 90 3e 48
        E 24 90 41 48
        E 0 90 45 48
        E 1896 90 3e 48
        E 24 80 3e 00
        E 0 80 41 00
        E 0 80 45 00
        E 0 90 41 48
        E 0 90 45 48
        E 260 80 3e 00
        E 0 80 41 00
        E 0 80 45 00
        E 416 90 3e 48
        E 24 90 41 48
        E 0 90 45 48
        E 260 80 3e 00
        E 0 80 41 00
        E 0 80 45 00
        e 490 90 3e 48
        e 24 90 41 48
        e 0 90 45 48
        e 260 80 3e 00
        e 0 80 41 00
        e 0 80 45 00
        E 186 b0 7b 00
        CHASE_CC_TAKEOFFS 1
        GUID {7B9D708B-43E1-C8D4-C4B3-87E2A6C27801}
        IGNTEMPO 0 120 4 4
        SRCCOLOR 17
        VELLANE -1 100 0
        CFGEDITVIEW 0 0.045808 45 12 0 -1 0 0 0 0.5
        KEYSNAP 0
        TRACKSEL 0
        EVTFILTER 0 -1 -1 -1 -1 0 0 0 0 -1 -1 -1 -1 0 -1 0 -1 -1
        CFGEDIT 1 1 0 1 0 0 1 1 1 1 1 1 58 171 1253 866 0 0 0 0 0.25 0 0 0 0 0.5 0 0 1 64
      >
    >
    <ITEM
      POSITION 8
      SNAPOFFS 0
      LENGTH 8
      LOOP 1
      ALLTAKES 0
      FADEIN 1 0 0 1 0 0
      FADEOUT 1 0 0 1 0 0
      MUTE 0
      SEL 1
      IGUID {69B11E81-2D51-055D-4682-13AB7AD6F29F}
      IID 11
      NAME "01-Recorded MIDI"
      VOLPAN 1 0 1 -1
      SOFFS 0 0
      PLAYRATE 1 1 0 -1 0 0.0021
      CHANMODE 0
      GUID {8D6781EF-EE79-A6D2-6B53-5CE5F4F6D7EF}
      RECPASS 1
      <SOURCE MIDI
        HASDATA 1 960 QN
        CCINTERP 32
        POOLEDEVTS {CEA74737-D89A-D315-2CAF-DB284B020ACD}
        E 0 90 3c 48
        E 0 90 40 48
        E 0 90 43 48
        E 1920 80 3c 00
        E 0 80 40 00
        E 0 80 43 00
        E 0 90 3c 48
        E 0 90 40 48
        E 0 90 43 48
        E 260 80 3c 00
        E 0 80 40 00
        E 0 80 43 00
        E 440 90 3c 48
        E 0 90 40 48
        E 0 90 43 48
        E 260 80 3c 00
        E 0 80 40 00
        E 0 80 43 00
        e 514 90 3c 48
        e 0 90 40 48
        e 0 90 43 48
        e 260 80 3c 00
        e 0 80 40 00
        e 0 80 43 00
        E 186 90 43 48
        E 0 90 47 48
        E 20 90 40 48
        E 1900 80 43 00
        E 0 80 47 00
        E 0 80 40 00
        E 0 90 43 48
        E 0 90 47 48
        E 20 90 40 48
        E 240 80 43 00
        E 0 80 47 00
        E 0 80 40 00
        E 440 90 43 48
        E 0 90 47 48
        E 20 90 40 48
        E 240 80 43 00
        E 0 80 47 00
        E 0 80 40 00
        e 514 90 43 48
        e 0 90 47 48
        e 20 90 40 48
        e 240 80 43 00
        e 0 80 47 00
        e 0 80 40 00
        E 186 90 41 48
        E 0 90 45 48
        E 0 90 48 48
        E 1920 80 41 00
        E 0 80 45 00
        E 0 80 48 00
        E 0 90 41 48
        E 0 90 45 48
        E 0 90 48 48
        E 260 80 41 00
        E 0 80 45 00
        E 0 80 48 00
        E 440 90 41 48
        E 0 90 45 48
        E 0 90 48 48
        E 260 80 41 00
        E 0 80 45 00
        E 0 80 48 00
        e 514 90 41 48
        e 0 90 45 48
        e 0 90 48 48
        e 260 80 41 00
        e 0 80 45 00
        e 0 80 48 00
        E 162 90 3e 48
        E 24 90 41 48
        E 0 90 45 48
        E 1896 90 3e 48
        E 24 80 3e 00
        E 0 80 41 00
        E 0 80 45 00
        E 0 90 41 48
        E 0 90 45 48
        E 260 80 3e 00
        E 0 80 41 00
        E 0 80 45 00
        E 416 90 3e 48
        E 24 90 41 48
        E 0 90 45 48
        E 260 80 3e 00
        E 0 80 41 00
        E 0 80 45 00
        e 490 90 3e 48
        e 24 90 41 48
        e 0 90 45 48
        e 260 80 3e 00
        e 0 80 41 00
        e 0 80 45 00
        E 186 b0 7b 00
        CHASE_CC_TAKEOFFS 1
        GUID {3131B4E2-B370-E352-A9C5-C8CA31551A86}
        IGNTEMPO 0 120 4 4
        SRCCOLOR 18
        VELLANE -1 100 0
        CFGEDITVIEW 0 0.045808 45 12 0 -1 0 0 0 0.5
        KEYSNAP 0
        TRACKSEL 0
        EVTFILTER 0 -1 -1 -1 -1 0 0 0 0 -1 -1 -1 -1 0 -1 0 -1 -1
        CFGEDIT 1 1 0 1 0 0 1 1 1 1 1 1 58 171 1253 866 0 0 0 0 0.25 0 0 0 0 0.5 0 0 1 64
      >
    >
    <ITEM
      POSITION 16
      SNAPOFFS 0
      LENGTH 8
      LOOP 1
      ALLTAKES 0
      FADEIN 1 0 0 1 0 0
      FADEOUT 1 0 0 1 0 0
      MUTE 0
      SEL 1
      IGUID {AC84C84A-8674-FB53-92E4-E4EECB3F535D}
      IID 12
      NAME "01-Recorded MIDI"
      VOLPAN 1 0 1 -1
      SOFFS 0 0
      PLAYRATE 1 1 0 -1 0 0.0021
      CHANMODE 0
      GUID {C5ABBF76-66F0-6E79-F298-1463AE453794}
      RECPASS 1
      <SOURCE MIDI
        HASDATA 1 960 QN
        CCINTERP 32
        POOLEDEVTS {6B53D793-F428-3A48-D6FB-89E7013754DC}
        E 0 90 3c 48
        E 0 90 40 48
        E 0 90 43 48
        E 1920 80 3c 00
        E 0 80 40 00
        E 0 80 43 00
        E 0 90 3c 48
        E 0 90 40 48
        E 0 90 43 48
        E 260 80 3c 00
        E 0 80 40 00
        E 0 80 43 00
        E 440 90 3c 48
        E 0 90 40 48
        E 0 90 43 48
        E 260 80 3c 00
        E 0 80 40 00
        E 0 80 43 00
        e 514 90 3c 48
        e 0 90 40 48
        e 0 90 43 48
        e 260 80 3c 00
        e 0 80 40 00
        e 0 80 43 00
        E 186 90 43 48
        E 0 90 47 48
        E 20 90 40 48
        E 1900 80 43 00
        E 0 80 47 00
        E 0 80 40 00
        E 0 90 43 48
        E 0 90 47 48
        E 20 90 40 48
        E 240 80 43 00
        E 0 80 47 00
        E 0 80 40 00
        E 440 90 43 48
        E 0 90 47 48
        E 20 90 40 48
        E 240 80 43 00
        E 0 80 47 00
        E 0 80 40 00
        e 514 90 43 48
        e 0 90 47 48
        e 20 90 40 48
        e 240 80 43 00
        e 0 80 47 00
        e 0 80 40 00
        E 186 90 41 48
        E 0 90 45 48
        E 0 90 48 48
        E 1920 80 41 00
        E 0 80 45 00
        E 0 80 48 00
        E 0 90 41 48
        E 0 90 45 48
        E 0 90 48 48
        E 260 80 41 00
        E 0 80 45 00
        E 0 80 48 00
        E 440 90 41 48
        E 0 90 45 48
        E 0 90 48 48
        E 260 80 41 00
        E 0 80 45 00
        E 0 80 48 00
        e 514 90 41 48
        e 0 90 45 48
        e 0 90 48 48
        e 260 80 41 00
        e 0 80 45 00
        e 0 80 48 00
        E 162 90 3e 48
        E 24 90 41 48
        E 0 90 45 48
        E 1896 90 3e 48
        E 24 80 3e 00
        E 0 80 41 00
        E 0 80 45 00
        E 0 90 41 48
        E 0 90 45 48
        E 260 80 3e 00
        E 0 80 41 00
        E 0 80 45 00
        E 416 90 3e 48
        E 24 90 41 48
        E 0 90 45 48
        E 260 80 3e 00
        E 0 80 41 00
        E 0 80 45 00
        e 490 90 3e 48
        e 24 90 41 48
        e 0 90 45 48
        e 260 80 3e 00
        e 0 80 41 00
        e 0 80 45 00
        E 186 b0 7b 00
        CHASE_CC_TAKEOFFS 1
        GUID {48C567A2-895C-FB9B-FDBA-0ADB7004ABF3}
        IGNTEMPO 0 120 4 4
        SRCCOLOR 19
        VELLANE -1 100 0
        CFGEDITVIEW 0 0.045808 45 12 0 -1 0 0 0 0.5
        KEYSNAP 0
        TRACKSEL 0
        EVTFILTER 0 -1 -1 -1 -1 0 0 0 0 -1 -1 -1 -1 0 -1 0 -1 -1
        CFGEDIT 1 1 0 1 0 0 1 1 1 1 1 1 58 171 1253 866 0 0 0 0 0.25 0 0 0 0 0.5 0 0 1 64
      >
    >
    <ITEM
      POSITION 24
      SNAPOFFS 0
      LENGTH 8
      LOOP 1
      ALLTAKES 0
      FADEIN 1 0 0 1 0 0
      FADEOUT 1 0 0 1 0 0
      MUTE 0
      SEL 1
      IGUID {A7EAF7BE-19B6-CE6E-8EB3-6DD029E59914}
      IID 13
      NAME "01-Recorded MIDI"
      VOLPAN 1 0 1 -1
      SOFFS 0 0
      PLAYRATE 1 1 0 -1 0 0.0021
      CHANMODE 0
      GUID {F306551C-B95E-5A8C-E4D7-C07BF29647AE}
      RECPASS 1
      <SOURCE MIDI
        HASDATA 1 960 QN
        CCINTERP 32
        POOLEDEVTS {22E2A147-48CE-0570-6F61-AC62249C8F51}
        E 0 90 3c 48
        E 0 90 40 48
        E 0 90 43 48
        E 1920 80 3c 00
        E 0 80 40 00
        E 0 80 43 00
        E 0 90 3c 48
        E 0 90 40 48
        E 0 90 43 48
        E 260 80 3c 00
        E 0 80 40 00
        E 0 80 43 00
        E 440 90 3c 48
        E 0 90 40 48
        E 0 90 43 48
        E 260 80 3c 00
        E 0 80 40 00
        E 0 80 43 00
        e 514 90 3c 48
        e 0 90 40 48
        e 0 90 43 48
        e 260 80 3c 00
        e 0 80 40 00
        e 0 80 43 00
        E 186 90 43 48
        E 0 90 47 48
        E 20 90 40 48
        E 1900 80 43 00
        E 0 80 47 00
        E 0 80 40 00
        E 0 90 43 48
        E 0 90 47 48
        E 20 90 40 48
        E 240 80 43 00
        E 0 80 47 00
        E 0 80 40 00
        E 440 90 43 48
        E 0 90 47 48
        E 20 90 40 48
        E 240 80 43 00
        E 0 80 47 00
        E 0 80 40 00
        e 514 90 43 48
        e 0 90 47 48
        e 20 90 40 48
        e 240 80 43 00
        e 0 80 47 00
        e 0 80 40 00
        E 186 90 41 48
        E 0 90 45 48
        E 0 90 48 48
        E 1920 80 41 00
        E 0 80 45 00
        E 0 80 48 00
        E 0 90 41 48
        E 0 90 45 48
        E 0 90 48 48
        E 260 80 41 00
        E 0 80 45 00
        E 0 80 48 00
        E 440 90 41 48
        E 0 90 45 48
        E 0 90 48 48
        E 260 80 41 00
        E 0 80 45 00
        E 0 80 48 00
        e 514 90 41 48
        e 0 90 45 48
        e 0 90 48 48
        e 260 80 41 00
        e 0 80 45 00
        e 0 80 48 00
        E 162 90 3e 48
        E 24 90 41 48
        E 0 90 45 48
        E 1896 90 3e 48
        E 24 80 3e 00
        E 0 80 41 00
        E 0 80 45 00
        E 0 90 41 48
        E 0 90 45 48
        E 260 80 3e 00
        E 0 80 41 00
        E 0 80 45 00
        E 416 90 3e 48
        E 24 90 41 48
        E 0 90 45 48
        E 260 80 3e 00
        E 0 80 41 00
        E 0 80 45 00
        e 490 90 3e 48
        e 24 90 41 48
        e 0 90 45 48
        e 260 80 3e 00
        e 0 80 41 00
        e 0 80 45 00
        E 186 b0 7b 00
        CHASE_CC_TAKEOFFS 1
        GUID {1DE38800-E2A1-41B5-9C8C-3291891093B1}
        IGNTEMPO 0 120 4 4
        SRCCOLOR 20
        VELLANE -1 100 0
        CFGEDITVIEW 0 0.045808 45 12 0 -1 0 0 0 0.5
        KEYSNAP 0
        TRACKSEL 0
        EVTFILTER 0 -1 -1 -1 -1 0 0 0 0 -1 -1 -1 -1 0 -1 0 -1 -1
        CFGEDIT 1 1 0 1 0 0 1 1 1 1 1 1 58 171 1253 866 0 0 0 0 0.25 0 0 0 0 0.5 0 0 1 64
      >
    >
    <ITEM
      POSITION 32
      SNAPOFFS 0
      LENGTH 8
      LOOP 1
      ALLTAKES 0
      FADEIN 1 0 0 1 0 0
      FADEOUT 1 0 0 1 0 0
      MUTE 0
      SEL 1
      IGUID {99DE0CCF-5606-5932-349B-8F88C4BAAE5E}
      IID 14
      NAME "01-Recorded MIDI"
      VOLPAN 1 0 1 -1
      SOFFS 0 0
      PLAYRATE 1 1 0 -1 0 0.0021
      CHANMODE 0
      GUID {DC153331-172F-CA72-F208-58EC8C88FFDD}
      RECPASS 1
      <SOURCE MIDI
        HASDATA 1 960 QN
        CCINTERP 32
        POOLEDEVTS {3C55FB1E-C3CF-8015-0EF1-B10157196C57}
        E 0 90 3c 48
        E 0 90 40 48
        E 0 90 43 48
        E 1920 80 3c 00
        E 0 80 40 00
        E 0 80 43 00
        E 0 90 3c 48
        E 0 90 40 48
        E 0 90 43 48
        E 260 80 3c 00
        E 0 80 40 00
        E 0 80 43 00
        E 440 90 3c 48
        E 0 90 40 48
        E 0 90 43 48
        E 260 80 3c 00
        E 0 80 40 00
        E 0 80 43 00
        e 514 90 3c 48
        e 0 90 40 48
        e 0 90 43 48
        e 260 80 3c 00
        e 0 80 40 00
        e 0 80 43 00
        E 186 90 43 48
        E 0 90 47 48
        E 20 90 40 48
        E 1900 80 43 00
        E 0 80 47 00
        E 0 80 40 00
        E 0 90 43 48
        E 0 90 47 48
        E 20 90 40 48
        E 240 80 43 00
        E 0 80 47 00
        E 0 80 40 00
        E 440 90 43 48
        E 0 90 47 48
        E 20 90 40 48
        E 240 80 43 00
        E 0 80 47 00
        E 0 80 40 00
        e 514 90 43 48
        e 0 90 47 48
        e 20 90 40 48
        e 240 80 43 00
        e 0 80 47 00
        e 0 80 40 00
        E 186 90 41 48
        E 0 90 45 48
        E 0 90 48 48
        E 1920 80 41 00
        E 0 80 45 00
        E 0 80 48 00
        E 0 90 41 48
        E 0 90 45 48
        E 0 90 48 48
        E 260 80 41 00
        E 0 80 45 00
        E 0 80 48 00
        E 440 90 41 48
        E 0 90 45 48
        E 0 90 48 48
        E 260 80 41 00
        E 0 80 45 00
        E 0 80 48 00
        e 514 90 41 48
        e 0 90 45 48
        e 0 90 48 48
        e 260 80 41 00
        e 0 80 45 00
        e 0 80 48 00
        E 162 90 3e 48
        E 24 90 41 48
        E 0 90 45 48
        E 1896 90 3e 48
        E 24 80 3e 00
        E 0 80 41 00
        E 0 80 45 00
        E 0 90 41 48
        E 0 90 45 48
        E 260 80 3e 00
        E 0 80 41 00
        E 0 80 45 00
        E 416 90 3e 48
        E 24 90 41 48
        E 0 90 45 48
        E 260 80 3e 00
        E 0 80 41 00
        E 0 80 45 00
        e 490 90 3e 48
        e 24 90 41 48
        e 0 90 45 48
        e 260 80 3e 00
        e 0 80 41 00
        e 0 80 45 00
        E 186 b0 7b 00
        CHASE_CC_TAKEOFFS 1
        GUID {0C3271F4-E233-9088-9B25-A722FAE7C579}
        IGNTEMPO 0 120 4 4
        SRCCOLOR 21
        VELLANE -1 100 0
        CFGEDITVIEW 0 0.045808 45 12 0 -1 0 0 0 0.5
        KEYSNAP 0
        TRACKSEL 0
        EVTFILTER 0 -1 -1 -1 -1 0 0 0 0 -1 -1 -1 -1 0 -1 0 -1 -1
        CFGEDIT 1 1 0 1 0 0 1 1 1 1 1 1 58 171 1253 866 0 0 0 0 0.25 0 0 0 0 0.5 0 0 1 64
      >
    >
    <ITEM
      POSITION 40
      SNAPOFFS 0
      LENGTH 8
      LOOP 1
      ALLTAKES 0
      FADEIN 1 0 0 1 0 0
      FADEOUT 1 0 0 1 0 0
      MUTE 0
      SEL 1
      IGUID {A1431DE0-A9D4-E531-D96B-7890FABF605C}
      IID 15
      NAME "01-Recorded MIDI"
      VOLPAN 1 0 1 -1
      SOFFS 0 0
      PLAYRATE 1 1 0 -1 0 0.0021
      CHANMODE 0
      GUID {A6FBBA04-6A54-01CC-D514-2D2F30D263FE}
      RECPASS 1
      <SOURCE MIDI
        HASDATA 1 960 QN
        CCINTERP 32
        POOLEDEVTS {90FB23A0-1639-810F-92F9-FE2FEA6B5C68}
        E 0 90 3c 48
        E 0 90 40 48
        E 0 90 43 48
        E 1920 80 3c 00
        E 0 80 40 00
        E 0 80 43 00
        E 0 90 3c 48
        E 0 90 40 48
        E 0 90 43 48
        E 260 80 3c 00
        E 0 80 40 00
        E 0 80 43 00
        E 440 90 3c 48
        E 0 90 40 48
        E 0 90 43 48
        E 260 80 3c 00
        E 0 80 40 00
        E 0 80 43 00
        e 514 90 3c 48
        e 0 90 40 48
        e 0 90 43 48
        e 260 80 3c 00
        e 0 80 40 00
        e 0 80 43 00
        E 186 90 43 48
        E 0 90 47 48
        E 20 90 40 48
        E 1900 80 43 00
        E 0 80 47 00
        E 0 80 40 00
        E 0 90 43 48
        E 0 90 47 48
        E 20 90 40 48
        E 240 80 43 00
        E 0 80 47 00
        E 0 80 40 00
        E 440 90 43 48
        E 0 90 47 48
        E 20 90 40 48
        E 240 80 43 00
        E 0 80 47 00
        E 0 80 40 00
        e 514 90 43 48
        e 0 90 47 48
        e 20 90 40 48
        e 240 80 43 00
        e 0 80 47 00
        e 0 80 40 00
        E 186 90 41 48
        E 0 90 45 48
        E 0 90 48 48
        E 1920 80 41 00
        E 0 80 45 00
        E 0 80 48 00
        E 0 90 41 48
        E 0 90 45 48
        E 0 90 48 48
        E 260 80 41 00
        E 0 80 45 00
        E 0 80 48 00
        E 440 90 41 48
        E 0 90 45 48
        E 0 90 48 48
        E 260 80 41 00
        E 0 80 45 00
        E 0 80 48 00
        e 514 90 41 48
        e 0 90 45 48
        e 0 90 48 48
        e 260 80 41 00
        e 0 80 45 00
        e 0 80 48 00
        E 162 90 3e 48
        E 24 90 41 48
        E 0 90 45 48
        E 1896 90 3e 48
        E 24 80 3e 00
        E 0 80 41 00
        E 0 80 45 00
        E 0 90 41 48
        E 0 90 45 48
        E 260 80 3e 00
        E 0 80 41 00
        E 0 80 45 00
        E 416 90 3e 48
        E 24 90 41 48
        E 0 90 45 48
        E 260 80 3e 00
        E 0 80 41 00
        E 0 80 45 00
        e 490 90 3e 48
        e 24 90 41 48
        e 0 90 45 48
        e 260 80 3e 00
        e 0 80 41 00
        e 0 80 45 00
        E 186 b0 7b 00
        CHASE_CC_TAKEOFFS 1
        GUID {040E7AF8-3572-5D91-3C86-797AEE7444D4}
        IGNTEMPO 0 120 4 4
        SRCCOLOR 22
        VELLANE -1 100 0
        CFGEDITVIEW 0 0.045808 45 12 0 -1 0 0 0 0.5
        KEYSNAP 0
        TRACKSEL 0
        EVTFILTER 0 -1 -1 -1 -1 0 0 0 0 -1 -1 -1 -1 0 -1 0 -1 -1
        CFGEDIT 1 1 0 1 0 0 1 1 1 1 1 1 58 171 1253 866 0 0 0 0 0.25 0 0 0 0 0.5 0 0 1 64
      >
    >
    <ITEM
      POSITION 48
      SNAPOFFS 0
      LENGTH 8
      LOOP 1
      ALLTAKES 0
      FADEIN 1 0 0 1 0 0
      FADEOUT 1 0 0 1 0 0
      MUTE 0
      SEL 1
      IGUID {79983082-CAF0-AB12-D04F-F9F9E69BDAA5}
      IID 16
      NAME "01-Recorded MIDI"
      VOLPAN 1 0 1 -1
      SOFFS 0 0
      PLAYRATE 1 1 0 -1 0 0.0021
      CHANMODE 0
      GUID {3D41231B-C454-5DD7-25BC-47DFEADD7363}
      RECPASS 1
      <SOURCE MIDI
        HASDATA 1 960 QN
        CCINTERP 32
        POOLEDEVTS {1BBA8A6F-6FE9-47ED-A62A-2713D99ABEFB}
        E 0 90 3c 48
        E 0 90 40 48
        E 0 90 43 48
        E 1920 80 3c 00
        E 0 80 40 00
        E 0 80 43 00
        E 0 90 3c 48
        E 0 90 40 48
        E 0 90 43 48
        E 260 80 3c 00
        E 0 80 40 00
        E 0 80 43 00
        E 440 90 3c 48
        E 0 90 40 48
        E 0 90 43 48
        E 260 80 3c 00
        E 0 80 40 00
        E 0 80 43 00
        e 514 90 3c 48
        e 0 90 40 48
        e 0 90 43 48
        e 260 80 3c 00
        e 0 80 40 00
        e 0 80 43 00
        E 186 90 43 48
        E 0 90 47 48
        E 20 90 40 48
        E 1900 80 43 00
        E 0 80 47 00
        E 0 80 40 00
        E 0 90 43 48
        E 0 90 47 48
        E 20 90 40 48
        E 240 80 43 00
        E 0 80 47 00
        E 0 80 40 00
        E 440 90 43 48
        E 0 90 47 48
        E 20 90 40 48
        E 240 80 43 00
        E 0 80 47 00
        E 0 80 40 00
        e 514 90 43 48
        e 0 90 47 48
        e 20 90 40 48
        e 240 80 43 00
        e 0 80 47 00
        e 0 80 40 00
        E 186 90 41 48
        E 0 90 45 48
        E 0 90 48 48
        E 1920 80 41 00
        E 0 80 45 00
        E 0 80 48 00
        E 0 90 41 48
        E 0 90 45 48
        E 0 90 48 48
        E 260 80 41 00
        E 0 80 45 00
        E 0 80 48 00
        E 440 90 41 48
        E 0 90 45 48
        E 0 90 48 48
        E 260 80 41 00
        E 0 80 45 00
        E 0 80 48 00
        e 514 90 41 48
        e 0 90 45 48
        e 0 90 48 48
        e 260 80 41 00
        e 0 80 45 00
        e 0 80 48 00
        E 162 90 3e 48
        E 24 90 41 48
        E 0 90 45 48
        E 1896 90 3e 48
        E 24 80 3e 00
        E 0 80 41 00
        E 0 80 45 00
        E 0 90 41 48
        E 0 90 45 48
        E 260 80 3e 00
        E 0 80 41 00
        E 0 80 45 00
        E 416 90 3e 48
        E 24 90 41 48
        E 0 90 45 48
        E 260 80 3e 00
        E 0 80 41 00
        E 0 80 45 00
        e 490 90 3e 48
        e 24 90 41 48
        e 0 90 45 48
        e 260 80 3e 00
        e 0 80 41 00
        e 0 80 45 00
        E 186 b0 7b 00
        CHASE_CC_TAKEOFFS 1
        GUID {2338968B-6CF9-9F40-300F-DEB89D3392EA}
        IGNTEMPO 0 120 4 4
        SRCCOLOR 23
        VELLANE -1 100 0
        CFGEDITVIEW 0 0.045808 45 12 0 -1 0 0 0 0.5
        KEYSNAP 0
        TRACKSEL 0
        EVTFILTER 0 -1 -1 -1 -1 0 0 0 0 -1 -1 -1 -1 0 -1 0 -1 -1
        CFGEDIT 1 1 0 1 0 0 1 1 1 1 1 1 58 171 1253 866 0 0 0 0 0.25 0 0 0 0 0.5 0 0 1 64
      >
    >
    <ITEM
      POSITION 56
      SNAPOFFS 0
      LENGTH 8
      LOOP 1
      ALLTAKES 0
      FADEIN 1 0 0 1 0 0
      FADEOUT 1 0 0 1 0 0
      MUTE 0
      SEL 1
      IGUID {4709540E-8885-FF8A-D345-8B64E13B7D29}
      IID 17
      NAME "01-Recorded MIDI"
      VOLPAN 1 0 1 -1
      SOFFS 0 0
      PLAYRATE 1 1 0 -1 0 0.0021
      CHANMODE 0
      GUID {5F52205D-CB2F-50CE-3E24-1B8B73C70973}
      RECPASS 1
      <SOURCE MIDI
        HASDATA 1 960 QN
        CCINTERP 32
        POOLEDEVTS {5F599006-5C36-EC56-06B6-277FE1CC4D2E}
        E 0 90 3c 48
        E 0 90 40 48
        E 0 90 43 48
        E 1920 80 3c 00
        E 0 80 40 00
        E 0 80 43 00
        E 0 90 3c 48
        E 0 90 40 48
        E 0 90 43 48
        E 260 80 3c 00
        E 0 80 40 00
        E 0 80 43 00
        E 440 90 3c 48
        E 0 90 40 48
        E 0 90 43 48
        E 260 80 3c 00
        E 0 80 40 00
        E 0 80 43 00
        e 514 90 3c 48
        e 0 90 40 48
        e 0 90 43 48
        e 260 80 3c 00
        e 0 80 40 00
        e 0 80 43 00
        E 186 90 43 48
        E 0 90 47 48
        E 20 90 40 48
        E 1900 80 43 00
        E 0 80 47 00
        E 0 80 40 00
        E 0 90 43 48
        E 0 90 47 48
        E 20 90 40 48
        E 240 80 43 00
        E 0 80 47 00
        E 0 80 40 00
        E 440 90 43 48
        E 0 90 47 48
        E 20 90 40 48
        E 240 80 43 00
        E 0 80 47 00
        E 0 80 40 00
        e 514 90 43 48
        e 0 90 47 48
        e 20 90 40 48
        e 240 80 43 00
        e 0 80 47 00
        e 0 80 40 00
        E 186 90 41 48
        E 0 90 45 48
        E 0 90 48 48
        E 1920 80 41 00
        E 0 80 45 00
        E 0 80 48 00
        E 0 90 41 48
        E 0 90 45 48
        E 0 90 48 48
        E 260 80 41 00
        E 0 80 45 00
        E 0 80 48 00
        E 440 90 41 48
        E 0 90 45 48
        E 0 90 48 48
        E 260 80 41 00
        E 0 80 45 00
        E 0 80 48 00
        e 514 90 41 48
        e 0 90 45 48
        e 0 90 48 48
        e 260 80 41 00
        e 0 80 45 00
        e 0 80 48 00
        E 162 90 3e 48
        E 24 90 41 48
        E 0 90 45 48
        E 1896 90 3e 48
        E 24 80 3e 00
        E 0 80 41 00
        E 0 80 45 00
        E 0 90 41 48
        E 0 90 45 48
        E 260 80 3e 00
        E 0 80 41 00
        E 0 80 45 00
        E 416 90 3e 48
        E 24 90 41 48
        E 0 90 45 48
        E 260 80 3e 00
        E 0 80 41 00
        E 0 80 45 00
        e 490 90 3e 48
        e 24 90 41 48
        e 0 90 45 48
        e 260 80 3e 00
        e 0 80 41 00
        e 0 80 45 00
        E 186 b0 7b 00
        CHASE_CC_TAKEOFFS 1
        GUID {A64857E2-94F8-0990-20DF-4C1E9B5E6251}
        IGNTEMPO 0 120 4 4
        SRCCOLOR 24
        VELLANE -1 100 0
        CFGEDITVIEW 0 0.045808 45 12 0 -1 0 0 0 0.5
        KEYSNAP 0
        TRACKSEL 0
        EVTFILTER 0 -1 -1 -1 -1 0 0 0 0 -1 -1 -1 -1 0 -1 0 -1 -1
        CFGEDIT 1 1 0 1 0 0 1 1 1 1 1 1 58 171 1253 866 0 0 0 0 0.25 0 0 0 0 0.5 0 0 1 64
      >
    >
    <ITEM
      POSITION 64
      SNAPOFFS 0
      LENGTH 8
      LOOP 1
      ALLTAKES 0
      FADEIN 1 0 0 1 0 0
      FADEOUT 1 0 0 1 0 0
      MUTE 0
      SEL 1
      IGUID {2301D710-25D2-B84C-1EE0-BD8CC1B7A526}
      IID 18
      NAME "01-Recorded MIDI"
      VOLPAN 1 0 1 -1
      SOFFS 0 0
      PLAYRATE 1 1 0 -1 0 0.0021
      CHANMODE 0
      GUID {E01F7CE7-7811-FC69-E368-18ED0C1B64B3}
      RECPASS 1
      <SOURCE MIDI
        HASDATA 1 960 QN
        CCINTERP 32
        POOLEDEVTS {3A66799F-0EF5-7B89-5BD2-3E9603697B5B}
        E 0 90 3c 48
        E 0 90 40 48
        E 0 90 43 48
        E 1920 80 3c 00
        E 0 80 40 00
        E 0 80 43 00
        E 0 90 3c 48
        E 0 90 40 48
        E 0 90 43 48
        E 260 80 3c 00
        E 0 80 40 00
        E 0 80 43 00
        E 440 90 3c 48
        E 0 90 40 48
        E 0 90 43 48
        E 260 80 3c 00
        E 0 80 40 00
        E 0 80 43 00
        e 514 90 3c 48
        e 0 90 40 48
        e 0 90 43 48
        e 260 80 3c 00
        e 0 80 40 00
        e 0 80 43 00
        E 186 90 43 48
        E 0 90 47 48
        E 20 90 40 48
        E 1900 80 43 00
        E 0 80 47 00
        E 0 80 40 00
        E 0 90 43 48
        E 0 90 47 48
        E 20 90 40 48
        E 240 80 43 00
        E 0 80 47 00
        E 0 80 40 00
        E 440 90 43 48
        E 0 90 47 48
        E 20 90 40 48
        E 240 80 43 00
        E 0 80 47 00
        E 0 80 40 00
        e 514 90 43 48
        e 0 90 47 48
        e 20 90 40 48
        e 240 80 43 00
        e 0 80 47 00
        e 0 80 40 00
        E 186 90 41 48
        E 0 90 45 48
        E 0 90 48 48
        E 1920 80 41 00
        E 0 80 45 00
        E 0 80 48 00
        E 0 90 41 48
        E 0 90 45 48
        E 0 90 48 48
        E 260 80 41 00
        E 0 80 45 00
        E 0 80 48 00
        E 440 90 41 48
        E 0 90 45 48
        E 0 90 48 48
        E 260 80 41 00
        E 0 80 45 00
        E 0 80 48 00
        e 514 90 41 48
        e 0 90 45 48
        e 0 90 48 48
        e 260 80 41 00
        e 0 80 45 00
        e 0 80 48 00
        E 162 90 3e 48
        E 24 90 41 48
        E 0 90 45 48
        E 1896 90 3e 48
        E 24 80 3e 00
        E 0 80 41 00
        E 0 80 45 00
        E 0 90 41 48
        E 0 90 45 48
        E 260 80 3e 00
        E 0 80 41 00
        E 0 80 45 00
        E 416 90 3e 48
        E 24 90 41 48
        E 0 90 45 48
        E 260 80 3e 00
        E 0 80 41 00
        E 0 80 45 00
        e 490 90 3e 48
        e 24 90 41 48
        e 0 90 45 48
        e 260 80 3e 00
        e 0 80 41 00
        e 0 80 45 00
        E 186 b0 7b 00
        CHASE_CC_TAKEOFFS 1
        GUID {19362806-85F2-5D9E-E1F9-07BE0CF3D16E}
        IGNTEMPO 0 120 4 4
        SRCCOLOR 25
        VELLANE -1 100 0
        CFGEDITVIEW 0 0.045808 45 12 0 -1 0 0 0 0.5
        KEYSNAP 0
        TRACKSEL 0
        EVTFILTER 0 -1 -1 -1 -1 0 0 0 0 -1 -1 -1 -1 0 -1 0 -1 -1
        CFGEDIT 1 1 0 1 0 0 1 1 1 1 1 1 58 171 1253 866 0 0 0 0 0.25 0 0 0 0 0.5 0 0 1 64
      >
    >
    <ITEM
      POSITION 72
      SNAPOFFS 0
      LENGTH 8
      LOOP 1
      ALLTAKES 0
      FADEIN 1 0 0 1 0 0
      FADEOUT 1 0 0 1 0 0
      MUTE 0
      SEL 1
      IGUID {F5F765CA-755D-68C9-8F76-D90AAD09711C}
      IID 19
      NAME "01-Recorded MIDI"
      VOLPAN 1 0 1 -1
      SOFFS 0 0
      PLAYRATE 1 1 0 -1 0 0.0021
      CHANMODE 0
      GUID {A6500D49-EF8F-5FB1-AA24-F01B04257406}
      RECPASS 1
      <SOURCE MIDI
        HASDATA 1 960 QN
        CCINTERP 32
        POOLEDEVTS {E0C3FA8E-C222-4F57-33A1-17B2702EEBFA}
        E 0 90 3c 48
        E 0 90 40 48
        E 0 90 43 48
        E 1920 80 3c 00
        E 0 80 40 00
        E 0 80 43 00
        E 0 90 3c 48
        E 0 90 40 48
        E 0 90 43 48
        E 260 80 3c 00
        E 0 80 40 00
        E 0 80 43 00
        E 440 90 3c 48
        E 0 90 40 48
        E 0 90 43 48
        E 260 80 3c 00
        E 0 80 40 00
        E 0 80 43 00
        e 514 90 3c 48
        e 0 90 40 48
        e 0 90 43 48
        e 260 80 3c 00
        e 0 80 40 00
        e 0 80 43 00
        E 186 90 43 48
        E 0 90 47 48
        E 20 90 40 48
        E 1900 80 43 00
        E 0 80 47 00
        E 0 80 40 00
        E 0 90 43 48
        E 0 90 47 48
        E 20 90 40 48
        E 240 80 43 00
        E 0 80 47 00
        E 0 80 40 00
        E 440 90 43 48
        E 0 90 47 48
        E 20 90 40 48
        E 240 80 43 00
        E 0 80 47 00
        E 0 80 40 00
        e 514 90 43 48
        e 0 90 47 48
        e 20 90 40 48
        e 240 80 43 00
        e 0 80 47 00
        e 0 80 40 00
        E 186 90 41 48
        E 0 90 45 48
        E 0 90 48 48
        E 1920 80 41 00
        E 0 80 45 00
        E 0 80 48 00
        E 0 90 41 48
        E 0 90 45 48
        E 0 90 48 48
        E 260 80 41 00
        E 0 80 45 00
        E 0 80 48 00
        E 440 90 41 48
        E 0 90 45 48
        E 0 90 48 48
        E 260 80 41 00
        E 0 80 45 00
        E 0 80 48 00
        e 514 90 41 48
        e 0 90 45 48
        e 0 90 48 48
        e 260 80 41 00
        e 0 80 45 00
        e 0 80 48 00
        E 162 90 3e 48
        E 24 90 41 48
        E 0 90 45 48
        E 1896 90 3e 48
        E 24 80 3e 00
        E 0 80 41 00
        E 0 80 45 00
        E 0 90 41 48
        E 0 90 45 48
        E 260 80 3e 00
        E 0 80 41 00
        E 0 80 45 00
        E 416 90 3e 48
        E 24 90 41 48
        E 0 90 45 48
        E 260 80 3e 00
        E 0 80 41 00
        E 0 80 45 00
        e 490 90 3e 48
        e 24 90 41 48
        e 0 90 45 48
        e 260 80 3e 00
        e 0 80 41 00
        e 0 80 45 00
        E 186 b0 7b 00
        CHASE_CC_TAKEOFFS 1
        GUID {6844F8A9-6BE9-023C-4A46-0A676470C99B}
        IGNTEMPO 0 120 4 4
        SRCCOLOR 26
        VELLANE -1 100 0
        CFGEDITVIEW 0 0.045808 45 12 0 -1 0 0 0 0.5
        KEYSNAP 0
        TRACKSEL 0
        EVTFILTER 0 -1 -1 -1 -1 0 0 0 0 -1 -1 -1 -1 0 -1 0 -1 -1
        CFGEDIT 1 1 0 1 0 0 1 1 1 1 1 1 58 171 1253 866 0 0 0 0 0.25 0 0 0 0 0.5 0 0 1 64
      >
    >
    <ITEM
      POSITION 80
      SNAPOFFS 0
      LENGTH 8
      LOOP 1
      ALLTAKES 0
      FADEIN 1 0 0 1 0 0
      FADEOUT 1 0 0 1 0 0
      MUTE 0
      SEL 1
      IGUID {E255D566-2AFF-A4FE-BE85-599C4D0B68A7}
      IID 20
      NAME "01-Recorded MIDI"
      VOLPAN 1 0 1 -1
      SOFFS 0 0
      PLAYRATE 1 1 0 -1 0 0.0021
      CHANMODE 0
      GUID {B93818EF-21F5-7811-5D7E-17264ED2B12B}
      RECPASS 1
      <SOURCE MIDI
        HASDATA 1 960 QN
        CCINTERP 32
        POOLEDEVTS {E3DF77DE-50BC-5539-3EE6-5E728D3521D1}
        E 0 90 3c 48
        E 0 90 40 48
        E 0 90 43 48
        E 1920 80 3c 00
        E 0 80 40 00
        E 0 80 43 00
        E 0 90 3c 48
        E 0 90 40 48
        E 0 90 43 48
        E 260 80 3c 00
        E 0 80 40 00
        E 0 80 43 00
        E 440 90 3c 48
        E 0 90 40 48
        E 0 90 43 48
        E 260 80 3c 00
        E 0 80 40 00
        E 0 80 43 00
        e 514 90 3c 48
        e 0 90 40 48
        e 0 90 43 48
        e 260 80 3c 00
        e 0 80 40 00
        e 0 80 43 00
        E 186 90 43 48
        E 0 90 47 48
        E 20 90 40 48
        E 1900 80 43 00
        E 0 80 47 00
        E 0 80 40 00
        E 0 90 43 48
        E 0 90 47 48
        E 20 90 40 48
        E 240 80 43 00
        E 0 80 47 00
        E 0 80 40 00
        E 440 90 43 48
        E 0 90 47 48
        E 20 90 40 48
        E 240 80 43 00
        E 0 80 47 00
        E 0 80 40 00
        e 514 90 43 48
        e 0 90 47 48
        e 20 90 40 48
        e 240 80 43 00
        e 0 80 47 00
        e 0 80 40 00
        E 186 90 41 48
        E 0 90 45 48
        E 0 90 48 48
        E 1920 80 41 00
        E 0 80 45 00
        E 0 80 48 00
        E 0 90 41 48
        E 0 90 45 48
        E 0 90 48 48
        E 260 80 41 00
        E 0 80 45 00
        E 0 80 48 00
        E 440 90 41 48
        E 0 90 45 48
        E 0 90 48 48
        E 260 80 41 00
        E 0 80 45 00
        E 0 80 48 00
        e 514 90 41 48
        e 0 90 45 48
        e 0 90 48 48
        e 260 80 41 00
        e 0 80 45 00
        e 0 80 48 00
        E 162 90 3e 48
        E 24 90 41 48
        E 0 90 45 48
        E 1896 90 3e 48
        E 24 80 3e 00
        E 0 80 41 00
        E 0 80 45 00
        E 0 90 41 48
        E 0 90 45 48
        E 260 80 3e 00
        E 0 80 41 00
        E 0 80 45 00
        E 416 90 3e 48
        E 24 90 41 48
        E 0 90 45 48
        E 260 80 3e 00
        E 0 80 41 00
        E 0 80 45 00
        e 490 90 3e 48
        e 24 90 41 48
        e 0 90 45 48
        e 260 80 3e 00
        e 0 80 41 00
        e 0 80 45 00
        E 186 b0 7b 00
        CHASE_CC_TAKEOFFS 1
        GUID {E611ADB6-4869-6CCA-8E83-3954D5E743B1}
        IGNTEMPO 0 120 4 4
        SRCCOLOR 27
        VELLANE -1 100 0
        CFGEDITVIEW 0 0.045808 45 12 0 -1 0 0 0 0.5
        KEYSNAP 0
        TRACKSEL 0
        EVTFILTER 0 -1 -1 -1 -1 0 0 0 0 -1 -1 -1 -1 0 -1 0 -1 -1
        CFGEDIT 1 1 0 1 0 0 1 1 1 1 1 1 58 171 1253 866 0 0 0 0 0.25 0 0 0 0 0.5 0 0 1 64
      >
    >
    <ITEM
      POSITION 88
      SNAPOFFS 0
      LENGTH 8
      LOOP 1
      ALLTAKES 0
      FADEIN 1 0 0 1 0 0
      FADEOUT 1 0 0 1 0 0
      MUTE 0
      SEL 1
      IGUID {CC1101EC-FCD9-F6F9-4E81-659F27F09C11}
      IID 21
      NAME "01-Recorded MIDI"
      VOLPAN 1 0 1 -1
      SOFFS 0 0
      PLAYRATE 1 1 0 -1 0 0.0021
      CHANMODE 0
      GUID {E8304624-F6A7-A819-3483-B172E44FA7B8}
      RECPASS 1
      <SOURCE MIDI
        HASDATA 1 960 QN
        CCINTERP 32
        POOLEDEVTS {C6116DAE-2398-6AA9-ADBE-6793A668D518}
        E 0 90 3c 48
        E 0 90 40 48
        E 0 90 43 48
        E 1920 80 3c 00
        E 0 80 40 00
        E 0 80 43 00
        E 0 90 3c 48
        E 0 90 40 48
        E 0 90 43 48
        E 260 80 3c 00
        E 0 80 40 00
        E 0 80 43 00
        E 440 90 3c 48
        E 0 90 40 48
        E 0 90 43 48
        E 260 80 3c 00
        E 0 80 40 00
        E 0 80 43 00
        e 514 90 3c 48
        e 0 90 40 48
        e 0 90 43 48
        e 260 80 3c 00
        e 0 80 40 00
        e 0 80 43 00
        E 186 90 43 48
        E 0 90 47 48
        E 20 90 40 48
        E 1900 80 43 00
        E 0 80 47 00
        E 0 80 40 00
        E 0 90 43 48
        E 0 90 47 48
        E 20 90 40 48
        E 240 80 43 00
        E 0 80 47 00
        E 0 80 40 00
        E 440 90 43 48
        E 0 90 47 48
        E 20 90 40 48
        E 240 80 43 00
        E 0 80 47 00
        E 0 80 40 00
        e 514 90 43 48
        e 0 90 47 48
        e 20 90 40 48
        e 240 80 43 00
        e 0 80 47 00
        e 0 80 40 00
        E 186 90 41 48
        E 0 90 45 48
        E 0 90 48 48
        E 1920 80 41 00
        E 0 80 45 00
        E 0 80 48 00
        E 0 90 41 48
        E 0 90 45 48
        E 0 90 48 48
        E 260 80 41 00
        E 0 80 45 00
        E 0 80 48 00
        E 440 90 41 48
        E 0 90 45 48
        E 0 90 48 48
        E 260 80 41 00
        E 0 80 45 00
        E 0 80 48 00
        e 514 90 41 48
        e 0 90 45 48
        e 0 90 48 48
        e 260 80 41 00
        e 0 80 45 00
        e 0 80 48 00
        E 162 90 3e 48
        E 24 90 41 48
        E 0 90 45 48
        E 1896 90 3e 48
        E 24 80 3e 00
        E 0 80 41 00
        E 0 80 45 00
        E 0 90 41 48
        E 0 90 45 48
        E 260 80 3e 00
        E 0 80 41 00
        E 0 80 45 00
        E 416 90 3e 48
        E 24 90 41 48
        E 0 90 45 48
        E 260 80 3e 00
        E 0 80 41 00
        E 0 80 45 00
        e 490 90 3e 48
        e 24 90 41 48
        e 0 90 45 48
        e 260 80 3e 00
        e 0 80 41 00
        e 0 80 45 00
        E 186 b0 7b 00
        CHASE_CC_TAKEOFFS 1
        GUID {C762B555-17FC-D765-5340-11D3487D2955}
        IGNTEMPO 0 120 4 4
        SRCCOLOR 28
        VELLANE -1 100 0
        CFGEDITVIEW 0 0.045808 45 12 0 -1 0 0 0 0.5
        KEYSNAP 0
        TRACKSEL 0
        EVTFILTER 0 -1 -1 -1 -1 0 0 0 0 -1 -1 -1 -1 0 -1 0 -1 -1
        CFGEDIT 1 1 0 1 0 0 1 1 1 1 1 1 58 171 1253 866 0 0 0 0 0.25 0 0 0 0 0.5 0 0 1 64
      >
    >
  >
  <TRACK {EB00AD23-A713-B83F-89DF-6A7A5E35EE1B}
    NAME ""
    PEAKCOL 16576
    BEAT -1
    AUTOMODE 0
    VOLPAN 0.00052194381917 0 -1 -1 1
    MUTESOLO 0 0 0
    IPHASE 0
    PLAYOFFS 0 1
    ISBUS 0 0
    BUSCOMP 0 0 0 0 0
    SHOWINMIX 1 0.6667 0.5 1 0.5 0 0 0
    FREEMODE 0
    SEL 0
    REC 0 5056 1 0 0 0 0
    VU 2
    TRACKHEIGHT 21 0 0
    INQ 0 0 0 0.5 100 0 0 100
    NCHAN 2
    FX 0
    TRACKID {EB00AD23-A713-B83F-89DF-6A7A5E35EE1B}
    PERF 0
    MIDIOUT -1
    MAINSEND 1 0
    <FXCHAIN
      WNDRECT 346 266 902 608
      SHOW 0
      LASTSEL 5
      DOCKED 0
      BYPASS 0 0 0
      <VST "VST: ReaEQ (Cockos)" reaeq.vst.so 0 "" 1919247729<56535472656571726561657100000000> ""
        cWVlcu5e7f4CAAAAAQAAAAAAAAACAAAAAAAAAAIAAAABAAAAAAAAAAIAAAAAAAAAqAAAAAEAAAAAABAA
        IQAAAAQAAAAEAAAAAQAAAEC4Xhmm+DRAAAAAAAAA8D8AAAAAAAAAQAEIAAAAAQAAAAAAAAAAwHJAAAAAAAAA8D8AAAAAAAAAQAEIAAAAAQAAAAAAAAAAQI9AAAAAAAAA
        8D8AAAAAAAAAQAEDAAAAAQAAAAABaCorbdRAAAAAAAAA8D8AAAAAAAAAQAEBAAAAAQAAAAAAAAAAAPA/AAAAAJoCAACcAQAA
        AEhpZ2ggbG93IHBhc3MAEAAAAA==
      >
      PRESETNAME "High low pass"
      FLOATPOS 0 0 0 0
      FXID {7BFFB5AB-B3FC-8BFC-C7A3-A8538EB7EBF7}
      WAK 0 0
      BYPASS 0 0 0
      <VST "VSTi: ReaSynth (Cockos)" reasynth.vst.so 0 "" 1919251321<5653547265737972656173796E746800> ""
        eXNlcu9e7f4AAAAAAgAAAAEAAAAAAAAAAgAAAAAAAAA8AAAAAAAAAAAAEAA=
        776t3g3wrd6lm8Q7F7fROgAAAAAAAAAAAAAAAJCNuT3oZ4g9AACAPwAAAD8AAIA/AAAAAAAAAD8AAAAA
        AAAQAAAA
      >
      FLOATPOS 0 0 0 0
      FXID {E10176A4-7932-DD6F-BF33-0FB1DAA482C6}
      WAK 0 0
      BYPASS 0 0 0
      <JS guitar/amp-model ""
        "Dumble Overdrive Special - Tweed Deluxe.wav" -21.000000 1.000000 0.000000 73.000000 256.000000 - - - - - - - - - - - - - - - - - - - - - - - - - - - - - - - - - - - - - - - - - - - - - - - - - - - - - - - - - - 
      >
      FLOATPOS 0 0 0 0
      FXID {636179FF-368A-98C8-AD17-93F2F9E224AA}
      WAK 0 0
      BYPASS 0 0 0
      <VST "VST: ReaComp (Cockos)" reacomp.vst.so 0 "" 1919247213<5653547265636D726561636F6D700000> ""
        bWNlcu9e7f4EAAAAAQAAAAAAAAACAAAAAAAAAAQAAAAAAAAACAAAAAAAAAACAAAAAQAAAAAAAAACAAAAAAAAAFQAAAAAAAAAAAAQAA==
        776t3g3wrd5FoYg9/AWpPKWbxDsK16M8AAAAAAAAAAAAAIA/AAAAAAAAAAAAAAAAnNEHMwAAgD8AAAAAzMxMPQAAAAAAAAAAAAAAAAAAgD7YiZ09
        AAAQAAAA
      >
      FLOATPOS 0 0 0 0
      FXID {C1204D6A-E986-C3F8-8EE8-46DE17FAE556}
      WAK 0 0
      BYPASS 0 0 0
      <VST "VST: ReaDelay (Cockos)" readelay.vst.so 0 "" 1919247468<5653547265646C72656164656C617900> ""
        bGRlcu5e7f4CAAAAAQAAAAAAAAACAAAAAAAAAAIAAAABAAAAAAAAAAIAAAAAAAAA/AAAAAEAAAAAAAAA
        AAAAAAAAAAAFAAAALAAAAAIAAAAEAAAAAACAPwAAgD8AAAAAAACAPwAAAAAAAIA7vTeGNQAAgD8AAAAAAACAPwAAgD8AAIA/AAAAAAAAAAAAAIA/AAAAAAAAADwAAAAA
        AACAPwAAAAAAAIA/AACAP+87NT8AAIA/AAAAAAAAgD8AAAAAAABAPL03hjUAAIA/AAAAAAAAgD8AAIA/zk0AP6abhD4AAAAAAACAPwAAAAAAAIA8vTeGNQAAgD8AAAAA
        AACAPwAAgD8aqrU+pHA9PwAAAAAAAIA/AAAAAAAAoDy9N4Y1AACAPwAAAAAAAIA/AACAP/npAD4AAAA/
        AHN0b2NrIC0gYmFzaWMgNSB0YXAgcGluZyBwb25nAAAAAAA=
      >
      PRESETNAME "stock - basic 5 tap ping pong"
      FLOATPOS 0 0 0 0
      FXID {97936E6D-3EFF-47D3-96A1-CBB442A8AAD4}
      WAK 0 0
      BYPASS 0 0 0
      <VST "VST: ReaVerb (Cockos)" reaverb.vst.so 0 "" 1919252066<56535472657662726561766572620000> ""
        YnZlcu5e7f4CAAAAAQAAAAAAAAACAAAAAAAAAAIAAAABAAAAAAAAAAIAAAAAAAAAcAAAAAEAAAAAAAAA
        AAAAwcybgD4AAIA/AAAAAAAAgD8AAIA/AAAAPwAAgD8AAAAAVkVSQkdFTgAYAAAAAAAAAJHgV0QdrLRA3rK7QsHIjEIAAIC/RUNIT0dFTgAcAAAAy/i2QLUjdUJdzdM/
        osdfP5lRrzyRzYxAnMQAPw==
        AHN3ZWV0dmVyYm8AAAAAAA==
      >
      PRESETNAME sweetverbo
      FLOATPOS 0 0 0 0
      FXID {F0FAA873-F762-1D78-4528-8ED50D2069C0}
      WAK 0 0
    >
    <ITEM
      POSITION 0
      SNAPOFFS 0
      LENGTH 8
      LOOP 1
      ALLTAKES 0
      FADEIN 1 0 0 1 0 0
      FADEOUT 1 0 0 1 0 0
      MUTE 0
      SEL 1
      IGUID {FF8C3163-271A-E353-F5AF-19C7D9AF3AD6}
      IID 10
      NAME "01-Recorded MIDI"
      VOLPAN 1 0 1 -1
      SOFFS 0 0
      PLAYRATE 1 1 0 -1 0 0.0021
      CHANMODE 0
      GUID {5BB5186D-2A41-7169-55BB-4A9C0DA30714}
      RECPASS 1
      <SOURCE MIDI
        HASDATA 1 960 QN
        CCINTERP 32
        POOLEDEVTS {8F8E41C9-E0B9-7A3D-64C2-C2355D5F5FA8}
        E 0 90 3c 48
        E 0 90 40 48
        E 0 90 43 48
        E 1920 80 3c 00
        E 0 80 40 00
        E 0 80 43 00
        E 0 90 3c 48
        E 0 90 40 48
        E 0 90 43 48
        E 260 80 3c 00
        E 0 80 40 00
        E 0 80 43 00
        E 440 90 3c 48
        E 0 90 40 48
        E 0 90 43 48
        E 260 80 3c 00
        E 0 80 40 00
        E 0 80 43 00
        e 514 90 3c 48
        e 0 90 40 48
        e 0 90 43 48
        e 260 80 3c 00
        e 0 80 40 00
        e 0 80 43 00
        E 186 90 43 48
        E 0 90 47 48
        E 20 90 40 48
        E 1900 80 43 00
        E 0 80 47 00
        E 0 80 40 00
        E 0 90 43 48
        E 0 90 47 48
        E 20 90 40 48
        E 240 80 43 00
        E 0 80 47 00
        E 0 80 40 00
        E 440 90 43 48
        E 0 90 47 48
        E 20 90 40 48
        E 240 80 43 00
        E 0 80 47 00
        E 0 80 40 00
        e 514 90 43 48
        e 0 90 47 48
        e 20 90 40 48
        e 240 80 43 00
        e 0 80 47 00
        e 0 80 40 00
        E 186 90 41 48
        E 0 90 45 48
        E 0 90 48 48
        E 1920 80 41 00
        E 0 80 45 00
        E 0 80 48 00
        E 0 90 41 48
        E 0 90 45 48
        E 0 90 48 48
        E 260 80 41 00
        E 0 80 45 00
        E 0 80 48 00
        E 440 90 41 48
        E 0 90 45 48
        E 0 90 48 48
        E 260 80 41 00
        E 0 80 45 00
        E 0 80 48 00
        e 514 90 41 48
        e 0 90 45 48
        e 0 90 48 48
        e 260 80 41 00
        e 0 80 45 00
        e 0 80 48 00
        E 162 90 3e 48
        E 24 90 41 48
        E 0 90 45 48
        E 1896 90 3e 48
        E 24 80 3e 00
        E 0 80 41 00
        E 0 80 45 00
        E 0 90 41 48
        E 0 90 45 48
        E 260 80 3e 00
        E 0 80 41 00
        E 0 80 45 00
        E 416 90 3e 48
        E 24 90 41 48
        E 0 90 45 48
        E 260 80 3e 00
        E 0 80 41 00
        E 0 80 45 00
        e 490 90 3e 48
        e 24 90 41 48
        e 0 90 45 48
        e 260 80 3e 00
        e 0 80 41 00
        e 0 80 45 00
        E 186 b0 7b 00
        CHASE_CC_TAKEOFFS 1
        GUID {7B9D708B-43E1-C8D4-C4B3-87E2A6C27801}
        IGNTEMPO 0 120 4 4
        SRCCOLOR 17
        VELLANE -1 100 0
        CFGEDITVIEW 0 0.045808 45 12 0 -1 0 0 0 0.5
        KEYSNAP 0
        TRACKSEL 0
        EVTFILTER 0 -1 -1 -1 -1 0 0 0 0 -1 -1 -1 -1 0 -1 0 -1 -1
        CFGEDIT 1 1 0 1 0 0 1 1 1 1 1 1 58 171 1253 866 0 0 0 0 0.25 0 0 0 0 0.5 0 0 1 64
      >
    >
    <ITEM
      POSITION 8
      SNAPOFFS 0
      LENGTH 8
      LOOP 1
      ALLTAKES 0
      FADEIN 1 0 0 1 0 0
      FADEOUT 1 0 0 1 0 0
      MUTE 0
      SEL 1
      IGUID {58B716BD-745D-48CD-D16C-07F0869E4D3A}
      IID 11
      NAME "01-Recorded MIDI"
      VOLPAN 1 0 1 -1
      SOFFS 0 0
      PLAYRATE 1 1 0 -1 0 0.0021
      CHANMODE 0
      GUID {C224BDD2-C808-9464-70C1-95802243B3F9}
      RECPASS 1
      <SOURCE MIDI
        HASDATA 1 960 QN
        CCINTERP 32
        POOLEDEVTS {D7E8D4C3-D2C4-C6CC-AC09-CBEE960A9770}
        E 0 90 3c 48
        E 0 90 40 48
        E 0 90 43 48
        E 1920 80 3c 00
        E 0 80 40 00
        E 0 80 43 00
        E 0 90 3c 48
        E 0 90 40 48
        E 0 90 43 48
        E 260 80 3c 00
        E 0 80 40 00
        E 0 80 43 00
        E 440 90 3c 48
        E 0 90 40 48
        E 0 90 43 48
        E 260 80 3c 00
        E 0 80 40 00
        E 0 80 43 00
        e 514 90 3c 48
        e 0 90 40 48
        e 0 90 43 48
        e 260 80 3c 00
        e 0 80 40 00
        e 0 80 43 00
        E 186 90 43 48
        E 0 90 47 48
        E 20 90 40 48
        E 1900 80 43 00
        E 0 80 47 00
        E 0 80 40 00
        E 0 90 43 48
        E 0 90 47 48
        E 20 90 40 48
        E 240 80 43 00
        E 0 80 47 00
        E 0 80 40 00
        E 440 90 43 48
        E 0 90 47 48
        E 20 90 40 48
        E 240 80 43 00
        E 0 80 47 00
        E 0 80 40 00
        e 514 90 43 48
        e 0 90 47 48
        e 20 90 40 48
        e 240 80 43 00
        e 0 80 47 00
        e 0 80 40 00
        E 186 90 41 48
        E 0 90 45 48
        E 0 90 48 48
        E 1920 80 41 00
        E 0 80 45 00
        E 0 80 48 00
        E 0 90 41 48
        E 0 90 45 48
        E 0 90 48 48
        E 260 80 41 00
        E 0 80 45 00
        E 0 80 48 00
        E 440 90 41 48
        E 0 90 45 48
        E 0 90 48 48
        E 260 80 41 00
        E 0 80 45 00
        E 0 80 48 00
        e 514 90 41 48
        e 0 90 45 48
        e 0 90 48 48
        e 260 80 41 00
        e 0 80 45 00
        e 0 80 48 00
        E 162 90 3e 48
        E 24 90 41 48
        E 0 90 45 48
        E 1896 90 3e 48
        E 24 80 3e 00
        E 0 80 41 00
        E 0 80 45 00
        E 0 90 41 48
        E 0 90 45 48
        E 260 80 3e 00
        E 0 80 41 00
        E 0 80 45 00
        E 416 90 3e 48
        E 24 90 41 48
        E 0 90 45 48
        E 260 80 3e 00
        E 0 80 41 00
        E 0 80 45 00
        e 490 90 3e 48
        e 24 90 41 48
        e 0 90 45 48
        e 260 80 3e 00
        e 0 80 41 00
        e 0 80 45 00
        E 186 b0 7b 00
        CHASE_CC_TAKEOFFS 1
        GUID {3131B4E2-B370-E352-A9C5-C8CA31551A86}
        IGNTEMPO 0 120 4 4
        SRCCOLOR 18
        VELLANE -1 100 0
        CFGEDITVIEW 0 0.045808 45 12 0 -1 0 0 0 0.5
        KEYSNAP 0
        TRACKSEL 0
        EVTFILTER 0 -1 -1 -1 -1 0 0 0 0 -1 -1 -1 -1 0 -1 0 -1 -1
        CFGEDIT 1 1 0 1 0 0 1 1 1 1 1 1 58 171 1253 866 0 0 0 0 0.25 0 0 0 0 0.5 0 0 1 64
      >
    >
    <ITEM
      POSITION 16
      SNAPOFFS 0
      LENGTH 8
      LOOP 1
      ALLTAKES 0
      FADEIN 1 0 0 1 0 0
      FADEOUT 1 0 0 1 0 0
      MUTE 0
      SEL 1
      IGUID {917214A2-A443-FD9C-5613-B05037F05F13}
      IID 12
      NAME "01-Recorded MIDI"
      VOLPAN 1 0 1 -1
      SOFFS 0 0
      PLAYRATE 1 1 0 -1 0 0.0021
      CHANMODE 0
      GUID {6122CF8D-FEF6-4ABD-426A-BBF9304BB179}
      RECPASS 1
      <SOURCE MIDI
        HASDATA 1 960 QN
        CCINTERP 32
        POOLEDEVTS {4A0F5566-B38C-8AB4-06F8-F1507BDCE4A7}
        E 0 90 3c 48
        E 0 90 40 48
        E 0 90 43 48
        E 1920 80 3c 00
        E 0 80 40 00
        E 0 80 43 00
        E 0 90 3c 48
        E 0 90 40 48
        E 0 90 43 48
        E 260 80 3c 00
        E 0 80 40 00
        E 0 80 43 00
        E 440 90 3c 48
        E 0 90 40 48
        E 0 90 43 48
        E 260 80 3c 00
        E 0 80 40 00
        E 0 80 43 00
        e 514 90 3c 48
        e 0 90 40 48
        e 0 90 43 48
        e 260 80 3c 00
        e 0 80 40 00
        e 0 80 43 00
        E 186 90 43 48
        E 0 90 47 48
        E 20 90 40 48
        E 1900 80 43 00
        E 0 80 47 00
        E 0 80 40 00
        E 0 90 43 48
        E 0 90 47 48
        E 20 90 40 48
        E 240 80 43 00
        E 0 80 47 00
        E 0 80 40 00
        E 440 90 43 48
        E 0 90 47 48
        E 20 90 40 48
        E 240 80 43 00
        E 0 80 47 00
        E 0 80 40 00
        e 514 90 43 48
        e 0 90 47 48
        e 20 90 40 48
        e 240 80 43 00
        e 0 80 47 00
        e 0 80 40 00
        E 186 90 41 48
        E 0 90 45 48
        E 0 90 48 48
        E 1920 80 41 00
        E 0 80 45 00
        E 0 80 48 00
        E 0 90 41 48
        E 0 90 45 48
        E 0 90 48 48
        E 260 80 41 00
        E 0 80 45 00
        E 0 80 48 00
        E 440 90 41 48
        E 0 90 45 48
        E 0 90 48 48
        E 260 80 41 00
        E 0 80 45 00
        E 0 80 48 00
        e 514 90 41 48
        e 0 90 45 48
        e 0 90 48 48
        e 260 80 41 00
        e 0 80 45 00
        e 0 80 48 00
        E 162 90 3e 48
        E 24 90 41 48
        E 0 90 45 48
        E 1896 90 3e 48
        E 24 80 3e 00
        E 0 80 41 00
        E 0 80 45 00
        E 0 90 41 48
        E 0 90 45 48
        E 260 80 3e 00
        E 0 80 41 00
        E 0 80 45 00
        E 416 90 3e 48
        E 24 90 41 48
        E 0 90 45 48
        E 260 80 3e 00
        E 0 80 41 00
        E 0 80 45 00
        e 490 90 3e 48
        e 24 90 41 48
        e 0 90 45 48
        e 260 80 3e 00
        e 0 80 41 00
        e 0 80 45 00
        E 186 b0 7b 00
        CHASE_CC_TAKEOFFS 1
        GUID {48C567A2-895C-FB9B-FDBA-0ADB7004ABF3}
        IGNTEMPO 0 120 4 4
        SRCCOLOR 19
        VELLANE -1 100 0
        CFGEDITVIEW 0 0.045808 45 12 0 -1 0 0 0 0.5
        KEYSNAP 0
        TRACKSEL 0
        EVTFILTER 0 -1 -1 -1 -1 0 0 0 0 -1 -1 -1 -1 0 -1 0 -1 -1
        CFGEDIT 1 1 0 1 0 0 1 1 1 1 1 1 58 171 1253 866 0 0 0 0 0.25 0 0 0 0 0.5 0 0 1 64
      >
    >
    <ITEM
      POSITION 24
      SNAPOFFS 0
      LENGTH 8
      LOOP 1
      ALLTAKES 0
      FADEIN 1 0 0 1 0 0
      FADEOUT 1 0 0 1 0 0
      MUTE 0
      SEL 1
      IGUID {19749E2E-5ECD-A07C-CE67-D20B529C4F4C}
      IID 13
      NAME "01-Recorded MIDI"
      VOLPAN 1 0 1 -1
      SOFFS 0 0
      PLAYRATE 1 1 0 -1 0 0.0021
      CHANMODE 0
      GUID {51D2BC87-B7FD-B58B-CD73-8116C0ED0548}
      RECPASS 1
      <SOURCE MIDI
        HASDATA 1 960 QN
        CCINTERP 32
        POOLEDEVTS {D1DB519D-7D4F-FA6A-6C64-A1081742A455}
        E 0 90 3c 48
        E 0 90 40 48
        E 0 90 43 48
        E 1920 80 3c 00
        E 0 80 40 00
        E 0 80 43 00
        E 0 90 3c 48
        E 0 90 40 48
        E 0 90 43 48
        E 260 80 3c 00
        E 0 80 40 00
        E 0 80 43 00
        E 440 90 3c 48
        E 0 90 40 48
        E 0 90 43 48
        E 260 80 3c 00
        E 0 80 40 00
        E 0 80 43 00
        e 514 90 3c 48
        e 0 90 40 48
        e 0 90 43 48
        e 260 80 3c 00
        e 0 80 40 00
        e 0 80 43 00
        E 186 90 43 48
        E 0 90 47 48
        E 20 90 40 48
        E 1900 80 43 00
        E 0 80 47 00
        E 0 80 40 00
        E 0 90 43 48
        E 0 90 47 48
        E 20 90 40 48
        E 240 80 43 00
        E 0 80 47 00
        E 0 80 40 00
        E 440 90 43 48
        E 0 90 47 48
        E 20 90 40 48
        E 240 80 43 00
        E 0 80 47 00
        E 0 80 40 00
        e 514 90 43 48
        e 0 90 47 48
        e 20 90 40 48
        e 240 80 43 00
        e 0 80 47 00
        e 0 80 40 00
        E 186 90 41 48
        E 0 90 45 48
        E 0 90 48 48
        E 1920 80 41 00
        E 0 80 45 00
        E 0 80 48 00
        E 0 90 41 48
        E 0 90 45 48
        E 0 90 48 48
        E 260 80 41 00
        E 0 80 45 00
        E 0 80 48 00
        E 440 90 41 48
        E 0 90 45 48
        E 0 90 48 48
        E 260 80 41 00
        E 0 80 45 00
        E 0 80 48 00
        e 514 90 41 48
        e 0 90 45 48
        e 0 90 48 48
        e 260 80 41 00
        e 0 80 45 00
        e 0 80 48 00
        E 162 90 3e 48
        E 24 90 41 48
        E 0 90 45 48
        E 1896 90 3e 48
        E 24 80 3e 00
        E 0 80 41 00
        E 0 80 45 00
        E 0 90 41 48
        E 0 90 45 48
        E 260 80 3e 00
        E 0 80 41 00
        E 0 80 45 00
        E 416 90 3e 48
        E 24 90 41 48
        E 0 90 45 48
        E 260 80 3e 00
        E 0 80 41 00
        E 0 80 45 00
        e 490 90 3e 48
        e 24 90 41 48
        e 0 90 45 48
        e 260 80 3e 00
        e 0 80 41 00
        e 0 80 45 00
        E 186 b0 7b 00
        CHASE_CC_TAKEOFFS 1
        GUID {1DE38800-E2A1-41B5-9C8C-3291891093B1}
        IGNTEMPO 0 120 4 4
        SRCCOLOR 20
        VELLANE -1 100 0
        CFGEDITVIEW 0 0.045808 45 12 0 -1 0 0 0 0.5
        KEYSNAP 0
        TRACKSEL 0
        EVTFILTER 0 -1 -1 -1 -1 0 0 0 0 -1 -1 -1 -1 0 -1 0 -1 -1
        CFGEDIT 1 1 0 1 0 0 1 1 1 1 1 1 58 171 1253 866 0 0 0 0 0.25 0 0 0 0 0.5 0 0 1 64
      >
    >
    <ITEM
      POSITION 32
      SNAPOFFS 0
      LENGTH 8
      LOOP 1
      ALLTAKES 0
      FADEIN 1 0 0 1 0 0
      FADEOUT 1 0 0 1 0 0
      MUTE 0
      SEL 1
      IGUID {EC937347-6746-15D1-63DC-9DBE421E0AEB}
      IID 14
      NAME "01-Recorded MIDI"
      VOLPAN 1 0 1 -1
      SOFFS 0 0
      PLAYRATE 1 1 0 -1 0 0.0021
      CHANMODE 0
      GUID {2B02CAC0-4423-B8DE-B98A-8E964F33B43D}
      RECPASS 1
      <SOURCE MIDI
        HASDATA 1 960 QN
        CCINTERP 32
        POOLEDEVTS {04BCD878-5E49-8845-8220-8215B1A9B3F9}
        E 0 90 3c 48
        E 0 90 40 48
        E 0 90 43 48
        E 1920 80 3c 00
        E 0 80 40 00
        E 0 80 43 00
        E 0 90 3c 48
        E 0 90 40 48
        E 0 90 43 48
        E 260 80 3c 00
        E 0 80 40 00
        E 0 80 43 00
        E 440 90 3c 48
        E 0 90 40 48
        E 0 90 43 48
        E 260 80 3c 00
        E 0 80 40 00
        E 0 80 43 00
        e 514 90 3c 48
        e 0 90 40 48
        e 0 90 43 48
        e 260 80 3c 00
        e 0 80 40 00
        e 0 80 43 00
        E 186 90 43 48
        E 0 90 47 48
        E 20 90 40 48
        E 1900 80 43 00
        E 0 80 47 00
        E 0 80 40 00
        E 0 90 43 48
        E 0 90 47 48
        E 20 90 40 48
        E 240 80 43 00
        E 0 80 47 00
        E 0 80 40 00
        E 440 90 43 48
        E 0 90 47 48
        E 20 90 40 48
        E 240 80 43 00
        E 0 80 47 00
        E 0 80 40 00
        e 514 90 43 48
        e 0 90 47 48
        e 20 90 40 48
        e 240 80 43 00
        e 0 80 47 00
        e 0 80 40 00
        E 186 90 41 48
        E 0 90 45 48
        E 0 90 48 48
        E 1920 80 41 00
        E 0 80 45 00
        E 0 80 48 00
        E 0 90 41 48
        E 0 90 45 48
        E 0 90 48 48
        E 260 80 41 00
        E 0 80 45 00
        E 0 80 48 00
        E 440 90 41 48
        E 0 90 45 48
        E 0 90 48 48
        E 260 80 41 00
        E 0 80 45 00
        E 0 80 48 00
        e 514 90 41 48
        e 0 90 45 48
        e 0 90 48 48
        e 260 80 41 00
        e 0 80 45 00
        e 0 80 48 00
        E 162 90 3e 48
        E 24 90 41 48
        E 0 90 45 48
        E 1896 90 3e 48
        E 24 80 3e 00
        E 0 80 41 00
        E 0 80 45 00
        E 0 90 41 48
        E 0 90 45 48
        E 260 80 3e 00
        E 0 80 41 00
        E 0 80 45 00
        E 416 90 3e 48
        E 24 90 41 48
        E 0 90 45 48
        E 260 80 3e 00
        E 0 80 41 00
        E 0 80 45 00
        e 490 90 3e 48
        e 24 90 41 48
        e 0 90 45 48
        e 260 80 3e 00
        e 0 80 41 00
        e 0 80 45 00
        E 186 b0 7b 00
        CHASE_CC_TAKEOFFS 1
        GUID {0C3271F4-E233-9088-9B25-A722FAE7C579}
        IGNTEMPO 0 120 4 4
        SRCCOLOR 21
        VELLANE -1 100 0
        CFGEDITVIEW 0 0.045808 45 12 0 -1 0 0 0 0.5
        KEYSNAP 0
        TRACKSEL 0
        EVTFILTER 0 -1 -1 -1 -1 0 0 0 0 -1 -1 -1 -1 0 -1 0 -1 -1
        CFGEDIT 1 1 0 1 0 0 1 1 1 1 1 1 58 171 1253 866 0 0 0 0 0.25 0 0 0 0 0.5 0 0 1 64
      >
    >
    <ITEM
      POSITION 40
      SNAPOFFS 0
      LENGTH 8
      LOOP 1
      ALLTAKES 0
      FADEIN 1 0 0 1 0 0
      FADEOUT 1 0 0 1 0 0
      MUTE 0
      SEL 1
      IGUID {648457C0-CB91-E1BA-644C-15233E14E4E1}
      IID 15
      NAME "01-Recorded MIDI"
      VOLPAN 1 0 1 -1
      SOFFS 0 0
      PLAYRATE 1 1 0 -1 0 0.0021
      CHANMODE 0
      GUID {E1CFA928-0401-3EC8-F374-6F2EEC1BABCE}
      RECPASS 1
      <SOURCE MIDI
        HASDATA 1 960 QN
        CCINTERP 32
        POOLEDEVTS {7103C51D-8E98-7E8F-8778-0EC80B8AA019}
        E 0 90 3c 48
        E 0 90 40 48
        E 0 90 43 48
        E 1920 80 3c 00
        E 0 80 40 00
        E 0 80 43 00
        E 0 90 3c 48
        E 0 90 40 48
        E 0 90 43 48
        E 260 80 3c 00
        E 0 80 40 00
        E 0 80 43 00
        E 440 90 3c 48
        E 0 90 40 48
        E 0 90 43 48
        E 260 80 3c 00
        E 0 80 40 00
        E 0 80 43 00
        e 514 90 3c 48
        e 0 90 40 48
        e 0 90 43 48
        e 260 80 3c 00
        e 0 80 40 00
        e 0 80 43 00
        E 186 90 43 48
        E 0 90 47 48
        E 20 90 40 48
        E 1900 80 43 00
        E 0 80 47 00
        E 0 80 40 00
        E 0 90 43 48
        E 0 90 47 48
        E 20 90 40 48
        E 240 80 43 00
        E 0 80 47 00
        E 0 80 40 00
        E 440 90 43 48
        E 0 90 47 48
        E 20 90 40 48
        E 240 80 43 00
        E 0 80 47 00
        E 0 80 40 00
        e 514 90 43 48
        e 0 90 47 48
        e 20 90 40 48
        e 240 80 43 00
        e 0 80 47 00
        e 0 80 40 00
        E 186 90 41 48
        E 0 90 45 48
        E 0 90 48 48
        E 1920 80 41 00
        E 0 80 45 00
        E 0 80 48 00
        E 0 90 41 48
        E 0 90 45 48
        E 0 90 48 48
        E 260 80 41 00
        E 0 80 45 00
        E 0 80 48 00
        E 440 90 41 48
        E 0 90 45 48
        E 0 90 48 48
        E 260 80 41 00
        E 0 80 45 00
        E 0 80 48 00
        e 514 90 41 48
        e 0 90 45 48
        e 0 90 48 48
        e 260 80 41 00
        e 0 80 45 00
        e 0 80 48 00
        E 162 90 3e 48
        E 24 90 41 48
        E 0 90 45 48
        E 1896 90 3e 48
        E 24 80 3e 00
        E 0 80 41 00
        E 0 80 45 00
        E 0 90 41 48
        E 0 90 45 48
        E 260 80 3e 00
        E 0 80 41 00
        E 0 80 45 00
        E 416 90 3e 48
        E 24 90 41 48
        E 0 90 45 48
        E 260 80 3e 00
        E 0 80 41 00
        E 0 80 45 00
        e 490 90 3e 48
        e 24 90 41 48
        e 0 90 45 48
        e 260 80 3e 00
        e 0 80 41 00
        e 0 80 45 00
        E 186 b0 7b 00
        CHASE_CC_TAKEOFFS 1
        GUID {040E7AF8-3572-5D91-3C86-797AEE7444D4}
        IGNTEMPO 0 120 4 4
        SRCCOLOR 22
        VELLANE -1 100 0
        CFGEDITVIEW 0 0.045808 45 12 0 -1 0 0 0 0.5
        KEYSNAP 0
        TRACKSEL 0
        EVTFILTER 0 -1 -1 -1 -1 0 0 0 0 -1 -1 -1 -1 0 -1 0 -1 -1
        CFGEDIT 1 1 0 1 0 0 1 1 1 1 1 1 58 171 1253 866 0 0 0 0 0.25 0 0 0 0 0.5 0 0 1 64
      >
    >
    <ITEM
      POSITION 48
      SNAPOFFS 0
      LENGTH 8
      LOOP 1
      ALLTAKES 0
      FADEIN 1 0 0 1 0 0
      FADEOUT 1 0 0 1 0 0
      MUTE 0
      SEL 1
      IGUID {E2B0E09E-B203-CEE4-7173-FB75DEB4E02A}
      IID 16
      NAME "01-Recorded MIDI"
      VOLPAN 1 0 1 -1
      SOFFS 0 0
      PLAYRATE 1 1 0 -1 0 0.0021
      CHANMODE 0
      GUID {E810B937-BDFA-B0F3-D013-363303B89D9E}
      RECPASS 1
      <SOURCE MIDI
        HASDATA 1 960 QN
        CCINTERP 32
        POOLEDEVTS {020E5D05-58AE-5F0A-C5FC-00B81F9AFACF}
        E 0 90 3c 48
        E 0 90 40 48
        E 0 90 43 48
        E 1920 80 3c 00
        E 0 80 40 00
        E 0 80 43 00
        E 0 90 3c 48
        E 0 90 40 48
        E 0 90 43 48
        E 260 80 3c 00
        E 0 80 40 00
        E 0 80 43 00
        E 440 90 3c 48
        E 0 90 40 48
        E 0 90 43 48
        E 260 80 3c 00
        E 0 80 40 00
        E 0 80 43 00
        e 514 90 3c 48
        e 0 90 40 48
        e 0 90 43 48
        e 260 80 3c 00
        e 0 80 40 00
        e 0 80 43 00
        E 186 90 43 48
        E 0 90 47 48
        E 20 90 40 48
        E 1900 80 43 00
        E 0 80 47 00
        E 0 80 40 00
        E 0 90 43 48
        E 0 90 47 48
        E 20 90 40 48
        E 240 80 43 00
        E 0 80 47 00
        E 0 80 40 00
        E 440 90 43 48
        E 0 90 47 48
        E 20 90 40 48
        E 240 80 43 00
        E 0 80 47 00
        E 0 80 40 00
        e 514 90 43 48
        e 0 90 47 48
        e 20 90 40 48
        e 240 80 43 00
        e 0 80 47 00
        e 0 80 40 00
        E 186 90 41 48
        E 0 90 45 48
        E 0 90 48 48
        E 1920 80 41 00
        E 0 80 45 00
        E 0 80 48 00
        E 0 90 41 48
        E 0 90 45 48
        E 0 90 48 48
        E 260 80 41 00
        E 0 80 45 00
        E 0 80 48 00
        E 440 90 41 48
        E 0 90 45 48
        E 0 90 48 48
        E 260 80 41 00
        E 0 80 45 00
        E 0 80 48 00
        e 514 90 41 48
        e 0 90 45 48
        e 0 90 48 48
        e 260 80 41 00
        e 0 80 45 00
        e 0 80 48 00
        E 162 90 3e 48
        E 24 90 41 48
        E 0 90 45 48
        E 1896 90 3e 48
        E 24 80 3e 00
        E 0 80 41 00
        E 0 80 45 00
        E 0 90 41 48
        E 0 90 45 48
        E 260 80 3e 00
        E 0 80 41 00
        E 0 80 45 00
        E 416 90 3e 48
        E 24 90 41 48
        E 0 90 45 48
        E 260 80 3e 00
        E 0 80 41 00
        E 0 80 45 00
        e 490 90 3e 48
        e 24 90 41 48
        e 0 90 45 48
        e 260 80 3e 00
        e 0 80 41 00
        e 0 80 45 00
        E 186 b0 7b 00
        CHASE_CC_TAKEOFFS 1
        GUID {2338968B-6CF9-9F40-300F-DEB89D3392EA}
        IGNTEMPO 0 120 4 4
        SRCCOLOR 23
        VELLANE -1 100 0
        CFGEDITVIEW 0 0.045808 45 12 0 -1 0 0 0 0.5
        KEYSNAP 0
        TRACKSEL 0
        EVTFILTER 0 -1 -1 -1 -1 0 0 0 0 -1 -1 -1 -1 0 -1 0 -1 -1
        CFGEDIT 1 1 0 1 0 0 1 1 1 1 1 1 58 171 1253 866 0 0 0 0 0.25 0 0 0 0 0.5 0 0 1 64
      >
    >
    <ITEM
      POSITION 56
      SNAPOFFS 0
      LENGTH 8
      LOOP 1
      ALLTAKES 0
      FADEIN 1 0 0 1 0 0
      FADEOUT 1 0 0 1 0 0
      MUTE 0
      SEL 1
      IGUID {E85E755A-7BA6-E125-5A86-BDD9F11BF5F4}
      IID 17
      NAME "01-Recorded MIDI"
      VOLPAN 1 0 1 -1
      SOFFS 0 0
      PLAYRATE 1 1 0 -1 0 0.0021
      CHANMODE 0
      GUID {E7316FD7-AE32-687E-1CEF-A52C5EFB18C4}
      RECPASS 1
      <SOURCE MIDI
        HASDATA 1 960 QN
        CCINTERP 32
        POOLEDEVTS {B453988B-72A7-26C3-9669-B0AADF389823}
        E 0 90 3c 48
        E 0 90 40 48
        E 0 90 43 48
        E 1920 80 3c 00
        E 0 80 40 00
        E 0 80 43 00
        E 0 90 3c 48
        E 0 90 40 48
        E 0 90 43 48
        E 260 80 3c 00
        E 0 80 40 00
        E 0 80 43 00
        E 440 90 3c 48
        E 0 90 40 48
        E 0 90 43 48
        E 260 80 3c 00
        E 0 80 40 00
        E 0 80 43 00
        e 514 90 3c 48
        e 0 90 40 48
        e 0 90 43 48
        e 260 80 3c 00
        e 0 80 40 00
        e 0 80 43 00
        E 186 90 43 48
        E 0 90 47 48
        E 20 90 40 48
        E 1900 80 43 00
        E 0 80 47 00
        E 0 80 40 00
        E 0 90 43 48
        E 0 90 47 48
        E 20 90 40 48
        E 240 80 43 00
        E 0 80 47 00
        E 0 80 40 00
        E 440 90 43 48
        E 0 90 47 48
        E 20 90 40 48
        E 240 80 43 00
        E 0 80 47 00
        E 0 80 40 00
        e 514 90 43 48
        e 0 90 47 48
        e 20 90 40 48
        e 240 80 43 00
        e 0 80 47 00
        e 0 80 40 00
        E 186 90 41 48
        E 0 90 45 48
        E 0 90 48 48
        E 1920 80 41 00
        E 0 80 45 00
        E 0 80 48 00
        E 0 90 41 48
        E 0 90 45 48
        E 0 90 48 48
        E 260 80 41 00
        E 0 80 45 00
        E 0 80 48 00
        E 440 90 41 48
        E 0 90 45 48
        E 0 90 48 48
        E 260 80 41 00
        E 0 80 45 00
        E 0 80 48 00
        e 514 90 41 48
        e 0 90 45 48
        e 0 90 48 48
        e 260 80 41 00
        e 0 80 45 00
        e 0 80 48 00
        E 162 90 3e 48
        E 24 90 41 48
        E 0 90 45 48
        E 1896 90 3e 48
        E 24 80 3e 00
        E 0 80 41 00
        E 0 80 45 00
        E 0 90 41 48
        E 0 90 45 48
        E 260 80 3e 00
        E 0 80 41 00
        E 0 80 45 00
        E 416 90 3e 48
        E 24 90 41 48
        E 0 90 45 48
        E 260 80 3e 00
        E 0 80 41 00
        E 0 80 45 00
        e 490 90 3e 48
        e 24 90 41 48
        e 0 90 45 48
        e 260 80 3e 00
        e 0 80 41 00
        e 0 80 45 00
        E 186 b0 7b 00
        CHASE_CC_TAKEOFFS 1
        GUID {A64857E2-94F8-0990-20DF-4C1E9B5E6251}
        IGNTEMPO 0 120 4 4
        SRCCOLOR 24
        VELLANE -1 100 0
        CFGEDITVIEW 0 0.045808 45 12 0 -1 0 0 0 0.5
        KEYSNAP 0
        TRACKSEL 0
        EVTFILTER 0 -1 -1 -1 -1 0 0 0 0 -1 -1 -1 -1 0 -1 0 -1 -1
        CFGEDIT 1 1 0 1 0 0 1 1 1 1 1 1 58 171 1253 866 0 0 0 0 0.25 0 0 0 0 0.5 0 0 1 64
      >
    >
    <ITEM
      POSITION 64
      SNAPOFFS 0
      LENGTH 8
      LOOP 1
      ALLTAKES 0
      FADEIN 1 0 0 1 0 0
      FADEOUT 1 0 0 1 0 0
      MUTE 0
      SEL 1
      IGUID {35126DB0-C6D9-2DA4-D3AE-29E5BB0CA966}
      IID 18
      NAME "01-Recorded MIDI"
      VOLPAN 1 0 1 -1
      SOFFS 0 0
      PLAYRATE 1 1 0 -1 0 0.0021
      CHANMODE 0
      GUID {ECA01AC2-64E0-BA80-5BED-CBE0920A2515}
      RECPASS 1
      <SOURCE MIDI
        HASDATA 1 960 QN
        CCINTERP 32
        POOLEDEVTS {689EDED2-1592-62F1-D296-C29BB3202908}
        E 0 90 3c 48
        E 0 90 40 48
        E 0 90 43 48
        E 1920 80 3c 00
        E 0 80 40 00
        E 0 80 43 00
        E 0 90 3c 48
        E 0 90 40 48
        E 0 90 43 48
        E 260 80 3c 00
        E 0 80 40 00
        E 0 80 43 00
        E 440 90 3c 48
        E 0 90 40 48
        E 0 90 43 48
        E 260 80 3c 00
        E 0 80 40 00
        E 0 80 43 00
        e 514 90 3c 48
        e 0 90 40 48
        e 0 90 43 48
        e 260 80 3c 00
        e 0 80 40 00
        e 0 80 43 00
        E 186 90 43 48
        E 0 90 47 48
        E 20 90 40 48
        E 1900 80 43 00
        E 0 80 47 00
        E 0 80 40 00
        E 0 90 43 48
        E 0 90 47 48
        E 20 90 40 48
        E 240 80 43 00
        E 0 80 47 00
        E 0 80 40 00
        E 440 90 43 48
        E 0 90 47 48
        E 20 90 40 48
        E 240 80 43 00
        E 0 80 47 00
        E 0 80 40 00
        e 514 90 43 48
        e 0 90 47 48
        e 20 90 40 48
        e 240 80 43 00
        e 0 80 47 00
        e 0 80 40 00
        E 186 90 41 48
        E 0 90 45 48
        E 0 90 48 48
        E 1920 80 41 00
        E 0 80 45 00
        E 0 80 48 00
        E 0 90 41 48
        E 0 90 45 48
        E 0 90 48 48
        E 260 80 41 00
        E 0 80 45 00
        E 0 80 48 00
        E 440 90 41 48
        E 0 90 45 48
        E 0 90 48 48
        E 260 80 41 00
        E 0 80 45 00
        E 0 80 48 00
        e 514 90 41 48
        e 0 90 45 48
        e 0 90 48 48
        e 260 80 41 00
        e 0 80 45 00
        e 0 80 48 00
        E 162 90 3e 48
        E 24 90 41 48
        E 0 90 45 48
        E 1896 90 3e 48
        E 24 80 3e 00
        E 0 80 41 00
        E 0 80 45 00
        E 0 90 41 48
        E 0 90 45 48
        E 260 80 3e 00
        E 0 80 41 00
        E 0 80 45 00
        E 416 90 3e 48
        E 24 90 41 48
        E 0 90 45 48
        E 260 80 3e 00
        E 0 80 41 00
        E 0 80 45 00
        e 490 90 3e 48
        e 24 90 41 48
        e 0 90 45 48
        e 260 80 3e 00
        e 0 80 41 00
        e 0 80 45 00
        E 186 b0 7b 00
        CHASE_CC_TAKEOFFS 1
        GUID {19362806-85F2-5D9E-E1F9-07BE0CF3D16E}
        IGNTEMPO 0 120 4 4
        SRCCOLOR 25
        VELLANE -1 100 0
        CFGEDITVIEW 0 0.045808 45 12 0 -1 0 0 0 0.5
        KEYSNAP 0
        TRACKSEL 0
        EVTFILTER 0 -1 -1 -1 -1 0 0 0 0 -1 -1 -1 -1 0 -1 0 -1 -1
        CFGEDIT 1 1 0 1 0 0 1 1 1 1 1 1 58 171 1253 866 0 0 0 0 0.25 0 0 0 0 0.5 0 0 1 64
      >
    >
    <ITEM
      POSITION 72
      SNAPOFFS 0
      LENGTH 8
      LOOP 1
      ALLTAKES 0
      FADEIN 1 0 0 1 0 0
      FADEOUT 1 0 0 1 0 0
      MUTE 0
      SEL 1
      IGUID {C1D3E4B4-4597-430B-618A-AAC2C505F0BD}
      IID 19
      NAME "01-Recorded MIDI"
      VOLPAN 1 0 1 -1
      SOFFS 0 0
      PLAYRATE 1 1 0 -1 0 0.0021
      CHANMODE 0
      GUID {9C5DCCDE-D07C-2792-18D9-F51376B514EC}
      RECPASS 1
      <SOURCE MIDI
        HASDATA 1 960 QN
        CCINTERP 32
        POOLEDEVTS {24E26C7D-C825-51D8-80EA-A011A4448796}
        E 0 90 3c 48
        E 0 90 40 48
        E 0 90 43 48
        E 1920 80 3c 00
        E 0 80 40 00
        E 0 80 43 00
        E 0 90 3c 48
        E 0 90 40 48
        E 0 90 43 48
        E 260 80 3c 00
        E 0 80 40 00
        E 0 80 43 00
        E 440 90 3c 48
        E 0 90 40 48
        E 0 90 43 48
        E 260 80 3c 00
        E 0 80 40 00
        E 0 80 43 00
        e 514 90 3c 48
        e 0 90 40 48
        e 0 90 43 48
        e 260 80 3c 00
        e 0 80 40 00
        e 0 80 43 00
        E 186 90 43 48
        E 0 90 47 48
        E 20 90 40 48
        E 1900 80 43 00
        E 0 80 47 00
        E 0 80 40 00
        E 0 90 43 48
        E 0 90 47 48
        E 20 90 40 48
        E 240 80 43 00
        E 0 80 47 00
        E 0 80 40 00
        E 440 90 43 48
        E 0 90 47 48
        E 20 90 40 48
        E 240 80 43 00
        E 0 80 47 00
        E 0 80 40 00
        e 514 90 43 48
        e 0 90 47 48
        e 20 90 40 48
        e 240 80 43 00
        e 0 80 47 00
        e 0 80 40 00
        E 186 90 41 48
        E 0 90 45 48
        E 0 90 48 48
        E 1920 80 41 00
        E 0 80 45 00
        E 0 80 48 00
        E 0 90 41 48
        E 0 90 45 48
        E 0 90 48 48
        E 260 80 41 00
        E 0 80 45 00
        E 0 80 48 00
        E 440 90 41 48
        E 0 90 45 48
        E 0 90 48 48
        E 260 80 41 00
        E 0 80 45 00
        E 0 80 48 00
        e 514 90 41 48
        e 0 90 45 48
        e 0 90 48 48
        e 260 80 41 00
        e 0 80 45 00
        e 0 80 48 00
        E 162 90 3e 48
        E 24 90 41 48
        E 0 90 45 48
        E 1896 90 3e 48
        E 24 80 3e 00
        E 0 80 41 00
        E 0 80 45 00
        E 0 90 41 48
        E 0 90 45 48
        E 260 80 3e 00
        E 0 80 41 00
        E 0 80 45 00
        E 416 90 3e 48
        E 24 90 41 48
        E 0 90 45 48
        E 260 80 3e 00
        E 0 80 41 00
        E 0 80 45 00
        e 490 90 3e 48
        e 24 90 41 48
        e 0 90 45 48
        e 260 80 3e 00
        e 0 80 41 00
        e 0 80 45 00
        E 186 b0 7b 00
        CHASE_CC_TAKEOFFS 1
        GUID {6844F8A9-6BE9-023C-4A46-0A676470C99B}
        IGNTEMPO 0 120 4 4
        SRCCOLOR 26
        VELLANE -1 100 0
        CFGEDITVIEW 0 0.045808 45 12 0 -1 0 0 0 0.5
        KEYSNAP 0
        TRACKSEL 0
        EVTFILTER 0 -1 -1 -1 -1 0 0 0 0 -1 -1 -1 -1 0 -1 0 -1 -1
        CFGEDIT 1 1 0 1 0 0 1 1 1 1 1 1 58 171 1253 866 0 0 0 0 0.25 0 0 0 0 0.5 0 0 1 64
      >
    >
    <ITEM
      POSITION 80
      SNAPOFFS 0
      LENGTH 8
      LOOP 1
      ALLTAKES 0
      FADEIN 1 0 0 1 0 0
      FADEOUT 1 0 0 1 0 0
      MUTE 0
      SEL 1
      IGUID {31FD984C-1242-B09D-15E2-6C454481E005}
      IID 20
      NAME "01-Recorded MIDI"
      VOLPAN 1 0 1 -1
      SOFFS 0 0
      PLAYRATE 1 1 0 -1 0 0.0021
      CHANMODE 0
      GUID {03E68161-49F3-0D9B-079A-B9F45659216D}
      RECPASS 1
      <SOURCE MIDI
        HASDATA 1 960 QN
        CCINTERP 32
        POOLEDEVTS {A09D5792-2D5F-C01A-FF70-893499A4C91C}
        E 0 90 3c 48
        E 0 90 40 48
        E 0 90 43 48
        E 1920 80 3c 00
        E 0 80 40 00
        E 0 80 43 00
        E 0 90 3c 48
        E 0 90 40 48
        E 0 90 43 48
        E 260 80 3c 00
        E 0 80 40 00
        E 0 80 43 00
        E 440 90 3c 48
        E 0 90 40 48
        E 0 90 43 48
        E 260 80 3c 00
        E 0 80 40 00
        E 0 80 43 00
        e 514 90 3c 48
        e 0 90 40 48
        e 0 90 43 48
        e 260 80 3c 00
        e 0 80 40 00
        e 0 80 43 00
        E 186 90 43 48
        E 0 90 47 48
        E 20 90 40 48
        E 1900 80 43 00
        E 0 80 47 00
        E 0 80 40 00
        E 0 90 43 48
        E 0 90 47 48
        E 20 90 40 48
        E 240 80 43 00
        E 0 80 47 00
        E 0 80 40 00
        E 440 90 43 48
        E 0 90 47 48
        E 20 90 40 48
        E 240 80 43 00
        E 0 80 47 00
        E 0 80 40 00
        e 514 90 43 48
        e 0 90 47 48
        e 20 90 40 48
        e 240 80 43 00
        e 0 80 47 00
        e 0 80 40 00
        E 186 90 41 48
        E 0 90 45 48
        E 0 90 48 48
        E 1920 80 41 00
        E 0 80 45 00
        E 0 80 48 00
        E 0 90 41 48
        E 0 90 45 48
        E 0 90 48 48
        E 260 80 41 00
        E 0 80 45 00
        E 0 80 48 00
        E 440 90 41 48
        E 0 90 45 48
        E 0 90 48 48
        E 260 80 41 00
        E 0 80 45 00
        E 0 80 48 00
        e 514 90 41 48
        e 0 90 45 48
        e 0 90 48 48
        e 260 80 41 00
        e 0 80 45 00
        e 0 80 48 00
        E 162 90 3e 48
        E 24 90 41 48
        E 0 90 45 48
        E 1896 90 3e 48
        E 24 80 3e 00
        E 0 80 41 00
        E 0 80 45 00
        E 0 90 41 48
        E 0 90 45 48
        E 260 80 3e 00
        E 0 80 41 00
        E 0 80 45 00
        E 416 90 3e 48
        E 24 90 41 48
        E 0 90 45 48
        E 260 80 3e 00
        E 0 80 41 00
        E 0 80 45 00
        e 490 90 3e 48
        e 24 90 41 48
        e 0 90 45 48
        e 260 80 3e 00
        e 0 80 41 00
        e 0 80 45 00
        E 186 b0 7b 00
        CHASE_CC_TAKEOFFS 1
        GUID {E611ADB6-4869-6CCA-8E83-3954D5E743B1}
        IGNTEMPO 0 120 4 4
        SRCCOLOR 27
        VELLANE -1 100 0
        CFGEDITVIEW 0 0.045808 45 12 0 -1 0 0 0 0.5
        KEYSNAP 0
        TRACKSEL 0
        EVTFILTER 0 -1 -1 -1 -1 0 0 0 0 -1 -1 -1 -1 0 -1 0 -1 -1
        CFGEDIT 1 1 0 1 0 0 1 1 1 1 1 1 58 171 1253 866 0 0 0 0 0.25 0 0 0 0 0.5 0 0 1 64
      >
    >
    <ITEM
      POSITION 88
      SNAPOFFS 0
      LENGTH 8
      LOOP 1
      ALLTAKES 0
      FADEIN 1 0 0 1 0 0
      FADEOUT 1 0 0 1 0 0
      MUTE 0
      SEL 1
      IGUID {6AECBF0F-394D-AF53-1201-224C4B0185A5}
      IID 21
      NAME "01-Recorded MIDI"
      VOLPAN 1 0 1 -1
      SOFFS 0 0
      PLAYRATE 1 1 0 -1 0 0.0021
      CHANMODE 0
      GUID {A8214072-08A4-B2F7-7BA1-D546847ED80D}
      RECPASS 1
      <SOURCE MIDI
        HASDATA 1 960 QN
        CCINTERP 32
        POOLEDEVTS {45D66F1E-8B77-2A8C-1246-291B3997826E}
        E 0 90 3c 48
        E 0 90 40 48
        E 0 90 43 48
        E 1920 80 3c 00
        E 0 80 40 00
        E 0 80 43 00
        E 0 90 3c 48
        E 0 90 40 48
        E 0 90 43 48
        E 260 80 3c 00
        E 0 80 40 00
        E 0 80 43 00
        E 440 90 3c 48
        E 0 90 40 48
        E 0 90 43 48
        E 260 80 3c 00
        E 0 80 40 00
        E 0 80 43 00
        e 514 90 3c 48
        e 0 90 40 48
        e 0 90 43 48
        e 260 80 3c 00
        e 0 80 40 00
        e 0 80 43 00
        E 186 90 43 48
        E 0 90 47 48
        E 20 90 40 48
        E 1900 80 43 00
        E 0 80 47 00
        E 0 80 40 00
        E 0 90 43 48
        E 0 90 47 48
        E 20 90 40 48
        E 240 80 43 00
        E 0 80 47 00
        E 0 80 40 00
        E 440 90 43 48
        E 0 90 47 48
        E 20 90 40 48
        E 240 80 43 00
        E 0 80 47 00
        E 0 80 40 00
        e 514 90 43 48
        e 0 90 47 48
        e 20 90 40 48
        e 240 80 43 00
        e 0 80 47 00
        e 0 80 40 00
        E 186 90 41 48
        E 0 90 45 48
        E 0 90 48 48
        E 1920 80 41 00
        E 0 80 45 00
        E 0 80 48 00
        E 0 90 41 48
        E 0 90 45 48
        E 0 90 48 48
        E 260 80 41 00
        E 0 80 45 00
        E 0 80 48 00
        E 440 90 41 48
        E 0 90 45 48
        E 0 90 48 48
        E 260 80 41 00
        E 0 80 45 00
        E 0 80 48 00
        e 514 90 41 48
        e 0 90 45 48
        e 0 90 48 48
        e 260 80 41 00
        e 0 80 45 00
        e 0 80 48 00
        E 162 90 3e 48
        E 24 90 41 48
        E 0 90 45 48
        E 1896 90 3e 48
        E 24 80 3e 00
        E 0 80 41 00
        E 0 80 45 00
        E 0 90 41 48
        E 0 90 45 48
        E 260 80 3e 00
        E 0 80 41 00
        E 0 80 45 00
        E 416 90 3e 48
        E 24 90 41 48
        E 0 90 45 48
        E 260 80 3e 00
        E 0 80 41 00
        E 0 80 45 00
        e 490 90 3e 48
        e 24 90 41 48
        e 0 90 45 48
        e 260 80 3e 00
        e 0 80 41 00
        e 0 80 45 00
        E 186 b0 7b 00
        CHASE_CC_TAKEOFFS 1
        GUID {C762B555-17FC-D765-5340-11D3487D2955}
        IGNTEMPO 0 120 4 4
        SRCCOLOR 28
        VELLANE -1 100 0
        CFGEDITVIEW 0 0.045808 45 12 0 -1 0 0 0 0.5
        KEYSNAP 0
        TRACKSEL 0
        EVTFILTER 0 -1 -1 -1 -1 0 0 0 0 -1 -1 -1 -1 0 -1 0 -1 -1
        CFGEDIT 1 1 0 1 0 0 1 1 1 1 1 1 58 171 1253 866 0 0 0 0 0.25 0 0 0 0 0.5 0 0 1 64
      >
    >
  >
  <TRACK {19810E95-6494-6A0B-A041-874CD7170721}
    NAME ""
    PEAKCOL 16576
    BEAT -1
    AUTOMODE 0
    VOLPAN 0.00052194381917 0 -1 -1 1
    MUTESOLO 0 0 0
    IPHASE 0
    PLAYOFFS 0 1
    ISBUS 0 0
    BUSCOMP 0 0 0 0 0
    SHOWINMIX 1 0.6667 0.5 1 0.5 0 0 0
    FREEMODE 0
    SEL 0
    REC 0 5056 1 0 0 0 0
    VU 2
    TRACKHEIGHT 21 0 0
    INQ 0 0 0 0.5 100 0 0 100
    NCHAN 2
    FX 0
    TRACKID {19810E95-6494-6A0B-A041-874CD7170721}
    PERF 0
    MIDIOUT -1
    MAINSEND 1 0
    <FXCHAIN
      WNDRECT 346 266 902 608
      SHOW 0
      LASTSEL 5
      DOCKED 0
      BYPASS 0 0 0
      <VST "VST: ReaEQ (Cockos)" reaeq.vst.so 0 "" 1919247729<56535472656571726561657100000000> ""
        cWVlcu5e7f4CAAAAAQAAAAAAAAACAAAAAAAAAAIAAAABAAAAAAAAAAIAAAAAAAAAqAAAAAEAAAAAABAA
        IQAAAAQAAAAEAAAAAQAAAEC4Xhmm+DRAAAAAAAAA8D8AAAAAAAAAQAEIAAAAAQAAAAAAAAAAwHJAAAAAAAAA8D8AAAAAAAAAQAEIAAAAAQAAAAAAAAAAQI9AAAAAAAAA
        8D8AAAAAAAAAQAEDAAAAAQAAAAABaCorbdRAAAAAAAAA8D8AAAAAAAAAQAEBAAAAAQAAAAAAAAAAAPA/AAAAAJoCAACcAQAA
        AEhpZ2ggbG93IHBhc3MAEAAAAA==
      >
      PRESETNAME "High low pass"
      FLOATPOS 0 0 0 0
      FXID {10EF0354-FA5A-80F8-7109-305225AB4442}
      WAK 0 0
      BYPASS 0 0 0
      <VST "VSTi: ReaSynth (Cockos)" reasynth.vst.so 0 "" 1919251321<5653547265737972656173796E746800> ""
        eXNlcu9e7f4AAAAAAgAAAAEAAAAAAAAAAgAAAAAAAAA8AAAAAAAAAAAAEAA=
        776t3g3wrd6lm8Q7F7fROgAAAAAAAAAAAAAAAJCNuT3oZ4g9AACAPwAAAD8AAIA/AAAAAAAAAD8AAAAA
        AAAQAAAA
      >
      FLOATPOS 0 0 0 0
      FXID {BE6FADC8-119A-E60F-2070-AE72BF7E4BAB}
      WAK 0 0
      BYPASS 0 0 0
      <JS guitar/amp-model ""
        "Dumble Overdrive Special - Tweed Deluxe.wav" -21.000000 1.000000 0.000000 73.000000 256.000000 - - - - - - - - - - - - - - - - - - - - - - - - - - - - - - - - - - - - - - - - - - - - - - - - - - - - - - - - - - 
      >
      FLOATPOS 0 0 0 0
      FXID {A68CD24E-7212-057E-DEB5-26ED67F710AF}
      WAK 0 0
      BYPASS 0 0 0
      <VST "VST: ReaComp (Cockos)" reacomp.vst.so 0 "" 1919247213<5653547265636D726561636F6D700000> ""
        bWNlcu9e7f4EAAAAAQAAAAAAAAACAAAAAAAAAAQAAAAAAAAACAAAAAAAAAACAAAAAQAAAAAAAAACAAAAAAAAAFQAAAAAAAAAAAAQAA==
        776t3g3wrd5FoYg9/AWpPKWbxDsK16M8AAAAAAAAAAAAAIA/AAAAAAAAAAAAAAAAnNEHMwAAgD8AAAAAzMxMPQAAAAAAAAAAAAAAAAAAgD7YiZ09
        AAAQAAAA
      >
      FLOATPOS 0 0 0 0
      FXID {792F57E1-6252-75B5-A5CA-80E841D74EBD}
      WAK 0 0
      BYPASS 0 0 0
      <VST "VST: ReaDelay (Cockos)" readelay.vst.so 0 "" 1919247468<5653547265646C72656164656C617900> ""
        bGRlcu5e7f4CAAAAAQAAAAAAAAACAAAAAAAAAAIAAAABAAAAAAAAAAIAAAAAAAAA/AAAAAEAAAAAAAAA
        AAAAAAAAAAAFAAAALAAAAAIAAAAEAAAAAACAPwAAgD8AAAAAAACAPwAAAAAAAIA7vTeGNQAAgD8AAAAAAACAPwAAgD8AAIA/AAAAAAAAAAAAAIA/AAAAAAAAADwAAAAA
        AACAPwAAAAAAAIA/AACAP+87NT8AAIA/AAAAAAAAgD8AAAAAAABAPL03hjUAAIA/AAAAAAAAgD8AAIA/zk0AP6abhD4AAAAAAACAPwAAAAAAAIA8vTeGNQAAgD8AAAAA
        AACAPwAAgD8aqrU+pHA9PwAAAAAAAIA/AAAAAAAAoDy9N4Y1AACAPwAAAAAAAIA/AACAP/npAD4AAAA/
        AHN0b2NrIC0gYmFzaWMgNSB0YXAgcGluZyBwb25nAAAAAAA=
      >
      PRESETNAME "stock - basic 5 tap ping pong"
      FLOATPOS 0 0 0 0
      FXID {63961CBA-0FC2-5CAC-03E9-8847242DC8C4}
      WAK 0 0
      BYPASS 0 0 0
      <VST "VST: ReaVerb (Cockos)" reaverb.vst.so 0 "" 1919252066<56535472657662726561766572620000> ""
        YnZlcu5e7f4CAAAAAQAAAAAAAAACAAAAAAAAAAIAAAABAAAAAAAAAAIAAAAAAAAAcAAAAAEAAAAAAAAA
        AAAAwcybgD4AAIA/AAAAAAAAgD8AAIA/AAAAPwAAgD8AAAAAVkVSQkdFTgAYAAAAAAAAAJHgV0QdrLRA3rK7QsHIjEIAAIC/RUNIT0dFTgAcAAAAy/i2QLUjdUJdzdM/
        osdfP5lRrzyRzYxAnMQAPw==
        AHN3ZWV0dmVyYm8AAAAAAA==
      >
      PRESETNAME sweetverbo
      FLOATPOS 0 0 0 0
      FXID {97B42389-D57E-0734-7A9C-290D92A4515F}
      WAK 0 0
    >
    <ITEM
      POSITION 0
      SNAPOFFS 0
      LENGTH 8
      LOOP 1
      ALLTAKES 0
      FADEIN 1 0 0 1 0 0
      FADEOUT 1 0 0 1 0 0
      MUTE 0
      SEL 1
      IGUID {556BAE4B-45E0-F3E2-4821-510CDE4882C1}
      IID 10
      NAME "01-Recorded MIDI"
      VOLPAN 1 0 1 -1
      SOFFS 0 0
      PLAYRATE 1 1 0 -1 0 0.0021
      CHANMODE 0
      GUID {A4C8466E-61B3-A17C-2206-6CFAC7E4C64B}
      RECPASS 1
      <SOURCE MIDI
        HASDATA 1 960 QN
        CCINTERP 32
        POOLEDEVTS {587BF925-D62E-0E33-D861-CB97639AFEC7}
        E 0 90 3c 48
        E 0 90 40 48
        E 0 90 43 48
        E 1920 80 3c 00
        E 0 80 40 00
        E 0 80 43 00
        E 0 90 3c 48
        E 0 90 40 48
        E 0 90 43 48
        E 260 80 3c 00
        E 0 80 40 00
        E 0 80 43 00
        E 440 90 3c 48
        E 0 90 40 48
        E 0 90 43 48
        E 260 80 3c 00
        E 0 80 40 00
        E 0 80 43 00
        e 514 90 3c 48
        e 0 90 40 48
        e 0 90 43 48
        e 260 80 3c 00
        e 0 80 40 00
        e 0 80 43 00
        E 186 90 43 48
        E 0 90 47 48
        E 20 90 40 48
        E 1900 80 43 00
        E 0 80 47 00
        E 0 80 40 00
        E 0 90 43 48
        E 0 90 47 48
        E 20 90 40 48
        E 240 80 43 00
        E 0 80 47 00
        E 0 80 40 00
        E 440 90 43 48
        E 0 90 47 48
        E 20 90 40 48
        E 240 80 43 00
        E 0 80 47 00
        E 0 80 40 00
        e 514 90 43 48
        e 0 90 47 48
        e 20 90 40 48
        e 240 80 43 00
        e 0 80 47 00
        e 0 80 40 00
        E 186 90 41 48
        E 0 90 45 48
        E 0 90 48 48
        E 1920 80 41 00
        E 0 80 45 00
        E 0 80 48 00
        E 0 90 41 48
        E 0 90 45 48
        E 0 90 48 48
        E 260 80 41 00
        E 0 80 45 00
        E 0 80 48 00
        E 440 90 41 48
        E 0 90 45 48
        E 0 90 48 48
        E 260 80 41 00
        E 0 80 45 00
        E 0 80 48 00
        e 514 90 41 48
        e 0 90 45 48
        e 0 90 48 48
        e 260 80 41 00
        e 0 80 45 00
        e 0 80 48 00
        E 162 90 3e 48
        E 24 90 41 48
        E 0 90 45 48
        E 1896 90 3e 48
        E 24 80 3e 00
        E 0 80 41 00
        E 0 80 45 00
        E 0 90 41 48
        E 0 90 45 48
        E 260 80 3e 00
        E 0 80 41 00
        E 0 80 45 00
        E 416 90 3e 48
        E 24 90 41 48
        E 0 90 45 48
        E 260 80 3e 00
        E 0 80 41 00
        E 0 80 45 00
        e 490 90 3e 48
        e 24 90 41 48
        e 0 90 45 48
        e 260 80 3e 00
        e 0 80 41 00
        e 0 80 45 00
        E 186 b0 7b 00
        CHASE_CC_TAKEOFFS 1
        GUID {7B9D708B-43E1-C8D4-C4B3-87E2A6C27801}
        IGNTEMPO 0 120 4 4
        SRCCOLOR 17
        VELLANE -1 100 0
        CFGEDITVIEW 0 0.045808 45 12 0 -1 0 0 0 0.5
        KEYSNAP 0
        TRACKSEL 0
        EVTFILTER 0 -1 -1 -1 -1 0 0 0 0 -1 -1 -1 -1 0 -1 0 -1 -1
        CFGEDIT 1 1 0 1 0 0 1 1 1 1 1 1 58 171 1253 866 0 0 0 0 0.25 0 0 0 0 0.5 0 0 1 64
      >
    >
    <ITEM
      POSITION 8
      SNAPOFFS 0
      LENGTH 8
      LOOP 1
      ALLTAKES 0
      FADEIN 1 0 0 1 0 0
      FADEOUT 1 0 0 1 0 0
      MUTE 0
      SEL 1
      IGUID {F56D3265-4A29-8554-CEB1-63BAD6BBA894}
      IID 11
      NAME "01-Recorded MIDI"
      VOLPAN 1 0 1 -1
      SOFFS 0 0
      PLAYRATE 1 1 0 -1 0 0.0021
      CHANMODE 0
      GUID {09F79921-A8CE-210D-517F-9C71FAA4E2A8}
      RECPASS 1
      <SOURCE MIDI
        HASDATA 1 960 QN
        CCINTERP 32
        POOLEDEVTS {B2114383-BF52-9D19-3624-E44235A2817A}
        E 0 90 3c 48
        E 0 90 40 48
        E 0 90 43 48
        E 1920 80 3c 00
        E 0 80 40 00
        E 0 80 43 00
        E 0 90 3c 48
        E 0 90 40 48
        E 0 90 43 48
        E 260 80 3c 00
        E 0 80 40 00
        E 0 80 43 00
        E 440 90 3c 48
        E 0 90 40 48
        E 0 90 43 48
        E 260 80 3c 00
        E 0 80 40 00
        E 0 80 43 00
        e 514 90 3c 48
        e 0 90 40 48
        e 0 90 43 48
        e 260 80 3c 00
        e 0 80 40 00
        e 0 80 43 00
        E 186 90 43 48
        E 0 90 47 48
        E 20 90 40 48
        E 1900 80 43 00
        E 0 80 47 00
        E 0 80 40 00
        E 0 90 43 48
        E 0 90 47 48
        E 20 90 40 48
        E 240 80 43 00
        E 0 80 47 00
        E 0 80 40 00
        E 440 90 43 48
        E 0 90 47 48
        E 20 90 40 48
        E 240 80 43 00
        E 0 80 47 00
        E 0 80 40 00
        e 514 90 43 48
        e 0 90 47 48
        e 20 90 40 48
        e 240 80 43 00
        e 0 80 47 00
        e 0 80 40 00
        E 186 90 41 48
        E 0 90 45 48
        E 0 90 48 48
        E 1920 80 41 00
        E 0 80 45 00
        E 0 80 48 00
        E 0 90 41 48
        E 0 90 45 48
        E 0 90 48 48
        E 260 80 41 00
        E 0 80 45 00
        E 0 80 48 00
        E 440 90 41 48
        E 0 90 45 48
        E 0 90 48 48
        E 260 80 41 00
        E 0 80 45 00
        E 0 80 48 00
        e 514 90 41 48
        e 0 90 45 48
        e 0 90 48 48
        e 260 80 41 00
        e 0 80 45 00
        e 0 80 48 00
        E 162 90 3e 48
        E 24 90 41 48
        E 0 90 45 48
        E 1896 90 3e 48
        E 24 80 3e 00
        E 0 80 41 00
        E 0 80 45 00
        E 0 90 41 48
        E 0 90 45 48
        E 260 80 3e 00
        E 0 80 41 00
        E 0 80 45 00
        E 416 90 3e 48
        E 24 90 41 48
        E 0 90 45 48
        E 260 80 3e 00
        E 0 80 41 00
        E 0 80 45 00
        e 490 90 3e 48
        e 24 90 41 48
        e 0 90 45 48
        e 260 80 3e 00
        e 0 80 41 00
        e 0 80 45 00
        E 186 b0 7b 00
        CHASE_CC_TAKEOFFS 1
        GUID {3131B4E2-B370-E352-A9C5-C8CA31551A86}
        IGNTEMPO 0 120 4 4
        SRCCOLOR 18
        VELLANE -1 100 0
        CFGEDITVIEW 0 0.045808 45 12 0 -1 0 0 0 0.5
        KEYSNAP 0
        TRACKSEL 0
        EVTFILTER 0 -1 -1 -1 -1 0 0 0 0 -1 -1 -1 -1 0 -1 0 -1 -1
        CFGEDIT 1 1 0 1 0 0 1 1 1 1 1 1 58 171 1253 866 0 0 0 0 0.25 0 0 0 0 0.5 0 0 1 64
      >
    >
    <ITEM
      POSITION 16
      SNAPOFFS 0
      LENGTH 8
      LOOP 1
      ALLTAKES 0
      FADEIN 1 0 0 1 0 0
      FADEOUT 1 0 0 1 0 0
      MUTE 0
      SEL 1
      IGUID {5849475B-1D5C-047D-3C35-B5A85CA69AC1}
      IID 12
      NAME "01-Recorded MIDI"
      VOLPAN 1 0 1 -1
      SOFFS 0 0
      PLAYRATE 1 1 0 -1 0 0.0021
      CHANMODE 0
      GUID {D063E426-52E0-5579-5A04-E89055EB1AFC}
      RECPASS 1
      <SOURCE MIDI
        HASDATA 1 960 QN
        CCINTERP 32
        POOLEDEVTS {9E1B75C6-D88D-F57F-3AB3-5870BD2274FC}
        E 0 90 3c 48
        E 0 90 40 48
        E 0 90 43 48
        E 1920 80 3c 00
        E 0 80 40 00
        E 0 80 43 00
        E 0 90 3c 48
        E 0 90 40 48
        E 0 90 43 48
        E 260 80 3c 00
        E 0 80 40 00
        E 0 80 43 00
        E 440 90 3c 48
        E 0 90 40 48
        E 0 90 43 48
        E 260 80 3c 00
        E 0 80 40 00
        E 0 80 43 00
        e 514 90 3c 48
        e 0 90 40 48
        e 0 90 43 48
        e 260 80 3c 00
        e 0 80 40 00
        e 0 80 43 00
        E 186 90 43 48
        E 0 90 47 48
        E 20 90 40 48
        E 1900 80 43 00
        E 0 80 47 00
        E 0 80 40 00
        E 0 90 43 48
        E 0 90 47 48
        E 20 90 40 48
        E 240 80 43 00
        E 0 80 47 00
        E 0 80 40 00
        E 440 90 43 48
        E 0 90 47 48
        E 20 90 40 48
        E 240 80 43 00
        E 0 80 47 00
        E 0 80 40 00
        e 514 90 43 48
        e 0 90 47 48
        e 20 90 40 48
        e 240 80 43 00
        e 0 80 47 00
        e 0 80 40 00
        E 186 90 41 48
        E 0 90 45 48
        E 0 90 48 48
        E 1920 80 41 00
        E 0 80 45 00
        E 0 80 48 00
        E 0 90 41 48
        E 0 90 45 48
        E 0 90 48 48
        E 260 80 41 00
        E 0 80 45 00
        E 0 80 48 00
        E 440 90 41 48
        E 0 90 45 48
        E 0 90 48 48
        E 260 80 41 00
        E 0 80 45 00
        E 0 80 48 00
        e 514 90 41 48
        e 0 90 45 48
        e 0 90 48 48
        e 260 80 41 00
        e 0 80 45 00
        e 0 80 48 00
        E 162 90 3e 48
        E 24 90 41 48
        E 0 90 45 48
        E 1896 90 3e 48
        E 24 80 3e 00
        E 0 80 41 00
        E 0 80 45 00
        E 0 90 41 48
        E 0 90 45 48
        E 260 80 3e 00
        E 0 80 41 00
        E 0 80 45 00
        E 416 90 3e 48
        E 24 90 41 48
        E 0 90 45 48
        E 260 80 3e 00
        E 0 80 41 00
        E 0 80 45 00
        e 490 90 3e 48
        e 24 90 41 48
        e 0 90 45 48
        e 260 80 3e 00
        e 0 80 41 00
        e 0 80 45 00
        E 186 b0 7b 00
        CHASE_CC_TAKEOFFS 1
        GUID {48C567A2-895C-FB9B-FDBA-0ADB7004ABF3}
        IGNTEMPO 0 120 4 4
        SRCCOLOR 19
        VELLANE -1 100 0
        CFGEDITVIEW 0 0.045808 45 12 0 -1 0 0 0 0.5
        KEYSNAP 0
        TRACKSEL 0
        EVTFILTER 0 -1 -1 -1 -1 0 0 0 0 -1 -1 -1 -1 0 -1 0 -1 -1
        CFGEDIT 1 1 0 1 0 0 1 1 1 1 1 1 58 171 1253 866 0 0 0 0 0.25 0 0 0 0 0.5 0 0 1 64
      >
    >
    <ITEM
      POSITION 24
      SNAPOFFS 0
      LENGTH 8
      LOOP 1
      ALLTAKES 0
      FADEIN 1 0 0 1 0 0
      FADEOUT 1 0 0 1 0 0
      MUTE 0
      SEL 1
      IGUID {10C7B94F-9059-3A11-FEC9-78BA95B1E1BC}
      IID 13
      NAME "01-Recorded MIDI"
      VOLPAN 1 0 1 -1
      SOFFS 0 0
      PLAYRATE 1 1 0 -1 0 0.0021
      CHANMODE 0
      GUID {CEA9A39F-07AC-2BC0-5167-1963A8185B7A}
      RECPASS 1
      <SOURCE MIDI
        HASDATA 1 960 QN
        CCINTERP 32
        POOLEDEVTS {7D69604D-C24F-53C9-53AA-DB53C0A27214}
        E 0 90 3c 48
        E 0 90 40 48
        E 0 90 43 48
        E 1920 80 3c 00
        E 0 80 40 00
        E 0 80 43 00
        E 0 90 3c 48
        E 0 90 40 48
        E 0 90 43 48
        E 260 80 3c 00
        E 0 80 40 00
        E 0 80 43 00
        E 440 90 3c 48
        E 0 90 40 48
        E 0 90 43 48
        E 260 80 3c 00
        E 0 80 40 00
        E 0 80 43 00
        e 514 90 3c 48
        e 0 90 40 48
        e 0 90 43 48
        e 260 80 3c 00
        e 0 80 40 00
        e 0 80 43 00
        E 186 90 43 48
        E 0 90 47 48
        E 20 90 40 48
        E 1900 80 43 00
        E 0 80 47 00
        E 0 80 40 00
        E 0 90 43 48
        E 0 90 47 48
        E 20 90 40 48
        E 240 80 43 00
        E 0 80 47 00
        E 0 80 40 00
        E 440 90 43 48
        E 0 90 47 48
        E 20 90 40 48
        E 240 80 43 00
        E 0 80 47 00
        E 0 80 40 00
        e 514 90 43 48
        e 0 90 47 48
        e 20 90 40 48
        e 240 80 43 00
        e 0 80 47 00
        e 0 80 40 00
        E 186 90 41 48
        E 0 90 45 48
        E 0 90 48 48
        E 1920 80 41 00
        E 0 80 45 00
        E 0 80 48 00
        E 0 90 41 48
        E 0 90 45 48
        E 0 90 48 48
        E 260 80 41 00
        E 0 80 45 00
        E 0 80 48 00
        E 440 90 41 48
        E 0 90 45 48
        E 0 90 48 48
        E 260 80 41 00
        E 0 80 45 00
        E 0 80 48 00
        e 514 90 41 48
        e 0 90 45 48
        e 0 90 48 48
        e 260 80 41 00
        e 0 80 45 00
        e 0 80 48 00
        E 162 90 3e 48
        E 24 90 41 48
        E 0 90 45 48
        E 1896 90 3e 48
        E 24 80 3e 00
        E 0 80 41 00
        E 0 80 45 00
        E 0 90 41 48
        E 0 90 45 48
        E 260 80 3e 00
        E 0 80 41 00
        E 0 80 45 00
        E 416 90 3e 48
        E 24 90 41 48
        E 0 90 45 48
        E 260 80 3e 00
        E 0 80 41 00
        E 0 80 45 00
        e 490 90 3e 48
        e 24 90 41 48
        e 0 90 45 48
        e 260 80 3e 00
        e 0 80 41 00
        e 0 80 45 00
        E 186 b0 7b 00
        CHASE_CC_TAKEOFFS 1
        GUID {1DE38800-E2A1-41B5-9C8C-3291891093B1}
        IGNTEMPO 0 120 4 4
        SRCCOLOR 20
        VELLANE -1 100 0
        CFGEDITVIEW 0 0.045808 45 12 0 -1 0 0 0 0.5
        KEYSNAP 0
        TRACKSEL 0
        EVTFILTER 0 -1 -1 -1 -1 0 0 0 0 -1 -1 -1 -1 0 -1 0 -1 -1
        CFGEDIT 1 1 0 1 0 0 1 1 1 1 1 1 58 171 1253 866 0 0 0 0 0.25 0 0 0 0 0.5 0 0 1 64
      >
    >
    <ITEM
      POSITION 32
      SNAPOFFS 0
      LENGTH 8
      LOOP 1
      ALLTAKES 0
      FADEIN 1 0 0 1 0 0
      FADEOUT 1 0 0 1 0 0
      MUTE 0
      SEL 1
      IGUID {0A71A724-6B16-83AD-3B2F-7DFF98375A7A}
      IID 14
      NAME "01-Recorded MIDI"
      VOLPAN 1 0 1 -1
      SOFFS 0 0
      PLAYRATE 1 1 0 -1 0 0.0021
      CHANMODE 0
      GUID {D2EFD3D0-FEA1-6D64-92E3-CC230E1111CC}
      RECPASS 1
      <SOURCE MIDI
        HASDATA 1 960 QN
        CCINTERP 32
        POOLEDEVTS {EB2FCE91-5BE7-DEAE-7F16-3B47D6B0AE9B}
        E 0 90 3c 48
        E 0 90 40 48
        E 0 90 43 48
        E 1920 80 3c 00
        E 0 80 40 00
        E 0 80 43 00
        E 0 90 3c 48
        E 0 90 40 48
        E 0 90 43 48
        E 260 80 3c 00
        E 0 80 40 00
        E 0 80 43 00
        E 440 90 3c 48
        E 0 90 40 48
        E 0 90 43 48
        E 260 80 3c 00
        E 0 80 40 00
        E 0 80 43 00
        e 514 90 3c 48
        e 0 90 40 48
        e 0 90 43 48
        e 260 80 3c 00
        e 0 80 40 00
        e 0 80 43 00
        E 186 90 43 48
        E 0 90 47 48
        E 20 90 40 48
        E 1900 80 43 00
        E 0 80 47 00
        E 0 80 40 00
        E 0 90 43 48
        E 0 90 47 48
        E 20 90 40 48
        E 240 80 43 00
        E 0 80 47 00
        E 0 80 40 00
        E 440 90 43 48
        E 0 90 47 48
        E 20 90 40 48
        E 240 80 43 00
        E 0 80 47 00
        E 0 80 40 00
        e 514 90 43 48
        e 0 90 47 48
        e 20 90 40 48
        e 240 80 43 00
        e 0 80 47 00
        e 0 80 40 00
        E 186 90 41 48
        E 0 90 45 48
        E 0 90 48 48
        E 1920 80 41 00
        E 0 80 45 00
        E 0 80 48 00
        E 0 90 41 48
        E 0 90 45 48
        E 0 90 48 48
        E 260 80 41 00
        E 0 80 45 00
        E 0 80 48 00
        E 440 90 41 48
        E 0 90 45 48
        E 0 90 48 48
        E 260 80 41 00
        E 0 80 45 00
        E 0 80 48 00
        e 514 90 41 48
        e 0 90 45 48
        e 0 90 48 48
        e 260 80 41 00
        e 0 80 45 00
        e 0 80 48 00
        E 162 90 3e 48
        E 24 90 41 48
        E 0 90 45 48
        E 1896 90 3e 48
        E 24 80 3e 00
        E 0 80 41 00
        E 0 80 45 00
        E 0 90 41 48
        E 0 90 45 48
        E 260 80 3e 00
        E 0 80 41 00
        E 0 80 45 00
        E 416 90 3e 48
        E 24 90 41 48
        E 0 90 45 48
        E 260 80 3e 00
        E 0 80 41 00
        E 0 80 45 00
        e 490 90 3e 48
        e 24 90 41 48
        e 0 90 45 48
        e 260 80 3e 00
        e 0 80 41 00
        e 0 80 45 00
        E 186 b0 7b 00
        CHASE_CC_TAKEOFFS 1
        GUID {0C3271F4-E233-9088-9B25-A722FAE7C579}
        IGNTEMPO 0 120 4 4
        SRCCOLOR 21
        VELLANE -1 100 0
        CFGEDITVIEW 0 0.045808 45 12 0 -1 0 0 0 0.5
        KEYSNAP 0
        TRACKSEL 0
        EVTFILTER 0 -1 -1 -1 -1 0 0 0 0 -1 -1 -1 -1 0 -1 0 -1 -1
        CFGEDIT 1 1 0 1 0 0 1 1 1 1 1 1 58 171 1253 866 0 0 0 0 0.25 0 0 0 0 0.5 0 0 1 64
      >
    >
    <ITEM
      POSITION 40
      SNAPOFFS 0
      LENGTH 8
      LOOP 1
      ALLTAKES 0
      FADEIN 1 0 0 1 0 0
      FADEOUT 1 0 0 1 0 0
      MUTE 0
      SEL 1
      IGUID {2991A413-8561-9814-5339-2D32FA0576DA}
      IID 15
      NAME "01-Recorded MIDI"
      VOLPAN 1 0 1 -1
      SOFFS 0 0
      PLAYRATE 1 1 0 -1 0 0.0021
      CHANMODE 0
      GUID {06A364C7-27BA-2DFF-EFB4-53DC5169A636}
      RECPASS 1
      <SOURCE MIDI
        HASDATA 1 960 QN
        CCINTERP 32
        POOLEDEVTS {C104AABC-9728-F141-1D40-DAABDC5E38F2}
        E 0 90 3c 48
        E 0 90 40 48
        E 0 90 43 48
        E 1920 80 3c 00
        E 0 80 40 00
        E 0 80 43 00
        E 0 90 3c 48
        E 0 90 40 48
        E 0 90 43 48
        E 260 80 3c 00
        E 0 80 40 00
        E 0 80 43 00
        E 440 90 3c 48
        E 0 90 40 48
        E 0 90 43 48
        E 260 80 3c 00
        E 0 80 40 00
        E 0 80 43 00
        e 514 90 3c 48
        e 0 90 40 48
        e 0 90 43 48
        e 260 80 3c 00
        e 0 80 40 00
        e 0 80 43 00
        E 186 90 43 48
        E 0 90 47 48
        E 20 90 40 48
        E 1900 80 43 00
        E 0 80 47 00
        E 0 80 40 00
        E 0 90 43 48
        E 0 90 47 48
        E 20 90 40 48
        E 240 80 43 00
        E 0 80 47 00
        E 0 80 40 00
        E 440 90 43 48
        E 0 90 47 48
        E 20 90 40 48
        E 240 80 43 00
        E 0 80 47 00
        E 0 80 40 00
        e 514 90 43 48
        e 0 90 47 48
        e 20 90 40 48
        e 240 80 43 00
        e 0 80 47 00
        e 0 80 40 00
        E 186 90 41 48
        E 0 90 45 48
        E 0 90 48 48
        E 1920 80 41 00
        E 0 80 45 00
        E 0 80 48 00
        E 0 90 41 48
        E 0 90 45 48
        E 0 90 48 48
        E 260 80 41 00
        E 0 80 45 00
        E 0 80 48 00
        E 440 90 41 48
        E 0 90 45 48
        E 0 90 48 48
        E 260 80 41 00
        E 0 80 45 00
        E 0 80 48 00
        e 514 90 41 48
        e 0 90 45 48
        e 0 90 48 48
        e 260 80 41 00
        e 0 80 45 00
        e 0 80 48 00
        E 162 90 3e 48
        E 24 90 41 48
        E 0 90 45 48
        E 1896 90 3e 48
        E 24 80 3e 00
        E 0 80 41 00
        E 0 80 45 00
        E 0 90 41 48
        E 0 90 45 48
        E 260 80 3e 00
        E 0 80 41 00
        E 0 80 45 00
        E 416 90 3e 48
        E 24 90 41 48
        E 0 90 45 48
        E 260 80 3e 00
        E 0 80 41 00
        E 0 80 45 00
        e 490 90 3e 48
        e 24 90 41 48
        e 0 90 45 48
        e 260 80 3e 00
        e 0 80 41 00
        e 0 80 45 00
        E 186 b0 7b 00
        CHASE_CC_TAKEOFFS 1
        GUID {040E7AF8-3572-5D91-3C86-797AEE7444D4}
        IGNTEMPO 0 120 4 4
        SRCCOLOR 22
        VELLANE -1 100 0
        CFGEDITVIEW 0 0.045808 45 12 0 -1 0 0 0 0.5
        KEYSNAP 0
        TRACKSEL 0
        EVTFILTER 0 -1 -1 -1 -1 0 0 0 0 -1 -1 -1 -1 0 -1 0 -1 -1
        CFGEDIT 1 1 0 1 0 0 1 1 1 1 1 1 58 171 1253 866 0 0 0 0 0.25 0 0 0 0 0.5 0 0 1 64
      >
    >
    <ITEM
      POSITION 48
      SNAPOFFS 0
      LENGTH 8
      LOOP 1
      ALLTAKES 0
      FADEIN 1 0 0 1 0 0
      FADEOUT 1 0 0 1 0 0
      MUTE 0
      SEL 1
      IGUID {EBA46D6E-D012-C7B4-ACA7-F4231997F93C}
      IID 16
      NAME "01-Recorded MIDI"
      VOLPAN 1 0 1 -1
      SOFFS 0 0
      PLAYRATE 1 1 0 -1 0 0.0021
      CHANMODE 0
      GUID {7E20FC0E-5B81-5613-F6B0-3FA411728390}
      RECPASS 1
      <SOURCE MIDI
        HASDATA 1 960 QN
        CCINTERP 32
        POOLEDEVTS {28DCEAB1-F8FF-3313-256A-6F384226DCA1}
        E 0 90 3c 48
        E 0 90 40 48
        E 0 90 43 48
        E 1920 80 3c 00
        E 0 80 40 00
        E 0 80 43 00
        E 0 90 3c 48
        E 0 90 40 48
        E 0 90 43 48
        E 260 80 3c 00
        E 0 80 40 00
        E 0 80 43 00
        E 440 90 3c 48
        E 0 90 40 48
        E 0 90 43 48
        E 260 80 3c 00
        E 0 80 40 00
        E 0 80 43 00
        e 514 90 3c 48
        e 0 90 40 48
        e 0 90 43 48
        e 260 80 3c 00
        e 0 80 40 00
        e 0 80 43 00
        E 186 90 43 48
        E 0 90 47 48
        E 20 90 40 48
        E 1900 80 43 00
        E 0 80 47 00
        E 0 80 40 00
        E 0 90 43 48
        E 0 90 47 48
        E 20 90 40 48
        E 240 80 43 00
        E 0 80 47 00
        E 0 80 40 00
        E 440 90 43 48
        E 0 90 47 48
        E 20 90 40 48
        E 240 80 43 00
        E 0 80 47 00
        E 0 80 40 00
        e 514 90 43 48
        e 0 90 47 48
        e 20 90 40 48
        e 240 80 43 00
        e 0 80 47 00
        e 0 80 40 00
        E 186 90 41 48
        E 0 90 45 48
        E 0 90 48 48
        E 1920 80 41 00
        E 0 80 45 00
        E 0 80 48 00
        E 0 90 41 48
        E 0 90 45 48
        E 0 90 48 48
        E 260 80 41 00
        E 0 80 45 00
        E 0 80 48 00
        E 440 90 41 48
        E 0 90 45 48
        E 0 90 48 48
        E 260 80 41 00
        E 0 80 45 00
        E 0 80 48 00
        e 514 90 41 48
        e 0 90 45 48
        e 0 90 48 48
        e 260 80 41 00
        e 0 80 45 00
        e 0 80 48 00
        E 162 90 3e 48
        E 24 90 41 48
        E 0 90 45 48
        E 1896 90 3e 48
        E 24 80 3e 00
        E 0 80 41 00
        E 0 80 45 00
        E 0 90 41 48
        E 0 90 45 48
        E 260 80 3e 00
        E 0 80 41 00
        E 0 80 45 00
        E 416 90 3e 48
        E 24 90 41 48
        E 0 90 45 48
        E 260 80 3e 00
        E 0 80 41 00
        E 0 80 45 00
        e 490 90 3e 48
        e 24 90 41 48
        e 0 90 45 48
        e 260 80 3e 00
        e 0 80 41 00
        e 0 80 45 00
        E 186 b0 7b 00
        CHASE_CC_TAKEOFFS 1
        GUID {2338968B-6CF9-9F40-300F-DEB89D3392EA}
        IGNTEMPO 0 120 4 4
        SRCCOLOR 23
        VELLANE -1 100 0
        CFGEDITVIEW 0 0.045808 45 12 0 -1 0 0 0 0.5
        KEYSNAP 0
        TRACKSEL 0
        EVTFILTER 0 -1 -1 -1 -1 0 0 0 0 -1 -1 -1 -1 0 -1 0 -1 -1
        CFGEDIT 1 1 0 1 0 0 1 1 1 1 1 1 58 171 1253 866 0 0 0 0 0.25 0 0 0 0 0.5 0 0 1 64
      >
    >
    <ITEM
      POSITION 56
      SNAPOFFS 0
      LENGTH 8
      LOOP 1
      ALLTAKES 0
      FADEIN 1 0 0 1 0 0
      FADEOUT 1 0 0 1 0 0
      MUTE 0
      SEL 1
      IGUID {082C1D13-A9B4-3916-1122-3B26471F2133}
      IID 17
      NAME "01-Recorded MIDI"
      VOLPAN 1 0 1 -1
      SOFFS 0 0
      PLAYRATE 1 1 0 -1 0 0.0021
      CHANMODE 0
      GUID {C436C55E-6ADB-946A-B891-E610EAB2F69C}
      RECPASS 1
      <SOURCE MIDI
        HASDATA 1 960 QN
        CCINTERP 32
        POOLEDEVTS {6AE376A3-8781-B3BA-4D9F-28014F0CE10A}
        E 0 90 3c 48
        E 0 90 40 48
        E 0 90 43 48
        E 1920 80 3c 00
        E 0 80 40 00
        E 0 80 43 00
        E 0 90 3c 48
        E 0 90 40 48
        E 0 90 43 48
        E 260 80 3c 00
        E 0 80 40 00
        E 0 80 43 00
        E 440 90 3c 48
        E 0 90 40 48
        E 0 90 43 48
        E 260 80 3c 00
        E 0 80 40 00
        E 0 80 43 00
        e 514 90 3c 48
        e 0 90 40 48
        e 0 90 43 48
        e 260 80 3c 00
        e 0 80 40 00
        e 0 80 43 00
        E 186 90 43 48
        E 0 90 47 48
        E 20 90 40 48
        E 1900 80 43 00
        E 0 80 47 00
        E 0 80 40 00
        E 0 90 43 48
        E 0 90 47 48
        E 20 90 40 48
        E 240 80 43 00
        E 0 80 47 00
        E 0 80 40 00
        E 440 90 43 48
        E 0 90 47 48
        E 20 90 40 48
        E 240 80 43 00
        E 0 80 47 00
        E 0 80 40 00
        e 514 90 43 48
        e 0 90 47 48
        e 20 90 40 48
        e 240 80 43 00
        e 0 80 47 00
        e 0 80 40 00
        E 186 90 41 48
        E 0 90 45 48
        E 0 90 48 48
        E 1920 80 41 00
        E 0 80 45 00
        E 0 80 48 00
        E 0 90 41 48
        E 0 90 45 48
        E 0 90 48 48
        E 260 80 41 00
        E 0 80 45 00
        E 0 80 48 00
        E 440 90 41 48
        E 0 90 45 48
        E 0 90 48 48
        E 260 80 41 00
        E 0 80 45 00
        E 0 80 48 00
        e 514 90 41 48
        e 0 90 45 48
        e 0 90 48 48
        e 260 80 41 00
        e 0 80 45 00
        e 0 80 48 00
        E 162 90 3e 48
        E 24 90 41 48
        E 0 90 45 48
        E 1896 90 3e 48
        E 24 80 3e 00
        E 0 80 41 00
        E 0 80 45 00
        E 0 90 41 48
        E 0 90 45 48
        E 260 80 3e 00
        E 0 80 41 00
        E 0 80 45 00
        E 416 90 3e 48
        E 24 90 41 48
        E 0 90 45 48
        E 260 80 3e 00
        E 0 80 41 00
        E 0 80 45 00
        e 490 90 3e 48
        e 24 90 41 48
        e 0 90 45 48
        e 260 80 3e 00
        e 0 80 41 00
        e 0 80 45 00
        E 186 b0 7b 00
        CHASE_CC_TAKEOFFS 1
        GUID {A64857E2-94F8-0990-20DF-4C1E9B5E6251}
        IGNTEMPO 0 120 4 4
        SRCCOLOR 24
        VELLANE -1 100 0
        CFGEDITVIEW 0 0.045808 45 12 0 -1 0 0 0 0.5
        KEYSNAP 0
        TRACKSEL 0
        EVTFILTER 0 -1 -1 -1 -1 0 0 0 0 -1 -1 -1 -1 0 -1 0 -1 -1
        CFGEDIT 1 1 0 1 0 0 1 1 1 1 1 1 58 171 1253 866 0 0 0 0 0.25 0 0 0 0 0.5 0 0 1 64
      >
    >
    <ITEM
      POSITION 64
      SNAPOFFS 0
      LENGTH 8
      LOOP 1
      ALLTAKES 0
      FADEIN 1 0 0 1 0 0
      FADEOUT 1 0 0 1 0 0
      MUTE 0
      SEL 1
      IGUID {FE7ED3CA-18AB-D656-686F-1E3A01D12402}
      IID 18
      NAME "01-Recorded MIDI"
      VOLPAN 1 0 1 -1
      SOFFS 0 0
      PLAYRATE 1 1 0 -1 0 0.0021
      CHANMODE 0
      GUID {A0F5021C-8C20-5988-A8FF-3307D45662E7}
      RECPASS 1
      <SOURCE MIDI
        HASDATA 1 960 QN
        CCINTERP 32
        POOLEDEVTS {6968E7C3-C293-4D1F-6125-E3E86DBF3ACB}
        E 0 90 3c 48
        E 0 90 40 48
        E 0 90 43 48
        E 1920 80 3c 00
        E 0 80 40 00
        E 0 80 43 00
        E 0 90 3c 48
        E 0 90 40 48
        E 0 90 43 48
        E 260 80 3c 00
        E 0 80 40 00
        E 0 80 43 00
        E 440 90 3c 48
        E 0 90 40 48
        E 0 90 43 48
        E 260 80 3c 00
        E 0 80 40 00
        E 0 80 43 00
        e 514 90 3c 48
        e 0 90 40 48
        e 0 90 43 48
        e 260 80 3c 00
        e 0 80 40 00
        e 0 80 43 00
        E 186 90 43 48
        E 0 90 47 48
        E 20 90 40 48
        E 1900 80 43 00
        E 0 80 47 00
        E 0 80 40 00
        E 0 90 43 48
        E 0 90 47 48
        E 20 90 40 48
        E 240 80 43 00
        E 0 80 47 00
        E 0 80 40 00
        E 440 90 43 48
        E 0 90 47 48
        E 20 90 40 48
        E 240 80 43 00
        E 0 80 47 00
        E 0 80 40 00
        e 514 90 43 48
        e 0 90 47 48
        e 20 90 40 48
        e 240 80 43 00
        e 0 80 47 00
        e 0 80 40 00
        E 186 90 41 48
        E 0 90 45 48
        E 0 90 48 48
        E 1920 80 41 00
        E 0 80 45 00
        E 0 80 48 00
        E 0 90 41 48
        E 0 90 45 48
        E 0 90 48 48
        E 260 80 41 00
        E 0 80 45 00
        E 0 80 48 00
        E 440 90 41 48
        E 0 90 45 48
        E 0 90 48 48
        E 260 80 41 00
        E 0 80 45 00
        E 0 80 48 00
        e 514 90 41 48
        e 0 90 45 48
        e 0 90 48 48
        e 260 80 41 00
        e 0 80 45 00
        e 0 80 48 00
        E 162 90 3e 48
        E 24 90 41 48
        E 0 90 45 48
        E 1896 90 3e 48
        E 24 80 3e 00
        E 0 80 41 00
        E 0 80 45 00
        E 0 90 41 48
        E 0 90 45 48
        E 260 80 3e 00
        E 0 80 41 00
        E 0 80 45 00
        E 416 90 3e 48
        E 24 90 41 48
        E 0 90 45 48
        E 260 80 3e 00
        E 0 80 41 00
        E 0 80 45 00
        e 490 90 3e 48
        e 24 90 41 48
        e 0 90 45 48
        e 260 80 3e 00
        e 0 80 41 00
        e 0 80 45 00
        E 186 b0 7b 00
        CHASE_CC_TAKEOFFS 1
        GUID {19362806-85F2-5D9E-E1F9-07BE0CF3D16E}
        IGNTEMPO 0 120 4 4
        SRCCOLOR 25
        VELLANE -1 100 0
        CFGEDITVIEW 0 0.045808 45 12 0 -1 0 0 0 0.5
        KEYSNAP 0
        TRACKSEL 0
        EVTFILTER 0 -1 -1 -1 -1 0 0 0 0 -1 -1 -1 -1 0 -1 0 -1 -1
        CFGEDIT 1 1 0 1 0 0 1 1 1 1 1 1 58 171 1253 866 0 0 0 0 0.25 0 0 0 0 0.5 0 0 1 64
      >
    >
    <ITEM
      POSITION 72
      SNAPOFFS 0
      LENGTH 8
      LOOP 1
      ALLTAKES 0
      FADEIN 1 0 0 1 0 0
      FADEOUT 1 0 0 1 0 0
      MUTE 0
      SEL 1
      IGUID {75E74343-1011-CF65-9CC1-84B573EA78A1}
      IID 19
      NAME "01-Recorded MIDI"
      VOLPAN 1 0 1 -1
      SOFFS 0 0
      PLAYRATE 1 1 0 -1 0 0.0021
      CHANMODE 0
      GUID {E7AE403A-02C9-651A-8F8C-6CA0A22977DD}
      RECPASS 1
      <SOURCE MIDI
        HASDATA 1 960 QN
        CCINTERP 32
        POOLEDEVTS {217FC1A1-6F18-9D34-9DD1-9F6B35190252}
        E 0 90 3c 48
        E 0 90 40 48
        E 0 90 43 48
        E 1920 80 3c 00
        E 0 80 40 00
        E 0 80 43 00
        E 0 90 3c 48
        E 0 90 40 48
        E 0 90 43 48
        E 260 80 3c 00
        E 0 80 40 00
        E 0 80 43 00
        E 440 90 3c 48
        E 0 90 40 48
        E 0 90 43 48
        E 260 80 3c 00
        E 0 80 40 00
        E 0 80 43 00
        e 514 90 3c 48
        e 0 90 40 48
        e 0 90 43 48
        e 260 80 3c 00
        e 0 80 40 00
        e 0 80 43 00
        E 186 90 43 48
        E 0 90 47 48
        E 20 90 40 48
        E 1900 80 43 00
        E 0 80 47 00
        E 0 80 40 00
        E 0 90 43 48
        E 0 90 47 48
        E 20 90 40 48
        E 240 80 43 00
        E 0 80 47 00
        E 0 80 40 00
        E 440 90 43 48
        E 0 90 47 48
        E 20 90 40 48
        E 240 80 43 00
        E 0 80 47 00
        E 0 80 40 00
        e 514 90 43 48
        e 0 90 47 48
        e 20 90 40 48
        e 240 80 43 00
        e 0 80 47 00
        e 0 80 40 00
        E 186 90 41 48
        E 0 90 45 48
        E 0 90 48 48
        E 1920 80 41 00
        E 0 80 45 00
        E 0 80 48 00
        E 0 90 41 48
        E 0 90 45 48
        E 0 90 48 48
        E 260 80 41 00
        E 0 80 45 00
        E 0 80 48 00
        E 440 90 41 48
        E 0 90 45 48
        E 0 90 48 48
        E 260 80 41 00
        E 0 80 45 00
        E 0 80 48 00
        e 514 90 41 48
        e 0 90 45 48
        e 0 90 48 48
        e 260 80 41 00
        e 0 80 45 00
        e 0 80 48 00
        E 162 90 3e 48
        E 24 90 41 48
        E 0 90 45 48
        E 1896 90 3e 48
        E 24 80 3e 00
        E 0 80 41 00
        E 0 80 45 00
        E 0 90 41 48
        E 0 90 45 48
        E 260 80 3e 00
        E 0 80 41 00
        E 0 80 45 00
        E 416 90 3e 48
        E 24 90 41 48
        E 0 90 45 48
        E 260 80 3e 00
        E 0 80 41 00
        E 0 80 45 00
        e 490 90 3e 48
        e 24 90 41 48
        e 0 90 45 48
        e 260 80 3e 00
        e 0 80 41 00
        e 0 80 45 00
        E 186 b0 7b 00
        CHASE_CC_TAKEOFFS 1
        GUID {6844F8A9-6BE9-023C-4A46-0A676470C99B}
        IGNTEMPO 0 120 4 4
        SRCCOLOR 26
        VELLANE -1 100 0
        CFGEDITVIEW 0 0.045808 45 12 0 -1 0 0 0 0.5
        KEYSNAP 0
        TRACKSEL 0
        EVTFILTER 0 -1 -1 -1 -1 0 0 0 0 -1 -1 -1 -1 0 -1 0 -1 -1
        CFGEDIT 1 1 0 1 0 0 1 1 1 1 1 1 58 171 1253 866 0 0 0 0 0.25 0 0 0 0 0.5 0 0 1 64
      >
    >
    <ITEM
      POSITION 80
      SNAPOFFS 0
      LENGTH 8
      LOOP 1
      ALLTAKES 0
      FADEIN 1 0 0 1 0 0
      FADEOUT 1 0 0 1 0 0
      MUTE 0
      SEL 1
      IGUID {94EA1C2C-CBBE-B8CD-FF83-897E10B1A5FA}
      IID 20
      NAME "01-Recorded MIDI"
      VOLPAN 1 0 1 -1
      SOFFS 0 0
      PLAYRATE 1 1 0 -1 0 0.0021
      CHANMODE 0
      GUID {0D978862-BFC0-50B2-467B-C3779C0A9864}
      RECPASS 1
      <SOURCE MIDI
        HASDATA 1 960 QN
        CCINTERP 32
        POOLEDEVTS {C7D3FEC2-9788-C86B-9335-FA98D5684C70}
        E 0 90 3c 48
        E 0 90 40 48
        E 0 90 43 48
        E 1920 80 3c 00
        E 0 80 40 00
        E 0 80 43 00
        E 0 90 3c 48
        E 0 90 40 48
        E 0 90 43 48
        E 260 80 3c 00
        E 0 80 40 00
        E 0 80 43 00
        E 440 90 3c 48
        E 0 90 40 48
        E 0 90 43 48
        E 260 80 3c 00
        E 0 80 40 00
        E 0 80 43 00
        e 514 90 3c 48
        e 0 90 40 48
        e 0 90 43 48
        e 260 80 3c 00
        e 0 80 40 00
        e 0 80 43 00
        E 186 90 43 48
        E 0 90 47 48
        E 20 90 40 48
        E 1900 80 43 00
        E 0 80 47 00
        E 0 80 40 00
        E 0 90 43 48
        E 0 90 47 48
        E 20 90 40 48
        E 240 80 43 00
        E 0 80 47 00
        E 0 80 40 00
        E 440 90 43 48
        E 0 90 47 48
        E 20 90 40 48
        E 240 80 43 00
        E 0 80 47 00
        E 0 80 40 00
        e 514 90 43 48
        e 0 90 47 48
        e 20 90 40 48
        e 240 80 43 00
        e 0 80 47 00
        e 0 80 40 00
        E 186 90 41 48
        E 0 90 45 48
        E 0 90 48 48
        E 1920 80 41 00
        E 0 80 45 00
        E 0 80 48 00
        E 0 90 41 48
        E 0 90 45 48
        E 0 90 48 48
        E 260 80 41 00
        E 0 80 45 00
        E 0 80 48 00
        E 440 90 41 48
        E 0 90 45 48
        E 0 90 48 48
        E 260 80 41 00
        E 0 80 45 00
        E 0 80 48 00
        e 514 90 41 48
        e 0 90 45 48
        e 0 90 48 48
        e 260 80 41 00
        e 0 80 45 00
        e 0 80 48 00
        E 162 90 3e 48
        E 24 90 41 48
        E 0 90 45 48
        E 1896 90 3e 48
        E 24 80 3e 00
        E 0 80 41 00
        E 0 80 45 00
        E 0 90 41 48
        E 0 90 45 48
        E 260 80 3e 00
        E 0 80 41 00
        E 0 80 45 00
        E 416 90 3e 48
        E 24 90 41 48
        E 0 90 45 48
        E 260 80 3e 00
        E 0 80 41 00
        E 0 80 45 00
        e 490 90 3e 48
        e 24 90 41 48
        e 0 90 45 48
        e 260 80 3e 00
        e 0 80 41 00
        e 0 80 45 00
        E 186 b0 7b 00
        CHASE_CC_TAKEOFFS 1
        GUID {E611ADB6-4869-6CCA-8E83-3954D5E743B1}
        IGNTEMPO 0 120 4 4
        SRCCOLOR 27
        VELLANE -1 100 0
        CFGEDITVIEW 0 0.045808 45 12 0 -1 0 0 0 0.5
        KEYSNAP 0
        TRACKSEL 0
        EVTFILTER 0 -1 -1 -1 -1 0 0 0 0 -1 -1 -1 -1 0 -1 0 -1 -1
        CFGEDIT 1 1 0 1 0 0 1 1 1 1 1 1 58 171 1253 866 0 0 0 0 0.25 0 0 0 0 0.5 0 0 1 64
      >
    >
    <ITEM
      POSITION 88
      SNAPOFFS 0
      LENGTH 8
      LOOP 1
      ALLTAKES 0
      FADEIN 1 0 0 1 0 0
      FADEOUT 1 0 0 1 0 0
      MUTE 0
      SEL 1
      IGUID {FDFBC07E-B108-AF7C-88DD-EE625F550F9C}
      IID 21
      NAME "01-Recorded MIDI"
      VOLPAN 1 0 1 -1
      SOFFS 0 0
      PLAYRATE 1 1 0 -1 0 0.0021
      CHANMODE 0
      GUID {C11F0774-0C37-DF89-A5B2-BE694A075632}
      RECPASS 1
      <SOURCE MIDI
        HASDATA 1 960 QN
        CCINTERP 32
        POOLEDEVTS {00EBE915-7CD1-AC5A-EDC3-1D11F0870E2A}
        E 0 90 3c 48
        E 0 90 40 48
        E 0 90 43 48
        E 1920 80 3c 00
        E 0 80 40 00
        E 0 80 43 00
        E 0 90 3c 48
        E 0 90 40 48
        E 0 90 43 48
        E 260 80 3c 00
        E 0 80 40 00
        E 0 80 43 00
        E 440 90 3c 48
        E 0 90 40 48
        E 0 90 43 48
        E 260 80 3c 00
        E 0 80 40 00
        E 0 80 43 00
        e 514 90 3c 48
        e 0 90 40 48
        e 0 90 43 48
        e 260 80 3c 00
        e 0 80 40 00
        e 0 80 43 00
        E 186 90 43 48
        E 0 90 47 48
        E 20 90 40 48
        E 1900 80 43 00
        E 0 80 47 00
        E 0 80 40 00
        E 0 90 43 48
        E 0 90 47 48
        E 20 90 40 48
        E 240 80 43 00
        E 0 80 47 00
        E 0 80 40 00
        E 440 90 43 48
        E 0 90 47 48
        E 20 90 40 48
        E 240 80 43 00
        E 0 80 47 00
        E 0 80 40 00
        e 514 90 43 48
        e 0 90 47 48
        e 20 90 40 48
        e 240 80 43 00
        e 0 80 47 00
        e 0 80 40 00
        E 186 90 41 48
        E 0 90 45 48
        E 0 90 48 48
        E 1920 80 41 00
        E 0 80 45 00
        E 0 80 48 00
        E 0 90 41 48
        E 0 90 45 48
        E 0 90 48 48
        E 260 80 41 00
        E 0 80 45 00
        E 0 80 48 00
        E 440 90 41 48
        E 0 90 45 48
        E 0 90 48 48
        E 260 80 41 00
        E 0 80 45 00
        E 0 80 48 00
        e 514 90 41 48
        e 0 90 45 48
        e 0 90 48 48
        e 260 80 41 00
        e 0 80 45 00
        e 0 80 48 00
        E 162 90 3e 48
        E 24 90 41 48
        E 0 90 45 48
        E 1896 90 3e 48
        E 24 80 3e 00
        E 0 80 41 00
        E 0 80 45 00
        E 0 90 41 48
        E 0 90 45 48
        E 260 80 3e 00
        E 0 80 41 00
        E 0 80 45 00
        E 416 90 3e 48
        E 24 90 41 48
        E 0 90 45 48
        E 260 80 3e 00
        E 0 80 41 00
        E 0 80 45 00
        e 490 90 3e 48
        e 24 90 41 48
        e 0 90 45 48
        e 260 80 3e 00
        e 0 80 41 00
        e 0 80 45 00
        E 186 b0 7b 00
        CHASE_CC_TAKEOFFS 1
        GUID {C762B555-17FC-D765-5340-11D3487D2955}
        IGNTEMPO 0 120 4 4
        SRCCOLOR 28
        VELLANE -1 100 0
        CFGEDITVIEW 0 0.045808 45 12 0 -1 0 0 0 0.5
        KEYSNAP 0
        TRACKSEL 0
        EVTFILTER 0 -1 -1 -1 -1 0 0 0 0 -1 -1 -1 -1 0 -1 0 -1 -1
        CFGEDIT 1 1 0 1 0 0 1 1 1 1 1 1 58 171 1253 866 0 0 0 0 0.25 0 0 0 0 0.5 0 0 1 64
      >
    >
  >
  <TRACK {F873A4F1-AEFF-F52F-EDF7-E2145DD047D3}
    NAME ""
    PEAKCOL 16576
    BEAT -1
    AUTOMODE 0
    VOLPAN 0.00052194381917 0 -1 -1 1
    MUTESOLO 0 0 0
    IPHASE 0
    PLAYOFFS 0 1
    ISBUS 0 0
    BUSCOMP 0 0 0 0 0
    SHOWINMIX 1 0.6667 0.5 1 0.5 0 0 0
    FREEMODE 0
    SEL 0
    REC 0 5056 1 0 0 0 0
    VU 2
    TRACKHEIGHT 21 0 0
    INQ 0 0 0 0.5 100 0 0 100
    NCHAN 2
    FX 0
    TRACKID {F873A4F1-AEFF-F52F-EDF7-E2145DD047D3}
    PERF 0
    MIDIOUT -1
    MAINSEND 1 0
    <FXCHAIN
      WNDRECT 346 266 902 608
      SHOW 0
      LASTSEL 5
      DOCKED 0
      BYPASS 0 0 0
      <VST "VST: ReaEQ (Cockos)" reaeq.vst.so 0 "" 1919247729<56535472656571726561657100000000> ""
        cWVlcu5e7f4CAAAAAQAAAAAAAAACAAAAAAAAAAIAAAABAAAAAAAAAAIAAAAAAAAAqAAAAAEAAAAAABAA
        IQAAAAQAAAAEAAAAAQAAAEC4Xhmm+DRAAAAAAAAA8D8AAAAAAAAAQAEIAAAAAQAAAAAAAAAAwHJAAAAAAAAA8D8AAAAAAAAAQAEIAAAAAQAAAAAAAAAAQI9AAAAAAAAA
        8D8AAAAAAAAAQAEDAAAAAQAAAAABaCorbdRAAAAAAAAA8D8AAAAAAAAAQAEBAAAAAQAAAAAAAAAAAPA/AAAAAJoCAACcAQAA
        AEhpZ2ggbG93IHBhc3MAEAAAAA==
      >
      PRESETNAME "High low pass"
      FLOATPOS 0 0 0 0
      FXID {AEDD0732-4737-242D-7B62-61B482709577}
      WAK 0 0
      BYPASS 0 0 0
      <VST "VSTi: ReaSynth (Cockos)" reasynth.vst.so 0 "" 1919251321<5653547265737972656173796E746800> ""
        eXNlcu9e7f4AAAAAAgAAAAEAAAAAAAAAAgAAAAAAAAA8AAAAAAAAAAAAEAA=
        776t3g3wrd6lm8Q7F7fROgAAAAAAAAAAAAAAAJCNuT3oZ4g9AACAPwAAAD8AAIA/AAAAAAAAAD8AAAAA
        AAAQAAAA
      >
      FLOATPOS 0 0 0 0
      FXID {044F8BB1-90A0-D48F-B2D6-199102AF4FF5}
      WAK 0 0
      BYPASS 0 0 0
      <JS guitar/amp-model ""
        "Dumble Overdrive Special - Tweed Deluxe.wav" -21.000000 1.000000 0.000000 73.000000 256.000000 - - - - - - - - - - - - - - - - - - - - - - - - - - - - - - - - - - - - - - - - - - - - - - - - - - - - - - - - - - 
      >
      FLOATPOS 0 0 0 0
      FXID {806303E5-E204-D256-1BF3-05A6D584E99E}
      WAK 0 0
      BYPASS 0 0 0
      <VST "VST: ReaComp (Cockos)" reacomp.vst.so 0 "" 1919247213<5653547265636D726561636F6D700000> ""
        bWNlcu9e7f4EAAAAAQAAAAAAAAACAAAAAAAAAAQAAAAAAAAACAAAAAAAAAACAAAAAQAAAAAAAAACAAAAAAAAAFQAAAAAAAAAAAAQAA==
        776t3g3wrd5FoYg9/AWpPKWbxDsK16M8AAAAAAAAAAAAAIA/AAAAAAAAAAAAAAAAnNEHMwAAgD8AAAAAzMxMPQAAAAAAAAAAAAAAAAAAgD7YiZ09
        AAAQAAAA
      >
      FLOATPOS 0 0 0 0
      FXID {36D2BEAA-178F-2A8A-086E-2F77E80B274A}
      WAK 0 0
      BYPASS 0 0 0
      <VST "VST: ReaDelay (Cockos)" readelay.vst.so 0 "" 1919247468<5653547265646C72656164656C617900> ""
        bGRlcu5e7f4CAAAAAQAAAAAAAAACAAAAAAAAAAIAAAABAAAAAAAAAAIAAAAAAAAA/AAAAAEAAAAAAAAA
        AAAAAAAAAAAFAAAALAAAAAIAAAAEAAAAAACAPwAAgD8AAAAAAACAPwAAAAAAAIA7vTeGNQAAgD8AAAAAAACAPwAAgD8AAIA/AAAAAAAAAAAAAIA/AAAAAAAAADwAAAAA
        AACAPwAAAAAAAIA/AACAP+87NT8AAIA/AAAAAAAAgD8AAAAAAABAPL03hjUAAIA/AAAAAAAAgD8AAIA/zk0AP6abhD4AAAAAAACAPwAAAAAAAIA8vTeGNQAAgD8AAAAA
        AACAPwAAgD8aqrU+pHA9PwAAAAAAAIA/AAAAAAAAoDy9N4Y1AACAPwAAAAAAAIA/AACAP/npAD4AAAA/
        AHN0b2NrIC0gYmFzaWMgNSB0YXAgcGluZyBwb25nAAAAAAA=
      >
      PRESETNAME "stock - basic 5 tap ping pong"
      FLOATPOS 0 0 0 0
      FXID {86AA04EF-626F-E58C-402F-6DE40B8077EA}
      WAK 0 0
      BYPASS 0 0 0
      <VST "VST: ReaVerb (Cockos)" reaverb.vst.so 0 "" 1919252066<56535472657662726561766572620000> ""
        YnZlcu5e7f4CAAAAAQAAAAAAAAACAAAAAAAAAAIAAAABAAAAAAAAAAIAAAAAAAAAcAAAAAEAAAAAAAAA
        AAAAwcybgD4AAIA/AAAAAAAAgD8AAIA/AAAAPwAAgD8AAAAAVkVSQkdFTgAYAAAAAAAAAJHgV0QdrLRA3rK7QsHIjEIAAIC/RUNIT0dFTgAcAAAAy/i2QLUjdUJdzdM/
        osdfP5lRrzyRzYxAnMQAPw==
        AHN3ZWV0dmVyYm8AAAAAAA==
      >
      PRESETNAME sweetverbo
      FLOATPOS 0 0 0 0
      FXID {654E58E3-E22A-4C89-B070-E6318B2963AC}
      WAK 0 0
    >
    <ITEM
      POSITION 0
      SNAPOFFS 0
      LENGTH 8
      LOOP 1
      ALLTAKES 0
      FADEIN 1 0 0 1 0 0
      FADEOUT 1 0 0 1 0 0
      MUTE 0
      SEL 1
      IGUID {D34B0ECD-B545-4914-CB29-39666524B487}
      IID 10
      NAME "01-Recorded MIDI"
      VOLPAN 1 0 1 -1
      SOFFS 0 0
      PLAYRATE 1 1 0 -1 0 0.0021
      CHANMODE 0
      GUID {F740A728-469F-29B1-9372-7DEB0918510A}
      RECPASS 1
      <SOURCE MIDI
        HASDATA 1 960 QN
        CCINTERP 32
        POOLEDEVTS {A7F1A84A-F368-97FC-3EB5-EDCE5739C4B3}
        E 0 90 3c 48
        E 0 90 40 48
        E 0 90 43 48
        E 1920 80 3c 00
        E 0 80 40 00
        E 0 80 43 00
        E 0 90 3c 48
        E 0 90 40 48
        E 0 90 43 48
        E 260 80 3c 00
        E 0 80 40 00
        E 0 80 43 00
        E 440 90 3c 48
        E 0 90 40 48
        E 0 90 43 48
        E 260 80 3c 00
        E 0 80 40 00
        E 0 80 43 00
        e 514 90 3c 48
        e 0 90 40 48
        e 0 90 43 48
        e 260 80 3c 00
        e 0 80 40 00
        e 0 80 43 00
        E 186 90 43 48
        E 0 90 47 48
        E 20 90 40 48
        E 1900 80 43 00
        E 0 80 47 00
        E 0 80 40 00
        E 0 90 43 48
        E 0 90 47 48
        E 20 90 40 48
        E 240 80 43 00
        E 0 80 47 00
        E 0 80 40 00
        E 440 90 43 48
        E 0 90 47 48
        E 20 90 40 48
        E 240 80 43 00
        E 0 80 47 00
        E 0 80 40 00
        e 514 90 43 48
        e 0 90 47 48
        e 20 90 40 48
        e 240 80 43 00
        e 0 80 47 00
        e 0 80 40 00
        E 186 90 41 48
        E 0 90 45 48
        E 0 90 48 48
        E 1920 80 41 00
        E 0 80 45 00
        E 0 80 48 00
        E 0 90 41 48
        E 0 90 45 48
        E 0 90 48 48
        E 260 80 41 00
        E 0 80 45 00
        E 0 80 48 00
        E 440 90 41 48
        E 0 90 45 48
        E 0 90 48 48
        E 260 80 41 00
        E 0 80 45 00
        E 0 80 48 00
        e 514 90 41 48
        e 0 90 45 48
        e 0 90 48 48
        e 260 80 41 00
        e 0 80 45 00
        e 0 80 48 00
        E 162 90 3e 48
        E 24 90 41 48
        E 0 90 45 48
        E 1896 90 3e 48
        E 24 80 3e 00
        E 0 80 41 00
        E 0 80 45 00
        E 0 90 41 48
        E 0 90 45 48
        E 260 80 3e 00
        E 0 80 41 00
        E 0 80 45 00
        E 416 90 3e 48
        E 24 90 41 48
        E 0 90 45 48
        E 260 80 3e 00
        E 0 80 41 00
        E 0 80 45 00
        e 490 90 3e 48
        e 24 90 41 48
        e 0 90 45 48
        e 260 80 3e 00
        e 0 80 41 00
        e 0 80 45 00
        E 186 b0 7b 00
        CHASE_CC_TAKEOFFS 1
        GUID {7B9D708B-43E1-C8D4-C4B3-87E2A6C27801}
        IGNTEMPO 0 120 4 4
        SRCCOLOR 17
        VELLANE -1 100 0
        CFGEDITVIEW 0 0.045808 45 12 0 -1 0 0 0 0.5
        KEYSNAP 0
        TRACKSEL 0
        EVTFILTER 0 -1 -1 -1 -1 0 0 0 0 -1 -1 -1 -1 0 -1 0 -1 -1
        CFGEDIT 1 1 0 1 0 0 1 1 1 1 1 1 58 171 1253 866 0 0 0 0 0.25 0 0 0 0 0.5 0 0 1 64
      >
    >
    <ITEM
      POSITION 8
      SNAPOFFS 0
      LENGTH 8
      LOOP 1
      ALLTAKES 0
      FADEIN 1 0 0 1 0 0
      FADEOUT 1 0 0 1 0 0
      MUTE 0
      SEL 1
      IGUID {5ABF5AC1-B8AA-FC57-EB8F-11B28D913527}
      IID 11
      NAME "01-Recorded MIDI"
      VOLPAN 1 0 1 -1
      SOFFS 0 0
      PLAYRATE 1 1 0 -1 0 0.0021
      CHANMODE 0
      GUID {69BB2555-83A2-78D7-9F2C-BDBD4A00C9BB}
      RECPASS 1
      <SOURCE MIDI
        HASDATA 1 960 QN
        CCINTERP 32
        POOLEDEVTS {EDEBD870-4AD8-DF8E-3168-41358E1D9067}
        E 0 90 3c 48
        E 0 90 40 48
        E 0 90 43 48
        E 1920 80 3c 00
        E 0 80 40 00
        E 0 80 43 00
        E 0 90 3c 48
        E 0 90 40 48
        E 0 90 43 48
        E 260 80 3c 00
        E 0 80 40 00
        E 0 80 43 00
        E 440 90 3c 48
        E 0 90 40 48
        E 0 90 43 48
        E 260 80 3c 00
        E 0 80 40 00
        E 0 80 43 00
        e 514 90 3c 48
        e 0 90 40 48
        e 0 90 43 48
        e 260 80 3c 00
        e 0 80 40 00
        e 0 80 43 00
        E 186 90 43 48
        E 0 90 47 48
        E 20 90 40 48
        E 1900 80 43 00
        E 0 80 47 00
        E 0 80 40 00
        E 0 90 43 48
        E 0 90 47 48
        E 20 90 40 48
        E 240 80 43 00
        E 0 80 47 00
        E 0 80 40 00
        E 440 90 43 48
        E 0 90 47 48
        E 20 90 40 48
        E 240 80 43 00
        E 0 80 47 00
        E 0 80 40 00
        e 514 90 43 48
        e 0 90 47 48
        e 20 90 40 48
        e 240 80 43 00
        e 0 80 47 00
        e 0 80 40 00
        E 186 90 41 48
        E 0 90 45 48
        E 0 90 48 48
        E 1920 80 41 00
        E 0 80 45 00
        E 0 80 48 00
        E 0 90 41 48
        E 0 90 45 48
        E 0 90 48 48
        E 260 80 41 00
        E 0 80 45 00
        E 0 80 48 00
        E 440 90 41 48
        E 0 90 45 48
        E 0 90 48 48
        E 260 80 41 00
        E 0 80 45 00
        E 0 80 48 00
        e 514 90 41 48
        e 0 90 45 48
        e 0 90 48 48
        e 260 80 41 00
        e 0 80 45 00
        e 0 80 48 00
        E 162 90 3e 48
        E 24 90 41 48
        E 0 90 45 48
        E 1896 90 3e 48
        E 24 80 3e 00
        E 0 80 41 00
        E 0 80 45 00
        E 0 90 41 48
        E 0 90 45 48
        E 260 80 3e 00
        E 0 80 41 00
        E 0 80 45 00
        E 416 90 3e 48
        E 24 90 41 48
        E 0 90 45 48
        E 260 80 3e 00
        E 0 80 41 00
        E 0 80 45 00
        e 490 90 3e 48
        e 24 90 41 48
        e 0 90 45 48
        e 260 80 3e 00
        e 0 80 41 00
        e 0 80 45 00
        E 186 b0 7b 00
        CHASE_CC_TAKEOFFS 1
        GUID {3131B4E2-B370-E352-A9C5-C8CA31551A86}
        IGNTEMPO 0 120 4 4
        SRCCOLOR 18
        VELLANE -1 100 0
        CFGEDITVIEW 0 0.045808 45 12 0 -1 0 0 0 0.5
        KEYSNAP 0
        TRACKSEL 0
        EVTFILTER 0 -1 -1 -1 -1 0 0 0 0 -1 -1 -1 -1 0 -1 0 -1 -1
        CFGEDIT 1 1 0 1 0 0 1 1 1 1 1 1 58 171 1253 866 0 0 0 0 0.25 0 0 0 0 0.5 0 0 1 64
      >
    >
    <ITEM
      POSITION 16
      SNAPOFFS 0
      LENGTH 8
      LOOP 1
      ALLTAKES 0
      FADEIN 1 0 0 1 0 0
      FADEOUT 1 0 0 1 0 0
      MUTE 0
      SEL 1
      IGUID {FBAEA190-4C5D-614A-9146-7BD52D3A9B5F}
      IID 12
      NAME "01-Recorded MIDI"
      VOLPAN 1 0 1 -1
      SOFFS 0 0
      PLAYRATE 1 1 0 -1 0 0.0021
      CHANMODE 0
      GUID {0D72F475-6B8A-C6A4-52CA-87B32404F411}
      RECPASS 1
      <SOURCE MIDI
        HASDATA 1 960 QN
        CCINTERP 32
        POOLEDEVTS {863E90B2-005E-F152-F835-FD5534138576}
        E 0 90 3c 48
        E 0 90 40 48
        E 0 90 43 48
        E 1920 80 3c 00
        E 0 80 40 00
        E 0 80 43 00
        E 0 90 3c 48
        E 0 90 40 48
        E 0 90 43 48
        E 260 80 3c 00
        E 0 80 40 00
        E 0 80 43 00
        E 440 90 3c 48
        E 0 90 40 48
        E 0 90 43 48
        E 260 80 3c 00
        E 0 80 40 00
        E 0 80 43 00
        e 514 90 3c 48
        e 0 90 40 48
        e 0 90 43 48
        e 260 80 3c 00
        e 0 80 40 00
        e 0 80 43 00
        E 186 90 43 48
        E 0 90 47 48
        E 20 90 40 48
        E 1900 80 43 00
        E 0 80 47 00
        E 0 80 40 00
        E 0 90 43 48
        E 0 90 47 48
        E 20 90 40 48
        E 240 80 43 00
        E 0 80 47 00
        E 0 80 40 00
        E 440 90 43 48
        E 0 90 47 48
        E 20 90 40 48
        E 240 80 43 00
        E 0 80 47 00
        E 0 80 40 00
        e 514 90 43 48
        e 0 90 47 48
        e 20 90 40 48
        e 240 80 43 00
        e 0 80 47 00
        e 0 80 40 00
        E 186 90 41 48
        E 0 90 45 48
        E 0 90 48 48
        E 1920 80 41 00
        E 0 80 45 00
        E 0 80 48 00
        E 0 90 41 48
        E 0 90 45 48
        E 0 90 48 48
        E 260 80 41 00
        E 0 80 45 00
        E 0 80 48 00
        E 440 90 41 48
        E 0 90 45 48
        E 0 90 48 48
        E 260 80 41 00
        E 0 80 45 00
        E 0 80 48 00
        e 514 90 41 48
        e 0 90 45 48
        e 0 90 48 48
        e 260 80 41 00
        e 0 80 45 00
        e 0 80 48 00
        E 162 90 3e 48
        E 24 90 41 48
        E 0 90 45 48
        E 1896 90 3e 48
        E 24 80 3e 00
        E 0 80 41 00
        E 0 80 45 00
        E 0 90 41 48
        E 0 90 45 48
        E 260 80 3e 00
        E 0 80 41 00
        E 0 80 45 00
        E 416 90 3e 48
        E 24 90 41 48
        E 0 90 45 48
        E 260 80 3e 00
        E 0 80 41 00
        E 0 80 45 00
        e 490 90 3e 48
        e 24 90 41 48
        e 0 90 45 48
        e 260 80 3e 00
        e 0 80 41 00
        e 0 80 45 00
        E 186 b0 7b 00
        CHASE_CC_TAKEOFFS 1
        GUID {48C567A2-895C-FB9B-FDBA-0ADB7004ABF3}
        IGNTEMPO 0 120 4 4
        SRCCOLOR 19
        VELLANE -1 100 0
        CFGEDITVIEW 0 0.045808 45 12 0 -1 0 0 0 0.5
        KEYSNAP 0
        TRACKSEL 0
        EVTFILTER 0 -1 -1 -1 -1 0 0 0 0 -1 -1 -1 -1 0 -1 0 -1 -1
        CFGEDIT 1 1 0 1 0 0 1 1 1 1 1 1 58 171 1253 866 0 0 0 0 0.25 0 0 0 0 0.5 0 0 1 64
      >
    >
    <ITEM
      POSITION 24
      SNAPOFFS 0
      LENGTH 8
      LOOP 1
      ALLTAKES 0
      FADEIN 1 0 0 1 0 0
      FADEOUT 1 0 0 1 0 0
      MUTE 0
      SEL 1
      IGUID {43335510-8511-CA9D-938D-E25C5A0CB2BA}
      IID 13
      NAME "01-Recorded MIDI"
      VOLPAN 1 0 1 -1
      SOFFS 0 0
      PLAYRATE 1 1 0 -1 0 0.0021
      CHANMODE 0
      GUID {CD3FCDBC-7569-23D3-C28D-8D5A157264D7}
      RECPASS 1
      <SOURCE MIDI
        HASDATA 1 960 QN
        CCINTERP 32
        POOLEDEVTS {942EFE6E-EEDD-A629-2F76-A42D12D9A8C0}
        E 0 90 3c 48
        E 0 90 40 48
        E 0 90 43 48
        E 1920 80 3c 00
        E 0 80 40 00
        E 0 80 43 00
        E 0 90 3c 48
        E 0 90 40 48
        E 0 90 43 48
        E 260 80 3c 00
        E 0 80 40 00
        E 0 80 43 00
        E 440 90 3c 48
        E 0 90 40 48
        E 0 90 43 48
        E 260 80 3c 00
        E 0 80 40 00
        E 0 80 43 00
        e 514 90 3c 48
        e 0 90 40 48
        e 0 90 43 48
        e 260 80 3c 00
        e 0 80 40 00
        e 0 80 43 00
        E 186 90 43 48
        E 0 90 47 48
        E 20 90 40 48
        E 1900 80 43 00
        E 0 80 47 00
        E 0 80 40 00
        E 0 90 43 48
        E 0 90 47 48
        E 20 90 40 48
        E 240 80 43 00
        E 0 80 47 00
        E 0 80 40 00
        E 440 90 43 48
        E 0 90 47 48
        E 20 90 40 48
        E 240 80 43 00
        E 0 80 47 00
        E 0 80 40 00
        e 514 90 43 48
        e 0 90 47 48
        e 20 90 40 48
        e 240 80 43 00
        e 0 80 47 00
        e 0 80 40 00
        E 186 90 41 48
        E 0 90 45 48
        E 0 90 48 48
        E 1920 80 41 00
        E 0 80 45 00
        E 0 80 48 00
        E 0 90 41 48
        E 0 90 45 48
        E 0 90 48 48
        E 260 80 41 00
        E 0 80 45 00
        E 0 80 48 00
        E 440 90 41 48
        E 0 90 45 48
        E 0 90 48 48
        E 260 80 41 00
        E 0 80 45 00
        E 0 80 48 00
        e 514 90 41 48
        e 0 90 45 48
        e 0 90 48 48
        e 260 80 41 00
        e 0 80 45 00
        e 0 80 48 00
        E 162 90 3e 48
        E 24 90 41 48
        E 0 90 45 48
        E 1896 90 3e 48
        E 24 80 3e 00
        E 0 80 41 00
        E 0 80 45 00
        E 0 90 41 48
        E 0 90 45 48
        E 260 80 3e 00
        E 0 80 41 00
        E 0 80 45 00
        E 416 90 3e 48
        E 24 90 41 48
        E 0 90 45 48
        E 260 80 3e 00
        E 0 80 41 00
        E 0 80 45 00
        e 490 90 3e 48
        e 24 90 41 48
        e 0 90 45 48
        e 260 80 3e 00
        e 0 80 41 00
        e 0 80 45 00
        E 186 b0 7b 00
        CHASE_CC_TAKEOFFS 1
        GUID {1DE38800-E2A1-41B5-9C8C-3291891093B1}
        IGNTEMPO 0 120 4 4
        SRCCOLOR 20
        VELLANE -1 100 0
        CFGEDITVIEW 0 0.045808 45 12 0 -1 0 0 0 0.5
        KEYSNAP 0
        TRACKSEL 0
        EVTFILTER 0 -1 -1 -1 -1 0 0 0 0 -1 -1 -1 -1 0 -1 0 -1 -1
        CFGEDIT 1 1 0 1 0 0 1 1 1 1 1 1 58 171 1253 866 0 0 0 0 0.25 0 0 0 0 0.5 0 0 1 64
      >
    >
    <ITEM
      POSITION 32
      SNAPOFFS 0
      LENGTH 8
      LOOP 1
      ALLTAKES 0
      FADEIN 1 0 0 1 0 0
      FADEOUT 1 0 0 1 0 0
      MUTE 0
      SEL 1
      IGUID {9FDA23F2-1F1E-C0D4-135E-A314990C789D}
      IID 14
      NAME "01-Recorded MIDI"
      VOLPAN 1 0 1 -1
      SOFFS 0 0
      PLAYRATE 1 1 0 -1 0 0.0021
      CHANMODE 0
      GUID {7F399444-4752-FE0D-A168-B93564EA0BD8}
      RECPASS 1
      <SOURCE MIDI
        HASDATA 1 960 QN
        CCINTERP 32
        POOLEDEVTS {015D440B-C6AD-DB7E-C173-2D71E972C5A9}
        E 0 90 3c 48
        E 0 90 40 48
        E 0 90 43 48
        E 1920 80 3c 00
        E 0 80 40 00
        E 0 80 43 00
        E 0 90 3c 48
        E 0 90 40 48
        E 0 90 43 48
        E 260 80 3c 00
        E 0 80 40 00
        E 0 80 43 00
        E 440 90 3c 48
        E 0 90 40 48
        E 0 90 43 48
        E 260 80 3c 00
        E 0 80 40 00
        E 0 80 43 00
        e 514 90 3c 48
        e 0 90 40 48
        e 0 90 43 48
        e 260 80 3c 00
        e 0 80 40 00
        e 0 80 43 00
        E 186 90 43 48
        E 0 90 47 48
        E 20 90 40 48
        E 1900 80 43 00
        E 0 80 47 00
        E 0 80 40 00
        E 0 90 43 48
        E 0 90 47 48
        E 20 90 40 48
        E 240 80 43 00
        E 0 80 47 00
        E 0 80 40 00
        E 440 90 43 48
        E 0 90 47 48
        E 20 90 40 48
        E 240 80 43 00
        E 0 80 47 00
        E 0 80 40 00
        e 514 90 43 48
        e 0 90 47 48
        e 20 90 40 48
        e 240 80 43 00
        e 0 80 47 00
        e 0 80 40 00
        E 186 90 41 48
        E 0 90 45 48
        E 0 90 48 48
        E 1920 80 41 00
        E 0 80 45 00
        E 0 80 48 00
        E 0 90 41 48
        E 0 90 45 48
        E 0 90 48 48
        E 260 80 41 00
        E 0 80 45 00
        E 0 80 48 00
        E 440 90 41 48
        E 0 90 45 48
        E 0 90 48 48
        E 260 80 41 00
        E 0 80 45 00
        E 0 80 48 00
        e 514 90 41 48
        e 0 90 45 48
        e 0 90 48 48
        e 260 80 41 00
        e 0 80 45 00
        e 0 80 48 00
        E 162 90 3e 48
        E 24 90 41 48
        E 0 90 45 48
        E 1896 90 3e 48
        E 24 80 3e 00
        E 0 80 41 00
        E 0 80 45 00
        E 0 90 41 48
        E 0 90 45 48
        E 260 80 3e 00
        E 0 80 41 00
        E 0 80 45 00
        E 416 90 3e 48
        E 24 90 41 48
        E 0 90 45 48
        E 260 80 3e 00
        E 0 80 41 00
        E 0 80 45 00
        e 490 90 3e 48
        e 24 90 41 48
        e 0 90 45 48
        e 260 80 3e 00
        e 0 80 41 00
        e 0 80 45 00
        E 186 b0 7b 00
        CHASE_CC_TAKEOFFS 1
        GUID {0C3271F4-E233-9088-9B25-A722FAE7C579}
        IGNTEMPO 0 120 4 4
        SRCCOLOR 21
        VELLANE -1 100 0
        CFGEDITVIEW 0 0.045808 45 12 0 -1 0 0 0 0.5
        KEYSNAP 0
        TRACKSEL 0
        EVTFILTER 0 -1 -1 -1 -1 0 0 0 0 -1 -1 -1 -1 0 -1 0 -1 -1
        CFGEDIT 1 1 0 1 0 0 1 1 1 1 1 1 58 171 1253 866 0 0 0 0 0.25 0 0 0 0 0.5 0 0 1 64
      >
    >
    <ITEM
      POSITION 40
      SNAPOFFS 0
      LENGTH 8
      LOOP 1
      ALLTAKES 0
      FADEIN 1 0 0 1 0 0
      FADEOUT 1 0 0 1 0 0
      MUTE 0
      SEL 1
      IGUID {B630EEC6-6B36-60B3-96EC-234A9F60D154}
      IID 15
      NAME "01-Recorded MIDI"
      VOLPAN 1 0 1 -1
      SOFFS 0 0
      PLAYRATE 1 1 0 -1 0 0.0021
      CHANMODE 0
      GUID {A87881F2-9A3E-C0B5-E7D4-21C605EE1046}
      RECPASS 1
      <SOURCE MIDI
        HASDATA 1 960 QN
        CCINTERP 32
        POOLEDEVTS {5A166E5B-34C3-79C9-DC65-ED6188F7109A}
        E 0 90 3c 48
        E 0 90 40 48
        E 0 90 43 48
        E 1920 80 3c 00
        E 0 80 40 00
        E 0 80 43 00
        E 0 90 3c 48
        E 0 90 40 48
        E 0 90 43 48
        E 260 80 3c 00
        E 0 80 40 00
        E 0 80 43 00
        E 440 90 3c 48
        E 0 90 40 48
        E 0 90 43 48
        E 260 80 3c 00
        E 0 80 40 00
        E 0 80 43 00
        e 514 90 3c 48
        e 0 90 40 48
        e 0 90 43 48
        e 260 80 3c 00
        e 0 80 40 00
        e 0 80 43 00
        E 186 90 43 48
        E 0 90 47 48
        E 20 90 40 48
        E 1900 80 43 00
        E 0 80 47 00
        E 0 80 40 00
        E 0 90 43 48
        E 0 90 47 48
        E 20 90 40 48
        E 240 80 43 00
        E 0 80 47 00
        E 0 80 40 00
        E 440 90 43 48
        E 0 90 47 48
        E 20 90 40 48
        E 240 80 43 00
        E 0 80 47 00
        E 0 80 40 00
        e 514 90 43 48
        e 0 90 47 48
        e 20 90 40 48
        e 240 80 43 00
        e 0 80 47 00
        e 0 80 40 00
        E 186 90 41 48
        E 0 90 45 48
        E 0 90 48 48
        E 1920 80 41 00
        E 0 80 45 00
        E 0 80 48 00
        E 0 90 41 48
        E 0 90 45 48
        E 0 90 48 48
        E 260 80 41 00
        E 0 80 45 00
        E 0 80 48 00
        E 440 90 41 48
        E 0 90 45 48
        E 0 90 48 48
        E 260 80 41 00
        E 0 80 45 00
        E 0 80 48 00
        e 514 90 41 48
        e 0 90 45 48
        e 0 90 48 48
        e 260 80 41 00
        e 0 80 45 00
        e 0 80 48 00
        E 162 90 3e 48
        E 24 90 41 48
        E 0 90 45 48
        E 1896 90 3e 48
        E 24 80 3e 00
        E 0 80 41 00
        E 0 80 45 00
        E 0 90 41 48
        E 0 90 45 48
        E 260 80 3e 00
        E 0 80 41 00
        E 0 80 45 00
        E 416 90 3e 48
        E 24 90 41 48
        E 0 90 45 48
        E 260 80 3e 00
        E 0 80 41 00
        E 0 80 45 00
        e 490 90 3e 48
        e 24 90 41 48
        e 0 90 45 48
        e 260 80 3e 00
        e 0 80 41 00
        e 0 80 45 00
        E 186 b0 7b 00
        CHASE_CC_TAKEOFFS 1
        GUID {040E7AF8-3572-5D91-3C86-797AEE7444D4}
        IGNTEMPO 0 120 4 4
        SRCCOLOR 22
        VELLANE -1 100 0
        CFGEDITVIEW 0 0.045808 45 12 0 -1 0 0 0 0.5
        KEYSNAP 0
        TRACKSEL 0
        EVTFILTER 0 -1 -1 -1 -1 0 0 0 0 -1 -1 -1 -1 0 -1 0 -1 -1
        CFGEDIT 1 1 0 1 0 0 1 1 1 1 1 1 58 171 1253 866 0 0 0 0 0.25 0 0 0 0 0.5 0 0 1 64
      >
    >
    <ITEM
      POSITION 48
      SNAPOFFS 0
      LENGTH 8
      LOOP 1
      ALLTAKES 0
      FADEIN 1 0 0 1 0 0
      FADEOUT 1 0 0 1 0 0
      MUTE 0
      SEL 1
      IGUID {4BBA1E42-350C-CB53-773A-F852F3318FA2}
      IID 16
      NAME "01-Recorded MIDI"
      VOLPAN 1 0 1 -1
      SOFFS 0 0
      PLAYRATE 1 1 0 -1 0 0.0021
      CHANMODE 0
      GUID {F1E269E1-AFF7-E96E-DA74-4B88C4BBD576}
      RECPASS 1
      <SOURCE MIDI
        HASDATA 1 960 QN
        CCINTERP 32
        POOLEDEVTS {5F9AA6C4-2C26-FC44-A8D5-DD925FFEBDC7}
        E 0 90 3c 48
        E 0 90 40 48
        E 0 90 43 48
        E 1920 80 3c 00
        E 0 80 40 00
        E 0 80 43 00
        E 0 90 3c 48
        E 0 90 40 48
        E 0 90 43 48
        E 260 80 3c 00
        E 0 80 40 00
        E 0 80 43 00
        E 440 90 3c 48
        E 0 90 40 48
        E 0 90 43 48
        E 260 80 3c 00
        E 0 80 40 00
        E 0 80 43 00
        e 514 90 3c 48
        e 0 90 40 48
        e 0 90 43 48
        e 260 80 3c 00
        e 0 80 40 00
        e 0 80 43 00
        E 186 90 43 48
        E 0 90 47 48
        E 20 90 40 48
        E 1900 80 43 00
        E 0 80 47 00
        E 0 80 40 00
        E 0 90 43 48
        E 0 90 47 48
        E 20 90 40 48
        E 240 80 43 00
        E 0 80 47 00
        E 0 80 40 00
        E 440 90 43 48
        E 0 90 47 48
        E 20 90 40 48
        E 240 80 43 00
        E 0 80 47 00
        E 0 80 40 00
        e 514 90 43 48
        e 0 90 47 48
        e 20 90 40 48
        e 240 80 43 00
        e 0 80 47 00
        e 0 80 40 00
        E 186 90 41 48
        E 0 90 45 48
        E 0 90 48 48
        E 1920 80 41 00
        E 0 80 45 00
        E 0 80 48 00
        E 0 90 41 48
        E 0 90 45 48
        E 0 90 48 48
        E 260 80 41 00
        E 0 80 45 00
        E 0 80 48 00
        E 440 90 41 48
        E 0 90 45 48
        E 0 90 48 48
        E 260 80 41 00
        E 0 80 45 00
        E 0 80 48 00
        e 514 90 41 48
        e 0 90 45 48
        e 0 90 48 48
        e 260 80 41 00
        e 0 80 45 00
        e 0 80 48 00
        E 162 90 3e 48
        E 24 90 41 48
        E 0 90 45 48
        E 1896 90 3e 48
        E 24 80 3e 00
        E 0 80 41 00
        E 0 80 45 00
        E 0 90 41 48
        E 0 90 45 48
        E 260 80 3e 00
        E 0 80 41 00
        E 0 80 45 00
        E 416 90 3e 48
        E 24 90 41 48
        E 0 90 45 48
        E 260 80 3e 00
        E 0 80 41 00
        E 0 80 45 00
        e 490 90 3e 48
        e 24 90 41 48
        e 0 90 45 48
        e 260 80 3e 00
        e 0 80 41 00
        e 0 80 45 00
        E 186 b0 7b 00
        CHASE_CC_TAKEOFFS 1
        GUID {2338968B-6CF9-9F40-300F-DEB89D3392EA}
        IGNTEMPO 0 120 4 4
        SRCCOLOR 23
        VELLANE -1 100 0
        CFGEDITVIEW 0 0.045808 45 12 0 -1 0 0 0 0.5
        KEYSNAP 0
        TRACKSEL 0
        EVTFILTER 0 -1 -1 -1 -1 0 0 0 0 -1 -1 -1 -1 0 -1 0 -1 -1
        CFGEDIT 1 1 0 1 0 0 1 1 1 1 1 1 58 171 1253 866 0 0 0 0 0.25 0 0 0 0 0.5 0 0 1 64
      >
    >
    <ITEM
      POSITION 56
      SNAPOFFS 0
      LENGTH 8
      LOOP 1
      ALLTAKES 0
      FADEIN 1 0 0 1 0 0
      FADEOUT 1 0 0 1 0 0
      MUTE 0
      SEL 1
      IGUID {D438C69B-907C-097F-E77C-81C63B4F7CCC}
      IID 17
      NAME "01-Recorded MIDI"
      VOLPAN 1 0 1 -1
      SOFFS 0 0
      PLAYRATE 1 1 0 -1 0 0.0021
      CHANMODE 0
      GUID {A2EBA3E4-5EEC-4F2E-2ADB-51C38EBB02F3}
      RECPASS 1
      <SOURCE MIDI
        HASDATA 1 960 QN
        CCINTERP 32
        POOLEDEVTS {C8896687-9358-9F71-06C7-EEE256F2E1FA}
        E 0 90 3c 48
        E 0 90 40 48
        E 0 90 43 48
        E 1920 80 3c 00
        E 0 80 40 00
        E 0 80 43 00
        E 0 90 3c 48
        E 0 90 40 48
        E 0 90 43 48
        E 260 80 3c 00
        E 0 80 40 00
        E 0 80 43 00
        E 440 90 3c 48
        E 0 90 40 48
        E 0 90 43 48
        E 260 80 3c 00
        E 0 80 40 00
        E 0 80 43 00
        e 514 90 3c 48
        e 0 90 40 48
        e 0 90 43 48
        e 260 80 3c 00
        e 0 80 40 00
        e 0 80 43 00
        E 186 90 43 48
        E 0 90 47 48
        E 20 90 40 48
        E 1900 80 43 00
        E 0 80 47 00
        E 0 80 40 00
        E 0 90 43 48
        E 0 90 47 48
        E 20 90 40 48
        E 240 80 43 00
        E 0 80 47 00
        E 0 80 40 00
        E 440 90 43 48
        E 0 90 47 48
        E 20 90 40 48
        E 240 80 43 00
        E 0 80 47 00
        E 0 80 40 00
        e 514 90 43 48
        e 0 90 47 48
        e 20 90 40 48
        e 240 80 43 00
        e 0 80 47 00
        e 0 80 40 00
        E 186 90 41 48
        E 0 90 45 48
        E 0 90 48 48
        E 1920 80 41 00
        E 0 80 45 00
        E 0 80 48 00
        E 0 90 41 48
        E 0 90 45 48
        E 0 90 48 48
        E 260 80 41 00
        E 0 80 45 00
        E 0 80 48 00
        E 440 90 41 48
        E 0 90 45 48
        E 0 90 48 48
        E 260 80 41 00
        E 0 80 45 00
        E 0 80 48 00
        e 514 90 41 48
        e 0 90 45 48
        e 0 90 48 48
        e 260 80 41 00
        e 0 80 45 00
        e 0 80 48 00
        E 162 90 3e 48
        E 24 90 41 48
        E 0 90 45 48
        E 1896 90 3e 48
        E 24 80 3e 00
        E 0 80 41 00
        E 0 80 45 00
        E 0 90 41 48
        E 0 90 45 48
        E 260 80 3e 00
        E 0 80 41 00
        E 0 80 45 00
        E 416 90 3e 48
        E 24 90 41 48
        E 0 90 45 48
        E 260 80 3e 00
        E 0 80 41 00
        E 0 80 45 00
        e 490 90 3e 48
        e 24 90 41 48
        e 0 90 45 48
        e 260 80 3e 00
        e 0 80 41 00
        e 0 80 45 00
        E 186 b0 7b 00
        CHASE_CC_TAKEOFFS 1
        GUID {A64857E2-94F8-0990-20DF-4C1E9B5E6251}
        IGNTEMPO 0 120 4 4
        SRCCOLOR 24
        VELLANE -1 100 0
        CFGEDITVIEW 0 0.045808 45 12 0 -1 0 0 0 0.5
        KEYSNAP 0
        TRACKSEL 0
        EVTFILTER 0 -1 -1 -1 -1 0 0 0 0 -1 -1 -1 -1 0 -1 0 -1 -1
        CFGEDIT 1 1 0 1 0 0 1 1 1 1 1 1 58 171 1253 866 0 0 0 0 0.25 0 0 0 0 0.5 0 0 1 64
      >
    >
    <ITEM
      POSITION 64
      SNAPOFFS 0
      LENGTH 8
      LOOP 1
      ALLTAKES 0
      FADEIN 1 0 0 1 0 0
      FADEOUT 1 0 0 1 0 0
      MUTE 0
      SEL 1
      IGUID {75F26E6D-8B20-726B-AF4E-2BA659F2457C}
      IID 18
      NAME "01-Recorded MIDI"
      VOLPAN 1 0 1 -1
      SOFFS 0 0
      PLAYRATE 1 1 0 -1 0 0.0021
      CHANMODE 0
      GUID {8BB607E3-063E-B23D-C806-50D15D14E8D2}
      RECPASS 1
      <SOURCE MIDI
        HASDATA 1 960 QN
        CCINTERP 32
        POOLEDEVTS {776E7287-051B-2B32-0758-B924282E519D}
        E 0 90 3c 48
        E 0 90 40 48
        E 0 90 43 48
        E 1920 80 3c 00
        E 0 80 40 00
        E 0 80 43 00
        E 0 90 3c 48
        E 0 90 40 48
        E 0 90 43 48
        E 260 80 3c 00
        E 0 80 40 00
        E 0 80 43 00
        E 440 90 3c 48
        E 0 90 40 48
        E 0 90 43 48
        E 260 80 3c 00
        E 0 80 40 00
        E 0 80 43 00
        e 514 90 3c 48
        e 0 90 40 48
        e 0 90 43 48
        e 260 80 3c 00
        e 0 80 40 00
        e 0 80 43 00
        E 186 90 43 48
        E 0 90 47 48
        E 20 90 40 48
        E 1900 80 43 00
        E 0 80 47 00
        E 0 80 40 00
        E 0 90 43 48
        E 0 90 47 48
        E 20 90 40 48
        E 240 80 43 00
        E 0 80 47 00
        E 0 80 40 00
        E 440 90 43 48
        E 0 90 47 48
        E 20 90 40 48
        E 240 80 43 00
        E 0 80 47 00
        E 0 80 40 00
        e 514 90 43 48
        e 0 90 47 48
        e 20 90 40 48
        e 240 80 43 00
        e 0 80 47 00
        e 0 80 40 00
        E 186 90 41 48
        E 0 90 45 48
        E 0 90 48 48
        E 1920 80 41 00
        E 0 80 45 00
        E 0 80 48 00
        E 0 90 41 48
        E 0 90 45 48
        E 0 90 48 48
        E 260 80 41 00
        E 0 80 45 00
        E 0 80 48 00
        E 440 90 41 48
        E 0 90 45 48
        E 0 90 48 48
        E 260 80 41 00
        E 0 80 45 00
        E 0 80 48 00
        e 514 90 41 48
        e 0 90 45 48
        e 0 90 48 48
        e 260 80 41 00
        e 0 80 45 00
        e 0 80 48 00
        E 162 90 3e 48
        E 24 90 41 48
        E 0 90 45 48
        E 1896 90 3e 48
        E 24 80 3e 00
        E 0 80 41 00
        E 0 80 45 00
        E 0 90 41 48
        E 0 90 45 48
        E 260 80 3e 00
        E 0 80 41 00
        E 0 80 45 00
        E 416 90 3e 48
        E 24 90 41 48
        E 0 90 45 48
        E 260 80 3e 00
        E 0 80 41 00
        E 0 80 45 00
        e 490 90 3e 48
        e 24 90 41 48
        e 0 90 45 48
        e 260 80 3e 00
        e 0 80 41 00
        e 0 80 45 00
        E 186 b0 7b 00
        CHASE_CC_TAKEOFFS 1
        GUID {19362806-85F2-5D9E-E1F9-07BE0CF3D16E}
        IGNTEMPO 0 120 4 4
        SRCCOLOR 25
        VELLANE -1 100 0
        CFGEDITVIEW 0 0.045808 45 12 0 -1 0 0 0 0.5
        KEYSNAP 0
        TRACKSEL 0
        EVTFILTER 0 -1 -1 -1 -1 0 0 0 0 -1 -1 -1 -1 0 -1 0 -1 -1
        CFGEDIT 1 1 0 1 0 0 1 1 1 1 1 1 58 171 1253 866 0 0 0 0 0.25 0 0 0 0 0.5 0 0 1 64
      >
    >
    <ITEM
      POSITION 72
      SNAPOFFS 0
      LENGTH 8
      LOOP 1
      ALLTAKES 0
      FADEIN 1 0 0 1 0 0
      FADEOUT 1 0 0 1 0 0
      MUTE 0
      SEL 1
      IGUID {5D6733B6-4A05-9E1D-8AD8-56E94FB9160F}
      IID 19
      NAME "01-Recorded MIDI"
      VOLPAN 1 0 1 -1
      SOFFS 0 0
      PLAYRATE 1 1 0 -1 0 0.0021
      CHANMODE 0
      GUID {689D1017-5BF9-8A88-69DB-05F5735067F7}
      RECPASS 1
      <SOURCE MIDI
        HASDATA 1 960 QN
        CCINTERP 32
        POOLEDEVTS {EFF2B9CE-D8A4-3E55-9E65-99B92C69C7F7}
        E 0 90 3c 48
        E 0 90 40 48
        E 0 90 43 48
        E 1920 80 3c 00
        E 0 80 40 00
        E 0 80 43 00
        E 0 90 3c 48
        E 0 90 40 48
        E 0 90 43 48
        E 260 80 3c 00
        E 0 80 40 00
        E 0 80 43 00
        E 440 90 3c 48
        E 0 90 40 48
        E 0 90 43 48
        E 260 80 3c 00
        E 0 80 40 00
        E 0 80 43 00
        e 514 90 3c 48
        e 0 90 40 48
        e 0 90 43 48
        e 260 80 3c 00
        e 0 80 40 00
        e 0 80 43 00
        E 186 90 43 48
        E 0 90 47 48
        E 20 90 40 48
        E 1900 80 43 00
        E 0 80 47 00
        E 0 80 40 00
        E 0 90 43 48
        E 0 90 47 48
        E 20 90 40 48
        E 240 80 43 00
        E 0 80 47 00
        E 0 80 40 00
        E 440 90 43 48
        E 0 90 47 48
        E 20 90 40 48
        E 240 80 43 00
        E 0 80 47 00
        E 0 80 40 00
        e 514 90 43 48
        e 0 90 47 48
        e 20 90 40 48
        e 240 80 43 00
        e 0 80 47 00
        e 0 80 40 00
        E 186 90 41 48
        E 0 90 45 48
        E 0 90 48 48
        E 1920 80 41 00
        E 0 80 45 00
        E 0 80 48 00
        E 0 90 41 48
        E 0 90 45 48
        E 0 90 48 48
        E 260 80 41 00
        E 0 80 45 00
        E 0 80 48 00
        E 440 90 41 48
        E 0 90 45 48
        E 0 90 48 48
        E 260 80 41 00
        E 0 80 45 00
        E 0 80 48 00
        e 514 90 41 48
        e 0 90 45 48
        e 0 90 48 48
        e 260 80 41 00
        e 0 80 45 00
        e 0 80 48 00
        E 162 90 3e 48
        E 24 90 41 48
        E 0 90 45 48
        E 1896 90 3e 48
        E 24 80 3e 00
        E 0 80 41 00
        E 0 80 45 00
        E 0 90 41 48
        E 0 90 45 48
        E 260 80 3e 00
        E 0 80 41 00
        E 0 80 45 00
        E 416 90 3e 48
        E 24 90 41 48
        E 0 90 45 48
        E 260 80 3e 00
        E 0 80 41 00
        E 0 80 45 00
        e 490 90 3e 48
        e 24 90 41 48
        e 0 90 45 48
        e 260 80 3e 00
        e 0 80 41 00
        e 0 80 45 00
        E 186 b0 7b 00
        CHASE_CC_TAKEOFFS 1
        GUID {6844F8A9-6BE9-023C-4A46-0A676470C99B}
        IGNTEMPO 0 120 4 4
        SRCCOLOR 26
        VELLANE -1 100 0
        CFGEDITVIEW 0 0.045808 45 12 0 -1 0 0 0 0.5
        KEYSNAP 0
        TRACKSEL 0
        EVTFILTER 0 -1 -1 -1 -1 0 0 0 0 -1 -1 -1 -1 0 -1 0 -1 -1
        CFGEDIT 1 1 0 1 0 0 1 1 1 1 1 1 58 171 1253 866 0 0 0 0 0.25 0 0 0 0 0.5 0 0 1 64
      >
    >
    <ITEM
      POSITION 80
      SNAPOFFS 0
      LENGTH 8
      LOOP 1
      ALLTAKES 0
      FADEIN 1 0 0 1 0 0
      FADEOUT 1 0 0 1 0 0
      MUTE 0
      SEL 1
      IGUID {3831B508-2480-2F09-B430-010627FA0B20}
      IID 20
      NAME "01-Recorded MIDI"
      VOLPAN 1 0 1 -1
      SOFFS 0 0
      PLAYRATE 1 1 0 -1 0 0.0021
      CHANMODE 0
      GUID {38701DC6-1063-68A0-FAD4-5FF143BC0F19}
      RECPASS 1
      <SOURCE MIDI
        HASDATA 1 960 QN
        CCINTERP 32
        POOLEDEVTS {0F237683-F18D-8C67-E2B7-4F94D45C4F27}
        E 0 90 3c 48
        E 0 90 40 48
        E 0 90 43 48
        E 1920 80 3c 00
        E 0 80 40 00
        E 0 80 43 00
        E 0 90 3c 48
        E 0 90 40 48
        E 0 90 43 48
        E 260 80 3c 00
        E 0 80 40 00
        E 0 80 43 00
        E 440 90 3c 48
        E 0 90 40 48
        E 0 90 43 48
        E 260 80 3c 00
        E 0 80 40 00
        E 0 80 43 00
        e 514 90 3c 48
        e 0 90 40 48
        e 0 90 43 48
        e 260 80 3c 00
        e 0 80 40 00
        e 0 80 43 00
        E 186 90 43 48
        E 0 90 47 48
        E 20 90 40 48
        E 1900 80 43 00
        E 0 80 47 00
        E 0 80 40 00
        E 0 90 43 48
        E 0 90 47 48
        E 20 90 40 48
        E 240 80 43 00
        E 0 80 47 00
        E 0 80 40 00
        E 440 90 43 48
        E 0 90 47 48
        E 20 90 40 48
        E 240 80 43 00
        E 0 80 47 00
        E 0 80 40 00
        e 514 90 43 48
        e 0 90 47 48
        e 20 90 40 48
        e 240 80 43 00
        e 0 80 47 00
        e 0 80 40 00
        E 186 90 41 48
        E 0 90 45 48
        E 0 90 48 48
        E 1920 80 41 00
        E 0 80 45 00
        E 0 80 48 00
        E 0 90 41 48
        E 0 90 45 48
        E 0 90 48 48
        E 260 80 41 00
        E 0 80 45 00
        E 0 80 48 00
        E 440 90 41 48
        E 0 90 45 48
        E 0 90 48 48
        E 260 80 41 00
        E 0 80 45 00
        E 0 80 48 00
        e 514 90 41 48
        e 0 90 45 48
        e 0 90 48 48
        e 260 80 41 00
        e 0 80 45 00
        e 0 80 48 00
        E 162 90 3e 48
        E 24 90 41 48
        E 0 90 45 48
        E 1896 90 3e 48
        E 24 80 3e 00
        E 0 80 41 00
        E 0 80 45 00
        E 0 90 41 48
        E 0 90 45 48
        E 260 80 3e 00
        E 0 80 41 00
        E 0 80 45 00
        E 416 90 3e 48
        E 24 90 41 48
        E 0 90 45 48
        E 260 80 3e 00
        E 0 80 41 00
        E 0 80 45 00
        e 490 90 3e 48
        e 24 90 41 48
        e 0 90 45 48
        e 260 80 3e 00
        e 0 80 41 00
        e 0 80 45 00
        E 186 b0 7b 00
        CHASE_CC_TAKEOFFS 1
        GUID {E611ADB6-4869-6CCA-8E83-3954D5E743B1}
        IGNTEMPO 0 120 4 4
        SRCCOLOR 27
        VELLANE -1 100 0
        CFGEDITVIEW 0 0.045808 45 12 0 -1 0 0 0 0.5
        KEYSNAP 0
        TRACKSEL 0
        EVTFILTER 0 -1 -1 -1 -1 0 0 0 0 -1 -1 -1 -1 0 -1 0 -1 -1
        CFGEDIT 1 1 0 1 0 0 1 1 1 1 1 1 58 171 1253 866 0 0 0 0 0.25 0 0 0 0 0.5 0 0 1 64
      >
    >
    <ITEM
      POSITION 88
      SNAPOFFS 0
      LENGTH 8
      LOOP 1
      ALLTAKES 0
      FADEIN 1 0 0 1 0 0
      FADEOUT 1 0 0 1 0 0
      MUTE 0
      SEL 1
      IGUID {D7D362DE-40DC-34FC-5874-98DE8FBFFB16}
      IID 21
      NAME "01-Recorded MIDI"
      VOLPAN 1 0 1 -1
      SOFFS 0 0
      PLAYRATE 1 1 0 -1 0 0.0021
      CHANMODE 0
      GUID {272E1340-C7D1-908C-FC3B-06B6807145BF}
      RECPASS 1
      <SOURCE MIDI
        HASDATA 1 960 QN
        CCINTERP 32
        POOLEDEVTS {AF25872E-9860-0D3D-E5D2-99BA66D9B580}
        E 0 90 3c 48
        E 0 90 40 48
        E 0 90 43 48
        E 1920 80 3c 00
        E 0 80 40 00
        E 0 80 43 00
        E 0 90 3c 48
        E 0 90 40 48
        E 0 90 43 48
        E 260 80 3c 00
        E 0 80 40 00
        E 0 80 43 00
        E 440 90 3c 48
        E 0 90 40 48
        E 0 90 43 48
        E 260 80 3c 00
        E 0 80 40 00
        E 0 80 43 00
        e 514 90 3c 48
        e 0 90 40 48
        e 0 90 43 48
        e 260 80 3c 00
        e 0 80 40 00
        e 0 80 43 00
        E 186 90 43 48
        E 0 90 47 48
        E 20 90 40 48
        E 1900 80 43 00
        E 0 80 47 00
        E 0 80 40 00
        E 0 90 43 48
        E 0 90 47 48
        E 20 90 40 48
        E 240 80 43 00
        E 0 80 47 00
        E 0 80 40 00
        E 440 90 43 48
        E 0 90 47 48
        E 20 90 40 48
        E 240 80 43 00
        E 0 80 47 00
        E 0 80 40 00
        e 514 90 43 48
        e 0 90 47 48
        e 20 90 40 48
        e 240 80 43 00
        e 0 80 47 00
        e 0 80 40 00
        E 186 90 41 48
        E 0 90 45 48
        E 0 90 48 48
        E 1920 80 41 00
        E 0 80 45 00
        E 0 80 48 00
        E 0 90 41 48
        E 0 90 45 48
        E 0 90 48 48
        E 260 80 41 00
        E 0 80 45 00
        E 0 80 48 00
        E 440 90 41 48
        E 0 90 45 48
        E 0 90 48 48
        E 260 80 41 00
        E 0 80 45 00
        E 0 80 48 00
        e 514 90 41 48
        e 0 90 45 48
        e 0 90 48 48
        e 260 80 41 00
        e 0 80 45 00
        e 0 80 48 00
        E 162 90 3e 48
        E 24 90 41 48
        E 0 90 45 48
        E 1896 90 3e 48
        E 24 80 3e 00
        E 0 80 41 00
        E 0 80 45 00
        E 0 90 41 48
        E 0 90 45 48
        E 260 80 3e 00
        E 0 80 41 00
        E 0 80 45 00
        E 416 90 3e 48
        E 24 90 41 48
        E 0 90 45 48
        E 260 80 3e 00
        E 0 80 41 00
        E 0 80 45 00
        e 490 90 3e 48
        e 24 90 41 48
        e 0 90 45 48
        e 260 80 3e 00
        e 0 80 41 00
        e 0 80 45 00
        E 186 b0 7b 00
        CHASE_CC_TAKEOFFS 1
        GUID {C762B555-17FC-D765-5340-11D3487D2955}
        IGNTEMPO 0 120 4 4
        SRCCOLOR 28
        VELLANE -1 100 0
        CFGEDITVIEW 0 0.045808 45 12 0 -1 0 0 0 0.5
        KEYSNAP 0
        TRACKSEL 0
        EVTFILTER 0 -1 -1 -1 -1 0 0 0 0 -1 -1 -1 -1 0 -1 0 -1 -1
        CFGEDIT 1 1 0 1 0 0 1 1 1 1 1 1 58 171 1253 866 0 0 0 0 0.25 0 0 0 0 0.5 0 0 1 64
      >
    >
  >
  <TRACK {CFB0C003-3325-9146-2A04-7F840C3507FB}
    NAME ""
    PEAKCOL 16576
    BEAT -1
    AUTOMODE 0
    VOLPAN 0.00052194381917 0 -1 -1 1
    MUTESOLO 0 0 0
    IPHASE 0
    PLAYOFFS 0 1
    ISBUS 0 0
    BUSCOMP 0 0 0 0 0
    SHOWINMIX 1 0.6667 0.5 1 0.5 0 0 0
    FREEMODE 0
    SEL 0
    REC 0 5056 1 0 0 0 0
    VU 2
    TRACKHEIGHT 21 0 0
    INQ 0 0 0 0.5 100 0 0 100
    NCHAN 2
    FX 0
    TRACKID {CFB0C003-3325-9146-2A04-7F840C3507FB}
    PERF 0
    MIDIOUT -1
    MAINSEND 1 0
    <FXCHAIN
      WNDRECT 346 266 902 608
      SHOW 0
      LASTSEL 5
      DOCKED 0
      BYPASS 0 0 0
      <VST "VST: ReaEQ (Cockos)" reaeq.vst.so 0 "" 1919247729<56535472656571726561657100000000> ""
        cWVlcu5e7f4CAAAAAQAAAAAAAAACAAAAAAAAAAIAAAABAAAAAAAAAAIAAAAAAAAAqAAAAAEAAAAAABAA
        IQAAAAQAAAAEAAAAAQAAAEC4Xhmm+DRAAAAAAAAA8D8AAAAAAAAAQAEIAAAAAQAAAAAAAAAAwHJAAAAAAAAA8D8AAAAAAAAAQAEIAAAAAQAAAAAAAAAAQI9AAAAAAAAA
        8D8AAAAAAAAAQAEDAAAAAQAAAAABaCorbdRAAAAAAAAA8D8AAAAAAAAAQAEBAAAAAQAAAAAAAAAAAPA/AAAAAJoCAACcAQAA
        AEhpZ2ggbG93IHBhc3MAEAAAAA==
      >
      PRESETNAME "High low pass"
      FLOATPOS 0 0 0 0
      FXID {0C7B9483-A717-D982-1318-67146D5EE976}
      WAK 0 0
      BYPASS 0 0 0
      <VST "VSTi: ReaSynth (Cockos)" reasynth.vst.so 0 "" 1919251321<5653547265737972656173796E746800> ""
        eXNlcu9e7f4AAAAAAgAAAAEAAAAAAAAAAgAAAAAAAAA8AAAAAAAAAAAAEAA=
        776t3g3wrd6lm8Q7F7fROgAAAAAAAAAAAAAAAJCNuT3oZ4g9AACAPwAAAD8AAIA/AAAAAAAAAD8AAAAA
        AAAQAAAA
      >
      FLOATPOS 0 0 0 0
      FXID {4238C785-0F37-BFE8-B6D7-B7E89C90C5EF}
      WAK 0 0
      BYPASS 0 0 0
      <JS guitar/amp-model ""
        "Dumble Overdrive Special - Tweed Deluxe.wav" -21.000000 1.000000 0.000000 73.000000 256.000000 - - - - - - - - - - - - - - - - - - - - - - - - - - - - - - - - - - - - - - - - - - - - - - - - - - - - - - - - - - 
      >
      FLOATPOS 0 0 0 0
      FXID {09AA41D5-B219-E88F-B703-5567D9A500C9}
      WAK 0 0
      BYPASS 0 0 0
      <VST "VST: ReaComp (Cockos)" reacomp.vst.so 0 "" 1919247213<5653547265636D726561636F6D700000> ""
        bWNlcu9e7f4EAAAAAQAAAAAAAAACAAAAAAAAAAQAAAAAAAAACAAAAAAAAAACAAAAAQAAAAAAAAACAAAAAAAAAFQAAAAAAAAAAAAQAA==
        776t3g3wrd5FoYg9/AWpPKWbxDsK16M8AAAAAAAAAAAAAIA/AAAAAAAAAAAAAAAAnNEHMwAAgD8AAAAAzMxMPQAAAAAAAAAAAAAAAAAAgD7YiZ09
        AAAQAAAA
      >
      FLOATPOS 0 0 0 0
      FXID {535A04D9-5AEF-E936-E798-D6FF60FAF38A}
      WAK 0 0
      BYPASS 0 0 0
      <VST "VST: ReaDelay (Cockos)" readelay.vst.so 0 "" 1919247468<5653547265646C72656164656C617900> ""
        bGRlcu5e7f4CAAAAAQAAAAAAAAACAAAAAAAAAAIAAAABAAAAAAAAAAIAAAAAAAAA/AAAAAEAAAAAAAAA
        AAAAAAAAAAAFAAAALAAAAAIAAAAEAAAAAACAPwAAgD8AAAAAAACAPwAAAAAAAIA7vTeGNQAAgD8AAAAAAACAPwAAgD8AAIA/AAAAAAAAAAAAAIA/AAAAAAAAADwAAAAA
        AACAPwAAAAAAAIA/AACAP+87NT8AAIA/AAAAAAAAgD8AAAAAAABAPL03hjUAAIA/AAAAAAAAgD8AAIA/zk0AP6abhD4AAAAAAACAPwAAAAAAAIA8vTeGNQAAgD8AAAAA
        AACAPwAAgD8aqrU+pHA9PwAAAAAAAIA/AAAAAAAAoDy9N4Y1AACAPwAAAAAAAIA/AACAP/npAD4AAAA/
        AHN0b2NrIC0gYmFzaWMgNSB0YXAgcGluZyBwb25nAAAAAAA=
      >
      PRESETNAME "stock - basic 5 tap ping pong"
      FLOATPOS 0 0 0 0
      FXID {408A7AC0-41FA-EF17-A422-CD138C9032FA}
      WAK 0 0
      BYPASS 0 0 0
      <VST "VST: ReaVerb (Cockos)" reaverb.vst.so 0 "" 1919252066<56535472657662726561766572620000> ""
        YnZlcu5e7f4CAAAAAQAAAAAAAAACAAAAAAAAAAIAAAABAAAAAAAAAAIAAAAAAAAAcAAAAAEAAAAAAAAA
        AAAAwcybgD4AAIA/AAAAAAAAgD8AAIA/AAAAPwAAgD8AAAAAVkVSQkdFTgAYAAAAAAAAAJHgV0QdrLRA3rK7QsHIjEIAAIC/RUNIT0dFTgAcAAAAy/i2QLUjdUJdzdM/
        osdfP5lRrzyRzYxAnMQAPw==
        AHN3ZWV0dmVyYm8AAAAAAA==
      >
      PRESETNAME sweetverbo
      FLOATPOS 0 0 0 0
      FXID {6403E339-6CC4-D4E3-C10E-ABA903AE2B55}
      WAK 0 0
    >
    <ITEM
      POSITION 0
      SNAPOFFS 0
      LENGTH 8
      LOOP 1
      ALLTAKES 0
      FADEIN 1 0 0 1 0 0
      FADEOUT 1 0 0 1 0 0
      MUTE 0
      SEL 1
      IGUID {24DC2617-AAD7-FB9D-6E70-1075BAA67EDE}
      IID 10
      NAME "01-Recorded MIDI"
      VOLPAN 1 0 1 -1
      SOFFS 0 0
      PLAYRATE 1 1 0 -1 0 0.0021
      CHANMODE 0
      GUID {F1F5A6E8-3D66-F21B-D1AD-9005DAF7970C}
      RECPASS 1
      <SOURCE MIDI
        HASDATA 1 960 QN
        CCINTERP 32
        POOLEDEVTS {21C3E693-7275-0B3B-F70B-063B967169DA}
        E 0 90 3c 48
        E 0 90 40 48
        E 0 90 43 48
        E 1920 80 3c 00
        E 0 80 40 00
        E 0 80 43 00
        E 0 90 3c 48
        E 0 90 40 48
        E 0 90 43 48
        E 260 80 3c 00
        E 0 80 40 00
        E 0 80 43 00
        E 440 90 3c 48
        E 0 90 40 48
        E 0 90 43 48
        E 260 80 3c 00
        E 0 80 40 00
        E 0 80 43 00
        e 514 90 3c 48
        e 0 90 40 48
        e 0 90 43 48
        e 260 80 3c 00
        e 0 80 40 00
        e 0 80 43 00
        E 186 90 43 48
        E 0 90 47 48
        E 20 90 40 48
        E 1900 80 43 00
        E 0 80 47 00
        E 0 80 40 00
        E 0 90 43 48
        E 0 90 47 48
        E 20 90 40 48
        E 240 80 43 00
        E 0 80 47 00
        E 0 80 40 00
        E 440 90 43 48
        E 0 90 47 48
        E 20 90 40 48
        E 240 80 43 00
        E 0 80 47 00
        E 0 80 40 00
        e 514 90 43 48
        e 0 90 47 48
        e 20 90 40 48
        e 240 80 43 00
        e 0 80 47 00
        e 0 80 40 00
        E 186 90 41 48
        E 0 90 45 48
        E 0 90 48 48
        E 1920 80 41 00
        E 0 80 45 00
        E 0 80 48 00
        E 0 90 41 48
        E 0 90 45 48
        E 0 90 48 48
        E 260 80 41 00
        E 0 80 45 00
        E 0 80 48 00
        E 440 90 41 48
        E 0 90 45 48
        E 0 90 48 48
        E 260 80 41 00
        E 0 80 45 00
        E 0 80 48 00
        e 514 90 41 48
        e 0 90 45 48
        e 0 90 48 48
        e 260 80 41 00
        e 0 80 45 00
        e 0 80 48 00
        E 162 90 3e 48
        E 24 90 41 48
        E 0 90 45 48
        E 1896 90 3e 48
        E 24 80 3e 00
        E 0 80 41 00
        E 0 80 45 00
        E 0 90 41 48
        E 0 90 45 48
        E 260 80 3e 00
        E 0 80 41 00
        E 0 80 45 00
        E 416 90 3e 48
        E 24 90 41 48
        E 0 90 45 48
        E 260 80 3e 00
        E 0 80 41 00
        E 0 80 45 00
        e 490 90 3e 48
        e 24 90 41 48
        e 0 90 45 48
        e 260 80 3e 00
        e 0 80 41 00
        e 0 80 45 00
        E 186 b0 7b 00
        CHASE_CC_TAKEOFFS 1
        GUID {7B9D708B-43E1-C8D4-C4B3-87E2A6C27801}
        IGNTEMPO 0 120 4 4
        SRCCOLOR 17
        VELLANE -1 100 0
        CFGEDITVIEW 0 0.045808 45 12 0 -1 0 0 0 0.5
        KEYSNAP 0
        TRACKSEL 0
        EVTFILTER 0 -1 -1 -1 -1 0 0 0 0 -1 -1 -1 -1 0 -1 0 -1 -1
        CFGEDIT 1 1 0 1 0 0 1 1 1 1 1 1 58 171 1253 866 0 0 0 0 0.25 0 0 0 0 0.5 0 0 1 64
      >
    >
    <ITEM
      POSITION 8
      SNAPOFFS 0
      LENGTH 8
      LOOP 1
      ALLTAKES 0
      FADEIN 1 0 0 1 0 0
      FADEOUT 1 0 0 1 0 0
      MUTE 0
      SEL 1
      IGUID {DB2A41B1-9148-3A5D-224A-904AE0B9CD22}
      IID 11
      NAME "01-Recorded MIDI"
      VOLPAN 1 0 1 -1
      SOFFS 0 0
      PLAYRATE 1 1 0 -1 0 0.0021
      CHANMODE 0
      GUID {B2ABAF86-A5E9-2EDD-2B1B-2C8F6009BFE5}
      RECPASS 1
      <SOURCE MIDI
        HASDATA 1 960 QN
        CCINTERP 32
        POOLEDEVTS {27B3411F-FC4D-8463-3084-A14EB84A0059}
        E 0 90 3c 48
        E 0 90 40 48
        E 0 90 43 48
        E 1920 80 3c 00
        E 0 80 40 00
        E 0 80 43 00
        E 0 90 3c 48
        E 0 90 40 48
        E 0 90 43 48
        E 260 80 3c 00
        E 0 80 40 00
        E 0 80 43 00
        E 440 90 3c 48
        E 0 90 40 48
        E 0 90 43 48
        E 260 80 3c 00
        E 0 80 40 00
        E 0 80 43 00
        e 514 90 3c 48
        e 0 90 40 48
        e 0 90 43 48
        e 260 80 3c 00
        e 0 80 40 00
        e 0 80 43 00
        E 186 90 43 48
        E 0 90 47 48
        E 20 90 40 48
        E 1900 80 43 00
        E 0 80 47 00
        E 0 80 40 00
        E 0 90 43 48
        E 0 90 47 48
        E 20 90 40 48
        E 240 80 43 00
        E 0 80 47 00
        E 0 80 40 00
        E 440 90 43 48
        E 0 90 47 48
        E 20 90 40 48
        E 240 80 43 00
        E 0 80 47 00
        E 0 80 40 00
        e 514 90 43 48
        e 0 90 47 48
        e 20 90 40 48
        e 240 80 43 00
        e 0 80 47 00
        e 0 80 40 00
        E 186 90 41 48
        E 0 90 45 48
        E 0 90 48 48
        E 1920 80 41 00
        E 0 80 45 00
        E 0 80 48 00
        E 0 90 41 48
        E 0 90 45 48
        E 0 90 48 48
        E 260 80 41 00
        E 0 80 45 00
        E 0 80 48 00
        E 440 90 41 48
        E 0 90 45 48
        E 0 90 48 48
        E 260 80 41 00
        E 0 80 45 00
        E 0 80 48 00
        e 514 90 41 48
        e 0 90 45 48
        e 0 90 48 48
        e 260 80 41 00
        e 0 80 45 00
        e 0 80 48 00
        E 162 90 3e 48
        E 24 90 41 48
        E 0 90 45 48
        E 1896 90 3e 48
        E 24 80 3e 00
        E 0 80 41 00
        E 0 80 45 00
        E 0 90 41 48
        E 0 90 45 48
        E 260 80 3e 00
        E 0 80 41 00
        E 0 80 45 00
        E 416 90 3e 48
        E 24 90 41 48
        E 0 90 45 48
        E 260 80 3e 00
        E 0 80 41 00
        E 0 80 45 00
        e 490 90 3e 48
        e 24 90 41 48
        e 0 90 45 48
        e 260 80 3e 00
        e 0 80 41 00
        e 0 80 45 00
        E 186 b0 7b 00
        CHASE_CC_TAKEOFFS 1
        GUID {3131B4E2-B370-E352-A9C5-C8CA31551A86}
        IGNTEMPO 0 120 4 4
        SRCCOLOR 18
        VELLANE -1 100 0
        CFGEDITVIEW 0 0.045808 45 12 0 -1 0 0 0 0.5
        KEYSNAP 0
        TRACKSEL 0
        EVTFILTER 0 -1 -1 -1 -1 0 0 0 0 -1 -1 -1 -1 0 -1 0 -1 -1
        CFGEDIT 1 1 0 1 0 0 1 1 1 1 1 1 58 171 1253 866 0 0 0 0 0.25 0 0 0 0 0.5 0 0 1 64
      >
    >
    <ITEM
      POSITION 16
      SNAPOFFS 0
      LENGTH 8
      LOOP 1
      ALLTAKES 0
      FADEIN 1 0 0 1 0 0
      FADEOUT 1 0 0 1 0 0
      MUTE 0
      SEL 1
      IGUID {02A6B752-5A01-1317-0628-D00DCE76439C}
      IID 12
      NAME "01-Recorded MIDI"
      VOLPAN 1 0 1 -1
      SOFFS 0 0
      PLAYRATE 1 1 0 -1 0 0.0021
      CHANMODE 0
      GUID {ECBAF801-AC95-BFAB-A0B1-4B5E562E42EA}
      RECPASS 1
      <SOURCE MIDI
        HASDATA 1 960 QN
        CCINTERP 32
        POOLEDEVTS {12FC77F0-CBD1-2C1C-FBDA-46A75D099FAB}
        E 0 90 3c 48
        E 0 90 40 48
        E 0 90 43 48
        E 1920 80 3c 00
        E 0 80 40 00
        E 0 80 43 00
        E 0 90 3c 48
        E 0 90 40 48
        E 0 90 43 48
        E 260 80 3c 00
        E 0 80 40 00
        E 0 80 43 00
        E 440 90 3c 48
        E 0 90 40 48
        E 0 90 43 48
        E 260 80 3c 00
        E 0 80 40 00
        E 0 80 43 00
        e 514 90 3c 48
        e 0 90 40 48
        e 0 90 43 48
        e 260 80 3c 00
        e 0 80 40 00
        e 0 80 43 00
        E 186 90 43 48
        E 0 90 47 48
        E 20 90 40 48
        E 1900 80 43 00
        E 0 80 47 00
        E 0 80 40 00
        E 0 90 43 48
        E 0 90 47 48
        E 20 90 40 48
        E 240 80 43 00
        E 0 80 47 00
        E 0 80 40 00
        E 440 90 43 48
        E 0 90 47 48
        E 20 90 40 48
        E 240 80 43 00
        E 0 80 47 00
        E 0 80 40 00
        e 514 90 43 48
        e 0 90 47 48
        e 20 90 40 48
        e 240 80 43 00
        e 0 80 47 00
        e 0 80 40 00
        E 186 90 41 48
        E 0 90 45 48
        E 0 90 48 48
        E 1920 80 41 00
        E 0 80 45 00
        E 0 80 48 00
        E 0 90 41 48
        E 0 90 45 48
        E 0 90 48 48
        E 260 80 41 00
        E 0 80 45 00
        E 0 80 48 00
        E 440 90 41 48
        E 0 90 45 48
        E 0 90 48 48
        E 260 80 41 00
        E 0 80 45 00
        E 0 80 48 00
        e 514 90 41 48
        e 0 90 45 48
        e 0 90 48 48
        e 260 80 41 00
        e 0 80 45 00
        e 0 80 48 00
        E 162 90 3e 48
        E 24 90 41 48
        E 0 90 45 48
        E 1896 90 3e 48
        E 24 80 3e 00
        E 0 80 41 00
        E 0 80 45 00
        E 0 90 41 48
        E 0 90 45 48
        E 260 80 3e 00
        E 0 80 41 00
        E 0 80 45 00
        E 416 90 3e 48
        E 24 90 41 48
        E 0 90 45 48
        E 260 80 3e 00
        E 0 80 41 00
        E 0 80 45 00
        e 490 90 3e 48
        e 24 90 41 48
        e 0 90 45 48
        e 260 80 3e 00
        e 0 80 41 00
        e 0 80 45 00
        E 186 b0 7b 00
        CHASE_CC_TAKEOFFS 1
        GUID {48C567A2-895C-FB9B-FDBA-0ADB7004ABF3}
        IGNTEMPO 0 120 4 4
        SRCCOLOR 19
        VELLANE -1 100 0
        CFGEDITVIEW 0 0.045808 45 12 0 -1 0 0 0 0.5
        KEYSNAP 0
        TRACKSEL 0
        EVTFILTER 0 -1 -1 -1 -1 0 0 0 0 -1 -1 -1 -1 0 -1 0 -1 -1
        CFGEDIT 1 1 0 1 0 0 1 1 1 1 1 1 58 171 1253 866 0 0 0 0 0.25 0 0 0 0 0.5 0 0 1 64
      >
    >
    <ITEM
      POSITION 24
      SNAPOFFS 0
      LENGTH 8
      LOOP 1
      ALLTAKES 0
      FADEIN 1 0 0 1 0 0
      FADEOUT 1 0 0 1 0 0
      MUTE 0
      SEL 1
      IGUID {7A778F9D-8C7C-388E-49EE-2473E899AD35}
      IID 13
      NAME "01-Recorded MIDI"
      VOLPAN 1 0 1 -1
      SOFFS 0 0
      PLAYRATE 1 1 0 -1 0 0.0021
      CHANMODE 0
      GUID {79EB5FC5-A4B8-A0C0-76BE-9F89512C3630}
      RECPASS 1
      <SOURCE MIDI
        HASDATA 1 960 QN
        CCINTERP 32
        POOLEDEVTS {548785AF-44C5-A23C-8123-FB6FB063FC87}
        E 0 90 3c 48
        E 0 90 40 48
        E 0 90 43 48
        E 1920 80 3c 00
        E 0 80 40 00
        E 0 80 43 00
        E 0 90 3c 48
        E 0 90 40 48
        E 0 90 43 48
        E 260 80 3c 00
        E 0 80 40 00
        E 0 80 43 00
        E 440 90 3c 48
        E 0 90 40 48
        E 0 90 43 48
        E 260 80 3c 00
        E 0 80 40 00
        E 0 80 43 00
        e 514 90 3c 48
        e 0 90 40 48
        e 0 90 43 48
        e 260 80 3c 00
        e 0 80 40 00
        e 0 80 43 00
        E 186 90 43 48
        E 0 90 47 48
        E 20 90 40 48
        E 1900 80 43 00
        E 0 80 47 00
        E 0 80 40 00
        E 0 90 43 48
        E 0 90 47 48
        E 20 90 40 48
        E 240 80 43 00
        E 0 80 47 00
        E 0 80 40 00
        E 440 90 43 48
        E 0 90 47 48
        E 20 90 40 48
        E 240 80 43 00
        E 0 80 47 00
        E 0 80 40 00
        e 514 90 43 48
        e 0 90 47 48
        e 20 90 40 48
        e 240 80 43 00
        e 0 80 47 00
        e 0 80 40 00
        E 186 90 41 48
        E 0 90 45 48
        E 0 90 48 48
        E 1920 80 41 00
        E 0 80 45 00
        E 0 80 48 00
        E 0 90 41 48
        E 0 90 45 48
        E 0 90 48 48
        E 260 80 41 00
        E 0 80 45 00
        E 0 80 48 00
        E 440 90 41 48
        E 0 90 45 48
        E 0 90 48 48
        E 260 80 41 00
        E 0 80 45 00
        E 0 80 48 00
        e 514 90 41 48
        e 0 90 45 48
        e 0 90 48 48
        e 260 80 41 00
        e 0 80 45 00
        e 0 80 48 00
        E 162 90 3e 48
        E 24 90 41 48
        E 0 90 45 48
        E 1896 90 3e 48
        E 24 80 3e 00
        E 0 80 41 00
        E 0 80 45 00
        E 0 90 41 48
        E 0 90 45 48
        E 260 80 3e 00
        E 0 80 41 00
        E 0 80 45 00
        E 416 90 3e 48
        E 24 90 41 48
        E 0 90 45 48
        E 260 80 3e 00
        E 0 80 41 00
        E 0 80 45 00
        e 490 90 3e 48
        e 24 90 41 48
        e 0 90 45 48
        e 260 80 3e 00
        e 0 80 41 00
        e 0 80 45 00
        E 186 b0 7b 00
        CHASE_CC_TAKEOFFS 1
        GUID {1DE38800-E2A1-41B5-9C8C-3291891093B1}
        IGNTEMPO 0 120 4 4
        SRCCOLOR 20
        VELLANE -1 100 0
        CFGEDITVIEW 0 0.045808 45 12 0 -1 0 0 0 0.5
        KEYSNAP 0
        TRACKSEL 0
        EVTFILTER 0 -1 -1 -1 -1 0 0 0 0 -1 -1 -1 -1 0 -1 0 -1 -1
        CFGEDIT 1 1 0 1 0 0 1 1 1 1 1 1 58 171 1253 866 0 0 0 0 0.25 0 0 0 0 0.5 0 0 1 64
      >
    >
    <ITEM
      POSITION 32
      SNAPOFFS 0
      LENGTH 8
      LOOP 1
      ALLTAKES 0
      FADEIN 1 0 0 1 0 0
      FADEOUT 1 0 0 1 0 0
      MUTE 0
      SEL 1
      IGUID {642B346E-C912-E3C5-551E-CACD652C38E4}
      IID 14
      NAME "01-Recorded MIDI"
      VOLPAN 1 0 1 -1
      SOFFS 0 0
      PLAYRATE 1 1 0 -1 0 0.0021
      CHANMODE 0
      GUID {A0222212-35E0-D61D-1F25-1ACD2541390F}
      RECPASS 1
      <SOURCE MIDI
        HASDATA 1 960 QN
        CCINTERP 32
        POOLEDEVTS {5F5CCFA2-8C3E-E615-065E-11FAB6AD7CE3}
        E 0 90 3c 48
        E 0 90 40 48
        E 0 90 43 48
        E 1920 80 3c 00
        E 0 80 40 00
        E 0 80 43 00
        E 0 90 3c 48
        E 0 90 40 48
        E 0 90 43 48
        E 260 80 3c 00
        E 0 80 40 00
        E 0 80 43 00
        E 440 90 3c 48
        E 0 90 40 48
        E 0 90 43 48
        E 260 80 3c 00
        E 0 80 40 00
        E 0 80 43 00
        e 514 90 3c 48
        e 0 90 40 48
        e 0 90 43 48
        e 260 80 3c 00
        e 0 80 40 00
        e 0 80 43 00
        E 186 90 43 48
        E 0 90 47 48
        E 20 90 40 48
        E 1900 80 43 00
        E 0 80 47 00
        E 0 80 40 00
        E 0 90 43 48
        E 0 90 47 48
        E 20 90 40 48
        E 240 80 43 00
        E 0 80 47 00
        E 0 80 40 00
        E 440 90 43 48
        E 0 90 47 48
        E 20 90 40 48
        E 240 80 43 00
        E 0 80 47 00
        E 0 80 40 00
        e 514 90 43 48
        e 0 90 47 48
        e 20 90 40 48
        e 240 80 43 00
        e 0 80 47 00
        e 0 80 40 00
        E 186 90 41 48
        E 0 90 45 48
        E 0 90 48 48
        E 1920 80 41 00
        E 0 80 45 00
        E 0 80 48 00
        E 0 90 41 48
        E 0 90 45 48
        E 0 90 48 48
        E 260 80 41 00
        E 0 80 45 00
        E 0 80 48 00
        E 440 90 41 48
        E 0 90 45 48
        E 0 90 48 48
        E 260 80 41 00
        E 0 80 45 00
        E 0 80 48 00
        e 514 90 41 48
        e 0 90 45 48
        e 0 90 48 48
        e 260 80 41 00
        e 0 80 45 00
        e 0 80 48 00
        E 162 90 3e 48
        E 24 90 41 48
        E 0 90 45 48
        E 1896 90 3e 48
        E 24 80 3e 00
        E 0 80 41 00
        E 0 80 45 00
        E 0 90 41 48
        E 0 90 45 48
        E 260 80 3e 00
        E 0 80 41 00
        E 0 80 45 00
        E 416 90 3e 48
        E 24 90 41 48
        E 0 90 45 48
        E 260 80 3e 00
        E 0 80 41 00
        E 0 80 45 00
        e 490 90 3e 48
        e 24 90 41 48
        e 0 90 45 48
        e 260 80 3e 00
        e 0 80 41 00
        e 0 80 45 00
        E 186 b0 7b 00
        CHASE_CC_TAKEOFFS 1
        GUID {0C3271F4-E233-9088-9B25-A722FAE7C579}
        IGNTEMPO 0 120 4 4
        SRCCOLOR 21
        VELLANE -1 100 0
        CFGEDITVIEW 0 0.045808 45 12 0 -1 0 0 0 0.5
        KEYSNAP 0
        TRACKSEL 0
        EVTFILTER 0 -1 -1 -1 -1 0 0 0 0 -1 -1 -1 -1 0 -1 0 -1 -1
        CFGEDIT 1 1 0 1 0 0 1 1 1 1 1 1 58 171 1253 866 0 0 0 0 0.25 0 0 0 0 0.5 0 0 1 64
      >
    >
    <ITEM
      POSITION 40
      SNAPOFFS 0
      LENGTH 8
      LOOP 1
      ALLTAKES 0
      FADEIN 1 0 0 1 0 0
      FADEOUT 1 0 0 1 0 0
      MUTE 0
      SEL 1
      IGUID {C19F0643-E38A-207B-0767-C10FFF4E0B37}
      IID 15
      NAME "01-Recorded MIDI"
      VOLPAN 1 0 1 -1
      SOFFS 0 0
      PLAYRATE 1 1 0 -1 0 0.0021
      CHANMODE 0
      GUID {32241755-0AE8-B7A1-823D-926601C00D04}
      RECPASS 1
      <SOURCE MIDI
        HASDATA 1 960 QN
        CCINTERP 32
        POOLEDEVTS {8C4B2E48-02B7-C917-2C76-C66B15FB22C7}
        E 0 90 3c 48
        E 0 90 40 48
        E 0 90 43 48
        E 1920 80 3c 00
        E 0 80 40 00
        E 0 80 43 00
        E 0 90 3c 48
        E 0 90 40 48
        E 0 90 43 48
        E 260 80 3c 00
        E 0 80 40 00
        E 0 80 43 00
        E 440 90 3c 48
        E 0 90 40 48
        E 0 90 43 48
        E 260 80 3c 00
        E 0 80 40 00
        E 0 80 43 00
        e 514 90 3c 48
        e 0 90 40 48
        e 0 90 43 48
        e 260 80 3c 00
        e 0 80 40 00
        e 0 80 43 00
        E 186 90 43 48
        E 0 90 47 48
        E 20 90 40 48
        E 1900 80 43 00
        E 0 80 47 00
        E 0 80 40 00
        E 0 90 43 48
        E 0 90 47 48
        E 20 90 40 48
        E 240 80 43 00
        E 0 80 47 00
        E 0 80 40 00
        E 440 90 43 48
        E 0 90 47 48
        E 20 90 40 48
        E 240 80 43 00
        E 0 80 47 00
        E 0 80 40 00
        e 514 90 43 48
        e 0 90 47 48
        e 20 90 40 48
        e 240 80 43 00
        e 0 80 47 00
        e 0 80 40 00
        E 186 90 41 48
        E 0 90 45 48
        E 0 90 48 48
        E 1920 80 41 00
        E 0 80 45 00
        E 0 80 48 00
        E 0 90 41 48
        E 0 90 45 48
        E 0 90 48 48
        E 260 80 41 00
        E 0 80 45 00
        E 0 80 48 00
        E 440 90 41 48
        E 0 90 45 48
        E 0 90 48 48
        E 260 80 41 00
        E 0 80 45 00
        E 0 80 48 00
        e 514 90 41 48
        e 0 90 45 48
        e 0 90 48 48
        e 260 80 41 00
        e 0 80 45 00
        e 0 80 48 00
        E 162 90 3e 48
        E 24 90 41 48
        E 0 90 45 48
        E 1896 90 3e 48
        E 24 80 3e 00
        E 0 80 41 00
        E 0 80 45 00
        E 0 90 41 48
        E 0 90 45 48
        E 260 80 3e 00
        E 0 80 41 00
        E 0 80 45 00
        E 416 90 3e 48
        E 24 90 41 48
        E 0 90 45 48
        E 260 80 3e 00
        E 0 80 41 00
        E 0 80 45 00
        e 490 90 3e 48
        e 24 90 41 48
        e 0 90 45 48
        e 260 80 3e 00
        e 0 80 41 00
        e 0 80 45 00
        E 186 b0 7b 00
        CHASE_CC_TAKEOFFS 1
        GUID {040E7AF8-3572-5D91-3C86-797AEE7444D4}
        IGNTEMPO 0 120 4 4
        SRCCOLOR 22
        VELLANE -1 100 0
        CFGEDITVIEW 0 0.045808 45 12 0 -1 0 0 0 0.5
        KEYSNAP 0
        TRACKSEL 0
        EVTFILTER 0 -1 -1 -1 -1 0 0 0 0 -1 -1 -1 -1 0 -1 0 -1 -1
        CFGEDIT 1 1 0 1 0 0 1 1 1 1 1 1 58 171 1253 866 0 0 0 0 0.25 0 0 0 0 0.5 0 0 1 64
      >
    >
    <ITEM
      POSITION 48
      SNAPOFFS 0
      LENGTH 8
      LOOP 1
      ALLTAKES 0
      FADEIN 1 0 0 1 0 0
      FADEOUT 1 0 0 1 0 0
      MUTE 0
      SEL 1
      IGUID {B3B20EBF-25C0-B6DA-A2B9-A5F9B48791B3}
      IID 16
      NAME "01-Recorded MIDI"
      VOLPAN 1 0 1 -1
      SOFFS 0 0
      PLAYRATE 1 1 0 -1 0 0.0021
      CHANMODE 0
      GUID {3B17A8F4-4638-8414-BFBF-4CD513B329F1}
      RECPASS 1
      <SOURCE MIDI
        HASDATA 1 960 QN
        CCINTERP 32
        POOLEDEVTS {4CC66C43-18EB-81F8-A8B4-85EDCF9FCAA8}
        E 0 90 3c 48
        E 0 90 40 48
        E 0 90 43 48
        E 1920 80 3c 00
        E 0 80 40 00
        E 0 80 43 00
        E 0 90 3c 48
        E 0 90 40 48
        E 0 90 43 48
        E 260 80 3c 00
        E 0 80 40 00
        E 0 80 43 00
        E 440 90 3c 48
        E 0 90 40 48
        E 0 90 43 48
        E 260 80 3c 00
        E 0 80 40 00
        E 0 80 43 00
        e 514 90 3c 48
        e 0 90 40 48
        e 0 90 43 48
        e 260 80 3c 00
        e 0 80 40 00
        e 0 80 43 00
        E 186 90 43 48
        E 0 90 47 48
        E 20 90 40 48
        E 1900 80 43 00
        E 0 80 47 00
        E 0 80 40 00
        E 0 90 43 48
        E 0 90 47 48
        E 20 90 40 48
        E 240 80 43 00
        E 0 80 47 00
        E 0 80 40 00
        E 440 90 43 48
        E 0 90 47 48
        E 20 90 40 48
        E 240 80 43 00
        E 0 80 47 00
        E 0 80 40 00
        e 514 90 43 48
        e 0 90 47 48
        e 20 90 40 48
        e 240 80 43 00
        e 0 80 47 00
        e 0 80 40 00
        E 186 90 41 48
        E 0 90 45 48
        E 0 90 48 48
        E 1920 80 41 00
        E 0 80 45 00
        E 0 80 48 00
        E 0 90 41 48
        E 0 90 45 48
        E 0 90 48 48
        E 260 80 41 00
        E 0 80 45 00
        E 0 80 48 00
        E 440 90 41 48
        E 0 90 45 48
        E 0 90 48 48
        E 260 80 41 00
        E 0 80 45 00
        E 0 80 48 00
        e 514 90 41 48
        e 0 90 45 48
        e 0 90 48 48
        e 260 80 41 00
        e 0 80 45 00
        e 0 80 48 00
        E 162 90 3e 48
        E 24 90 41 48
        E 0 90 45 48
        E 1896 90 3e 48
        E 24 80 3e 00
        E 0 80 41 00
        E 0 80 45 00
        E 0 90 41 48
        E 0 90 45 48
        E 260 80 3e 00
        E 0 80 41 00
        E 0 80 45 00
        E 416 90 3e 48
        E 24 90 41 48
        E 0 90 45 48
        E 260 80 3e 00
        E 0 80 41 00
        E 0 80 45 00
        e 490 90 3e 48
        e 24 90 41 48
        e 0 90 45 48
        e 260 80 3e 00
        e 0 80 41 00
        e 0 80 45 00
        E 186 b0 7b 00
        CHASE_CC_TAKEOFFS 1
        GUID {2338968B-6CF9-9F40-300F-DEB89D3392EA}
        IGNTEMPO 0 120 4 4
        SRCCOLOR 23
        VELLANE -1 100 0
        CFGEDITVIEW 0 0.045808 45 12 0 -1 0 0 0 0.5
        KEYSNAP 0
        TRACKSEL 0
        EVTFILTER 0 -1 -1 -1 -1 0 0 0 0 -1 -1 -1 -1 0 -1 0 -1 -1
        CFGEDIT 1 1 0 1 0 0 1 1 1 1 1 1 58 171 1253 866 0 0 0 0 0.25 0 0 0 0 0.5 0 0 1 64
      >
    >
    <ITEM
      POSITION 56
      SNAPOFFS 0
      LENGTH 8
      LOOP 1
      ALLTAKES 0
      FADEIN 1 0 0 1 0 0
      FADEOUT 1 0 0 1 0 0
      MUTE 0
      SEL 1
      IGUID {4BE5A516-1423-B2D3-174E-F11CBFFF19DC}
      IID 17
      NAME "01-Recorded MIDI"
      VOLPAN 1 0 1 -1
      SOFFS 0 0
      PLAYRATE 1 1 0 -1 0 0.0021
      CHANMODE 0
      GUID {93502216-E973-F1E8-F6DE-EF64A8EA4F23}
      RECPASS 1
      <SOURCE MIDI
        HASDATA 1 960 QN
        CCINTERP 32
        POOLEDEVTS {BE677B38-8BE6-A04B-BF5B-8A57FA17C263}
        E 0 90 3c 48
        E 0 90 40 48
        E 0 90 43 48
        E 1920 80 3c 00
        E 0 80 40 00
        E 0 80 43 00
        E 0 90 3c 48
        E 0 90 40 48
        E 0 90 43 48
        E 260 80 3c 00
        E 0 80 40 00
        E 0 80 43 00
        E 440 90 3c 48
        E 0 90 40 48
        E 0 90 43 48
        E 260 80 3c 00
        E 0 80 40 00
        E 0 80 43 00
        e 514 90 3c 48
        e 0 90 40 48
        e 0 90 43 48
        e 260 80 3c 00
        e 0 80 40 00
        e 0 80 43 00
        E 186 90 43 48
        E 0 90 47 48
        E 20 90 40 48
        E 1900 80 43 00
        E 0 80 47 00
        E 0 80 40 00
        E 0 90 43 48
        E 0 90 47 48
        E 20 90 40 48
        E 240 80 43 00
        E 0 80 47 00
        E 0 80 40 00
        E 440 90 43 48
        E 0 90 47 48
        E 20 90 40 48
        E 240 80 43 00
        E 0 80 47 00
        E 0 80 40 00
        e 514 90 43 48
        e 0 90 47 48
        e 20 90 40 48
        e 240 80 43 00
        e 0 80 47 00
        e 0 80 40 00
        E 186 90 41 48
        E 0 90 45 48
        E 0 90 48 48
        E 1920 80 41 00
        E 0 80 45 00
        E 0 80 48 00
        E 0 90 41 48
        E 0 90 45 48
        E 0 90 48 48
        E 260 80 41 00
        E 0 80 45 00
        E 0 80 48 00
        E 440 90 41 48
        E 0 90 45 48
        E 0 90 48 48
        E 260 80 41 00
        E 0 80 45 00
        E 0 80 48 00
        e 514 90 41 48
        e 0 90 45 48
        e 0 90 48 48
        e 260 80 41 00
        e 0 80 45 00
        e 0 80 48 00
        E 162 90 3e 48
        E 24 90 41 48
        E 0 90 45 48
        E 1896 90 3e 48
        E 24 80 3e 00
        E 0 80 41 00
        E 0 80 45 00
        E 0 90 41 48
        E 0 90 45 48
        E 260 80 3e 00
        E 0 80 41 00
        E 0 80 45 00
        E 416 90 3e 48
        E 24 90 41 48
        E 0 90 45 48
        E 260 80 3e 00
        E 0 80 41 00
        E 0 80 45 00
        e 490 90 3e 48
        e 24 90 41 48
        e 0 90 45 48
        e 260 80 3e 00
        e 0 80 41 00
        e 0 80 45 00
        E 186 b0 7b 00
        CHASE_CC_TAKEOFFS 1
        GUID {A64857E2-94F8-0990-20DF-4C1E9B5E6251}
        IGNTEMPO 0 120 4 4
        SRCCOLOR 24
        VELLANE -1 100 0
        CFGEDITVIEW 0 0.045808 45 12 0 -1 0 0 0 0.5
        KEYSNAP 0
        TRACKSEL 0
        EVTFILTER 0 -1 -1 -1 -1 0 0 0 0 -1 -1 -1 -1 0 -1 0 -1 -1
        CFGEDIT 1 1 0 1 0 0 1 1 1 1 1 1 58 171 1253 866 0 0 0 0 0.25 0 0 0 0 0.5 0 0 1 64
      >
    >
    <ITEM
      POSITION 64
      SNAPOFFS 0
      LENGTH 8
      LOOP 1
      ALLTAKES 0
      FADEIN 1 0 0 1 0 0
      FADEOUT 1 0 0 1 0 0
      MUTE 0
      SEL 1
      IGUID {1EB56438-48A5-7A43-62BA-AD2765F495C5}
      IID 18
      NAME "01-Recorded MIDI"
      VOLPAN 1 0 1 -1
      SOFFS 0 0
      PLAYRATE 1 1 0 -1 0 0.0021
      CHANMODE 0
      GUID {791CF472-0D27-58A1-A311-8BCD61916611}
      RECPASS 1
      <SOURCE MIDI
        HASDATA 1 960 QN
        CCINTERP 32
        POOLEDEVTS {683ECA89-B5AE-6265-B052-3882AE9E1D16}
        E 0 90 3c 48
        E 0 90 40 48
        E 0 90 43 48
        E 1920 80 3c 00
        E 0 80 40 00
        E 0 80 43 00
        E 0 90 3c 48
        E 0 90 40 48
        E 0 90 43 48
        E 260 80 3c 00
        E 0 80 40 00
        E 0 80 43 00
        E 440 90 3c 48
        E 0 90 40 48
        E 0 90 43 48
        E 260 80 3c 00
        E 0 80 40 00
        E 0 80 43 00
        e 514 90 3c 48
        e 0 90 40 48
        e 0 90 43 48
        e 260 80 3c 00
        e 0 80 40 00
        e 0 80 43 00
        E 186 90 43 48
        E 0 90 47 48
        E 20 90 40 48
        E 1900 80 43 00
        E 0 80 47 00
        E 0 80 40 00
        E 0 90 43 48
        E 0 90 47 48
        E 20 90 40 48
        E 240 80 43 00
        E 0 80 47 00
        E 0 80 40 00
        E 440 90 43 48
        E 0 90 47 48
        E 20 90 40 48
        E 240 80 43 00
        E 0 80 47 00
        E 0 80 40 00
        e 514 90 43 48
        e 0 90 47 48
        e 20 90 40 48
        e 240 80 43 00
        e 0 80 47 00
        e 0 80 40 00
        E 186 90 41 48
        E 0 90 45 48
        E 0 90 48 48
        E 1920 80 41 00
        E 0 80 45 00
        E 0 80 48 00
        E 0 90 41 48
        E 0 90 45 48
        E 0 90 48 48
        E 260 80 41 00
        E 0 80 45 00
        E 0 80 48 00
        E 440 90 41 48
        E 0 90 45 48
        E 0 90 48 48
        E 260 80 41 00
        E 0 80 45 00
        E 0 80 48 00
        e 514 90 41 48
        e 0 90 45 48
        e 0 90 48 48
        e 260 80 41 00
        e 0 80 45 00
        e 0 80 48 00
        E 162 90 3e 48
        E 24 90 41 48
        E 0 90 45 48
        E 1896 90 3e 48
        E 24 80 3e 00
        E 0 80 41 00
        E 0 80 45 00
        E 0 90 41 48
        E 0 90 45 48
        E 260 80 3e 00
        E 0 80 41 00
        E 0 80 45 00
        E 416 90 3e 48
        E 24 90 41 48
        E 0 90 45 48
        E 260 80 3e 00
        E 0 80 41 00
        E 0 80 45 00
        e 490 90 3e 48
        e 24 90 41 48
        e 0 90 45 48
        e 260 80 3e 00
        e 0 80 41 00
        e 0 80 45 00
        E 186 b0 7b 00
        CHASE_CC_TAKEOFFS 1
        GUID {19362806-85F2-5D9E-E1F9-07BE0CF3D16E}
        IGNTEMPO 0 120 4 4
        SRCCOLOR 25
        VELLANE -1 100 0
        CFGEDITVIEW 0 0.045808 45 12 0 -1 0 0 0 0.5
        KEYSNAP 0
        TRACKSEL 0
        EVTFILTER 0 -1 -1 -1 -1 0 0 0 0 -1 -1 -1 -1 0 -1 0 -1 -1
        CFGEDIT 1 1 0 1 0 0 1 1 1 1 1 1 58 171 1253 866 0 0 0 0 0.25 0 0 0 0 0.5 0 0 1 64
      >
    >
    <ITEM
      POSITION 72
      SNAPOFFS 0
      LENGTH 8
      LOOP 1
      ALLTAKES 0
      FADEIN 1 0 0 1 0 0
      FADEOUT 1 0 0 1 0 0
      MUTE 0
      SEL 1
      IGUID {372F4A42-6DA2-EAA5-A2CA-1C5F55E4A57C}
      IID 19
      NAME "01-Recorded MIDI"
      VOLPAN 1 0 1 -1
      SOFFS 0 0
      PLAYRATE 1 1 0 -1 0 0.0021
      CHANMODE 0
      GUID {E448F3A9-DC75-D84C-5EE4-FF30A4D571DC}
      RECPASS 1
      <SOURCE MIDI
        HASDATA 1 960 QN
        CCINTERP 32
        POOLEDEVTS {FC50FD39-B6F5-8B7E-FE04-F13262BA366F}
        E 0 90 3c 48
        E 0 90 40 48
        E 0 90 43 48
        E 1920 80 3c 00
        E 0 80 40 00
        E 0 80 43 00
        E 0 90 3c 48
        E 0 90 40 48
        E 0 90 43 48
        E 260 80 3c 00
        E 0 80 40 00
        E 0 80 43 00
        E 440 90 3c 48
        E 0 90 40 48
        E 0 90 43 48
        E 260 80 3c 00
        E 0 80 40 00
        E 0 80 43 00
        e 514 90 3c 48
        e 0 90 40 48
        e 0 90 43 48
        e 260 80 3c 00
        e 0 80 40 00
        e 0 80 43 00
        E 186 90 43 48
        E 0 90 47 48
        E 20 90 40 48
        E 1900 80 43 00
        E 0 80 47 00
        E 0 80 40 00
        E 0 90 43 48
        E 0 90 47 48
        E 20 90 40 48
        E 240 80 43 00
        E 0 80 47 00
        E 0 80 40 00
        E 440 90 43 48
        E 0 90 47 48
        E 20 90 40 48
        E 240 80 43 00
        E 0 80 47 00
        E 0 80 40 00
        e 514 90 43 48
        e 0 90 47 48
        e 20 90 40 48
        e 240 80 43 00
        e 0 80 47 00
        e 0 80 40 00
        E 186 90 41 48
        E 0 90 45 48
        E 0 90 48 48
        E 1920 80 41 00
        E 0 80 45 00
        E 0 80 48 00
        E 0 90 41 48
        E 0 90 45 48
        E 0 90 48 48
        E 260 80 41 00
        E 0 80 45 00
        E 0 80 48 00
        E 440 90 41 48
        E 0 90 45 48
        E 0 90 48 48
        E 260 80 41 00
        E 0 80 45 00
        E 0 80 48 00
        e 514 90 41 48
        e 0 90 45 48
        e 0 90 48 48
        e 260 80 41 00
        e 0 80 45 00
        e 0 80 48 00
        E 162 90 3e 48
        E 24 90 41 48
        E 0 90 45 48
        E 1896 90 3e 48
        E 24 80 3e 00
        E 0 80 41 00
        E 0 80 45 00
        E 0 90 41 48
        E 0 90 45 48
        E 260 80 3e 00
        E 0 80 41 00
        E 0 80 45 00
        E 416 90 3e 48
        E 24 90 41 48
        E 0 90 45 48
        E 260 80 3e 00
        E 0 80 41 00
        E 0 80 45 00
        e 490 90 3e 48
        e 24 90 41 48
        e 0 90 45 48
        e 260 80 3e 00
        e 0 80 41 00
        e 0 80 45 00
        E 186 b0 7b 00
        CHASE_CC_TAKEOFFS 1
        GUID {6844F8A9-6BE9-023C-4A46-0A676470C99B}
        IGNTEMPO 0 120 4 4
        SRCCOLOR 26
        VELLANE -1 100 0
        CFGEDITVIEW 0 0.045808 45 12 0 -1 0 0 0 0.5
        KEYSNAP 0
        TRACKSEL 0
        EVTFILTER 0 -1 -1 -1 -1 0 0 0 0 -1 -1 -1 -1 0 -1 0 -1 -1
        CFGEDIT 1 1 0 1 0 0 1 1 1 1 1 1 58 171 1253 866 0 0 0 0 0.25 0 0 0 0 0.5 0 0 1 64
      >
    >
    <ITEM
      POSITION 80
      SNAPOFFS 0
      LENGTH 8
      LOOP 1
      ALLTAKES 0
      FADEIN 1 0 0 1 0 0
      FADEOUT 1 0 0 1 0 0
      MUTE 0
      SEL 1
      IGUID {6C2738D3-36DA-A52E-4049-FA67DF9B5C48}
      IID 20
      NAME "01-Recorded MIDI"
      VOLPAN 1 0 1 -1
      SOFFS 0 0
      PLAYRATE 1 1 0 -1 0 0.0021
      CHANMODE 0
      GUID {CAEC27F8-8C8D-05F1-33EE-A34500588B97}
      RECPASS 1
      <SOURCE MIDI
        HASDATA 1 960 QN
        CCINTERP 32
        POOLEDEVTS {6DE546CD-14EC-7A8D-79EA-0C9B81197AF8}
        E 0 90 3c 48
        E 0 90 40 48
        E 0 90 43 48
        E 1920 80 3c 00
        E 0 80 40 00
        E 0 80 43 00
        E 0 90 3c 48
        E 0 90 40 48
        E 0 90 43 48
        E 260 80 3c 00
        E 0 80 40 00
        E 0 80 43 00
        E 440 90 3c 48
        E 0 90 40 48
        E 0 90 43 48
        E 260 80 3c 00
        E 0 80 40 00
        E 0 80 43 00
        e 514 90 3c 48
        e 0 90 40 48
        e 0 90 43 48
        e 260 80 3c 00
        e 0 80 40 00
        e 0 80 43 00
        E 186 90 43 48
        E 0 90 47 48
        E 20 90 40 48
        E 1900 80 43 00
        E 0 80 47 00
        E 0 80 40 00
        E 0 90 43 48
        E 0 90 47 48
        E 20 90 40 48
        E 240 80 43 00
        E 0 80 47 00
        E 0 80 40 00
        E 440 90 43 48
        E 0 90 47 48
        E 20 90 40 48
        E 240 80 43 00
        E 0 80 47 00
        E 0 80 40 00
        e 514 90 43 48
        e 0 90 47 48
        e 20 90 40 48
        e 240 80 43 00
        e 0 80 47 00
        e 0 80 40 00
        E 186 90 41 48
        E 0 90 45 48
        E 0 90 48 48
        E 1920 80 41 00
        E 0 80 45 00
        E 0 80 48 00
        E 0 90 41 48
        E 0 90 45 48
        E 0 90 48 48
        E 260 80 41 00
        E 0 80 45 00
        E 0 80 48 00
        E 440 90 41 48
        E 0 90 45 48
        E 0 90 48 48
        E 260 80 41 00
        E 0 80 45 00
        E 0 80 48 00
        e 514 90 41 48
        e 0 90 45 48
        e 0 90 48 48
        e 260 80 41 00
        e 0 80 45 00
        e 0 80 48 00
        E 162 90 3e 48
        E 24 90 41 48
        E 0 90 45 48
        E 1896 90 3e 48
        E 24 80 3e 00
        E 0 80 41 00
        E 0 80 45 00
        E 0 90 41 48
        E 0 90 45 48
        E 260 80 3e 00
        E 0 80 41 00
        E 0 80 45 00
        E 416 90 3e 48
        E 24 90 41 48
        E 0 90 45 48
        E 260 80 3e 00
        E 0 80 41 00
        E 0 80 45 00
        e 490 90 3e 48
        e 24 90 41 48
        e 0 90 45 48
        e 260 80 3e 00
        e 0 80 41 00
        e 0 80 45 00
        E 186 b0 7b 00
        CHASE_CC_TAKEOFFS 1
        GUID {E611ADB6-4869-6CCA-8E83-3954D5E743B1}
        IGNTEMPO 0 120 4 4
        SRCCOLOR 27
        VELLANE -1 100 0
        CFGEDITVIEW 0 0.045808 45 12 0 -1 0 0 0 0.5
        KEYSNAP 0
        TRACKSEL 0
        EVTFILTER 0 -1 -1 -1 -1 0 0 0 0 -1 -1 -1 -1 0 -1 0 -1 -1
        CFGEDIT 1 1 0 1 0 0 1 1 1 1 1 1 58 171 1253 866 0 0 0 0 0.25 0 0 0 0 0.5 0 0 1 64
      >
    >
    <ITEM
      POSITION 88
      SNAPOFFS 0
      LENGTH 8
      LOOP 1
      ALLTAKES 0
      FADEIN 1 0 0 1 0 0
      FADEOUT 1 0 0 1 0 0
      MUTE 0
      SEL 1
      IGUID {D8645555-AAFD-CDED-5EE2-D5A0DF99B48E}
      IID 21
      NAME "01-Recorded MIDI"
      VOLPAN 1 0 1 -1
      SOFFS 0 0
      PLAYRATE 1 1 0 -1 0 0.0021
      CHANMODE 0
      GUID {D1414B87-FB9A-C3EA-097C-06822911FBD3}
      RECPASS 1
      <SOURCE MIDI
        HASDATA 1 960 QN
        CCINTERP 32
        POOLEDEVTS {C68D10CC-1DCD-5B01-722D-897DC9AD25DF}
        E 0 90 3c 48
        E 0 90 40 48
        E 0 90 43 48
        E 1920 80 3c 00
        E 0 80 40 00
        E 0 80 43 00
        E 0 90 3c 48
        E 0 90 40 48
        E 0 90 43 48
        E 260 80 3c 00
        E 0 80 40 00
        E 0 80 43 00
        E 440 90 3c 48
        E 0 90 40 48
        E 0 90 43 48
        E 260 80 3c 00
        E 0 80 40 00
        E 0 80 43 00
        e 514 90 3c 48
        e 0 90 40 48
        e 0 90 43 48
        e 260 80 3c 00
        e 0 80 40 00
        e 0 80 43 00
        E 186 90 43 48
        E 0 90 47 48
        E 20 90 40 48
        E 1900 80 43 00
        E 0 80 47 00
        E 0 80 40 00
        E 0 90 43 48
        E 0 90 47 48
        E 20 90 40 48
        E 240 80 43 00
        E 0 80 47 00
        E 0 80 40 00
        E 440 90 43 48
        E 0 90 47 48
        E 20 90 40 48
        E 240 80 43 00
        E 0 80 47 00
        E 0 80 40 00
        e 514 90 43 48
        e 0 90 47 48
        e 20 90 40 48
        e 240 80 43 00
        e 0 80 47 00
        e 0 80 40 00
        E 186 90 41 48
        E 0 90 45 48
        E 0 90 48 48
        E 1920 80 41 00
        E 0 80 45 00
        E 0 80 48 00
        E 0 90 41 48
        E 0 90 45 48
        E 0 90 48 48
        E 260 80 41 00
        E 0 80 45 00
        E 0 80 48 00
        E 440 90 41 48
        E 0 90 45 48
        E 0 90 48 48
        E 260 80 41 00
        E 0 80 45 00
        E 0 80 48 00
        e 514 90 41 48
        e 0 90 45 48
        e 0 90 48 48
        e 260 80 41 00
        e 0 80 45 00
        e 0 80 48 00
        E 162 90 3e 48
        E 24 90 41 48
        E 0 90 45 48
        E 1896 90 3e 48
        E 24 80 3e 00
        E 0 80 41 00
        E 0 80 45 00
        E 0 90 41 48
        E 0 90 45 48
        E 260 80 3e 00
        E 0 80 41 00
        E 0 80 45 00
        E 416 90 3e 48
        E 24 90 41 48
        E 0 90 45 48
        E 260 80 3e 00
        E 0 80 41 00
        E 0 80 45 00
        e 490 90 3e 48
        e 24 90 41 48
        e 0 90 45 48
        e 260 80 3e 00
        e 0 80 41 00
        e 0 80 45 00
        E 186 b0 7b 00
        CHASE_CC_TAKEOFFS 1
        GUID {C762B555-17FC-D765-5340-11D3487D2955}
        IGNTEMPO 0 120 4 4
        SRCCOLOR 28
        VELLANE -1 100 0
        CFGEDITVIEW 0 0.045808 45 12 0 -1 0 0 0 0.5
        KEYSNAP 0
        TRACKSEL 0
        EVTFILTER 0 -1 -1 -1 -1 0 0 0 0 -1 -1 -1 -1 0 -1 0 -1 -1
        CFGEDIT 1 1 0 1 0 0 1 1 1 1 1 1 58 171 1253 866 0 0 0 0 0.25 0 0 0 0 0.5 0 0 1 64
      >
    >
  >
  <TRACK {038241DA-97E9-02FC-72E3-B9F8997C8DE7}
    NAME ""
    PEAKCOL 16576
    BEAT -1
    AUTOMODE 0
    VOLPAN 0.00052194381917 0 -1 -1 1
    MUTESOLO 0 0 0
    IPHASE 0
    PLAYOFFS 0 1
    ISBUS 0 0
    BUSCOMP 0 0 0 0 0
    SHOWINMIX 1 0.6667 0.5 1 0.5 0 0 0
    FREEMODE 0
    SEL 0
    REC 0 5056 1 0 0 0 0
    VU 2
    TRACKHEIGHT 21 0 0
    INQ 0 0 0 0.5 100 0 0 100
    NCHAN 2
    FX 0
    TRACKID {038241DA-97E9-02FC-72E3-B9F8997C8DE7}
    PERF 0
    MIDIOUT -1
    MAINSEND 1 0
    <FXCHAIN
      WNDRECT 346 266 902 608
      SHOW 0
      LASTSEL 5
      DOCKED 0
      BYPASS 0 0 0
      <VST "VST: ReaEQ (Cockos)" reaeq.vst.so 0 "" 1919247729<56535472656571726561657100000000> ""
        cWVlcu5e7f4CAAAAAQAAAAAAAAACAAAAAAAAAAIAAAABAAAAAAAAAAIAAAAAAAAAqAAAAAEAAAAAABAA
        IQAAAAQAAAAEAAAAAQAAAEC4Xhmm+DRAAAAAAAAA8D8AAAAAAAAAQAEIAAAAAQAAAAAAAAAAwHJAAAAAAAAA8D8AAAAAAAAAQAEIAAAAAQAAAAAAAAAAQI9AAAAAAAAA
        8D8AAAAAAAAAQAEDAAAAAQAAAAABaCorbdRAAAAAAAAA8D8AAAAAAAAAQAEBAAAAAQAAAAAAAAAAAPA/AAAAAJoCAACcAQAA
        AEhpZ2ggbG93IHBhc3MAEAAAAA==
      >
      PRESETNAME "High low pass"
      FLOATPOS 0 0 0 0
      FXID {E1C121EE-4F1E-7C32-8B8F-AF2D6BCAA66C}
      WAK 0 0
      BYPASS 0 0 0
      <VST "VSTi: ReaSynth (Cockos)" reasynth.vst.so 0 "" 1919251321<5653547265737972656173796E746800> ""
        eXNlcu9e7f4AAAAAAgAAAAEAAAAAAAAAAgAAAAAAAAA8AAAAAAAAAAAAEAA=
        776t3g3wrd6lm8Q7F7fROgAAAAAAAAAAAAAAAJCNuT3oZ4g9AACAPwAAAD8AAIA/AAAAAAAAAD8AAAAA
        AAAQAAAA
      >
      FLOATPOS 0 0 0 0
      FXID {355426AA-FF78-6CF2-1416-24E20DEC09D9}
      WAK 0 0
      BYPASS 0 0 0
      <JS guitar/amp-model ""
        "Dumble Overdrive Special - Tweed Deluxe.wav" -21.000000 1.000000 0.000000 73.000000 256.000000 - - - - - - - - - - - - - - - - - - - - - - - - - - - - - - - - - - - - - - - - - - - - - - - - - - - - - - - - - - 
      >
      FLOATPOS 0 0 0 0
      FXID {41298EBE-9F9F-C83F-27ED-7E556E6FB8E9}
      WAK 0 0
      BYPASS 0 0 0
      <VST "VST: ReaComp (Cockos)" reacomp.vst.so 0 "" 1919247213<5653547265636D726561636F6D700000> ""
        bWNlcu9e7f4EAAAAAQAAAAAAAAACAAAAAAAAAAQAAAAAAAAACAAAAAAAAAACAAAAAQAAAAAAAAACAAAAAAAAAFQAAAAAAAAAAAAQAA==
        776t3g3wrd5FoYg9/AWpPKWbxDsK16M8AAAAAAAAAAAAAIA/AAAAAAAAAAAAAAAAnNEHMwAAgD8AAAAAzMxMPQAAAAAAAAAAAAAAAAAAgD7YiZ09
        AAAQAAAA
      >
      FLOATPOS 0 0 0 0
      FXID {A85A7820-B8E6-5B55-33BE-76602AE4183A}
      WAK 0 0
      BYPASS 0 0 0
      <VST "VST: ReaDelay (Cockos)" readelay.vst.so 0 "" 1919247468<5653547265646C72656164656C617900> ""
        bGRlcu5e7f4CAAAAAQAAAAAAAAACAAAAAAAAAAIAAAABAAAAAAAAAAIAAAAAAAAA/AAAAAEAAAAAAAAA
        AAAAAAAAAAAFAAAALAAAAAIAAAAEAAAAAACAPwAAgD8AAAAAAACAPwAAAAAAAIA7vTeGNQAAgD8AAAAAAACAPwAAgD8AAIA/AAAAAAAAAAAAAIA/AAAAAAAAADwAAAAA
        AACAPwAAAAAAAIA/AACAP+87NT8AAIA/AAAAAAAAgD8AAAAAAABAPL03hjUAAIA/AAAAAAAAgD8AAIA/zk0AP6abhD4AAAAAAACAPwAAAAAAAIA8vTeGNQAAgD8AAAAA
        AACAPwAAgD8aqrU+pHA9PwAAAAAAAIA/AAAAAAAAoDy9N4Y1AACAPwAAAAAAAIA/AACAP/npAD4AAAA/
        AHN0b2NrIC0gYmFzaWMgNSB0YXAgcGluZyBwb25nAAAAAAA=
      >
      PRESETNAME "stock - basic 5 tap ping pong"
      FLOATPOS 0 0 0 0
      FXID {2A2921ED-2202-E4A4-5EA8-7F7091818CFE}
      WAK 0 0
      BYPASS 0 0 0
      <VST "VST: ReaVerb (Cockos)" reaverb.vst.so 0 "" 1919252066<56535472657662726561766572620000> ""
        YnZlcu5e7f4CAAAAAQAAAAAAAAACAAAAAAAAAAIAAAABAAAAAAAAAAIAAAAAAAAAcAAAAAEAAAAAAAAA
        AAAAwcybgD4AAIA/AAAAAAAAgD8AAIA/AAAAPwAAgD8AAAAAVkVSQkdFTgAYAAAAAAAAAJHgV0QdrLRA3rK7QsHIjEIAAIC/RUNIT0dFTgAcAAAAy/i2QLUjdUJdzdM/
        osdfP5lRrzyRzYxAnMQAPw==
        AHN3ZWV0dmVyYm8AAAAAAA==
      >
      PRESETNAME sweetverbo
      FLOATPOS 0 0 0 0
      FXID {57BC2482-CB7E-E0C6-05B2-F66CEFE4594B}
      WAK 0 0
    >
    <ITEM
      POSITION 0
      SNAPOFFS 0
      LENGTH 8
      LOOP 1
      ALLTAKES 0
      FADEIN 1 0 0 1 0 0
      FADEOUT 1 0 0 1 0 0
      MUTE 0
      SEL 1
      IGUID {E7EA9505-5943-E122-0CB7-6D53F101AD75}
      IID 10
      NAME "01-Recorded MIDI"
      VOLPAN 1 0 1 -1
      SOFFS 0 0
      PLAYRATE 1 1 0 -1 0 0.0021
      CHANMODE 0
      GUID {40898C6F-4267-7A2F-9ECC-DF4B21769977}
      RECPASS 1
      <SOURCE MIDI
        HASDATA 1 960 QN
        CCINTERP 32
        POOLEDEVTS {3CCDCC87-28FF-4E1C-1276-BDE3A821B8A9}
        E 0 90 3c 48
        E 0 90 40 48
        E 0 90 43 48
        E 1920 80 3c 00
        E 0 80 40 00
        E 0 80 43 00
        E 0 90 3c 48
        E 0 90 40 48
        E 0 90 43 48
        E 260 80 3c 00
        E 0 80 40 00
        E 0 80 43 00
        E 440 90 3c 48
        E 0 90 40 48
        E 0 90 43 48
        E 260 80 3c 00
        E 0 80 40 00
        E 0 80 43 00
        e 514 90 3c 48
        e 0 90 40 48
        e 0 90 43 48
        e 260 80 3c 00
        e 0 80 40 00
        e 0 80 43 00
        E 186 90 43 48
        E 0 90 47 48
        E 20 90 40 48
        E 1900 80 43 00
        E 0 80 47 00
        E 0 80 40 00
        E 0 90 43 48
        E 0 90 47 48
        E 20 90 40 48
        E 240 80 43 00
        E 0 80 47 00
        E 0 80 40 00
        E 440 90 43 48
        E 0 90 47 48
        E 20 90 40 48
        E 240 80 43 00
        E 0 80 47 00
        E 0 80 40 00
        e 514 90 43 48
        e 0 90 47 48
        e 20 90 40 48
        e 240 80 43 00
        e 0 80 47 00
        e 0 80 40 00
        E 186 90 41 48
        E 0 90 45 48
        E 0 90 48 48
        E 1920 80 41 00
        E 0 80 45 00
        E 0 80 48 00
        E 0 90 41 48
        E 0 90 45 48
        E 0 90 48 48
        E 260 80 41 00
        E 0 80 45 00
        E 0 80 48 00
        E 440 90 41 48
        E 0 90 45 48
        E 0 90 48 48
        E 260 80 41 00
        E 0 80 45 00
        E 0 80 48 00
        e 514 90 41 48
        e 0 90 45 48
        e 0 90 48 48
        e 260 80 41 00
        e 0 80 45 00
        e 0 80 48 00
        E 162 90 3e 48
        E 24 90 41 48
        E 0 90 45 48
        E 1896 90 3e 48
        E 24 80 3e 00
        E 0 80 41 00
        E 0 80 45 00
        E 0 90 41 48
        E 0 90 45 48
        E 260 80 3e 00
        E 0 80 41 00
        E 0 80 45 00
        E 416 90 3e 48
        E 24 90 41 48
        E 0 90 45 48
        E 260 80 3e 00
        E 0 80 41 00
        E 0 80 45 00
        e 490 90 3e 48
        e 24 90 41 48
        e 0 90 45 48
        e 260 80 3e 00
        e 0 80 41 00
        e 0 80 45 00
        E 186 b0 7b 00
        CHASE_CC_TAKEOFFS 1
        GUID {7B9D708B-43E1-C8D4-C4B3-87E2A6C27801}
        IGNTEMPO 0 120 4 4
        SRCCOLOR 17
        VELLANE -1 100 0
        CFGEDITVIEW 0 0.045808 45 12 0 -1 0 0 0 0.5
        KEYSNAP 0
        TRACKSEL 0
        EVTFILTER 0 -1 -1 -1 -1 0 0 0 0 -1 -1 -1 -1 0 -1 0 -1 -1
        CFGEDIT 1 1 0 1 0 0 1 1 1 1 1 1 58 171 1253 866 0 0 0 0 0.25 0 0 0 0 0.5 0 0 1 64
      >
    >
    <ITEM
      POSITION 8
      SNAPOFFS 0
      LENGTH 8
      LOOP 1
      ALLTAKES 0
      FADEIN 1 0 0 1 0 0
      FADEOUT 1 0 0 1 0 0
      MUTE 0
      SEL 1
      IGUID {A9C2F377-F05B-CD3F-FF44-F928B2E80634}
      IID 11
      NAME "01-Recorded MIDI"
      VOLPAN 1 0 1 -1
      SOFFS 0 0
      PLAYRATE 1 1 0 -1 0 0.0021
      CHANMODE 0
      GUID {25CD0DD9-9FF1-9165-120C-DFD3E0C59044}
      RECPASS 1
      <SOURCE MIDI
        HASDATA 1 960 QN
        CCINTERP 32
        POOLEDEVTS {18C62309-02EA-36E4-39CC-0438A9538F27}
        E 0 90 3c 48
        E 0 90 40 48
        E 0 90 43 48
        E 1920 80 3c 00
        E 0 80 40 00
        E 0 80 43 00
        E 0 90 3c 48
        E 0 90 40 48
        E 0 90 43 48
        E 260 80 3c 00
        E 0 80 40 00
        E 0 80 43 00
        E 440 90 3c 48
        E 0 90 40 48
        E 0 90 43 48
        E 260 80 3c 00
        E 0 80 40 00
        E 0 80 43 00
        e 514 90 3c 48
        e 0 90 40 48
        e 0 90 43 48
        e 260 80 3c 00
        e 0 80 40 00
        e 0 80 43 00
        E 186 90 43 48
        E 0 90 47 48
        E 20 90 40 48
        E 1900 80 43 00
        E 0 80 47 00
        E 0 80 40 00
        E 0 90 43 48
        E 0 90 47 48
        E 20 90 40 48
        E 240 80 43 00
        E 0 80 47 00
        E 0 80 40 00
        E 440 90 43 48
        E 0 90 47 48
        E 20 90 40 48
        E 240 80 43 00
        E 0 80 47 00
        E 0 80 40 00
        e 514 90 43 48
        e 0 90 47 48
        e 20 90 40 48
        e 240 80 43 00
        e 0 80 47 00
        e 0 80 40 00
        E 186 90 41 48
        E 0 90 45 48
        E 0 90 48 48
        E 1920 80 41 00
        E 0 80 45 00
        E 0 80 48 00
        E 0 90 41 48
        E 0 90 45 48
        E 0 90 48 48
        E 260 80 41 00
        E 0 80 45 00
        E 0 80 48 00
        E 440 90 41 48
        E 0 90 45 48
        E 0 90 48 48
        E 260 80 41 00
        E 0 80 45 00
        E 0 80 48 00
        e 514 90 41 48
        e 0 90 45 48
        e 0 90 48 48
        e 260 80 41 00
        e 0 80 45 00
        e 0 80 48 00
        E 162 90 3e 48
        E 24 90 41 48
        E 0 90 45 48
        E 1896 90 3e 48
        E 24 80 3e 00
        E 0 80 41 00
        E 0 80 45 00
        E 0 90 41 48
        E 0 90 45 48
        E 260 80 3e 00
        E 0 80 41 00
        E 0 80 45 00
        E 416 90 3e 48
        E 24 90 41 48
        E 0 90 45 48
        E 260 80 3e 00
        E 0 80 41 00
        E 0 80 45 00
        e 490 90 3e 48
        e 24 90 41 48
        e 0 90 45 48
        e 260 80 3e 00
        e 0 80 41 00
        e 0 80 45 00
        E 186 b0 7b 00
        CHASE_CC_TAKEOFFS 1
        GUID {3131B4E2-B370-E352-A9C5-C8CA31551A86}
        IGNTEMPO 0 120 4 4
        SRCCOLOR 18
        VELLANE -1 100 0
        CFGEDITVIEW 0 0.045808 45 12 0 -1 0 0 0 0.5
        KEYSNAP 0
        TRACKSEL 0
        EVTFILTER 0 -1 -1 -1 -1 0 0 0 0 -1 -1 -1 -1 0 -1 0 -1 -1
        CFGEDIT 1 1 0 1 0 0 1 1 1 1 1 1 58 171 1253 866 0 0 0 0 0.25 0 0 0 0 0.5 0 0 1 64
      >
    >
    <ITEM
      POSITION 16
      SNAPOFFS 0
      LENGTH 8
      LOOP 1
      ALLTAKES 0
      FADEIN 1 0 0 1 0 0
      FADEOUT 1 0 0 1 0 0
      MUTE 0
      SEL 1
      IGUID {5CC21154-7609-2144-6972-0AB9DDE1B596}
      IID 12
      NAME "01-Recorded MIDI"
      VOLPAN 1 0 1 -1
      SOFFS 0 0
      PLAYRATE 1 1 0 -1 0 0.0021
      CHANMODE 0
      GUID {2D5CA8CC-A6F0-1CD8-AB96-973B2D2E9B2B}
      RECPASS 1
      <SOURCE MIDI
        HASDATA 1 960 QN
        CCINTERP 32
        POOLEDEVTS {340D40B3-10D8-CCC9-5AC9-2E1CA1F228E1}
        E 0 90 3c 48
        E 0 90 40 48
        E 0 90 43 48
        E 1920 80 3c 00
        E 0 80 40 00
        E 0 80 43 00
        E 0 90 3c 48
        E 0 90 40 48
        E 0 90 43 48
        E 260 80 3c 00
        E 0 80 40 00
        E 0 80 43 00
        E 440 90 3c 48
        E 0 90 40 48
        E 0 90 43 48
        E 260 80 3c 00
        E 0 80 40 00
        E 0 80 43 00
        e 514 90 3c 48
        e 0 90 40 48
        e 0 90 43 48
        e 260 80 3c 00
        e 0 80 40 00
        e 0 80 43 00
        E 186 90 43 48
        E 0 90 47 48
        E 20 90 40 48
        E 1900 80 43 00
        E 0 80 47 00
        E 0 80 40 00
        E 0 90 43 48
        E 0 90 47 48
        E 20 90 40 48
        E 240 80 43 00
        E 0 80 47 00
        E 0 80 40 00
        E 440 90 43 48
        E 0 90 47 48
        E 20 90 40 48
        E 240 80 43 00
        E 0 80 47 00
        E 0 80 40 00
        e 514 90 43 48
        e 0 90 47 48
        e 20 90 40 48
        e 240 80 43 00
        e 0 80 47 00
        e 0 80 40 00
        E 186 90 41 48
        E 0 90 45 48
        E 0 90 48 48
        E 1920 80 41 00
        E 0 80 45 00
        E 0 80 48 00
        E 0 90 41 48
        E 0 90 45 48
        E 0 90 48 48
        E 260 80 41 00
        E 0 80 45 00
        E 0 80 48 00
        E 440 90 41 48
        E 0 90 45 48
        E 0 90 48 48
        E 260 80 41 00
        E 0 80 45 00
        E 0 80 48 00
        e 514 90 41 48
        e 0 90 45 48
        e 0 90 48 48
        e 260 80 41 00
        e 0 80 45 00
        e 0 80 48 00
        E 162 90 3e 48
        E 24 90 41 48
        E 0 90 45 48
        E 1896 90 3e 48
        E 24 80 3e 00
        E 0 80 41 00
        E 0 80 45 00
        E 0 90 41 48
        E 0 90 45 48
        E 260 80 3e 00
        E 0 80 41 00
        E 0 80 45 00
        E 416 90 3e 48
        E 24 90 41 48
        E 0 90 45 48
        E 260 80 3e 00
        E 0 80 41 00
        E 0 80 45 00
        e 490 90 3e 48
        e 24 90 41 48
        e 0 90 45 48
        e 260 80 3e 00
        e 0 80 41 00
        e 0 80 45 00
        E 186 b0 7b 00
        CHASE_CC_TAKEOFFS 1
        GUID {48C567A2-895C-FB9B-FDBA-0ADB7004ABF3}
        IGNTEMPO 0 120 4 4
        SRCCOLOR 19
        VELLANE -1 100 0
        CFGEDITVIEW 0 0.045808 45 12 0 -1 0 0 0 0.5
        KEYSNAP 0
        TRACKSEL 0
        EVTFILTER 0 -1 -1 -1 -1 0 0 0 0 -1 -1 -1 -1 0 -1 0 -1 -1
        CFGEDIT 1 1 0 1 0 0 1 1 1 1 1 1 58 171 1253 866 0 0 0 0 0.25 0 0 0 0 0.5 0 0 1 64
      >
    >
    <ITEM
      POSITION 24
      SNAPOFFS 0
      LENGTH 8
      LOOP 1
      ALLTAKES 0
      FADEIN 1 0 0 1 0 0
      FADEOUT 1 0 0 1 0 0
      MUTE 0
      SEL 1
      IGUID {6B9D89D6-7659-8704-67ED-5261786E3F98}
      IID 13
      NAME "01-Recorded MIDI"
      VOLPAN 1 0 1 -1
      SOFFS 0 0
      PLAYRATE 1 1 0 -1 0 0.0021
      CHANMODE 0
      GUID {789D3CCE-6E3B-9C25-D649-98FC004FAC43}
      RECPASS 1
      <SOURCE MIDI
        HASDATA 1 960 QN
        CCINTERP 32
        POOLEDEVTS {67CE4A43-DA96-3BAD-C2B2-1889B69F9FCA}
        E 0 90 3c 48
        E 0 90 40 48
        E 0 90 43 48
        E 1920 80 3c 00
        E 0 80 40 00
        E 0 80 43 00
        E 0 90 3c 48
        E 0 90 40 48
        E 0 90 43 48
        E 260 80 3c 00
        E 0 80 40 00
        E 0 80 43 00
        E 440 90 3c 48
        E 0 90 40 48
        E 0 90 43 48
        E 260 80 3c 00
        E 0 80 40 00
        E 0 80 43 00
        e 514 90 3c 48
        e 0 90 40 48
        e 0 90 43 48
        e 260 80 3c 00
        e 0 80 40 00
        e 0 80 43 00
        E 186 90 43 48
        E 0 90 47 48
        E 20 90 40 48
        E 1900 80 43 00
        E 0 80 47 00
        E 0 80 40 00
        E 0 90 43 48
        E 0 90 47 48
        E 20 90 40 48
        E 240 80 43 00
        E 0 80 47 00
        E 0 80 40 00
        E 440 90 43 48
        E 0 90 47 48
        E 20 90 40 48
        E 240 80 43 00
        E 0 80 47 00
        E 0 80 40 00
        e 514 90 43 48
        e 0 90 47 48
        e 20 90 40 48
        e 240 80 43 00
        e 0 80 47 00
        e 0 80 40 00
        E 186 90 41 48
        E 0 90 45 48
        E 0 90 48 48
        E 1920 80 41 00
        E 0 80 45 00
        E 0 80 48 00
        E 0 90 41 48
        E 0 90 45 48
        E 0 90 48 48
        E 260 80 41 00
        E 0 80 45 00
        E 0 80 48 00
        E 440 90 41 48
        E 0 90 45 48
        E 0 90 48 48
        E 260 80 41 00
        E 0 80 45 00
        E 0 80 48 00
        e 514 90 41 48
        e 0 90 45 48
        e 0 90 48 48
        e 260 80 41 00
        e 0 80 45 00
        e 0 80 48 00
        E 162 90 3e 48
        E 24 90 41 48
        E 0 90 45 48
        E 1896 90 3e 48
        E 24 80 3e 00
        E 0 80 41 00
        E 0 80 45 00
        E 0 90 41 48
        E 0 90 45 48
        E 260 80 3e 00
        E 0 80 41 00
        E 0 80 45 00
        E 416 90 3e 48
        E 24 90 41 48
        E 0 90 45 48
        E 260 80 3e 00
        E 0 80 41 00
        E 0 80 45 00
        e 490 90 3e 48
        e 24 90 41 48
        e 0 90 45 48
        e 260 80 3e 00
        e 0 80 41 00
        e 0 80 45 00
        E 186 b0 7b 00
        CHASE_CC_TAKEOFFS 1
        GUID {1DE38800-E2A1-41B5-9C8C-3291891093B1}
        IGNTEMPO 0 120 4 4
        SRCCOLOR 20
        VELLANE -1 100 0
        CFGEDITVIEW 0 0.045808 45 12 0 -1 0 0 0 0.5
        KEYSNAP 0
        TRACKSEL 0
        EVTFILTER 0 -1 -1 -1 -1 0 0 0 0 -1 -1 -1 -1 0 -1 0 -1 -1
        CFGEDIT 1 1 0 1 0 0 1 1 1 1 1 1 58 171 1253 866 0 0 0 0 0.25 0 0 0 0 0.5 0 0 1 64
      >
    >
    <ITEM
      POSITION 32
      SNAPOFFS 0
      LENGTH 8
      LOOP 1
      ALLTAKES 0
      FADEIN 1 0 0 1 0 0
      FADEOUT 1 0 0 1 0 0
      MUTE 0
      SEL 1
      IGUID {9E2610C8-F270-312A-611A-08BF5CF37CD5}
      IID 14
      NAME "01-Recorded MIDI"
      VOLPAN 1 0 1 -1
      SOFFS 0 0
      PLAYRATE 1 1 0 -1 0 0.0021
      CHANMODE 0
      GUID {47E3002A-D907-6559-9BCA-C2D0F2F3643E}
      RECPASS 1
      <SOURCE MIDI
        HASDATA 1 960 QN
        CCINTERP 32
        POOLEDEVTS {695A9E86-7618-23E4-0AE8-D8D6D947ED4F}
        E 0 90 3c 48
        E 0 90 40 48
        E 0 90 43 48
        E 1920 80 3c 00
        E 0 80 40 00
        E 0 80 43 00
        E 0 90 3c 48
        E 0 90 40 48
        E 0 90 43 48
        E 260 80 3c 00
        E 0 80 40 00
        E 0 80 43 00
        E 440 90 3c 48
        E 0 90 40 48
        E 0 90 43 48
        E 260 80 3c 00
        E 0 80 40 00
        E 0 80 43 00
        e 514 90 3c 48
        e 0 90 40 48
        e 0 90 43 48
        e 260 80 3c 00
        e 0 80 40 00
        e 0 80 43 00
        E 186 90 43 48
        E 0 90 47 48
        E 20 90 40 48
        E 1900 80 43 00
        E 0 80 47 00
        E 0 80 40 00
        E 0 90 43 48
        E 0 90 47 48
        E 20 90 40 48
        E 240 80 43 00
        E 0 80 47 00
        E 0 80 40 00
        E 440 90 43 48
        E 0 90 47 48
        E 20 90 40 48
        E 240 80 43 00
        E 0 80 47 00
        E 0 80 40 00
        e 514 90 43 48
        e 0 90 47 48
        e 20 90 40 48
        e 240 80 43 00
        e 0 80 47 00
        e 0 80 40 00
        E 186 90 41 48
        E 0 90 45 48
        E 0 90 48 48
        E 1920 80 41 00
        E 0 80 45 00
        E 0 80 48 00
        E 0 90 41 48
        E 0 90 45 48
        E 0 90 48 48
        E 260 80 41 00
        E 0 80 45 00
        E 0 80 48 00
        E 440 90 41 48
        E 0 90 45 48
        E 0 90 48 48
        E 260 80 41 00
        E 0 80 45 00
        E 0 80 48 00
        e 514 90 41 48
        e 0 90 45 48
        e 0 90 48 48
        e 260 80 41 00
        e 0 80 45 00
        e 0 80 48 00
        E 162 90 3e 48
        E 24 90 41 48
        E 0 90 45 48
        E 1896 90 3e 48
        E 24 80 3e 00
        E 0 80 41 00
        E 0 80 45 00
        E 0 90 41 48
        E 0 90 45 48
        E 260 80 3e 00
        E 0 80 41 00
        E 0 80 45 00
        E 416 90 3e 48
        E 24 90 41 48
        E 0 90 45 48
        E 260 80 3e 00
        E 0 80 41 00
        E 0 80 45 00
        e 490 90 3e 48
        e 24 90 41 48
        e 0 90 45 48
        e 260 80 3e 00
        e 0 80 41 00
        e 0 80 45 00
        E 186 b0 7b 00
        CHASE_CC_TAKEOFFS 1
        GUID {0C3271F4-E233-9088-9B25-A722FAE7C579}
        IGNTEMPO 0 120 4 4
        SRCCOLOR 21
        VELLANE -1 100 0
        CFGEDITVIEW 0 0.045808 45 12 0 -1 0 0 0 0.5
        KEYSNAP 0
        TRACKSEL 0
        EVTFILTER 0 -1 -1 -1 -1 0 0 0 0 -1 -1 -1 -1 0 -1 0 -1 -1
        CFGEDIT 1 1 0 1 0 0 1 1 1 1 1 1 58 171 1253 866 0 0 0 0 0.25 0 0 0 0 0.5 0 0 1 64
      >
    >
    <ITEM
      POSITION 40
      SNAPOFFS 0
      LENGTH 8
      LOOP 1
      ALLTAKES 0
      FADEIN 1 0 0 1 0 0
      FADEOUT 1 0 0 1 0 0
      MUTE 0
      SEL 1
      IGUID {718D6127-1F24-472D-C0D8-ECD42E1011B5}
      IID 15
      NAME "01-Recorded MIDI"
      VOLPAN 1 0 1 -1
      SOFFS 0 0
      PLAYRATE 1 1 0 -1 0 0.0021
      CHANMODE 0
      GUID {069024EE-D3C2-EE83-739C-4336293E4B1A}
      RECPASS 1
      <SOURCE MIDI
        HASDATA 1 960 QN
        CCINTERP 32
        POOLEDEVTS {D2CCA7C1-DD16-C742-EB73-39BFD533925E}
        E 0 90 3c 48
        E 0 90 40 48
        E 0 90 43 48
        E 1920 80 3c 00
        E 0 80 40 00
        E 0 80 43 00
        E 0 90 3c 48
        E 0 90 40 48
        E 0 90 43 48
        E 260 80 3c 00
        E 0 80 40 00
        E 0 80 43 00
        E 440 90 3c 48
        E 0 90 40 48
        E 0 90 43 48
        E 260 80 3c 00
        E 0 80 40 00
        E 0 80 43 00
        e 514 90 3c 48
        e 0 90 40 48
        e 0 90 43 48
        e 260 80 3c 00
        e 0 80 40 00
        e 0 80 43 00
        E 186 90 43 48
        E 0 90 47 48
        E 20 90 40 48
        E 1900 80 43 00
        E 0 80 47 00
        E 0 80 40 00
        E 0 90 43 48
        E 0 90 47 48
        E 20 90 40 48
        E 240 80 43 00
        E 0 80 47 00
        E 0 80 40 00
        E 440 90 43 48
        E 0 90 47 48
        E 20 90 40 48
        E 240 80 43 00
        E 0 80 47 00
        E 0 80 40 00
        e 514 90 43 48
        e 0 90 47 48
        e 20 90 40 48
        e 240 80 43 00
        e 0 80 47 00
        e 0 80 40 00
        E 186 90 41 48
        E 0 90 45 48
        E 0 90 48 48
        E 1920 80 41 00
        E 0 80 45 00
        E 0 80 48 00
        E 0 90 41 48
        E 0 90 45 48
        E 0 90 48 48
        E 260 80 41 00
        E 0 80 45 00
        E 0 80 48 00
        E 440 90 41 48
        E 0 90 45 48
        E 0 90 48 48
        E 260 80 41 00
        E 0 80 45 00
        E 0 80 48 00
        e 514 90 41 48
        e 0 90 45 48
        e 0 90 48 48
        e 260 80 41 00
        e 0 80 45 00
        e 0 80 48 00
        E 162 90 3e 48
        E 24 90 41 48
        E 0 90 45 48
        E 1896 90 3e 48
        E 24 80 3e 00
        E 0 80 41 00
        E 0 80 45 00
        E 0 90 41 48
        E 0 90 45 48
        E 260 80 3e 00
        E 0 80 41 00
        E 0 80 45 00
        E 416 90 3e 48
        E 24 90 41 48
        E 0 90 45 48
        E 260 80 3e 00
        E 0 80 41 00
        E 0 80 45 00
        e 490 90 3e 48
        e 24 90 41 48
        e 0 90 45 48
        e 260 80 3e 00
        e 0 80 41 00
        e 0 80 45 00
        E 186 b0 7b 00
        CHASE_CC_TAKEOFFS 1
        GUID {040E7AF8-3572-5D91-3C86-797AEE7444D4}
        IGNTEMPO 0 120 4 4
        SRCCOLOR 22
        VELLANE -1 100 0
        CFGEDITVIEW 0 0.045808 45 12 0 -1 0 0 0 0.5
        KEYSNAP 0
        TRACKSEL 0
        EVTFILTER 0 -1 -1 -1 -1 0 0 0 0 -1 -1 -1 -1 0 -1 0 -1 -1
        CFGEDIT 1 1 0 1 0 0 1 1 1 1 1 1 58 171 1253 866 0 0 0 0 0.25 0 0 0 0 0.5 0 0 1 64
      >
    >
    <ITEM
      POSITION 48
      SNAPOFFS 0
      LENGTH 8
      LOOP 1
      ALLTAKES 0
      FADEIN 1 0 0 1 0 0
      FADEOUT 1 0 0 1 0 0
      MUTE 0
      SEL 1
      IGUID {18D27376-1885-C332-9EDE-7A1A9A6111DD}
      IID 16
      NAME "01-Recorded MIDI"
      VOLPAN 1 0 1 -1
      SOFFS 0 0
      PLAYRATE 1 1 0 -1 0 0.0021
      CHANMODE 0
      GUID {C4967111-EE31-818D-A478-A792534839A0}
      RECPASS 1
      <SOURCE MIDI
        HASDATA 1 960 QN
        CCINTERP 32
        POOLEDEVTS {E6DBB1A7-EEE2-7DE2-8BD1-BBD2F81E293F}
        E 0 90 3c 48
        E 0 90 40 48
        E 0 90 43 48
        E 1920 80 3c 00
        E 0 80 40 00
        E 0 80 43 00
        E 0 90 3c 48
        E 0 90 40 48
        E 0 90 43 48
        E 260 80 3c 00
        E 0 80 40 00
        E 0 80 43 00
        E 440 90 3c 48
        E 0 90 40 48
        E 0 90 43 48
        E 260 80 3c 00
        E 0 80 40 00
        E 0 80 43 00
        e 514 90 3c 48
        e 0 90 40 48
        e 0 90 43 48
        e 260 80 3c 00
        e 0 80 40 00
        e 0 80 43 00
        E 186 90 43 48
        E 0 90 47 48
        E 20 90 40 48
        E 1900 80 43 00
        E 0 80 47 00
        E 0 80 40 00
        E 0 90 43 48
        E 0 90 47 48
        E 20 90 40 48
        E 240 80 43 00
        E 0 80 47 00
        E 0 80 40 00
        E 440 90 43 48
        E 0 90 47 48
        E 20 90 40 48
        E 240 80 43 00
        E 0 80 47 00
        E 0 80 40 00
        e 514 90 43 48
        e 0 90 47 48
        e 20 90 40 48
        e 240 80 43 00
        e 0 80 47 00
        e 0 80 40 00
        E 186 90 41 48
        E 0 90 45 48
        E 0 90 48 48
        E 1920 80 41 00
        E 0 80 45 00
        E 0 80 48 00
        E 0 90 41 48
        E 0 90 45 48
        E 0 90 48 48
        E 260 80 41 00
        E 0 80 45 00
        E 0 80 48 00
        E 440 90 41 48
        E 0 90 45 48
        E 0 90 48 48
        E 260 80 41 00
        E 0 80 45 00
        E 0 80 48 00
        e 514 90 41 48
        e 0 90 45 48
        e 0 90 48 48
        e 260 80 41 00
        e 0 80 45 00
        e 0 80 48 00
        E 162 90 3e 48
        E 24 90 41 48
        E 0 90 45 48
        E 1896 90 3e 48
        E 24 80 3e 00
        E 0 80 41 00
        E 0 80 45 00
        E 0 90 41 48
        E 0 90 45 48
        E 260 80 3e 00
        E 0 80 41 00
        E 0 80 45 00
        E 416 90 3e 48
        E 24 90 41 48
        E 0 90 45 48
        E 260 80 3e 00
        E 0 80 41 00
        E 0 80 45 00
        e 490 90 3e 48
        e 24 90 41 48
        e 0 90 45 48
        e 260 80 3e 00
        e 0 80 41 00
        e 0 80 45 00
        E 186 b0 7b 00
        CHASE_CC_TAKEOFFS 1
        GUID {2338968B-6CF9-9F40-300F-DEB89D3392EA}
        IGNTEMPO 0 120 4 4
        SRCCOLOR 23
        VELLANE -1 100 0
        CFGEDITVIEW 0 0.045808 45 12 0 -1 0 0 0 0.5
        KEYSNAP 0
        TRACKSEL 0
        EVTFILTER 0 -1 -1 -1 -1 0 0 0 0 -1 -1 -1 -1 0 -1 0 -1 -1
        CFGEDIT 1 1 0 1 0 0 1 1 1 1 1 1 58 171 1253 866 0 0 0 0 0.25 0 0 0 0 0.5 0 0 1 64
      >
    >
    <ITEM
      POSITION 56
      SNAPOFFS 0
      LENGTH 8
      LOOP 1
      ALLTAKES 0
      FADEIN 1 0 0 1 0 0
      FADEOUT 1 0 0 1 0 0
      MUTE 0
      SEL 1
      IGUID {C82B37BC-568A-8C3E-F172-D61481FA5948}
      IID 17
      NAME "01-Recorded MIDI"
      VOLPAN 1 0 1 -1
      SOFFS 0 0
      PLAYRATE 1 1 0 -1 0 0.0021
      CHANMODE 0
      GUID {58DEEE31-28D2-A253-0FE6-4B8CC199929F}
      RECPASS 1
      <SOURCE MIDI
        HASDATA 1 960 QN
        CCINTERP 32
        POOLEDEVTS {C7B118A1-9021-B3CE-BC28-250D168B5053}
        E 0 90 3c 48
        E 0 90 40 48
        E 0 90 43 48
        E 1920 80 3c 00
        E 0 80 40 00
        E 0 80 43 00
        E 0 90 3c 48
        E 0 90 40 48
        E 0 90 43 48
        E 260 80 3c 00
        E 0 80 40 00
        E 0 80 43 00
        E 440 90 3c 48
        E 0 90 40 48
        E 0 90 43 48
        E 260 80 3c 00
        E 0 80 40 00
        E 0 80 43 00
        e 514 90 3c 48
        e 0 90 40 48
        e 0 90 43 48
        e 260 80 3c 00
        e 0 80 40 00
        e 0 80 43 00
        E 186 90 43 48
        E 0 90 47 48
        E 20 90 40 48
        E 1900 80 43 00
        E 0 80 47 00
        E 0 80 40 00
        E 0 90 43 48
        E 0 90 47 48
        E 20 90 40 48
        E 240 80 43 00
        E 0 80 47 00
        E 0 80 40 00
        E 440 90 43 48
        E 0 90 47 48
        E 20 90 40 48
        E 240 80 43 00
        E 0 80 47 00
        E 0 80 40 00
        e 514 90 43 48
        e 0 90 47 48
        e 20 90 40 48
        e 240 80 43 00
        e 0 80 47 00
        e 0 80 40 00
        E 186 90 41 48
        E 0 90 45 48
        E 0 90 48 48
        E 1920 80 41 00
        E 0 80 45 00
        E 0 80 48 00
        E 0 90 41 48
        E 0 90 45 48
        E 0 90 48 48
        E 260 80 41 00
        E 0 80 45 00
        E 0 80 48 00
        E 440 90 41 48
        E 0 90 45 48
        E 0 90 48 48
        E 260 80 41 00
        E 0 80 45 00
        E 0 80 48 00
        e 514 90 41 48
        e 0 90 45 48
        e 0 90 48 48
        e 260 80 41 00
        e 0 80 45 00
        e 0 80 48 00
        E 162 90 3e 48
        E 24 90 41 48
        E 0 90 45 48
        E 1896 90 3e 48
        E 24 80 3e 00
        E 0 80 41 00
        E 0 80 45 00
        E 0 90 41 48
        E 0 90 45 48
        E 260 80 3e 00
        E 0 80 41 00
        E 0 80 45 00
        E 416 90 3e 48
        E 24 90 41 48
        E 0 90 45 48
        E 260 80 3e 00
        E 0 80 41 00
        E 0 80 45 00
        e 490 90 3e 48
        e 24 90 41 48
        e 0 90 45 48
        e 260 80 3e 00
        e 0 80 41 00
        e 0 80 45 00
        E 186 b0 7b 00
        CHASE_CC_TAKEOFFS 1
        GUID {A64857E2-94F8-0990-20DF-4C1E9B5E6251}
        IGNTEMPO 0 120 4 4
        SRCCOLOR 24
        VELLANE -1 100 0
        CFGEDITVIEW 0 0.045808 45 12 0 -1 0 0 0 0.5
        KEYSNAP 0
        TRACKSEL 0
        EVTFILTER 0 -1 -1 -1 -1 0 0 0 0 -1 -1 -1 -1 0 -1 0 -1 -1
        CFGEDIT 1 1 0 1 0 0 1 1 1 1 1 1 58 171 1253 866 0 0 0 0 0.25 0 0 0 0 0.5 0 0 1 64
      >
    >
    <ITEM
      POSITION 64
      SNAPOFFS 0
      LENGTH 8
      LOOP 1
      ALLTAKES 0
      FADEIN 1 0 0 1 0 0
      FADEOUT 1 0 0 1 0 0
      MUTE 0
      SEL 1
      IGUID {648C68F8-74C3-03F1-A59C-E38BA5AF9143}
      IID 18
      NAME "01-Recorded MIDI"
      VOLPAN 1 0 1 -1
      SOFFS 0 0
      PLAYRATE 1 1 0 -1 0 0.0021
      CHANMODE 0
      GUID {C17D2CE8-51D0-A18F-F8AB-6921CDBE4431}
      RECPASS 1
      <SOURCE MIDI
        HASDATA 1 960 QN
        CCINTERP 32
        POOLEDEVTS {040869BD-2AFB-3E3B-B5F2-78996E9C85F1}
        E 0 90 3c 48
        E 0 90 40 48
        E 0 90 43 48
        E 1920 80 3c 00
        E 0 80 40 00
        E 0 80 43 00
        E 0 90 3c 48
        E 0 90 40 48
        E 0 90 43 48
        E 260 80 3c 00
        E 0 80 40 00
        E 0 80 43 00
        E 440 90 3c 48
        E 0 90 40 48
        E 0 90 43 48
        E 260 80 3c 00
        E 0 80 40 00
        E 0 80 43 00
        e 514 90 3c 48
        e 0 90 40 48
        e 0 90 43 48
        e 260 80 3c 00
        e 0 80 40 00
        e 0 80 43 00
        E 186 90 43 48
        E 0 90 47 48
        E 20 90 40 48
        E 1900 80 43 00
        E 0 80 47 00
        E 0 80 40 00
        E 0 90 43 48
        E 0 90 47 48
        E 20 90 40 48
        E 240 80 43 00
        E 0 80 47 00
        E 0 80 40 00
        E 440 90 43 48
        E 0 90 47 48
        E 20 90 40 48
        E 240 80 43 00
        E 0 80 47 00
        E 0 80 40 00
        e 514 90 43 48
        e 0 90 47 48
        e 20 90 40 48
        e 240 80 43 00
        e 0 80 47 00
        e 0 80 40 00
        E 186 90 41 48
        E 0 90 45 48
        E 0 90 48 48
        E 1920 80 41 00
        E 0 80 45 00
        E 0 80 48 00
        E 0 90 41 48
        E 0 90 45 48
        E 0 90 48 48
        E 260 80 41 00
        E 0 80 45 00
        E 0 80 48 00
        E 440 90 41 48
        E 0 90 45 48
        E 0 90 48 48
        E 260 80 41 00
        E 0 80 45 00
        E 0 80 48 00
        e 514 90 41 48
        e 0 90 45 48
        e 0 90 48 48
        e 260 80 41 00
        e 0 80 45 00
        e 0 80 48 00
        E 162 90 3e 48
        E 24 90 41 48
        E 0 90 45 48
        E 1896 90 3e 48
        E 24 80 3e 00
        E 0 80 41 00
        E 0 80 45 00
        E 0 90 41 48
        E 0 90 45 48
        E 260 80 3e 00
        E 0 80 41 00
        E 0 80 45 00
        E 416 90 3e 48
        E 24 90 41 48
        E 0 90 45 48
        E 260 80 3e 00
        E 0 80 41 00
        E 0 80 45 00
        e 490 90 3e 48
        e 24 90 41 48
        e 0 90 45 48
        e 260 80 3e 00
        e 0 80 41 00
        e 0 80 45 00
        E 186 b0 7b 00
        CHASE_CC_TAKEOFFS 1
        GUID {19362806-85F2-5D9E-E1F9-07BE0CF3D16E}
        IGNTEMPO 0 120 4 4
        SRCCOLOR 25
        VELLANE -1 100 0
        CFGEDITVIEW 0 0.045808 45 12 0 -1 0 0 0 0.5
        KEYSNAP 0
        TRACKSEL 0
        EVTFILTER 0 -1 -1 -1 -1 0 0 0 0 -1 -1 -1 -1 0 -1 0 -1 -1
        CFGEDIT 1 1 0 1 0 0 1 1 1 1 1 1 58 171 1253 866 0 0 0 0 0.25 0 0 0 0 0.5 0 0 1 64
      >
    >
    <ITEM
      POSITION 72
      SNAPOFFS 0
      LENGTH 8
      LOOP 1
      ALLTAKES 0
      FADEIN 1 0 0 1 0 0
      FADEOUT 1 0 0 1 0 0
      MUTE 0
      SEL 1
      IGUID {28CBC932-DD4B-BB5D-047E-6D927B1F4150}
      IID 19
      NAME "01-Recorded MIDI"
      VOLPAN 1 0 1 -1
      SOFFS 0 0
      PLAYRATE 1 1 0 -1 0 0.0021
      CHANMODE 0
      GUID {0C025A63-42E7-C1A3-991D-4E8D1B8A03A5}
      RECPASS 1
      <SOURCE MIDI
        HASDATA 1 960 QN
        CCINTERP 32
        POOLEDEVTS {8372FC43-441E-B063-B1F5-3195820FA3CA}
        E 0 90 3c 48
        E 0 90 40 48
        E 0 90 43 48
        E 1920 80 3c 00
        E 0 80 40 00
        E 0 80 43 00
        E 0 90 3c 48
        E 0 90 40 48
        E 0 90 43 48
        E 260 80 3c 00
        E 0 80 40 00
        E 0 80 43 00
        E 440 90 3c 48
        E 0 90 40 48
        E 0 90 43 48
        E 260 80 3c 00
        E 0 80 40 00
        E 0 80 43 00
        e 514 90 3c 48
        e 0 90 40 48
        e 0 90 43 48
        e 260 80 3c 00
        e 0 80 40 00
        e 0 80 43 00
        E 186 90 43 48
        E 0 90 47 48
        E 20 90 40 48
        E 1900 80 43 00
        E 0 80 47 00
        E 0 80 40 00
        E 0 90 43 48
        E 0 90 47 48
        E 20 90 40 48
        E 240 80 43 00
        E 0 80 47 00
        E 0 80 40 00
        E 440 90 43 48
        E 0 90 47 48
        E 20 90 40 48
        E 240 80 43 00
        E 0 80 47 00
        E 0 80 40 00
        e 514 90 43 48
        e 0 90 47 48
        e 20 90 40 48
        e 240 80 43 00
        e 0 80 47 00
        e 0 80 40 00
        E 186 90 41 48
        E 0 90 45 48
        E 0 90 48 48
        E 1920 80 41 00
        E 0 80 45 00
        E 0 80 48 00
        E 0 90 41 48
        E 0 90 45 48
        E 0 90 48 48
        E 260 80 41 00
        E 0 80 45 00
        E 0 80 48 00
        E 440 90 41 48
        E 0 90 45 48
        E 0 90 48 48
        E 260 80 41 00
        E 0 80 45 00
        E 0 80 48 00
        e 514 90 41 48
        e 0 90 45 48
        e 0 90 48 48
        e 260 80 41 00
        e 0 80 45 00
        e 0 80 48 00
        E 162 90 3e 48
        E 24 90 41 48
        E 0 90 45 48
        E 1896 90 3e 48
        E 24 80 3e 00
        E 0 80 41 00
        E 0 80 45 00
        E 0 90 41 48
        E 0 90 45 48
        E 260 80 3e 00
        E 0 80 41 00
        E 0 80 45 00
        E 416 90 3e 48
        E 24 90 41 48
        E 0 90 45 48
        E 260 80 3e 00
        E 0 80 41 00
        E 0 80 45 00
        e 490 90 3e 48
        e 24 90 41 48
        e 0 90 45 48
        e 260 80 3e 00
        e 0 80 41 00
        e 0 80 45 00
        E 186 b0 7b 00
        CHASE_CC_TAKEOFFS 1
        GUID {6844F8A9-6BE9-023C-4A46-0A676470C99B}
        IGNTEMPO 0 120 4 4
        SRCCOLOR 26
        VELLANE -1 100 0
        CFGEDITVIEW 0 0.045808 45 12 0 -1 0 0 0 0.5
        KEYSNAP 0
        TRACKSEL 0
        EVTFILTER 0 -1 -1 -1 -1 0 0 0 0 -1 -1 -1 -1 0 -1 0 -1 -1
        CFGEDIT 1 1 0 1 0 0 1 1 1 1 1 1 58 171 1253 866 0 0 0 0 0.25 0 0 0 0 0.5 0 0 1 64
      >
    >
    <ITEM
      POSITION 80
      SNAPOFFS 0
      LENGTH 8
      LOOP 1
      ALLTAKES 0
      FADEIN 1 0 0 1 0 0
      FADEOUT 1 0 0 1 0 0
      MUTE 0
      SEL 1
      IGUID {1BF4CDF0-C830-1892-84AF-25CF7FA4AB11}
      IID 20
      NAME "01-Recorded MIDI"
      VOLPAN 1 0 1 -1
      SOFFS 0 0
      PLAYRATE 1 1 0 -1 0 0.0021
      CHANMODE 0
      GUID {B182AF85-7CBD-0EF0-3344-394CD5041124}
      RECPASS 1
      <SOURCE MIDI
        HASDATA 1 960 QN
        CCINTERP 32
        POOLEDEVTS {15563388-63EB-0F86-CD01-82C404A90FBA}
        E 0 90 3c 48
        E 0 90 40 48
        E 0 90 43 48
        E 1920 80 3c 00
        E 0 80 40 00
        E 0 80 43 00
        E 0 90 3c 48
        E 0 90 40 48
        E 0 90 43 48
        E 260 80 3c 00
        E 0 80 40 00
        E 0 80 43 00
        E 440 90 3c 48
        E 0 90 40 48
        E 0 90 43 48
        E 260 80 3c 00
        E 0 80 40 00
        E 0 80 43 00
        e 514 90 3c 48
        e 0 90 40 48
        e 0 90 43 48
        e 260 80 3c 00
        e 0 80 40 00
        e 0 80 43 00
        E 186 90 43 48
        E 0 90 47 48
        E 20 90 40 48
        E 1900 80 43 00
        E 0 80 47 00
        E 0 80 40 00
        E 0 90 43 48
        E 0 90 47 48
        E 20 90 40 48
        E 240 80 43 00
        E 0 80 47 00
        E 0 80 40 00
        E 440 90 43 48
        E 0 90 47 48
        E 20 90 40 48
        E 240 80 43 00
        E 0 80 47 00
        E 0 80 40 00
        e 514 90 43 48
        e 0 90 47 48
        e 20 90 40 48
        e 240 80 43 00
        e 0 80 47 00
        e 0 80 40 00
        E 186 90 41 48
        E 0 90 45 48
        E 0 90 48 48
        E 1920 80 41 00
        E 0 80 45 00
        E 0 80 48 00
        E 0 90 41 48
        E 0 90 45 48
        E 0 90 48 48
        E 260 80 41 00
        E 0 80 45 00
        E 0 80 48 00
        E 440 90 41 48
        E 0 90 45 48
        E 0 90 48 48
        E 260 80 41 00
        E 0 80 45 00
        E 0 80 48 00
        e 514 90 41 48
        e 0 90 45 48
        e 0 90 48 48
        e 260 80 41 00
        e 0 80 45 00
        e 0 80 48 00
        E 162 90 3e 48
        E 24 90 41 48
        E 0 90 45 48
        E 1896 90 3e 48
        E 24 80 3e 00
        E 0 80 41 00
        E 0 80 45 00
        E 0 90 41 48
        E 0 90 45 48
        E 260 80 3e 00
        E 0 80 41 00
        E 0 80 45 00
        E 416 90 3e 48
        E 24 90 41 48
        E 0 90 45 48
        E 260 80 3e 00
        E 0 80 41 00
        E 0 80 45 00
        e 490 90 3e 48
        e 24 90 41 48
        e 0 90 45 48
        e 260 80 3e 00
        e 0 80 41 00
        e 0 80 45 00
        E 186 b0 7b 00
        CHASE_CC_TAKEOFFS 1
        GUID {E611ADB6-4869-6CCA-8E83-3954D5E743B1}
        IGNTEMPO 0 120 4 4
        SRCCOLOR 27
        VELLANE -1 100 0
        CFGEDITVIEW 0 0.045808 45 12 0 -1 0 0 0 0.5
        KEYSNAP 0
        TRACKSEL 0
        EVTFILTER 0 -1 -1 -1 -1 0 0 0 0 -1 -1 -1 -1 0 -1 0 -1 -1
        CFGEDIT 1 1 0 1 0 0 1 1 1 1 1 1 58 171 1253 866 0 0 0 0 0.25 0 0 0 0 0.5 0 0 1 64
      >
    >
    <ITEM
      POSITION 88
      SNAPOFFS 0
      LENGTH 8
      LOOP 1
      ALLTAKES 0
      FADEIN 1 0 0 1 0 0
      FADEOUT 1 0 0 1 0 0
      MUTE 0
      SEL 1
      IGUID {936A3622-D421-39C1-9550-F5F67337D3AC}
      IID 21
      NAME "01-Recorded MIDI"
      VOLPAN 1 0 1 -1
      SOFFS 0 0
      PLAYRATE 1 1 0 -1 0 0.0021
      CHANMODE 0
      GUID {6F2CDF68-F846-1081-388C-3A5210691BEF}
      RECPASS 1
      <SOURCE MIDI
        HASDATA 1 960 QN
        CCINTERP 32
        POOLEDEVTS {85A9220B-5862-7318-E3AE-D70D8F07E48D}
        E 0 90 3c 48
        E 0 90 40 48
        E 0 90 43 48
        E 1920 80 3c 00
        E 0 80 40 00
        E 0 80 43 00
        E 0 90 3c 48
        E 0 90 40 48
        E 0 90 43 48
        E 260 80 3c 00
        E 0 80 40 00
        E 0 80 43 00
        E 440 90 3c 48
        E 0 90 40 48
        E 0 90 43 48
        E 260 80 3c 00
        E 0 80 40 00
        E 0 80 43 00
        e 514 90 3c 48
        e 0 90 40 48
        e 0 90 43 48
        e 260 80 3c 00
        e 0 80 40 00
        e 0 80 43 00
        E 186 90 43 48
        E 0 90 47 48
        E 20 90 40 48
        E 1900 80 43 00
        E 0 80 47 00
        E 0 80 40 00
        E 0 90 43 48
        E 0 90 47 48
        E 20 90 40 48
        E 240 80 43 00
        E 0 80 47 00
        E 0 80 40 00
        E 440 90 43 48
        E 0 90 47 48
        E 20 90 40 48
        E 240 80 43 00
        E 0 80 47 00
        E 0 80 40 00
        e 514 90 43 48
        e 0 90 47 48
        e 20 90 40 48
        e 240 80 43 00
        e 0 80 47 00
        e 0 80 40 00
        E 186 90 41 48
        E 0 90 45 48
        E 0 90 48 48
        E 1920 80 41 00
        E 0 80 45 00
        E 0 80 48 00
        E 0 90 41 48
        E 0 90 45 48
        E 0 90 48 48
        E 260 80 41 00
        E 0 80 45 00
        E 0 80 48 00
        E 440 90 41 48
        E 0 90 45 48
        E 0 90 48 48
        E 260 80 41 00
        E 0 80 45 00
        E 0 80 48 00
        e 514 90 41 48
        e 0 90 45 48
        e 0 90 48 48
        e 260 80 41 00
        e 0 80 45 00
        e 0 80 48 00
        E 162 90 3e 48
        E 24 90 41 48
        E 0 90 45 48
        E 1896 90 3e 48
        E 24 80 3e 00
        E 0 80 41 00
        E 0 80 45 00
        E 0 90 41 48
        E 0 90 45 48
        E 260 80 3e 00
        E 0 80 41 00
        E 0 80 45 00
        E 416 90 3e 48
        E 24 90 41 48
        E 0 90 45 48
        E 260 80 3e 00
        E 0 80 41 00
        E 0 80 45 00
        e 490 90 3e 48
        e 24 90 41 48
        e 0 90 45 48
        e 260 80 3e 00
        e 0 80 41 00
        e 0 80 45 00
        E 186 b0 7b 00
        CHASE_CC_TAKEOFFS 1
        GUID {C762B555-17FC-D765-5340-11D3487D2955}
        IGNTEMPO 0 120 4 4
        SRCCOLOR 28
        VELLANE -1 100 0
        CFGEDITVIEW 0 0.045808 45 12 0 -1 0 0 0 0.5
        KEYSNAP 0
        TRACKSEL 0
        EVTFILTER 0 -1 -1 -1 -1 0 0 0 0 -1 -1 -1 -1 0 -1 0 -1 -1
        CFGEDIT 1 1 0 1 0 0 1 1 1 1 1 1 58 171 1253 866 0 0 0 0 0.25 0 0 0 0 0.5 0 0 1 64
      >
    >
  >
  <TRACK {1A5976EB-C109-8FF5-C9FC-0026CD836B4A}
    NAME ""
    PEAKCOL 16576
    BEAT -1
    AUTOMODE 0
    VOLPAN 0.00052194381917 0 -1 -1 1
    MUTESOLO 0 0 0
    IPHASE 0
    PLAYOFFS 0 1
    ISBUS 0 0
    BUSCOMP 0 0 0 0 0
    SHOWINMIX 1 0.6667 0.5 1 0.5 0 0 0
    FREEMODE 0
    SEL 0
    REC 0 5056 1 0 0 0 0
    VU 2
    TRACKHEIGHT 21 0 0
    INQ 0 0 0 0.5 100 0 0 100
    NCHAN 2
    FX 0
    TRACKID {1A5976EB-C109-8FF5-C9FC-0026CD836B4A}
    PERF 0
    MIDIOUT -1
    MAINSEND 1 0
    <FXCHAIN
      WNDRECT 346 266 902 608
      SHOW 0
      LASTSEL 5
      DOCKED 0
      BYPASS 0 0 0
      <VST "VST: ReaEQ (Cockos)" reaeq.vst.so 0 "" 1919247729<56535472656571726561657100000000> ""
        cWVlcu5e7f4CAAAAAQAAAAAAAAACAAAAAAAAAAIAAAABAAAAAAAAAAIAAAAAAAAAqAAAAAEAAAAAABAA
        IQAAAAQAAAAEAAAAAQAAAEC4Xhmm+DRAAAAAAAAA8D8AAAAAAAAAQAEIAAAAAQAAAAAAAAAAwHJAAAAAAAAA8D8AAAAAAAAAQAEIAAAAAQAAAAAAAAAAQI9AAAAAAAAA
        8D8AAAAAAAAAQAEDAAAAAQAAAAABaCorbdRAAAAAAAAA8D8AAAAAAAAAQAEBAAAAAQAAAAAAAAAAAPA/AAAAAJoCAACcAQAA
        AEhpZ2ggbG93IHBhc3MAEAAAAA==
      >
      PRESETNAME "High low pass"
      FLOATPOS 0 0 0 0
      FXID {A8E0A785-5B3B-1E40-0508-ED6A24FE1F3E}
      WAK 0 0
      BYPASS 0 0 0
      <VST "VSTi: ReaSynth (Cockos)" reasynth.vst.so 0 "" 1919251321<5653547265737972656173796E746800> ""
        eXNlcu9e7f4AAAAAAgAAAAEAAAAAAAAAAgAAAAAAAAA8AAAAAAAAAAAAEAA=
        776t3g3wrd6lm8Q7F7fROgAAAAAAAAAAAAAAAJCNuT3oZ4g9AACAPwAAAD8AAIA/AAAAAAAAAD8AAAAA
        AAAQAAAA
      >
      FLOATPOS 0 0 0 0
      FXID {D2D2786C-5D08-E09E-03FF-D359861CC116}
      WAK 0 0
      BYPASS 0 0 0
      <JS guitar/amp-model ""
        "Dumble Overdrive Special - Tweed Deluxe.wav" -21.000000 1.000000 0.000000 73.000000 256.000000 - - - - - - - - - - - - - - - - - - - - - - - - - - - - - - - - - - - - - - - - - - - - - - - - - - - - - - - - - - 
      >
      FLOATPOS 0 0 0 0
      FXID {44BA25F2-2F08-B7E2-A5CD-0675F90561C8}
      WAK 0 0
      BYPASS 0 0 0
      <VST "VST: ReaComp (Cockos)" reacomp.vst.so 0 "" 1919247213<5653547265636D726561636F6D700000> ""
        bWNlcu9e7f4EAAAAAQAAAAAAAAACAAAAAAAAAAQAAAAAAAAACAAAAAAAAAACAAAAAQAAAAAAAAACAAAAAAAAAFQAAAAAAAAAAAAQAA==
        776t3g3wrd5FoYg9/AWpPKWbxDsK16M8AAAAAAAAAAAAAIA/AAAAAAAAAAAAAAAAnNEHMwAAgD8AAAAAzMxMPQAAAAAAAAAAAAAAAAAAgD7YiZ09
        AAAQAAAA
      >
      FLOATPOS 0 0 0 0
      FXID {B30CD4E2-5CF3-013C-9804-28CD231EEEC5}
      WAK 0 0
      BYPASS 0 0 0
      <VST "VST: ReaDelay (Cockos)" readelay.vst.so 0 "" 1919247468<5653547265646C72656164656C617900> ""
        bGRlcu5e7f4CAAAAAQAAAAAAAAACAAAAAAAAAAIAAAABAAAAAAAAAAIAAAAAAAAA/AAAAAEAAAAAAAAA
        AAAAAAAAAAAFAAAALAAAAAIAAAAEAAAAAACAPwAAgD8AAAAAAACAPwAAAAAAAIA7vTeGNQAAgD8AAAAAAACAPwAAgD8AAIA/AAAAAAAAAAAAAIA/AAAAAAAAADwAAAAA
        AACAPwAAAAAAAIA/AACAP+87NT8AAIA/AAAAAAAAgD8AAAAAAABAPL03hjUAAIA/AAAAAAAAgD8AAIA/zk0AP6abhD4AAAAAAACAPwAAAAAAAIA8vTeGNQAAgD8AAAAA
        AACAPwAAgD8aqrU+pHA9PwAAAAAAAIA/AAAAAAAAoDy9N4Y1AACAPwAAAAAAAIA/AACAP/npAD4AAAA/
        AHN0b2NrIC0gYmFzaWMgNSB0YXAgcGluZyBwb25nAAAAAAA=
      >
      PRESETNAME "stock - basic 5 tap ping pong"
      FLOATPOS 0 0 0 0
      FXID {FDC9EE0A-AE27-4403-B4DB-D28580E6FBF8}
      WAK 0 0
      BYPASS 0 0 0
      <VST "VST: ReaVerb (Cockos)" reaverb.vst.so 0 "" 1919252066<56535472657662726561766572620000> ""
        YnZlcu5e7f4CAAAAAQAAAAAAAAACAAAAAAAAAAIAAAABAAAAAAAAAAIAAAAAAAAAcAAAAAEAAAAAAAAA
        AAAAwcybgD4AAIA/AAAAAAAAgD8AAIA/AAAAPwAAgD8AAAAAVkVSQkdFTgAYAAAAAAAAAJHgV0QdrLRA3rK7QsHIjEIAAIC/RUNIT0dFTgAcAAAAy/i2QLUjdUJdzdM/
        osdfP5lRrzyRzYxAnMQAPw==
        AHN3ZWV0dmVyYm8AAAAAAA==
      >
      PRESETNAME sweetverbo
      FLOATPOS 0 0 0 0
      FXID {5621BEC1-1672-9BD6-D4A1-9F643358F339}
      WAK 0 0
    >
    <ITEM
      POSITION 0
      SNAPOFFS 0
      LENGTH 8
      LOOP 1
      ALLTAKES 0
      FADEIN 1 0 0 1 0 0
      FADEOUT 1 0 0 1 0 0
      MUTE 0
      SEL 1
      IGUID {D4855EF5-65F0-349F-ECF8-E5A1F6331D2A}
      IID 10
      NAME "01-Recorded MIDI"
      VOLPAN 1 0 1 -1
      SOFFS 0 0
      PLAYRATE 1 1 0 -1 0 0.0021
      CHANMODE 0
      GUID {C1B79AF9-E9ED-72B5-0C44-4A25A1BD2291}
      RECPASS 1
      <SOURCE MIDI
        HASDATA 1 960 QN
        CCINTERP 32
        POOLEDEVTS {F19052CA-F9B9-883E-139E-546056E14FF3}
        E 0 90 3c 48
        E 0 90 40 48
        E 0 90 43 48
        E 1920 80 3c 00
        E 0 80 40 00
        E 0 80 43 00
        E 0 90 3c 48
        E 0 90 40 48
        E 0 90 43 48
        E 260 80 3c 00
        E 0 80 40 00
        E 0 80 43 00
        E 440 90 3c 48
        E 0 90 40 48
        E 0 90 43 48
        E 260 80 3c 00
        E 0 80 40 00
        E 0 80 43 00
        e 514 90 3c 48
        e 0 90 40 48
        e 0 90 43 48
        e 260 80 3c 00
        e 0 80 40 00
        e 0 80 43 00
        E 186 90 43 48
        E 0 90 47 48
        E 20 90 40 48
        E 1900 80 43 00
        E 0 80 47 00
        E 0 80 40 00
        E 0 90 43 48
        E 0 90 47 48
        E 20 90 40 48
        E 240 80 43 00
        E 0 80 47 00
        E 0 80 40 00
        E 440 90 43 48
        E 0 90 47 48
        E 20 90 40 48
        E 240 80 43 00
        E 0 80 47 00
        E 0 80 40 00
        e 514 90 43 48
        e 0 90 47 48
        e 20 90 40 48
        e 240 80 43 00
        e 0 80 47 00
        e 0 80 40 00
        E 186 90 41 48
        E 0 90 45 48
        E 0 90 48 48
        E 1920 80 41 00
        E 0 80 45 00
        E 0 80 48 00
        E 0 90 41 48
        E 0 90 45 48
        E 0 90 48 48
        E 260 80 41 00
        E 0 80 45 00
        E 0 80 48 00
        E 440 90 41 48
        E 0 90 45 48
        E 0 90 48 48
        E 260 80 41 00
        E 0 80 45 00
        E 0 80 48 00
        e 514 90 41 48
        e 0 90 45 48
        e 0 90 48 48
        e 260 80 41 00
        e 0 80 45 00
        e 0 80 48 00
        E 162 90 3e 48
        E 24 90 41 48
        E 0 90 45 48
        E 1896 90 3e 48
        E 24 80 3e 00
        E 0 80 41 00
        E 0 80 45 00
        E 0 90 41 48
        E 0 90 45 48
        E 260 80 3e 00
        E 0 80 41 00
        E 0 80 45 00
        E 416 90 3e 48
        E 24 90 41 48
        E 0 90 45 48
        E 260 80 3e 00
        E 0 80 41 00
        E 0 80 45 00
        e 490 90 3e 48
        e 24 90 41 48
        e 0 90 45 48
        e 260 80 3e 00
        e 0 80 41 00
        e 0 80 45 00
        E 186 b0 7b 00
        CHASE_CC_TAKEOFFS 1
        GUID {7B9D708B-43E1-C8D4-C4B3-87E2A6C27801}
        IGNTEMPO 0 120 4 4
        SRCCOLOR 17
        VELLANE -1 100 0
        CFGEDITVIEW 0 0.045808 45 12 0 -1 0 0 0 0.5
        KEYSNAP 0
        TRACKSEL 0
        EVTFILTER 0 -1 -1 -1 -1 0 0 0 0 -1 -1 -1 -1 0 -1 0 -1 -1
        CFGEDIT 1 1 0 1 0 0 1 1 1 1 1 1 58 171 1253 866 0 0 0 0 0.25 0 0 0 0 0.5 0 0 1 64
      >
    >
    <ITEM
      POSITION 8
      SNAPOFFS 0
      LENGTH 8
      LOOP 1
      ALLTAKES 0
      FADEIN 1 0 0 1 0 0
      FADEOUT 1 0 0 1 0 0
      MUTE 0
      SEL 1
      IGUID {4F1E7E5E-B55B-7724-DA13-51C2C5B52815}
      IID 11
      NAME "01-Recorded MIDI"
      VOLPAN 1 0 1 -1
      SOFFS 0 0
      PLAYRATE 1 1 0 -1 0 0.0021
      CHANMODE 0
      GUID {B1F6BDAD-9A90-F572-D464-14B7DAA7FBDD}
      RECPASS 1
      <SOURCE MIDI
        HASDATA 1 960 QN
        CCINTERP 32
        POOLEDEVTS {EB01CACC-6403-8B5A-27BE-03E4C7A15AE9}
        E 0 90 3c 48
        E 0 90 40 48
        E 0 90 43 48
        E 1920 80 3c 00
        E 0 80 40 00
        E 0 80 43 00
        E 0 90 3c 48
        E 0 90 40 48
        E 0 90 43 48
        E 260 80 3c 00
        E 0 80 40 00
        E 0 80 43 00
        E 440 90 3c 48
        E 0 90 40 48
        E 0 90 43 48
        E 260 80 3c 00
        E 0 80 40 00
        E 0 80 43 00
        e 514 90 3c 48
        e 0 90 40 48
        e 0 90 43 48
        e 260 80 3c 00
        e 0 80 40 00
        e 0 80 43 00
        E 186 90 43 48
        E 0 90 47 48
        E 20 90 40 48
        E 1900 80 43 00
        E 0 80 47 00
        E 0 80 40 00
        E 0 90 43 48
        E 0 90 47 48
        E 20 90 40 48
        E 240 80 43 00
        E 0 80 47 00
        E 0 80 40 00
        E 440 90 43 48
        E 0 90 47 48
        E 20 90 40 48
        E 240 80 43 00
        E 0 80 47 00
        E 0 80 40 00
        e 514 90 43 48
        e 0 90 47 48
        e 20 90 40 48
        e 240 80 43 00
        e 0 80 47 00
        e 0 80 40 00
        E 186 90 41 48
        E 0 90 45 48
        E 0 90 48 48
        E 1920 80 41 00
        E 0 80 45 00
        E 0 80 48 00
        E 0 90 41 48
        E 0 90 45 48
        E 0 90 48 48
        E 260 80 41 00
        E 0 80 45 00
        E 0 80 48 00
        E 440 90 41 48
        E 0 90 45 48
        E 0 90 48 48
        E 260 80 41 00
        E 0 80 45 00
        E 0 80 48 00
        e 514 90 41 48
        e 0 90 45 48
        e 0 90 48 48
        e 260 80 41 00
        e 0 80 45 00
        e 0 80 48 00
        E 162 90 3e 48
        E 24 90 41 48
        E 0 90 45 48
        E 1896 90 3e 48
        E 24 80 3e 00
        E 0 80 41 00
        E 0 80 45 00
        E 0 90 41 48
        E 0 90 45 48
        E 260 80 3e 00
        E 0 80 41 00
        E 0 80 45 00
        E 416 90 3e 48
        E 24 90 41 48
        E 0 90 45 48
        E 260 80 3e 00
        E 0 80 41 00
        E 0 80 45 00
        e 490 90 3e 48
        e 24 90 41 48
        e 0 90 45 48
        e 260 80 3e 00
        e 0 80 41 00
        e 0 80 45 00
        E 186 b0 7b 00
        CHASE_CC_TAKEOFFS 1
        GUID {3131B4E2-B370-E352-A9C5-C8CA31551A86}
        IGNTEMPO 0 120 4 4
        SRCCOLOR 18
        VELLANE -1 100 0
        CFGEDITVIEW 0 0.045808 45 12 0 -1 0 0 0 0.5
        KEYSNAP 0
        TRACKSEL 0
        EVTFILTER 0 -1 -1 -1 -1 0 0 0 0 -1 -1 -1 -1 0 -1 0 -1 -1
        CFGEDIT 1 1 0 1 0 0 1 1 1 1 1 1 58 171 1253 866 0 0 0 0 0.25 0 0 0 0 0.5 0 0 1 64
      >
    >
    <ITEM
      POSITION 16
      SNAPOFFS 0
      LENGTH 8
      LOOP 1
      ALLTAKES 0
      FADEIN 1 0 0 1 0 0
      FADEOUT 1 0 0 1 0 0
      MUTE 0
      SEL 1
      IGUID {B0F91B5A-B0D9-BB4B-A308-1BEB96BEEBFC}
      IID 12
      NAME "01-Recorded MIDI"
      VOLPAN 1 0 1 -1
      SOFFS 0 0
      PLAYRATE 1 1 0 -1 0 0.0021
      CHANMODE 0
      GUID {B8E4DB6A-BC7A-655F-403A-F55670E3D9E6}
      RECPASS 1
      <SOURCE MIDI
        HASDATA 1 960 QN
        CCINTERP 32
        POOLEDEVTS {B4AAAEEA-9C26-58DC-0057-7F88CF0B3E83}
        E 0 90 3c 48
        E 0 90 40 48
        E 0 90 43 48
        E 1920 80 3c 00
        E 0 80 40 00
        E 0 80 43 00
        E 0 90 3c 48
        E 0 90 40 48
        E 0 90 43 48
        E 260 80 3c 00
        E 0 80 40 00
        E 0 80 43 00
        E 440 90 3c 48
        E 0 90 40 48
        E 0 90 43 48
        E 260 80 3c 00
        E 0 80 40 00
        E 0 80 43 00
        e 514 90 3c 48
        e 0 90 40 48
        e 0 90 43 48
        e 260 80 3c 00
        e 0 80 40 00
        e 0 80 43 00
        E 186 90 43 48
        E 0 90 47 48
        E 20 90 40 48
        E 1900 80 43 00
        E 0 80 47 00
        E 0 80 40 00
        E 0 90 43 48
        E 0 90 47 48
        E 20 90 40 48
        E 240 80 43 00
        E 0 80 47 00
        E 0 80 40 00
        E 440 90 43 48
        E 0 90 47 48
        E 20 90 40 48
        E 240 80 43 00
        E 0 80 47 00
        E 0 80 40 00
        e 514 90 43 48
        e 0 90 47 48
        e 20 90 40 48
        e 240 80 43 00
        e 0 80 47 00
        e 0 80 40 00
        E 186 90 41 48
        E 0 90 45 48
        E 0 90 48 48
        E 1920 80 41 00
        E 0 80 45 00
        E 0 80 48 00
        E 0 90 41 48
        E 0 90 45 48
        E 0 90 48 48
        E 260 80 41 00
        E 0 80 45 00
        E 0 80 48 00
        E 440 90 41 48
        E 0 90 45 48
        E 0 90 48 48
        E 260 80 41 00
        E 0 80 45 00
        E 0 80 48 00
        e 514 90 41 48
        e 0 90 45 48
        e 0 90 48 48
        e 260 80 41 00
        e 0 80 45 00
        e 0 80 48 00
        E 162 90 3e 48
        E 24 90 41 48
        E 0 90 45 48
        E 1896 90 3e 48
        E 24 80 3e 00
        E 0 80 41 00
        E 0 80 45 00
        E 0 90 41 48
        E 0 90 45 48
        E 260 80 3e 00
        E 0 80 41 00
        E 0 80 45 00
        E 416 90 3e 48
        E 24 90 41 48
        E 0 90 45 48
        E 260 80 3e 00
        E 0 80 41 00
        E 0 80 45 00
        e 490 90 3e 48
        e 24 90 41 48
        e 0 90 45 48
        e 260 80 3e 00
        e 0 80 41 00
        e 0 80 45 00
        E 186 b0 7b 00
        CHASE_CC_TAKEOFFS 1
        GUID {48C567A2-895C-FB9B-FDBA-0ADB7004ABF3}
        IGNTEMPO 0 120 4 4
        SRCCOLOR 19
        VELLANE -1 100 0
        CFGEDITVIEW 0 0.045808 45 12 0 -1 0 0 0 0.5
        KEYSNAP 0
        TRACKSEL 0
        EVTFILTER 0 -1 -1 -1 -1 0 0 0 0 -1 -1 -1 -1 0 -1 0 -1 -1
        CFGEDIT 1 1 0 1 0 0 1 1 1 1 1 1 58 171 1253 866 0 0 0 0 0.25 0 0 0 0 0.5 0 0 1 64
      >
    >
    <ITEM
      POSITION 24
      SNAPOFFS 0
      LENGTH 8
      LOOP 1
      ALLTAKES 0
      FADEIN 1 0 0 1 0 0
      FADEOUT 1 0 0 1 0 0
      MUTE 0
      SEL 1
      IGUID {4E5A7A1E-1C0D-863D-9727-E4B086F4F8C8}
      IID 13
      NAME "01-Recorded MIDI"
      VOLPAN 1 0 1 -1
      SOFFS 0 0
      PLAYRATE 1 1 0 -1 0 0.0021
      CHANMODE 0
      GUID {C7D990EA-E046-D541-20A4-C47219931FCD}
      RECPASS 1
      <SOURCE MIDI
        HASDATA 1 960 QN
        CCINTERP 32
        POOLEDEVTS {7D6D79F4-C6AC-7F40-F1E5-7567A692152F}
        E 0 90 3c 48
        E 0 90 40 48
        E 0 90 43 48
        E 1920 80 3c 00
        E 0 80 40 00
        E 0 80 43 00
        E 0 90 3c 48
        E 0 90 40 48
        E 0 90 43 48
        E 260 80 3c 00
        E 0 80 40 00
        E 0 80 43 00
        E 440 90 3c 48
        E 0 90 40 48
        E 0 90 43 48
        E 260 80 3c 00
        E 0 80 40 00
        E 0 80 43 00
        e 514 90 3c 48
        e 0 90 40 48
        e 0 90 43 48
        e 260 80 3c 00
        e 0 80 40 00
        e 0 80 43 00
        E 186 90 43 48
        E 0 90 47 48
        E 20 90 40 48
        E 1900 80 43 00
        E 0 80 47 00
        E 0 80 40 00
        E 0 90 43 48
        E 0 90 47 48
        E 20 90 40 48
        E 240 80 43 00
        E 0 80 47 00
        E 0 80 40 00
        E 440 90 43 48
        E 0 90 47 48
        E 20 90 40 48
        E 240 80 43 00
        E 0 80 47 00
        E 0 80 40 00
        e 514 90 43 48
        e 0 90 47 48
        e 20 90 40 48
        e 240 80 43 00
        e 0 80 47 00
        e 0 80 40 00
        E 186 90 41 48
        E 0 90 45 48
        E 0 90 48 48
        E 1920 80 41 00
        E 0 80 45 00
        E 0 80 48 00
        E 0 90 41 48
        E 0 90 45 48
        E 0 90 48 48
        E 260 80 41 00
        E 0 80 45 00
        E 0 80 48 00
        E 440 90 41 48
        E 0 90 45 48
        E 0 90 48 48
        E 260 80 41 00
        E 0 80 45 00
        E 0 80 48 00
        e 514 90 41 48
        e 0 90 45 48
        e 0 90 48 48
        e 260 80 41 00
        e 0 80 45 00
        e 0 80 48 00
        E 162 90 3e 48
        E 24 90 41 48
        E 0 90 45 48
        E 1896 90 3e 48
        E 24 80 3e 00
        E 0 80 41 00
        E 0 80 45 00
        E 0 90 41 48
        E 0 90 45 48
        E 260 80 3e 00
        E 0 80 41 00
        E 0 80 45 00
        E 416 90 3e 48
        E 24 90 41 48
        E 0 90 45 48
        E 260 80 3e 00
        E 0 80 41 00
        E 0 80 45 00
        e 490 90 3e 48
        e 24 90 41 48
        e 0 90 45 48
        e 260 80 3e 00
        e 0 80 41 00
        e 0 80 45 00
        E 186 b0 7b 00
        CHASE_CC_TAKEOFFS 1
        GUID {1DE38800-E2A1-41B5-9C8C-3291891093B1}
        IGNTEMPO 0 120 4 4
        SRCCOLOR 20
        VELLANE -1 100 0
        CFGEDITVIEW 0 0.045808 45 12 0 -1 0 0 0 0.5
        KEYSNAP 0
        TRACKSEL 0
        EVTFILTER 0 -1 -1 -1 -1 0 0 0 0 -1 -1 -1 -1 0 -1 0 -1 -1
        CFGEDIT 1 1 0 1 0 0 1 1 1 1 1 1 58 171 1253 866 0 0 0 0 0.25 0 0 0 0 0.5 0 0 1 64
      >
    >
    <ITEM
      POSITION 32
      SNAPOFFS 0
      LENGTH 8
      LOOP 1
      ALLTAKES 0
      FADEIN 1 0 0 1 0 0
      FADEOUT 1 0 0 1 0 0
      MUTE 0
      SEL 1
      IGUID {98CCBC01-B02E-B9ED-1BDD-50B7A38D52B7}
      IID 14
      NAME "01-Recorded MIDI"
      VOLPAN 1 0 1 -1
      SOFFS 0 0
      PLAYRATE 1 1 0 -1 0 0.0021
      CHANMODE 0
      GUID {8D62537B-839B-F318-29B5-3FFC36AC3FF9}
      RECPASS 1
      <SOURCE MIDI
        HASDATA 1 960 QN
        CCINTERP 32
        POOLEDEVTS {DF20B85B-4033-F13D-6B54-4DDA1CA2C2F0}
        E 0 90 3c 48
        E 0 90 40 48
        E 0 90 43 48
        E 1920 80 3c 00
        E 0 80 40 00
        E 0 80 43 00
        E 0 90 3c 48
        E 0 90 40 48
        E 0 90 43 48
        E 260 80 3c 00
        E 0 80 40 00
        E 0 80 43 00
        E 440 90 3c 48
        E 0 90 40 48
        E 0 90 43 48
        E 260 80 3c 00
        E 0 80 40 00
        E 0 80 43 00
        e 514 90 3c 48
        e 0 90 40 48
        e 0 90 43 48
        e 260 80 3c 00
        e 0 80 40 00
        e 0 80 43 00
        E 186 90 43 48
        E 0 90 47 48
        E 20 90 40 48
        E 1900 80 43 00
        E 0 80 47 00
        E 0 80 40 00
        E 0 90 43 48
        E 0 90 47 48
        E 20 90 40 48
        E 240 80 43 00
        E 0 80 47 00
        E 0 80 40 00
        E 440 90 43 48
        E 0 90 47 48
        E 20 90 40 48
        E 240 80 43 00
        E 0 80 47 00
        E 0 80 40 00
        e 514 90 43 48
        e 0 90 47 48
        e 20 90 40 48
        e 240 80 43 00
        e 0 80 47 00
        e 0 80 40 00
        E 186 90 41 48
        E 0 90 45 48
        E 0 90 48 48
        E 1920 80 41 00
        E 0 80 45 00
        E 0 80 48 00
        E 0 90 41 48
        E 0 90 45 48
        E 0 90 48 48
        E 260 80 41 00
        E 0 80 45 00
        E 0 80 48 00
        E 440 90 41 48
        E 0 90 45 48
        E 0 90 48 48
        E 260 80 41 00
        E 0 80 45 00
        E 0 80 48 00
        e 514 90 41 48
        e 0 90 45 48
        e 0 90 48 48
        e 260 80 41 00
        e 0 80 45 00
        e 0 80 48 00
        E 162 90 3e 48
        E 24 90 41 48
        E 0 90 45 48
        E 1896 90 3e 48
        E 24 80 3e 00
        E 0 80 41 00
        E 0 80 45 00
        E 0 90 41 48
        E 0 90 45 48
        E 260 80 3e 00
        E 0 80 41 00
        E 0 80 45 00
        E 416 90 3e 48
        E 24 90 41 48
        E 0 90 45 48
        E 260 80 3e 00
        E 0 80 41 00
        E 0 80 45 00
        e 490 90 3e 48
        e 24 90 41 48
        e 0 90 45 48
        e 260 80 3e 00
        e 0 80 41 00
        e 0 80 45 00
        E 186 b0 7b 00
        CHASE_CC_TAKEOFFS 1
        GUID {0C3271F4-E233-9088-9B25-A722FAE7C579}
        IGNTEMPO 0 120 4 4
        SRCCOLOR 21
        VELLANE -1 100 0
        CFGEDITVIEW 0 0.045808 45 12 0 -1 0 0 0 0.5
        KEYSNAP 0
        TRACKSEL 0
        EVTFILTER 0 -1 -1 -1 -1 0 0 0 0 -1 -1 -1 -1 0 -1 0 -1 -1
        CFGEDIT 1 1 0 1 0 0 1 1 1 1 1 1 58 171 1253 866 0 0 0 0 0.25 0 0 0 0 0.5 0 0 1 64
      >
    >
    <ITEM
      POSITION 40
      SNAPOFFS 0
      LENGTH 8
      LOOP 1
      ALLTAKES 0
      FADEIN 1 0 0 1 0 0
      FADEOUT 1 0 0 1 0 0
      MUTE 0
      SEL 1
      IGUID {2A95A033-16EC-4E0C-A199-1AF7A4322AF6}
      IID 15
      NAME "01-Recorded MIDI"
      VOLPAN 1 0 1 -1
      SOFFS 0 0
      PLAYRATE 1 1 0 -1 0 0.0021
      CHANMODE 0
      GUID {D3426790-AE56-3C37-59CF-1710EB9BB18D}
      RECPASS 1
      <SOURCE MIDI
        HASDATA 1 960 QN
        CCINTERP 32
        POOLEDEVTS {865ED2B4-9B5D-7893-3CEB-79225DAEC12F}
        E 0 90 3c 48
        E 0 90 40 48
        E 0 90 43 48
        E 1920 80 3c 00
        E 0 80 40 00
        E 0 80 43 00
        E 0 90 3c 48
        E 0 90 40 48
        E 0 90 43 48
        E 260 80 3c 00
        E 0 80 40 00
        E 0 80 43 00
        E 440 90 3c 48
        E 0 90 40 48
        E 0 90 43 48
        E 260 80 3c 00
        E 0 80 40 00
        E 0 80 43 00
        e 514 90 3c 48
        e 0 90 40 48
        e 0 90 43 48
        e 260 80 3c 00
        e 0 80 40 00
        e 0 80 43 00
        E 186 90 43 48
        E 0 90 47 48
        E 20 90 40 48
        E 1900 80 43 00
        E 0 80 47 00
        E 0 80 40 00
        E 0 90 43 48
        E 0 90 47 48
        E 20 90 40 48
        E 240 80 43 00
        E 0 80 47 00
        E 0 80 40 00
        E 440 90 43 48
        E 0 90 47 48
        E 20 90 40 48
        E 240 80 43 00
        E 0 80 47 00
        E 0 80 40 00
        e 514 90 43 48
        e 0 90 47 48
        e 20 90 40 48
        e 240 80 43 00
        e 0 80 47 00
        e 0 80 40 00
        E 186 90 41 48
        E 0 90 45 48
        E 0 90 48 48
        E 1920 80 41 00
        E 0 80 45 00
        E 0 80 48 00
        E 0 90 41 48
        E 0 90 45 48
        E 0 90 48 48
        E 260 80 41 00
        E 0 80 45 00
        E 0 80 48 00
        E 440 90 41 48
        E 0 90 45 48
        E 0 90 48 48
        E 260 80 41 00
        E 0 80 45 00
        E 0 80 48 00
        e 514 90 41 48
        e 0 90 45 48
        e 0 90 48 48
        e 260 80 41 00
        e 0 80 45 00
        e 0 80 48 00
        E 162 90 3e 48
        E 24 90 41 48
        E 0 90 45 48
        E 1896 90 3e 48
        E 24 80 3e 00
        E 0 80 41 00
        E 0 80 45 00
        E 0 90 41 48
        E 0 90 45 48
        E 260 80 3e 00
        E 0 80 41 00
        E 0 80 45 00
        E 416 90 3e 48
        E 24 90 41 48
        E 0 90 45 48
        E 260 80 3e 00
        E 0 80 41 00
        E 0 80 45 00
        e 490 90 3e 48
        e 24 90 41 48
        e 0 90 45 48
        e 260 80 3e 00
        e 0 80 41 00
        e 0 80 45 00
        E 186 b0 7b 00
        CHASE_CC_TAKEOFFS 1
        GUID {040E7AF8-3572-5D91-3C86-797AEE7444D4}
        IGNTEMPO 0 120 4 4
        SRCCOLOR 22
        VELLANE -1 100 0
        CFGEDITVIEW 0 0.045808 45 12 0 -1 0 0 0 0.5
        KEYSNAP 0
        TRACKSEL 0
        EVTFILTER 0 -1 -1 -1 -1 0 0 0 0 -1 -1 -1 -1 0 -1 0 -1 -1
        CFGEDIT 1 1 0 1 0 0 1 1 1 1 1 1 58 171 1253 866 0 0 0 0 0.25 0 0 0 0 0.5 0 0 1 64
      >
    >
    <ITEM
      POSITION 48
      SNAPOFFS 0
      LENGTH 8
      LOOP 1
      ALLTAKES 0
      FADEIN 1 0 0 1 0 0
      FADEOUT 1 0 0 1 0 0
      MUTE 0
      SEL 1
      IGUID {F0031A10-E6A1-B1DE-190B-1EFE6F369775}
      IID 16
      NAME "01-Recorded MIDI"
      VOLPAN 1 0 1 -1
      SOFFS 0 0
      PLAYRATE 1 1 0 -1 0 0.0021
      CHANMODE 0
      GUID {7B35C931-0B1B-328C-2839-4C4EB8093D19}
      RECPASS 1
      <SOURCE MIDI
        HASDATA 1 960 QN
        CCINTERP 32
        POOLEDEVTS {4D05AB2F-32E4-1180-6A38-4FD7C93ABB8A}
        E 0 90 3c 48
        E 0 90 40 48
        E 0 90 43 48
        E 1920 80 3c 00
        E 0 80 40 00
        E 0 80 43 00
        E 0 90 3c 48
        E 0 90 40 48
        E 0 90 43 48
        E 260 80 3c 00
        E 0 80 40 00
        E 0 80 43 00
        E 440 90 3c 48
        E 0 90 40 48
        E 0 90 43 48
        E 260 80 3c 00
        E 0 80 40 00
        E 0 80 43 00
        e 514 90 3c 48
        e 0 90 40 48
        e 0 90 43 48
        e 260 80 3c 00
        e 0 80 40 00
        e 0 80 43 00
        E 186 90 43 48
        E 0 90 47 48
        E 20 90 40 48
        E 1900 80 43 00
        E 0 80 47 00
        E 0 80 40 00
        E 0 90 43 48
        E 0 90 47 48
        E 20 90 40 48
        E 240 80 43 00
        E 0 80 47 00
        E 0 80 40 00
        E 440 90 43 48
        E 0 90 47 48
        E 20 90 40 48
        E 240 80 43 00
        E 0 80 47 00
        E 0 80 40 00
        e 514 90 43 48
        e 0 90 47 48
        e 20 90 40 48
        e 240 80 43 00
        e 0 80 47 00
        e 0 80 40 00
        E 186 90 41 48
        E 0 90 45 48
        E 0 90 48 48
        E 1920 80 41 00
        E 0 80 45 00
        E 0 80 48 00
        E 0 90 41 48
        E 0 90 45 48
        E 0 90 48 48
        E 260 80 41 00
        E 0 80 45 00
        E 0 80 48 00
        E 440 90 41 48
        E 0 90 45 48
        E 0 90 48 48
        E 260 80 41 00
        E 0 80 45 00
        E 0 80 48 00
        e 514 90 41 48
        e 0 90 45 48
        e 0 90 48 48
        e 260 80 41 00
        e 0 80 45 00
        e 0 80 48 00
        E 162 90 3e 48
        E 24 90 41 48
        E 0 90 45 48
        E 1896 90 3e 48
        E 24 80 3e 00
        E 0 80 41 00
        E 0 80 45 00
        E 0 90 41 48
        E 0 90 45 48
        E 260 80 3e 00
        E 0 80 41 00
        E 0 80 45 00
        E 416 90 3e 48
        E 24 90 41 48
        E 0 90 45 48
        E 260 80 3e 00
        E 0 80 41 00
        E 0 80 45 00
        e 490 90 3e 48
        e 24 90 41 48
        e 0 90 45 48
        e 260 80 3e 00
        e 0 80 41 00
        e 0 80 45 00
        E 186 b0 7b 00
        CHASE_CC_TAKEOFFS 1
        GUID {2338968B-6CF9-9F40-300F-DEB89D3392EA}
        IGNTEMPO 0 120 4 4
        SRCCOLOR 23
        VELLANE -1 100 0
        CFGEDITVIEW 0 0.045808 45 12 0 -1 0 0 0 0.5
        KEYSNAP 0
        TRACKSEL 0
        EVTFILTER 0 -1 -1 -1 -1 0 0 0 0 -1 -1 -1 -1 0 -1 0 -1 -1
        CFGEDIT 1 1 0 1 0 0 1 1 1 1 1 1 58 171 1253 866 0 0 0 0 0.25 0 0 0 0 0.5 0 0 1 64
      >
    >
    <ITEM
      POSITION 56
      SNAPOFFS 0
      LENGTH 8
      LOOP 1
      ALLTAKES 0
      FADEIN 1 0 0 1 0 0
      FADEOUT 1 0 0 1 0 0
      MUTE 0
      SEL 1
      IGUID {441D71D0-0D48-0691-A5F4-A8E5C4B28298}
      IID 17
      NAME "01-Recorded MIDI"
      VOLPAN 1 0 1 -1
      SOFFS 0 0
      PLAYRATE 1 1 0 -1 0 0.0021
      CHANMODE 0
      GUID {D3C638C7-64FA-5A12-FBC0-B01942C7E7A8}
      RECPASS 1
      <SOURCE MIDI
        HASDATA 1 960 QN
        CCINTERP 32
        POOLEDEVTS {0D653905-BC1E-0761-D290-B4DAEFFCA3CD}
        E 0 90 3c 48
        E 0 90 40 48
        E 0 90 43 48
        E 1920 80 3c 00
        E 0 80 40 00
        E 0 80 43 00
        E 0 90 3c 48
        E 0 90 40 48
        E 0 90 43 48
        E 260 80 3c 00
        E 0 80 40 00
        E 0 80 43 00
        E 440 90 3c 48
        E 0 90 40 48
        E 0 90 43 48
        E 260 80 3c 00
        E 0 80 40 00
        E 0 80 43 00
        e 514 90 3c 48
        e 0 90 40 48
        e 0 90 43 48
        e 260 80 3c 00
        e 0 80 40 00
        e 0 80 43 00
        E 186 90 43 48
        E 0 90 47 48
        E 20 90 40 48
        E 1900 80 43 00
        E 0 80 47 00
        E 0 80 40 00
        E 0 90 43 48
        E 0 90 47 48
        E 20 90 40 48
        E 240 80 43 00
        E 0 80 47 00
        E 0 80 40 00
        E 440 90 43 48
        E 0 90 47 48
        E 20 90 40 48
        E 240 80 43 00
        E 0 80 47 00
        E 0 80 40 00
        e 514 90 43 48
        e 0 90 47 48
        e 20 90 40 48
        e 240 80 43 00
        e 0 80 47 00
        e 0 80 40 00
        E 186 90 41 48
        E 0 90 45 48
        E 0 90 48 48
        E 1920 80 41 00
        E 0 80 45 00
        E 0 80 48 00
        E 0 90 41 48
        E 0 90 45 48
        E 0 90 48 48
        E 260 80 41 00
        E 0 80 45 00
        E 0 80 48 00
        E 440 90 41 48
        E 0 90 45 48
        E 0 90 48 48
        E 260 80 41 00
        E 0 80 45 00
        E 0 80 48 00
        e 514 90 41 48
        e 0 90 45 48
        e 0 90 48 48
        e 260 80 41 00
        e 0 80 45 00
        e 0 80 48 00
        E 162 90 3e 48
        E 24 90 41 48
        E 0 90 45 48
        E 1896 90 3e 48
        E 24 80 3e 00
        E 0 80 41 00
        E 0 80 45 00
        E 0 90 41 48
        E 0 90 45 48
        E 260 80 3e 00
        E 0 80 41 00
        E 0 80 45 00
        E 416 90 3e 48
        E 24 90 41 48
        E 0 90 45 48
        E 260 80 3e 00
        E 0 80 41 00
        E 0 80 45 00
        e 490 90 3e 48
        e 24 90 41 48
        e 0 90 45 48
        e 260 80 3e 00
        e 0 80 41 00
        e 0 80 45 00
        E 186 b0 7b 00
        CHASE_CC_TAKEOFFS 1
        GUID {A64857E2-94F8-0990-20DF-4C1E9B5E6251}
        IGNTEMPO 0 120 4 4
        SRCCOLOR 24
        VELLANE -1 100 0
        CFGEDITVIEW 0 0.045808 45 12 0 -1 0 0 0 0.5
        KEYSNAP 0
        TRACKSEL 0
        EVTFILTER 0 -1 -1 -1 -1 0 0 0 0 -1 -1 -1 -1 0 -1 0 -1 -1
        CFGEDIT 1 1 0 1 0 0 1 1 1 1 1 1 58 171 1253 866 0 0 0 0 0.25 0 0 0 0 0.5 0 0 1 64
      >
    >
    <ITEM
      POSITION 64
      SNAPOFFS 0
      LENGTH 8
      LOOP 1
      ALLTAKES 0
      FADEIN 1 0 0 1 0 0
      FADEOUT 1 0 0 1 0 0
      MUTE 0
      SEL 1
      IGUID {B9043898-63B3-BD42-3747-31B41ECBEC4A}
      IID 18
      NAME "01-Recorded MIDI"
      VOLPAN 1 0 1 -1
      SOFFS 0 0
      PLAYRATE 1 1 0 -1 0 0.0021
      CHANMODE 0
      GUID {046107EB-8C90-F426-A5AF-BB08BC47B817}
      RECPASS 1
      <SOURCE MIDI
        HASDATA 1 960 QN
        CCINTERP 32
        POOLEDEVTS {4346A9FC-5351-21F4-F83B-B840C86B8AEE}
        E 0 90 3c 48
        E 0 90 40 48
        E 0 90 43 48
        E 1920 80 3c 00
        E 0 80 40 00
        E 0 80 43 00
        E 0 90 3c 48
        E 0 90 40 48
        E 0 90 43 48
        E 260 80 3c 00
        E 0 80 40 00
        E 0 80 43 00
        E 440 90 3c 48
        E 0 90 40 48
        E 0 90 43 48
        E 260 80 3c 00
        E 0 80 40 00
        E 0 80 43 00
        e 514 90 3c 48
        e 0 90 40 48
        e 0 90 43 48
        e 260 80 3c 00
        e 0 80 40 00
        e 0 80 43 00
        E 186 90 43 48
        E 0 90 47 48
        E 20 90 40 48
        E 1900 80 43 00
        E 0 80 47 00
        E 0 80 40 00
        E 0 90 43 48
        E 0 90 47 48
        E 20 90 40 48
        E 240 80 43 00
        E 0 80 47 00
        E 0 80 40 00
        E 440 90 43 48
        E 0 90 47 48
        E 20 90 40 48
        E 240 80 43 00
        E 0 80 47 00
        E 0 80 40 00
        e 514 90 43 48
        e 0 90 47 48
        e 20 90 40 48
        e 240 80 43 00
        e 0 80 47 00
        e 0 80 40 00
        E 186 90 41 48
        E 0 90 45 48
        E 0 90 48 48
        E 1920 80 41 00
        E 0 80 45 00
        E 0 80 48 00
        E 0 90 41 48
        E 0 90 45 48
        E 0 90 48 48
        E 260 80 41 00
        E 0 80 45 00
        E 0 80 48 00
        E 440 90 41 48
        E 0 90 45 48
        E 0 90 48 48
        E 260 80 41 00
        E 0 80 45 00
        E 0 80 48 00
        e 514 90 41 48
        e 0 90 45 48
        e 0 90 48 48
        e 260 80 41 00
        e 0 80 45 00
        e 0 80 48 00
        E 162 90 3e 48
        E 24 90 41 48
        E 0 90 45 48
        E 1896 90 3e 48
        E 24 80 3e 00
        E 0 80 41 00
        E 0 80 45 00
        E 0 90 41 48
        E 0 90 45 48
        E 260 80 3e 00
        E 0 80 41 00
        E 0 80 45 00
        E 416 90 3e 48
        E 24 90 41 48
        E 0 90 45 48
        E 260 80 3e 00
        E 0 80 41 00
        E 0 80 45 00
        e 490 90 3e 48
        e 24 90 41 48
        e 0 90 45 48
        e 260 80 3e 00
        e 0 80 41 00
        e 0 80 45 00
        E 186 b0 7b 00
        CHASE_CC_TAKEOFFS 1
        GUID {19362806-85F2-5D9E-E1F9-07BE0CF3D16E}
        IGNTEMPO 0 120 4 4
        SRCCOLOR 25
        VELLANE -1 100 0
        CFGEDITVIEW 0 0.045808 45 12 0 -1 0 0 0 0.5
        KEYSNAP 0
        TRACKSEL 0
        EVTFILTER 0 -1 -1 -1 -1 0 0 0 0 -1 -1 -1 -1 0 -1 0 -1 -1
        CFGEDIT 1 1 0 1 0 0 1 1 1 1 1 1 58 171 1253 866 0 0 0 0 0.25 0 0 0 0 0.5 0 0 1 64
      >
    >
    <ITEM
      POSITION 72
      SNAPOFFS 0
      LENGTH 8
      LOOP 1
      ALLTAKES 0
      FADEIN 1 0 0 1 0 0
      FADEOUT 1 0 0 1 0 0
      MUTE 0
      SEL 1
      IGUID {D96B1CEB-82AE-7875-7B86-96520BF8F321}
      IID 19
      NAME "01-Recorded MIDI"
      VOLPAN 1 0 1 -1
      SOFFS 0 0
      PLAYRATE 1 1 0 -1 0 0.0021
      CHANMODE 0
      GUID {68452D42-60C7-57DD-8D11-74F9D7518D39}
      RECPASS 1
      <SOURCE MIDI
        HASDATA 1 960 QN
        CCINTERP 32
        POOLEDEVTS {D0A18050-4AB9-589F-60F9-1D52194F7D58}
        E 0 90 3c 48
        E 0 90 40 48
        E 0 90 43 48
        E 1920 80 3c 00
        E 0 80 40 00
        E 0 80 43 00
        E 0 90 3c 48
        E 0 90 40 48
        E 0 90 43 48
        E 260 80 3c 00
        E 0 80 40 00
        E 0 80 43 00
        E 440 90 3c 48
        E 0 90 40 48
        E 0 90 43 48
        E 260 80 3c 00
        E 0 80 40 00
        E 0 80 43 00
        e 514 90 3c 48
        e 0 90 40 48
        e 0 90 43 48
        e 260 80 3c 00
        e 0 80 40 00
        e 0 80 43 00
        E 186 90 43 48
        E 0 90 47 48
        E 20 90 40 48
        E 1900 80 43 00
        E 0 80 47 00
        E 0 80 40 00
        E 0 90 43 48
        E 0 90 47 48
        E 20 90 40 48
        E 240 80 43 00
        E 0 80 47 00
        E 0 80 40 00
        E 440 90 43 48
        E 0 90 47 48
        E 20 90 40 48
        E 240 80 43 00
        E 0 80 47 00
        E 0 80 40 00
        e 514 90 43 48
        e 0 90 47 48
        e 20 90 40 48
        e 240 80 43 00
        e 0 80 47 00
        e 0 80 40 00
        E 186 90 41 48
        E 0 90 45 48
        E 0 90 48 48
        E 1920 80 41 00
        E 0 80 45 00
        E 0 80 48 00
        E 0 90 41 48
        E 0 90 45 48
        E 0 90 48 48
        E 260 80 41 00
        E 0 80 45 00
        E 0 80 48 00
        E 440 90 41 48
        E 0 90 45 48
        E 0 90 48 48
        E 260 80 41 00
        E 0 80 45 00
        E 0 80 48 00
        e 514 90 41 48
        e 0 90 45 48
        e 0 90 48 48
        e 260 80 41 00
        e 0 80 45 00
        e 0 80 48 00
        E 162 90 3e 48
        E 24 90 41 48
        E 0 90 45 48
        E 1896 90 3e 48
        E 24 80 3e 00
        E 0 80 41 00
        E 0 80 45 00
        E 0 90 41 48
        E 0 90 45 48
        E 260 80 3e 00
        E 0 80 41 00
        E 0 80 45 00
        E 416 90 3e 48
        E 24 90 41 48
        E 0 90 45 48
        E 260 80 3e 00
        E 0 80 41 00
        E 0 80 45 00
        e 490 90 3e 48
        e 24 90 41 48
        e 0 90 45 48
        e 260 80 3e 00
        e 0 80 41 00
        e 0 80 45 00
        E 186 b0 7b 00
        CHASE_CC_TAKEOFFS 1
        GUID {6844F8A9-6BE9-023C-4A46-0A676470C99B}
        IGNTEMPO 0 120 4 4
        SRCCOLOR 26
        VELLANE -1 100 0
        CFGEDITVIEW 0 0.045808 45 12 0 -1 0 0 0 0.5
        KEYSNAP 0
        TRACKSEL 0
        EVTFILTER 0 -1 -1 -1 -1 0 0 0 0 -1 -1 -1 -1 0 -1 0 -1 -1
        CFGEDIT 1 1 0 1 0 0 1 1 1 1 1 1 58 171 1253 866 0 0 0 0 0.25 0 0 0 0 0.5 0 0 1 64
      >
    >
    <ITEM
      POSITION 80
      SNAPOFFS 0
      LENGTH 8
      LOOP 1
      ALLTAKES 0
      FADEIN 1 0 0 1 0 0
      FADEOUT 1 0 0 1 0 0
      MUTE 0
      SEL 1
      IGUID {44CDACC7-8B3D-45DE-DCCA-31A5BEC14205}
      IID 20
      NAME "01-Recorded MIDI"
      VOLPAN 1 0 1 -1
      SOFFS 0 0
      PLAYRATE 1 1 0 -1 0 0.0021
      CHANMODE 0
      GUID {EBE7B91E-BF13-B05D-8BD1-A06D2109AAE4}
      RECPASS 1
      <SOURCE MIDI
        HASDATA 1 960 QN
        CCINTERP 32
        POOLEDEVTS {85985674-1C6D-2FE2-4C2F-7E911040B560}
        E 0 90 3c 48
        E 0 90 40 48
        E 0 90 43 48
        E 1920 80 3c 00
        E 0 80 40 00
        E 0 80 43 00
        E 0 90 3c 48
        E 0 90 40 48
        E 0 90 43 48
        E 260 80 3c 00
        E 0 80 40 00
        E 0 80 43 00
        E 440 90 3c 48
        E 0 90 40 48
        E 0 90 43 48
        E 260 80 3c 00
        E 0 80 40 00
        E 0 80 43 00
        e 514 90 3c 48
        e 0 90 40 48
        e 0 90 43 48
        e 260 80 3c 00
        e 0 80 40 00
        e 0 80 43 00
        E 186 90 43 48
        E 0 90 47 48
        E 20 90 40 48
        E 1900 80 43 00
        E 0 80 47 00
        E 0 80 40 00
        E 0 90 43 48
        E 0 90 47 48
        E 20 90 40 48
        E 240 80 43 00
        E 0 80 47 00
        E 0 80 40 00
        E 440 90 43 48
        E 0 90 47 48
        E 20 90 40 48
        E 240 80 43 00
        E 0 80 47 00
        E 0 80 40 00
        e 514 90 43 48
        e 0 90 47 48
        e 20 90 40 48
        e 240 80 43 00
        e 0 80 47 00
        e 0 80 40 00
        E 186 90 41 48
        E 0 90 45 48
        E 0 90 48 48
        E 1920 80 41 00
        E 0 80 45 00
        E 0 80 48 00
        E 0 90 41 48
        E 0 90 45 48
        E 0 90 48 48
        E 260 80 41 00
        E 0 80 45 00
        E 0 80 48 00
        E 440 90 41 48
        E 0 90 45 48
        E 0 90 48 48
        E 260 80 41 00
        E 0 80 45 00
        E 0 80 48 00
        e 514 90 41 48
        e 0 90 45 48
        e 0 90 48 48
        e 260 80 41 00
        e 0 80 45 00
        e 0 80 48 00
        E 162 90 3e 48
        E 24 90 41 48
        E 0 90 45 48
        E 1896 90 3e 48
        E 24 80 3e 00
        E 0 80 41 00
        E 0 80 45 00
        E 0 90 41 48
        E 0 90 45 48
        E 260 80 3e 00
        E 0 80 41 00
        E 0 80 45 00
        E 416 90 3e 48
        E 24 90 41 48
        E 0 90 45 48
        E 260 80 3e 00
        E 0 80 41 00
        E 0 80 45 00
        e 490 90 3e 48
        e 24 90 41 48
        e 0 90 45 48
        e 260 80 3e 00
        e 0 80 41 00
        e 0 80 45 00
        E 186 b0 7b 00
        CHASE_CC_TAKEOFFS 1
        GUID {E611ADB6-4869-6CCA-8E83-3954D5E743B1}
        IGNTEMPO 0 120 4 4
        SRCCOLOR 27
        VELLANE -1 100 0
        CFGEDITVIEW 0 0.045808 45 12 0 -1 0 0 0 0.5
        KEYSNAP 0
        TRACKSEL 0
        EVTFILTER 0 -1 -1 -1 -1 0 0 0 0 -1 -1 -1 -1 0 -1 0 -1 -1
        CFGEDIT 1 1 0 1 0 0 1 1 1 1 1 1 58 171 1253 866 0 0 0 0 0.25 0 0 0 0 0.5 0 0 1 64
      >
    >
    <ITEM
      POSITION 88
      SNAPOFFS 0
      LENGTH 8
      LOOP 1
      ALLTAKES 0
      FADEIN 1 0 0 1 0 0
      FADEOUT 1 0 0 1 0 0
      MUTE 0
      SEL 1
      IGUID {939A0F3C-BD95-A33A-A538-2F49161B465B}
      IID 21
      NAME "01-Recorded MIDI"
      VOLPAN 1 0 1 -1
      SOFFS 0 0
      PLAYRATE 1 1 0 -1 0 0.0021
      CHANMODE 0
      GUID {1DF1B170-0006-7DFE-9BA4-5BA1709300C4}
      RECPASS 1
      <SOURCE MIDI
        HASDATA 1 960 QN
        CCINTERP 32
        POOLEDEVTS {142779F0-0FD4-EECD-3230-F3EA4CF7E403}
        E 0 90 3c 48
        E 0 90 40 48
        E 0 90 43 48
        E 1920 80 3c 00
        E 0 80 40 00
        E 0 80 43 00
        E 0 90 3c 48
        E 0 90 40 48
        E 0 90 43 48
        E 260 80 3c 00
        E 0 80 40 00
        E 0 80 43 00
        E 440 90 3c 48
        E 0 90 40 48
        E 0 90 43 48
        E 260 80 3c 00
        E 0 80 40 00
        E 0 80 43 00
        e 514 90 3c 48
        e 0 90 40 48
        e 0 90 43 48
        e 260 80 3c 00
        e 0 80 40 00
        e 0 80 43 00
        E 186 90 43 48
        E 0 90 47 48
        E 20 90 40 48
        E 1900 80 43 00
        E 0 80 47 00
        E 0 80 40 00
        E 0 90 43 48
        E 0 90 47 48
        E 20 90 40 48
        E 240 80 43 00
        E 0 80 47 00
        E 0 80 40 00
        E 440 90 43 48
        E 0 90 47 48
        E 20 90 40 48
        E 240 80 43 00
        E 0 80 47 00
        E 0 80 40 00
        e 514 90 43 48
        e 0 90 47 48
        e 20 90 40 48
        e 240 80 43 00
        e 0 80 47 00
        e 0 80 40 00
        E 186 90 41 48
        E 0 90 45 48
        E 0 90 48 48
        E 1920 80 41 00
        E 0 80 45 00
        E 0 80 48 00
        E 0 90 41 48
        E 0 90 45 48
        E 0 90 48 48
        E 260 80 41 00
        E 0 80 45 00
        E 0 80 48 00
        E 440 90 41 48
        E 0 90 45 48
        E 0 90 48 48
        E 260 80 41 00
        E 0 80 45 00
        E 0 80 48 00
        e 514 90 41 48
        e 0 90 45 48
        e 0 90 48 48
        e 260 80 41 00
        e 0 80 45 00
        e 0 80 48 00
        E 162 90 3e 48
        E 24 90 41 48
        E 0 90 45 48
        E 1896 90 3e 48
        E 24 80 3e 00
        E 0 80 41 00
        E 0 80 45 00
        E 0 90 41 48
        E 0 90 45 48
        E 260 80 3e 00
        E 0 80 41 00
        E 0 80 45 00
        E 416 90 3e 48
        E 24 90 41 48
        E 0 90 45 48
        E 260 80 3e 00
        E 0 80 41 00
        E 0 80 45 00
        e 490 90 3e 48
        e 24 90 41 48
        e 0 90 45 48
        e 260 80 3e 00
        e 0 80 41 00
        e 0 80 45 00
        E 186 b0 7b 00
        CHASE_CC_TAKEOFFS 1
        GUID {C762B555-17FC-D765-5340-11D3487D2955}
        IGNTEMPO 0 120 4 4
        SRCCOLOR 28
        VELLANE -1 100 0
        CFGEDITVIEW 0 0.045808 45 12 0 -1 0 0 0 0.5
        KEYSNAP 0
        TRACKSEL 0
        EVTFILTER 0 -1 -1 -1 -1 0 0 0 0 -1 -1 -1 -1 0 -1 0 -1 -1
        CFGEDIT 1 1 0 1 0 0 1 1 1 1 1 1 58 171 1253 866 0 0 0 0 0.25 0 0 0 0 0.5 0 0 1 64
      >
    >
  >
  <TRACK {1698EE1F-8C35-A557-55B8-6706D43A8E7F}
    NAME ""
    PEAKCOL 16576
    BEAT -1
    AUTOMODE 0
    VOLPAN 0.00052194381917 0 -1 -1 1
    MUTESOLO 0 0 0
    IPHASE 0
    PLAYOFFS 0 1
    ISBUS 0 0
    BUSCOMP 0 0 0 0 0
    SHOWINMIX 1 0.6667 0.5 1 0.5 0 0 0
    FREEMODE 0
    SEL 0
    REC 0 5056 1 0 0 0 0
    VU 2
    TRACKHEIGHT 21 0 0
    INQ 0 0 0 0.5 100 0 0 100
    NCHAN 2
    FX 0
    TRACKID {1698EE1F-8C35-A557-55B8-6706D43A8E7F}
    PERF 0
    MIDIOUT -1
    MAINSEND 1 0
    <FXCHAIN
      WNDRECT 346 266 902 608
      SHOW 0
      LASTSEL 5
      DOCKED 0
      BYPASS 0 0 0
      <VST "VST: ReaEQ (Cockos)" reaeq.vst.so 0 "" 1919247729<56535472656571726561657100000000> ""
        cWVlcu5e7f4CAAAAAQAAAAAAAAACAAAAAAAAAAIAAAABAAAAAAAAAAIAAAAAAAAAqAAAAAEAAAAAABAA
        IQAAAAQAAAAEAAAAAQAAAEC4Xhmm+DRAAAAAAAAA8D8AAAAAAAAAQAEIAAAAAQAAAAAAAAAAwHJAAAAAAAAA8D8AAAAAAAAAQAEIAAAAAQAAAAAAAAAAQI9AAAAAAAAA
        8D8AAAAAAAAAQAEDAAAAAQAAAAABaCorbdRAAAAAAAAA8D8AAAAAAAAAQAEBAAAAAQAAAAAAAAAAAPA/AAAAAJoCAACcAQAA
        AEhpZ2ggbG93IHBhc3MAEAAAAA==
      >
      PRESETNAME "High low pass"
      FLOATPOS 0 0 0 0
      FXID {E35D02E7-4805-EAD2-6CC8-2D65B80538D5}
      WAK 0 0
      BYPASS 0 0 0
      <VST "VSTi: ReaSynth (Cockos)" reasynth.vst.so 0 "" 1919251321<5653547265737972656173796E746800> ""
        eXNlcu9e7f4AAAAAAgAAAAEAAAAAAAAAAgAAAAAAAAA8AAAAAAAAAAAAEAA=
        776t3g3wrd6lm8Q7F7fROgAAAAAAAAAAAAAAAJCNuT3oZ4g9AACAPwAAAD8AAIA/AAAAAAAAAD8AAAAA
        AAAQAAAA
      >
      FLOATPOS 0 0 0 0
      FXID {78B78EBA-DD3E-9A80-CA27-F7C769760697}
      WAK 0 0
      BYPASS 0 0 0
      <JS guitar/amp-model ""
        "Dumble Overdrive Special - Tweed Deluxe.wav" -21.000000 1.000000 0.000000 73.000000 256.000000 - - - - - - - - - - - - - - - - - - - - - - - - - - - - - - - - - - - - - - - - - - - - - - - - - - - - - - - - - - 
      >
      FLOATPOS 0 0 0 0
      FXID {769511FF-BB1E-E617-424F-93C84846BBC8}
      WAK 0 0
      BYPASS 0 0 0
      <VST "VST: ReaComp (Cockos)" reacomp.vst.so 0 "" 1919247213<5653547265636D726561636F6D700000> ""
        bWNlcu9e7f4EAAAAAQAAAAAAAAACAAAAAAAAAAQAAAAAAAAACAAAAAAAAAACAAAAAQAAAAAAAAACAAAAAAAAAFQAAAAAAAAAAAAQAA==
        776t3g3wrd5FoYg9/AWpPKWbxDsK16M8AAAAAAAAAAAAAIA/AAAAAAAAAAAAAAAAnNEHMwAAgD8AAAAAzMxMPQAAAAAAAAAAAAAAAAAAgD7YiZ09
        AAAQAAAA
      >
      FLOATPOS 0 0 0 0
      FXID {FE393631-DFB8-884F-FE63-35AB653BF2F9}
      WAK 0 0
      BYPASS 0 0 0
      <VST "VST: ReaDelay (Cockos)" readelay.vst.so 0 "" 1919247468<5653547265646C72656164656C617900> ""
        bGRlcu5e7f4CAAAAAQAAAAAAAAACAAAAAAAAAAIAAAABAAAAAAAAAAIAAAAAAAAA/AAAAAEAAAAAAAAA
        AAAAAAAAAAAFAAAALAAAAAIAAAAEAAAAAACAPwAAgD8AAAAAAACAPwAAAAAAAIA7vTeGNQAAgD8AAAAAAACAPwAAgD8AAIA/AAAAAAAAAAAAAIA/AAAAAAAAADwAAAAA
        AACAPwAAAAAAAIA/AACAP+87NT8AAIA/AAAAAAAAgD8AAAAAAABAPL03hjUAAIA/AAAAAAAAgD8AAIA/zk0AP6abhD4AAAAAAACAPwAAAAAAAIA8vTeGNQAAgD8AAAAA
        AACAPwAAgD8aqrU+pHA9PwAAAAAAAIA/AAAAAAAAoDy9N4Y1AACAPwAAAAAAAIA/AACAP/npAD4AAAA/
        AHN0b2NrIC0gYmFzaWMgNSB0YXAgcGluZyBwb25nAAAAAAA=
      >
      PRESETNAME "stock - basic 5 tap ping pong"
      FLOATPOS 0 0 0 0
      FXID {583FADA8-FD88-2992-F0DE-AF4E5318DBB2}
      WAK 0 0
      BYPASS 0 0 0
      <VST "VST: ReaVerb (Cockos)" reaverb.vst.so 0 "" 1919252066<56535472657662726561766572620000> ""
        YnZlcu5e7f4CAAAAAQAAAAAAAAACAAAAAAAAAAIAAAABAAAAAAAAAAIAAAAAAAAAcAAAAAEAAAAAAAAA
        AAAAwcybgD4AAIA/AAAAAAAAgD8AAIA/AAAAPwAAgD8AAAAAVkVSQkdFTgAYAAAAAAAAAJHgV0QdrLRA3rK7QsHIjEIAAIC/RUNIT0dFTgAcAAAAy/i2QLUjdUJdzdM/
        osdfP5lRrzyRzYxAnMQAPw==
        AHN3ZWV0dmVyYm8AAAAAAA==
      >
      PRESETNAME sweetverbo
      FLOATPOS 0 0 0 0
      FXID {DBF627D2-85D2-70CD-37BC-588CD63F0C1B}
      WAK 0 0
    >
    <ITEM
      POSITION 0
      SNAPOFFS 0
      LENGTH 8
      LOOP 1
      ALLTAKES 0
      FADEIN 1 0 0 1 0 0
      FADEOUT 1 0 0 1 0 0
      MUTE 0
      SEL 1
      IGUID {E2A8346A-D418-5AB4-90FB-63C31E960BF5}
      IID 10
      NAME "01-Recorded MIDI"
      VOLPAN 1 0 1 -1
      SOFFS 0 0
      PLAYRATE 1 1 0 -1 0 0.0021
      CHANMODE 0
      GUID {FB19442D-023D-D963-DC90-D5253F0D7271}
      RECPASS 1
      <SOURCE MIDI
        HASDATA 1 960 QN
        CCINTERP 32
        POOLEDEVTS {97C450C4-1CEA-51CD-595B-4F15D69A171D}
        E 0 90 3c 48
        E 0 90 40 48
        E 0 90 43 48
        E 1920 80 3c 00
        E 0 80 40 00
        E 0 80 43 00
        E 0 90 3c 48
        E 0 90 40 48
        E 0 90 43 48
        E 260 80 3c 00
        E 0 80 40 00
        E 0 80 43 00
        E 440 90 3c 48
        E 0 90 40 48
        E 0 90 43 48
        E 260 80 3c 00
        E 0 80 40 00
        E 0 80 43 00
        e 514 90 3c 48
        e 0 90 40 48
        e 0 90 43 48
        e 260 80 3c 00
        e 0 80 40 00
        e 0 80 43 00
        E 186 90 43 48
        E 0 90 47 48
        E 20 90 40 48
        E 1900 80 43 00
        E 0 80 47 00
        E 0 80 40 00
        E 0 90 43 48
        E 0 90 47 48
        E 20 90 40 48
        E 240 80 43 00
        E 0 80 47 00
        E 0 80 40 00
        E 440 90 43 48
        E 0 90 47 48
        E 20 90 40 48
        E 240 80 43 00
        E 0 80 47 00
        E 0 80 40 00
        e 514 90 43 48
        e 0 90 47 48
        e 20 90 40 48
        e 240 80 43 00
        e 0 80 47 00
        e 0 80 40 00
        E 186 90 41 48
        E 0 90 45 48
        E 0 90 48 48
        E 1920 80 41 00
        E 0 80 45 00
        E 0 80 48 00
        E 0 90 41 48
        E 0 90 45 48
        E 0 90 48 48
        E 260 80 41 00
        E 0 80 45 00
        E 0 80 48 00
        E 440 90 41 48
        E 0 90 45 48
        E 0 90 48 48
        E 260 80 41 00
        E 0 80 45 00
        E 0 80 48 00
        e 514 90 41 48
        e 0 90 45 48
        e 0 90 48 48
        e 260 80 41 00
        e 0 80 45 00
        e 0 80 48 00
        E 162 90 3e 48
        E 24 90 41 48
        E 0 90 45 48
        E 1896 90 3e 48
        E 24 80 3e 00
        E 0 80 41 00
        E 0 80 45 00
        E 0 90 41 48
        E 0 90 45 48
        E 260 80 3e 00
        E 0 80 41 00
        E 0 80 45 00
        E 416 90 3e 48
        E 24 90 41 48
        E 0 90 45 48
        E 260 80 3e 00
        E 0 80 41 00
        E 0 80 45 00
        e 490 90 3e 48
        e 24 90 41 48
        e 0 90 45 48
        e 260 80 3e 00
        e 0 80 41 00
        e 0 80 45 00
        E 186 b0 7b 00
        CHASE_CC_TAKEOFFS 1
        GUID {7B9D708B-43E1-C8D4-C4B3-87E2A6C27801}
        IGNTEMPO 0 120 4 4
        SRCCOLOR 17
        VELLANE -1 100 0
        CFGEDITVIEW 0 0.045808 45 12 0 -1 0 0 0 0.5
        KEYSNAP 0
        TRACKSEL 0
        EVTFILTER 0 -1 -1 -1 -1 0 0 0 0 -1 -1 -1 -1 0 -1 0 -1 -1
        CFGEDIT 1 1 0 1 0 0 1 1 1 1 1 1 58 171 1253 866 0 0 0 0 0.25 0 0 0 0 0.5 0 0 1 64
      >
    >
    <ITEM
      POSITION 8
      SNAPOFFS 0
      LENGTH 8
      LOOP 1
      ALLTAKES 0
      FADEIN 1 0 0 1 0 0
      FADEOUT 1 0 0 1 0 0
      MUTE 0
      SEL 1
      IGUID {98BD7C9A-1BD8-FFF9-3C36-D7063A711862}
      IID 11
      NAME "01-Recorded MIDI"
      VOLPAN 1 0 1 -1
      SOFFS 0 0
      PLAYRATE 1 1 0 -1 0 0.0021
      CHANMODE 0
      GUID {519A5428-11B0-2D81-5C5C-1B60C963E3D7}
      RECPASS 1
      <SOURCE MIDI
        HASDATA 1 960 QN
        CCINTERP 32
        POOLEDEVTS {723ADD07-A922-6328-FFF4-6D1934B1A8BA}
        E 0 90 3c 48
        E 0 90 40 48
        E 0 90 43 48
        E 1920 80 3c 00
        E 0 80 40 00
        E 0 80 43 00
        E 0 90 3c 48
        E 0 90 40 48
        E 0 90 43 48
        E 260 80 3c 00
        E 0 80 40 00
        E 0 80 43 00
        E 440 90 3c 48
        E 0 90 40 48
        E 0 90 43 48
        E 260 80 3c 00
        E 0 80 40 00
        E 0 80 43 00
        e 514 90 3c 48
        e 0 90 40 48
        e 0 90 43 48
        e 260 80 3c 00
        e 0 80 40 00
        e 0 80 43 00
        E 186 90 43 48
        E 0 90 47 48
        E 20 90 40 48
        E 1900 80 43 00
        E 0 80 47 00
        E 0 80 40 00
        E 0 90 43 48
        E 0 90 47 48
        E 20 90 40 48
        E 240 80 43 00
        E 0 80 47 00
        E 0 80 40 00
        E 440 90 43 48
        E 0 90 47 48
        E 20 90 40 48
        E 240 80 43 00
        E 0 80 47 00
        E 0 80 40 00
        e 514 90 43 48
        e 0 90 47 48
        e 20 90 40 48
        e 240 80 43 00
        e 0 80 47 00
        e 0 80 40 00
        E 186 90 41 48
        E 0 90 45 48
        E 0 90 48 48
        E 1920 80 41 00
        E 0 80 45 00
        E 0 80 48 00
        E 0 90 41 48
        E 0 90 45 48
        E 0 90 48 48
        E 260 80 41 00
        E 0 80 45 00
        E 0 80 48 00
        E 440 90 41 48
        E 0 90 45 48
        E 0 90 48 48
        E 260 80 41 00
        E 0 80 45 00
        E 0 80 48 00
        e 514 90 41 48
        e 0 90 45 48
        e 0 90 48 48
        e 260 80 41 00
        e 0 80 45 00
        e 0 80 48 00
        E 162 90 3e 48
        E 24 90 41 48
        E 0 90 45 48
        E 1896 90 3e 48
        E 24 80 3e 00
        E 0 80 41 00
        E 0 80 45 00
        E 0 90 41 48
        E 0 90 45 48
        E 260 80 3e 00
        E 0 80 41 00
        E 0 80 45 00
        E 416 90 3e 48
        E 24 90 41 48
        E 0 90 45 48
        E 260 80 3e 00
        E 0 80 41 00
        E 0 80 45 00
        e 490 90 3e 48
        e 24 90 41 48
        e 0 90 45 48
        e 260 80 3e 00
        e 0 80 41 00
        e 0 80 45 00
        E 186 b0 7b 00
        CHASE_CC_TAKEOFFS 1
        GUID {3131B4E2-B370-E352-A9C5-C8CA31551A86}
        IGNTEMPO 0 120 4 4
        SRCCOLOR 18
        VELLANE -1 100 0
        CFGEDITVIEW 0 0.045808 45 12 0 -1 0 0 0 0.5
        KEYSNAP 0
        TRACKSEL 0
        EVTFILTER 0 -1 -1 -1 -1 0 0 0 0 -1 -1 -1 -1 0 -1 0 -1 -1
        CFGEDIT 1 1 0 1 0 0 1 1 1 1 1 1 58 171 1253 866 0 0 0 0 0.25 0 0 0 0 0.5 0 0 1 64
      >
    >
    <ITEM
      POSITION 16
      SNAPOFFS 0
      LENGTH 8
      LOOP 1
      ALLTAKES 0
      FADEIN 1 0 0 1 0 0
      FADEOUT 1 0 0 1 0 0
      MUTE 0
      SEL 1
      IGUID {7616CBD2-BB19-51D7-531E-302DE6A711E9}
      IID 12
      NAME "01-Recorded MIDI"
      VOLPAN 1 0 1 -1
      SOFFS 0 0
      PLAYRATE 1 1 0 -1 0 0.0021
      CHANMODE 0
      GUID {5EFEA45E-ACC0-A259-726F-F03829E7A362}
      RECPASS 1
      <SOURCE MIDI
        HASDATA 1 960 QN
        CCINTERP 32
        POOLEDEVTS {50351429-3528-065F-BCAC-33379D5555D6}
        E 0 90 3c 48
        E 0 90 40 48
        E 0 90 43 48
        E 1920 80 3c 00
        E 0 80 40 00
        E 0 80 43 00
        E 0 90 3c 48
        E 0 90 40 48
        E 0 90 43 48
        E 260 80 3c 00
        E 0 80 40 00
        E 0 80 43 00
        E 440 90 3c 48
        E 0 90 40 48
        E 0 90 43 48
        E 260 80 3c 00
        E 0 80 40 00
        E 0 80 43 00
        e 514 90 3c 48
        e 0 90 40 48
        e 0 90 43 48
        e 260 80 3c 00
        e 0 80 40 00
        e 0 80 43 00
        E 186 90 43 48
        E 0 90 47 48
        E 20 90 40 48
        E 1900 80 43 00
        E 0 80 47 00
        E 0 80 40 00
        E 0 90 43 48
        E 0 90 47 48
        E 20 90 40 48
        E 240 80 43 00
        E 0 80 47 00
        E 0 80 40 00
        E 440 90 43 48
        E 0 90 47 48
        E 20 90 40 48
        E 240 80 43 00
        E 0 80 47 00
        E 0 80 40 00
        e 514 90 43 48
        e 0 90 47 48
        e 20 90 40 48
        e 240 80 43 00
        e 0 80 47 00
        e 0 80 40 00
        E 186 90 41 48
        E 0 90 45 48
        E 0 90 48 48
        E 1920 80 41 00
        E 0 80 45 00
        E 0 80 48 00
        E 0 90 41 48
        E 0 90 45 48
        E 0 90 48 48
        E 260 80 41 00
        E 0 80 45 00
        E 0 80 48 00
        E 440 90 41 48
        E 0 90 45 48
        E 0 90 48 48
        E 260 80 41 00
        E 0 80 45 00
        E 0 80 48 00
        e 514 90 41 48
        e 0 90 45 48
        e 0 90 48 48
        e 260 80 41 00
        e 0 80 45 00
        e 0 80 48 00
        E 162 90 3e 48
        E 24 90 41 48
        E 0 90 45 48
        E 1896 90 3e 48
        E 24 80 3e 00
        E 0 80 41 00
        E 0 80 45 00
        E 0 90 41 48
        E 0 90 45 48
        E 260 80 3e 00
        E 0 80 41 00
        E 0 80 45 00
        E 416 90 3e 48
        E 24 90 41 48
        E 0 90 45 48
        E 260 80 3e 00
        E 0 80 41 00
        E 0 80 45 00
        e 490 90 3e 48
        e 24 90 41 48
        e 0 90 45 48
        e 260 80 3e 00
        e 0 80 41 00
        e 0 80 45 00
        E 186 b0 7b 00
        CHASE_CC_TAKEOFFS 1
        GUID {48C567A2-895C-FB9B-FDBA-0ADB7004ABF3}
        IGNTEMPO 0 120 4 4
        SRCCOLOR 19
        VELLANE -1 100 0
        CFGEDITVIEW 0 0.045808 45 12 0 -1 0 0 0 0.5
        KEYSNAP 0
        TRACKSEL 0
        EVTFILTER 0 -1 -1 -1 -1 0 0 0 0 -1 -1 -1 -1 0 -1 0 -1 -1
        CFGEDIT 1 1 0 1 0 0 1 1 1 1 1 1 58 171 1253 866 0 0 0 0 0.25 0 0 0 0 0.5 0 0 1 64
      >
    >
    <ITEM
      POSITION 24
      SNAPOFFS 0
      LENGTH 8
      LOOP 1
      ALLTAKES 0
      FADEIN 1 0 0 1 0 0
      FADEOUT 1 0 0 1 0 0
      MUTE 0
      SEL 1
      IGUID {38FA2645-67E5-E785-F7D4-F5AA923AE712}
      IID 13
      NAME "01-Recorded MIDI"
      VOLPAN 1 0 1 -1
      SOFFS 0 0
      PLAYRATE 1 1 0 -1 0 0.0021
      CHANMODE 0
      GUID {4F0E126A-E544-72F0-499E-B6B2A8D283BD}
      RECPASS 1
      <SOURCE MIDI
        HASDATA 1 960 QN
        CCINTERP 32
        POOLEDEVTS {9D9507DA-CA52-73D3-DCF7-E7115C79F5C5}
        E 0 90 3c 48
        E 0 90 40 48
        E 0 90 43 48
        E 1920 80 3c 00
        E 0 80 40 00
        E 0 80 43 00
        E 0 90 3c 48
        E 0 90 40 48
        E 0 90 43 48
        E 260 80 3c 00
        E 0 80 40 00
        E 0 80 43 00
        E 440 90 3c 48
        E 0 90 40 48
        E 0 90 43 48
        E 260 80 3c 00
        E 0 80 40 00
        E 0 80 43 00
        e 514 90 3c 48
        e 0 90 40 48
        e 0 90 43 48
        e 260 80 3c 00
        e 0 80 40 00
        e 0 80 43 00
        E 186 90 43 48
        E 0 90 47 48
        E 20 90 40 48
        E 1900 80 43 00
        E 0 80 47 00
        E 0 80 40 00
        E 0 90 43 48
        E 0 90 47 48
        E 20 90 40 48
        E 240 80 43 00
        E 0 80 47 00
        E 0 80 40 00
        E 440 90 43 48
        E 0 90 47 48
        E 20 90 40 48
        E 240 80 43 00
        E 0 80 47 00
        E 0 80 40 00
        e 514 90 43 48
        e 0 90 47 48
        e 20 90 40 48
        e 240 80 43 00
        e 0 80 47 00
        e 0 80 40 00
        E 186 90 41 48
        E 0 90 45 48
        E 0 90 48 48
        E 1920 80 41 00
        E 0 80 45 00
        E 0 80 48 00
        E 0 90 41 48
        E 0 90 45 48
        E 0 90 48 48
        E 260 80 41 00
        E 0 80 45 00
        E 0 80 48 00
        E 440 90 41 48
        E 0 90 45 48
        E 0 90 48 48
        E 260 80 41 00
        E 0 80 45 00
        E 0 80 48 00
        e 514 90 41 48
        e 0 90 45 48
        e 0 90 48 48
        e 260 80 41 00
        e 0 80 45 00
        e 0 80 48 00
        E 162 90 3e 48
        E 24 90 41 48
        E 0 90 45 48
        E 1896 90 3e 48
        E 24 80 3e 00
        E 0 80 41 00
        E 0 80 45 00
        E 0 90 41 48
        E 0 90 45 48
        E 260 80 3e 00
        E 0 80 41 00
        E 0 80 45 00
        E 416 90 3e 48
        E 24 90 41 48
        E 0 90 45 48
        E 260 80 3e 00
        E 0 80 41 00
        E 0 80 45 00
        e 490 90 3e 48
        e 24 90 41 48
        e 0 90 45 48
        e 260 80 3e 00
        e 0 80 41 00
        e 0 80 45 00
        E 186 b0 7b 00
        CHASE_CC_TAKEOFFS 1
        GUID {1DE38800-E2A1-41B5-9C8C-3291891093B1}
        IGNTEMPO 0 120 4 4
        SRCCOLOR 20
        VELLANE -1 100 0
        CFGEDITVIEW 0 0.045808 45 12 0 -1 0 0 0 0.5
        KEYSNAP 0
        TRACKSEL 0
        EVTFILTER 0 -1 -1 -1 -1 0 0 0 0 -1 -1 -1 -1 0 -1 0 -1 -1
        CFGEDIT 1 1 0 1 0 0 1 1 1 1 1 1 58 171 1253 866 0 0 0 0 0.25 0 0 0 0 0.5 0 0 1 64
      >
    >
    <ITEM
      POSITION 32
      SNAPOFFS 0
      LENGTH 8
      LOOP 1
      ALLTAKES 0
      FADEIN 1 0 0 1 0 0
      FADEOUT 1 0 0 1 0 0
      MUTE 0
      SEL 1
      IGUID {99A13FCE-FAF3-63A8-DDA8-6D446277075F}
      IID 14
      NAME "01-Recorded MIDI"
      VOLPAN 1 0 1 -1
      SOFFS 0 0
      PLAYRATE 1 1 0 -1 0 0.0021
      CHANMODE 0
      GUID {6409D0C7-7E99-955A-302B-C925B829FF7A}
      RECPASS 1
      <SOURCE MIDI
        HASDATA 1 960 QN
        CCINTERP 32
        POOLEDEVTS {29E3FDA1-5A95-E4C4-45C9-178F58F1C85A}
        E 0 90 3c 48
        E 0 90 40 48
        E 0 90 43 48
        E 1920 80 3c 00
        E 0 80 40 00
        E 0 80 43 00
        E 0 90 3c 48
        E 0 90 40 48
        E 0 90 43 48
        E 260 80 3c 00
        E 0 80 40 00
        E 0 80 43 00
        E 440 90 3c 48
        E 0 90 40 48
        E 0 90 43 48
        E 260 80 3c 00
        E 0 80 40 00
        E 0 80 43 00
        e 514 90 3c 48
        e 0 90 40 48
        e 0 90 43 48
        e 260 80 3c 00
        e 0 80 40 00
        e 0 80 43 00
        E 186 90 43 48
        E 0 90 47 48
        E 20 90 40 48
        E 1900 80 43 00
        E 0 80 47 00
        E 0 80 40 00
        E 0 90 43 48
        E 0 90 47 48
        E 20 90 40 48
        E 240 80 43 00
        E 0 80 47 00
        E 0 80 40 00
        E 440 90 43 48
        E 0 90 47 48
        E 20 90 40 48
        E 240 80 43 00
        E 0 80 47 00
        E 0 80 40 00
        e 514 90 43 48
        e 0 90 47 48
        e 20 90 40 48
        e 240 80 43 00
        e 0 80 47 00
        e 0 80 40 00
        E 186 90 41 48
        E 0 90 45 48
        E 0 90 48 48
        E 1920 80 41 00
        E 0 80 45 00
        E 0 80 48 00
        E 0 90 41 48
        E 0 90 45 48
        E 0 90 48 48
        E 260 80 41 00
        E 0 80 45 00
        E 0 80 48 00
        E 440 90 41 48
        E 0 90 45 48
        E 0 90 48 48
        E 260 80 41 00
        E 0 80 45 00
        E 0 80 48 00
        e 514 90 41 48
        e 0 90 45 48
        e 0 90 48 48
        e 260 80 41 00
        e 0 80 45 00
        e 0 80 48 00
        E 162 90 3e 48
        E 24 90 41 48
        E 0 90 45 48
        E 1896 90 3e 48
        E 24 80 3e 00
        E 0 80 41 00
        E 0 80 45 00
        E 0 90 41 48
        E 0 90 45 48
        E 260 80 3e 00
        E 0 80 41 00
        E 0 80 45 00
        E 416 90 3e 48
        E 24 90 41 48
        E 0 90 45 48
        E 260 80 3e 00
        E 0 80 41 00
        E 0 80 45 00
        e 490 90 3e 48
        e 24 90 41 48
        e 0 90 45 48
        e 260 80 3e 00
        e 0 80 41 00
        e 0 80 45 00
        E 186 b0 7b 00
        CHASE_CC_TAKEOFFS 1
        GUID {0C3271F4-E233-9088-9B25-A722FAE7C579}
        IGNTEMPO 0 120 4 4
        SRCCOLOR 21
        VELLANE -1 100 0
        CFGEDITVIEW 0 0.045808 45 12 0 -1 0 0 0 0.5
        KEYSNAP 0
        TRACKSEL 0
        EVTFILTER 0 -1 -1 -1 -1 0 0 0 0 -1 -1 -1 -1 0 -1 0 -1 -1
        CFGEDIT 1 1 0 1 0 0 1 1 1 1 1 1 58 171 1253 866 0 0 0 0 0.25 0 0 0 0 0.5 0 0 1 64
      >
    >
    <ITEM
      POSITION 40
      SNAPOFFS 0
      LENGTH 8
      LOOP 1
      ALLTAKES 0
      FADEIN 1 0 0 1 0 0
      FADEOUT 1 0 0 1 0 0
      MUTE 0
      SEL 1
      IGUID {9B9483EB-C267-0723-B732-0016324114AA}
      IID 15
      NAME "01-Recorded MIDI"
      VOLPAN 1 0 1 -1
      SOFFS 0 0
      PLAYRATE 1 1 0 -1 0 0.0021
      CHANMODE 0
      GUID {FA839346-5448-3D7B-2445-3732A116AED5}
      RECPASS 1
      <SOURCE MIDI
        HASDATA 1 960 QN
        CCINTERP 32
        POOLEDEVTS {4819A33A-248E-7E58-93C1-44183AF979F4}
        E 0 90 3c 48
        E 0 90 40 48
        E 0 90 43 48
        E 1920 80 3c 00
        E 0 80 40 00
        E 0 80 43 00
        E 0 90 3c 48
        E 0 90 40 48
        E 0 90 43 48
        E 260 80 3c 00
        E 0 80 40 00
        E 0 80 43 00
        E 440 90 3c 48
        E 0 90 40 48
        E 0 90 43 48
        E 260 80 3c 00
        E 0 80 40 00
        E 0 80 43 00
        e 514 90 3c 48
        e 0 90 40 48
        e 0 90 43 48
        e 260 80 3c 00
        e 0 80 40 00
        e 0 80 43 00
        E 186 90 43 48
        E 0 90 47 48
        E 20 90 40 48
        E 1900 80 43 00
        E 0 80 47 00
        E 0 80 40 00
        E 0 90 43 48
        E 0 90 47 48
        E 20 90 40 48
        E 240 80 43 00
        E 0 80 47 00
        E 0 80 40 00
        E 440 90 43 48
        E 0 90 47 48
        E 20 90 40 48
        E 240 80 43 00
        E 0 80 47 00
        E 0 80 40 00
        e 514 90 43 48
        e 0 90 47 48
        e 20 90 40 48
        e 240 80 43 00
        e 0 80 47 00
        e 0 80 40 00
        E 186 90 41 48
        E 0 90 45 48
        E 0 90 48 48
        E 1920 80 41 00
        E 0 80 45 00
        E 0 80 48 00
        E 0 90 41 48
        E 0 90 45 48
        E 0 90 48 48
        E 260 80 41 00
        E 0 80 45 00
        E 0 80 48 00
        E 440 90 41 48
        E 0 90 45 48
        E 0 90 48 48
        E 260 80 41 00
        E 0 80 45 00
        E 0 80 48 00
        e 514 90 41 48
        e 0 90 45 48
        e 0 90 48 48
        e 260 80 41 00
        e 0 80 45 00
        e 0 80 48 00
        E 162 90 3e 48
        E 24 90 41 48
        E 0 90 45 48
        E 1896 90 3e 48
        E 24 80 3e 00
        E 0 80 41 00
        E 0 80 45 00
        E 0 90 41 48
        E 0 90 45 48
        E 260 80 3e 00
        E 0 80 41 00
        E 0 80 45 00
        E 416 90 3e 48
        E 24 90 41 48
        E 0 90 45 48
        E 260 80 3e 00
        E 0 80 41 00
        E 0 80 45 00
        e 490 90 3e 48
        e 24 90 41 48
        e 0 90 45 48
        e 260 80 3e 00
        e 0 80 41 00
        e 0 80 45 00
        E 186 b0 7b 00
        CHASE_CC_TAKEOFFS 1
        GUID {040E7AF8-3572-5D91-3C86-797AEE7444D4}
        IGNTEMPO 0 120 4 4
        SRCCOLOR 22
        VELLANE -1 100 0
        CFGEDITVIEW 0 0.045808 45 12 0 -1 0 0 0 0.5
        KEYSNAP 0
        TRACKSEL 0
        EVTFILTER 0 -1 -1 -1 -1 0 0 0 0 -1 -1 -1 -1 0 -1 0 -1 -1
        CFGEDIT 1 1 0 1 0 0 1 1 1 1 1 1 58 171 1253 866 0 0 0 0 0.25 0 0 0 0 0.5 0 0 1 64
      >
    >
    <ITEM
      POSITION 48
      SNAPOFFS 0
      LENGTH 8
      LOOP 1
      ALLTAKES 0
      FADEIN 1 0 0 1 0 0
      FADEOUT 1 0 0 1 0 0
      MUTE 0
      SEL 1
      IGUID {4C9A6968-F3E6-9170-81AA-4670A39A6DEC}
      IID 16
      NAME "01-Recorded MIDI"
      VOLPAN 1 0 1 -1
      SOFFS 0 0
      PLAYRATE 1 1 0 -1 0 0.0021
      CHANMODE 0
      GUID {214E68CD-426F-9051-75EE-BED1DB193D16}
      RECPASS 1
      <SOURCE MIDI
        HASDATA 1 960 QN
        CCINTERP 32
        POOLEDEVTS {8AEC9678-9FBF-EF38-5CE2-89518FD1AD4E}
        E 0 90 3c 48
        E 0 90 40 48
        E 0 90 43 48
        E 1920 80 3c 00
        E 0 80 40 00
        E 0 80 43 00
        E 0 90 3c 48
        E 0 90 40 48
        E 0 90 43 48
        E 260 80 3c 00
        E 0 80 40 00
        E 0 80 43 00
        E 440 90 3c 48
        E 0 90 40 48
        E 0 90 43 48
        E 260 80 3c 00
        E 0 80 40 00
        E 0 80 43 00
        e 514 90 3c 48
        e 0 90 40 48
        e 0 90 43 48
        e 260 80 3c 00
        e 0 80 40 00
        e 0 80 43 00
        E 186 90 43 48
        E 0 90 47 48
        E 20 90 40 48
        E 1900 80 43 00
        E 0 80 47 00
        E 0 80 40 00
        E 0 90 43 48
        E 0 90 47 48
        E 20 90 40 48
        E 240 80 43 00
        E 0 80 47 00
        E 0 80 40 00
        E 440 90 43 48
        E 0 90 47 48
        E 20 90 40 48
        E 240 80 43 00
        E 0 80 47 00
        E 0 80 40 00
        e 514 90 43 48
        e 0 90 47 48
        e 20 90 40 48
        e 240 80 43 00
        e 0 80 47 00
        e 0 80 40 00
        E 186 90 41 48
        E 0 90 45 48
        E 0 90 48 48
        E 1920 80 41 00
        E 0 80 45 00
        E 0 80 48 00
        E 0 90 41 48
        E 0 90 45 48
        E 0 90 48 48
        E 260 80 41 00
        E 0 80 45 00
        E 0 80 48 00
        E 440 90 41 48
        E 0 90 45 48
        E 0 90 48 48
        E 260 80 41 00
        E 0 80 45 00
        E 0 80 48 00
        e 514 90 41 48
        e 0 90 45 48
        e 0 90 48 48
        e 260 80 41 00
        e 0 80 45 00
        e 0 80 48 00
        E 162 90 3e 48
        E 24 90 41 48
        E 0 90 45 48
        E 1896 90 3e 48
        E 24 80 3e 00
        E 0 80 41 00
        E 0 80 45 00
        E 0 90 41 48
        E 0 90 45 48
        E 260 80 3e 00
        E 0 80 41 00
        E 0 80 45 00
        E 416 90 3e 48
        E 24 90 41 48
        E 0 90 45 48
        E 260 80 3e 00
        E 0 80 41 00
        E 0 80 45 00
        e 490 90 3e 48
        e 24 90 41 48
        e 0 90 45 48
        e 260 80 3e 00
        e 0 80 41 00
        e 0 80 45 00
        E 186 b0 7b 00
        CHASE_CC_TAKEOFFS 1
        GUID {2338968B-6CF9-9F40-300F-DEB89D3392EA}
        IGNTEMPO 0 120 4 4
        SRCCOLOR 23
        VELLANE -1 100 0
        CFGEDITVIEW 0 0.045808 45 12 0 -1 0 0 0 0.5
        KEYSNAP 0
        TRACKSEL 0
        EVTFILTER 0 -1 -1 -1 -1 0 0 0 0 -1 -1 -1 -1 0 -1 0 -1 -1
        CFGEDIT 1 1 0 1 0 0 1 1 1 1 1 1 58 171 1253 866 0 0 0 0 0.25 0 0 0 0 0.5 0 0 1 64
      >
    >
    <ITEM
      POSITION 56
      SNAPOFFS 0
      LENGTH 8
      LOOP 1
      ALLTAKES 0
      FADEIN 1 0 0 1 0 0
      FADEOUT 1 0 0 1 0 0
      MUTE 0
      SEL 1
      IGUID {ADBC43B6-9D16-25B0-8B57-536F0237A274}
      IID 17
      NAME "01-Recorded MIDI"
      VOLPAN 1 0 1 -1
      SOFFS 0 0
      PLAYRATE 1 1 0 -1 0 0.0021
      CHANMODE 0
      GUID {B1A6D8EF-CD66-5DCB-8184-6EEEC2163EE1}
      RECPASS 1
      <SOURCE MIDI
        HASDATA 1 960 QN
        CCINTERP 32
        POOLEDEVTS {AA5BCCBB-97BA-9970-2BEC-148E3A8D6909}
        E 0 90 3c 48
        E 0 90 40 48
        E 0 90 43 48
        E 1920 80 3c 00
        E 0 80 40 00
        E 0 80 43 00
        E 0 90 3c 48
        E 0 90 40 48
        E 0 90 43 48
        E 260 80 3c 00
        E 0 80 40 00
        E 0 80 43 00
        E 440 90 3c 48
        E 0 90 40 48
        E 0 90 43 48
        E 260 80 3c 00
        E 0 80 40 00
        E 0 80 43 00
        e 514 90 3c 48
        e 0 90 40 48
        e 0 90 43 48
        e 260 80 3c 00
        e 0 80 40 00
        e 0 80 43 00
        E 186 90 43 48
        E 0 90 47 48
        E 20 90 40 48
        E 1900 80 43 00
        E 0 80 47 00
        E 0 80 40 00
        E 0 90 43 48
        E 0 90 47 48
        E 20 90 40 48
        E 240 80 43 00
        E 0 80 47 00
        E 0 80 40 00
        E 440 90 43 48
        E 0 90 47 48
        E 20 90 40 48
        E 240 80 43 00
        E 0 80 47 00
        E 0 80 40 00
        e 514 90 43 48
        e 0 90 47 48
        e 20 90 40 48
        e 240 80 43 00
        e 0 80 47 00
        e 0 80 40 00
        E 186 90 41 48
        E 0 90 45 48
        E 0 90 48 48
        E 1920 80 41 00
        E 0 80 45 00
        E 0 80 48 00
        E 0 90 41 48
        E 0 90 45 48
        E 0 90 48 48
        E 260 80 41 00
        E 0 80 45 00
        E 0 80 48 00
        E 440 90 41 48
        E 0 90 45 48
        E 0 90 48 48
        E 260 80 41 00
        E 0 80 45 00
        E 0 80 48 00
        e 514 90 41 48
        e 0 90 45 48
        e 0 90 48 48
        e 260 80 41 00
        e 0 80 45 00
        e 0 80 48 00
        E 162 90 3e 48
        E 24 90 41 48
        E 0 90 45 48
        E 1896 90 3e 48
        E 24 80 3e 00
        E 0 80 41 00
        E 0 80 45 00
        E 0 90 41 48
        E 0 90 45 48
        E 260 80 3e 00
        E 0 80 41 00
        E 0 80 45 00
        E 416 90 3e 48
        E 24 90 41 48
        E 0 90 45 48
        E 260 80 3e 00
        E 0 80 41 00
        E 0 80 45 00
        e 490 90 3e 48
        e 24 90 41 48
        e 0 90 45 48
        e 260 80 3e 00
        e 0 80 41 00
        e 0 80 45 00
        E 186 b0 7b 00
        CHASE_CC_TAKEOFFS 1
        GUID {A64857E2-94F8-0990-20DF-4C1E9B5E6251}
        IGNTEMPO 0 120 4 4
        SRCCOLOR 24
        VELLANE -1 100 0
        CFGEDITVIEW 0 0.045808 45 12 0 -1 0 0 0 0.5
        KEYSNAP 0
        TRACKSEL 0
        EVTFILTER 0 -1 -1 -1 -1 0 0 0 0 -1 -1 -1 -1 0 -1 0 -1 -1
        CFGEDIT 1 1 0 1 0 0 1 1 1 1 1 1 58 171 1253 866 0 0 0 0 0.25 0 0 0 0 0.5 0 0 1 64
      >
    >
    <ITEM
      POSITION 64
      SNAPOFFS 0
      LENGTH 8
      LOOP 1
      ALLTAKES 0
      FADEIN 1 0 0 1 0 0
      FADEOUT 1 0 0 1 0 0
      MUTE 0
      SEL 1
      IGUID {DC8D58DB-1BC9-2B94-8AAA-F27621F88951}
      IID 18
      NAME "01-Recorded MIDI"
      VOLPAN 1 0 1 -1
      SOFFS 0 0
      PLAYRATE 1 1 0 -1 0 0.0021
      CHANMODE 0
      GUID {00507E1F-74B1-423B-1D16-28D437E62DA3}
      RECPASS 1
      <SOURCE MIDI
        HASDATA 1 960 QN
        CCINTERP 32
        POOLEDEVTS {36E7F09B-852E-402E-6DFC-BF1972985F59}
        E 0 90 3c 48
        E 0 90 40 48
        E 0 90 43 48
        E 1920 80 3c 00
        E 0 80 40 00
        E 0 80 43 00
        E 0 90 3c 48
        E 0 90 40 48
        E 0 90 43 48
        E 260 80 3c 00
        E 0 80 40 00
        E 0 80 43 00
        E 440 90 3c 48
        E 0 90 40 48
        E 0 90 43 48
        E 260 80 3c 00
        E 0 80 40 00
        E 0 80 43 00
        e 514 90 3c 48
        e 0 90 40 48
        e 0 90 43 48
        e 260 80 3c 00
        e 0 80 40 00
        e 0 80 43 00
        E 186 90 43 48
        E 0 90 47 48
        E 20 90 40 48
        E 1900 80 43 00
        E 0 80 47 00
        E 0 80 40 00
        E 0 90 43 48
        E 0 90 47 48
        E 20 90 40 48
        E 240 80 43 00
        E 0 80 47 00
        E 0 80 40 00
        E 440 90 43 48
        E 0 90 47 48
        E 20 90 40 48
        E 240 80 43 00
        E 0 80 47 00
        E 0 80 40 00
        e 514 90 43 48
        e 0 90 47 48
        e 20 90 40 48
        e 240 80 43 00
        e 0 80 47 00
        e 0 80 40 00
        E 186 90 41 48
        E 0 90 45 48
        E 0 90 48 48
        E 1920 80 41 00
        E 0 80 45 00
        E 0 80 48 00
        E 0 90 41 48
        E 0 90 45 48
        E 0 90 48 48
        E 260 80 41 00
        E 0 80 45 00
        E 0 80 48 00
        E 440 90 41 48
        E 0 90 45 48
        E 0 90 48 48
        E 260 80 41 00
        E 0 80 45 00
        E 0 80 48 00
        e 514 90 41 48
        e 0 90 45 48
        e 0 90 48 48
        e 260 80 41 00
        e 0 80 45 00
        e 0 80 48 00
        E 162 90 3e 48
        E 24 90 41 48
        E 0 90 45 48
        E 1896 90 3e 48
        E 24 80 3e 00
        E 0 80 41 00
        E 0 80 45 00
        E 0 90 41 48
        E 0 90 45 48
        E 260 80 3e 00
        E 0 80 41 00
        E 0 80 45 00
        E 416 90 3e 48
        E 24 90 41 48
        E 0 90 45 48
        E 260 80 3e 00
        E 0 80 41 00
        E 0 80 45 00
        e 490 90 3e 48
        e 24 90 41 48
        e 0 90 45 48
        e 260 80 3e 00
        e 0 80 41 00
        e 0 80 45 00
        E 186 b0 7b 00
        CHASE_CC_TAKEOFFS 1
        GUID {19362806-85F2-5D9E-E1F9-07BE0CF3D16E}
        IGNTEMPO 0 120 4 4
        SRCCOLOR 25
        VELLANE -1 100 0
        CFGEDITVIEW 0 0.045808 45 12 0 -1 0 0 0 0.5
        KEYSNAP 0
        TRACKSEL 0
        EVTFILTER 0 -1 -1 -1 -1 0 0 0 0 -1 -1 -1 -1 0 -1 0 -1 -1
        CFGEDIT 1 1 0 1 0 0 1 1 1 1 1 1 58 171 1253 866 0 0 0 0 0.25 0 0 0 0 0.5 0 0 1 64
      >
    >
    <ITEM
      POSITION 72
      SNAPOFFS 0
      LENGTH 8
      LOOP 1
      ALLTAKES 0
      FADEIN 1 0 0 1 0 0
      FADEOUT 1 0 0 1 0 0
      MUTE 0
      SEL 1
      IGUID {CF8B4CC8-AD12-ADCA-32C8-C79B547BDA51}
      IID 19
      NAME "01-Recorded MIDI"
      VOLPAN 1 0 1 -1
      SOFFS 0 0
      PLAYRATE 1 1 0 -1 0 0.0021
      CHANMODE 0
      GUID {76895487-DA32-FCA6-98FA-B17890EE32BC}
      RECPASS 1
      <SOURCE MIDI
        HASDATA 1 960 QN
        CCINTERP 32
        POOLEDEVTS {47FE62BF-36A9-974D-BBBC-A2A77653418C}
        E 0 90 3c 48
        E 0 90 40 48
        E 0 90 43 48
        E 1920 80 3c 00
        E 0 80 40 00
        E 0 80 43 00
        E 0 90 3c 48
        E 0 90 40 48
        E 0 90 43 48
        E 260 80 3c 00
        E 0 80 40 00
        E 0 80 43 00
        E 440 90 3c 48
        E 0 90 40 48
        E 0 90 43 48
        E 260 80 3c 00
        E 0 80 40 00
        E 0 80 43 00
        e 514 90 3c 48
        e 0 90 40 48
        e 0 90 43 48
        e 260 80 3c 00
        e 0 80 40 00
        e 0 80 43 00
        E 186 90 43 48
        E 0 90 47 48
        E 20 90 40 48
        E 1900 80 43 00
        E 0 80 47 00
        E 0 80 40 00
        E 0 90 43 48
        E 0 90 47 48
        E 20 90 40 48
        E 240 80 43 00
        E 0 80 47 00
        E 0 80 40 00
        E 440 90 43 48
        E 0 90 47 48
        E 20 90 40 48
        E 240 80 43 00
        E 0 80 47 00
        E 0 80 40 00
        e 514 90 43 48
        e 0 90 47 48
        e 20 90 40 48
        e 240 80 43 00
        e 0 80 47 00
        e 0 80 40 00
        E 186 90 41 48
        E 0 90 45 48
        E 0 90 48 48
        E 1920 80 41 00
        E 0 80 45 00
        E 0 80 48 00
        E 0 90 41 48
        E 0 90 45 48
        E 0 90 48 48
        E 260 80 41 00
        E 0 80 45 00
        E 0 80 48 00
        E 440 90 41 48
        E 0 90 45 48
        E 0 90 48 48
        E 260 80 41 00
        E 0 80 45 00
        E 0 80 48 00
        e 514 90 41 48
        e 0 90 45 48
        e 0 90 48 48
        e 260 80 41 00
        e 0 80 45 00
        e 0 80 48 00
        E 162 90 3e 48
        E 24 90 41 48
        E 0 90 45 48
        E 1896 90 3e 48
        E 24 80 3e 00
        E 0 80 41 00
        E 0 80 45 00
        E 0 90 41 48
        E 0 90 45 48
        E 260 80 3e 00
        E 0 80 41 00
        E 0 80 45 00
        E 416 90 3e 48
        E 24 90 41 48
        E 0 90 45 48
        E 260 80 3e 00
        E 0 80 41 00
        E 0 80 45 00
        e 490 90 3e 48
        e 24 90 41 48
        e 0 90 45 48
        e 260 80 3e 00
        e 0 80 41 00
        e 0 80 45 00
        E 186 b0 7b 00
        CHASE_CC_TAKEOFFS 1
        GUID {6844F8A9-6BE9-023C-4A46-0A676470C99B}
        IGNTEMPO 0 120 4 4
        SRCCOLOR 26
        VELLANE -1 100 0
        CFGEDITVIEW 0 0.045808 45 12 0 -1 0 0 0 0.5
        KEYSNAP 0
        TRACKSEL 0
        EVTFILTER 0 -1 -1 -1 -1 0 0 0 0 -1 -1 -1 -1 0 -1 0 -1 -1
        CFGEDIT 1 1 0 1 0 0 1 1 1 1 1 1 58 171 1253 866 0 0 0 0 0.25 0 0 0 0 0.5 0 0 1 64
      >
    >
    <ITEM
      POSITION 80
      SNAPOFFS 0
      LENGTH 8
      LOOP 1
      ALLTAKES 0
      FADEIN 1 0 0 1 0 0
      FADEOUT 1 0 0 1 0 0
      MUTE 0
      SEL 1
      IGUID {FD8E4993-B223-C53A-69B3-F91C42B694FD}
      IID 20
      NAME "01-Recorded MIDI"
      VOLPAN 1 0 1 -1
      SOFFS 0 0
      PLAYRATE 1 1 0 -1 0 0.0021
      CHANMODE 0
      GUID {36615877-5C85-E2F6-F7C7-7F67D131D881}
      RECPASS 1
      <SOURCE MIDI
        HASDATA 1 960 QN
        CCINTERP 32
        POOLEDEVTS {C3AC413D-6B55-0F11-2429-62FBBB4794C6}
        E 0 90 3c 48
        E 0 90 40 48
        E 0 90 43 48
        E 1920 80 3c 00
        E 0 80 40 00
        E 0 80 43 00
        E 0 90 3c 48
        E 0 90 40 48
        E 0 90 43 48
        E 260 80 3c 00
        E 0 80 40 00
        E 0 80 43 00
        E 440 90 3c 48
        E 0 90 40 48
        E 0 90 43 48
        E 260 80 3c 00
        E 0 80 40 00
        E 0 80 43 00
        e 514 90 3c 48
        e 0 90 40 48
        e 0 90 43 48
        e 260 80 3c 00
        e 0 80 40 00
        e 0 80 43 00
        E 186 90 43 48
        E 0 90 47 48
        E 20 90 40 48
        E 1900 80 43 00
        E 0 80 47 00
        E 0 80 40 00
        E 0 90 43 48
        E 0 90 47 48
        E 20 90 40 48
        E 240 80 43 00
        E 0 80 47 00
        E 0 80 40 00
        E 440 90 43 48
        E 0 90 47 48
        E 20 90 40 48
        E 240 80 43 00
        E 0 80 47 00
        E 0 80 40 00
        e 514 90 43 48
        e 0 90 47 48
        e 20 90 40 48
        e 240 80 43 00
        e 0 80 47 00
        e 0 80 40 00
        E 186 90 41 48
        E 0 90 45 48
        E 0 90 48 48
        E 1920 80 41 00
        E 0 80 45 00
        E 0 80 48 00
        E 0 90 41 48
        E 0 90 45 48
        E 0 90 48 48
        E 260 80 41 00
        E 0 80 45 00
        E 0 80 48 00
        E 440 90 41 48
        E 0 90 45 48
        E 0 90 48 48
        E 260 80 41 00
        E 0 80 45 00
        E 0 80 48 00
        e 514 90 41 48
        e 0 90 45 48
        e 0 90 48 48
        e 260 80 41 00
        e 0 80 45 00
        e 0 80 48 00
        E 162 90 3e 48
        E 24 90 41 48
        E 0 90 45 48
        E 1896 90 3e 48
        E 24 80 3e 00
        E 0 80 41 00
        E 0 80 45 00
        E 0 90 41 48
        E 0 90 45 48
        E 260 80 3e 00
        E 0 80 41 00
        E 0 80 45 00
        E 416 90 3e 48
        E 24 90 41 48
        E 0 90 45 48
        E 260 80 3e 00
        E 0 80 41 00
        E 0 80 45 00
        e 490 90 3e 48
        e 24 90 41 48
        e 0 90 45 48
        e 260 80 3e 00
        e 0 80 41 00
        e 0 80 45 00
        E 186 b0 7b 00
        CHASE_CC_TAKEOFFS 1
        GUID {E611ADB6-4869-6CCA-8E83-3954D5E743B1}
        IGNTEMPO 0 120 4 4
        SRCCOLOR 27
        VELLANE -1 100 0
        CFGEDITVIEW 0 0.045808 45 12 0 -1 0 0 0 0.5
        KEYSNAP 0
        TRACKSEL 0
        EVTFILTER 0 -1 -1 -1 -1 0 0 0 0 -1 -1 -1 -1 0 -1 0 -1 -1
        CFGEDIT 1 1 0 1 0 0 1 1 1 1 1 1 58 171 1253 866 0 0 0 0 0.25 0 0 0 0 0.5 0 0 1 64
      >
    >
    <ITEM
      POSITION 88
      SNAPOFFS 0
      LENGTH 8
      LOOP 1
      ALLTAKES 0
      FADEIN 1 0 0 1 0 0
      FADEOUT 1 0 0 1 0 0
      MUTE 0
      SEL 1
      IGUID {D60C161F-18F4-DC0A-8994-9A6A661D6731}
      IID 21
      NAME "01-Recorded MIDI"
      VOLPAN 1 0 1 -1
      SOFFS 0 0
      PLAYRATE 1 1 0 -1 0 0.0021
      CHANMODE 0
      GUID {1891060D-0ABA-5722-6D39-DAD11FAFEA78}
      RECPASS 1
      <SOURCE MIDI
        HASDATA 1 960 QN
        CCINTERP 32
        POOLEDEVTS {9F055BB9-D010-2799-127C-CDA527023B73}
        E 0 90 3c 48
        E 0 90 40 48
        E 0 90 43 48
        E 1920 80 3c 00
        E 0 80 40 00
        E 0 80 43 00
        E 0 90 3c 48
        E 0 90 40 48
        E 0 90 43 48
        E 260 80 3c 00
        E 0 80 40 00
        E 0 80 43 00
        E 440 90 3c 48
        E 0 90 40 48
        E 0 90 43 48
        E 260 80 3c 00
        E 0 80 40 00
        E 0 80 43 00
        e 514 90 3c 48
        e 0 90 40 48
        e 0 90 43 48
        e 260 80 3c 00
        e 0 80 40 00
        e 0 80 43 00
        E 186 90 43 48
        E 0 90 47 48
        E 20 90 40 48
        E 1900 80 43 00
        E 0 80 47 00
        E 0 80 40 00
        E 0 90 43 48
        E 0 90 47 48
        E 20 90 40 48
        E 240 80 43 00
        E 0 80 47 00
        E 0 80 40 00
        E 440 90 43 48
        E 0 90 47 48
        E 20 90 40 48
        E 240 80 43 00
        E 0 80 47 00
        E 0 80 40 00
        e 514 90 43 48
        e 0 90 47 48
        e 20 90 40 48
        e 240 80 43 00
        e 0 80 47 00
        e 0 80 40 00
        E 186 90 41 48
        E 0 90 45 48
        E 0 90 48 48
        E 1920 80 41 00
        E 0 80 45 00
        E 0 80 48 00
        E 0 90 41 48
        E 0 90 45 48
        E 0 90 48 48
        E 260 80 41 00
        E 0 80 45 00
        E 0 80 48 00
        E 440 90 41 48
        E 0 90 45 48
        E 0 90 48 48
        E 260 80 41 00
        E 0 80 45 00
        E 0 80 48 00
        e 514 90 41 48
        e 0 90 45 48
        e 0 90 48 48
        e 260 80 41 00
        e 0 80 45 00
        e 0 80 48 00
        E 162 90 3e 48
        E 24 90 41 48
        E 0 90 45 48
        E 1896 90 3e 48
        E 24 80 3e 00
        E 0 80 41 00
        E 0 80 45 00
        E 0 90 41 48
        E 0 90 45 48
        E 260 80 3e 00
        E 0 80 41 00
        E 0 80 45 00
        E 416 90 3e 48
        E 24 90 41 48
        E 0 90 45 48
        E 260 80 3e 00
        E 0 80 41 00
        E 0 80 45 00
        e 490 90 3e 48
        e 24 90 41 48
        e 0 90 45 48
        e 260 80 3e 00
        e 0 80 41 00
        e 0 80 45 00
        E 186 b0 7b 00
        CHASE_CC_TAKEOFFS 1
        GUID {C762B555-17FC-D765-5340-11D3487D2955}
        IGNTEMPO 0 120 4 4
        SRCCOLOR 28
        VELLANE -1 100 0
        CFGEDITVIEW 0 0.045808 45 12 0 -1 0 0 0 0.5
        KEYSNAP 0
        TRACKSEL 0
        EVTFILTER 0 -1 -1 -1 -1 0 0 0 0 -1 -1 -1 -1 0 -1 0 -1 -1
        CFGEDIT 1 1 0 1 0 0 1 1 1 1 1 1 58 171 1253 866 0 0 0 0 0.25 0 0 0 0 0.5 0 0 1 64
      >
    >
  >
  <TRACK {23293E8C-DD90-238F-68C9-5F9CB9E6EF0D}
    NAME ""
    PEAKCOL 16576
    BEAT -1
    AUTOMODE 0
    VOLPAN 0.00052194381917 0 -1 -1 1
    MUTESOLO 0 0 0
    IPHASE 0
    PLAYOFFS 0 1
    ISBUS 0 0
    BUSCOMP 0 0 0 0 0
    SHOWINMIX 1 0.6667 0.5 1 0.5 0 0 0
    FREEMODE 0
    SEL 0
    REC 0 5056 1 0 0 0 0
    VU 2
    TRACKHEIGHT 21 0 0
    INQ 0 0 0 0.5 100 0 0 100
    NCHAN 2
    FX 0
    TRACKID {23293E8C-DD90-238F-68C9-5F9CB9E6EF0D}
    PERF 0
    MIDIOUT -1
    MAINSEND 1 0
    <FXCHAIN
      WNDRECT 346 266 902 608
      SHOW 0
      LASTSEL 5
      DOCKED 0
      BYPASS 0 0 0
      <VST "VST: ReaEQ (Cockos)" reaeq.vst.so 0 "" 1919247729<56535472656571726561657100000000> ""
        cWVlcu5e7f4CAAAAAQAAAAAAAAACAAAAAAAAAAIAAAABAAAAAAAAAAIAAAAAAAAAqAAAAAEAAAAAABAA
        IQAAAAQAAAAEAAAAAQAAAEC4Xhmm+DRAAAAAAAAA8D8AAAAAAAAAQAEIAAAAAQAAAAAAAAAAwHJAAAAAAAAA8D8AAAAAAAAAQAEIAAAAAQAAAAAAAAAAQI9AAAAAAAAA
        8D8AAAAAAAAAQAEDAAAAAQAAAAABaCorbdRAAAAAAAAA8D8AAAAAAAAAQAEBAAAAAQAAAAAAAAAAAPA/AAAAAJoCAACcAQAA
        AEhpZ2ggbG93IHBhc3MAEAAAAA==
      >
      PRESETNAME "High low pass"
      FLOATPOS 0 0 0 0
      FXID {6A81D32C-5B44-B33C-EA57-34467937E896}
      WAK 0 0
      BYPASS 0 0 0
      <VST "VSTi: ReaSynth (Cockos)" reasynth.vst.so 0 "" 1919251321<5653547265737972656173796E746800> ""
        eXNlcu9e7f4AAAAAAgAAAAEAAAAAAAAAAgAAAAAAAAA8AAAAAAAAAAAAEAA=
        776t3g3wrd6lm8Q7F7fROgAAAAAAAAAAAAAAAJCNuT3oZ4g9AACAPwAAAD8AAIA/AAAAAAAAAD8AAAAA
        AAAQAAAA
      >
      FLOATPOS 0 0 0 0
      FXID {583C5C4B-CE4B-A464-E528-EDFC9E154B90}
      WAK 0 0
      BYPASS 0 0 0
      <JS guitar/amp-model ""
        "Dumble Overdrive Special - Tweed Deluxe.wav" -21.000000 1.000000 0.000000 73.000000 256.000000 - - - - - - - - - - - - - - - - - - - - - - - - - - - - - - - - - - - - - - - - - - - - - - - - - - - - - - - - - - 
      >
      FLOATPOS 0 0 0 0
      FXID {D34B8761-0A07-6756-2ED7-E22DC8BB384C}
      WAK 0 0
      BYPASS 0 0 0
      <VST "VST: ReaComp (Cockos)" reacomp.vst.so 0 "" 1919247213<5653547265636D726561636F6D700000> ""
        bWNlcu9e7f4EAAAAAQAAAAAAAAACAAAAAAAAAAQAAAAAAAAACAAAAAAAAAACAAAAAQAAAAAAAAACAAAAAAAAAFQAAAAAAAAAAAAQAA==
        776t3g3wrd5FoYg9/AWpPKWbxDsK16M8AAAAAAAAAAAAAIA/AAAAAAAAAAAAAAAAnNEHMwAAgD8AAAAAzMxMPQAAAAAAAAAAAAAAAAAAgD7YiZ09
        AAAQAAAA
      >
      FLOATPOS 0 0 0 0
      FXID {086627B0-8229-044F-57D4-8F315917EE74}
      WAK 0 0
      BYPASS 0 0 0
      <VST "VST: ReaDelay (Cockos)" readelay.vst.so 0 "" 1919247468<5653547265646C72656164656C617900> ""
        bGRlcu5e7f4CAAAAAQAAAAAAAAACAAAAAAAAAAIAAAABAAAAAAAAAAIAAAAAAAAA/AAAAAEAAAAAAAAA
        AAAAAAAAAAAFAAAALAAAAAIAAAAEAAAAAACAPwAAgD8AAAAAAACAPwAAAAAAAIA7vTeGNQAAgD8AAAAAAACAPwAAgD8AAIA/AAAAAAAAAAAAAIA/AAAAAAAAADwAAAAA
        AACAPwAAAAAAAIA/AACAP+87NT8AAIA/AAAAAAAAgD8AAAAAAABAPL03hjUAAIA/AAAAAAAAgD8AAIA/zk0AP6abhD4AAAAAAACAPwAAAAAAAIA8vTeGNQAAgD8AAAAA
        AACAPwAAgD8aqrU+pHA9PwAAAAAAAIA/AAAAAAAAoDy9N4Y1AACAPwAAAAAAAIA/AACAP/npAD4AAAA/
        AHN0b2NrIC0gYmFzaWMgNSB0YXAgcGluZyBwb25nAAAAAAA=
      >
      PRESETNAME "stock - basic 5 tap ping pong"
      FLOATPOS 0 0 0 0
      FXID {D9169AAB-3E8C-080D-50B8-EDEED75298A2}
      WAK 0 0
      BYPASS 0 0 0
      <VST "VST: ReaVerb (Cockos)" reaverb.vst.so 0 "" 1919252066<56535472657662726561766572620000> ""
        YnZlcu5e7f4CAAAAAQAAAAAAAAACAAAAAAAAAAIAAAABAAAAAAAAAAIAAAAAAAAAcAAAAAEAAAAAAAAA
        AAAAwcybgD4AAIA/AAAAAAAAgD8AAIA/AAAAPwAAgD8AAAAAVkVSQkdFTgAYAAAAAAAAAJHgV0QdrLRA3rK7QsHIjEIAAIC/RUNIT0dFTgAcAAAAy/i2QLUjdUJdzdM/
        osdfP5lRrzyRzYxAnMQAPw==
        AHN3ZWV0dmVyYm8AAAAAAA==
      >
      PRESETNAME sweetverbo
      FLOATPOS 0 0 0 0
      FXID {AA76ED80-CF4E-BB8F-9023-9C5263ED591C}
      WAK 0 0
    >
    <ITEM
      POSITION 0
      SNAPOFFS 0
      LENGTH 8
      LOOP 1
      ALLTAKES 0
      FADEIN 1 0 0 1 0 0
      FADEOUT 1 0 0 1 0 0
      MUTE 0
      SEL 1
      IGUID {70889D1A-421F-23EF-9508-15B073F95725}
      IID 10
      NAME "01-Recorded MIDI"
      VOLPAN 1 0 1 -1
      SOFFS 0 0
      PLAYRATE 1 1 0 -1 0 0.0021
      CHANMODE 0
      GUID {4EB9DA5F-5DE2-DC0B-F3EC-A004D4F41EC3}
      RECPASS 1
      <SOURCE MIDI
        HASDATA 1 960 QN
        CCINTERP 32
        POOLEDEVTS {BC211C7D-ACD9-357D-16D4-7B4D4A8B76C0}
        E 0 90 3c 48
        E 0 90 40 48
        E 0 90 43 48
        E 1920 80 3c 00
        E 0 80 40 00
        E 0 80 43 00
        E 0 90 3c 48
        E 0 90 40 48
        E 0 90 43 48
        E 260 80 3c 00
        E 0 80 40 00
        E 0 80 43 00
        E 440 90 3c 48
        E 0 90 40 48
        E 0 90 43 48
        E 260 80 3c 00
        E 0 80 40 00
        E 0 80 43 00
        e 514 90 3c 48
        e 0 90 40 48
        e 0 90 43 48
        e 260 80 3c 00
        e 0 80 40 00
        e 0 80 43 00
        E 186 90 43 48
        E 0 90 47 48
        E 20 90 40 48
        E 1900 80 43 00
        E 0 80 47 00
        E 0 80 40 00
        E 0 90 43 48
        E 0 90 47 48
        E 20 90 40 48
        E 240 80 43 00
        E 0 80 47 00
        E 0 80 40 00
        E 440 90 43 48
        E 0 90 47 48
        E 20 90 40 48
        E 240 80 43 00
        E 0 80 47 00
        E 0 80 40 00
        e 514 90 43 48
        e 0 90 47 48
        e 20 90 40 48
        e 240 80 43 00
        e 0 80 47 00
        e 0 80 40 00
        E 186 90 41 48
        E 0 90 45 48
        E 0 90 48 48
        E 1920 80 41 00
        E 0 80 45 00
        E 0 80 48 00
        E 0 90 41 48
        E 0 90 45 48
        E 0 90 48 48
        E 260 80 41 00
        E 0 80 45 00
        E 0 80 48 00
        E 440 90 41 48
        E 0 90 45 48
        E 0 90 48 48
        E 260 80 41 00
        E 0 80 45 00
        E 0 80 48 00
        e 514 90 41 48
        e 0 90 45 48
        e 0 90 48 48
        e 260 80 41 00
        e 0 80 45 00
        e 0 80 48 00
        E 162 90 3e 48
        E 24 90 41 48
        E 0 90 45 48
        E 1896 90 3e 48
        E 24 80 3e 00
        E 0 80 41 00
        E 0 80 45 00
        E 0 90 41 48
        E 0 90 45 48
        E 260 80 3e 00
        E 0 80 41 00
        E 0 80 45 00
        E 416 90 3e 48
        E 24 90 41 48
        E 0 90 45 48
        E 260 80 3e 00
        E 0 80 41 00
        E 0 80 45 00
        e 490 90 3e 48
        e 24 90 41 48
        e 0 90 45 48
        e 260 80 3e 00
        e 0 80 41 00
        e 0 80 45 00
        E 186 b0 7b 00
        CHASE_CC_TAKEOFFS 1
        GUID {7B9D708B-43E1-C8D4-C4B3-87E2A6C27801}
        IGNTEMPO 0 120 4 4
        SRCCOLOR 17
        VELLANE -1 100 0
        CFGEDITVIEW 0 0.045808 45 12 0 -1 0 0 0 0.5
        KEYSNAP 0
        TRACKSEL 0
        EVTFILTER 0 -1 -1 -1 -1 0 0 0 0 -1 -1 -1 -1 0 -1 0 -1 -1
        CFGEDIT 1 1 0 1 0 0 1 1 1 1 1 1 58 171 1253 866 0 0 0 0 0.25 0 0 0 0 0.5 0 0 1 64
      >
    >
    <ITEM
      POSITION 8
      SNAPOFFS 0
      LENGTH 8
      LOOP 1
      ALLTAKES 0
      FADEIN 1 0 0 1 0 0
      FADEOUT 1 0 0 1 0 0
      MUTE 0
      SEL 1
      IGUID {EEB2F0AF-E014-5951-6F61-5AF27AB511D0}
      IID 11
      NAME "01-Recorded MIDI"
      VOLPAN 1 0 1 -1
      SOFFS 0 0
      PLAYRATE 1 1 0 -1 0 0.0021
      CHANMODE 0
      GUID {569F300C-F690-1137-DE8E-21A2E07D769A}
      RECPASS 1
      <SOURCE MIDI
        HASDATA 1 960 QN
        CCINTERP 32
        POOLEDEVTS {9B9FFA61-850E-4B39-3760-1EBB4C9BBDBF}
        E 0 90 3c 48
        E 0 90 40 48
        E 0 90 43 48
        E 1920 80 3c 00
        E 0 80 40 00
        E 0 80 43 00
        E 0 90 3c 48
        E 0 90 40 48
        E 0 90 43 48
        E 260 80 3c 00
        E 0 80 40 00
        E 0 80 43 00
        E 440 90 3c 48
        E 0 90 40 48
        E 0 90 43 48
        E 260 80 3c 00
        E 0 80 40 00
        E 0 80 43 00
        e 514 90 3c 48
        e 0 90 40 48
        e 0 90 43 48
        e 260 80 3c 00
        e 0 80 40 00
        e 0 80 43 00
        E 186 90 43 48
        E 0 90 47 48
        E 20 90 40 48
        E 1900 80 43 00
        E 0 80 47 00
        E 0 80 40 00
        E 0 90 43 48
        E 0 90 47 48
        E 20 90 40 48
        E 240 80 43 00
        E 0 80 47 00
        E 0 80 40 00
        E 440 90 43 48
        E 0 90 47 48
        E 20 90 40 48
        E 240 80 43 00
        E 0 80 47 00
        E 0 80 40 00
        e 514 90 43 48
        e 0 90 47 48
        e 20 90 40 48
        e 240 80 43 00
        e 0 80 47 00
        e 0 80 40 00
        E 186 90 41 48
        E 0 90 45 48
        E 0 90 48 48
        E 1920 80 41 00
        E 0 80 45 00
        E 0 80 48 00
        E 0 90 41 48
        E 0 90 45 48
        E 0 90 48 48
        E 260 80 41 00
        E 0 80 45 00
        E 0 80 48 00
        E 440 90 41 48
        E 0 90 45 48
        E 0 90 48 48
        E 260 80 41 00
        E 0 80 45 00
        E 0 80 48 00
        e 514 90 41 48
        e 0 90 45 48
        e 0 90 48 48
        e 260 80 41 00
        e 0 80 45 00
        e 0 80 48 00
        E 162 90 3e 48
        E 24 90 41 48
        E 0 90 45 48
        E 1896 90 3e 48
        E 24 80 3e 00
        E 0 80 41 00
        E 0 80 45 00
        E 0 90 41 48
        E 0 90 45 48
        E 260 80 3e 00
        E 0 80 41 00
        E 0 80 45 00
        E 416 90 3e 48
        E 24 90 41 48
        E 0 90 45 48
        E 260 80 3e 00
        E 0 80 41 00
        E 0 80 45 00
        e 490 90 3e 48
        e 24 90 41 48
        e 0 90 45 48
        e 260 80 3e 00
        e 0 80 41 00
        e 0 80 45 00
        E 186 b0 7b 00
        CHASE_CC_TAKEOFFS 1
        GUID {3131B4E2-B370-E352-A9C5-C8CA31551A86}
        IGNTEMPO 0 120 4 4
        SRCCOLOR 18
        VELLANE -1 100 0
        CFGEDITVIEW 0 0.045808 45 12 0 -1 0 0 0 0.5
        KEYSNAP 0
        TRACKSEL 0
        EVTFILTER 0 -1 -1 -1 -1 0 0 0 0 -1 -1 -1 -1 0 -1 0 -1 -1
        CFGEDIT 1 1 0 1 0 0 1 1 1 1 1 1 58 171 1253 866 0 0 0 0 0.25 0 0 0 0 0.5 0 0 1 64
      >
    >
    <ITEM
      POSITION 16
      SNAPOFFS 0
      LENGTH 8
      LOOP 1
      ALLTAKES 0
      FADEIN 1 0 0 1 0 0
      FADEOUT 1 0 0 1 0 0
      MUTE 0
      SEL 1
      IGUID {23756EC2-945B-F627-D499-BC6350013636}
      IID 12
      NAME "01-Recorded MIDI"
      VOLPAN 1 0 1 -1
      SOFFS 0 0
      PLAYRATE 1 1 0 -1 0 0.0021
      CHANMODE 0
      GUID {D4393744-CB8A-65E5-1D84-36CA8E98B4AC}
      RECPASS 1
      <SOURCE MIDI
        HASDATA 1 960 QN
        CCINTERP 32
        POOLEDEVTS {062A2C28-ABA3-B8F2-5EE5-5FC04153ED11}
        E 0 90 3c 48
        E 0 90 40 48
        E 0 90 43 48
        E 1920 80 3c 00
        E 0 80 40 00
        E 0 80 43 00
        E 0 90 3c 48
        E 0 90 40 48
        E 0 90 43 48
        E 260 80 3c 00
        E 0 80 40 00
        E 0 80 43 00
        E 440 90 3c 48
        E 0 90 40 48
        E 0 90 43 48
        E 260 80 3c 00
        E 0 80 40 00
        E 0 80 43 00
        e 514 90 3c 48
        e 0 90 40 48
        e 0 90 43 48
        e 260 80 3c 00
        e 0 80 40 00
        e 0 80 43 00
        E 186 90 43 48
        E 0 90 47 48
        E 20 90 40 48
        E 1900 80 43 00
        E 0 80 47 00
        E 0 80 40 00
        E 0 90 43 48
        E 0 90 47 48
        E 20 90 40 48
        E 240 80 43 00
        E 0 80 47 00
        E 0 80 40 00
        E 440 90 43 48
        E 0 90 47 48
        E 20 90 40 48
        E 240 80 43 00
        E 0 80 47 00
        E 0 80 40 00
        e 514 90 43 48
        e 0 90 47 48
        e 20 90 40 48
        e 240 80 43 00
        e 0 80 47 00
        e 0 80 40 00
        E 186 90 41 48
        E 0 90 45 48
        E 0 90 48 48
        E 1920 80 41 00
        E 0 80 45 00
        E 0 80 48 00
        E 0 90 41 48
        E 0 90 45 48
        E 0 90 48 48
        E 260 80 41 00
        E 0 80 45 00
        E 0 80 48 00
        E 440 90 41 48
        E 0 90 45 48
        E 0 90 48 48
        E 260 80 41 00
        E 0 80 45 00
        E 0 80 48 00
        e 514 90 41 48
        e 0 90 45 48
        e 0 90 48 48
        e 260 80 41 00
        e 0 80 45 00
        e 0 80 48 00
        E 162 90 3e 48
        E 24 90 41 48
        E 0 90 45 48
        E 1896 90 3e 48
        E 24 80 3e 00
        E 0 80 41 00
        E 0 80 45 00
        E 0 90 41 48
        E 0 90 45 48
        E 260 80 3e 00
        E 0 80 41 00
        E 0 80 45 00
        E 416 90 3e 48
        E 24 90 41 48
        E 0 90 45 48
        E 260 80 3e 00
        E 0 80 41 00
        E 0 80 45 00
        e 490 90 3e 48
        e 24 90 41 48
        e 0 90 45 48
        e 260 80 3e 00
        e 0 80 41 00
        e 0 80 45 00
        E 186 b0 7b 00
        CHASE_CC_TAKEOFFS 1
        GUID {48C567A2-895C-FB9B-FDBA-0ADB7004ABF3}
        IGNTEMPO 0 120 4 4
        SRCCOLOR 19
        VELLANE -1 100 0
        CFGEDITVIEW 0 0.045808 45 12 0 -1 0 0 0 0.5
        KEYSNAP 0
        TRACKSEL 0
        EVTFILTER 0 -1 -1 -1 -1 0 0 0 0 -1 -1 -1 -1 0 -1 0 -1 -1
        CFGEDIT 1 1 0 1 0 0 1 1 1 1 1 1 58 171 1253 866 0 0 0 0 0.25 0 0 0 0 0.5 0 0 1 64
      >
    >
    <ITEM
      POSITION 24
      SNAPOFFS 0
      LENGTH 8
      LOOP 1
      ALLTAKES 0
      FADEIN 1 0 0 1 0 0
      FADEOUT 1 0 0 1 0 0
      MUTE 0
      SEL 1
      IGUID {1F4F83FD-0DBC-A172-BDD3-D89C4252EE7A}
      IID 13
      NAME "01-Recorded MIDI"
      VOLPAN 1 0 1 -1
      SOFFS 0 0
      PLAYRATE 1 1 0 -1 0 0.0021
      CHANMODE 0
      GUID {8834C65E-C941-B37D-46B1-817EFA1E403C}
      RECPASS 1
      <SOURCE MIDI
        HASDATA 1 960 QN
        CCINTERP 32
        POOLEDEVTS {98FE2AEE-D7D7-0C19-AE05-4CC696A1B201}
        E 0 90 3c 48
        E 0 90 40 48
        E 0 90 43 48
        E 1920 80 3c 00
        E 0 80 40 00
        E 0 80 43 00
        E 0 90 3c 48
        E 0 90 40 48
        E 0 90 43 48
        E 260 80 3c 00
        E 0 80 40 00
        E 0 80 43 00
        E 440 90 3c 48
        E 0 90 40 48
        E 0 90 43 48
        E 260 80 3c 00
        E 0 80 40 00
        E 0 80 43 00
        e 514 90 3c 48
        e 0 90 40 48
        e 0 90 43 48
        e 260 80 3c 00
        e 0 80 40 00
        e 0 80 43 00
        E 186 90 43 48
        E 0 90 47 48
        E 20 90 40 48
        E 1900 80 43 00
        E 0 80 47 00
        E 0 80 40 00
        E 0 90 43 48
        E 0 90 47 48
        E 20 90 40 48
        E 240 80 43 00
        E 0 80 47 00
        E 0 80 40 00
        E 440 90 43 48
        E 0 90 47 48
        E 20 90 40 48
        E 240 80 43 00
        E 0 80 47 00
        E 0 80 40 00
        e 514 90 43 48
        e 0 90 47 48
        e 20 90 40 48
        e 240 80 43 00
        e 0 80 47 00
        e 0 80 40 00
        E 186 90 41 48
        E 0 90 45 48
        E 0 90 48 48
        E 1920 80 41 00
        E 0 80 45 00
        E 0 80 48 00
        E 0 90 41 48
        E 0 90 45 48
        E 0 90 48 48
        E 260 80 41 00
        E 0 80 45 00
        E 0 80 48 00
        E 440 90 41 48
        E 0 90 45 48
        E 0 90 48 48
        E 260 80 41 00
        E 0 80 45 00
        E 0 80 48 00
        e 514 90 41 48
        e 0 90 45 48
        e 0 90 48 48
        e 260 80 41 00
        e 0 80 45 00
        e 0 80 48 00
        E 162 90 3e 48
        E 24 90 41 48
        E 0 90 45 48
        E 1896 90 3e 48
        E 24 80 3e 00
        E 0 80 41 00
        E 0 80 45 00
        E 0 90 41 48
        E 0 90 45 48
        E 260 80 3e 00
        E 0 80 41 00
        E 0 80 45 00
        E 416 90 3e 48
        E 24 90 41 48
        E 0 90 45 48
        E 260 80 3e 00
        E 0 80 41 00
        E 0 80 45 00
        e 490 90 3e 48
        e 24 90 41 48
        e 0 90 45 48
        e 260 80 3e 00
        e 0 80 41 00
        e 0 80 45 00
        E 186 b0 7b 00
        CHASE_CC_TAKEOFFS 1
        GUID {1DE38800-E2A1-41B5-9C8C-3291891093B1}
        IGNTEMPO 0 120 4 4
        SRCCOLOR 20
        VELLANE -1 100 0
        CFGEDITVIEW 0 0.045808 45 12 0 -1 0 0 0 0.5
        KEYSNAP 0
        TRACKSEL 0
        EVTFILTER 0 -1 -1 -1 -1 0 0 0 0 -1 -1 -1 -1 0 -1 0 -1 -1
        CFGEDIT 1 1 0 1 0 0 1 1 1 1 1 1 58 171 1253 866 0 0 0 0 0.25 0 0 0 0 0.5 0 0 1 64
      >
    >
    <ITEM
      POSITION 32
      SNAPOFFS 0
      LENGTH 8
      LOOP 1
      ALLTAKES 0
      FADEIN 1 0 0 1 0 0
      FADEOUT 1 0 0 1 0 0
      MUTE 0
      SEL 1
      IGUID {3068413E-BCDF-6AF8-B953-BDBD78B42AD0}
      IID 14
      NAME "01-Recorded MIDI"
      VOLPAN 1 0 1 -1
      SOFFS 0 0
      PLAYRATE 1 1 0 -1 0 0.0021
      CHANMODE 0
      GUID {4F6D7121-B75E-8D56-2EA1-CFE582E60948}
      RECPASS 1
      <SOURCE MIDI
        HASDATA 1 960 QN
        CCINTERP 32
        POOLEDEVTS {3CDB1594-DF63-8563-5BB2-FBAECF0C3F40}
        E 0 90 3c 48
        E 0 90 40 48
        E 0 90 43 48
        E 1920 80 3c 00
        E 0 80 40 00
        E 0 80 43 00
        E 0 90 3c 48
        E 0 90 40 48
        E 0 90 43 48
        E 260 80 3c 00
        E 0 80 40 00
        E 0 80 43 00
        E 440 90 3c 48
        E 0 90 40 48
        E 0 90 43 48
        E 260 80 3c 00
        E 0 80 40 00
        E 0 80 43 00
        e 514 90 3c 48
        e 0 90 40 48
        e 0 90 43 48
        e 260 80 3c 00
        e 0 80 40 00
        e 0 80 43 00
        E 186 90 43 48
        E 0 90 47 48
        E 20 90 40 48
        E 1900 80 43 00
        E 0 80 47 00
        E 0 80 40 00
        E 0 90 43 48
        E 0 90 47 48
        E 20 90 40 48
        E 240 80 43 00
        E 0 80 47 00
        E 0 80 40 00
        E 440 90 43 48
        E 0 90 47 48
        E 20 90 40 48
        E 240 80 43 00
        E 0 80 47 00
        E 0 80 40 00
        e 514 90 43 48
        e 0 90 47 48
        e 20 90 40 48
        e 240 80 43 00
        e 0 80 47 00
        e 0 80 40 00
        E 186 90 41 48
        E 0 90 45 48
        E 0 90 48 48
        E 1920 80 41 00
        E 0 80 45 00
        E 0 80 48 00
        E 0 90 41 48
        E 0 90 45 48
        E 0 90 48 48
        E 260 80 41 00
        E 0 80 45 00
        E 0 80 48 00
        E 440 90 41 48
        E 0 90 45 48
        E 0 90 48 48
        E 260 80 41 00
        E 0 80 45 00
        E 0 80 48 00
        e 514 90 41 48
        e 0 90 45 48
        e 0 90 48 48
        e 260 80 41 00
        e 0 80 45 00
        e 0 80 48 00
        E 162 90 3e 48
        E 24 90 41 48
        E 0 90 45 48
        E 1896 90 3e 48
        E 24 80 3e 00
        E 0 80 41 00
        E 0 80 45 00
        E 0 90 41 48
        E 0 90 45 48
        E 260 80 3e 00
        E 0 80 41 00
        E 0 80 45 00
        E 416 90 3e 48
        E 24 90 41 48
        E 0 90 45 48
        E 260 80 3e 00
        E 0 80 41 00
        E 0 80 45 00
        e 490 90 3e 48
        e 24 90 41 48
        e 0 90 45 48
        e 260 80 3e 00
        e 0 80 41 00
        e 0 80 45 00
        E 186 b0 7b 00
        CHASE_CC_TAKEOFFS 1
        GUID {0C3271F4-E233-9088-9B25-A722FAE7C579}
        IGNTEMPO 0 120 4 4
        SRCCOLOR 21
        VELLANE -1 100 0
        CFGEDITVIEW 0 0.045808 45 12 0 -1 0 0 0 0.5
        KEYSNAP 0
        TRACKSEL 0
        EVTFILTER 0 -1 -1 -1 -1 0 0 0 0 -1 -1 -1 -1 0 -1 0 -1 -1
        CFGEDIT 1 1 0 1 0 0 1 1 1 1 1 1 58 171 1253 866 0 0 0 0 0.25 0 0 0 0 0.5 0 0 1 64
      >
    >
    <ITEM
      POSITION 40
      SNAPOFFS 0
      LENGTH 8
      LOOP 1
      ALLTAKES 0
      FADEIN 1 0 0 1 0 0
      FADEOUT 1 0 0 1 0 0
      MUTE 0
      SEL 1
      IGUID {8B15149D-1FA4-AF27-2947-D5DE0466C712}
      IID 15
      NAME "01-Recorded MIDI"
      VOLPAN 1 0 1 -1
      SOFFS 0 0
      PLAYRATE 1 1 0 -1 0 0.0021
      CHANMODE 0
      GUID {4EE4BAE7-160A-9D1D-C2CF-569844E81526}
      RECPASS 1
      <SOURCE MIDI
        HASDATA 1 960 QN
        CCINTERP 32
        POOLEDEVTS {CFC02004-5C74-5C9A-DC60-979722CE04CD}
        E 0 90 3c 48
        E 0 90 40 48
        E 0 90 43 48
        E 1920 80 3c 00
        E 0 80 40 00
        E 0 80 43 00
        E 0 90 3c 48
        E 0 90 40 48
        E 0 90 43 48
        E 260 80 3c 00
        E 0 80 40 00
        E 0 80 43 00
        E 440 90 3c 48
        E 0 90 40 48
        E 0 90 43 48
        E 260 80 3c 00
        E 0 80 40 00
        E 0 80 43 00
        e 514 90 3c 48
        e 0 90 40 48
        e 0 90 43 48
        e 260 80 3c 00
        e 0 80 40 00
        e 0 80 43 00
        E 186 90 43 48
        E 0 90 47 48
        E 20 90 40 48
        E 1900 80 43 00
        E 0 80 47 00
        E 0 80 40 00
        E 0 90 43 48
        E 0 90 47 48
        E 20 90 40 48
        E 240 80 43 00
        E 0 80 47 00
        E 0 80 40 00
        E 440 90 43 48
        E 0 90 47 48
        E 20 90 40 48
        E 240 80 43 00
        E 0 80 47 00
        E 0 80 40 00
        e 514 90 43 48
        e 0 90 47 48
        e 20 90 40 48
        e 240 80 43 00
        e 0 80 47 00
        e 0 80 40 00
        E 186 90 41 48
        E 0 90 45 48
        E 0 90 48 48
        E 1920 80 41 00
        E 0 80 45 00
        E 0 80 48 00
        E 0 90 41 48
        E 0 90 45 48
        E 0 90 48 48
        E 260 80 41 00
        E 0 80 45 00
        E 0 80 48 00
        E 440 90 41 48
        E 0 90 45 48
        E 0 90 48 48
        E 260 80 41 00
        E 0 80 45 00
        E 0 80 48 00
        e 514 90 41 48
        e 0 90 45 48
        e 0 90 48 48
        e 260 80 41 00
        e 0 80 45 00
        e 0 80 48 00
        E 162 90 3e 48
        E 24 90 41 48
        E 0 90 45 48
        E 1896 90 3e 48
        E 24 80 3e 00
        E 0 80 41 00
        E 0 80 45 00
        E 0 90 41 48
        E 0 90 45 48
        E 260 80 3e 00
        E 0 80 41 00
        E 0 80 45 00
        E 416 90 3e 48
        E 24 90 41 48
        E 0 90 45 48
        E 260 80 3e 00
        E 0 80 41 00
        E 0 80 45 00
        e 490 90 3e 48
        e 24 90 41 48
        e 0 90 45 48
        e 260 80 3e 00
        e 0 80 41 00
        e 0 80 45 00
        E 186 b0 7b 00
        CHASE_CC_TAKEOFFS 1
        GUID {040E7AF8-3572-5D91-3C86-797AEE7444D4}
        IGNTEMPO 0 120 4 4
        SRCCOLOR 22
        VELLANE -1 100 0
        CFGEDITVIEW 0 0.045808 45 12 0 -1 0 0 0 0.5
        KEYSNAP 0
        TRACKSEL 0
        EVTFILTER 0 -1 -1 -1 -1 0 0 0 0 -1 -1 -1 -1 0 -1 0 -1 -1
        CFGEDIT 1 1 0 1 0 0 1 1 1 1 1 1 58 171 1253 866 0 0 0 0 0.25 0 0 0 0 0.5 0 0 1 64
      >
    >
    <ITEM
      POSITION 48
      SNAPOFFS 0
      LENGTH 8
      LOOP 1
      ALLTAKES 0
      FADEIN 1 0 0 1 0 0
      FADEOUT 1 0 0 1 0 0
      MUTE 0
      SEL 1
      IGUID {ECA78165-8C1D-6E3A-4811-E2ED4C7263E6}
      IID 16
      NAME "01-Recorded MIDI"
      VOLPAN 1 0 1 -1
      SOFFS 0 0
      PLAYRATE 1 1 0 -1 0 0.0021
      CHANMODE 0
      GUID {3C49880D-1113-7331-49CA-82291CB0B9CA}
      RECPASS 1
      <SOURCE MIDI
        HASDATA 1 960 QN
        CCINTERP 32
        POOLEDEVTS {D436E1A1-64A7-F40F-5A7F-B266BA756957}
        E 0 90 3c 48
        E 0 90 40 48
        E 0 90 43 48
        E 1920 80 3c 00
        E 0 80 40 00
        E 0 80 43 00
        E 0 90 3c 48
        E 0 90 40 48
        E 0 90 43 48
        E 260 80 3c 00
        E 0 80 40 00
        E 0 80 43 00
        E 440 90 3c 48
        E 0 90 40 48
        E 0 90 43 48
        E 260 80 3c 00
        E 0 80 40 00
        E 0 80 43 00
        e 514 90 3c 48
        e 0 90 40 48
        e 0 90 43 48
        e 260 80 3c 00
        e 0 80 40 00
        e 0 80 43 00
        E 186 90 43 48
        E 0 90 47 48
        E 20 90 40 48
        E 1900 80 43 00
        E 0 80 47 00
        E 0 80 40 00
        E 0 90 43 48
        E 0 90 47 48
        E 20 90 40 48
        E 240 80 43 00
        E 0 80 47 00
        E 0 80 40 00
        E 440 90 43 48
        E 0 90 47 48
        E 20 90 40 48
        E 240 80 43 00
        E 0 80 47 00
        E 0 80 40 00
        e 514 90 43 48
        e 0 90 47 48
        e 20 90 40 48
        e 240 80 43 00
        e 0 80 47 00
        e 0 80 40 00
        E 186 90 41 48
        E 0 90 45 48
        E 0 90 48 48
        E 1920 80 41 00
        E 0 80 45 00
        E 0 80 48 00
        E 0 90 41 48
        E 0 90 45 48
        E 0 90 48 48
        E 260 80 41 00
        E 0 80 45 00
        E 0 80 48 00
        E 440 90 41 48
        E 0 90 45 48
        E 0 90 48 48
        E 260 80 41 00
        E 0 80 45 00
        E 0 80 48 00
        e 514 90 41 48
        e 0 90 45 48
        e 0 90 48 48
        e 260 80 41 00
        e 0 80 45 00
        e 0 80 48 00
        E 162 90 3e 48
        E 24 90 41 48
        E 0 90 45 48
        E 1896 90 3e 48
        E 24 80 3e 00
        E 0 80 41 00
        E 0 80 45 00
        E 0 90 41 48
        E 0 90 45 48
        E 260 80 3e 00
        E 0 80 41 00
        E 0 80 45 00
        E 416 90 3e 48
        E 24 90 41 48
        E 0 90 45 48
        E 260 80 3e 00
        E 0 80 41 00
        E 0 80 45 00
        e 490 90 3e 48
        e 24 90 41 48
        e 0 90 45 48
        e 260 80 3e 00
        e 0 80 41 00
        e 0 80 45 00
        E 186 b0 7b 00
        CHASE_CC_TAKEOFFS 1
        GUID {2338968B-6CF9-9F40-300F-DEB89D3392EA}
        IGNTEMPO 0 120 4 4
        SRCCOLOR 23
        VELLANE -1 100 0
        CFGEDITVIEW 0 0.045808 45 12 0 -1 0 0 0 0.5
        KEYSNAP 0
        TRACKSEL 0
        EVTFILTER 0 -1 -1 -1 -1 0 0 0 0 -1 -1 -1 -1 0 -1 0 -1 -1
        CFGEDIT 1 1 0 1 0 0 1 1 1 1 1 1 58 171 1253 866 0 0 0 0 0.25 0 0 0 0 0.5 0 0 1 64
      >
    >
    <ITEM
      POSITION 56
      SNAPOFFS 0
      LENGTH 8
      LOOP 1
      ALLTAKES 0
      FADEIN 1 0 0 1 0 0
      FADEOUT 1 0 0 1 0 0
      MUTE 0
      SEL 1
      IGUID {8A19E2E5-8FAF-935E-F966-C4E80C7B4A9B}
      IID 17
      NAME "01-Recorded MIDI"
      VOLPAN 1 0 1 -1
      SOFFS 0 0
      PLAYRATE 1 1 0 -1 0 0.0021
      CHANMODE 0
      GUID {F0A5FC4A-0E31-49EA-2507-988A0D058F82}
      RECPASS 1
      <SOURCE MIDI
        HASDATA 1 960 QN
        CCINTERP 32
        POOLEDEVTS {A39E3BE7-C1BE-A11C-C748-53BC3F6D9596}
        E 0 90 3c 48
        E 0 90 40 48
        E 0 90 43 48
        E 1920 80 3c 00
        E 0 80 40 00
        E 0 80 43 00
        E 0 90 3c 48
        E 0 90 40 48
        E 0 90 43 48
        E 260 80 3c 00
        E 0 80 40 00
        E 0 80 43 00
        E 440 90 3c 48
        E 0 90 40 48
        E 0 90 43 48
        E 260 80 3c 00
        E 0 80 40 00
        E 0 80 43 00
        e 514 90 3c 48
        e 0 90 40 48
        e 0 90 43 48
        e 260 80 3c 00
        e 0 80 40 00
        e 0 80 43 00
        E 186 90 43 48
        E 0 90 47 48
        E 20 90 40 48
        E 1900 80 43 00
        E 0 80 47 00
        E 0 80 40 00
        E 0 90 43 48
        E 0 90 47 48
        E 20 90 40 48
        E 240 80 43 00
        E 0 80 47 00
        E 0 80 40 00
        E 440 90 43 48
        E 0 90 47 48
        E 20 90 40 48
        E 240 80 43 00
        E 0 80 47 00
        E 0 80 40 00
        e 514 90 43 48
        e 0 90 47 48
        e 20 90 40 48
        e 240 80 43 00
        e 0 80 47 00
        e 0 80 40 00
        E 186 90 41 48
        E 0 90 45 48
        E 0 90 48 48
        E 1920 80 41 00
        E 0 80 45 00
        E 0 80 48 00
        E 0 90 41 48
        E 0 90 45 48
        E 0 90 48 48
        E 260 80 41 00
        E 0 80 45 00
        E 0 80 48 00
        E 440 90 41 48
        E 0 90 45 48
        E 0 90 48 48
        E 260 80 41 00
        E 0 80 45 00
        E 0 80 48 00
        e 514 90 41 48
        e 0 90 45 48
        e 0 90 48 48
        e 260 80 41 00
        e 0 80 45 00
        e 0 80 48 00
        E 162 90 3e 48
        E 24 90 41 48
        E 0 90 45 48
        E 1896 90 3e 48
        E 24 80 3e 00
        E 0 80 41 00
        E 0 80 45 00
        E 0 90 41 48
        E 0 90 45 48
        E 260 80 3e 00
        E 0 80 41 00
        E 0 80 45 00
        E 416 90 3e 48
        E 24 90 41 48
        E 0 90 45 48
        E 260 80 3e 00
        E 0 80 41 00
        E 0 80 45 00
        e 490 90 3e 48
        e 24 90 41 48
        e 0 90 45 48
        e 260 80 3e 00
        e 0 80 41 00
        e 0 80 45 00
        E 186 b0 7b 00
        CHASE_CC_TAKEOFFS 1
        GUID {A64857E2-94F8-0990-20DF-4C1E9B5E6251}
        IGNTEMPO 0 120 4 4
        SRCCOLOR 24
        VELLANE -1 100 0
        CFGEDITVIEW 0 0.045808 45 12 0 -1 0 0 0 0.5
        KEYSNAP 0
        TRACKSEL 0
        EVTFILTER 0 -1 -1 -1 -1 0 0 0 0 -1 -1 -1 -1 0 -1 0 -1 -1
        CFGEDIT 1 1 0 1 0 0 1 1 1 1 1 1 58 171 1253 866 0 0 0 0 0.25 0 0 0 0 0.5 0 0 1 64
      >
    >
    <ITEM
      POSITION 64
      SNAPOFFS 0
      LENGTH 8
      LOOP 1
      ALLTAKES 0
      FADEIN 1 0 0 1 0 0
      FADEOUT 1 0 0 1 0 0
      MUTE 0
      SEL 1
      IGUID {5BF6DB45-FE39-75BC-78DD-3EE194A9B647}
      IID 18
      NAME "01-Recorded MIDI"
      VOLPAN 1 0 1 -1
      SOFFS 0 0
      PLAYRATE 1 1 0 -1 0 0.0021
      CHANMODE 0
      GUID {F7CC4BDB-D7B9-451A-1106-454A22A677DB}
      RECPASS 1
      <SOURCE MIDI
        HASDATA 1 960 QN
        CCINTERP 32
        POOLEDEVTS {0CC5B73A-315C-FC3A-697B-FAF1CC107CF7}
        E 0 90 3c 48
        E 0 90 40 48
        E 0 90 43 48
        E 1920 80 3c 00
        E 0 80 40 00
        E 0 80 43 00
        E 0 90 3c 48
        E 0 90 40 48
        E 0 90 43 48
        E 260 80 3c 00
        E 0 80 40 00
        E 0 80 43 00
        E 440 90 3c 48
        E 0 90 40 48
        E 0 90 43 48
        E 260 80 3c 00
        E 0 80 40 00
        E 0 80 43 00
        e 514 90 3c 48
        e 0 90 40 48
        e 0 90 43 48
        e 260 80 3c 00
        e 0 80 40 00
        e 0 80 43 00
        E 186 90 43 48
        E 0 90 47 48
        E 20 90 40 48
        E 1900 80 43 00
        E 0 80 47 00
        E 0 80 40 00
        E 0 90 43 48
        E 0 90 47 48
        E 20 90 40 48
        E 240 80 43 00
        E 0 80 47 00
        E 0 80 40 00
        E 440 90 43 48
        E 0 90 47 48
        E 20 90 40 48
        E 240 80 43 00
        E 0 80 47 00
        E 0 80 40 00
        e 514 90 43 48
        e 0 90 47 48
        e 20 90 40 48
        e 240 80 43 00
        e 0 80 47 00
        e 0 80 40 00
        E 186 90 41 48
        E 0 90 45 48
        E 0 90 48 48
        E 1920 80 41 00
        E 0 80 45 00
        E 0 80 48 00
        E 0 90 41 48
        E 0 90 45 48
        E 0 90 48 48
        E 260 80 41 00
        E 0 80 45 00
        E 0 80 48 00
        E 440 90 41 48
        E 0 90 45 48
        E 0 90 48 48
        E 260 80 41 00
        E 0 80 45 00
        E 0 80 48 00
        e 514 90 41 48
        e 0 90 45 48
        e 0 90 48 48
        e 260 80 41 00
        e 0 80 45 00
        e 0 80 48 00
        E 162 90 3e 48
        E 24 90 41 48
        E 0 90 45 48
        E 1896 90 3e 48
        E 24 80 3e 00
        E 0 80 41 00
        E 0 80 45 00
        E 0 90 41 48
        E 0 90 45 48
        E 260 80 3e 00
        E 0 80 41 00
        E 0 80 45 00
        E 416 90 3e 48
        E 24 90 41 48
        E 0 90 45 48
        E 260 80 3e 00
        E 0 80 41 00
        E 0 80 45 00
        e 490 90 3e 48
        e 24 90 41 48
        e 0 90 45 48
        e 260 80 3e 00
        e 0 80 41 00
        e 0 80 45 00
        E 186 b0 7b 00
        CHASE_CC_TAKEOFFS 1
        GUID {19362806-85F2-5D9E-E1F9-07BE0CF3D16E}
        IGNTEMPO 0 120 4 4
        SRCCOLOR 25
        VELLANE -1 100 0
        CFGEDITVIEW 0 0.045808 45 12 0 -1 0 0 0 0.5
        KEYSNAP 0
        TRACKSEL 0
        EVTFILTER 0 -1 -1 -1 -1 0 0 0 0 -1 -1 -1 -1 0 -1 0 -1 -1
        CFGEDIT 1 1 0 1 0 0 1 1 1 1 1 1 58 171 1253 866 0 0 0 0 0.25 0 0 0 0 0.5 0 0 1 64
      >
    >
    <ITEM
      POSITION 72
      SNAPOFFS 0
      LENGTH 8
      LOOP 1
      ALLTAKES 0
      FADEIN 1 0 0 1 0 0
      FADEOUT 1 0 0 1 0 0
      MUTE 0
      SEL 1
      IGUID {DBFE9516-BFAB-24D0-32EA-4CBB30485607}
      IID 19
      NAME "01-Recorded MIDI"
      VOLPAN 1 0 1 -1
      SOFFS 0 0
      PLAYRATE 1 1 0 -1 0 0.0021
      CHANMODE 0
      GUID {E9D84467-4657-F642-47FC-006A4C341303}
      RECPASS 1
      <SOURCE MIDI
        HASDATA 1 960 QN
        CCINTERP 32
        POOLEDEVTS {71EE6BE6-8587-680A-8F8F-1CDBA2F4D77A}
        E 0 90 3c 48
        E 0 90 40 48
        E 0 90 43 48
        E 1920 80 3c 00
        E 0 80 40 00
        E 0 80 43 00
        E 0 90 3c 48
        E 0 90 40 48
        E 0 90 43 48
        E 260 80 3c 00
        E 0 80 40 00
        E 0 80 43 00
        E 440 90 3c 48
        E 0 90 40 48
        E 0 90 43 48
        E 260 80 3c 00
        E 0 80 40 00
        E 0 80 43 00
        e 514 90 3c 48
        e 0 90 40 48
        e 0 90 43 48
        e 260 80 3c 00
        e 0 80 40 00
        e 0 80 43 00
        E 186 90 43 48
        E 0 90 47 48
        E 20 90 40 48
        E 1900 80 43 00
        E 0 80 47 00
        E 0 80 40 00
        E 0 90 43 48
        E 0 90 47 48
        E 20 90 40 48
        E 240 80 43 00
        E 0 80 47 00
        E 0 80 40 00
        E 440 90 43 48
        E 0 90 47 48
        E 20 90 40 48
        E 240 80 43 00
        E 0 80 47 00
        E 0 80 40 00
        e 514 90 43 48
        e 0 90 47 48
        e 20 90 40 48
        e 240 80 43 00
        e 0 80 47 00
        e 0 80 40 00
        E 186 90 41 48
        E 0 90 45 48
        E 0 90 48 48
        E 1920 80 41 00
        E 0 80 45 00
        E 0 80 48 00
        E 0 90 41 48
        E 0 90 45 48
        E 0 90 48 48
        E 260 80 41 00
        E 0 80 45 00
        E 0 80 48 00
        E 440 90 41 48
        E 0 90 45 48
        E 0 90 48 48
        E 260 80 41 00
        E 0 80 45 00
        E 0 80 48 00
        e 514 90 41 48
        e 0 90 45 48
        e 0 90 48 48
        e 260 80 41 00
        e 0 80 45 00
        e 0 80 48 00
        E 162 90 3e 48
        E 24 90 41 48
        E 0 90 45 48
        E 1896 90 3e 48
        E 24 80 3e 00
        E 0 80 41 00
        E 0 80 45 00
        E 0 90 41 48
        E 0 90 45 48
        E 260 80 3e 00
        E 0 80 41 00
        E 0 80 45 00
        E 416 90 3e 48
        E 24 90 41 48
        E 0 90 45 48
        E 260 80 3e 00
        E 0 80 41 00
        E 0 80 45 00
        e 490 90 3e 48
        e 24 90 41 48
        e 0 90 45 48
        e 260 80 3e 00
        e 0 80 41 00
        e 0 80 45 00
        E 186 b0 7b 00
        CHASE_CC_TAKEOFFS 1
        GUID {6844F8A9-6BE9-023C-4A46-0A676470C99B}
        IGNTEMPO 0 120 4 4
        SRCCOLOR 26
        VELLANE -1 100 0
        CFGEDITVIEW 0 0.045808 45 12 0 -1 0 0 0 0.5
        KEYSNAP 0
        TRACKSEL 0
        EVTFILTER 0 -1 -1 -1 -1 0 0 0 0 -1 -1 -1 -1 0 -1 0 -1 -1
        CFGEDIT 1 1 0 1 0 0 1 1 1 1 1 1 58 171 1253 866 0 0 0 0 0.25 0 0 0 0 0.5 0 0 1 64
      >
    >
    <ITEM
      POSITION 80
      SNAPOFFS 0
      LENGTH 8
      LOOP 1
      ALLTAKES 0
      FADEIN 1 0 0 1 0 0
      FADEOUT 1 0 0 1 0 0
      MUTE 0
      SEL 1
      IGUID {F04D4656-FF3F-1BCF-2EFB-0EC4DF47BEC6}
      IID 20
      NAME "01-Recorded MIDI"
      VOLPAN 1 0 1 -1
      SOFFS 0 0
      PLAYRATE 1 1 0 -1 0 0.0021
      CHANMODE 0
      GUID {EDBFE04F-6DE8-8E8C-619A-604DDAAE9C53}
      RECPASS 1
      <SOURCE MIDI
        HASDATA 1 960 QN
        CCINTERP 32
        POOLEDEVTS {BCD06C86-292C-AA51-EFBC-933B5AD50F4A}
        E 0 90 3c 48
        E 0 90 40 48
        E 0 90 43 48
        E 1920 80 3c 00
        E 0 80 40 00
        E 0 80 43 00
        E 0 90 3c 48
        E 0 90 40 48
        E 0 90 43 48
        E 260 80 3c 00
        E 0 80 40 00
        E 0 80 43 00
        E 440 90 3c 48
        E 0 90 40 48
        E 0 90 43 48
        E 260 80 3c 00
        E 0 80 40 00
        E 0 80 43 00
        e 514 90 3c 48
        e 0 90 40 48
        e 0 90 43 48
        e 260 80 3c 00
        e 0 80 40 00
        e 0 80 43 00
        E 186 90 43 48
        E 0 90 47 48
        E 20 90 40 48
        E 1900 80 43 00
        E 0 80 47 00
        E 0 80 40 00
        E 0 90 43 48
        E 0 90 47 48
        E 20 90 40 48
        E 240 80 43 00
        E 0 80 47 00
        E 0 80 40 00
        E 440 90 43 48
        E 0 90 47 48
        E 20 90 40 48
        E 240 80 43 00
        E 0 80 47 00
        E 0 80 40 00
        e 514 90 43 48
        e 0 90 47 48
        e 20 90 40 48
        e 240 80 43 00
        e 0 80 47 00
        e 0 80 40 00
        E 186 90 41 48
        E 0 90 45 48
        E 0 90 48 48
        E 1920 80 41 00
        E 0 80 45 00
        E 0 80 48 00
        E 0 90 41 48
        E 0 90 45 48
        E 0 90 48 48
        E 260 80 41 00
        E 0 80 45 00
        E 0 80 48 00
        E 440 90 41 48
        E 0 90 45 48
        E 0 90 48 48
        E 260 80 41 00
        E 0 80 45 00
        E 0 80 48 00
        e 514 90 41 48
        e 0 90 45 48
        e 0 90 48 48
        e 260 80 41 00
        e 0 80 45 00
        e 0 80 48 00
        E 162 90 3e 48
        E 24 90 41 48
        E 0 90 45 48
        E 1896 90 3e 48
        E 24 80 3e 00
        E 0 80 41 00
        E 0 80 45 00
        E 0 90 41 48
        E 0 90 45 48
        E 260 80 3e 00
        E 0 80 41 00
        E 0 80 45 00
        E 416 90 3e 48
        E 24 90 41 48
        E 0 90 45 48
        E 260 80 3e 00
        E 0 80 41 00
        E 0 80 45 00
        e 490 90 3e 48
        e 24 90 41 48
        e 0 90 45 48
        e 260 80 3e 00
        e 0 80 41 00
        e 0 80 45 00
        E 186 b0 7b 00
        CHASE_CC_TAKEOFFS 1
        GUID {E611ADB6-4869-6CCA-8E83-3954D5E743B1}
        IGNTEMPO 0 120 4 4
        SRCCOLOR 27
        VELLANE -1 100 0
        CFGEDITVIEW 0 0.045808 45 12 0 -1 0 0 0 0.5
        KEYSNAP 0
        TRACKSEL 0
        EVTFILTER 0 -1 -1 -1 -1 0 0 0 0 -1 -1 -1 -1 0 -1 0 -1 -1
        CFGEDIT 1 1 0 1 0 0 1 1 1 1 1 1 58 171 1253 866 0 0 0 0 0.25 0 0 0 0 0.5 0 0 1 64
      >
    >
    <ITEM
      POSITION 88
      SNAPOFFS 0
      LENGTH 8
      LOOP 1
      ALLTAKES 0
      FADEIN 1 0 0 1 0 0
      FADEOUT 1 0 0 1 0 0
      MUTE 0
      SEL 1
      IGUID {721EBF8B-5D30-EC79-48FD-9D657CA66F4A}
      IID 21
      NAME "01-Recorded MIDI"
      VOLPAN 1 0 1 -1
      SOFFS 0 0
      PLAYRATE 1 1 0 -1 0 0.0021
      CHANMODE 0
      GUID {E44EDCE8-B663-CA40-8757-ABABEAD6CD46}
      RECPASS 1
      <SOURCE MIDI
        HASDATA 1 960 QN
        CCINTERP 32
        POOLEDEVTS {EA8E0DEE-0883-4B3D-692B-635C43AD3E0D}
        E 0 90 3c 48
        E 0 90 40 48
        E 0 90 43 48
        E 1920 80 3c 00
        E 0 80 40 00
        E 0 80 43 00
        E 0 90 3c 48
        E 0 90 40 48
        E 0 90 43 48
        E 260 80 3c 00
        E 0 80 40 00
        E 0 80 43 00
        E 440 90 3c 48
        E 0 90 40 48
        E 0 90 43 48
        E 260 80 3c 00
        E 0 80 40 00
        E 0 80 43 00
        e 514 90 3c 48
        e 0 90 40 48
        e 0 90 43 48
        e 260 80 3c 00
        e 0 80 40 00
        e 0 80 43 00
        E 186 90 43 48
        E 0 90 47 48
        E 20 90 40 48
        E 1900 80 43 00
        E 0 80 47 00
        E 0 80 40 00
        E 0 90 43 48
        E 0 90 47 48
        E 20 90 40 48
        E 240 80 43 00
        E 0 80 47 00
        E 0 80 40 00
        E 440 90 43 48
        E 0 90 47 48
        E 20 90 40 48
        E 240 80 43 00
        E 0 80 47 00
        E 0 80 40 00
        e 514 90 43 48
        e 0 90 47 48
        e 20 90 40 48
        e 240 80 43 00
        e 0 80 47 00
        e 0 80 40 00
        E 186 90 41 48
        E 0 90 45 48
        E 0 90 48 48
        E 1920 80 41 00
        E 0 80 45 00
        E 0 80 48 00
        E 0 90 41 48
        E 0 90 45 48
        E 0 90 48 48
        E 260 80 41 00
        E 0 80 45 00
        E 0 80 48 00
        E 440 90 41 48
        E 0 90 45 48
        E 0 90 48 48
        E 260 80 41 00
        E 0 80 45 00
        E 0 80 48 00
        e 514 90 41 48
        e 0 90 45 48
        e 0 90 48 48
        e 260 80 41 00
        e 0 80 45 00
        e 0 80 48 00
        E 162 90 3e 48
        E 24 90 41 48
        E 0 90 45 48
        E 1896 90 3e 48
        E 24 80 3e 00
        E 0 80 41 00
        E 0 80 45 00
        E 0 90 41 48
        E 0 90 45 48
        E 260 80 3e 00
        E 0 80 41 00
        E 0 80 45 00
        E 416 90 3e 48
        E 24 90 41 48
        E 0 90 45 48
        E 260 80 3e 00
        E 0 80 41 00
        E 0 80 45 00
        e 490 90 3e 48
        e 24 90 41 48
        e 0 90 45 48
        e 260 80 3e 00
        e 0 80 41 00
        e 0 80 45 00
        E 186 b0 7b 00
        CHASE_CC_TAKEOFFS 1
        GUID {C762B555-17FC-D765-5340-11D3487D2955}
        IGNTEMPO 0 120 4 4
        SRCCOLOR 28
        VELLANE -1 100 0
        CFGEDITVIEW 0 0.045808 45 12 0 -1 0 0 0 0.5
        KEYSNAP 0
        TRACKSEL 0
        EVTFILTER 0 -1 -1 -1 -1 0 0 0 0 -1 -1 -1 -1 0 -1 0 -1 -1
        CFGEDIT 1 1 0 1 0 0 1 1 1 1 1 1 58 171 1253 866 0 0 0 0 0.25 0 0 0 0 0.5 0 0 1 64
      >
    >
  >
  <TRACK {D16CE309-54B2-6AC7-18E0-27568B9B52CF}
    NAME ""
    PEAKCOL 16576
    BEAT -1
    AUTOMODE 0
    VOLPAN 0.00052194381917 0 -1 -1 1
    MUTESOLO 0 0 0
    IPHASE 0
    PLAYOFFS 0 1
    ISBUS 0 0
    BUSCOMP 0 0 0 0 0
    SHOWINMIX 1 0.6667 0.5 1 0.5 0 0 0
    FREEMODE 0
    SEL 0
    REC 0 5056 1 0 0 0 0
    VU 2
    TRACKHEIGHT 21 0 0
    INQ 0 0 0 0.5 100 0 0 100
    NCHAN 2
    FX 0
    TRACKID {D16CE309-54B2-6AC7-18E0-27568B9B52CF}
    PERF 0
    MIDIOUT -1
    MAINSEND 1 0
    <FXCHAIN
      WNDRECT 346 266 902 608
      SHOW 0
      LASTSEL 5
      DOCKED 0
      BYPASS 0 0 0
      <VST "VST: ReaEQ (Cockos)" reaeq.vst.so 0 "" 1919247729<56535472656571726561657100000000> ""
        cWVlcu5e7f4CAAAAAQAAAAAAAAACAAAAAAAAAAIAAAABAAAAAAAAAAIAAAAAAAAAqAAAAAEAAAAAABAA
        IQAAAAQAAAAEAAAAAQAAAEC4Xhmm+DRAAAAAAAAA8D8AAAAAAAAAQAEIAAAAAQAAAAAAAAAAwHJAAAAAAAAA8D8AAAAAAAAAQAEIAAAAAQAAAAAAAAAAQI9AAAAAAAAA
        8D8AAAAAAAAAQAEDAAAAAQAAAAABaCorbdRAAAAAAAAA8D8AAAAAAAAAQAEBAAAAAQAAAAAAAAAAAPA/AAAAAJoCAACcAQAA
        AEhpZ2ggbG93IHBhc3MAEAAAAA==
      >
      PRESETNAME "High low pass"
      FLOATPOS 0 0 0 0
      FXID {E074EEC3-31B5-6F65-B115-A9150009A8AF}
      WAK 0 0
      BYPASS 0 0 0
      <VST "VSTi: ReaSynth (Cockos)" reasynth.vst.so 0 "" 1919251321<5653547265737972656173796E746800> ""
        eXNlcu9e7f4AAAAAAgAAAAEAAAAAAAAAAgAAAAAAAAA8AAAAAAAAAAAAEAA=
        776t3g3wrd6lm8Q7F7fROgAAAAAAAAAAAAAAAJCNuT3oZ4g9AACAPwAAAD8AAIA/AAAAAAAAAD8AAAAA
        AAAQAAAA
      >
      FLOATPOS 0 0 0 0
      FXID {59398012-7552-93BB-A439-6E52697A9F39}
      WAK 0 0
      BYPASS 0 0 0
      <JS guitar/amp-model ""
        "Dumble Overdrive Special - Tweed Deluxe.wav" -21.000000 1.000000 0.000000 73.000000 256.000000 - - - - - - - - - - - - - - - - - - - - - - - - - - - - - - - - - - - - - - - - - - - - - - - - - - - - - - - - - - 
      >
      FLOATPOS 0 0 0 0
      FXID {A9753763-A4C5-048F-6F14-B43A9C5B70A9}
      WAK 0 0
      BYPASS 0 0 0
      <VST "VST: ReaComp (Cockos)" reacomp.vst.so 0 "" 1919247213<5653547265636D726561636F6D700000> ""
        bWNlcu9e7f4EAAAAAQAAAAAAAAACAAAAAAAAAAQAAAAAAAAACAAAAAAAAAACAAAAAQAAAAAAAAACAAAAAAAAAFQAAAAAAAAAAAAQAA==
        776t3g3wrd5FoYg9/AWpPKWbxDsK16M8AAAAAAAAAAAAAIA/AAAAAAAAAAAAAAAAnNEHMwAAgD8AAAAAzMxMPQAAAAAAAAAAAAAAAAAAgD7YiZ09
        AAAQAAAA
      >
      FLOATPOS 0 0 0 0
      FXID {0EE18E1D-2BB9-A777-1603-F42058146CBB}
      WAK 0 0
      BYPASS 0 0 0
      <VST "VST: ReaDelay (Cockos)" readelay.vst.so 0 "" 1919247468<5653547265646C72656164656C617900> ""
        bGRlcu5e7f4CAAAAAQAAAAAAAAACAAAAAAAAAAIAAAABAAAAAAAAAAIAAAAAAAAA/AAAAAEAAAAAAAAA
        AAAAAAAAAAAFAAAALAAAAAIAAAAEAAAAAACAPwAAgD8AAAAAAACAPwAAAAAAAIA7vTeGNQAAgD8AAAAAAACAPwAAgD8AAIA/AAAAAAAAAAAAAIA/AAAAAAAAADwAAAAA
        AACAPwAAAAAAAIA/AACAP+87NT8AAIA/AAAAAAAAgD8AAAAAAABAPL03hjUAAIA/AAAAAAAAgD8AAIA/zk0AP6abhD4AAAAAAACAPwAAAAAAAIA8vTeGNQAAgD8AAAAA
        AACAPwAAgD8aqrU+pHA9PwAAAAAAAIA/AAAAAAAAoDy9N4Y1AACAPwAAAAAAAIA/AACAP/npAD4AAAA/
        AHN0b2NrIC0gYmFzaWMgNSB0YXAgcGluZyBwb25nAAAAAAA=
      >
      PRESETNAME "stock - basic 5 tap ping pong"
      FLOATPOS 0 0 0 0
      FXID {DA166F6C-1EF5-275A-45EB-711A9717F39A}
      WAK 0 0
      BYPASS 0 0 0
      <VST "VST: ReaVerb (Cockos)" reaverb.vst.so 0 "" 1919252066<56535472657662726561766572620000> ""
        YnZlcu5e7f4CAAAAAQAAAAAAAAACAAAAAAAAAAIAAAABAAAAAAAAAAIAAAAAAAAAcAAAAAEAAAAAAAAA
        AAAAwcybgD4AAIA/AAAAAAAAgD8AAIA/AAAAPwAAgD8AAAAAVkVSQkdFTgAYAAAAAAAAAJHgV0QdrLRA3rK7QsHIjEIAAIC/RUNIT0dFTgAcAAAAy/i2QLUjdUJdzdM/
        osdfP5lRrzyRzYxAnMQAPw==
        AHN3ZWV0dmVyYm8AAAAAAA==
      >
      PRESETNAME sweetverbo
      FLOATPOS 0 0 0 0
      FXID {019B4552-A79B-06E5-4314-7D2FF8ED0941}
      WAK 0 0
    >
    <ITEM
      POSITION 0
      SNAPOFFS 0
      LENGTH 8
      LOOP 1
      ALLTAKES 0
      FADEIN 1 0 0 1 0 0
      FADEOUT 1 0 0 1 0 0
      MUTE 0
      SEL 1
      IGUID {128235EC-CAD1-F53D-4E28-5B06B597ED16}
      IID 10
      NAME "01-Recorded MIDI"
      VOLPAN 1 0 1 -1
      SOFFS 0 0
      PLAYRATE 1 1 0 -1 0 0.0021
      CHANMODE 0
      GUID {2195772C-CBEE-95A4-ED3C-E1D8585F9F8A}
      RECPASS 1
      <SOURCE MIDI
        HASDATA 1 960 QN
        CCINTERP 32
        POOLEDEVTS {8AA9C8AA-A190-C594-4ED1-96D09427BF6E}
        E 0 90 3c 48
        E 0 90 40 48
        E 0 90 43 48
        E 1920 80 3c 00
        E 0 80 40 00
        E 0 80 43 00
        E 0 90 3c 48
        E 0 90 40 48
        E 0 90 43 48
        E 260 80 3c 00
        E 0 80 40 00
        E 0 80 43 00
        E 440 90 3c 48
        E 0 90 40 48
        E 0 90 43 48
        E 260 80 3c 00
        E 0 80 40 00
        E 0 80 43 00
        e 514 90 3c 48
        e 0 90 40 48
        e 0 90 43 48
        e 260 80 3c 00
        e 0 80 40 00
        e 0 80 43 00
        E 186 90 43 48
        E 0 90 47 48
        E 20 90 40 48
        E 1900 80 43 00
        E 0 80 47 00
        E 0 80 40 00
        E 0 90 43 48
        E 0 90 47 48
        E 20 90 40 48
        E 240 80 43 00
        E 0 80 47 00
        E 0 80 40 00
        E 440 90 43 48
        E 0 90 47 48
        E 20 90 40 48
        E 240 80 43 00
        E 0 80 47 00
        E 0 80 40 00
        e 514 90 43 48
        e 0 90 47 48
        e 20 90 40 48
        e 240 80 43 00
        e 0 80 47 00
        e 0 80 40 00
        E 186 90 41 48
        E 0 90 45 48
        E 0 90 48 48
        E 1920 80 41 00
        E 0 80 45 00
        E 0 80 48 00
        E 0 90 41 48
        E 0 90 45 48
        E 0 90 48 48
        E 260 80 41 00
        E 0 80 45 00
        E 0 80 48 00
        E 440 90 41 48
        E 0 90 45 48
        E 0 90 48 48
        E 260 80 41 00
        E 0 80 45 00
        E 0 80 48 00
        e 514 90 41 48
        e 0 90 45 48
        e 0 90 48 48
        e 260 80 41 00
        e 0 80 45 00
        e 0 80 48 00
        E 162 90 3e 48
        E 24 90 41 48
        E 0 90 45 48
        E 1896 90 3e 48
        E 24 80 3e 00
        E 0 80 41 00
        E 0 80 45 00
        E 0 90 41 48
        E 0 90 45 48
        E 260 80 3e 00
        E 0 80 41 00
        E 0 80 45 00
        E 416 90 3e 48
        E 24 90 41 48
        E 0 90 45 48
        E 260 80 3e 00
        E 0 80 41 00
        E 0 80 45 00
        e 490 90 3e 48
        e 24 90 41 48
        e 0 90 45 48
        e 260 80 3e 00
        e 0 80 41 00
        e 0 80 45 00
        E 186 b0 7b 00
        CHASE_CC_TAKEOFFS 1
        GUID {7B9D708B-43E1-C8D4-C4B3-87E2A6C27801}
        IGNTEMPO 0 120 4 4
        SRCCOLOR 17
        VELLANE -1 100 0
        CFGEDITVIEW 0 0.045808 45 12 0 -1 0 0 0 0.5
        KEYSNAP 0
        TRACKSEL 0
        EVTFILTER 0 -1 -1 -1 -1 0 0 0 0 -1 -1 -1 -1 0 -1 0 -1 -1
        CFGEDIT 1 1 0 1 0 0 1 1 1 1 1 1 58 171 1253 866 0 0 0 0 0.25 0 0 0 0 0.5 0 0 1 64
      >
    >
    <ITEM
      POSITION 8
      SNAPOFFS 0
      LENGTH 8
      LOOP 1
      ALLTAKES 0
      FADEIN 1 0 0 1 0 0
      FADEOUT 1 0 0 1 0 0
      MUTE 0
      SEL 1
      IGUID {59DAFDFC-4902-0010-3EF9-47342C4C62ED}
      IID 11
      NAME "01-Recorded MIDI"
      VOLPAN 1 0 1 -1
      SOFFS 0 0
      PLAYRATE 1 1 0 -1 0 0.0021
      CHANMODE 0
      GUID {5F48127D-51D7-F85E-484B-50CB69CDFD49}
      RECPASS 1
      <SOURCE MIDI
        HASDATA 1 960 QN
        CCINTERP 32
        POOLEDEVTS {DCF38812-16AD-9585-327C-8F5E88476C60}
        E 0 90 3c 48
        E 0 90 40 48
        E 0 90 43 48
        E 1920 80 3c 00
        E 0 80 40 00
        E 0 80 43 00
        E 0 90 3c 48
        E 0 90 40 48
        E 0 90 43 48
        E 260 80 3c 00
        E 0 80 40 00
        E 0 80 43 00
        E 440 90 3c 48
        E 0 90 40 48
        E 0 90 43 48
        E 260 80 3c 00
        E 0 80 40 00
        E 0 80 43 00
        e 514 90 3c 48
        e 0 90 40 48
        e 0 90 43 48
        e 260 80 3c 00
        e 0 80 40 00
        e 0 80 43 00
        E 186 90 43 48
        E 0 90 47 48
        E 20 90 40 48
        E 1900 80 43 00
        E 0 80 47 00
        E 0 80 40 00
        E 0 90 43 48
        E 0 90 47 48
        E 20 90 40 48
        E 240 80 43 00
        E 0 80 47 00
        E 0 80 40 00
        E 440 90 43 48
        E 0 90 47 48
        E 20 90 40 48
        E 240 80 43 00
        E 0 80 47 00
        E 0 80 40 00
        e 514 90 43 48
        e 0 90 47 48
        e 20 90 40 48
        e 240 80 43 00
        e 0 80 47 00
        e 0 80 40 00
        E 186 90 41 48
        E 0 90 45 48
        E 0 90 48 48
        E 1920 80 41 00
        E 0 80 45 00
        E 0 80 48 00
        E 0 90 41 48
        E 0 90 45 48
        E 0 90 48 48
        E 260 80 41 00
        E 0 80 45 00
        E 0 80 48 00
        E 440 90 41 48
        E 0 90 45 48
        E 0 90 48 48
        E 260 80 41 00
        E 0 80 45 00
        E 0 80 48 00
        e 514 90 41 48
        e 0 90 45 48
        e 0 90 48 48
        e 260 80 41 00
        e 0 80 45 00
        e 0 80 48 00
        E 162 90 3e 48
        E 24 90 41 48
        E 0 90 45 48
        E 1896 90 3e 48
        E 24 80 3e 00
        E 0 80 41 00
        E 0 80 45 00
        E 0 90 41 48
        E 0 90 45 48
        E 260 80 3e 00
        E 0 80 41 00
        E 0 80 45 00
        E 416 90 3e 48
        E 24 90 41 48
        E 0 90 45 48
        E 260 80 3e 00
        E 0 80 41 00
        E 0 80 45 00
        e 490 90 3e 48
        e 24 90 41 48
        e 0 90 45 48
        e 260 80 3e 00
        e 0 80 41 00
        e 0 80 45 00
        E 186 b0 7b 00
        CHASE_CC_TAKEOFFS 1
        GUID {3131B4E2-B370-E352-A9C5-C8CA31551A86}
        IGNTEMPO 0 120 4 4
        SRCCOLOR 18
        VELLANE -1 100 0
        CFGEDITVIEW 0 0.045808 45 12 0 -1 0 0 0 0.5
        KEYSNAP 0
        TRACKSEL 0
        EVTFILTER 0 -1 -1 -1 -1 0 0 0 0 -1 -1 -1 -1 0 -1 0 -1 -1
        CFGEDIT 1 1 0 1 0 0 1 1 1 1 1 1 58 171 1253 866 0 0 0 0 0.25 0 0 0 0 0.5 0 0 1 64
      >
    >
    <ITEM
      POSITION 16
      SNAPOFFS 0
      LENGTH 8
      LOOP 1
      ALLTAKES 0
      FADEIN 1 0 0 1 0 0
      FADEOUT 1 0 0 1 0 0
      MUTE 0
      SEL 1
      IGUID {4A96E091-0C9F-3DF5-AD08-A4E4B7EBF771}
      IID 12
      NAME "01-Recorded MIDI"
      VOLPAN 1 0 1 -1
      SOFFS 0 0
      PLAYRATE 1 1 0 -1 0 0.0021
      CHANMODE 0
      GUID {D891C661-AED0-4C89-5209-B1590B1B4D10}
      RECPASS 1
      <SOURCE MIDI
        HASDATA 1 960 QN
        CCINTERP 32
        POOLEDEVTS {968D8CFF-F921-9D84-D3E2-AF48E0506DB9}
        E 0 90 3c 48
        E 0 90 40 48
        E 0 90 43 48
        E 1920 80 3c 00
        E 0 80 40 00
        E 0 80 43 00
        E 0 90 3c 48
        E 0 90 40 48
        E 0 90 43 48
        E 260 80 3c 00
        E 0 80 40 00
        E 0 80 43 00
        E 440 90 3c 48
        E 0 90 40 48
        E 0 90 43 48
        E 260 80 3c 00
        E 0 80 40 00
        E 0 80 43 00
        e 514 90 3c 48
        e 0 90 40 48
        e 0 90 43 48
        e 260 80 3c 00
        e 0 80 40 00
        e 0 80 43 00
        E 186 90 43 48
        E 0 90 47 48
        E 20 90 40 48
        E 1900 80 43 00
        E 0 80 47 00
        E 0 80 40 00
        E 0 90 43 48
        E 0 90 47 48
        E 20 90 40 48
        E 240 80 43 00
        E 0 80 47 00
        E 0 80 40 00
        E 440 90 43 48
        E 0 90 47 48
        E 20 90 40 48
        E 240 80 43 00
        E 0 80 47 00
        E 0 80 40 00
        e 514 90 43 48
        e 0 90 47 48
        e 20 90 40 48
        e 240 80 43 00
        e 0 80 47 00
        e 0 80 40 00
        E 186 90 41 48
        E 0 90 45 48
        E 0 90 48 48
        E 1920 80 41 00
        E 0 80 45 00
        E 0 80 48 00
        E 0 90 41 48
        E 0 90 45 48
        E 0 90 48 48
        E 260 80 41 00
        E 0 80 45 00
        E 0 80 48 00
        E 440 90 41 48
        E 0 90 45 48
        E 0 90 48 48
        E 260 80 41 00
        E 0 80 45 00
        E 0 80 48 00
        e 514 90 41 48
        e 0 90 45 48
        e 0 90 48 48
        e 260 80 41 00
        e 0 80 45 00
        e 0 80 48 00
        E 162 90 3e 48
        E 24 90 41 48
        E 0 90 45 48
        E 1896 90 3e 48
        E 24 80 3e 00
        E 0 80 41 00
        E 0 80 45 00
        E 0 90 41 48
        E 0 90 45 48
        E 260 80 3e 00
        E 0 80 41 00
        E 0 80 45 00
        E 416 90 3e 48
        E 24 90 41 48
        E 0 90 45 48
        E 260 80 3e 00
        E 0 80 41 00
        E 0 80 45 00
        e 490 90 3e 48
        e 24 90 41 48
        e 0 90 45 48
        e 260 80 3e 00
        e 0 80 41 00
        e 0 80 45 00
        E 186 b0 7b 00
        CHASE_CC_TAKEOFFS 1
        GUID {48C567A2-895C-FB9B-FDBA-0ADB7004ABF3}
        IGNTEMPO 0 120 4 4
        SRCCOLOR 19
        VELLANE -1 100 0
        CFGEDITVIEW 0 0.045808 45 12 0 -1 0 0 0 0.5
        KEYSNAP 0
        TRACKSEL 0
        EVTFILTER 0 -1 -1 -1 -1 0 0 0 0 -1 -1 -1 -1 0 -1 0 -1 -1
        CFGEDIT 1 1 0 1 0 0 1 1 1 1 1 1 58 171 1253 866 0 0 0 0 0.25 0 0 0 0 0.5 0 0 1 64
      >
    >
    <ITEM
      POSITION 24
      SNAPOFFS 0
      LENGTH 8
      LOOP 1
      ALLTAKES 0
      FADEIN 1 0 0 1 0 0
      FADEOUT 1 0 0 1 0 0
      MUTE 0
      SEL 1
      IGUID {E19AB1D7-6784-24D6-0129-C2C84E6B5F18}
      IID 13
      NAME "01-Recorded MIDI"
      VOLPAN 1 0 1 -1
      SOFFS 0 0
      PLAYRATE 1 1 0 -1 0 0.0021
      CHANMODE 0
      GUID {73DA310F-E893-D7E3-370A-E37DD97CB055}
      RECPASS 1
      <SOURCE MIDI
        HASDATA 1 960 QN
        CCINTERP 32
        POOLEDEVTS {BF127A57-1A31-F9CA-5DAE-1F0E5CFBDE7F}
        E 0 90 3c 48
        E 0 90 40 48
        E 0 90 43 48
        E 1920 80 3c 00
        E 0 80 40 00
        E 0 80 43 00
        E 0 90 3c 48
        E 0 90 40 48
        E 0 90 43 48
        E 260 80 3c 00
        E 0 80 40 00
        E 0 80 43 00
        E 440 90 3c 48
        E 0 90 40 48
        E 0 90 43 48
        E 260 80 3c 00
        E 0 80 40 00
        E 0 80 43 00
        e 514 90 3c 48
        e 0 90 40 48
        e 0 90 43 48
        e 260 80 3c 00
        e 0 80 40 00
        e 0 80 43 00
        E 186 90 43 48
        E 0 90 47 48
        E 20 90 40 48
        E 1900 80 43 00
        E 0 80 47 00
        E 0 80 40 00
        E 0 90 43 48
        E 0 90 47 48
        E 20 90 40 48
        E 240 80 43 00
        E 0 80 47 00
        E 0 80 40 00
        E 440 90 43 48
        E 0 90 47 48
        E 20 90 40 48
        E 240 80 43 00
        E 0 80 47 00
        E 0 80 40 00
        e 514 90 43 48
        e 0 90 47 48
        e 20 90 40 48
        e 240 80 43 00
        e 0 80 47 00
        e 0 80 40 00
        E 186 90 41 48
        E 0 90 45 48
        E 0 90 48 48
        E 1920 80 41 00
        E 0 80 45 00
        E 0 80 48 00
        E 0 90 41 48
        E 0 90 45 48
        E 0 90 48 48
        E 260 80 41 00
        E 0 80 45 00
        E 0 80 48 00
        E 440 90 41 48
        E 0 90 45 48
        E 0 90 48 48
        E 260 80 41 00
        E 0 80 45 00
        E 0 80 48 00
        e 514 90 41 48
        e 0 90 45 48
        e 0 90 48 48
        e 260 80 41 00
        e 0 80 45 00
        e 0 80 48 00
        E 162 90 3e 48
        E 24 90 41 48
        E 0 90 45 48
        E 1896 90 3e 48
        E 24 80 3e 00
        E 0 80 41 00
        E 0 80 45 00
        E 0 90 41 48
        E 0 90 45 48
        E 260 80 3e 00
        E 0 80 41 00
        E 0 80 45 00
        E 416 90 3e 48
        E 24 90 41 48
        E 0 90 45 48
        E 260 80 3e 00
        E 0 80 41 00
        E 0 80 45 00
        e 490 90 3e 48
        e 24 90 41 48
        e 0 90 45 48
        e 260 80 3e 00
        e 0 80 41 00
        e 0 80 45 00
        E 186 b0 7b 00
        CHASE_CC_TAKEOFFS 1
        GUID {1DE38800-E2A1-41B5-9C8C-3291891093B1}
        IGNTEMPO 0 120 4 4
        SRCCOLOR 20
        VELLANE -1 100 0
        CFGEDITVIEW 0 0.045808 45 12 0 -1 0 0 0 0.5
        KEYSNAP 0
        TRACKSEL 0
        EVTFILTER 0 -1 -1 -1 -1 0 0 0 0 -1 -1 -1 -1 0 -1 0 -1 -1
        CFGEDIT 1 1 0 1 0 0 1 1 1 1 1 1 58 171 1253 866 0 0 0 0 0.25 0 0 0 0 0.5 0 0 1 64
      >
    >
    <ITEM
      POSITION 32
      SNAPOFFS 0
      LENGTH 8
      LOOP 1
      ALLTAKES 0
      FADEIN 1 0 0 1 0 0
      FADEOUT 1 0 0 1 0 0
      MUTE 0
      SEL 1
      IGUID {46BB7419-18AD-43E6-DD3E-EE5448461D86}
      IID 14
      NAME "01-Recorded MIDI"
      VOLPAN 1 0 1 -1
      SOFFS 0 0
      PLAYRATE 1 1 0 -1 0 0.0021
      CHANMODE 0
      GUID {E78E9A90-605B-0FF0-7613-8340551FE452}
      RECPASS 1
      <SOURCE MIDI
        HASDATA 1 960 QN
        CCINTERP 32
        POOLEDEVTS {9194B9AD-22C9-81AB-3FBE-93A9753337C7}
        E 0 90 3c 48
        E 0 90 40 48
        E 0 90 43 48
        E 1920 80 3c 00
        E 0 80 40 00
        E 0 80 43 00
        E 0 90 3c 48
        E 0 90 40 48
        E 0 90 43 48
        E 260 80 3c 00
        E 0 80 40 00
        E 0 80 43 00
        E 440 90 3c 48
        E 0 90 40 48
        E 0 90 43 48
        E 260 80 3c 00
        E 0 80 40 00
        E 0 80 43 00
        e 514 90 3c 48
        e 0 90 40 48
        e 0 90 43 48
        e 260 80 3c 00
        e 0 80 40 00
        e 0 80 43 00
        E 186 90 43 48
        E 0 90 47 48
        E 20 90 40 48
        E 1900 80 43 00
        E 0 80 47 00
        E 0 80 40 00
        E 0 90 43 48
        E 0 90 47 48
        E 20 90 40 48
        E 240 80 43 00
        E 0 80 47 00
        E 0 80 40 00
        E 440 90 43 48
        E 0 90 47 48
        E 20 90 40 48
        E 240 80 43 00
        E 0 80 47 00
        E 0 80 40 00
        e 514 90 43 48
        e 0 90 47 48
        e 20 90 40 48
        e 240 80 43 00
        e 0 80 47 00
        e 0 80 40 00
        E 186 90 41 48
        E 0 90 45 48
        E 0 90 48 48
        E 1920 80 41 00
        E 0 80 45 00
        E 0 80 48 00
        E 0 90 41 48
        E 0 90 45 48
        E 0 90 48 48
        E 260 80 41 00
        E 0 80 45 00
        E 0 80 48 00
        E 440 90 41 48
        E 0 90 45 48
        E 0 90 48 48
        E 260 80 41 00
        E 0 80 45 00
        E 0 80 48 00
        e 514 90 41 48
        e 0 90 45 48
        e 0 90 48 48
        e 260 80 41 00
        e 0 80 45 00
        e 0 80 48 00
        E 162 90 3e 48
        E 24 90 41 48
        E 0 90 45 48
        E 1896 90 3e 48
        E 24 80 3e 00
        E 0 80 41 00
        E 0 80 45 00
        E 0 90 41 48
        E 0 90 45 48
        E 260 80 3e 00
        E 0 80 41 00
        E 0 80 45 00
        E 416 90 3e 48
        E 24 90 41 48
        E 0 90 45 48
        E 260 80 3e 00
        E 0 80 41 00
        E 0 80 45 00
        e 490 90 3e 48
        e 24 90 41 48
        e 0 90 45 48
        e 260 80 3e 00
        e 0 80 41 00
        e 0 80 45 00
        E 186 b0 7b 00
        CHASE_CC_TAKEOFFS 1
        GUID {0C3271F4-E233-9088-9B25-A722FAE7C579}
        IGNTEMPO 0 120 4 4
        SRCCOLOR 21
        VELLANE -1 100 0
        CFGEDITVIEW 0 0.045808 45 12 0 -1 0 0 0 0.5
        KEYSNAP 0
        TRACKSEL 0
        EVTFILTER 0 -1 -1 -1 -1 0 0 0 0 -1 -1 -1 -1 0 -1 0 -1 -1
        CFGEDIT 1 1 0 1 0 0 1 1 1 1 1 1 58 171 1253 866 0 0 0 0 0.25 0 0 0 0 0.5 0 0 1 64
      >
    >
    <ITEM
      POSITION 40
      SNAPOFFS 0
      LENGTH 8
      LOOP 1
      ALLTAKES 0
      FADEIN 1 0 0 1 0 0
      FADEOUT 1 0 0 1 0 0
      MUTE 0
      SEL 1
      IGUID {78E99D94-24DA-2206-B647-C7B1E6A00FD9}
      IID 15
      NAME "01-Recorded MIDI"
      VOLPAN 1 0 1 -1
      SOFFS 0 0
      PLAYRATE 1 1 0 -1 0 0.0021
      CHANMODE 0
      GUID {392E2904-C06B-989E-9049-BE3F5EB28F17}
      RECPASS 1
      <SOURCE MIDI
        HASDATA 1 960 QN
        CCINTERP 32
        POOLEDEVTS {9EA3BE9F-CFA9-9E2F-D23B-CFCF9F50467F}
        E 0 90 3c 48
        E 0 90 40 48
        E 0 90 43 48
        E 1920 80 3c 00
        E 0 80 40 00
        E 0 80 43 00
        E 0 90 3c 48
        E 0 90 40 48
        E 0 90 43 48
        E 260 80 3c 00
        E 0 80 40 00
        E 0 80 43 00
        E 440 90 3c 48
        E 0 90 40 48
        E 0 90 43 48
        E 260 80 3c 00
        E 0 80 40 00
        E 0 80 43 00
        e 514 90 3c 48
        e 0 90 40 48
        e 0 90 43 48
        e 260 80 3c 00
        e 0 80 40 00
        e 0 80 43 00
        E 186 90 43 48
        E 0 90 47 48
        E 20 90 40 48
        E 1900 80 43 00
        E 0 80 47 00
        E 0 80 40 00
        E 0 90 43 48
        E 0 90 47 48
        E 20 90 40 48
        E 240 80 43 00
        E 0 80 47 00
        E 0 80 40 00
        E 440 90 43 48
        E 0 90 47 48
        E 20 90 40 48
        E 240 80 43 00
        E 0 80 47 00
        E 0 80 40 00
        e 514 90 43 48
        e 0 90 47 48
        e 20 90 40 48
        e 240 80 43 00
        e 0 80 47 00
        e 0 80 40 00
        E 186 90 41 48
        E 0 90 45 48
        E 0 90 48 48
        E 1920 80 41 00
        E 0 80 45 00
        E 0 80 48 00
        E 0 90 41 48
        E 0 90 45 48
        E 0 90 48 48
        E 260 80 41 00
        E 0 80 45 00
        E 0 80 48 00
        E 440 90 41 48
        E 0 90 45 48
        E 0 90 48 48
        E 260 80 41 00
        E 0 80 45 00
        E 0 80 48 00
        e 514 90 41 48
        e 0 90 45 48
        e 0 90 48 48
        e 260 80 41 00
        e 0 80 45 00
        e 0 80 48 00
        E 162 90 3e 48
        E 24 90 41 48
        E 0 90 45 48
        E 1896 90 3e 48
        E 24 80 3e 00
        E 0 80 41 00
        E 0 80 45 00
        E 0 90 41 48
        E 0 90 45 48
        E 260 80 3e 00
        E 0 80 41 00
        E 0 80 45 00
        E 416 90 3e 48
        E 24 90 41 48
        E 0 90 45 48
        E 260 80 3e 00
        E 0 80 41 00
        E 0 80 45 00
        e 490 90 3e 48
        e 24 90 41 48
        e 0 90 45 48
        e 260 80 3e 00
        e 0 80 41 00
        e 0 80 45 00
        E 186 b0 7b 00
        CHASE_CC_TAKEOFFS 1
        GUID {040E7AF8-3572-5D91-3C86-797AEE7444D4}
        IGNTEMPO 0 120 4 4
        SRCCOLOR 22
        VELLANE -1 100 0
        CFGEDITVIEW 0 0.045808 45 12 0 -1 0 0 0 0.5
        KEYSNAP 0
        TRACKSEL 0
        EVTFILTER 0 -1 -1 -1 -1 0 0 0 0 -1 -1 -1 -1 0 -1 0 -1 -1
        CFGEDIT 1 1 0 1 0 0 1 1 1 1 1 1 58 171 1253 866 0 0 0 0 0.25 0 0 0 0 0.5 0 0 1 64
      >
    >
    <ITEM
      POSITION 48
      SNAPOFFS 0
      LENGTH 8
      LOOP 1
      ALLTAKES 0
      FADEIN 1 0 0 1 0 0
      FADEOUT 1 0 0 1 0 0
      MUTE 0
      SEL 1
      IGUID {C229A08F-8A56-7E44-9829-0B8D2B245275}
      IID 16
      NAME "01-Recorded MIDI"
      VOLPAN 1 0 1 -1
      SOFFS 0 0
      PLAYRATE 1 1 0 -1 0 0.0021
      CHANMODE 0
      GUID {830FEADB-ADF8-8D9B-2BA0-FA3E62185D6C}
      RECPASS 1
      <SOURCE MIDI
        HASDATA 1 960 QN
        CCINTERP 32
        POOLEDEVTS {B2D1DDDE-D472-8DE4-FE9F-B26C904983B6}
        E 0 90 3c 48
        E 0 90 40 48
        E 0 90 43 48
        E 1920 80 3c 00
        E 0 80 40 00
        E 0 80 43 00
        E 0 90 3c 48
        E 0 90 40 48
        E 0 90 43 48
        E 260 80 3c 00
        E 0 80 40 00
        E 0 80 43 00
        E 440 90 3c 48
        E 0 90 40 48
        E 0 90 43 48
        E 260 80 3c 00
        E 0 80 40 00
        E 0 80 43 00
        e 514 90 3c 48
        e 0 90 40 48
        e 0 90 43 48
        e 260 80 3c 00
        e 0 80 40 00
        e 0 80 43 00
        E 186 90 43 48
        E 0 90 47 48
        E 20 90 40 48
        E 1900 80 43 00
        E 0 80 47 00
        E 0 80 40 00
        E 0 90 43 48
        E 0 90 47 48
        E 20 90 40 48
        E 240 80 43 00
        E 0 80 47 00
        E 0 80 40 00
        E 440 90 43 48
        E 0 90 47 48
        E 20 90 40 48
        E 240 80 43 00
        E 0 80 47 00
        E 0 80 40 00
        e 514 90 43 48
        e 0 90 47 48
        e 20 90 40 48
        e 240 80 43 00
        e 0 80 47 00
        e 0 80 40 00
        E 186 90 41 48
        E 0 90 45 48
        E 0 90 48 48
        E 1920 80 41 00
        E 0 80 45 00
        E 0 80 48 00
        E 0 90 41 48
        E 0 90 45 48
        E 0 90 48 48
        E 260 80 41 00
        E 0 80 45 00
        E 0 80 48 00
        E 440 90 41 48
        E 0 90 45 48
        E 0 90 48 48
        E 260 80 41 00
        E 0 80 45 00
        E 0 80 48 00
        e 514 90 41 48
        e 0 90 45 48
        e 0 90 48 48
        e 260 80 41 00
        e 0 80 45 00
        e 0 80 48 00
        E 162 90 3e 48
        E 24 90 41 48
        E 0 90 45 48
        E 1896 90 3e 48
        E 24 80 3e 00
        E 0 80 41 00
        E 0 80 45 00
        E 0 90 41 48
        E 0 90 45 48
        E 260 80 3e 00
        E 0 80 41 00
        E 0 80 45 00
        E 416 90 3e 48
        E 24 90 41 48
        E 0 90 45 48
        E 260 80 3e 00
        E 0 80 41 00
        E 0 80 45 00
        e 490 90 3e 48
        e 24 90 41 48
        e 0 90 45 48
        e 260 80 3e 00
        e 0 80 41 00
        e 0 80 45 00
        E 186 b0 7b 00
        CHASE_CC_TAKEOFFS 1
        GUID {2338968B-6CF9-9F40-300F-DEB89D3392EA}
        IGNTEMPO 0 120 4 4
        SRCCOLOR 23
        VELLANE -1 100 0
        CFGEDITVIEW 0 0.045808 45 12 0 -1 0 0 0 0.5
        KEYSNAP 0
        TRACKSEL 0
        EVTFILTER 0 -1 -1 -1 -1 0 0 0 0 -1 -1 -1 -1 0 -1 0 -1 -1
        CFGEDIT 1 1 0 1 0 0 1 1 1 1 1 1 58 171 1253 866 0 0 0 0 0.25 0 0 0 0 0.5 0 0 1 64
      >
    >
    <ITEM
      POSITION 56
      SNAPOFFS 0
      LENGTH 8
      LOOP 1
      ALLTAKES 0
      FADEIN 1 0 0 1 0 0
      FADEOUT 1 0 0 1 0 0
      MUTE 0
      SEL 1
      IGUID {64C6B0CC-05D7-2AF9-7BF1-B1441372F202}
      IID 17
      NAME "01-Recorded MIDI"
      VOLPAN 1 0 1 -1
      SOFFS 0 0
      PLAYRATE 1 1 0 -1 0 0.0021
      CHANMODE 0
      GUID {9D457CCB-58DC-CADB-2456-FE619494855B}
      RECPASS 1
      <SOURCE MIDI
        HASDATA 1 960 QN
        CCINTERP 32
        POOLEDEVTS {510ECB6D-7631-3126-AEC1-D13D2A9A393E}
        E 0 90 3c 48
        E 0 90 40 48
        E 0 90 43 48
        E 1920 80 3c 00
        E 0 80 40 00
        E 0 80 43 00
        E 0 90 3c 48
        E 0 90 40 48
        E 0 90 43 48
        E 260 80 3c 00
        E 0 80 40 00
        E 0 80 43 00
        E 440 90 3c 48
        E 0 90 40 48
        E 0 90 43 48
        E 260 80 3c 00
        E 0 80 40 00
        E 0 80 43 00
        e 514 90 3c 48
        e 0 90 40 48
        e 0 90 43 48
        e 260 80 3c 00
        e 0 80 40 00
        e 0 80 43 00
        E 186 90 43 48
        E 0 90 47 48
        E 20 90 40 48
        E 1900 80 43 00
        E 0 80 47 00
        E 0 80 40 00
        E 0 90 43 48
        E 0 90 47 48
        E 20 90 40 48
        E 240 80 43 00
        E 0 80 47 00
        E 0 80 40 00
        E 440 90 43 48
        E 0 90 47 48
        E 20 90 40 48
        E 240 80 43 00
        E 0 80 47 00
        E 0 80 40 00
        e 514 90 43 48
        e 0 90 47 48
        e 20 90 40 48
        e 240 80 43 00
        e 0 80 47 00
        e 0 80 40 00
        E 186 90 41 48
        E 0 90 45 48
        E 0 90 48 48
        E 1920 80 41 00
        E 0 80 45 00
        E 0 80 48 00
        E 0 90 41 48
        E 0 90 45 48
        E 0 90 48 48
        E 260 80 41 00
        E 0 80 45 00
        E 0 80 48 00
        E 440 90 41 48
        E 0 90 45 48
        E 0 90 48 48
        E 260 80 41 00
        E 0 80 45 00
        E 0 80 48 00
        e 514 90 41 48
        e 0 90 45 48
        e 0 90 48 48
        e 260 80 41 00
        e 0 80 45 00
        e 0 80 48 00
        E 162 90 3e 48
        E 24 90 41 48
        E 0 90 45 48
        E 1896 90 3e 48
        E 24 80 3e 00
        E 0 80 41 00
        E 0 80 45 00
        E 0 90 41 48
        E 0 90 45 48
        E 260 80 3e 00
        E 0 80 41 00
        E 0 80 45 00
        E 416 90 3e 48
        E 24 90 41 48
        E 0 90 45 48
        E 260 80 3e 00
        E 0 80 41 00
        E 0 80 45 00
        e 490 90 3e 48
        e 24 90 41 48
        e 0 90 45 48
        e 260 80 3e 00
        e 0 80 41 00
        e 0 80 45 00
        E 186 b0 7b 00
        CHASE_CC_TAKEOFFS 1
        GUID {A64857E2-94F8-0990-20DF-4C1E9B5E6251}
        IGNTEMPO 0 120 4 4
        SRCCOLOR 24
        VELLANE -1 100 0
        CFGEDITVIEW 0 0.045808 45 12 0 -1 0 0 0 0.5
        KEYSNAP 0
        TRACKSEL 0
        EVTFILTER 0 -1 -1 -1 -1 0 0 0 0 -1 -1 -1 -1 0 -1 0 -1 -1
        CFGEDIT 1 1 0 1 0 0 1 1 1 1 1 1 58 171 1253 866 0 0 0 0 0.25 0 0 0 0 0.5 0 0 1 64
      >
    >
    <ITEM
      POSITION 64
      SNAPOFFS 0
      LENGTH 8
      LOOP 1
      ALLTAKES 0
      FADEIN 1 0 0 1 0 0
      FADEOUT 1 0 0 1 0 0
      MUTE 0
      SEL 1
      IGUID {213694DF-E3E5-36F8-11DA-A6CF7EE702CF}
      IID 18
      NAME "01-Recorded MIDI"
      VOLPAN 1 0 1 -1
      SOFFS 0 0
      PLAYRATE 1 1 0 -1 0 0.0021
      CHANMODE 0
      GUID {5D8E338A-D112-3028-2A1B-22FAC5BA93E4}
      RECPASS 1
      <SOURCE MIDI
        HASDATA 1 960 QN
        CCINTERP 32
        POOLEDEVTS {509F0729-CDC3-3310-24F7-2C383EB214C0}
        E 0 90 3c 48
        E 0 90 40 48
        E 0 90 43 48
        E 1920 80 3c 00
        E 0 80 40 00
        E 0 80 43 00
        E 0 90 3c 48
        E 0 90 40 48
        E 0 90 43 48
        E 260 80 3c 00
        E 0 80 40 00
        E 0 80 43 00
        E 440 90 3c 48
        E 0 90 40 48
        E 0 90 43 48
        E 260 80 3c 00
        E 0 80 40 00
        E 0 80 43 00
        e 514 90 3c 48
        e 0 90 40 48
        e 0 90 43 48
        e 260 80 3c 00
        e 0 80 40 00
        e 0 80 43 00
        E 186 90 43 48
        E 0 90 47 48
        E 20 90 40 48
        E 1900 80 43 00
        E 0 80 47 00
        E 0 80 40 00
        E 0 90 43 48
        E 0 90 47 48
        E 20 90 40 48
        E 240 80 43 00
        E 0 80 47 00
        E 0 80 40 00
        E 440 90 43 48
        E 0 90 47 48
        E 20 90 40 48
        E 240 80 43 00
        E 0 80 47 00
        E 0 80 40 00
        e 514 90 43 48
        e 0 90 47 48
        e 20 90 40 48
        e 240 80 43 00
        e 0 80 47 00
        e 0 80 40 00
        E 186 90 41 48
        E 0 90 45 48
        E 0 90 48 48
        E 1920 80 41 00
        E 0 80 45 00
        E 0 80 48 00
        E 0 90 41 48
        E 0 90 45 48
        E 0 90 48 48
        E 260 80 41 00
        E 0 80 45 00
        E 0 80 48 00
        E 440 90 41 48
        E 0 90 45 48
        E 0 90 48 48
        E 260 80 41 00
        E 0 80 45 00
        E 0 80 48 00
        e 514 90 41 48
        e 0 90 45 48
        e 0 90 48 48
        e 260 80 41 00
        e 0 80 45 00
        e 0 80 48 00
        E 162 90 3e 48
        E 24 90 41 48
        E 0 90 45 48
        E 1896 90 3e 48
        E 24 80 3e 00
        E 0 80 41 00
        E 0 80 45 00
        E 0 90 41 48
        E 0 90 45 48
        E 260 80 3e 00
        E 0 80 41 00
        E 0 80 45 00
        E 416 90 3e 48
        E 24 90 41 48
        E 0 90 45 48
        E 260 80 3e 00
        E 0 80 41 00
        E 0 80 45 00
        e 490 90 3e 48
        e 24 90 41 48
        e 0 90 45 48
        e 260 80 3e 00
        e 0 80 41 00
        e 0 80 45 00
        E 186 b0 7b 00
        CHASE_CC_TAKEOFFS 1
        GUID {19362806-85F2-5D9E-E1F9-07BE0CF3D16E}
        IGNTEMPO 0 120 4 4
        SRCCOLOR 25
        VELLANE -1 100 0
        CFGEDITVIEW 0 0.045808 45 12 0 -1 0 0 0 0.5
        KEYSNAP 0
        TRACKSEL 0
        EVTFILTER 0 -1 -1 -1 -1 0 0 0 0 -1 -1 -1 -1 0 -1 0 -1 -1
        CFGEDIT 1 1 0 1 0 0 1 1 1 1 1 1 58 171 1253 866 0 0 0 0 0.25 0 0 0 0 0.5 0 0 1 64
      >
    >
    <ITEM
      POSITION 72
      SNAPOFFS 0
      LENGTH 8
      LOOP 1
      ALLTAKES 0
      FADEIN 1 0 0 1 0 0
      FADEOUT 1 0 0 1 0 0
      MUTE 0
      SEL 1
      IGUID {CD08B603-4F48-E35D-B4F2-055A946AFF04}
      IID 19
      NAME "01-Recorded MIDI"
      VOLPAN 1 0 1 -1
      SOFFS 0 0
      PLAYRATE 1 1 0 -1 0 0.0021
      CHANMODE 0
      GUID {BF32D8C8-72BB-B9B5-52C6-5F6723F586F7}
      RECPASS 1
      <SOURCE MIDI
        HASDATA 1 960 QN
        CCINTERP 32
        POOLEDEVTS {C382EA4F-AACA-5950-B0AD-893BC9862B17}
        E 0 90 3c 48
        E 0 90 40 48
        E 0 90 43 48
        E 1920 80 3c 00
        E 0 80 40 00
        E 0 80 43 00
        E 0 90 3c 48
        E 0 90 40 48
        E 0 90 43 48
        E 260 80 3c 00
        E 0 80 40 00
        E 0 80 43 00
        E 440 90 3c 48
        E 0 90 40 48
        E 0 90 43 48
        E 260 80 3c 00
        E 0 80 40 00
        E 0 80 43 00
        e 514 90 3c 48
        e 0 90 40 48
        e 0 90 43 48
        e 260 80 3c 00
        e 0 80 40 00
        e 0 80 43 00
        E 186 90 43 48
        E 0 90 47 48
        E 20 90 40 48
        E 1900 80 43 00
        E 0 80 47 00
        E 0 80 40 00
        E 0 90 43 48
        E 0 90 47 48
        E 20 90 40 48
        E 240 80 43 00
        E 0 80 47 00
        E 0 80 40 00
        E 440 90 43 48
        E 0 90 47 48
        E 20 90 40 48
        E 240 80 43 00
        E 0 80 47 00
        E 0 80 40 00
        e 514 90 43 48
        e 0 90 47 48
        e 20 90 40 48
        e 240 80 43 00
        e 0 80 47 00
        e 0 80 40 00
        E 186 90 41 48
        E 0 90 45 48
        E 0 90 48 48
        E 1920 80 41 00
        E 0 80 45 00
        E 0 80 48 00
        E 0 90 41 48
        E 0 90 45 48
        E 0 90 48 48
        E 260 80 41 00
        E 0 80 45 00
        E 0 80 48 00
        E 440 90 41 48
        E 0 90 45 48
        E 0 90 48 48
        E 260 80 41 00
        E 0 80 45 00
        E 0 80 48 00
        e 514 90 41 48
        e 0 90 45 48
        e 0 90 48 48
        e 260 80 41 00
        e 0 80 45 00
        e 0 80 48 00
        E 162 90 3e 48
        E 24 90 41 48
        E 0 90 45 48
        E 1896 90 3e 48
        E 24 80 3e 00
        E 0 80 41 00
        E 0 80 45 00
        E 0 90 41 48
        E 0 90 45 48
        E 260 80 3e 00
        E 0 80 41 00
        E 0 80 45 00
        E 416 90 3e 48
        E 24 90 41 48
        E 0 90 45 48
        E 260 80 3e 00
        E 0 80 41 00
        E 0 80 45 00
        e 490 90 3e 48
        e 24 90 41 48
        e 0 90 45 48
        e 260 80 3e 00
        e 0 80 41 00
        e 0 80 45 00
        E 186 b0 7b 00
        CHASE_CC_TAKEOFFS 1
        GUID {6844F8A9-6BE9-023C-4A46-0A676470C99B}
        IGNTEMPO 0 120 4 4
        SRCCOLOR 26
        VELLANE -1 100 0
        CFGEDITVIEW 0 0.045808 45 12 0 -1 0 0 0 0.5
        KEYSNAP 0
        TRACKSEL 0
        EVTFILTER 0 -1 -1 -1 -1 0 0 0 0 -1 -1 -1 -1 0 -1 0 -1 -1
        CFGEDIT 1 1 0 1 0 0 1 1 1 1 1 1 58 171 1253 866 0 0 0 0 0.25 0 0 0 0 0.5 0 0 1 64
      >
    >
    <ITEM
      POSITION 80
      SNAPOFFS 0
      LENGTH 8
      LOOP 1
      ALLTAKES 0
      FADEIN 1 0 0 1 0 0
      FADEOUT 1 0 0 1 0 0
      MUTE 0
      SEL 1
      IGUID {A5D77C16-FAF0-7A30-82C3-E0CF38EA0D89}
      IID 20
      NAME "01-Recorded MIDI"
      VOLPAN 1 0 1 -1
      SOFFS 0 0
      PLAYRATE 1 1 0 -1 0 0.0021
      CHANMODE 0
      GUID {765C6F82-CFC0-8136-5E2D-82AD10574B86}
      RECPASS 1
      <SOURCE MIDI
        HASDATA 1 960 QN
        CCINTERP 32
        POOLEDEVTS {B5ECD348-F4A1-1AC3-9574-5EB69B7C5EB3}
        E 0 90 3c 48
        E 0 90 40 48
        E 0 90 43 48
        E 1920 80 3c 00
        E 0 80 40 00
        E 0 80 43 00
        E 0 90 3c 48
        E 0 90 40 48
        E 0 90 43 48
        E 260 80 3c 00
        E 0 80 40 00
        E 0 80 43 00
        E 440 90 3c 48
        E 0 90 40 48
        E 0 90 43 48
        E 260 80 3c 00
        E 0 80 40 00
        E 0 80 43 00
        e 514 90 3c 48
        e 0 90 40 48
        e 0 90 43 48
        e 260 80 3c 00
        e 0 80 40 00
        e 0 80 43 00
        E 186 90 43 48
        E 0 90 47 48
        E 20 90 40 48
        E 1900 80 43 00
        E 0 80 47 00
        E 0 80 40 00
        E 0 90 43 48
        E 0 90 47 48
        E 20 90 40 48
        E 240 80 43 00
        E 0 80 47 00
        E 0 80 40 00
        E 440 90 43 48
        E 0 90 47 48
        E 20 90 40 48
        E 240 80 43 00
        E 0 80 47 00
        E 0 80 40 00
        e 514 90 43 48
        e 0 90 47 48
        e 20 90 40 48
        e 240 80 43 00
        e 0 80 47 00
        e 0 80 40 00
        E 186 90 41 48
        E 0 90 45 48
        E 0 90 48 48
        E 1920 80 41 00
        E 0 80 45 00
        E 0 80 48 00
        E 0 90 41 48
        E 0 90 45 48
        E 0 90 48 48
        E 260 80 41 00
        E 0 80 45 00
        E 0 80 48 00
        E 440 90 41 48
        E 0 90 45 48
        E 0 90 48 48
        E 260 80 41 00
        E 0 80 45 00
        E 0 80 48 00
        e 514 90 41 48
        e 0 90 45 48
        e 0 90 48 48
        e 260 80 41 00
        e 0 80 45 00
        e 0 80 48 00
        E 162 90 3e 48
        E 24 90 41 48
        E 0 90 45 48
        E 1896 90 3e 48
        E 24 80 3e 00
        E 0 80 41 00
        E 0 80 45 00
        E 0 90 41 48
        E 0 90 45 48
        E 260 80 3e 00
        E 0 80 41 00
        E 0 80 45 00
        E 416 90 3e 48
        E 24 90 41 48
        E 0 90 45 48
        E 260 80 3e 00
        E 0 80 41 00
        E 0 80 45 00
        e 490 90 3e 48
        e 24 90 41 48
        e 0 90 45 48
        e 260 80 3e 00
        e 0 80 41 00
        e 0 80 45 00
        E 186 b0 7b 00
        CHASE_CC_TAKEOFFS 1
        GUID {E611ADB6-4869-6CCA-8E83-3954D5E743B1}
        IGNTEMPO 0 120 4 4
        SRCCOLOR 27
        VELLANE -1 100 0
        CFGEDITVIEW 0 0.045808 45 12 0 -1 0 0 0 0.5
        KEYSNAP 0
        TRACKSEL 0
        EVTFILTER 0 -1 -1 -1 -1 0 0 0 0 -1 -1 -1 -1 0 -1 0 -1 -1
        CFGEDIT 1 1 0 1 0 0 1 1 1 1 1 1 58 171 1253 866 0 0 0 0 0.25 0 0 0 0 0.5 0 0 1 64
      >
    >
    <ITEM
      POSITION 88
      SNAPOFFS 0
      LENGTH 8
      LOOP 1
      ALLTAKES 0
      FADEIN 1 0 0 1 0 0
      FADEOUT 1 0 0 1 0 0
      MUTE 0
      SEL 1
      IGUID {80204E1A-BD7D-E6FA-8F58-EA0E3B976C5A}
      IID 21
      NAME "01-Recorded MIDI"
      VOLPAN 1 0 1 -1
      SOFFS 0 0
      PLAYRATE 1 1 0 -1 0 0.0021
      CHANMODE 0
      GUID {0B1955F3-8C86-8754-D516-4F63CD57349F}
      RECPASS 1
      <SOURCE MIDI
        HASDATA 1 960 QN
        CCINTERP 32
        POOLEDEVTS {72184F6A-20B2-E2FD-EEA9-A7A6FAD17B9C}
        E 0 90 3c 48
        E 0 90 40 48
        E 0 90 43 48
        E 1920 80 3c 00
        E 0 80 40 00
        E 0 80 43 00
        E 0 90 3c 48
        E 0 90 40 48
        E 0 90 43 48
        E 260 80 3c 00
        E 0 80 40 00
        E 0 80 43 00
        E 440 90 3c 48
        E 0 90 40 48
        E 0 90 43 48
        E 260 80 3c 00
        E 0 80 40 00
        E 0 80 43 00
        e 514 90 3c 48
        e 0 90 40 48
        e 0 90 43 48
        e 260 80 3c 00
        e 0 80 40 00
        e 0 80 43 00
        E 186 90 43 48
        E 0 90 47 48
        E 20 90 40 48
        E 1900 80 43 00
        E 0 80 47 00
        E 0 80 40 00
        E 0 90 43 48
        E 0 90 47 48
        E 20 90 40 48
        E 240 80 43 00
        E 0 80 47 00
        E 0 80 40 00
        E 440 90 43 48
        E 0 90 47 48
        E 20 90 40 48
        E 240 80 43 00
        E 0 80 47 00
        E 0 80 40 00
        e 514 90 43 48
        e 0 90 47 48
        e 20 90 40 48
        e 240 80 43 00
        e 0 80 47 00
        e 0 80 40 00
        E 186 90 41 48
        E 0 90 45 48
        E 0 90 48 48
        E 1920 80 41 00
        E 0 80 45 00
        E 0 80 48 00
        E 0 90 41 48
        E 0 90 45 48
        E 0 90 48 48
        E 260 80 41 00
        E 0 80 45 00
        E 0 80 48 00
        E 440 90 41 48
        E 0 90 45 48
        E 0 90 48 48
        E 260 80 41 00
        E 0 80 45 00
        E 0 80 48 00
        e 514 90 41 48
        e 0 90 45 48
        e 0 90 48 48
        e 260 80 41 00
        e 0 80 45 00
        e 0 80 48 00
        E 162 90 3e 48
        E 24 90 41 48
        E 0 90 45 48
        E 1896 90 3e 48
        E 24 80 3e 00
        E 0 80 41 00
        E 0 80 45 00
        E 0 90 41 48
        E 0 90 45 48
        E 260 80 3e 00
        E 0 80 41 00
        E 0 80 45 00
        E 416 90 3e 48
        E 24 90 41 48
        E 0 90 45 48
        E 260 80 3e 00
        E 0 80 41 00
        E 0 80 45 00
        e 490 90 3e 48
        e 24 90 41 48
        e 0 90 45 48
        e 260 80 3e 00
        e 0 80 41 00
        e 0 80 45 00
        E 186 b0 7b 00
        CHASE_CC_TAKEOFFS 1
        GUID {C762B555-17FC-D765-5340-11D3487D2955}
        IGNTEMPO 0 120 4 4
        SRCCOLOR 28
        VELLANE -1 100 0
        CFGEDITVIEW 0 0.045808 45 12 0 -1 0 0 0 0.5
        KEYSNAP 0
        TRACKSEL 0
        EVTFILTER 0 -1 -1 -1 -1 0 0 0 0 -1 -1 -1 -1 0 -1 0 -1 -1
        CFGEDIT 1 1 0 1 0 0 1 1 1 1 1 1 58 171 1253 866 0 0 0 0 0.25 0 0 0 0 0.5 0 0 1 64
      >
    >
  >
  <TRACK {1EC8776F-E040-2927-38C9-3DFC6D3E5694}
    NAME ""
    PEAKCOL 16576
    BEAT -1
    AUTOMODE 0
    VOLPAN 0.00052194381917 0 -1 -1 1
    MUTESOLO 0 0 0
    IPHASE 0
    PLAYOFFS 0 1
    ISBUS 0 0
    BUSCOMP 0 0 0 0 0
    SHOWINMIX 1 0.6667 0.5 1 0.5 0 0 0
    FREEMODE 0
    SEL 0
    REC 0 5056 1 0 0 0 0
    VU 2
    TRACKHEIGHT 21 0 0
    INQ 0 0 0 0.5 100 0 0 100
    NCHAN 2
    FX 0
    TRACKID {1EC8776F-E040-2927-38C9-3DFC6D3E5694}
    PERF 0
    MIDIOUT -1
    MAINSEND 1 0
    <FXCHAIN
      WNDRECT 346 266 902 608
      SHOW 0
      LASTSEL 5
      DOCKED 0
      BYPASS 0 0 0
      <VST "VST: ReaEQ (Cockos)" reaeq.vst.so 0 "" 1919247729<56535472656571726561657100000000> ""
        cWVlcu5e7f4CAAAAAQAAAAAAAAACAAAAAAAAAAIAAAABAAAAAAAAAAIAAAAAAAAAqAAAAAEAAAAAABAA
        IQAAAAQAAAAEAAAAAQAAAEC4Xhmm+DRAAAAAAAAA8D8AAAAAAAAAQAEIAAAAAQAAAAAAAAAAwHJAAAAAAAAA8D8AAAAAAAAAQAEIAAAAAQAAAAAAAAAAQI9AAAAAAAAA
        8D8AAAAAAAAAQAEDAAAAAQAAAAABaCorbdRAAAAAAAAA8D8AAAAAAAAAQAEBAAAAAQAAAAAAAAAAAPA/AAAAAJoCAACcAQAA
        AEhpZ2ggbG93IHBhc3MAEAAAAA==
      >
      PRESETNAME "High low pass"
      FLOATPOS 0 0 0 0
      FXID {B9B59A48-E036-8348-4699-7A1127972C9F}
      WAK 0 0
      BYPASS 0 0 0
      <VST "VSTi: ReaSynth (Cockos)" reasynth.vst.so 0 "" 1919251321<5653547265737972656173796E746800> ""
        eXNlcu9e7f4AAAAAAgAAAAEAAAAAAAAAAgAAAAAAAAA8AAAAAAAAAAAAEAA=
        776t3g3wrd6lm8Q7F7fROgAAAAAAAAAAAAAAAJCNuT3oZ4g9AACAPwAAAD8AAIA/AAAAAAAAAD8AAAAA
        AAAQAAAA
      >
      FLOATPOS 0 0 0 0
      FXID {88D51763-628A-83AE-7547-9FEBC993584B}
      WAK 0 0
      BYPASS 0 0 0
      <JS guitar/amp-model ""
        "Dumble Overdrive Special - Tweed Deluxe.wav" -21.000000 1.000000 0.000000 73.000000 256.000000 - - - - - - - - - - - - - - - - - - - - - - - - - - - - - - - - - - - - - - - - - - - - - - - - - - - - - - - - - - 
      >
      FLOATPOS 0 0 0 0
      FXID {6F5738EA-9976-5437-D3C6-1738F1D783DF}
      WAK 0 0
      BYPASS 0 0 0
      <VST "VST: ReaComp (Cockos)" reacomp.vst.so 0 "" 1919247213<5653547265636D726561636F6D700000> ""
        bWNlcu9e7f4EAAAAAQAAAAAAAAACAAAAAAAAAAQAAAAAAAAACAAAAAAAAAACAAAAAQAAAAAAAAACAAAAAAAAAFQAAAAAAAAAAAAQAA==
        776t3g3wrd5FoYg9/AWpPKWbxDsK16M8AAAAAAAAAAAAAIA/AAAAAAAAAAAAAAAAnNEHMwAAgD8AAAAAzMxMPQAAAAAAAAAAAAAAAAAAgD7YiZ09
        AAAQAAAA
      >
      FLOATPOS 0 0 0 0
      FXID {941E07F4-BC83-9C03-873C-5402D889AC14}
      WAK 0 0
      BYPASS 0 0 0
      <VST "VST: ReaDelay (Cockos)" readelay.vst.so 0 "" 1919247468<5653547265646C72656164656C617900> ""
        bGRlcu5e7f4CAAAAAQAAAAAAAAACAAAAAAAAAAIAAAABAAAAAAAAAAIAAAAAAAAA/AAAAAEAAAAAAAAA
        AAAAAAAAAAAFAAAALAAAAAIAAAAEAAAAAACAPwAAgD8AAAAAAACAPwAAAAAAAIA7vTeGNQAAgD8AAAAAAACAPwAAgD8AAIA/AAAAAAAAAAAAAIA/AAAAAAAAADwAAAAA
        AACAPwAAAAAAAIA/AACAP+87NT8AAIA/AAAAAAAAgD8AAAAAAABAPL03hjUAAIA/AAAAAAAAgD8AAIA/zk0AP6abhD4AAAAAAACAPwAAAAAAAIA8vTeGNQAAgD8AAAAA
        AACAPwAAgD8aqrU+pHA9PwAAAAAAAIA/AAAAAAAAoDy9N4Y1AACAPwAAAAAAAIA/AACAP/npAD4AAAA/
        AHN0b2NrIC0gYmFzaWMgNSB0YXAgcGluZyBwb25nAAAAAAA=
      >
      PRESETNAME "stock - basic 5 tap ping pong"
      FLOATPOS 0 0 0 0
      FXID {E495FE64-D974-8AB1-310C-E07D8AE8DDB9}
      WAK 0 0
      BYPASS 0 0 0
      <VST "VST: ReaVerb (Cockos)" reaverb.vst.so 0 "" 1919252066<56535472657662726561766572620000> ""
        YnZlcu5e7f4CAAAAAQAAAAAAAAACAAAAAAAAAAIAAAABAAAAAAAAAAIAAAAAAAAAcAAAAAEAAAAAAAAA
        AAAAwcybgD4AAIA/AAAAAAAAgD8AAIA/AAAAPwAAgD8AAAAAVkVSQkdFTgAYAAAAAAAAAJHgV0QdrLRA3rK7QsHIjEIAAIC/RUNIT0dFTgAcAAAAy/i2QLUjdUJdzdM/
        osdfP5lRrzyRzYxAnMQAPw==
        AHN3ZWV0dmVyYm8AAAAAAA==
      >
      PRESETNAME sweetverbo
      FLOATPOS 0 0 0 0
      FXID {E0A40EEE-5C77-AB66-6DA3-F42A9409F209}
      WAK 0 0
    >
    <ITEM
      POSITION 0
      SNAPOFFS 0
      LENGTH 8
      LOOP 1
      ALLTAKES 0
      FADEIN 1 0 0 1 0 0
      FADEOUT 1 0 0 1 0 0
      MUTE 0
      SEL 1
      IGUID {9114E406-D0CD-2131-372E-2A8935BE3BAE}
      IID 10
      NAME "01-Recorded MIDI"
      VOLPAN 1 0 1 -1
      SOFFS 0 0
      PLAYRATE 1 1 0 -1 0 0.0021
      CHANMODE 0
      GUID {BE29A85A-4D18-CDBE-0A65-48D614DDD9B0}
      RECPASS 1
      <SOURCE MIDI
        HASDATA 1 960 QN
        CCINTERP 32
        POOLEDEVTS {5CEA5A39-C2B3-FDE5-B5C3-65F791230A49}
        E 0 90 3c 48
        E 0 90 40 48
        E 0 90 43 48
        E 1920 80 3c 00
        E 0 80 40 00
        E 0 80 43 00
        E 0 90 3c 48
        E 0 90 40 48
        E 0 90 43 48
        E 260 80 3c 00
        E 0 80 40 00
        E 0 80 43 00
        E 440 90 3c 48
        E 0 90 40 48
        E 0 90 43 48
        E 260 80 3c 00
        E 0 80 40 00
        E 0 80 43 00
        e 514 90 3c 48
        e 0 90 40 48
        e 0 90 43 48
        e 260 80 3c 00
        e 0 80 40 00
        e 0 80 43 00
        E 186 90 43 48
        E 0 90 47 48
        E 20 90 40 48
        E 1900 80 43 00
        E 0 80 47 00
        E 0 80 40 00
        E 0 90 43 48
        E 0 90 47 48
        E 20 90 40 48
        E 240 80 43 00
        E 0 80 47 00
        E 0 80 40 00
        E 440 90 43 48
        E 0 90 47 48
        E 20 90 40 48
        E 240 80 43 00
        E 0 80 47 00
        E 0 80 40 00
        e 514 90 43 48
        e 0 90 47 48
        e 20 90 40 48
        e 240 80 43 00
        e 0 80 47 00
        e 0 80 40 00
        E 186 90 41 48
        E 0 90 45 48
        E 0 90 48 48
        E 1920 80 41 00
        E 0 80 45 00
        E 0 80 48 00
        E 0 90 41 48
        E 0 90 45 48
        E 0 90 48 48
        E 260 80 41 00
        E 0 80 45 00
        E 0 80 48 00
        E 440 90 41 48
        E 0 90 45 48
        E 0 90 48 48
        E 260 80 41 00
        E 0 80 45 00
        E 0 80 48 00
        e 514 90 41 48
        e 0 90 45 48
        e 0 90 48 48
        e 260 80 41 00
        e 0 80 45 00
        e 0 80 48 00
        E 162 90 3e 48
        E 24 90 41 48
        E 0 90 45 48
        E 1896 90 3e 48
        E 24 80 3e 00
        E 0 80 41 00
        E 0 80 45 00
        E 0 90 41 48
        E 0 90 45 48
        E 260 80 3e 00
        E 0 80 41 00
        E 0 80 45 00
        E 416 90 3e 48
        E 24 90 41 48
        E 0 90 45 48
        E 260 80 3e 00
        E 0 80 41 00
        E 0 80 45 00
        e 490 90 3e 48
        e 24 90 41 48
        e 0 90 45 48
        e 260 80 3e 00
        e 0 80 41 00
        e 0 80 45 00
        E 186 b0 7b 00
        CHASE_CC_TAKEOFFS 1
        GUID {7B9D708B-43E1-C8D4-C4B3-87E2A6C27801}
        IGNTEMPO 0 120 4 4
        SRCCOLOR 17
        VELLANE -1 100 0
        CFGEDITVIEW 0 0.045808 45 12 0 -1 0 0 0 0.5
        KEYSNAP 0
        TRACKSEL 0
        EVTFILTER 0 -1 -1 -1 -1 0 0 0 0 -1 -1 -1 -1 0 -1 0 -1 -1
        CFGEDIT 1 1 0 1 0 0 1 1 1 1 1 1 58 171 1253 866 0 0 0 0 0.25 0 0 0 0 0.5 0 0 1 64
      >
    >
    <ITEM
      POSITION 8
      SNAPOFFS 0
      LENGTH 8
      LOOP 1
      ALLTAKES 0
      FADEIN 1 0 0 1 0 0
      FADEOUT 1 0 0 1 0 0
      MUTE 0
      SEL 1
      IGUID {65ADC946-83D0-357C-227C-90000A8D8E61}
      IID 11
      NAME "01-Recorded MIDI"
      VOLPAN 1 0 1 -1
      SOFFS 0 0
      PLAYRATE 1 1 0 -1 0 0.0021
      CHANMODE 0
      GUID {638E450D-AA68-D636-A280-1B3870D7BD1D}
      RECPASS 1
      <SOURCE MIDI
        HASDATA 1 960 QN
        CCINTERP 32
        POOLEDEVTS {5DB9774F-923D-4F3D-3944-1FCDCA3466E6}
        E 0 90 3c 48
        E 0 90 40 48
        E 0 90 43 48
        E 1920 80 3c 00
        E 0 80 40 00
        E 0 80 43 00
        E 0 90 3c 48
        E 0 90 40 48
        E 0 90 43 48
        E 260 80 3c 00
        E 0 80 40 00
        E 0 80 43 00
        E 440 90 3c 48
        E 0 90 40 48
        E 0 90 43 48
        E 260 80 3c 00
        E 0 80 40 00
        E 0 80 43 00
        e 514 90 3c 48
        e 0 90 40 48
        e 0 90 43 48
        e 260 80 3c 00
        e 0 80 40 00
        e 0 80 43 00
        E 186 90 43 48
        E 0 90 47 48
        E 20 90 40 48
        E 1900 80 43 00
        E 0 80 47 00
        E 0 80 40 00
        E 0 90 43 48
        E 0 90 47 48
        E 20 90 40 48
        E 240 80 43 00
        E 0 80 47 00
        E 0 80 40 00
        E 440 90 43 48
        E 0 90 47 48
        E 20 90 40 48
        E 240 80 43 00
        E 0 80 47 00
        E 0 80 40 00
        e 514 90 43 48
        e 0 90 47 48
        e 20 90 40 48
        e 240 80 43 00
        e 0 80 47 00
        e 0 80 40 00
        E 186 90 41 48
        E 0 90 45 48
        E 0 90 48 48
        E 1920 80 41 00
        E 0 80 45 00
        E 0 80 48 00
        E 0 90 41 48
        E 0 90 45 48
        E 0 90 48 48
        E 260 80 41 00
        E 0 80 45 00
        E 0 80 48 00
        E 440 90 41 48
        E 0 90 45 48
        E 0 90 48 48
        E 260 80 41 00
        E 0 80 45 00
        E 0 80 48 00
        e 514 90 41 48
        e 0 90 45 48
        e 0 90 48 48
        e 260 80 41 00
        e 0 80 45 00
        e 0 80 48 00
        E 162 90 3e 48
        E 24 90 41 48
        E 0 90 45 48
        E 1896 90 3e 48
        E 24 80 3e 00
        E 0 80 41 00
        E 0 80 45 00
        E 0 90 41 48
        E 0 90 45 48
        E 260 80 3e 00
        E 0 80 41 00
        E 0 80 45 00
        E 416 90 3e 48
        E 24 90 41 48
        E 0 90 45 48
        E 260 80 3e 00
        E 0 80 41 00
        E 0 80 45 00
        e 490 90 3e 48
        e 24 90 41 48
        e 0 90 45 48
        e 260 80 3e 00
        e 0 80 41 00
        e 0 80 45 00
        E 186 b0 7b 00
        CHASE_CC_TAKEOFFS 1
        GUID {3131B4E2-B370-E352-A9C5-C8CA31551A86}
        IGNTEMPO 0 120 4 4
        SRCCOLOR 18
        VELLANE -1 100 0
        CFGEDITVIEW 0 0.045808 45 12 0 -1 0 0 0 0.5
        KEYSNAP 0
        TRACKSEL 0
        EVTFILTER 0 -1 -1 -1 -1 0 0 0 0 -1 -1 -1 -1 0 -1 0 -1 -1
        CFGEDIT 1 1 0 1 0 0 1 1 1 1 1 1 58 171 1253 866 0 0 0 0 0.25 0 0 0 0 0.5 0 0 1 64
      >
    >
    <ITEM
      POSITION 16
      SNAPOFFS 0
      LENGTH 8
      LOOP 1
      ALLTAKES 0
      FADEIN 1 0 0 1 0 0
      FADEOUT 1 0 0 1 0 0
      MUTE 0
      SEL 1
      IGUID {D2F67215-6EED-10B7-473F-93D18F6791B2}
      IID 12
      NAME "01-Recorded MIDI"
      VOLPAN 1 0 1 -1
      SOFFS 0 0
      PLAYRATE 1 1 0 -1 0 0.0021
      CHANMODE 0
      GUID {D7A6120C-BFA8-77EA-F6E1-9E7D701497A3}
      RECPASS 1
      <SOURCE MIDI
        HASDATA 1 960 QN
        CCINTERP 32
        POOLEDEVTS {F934DE6C-E684-6B8A-FC06-FAFA837EEF90}
        E 0 90 3c 48
        E 0 90 40 48
        E 0 90 43 48
        E 1920 80 3c 00
        E 0 80 40 00
        E 0 80 43 00
        E 0 90 3c 48
        E 0 90 40 48
        E 0 90 43 48
        E 260 80 3c 00
        E 0 80 40 00
        E 0 80 43 00
        E 440 90 3c 48
        E 0 90 40 48
        E 0 90 43 48
        E 260 80 3c 00
        E 0 80 40 00
        E 0 80 43 00
        e 514 90 3c 48
        e 0 90 40 48
        e 0 90 43 48
        e 260 80 3c 00
        e 0 80 40 00
        e 0 80 43 00
        E 186 90 43 48
        E 0 90 47 48
        E 20 90 40 48
        E 1900 80 43 00
        E 0 80 47 00
        E 0 80 40 00
        E 0 90 43 48
        E 0 90 47 48
        E 20 90 40 48
        E 240 80 43 00
        E 0 80 47 00
        E 0 80 40 00
        E 440 90 43 48
        E 0 90 47 48
        E 20 90 40 48
        E 240 80 43 00
        E 0 80 47 00
        E 0 80 40 00
        e 514 90 43 48
        e 0 90 47 48
        e 20 90 40 48
        e 240 80 43 00
        e 0 80 47 00
        e 0 80 40 00
        E 186 90 41 48
        E 0 90 45 48
        E 0 90 48 48
        E 1920 80 41 00
        E 0 80 45 00
        E 0 80 48 00
        E 0 90 41 48
        E 0 90 45 48
        E 0 90 48 48
        E 260 80 41 00
        E 0 80 45 00
        E 0 80 48 00
        E 440 90 41 48
        E 0 90 45 48
        E 0 90 48 48
        E 260 80 41 00
        E 0 80 45 00
        E 0 80 48 00
        e 514 90 41 48
        e 0 90 45 48
        e 0 90 48 48
        e 260 80 41 00
        e 0 80 45 00
        e 0 80 48 00
        E 162 90 3e 48
        E 24 90 41 48
        E 0 90 45 48
        E 1896 90 3e 48
        E 24 80 3e 00
        E 0 80 41 00
        E 0 80 45 00
        E 0 90 41 48
        E 0 90 45 48
        E 260 80 3e 00
        E 0 80 41 00
        E 0 80 45 00
        E 416 90 3e 48
        E 24 90 41 48
        E 0 90 45 48
        E 260 80 3e 00
        E 0 80 41 00
        E 0 80 45 00
        e 490 90 3e 48
        e 24 90 41 48
        e 0 90 45 48
        e 260 80 3e 00
        e 0 80 41 00
        e 0 80 45 00
        E 186 b0 7b 00
        CHASE_CC_TAKEOFFS 1
        GUID {48C567A2-895C-FB9B-FDBA-0ADB7004ABF3}
        IGNTEMPO 0 120 4 4
        SRCCOLOR 19
        VELLANE -1 100 0
        CFGEDITVIEW 0 0.045808 45 12 0 -1 0 0 0 0.5
        KEYSNAP 0
        TRACKSEL 0
        EVTFILTER 0 -1 -1 -1 -1 0 0 0 0 -1 -1 -1 -1 0 -1 0 -1 -1
        CFGEDIT 1 1 0 1 0 0 1 1 1 1 1 1 58 171 1253 866 0 0 0 0 0.25 0 0 0 0 0.5 0 0 1 64
      >
    >
    <ITEM
      POSITION 24
      SNAPOFFS 0
      LENGTH 8
      LOOP 1
      ALLTAKES 0
      FADEIN 1 0 0 1 0 0
      FADEOUT 1 0 0 1 0 0
      MUTE 0
      SEL 1
      IGUID {9188D91A-8CAA-4092-6C0B-A8B904CB0CBB}
      IID 13
      NAME "01-Recorded MIDI"
      VOLPAN 1 0 1 -1
      SOFFS 0 0
      PLAYRATE 1 1 0 -1 0 0.0021
      CHANMODE 0
      GUID {736F3DBE-2A15-283D-7165-880276E66AC6}
      RECPASS 1
      <SOURCE MIDI
        HASDATA 1 960 QN
        CCINTERP 32
        POOLEDEVTS {260AEFB2-9D5F-FAD0-CCC7-1CA5771BC358}
        E 0 90 3c 48
        E 0 90 40 48
        E 0 90 43 48
        E 1920 80 3c 00
        E 0 80 40 00
        E 0 80 43 00
        E 0 90 3c 48
        E 0 90 40 48
        E 0 90 43 48
        E 260 80 3c 00
        E 0 80 40 00
        E 0 80 43 00
        E 440 90 3c 48
        E 0 90 40 48
        E 0 90 43 48
        E 260 80 3c 00
        E 0 80 40 00
        E 0 80 43 00
        e 514 90 3c 48
        e 0 90 40 48
        e 0 90 43 48
        e 260 80 3c 00
        e 0 80 40 00
        e 0 80 43 00
        E 186 90 43 48
        E 0 90 47 48
        E 20 90 40 48
        E 1900 80 43 00
        E 0 80 47 00
        E 0 80 40 00
        E 0 90 43 48
        E 0 90 47 48
        E 20 90 40 48
        E 240 80 43 00
        E 0 80 47 00
        E 0 80 40 00
        E 440 90 43 48
        E 0 90 47 48
        E 20 90 40 48
        E 240 80 43 00
        E 0 80 47 00
        E 0 80 40 00
        e 514 90 43 48
        e 0 90 47 48
        e 20 90 40 48
        e 240 80 43 00
        e 0 80 47 00
        e 0 80 40 00
        E 186 90 41 48
        E 0 90 45 48
        E 0 90 48 48
        E 1920 80 41 00
        E 0 80 45 00
        E 0 80 48 00
        E 0 90 41 48
        E 0 90 45 48
        E 0 90 48 48
        E 260 80 41 00
        E 0 80 45 00
        E 0 80 48 00
        E 440 90 41 48
        E 0 90 45 48
        E 0 90 48 48
        E 260 80 41 00
        E 0 80 45 00
        E 0 80 48 00
        e 514 90 41 48
        e 0 90 45 48
        e 0 90 48 48
        e 260 80 41 00
        e 0 80 45 00
        e 0 80 48 00
        E 162 90 3e 48
        E 24 90 41 48
        E 0 90 45 48
        E 1896 90 3e 48
        E 24 80 3e 00
        E 0 80 41 00
        E 0 80 45 00
        E 0 90 41 48
        E 0 90 45 48
        E 260 80 3e 00
        E 0 80 41 00
        E 0 80 45 00
        E 416 90 3e 48
        E 24 90 41 48
        E 0 90 45 48
        E 260 80 3e 00
        E 0 80 41 00
        E 0 80 45 00
        e 490 90 3e 48
        e 24 90 41 48
        e 0 90 45 48
        e 260 80 3e 00
        e 0 80 41 00
        e 0 80 45 00
        E 186 b0 7b 00
        CHASE_CC_TAKEOFFS 1
        GUID {1DE38800-E2A1-41B5-9C8C-3291891093B1}
        IGNTEMPO 0 120 4 4
        SRCCOLOR 20
        VELLANE -1 100 0
        CFGEDITVIEW 0 0.045808 45 12 0 -1 0 0 0 0.5
        KEYSNAP 0
        TRACKSEL 0
        EVTFILTER 0 -1 -1 -1 -1 0 0 0 0 -1 -1 -1 -1 0 -1 0 -1 -1
        CFGEDIT 1 1 0 1 0 0 1 1 1 1 1 1 58 171 1253 866 0 0 0 0 0.25 0 0 0 0 0.5 0 0 1 64
      >
    >
    <ITEM
      POSITION 32
      SNAPOFFS 0
      LENGTH 8
      LOOP 1
      ALLTAKES 0
      FADEIN 1 0 0 1 0 0
      FADEOUT 1 0 0 1 0 0
      MUTE 0
      SEL 1
      IGUID {7CD5B569-2F06-7C32-5F85-8ED42B1C9E56}
      IID 14
      NAME "01-Recorded MIDI"
      VOLPAN 1 0 1 -1
      SOFFS 0 0
      PLAYRATE 1 1 0 -1 0 0.0021
      CHANMODE 0
      GUID {289993E1-5DEB-8126-C055-45C3705F634A}
      RECPASS 1
      <SOURCE MIDI
        HASDATA 1 960 QN
        CCINTERP 32
        POOLEDEVTS {EC4D9530-95B1-75A8-4DCA-D6915CF6224F}
        E 0 90 3c 48
        E 0 90 40 48
        E 0 90 43 48
        E 1920 80 3c 00
        E 0 80 40 00
        E 0 80 43 00
        E 0 90 3c 48
        E 0 90 40 48
        E 0 90 43 48
        E 260 80 3c 00
        E 0 80 40 00
        E 0 80 43 00
        E 440 90 3c 48
        E 0 90 40 48
        E 0 90 43 48
        E 260 80 3c 00
        E 0 80 40 00
        E 0 80 43 00
        e 514 90 3c 48
        e 0 90 40 48
        e 0 90 43 48
        e 260 80 3c 00
        e 0 80 40 00
        e 0 80 43 00
        E 186 90 43 48
        E 0 90 47 48
        E 20 90 40 48
        E 1900 80 43 00
        E 0 80 47 00
        E 0 80 40 00
        E 0 90 43 48
        E 0 90 47 48
        E 20 90 40 48
        E 240 80 43 00
        E 0 80 47 00
        E 0 80 40 00
        E 440 90 43 48
        E 0 90 47 48
        E 20 90 40 48
        E 240 80 43 00
        E 0 80 47 00
        E 0 80 40 00
        e 514 90 43 48
        e 0 90 47 48
        e 20 90 40 48
        e 240 80 43 00
        e 0 80 47 00
        e 0 80 40 00
        E 186 90 41 48
        E 0 90 45 48
        E 0 90 48 48
        E 1920 80 41 00
        E 0 80 45 00
        E 0 80 48 00
        E 0 90 41 48
        E 0 90 45 48
        E 0 90 48 48
        E 260 80 41 00
        E 0 80 45 00
        E 0 80 48 00
        E 440 90 41 48
        E 0 90 45 48
        E 0 90 48 48
        E 260 80 41 00
        E 0 80 45 00
        E 0 80 48 00
        e 514 90 41 48
        e 0 90 45 48
        e 0 90 48 48
        e 260 80 41 00
        e 0 80 45 00
        e 0 80 48 00
        E 162 90 3e 48
        E 24 90 41 48
        E 0 90 45 48
        E 1896 90 3e 48
        E 24 80 3e 00
        E 0 80 41 00
        E 0 80 45 00
        E 0 90 41 48
        E 0 90 45 48
        E 260 80 3e 00
        E 0 80 41 00
        E 0 80 45 00
        E 416 90 3e 48
        E 24 90 41 48
        E 0 90 45 48
        E 260 80 3e 00
        E 0 80 41 00
        E 0 80 45 00
        e 490 90 3e 48
        e 24 90 41 48
        e 0 90 45 48
        e 260 80 3e 00
        e 0 80 41 00
        e 0 80 45 00
        E 186 b0 7b 00
        CHASE_CC_TAKEOFFS 1
        GUID {0C3271F4-E233-9088-9B25-A722FAE7C579}
        IGNTEMPO 0 120 4 4
        SRCCOLOR 21
        VELLANE -1 100 0
        CFGEDITVIEW 0 0.045808 45 12 0 -1 0 0 0 0.5
        KEYSNAP 0
        TRACKSEL 0
        EVTFILTER 0 -1 -1 -1 -1 0 0 0 0 -1 -1 -1 -1 0 -1 0 -1 -1
        CFGEDIT 1 1 0 1 0 0 1 1 1 1 1 1 58 171 1253 866 0 0 0 0 0.25 0 0 0 0 0.5 0 0 1 64
      >
    >
    <ITEM
      POSITION 40
      SNAPOFFS 0
      LENGTH 8
      LOOP 1
      ALLTAKES 0
      FADEIN 1 0 0 1 0 0
      FADEOUT 1 0 0 1 0 0
      MUTE 0
      SEL 1
      IGUID {61C612C6-ADDF-F575-9303-E83F08E347AD}
      IID 15
      NAME "01-Recorded MIDI"
      VOLPAN 1 0 1 -1
      SOFFS 0 0
      PLAYRATE 1 1 0 -1 0 0.0021
      CHANMODE 0
      GUID {9B43BD83-2011-30BF-BA49-5FF508A8DCB6}
      RECPASS 1
      <SOURCE MIDI
        HASDATA 1 960 QN
        CCINTERP 32
        POOLEDEVTS {A6C464B0-7AA0-BA60-5D93-7007CB19A0BA}
        E 0 90 3c 48
        E 0 90 40 48
        E 0 90 43 48
        E 1920 80 3c 00
        E 0 80 40 00
        E 0 80 43 00
        E 0 90 3c 48
        E 0 90 40 48
        E 0 90 43 48
        E 260 80 3c 00
        E 0 80 40 00
        E 0 80 43 00
        E 440 90 3c 48
        E 0 90 40 48
        E 0 90 43 48
        E 260 80 3c 00
        E 0 80 40 00
        E 0 80 43 00
        e 514 90 3c 48
        e 0 90 40 48
        e 0 90 43 48
        e 260 80 3c 00
        e 0 80 40 00
        e 0 80 43 00
        E 186 90 43 48
        E 0 90 47 48
        E 20 90 40 48
        E 1900 80 43 00
        E 0 80 47 00
        E 0 80 40 00
        E 0 90 43 48
        E 0 90 47 48
        E 20 90 40 48
        E 240 80 43 00
        E 0 80 47 00
        E 0 80 40 00
        E 440 90 43 48
        E 0 90 47 48
        E 20 90 40 48
        E 240 80 43 00
        E 0 80 47 00
        E 0 80 40 00
        e 514 90 43 48
        e 0 90 47 48
        e 20 90 40 48
        e 240 80 43 00
        e 0 80 47 00
        e 0 80 40 00
        E 186 90 41 48
        E 0 90 45 48
        E 0 90 48 48
        E 1920 80 41 00
        E 0 80 45 00
        E 0 80 48 00
        E 0 90 41 48
        E 0 90 45 48
        E 0 90 48 48
        E 260 80 41 00
        E 0 80 45 00
        E 0 80 48 00
        E 440 90 41 48
        E 0 90 45 48
        E 0 90 48 48
        E 260 80 41 00
        E 0 80 45 00
        E 0 80 48 00
        e 514 90 41 48
        e 0 90 45 48
        e 0 90 48 48
        e 260 80 41 00
        e 0 80 45 00
        e 0 80 48 00
        E 162 90 3e 48
        E 24 90 41 48
        E 0 90 45 48
        E 1896 90 3e 48
        E 24 80 3e 00
        E 0 80 41 00
        E 0 80 45 00
        E 0 90 41 48
        E 0 90 45 48
        E 260 80 3e 00
        E 0 80 41 00
        E 0 80 45 00
        E 416 90 3e 48
        E 24 90 41 48
        E 0 90 45 48
        E 260 80 3e 00
        E 0 80 41 00
        E 0 80 45 00
        e 490 90 3e 48
        e 24 90 41 48
        e 0 90 45 48
        e 260 80 3e 00
        e 0 80 41 00
        e 0 80 45 00
        E 186 b0 7b 00
        CHASE_CC_TAKEOFFS 1
        GUID {040E7AF8-3572-5D91-3C86-797AEE7444D4}
        IGNTEMPO 0 120 4 4
        SRCCOLOR 22
        VELLANE -1 100 0
        CFGEDITVIEW 0 0.045808 45 12 0 -1 0 0 0 0.5
        KEYSNAP 0
        TRACKSEL 0
        EVTFILTER 0 -1 -1 -1 -1 0 0 0 0 -1 -1 -1 -1 0 -1 0 -1 -1
        CFGEDIT 1 1 0 1 0 0 1 1 1 1 1 1 58 171 1253 866 0 0 0 0 0.25 0 0 0 0 0.5 0 0 1 64
      >
    >
    <ITEM
      POSITION 48
      SNAPOFFS 0
      LENGTH 8
      LOOP 1
      ALLTAKES 0
      FADEIN 1 0 0 1 0 0
      FADEOUT 1 0 0 1 0 0
      MUTE 0
      SEL 1
      IGUID {E4DA3464-D026-4097-9EF2-35898B73BEAB}
      IID 16
      NAME "01-Recorded MIDI"
      VOLPAN 1 0 1 -1
      SOFFS 0 0
      PLAYRATE 1 1 0 -1 0 0.0021
      CHANMODE 0
      GUID {E7DA602A-A16D-EFA5-F5B2-5406B397BD8C}
      RECPASS 1
      <SOURCE MIDI
        HASDATA 1 960 QN
        CCINTERP 32
        POOLEDEVTS {63D540D2-0C95-F378-8BBE-99464E56622B}
        E 0 90 3c 48
        E 0 90 40 48
        E 0 90 43 48
        E 1920 80 3c 00
        E 0 80 40 00
        E 0 80 43 00
        E 0 90 3c 48
        E 0 90 40 48
        E 0 90 43 48
        E 260 80 3c 00
        E 0 80 40 00
        E 0 80 43 00
        E 440 90 3c 48
        E 0 90 40 48
        E 0 90 43 48
        E 260 80 3c 00
        E 0 80 40 00
        E 0 80 43 00
        e 514 90 3c 48
        e 0 90 40 48
        e 0 90 43 48
        e 260 80 3c 00
        e 0 80 40 00
        e 0 80 43 00
        E 186 90 43 48
        E 0 90 47 48
        E 20 90 40 48
        E 1900 80 43 00
        E 0 80 47 00
        E 0 80 40 00
        E 0 90 43 48
        E 0 90 47 48
        E 20 90 40 48
        E 240 80 43 00
        E 0 80 47 00
        E 0 80 40 00
        E 440 90 43 48
        E 0 90 47 48
        E 20 90 40 48
        E 240 80 43 00
        E 0 80 47 00
        E 0 80 40 00
        e 514 90 43 48
        e 0 90 47 48
        e 20 90 40 48
        e 240 80 43 00
        e 0 80 47 00
        e 0 80 40 00
        E 186 90 41 48
        E 0 90 45 48
        E 0 90 48 48
        E 1920 80 41 00
        E 0 80 45 00
        E 0 80 48 00
        E 0 90 41 48
        E 0 90 45 48
        E 0 90 48 48
        E 260 80 41 00
        E 0 80 45 00
        E 0 80 48 00
        E 440 90 41 48
        E 0 90 45 48
        E 0 90 48 48
        E 260 80 41 00
        E 0 80 45 00
        E 0 80 48 00
        e 514 90 41 48
        e 0 90 45 48
        e 0 90 48 48
        e 260 80 41 00
        e 0 80 45 00
        e 0 80 48 00
        E 162 90 3e 48
        E 24 90 41 48
        E 0 90 45 48
        E 1896 90 3e 48
        E 24 80 3e 00
        E 0 80 41 00
        E 0 80 45 00
        E 0 90 41 48
        E 0 90 45 48
        E 260 80 3e 00
        E 0 80 41 00
        E 0 80 45 00
        E 416 90 3e 48
        E 24 90 41 48
        E 0 90 45 48
        E 260 80 3e 00
        E 0 80 41 00
        E 0 80 45 00
        e 490 90 3e 48
        e 24 90 41 48
        e 0 90 45 48
        e 260 80 3e 00
        e 0 80 41 00
        e 0 80 45 00
        E 186 b0 7b 00
        CHASE_CC_TAKEOFFS 1
        GUID {2338968B-6CF9-9F40-300F-DEB89D3392EA}
        IGNTEMPO 0 120 4 4
        SRCCOLOR 23
        VELLANE -1 100 0
        CFGEDITVIEW 0 0.045808 45 12 0 -1 0 0 0 0.5
        KEYSNAP 0
        TRACKSEL 0
        EVTFILTER 0 -1 -1 -1 -1 0 0 0 0 -1 -1 -1 -1 0 -1 0 -1 -1
        CFGEDIT 1 1 0 1 0 0 1 1 1 1 1 1 58 171 1253 866 0 0 0 0 0.25 0 0 0 0 0.5 0 0 1 64
      >
    >
    <ITEM
      POSITION 56
      SNAPOFFS 0
      LENGTH 8
      LOOP 1
      ALLTAKES 0
      FADEIN 1 0 0 1 0 0
      FADEOUT 1 0 0 1 0 0
      MUTE 0
      SEL 1
      IGUID {436B1345-159D-BFB1-5263-63C7AAE08C53}
      IID 17
      NAME "01-Recorded MIDI"
      VOLPAN 1 0 1 -1
      SOFFS 0 0
      PLAYRATE 1 1 0 -1 0 0.0021
      CHANMODE 0
      GUID {4D3525D9-DF18-1C6B-EED0-88EA0E44DF03}
      RECPASS 1
      <SOURCE MIDI
        HASDATA 1 960 QN
        CCINTERP 32
        POOLEDEVTS {A2B75B20-B81D-D50D-006B-0CA593597B0E}
        E 0 90 3c 48
        E 0 90 40 48
        E 0 90 43 48
        E 1920 80 3c 00
        E 0 80 40 00
        E 0 80 43 00
        E 0 90 3c 48
        E 0 90 40 48
        E 0 90 43 48
        E 260 80 3c 00
        E 0 80 40 00
        E 0 80 43 00
        E 440 90 3c 48
        E 0 90 40 48
        E 0 90 43 48
        E 260 80 3c 00
        E 0 80 40 00
        E 0 80 43 00
        e 514 90 3c 48
        e 0 90 40 48
        e 0 90 43 48
        e 260 80 3c 00
        e 0 80 40 00
        e 0 80 43 00
        E 186 90 43 48
        E 0 90 47 48
        E 20 90 40 48
        E 1900 80 43 00
        E 0 80 47 00
        E 0 80 40 00
        E 0 90 43 48
        E 0 90 47 48
        E 20 90 40 48
        E 240 80 43 00
        E 0 80 47 00
        E 0 80 40 00
        E 440 90 43 48
        E 0 90 47 48
        E 20 90 40 48
        E 240 80 43 00
        E 0 80 47 00
        E 0 80 40 00
        e 514 90 43 48
        e 0 90 47 48
        e 20 90 40 48
        e 240 80 43 00
        e 0 80 47 00
        e 0 80 40 00
        E 186 90 41 48
        E 0 90 45 48
        E 0 90 48 48
        E 1920 80 41 00
        E 0 80 45 00
        E 0 80 48 00
        E 0 90 41 48
        E 0 90 45 48
        E 0 90 48 48
        E 260 80 41 00
        E 0 80 45 00
        E 0 80 48 00
        E 440 90 41 48
        E 0 90 45 48
        E 0 90 48 48
        E 260 80 41 00
        E 0 80 45 00
        E 0 80 48 00
        e 514 90 41 48
        e 0 90 45 48
        e 0 90 48 48
        e 260 80 41 00
        e 0 80 45 00
        e 0 80 48 00
        E 162 90 3e 48
        E 24 90 41 48
        E 0 90 45 48
        E 1896 90 3e 48
        E 24 80 3e 00
        E 0 80 41 00
        E 0 80 45 00
        E 0 90 41 48
        E 0 90 45 48
        E 260 80 3e 00
        E 0 80 41 00
        E 0 80 45 00
        E 416 90 3e 48
        E 24 90 41 48
        E 0 90 45 48
        E 260 80 3e 00
        E 0 80 41 00
        E 0 80 45 00
        e 490 90 3e 48
        e 24 90 41 48
        e 0 90 45 48
        e 260 80 3e 00
        e 0 80 41 00
        e 0 80 45 00
        E 186 b0 7b 00
        CHASE_CC_TAKEOFFS 1
        GUID {A64857E2-94F8-0990-20DF-4C1E9B5E6251}
        IGNTEMPO 0 120 4 4
        SRCCOLOR 24
        VELLANE -1 100 0
        CFGEDITVIEW 0 0.045808 45 12 0 -1 0 0 0 0.5
        KEYSNAP 0
        TRACKSEL 0
        EVTFILTER 0 -1 -1 -1 -1 0 0 0 0 -1 -1 -1 -1 0 -1 0 -1 -1
        CFGEDIT 1 1 0 1 0 0 1 1 1 1 1 1 58 171 1253 866 0 0 0 0 0.25 0 0 0 0 0.5 0 0 1 64
      >
    >
    <ITEM
      POSITION 64
      SNAPOFFS 0
      LENGTH 8
      LOOP 1
      ALLTAKES 0
      FADEIN 1 0 0 1 0 0
      FADEOUT 1 0 0 1 0 0
      MUTE 0
      SEL 1
      IGUID {C4C240B4-A5CB-814D-7138-3AA21142AFA7}
      IID 18
      NAME "01-Recorded MIDI"
      VOLPAN 1 0 1 -1
      SOFFS 0 0
      PLAYRATE 1 1 0 -1 0 0.0021
      CHANMODE 0
      GUID {03EAA72D-E4F5-BE76-E43D-490844CB4F66}
      RECPASS 1
      <SOURCE MIDI
        HASDATA 1 960 QN
        CCINTERP 32
        POOLEDEVTS {F2E175BC-7A6A-D83F-7EF7-49C8B0C235DF}
        E 0 90 3c 48
        E 0 90 40 48
        E 0 90 43 48
        E 1920 80 3c 00
        E 0 80 40 00
        E 0 80 43 00
        E 0 90 3c 48
        E 0 90 40 48
        E 0 90 43 48
        E 260 80 3c 00
        E 0 80 40 00
        E 0 80 43 00
        E 440 90 3c 48
        E 0 90 40 48
        E 0 90 43 48
        E 260 80 3c 00
        E 0 80 40 00
        E 0 80 43 00
        e 514 90 3c 48
        e 0 90 40 48
        e 0 90 43 48
        e 260 80 3c 00
        e 0 80 40 00
        e 0 80 43 00
        E 186 90 43 48
        E 0 90 47 48
        E 20 90 40 48
        E 1900 80 43 00
        E 0 80 47 00
        E 0 80 40 00
        E 0 90 43 48
        E 0 90 47 48
        E 20 90 40 48
        E 240 80 43 00
        E 0 80 47 00
        E 0 80 40 00
        E 440 90 43 48
        E 0 90 47 48
        E 20 90 40 48
        E 240 80 43 00
        E 0 80 47 00
        E 0 80 40 00
        e 514 90 43 48
        e 0 90 47 48
        e 20 90 40 48
        e 240 80 43 00
        e 0 80 47 00
        e 0 80 40 00
        E 186 90 41 48
        E 0 90 45 48
        E 0 90 48 48
        E 1920 80 41 00
        E 0 80 45 00
        E 0 80 48 00
        E 0 90 41 48
        E 0 90 45 48
        E 0 90 48 48
        E 260 80 41 00
        E 0 80 45 00
        E 0 80 48 00
        E 440 90 41 48
        E 0 90 45 48
        E 0 90 48 48
        E 260 80 41 00
        E 0 80 45 00
        E 0 80 48 00
        e 514 90 41 48
        e 0 90 45 48
        e 0 90 48 48
        e 260 80 41 00
        e 0 80 45 00
        e 0 80 48 00
        E 162 90 3e 48
        E 24 90 41 48
        E 0 90 45 48
        E 1896 90 3e 48
        E 24 80 3e 00
        E 0 80 41 00
        E 0 80 45 00
        E 0 90 41 48
        E 0 90 45 48
        E 260 80 3e 00
        E 0 80 41 00
        E 0 80 45 00
        E 416 90 3e 48
        E 24 90 41 48
        E 0 90 45 48
        E 260 80 3e 00
        E 0 80 41 00
        E 0 80 45 00
        e 490 90 3e 48
        e 24 90 41 48
        e 0 90 45 48
        e 260 80 3e 00
        e 0 80 41 00
        e 0 80 45 00
        E 186 b0 7b 00
        CHASE_CC_TAKEOFFS 1
        GUID {19362806-85F2-5D9E-E1F9-07BE0CF3D16E}
        IGNTEMPO 0 120 4 4
        SRCCOLOR 25
        VELLANE -1 100 0
        CFGEDITVIEW 0 0.045808 45 12 0 -1 0 0 0 0.5
        KEYSNAP 0
        TRACKSEL 0
        EVTFILTER 0 -1 -1 -1 -1 0 0 0 0 -1 -1 -1 -1 0 -1 0 -1 -1
        CFGEDIT 1 1 0 1 0 0 1 1 1 1 1 1 58 171 1253 866 0 0 0 0 0.25 0 0 0 0 0.5 0 0 1 64
      >
    >
    <ITEM
      POSITION 72
      SNAPOFFS 0
      LENGTH 8
      LOOP 1
      ALLTAKES 0
      FADEIN 1 0 0 1 0 0
      FADEOUT 1 0 0 1 0 0
      MUTE 0
      SEL 1
      IGUID {ABEDCEE8-6AAA-AF69-46C7-A2E0E2D08666}
      IID 19
      NAME "01-Recorded MIDI"
      VOLPAN 1 0 1 -1
      SOFFS 0 0
      PLAYRATE 1 1 0 -1 0 0.0021
      CHANMODE 0
      GUID {7D5FEAAC-C328-1561-1235-4FFFC1665915}
      RECPASS 1
      <SOURCE MIDI
        HASDATA 1 960 QN
        CCINTERP 32
        POOLEDEVTS {EE708B7D-3902-BDD3-F655-25C76938099E}
        E 0 90 3c 48
        E 0 90 40 48
        E 0 90 43 48
        E 1920 80 3c 00
        E 0 80 40 00
        E 0 80 43 00
        E 0 90 3c 48
        E 0 90 40 48
        E 0 90 43 48
        E 260 80 3c 00
        E 0 80 40 00
        E 0 80 43 00
        E 440 90 3c 48
        E 0 90 40 48
        E 0 90 43 48
        E 260 80 3c 00
        E 0 80 40 00
        E 0 80 43 00
        e 514 90 3c 48
        e 0 90 40 48
        e 0 90 43 48
        e 260 80 3c 00
        e 0 80 40 00
        e 0 80 43 00
        E 186 90 43 48
        E 0 90 47 48
        E 20 90 40 48
        E 1900 80 43 00
        E 0 80 47 00
        E 0 80 40 00
        E 0 90 43 48
        E 0 90 47 48
        E 20 90 40 48
        E 240 80 43 00
        E 0 80 47 00
        E 0 80 40 00
        E 440 90 43 48
        E 0 90 47 48
        E 20 90 40 48
        E 240 80 43 00
        E 0 80 47 00
        E 0 80 40 00
        e 514 90 43 48
        e 0 90 47 48
        e 20 90 40 48
        e 240 80 43 00
        e 0 80 47 00
        e 0 80 40 00
        E 186 90 41 48
        E 0 90 45 48
        E 0 90 48 48
        E 1920 80 41 00
        E 0 80 45 00
        E 0 80 48 00
        E 0 90 41 48
        E 0 90 45 48
        E 0 90 48 48
        E 260 80 41 00
        E 0 80 45 00
        E 0 80 48 00
        E 440 90 41 48
        E 0 90 45 48
        E 0 90 48 48
        E 260 80 41 00
        E 0 80 45 00
        E 0 80 48 00
        e 514 90 41 48
        e 0 90 45 48
        e 0 90 48 48
        e 260 80 41 00
        e 0 80 45 00
        e 0 80 48 00
        E 162 90 3e 48
        E 24 90 41 48
        E 0 90 45 48
        E 1896 90 3e 48
        E 24 80 3e 00
        E 0 80 41 00
        E 0 80 45 00
        E 0 90 41 48
        E 0 90 45 48
        E 260 80 3e 00
        E 0 80 41 00
        E 0 80 45 00
        E 416 90 3e 48
        E 24 90 41 48
        E 0 90 45 48
        E 260 80 3e 00
        E 0 80 41 00
        E 0 80 45 00
        e 490 90 3e 48
        e 24 90 41 48
        e 0 90 45 48
        e 260 80 3e 00
        e 0 80 41 00
        e 0 80 45 00
        E 186 b0 7b 00
        CHASE_CC_TAKEOFFS 1
        GUID {6844F8A9-6BE9-023C-4A46-0A676470C99B}
        IGNTEMPO 0 120 4 4
        SRCCOLOR 26
        VELLANE -1 100 0
        CFGEDITVIEW 0 0.045808 45 12 0 -1 0 0 0 0.5
        KEYSNAP 0
        TRACKSEL 0
        EVTFILTER 0 -1 -1 -1 -1 0 0 0 0 -1 -1 -1 -1 0 -1 0 -1 -1
        CFGEDIT 1 1 0 1 0 0 1 1 1 1 1 1 58 171 1253 866 0 0 0 0 0.25 0 0 0 0 0.5 0 0 1 64
      >
    >
    <ITEM
      POSITION 80
      SNAPOFFS 0
      LENGTH 8
      LOOP 1
      ALLTAKES 0
      FADEIN 1 0 0 1 0 0
      FADEOUT 1 0 0 1 0 0
      MUTE 0
      SEL 1
      IGUID {20B2BE04-85A1-61C8-750E-0CB880E48F0C}
      IID 20
      NAME "01-Recorded MIDI"
      VOLPAN 1 0 1 -1
      SOFFS 0 0
      PLAYRATE 1 1 0 -1 0 0.0021
      CHANMODE 0
      GUID {53B8B200-EA45-4E90-C16F-1547FAF91E38}
      RECPASS 1
      <SOURCE MIDI
        HASDATA 1 960 QN
        CCINTERP 32
        POOLEDEVTS {F70F54FC-0AC9-652B-3C32-4613DDED3D04}
        E 0 90 3c 48
        E 0 90 40 48
        E 0 90 43 48
        E 1920 80 3c 00
        E 0 80 40 00
        E 0 80 43 00
        E 0 90 3c 48
        E 0 90 40 48
        E 0 90 43 48
        E 260 80 3c 00
        E 0 80 40 00
        E 0 80 43 00
        E 440 90 3c 48
        E 0 90 40 48
        E 0 90 43 48
        E 260 80 3c 00
        E 0 80 40 00
        E 0 80 43 00
        e 514 90 3c 48
        e 0 90 40 48
        e 0 90 43 48
        e 260 80 3c 00
        e 0 80 40 00
        e 0 80 43 00
        E 186 90 43 48
        E 0 90 47 48
        E 20 90 40 48
        E 1900 80 43 00
        E 0 80 47 00
        E 0 80 40 00
        E 0 90 43 48
        E 0 90 47 48
        E 20 90 40 48
        E 240 80 43 00
        E 0 80 47 00
        E 0 80 40 00
        E 440 90 43 48
        E 0 90 47 48
        E 20 90 40 48
        E 240 80 43 00
        E 0 80 47 00
        E 0 80 40 00
        e 514 90 43 48
        e 0 90 47 48
        e 20 90 40 48
        e 240 80 43 00
        e 0 80 47 00
        e 0 80 40 00
        E 186 90 41 48
        E 0 90 45 48
        E 0 90 48 48
        E 1920 80 41 00
        E 0 80 45 00
        E 0 80 48 00
        E 0 90 41 48
        E 0 90 45 48
        E 0 90 48 48
        E 260 80 41 00
        E 0 80 45 00
        E 0 80 48 00
        E 440 90 41 48
        E 0 90 45 48
        E 0 90 48 48
        E 260 80 41 00
        E 0 80 45 00
        E 0 80 48 00
        e 514 90 41 48
        e 0 90 45 48
        e 0 90 48 48
        e 260 80 41 00
        e 0 80 45 00
        e 0 80 48 00
        E 162 90 3e 48
        E 24 90 41 48
        E 0 90 45 48
        E 1896 90 3e 48
        E 24 80 3e 00
        E 0 80 41 00
        E 0 80 45 00
        E 0 90 41 48
        E 0 90 45 48
        E 260 80 3e 00
        E 0 80 41 00
        E 0 80 45 00
        E 416 90 3e 48
        E 24 90 41 48
        E 0 90 45 48
        E 260 80 3e 00
        E 0 80 41 00
        E 0 80 45 00
        e 490 90 3e 48
        e 24 90 41 48
        e 0 90 45 48
        e 260 80 3e 00
        e 0 80 41 00
        e 0 80 45 00
        E 186 b0 7b 00
        CHASE_CC_TAKEOFFS 1
        GUID {E611ADB6-4869-6CCA-8E83-3954D5E743B1}
        IGNTEMPO 0 120 4 4
        SRCCOLOR 27
        VELLANE -1 100 0
        CFGEDITVIEW 0 0.045808 45 12 0 -1 0 0 0 0.5
        KEYSNAP 0
        TRACKSEL 0
        EVTFILTER 0 -1 -1 -1 -1 0 0 0 0 -1 -1 -1 -1 0 -1 0 -1 -1
        CFGEDIT 1 1 0 1 0 0 1 1 1 1 1 1 58 171 1253 866 0 0 0 0 0.25 0 0 0 0 0.5 0 0 1 64
      >
    >
    <ITEM
      POSITION 88
      SNAPOFFS 0
      LENGTH 8
      LOOP 1
      ALLTAKES 0
      FADEIN 1 0 0 1 0 0
      FADEOUT 1 0 0 1 0 0
      MUTE 0
      SEL 1
      IGUID {15A51C92-D1A6-98B0-358A-99749EB0320C}
      IID 21
      NAME "01-Recorded MIDI"
      VOLPAN 1 0 1 -1
      SOFFS 0 0
      PLAYRATE 1 1 0 -1 0 0.0021
      CHANMODE 0
      GUID {1FE8F17C-931D-8D35-E841-B35EAF5BCFFA}
      RECPASS 1
      <SOURCE MIDI
        HASDATA 1 960 QN
        CCINTERP 32
        POOLEDEVTS {62163990-11EC-8471-9FC0-EE914AEAA2C4}
        E 0 90 3c 48
        E 0 90 40 48
        E 0 90 43 48
        E 1920 80 3c 00
        E 0 80 40 00
        E 0 80 43 00
        E 0 90 3c 48
        E 0 90 40 48
        E 0 90 43 48
        E 260 80 3c 00
        E 0 80 40 00
        E 0 80 43 00
        E 440 90 3c 48
        E 0 90 40 48
        E 0 90 43 48
        E 260 80 3c 00
        E 0 80 40 00
        E 0 80 43 00
        e 514 90 3c 48
        e 0 90 40 48
        e 0 90 43 48
        e 260 80 3c 00
        e 0 80 40 00
        e 0 80 43 00
        E 186 90 43 48
        E 0 90 47 48
        E 20 90 40 48
        E 1900 80 43 00
        E 0 80 47 00
        E 0 80 40 00
        E 0 90 43 48
        E 0 90 47 48
        E 20 90 40 48
        E 240 80 43 00
        E 0 80 47 00
        E 0 80 40 00
        E 440 90 43 48
        E 0 90 47 48
        E 20 90 40 48
        E 240 80 43 00
        E 0 80 47 00
        E 0 80 40 00
        e 514 90 43 48
        e 0 90 47 48
        e 20 90 40 48
        e 240 80 43 00
        e 0 80 47 00
        e 0 80 40 00
        E 186 90 41 48
        E 0 90 45 48
        E 0 90 48 48
        E 1920 80 41 00
        E 0 80 45 00
        E 0 80 48 00
        E 0 90 41 48
        E 0 90 45 48
        E 0 90 48 48
        E 260 80 41 00
        E 0 80 45 00
        E 0 80 48 00
        E 440 90 41 48
        E 0 90 45 48
        E 0 90 48 48
        E 260 80 41 00
        E 0 80 45 00
        E 0 80 48 00
        e 514 90 41 48
        e 0 90 45 48
        e 0 90 48 48
        e 260 80 41 00
        e 0 80 45 00
        e 0 80 48 00
        E 162 90 3e 48
        E 24 90 41 48
        E 0 90 45 48
        E 1896 90 3e 48
        E 24 80 3e 00
        E 0 80 41 00
        E 0 80 45 00
        E 0 90 41 48
        E 0 90 45 48
        E 260 80 3e 00
        E 0 80 41 00
        E 0 80 45 00
        E 416 90 3e 48
        E 24 90 41 48
        E 0 90 45 48
        E 260 80 3e 00
        E 0 80 41 00
        E 0 80 45 00
        e 490 90 3e 48
        e 24 90 41 48
        e 0 90 45 48
        e 260 80 3e 00
        e 0 80 41 00
        e 0 80 45 00
        E 186 b0 7b 00
        CHASE_CC_TAKEOFFS 1
        GUID {C762B555-17FC-D765-5340-11D3487D2955}
        IGNTEMPO 0 120 4 4
        SRCCOLOR 28
        VELLANE -1 100 0
        CFGEDITVIEW 0 0.045808 45 12 0 -1 0 0 0 0.5
        KEYSNAP 0
        TRACKSEL 0
        EVTFILTER 0 -1 -1 -1 -1 0 0 0 0 -1 -1 -1 -1 0 -1 0 -1 -1
        CFGEDIT 1 1 0 1 0 0 1 1 1 1 1 1 58 171 1253 866 0 0 0 0 0.25 0 0 0 0 0.5 0 0 1 64
      >
    >
  >
  <TRACK {089460DF-B27B-CE76-A1D1-67F5CE7B7EB5}
    NAME ""
    PEAKCOL 16576
    BEAT -1
    AUTOMODE 0
    VOLPAN 0.00052194381917 0 -1 -1 1
    MUTESOLO 0 0 0
    IPHASE 0
    PLAYOFFS 0 1
    ISBUS 0 0
    BUSCOMP 0 0 0 0 0
    SHOWINMIX 1 0.6667 0.5 1 0.5 0 0 0
    FREEMODE 0
    SEL 0
    REC 0 5056 1 0 0 0 0
    VU 2
    TRACKHEIGHT 21 0 0
    INQ 0 0 0 0.5 100 0 0 100
    NCHAN 2
    FX 0
    TRACKID {089460DF-B27B-CE76-A1D1-67F5CE7B7EB5}
    PERF 0
    MIDIOUT -1
    MAINSEND 1 0
    <FXCHAIN
      WNDRECT 346 266 902 608
      SHOW 0
      LASTSEL 5
      DOCKED 0
      BYPASS 0 0 0
      <VST "VST: ReaEQ (Cockos)" reaeq.vst.so 0 "" 1919247729<56535472656571726561657100000000> ""
        cWVlcu5e7f4CAAAAAQAAAAAAAAACAAAAAAAAAAIAAAABAAAAAAAAAAIAAAAAAAAAqAAAAAEAAAAAABAA
        IQAAAAQAAAAEAAAAAQAAAEC4Xhmm+DRAAAAAAAAA8D8AAAAAAAAAQAEIAAAAAQAAAAAAAAAAwHJAAAAAAAAA8D8AAAAAAAAAQAEIAAAAAQAAAAAAAAAAQI9AAAAAAAAA
        8D8AAAAAAAAAQAEDAAAAAQAAAAABaCorbdRAAAAAAAAA8D8AAAAAAAAAQAEBAAAAAQAAAAAAAAAAAPA/AAAAAJoCAACcAQAA
        AEhpZ2ggbG93IHBhc3MAEAAAAA==
      >
      PRESETNAME "High low pass"
      FLOATPOS 0 0 0 0
      FXID {D153ECED-771F-2DD5-6F4D-0938C737E7EF}
      WAK 0 0
      BYPASS 0 0 0
      <VST "VSTi: ReaSynth (Cockos)" reasynth.vst.so 0 "" 1919251321<5653547265737972656173796E746800> ""
        eXNlcu9e7f4AAAAAAgAAAAEAAAAAAAAAAgAAAAAAAAA8AAAAAAAAAAAAEAA=
        776t3g3wrd6lm8Q7F7fROgAAAAAAAAAAAAAAAJCNuT3oZ4g9AACAPwAAAD8AAIA/AAAAAAAAAD8AAAAA
        AAAQAAAA
      >
      FLOATPOS 0 0 0 0
      FXID {9742305A-1C73-1B8B-D701-ED3100B83AAE}
      WAK 0 0
      BYPASS 0 0 0
      <JS guitar/amp-model ""
        "Dumble Overdrive Special - Tweed Deluxe.wav" -21.000000 1.000000 0.000000 73.000000 256.000000 - - - - - - - - - - - - - - - - - - - - - - - - - - - - - - - - - - - - - - - - - - - - - - - - - - - - - - - - - - 
      >
      FLOATPOS 0 0 0 0
      FXID {0CA6A76A-5D14-015C-0480-D01A8033F2BB}
      WAK 0 0
      BYPASS 0 0 0
      <VST "VST: ReaComp (Cockos)" reacomp.vst.so 0 "" 1919247213<5653547265636D726561636F6D700000> ""
        bWNlcu9e7f4EAAAAAQAAAAAAAAACAAAAAAAAAAQAAAAAAAAACAAAAAAAAAACAAAAAQAAAAAAAAACAAAAAAAAAFQAAAAAAAAAAAAQAA==
        776t3g3wrd5FoYg9/AWpPKWbxDsK16M8AAAAAAAAAAAAAIA/AAAAAAAAAAAAAAAAnNEHMwAAgD8AAAAAzMxMPQAAAAAAAAAAAAAAAAAAgD7YiZ09
        AAAQAAAA
      >
      FLOATPOS 0 0 0 0
      FXID {022D8B40-2D6C-71DD-32A2-61101D91F206}
      WAK 0 0
      BYPASS 0 0 0
      <VST "VST: ReaDelay (Cockos)" readelay.vst.so 0 "" 1919247468<5653547265646C72656164656C617900> ""
        bGRlcu5e7f4CAAAAAQAAAAAAAAACAAAAAAAAAAIAAAABAAAAAAAAAAIAAAAAAAAA/AAAAAEAAAAAAAAA
        AAAAAAAAAAAFAAAALAAAAAIAAAAEAAAAAACAPwAAgD8AAAAAAACAPwAAAAAAAIA7vTeGNQAAgD8AAAAAAACAPwAAgD8AAIA/AAAAAAAAAAAAAIA/AAAAAAAAADwAAAAA
        AACAPwAAAAAAAIA/AACAP+87NT8AAIA/AAAAAAAAgD8AAAAAAABAPL03hjUAAIA/AAAAAAAAgD8AAIA/zk0AP6abhD4AAAAAAACAPwAAAAAAAIA8vTeGNQAAgD8AAAAA
        AACAPwAAgD8aqrU+pHA9PwAAAAAAAIA/AAAAAAAAoDy9N4Y1AACAPwAAAAAAAIA/AACAP/npAD4AAAA/
        AHN0b2NrIC0gYmFzaWMgNSB0YXAgcGluZyBwb25nAAAAAAA=
      >
      PRESETNAME "stock - basic 5 tap ping pong"
      FLOATPOS 0 0 0 0
      FXID {982DE54E-F766-CDB6-5DDD-22E99FD28833}
      WAK 0 0
      BYPASS 0 0 0
      <VST "VST: ReaVerb (Cockos)" reaverb.vst.so 0 "" 1919252066<56535472657662726561766572620000> ""
        YnZlcu5e7f4CAAAAAQAAAAAAAAACAAAAAAAAAAIAAAABAAAAAAAAAAIAAAAAAAAAcAAAAAEAAAAAAAAA
        AAAAwcybgD4AAIA/AAAAAAAAgD8AAIA/AAAAPwAAgD8AAAAAVkVSQkdFTgAYAAAAAAAAAJHgV0QdrLRA3rK7QsHIjEIAAIC/RUNIT0dFTgAcAAAAy/i2QLUjdUJdzdM/
        osdfP5lRrzyRzYxAnMQAPw==
        AHN3ZWV0dmVyYm8AAAAAAA==
      >
      PRESETNAME sweetverbo
      FLOATPOS 0 0 0 0
      FXID {C0C3D961-934D-C119-C377-F4123E6EBB5B}
      WAK 0 0
    >
    <ITEM
      POSITION 0
      SNAPOFFS 0
      LENGTH 8
      LOOP 1
      ALLTAKES 0
      FADEIN 1 0 0 1 0 0
      FADEOUT 1 0 0 1 0 0
      MUTE 0
      SEL 1
      IGUID {986EF47D-31C4-E42C-1FA5-344C13F16C27}
      IID 10
      NAME "01-Recorded MIDI"
      VOLPAN 1 0 1 -1
      SOFFS 0 0
      PLAYRATE 1 1 0 -1 0 0.0021
      CHANMODE 0
      GUID {C079D43D-87A2-CA45-701D-7E8498113279}
      RECPASS 1
      <SOURCE MIDI
        HASDATA 1 960 QN
        CCINTERP 32
        POOLEDEVTS {A1A86DCA-2FAA-1241-2092-0B25FEC6977B}
        E 0 90 3c 48
        E 0 90 40 48
        E 0 90 43 48
        E 1920 80 3c 00
        E 0 80 40 00
        E 0 80 43 00
        E 0 90 3c 48
        E 0 90 40 48
        E 0 90 43 48
        E 260 80 3c 00
        E 0 80 40 00
        E 0 80 43 00
        E 440 90 3c 48
        E 0 90 40 48
        E 0 90 43 48
        E 260 80 3c 00
        E 0 80 40 00
        E 0 80 43 00
        e 514 90 3c 48
        e 0 90 40 48
        e 0 90 43 48
        e 260 80 3c 00
        e 0 80 40 00
        e 0 80 43 00
        E 186 90 43 48
        E 0 90 47 48
        E 20 90 40 48
        E 1900 80 43 00
        E 0 80 47 00
        E 0 80 40 00
        E 0 90 43 48
        E 0 90 47 48
        E 20 90 40 48
        E 240 80 43 00
        E 0 80 47 00
        E 0 80 40 00
        E 440 90 43 48
        E 0 90 47 48
        E 20 90 40 48
        E 240 80 43 00
        E 0 80 47 00
        E 0 80 40 00
        e 514 90 43 48
        e 0 90 47 48
        e 20 90 40 48
        e 240 80 43 00
        e 0 80 47 00
        e 0 80 40 00
        E 186 90 41 48
        E 0 90 45 48
        E 0 90 48 48
        E 1920 80 41 00
        E 0 80 45 00
        E 0 80 48 00
        E 0 90 41 48
        E 0 90 45 48
        E 0 90 48 48
        E 260 80 41 00
        E 0 80 45 00
        E 0 80 48 00
        E 440 90 41 48
        E 0 90 45 48
        E 0 90 48 48
        E 260 80 41 00
        E 0 80 45 00
        E 0 80 48 00
        e 514 90 41 48
        e 0 90 45 48
        e 0 90 48 48
        e 260 80 41 00
        e 0 80 45 00
        e 0 80 48 00
        E 162 90 3e 48
        E 24 90 41 48
        E 0 90 45 48
        E 1896 90 3e 48
        E 24 80 3e 00
        E 0 80 41 00
        E 0 80 45 00
        E 0 90 41 48
        E 0 90 45 48
        E 260 80 3e 00
        E 0 80 41 00
        E 0 80 45 00
        E 416 90 3e 48
        E 24 90 41 48
        E 0 90 45 48
        E 260 80 3e 00
        E 0 80 41 00
        E 0 80 45 00
        e 490 90 3e 48
        e 24 90 41 48
        e 0 90 45 48
        e 260 80 3e 00
        e 0 80 41 00
        e 0 80 45 00
        E 186 b0 7b 00
        CHASE_CC_TAKEOFFS 1
        GUID {7B9D708B-43E1-C8D4-C4B3-87E2A6C27801}
        IGNTEMPO 0 120 4 4
        SRCCOLOR 17
        VELLANE -1 100 0
        CFGEDITVIEW 0 0.045808 45 12 0 -1 0 0 0 0.5
        KEYSNAP 0
        TRACKSEL 0
        EVTFILTER 0 -1 -1 -1 -1 0 0 0 0 -1 -1 -1 -1 0 -1 0 -1 -1
        CFGEDIT 1 1 0 1 0 0 1 1 1 1 1 1 58 171 1253 866 0 0 0 0 0.25 0 0 0 0 0.5 0 0 1 64
      >
    >
    <ITEM
      POSITION 8
      SNAPOFFS 0
      LENGTH 8
      LOOP 1
      ALLTAKES 0
      FADEIN 1 0 0 1 0 0
      FADEOUT 1 0 0 1 0 0
      MUTE 0
      SEL 1
      IGUID {095FFBE2-E0C0-BFF6-A734-6C1AE8EA451E}
      IID 11
      NAME "01-Recorded MIDI"
      VOLPAN 1 0 1 -1
      SOFFS 0 0
      PLAYRATE 1 1 0 -1 0 0.0021
      CHANMODE 0
      GUID {33D09B0F-6330-973B-B02C-09BB1261712E}
      RECPASS 1
      <SOURCE MIDI
        HASDATA 1 960 QN
        CCINTERP 32
        POOLEDEVTS {EE18D81C-E4D5-685B-7200-F9445CCCD6EE}
        E 0 90 3c 48
        E 0 90 40 48
        E 0 90 43 48
        E 1920 80 3c 00
        E 0 80 40 00
        E 0 80 43 00
        E 0 90 3c 48
        E 0 90 40 48
        E 0 90 43 48
        E 260 80 3c 00
        E 0 80 40 00
        E 0 80 43 00
        E 440 90 3c 48
        E 0 90 40 48
        E 0 90 43 48
        E 260 80 3c 00
        E 0 80 40 00
        E 0 80 43 00
        e 514 90 3c 48
        e 0 90 40 48
        e 0 90 43 48
        e 260 80 3c 00
        e 0 80 40 00
        e 0 80 43 00
        E 186 90 43 48
        E 0 90 47 48
        E 20 90 40 48
        E 1900 80 43 00
        E 0 80 47 00
        E 0 80 40 00
        E 0 90 43 48
        E 0 90 47 48
        E 20 90 40 48
        E 240 80 43 00
        E 0 80 47 00
        E 0 80 40 00
        E 440 90 43 48
        E 0 90 47 48
        E 20 90 40 48
        E 240 80 43 00
        E 0 80 47 00
        E 0 80 40 00
        e 514 90 43 48
        e 0 90 47 48
        e 20 90 40 48
        e 240 80 43 00
        e 0 80 47 00
        e 0 80 40 00
        E 186 90 41 48
        E 0 90 45 48
        E 0 90 48 48
        E 1920 80 41 00
        E 0 80 45 00
        E 0 80 48 00
        E 0 90 41 48
        E 0 90 45 48
        E 0 90 48 48
        E 260 80 41 00
        E 0 80 45 00
        E 0 80 48 00
        E 440 90 41 48
        E 0 90 45 48
        E 0 90 48 48
        E 260 80 41 00
        E 0 80 45 00
        E 0 80 48 00
        e 514 90 41 48
        e 0 90 45 48
        e 0 90 48 48
        e 260 80 41 00
        e 0 80 45 00
        e 0 80 48 00
        E 162 90 3e 48
        E 24 90 41 48
        E 0 90 45 48
        E 1896 90 3e 48
        E 24 80 3e 00
        E 0 80 41 00
        E 0 80 45 00
        E 0 90 41 48
        E 0 90 45 48
        E 260 80 3e 00
        E 0 80 41 00
        E 0 80 45 00
        E 416 90 3e 48
        E 24 90 41 48
        E 0 90 45 48
        E 260 80 3e 00
        E 0 80 41 00
        E 0 80 45 00
        e 490 90 3e 48
        e 24 90 41 48
        e 0 90 45 48
        e 260 80 3e 00
        e 0 80 41 00
        e 0 80 45 00
        E 186 b0 7b 00
        CHASE_CC_TAKEOFFS 1
        GUID {3131B4E2-B370-E352-A9C5-C8CA31551A86}
        IGNTEMPO 0 120 4 4
        SRCCOLOR 18
        VELLANE -1 100 0
        CFGEDITVIEW 0 0.045808 45 12 0 -1 0 0 0 0.5
        KEYSNAP 0
        TRACKSEL 0
        EVTFILTER 0 -1 -1 -1 -1 0 0 0 0 -1 -1 -1 -1 0 -1 0 -1 -1
        CFGEDIT 1 1 0 1 0 0 1 1 1 1 1 1 58 171 1253 866 0 0 0 0 0.25 0 0 0 0 0.5 0 0 1 64
      >
    >
    <ITEM
      POSITION 16
      SNAPOFFS 0
      LENGTH 8
      LOOP 1
      ALLTAKES 0
      FADEIN 1 0 0 1 0 0
      FADEOUT 1 0 0 1 0 0
      MUTE 0
      SEL 1
      IGUID {12CEAA80-4240-466B-1CB2-FDCE9FCE54A2}
      IID 12
      NAME "01-Recorded MIDI"
      VOLPAN 1 0 1 -1
      SOFFS 0 0
      PLAYRATE 1 1 0 -1 0 0.0021
      CHANMODE 0
      GUID {6E02C1F3-47DB-B5E3-F997-EECBEDC2115E}
      RECPASS 1
      <SOURCE MIDI
        HASDATA 1 960 QN
        CCINTERP 32
        POOLEDEVTS {D2DC257A-2AAD-BABF-E9BB-C87989FA841A}
        E 0 90 3c 48
        E 0 90 40 48
        E 0 90 43 48
        E 1920 80 3c 00
        E 0 80 40 00
        E 0 80 43 00
        E 0 90 3c 48
        E 0 90 40 48
        E 0 90 43 48
        E 260 80 3c 00
        E 0 80 40 00
        E 0 80 43 00
        E 440 90 3c 48
        E 0 90 40 48
        E 0 90 43 48
        E 260 80 3c 00
        E 0 80 40 00
        E 0 80 43 00
        e 514 90 3c 48
        e 0 90 40 48
        e 0 90 43 48
        e 260 80 3c 00
        e 0 80 40 00
        e 0 80 43 00
        E 186 90 43 48
        E 0 90 47 48
        E 20 90 40 48
        E 1900 80 43 00
        E 0 80 47 00
        E 0 80 40 00
        E 0 90 43 48
        E 0 90 47 48
        E 20 90 40 48
        E 240 80 43 00
        E 0 80 47 00
        E 0 80 40 00
        E 440 90 43 48
        E 0 90 47 48
        E 20 90 40 48
        E 240 80 43 00
        E 0 80 47 00
        E 0 80 40 00
        e 514 90 43 48
        e 0 90 47 48
        e 20 90 40 48
        e 240 80 43 00
        e 0 80 47 00
        e 0 80 40 00
        E 186 90 41 48
        E 0 90 45 48
        E 0 90 48 48
        E 1920 80 41 00
        E 0 80 45 00
        E 0 80 48 00
        E 0 90 41 48
        E 0 90 45 48
        E 0 90 48 48
        E 260 80 41 00
        E 0 80 45 00
        E 0 80 48 00
        E 440 90 41 48
        E 0 90 45 48
        E 0 90 48 48
        E 260 80 41 00
        E 0 80 45 00
        E 0 80 48 00
        e 514 90 41 48
        e 0 90 45 48
        e 0 90 48 48
        e 260 80 41 00
        e 0 80 45 00
        e 0 80 48 00
        E 162 90 3e 48
        E 24 90 41 48
        E 0 90 45 48
        E 1896 90 3e 48
        E 24 80 3e 00
        E 0 80 41 00
        E 0 80 45 00
        E 0 90 41 48
        E 0 90 45 48
        E 260 80 3e 00
        E 0 80 41 00
        E 0 80 45 00
        E 416 90 3e 48
        E 24 90 41 48
        E 0 90 45 48
        E 260 80 3e 00
        E 0 80 41 00
        E 0 80 45 00
        e 490 90 3e 48
        e 24 90 41 48
        e 0 90 45 48
        e 260 80 3e 00
        e 0 80 41 00
        e 0 80 45 00
        E 186 b0 7b 00
        CHASE_CC_TAKEOFFS 1
        GUID {48C567A2-895C-FB9B-FDBA-0ADB7004ABF3}
        IGNTEMPO 0 120 4 4
        SRCCOLOR 19
        VELLANE -1 100 0
        CFGEDITVIEW 0 0.045808 45 12 0 -1 0 0 0 0.5
        KEYSNAP 0
        TRACKSEL 0
        EVTFILTER 0 -1 -1 -1 -1 0 0 0 0 -1 -1 -1 -1 0 -1 0 -1 -1
        CFGEDIT 1 1 0 1 0 0 1 1 1 1 1 1 58 171 1253 866 0 0 0 0 0.25 0 0 0 0 0.5 0 0 1 64
      >
    >
    <ITEM
      POSITION 24
      SNAPOFFS 0
      LENGTH 8
      LOOP 1
      ALLTAKES 0
      FADEIN 1 0 0 1 0 0
      FADEOUT 1 0 0 1 0 0
      MUTE 0
      SEL 1
      IGUID {6D6C5421-A1BE-3C0B-CC37-39760A629D53}
      IID 13
      NAME "01-Recorded MIDI"
      VOLPAN 1 0 1 -1
      SOFFS 0 0
      PLAYRATE 1 1 0 -1 0 0.0021
      CHANMODE 0
      GUID {6D918144-3D9F-6739-DC99-9204E50E17E9}
      RECPASS 1
      <SOURCE MIDI
        HASDATA 1 960 QN
        CCINTERP 32
        POOLEDEVTS {69F64739-640A-B9AF-636D-ADDB43CE9EA6}
        E 0 90 3c 48
        E 0 90 40 48
        E 0 90 43 48
        E 1920 80 3c 00
        E 0 80 40 00
        E 0 80 43 00
        E 0 90 3c 48
        E 0 90 40 48
        E 0 90 43 48
        E 260 80 3c 00
        E 0 80 40 00
        E 0 80 43 00
        E 440 90 3c 48
        E 0 90 40 48
        E 0 90 43 48
        E 260 80 3c 00
        E 0 80 40 00
        E 0 80 43 00
        e 514 90 3c 48
        e 0 90 40 48
        e 0 90 43 48
        e 260 80 3c 00
        e 0 80 40 00
        e 0 80 43 00
        E 186 90 43 48
        E 0 90 47 48
        E 20 90 40 48
        E 1900 80 43 00
        E 0 80 47 00
        E 0 80 40 00
        E 0 90 43 48
        E 0 90 47 48
        E 20 90 40 48
        E 240 80 43 00
        E 0 80 47 00
        E 0 80 40 00
        E 440 90 43 48
        E 0 90 47 48
        E 20 90 40 48
        E 240 80 43 00
        E 0 80 47 00
        E 0 80 40 00
        e 514 90 43 48
        e 0 90 47 48
        e 20 90 40 48
        e 240 80 43 00
        e 0 80 47 00
        e 0 80 40 00
        E 186 90 41 48
        E 0 90 45 48
        E 0 90 48 48
        E 1920 80 41 00
        E 0 80 45 00
        E 0 80 48 00
        E 0 90 41 48
        E 0 90 45 48
        E 0 90 48 48
        E 260 80 41 00
        E 0 80 45 00
        E 0 80 48 00
        E 440 90 41 48
        E 0 90 45 48
        E 0 90 48 48
        E 260 80 41 00
        E 0 80 45 00
        E 0 80 48 00
        e 514 90 41 48
        e 0 90 45 48
        e 0 90 48 48
        e 260 80 41 00
        e 0 80 45 00
        e 0 80 48 00
        E 162 90 3e 48
        E 24 90 41 48
        E 0 90 45 48
        E 1896 90 3e 48
        E 24 80 3e 00
        E 0 80 41 00
        E 0 80 45 00
        E 0 90 41 48
        E 0 90 45 48
        E 260 80 3e 00
        E 0 80 41 00
        E 0 80 45 00
        E 416 90 3e 48
        E 24 90 41 48
        E 0 90 45 48
        E 260 80 3e 00
        E 0 80 41 00
        E 0 80 45 00
        e 490 90 3e 48
        e 24 90 41 48
        e 0 90 45 48
        e 260 80 3e 00
        e 0 80 41 00
        e 0 80 45 00
        E 186 b0 7b 00
        CHASE_CC_TAKEOFFS 1
        GUID {1DE38800-E2A1-41B5-9C8C-3291891093B1}
        IGNTEMPO 0 120 4 4
        SRCCOLOR 20
        VELLANE -1 100 0
        CFGEDITVIEW 0 0.045808 45 12 0 -1 0 0 0 0.5
        KEYSNAP 0
        TRACKSEL 0
        EVTFILTER 0 -1 -1 -1 -1 0 0 0 0 -1 -1 -1 -1 0 -1 0 -1 -1
        CFGEDIT 1 1 0 1 0 0 1 1 1 1 1 1 58 171 1253 866 0 0 0 0 0.25 0 0 0 0 0.5 0 0 1 64
      >
    >
    <ITEM
      POSITION 32
      SNAPOFFS 0
      LENGTH 8
      LOOP 1
      ALLTAKES 0
      FADEIN 1 0 0 1 0 0
      FADEOUT 1 0 0 1 0 0
      MUTE 0
      SEL 1
      IGUID {25DCED2B-9AA4-153B-D831-46AB094F8D2D}
      IID 14
      NAME "01-Recorded MIDI"
      VOLPAN 1 0 1 -1
      SOFFS 0 0
      PLAYRATE 1 1 0 -1 0 0.0021
      CHANMODE 0
      GUID {3531996A-88F4-76EE-C4E2-01165579A964}
      RECPASS 1
      <SOURCE MIDI
        HASDATA 1 960 QN
        CCINTERP 32
        POOLEDEVTS {678B4CDD-A536-D200-0ECD-EC00642D95F9}
        E 0 90 3c 48
        E 0 90 40 48
        E 0 90 43 48
        E 1920 80 3c 00
        E 0 80 40 00
        E 0 80 43 00
        E 0 90 3c 48
        E 0 90 40 48
        E 0 90 43 48
        E 260 80 3c 00
        E 0 80 40 00
        E 0 80 43 00
        E 440 90 3c 48
        E 0 90 40 48
        E 0 90 43 48
        E 260 80 3c 00
        E 0 80 40 00
        E 0 80 43 00
        e 514 90 3c 48
        e 0 90 40 48
        e 0 90 43 48
        e 260 80 3c 00
        e 0 80 40 00
        e 0 80 43 00
        E 186 90 43 48
        E 0 90 47 48
        E 20 90 40 48
        E 1900 80 43 00
        E 0 80 47 00
        E 0 80 40 00
        E 0 90 43 48
        E 0 90 47 48
        E 20 90 40 48
        E 240 80 43 00
        E 0 80 47 00
        E 0 80 40 00
        E 440 90 43 48
        E 0 90 47 48
        E 20 90 40 48
        E 240 80 43 00
        E 0 80 47 00
        E 0 80 40 00
        e 514 90 43 48
        e 0 90 47 48
        e 20 90 40 48
        e 240 80 43 00
        e 0 80 47 00
        e 0 80 40 00
        E 186 90 41 48
        E 0 90 45 48
        E 0 90 48 48
        E 1920 80 41 00
        E 0 80 45 00
        E 0 80 48 00
        E 0 90 41 48
        E 0 90 45 48
        E 0 90 48 48
        E 260 80 41 00
        E 0 80 45 00
        E 0 80 48 00
        E 440 90 41 48
        E 0 90 45 48
        E 0 90 48 48
        E 260 80 41 00
        E 0 80 45 00
        E 0 80 48 00
        e 514 90 41 48
        e 0 90 45 48
        e 0 90 48 48
        e 260 80 41 00
        e 0 80 45 00
        e 0 80 48 00
        E 162 90 3e 48
        E 24 90 41 48
        E 0 90 45 48
        E 1896 90 3e 48
        E 24 80 3e 00
        E 0 80 41 00
        E 0 80 45 00
        E 0 90 41 48
        E 0 90 45 48
        E 260 80 3e 00
        E 0 80 41 00
        E 0 80 45 00
        E 416 90 3e 48
        E 24 90 41 48
        E 0 90 45 48
        E 260 80 3e 00
        E 0 80 41 00
        E 0 80 45 00
        e 490 90 3e 48
        e 24 90 41 48
        e 0 90 45 48
        e 260 80 3e 00
        e 0 80 41 00
        e 0 80 45 00
        E 186 b0 7b 00
        CHASE_CC_TAKEOFFS 1
        GUID {0C3271F4-E233-9088-9B25-A722FAE7C579}
        IGNTEMPO 0 120 4 4
        SRCCOLOR 21
        VELLANE -1 100 0
        CFGEDITVIEW 0 0.045808 45 12 0 -1 0 0 0 0.5
        KEYSNAP 0
        TRACKSEL 0
        EVTFILTER 0 -1 -1 -1 -1 0 0 0 0 -1 -1 -1 -1 0 -1 0 -1 -1
        CFGEDIT 1 1 0 1 0 0 1 1 1 1 1 1 58 171 1253 866 0 0 0 0 0.25 0 0 0 0 0.5 0 0 1 64
      >
    >
    <ITEM
      POSITION 40
      SNAPOFFS 0
      LENGTH 8
      LOOP 1
      ALLTAKES 0
      FADEIN 1 0 0 1 0 0
      FADEOUT 1 0 0 1 0 0
      MUTE 0
      SEL 1
      IGUID {AEEA66C4-1E98-DC34-1A21-36A0D877EDB1}
      IID 15
      NAME "01-Recorded MIDI"
      VOLPAN 1 0 1 -1
      SOFFS 0 0
      PLAYRATE 1 1 0 -1 0 0.0021
      CHANMODE 0
      GUID {2B0ECF37-BD0C-E3B0-CCDF-AA001330F552}
      RECPASS 1
      <SOURCE MIDI
        HASDATA 1 960 QN
        CCINTERP 32
        POOLEDEVTS {5E03BAA6-6AA2-8FEB-83DA-3D6CEF8AFAFC}
        E 0 90 3c 48
        E 0 90 40 48
        E 0 90 43 48
        E 1920 80 3c 00
        E 0 80 40 00
        E 0 80 43 00
        E 0 90 3c 48
        E 0 90 40 48
        E 0 90 43 48
        E 260 80 3c 00
        E 0 80 40 00
        E 0 80 43 00
        E 440 90 3c 48
        E 0 90 40 48
        E 0 90 43 48
        E 260 80 3c 00
        E 0 80 40 00
        E 0 80 43 00
        e 514 90 3c 48
        e 0 90 40 48
        e 0 90 43 48
        e 260 80 3c 00
        e 0 80 40 00
        e 0 80 43 00
        E 186 90 43 48
        E 0 90 47 48
        E 20 90 40 48
        E 1900 80 43 00
        E 0 80 47 00
        E 0 80 40 00
        E 0 90 43 48
        E 0 90 47 48
        E 20 90 40 48
        E 240 80 43 00
        E 0 80 47 00
        E 0 80 40 00
        E 440 90 43 48
        E 0 90 47 48
        E 20 90 40 48
        E 240 80 43 00
        E 0 80 47 00
        E 0 80 40 00
        e 514 90 43 48
        e 0 90 47 48
        e 20 90 40 48
        e 240 80 43 00
        e 0 80 47 00
        e 0 80 40 00
        E 186 90 41 48
        E 0 90 45 48
        E 0 90 48 48
        E 1920 80 41 00
        E 0 80 45 00
        E 0 80 48 00
        E 0 90 41 48
        E 0 90 45 48
        E 0 90 48 48
        E 260 80 41 00
        E 0 80 45 00
        E 0 80 48 00
        E 440 90 41 48
        E 0 90 45 48
        E 0 90 48 48
        E 260 80 41 00
        E 0 80 45 00
        E 0 80 48 00
        e 514 90 41 48
        e 0 90 45 48
        e 0 90 48 48
        e 260 80 41 00
        e 0 80 45 00
        e 0 80 48 00
        E 162 90 3e 48
        E 24 90 41 48
        E 0 90 45 48
        E 1896 90 3e 48
        E 24 80 3e 00
        E 0 80 41 00
        E 0 80 45 00
        E 0 90 41 48
        E 0 90 45 48
        E 260 80 3e 00
        E 0 80 41 00
        E 0 80 45 00
        E 416 90 3e 48
        E 24 90 41 48
        E 0 90 45 48
        E 260 80 3e 00
        E 0 80 41 00
        E 0 80 45 00
        e 490 90 3e 48
        e 24 90 41 48
        e 0 90 45 48
        e 260 80 3e 00
        e 0 80 41 00
        e 0 80 45 00
        E 186 b0 7b 00
        CHASE_CC_TAKEOFFS 1
        GUID {040E7AF8-3572-5D91-3C86-797AEE7444D4}
        IGNTEMPO 0 120 4 4
        SRCCOLOR 22
        VELLANE -1 100 0
        CFGEDITVIEW 0 0.045808 45 12 0 -1 0 0 0 0.5
        KEYSNAP 0
        TRACKSEL 0
        EVTFILTER 0 -1 -1 -1 -1 0 0 0 0 -1 -1 -1 -1 0 -1 0 -1 -1
        CFGEDIT 1 1 0 1 0 0 1 1 1 1 1 1 58 171 1253 866 0 0 0 0 0.25 0 0 0 0 0.5 0 0 1 64
      >
    >
    <ITEM
      POSITION 48
      SNAPOFFS 0
      LENGTH 8
      LOOP 1
      ALLTAKES 0
      FADEIN 1 0 0 1 0 0
      FADEOUT 1 0 0 1 0 0
      MUTE 0
      SEL 1
      IGUID {7B8A452F-B6FC-8E53-713B-F58F33FB7D22}
      IID 16
      NAME "01-Recorded MIDI"
      VOLPAN 1 0 1 -1
      SOFFS 0 0
      PLAYRATE 1 1 0 -1 0 0.0021
      CHANMODE 0
      GUID {B8E976AE-4729-676C-0D1A-41B3AD2540BB}
      RECPASS 1
      <SOURCE MIDI
        HASDATA 1 960 QN
        CCINTERP 32
        POOLEDEVTS {3EF5B7BD-44DA-6868-20C5-10FFCA90CF0C}
        E 0 90 3c 48
        E 0 90 40 48
        E 0 90 43 48
        E 1920 80 3c 00
        E 0 80 40 00
        E 0 80 43 00
        E 0 90 3c 48
        E 0 90 40 48
        E 0 90 43 48
        E 260 80 3c 00
        E 0 80 40 00
        E 0 80 43 00
        E 440 90 3c 48
        E 0 90 40 48
        E 0 90 43 48
        E 260 80 3c 00
        E 0 80 40 00
        E 0 80 43 00
        e 514 90 3c 48
        e 0 90 40 48
        e 0 90 43 48
        e 260 80 3c 00
        e 0 80 40 00
        e 0 80 43 00
        E 186 90 43 48
        E 0 90 47 48
        E 20 90 40 48
        E 1900 80 43 00
        E 0 80 47 00
        E 0 80 40 00
        E 0 90 43 48
        E 0 90 47 48
        E 20 90 40 48
        E 240 80 43 00
        E 0 80 47 00
        E 0 80 40 00
        E 440 90 43 48
        E 0 90 47 48
        E 20 90 40 48
        E 240 80 43 00
        E 0 80 47 00
        E 0 80 40 00
        e 514 90 43 48
        e 0 90 47 48
        e 20 90 40 48
        e 240 80 43 00
        e 0 80 47 00
        e 0 80 40 00
        E 186 90 41 48
        E 0 90 45 48
        E 0 90 48 48
        E 1920 80 41 00
        E 0 80 45 00
        E 0 80 48 00
        E 0 90 41 48
        E 0 90 45 48
        E 0 90 48 48
        E 260 80 41 00
        E 0 80 45 00
        E 0 80 48 00
        E 440 90 41 48
        E 0 90 45 48
        E 0 90 48 48
        E 260 80 41 00
        E 0 80 45 00
        E 0 80 48 00
        e 514 90 41 48
        e 0 90 45 48
        e 0 90 48 48
        e 260 80 41 00
        e 0 80 45 00
        e 0 80 48 00
        E 162 90 3e 48
        E 24 90 41 48
        E 0 90 45 48
        E 1896 90 3e 48
        E 24 80 3e 00
        E 0 80 41 00
        E 0 80 45 00
        E 0 90 41 48
        E 0 90 45 48
        E 260 80 3e 00
        E 0 80 41 00
        E 0 80 45 00
        E 416 90 3e 48
        E 24 90 41 48
        E 0 90 45 48
        E 260 80 3e 00
        E 0 80 41 00
        E 0 80 45 00
        e 490 90 3e 48
        e 24 90 41 48
        e 0 90 45 48
        e 260 80 3e 00
        e 0 80 41 00
        e 0 80 45 00
        E 186 b0 7b 00
        CHASE_CC_TAKEOFFS 1
        GUID {2338968B-6CF9-9F40-300F-DEB89D3392EA}
        IGNTEMPO 0 120 4 4
        SRCCOLOR 23
        VELLANE -1 100 0
        CFGEDITVIEW 0 0.045808 45 12 0 -1 0 0 0 0.5
        KEYSNAP 0
        TRACKSEL 0
        EVTFILTER 0 -1 -1 -1 -1 0 0 0 0 -1 -1 -1 -1 0 -1 0 -1 -1
        CFGEDIT 1 1 0 1 0 0 1 1 1 1 1 1 58 171 1253 866 0 0 0 0 0.25 0 0 0 0 0.5 0 0 1 64
      >
    >
    <ITEM
      POSITION 56
      SNAPOFFS 0
      LENGTH 8
      LOOP 1
      ALLTAKES 0
      FADEIN 1 0 0 1 0 0
      FADEOUT 1 0 0 1 0 0
      MUTE 0
      SEL 1
      IGUID {B008D0EF-DA7C-AF61-ED6B-93F40215FB4D}
      IID 17
      NAME "01-Recorded MIDI"
      VOLPAN 1 0 1 -1
      SOFFS 0 0
      PLAYRATE 1 1 0 -1 0 0.0021
      CHANMODE 0
      GUID {07C98EC0-6DCA-CB5A-C8A9-B47028F577A7}
      RECPASS 1
      <SOURCE MIDI
        HASDATA 1 960 QN
        CCINTERP 32
        POOLEDEVTS {4F119028-E08F-CA47-C5CB-6397BEDBD872}
        E 0 90 3c 48
        E 0 90 40 48
        E 0 90 43 48
        E 1920 80 3c 00
        E 0 80 40 00
        E 0 80 43 00
        E 0 90 3c 48
        E 0 90 40 48
        E 0 90 43 48
        E 260 80 3c 00
        E 0 80 40 00
        E 0 80 43 00
        E 440 90 3c 48
        E 0 90 40 48
        E 0 90 43 48
        E 260 80 3c 00
        E 0 80 40 00
        E 0 80 43 00
        e 514 90 3c 48
        e 0 90 40 48
        e 0 90 43 48
        e 260 80 3c 00
        e 0 80 40 00
        e 0 80 43 00
        E 186 90 43 48
        E 0 90 47 48
        E 20 90 40 48
        E 1900 80 43 00
        E 0 80 47 00
        E 0 80 40 00
        E 0 90 43 48
        E 0 90 47 48
        E 20 90 40 48
        E 240 80 43 00
        E 0 80 47 00
        E 0 80 40 00
        E 440 90 43 48
        E 0 90 47 48
        E 20 90 40 48
        E 240 80 43 00
        E 0 80 47 00
        E 0 80 40 00
        e 514 90 43 48
        e 0 90 47 48
        e 20 90 40 48
        e 240 80 43 00
        e 0 80 47 00
        e 0 80 40 00
        E 186 90 41 48
        E 0 90 45 48
        E 0 90 48 48
        E 1920 80 41 00
        E 0 80 45 00
        E 0 80 48 00
        E 0 90 41 48
        E 0 90 45 48
        E 0 90 48 48
        E 260 80 41 00
        E 0 80 45 00
        E 0 80 48 00
        E 440 90 41 48
        E 0 90 45 48
        E 0 90 48 48
        E 260 80 41 00
        E 0 80 45 00
        E 0 80 48 00
        e 514 90 41 48
        e 0 90 45 48
        e 0 90 48 48
        e 260 80 41 00
        e 0 80 45 00
        e 0 80 48 00
        E 162 90 3e 48
        E 24 90 41 48
        E 0 90 45 48
        E 1896 90 3e 48
        E 24 80 3e 00
        E 0 80 41 00
        E 0 80 45 00
        E 0 90 41 48
        E 0 90 45 48
        E 260 80 3e 00
        E 0 80 41 00
        E 0 80 45 00
        E 416 90 3e 48
        E 24 90 41 48
        E 0 90 45 48
        E 260 80 3e 00
        E 0 80 41 00
        E 0 80 45 00
        e 490 90 3e 48
        e 24 90 41 48
        e 0 90 45 48
        e 260 80 3e 00
        e 0 80 41 00
        e 0 80 45 00
        E 186 b0 7b 00
        CHASE_CC_TAKEOFFS 1
        GUID {A64857E2-94F8-0990-20DF-4C1E9B5E6251}
        IGNTEMPO 0 120 4 4
        SRCCOLOR 24
        VELLANE -1 100 0
        CFGEDITVIEW 0 0.045808 45 12 0 -1 0 0 0 0.5
        KEYSNAP 0
        TRACKSEL 0
        EVTFILTER 0 -1 -1 -1 -1 0 0 0 0 -1 -1 -1 -1 0 -1 0 -1 -1
        CFGEDIT 1 1 0 1 0 0 1 1 1 1 1 1 58 171 1253 866 0 0 0 0 0.25 0 0 0 0 0.5 0 0 1 64
      >
    >
    <ITEM
      POSITION 64
      SNAPOFFS 0
      LENGTH 8
      LOOP 1
      ALLTAKES 0
      FADEIN 1 0 0 1 0 0
      FADEOUT 1 0 0 1 0 0
      MUTE 0
      SEL 1
      IGUID {0A6558BD-634C-D29C-202A-8B8140A841A3}
      IID 18
      NAME "01-Recorded MIDI"
      VOLPAN 1 0 1 -1
      SOFFS 0 0
      PLAYRATE 1 1 0 -1 0 0.0021
      CHANMODE 0
      GUID {672949C2-16BF-3D1F-39FF-29BEAF47FF68}
      RECPASS 1
      <SOURCE MIDI
        HASDATA 1 960 QN
        CCINTERP 32
        POOLEDEVTS {DBD8240F-E159-88DB-AA39-AB7454CF5145}
        E 0 90 3c 48
        E 0 90 40 48
        E 0 90 43 48
        E 1920 80 3c 00
        E 0 80 40 00
        E 0 80 43 00
        E 0 90 3c 48
        E 0 90 40 48
        E 0 90 43 48
        E 260 80 3c 00
        E 0 80 40 00
        E 0 80 43 00
        E 440 90 3c 48
        E 0 90 40 48
        E 0 90 43 48
        E 260 80 3c 00
        E 0 80 40 00
        E 0 80 43 00
        e 514 90 3c 48
        e 0 90 40 48
        e 0 90 43 48
        e 260 80 3c 00
        e 0 80 40 00
        e 0 80 43 00
        E 186 90 43 48
        E 0 90 47 48
        E 20 90 40 48
        E 1900 80 43 00
        E 0 80 47 00
        E 0 80 40 00
        E 0 90 43 48
        E 0 90 47 48
        E 20 90 40 48
        E 240 80 43 00
        E 0 80 47 00
        E 0 80 40 00
        E 440 90 43 48
        E 0 90 47 48
        E 20 90 40 48
        E 240 80 43 00
        E 0 80 47 00
        E 0 80 40 00
        e 514 90 43 48
        e 0 90 47 48
        e 20 90 40 48
        e 240 80 43 00
        e 0 80 47 00
        e 0 80 40 00
        E 186 90 41 48
        E 0 90 45 48
        E 0 90 48 48
        E 1920 80 41 00
        E 0 80 45 00
        E 0 80 48 00
        E 0 90 41 48
        E 0 90 45 48
        E 0 90 48 48
        E 260 80 41 00
        E 0 80 45 00
        E 0 80 48 00
        E 440 90 41 48
        E 0 90 45 48
        E 0 90 48 48
        E 260 80 41 00
        E 0 80 45 00
        E 0 80 48 00
        e 514 90 41 48
        e 0 90 45 48
        e 0 90 48 48
        e 260 80 41 00
        e 0 80 45 00
        e 0 80 48 00
        E 162 90 3e 48
        E 24 90 41 48
        E 0 90 45 48
        E 1896 90 3e 48
        E 24 80 3e 00
        E 0 80 41 00
        E 0 80 45 00
        E 0 90 41 48
        E 0 90 45 48
        E 260 80 3e 00
        E 0 80 41 00
        E 0 80 45 00
        E 416 90 3e 48
        E 24 90 41 48
        E 0 90 45 48
        E 260 80 3e 00
        E 0 80 41 00
        E 0 80 45 00
        e 490 90 3e 48
        e 24 90 41 48
        e 0 90 45 48
        e 260 80 3e 00
        e 0 80 41 00
        e 0 80 45 00
        E 186 b0 7b 00
        CHASE_CC_TAKEOFFS 1
        GUID {19362806-85F2-5D9E-E1F9-07BE0CF3D16E}
        IGNTEMPO 0 120 4 4
        SRCCOLOR 25
        VELLANE -1 100 0
        CFGEDITVIEW 0 0.045808 45 12 0 -1 0 0 0 0.5
        KEYSNAP 0
        TRACKSEL 0
        EVTFILTER 0 -1 -1 -1 -1 0 0 0 0 -1 -1 -1 -1 0 -1 0 -1 -1
        CFGEDIT 1 1 0 1 0 0 1 1 1 1 1 1 58 171 1253 866 0 0 0 0 0.25 0 0 0 0 0.5 0 0 1 64
      >
    >
    <ITEM
      POSITION 72
      SNAPOFFS 0
      LENGTH 8
      LOOP 1
      ALLTAKES 0
      FADEIN 1 0 0 1 0 0
      FADEOUT 1 0 0 1 0 0
      MUTE 0
      SEL 1
      IGUID {B0C5C6C2-EC39-6888-9B08-D0ABBCF70BD3}
      IID 19
      NAME "01-Recorded MIDI"
      VOLPAN 1 0 1 -1
      SOFFS 0 0
      PLAYRATE 1 1 0 -1 0 0.0021
      CHANMODE 0
      GUID {DC1C1A38-E22D-1E12-90A4-78DFD4E7D4E7}
      RECPASS 1
      <SOURCE MIDI
        HASDATA 1 960 QN
        CCINTERP 32
        POOLEDEVTS {C60D8E9B-96CA-6502-6023-EF82F0FE8E75}
        E 0 90 3c 48
        E 0 90 40 48
        E 0 90 43 48
        E 1920 80 3c 00
        E 0 80 40 00
        E 0 80 43 00
        E 0 90 3c 48
        E 0 90 40 48
        E 0 90 43 48
        E 260 80 3c 00
        E 0 80 40 00
        E 0 80 43 00
        E 440 90 3c 48
        E 0 90 40 48
        E 0 90 43 48
        E 260 80 3c 00
        E 0 80 40 00
        E 0 80 43 00
        e 514 90 3c 48
        e 0 90 40 48
        e 0 90 43 48
        e 260 80 3c 00
        e 0 80 40 00
        e 0 80 43 00
        E 186 90 43 48
        E 0 90 47 48
        E 20 90 40 48
        E 1900 80 43 00
        E 0 80 47 00
        E 0 80 40 00
        E 0 90 43 48
        E 0 90 47 48
        E 20 90 40 48
        E 240 80 43 00
        E 0 80 47 00
        E 0 80 40 00
        E 440 90 43 48
        E 0 90 47 48
        E 20 90 40 48
        E 240 80 43 00
        E 0 80 47 00
        E 0 80 40 00
        e 514 90 43 48
        e 0 90 47 48
        e 20 90 40 48
        e 240 80 43 00
        e 0 80 47 00
        e 0 80 40 00
        E 186 90 41 48
        E 0 90 45 48
        E 0 90 48 48
        E 1920 80 41 00
        E 0 80 45 00
        E 0 80 48 00
        E 0 90 41 48
        E 0 90 45 48
        E 0 90 48 48
        E 260 80 41 00
        E 0 80 45 00
        E 0 80 48 00
        E 440 90 41 48
        E 0 90 45 48
        E 0 90 48 48
        E 260 80 41 00
        E 0 80 45 00
        E 0 80 48 00
        e 514 90 41 48
        e 0 90 45 48
        e 0 90 48 48
        e 260 80 41 00
        e 0 80 45 00
        e 0 80 48 00
        E 162 90 3e 48
        E 24 90 41 48
        E 0 90 45 48
        E 1896 90 3e 48
        E 24 80 3e 00
        E 0 80 41 00
        E 0 80 45 00
        E 0 90 41 48
        E 0 90 45 48
        E 260 80 3e 00
        E 0 80 41 00
        E 0 80 45 00
        E 416 90 3e 48
        E 24 90 41 48
        E 0 90 45 48
        E 260 80 3e 00
        E 0 80 41 00
        E 0 80 45 00
        e 490 90 3e 48
        e 24 90 41 48
        e 0 90 45 48
        e 260 80 3e 00
        e 0 80 41 00
        e 0 80 45 00
        E 186 b0 7b 00
        CHASE_CC_TAKEOFFS 1
        GUID {6844F8A9-6BE9-023C-4A46-0A676470C99B}
        IGNTEMPO 0 120 4 4
        SRCCOLOR 26
        VELLANE -1 100 0
        CFGEDITVIEW 0 0.045808 45 12 0 -1 0 0 0 0.5
        KEYSNAP 0
        TRACKSEL 0
        EVTFILTER 0 -1 -1 -1 -1 0 0 0 0 -1 -1 -1 -1 0 -1 0 -1 -1
        CFGEDIT 1 1 0 1 0 0 1 1 1 1 1 1 58 171 1253 866 0 0 0 0 0.25 0 0 0 0 0.5 0 0 1 64
      >
    >
    <ITEM
      POSITION 80
      SNAPOFFS 0
      LENGTH 8
      LOOP 1
      ALLTAKES 0
      FADEIN 1 0 0 1 0 0
      FADEOUT 1 0 0 1 0 0
      MUTE 0
      SEL 1
      IGUID {D43684D4-E3E6-5560-ECAE-0883B82EDB98}
      IID 20
      NAME "01-Recorded MIDI"
      VOLPAN 1 0 1 -1
      SOFFS 0 0
      PLAYRATE 1 1 0 -1 0 0.0021
      CHANMODE 0
      GUID {15ACDF86-E1F4-7863-82E2-76BB7AA7C47C}
      RECPASS 1
      <SOURCE MIDI
        HASDATA 1 960 QN
        CCINTERP 32
        POOLEDEVTS {6126709C-12B0-1AD4-72C1-B93E8A474454}
        E 0 90 3c 48
        E 0 90 40 48
        E 0 90 43 48
        E 1920 80 3c 00
        E 0 80 40 00
        E 0 80 43 00
        E 0 90 3c 48
        E 0 90 40 48
        E 0 90 43 48
        E 260 80 3c 00
        E 0 80 40 00
        E 0 80 43 00
        E 440 90 3c 48
        E 0 90 40 48
        E 0 90 43 48
        E 260 80 3c 00
        E 0 80 40 00
        E 0 80 43 00
        e 514 90 3c 48
        e 0 90 40 48
        e 0 90 43 48
        e 260 80 3c 00
        e 0 80 40 00
        e 0 80 43 00
        E 186 90 43 48
        E 0 90 47 48
        E 20 90 40 48
        E 1900 80 43 00
        E 0 80 47 00
        E 0 80 40 00
        E 0 90 43 48
        E 0 90 47 48
        E 20 90 40 48
        E 240 80 43 00
        E 0 80 47 00
        E 0 80 40 00
        E 440 90 43 48
        E 0 90 47 48
        E 20 90 40 48
        E 240 80 43 00
        E 0 80 47 00
        E 0 80 40 00
        e 514 90 43 48
        e 0 90 47 48
        e 20 90 40 48
        e 240 80 43 00
        e 0 80 47 00
        e 0 80 40 00
        E 186 90 41 48
        E 0 90 45 48
        E 0 90 48 48
        E 1920 80 41 00
        E 0 80 45 00
        E 0 80 48 00
        E 0 90 41 48
        E 0 90 45 48
        E 0 90 48 48
        E 260 80 41 00
        E 0 80 45 00
        E 0 80 48 00
        E 440 90 41 48
        E 0 90 45 48
        E 0 90 48 48
        E 260 80 41 00
        E 0 80 45 00
        E 0 80 48 00
        e 514 90 41 48
        e 0 90 45 48
        e 0 90 48 48
        e 260 80 41 00
        e 0 80 45 00
        e 0 80 48 00
        E 162 90 3e 48
        E 24 90 41 48
        E 0 90 45 48
        E 1896 90 3e 48
        E 24 80 3e 00
        E 0 80 41 00
        E 0 80 45 00
        E 0 90 41 48
        E 0 90 45 48
        E 260 80 3e 00
        E 0 80 41 00
        E 0 80 45 00
        E 416 90 3e 48
        E 24 90 41 48
        E 0 90 45 48
        E 260 80 3e 00
        E 0 80 41 00
        E 0 80 45 00
        e 490 90 3e 48
        e 24 90 41 48
        e 0 90 45 48
        e 260 80 3e 00
        e 0 80 41 00
        e 0 80 45 00
        E 186 b0 7b 00
        CHASE_CC_TAKEOFFS 1
        GUID {E611ADB6-4869-6CCA-8E83-3954D5E743B1}
        IGNTEMPO 0 120 4 4
        SRCCOLOR 27
        VELLANE -1 100 0
        CFGEDITVIEW 0 0.045808 45 12 0 -1 0 0 0 0.5
        KEYSNAP 0
        TRACKSEL 0
        EVTFILTER 0 -1 -1 -1 -1 0 0 0 0 -1 -1 -1 -1 0 -1 0 -1 -1
        CFGEDIT 1 1 0 1 0 0 1 1 1 1 1 1 58 171 1253 866 0 0 0 0 0.25 0 0 0 0 0.5 0 0 1 64
      >
    >
    <ITEM
      POSITION 88
      SNAPOFFS 0
      LENGTH 8
      LOOP 1
      ALLTAKES 0
      FADEIN 1 0 0 1 0 0
      FADEOUT 1 0 0 1 0 0
      MUTE 0
      SEL 1
      IGUID {9C40AB05-9F4E-0C22-2736-FCF7037232A2}
      IID 21
      NAME "01-Recorded MIDI"
      VOLPAN 1 0 1 -1
      SOFFS 0 0
      PLAYRATE 1 1 0 -1 0 0.0021
      CHANMODE 0
      GUID {6128E16A-D139-716C-301C-6AAFD54CC478}
      RECPASS 1
      <SOURCE MIDI
        HASDATA 1 960 QN
        CCINTERP 32
        POOLEDEVTS {07103976-F31E-66FD-066D-169C787571D6}
        E 0 90 3c 48
        E 0 90 40 48
        E 0 90 43 48
        E 1920 80 3c 00
        E 0 80 40 00
        E 0 80 43 00
        E 0 90 3c 48
        E 0 90 40 48
        E 0 90 43 48
        E 260 80 3c 00
        E 0 80 40 00
        E 0 80 43 00
        E 440 90 3c 48
        E 0 90 40 48
        E 0 90 43 48
        E 260 80 3c 00
        E 0 80 40 00
        E 0 80 43 00
        e 514 90 3c 48
        e 0 90 40 48
        e 0 90 43 48
        e 260 80 3c 00
        e 0 80 40 00
        e 0 80 43 00
        E 186 90 43 48
        E 0 90 47 48
        E 20 90 40 48
        E 1900 80 43 00
        E 0 80 47 00
        E 0 80 40 00
        E 0 90 43 48
        E 0 90 47 48
        E 20 90 40 48
        E 240 80 43 00
        E 0 80 47 00
        E 0 80 40 00
        E 440 90 43 48
        E 0 90 47 48
        E 20 90 40 48
        E 240 80 43 00
        E 0 80 47 00
        E 0 80 40 00
        e 514 90 43 48
        e 0 90 47 48
        e 20 90 40 48
        e 240 80 43 00
        e 0 80 47 00
        e 0 80 40 00
        E 186 90 41 48
        E 0 90 45 48
        E 0 90 48 48
        E 1920 80 41 00
        E 0 80 45 00
        E 0 80 48 00
        E 0 90 41 48
        E 0 90 45 48
        E 0 90 48 48
        E 260 80 41 00
        E 0 80 45 00
        E 0 80 48 00
        E 440 90 41 48
        E 0 90 45 48
        E 0 90 48 48
        E 260 80 41 00
        E 0 80 45 00
        E 0 80 48 00
        e 514 90 41 48
        e 0 90 45 48
        e 0 90 48 48
        e 260 80 41 00
        e 0 80 45 00
        e 0 80 48 00
        E 162 90 3e 48
        E 24 90 41 48
        E 0 90 45 48
        E 1896 90 3e 48
        E 24 80 3e 00
        E 0 80 41 00
        E 0 80 45 00
        E 0 90 41 48
        E 0 90 45 48
        E 260 80 3e 00
        E 0 80 41 00
        E 0 80 45 00
        E 416 90 3e 48
        E 24 90 41 48
        E 0 90 45 48
        E 260 80 3e 00
        E 0 80 41 00
        E 0 80 45 00
        e 490 90 3e 48
        e 24 90 41 48
        e 0 90 45 48
        e 260 80 3e 00
        e 0 80 41 00
        e 0 80 45 00
        E 186 b0 7b 00
        CHASE_CC_TAKEOFFS 1
        GUID {C762B555-17FC-D765-5340-11D3487D2955}
        IGNTEMPO 0 120 4 4
        SRCCOLOR 28
        VELLANE -1 100 0
        CFGEDITVIEW 0 0.045808 45 12 0 -1 0 0 0 0.5
        KEYSNAP 0
        TRACKSEL 0
        EVTFILTER 0 -1 -1 -1 -1 0 0 0 0 -1 -1 -1 -1 0 -1 0 -1 -1
        CFGEDIT 1 1 0 1 0 0 1 1 1 1 1 1 58 171 1253 866 0 0 0 0 0.25 0 0 0 0 0.5 0 0 1 64
      >
    >
  >
  <TRACK {6FC7E556-6571-ADDB-9255-E74E0F2CD90B}
    NAME ""
    PEAKCOL 16576
    BEAT -1
    AUTOMODE 0
    VOLPAN 0.00052194381917 0 -1 -1 1
    MUTESOLO 0 0 0
    IPHASE 0
    PLAYOFFS 0 1
    ISBUS 0 0
    BUSCOMP 0 0 0 0 0
    SHOWINMIX 1 0.6667 0.5 1 0.5 0 0 0
    FREEMODE 0
    SEL 0
    REC 0 5056 1 0 0 0 0
    VU 2
    TRACKHEIGHT 21 0 0
    INQ 0 0 0 0.5 100 0 0 100
    NCHAN 2
    FX 0
    TRACKID {6FC7E556-6571-ADDB-9255-E74E0F2CD90B}
    PERF 0
    MIDIOUT -1
    MAINSEND 1 0
    <FXCHAIN
      WNDRECT 346 266 902 608
      SHOW 0
      LASTSEL 5
      DOCKED 0
      BYPASS 0 0 0
      <VST "VST: ReaEQ (Cockos)" reaeq.vst.so 0 "" 1919247729<56535472656571726561657100000000> ""
        cWVlcu5e7f4CAAAAAQAAAAAAAAACAAAAAAAAAAIAAAABAAAAAAAAAAIAAAAAAAAAqAAAAAEAAAAAABAA
        IQAAAAQAAAAEAAAAAQAAAEC4Xhmm+DRAAAAAAAAA8D8AAAAAAAAAQAEIAAAAAQAAAAAAAAAAwHJAAAAAAAAA8D8AAAAAAAAAQAEIAAAAAQAAAAAAAAAAQI9AAAAAAAAA
        8D8AAAAAAAAAQAEDAAAAAQAAAAABaCorbdRAAAAAAAAA8D8AAAAAAAAAQAEBAAAAAQAAAAAAAAAAAPA/AAAAAJoCAACcAQAA
        AEhpZ2ggbG93IHBhc3MAEAAAAA==
      >
      PRESETNAME "High low pass"
      FLOATPOS 0 0 0 0
      FXID {3EC9AD4B-F45E-1751-8DF3-D659BAB94735}
      WAK 0 0
      BYPASS 0 0 0
      <VST "VSTi: ReaSynth (Cockos)" reasynth.vst.so 0 "" 1919251321<5653547265737972656173796E746800> ""
        eXNlcu9e7f4AAAAAAgAAAAEAAAAAAAAAAgAAAAAAAAA8AAAAAAAAAAAAEAA=
        776t3g3wrd6lm8Q7F7fROgAAAAAAAAAAAAAAAJCNuT3oZ4g9AACAPwAAAD8AAIA/AAAAAAAAAD8AAAAA
        AAAQAAAA
      >
      FLOATPOS 0 0 0 0
      FXID {A7F9B316-EAC9-FC71-48F8-54ECBF1263D2}
      WAK 0 0
      BYPASS 0 0 0
      <JS guitar/amp-model ""
        "Dumble Overdrive Special - Tweed Deluxe.wav" -21.000000 1.000000 0.000000 73.000000 256.000000 - - - - - - - - - - - - - - - - - - - - - - - - - - - - - - - - - - - - - - - - - - - - - - - - - - - - - - - - - - 
      >
      FLOATPOS 0 0 0 0
      FXID {E92EA639-15ED-8FF4-1E7D-B45CF76FA8D4}
      WAK 0 0
      BYPASS 0 0 0
      <VST "VST: ReaComp (Cockos)" reacomp.vst.so 0 "" 1919247213<5653547265636D726561636F6D700000> ""
        bWNlcu9e7f4EAAAAAQAAAAAAAAACAAAAAAAAAAQAAAAAAAAACAAAAAAAAAACAAAAAQAAAAAAAAACAAAAAAAAAFQAAAAAAAAAAAAQAA==
        776t3g3wrd5FoYg9/AWpPKWbxDsK16M8AAAAAAAAAAAAAIA/AAAAAAAAAAAAAAAAnNEHMwAAgD8AAAAAzMxMPQAAAAAAAAAAAAAAAAAAgD7YiZ09
        AAAQAAAA
      >
      FLOATPOS 0 0 0 0
      FXID {35B5C218-F31F-C0B1-9972-E7615C47F538}
      WAK 0 0
      BYPASS 0 0 0
      <VST "VST: ReaDelay (Cockos)" readelay.vst.so 0 "" 1919247468<5653547265646C72656164656C617900> ""
        bGRlcu5e7f4CAAAAAQAAAAAAAAACAAAAAAAAAAIAAAABAAAAAAAAAAIAAAAAAAAA/AAAAAEAAAAAAAAA
        AAAAAAAAAAAFAAAALAAAAAIAAAAEAAAAAACAPwAAgD8AAAAAAACAPwAAAAAAAIA7vTeGNQAAgD8AAAAAAACAPwAAgD8AAIA/AAAAAAAAAAAAAIA/AAAAAAAAADwAAAAA
        AACAPwAAAAAAAIA/AACAP+87NT8AAIA/AAAAAAAAgD8AAAAAAABAPL03hjUAAIA/AAAAAAAAgD8AAIA/zk0AP6abhD4AAAAAAACAPwAAAAAAAIA8vTeGNQAAgD8AAAAA
        AACAPwAAgD8aqrU+pHA9PwAAAAAAAIA/AAAAAAAAoDy9N4Y1AACAPwAAAAAAAIA/AACAP/npAD4AAAA/
        AHN0b2NrIC0gYmFzaWMgNSB0YXAgcGluZyBwb25nAAAAAAA=
      >
      PRESETNAME "stock - basic 5 tap ping pong"
      FLOATPOS 0 0 0 0
      FXID {0C27FEE3-24D4-B76E-EBF4-8624D45040B7}
      WAK 0 0
      BYPASS 0 0 0
      <VST "VST: ReaVerb (Cockos)" reaverb.vst.so 0 "" 1919252066<56535472657662726561766572620000> ""
        YnZlcu5e7f4CAAAAAQAAAAAAAAACAAAAAAAAAAIAAAABAAAAAAAAAAIAAAAAAAAAcAAAAAEAAAAAAAAA
        AAAAwcybgD4AAIA/AAAAAAAAgD8AAIA/AAAAPwAAgD8AAAAAVkVSQkdFTgAYAAAAAAAAAJHgV0QdrLRA3rK7QsHIjEIAAIC/RUNIT0dFTgAcAAAAy/i2QLUjdUJdzdM/
        osdfP5lRrzyRzYxAnMQAPw==
        AHN3ZWV0dmVyYm8AAAAAAA==
      >
      PRESETNAME sweetverbo
      FLOATPOS 0 0 0 0
      FXID {F13D5476-4F39-C620-6538-DE8665B27C77}
      WAK 0 0
    >
    <ITEM
      POSITION 0
      SNAPOFFS 0
      LENGTH 8
      LOOP 1
      ALLTAKES 0
      FADEIN 1 0 0 1 0 0
      FADEOUT 1 0 0 1 0 0
      MUTE 0
      SEL 1
      IGUID {0C26D75A-DEF0-FA2D-13D0-663AA349E1B7}
      IID 10
      NAME "01-Recorded MIDI"
      VOLPAN 1 0 1 -1
      SOFFS 0 0
      PLAYRATE 1 1 0 -1 0 0.0021
      CHANMODE 0
      GUID {F7C7B018-78BE-3B79-39E5-2A5164E8476D}
      RECPASS 1
      <SOURCE MIDI
        HASDATA 1 960 QN
        CCINTERP 32
        POOLEDEVTS {6CA8C0C1-472F-EEE4-80C1-DC202B2920ED}
        E 0 90 3c 48
        E 0 90 40 48
        E 0 90 43 48
        E 1920 80 3c 00
        E 0 80 40 00
        E 0 80 43 00
        E 0 90 3c 48
        E 0 90 40 48
        E 0 90 43 48
        E 260 80 3c 00
        E 0 80 40 00
        E 0 80 43 00
        E 440 90 3c 48
        E 0 90 40 48
        E 0 90 43 48
        E 260 80 3c 00
        E 0 80 40 00
        E 0 80 43 00
        e 514 90 3c 48
        e 0 90 40 48
        e 0 90 43 48
        e 260 80 3c 00
        e 0 80 40 00
        e 0 80 43 00
        E 186 90 43 48
        E 0 90 47 48
        E 20 90 40 48
        E 1900 80 43 00
        E 0 80 47 00
        E 0 80 40 00
        E 0 90 43 48
        E 0 90 47 48
        E 20 90 40 48
        E 240 80 43 00
        E 0 80 47 00
        E 0 80 40 00
        E 440 90 43 48
        E 0 90 47 48
        E 20 90 40 48
        E 240 80 43 00
        E 0 80 47 00
        E 0 80 40 00
        e 514 90 43 48
        e 0 90 47 48
        e 20 90 40 48
        e 240 80 43 00
        e 0 80 47 00
        e 0 80 40 00
        E 186 90 41 48
        E 0 90 45 48
        E 0 90 48 48
        E 1920 80 41 00
        E 0 80 45 00
        E 0 80 48 00
        E 0 90 41 48
        E 0 90 45 48
        E 0 90 48 48
        E 260 80 41 00
        E 0 80 45 00
        E 0 80 48 00
        E 440 90 41 48
        E 0 90 45 48
        E 0 90 48 48
        E 260 80 41 00
        E 0 80 45 00
        E 0 80 48 00
        e 514 90 41 48
        e 0 90 45 48
        e 0 90 48 48
        e 260 80 41 00
        e 0 80 45 00
        e 0 80 48 00
        E 162 90 3e 48
        E 24 90 41 48
        E 0 90 45 48
        E 1896 90 3e 48
        E 24 80 3e 00
        E 0 80 41 00
        E 0 80 45 00
        E 0 90 41 48
        E 0 90 45 48
        E 260 80 3e 00
        E 0 80 41 00
        E 0 80 45 00
        E 416 90 3e 48
        E 24 90 41 48
        E 0 90 45 48
        E 260 80 3e 00
        E 0 80 41 00
        E 0 80 45 00
        e 490 90 3e 48
        e 24 90 41 48
        e 0 90 45 48
        e 260 80 3e 00
        e 0 80 41 00
        e 0 80 45 00
        E 186 b0 7b 00
        CHASE_CC_TAKEOFFS 1
        GUID {7B9D708B-43E1-C8D4-C4B3-87E2A6C27801}
        IGNTEMPO 0 120 4 4
        SRCCOLOR 17
        VELLANE -1 100 0
        CFGEDITVIEW 0 0.045808 45 12 0 -1 0 0 0 0.5
        KEYSNAP 0
        TRACKSEL 0
        EVTFILTER 0 -1 -1 -1 -1 0 0 0 0 -1 -1 -1 -1 0 -1 0 -1 -1
        CFGEDIT 1 1 0 1 0 0 1 1 1 1 1 1 58 171 1253 866 0 0 0 0 0.25 0 0 0 0 0.5 0 0 1 64
      >
    >
    <ITEM
      POSITION 8
      SNAPOFFS 0
      LENGTH 8
      LOOP 1
      ALLTAKES 0
      FADEIN 1 0 0 1 0 0
      FADEOUT 1 0 0 1 0 0
      MUTE 0
      SEL 1
      IGUID {D6B7D074-CFAF-69D1-092C-CB31F7E2999C}
      IID 11
      NAME "01-Recorded MIDI"
      VOLPAN 1 0 1 -1
      SOFFS 0 0
      PLAYRATE 1 1 0 -1 0 0.0021
      CHANMODE 0
      GUID {8BCF28A3-9F09-F0FF-6591-C2CB50B753E6}
      RECPASS 1
      <SOURCE MIDI
        HASDATA 1 960 QN
        CCINTERP 32
        POOLEDEVTS {BFBDD670-FB3A-28F7-E459-8629039C0A67}
        E 0 90 3c 48
        E 0 90 40 48
        E 0 90 43 48
        E 1920 80 3c 00
        E 0 80 40 00
        E 0 80 43 00
        E 0 90 3c 48
        E 0 90 40 48
        E 0 90 43 48
        E 260 80 3c 00
        E 0 80 40 00
        E 0 80 43 00
        E 440 90 3c 48
        E 0 90 40 48
        E 0 90 43 48
        E 260 80 3c 00
        E 0 80 40 00
        E 0 80 43 00
        e 514 90 3c 48
        e 0 90 40 48
        e 0 90 43 48
        e 260 80 3c 00
        e 0 80 40 00
        e 0 80 43 00
        E 186 90 43 48
        E 0 90 47 48
        E 20 90 40 48
        E 1900 80 43 00
        E 0 80 47 00
        E 0 80 40 00
        E 0 90 43 48
        E 0 90 47 48
        E 20 90 40 48
        E 240 80 43 00
        E 0 80 47 00
        E 0 80 40 00
        E 440 90 43 48
        E 0 90 47 48
        E 20 90 40 48
        E 240 80 43 00
        E 0 80 47 00
        E 0 80 40 00
        e 514 90 43 48
        e 0 90 47 48
        e 20 90 40 48
        e 240 80 43 00
        e 0 80 47 00
        e 0 80 40 00
        E 186 90 41 48
        E 0 90 45 48
        E 0 90 48 48
        E 1920 80 41 00
        E 0 80 45 00
        E 0 80 48 00
        E 0 90 41 48
        E 0 90 45 48
        E 0 90 48 48
        E 260 80 41 00
        E 0 80 45 00
        E 0 80 48 00
        E 440 90 41 48
        E 0 90 45 48
        E 0 90 48 48
        E 260 80 41 00
        E 0 80 45 00
        E 0 80 48 00
        e 514 90 41 48
        e 0 90 45 48
        e 0 90 48 48
        e 260 80 41 00
        e 0 80 45 00
        e 0 80 48 00
        E 162 90 3e 48
        E 24 90 41 48
        E 0 90 45 48
        E 1896 90 3e 48
        E 24 80 3e 00
        E 0 80 41 00
        E 0 80 45 00
        E 0 90 41 48
        E 0 90 45 48
        E 260 80 3e 00
        E 0 80 41 00
        E 0 80 45 00
        E 416 90 3e 48
        E 24 90 41 48
        E 0 90 45 48
        E 260 80 3e 00
        E 0 80 41 00
        E 0 80 45 00
        e 490 90 3e 48
        e 24 90 41 48
        e 0 90 45 48
        e 260 80 3e 00
        e 0 80 41 00
        e 0 80 45 00
        E 186 b0 7b 00
        CHASE_CC_TAKEOFFS 1
        GUID {3131B4E2-B370-E352-A9C5-C8CA31551A86}
        IGNTEMPO 0 120 4 4
        SRCCOLOR 18
        VELLANE -1 100 0
        CFGEDITVIEW 0 0.045808 45 12 0 -1 0 0 0 0.5
        KEYSNAP 0
        TRACKSEL 0
        EVTFILTER 0 -1 -1 -1 -1 0 0 0 0 -1 -1 -1 -1 0 -1 0 -1 -1
        CFGEDIT 1 1 0 1 0 0 1 1 1 1 1 1 58 171 1253 866 0 0 0 0 0.25 0 0 0 0 0.5 0 0 1 64
      >
    >
    <ITEM
      POSITION 16
      SNAPOFFS 0
      LENGTH 8
      LOOP 1
      ALLTAKES 0
      FADEIN 1 0 0 1 0 0
      FADEOUT 1 0 0 1 0 0
      MUTE 0
      SEL 1
      IGUID {BCF72A0B-08A8-1E53-E637-9FDC06F8CBF2}
      IID 12
      NAME "01-Recorded MIDI"
      VOLPAN 1 0 1 -1
      SOFFS 0 0
      PLAYRATE 1 1 0 -1 0 0.0021
      CHANMODE 0
      GUID {4F1107A6-6DAF-E902-3C78-05229DFCECD0}
      RECPASS 1
      <SOURCE MIDI
        HASDATA 1 960 QN
        CCINTERP 32
        POOLEDEVTS {86595B33-31BA-E42F-AF13-13B2DDC12E98}
        E 0 90 3c 48
        E 0 90 40 48
        E 0 90 43 48
        E 1920 80 3c 00
        E 0 80 40 00
        E 0 80 43 00
        E 0 90 3c 48
        E 0 90 40 48
        E 0 90 43 48
        E 260 80 3c 00
        E 0 80 40 00
        E 0 80 43 00
        E 440 90 3c 48
        E 0 90 40 48
        E 0 90 43 48
        E 260 80 3c 00
        E 0 80 40 00
        E 0 80 43 00
        e 514 90 3c 48
        e 0 90 40 48
        e 0 90 43 48
        e 260 80 3c 00
        e 0 80 40 00
        e 0 80 43 00
        E 186 90 43 48
        E 0 90 47 48
        E 20 90 40 48
        E 1900 80 43 00
        E 0 80 47 00
        E 0 80 40 00
        E 0 90 43 48
        E 0 90 47 48
        E 20 90 40 48
        E 240 80 43 00
        E 0 80 47 00
        E 0 80 40 00
        E 440 90 43 48
        E 0 90 47 48
        E 20 90 40 48
        E 240 80 43 00
        E 0 80 47 00
        E 0 80 40 00
        e 514 90 43 48
        e 0 90 47 48
        e 20 90 40 48
        e 240 80 43 00
        e 0 80 47 00
        e 0 80 40 00
        E 186 90 41 48
        E 0 90 45 48
        E 0 90 48 48
        E 1920 80 41 00
        E 0 80 45 00
        E 0 80 48 00
        E 0 90 41 48
        E 0 90 45 48
        E 0 90 48 48
        E 260 80 41 00
        E 0 80 45 00
        E 0 80 48 00
        E 440 90 41 48
        E 0 90 45 48
        E 0 90 48 48
        E 260 80 41 00
        E 0 80 45 00
        E 0 80 48 00
        e 514 90 41 48
        e 0 90 45 48
        e 0 90 48 48
        e 260 80 41 00
        e 0 80 45 00
        e 0 80 48 00
        E 162 90 3e 48
        E 24 90 41 48
        E 0 90 45 48
        E 1896 90 3e 48
        E 24 80 3e 00
        E 0 80 41 00
        E 0 80 45 00
        E 0 90 41 48
        E 0 90 45 48
        E 260 80 3e 00
        E 0 80 41 00
        E 0 80 45 00
        E 416 90 3e 48
        E 24 90 41 48
        E 0 90 45 48
        E 260 80 3e 00
        E 0 80 41 00
        E 0 80 45 00
        e 490 90 3e 48
        e 24 90 41 48
        e 0 90 45 48
        e 260 80 3e 00
        e 0 80 41 00
        e 0 80 45 00
        E 186 b0 7b 00
        CHASE_CC_TAKEOFFS 1
        GUID {48C567A2-895C-FB9B-FDBA-0ADB7004ABF3}
        IGNTEMPO 0 120 4 4
        SRCCOLOR 19
        VELLANE -1 100 0
        CFGEDITVIEW 0 0.045808 45 12 0 -1 0 0 0 0.5
        KEYSNAP 0
        TRACKSEL 0
        EVTFILTER 0 -1 -1 -1 -1 0 0 0 0 -1 -1 -1 -1 0 -1 0 -1 -1
        CFGEDIT 1 1 0 1 0 0 1 1 1 1 1 1 58 171 1253 866 0 0 0 0 0.25 0 0 0 0 0.5 0 0 1 64
      >
    >
    <ITEM
      POSITION 24
      SNAPOFFS 0
      LENGTH 8
      LOOP 1
      ALLTAKES 0
      FADEIN 1 0 0 1 0 0
      FADEOUT 1 0 0 1 0 0
      MUTE 0
      SEL 1
      IGUID {76A9DAD2-D308-3E84-22AB-DCAD9F08638A}
      IID 13
      NAME "01-Recorded MIDI"
      VOLPAN 1 0 1 -1
      SOFFS 0 0
      PLAYRATE 1 1 0 -1 0 0.0021
      CHANMODE 0
      GUID {3CDF1EAC-E22F-C5C4-64AC-3B20E98D2609}
      RECPASS 1
      <SOURCE MIDI
        HASDATA 1 960 QN
        CCINTERP 32
        POOLEDEVTS {655963DB-683C-45D3-2945-4CBDFC2CF3D2}
        E 0 90 3c 48
        E 0 90 40 48
        E 0 90 43 48
        E 1920 80 3c 00
        E 0 80 40 00
        E 0 80 43 00
        E 0 90 3c 48
        E 0 90 40 48
        E 0 90 43 48
        E 260 80 3c 00
        E 0 80 40 00
        E 0 80 43 00
        E 440 90 3c 48
        E 0 90 40 48
        E 0 90 43 48
        E 260 80 3c 00
        E 0 80 40 00
        E 0 80 43 00
        e 514 90 3c 48
        e 0 90 40 48
        e 0 90 43 48
        e 260 80 3c 00
        e 0 80 40 00
        e 0 80 43 00
        E 186 90 43 48
        E 0 90 47 48
        E 20 90 40 48
        E 1900 80 43 00
        E 0 80 47 00
        E 0 80 40 00
        E 0 90 43 48
        E 0 90 47 48
        E 20 90 40 48
        E 240 80 43 00
        E 0 80 47 00
        E 0 80 40 00
        E 440 90 43 48
        E 0 90 47 48
        E 20 90 40 48
        E 240 80 43 00
        E 0 80 47 00
        E 0 80 40 00
        e 514 90 43 48
        e 0 90 47 48
        e 20 90 40 48
        e 240 80 43 00
        e 0 80 47 00
        e 0 80 40 00
        E 186 90 41 48
        E 0 90 45 48
        E 0 90 48 48
        E 1920 80 41 00
        E 0 80 45 00
        E 0 80 48 00
        E 0 90 41 48
        E 0 90 45 48
        E 0 90 48 48
        E 260 80 41 00
        E 0 80 45 00
        E 0 80 48 00
        E 440 90 41 48
        E 0 90 45 48
        E 0 90 48 48
        E 260 80 41 00
        E 0 80 45 00
        E 0 80 48 00
        e 514 90 41 48
        e 0 90 45 48
        e 0 90 48 48
        e 260 80 41 00
        e 0 80 45 00
        e 0 80 48 00
        E 162 90 3e 48
        E 24 90 41 48
        E 0 90 45 48
        E 1896 90 3e 48
        E 24 80 3e 00
        E 0 80 41 00
        E 0 80 45 00
        E 0 90 41 48
        E 0 90 45 48
        E 260 80 3e 00
        E 0 80 41 00
        E 0 80 45 00
        E 416 90 3e 48
        E 24 90 41 48
        E 0 90 45 48
        E 260 80 3e 00
        E 0 80 41 00
        E 0 80 45 00
        e 490 90 3e 48
        e 24 90 41 48
        e 0 90 45 48
        e 260 80 3e 00
        e 0 80 41 00
        e 0 80 45 00
        E 186 b0 7b 00
        CHASE_CC_TAKEOFFS 1
        GUID {1DE38800-E2A1-41B5-9C8C-3291891093B1}
        IGNTEMPO 0 120 4 4
        SRCCOLOR 20
        VELLANE -1 100 0
        CFGEDITVIEW 0 0.045808 45 12 0 -1 0 0 0 0.5
        KEYSNAP 0
        TRACKSEL 0
        EVTFILTER 0 -1 -1 -1 -1 0 0 0 0 -1 -1 -1 -1 0 -1 0 -1 -1
        CFGEDIT 1 1 0 1 0 0 1 1 1 1 1 1 58 171 1253 866 0 0 0 0 0.25 0 0 0 0 0.5 0 0 1 64
      >
    >
    <ITEM
      POSITION 32
      SNAPOFFS 0
      LENGTH 8
      LOOP 1
      ALLTAKES 0
      FADEIN 1 0 0 1 0 0
      FADEOUT 1 0 0 1 0 0
      MUTE 0
      SEL 1
      IGUID {7AB52976-898F-875C-B5EC-91E7F4B36766}
      IID 14
      NAME "01-Recorded MIDI"
      VOLPAN 1 0 1 -1
      SOFFS 0 0
      PLAYRATE 1 1 0 -1 0 0.0021
      CHANMODE 0
      GUID {538BC2C5-C9A9-DDED-D652-32F915EF5AF4}
      RECPASS 1
      <SOURCE MIDI
        HASDATA 1 960 QN
        CCINTERP 32
        POOLEDEVTS {3FD3943D-16E6-316A-718E-85E83EE0250E}
        E 0 90 3c 48
        E 0 90 40 48
        E 0 90 43 48
        E 1920 80 3c 00
        E 0 80 40 00
        E 0 80 43 00
        E 0 90 3c 48
        E 0 90 40 48
        E 0 90 43 48
        E 260 80 3c 00
        E 0 80 40 00
        E 0 80 43 00
        E 440 90 3c 48
        E 0 90 40 48
        E 0 90 43 48
        E 260 80 3c 00
        E 0 80 40 00
        E 0 80 43 00
        e 514 90 3c 48
        e 0 90 40 48
        e 0 90 43 48
        e 260 80 3c 00
        e 0 80 40 00
        e 0 80 43 00
        E 186 90 43 48
        E 0 90 47 48
        E 20 90 40 48
        E 1900 80 43 00
        E 0 80 47 00
        E 0 80 40 00
        E 0 90 43 48
        E 0 90 47 48
        E 20 90 40 48
        E 240 80 43 00
        E 0 80 47 00
        E 0 80 40 00
        E 440 90 43 48
        E 0 90 47 48
        E 20 90 40 48
        E 240 80 43 00
        E 0 80 47 00
        E 0 80 40 00
        e 514 90 43 48
        e 0 90 47 48
        e 20 90 40 48
        e 240 80 43 00
        e 0 80 47 00
        e 0 80 40 00
        E 186 90 41 48
        E 0 90 45 48
        E 0 90 48 48
        E 1920 80 41 00
        E 0 80 45 00
        E 0 80 48 00
        E 0 90 41 48
        E 0 90 45 48
        E 0 90 48 48
        E 260 80 41 00
        E 0 80 45 00
        E 0 80 48 00
        E 440 90 41 48
        E 0 90 45 48
        E 0 90 48 48
        E 260 80 41 00
        E 0 80 45 00
        E 0 80 48 00
        e 514 90 41 48
        e 0 90 45 48
        e 0 90 48 48
        e 260 80 41 00
        e 0 80 45 00
        e 0 80 48 00
        E 162 90 3e 48
        E 24 90 41 48
        E 0 90 45 48
        E 1896 90 3e 48
        E 24 80 3e 00
        E 0 80 41 00
        E 0 80 45 00
        E 0 90 41 48
        E 0 90 45 48
        E 260 80 3e 00
        E 0 80 41 00
        E 0 80 45 00
        E 416 90 3e 48
        E 24 90 41 48
        E 0 90 45 48
        E 260 80 3e 00
        E 0 80 41 00
        E 0 80 45 00
        e 490 90 3e 48
        e 24 90 41 48
        e 0 90 45 48
        e 260 80 3e 00
        e 0 80 41 00
        e 0 80 45 00
        E 186 b0 7b 00
        CHASE_CC_TAKEOFFS 1
        GUID {0C3271F4-E233-9088-9B25-A722FAE7C579}
        IGNTEMPO 0 120 4 4
        SRCCOLOR 21
        VELLANE -1 100 0
        CFGEDITVIEW 0 0.045808 45 12 0 -1 0 0 0 0.5
        KEYSNAP 0
        TRACKSEL 0
        EVTFILTER 0 -1 -1 -1 -1 0 0 0 0 -1 -1 -1 -1 0 -1 0 -1 -1
        CFGEDIT 1 1 0 1 0 0 1 1 1 1 1 1 58 171 1253 866 0 0 0 0 0.25 0 0 0 0 0.5 0 0 1 64
      >
    >
    <ITEM
      POSITION 40
      SNAPOFFS 0
      LENGTH 8
      LOOP 1
      ALLTAKES 0
      FADEIN 1 0 0 1 0 0
      FADEOUT 1 0 0 1 0 0
      MUTE 0
      SEL 1
      IGUID {78B5160E-38B1-D491-EED2-B4DDB91F08E4}
      IID 15
      NAME "01-Recorded MIDI"
      VOLPAN 1 0 1 -1
      SOFFS 0 0
      PLAYRATE 1 1 0 -1 0 0.0021
      CHANMODE 0
      GUID {563E5705-8D88-7CA6-3E85-5C10964F1636}
      RECPASS 1
      <SOURCE MIDI
        HASDATA 1 960 QN
        CCINTERP 32
        POOLEDEVTS {37940214-A35C-EE83-F1F5-E5BEDEE9502E}
        E 0 90 3c 48
        E 0 90 40 48
        E 0 90 43 48
        E 1920 80 3c 00
        E 0 80 40 00
        E 0 80 43 00
        E 0 90 3c 48
        E 0 90 40 48
        E 0 90 43 48
        E 260 80 3c 00
        E 0 80 40 00
        E 0 80 43 00
        E 440 90 3c 48
        E 0 90 40 48
        E 0 90 43 48
        E 260 80 3c 00
        E 0 80 40 00
        E 0 80 43 00
        e 514 90 3c 48
        e 0 90 40 48
        e 0 90 43 48
        e 260 80 3c 00
        e 0 80 40 00
        e 0 80 43 00
        E 186 90 43 48
        E 0 90 47 48
        E 20 90 40 48
        E 1900 80 43 00
        E 0 80 47 00
        E 0 80 40 00
        E 0 90 43 48
        E 0 90 47 48
        E 20 90 40 48
        E 240 80 43 00
        E 0 80 47 00
        E 0 80 40 00
        E 440 90 43 48
        E 0 90 47 48
        E 20 90 40 48
        E 240 80 43 00
        E 0 80 47 00
        E 0 80 40 00
        e 514 90 43 48
        e 0 90 47 48
        e 20 90 40 48
        e 240 80 43 00
        e 0 80 47 00
        e 0 80 40 00
        E 186 90 41 48
        E 0 90 45 48
        E 0 90 48 48
        E 1920 80 41 00
        E 0 80 45 00
        E 0 80 48 00
        E 0 90 41 48
        E 0 90 45 48
        E 0 90 48 48
        E 260 80 41 00
        E 0 80 45 00
        E 0 80 48 00
        E 440 90 41 48
        E 0 90 45 48
        E 0 90 48 48
        E 260 80 41 00
        E 0 80 45 00
        E 0 80 48 00
        e 514 90 41 48
        e 0 90 45 48
        e 0 90 48 48
        e 260 80 41 00
        e 0 80 45 00
        e 0 80 48 00
        E 162 90 3e 48
        E 24 90 41 48
        E 0 90 45 48
        E 1896 90 3e 48
        E 24 80 3e 00
        E 0 80 41 00
        E 0 80 45 00
        E 0 90 41 48
        E 0 90 45 48
        E 260 80 3e 00
        E 0 80 41 00
        E 0 80 45 00
        E 416 90 3e 48
        E 24 90 41 48
        E 0 90 45 48
        E 260 80 3e 00
        E 0 80 41 00
        E 0 80 45 00
        e 490 90 3e 48
        e 24 90 41 48
        e 0 90 45 48
        e 260 80 3e 00
        e 0 80 41 00
        e 0 80 45 00
        E 186 b0 7b 00
        CHASE_CC_TAKEOFFS 1
        GUID {040E7AF8-3572-5D91-3C86-797AEE7444D4}
        IGNTEMPO 0 120 4 4
        SRCCOLOR 22
        VELLANE -1 100 0
        CFGEDITVIEW 0 0.045808 45 12 0 -1 0 0 0 0.5
        KEYSNAP 0
        TRACKSEL 0
        EVTFILTER 0 -1 -1 -1 -1 0 0 0 0 -1 -1 -1 -1 0 -1 0 -1 -1
        CFGEDIT 1 1 0 1 0 0 1 1 1 1 1 1 58 171 1253 866 0 0 0 0 0.25 0 0 0 0 0.5 0 0 1 64
      >
    >
    <ITEM
      POSITION 48
      SNAPOFFS 0
      LENGTH 8
      LOOP 1
      ALLTAKES 0
      FADEIN 1 0 0 1 0 0
      FADEOUT 1 0 0 1 0 0
      MUTE 0
      SEL 1
      IGUID {D9E4DEEC-C619-EE22-2923-287149AC05BA}
      IID 16
      NAME "01-Recorded MIDI"
      VOLPAN 1 0 1 -1
      SOFFS 0 0
      PLAYRATE 1 1 0 -1 0 0.0021
      CHANMODE 0
      GUID {8192FA8E-89A8-70F5-898F-6A21CAE91587}
      RECPASS 1
      <SOURCE MIDI
        HASDATA 1 960 QN
        CCINTERP 32
        POOLEDEVTS {4F1D55A5-B3D0-87E1-AC17-3425B62D9F51}
        E 0 90 3c 48
        E 0 90 40 48
        E 0 90 43 48
        E 1920 80 3c 00
        E 0 80 40 00
        E 0 80 43 00
        E 0 90 3c 48
        E 0 90 40 48
        E 0 90 43 48
        E 260 80 3c 00
        E 0 80 40 00
        E 0 80 43 00
        E 440 90 3c 48
        E 0 90 40 48
        E 0 90 43 48
        E 260 80 3c 00
        E 0 80 40 00
        E 0 80 43 00
        e 514 90 3c 48
        e 0 90 40 48
        e 0 90 43 48
        e 260 80 3c 00
        e 0 80 40 00
        e 0 80 43 00
        E 186 90 43 48
        E 0 90 47 48
        E 20 90 40 48
        E 1900 80 43 00
        E 0 80 47 00
        E 0 80 40 00
        E 0 90 43 48
        E 0 90 47 48
        E 20 90 40 48
        E 240 80 43 00
        E 0 80 47 00
        E 0 80 40 00
        E 440 90 43 48
        E 0 90 47 48
        E 20 90 40 48
        E 240 80 43 00
        E 0 80 47 00
        E 0 80 40 00
        e 514 90 43 48
        e 0 90 47 48
        e 20 90 40 48
        e 240 80 43 00
        e 0 80 47 00
        e 0 80 40 00
        E 186 90 41 48
        E 0 90 45 48
        E 0 90 48 48
        E 1920 80 41 00
        E 0 80 45 00
        E 0 80 48 00
        E 0 90 41 48
        E 0 90 45 48
        E 0 90 48 48
        E 260 80 41 00
        E 0 80 45 00
        E 0 80 48 00
        E 440 90 41 48
        E 0 90 45 48
        E 0 90 48 48
        E 260 80 41 00
        E 0 80 45 00
        E 0 80 48 00
        e 514 90 41 48
        e 0 90 45 48
        e 0 90 48 48
        e 260 80 41 00
        e 0 80 45 00
        e 0 80 48 00
        E 162 90 3e 48
        E 24 90 41 48
        E 0 90 45 48
        E 1896 90 3e 48
        E 24 80 3e 00
        E 0 80 41 00
        E 0 80 45 00
        E 0 90 41 48
        E 0 90 45 48
        E 260 80 3e 00
        E 0 80 41 00
        E 0 80 45 00
        E 416 90 3e 48
        E 24 90 41 48
        E 0 90 45 48
        E 260 80 3e 00
        E 0 80 41 00
        E 0 80 45 00
        e 490 90 3e 48
        e 24 90 41 48
        e 0 90 45 48
        e 260 80 3e 00
        e 0 80 41 00
        e 0 80 45 00
        E 186 b0 7b 00
        CHASE_CC_TAKEOFFS 1
        GUID {2338968B-6CF9-9F40-300F-DEB89D3392EA}
        IGNTEMPO 0 120 4 4
        SRCCOLOR 23
        VELLANE -1 100 0
        CFGEDITVIEW 0 0.045808 45 12 0 -1 0 0 0 0.5
        KEYSNAP 0
        TRACKSEL 0
        EVTFILTER 0 -1 -1 -1 -1 0 0 0 0 -1 -1 -1 -1 0 -1 0 -1 -1
        CFGEDIT 1 1 0 1 0 0 1 1 1 1 1 1 58 171 1253 866 0 0 0 0 0.25 0 0 0 0 0.5 0 0 1 64
      >
    >
    <ITEM
      POSITION 56
      SNAPOFFS 0
      LENGTH 8
      LOOP 1
      ALLTAKES 0
      FADEIN 1 0 0 1 0 0
      FADEOUT 1 0 0 1 0 0
      MUTE 0
      SEL 1
      IGUID {7F4FE7DC-4E18-E6A4-9523-114D6A231217}
      IID 17
      NAME "01-Recorded MIDI"
      VOLPAN 1 0 1 -1
      SOFFS 0 0
      PLAYRATE 1 1 0 -1 0 0.0021
      CHANMODE 0
      GUID {091C1047-14F2-F038-17F6-4836694C4E6D}
      RECPASS 1
      <SOURCE MIDI
        HASDATA 1 960 QN
        CCINTERP 32
        POOLEDEVTS {C1643258-D84D-A073-3B13-E9C7E32A5471}
        E 0 90 3c 48
        E 0 90 40 48
        E 0 90 43 48
        E 1920 80 3c 00
        E 0 80 40 00
        E 0 80 43 00
        E 0 90 3c 48
        E 0 90 40 48
        E 0 90 43 48
        E 260 80 3c 00
        E 0 80 40 00
        E 0 80 43 00
        E 440 90 3c 48
        E 0 90 40 48
        E 0 90 43 48
        E 260 80 3c 00
        E 0 80 40 00
        E 0 80 43 00
        e 514 90 3c 48
        e 0 90 40 48
        e 0 90 43 48
        e 260 80 3c 00
        e 0 80 40 00
        e 0 80 43 00
        E 186 90 43 48
        E 0 90 47 48
        E 20 90 40 48
        E 1900 80 43 00
        E 0 80 47 00
        E 0 80 40 00
        E 0 90 43 48
        E 0 90 47 48
        E 20 90 40 48
        E 240 80 43 00
        E 0 80 47 00
        E 0 80 40 00
        E 440 90 43 48
        E 0 90 47 48
        E 20 90 40 48
        E 240 80 43 00
        E 0 80 47 00
        E 0 80 40 00
        e 514 90 43 48
        e 0 90 47 48
        e 20 90 40 48
        e 240 80 43 00
        e 0 80 47 00
        e 0 80 40 00
        E 186 90 41 48
        E 0 90 45 48
        E 0 90 48 48
        E 1920 80 41 00
        E 0 80 45 00
        E 0 80 48 00
        E 0 90 41 48
        E 0 90 45 48
        E 0 90 48 48
        E 260 80 41 00
        E 0 80 45 00
        E 0 80 48 00
        E 440 90 41 48
        E 0 90 45 48
        E 0 90 48 48
        E 260 80 41 00
        E 0 80 45 00
        E 0 80 48 00
        e 514 90 41 48
        e 0 90 45 48
        e 0 90 48 48
        e 260 80 41 00
        e 0 80 45 00
        e 0 80 48 00
        E 162 90 3e 48
        E 24 90 41 48
        E 0 90 45 48
        E 1896 90 3e 48
        E 24 80 3e 00
        E 0 80 41 00
        E 0 80 45 00
        E 0 90 41 48
        E 0 90 45 48
        E 260 80 3e 00
        E 0 80 41 00
        E 0 80 45 00
        E 416 90 3e 48
        E 24 90 41 48
        E 0 90 45 48
        E 260 80 3e 00
        E 0 80 41 00
        E 0 80 45 00
        e 490 90 3e 48
        e 24 90 41 48
        e 0 90 45 48
        e 260 80 3e 00
        e 0 80 41 00
        e 0 80 45 00
        E 186 b0 7b 00
        CHASE_CC_TAKEOFFS 1
        GUID {A64857E2-94F8-0990-20DF-4C1E9B5E6251}
        IGNTEMPO 0 120 4 4
        SRCCOLOR 24
        VELLANE -1 100 0
        CFGEDITVIEW 0 0.045808 45 12 0 -1 0 0 0 0.5
        KEYSNAP 0
        TRACKSEL 0
        EVTFILTER 0 -1 -1 -1 -1 0 0 0 0 -1 -1 -1 -1 0 -1 0 -1 -1
        CFGEDIT 1 1 0 1 0 0 1 1 1 1 1 1 58 171 1253 866 0 0 0 0 0.25 0 0 0 0 0.5 0 0 1 64
      >
    >
    <ITEM
      POSITION 64
      SNAPOFFS 0
      LENGTH 8
      LOOP 1
      ALLTAKES 0
      FADEIN 1 0 0 1 0 0
      FADEOUT 1 0 0 1 0 0
      MUTE 0
      SEL 1
      IGUID {0A6F5B23-F6D3-9AF0-9AF1-4935E16B2076}
      IID 18
      NAME "01-Recorded MIDI"
      VOLPAN 1 0 1 -1
      SOFFS 0 0
      PLAYRATE 1 1 0 -1 0 0.0021
      CHANMODE 0
      GUID {12F27321-7719-C8EB-AE73-55E661157E23}
      RECPASS 1
      <SOURCE MIDI
        HASDATA 1 960 QN
        CCINTERP 32
        POOLEDEVTS {1B5669D4-9735-6EF2-4F4E-EF891E442787}
        E 0 90 3c 48
        E 0 90 40 48
        E 0 90 43 48
        E 1920 80 3c 00
        E 0 80 40 00
        E 0 80 43 00
        E 0 90 3c 48
        E 0 90 40 48
        E 0 90 43 48
        E 260 80 3c 00
        E 0 80 40 00
        E 0 80 43 00
        E 440 90 3c 48
        E 0 90 40 48
        E 0 90 43 48
        E 260 80 3c 00
        E 0 80 40 00
        E 0 80 43 00
        e 514 90 3c 48
        e 0 90 40 48
        e 0 90 43 48
        e 260 80 3c 00
        e 0 80 40 00
        e 0 80 43 00
        E 186 90 43 48
        E 0 90 47 48
        E 20 90 40 48
        E 1900 80 43 00
        E 0 80 47 00
        E 0 80 40 00
        E 0 90 43 48
        E 0 90 47 48
        E 20 90 40 48
        E 240 80 43 00
        E 0 80 47 00
        E 0 80 40 00
        E 440 90 43 48
        E 0 90 47 48
        E 20 90 40 48
        E 240 80 43 00
        E 0 80 47 00
        E 0 80 40 00
        e 514 90 43 48
        e 0 90 47 48
        e 20 90 40 48
        e 240 80 43 00
        e 0 80 47 00
        e 0 80 40 00
        E 186 90 41 48
        E 0 90 45 48
        E 0 90 48 48
        E 1920 80 41 00
        E 0 80 45 00
        E 0 80 48 00
        E 0 90 41 48
        E 0 90 45 48
        E 0 90 48 48
        E 260 80 41 00
        E 0 80 45 00
        E 0 80 48 00
        E 440 90 41 48
        E 0 90 45 48
        E 0 90 48 48
        E 260 80 41 00
        E 0 80 45 00
        E 0 80 48 00
        e 514 90 41 48
        e 0 90 45 48
        e 0 90 48 48
        e 260 80 41 00
        e 0 80 45 00
        e 0 80 48 00
        E 162 90 3e 48
        E 24 90 41 48
        E 0 90 45 48
        E 1896 90 3e 48
        E 24 80 3e 00
        E 0 80 41 00
        E 0 80 45 00
        E 0 90 41 48
        E 0 90 45 48
        E 260 80 3e 00
        E 0 80 41 00
        E 0 80 45 00
        E 416 90 3e 48
        E 24 90 41 48
        E 0 90 45 48
        E 260 80 3e 00
        E 0 80 41 00
        E 0 80 45 00
        e 490 90 3e 48
        e 24 90 41 48
        e 0 90 45 48
        e 260 80 3e 00
        e 0 80 41 00
        e 0 80 45 00
        E 186 b0 7b 00
        CHASE_CC_TAKEOFFS 1
        GUID {19362806-85F2-5D9E-E1F9-07BE0CF3D16E}
        IGNTEMPO 0 120 4 4
        SRCCOLOR 25
        VELLANE -1 100 0
        CFGEDITVIEW 0 0.045808 45 12 0 -1 0 0 0 0.5
        KEYSNAP 0
        TRACKSEL 0
        EVTFILTER 0 -1 -1 -1 -1 0 0 0 0 -1 -1 -1 -1 0 -1 0 -1 -1
        CFGEDIT 1 1 0 1 0 0 1 1 1 1 1 1 58 171 1253 866 0 0 0 0 0.25 0 0 0 0 0.5 0 0 1 64
      >
    >
    <ITEM
      POSITION 72
      SNAPOFFS 0
      LENGTH 8
      LOOP 1
      ALLTAKES 0
      FADEIN 1 0 0 1 0 0
      FADEOUT 1 0 0 1 0 0
      MUTE 0
      SEL 1
      IGUID {0CA35636-5136-20C8-B10E-10EEFF2E650F}
      IID 19
      NAME "01-Recorded MIDI"
      VOLPAN 1 0 1 -1
      SOFFS 0 0
      PLAYRATE 1 1 0 -1 0 0.0021
      CHANMODE 0
      GUID {49C394A3-0B9C-29E0-5A30-E85AD6104DE0}
      RECPASS 1
      <SOURCE MIDI
        HASDATA 1 960 QN
        CCINTERP 32
        POOLEDEVTS {61A0FE2F-1BC0-7850-D6C6-81F846F0749D}
        E 0 90 3c 48
        E 0 90 40 48
        E 0 90 43 48
        E 1920 80 3c 00
        E 0 80 40 00
        E 0 80 43 00
        E 0 90 3c 48
        E 0 90 40 48
        E 0 90 43 48
        E 260 80 3c 00
        E 0 80 40 00
        E 0 80 43 00
        E 440 90 3c 48
        E 0 90 40 48
        E 0 90 43 48
        E 260 80 3c 00
        E 0 80 40 00
        E 0 80 43 00
        e 514 90 3c 48
        e 0 90 40 48
        e 0 90 43 48
        e 260 80 3c 00
        e 0 80 40 00
        e 0 80 43 00
        E 186 90 43 48
        E 0 90 47 48
        E 20 90 40 48
        E 1900 80 43 00
        E 0 80 47 00
        E 0 80 40 00
        E 0 90 43 48
        E 0 90 47 48
        E 20 90 40 48
        E 240 80 43 00
        E 0 80 47 00
        E 0 80 40 00
        E 440 90 43 48
        E 0 90 47 48
        E 20 90 40 48
        E 240 80 43 00
        E 0 80 47 00
        E 0 80 40 00
        e 514 90 43 48
        e 0 90 47 48
        e 20 90 40 48
        e 240 80 43 00
        e 0 80 47 00
        e 0 80 40 00
        E 186 90 41 48
        E 0 90 45 48
        E 0 90 48 48
        E 1920 80 41 00
        E 0 80 45 00
        E 0 80 48 00
        E 0 90 41 48
        E 0 90 45 48
        E 0 90 48 48
        E 260 80 41 00
        E 0 80 45 00
        E 0 80 48 00
        E 440 90 41 48
        E 0 90 45 48
        E 0 90 48 48
        E 260 80 41 00
        E 0 80 45 00
        E 0 80 48 00
        e 514 90 41 48
        e 0 90 45 48
        e 0 90 48 48
        e 260 80 41 00
        e 0 80 45 00
        e 0 80 48 00
        E 162 90 3e 48
        E 24 90 41 48
        E 0 90 45 48
        E 1896 90 3e 48
        E 24 80 3e 00
        E 0 80 41 00
        E 0 80 45 00
        E 0 90 41 48
        E 0 90 45 48
        E 260 80 3e 00
        E 0 80 41 00
        E 0 80 45 00
        E 416 90 3e 48
        E 24 90 41 48
        E 0 90 45 48
        E 260 80 3e 00
        E 0 80 41 00
        E 0 80 45 00
        e 490 90 3e 48
        e 24 90 41 48
        e 0 90 45 48
        e 260 80 3e 00
        e 0 80 41 00
        e 0 80 45 00
        E 186 b0 7b 00
        CHASE_CC_TAKEOFFS 1
        GUID {6844F8A9-6BE9-023C-4A46-0A676470C99B}
        IGNTEMPO 0 120 4 4
        SRCCOLOR 26
        VELLANE -1 100 0
        CFGEDITVIEW 0 0.045808 45 12 0 -1 0 0 0 0.5
        KEYSNAP 0
        TRACKSEL 0
        EVTFILTER 0 -1 -1 -1 -1 0 0 0 0 -1 -1 -1 -1 0 -1 0 -1 -1
        CFGEDIT 1 1 0 1 0 0 1 1 1 1 1 1 58 171 1253 866 0 0 0 0 0.25 0 0 0 0 0.5 0 0 1 64
      >
    >
    <ITEM
      POSITION 80
      SNAPOFFS 0
      LENGTH 8
      LOOP 1
      ALLTAKES 0
      FADEIN 1 0 0 1 0 0
      FADEOUT 1 0 0 1 0 0
      MUTE 0
      SEL 1
      IGUID {8D1AC4CB-6B23-345F-958D-298993F83399}
      IID 20
      NAME "01-Recorded MIDI"
      VOLPAN 1 0 1 -1
      SOFFS 0 0
      PLAYRATE 1 1 0 -1 0 0.0021
      CHANMODE 0
      GUID {108C106F-7922-EBFD-6E8E-B23272C9040B}
      RECPASS 1
      <SOURCE MIDI
        HASDATA 1 960 QN
        CCINTERP 32
        POOLEDEVTS {BFB2E199-31A5-74D4-754A-C9EA8729AA23}
        E 0 90 3c 48
        E 0 90 40 48
        E 0 90 43 48
        E 1920 80 3c 00
        E 0 80 40 00
        E 0 80 43 00
        E 0 90 3c 48
        E 0 90 40 48
        E 0 90 43 48
        E 260 80 3c 00
        E 0 80 40 00
        E 0 80 43 00
        E 440 90 3c 48
        E 0 90 40 48
        E 0 90 43 48
        E 260 80 3c 00
        E 0 80 40 00
        E 0 80 43 00
        e 514 90 3c 48
        e 0 90 40 48
        e 0 90 43 48
        e 260 80 3c 00
        e 0 80 40 00
        e 0 80 43 00
        E 186 90 43 48
        E 0 90 47 48
        E 20 90 40 48
        E 1900 80 43 00
        E 0 80 47 00
        E 0 80 40 00
        E 0 90 43 48
        E 0 90 47 48
        E 20 90 40 48
        E 240 80 43 00
        E 0 80 47 00
        E 0 80 40 00
        E 440 90 43 48
        E 0 90 47 48
        E 20 90 40 48
        E 240 80 43 00
        E 0 80 47 00
        E 0 80 40 00
        e 514 90 43 48
        e 0 90 47 48
        e 20 90 40 48
        e 240 80 43 00
        e 0 80 47 00
        e 0 80 40 00
        E 186 90 41 48
        E 0 90 45 48
        E 0 90 48 48
        E 1920 80 41 00
        E 0 80 45 00
        E 0 80 48 00
        E 0 90 41 48
        E 0 90 45 48
        E 0 90 48 48
        E 260 80 41 00
        E 0 80 45 00
        E 0 80 48 00
        E 440 90 41 48
        E 0 90 45 48
        E 0 90 48 48
        E 260 80 41 00
        E 0 80 45 00
        E 0 80 48 00
        e 514 90 41 48
        e 0 90 45 48
        e 0 90 48 48
        e 260 80 41 00
        e 0 80 45 00
        e 0 80 48 00
        E 162 90 3e 48
        E 24 90 41 48
        E 0 90 45 48
        E 1896 90 3e 48
        E 24 80 3e 00
        E 0 80 41 00
        E 0 80 45 00
        E 0 90 41 48
        E 0 90 45 48
        E 260 80 3e 00
        E 0 80 41 00
        E 0 80 45 00
        E 416 90 3e 48
        E 24 90 41 48
        E 0 90 45 48
        E 260 80 3e 00
        E 0 80 41 00
        E 0 80 45 00
        e 490 90 3e 48
        e 24 90 41 48
        e 0 90 45 48
        e 260 80 3e 00
        e 0 80 41 00
        e 0 80 45 00
        E 186 b0 7b 00
        CHASE_CC_TAKEOFFS 1
        GUID {E611ADB6-4869-6CCA-8E83-3954D5E743B1}
        IGNTEMPO 0 120 4 4
        SRCCOLOR 27
        VELLANE -1 100 0
        CFGEDITVIEW 0 0.045808 45 12 0 -1 0 0 0 0.5
        KEYSNAP 0
        TRACKSEL 0
        EVTFILTER 0 -1 -1 -1 -1 0 0 0 0 -1 -1 -1 -1 0 -1 0 -1 -1
        CFGEDIT 1 1 0 1 0 0 1 1 1 1 1 1 58 171 1253 866 0 0 0 0 0.25 0 0 0 0 0.5 0 0 1 64
      >
    >
    <ITEM
      POSITION 88
      SNAPOFFS 0
      LENGTH 8
      LOOP 1
      ALLTAKES 0
      FADEIN 1 0 0 1 0 0
      FADEOUT 1 0 0 1 0 0
      MUTE 0
      SEL 1
      IGUID {CB0C03CD-FB81-A87C-EF00-E56E5BEACE25}
      IID 21
      NAME "01-Recorded MIDI"
      VOLPAN 1 0 1 -1
      SOFFS 0 0
      PLAYRATE 1 1 0 -1 0 0.0021
      CHANMODE 0
      GUID {2BFC7B57-71D7-98FE-455D-7A7D661AD796}
      RECPASS 1
      <SOURCE MIDI
        HASDATA 1 960 QN
        CCINTERP 32
        POOLEDEVTS {E9A14545-5241-2A98-0EE8-23A0178AA7EB}
        E 0 90 3c 48
        E 0 90 40 48
        E 0 90 43 48
        E 1920 80 3c 00
        E 0 80 40 00
        E 0 80 43 00
        E 0 90 3c 48
        E 0 90 40 48
        E 0 90 43 48
        E 260 80 3c 00
        E 0 80 40 00
        E 0 80 43 00
        E 440 90 3c 48
        E 0 90 40 48
        E 0 90 43 48
        E 260 80 3c 00
        E 0 80 40 00
        E 0 80 43 00
        e 514 90 3c 48
        e 0 90 40 48
        e 0 90 43 48
        e 260 80 3c 00
        e 0 80 40 00
        e 0 80 43 00
        E 186 90 43 48
        E 0 90 47 48
        E 20 90 40 48
        E 1900 80 43 00
        E 0 80 47 00
        E 0 80 40 00
        E 0 90 43 48
        E 0 90 47 48
        E 20 90 40 48
        E 240 80 43 00
        E 0 80 47 00
        E 0 80 40 00
        E 440 90 43 48
        E 0 90 47 48
        E 20 90 40 48
        E 240 80 43 00
        E 0 80 47 00
        E 0 80 40 00
        e 514 90 43 48
        e 0 90 47 48
        e 20 90 40 48
        e 240 80 43 00
        e 0 80 47 00
        e 0 80 40 00
        E 186 90 41 48
        E 0 90 45 48
        E 0 90 48 48
        E 1920 80 41 00
        E 0 80 45 00
        E 0 80 48 00
        E 0 90 41 48
        E 0 90 45 48
        E 0 90 48 48
        E 260 80 41 00
        E 0 80 45 00
        E 0 80 48 00
        E 440 90 41 48
        E 0 90 45 48
        E 0 90 48 48
        E 260 80 41 00
        E 0 80 45 00
        E 0 80 48 00
        e 514 90 41 48
        e 0 90 45 48
        e 0 90 48 48
        e 260 80 41 00
        e 0 80 45 00
        e 0 80 48 00
        E 162 90 3e 48
        E 24 90 41 48
        E 0 90 45 48
        E 1896 90 3e 48
        E 24 80 3e 00
        E 0 80 41 00
        E 0 80 45 00
        E 0 90 41 48
        E 0 90 45 48
        E 260 80 3e 00
        E 0 80 41 00
        E 0 80 45 00
        E 416 90 3e 48
        E 24 90 41 48
        E 0 90 45 48
        E 260 80 3e 00
        E 0 80 41 00
        E 0 80 45 00
        e 490 90 3e 48
        e 24 90 41 48
        e 0 90 45 48
        e 260 80 3e 00
        e 0 80 41 00
        e 0 80 45 00
        E 186 b0 7b 00
        CHASE_CC_TAKEOFFS 1
        GUID {C762B555-17FC-D765-5340-11D3487D2955}
        IGNTEMPO 0 120 4 4
        SRCCOLOR 28
        VELLANE -1 100 0
        CFGEDITVIEW 0 0.045808 45 12 0 -1 0 0 0 0.5
        KEYSNAP 0
        TRACKSEL 0
        EVTFILTER 0 -1 -1 -1 -1 0 0 0 0 -1 -1 -1 -1 0 -1 0 -1 -1
        CFGEDIT 1 1 0 1 0 0 1 1 1 1 1 1 58 171 1253 866 0 0 0 0 0.25 0 0 0 0 0.5 0 0 1 64
      >
    >
  >
  <TRACK {15204FF4-C17D-D349-7947-E883EAA2B346}
    NAME ""
    PEAKCOL 16576
    BEAT -1
    AUTOMODE 0
    VOLPAN 0.00052194381917 0 -1 -1 1
    MUTESOLO 0 0 0
    IPHASE 0
    PLAYOFFS 0 1
    ISBUS 0 0
    BUSCOMP 0 0 0 0 0
    SHOWINMIX 1 0.6667 0.5 1 0.5 0 0 0
    FREEMODE 0
    SEL 0
    REC 0 5056 1 0 0 0 0
    VU 2
    TRACKHEIGHT 21 0 0
    INQ 0 0 0 0.5 100 0 0 100
    NCHAN 2
    FX 0
    TRACKID {15204FF4-C17D-D349-7947-E883EAA2B346}
    PERF 0
    MIDIOUT -1
    MAINSEND 1 0
    <FXCHAIN
      WNDRECT 346 266 902 608
      SHOW 0
      LASTSEL 5
      DOCKED 0
      BYPASS 0 0 0
      <VST "VST: ReaEQ (Cockos)" reaeq.vst.so 0 "" 1919247729<56535472656571726561657100000000> ""
        cWVlcu5e7f4CAAAAAQAAAAAAAAACAAAAAAAAAAIAAAABAAAAAAAAAAIAAAAAAAAAqAAAAAEAAAAAABAA
        IQAAAAQAAAAEAAAAAQAAAEC4Xhmm+DRAAAAAAAAA8D8AAAAAAAAAQAEIAAAAAQAAAAAAAAAAwHJAAAAAAAAA8D8AAAAAAAAAQAEIAAAAAQAAAAAAAAAAQI9AAAAAAAAA
        8D8AAAAAAAAAQAEDAAAAAQAAAAABaCorbdRAAAAAAAAA8D8AAAAAAAAAQAEBAAAAAQAAAAAAAAAAAPA/AAAAAJoCAACcAQAA
        AEhpZ2ggbG93IHBhc3MAEAAAAA==
      >
      PRESETNAME "High low pass"
      FLOATPOS 0 0 0 0
      FXID {4B34CE4B-F80B-02A4-6BD0-3F55058F5DBB}
      WAK 0 0
      BYPASS 0 0 0
      <VST "VSTi: ReaSynth (Cockos)" reasynth.vst.so 0 "" 1919251321<5653547265737972656173796E746800> ""
        eXNlcu9e7f4AAAAAAgAAAAEAAAAAAAAAAgAAAAAAAAA8AAAAAAAAAAAAEAA=
        776t3g3wrd6lm8Q7F7fROgAAAAAAAAAAAAAAAJCNuT3oZ4g9AACAPwAAAD8AAIA/AAAAAAAAAD8AAAAA
        AAAQAAAA
      >
      FLOATPOS 0 0 0 0
      FXID {D55E5199-FA46-DDD1-B770-A0C5B6DA44EF}
      WAK 0 0
      BYPASS 0 0 0
      <JS guitar/amp-model ""
        "Dumble Overdrive Special - Tweed Deluxe.wav" -21.000000 1.000000 0.000000 73.000000 256.000000 - - - - - - - - - - - - - - - - - - - - - - - - - - - - - - - - - - - - - - - - - - - - - - - - - - - - - - - - - - 
      >
      FLOATPOS 0 0 0 0
      FXID {D1B29A22-ED71-BC76-77EB-7C6994327D27}
      WAK 0 0
      BYPASS 0 0 0
      <VST "VST: ReaComp (Cockos)" reacomp.vst.so 0 "" 1919247213<5653547265636D726561636F6D700000> ""
        bWNlcu9e7f4EAAAAAQAAAAAAAAACAAAAAAAAAAQAAAAAAAAACAAAAAAAAAACAAAAAQAAAAAAAAACAAAAAAAAAFQAAAAAAAAAAAAQAA==
        776t3g3wrd5FoYg9/AWpPKWbxDsK16M8AAAAAAAAAAAAAIA/AAAAAAAAAAAAAAAAnNEHMwAAgD8AAAAAzMxMPQAAAAAAAAAAAAAAAAAAgD7YiZ09
        AAAQAAAA
      >
      FLOATPOS 0 0 0 0
      FXID {7BD18B3B-A402-5E6D-E803-5053C12F5230}
      WAK 0 0
      BYPASS 0 0 0
      <VST "VST: ReaDelay (Cockos)" readelay.vst.so 0 "" 1919247468<5653547265646C72656164656C617900> ""
        bGRlcu5e7f4CAAAAAQAAAAAAAAACAAAAAAAAAAIAAAABAAAAAAAAAAIAAAAAAAAA/AAAAAEAAAAAAAAA
        AAAAAAAAAAAFAAAALAAAAAIAAAAEAAAAAACAPwAAgD8AAAAAAACAPwAAAAAAAIA7vTeGNQAAgD8AAAAAAACAPwAAgD8AAIA/AAAAAAAAAAAAAIA/AAAAAAAAADwAAAAA
        AACAPwAAAAAAAIA/AACAP+87NT8AAIA/AAAAAAAAgD8AAAAAAABAPL03hjUAAIA/AAAAAAAAgD8AAIA/zk0AP6abhD4AAAAAAACAPwAAAAAAAIA8vTeGNQAAgD8AAAAA
        AACAPwAAgD8aqrU+pHA9PwAAAAAAAIA/AAAAAAAAoDy9N4Y1AACAPwAAAAAAAIA/AACAP/npAD4AAAA/
        AHN0b2NrIC0gYmFzaWMgNSB0YXAgcGluZyBwb25nAAAAAAA=
      >
      PRESETNAME "stock - basic 5 tap ping pong"
      FLOATPOS 0 0 0 0
      FXID {B7B78962-2242-D98D-D667-05C8941737C2}
      WAK 0 0
      BYPASS 0 0 0
      <VST "VST: ReaVerb (Cockos)" reaverb.vst.so 0 "" 1919252066<56535472657662726561766572620000> ""
        YnZlcu5e7f4CAAAAAQAAAAAAAAACAAAAAAAAAAIAAAABAAAAAAAAAAIAAAAAAAAAcAAAAAEAAAAAAAAA
        AAAAwcybgD4AAIA/AAAAAAAAgD8AAIA/AAAAPwAAgD8AAAAAVkVSQkdFTgAYAAAAAAAAAJHgV0QdrLRA3rK7QsHIjEIAAIC/RUNIT0dFTgAcAAAAy/i2QLUjdUJdzdM/
        osdfP5lRrzyRzYxAnMQAPw==
        AHN3ZWV0dmVyYm8AAAAAAA==
      >
      PRESETNAME sweetverbo
      FLOATPOS 0 0 0 0
      FXID {A4A993D0-1815-FBF5-CC5B-7DDF84A58A04}
      WAK 0 0
    >
    <ITEM
      POSITION 0
      SNAPOFFS 0
      LENGTH 8
      LOOP 1
      ALLTAKES 0
      FADEIN 1 0 0 1 0 0
      FADEOUT 1 0 0 1 0 0
      MUTE 0
      SEL 1
      IGUID {9C6C04CE-929B-37D1-D253-8FF5DED52CC1}
      IID 10
      NAME "01-Recorded MIDI"
      VOLPAN 1 0 1 -1
      SOFFS 0 0
      PLAYRATE 1 1 0 -1 0 0.0021
      CHANMODE 0
      GUID {6D73EA49-951E-4E6D-EE3C-D6306F51680C}
      RECPASS 1
      <SOURCE MIDI
        HASDATA 1 960 QN
        CCINTERP 32
        POOLEDEVTS {F96E0F04-0C2E-14FB-6F5E-9C410930A6F3}
        E 0 90 3c 48
        E 0 90 40 48
        E 0 90 43 48
        E 1920 80 3c 00
        E 0 80 40 00
        E 0 80 43 00
        E 0 90 3c 48
        E 0 90 40 48
        E 0 90 43 48
        E 260 80 3c 00
        E 0 80 40 00
        E 0 80 43 00
        E 440 90 3c 48
        E 0 90 40 48
        E 0 90 43 48
        E 260 80 3c 00
        E 0 80 40 00
        E 0 80 43 00
        e 514 90 3c 48
        e 0 90 40 48
        e 0 90 43 48
        e 260 80 3c 00
        e 0 80 40 00
        e 0 80 43 00
        E 186 90 43 48
        E 0 90 47 48
        E 20 90 40 48
        E 1900 80 43 00
        E 0 80 47 00
        E 0 80 40 00
        E 0 90 43 48
        E 0 90 47 48
        E 20 90 40 48
        E 240 80 43 00
        E 0 80 47 00
        E 0 80 40 00
        E 440 90 43 48
        E 0 90 47 48
        E 20 90 40 48
        E 240 80 43 00
        E 0 80 47 00
        E 0 80 40 00
        e 514 90 43 48
        e 0 90 47 48
        e 20 90 40 48
        e 240 80 43 00
        e 0 80 47 00
        e 0 80 40 00
        E 186 90 41 48
        E 0 90 45 48
        E 0 90 48 48
        E 1920 80 41 00
        E 0 80 45 00
        E 0 80 48 00
        E 0 90 41 48
        E 0 90 45 48
        E 0 90 48 48
        E 260 80 41 00
        E 0 80 45 00
        E 0 80 48 00
        E 440 90 41 48
        E 0 90 45 48
        E 0 90 48 48
        E 260 80 41 00
        E 0 80 45 00
        E 0 80 48 00
        e 514 90 41 48
        e 0 90 45 48
        e 0 90 48 48
        e 260 80 41 00
        e 0 80 45 00
        e 0 80 48 00
        E 162 90 3e 48
        E 24 90 41 48
        E 0 90 45 48
        E 1896 90 3e 48
        E 24 80 3e 00
        E 0 80 41 00
        E 0 80 45 00
        E 0 90 41 48
        E 0 90 45 48
        E 260 80 3e 00
        E 0 80 41 00
        E 0 80 45 00
        E 416 90 3e 48
        E 24 90 41 48
        E 0 90 45 48
        E 260 80 3e 00
        E 0 80 41 00
        E 0 80 45 00
        e 490 90 3e 48
        e 24 90 41 48
        e 0 90 45 48
        e 260 80 3e 00
        e 0 80 41 00
        e 0 80 45 00
        E 186 b0 7b 00
        CHASE_CC_TAKEOFFS 1
        GUID {7B9D708B-43E1-C8D4-C4B3-87E2A6C27801}
        IGNTEMPO 0 120 4 4
        SRCCOLOR 17
        VELLANE -1 100 0
        CFGEDITVIEW 0 0.045808 45 12 0 -1 0 0 0 0.5
        KEYSNAP 0
        TRACKSEL 0
        EVTFILTER 0 -1 -1 -1 -1 0 0 0 0 -1 -1 -1 -1 0 -1 0 -1 -1
        CFGEDIT 1 1 0 1 0 0 1 1 1 1 1 1 58 171 1253 866 0 0 0 0 0.25 0 0 0 0 0.5 0 0 1 64
      >
    >
    <ITEM
      POSITION 8
      SNAPOFFS 0
      LENGTH 8
      LOOP 1
      ALLTAKES 0
      FADEIN 1 0 0 1 0 0
      FADEOUT 1 0 0 1 0 0
      MUTE 0
      SEL 1
      IGUID {74CB08FA-EBA4-4C9C-E3F2-5B3D3AB92551}
      IID 11
      NAME "01-Recorded MIDI"
      VOLPAN 1 0 1 -1
      SOFFS 0 0
      PLAYRATE 1 1 0 -1 0 0.0021
      CHANMODE 0
      GUID {9EF09B23-8BC8-CF4D-995C-67F218A4865C}
      RECPASS 1
      <SOURCE MIDI
        HASDATA 1 960 QN
        CCINTERP 32
        POOLEDEVTS {B2BDBE6F-242D-AB0B-5DAB-2D86DE629907}
        E 0 90 3c 48
        E 0 90 40 48
        E 0 90 43 48
        E 1920 80 3c 00
        E 0 80 40 00
        E 0 80 43 00
        E 0 90 3c 48
        E 0 90 40 48
        E 0 90 43 48
        E 260 80 3c 00
        E 0 80 40 00
        E 0 80 43 00
        E 440 90 3c 48
        E 0 90 40 48
        E 0 90 43 48
        E 260 80 3c 00
        E 0 80 40 00
        E 0 80 43 00
        e 514 90 3c 48
        e 0 90 40 48
        e 0 90 43 48
        e 260 80 3c 00
        e 0 80 40 00
        e 0 80 43 00
        E 186 90 43 48
        E 0 90 47 48
        E 20 90 40 48
        E 1900 80 43 00
        E 0 80 47 00
        E 0 80 40 00
        E 0 90 43 48
        E 0 90 47 48
        E 20 90 40 48
        E 240 80 43 00
        E 0 80 47 00
        E 0 80 40 00
        E 440 90 43 48
        E 0 90 47 48
        E 20 90 40 48
        E 240 80 43 00
        E 0 80 47 00
        E 0 80 40 00
        e 514 90 43 48
        e 0 90 47 48
        e 20 90 40 48
        e 240 80 43 00
        e 0 80 47 00
        e 0 80 40 00
        E 186 90 41 48
        E 0 90 45 48
        E 0 90 48 48
        E 1920 80 41 00
        E 0 80 45 00
        E 0 80 48 00
        E 0 90 41 48
        E 0 90 45 48
        E 0 90 48 48
        E 260 80 41 00
        E 0 80 45 00
        E 0 80 48 00
        E 440 90 41 48
        E 0 90 45 48
        E 0 90 48 48
        E 260 80 41 00
        E 0 80 45 00
        E 0 80 48 00
        e 514 90 41 48
        e 0 90 45 48
        e 0 90 48 48
        e 260 80 41 00
        e 0 80 45 00
        e 0 80 48 00
        E 162 90 3e 48
        E 24 90 41 48
        E 0 90 45 48
        E 1896 90 3e 48
        E 24 80 3e 00
        E 0 80 41 00
        E 0 80 45 00
        E 0 90 41 48
        E 0 90 45 48
        E 260 80 3e 00
        E 0 80 41 00
        E 0 80 45 00
        E 416 90 3e 48
        E 24 90 41 48
        E 0 90 45 48
        E 260 80 3e 00
        E 0 80 41 00
        E 0 80 45 00
        e 490 90 3e 48
        e 24 90 41 48
        e 0 90 45 48
        e 260 80 3e 00
        e 0 80 41 00
        e 0 80 45 00
        E 186 b0 7b 00
        CHASE_CC_TAKEOFFS 1
        GUID {3131B4E2-B370-E352-A9C5-C8CA31551A86}
        IGNTEMPO 0 120 4 4
        SRCCOLOR 18
        VELLANE -1 100 0
        CFGEDITVIEW 0 0.045808 45 12 0 -1 0 0 0 0.5
        KEYSNAP 0
        TRACKSEL 0
        EVTFILTER 0 -1 -1 -1 -1 0 0 0 0 -1 -1 -1 -1 0 -1 0 -1 -1
        CFGEDIT 1 1 0 1 0 0 1 1 1 1 1 1 58 171 1253 866 0 0 0 0 0.25 0 0 0 0 0.5 0 0 1 64
      >
    >
    <ITEM
      POSITION 16
      SNAPOFFS 0
      LENGTH 8
      LOOP 1
      ALLTAKES 0
      FADEIN 1 0 0 1 0 0
      FADEOUT 1 0 0 1 0 0
      MUTE 0
      SEL 1
      IGUID {348A4046-D388-5FA3-95DA-3DBA5BCD38F4}
      IID 12
      NAME "01-Recorded MIDI"
      VOLPAN 1 0 1 -1
      SOFFS 0 0
      PLAYRATE 1 1 0 -1 0 0.0021
      CHANMODE 0
      GUID {F46AB2A1-FBD4-1551-8567-B8BE104E22C4}
      RECPASS 1
      <SOURCE MIDI
        HASDATA 1 960 QN
        CCINTERP 32
        POOLEDEVTS {F813AC90-5C66-A5B1-ADDC-09E614479D69}
        E 0 90 3c 48
        E 0 90 40 48
        E 0 90 43 48
        E 1920 80 3c 00
        E 0 80 40 00
        E 0 80 43 00
        E 0 90 3c 48
        E 0 90 40 48
        E 0 90 43 48
        E 260 80 3c 00
        E 0 80 40 00
        E 0 80 43 00
        E 440 90 3c 48
        E 0 90 40 48
        E 0 90 43 48
        E 260 80 3c 00
        E 0 80 40 00
        E 0 80 43 00
        e 514 90 3c 48
        e 0 90 40 48
        e 0 90 43 48
        e 260 80 3c 00
        e 0 80 40 00
        e 0 80 43 00
        E 186 90 43 48
        E 0 90 47 48
        E 20 90 40 48
        E 1900 80 43 00
        E 0 80 47 00
        E 0 80 40 00
        E 0 90 43 48
        E 0 90 47 48
        E 20 90 40 48
        E 240 80 43 00
        E 0 80 47 00
        E 0 80 40 00
        E 440 90 43 48
        E 0 90 47 48
        E 20 90 40 48
        E 240 80 43 00
        E 0 80 47 00
        E 0 80 40 00
        e 514 90 43 48
        e 0 90 47 48
        e 20 90 40 48
        e 240 80 43 00
        e 0 80 47 00
        e 0 80 40 00
        E 186 90 41 48
        E 0 90 45 48
        E 0 90 48 48
        E 1920 80 41 00
        E 0 80 45 00
        E 0 80 48 00
        E 0 90 41 48
        E 0 90 45 48
        E 0 90 48 48
        E 260 80 41 00
        E 0 80 45 00
        E 0 80 48 00
        E 440 90 41 48
        E 0 90 45 48
        E 0 90 48 48
        E 260 80 41 00
        E 0 80 45 00
        E 0 80 48 00
        e 514 90 41 48
        e 0 90 45 48
        e 0 90 48 48
        e 260 80 41 00
        e 0 80 45 00
        e 0 80 48 00
        E 162 90 3e 48
        E 24 90 41 48
        E 0 90 45 48
        E 1896 90 3e 48
        E 24 80 3e 00
        E 0 80 41 00
        E 0 80 45 00
        E 0 90 41 48
        E 0 90 45 48
        E 260 80 3e 00
        E 0 80 41 00
        E 0 80 45 00
        E 416 90 3e 48
        E 24 90 41 48
        E 0 90 45 48
        E 260 80 3e 00
        E 0 80 41 00
        E 0 80 45 00
        e 490 90 3e 48
        e 24 90 41 48
        e 0 90 45 48
        e 260 80 3e 00
        e 0 80 41 00
        e 0 80 45 00
        E 186 b0 7b 00
        CHASE_CC_TAKEOFFS 1
        GUID {48C567A2-895C-FB9B-FDBA-0ADB7004ABF3}
        IGNTEMPO 0 120 4 4
        SRCCOLOR 19
        VELLANE -1 100 0
        CFGEDITVIEW 0 0.045808 45 12 0 -1 0 0 0 0.5
        KEYSNAP 0
        TRACKSEL 0
        EVTFILTER 0 -1 -1 -1 -1 0 0 0 0 -1 -1 -1 -1 0 -1 0 -1 -1
        CFGEDIT 1 1 0 1 0 0 1 1 1 1 1 1 58 171 1253 866 0 0 0 0 0.25 0 0 0 0 0.5 0 0 1 64
      >
    >
    <ITEM
      POSITION 24
      SNAPOFFS 0
      LENGTH 8
      LOOP 1
      ALLTAKES 0
      FADEIN 1 0 0 1 0 0
      FADEOUT 1 0 0 1 0 0
      MUTE 0
      SEL 1
      IGUID {8FA23901-D2BD-E40E-DC15-02211EF73AF3}
      IID 13
      NAME "01-Recorded MIDI"
      VOLPAN 1 0 1 -1
      SOFFS 0 0
      PLAYRATE 1 1 0 -1 0 0.0021
      CHANMODE 0
      GUID {F6418C24-FCBC-B2C2-1FCF-74369BBAC3E2}
      RECPASS 1
      <SOURCE MIDI
        HASDATA 1 960 QN
        CCINTERP 32
        POOLEDEVTS {25426316-4692-088D-EA18-DA61FEF37A5F}
        E 0 90 3c 48
        E 0 90 40 48
        E 0 90 43 48
        E 1920 80 3c 00
        E 0 80 40 00
        E 0 80 43 00
        E 0 90 3c 48
        E 0 90 40 48
        E 0 90 43 48
        E 260 80 3c 00
        E 0 80 40 00
        E 0 80 43 00
        E 440 90 3c 48
        E 0 90 40 48
        E 0 90 43 48
        E 260 80 3c 00
        E 0 80 40 00
        E 0 80 43 00
        e 514 90 3c 48
        e 0 90 40 48
        e 0 90 43 48
        e 260 80 3c 00
        e 0 80 40 00
        e 0 80 43 00
        E 186 90 43 48
        E 0 90 47 48
        E 20 90 40 48
        E 1900 80 43 00
        E 0 80 47 00
        E 0 80 40 00
        E 0 90 43 48
        E 0 90 47 48
        E 20 90 40 48
        E 240 80 43 00
        E 0 80 47 00
        E 0 80 40 00
        E 440 90 43 48
        E 0 90 47 48
        E 20 90 40 48
        E 240 80 43 00
        E 0 80 47 00
        E 0 80 40 00
        e 514 90 43 48
        e 0 90 47 48
        e 20 90 40 48
        e 240 80 43 00
        e 0 80 47 00
        e 0 80 40 00
        E 186 90 41 48
        E 0 90 45 48
        E 0 90 48 48
        E 1920 80 41 00
        E 0 80 45 00
        E 0 80 48 00
        E 0 90 41 48
        E 0 90 45 48
        E 0 90 48 48
        E 260 80 41 00
        E 0 80 45 00
        E 0 80 48 00
        E 440 90 41 48
        E 0 90 45 48
        E 0 90 48 48
        E 260 80 41 00
        E 0 80 45 00
        E 0 80 48 00
        e 514 90 41 48
        e 0 90 45 48
        e 0 90 48 48
        e 260 80 41 00
        e 0 80 45 00
        e 0 80 48 00
        E 162 90 3e 48
        E 24 90 41 48
        E 0 90 45 48
        E 1896 90 3e 48
        E 24 80 3e 00
        E 0 80 41 00
        E 0 80 45 00
        E 0 90 41 48
        E 0 90 45 48
        E 260 80 3e 00
        E 0 80 41 00
        E 0 80 45 00
        E 416 90 3e 48
        E 24 90 41 48
        E 0 90 45 48
        E 260 80 3e 00
        E 0 80 41 00
        E 0 80 45 00
        e 490 90 3e 48
        e 24 90 41 48
        e 0 90 45 48
        e 260 80 3e 00
        e 0 80 41 00
        e 0 80 45 00
        E 186 b0 7b 00
        CHASE_CC_TAKEOFFS 1
        GUID {1DE38800-E2A1-41B5-9C8C-3291891093B1}
        IGNTEMPO 0 120 4 4
        SRCCOLOR 20
        VELLANE -1 100 0
        CFGEDITVIEW 0 0.045808 45 12 0 -1 0 0 0 0.5
        KEYSNAP 0
        TRACKSEL 0
        EVTFILTER 0 -1 -1 -1 -1 0 0 0 0 -1 -1 -1 -1 0 -1 0 -1 -1
        CFGEDIT 1 1 0 1 0 0 1 1 1 1 1 1 58 171 1253 866 0 0 0 0 0.25 0 0 0 0 0.5 0 0 1 64
      >
    >
    <ITEM
      POSITION 32
      SNAPOFFS 0
      LENGTH 8
      LOOP 1
      ALLTAKES 0
      FADEIN 1 0 0 1 0 0
      FADEOUT 1 0 0 1 0 0
      MUTE 0
      SEL 1
      IGUID {10B8CA86-3A93-4F12-F2E1-916D9882BEEA}
      IID 14
      NAME "01-Recorded MIDI"
      VOLPAN 1 0 1 -1
      SOFFS 0 0
      PLAYRATE 1 1 0 -1 0 0.0021
      CHANMODE 0
      GUID {FD23F333-11FC-6EBB-738C-0EAFBA3F2047}
      RECPASS 1
      <SOURCE MIDI
        HASDATA 1 960 QN
        CCINTERP 32
        POOLEDEVTS {693EB9A1-DAFD-EDE6-FC74-CD8699773060}
        E 0 90 3c 48
        E 0 90 40 48
        E 0 90 43 48
        E 1920 80 3c 00
        E 0 80 40 00
        E 0 80 43 00
        E 0 90 3c 48
        E 0 90 40 48
        E 0 90 43 48
        E 260 80 3c 00
        E 0 80 40 00
        E 0 80 43 00
        E 440 90 3c 48
        E 0 90 40 48
        E 0 90 43 48
        E 260 80 3c 00
        E 0 80 40 00
        E 0 80 43 00
        e 514 90 3c 48
        e 0 90 40 48
        e 0 90 43 48
        e 260 80 3c 00
        e 0 80 40 00
        e 0 80 43 00
        E 186 90 43 48
        E 0 90 47 48
        E 20 90 40 48
        E 1900 80 43 00
        E 0 80 47 00
        E 0 80 40 00
        E 0 90 43 48
        E 0 90 47 48
        E 20 90 40 48
        E 240 80 43 00
        E 0 80 47 00
        E 0 80 40 00
        E 440 90 43 48
        E 0 90 47 48
        E 20 90 40 48
        E 240 80 43 00
        E 0 80 47 00
        E 0 80 40 00
        e 514 90 43 48
        e 0 90 47 48
        e 20 90 40 48
        e 240 80 43 00
        e 0 80 47 00
        e 0 80 40 00
        E 186 90 41 48
        E 0 90 45 48
        E 0 90 48 48
        E 1920 80 41 00
        E 0 80 45 00
        E 0 80 48 00
        E 0 90 41 48
        E 0 90 45 48
        E 0 90 48 48
        E 260 80 41 00
        E 0 80 45 00
        E 0 80 48 00
        E 440 90 41 48
        E 0 90 45 48
        E 0 90 48 48
        E 260 80 41 00
        E 0 80 45 00
        E 0 80 48 00
        e 514 90 41 48
        e 0 90 45 48
        e 0 90 48 48
        e 260 80 41 00
        e 0 80 45 00
        e 0 80 48 00
        E 162 90 3e 48
        E 24 90 41 48
        E 0 90 45 48
        E 1896 90 3e 48
        E 24 80 3e 00
        E 0 80 41 00
        E 0 80 45 00
        E 0 90 41 48
        E 0 90 45 48
        E 260 80 3e 00
        E 0 80 41 00
        E 0 80 45 00
        E 416 90 3e 48
        E 24 90 41 48
        E 0 90 45 48
        E 260 80 3e 00
        E 0 80 41 00
        E 0 80 45 00
        e 490 90 3e 48
        e 24 90 41 48
        e 0 90 45 48
        e 260 80 3e 00
        e 0 80 41 00
        e 0 80 45 00
        E 186 b0 7b 00
        CHASE_CC_TAKEOFFS 1
        GUID {0C3271F4-E233-9088-9B25-A722FAE7C579}
        IGNTEMPO 0 120 4 4
        SRCCOLOR 21
        VELLANE -1 100 0
        CFGEDITVIEW 0 0.045808 45 12 0 -1 0 0 0 0.5
        KEYSNAP 0
        TRACKSEL 0
        EVTFILTER 0 -1 -1 -1 -1 0 0 0 0 -1 -1 -1 -1 0 -1 0 -1 -1
        CFGEDIT 1 1 0 1 0 0 1 1 1 1 1 1 58 171 1253 866 0 0 0 0 0.25 0 0 0 0 0.5 0 0 1 64
      >
    >
    <ITEM
      POSITION 40
      SNAPOFFS 0
      LENGTH 8
      LOOP 1
      ALLTAKES 0
      FADEIN 1 0 0 1 0 0
      FADEOUT 1 0 0 1 0 0
      MUTE 0
      SEL 1
      IGUID {F13E6A60-2FBE-DC2D-2C69-867B1556434B}
      IID 15
      NAME "01-Recorded MIDI"
      VOLPAN 1 0 1 -1
      SOFFS 0 0
      PLAYRATE 1 1 0 -1 0 0.0021
      CHANMODE 0
      GUID {BCD32AC8-8EFB-3CD4-280B-3B9C5CF82979}
      RECPASS 1
      <SOURCE MIDI
        HASDATA 1 960 QN
        CCINTERP 32
        POOLEDEVTS {7D58E405-78E5-2AFE-F8BB-E28E6C81A1FF}
        E 0 90 3c 48
        E 0 90 40 48
        E 0 90 43 48
        E 1920 80 3c 00
        E 0 80 40 00
        E 0 80 43 00
        E 0 90 3c 48
        E 0 90 40 48
        E 0 90 43 48
        E 260 80 3c 00
        E 0 80 40 00
        E 0 80 43 00
        E 440 90 3c 48
        E 0 90 40 48
        E 0 90 43 48
        E 260 80 3c 00
        E 0 80 40 00
        E 0 80 43 00
        e 514 90 3c 48
        e 0 90 40 48
        e 0 90 43 48
        e 260 80 3c 00
        e 0 80 40 00
        e 0 80 43 00
        E 186 90 43 48
        E 0 90 47 48
        E 20 90 40 48
        E 1900 80 43 00
        E 0 80 47 00
        E 0 80 40 00
        E 0 90 43 48
        E 0 90 47 48
        E 20 90 40 48
        E 240 80 43 00
        E 0 80 47 00
        E 0 80 40 00
        E 440 90 43 48
        E 0 90 47 48
        E 20 90 40 48
        E 240 80 43 00
        E 0 80 47 00
        E 0 80 40 00
        e 514 90 43 48
        e 0 90 47 48
        e 20 90 40 48
        e 240 80 43 00
        e 0 80 47 00
        e 0 80 40 00
        E 186 90 41 48
        E 0 90 45 48
        E 0 90 48 48
        E 1920 80 41 00
        E 0 80 45 00
        E 0 80 48 00
        E 0 90 41 48
        E 0 90 45 48
        E 0 90 48 48
        E 260 80 41 00
        E 0 80 45 00
        E 0 80 48 00
        E 440 90 41 48
        E 0 90 45 48
        E 0 90 48 48
        E 260 80 41 00
        E 0 80 45 00
        E 0 80 48 00
        e 514 90 41 48
        e 0 90 45 48
        e 0 90 48 48
        e 260 80 41 00
        e 0 80 45 00
        e 0 80 48 00
        E 162 90 3e 48
        E 24 90 41 48
        E 0 90 45 48
        E 1896 90 3e 48
        E 24 80 3e 00
        E 0 80 41 00
        E 0 80 45 00
        E 0 90 41 48
        E 0 90 45 48
        E 260 80 3e 00
        E 0 80 41 00
        E 0 80 45 00
        E 416 90 3e 48
        E 24 90 41 48
        E 0 90 45 48
        E 260 80 3e 00
        E 0 80 41 00
        E 0 80 45 00
        e 490 90 3e 48
        e 24 90 41 48
        e 0 90 45 48
        e 260 80 3e 00
        e 0 80 41 00
        e 0 80 45 00
        E 186 b0 7b 00
        CHASE_CC_TAKEOFFS 1
        GUID {040E7AF8-3572-5D91-3C86-797AEE7444D4}
        IGNTEMPO 0 120 4 4
        SRCCOLOR 22
        VELLANE -1 100 0
        CFGEDITVIEW 0 0.045808 45 12 0 -1 0 0 0 0.5
        KEYSNAP 0
        TRACKSEL 0
        EVTFILTER 0 -1 -1 -1 -1 0 0 0 0 -1 -1 -1 -1 0 -1 0 -1 -1
        CFGEDIT 1 1 0 1 0 0 1 1 1 1 1 1 58 171 1253 866 0 0 0 0 0.25 0 0 0 0 0.5 0 0 1 64
      >
    >
    <ITEM
      POSITION 48
      SNAPOFFS 0
      LENGTH 8
      LOOP 1
      ALLTAKES 0
      FADEIN 1 0 0 1 0 0
      FADEOUT 1 0 0 1 0 0
      MUTE 0
      SEL 1
      IGUID {0EEB80B0-4220-2C99-8969-A13B27FF3B80}
      IID 16
      NAME "01-Recorded MIDI"
      VOLPAN 1 0 1 -1
      SOFFS 0 0
      PLAYRATE 1 1 0 -1 0 0.0021
      CHANMODE 0
      GUID {847158A5-A042-8E91-72AF-EF8CF8391618}
      RECPASS 1
      <SOURCE MIDI
        HASDATA 1 960 QN
        CCINTERP 32
        POOLEDEVTS {9FCBFB8C-F03E-E5CA-1A90-BF54B2EB0629}
        E 0 90 3c 48
        E 0 90 40 48
        E 0 90 43 48
        E 1920 80 3c 00
        E 0 80 40 00
        E 0 80 43 00
        E 0 90 3c 48
        E 0 90 40 48
        E 0 90 43 48
        E 260 80 3c 00
        E 0 80 40 00
        E 0 80 43 00
        E 440 90 3c 48
        E 0 90 40 48
        E 0 90 43 48
        E 260 80 3c 00
        E 0 80 40 00
        E 0 80 43 00
        e 514 90 3c 48
        e 0 90 40 48
        e 0 90 43 48
        e 260 80 3c 00
        e 0 80 40 00
        e 0 80 43 00
        E 186 90 43 48
        E 0 90 47 48
        E 20 90 40 48
        E 1900 80 43 00
        E 0 80 47 00
        E 0 80 40 00
        E 0 90 43 48
        E 0 90 47 48
        E 20 90 40 48
        E 240 80 43 00
        E 0 80 47 00
        E 0 80 40 00
        E 440 90 43 48
        E 0 90 47 48
        E 20 90 40 48
        E 240 80 43 00
        E 0 80 47 00
        E 0 80 40 00
        e 514 90 43 48
        e 0 90 47 48
        e 20 90 40 48
        e 240 80 43 00
        e 0 80 47 00
        e 0 80 40 00
        E 186 90 41 48
        E 0 90 45 48
        E 0 90 48 48
        E 1920 80 41 00
        E 0 80 45 00
        E 0 80 48 00
        E 0 90 41 48
        E 0 90 45 48
        E 0 90 48 48
        E 260 80 41 00
        E 0 80 45 00
        E 0 80 48 00
        E 440 90 41 48
        E 0 90 45 48
        E 0 90 48 48
        E 260 80 41 00
        E 0 80 45 00
        E 0 80 48 00
        e 514 90 41 48
        e 0 90 45 48
        e 0 90 48 48
        e 260 80 41 00
        e 0 80 45 00
        e 0 80 48 00
        E 162 90 3e 48
        E 24 90 41 48
        E 0 90 45 48
        E 1896 90 3e 48
        E 24 80 3e 00
        E 0 80 41 00
        E 0 80 45 00
        E 0 90 41 48
        E 0 90 45 48
        E 260 80 3e 00
        E 0 80 41 00
        E 0 80 45 00
        E 416 90 3e 48
        E 24 90 41 48
        E 0 90 45 48
        E 260 80 3e 00
        E 0 80 41 00
        E 0 80 45 00
        e 490 90 3e 48
        e 24 90 41 48
        e 0 90 45 48
        e 260 80 3e 00
        e 0 80 41 00
        e 0 80 45 00
        E 186 b0 7b 00
        CHASE_CC_TAKEOFFS 1
        GUID {2338968B-6CF9-9F40-300F-DEB89D3392EA}
        IGNTEMPO 0 120 4 4
        SRCCOLOR 23
        VELLANE -1 100 0
        CFGEDITVIEW 0 0.045808 45 12 0 -1 0 0 0 0.5
        KEYSNAP 0
        TRACKSEL 0
        EVTFILTER 0 -1 -1 -1 -1 0 0 0 0 -1 -1 -1 -1 0 -1 0 -1 -1
        CFGEDIT 1 1 0 1 0 0 1 1 1 1 1 1 58 171 1253 866 0 0 0 0 0.25 0 0 0 0 0.5 0 0 1 64
      >
    >
    <ITEM
      POSITION 56
      SNAPOFFS 0
      LENGTH 8
      LOOP 1
      ALLTAKES 0
      FADEIN 1 0 0 1 0 0
      FADEOUT 1 0 0 1 0 0
      MUTE 0
      SEL 1
      IGUID {DC4E6835-792C-9D0C-43D1-92F4F3B586B6}
      IID 17
      NAME "01-Recorded MIDI"
      VOLPAN 1 0 1 -1
      SOFFS 0 0
      PLAYRATE 1 1 0 -1 0 0.0021
      CHANMODE 0
      GUID {71CC54F3-024E-2F99-5FC2-12F6A4E0DEE8}
      RECPASS 1
      <SOURCE MIDI
        HASDATA 1 960 QN
        CCINTERP 32
        POOLEDEVTS {661E6A3F-2019-CB2B-58A5-E3FC7AAFD6EF}
        E 0 90 3c 48
        E 0 90 40 48
        E 0 90 43 48
        E 1920 80 3c 00
        E 0 80 40 00
        E 0 80 43 00
        E 0 90 3c 48
        E 0 90 40 48
        E 0 90 43 48
        E 260 80 3c 00
        E 0 80 40 00
        E 0 80 43 00
        E 440 90 3c 48
        E 0 90 40 48
        E 0 90 43 48
        E 260 80 3c 00
        E 0 80 40 00
        E 0 80 43 00
        e 514 90 3c 48
        e 0 90 40 48
        e 0 90 43 48
        e 260 80 3c 00
        e 0 80 40 00
        e 0 80 43 00
        E 186 90 43 48
        E 0 90 47 48
        E 20 90 40 48
        E 1900 80 43 00
        E 0 80 47 00
        E 0 80 40 00
        E 0 90 43 48
        E 0 90 47 48
        E 20 90 40 48
        E 240 80 43 00
        E 0 80 47 00
        E 0 80 40 00
        E 440 90 43 48
        E 0 90 47 48
        E 20 90 40 48
        E 240 80 43 00
        E 0 80 47 00
        E 0 80 40 00
        e 514 90 43 48
        e 0 90 47 48
        e 20 90 40 48
        e 240 80 43 00
        e 0 80 47 00
        e 0 80 40 00
        E 186 90 41 48
        E 0 90 45 48
        E 0 90 48 48
        E 1920 80 41 00
        E 0 80 45 00
        E 0 80 48 00
        E 0 90 41 48
        E 0 90 45 48
        E 0 90 48 48
        E 260 80 41 00
        E 0 80 45 00
        E 0 80 48 00
        E 440 90 41 48
        E 0 90 45 48
        E 0 90 48 48
        E 260 80 41 00
        E 0 80 45 00
        E 0 80 48 00
        e 514 90 41 48
        e 0 90 45 48
        e 0 90 48 48
        e 260 80 41 00
        e 0 80 45 00
        e 0 80 48 00
        E 162 90 3e 48
        E 24 90 41 48
        E 0 90 45 48
        E 1896 90 3e 48
        E 24 80 3e 00
        E 0 80 41 00
        E 0 80 45 00
        E 0 90 41 48
        E 0 90 45 48
        E 260 80 3e 00
        E 0 80 41 00
        E 0 80 45 00
        E 416 90 3e 48
        E 24 90 41 48
        E 0 90 45 48
        E 260 80 3e 00
        E 0 80 41 00
        E 0 80 45 00
        e 490 90 3e 48
        e 24 90 41 48
        e 0 90 45 48
        e 260 80 3e 00
        e 0 80 41 00
        e 0 80 45 00
        E 186 b0 7b 00
        CHASE_CC_TAKEOFFS 1
        GUID {A64857E2-94F8-0990-20DF-4C1E9B5E6251}
        IGNTEMPO 0 120 4 4
        SRCCOLOR 24
        VELLANE -1 100 0
        CFGEDITVIEW 0 0.045808 45 12 0 -1 0 0 0 0.5
        KEYSNAP 0
        TRACKSEL 0
        EVTFILTER 0 -1 -1 -1 -1 0 0 0 0 -1 -1 -1 -1 0 -1 0 -1 -1
        CFGEDIT 1 1 0 1 0 0 1 1 1 1 1 1 58 171 1253 866 0 0 0 0 0.25 0 0 0 0 0.5 0 0 1 64
      >
    >
    <ITEM
      POSITION 64
      SNAPOFFS 0
      LENGTH 8
      LOOP 1
      ALLTAKES 0
      FADEIN 1 0 0 1 0 0
      FADEOUT 1 0 0 1 0 0
      MUTE 0
      SEL 1
      IGUID {157CEB35-A998-5F9B-2009-43D5D745D4F9}
      IID 18
      NAME "01-Recorded MIDI"
      VOLPAN 1 0 1 -1
      SOFFS 0 0
      PLAYRATE 1 1 0 -1 0 0.0021
      CHANMODE 0
      GUID {B582081F-1817-B7DF-006C-865AAFC20932}
      RECPASS 1
      <SOURCE MIDI
        HASDATA 1 960 QN
        CCINTERP 32
        POOLEDEVTS {609CAD3F-72D3-3EAA-FB4F-7070E7A459B1}
        E 0 90 3c 48
        E 0 90 40 48
        E 0 90 43 48
        E 1920 80 3c 00
        E 0 80 40 00
        E 0 80 43 00
        E 0 90 3c 48
        E 0 90 40 48
        E 0 90 43 48
        E 260 80 3c 00
        E 0 80 40 00
        E 0 80 43 00
        E 440 90 3c 48
        E 0 90 40 48
        E 0 90 43 48
        E 260 80 3c 00
        E 0 80 40 00
        E 0 80 43 00
        e 514 90 3c 48
        e 0 90 40 48
        e 0 90 43 48
        e 260 80 3c 00
        e 0 80 40 00
        e 0 80 43 00
        E 186 90 43 48
        E 0 90 47 48
        E 20 90 40 48
        E 1900 80 43 00
        E 0 80 47 00
        E 0 80 40 00
        E 0 90 43 48
        E 0 90 47 48
        E 20 90 40 48
        E 240 80 43 00
        E 0 80 47 00
        E 0 80 40 00
        E 440 90 43 48
        E 0 90 47 48
        E 20 90 40 48
        E 240 80 43 00
        E 0 80 47 00
        E 0 80 40 00
        e 514 90 43 48
        e 0 90 47 48
        e 20 90 40 48
        e 240 80 43 00
        e 0 80 47 00
        e 0 80 40 00
        E 186 90 41 48
        E 0 90 45 48
        E 0 90 48 48
        E 1920 80 41 00
        E 0 80 45 00
        E 0 80 48 00
        E 0 90 41 48
        E 0 90 45 48
        E 0 90 48 48
        E 260 80 41 00
        E 0 80 45 00
        E 0 80 48 00
        E 440 90 41 48
        E 0 90 45 48
        E 0 90 48 48
        E 260 80 41 00
        E 0 80 45 00
        E 0 80 48 00
        e 514 90 41 48
        e 0 90 45 48
        e 0 90 48 48
        e 260 80 41 00
        e 0 80 45 00
        e 0 80 48 00
        E 162 90 3e 48
        E 24 90 41 48
        E 0 90 45 48
        E 1896 90 3e 48
        E 24 80 3e 00
        E 0 80 41 00
        E 0 80 45 00
        E 0 90 41 48
        E 0 90 45 48
        E 260 80 3e 00
        E 0 80 41 00
        E 0 80 45 00
        E 416 90 3e 48
        E 24 90 41 48
        E 0 90 45 48
        E 260 80 3e 00
        E 0 80 41 00
        E 0 80 45 00
        e 490 90 3e 48
        e 24 90 41 48
        e 0 90 45 48
        e 260 80 3e 00
        e 0 80 41 00
        e 0 80 45 00
        E 186 b0 7b 00
        CHASE_CC_TAKEOFFS 1
        GUID {19362806-85F2-5D9E-E1F9-07BE0CF3D16E}
        IGNTEMPO 0 120 4 4
        SRCCOLOR 25
        VELLANE -1 100 0
        CFGEDITVIEW 0 0.045808 45 12 0 -1 0 0 0 0.5
        KEYSNAP 0
        TRACKSEL 0
        EVTFILTER 0 -1 -1 -1 -1 0 0 0 0 -1 -1 -1 -1 0 -1 0 -1 -1
        CFGEDIT 1 1 0 1 0 0 1 1 1 1 1 1 58 171 1253 866 0 0 0 0 0.25 0 0 0 0 0.5 0 0 1 64
      >
    >
    <ITEM
      POSITION 72
      SNAPOFFS 0
      LENGTH 8
      LOOP 1
      ALLTAKES 0
      FADEIN 1 0 0 1 0 0
      FADEOUT 1 0 0 1 0 0
      MUTE 0
      SEL 1
      IGUID {F3CBAEAB-23A0-4F5C-C6DF-65BA13FB51C4}
      IID 19
      NAME "01-Recorded MIDI"
      VOLPAN 1 0 1 -1
      SOFFS 0 0
      PLAYRATE 1 1 0 -1 0 0.0021
      CHANMODE 0
      GUID {CFD918D3-FAB4-4F54-136E-F42917664CED}
      RECPASS 1
      <SOURCE MIDI
        HASDATA 1 960 QN
        CCINTERP 32
        POOLEDEVTS {81D55DD8-21E9-4F71-2711-D16CDAEA1D6D}
        E 0 90 3c 48
        E 0 90 40 48
        E 0 90 43 48
        E 1920 80 3c 00
        E 0 80 40 00
        E 0 80 43 00
        E 0 90 3c 48
        E 0 90 40 48
        E 0 90 43 48
        E 260 80 3c 00
        E 0 80 40 00
        E 0 80 43 00
        E 440 90 3c 48
        E 0 90 40 48
        E 0 90 43 48
        E 260 80 3c 00
        E 0 80 40 00
        E 0 80 43 00
        e 514 90 3c 48
        e 0 90 40 48
        e 0 90 43 48
        e 260 80 3c 00
        e 0 80 40 00
        e 0 80 43 00
        E 186 90 43 48
        E 0 90 47 48
        E 20 90 40 48
        E 1900 80 43 00
        E 0 80 47 00
        E 0 80 40 00
        E 0 90 43 48
        E 0 90 47 48
        E 20 90 40 48
        E 240 80 43 00
        E 0 80 47 00
        E 0 80 40 00
        E 440 90 43 48
        E 0 90 47 48
        E 20 90 40 48
        E 240 80 43 00
        E 0 80 47 00
        E 0 80 40 00
        e 514 90 43 48
        e 0 90 47 48
        e 20 90 40 48
        e 240 80 43 00
        e 0 80 47 00
        e 0 80 40 00
        E 186 90 41 48
        E 0 90 45 48
        E 0 90 48 48
        E 1920 80 41 00
        E 0 80 45 00
        E 0 80 48 00
        E 0 90 41 48
        E 0 90 45 48
        E 0 90 48 48
        E 260 80 41 00
        E 0 80 45 00
        E 0 80 48 00
        E 440 90 41 48
        E 0 90 45 48
        E 0 90 48 48
        E 260 80 41 00
        E 0 80 45 00
        E 0 80 48 00
        e 514 90 41 48
        e 0 90 45 48
        e 0 90 48 48
        e 260 80 41 00
        e 0 80 45 00
        e 0 80 48 00
        E 162 90 3e 48
        E 24 90 41 48
        E 0 90 45 48
        E 1896 90 3e 48
        E 24 80 3e 00
        E 0 80 41 00
        E 0 80 45 00
        E 0 90 41 48
        E 0 90 45 48
        E 260 80 3e 00
        E 0 80 41 00
        E 0 80 45 00
        E 416 90 3e 48
        E 24 90 41 48
        E 0 90 45 48
        E 260 80 3e 00
        E 0 80 41 00
        E 0 80 45 00
        e 490 90 3e 48
        e 24 90 41 48
        e 0 90 45 48
        e 260 80 3e 00
        e 0 80 41 00
        e 0 80 45 00
        E 186 b0 7b 00
        CHASE_CC_TAKEOFFS 1
        GUID {6844F8A9-6BE9-023C-4A46-0A676470C99B}
        IGNTEMPO 0 120 4 4
        SRCCOLOR 26
        VELLANE -1 100 0
        CFGEDITVIEW 0 0.045808 45 12 0 -1 0 0 0 0.5
        KEYSNAP 0
        TRACKSEL 0
        EVTFILTER 0 -1 -1 -1 -1 0 0 0 0 -1 -1 -1 -1 0 -1 0 -1 -1
        CFGEDIT 1 1 0 1 0 0 1 1 1 1 1 1 58 171 1253 866 0 0 0 0 0.25 0 0 0 0 0.5 0 0 1 64
      >
    >
    <ITEM
      POSITION 80
      SNAPOFFS 0
      LENGTH 8
      LOOP 1
      ALLTAKES 0
      FADEIN 1 0 0 1 0 0
      FADEOUT 1 0 0 1 0 0
      MUTE 0
      SEL 1
      IGUID {E7FC5C23-041A-63D1-6998-0FF87EE16BAA}
      IID 20
      NAME "01-Recorded MIDI"
      VOLPAN 1 0 1 -1
      SOFFS 0 0
      PLAYRATE 1 1 0 -1 0 0.0021
      CHANMODE 0
      GUID {42C0F193-0BFF-F146-9110-2C9ECFEB8B9C}
      RECPASS 1
      <SOURCE MIDI
        HASDATA 1 960 QN
        CCINTERP 32
        POOLEDEVTS {59266D13-34CA-94B0-BB72-917CB79D7400}
        E 0 90 3c 48
        E 0 90 40 48
        E 0 90 43 48
        E 1920 80 3c 00
        E 0 80 40 00
        E 0 80 43 00
        E 0 90 3c 48
        E 0 90 40 48
        E 0 90 43 48
        E 260 80 3c 00
        E 0 80 40 00
        E 0 80 43 00
        E 440 90 3c 48
        E 0 90 40 48
        E 0 90 43 48
        E 260 80 3c 00
        E 0 80 40 00
        E 0 80 43 00
        e 514 90 3c 48
        e 0 90 40 48
        e 0 90 43 48
        e 260 80 3c 00
        e 0 80 40 00
        e 0 80 43 00
        E 186 90 43 48
        E 0 90 47 48
        E 20 90 40 48
        E 1900 80 43 00
        E 0 80 47 00
        E 0 80 40 00
        E 0 90 43 48
        E 0 90 47 48
        E 20 90 40 48
        E 240 80 43 00
        E 0 80 47 00
        E 0 80 40 00
        E 440 90 43 48
        E 0 90 47 48
        E 20 90 40 48
        E 240 80 43 00
        E 0 80 47 00
        E 0 80 40 00
        e 514 90 43 48
        e 0 90 47 48
        e 20 90 40 48
        e 240 80 43 00
        e 0 80 47 00
        e 0 80 40 00
        E 186 90 41 48
        E 0 90 45 48
        E 0 90 48 48
        E 1920 80 41 00
        E 0 80 45 00
        E 0 80 48 00
        E 0 90 41 48
        E 0 90 45 48
        E 0 90 48 48
        E 260 80 41 00
        E 0 80 45 00
        E 0 80 48 00
        E 440 90 41 48
        E 0 90 45 48
        E 0 90 48 48
        E 260 80 41 00
        E 0 80 45 00
        E 0 80 48 00
        e 514 90 41 48
        e 0 90 45 48
        e 0 90 48 48
        e 260 80 41 00
        e 0 80 45 00
        e 0 80 48 00
        E 162 90 3e 48
        E 24 90 41 48
        E 0 90 45 48
        E 1896 90 3e 48
        E 24 80 3e 00
        E 0 80 41 00
        E 0 80 45 00
        E 0 90 41 48
        E 0 90 45 48
        E 260 80 3e 00
        E 0 80 41 00
        E 0 80 45 00
        E 416 90 3e 48
        E 24 90 41 48
        E 0 90 45 48
        E 260 80 3e 00
        E 0 80 41 00
        E 0 80 45 00
        e 490 90 3e 48
        e 24 90 41 48
        e 0 90 45 48
        e 260 80 3e 00
        e 0 80 41 00
        e 0 80 45 00
        E 186 b0 7b 00
        CHASE_CC_TAKEOFFS 1
        GUID {E611ADB6-4869-6CCA-8E83-3954D5E743B1}
        IGNTEMPO 0 120 4 4
        SRCCOLOR 27
        VELLANE -1 100 0
        CFGEDITVIEW 0 0.045808 45 12 0 -1 0 0 0 0.5
        KEYSNAP 0
        TRACKSEL 0
        EVTFILTER 0 -1 -1 -1 -1 0 0 0 0 -1 -1 -1 -1 0 -1 0 -1 -1
        CFGEDIT 1 1 0 1 0 0 1 1 1 1 1 1 58 171 1253 866 0 0 0 0 0.25 0 0 0 0 0.5 0 0 1 64
      >
    >
    <ITEM
      POSITION 88
      SNAPOFFS 0
      LENGTH 8
      LOOP 1
      ALLTAKES 0
      FADEIN 1 0 0 1 0 0
      FADEOUT 1 0 0 1 0 0
      MUTE 0
      SEL 1
      IGUID {5A6EBEF8-5887-80B2-A098-BC87672D51EC}
      IID 21
      NAME "01-Recorded MIDI"
      VOLPAN 1 0 1 -1
      SOFFS 0 0
      PLAYRATE 1 1 0 -1 0 0.0021
      CHANMODE 0
      GUID {7F731EE7-67A6-F572-F1AB-E6D1A5876A77}
      RECPASS 1
      <SOURCE MIDI
        HASDATA 1 960 QN
        CCINTERP 32
        POOLEDEVTS {9A960E64-D805-42BD-B6E6-5100C1912950}
        E 0 90 3c 48
        E 0 90 40 48
        E 0 90 43 48
        E 1920 80 3c 00
        E 0 80 40 00
        E 0 80 43 00
        E 0 90 3c 48
        E 0 90 40 48
        E 0 90 43 48
        E 260 80 3c 00
        E 0 80 40 00
        E 0 80 43 00
        E 440 90 3c 48
        E 0 90 40 48
        E 0 90 43 48
        E 260 80 3c 00
        E 0 80 40 00
        E 0 80 43 00
        e 514 90 3c 48
        e 0 90 40 48
        e 0 90 43 48
        e 260 80 3c 00
        e 0 80 40 00
        e 0 80 43 00
        E 186 90 43 48
        E 0 90 47 48
        E 20 90 40 48
        E 1900 80 43 00
        E 0 80 47 00
        E 0 80 40 00
        E 0 90 43 48
        E 0 90 47 48
        E 20 90 40 48
        E 240 80 43 00
        E 0 80 47 00
        E 0 80 40 00
        E 440 90 43 48
        E 0 90 47 48
        E 20 90 40 48
        E 240 80 43 00
        E 0 80 47 00
        E 0 80 40 00
        e 514 90 43 48
        e 0 90 47 48
        e 20 90 40 48
        e 240 80 43 00
        e 0 80 47 00
        e 0 80 40 00
        E 186 90 41 48
        E 0 90 45 48
        E 0 90 48 48
        E 1920 80 41 00
        E 0 80 45 00
        E 0 80 48 00
        E 0 90 41 48
        E 0 90 45 48
        E 0 90 48 48
        E 260 80 41 00
        E 0 80 45 00
        E 0 80 48 00
        E 440 90 41 48
        E 0 90 45 48
        E 0 90 48 48
        E 260 80 41 00
        E 0 80 45 00
        E 0 80 48 00
        e 514 90 41 48
        e 0 90 45 48
        e 0 90 48 48
        e 260 80 41 00
        e 0 80 45 00
        e 0 80 48 00
        E 162 90 3e 48
        E 24 90 41 48
        E 0 90 45 48
        E 1896 90 3e 48
        E 24 80 3e 00
        E 0 80 41 00
        E 0 80 45 00
        E 0 90 41 48
        E 0 90 45 48
        E 260 80 3e 00
        E 0 80 41 00
        E 0 80 45 00
        E 416 90 3e 48
        E 24 90 41 48
        E 0 90 45 48
        E 260 80 3e 00
        E 0 80 41 00
        E 0 80 45 00
        e 490 90 3e 48
        e 24 90 41 48
        e 0 90 45 48
        e 260 80 3e 00
        e 0 80 41 00
        e 0 80 45 00
        E 186 b0 7b 00
        CHASE_CC_TAKEOFFS 1
        GUID {C762B555-17FC-D765-5340-11D3487D2955}
        IGNTEMPO 0 120 4 4
        SRCCOLOR 28
        VELLANE -1 100 0
        CFGEDITVIEW 0 0.045808 45 12 0 -1 0 0 0 0.5
        KEYSNAP 0
        TRACKSEL 0
        EVTFILTER 0 -1 -1 -1 -1 0 0 0 0 -1 -1 -1 -1 0 -1 0 -1 -1
        CFGEDIT 1 1 0 1 0 0 1 1 1 1 1 1 58 171 1253 866 0 0 0 0 0.25 0 0 0 0 0.5 0 0 1 64
      >
    >
  >
  <TRACK {23461EE0-B368-83EA-428C-C98DB51F133E}
    NAME ""
    PEAKCOL 16576
    BEAT -1
    AUTOMODE 0
    VOLPAN 0.00052194381917 0 -1 -1 1
    MUTESOLO 0 0 0
    IPHASE 0
    PLAYOFFS 0 1
    ISBUS 0 0
    BUSCOMP 0 0 0 0 0
    SHOWINMIX 1 0.6667 0.5 1 0.5 0 0 0
    FREEMODE 0
    SEL 0
    REC 0 5056 1 0 0 0 0
    VU 2
    TRACKHEIGHT 21 0 0
    INQ 0 0 0 0.5 100 0 0 100
    NCHAN 2
    FX 0
    TRACKID {23461EE0-B368-83EA-428C-C98DB51F133E}
    PERF 0
    MIDIOUT -1
    MAINSEND 1 0
    <FXCHAIN
      WNDRECT 346 266 902 608
      SHOW 0
      LASTSEL 5
      DOCKED 0
      BYPASS 0 0 0
      <VST "VST: ReaEQ (Cockos)" reaeq.vst.so 0 "" 1919247729<56535472656571726561657100000000> ""
        cWVlcu5e7f4CAAAAAQAAAAAAAAACAAAAAAAAAAIAAAABAAAAAAAAAAIAAAAAAAAAqAAAAAEAAAAAABAA
        IQAAAAQAAAAEAAAAAQAAAEC4Xhmm+DRAAAAAAAAA8D8AAAAAAAAAQAEIAAAAAQAAAAAAAAAAwHJAAAAAAAAA8D8AAAAAAAAAQAEIAAAAAQAAAAAAAAAAQI9AAAAAAAAA
        8D8AAAAAAAAAQAEDAAAAAQAAAAABaCorbdRAAAAAAAAA8D8AAAAAAAAAQAEBAAAAAQAAAAAAAAAAAPA/AAAAAJoCAACcAQAA
        AEhpZ2ggbG93IHBhc3MAEAAAAA==
      >
      PRESETNAME "High low pass"
      FLOATPOS 0 0 0 0
      FXID {87B4C9E9-2C81-7A32-D221-D310FE0BC222}
      WAK 0 0
      BYPASS 0 0 0
      <VST "VSTi: ReaSynth (Cockos)" reasynth.vst.so 0 "" 1919251321<5653547265737972656173796E746800> ""
        eXNlcu9e7f4AAAAAAgAAAAEAAAAAAAAAAgAAAAAAAAA8AAAAAAAAAAAAEAA=
        776t3g3wrd6lm8Q7F7fROgAAAAAAAAAAAAAAAJCNuT3oZ4g9AACAPwAAAD8AAIA/AAAAAAAAAD8AAAAA
        AAAQAAAA
      >
      FLOATPOS 0 0 0 0
      FXID {18F32768-9F3E-99AA-55B7-D8575A772B50}
      WAK 0 0
      BYPASS 0 0 0
      <JS guitar/amp-model ""
        "Dumble Overdrive Special - Tweed Deluxe.wav" -21.000000 1.000000 0.000000 73.000000 256.000000 - - - - - - - - - - - - - - - - - - - - - - - - - - - - - - - - - - - - - - - - - - - - - - - - - - - - - - - - - - 
      >
      FLOATPOS 0 0 0 0
      FXID {489EAEE9-51D1-0133-D22F-D90C52AD5DC0}
      WAK 0 0
      BYPASS 0 0 0
      <VST "VST: ReaComp (Cockos)" reacomp.vst.so 0 "" 1919247213<5653547265636D726561636F6D700000> ""
        bWNlcu9e7f4EAAAAAQAAAAAAAAACAAAAAAAAAAQAAAAAAAAACAAAAAAAAAACAAAAAQAAAAAAAAACAAAAAAAAAFQAAAAAAAAAAAAQAA==
        776t3g3wrd5FoYg9/AWpPKWbxDsK16M8AAAAAAAAAAAAAIA/AAAAAAAAAAAAAAAAnNEHMwAAgD8AAAAAzMxMPQAAAAAAAAAAAAAAAAAAgD7YiZ09
        AAAQAAAA
      >
      FLOATPOS 0 0 0 0
      FXID {7CEB6F59-B609-328B-6848-C9400A74B9F3}
      WAK 0 0
      BYPASS 0 0 0
      <VST "VST: ReaDelay (Cockos)" readelay.vst.so 0 "" 1919247468<5653547265646C72656164656C617900> ""
        bGRlcu5e7f4CAAAAAQAAAAAAAAACAAAAAAAAAAIAAAABAAAAAAAAAAIAAAAAAAAA/AAAAAEAAAAAAAAA
        AAAAAAAAAAAFAAAALAAAAAIAAAAEAAAAAACAPwAAgD8AAAAAAACAPwAAAAAAAIA7vTeGNQAAgD8AAAAAAACAPwAAgD8AAIA/AAAAAAAAAAAAAIA/AAAAAAAAADwAAAAA
        AACAPwAAAAAAAIA/AACAP+87NT8AAIA/AAAAAAAAgD8AAAAAAABAPL03hjUAAIA/AAAAAAAAgD8AAIA/zk0AP6abhD4AAAAAAACAPwAAAAAAAIA8vTeGNQAAgD8AAAAA
        AACAPwAAgD8aqrU+pHA9PwAAAAAAAIA/AAAAAAAAoDy9N4Y1AACAPwAAAAAAAIA/AACAP/npAD4AAAA/
        AHN0b2NrIC0gYmFzaWMgNSB0YXAgcGluZyBwb25nAAAAAAA=
      >
      PRESETNAME "stock - basic 5 tap ping pong"
      FLOATPOS 0 0 0 0
      FXID {DD671E20-37EA-4E17-00E0-5CEFB35C5202}
      WAK 0 0
      BYPASS 0 0 0
      <VST "VST: ReaVerb (Cockos)" reaverb.vst.so 0 "" 1919252066<56535472657662726561766572620000> ""
        YnZlcu5e7f4CAAAAAQAAAAAAAAACAAAAAAAAAAIAAAABAAAAAAAAAAIAAAAAAAAAcAAAAAEAAAAAAAAA
        AAAAwcybgD4AAIA/AAAAAAAAgD8AAIA/AAAAPwAAgD8AAAAAVkVSQkdFTgAYAAAAAAAAAJHgV0QdrLRA3rK7QsHIjEIAAIC/RUNIT0dFTgAcAAAAy/i2QLUjdUJdzdM/
        osdfP5lRrzyRzYxAnMQAPw==
        AHN3ZWV0dmVyYm8AAAAAAA==
      >
      PRESETNAME sweetverbo
      FLOATPOS 0 0 0 0
      FXID {3C0FEB41-B25D-AA2A-758F-1E963028433A}
      WAK 0 0
    >
    <ITEM
      POSITION 0
      SNAPOFFS 0
      LENGTH 8
      LOOP 1
      ALLTAKES 0
      FADEIN 1 0 0 1 0 0
      FADEOUT 1 0 0 1 0 0
      MUTE 0
      SEL 1
      IGUID {A065F7E2-DF34-B734-57A9-644A50BCE2C1}
      IID 10
      NAME "01-Recorded MIDI"
      VOLPAN 1 0 1 -1
      SOFFS 0 0
      PLAYRATE 1 1 0 -1 0 0.0021
      CHANMODE 0
      GUID {ACEA89D8-DCF1-2D3A-2133-748FE460742A}
      RECPASS 1
      <SOURCE MIDI
        HASDATA 1 960 QN
        CCINTERP 32
        POOLEDEVTS {B165045B-405E-CFE3-EF9A-0AD282589A1D}
        E 0 90 3c 48
        E 0 90 40 48
        E 0 90 43 48
        E 1920 80 3c 00
        E 0 80 40 00
        E 0 80 43 00
        E 0 90 3c 48
        E 0 90 40 48
        E 0 90 43 48
        E 260 80 3c 00
        E 0 80 40 00
        E 0 80 43 00
        E 440 90 3c 48
        E 0 90 40 48
        E 0 90 43 48
        E 260 80 3c 00
        E 0 80 40 00
        E 0 80 43 00
        e 514 90 3c 48
        e 0 90 40 48
        e 0 90 43 48
        e 260 80 3c 00
        e 0 80 40 00
        e 0 80 43 00
        E 186 90 43 48
        E 0 90 47 48
        E 20 90 40 48
        E 1900 80 43 00
        E 0 80 47 00
        E 0 80 40 00
        E 0 90 43 48
        E 0 90 47 48
        E 20 90 40 48
        E 240 80 43 00
        E 0 80 47 00
        E 0 80 40 00
        E 440 90 43 48
        E 0 90 47 48
        E 20 90 40 48
        E 240 80 43 00
        E 0 80 47 00
        E 0 80 40 00
        e 514 90 43 48
        e 0 90 47 48
        e 20 90 40 48
        e 240 80 43 00
        e 0 80 47 00
        e 0 80 40 00
        E 186 90 41 48
        E 0 90 45 48
        E 0 90 48 48
        E 1920 80 41 00
        E 0 80 45 00
        E 0 80 48 00
        E 0 90 41 48
        E 0 90 45 48
        E 0 90 48 48
        E 260 80 41 00
        E 0 80 45 00
        E 0 80 48 00
        E 440 90 41 48
        E 0 90 45 48
        E 0 90 48 48
        E 260 80 41 00
        E 0 80 45 00
        E 0 80 48 00
        e 514 90 41 48
        e 0 90 45 48
        e 0 90 48 48
        e 260 80 41 00
        e 0 80 45 00
        e 0 80 48 00
        E 162 90 3e 48
        E 24 90 41 48
        E 0 90 45 48
        E 1896 90 3e 48
        E 24 80 3e 00
        E 0 80 41 00
        E 0 80 45 00
        E 0 90 41 48
        E 0 90 45 48
        E 260 80 3e 00
        E 0 80 41 00
        E 0 80 45 00
        E 416 90 3e 48
        E 24 90 41 48
        E 0 90 45 48
        E 260 80 3e 00
        E 0 80 41 00
        E 0 80 45 00
        e 490 90 3e 48
        e 24 90 41 48
        e 0 90 45 48
        e 260 80 3e 00
        e 0 80 41 00
        e 0 80 45 00
        E 186 b0 7b 00
        CHASE_CC_TAKEOFFS 1
        GUID {7B9D708B-43E1-C8D4-C4B3-87E2A6C27801}
        IGNTEMPO 0 120 4 4
        SRCCOLOR 17
        VELLANE -1 100 0
        CFGEDITVIEW 0 0.045808 45 12 0 -1 0 0 0 0.5
        KEYSNAP 0
        TRACKSEL 0
        EVTFILTER 0 -1 -1 -1 -1 0 0 0 0 -1 -1 -1 -1 0 -1 0 -1 -1
        CFGEDIT 1 1 0 1 0 0 1 1 1 1 1 1 58 171 1253 866 0 0 0 0 0.25 0 0 0 0 0.5 0 0 1 64
      >
    >
    <ITEM
      POSITION 8
      SNAPOFFS 0
      LENGTH 8
      LOOP 1
      ALLTAKES 0
      FADEIN 1 0 0 1 0 0
      FADEOUT 1 0 0 1 0 0
      MUTE 0
      SEL 1
      IGUID {B5C60B4B-6E15-49DA-1BF9-538843576405}
      IID 11
      NAME "01-Recorded MIDI"
      VOLPAN 1 0 1 -1
      SOFFS 0 0
      PLAYRATE 1 1 0 -1 0 0.0021
      CHANMODE 0
      GUID {DCF5746C-BCB2-DC49-5AEB-8E89C706B70F}
      RECPASS 1
      <SOURCE MIDI
        HASDATA 1 960 QN
        CCINTERP 32
        POOLEDEVTS {01BC4F68-F189-C00C-1B14-E70784A98318}
        E 0 90 3c 48
        E 0 90 40 48
        E 0 90 43 48
        E 1920 80 3c 00
        E 0 80 40 00
        E 0 80 43 00
        E 0 90 3c 48
        E 0 90 40 48
        E 0 90 43 48
        E 260 80 3c 00
        E 0 80 40 00
        E 0 80 43 00
        E 440 90 3c 48
        E 0 90 40 48
        E 0 90 43 48
        E 260 80 3c 00
        E 0 80 40 00
        E 0 80 43 00
        e 514 90 3c 48
        e 0 90 40 48
        e 0 90 43 48
        e 260 80 3c 00
        e 0 80 40 00
        e 0 80 43 00
        E 186 90 43 48
        E 0 90 47 48
        E 20 90 40 48
        E 1900 80 43 00
        E 0 80 47 00
        E 0 80 40 00
        E 0 90 43 48
        E 0 90 47 48
        E 20 90 40 48
        E 240 80 43 00
        E 0 80 47 00
        E 0 80 40 00
        E 440 90 43 48
        E 0 90 47 48
        E 20 90 40 48
        E 240 80 43 00
        E 0 80 47 00
        E 0 80 40 00
        e 514 90 43 48
        e 0 90 47 48
        e 20 90 40 48
        e 240 80 43 00
        e 0 80 47 00
        e 0 80 40 00
        E 186 90 41 48
        E 0 90 45 48
        E 0 90 48 48
        E 1920 80 41 00
        E 0 80 45 00
        E 0 80 48 00
        E 0 90 41 48
        E 0 90 45 48
        E 0 90 48 48
        E 260 80 41 00
        E 0 80 45 00
        E 0 80 48 00
        E 440 90 41 48
        E 0 90 45 48
        E 0 90 48 48
        E 260 80 41 00
        E 0 80 45 00
        E 0 80 48 00
        e 514 90 41 48
        e 0 90 45 48
        e 0 90 48 48
        e 260 80 41 00
        e 0 80 45 00
        e 0 80 48 00
        E 162 90 3e 48
        E 24 90 41 48
        E 0 90 45 48
        E 1896 90 3e 48
        E 24 80 3e 00
        E 0 80 41 00
        E 0 80 45 00
        E 0 90 41 48
        E 0 90 45 48
        E 260 80 3e 00
        E 0 80 41 00
        E 0 80 45 00
        E 416 90 3e 48
        E 24 90 41 48
        E 0 90 45 48
        E 260 80 3e 00
        E 0 80 41 00
        E 0 80 45 00
        e 490 90 3e 48
        e 24 90 41 48
        e 0 90 45 48
        e 260 80 3e 00
        e 0 80 41 00
        e 0 80 45 00
        E 186 b0 7b 00
        CHASE_CC_TAKEOFFS 1
        GUID {3131B4E2-B370-E352-A9C5-C8CA31551A86}
        IGNTEMPO 0 120 4 4
        SRCCOLOR 18
        VELLANE -1 100 0
        CFGEDITVIEW 0 0.045808 45 12 0 -1 0 0 0 0.5
        KEYSNAP 0
        TRACKSEL 0
        EVTFILTER 0 -1 -1 -1 -1 0 0 0 0 -1 -1 -1 -1 0 -1 0 -1 -1
        CFGEDIT 1 1 0 1 0 0 1 1 1 1 1 1 58 171 1253 866 0 0 0 0 0.25 0 0 0 0 0.5 0 0 1 64
      >
    >
    <ITEM
      POSITION 16
      SNAPOFFS 0
      LENGTH 8
      LOOP 1
      ALLTAKES 0
      FADEIN 1 0 0 1 0 0
      FADEOUT 1 0 0 1 0 0
      MUTE 0
      SEL 1
      IGUID {478EB5AB-D3B0-0CF2-2C2F-199A24EEFAAE}
      IID 12
      NAME "01-Recorded MIDI"
      VOLPAN 1 0 1 -1
      SOFFS 0 0
      PLAYRATE 1 1 0 -1 0 0.0021
      CHANMODE 0
      GUID {A6F38040-C064-81A6-65A9-56BC34E8CD92}
      RECPASS 1
      <SOURCE MIDI
        HASDATA 1 960 QN
        CCINTERP 32
        POOLEDEVTS {3BCEBB90-EE73-69F7-43E3-3C676CC57D32}
        E 0 90 3c 48
        E 0 90 40 48
        E 0 90 43 48
        E 1920 80 3c 00
        E 0 80 40 00
        E 0 80 43 00
        E 0 90 3c 48
        E 0 90 40 48
        E 0 90 43 48
        E 260 80 3c 00
        E 0 80 40 00
        E 0 80 43 00
        E 440 90 3c 48
        E 0 90 40 48
        E 0 90 43 48
        E 260 80 3c 00
        E 0 80 40 00
        E 0 80 43 00
        e 514 90 3c 48
        e 0 90 40 48
        e 0 90 43 48
        e 260 80 3c 00
        e 0 80 40 00
        e 0 80 43 00
        E 186 90 43 48
        E 0 90 47 48
        E 20 90 40 48
        E 1900 80 43 00
        E 0 80 47 00
        E 0 80 40 00
        E 0 90 43 48
        E 0 90 47 48
        E 20 90 40 48
        E 240 80 43 00
        E 0 80 47 00
        E 0 80 40 00
        E 440 90 43 48
        E 0 90 47 48
        E 20 90 40 48
        E 240 80 43 00
        E 0 80 47 00
        E 0 80 40 00
        e 514 90 43 48
        e 0 90 47 48
        e 20 90 40 48
        e 240 80 43 00
        e 0 80 47 00
        e 0 80 40 00
        E 186 90 41 48
        E 0 90 45 48
        E 0 90 48 48
        E 1920 80 41 00
        E 0 80 45 00
        E 0 80 48 00
        E 0 90 41 48
        E 0 90 45 48
        E 0 90 48 48
        E 260 80 41 00
        E 0 80 45 00
        E 0 80 48 00
        E 440 90 41 48
        E 0 90 45 48
        E 0 90 48 48
        E 260 80 41 00
        E 0 80 45 00
        E 0 80 48 00
        e 514 90 41 48
        e 0 90 45 48
        e 0 90 48 48
        e 260 80 41 00
        e 0 80 45 00
        e 0 80 48 00
        E 162 90 3e 48
        E 24 90 41 48
        E 0 90 45 48
        E 1896 90 3e 48
        E 24 80 3e 00
        E 0 80 41 00
        E 0 80 45 00
        E 0 90 41 48
        E 0 90 45 48
        E 260 80 3e 00
        E 0 80 41 00
        E 0 80 45 00
        E 416 90 3e 48
        E 24 90 41 48
        E 0 90 45 48
        E 260 80 3e 00
        E 0 80 41 00
        E 0 80 45 00
        e 490 90 3e 48
        e 24 90 41 48
        e 0 90 45 48
        e 260 80 3e 00
        e 0 80 41 00
        e 0 80 45 00
        E 186 b0 7b 00
        CHASE_CC_TAKEOFFS 1
        GUID {48C567A2-895C-FB9B-FDBA-0ADB7004ABF3}
        IGNTEMPO 0 120 4 4
        SRCCOLOR 19
        VELLANE -1 100 0
        CFGEDITVIEW 0 0.045808 45 12 0 -1 0 0 0 0.5
        KEYSNAP 0
        TRACKSEL 0
        EVTFILTER 0 -1 -1 -1 -1 0 0 0 0 -1 -1 -1 -1 0 -1 0 -1 -1
        CFGEDIT 1 1 0 1 0 0 1 1 1 1 1 1 58 171 1253 866 0 0 0 0 0.25 0 0 0 0 0.5 0 0 1 64
      >
    >
    <ITEM
      POSITION 24
      SNAPOFFS 0
      LENGTH 8
      LOOP 1
      ALLTAKES 0
      FADEIN 1 0 0 1 0 0
      FADEOUT 1 0 0 1 0 0
      MUTE 0
      SEL 1
      IGUID {755DB3F1-EB8F-AE52-954A-2DA8728191BA}
      IID 13
      NAME "01-Recorded MIDI"
      VOLPAN 1 0 1 -1
      SOFFS 0 0
      PLAYRATE 1 1 0 -1 0 0.0021
      CHANMODE 0
      GUID {7C492D7F-D2EC-A0C3-EFCD-2E5422BBA7E2}
      RECPASS 1
      <SOURCE MIDI
        HASDATA 1 960 QN
        CCINTERP 32
        POOLEDEVTS {301E449E-7332-E5E2-0C1F-62FABC250637}
        E 0 90 3c 48
        E 0 90 40 48
        E 0 90 43 48
        E 1920 80 3c 00
        E 0 80 40 00
        E 0 80 43 00
        E 0 90 3c 48
        E 0 90 40 48
        E 0 90 43 48
        E 260 80 3c 00
        E 0 80 40 00
        E 0 80 43 00
        E 440 90 3c 48
        E 0 90 40 48
        E 0 90 43 48
        E 260 80 3c 00
        E 0 80 40 00
        E 0 80 43 00
        e 514 90 3c 48
        e 0 90 40 48
        e 0 90 43 48
        e 260 80 3c 00
        e 0 80 40 00
        e 0 80 43 00
        E 186 90 43 48
        E 0 90 47 48
        E 20 90 40 48
        E 1900 80 43 00
        E 0 80 47 00
        E 0 80 40 00
        E 0 90 43 48
        E 0 90 47 48
        E 20 90 40 48
        E 240 80 43 00
        E 0 80 47 00
        E 0 80 40 00
        E 440 90 43 48
        E 0 90 47 48
        E 20 90 40 48
        E 240 80 43 00
        E 0 80 47 00
        E 0 80 40 00
        e 514 90 43 48
        e 0 90 47 48
        e 20 90 40 48
        e 240 80 43 00
        e 0 80 47 00
        e 0 80 40 00
        E 186 90 41 48
        E 0 90 45 48
        E 0 90 48 48
        E 1920 80 41 00
        E 0 80 45 00
        E 0 80 48 00
        E 0 90 41 48
        E 0 90 45 48
        E 0 90 48 48
        E 260 80 41 00
        E 0 80 45 00
        E 0 80 48 00
        E 440 90 41 48
        E 0 90 45 48
        E 0 90 48 48
        E 260 80 41 00
        E 0 80 45 00
        E 0 80 48 00
        e 514 90 41 48
        e 0 90 45 48
        e 0 90 48 48
        e 260 80 41 00
        e 0 80 45 00
        e 0 80 48 00
        E 162 90 3e 48
        E 24 90 41 48
        E 0 90 45 48
        E 1896 90 3e 48
        E 24 80 3e 00
        E 0 80 41 00
        E 0 80 45 00
        E 0 90 41 48
        E 0 90 45 48
        E 260 80 3e 00
        E 0 80 41 00
        E 0 80 45 00
        E 416 90 3e 48
        E 24 90 41 48
        E 0 90 45 48
        E 260 80 3e 00
        E 0 80 41 00
        E 0 80 45 00
        e 490 90 3e 48
        e 24 90 41 48
        e 0 90 45 48
        e 260 80 3e 00
        e 0 80 41 00
        e 0 80 45 00
        E 186 b0 7b 00
        CHASE_CC_TAKEOFFS 1
        GUID {1DE38800-E2A1-41B5-9C8C-3291891093B1}
        IGNTEMPO 0 120 4 4
        SRCCOLOR 20
        VELLANE -1 100 0
        CFGEDITVIEW 0 0.045808 45 12 0 -1 0 0 0 0.5
        KEYSNAP 0
        TRACKSEL 0
        EVTFILTER 0 -1 -1 -1 -1 0 0 0 0 -1 -1 -1 -1 0 -1 0 -1 -1
        CFGEDIT 1 1 0 1 0 0 1 1 1 1 1 1 58 171 1253 866 0 0 0 0 0.25 0 0 0 0 0.5 0 0 1 64
      >
    >
    <ITEM
      POSITION 32
      SNAPOFFS 0
      LENGTH 8
      LOOP 1
      ALLTAKES 0
      FADEIN 1 0 0 1 0 0
      FADEOUT 1 0 0 1 0 0
      MUTE 0
      SEL 1
      IGUID {0C6467FA-5F8E-F740-1BC2-E1ED7AF64A4E}
      IID 14
      NAME "01-Recorded MIDI"
      VOLPAN 1 0 1 -1
      SOFFS 0 0
      PLAYRATE 1 1 0 -1 0 0.0021
      CHANMODE 0
      GUID {888C53A3-4616-CFA0-B796-1FE0D02399DD}
      RECPASS 1
      <SOURCE MIDI
        HASDATA 1 960 QN
        CCINTERP 32
        POOLEDEVTS {A0D8577F-9B66-0415-D3AC-8BEC8840F979}
        E 0 90 3c 48
        E 0 90 40 48
        E 0 90 43 48
        E 1920 80 3c 00
        E 0 80 40 00
        E 0 80 43 00
        E 0 90 3c 48
        E 0 90 40 48
        E 0 90 43 48
        E 260 80 3c 00
        E 0 80 40 00
        E 0 80 43 00
        E 440 90 3c 48
        E 0 90 40 48
        E 0 90 43 48
        E 260 80 3c 00
        E 0 80 40 00
        E 0 80 43 00
        e 514 90 3c 48
        e 0 90 40 48
        e 0 90 43 48
        e 260 80 3c 00
        e 0 80 40 00
        e 0 80 43 00
        E 186 90 43 48
        E 0 90 47 48
        E 20 90 40 48
        E 1900 80 43 00
        E 0 80 47 00
        E 0 80 40 00
        E 0 90 43 48
        E 0 90 47 48
        E 20 90 40 48
        E 240 80 43 00
        E 0 80 47 00
        E 0 80 40 00
        E 440 90 43 48
        E 0 90 47 48
        E 20 90 40 48
        E 240 80 43 00
        E 0 80 47 00
        E 0 80 40 00
        e 514 90 43 48
        e 0 90 47 48
        e 20 90 40 48
        e 240 80 43 00
        e 0 80 47 00
        e 0 80 40 00
        E 186 90 41 48
        E 0 90 45 48
        E 0 90 48 48
        E 1920 80 41 00
        E 0 80 45 00
        E 0 80 48 00
        E 0 90 41 48
        E 0 90 45 48
        E 0 90 48 48
        E 260 80 41 00
        E 0 80 45 00
        E 0 80 48 00
        E 440 90 41 48
        E 0 90 45 48
        E 0 90 48 48
        E 260 80 41 00
        E 0 80 45 00
        E 0 80 48 00
        e 514 90 41 48
        e 0 90 45 48
        e 0 90 48 48
        e 260 80 41 00
        e 0 80 45 00
        e 0 80 48 00
        E 162 90 3e 48
        E 24 90 41 48
        E 0 90 45 48
        E 1896 90 3e 48
        E 24 80 3e 00
        E 0 80 41 00
        E 0 80 45 00
        E 0 90 41 48
        E 0 90 45 48
        E 260 80 3e 00
        E 0 80 41 00
        E 0 80 45 00
        E 416 90 3e 48
        E 24 90 41 48
        E 0 90 45 48
        E 260 80 3e 00
        E 0 80 41 00
        E 0 80 45 00
        e 490 90 3e 48
        e 24 90 41 48
        e 0 90 45 48
        e 260 80 3e 00
        e 0 80 41 00
        e 0 80 45 00
        E 186 b0 7b 00
        CHASE_CC_TAKEOFFS 1
        GUID {0C3271F4-E233-9088-9B25-A722FAE7C579}
        IGNTEMPO 0 120 4 4
        SRCCOLOR 21
        VELLANE -1 100 0
        CFGEDITVIEW 0 0.045808 45 12 0 -1 0 0 0 0.5
        KEYSNAP 0
        TRACKSEL 0
        EVTFILTER 0 -1 -1 -1 -1 0 0 0 0 -1 -1 -1 -1 0 -1 0 -1 -1
        CFGEDIT 1 1 0 1 0 0 1 1 1 1 1 1 58 171 1253 866 0 0 0 0 0.25 0 0 0 0 0.5 0 0 1 64
      >
    >
    <ITEM
      POSITION 40
      SNAPOFFS 0
      LENGTH 8
      LOOP 1
      ALLTAKES 0
      FADEIN 1 0 0 1 0 0
      FADEOUT 1 0 0 1 0 0
      MUTE 0
      SEL 1
      IGUID {1E87F24B-69FE-30C7-E49A-14AF12058349}
      IID 15
      NAME "01-Recorded MIDI"
      VOLPAN 1 0 1 -1
      SOFFS 0 0
      PLAYRATE 1 1 0 -1 0 0.0021
      CHANMODE 0
      GUID {85ED9170-1AAD-C0DF-5ADA-BDCD7DD40DEF}
      RECPASS 1
      <SOURCE MIDI
        HASDATA 1 960 QN
        CCINTERP 32
        POOLEDEVTS {D0816A85-0259-7918-827C-B95EE9BA4E7C}
        E 0 90 3c 48
        E 0 90 40 48
        E 0 90 43 48
        E 1920 80 3c 00
        E 0 80 40 00
        E 0 80 43 00
        E 0 90 3c 48
        E 0 90 40 48
        E 0 90 43 48
        E 260 80 3c 00
        E 0 80 40 00
        E 0 80 43 00
        E 440 90 3c 48
        E 0 90 40 48
        E 0 90 43 48
        E 260 80 3c 00
        E 0 80 40 00
        E 0 80 43 00
        e 514 90 3c 48
        e 0 90 40 48
        e 0 90 43 48
        e 260 80 3c 00
        e 0 80 40 00
        e 0 80 43 00
        E 186 90 43 48
        E 0 90 47 48
        E 20 90 40 48
        E 1900 80 43 00
        E 0 80 47 00
        E 0 80 40 00
        E 0 90 43 48
        E 0 90 47 48
        E 20 90 40 48
        E 240 80 43 00
        E 0 80 47 00
        E 0 80 40 00
        E 440 90 43 48
        E 0 90 47 48
        E 20 90 40 48
        E 240 80 43 00
        E 0 80 47 00
        E 0 80 40 00
        e 514 90 43 48
        e 0 90 47 48
        e 20 90 40 48
        e 240 80 43 00
        e 0 80 47 00
        e 0 80 40 00
        E 186 90 41 48
        E 0 90 45 48
        E 0 90 48 48
        E 1920 80 41 00
        E 0 80 45 00
        E 0 80 48 00
        E 0 90 41 48
        E 0 90 45 48
        E 0 90 48 48
        E 260 80 41 00
        E 0 80 45 00
        E 0 80 48 00
        E 440 90 41 48
        E 0 90 45 48
        E 0 90 48 48
        E 260 80 41 00
        E 0 80 45 00
        E 0 80 48 00
        e 514 90 41 48
        e 0 90 45 48
        e 0 90 48 48
        e 260 80 41 00
        e 0 80 45 00
        e 0 80 48 00
        E 162 90 3e 48
        E 24 90 41 48
        E 0 90 45 48
        E 1896 90 3e 48
        E 24 80 3e 00
        E 0 80 41 00
        E 0 80 45 00
        E 0 90 41 48
        E 0 90 45 48
        E 260 80 3e 00
        E 0 80 41 00
        E 0 80 45 00
        E 416 90 3e 48
        E 24 90 41 48
        E 0 90 45 48
        E 260 80 3e 00
        E 0 80 41 00
        E 0 80 45 00
        e 490 90 3e 48
        e 24 90 41 48
        e 0 90 45 48
        e 260 80 3e 00
        e 0 80 41 00
        e 0 80 45 00
        E 186 b0 7b 00
        CHASE_CC_TAKEOFFS 1
        GUID {040E7AF8-3572-5D91-3C86-797AEE7444D4}
        IGNTEMPO 0 120 4 4
        SRCCOLOR 22
        VELLANE -1 100 0
        CFGEDITVIEW 0 0.045808 45 12 0 -1 0 0 0 0.5
        KEYSNAP 0
        TRACKSEL 0
        EVTFILTER 0 -1 -1 -1 -1 0 0 0 0 -1 -1 -1 -1 0 -1 0 -1 -1
        CFGEDIT 1 1 0 1 0 0 1 1 1 1 1 1 58 171 1253 866 0 0 0 0 0.25 0 0 0 0 0.5 0 0 1 64
      >
    >
    <ITEM
      POSITION 48
      SNAPOFFS 0
      LENGTH 8
      LOOP 1
      ALLTAKES 0
      FADEIN 1 0 0 1 0 0
      FADEOUT 1 0 0 1 0 0
      MUTE 0
      SEL 1
      IGUID {A4604FCE-7F6F-4FD9-406D-4B25E91A36C2}
      IID 16
      NAME "01-Recorded MIDI"
      VOLPAN 1 0 1 -1
      SOFFS 0 0
      PLAYRATE 1 1 0 -1 0 0.0021
      CHANMODE 0
      GUID {70792514-8B3C-F887-D417-C2C65198F44D}
      RECPASS 1
      <SOURCE MIDI
        HASDATA 1 960 QN
        CCINTERP 32
        POOLEDEVTS {816EE792-2D91-9B22-6009-5AE599B2A4D1}
        E 0 90 3c 48
        E 0 90 40 48
        E 0 90 43 48
        E 1920 80 3c 00
        E 0 80 40 00
        E 0 80 43 00
        E 0 90 3c 48
        E 0 90 40 48
        E 0 90 43 48
        E 260 80 3c 00
        E 0 80 40 00
        E 0 80 43 00
        E 440 90 3c 48
        E 0 90 40 48
        E 0 90 43 48
        E 260 80 3c 00
        E 0 80 40 00
        E 0 80 43 00
        e 514 90 3c 48
        e 0 90 40 48
        e 0 90 43 48
        e 260 80 3c 00
        e 0 80 40 00
        e 0 80 43 00
        E 186 90 43 48
        E 0 90 47 48
        E 20 90 40 48
        E 1900 80 43 00
        E 0 80 47 00
        E 0 80 40 00
        E 0 90 43 48
        E 0 90 47 48
        E 20 90 40 48
        E 240 80 43 00
        E 0 80 47 00
        E 0 80 40 00
        E 440 90 43 48
        E 0 90 47 48
        E 20 90 40 48
        E 240 80 43 00
        E 0 80 47 00
        E 0 80 40 00
        e 514 90 43 48
        e 0 90 47 48
        e 20 90 40 48
        e 240 80 43 00
        e 0 80 47 00
        e 0 80 40 00
        E 186 90 41 48
        E 0 90 45 48
        E 0 90 48 48
        E 1920 80 41 00
        E 0 80 45 00
        E 0 80 48 00
        E 0 90 41 48
        E 0 90 45 48
        E 0 90 48 48
        E 260 80 41 00
        E 0 80 45 00
        E 0 80 48 00
        E 440 90 41 48
        E 0 90 45 48
        E 0 90 48 48
        E 260 80 41 00
        E 0 80 45 00
        E 0 80 48 00
        e 514 90 41 48
        e 0 90 45 48
        e 0 90 48 48
        e 260 80 41 00
        e 0 80 45 00
        e 0 80 48 00
        E 162 90 3e 48
        E 24 90 41 48
        E 0 90 45 48
        E 1896 90 3e 48
        E 24 80 3e 00
        E 0 80 41 00
        E 0 80 45 00
        E 0 90 41 48
        E 0 90 45 48
        E 260 80 3e 00
        E 0 80 41 00
        E 0 80 45 00
        E 416 90 3e 48
        E 24 90 41 48
        E 0 90 45 48
        E 260 80 3e 00
        E 0 80 41 00
        E 0 80 45 00
        e 490 90 3e 48
        e 24 90 41 48
        e 0 90 45 48
        e 260 80 3e 00
        e 0 80 41 00
        e 0 80 45 00
        E 186 b0 7b 00
        CHASE_CC_TAKEOFFS 1
        GUID {2338968B-6CF9-9F40-300F-DEB89D3392EA}
        IGNTEMPO 0 120 4 4
        SRCCOLOR 23
        VELLANE -1 100 0
        CFGEDITVIEW 0 0.045808 45 12 0 -1 0 0 0 0.5
        KEYSNAP 0
        TRACKSEL 0
        EVTFILTER 0 -1 -1 -1 -1 0 0 0 0 -1 -1 -1 -1 0 -1 0 -1 -1
        CFGEDIT 1 1 0 1 0 0 1 1 1 1 1 1 58 171 1253 866 0 0 0 0 0.25 0 0 0 0 0.5 0 0 1 64
      >
    >
    <ITEM
      POSITION 56
      SNAPOFFS 0
      LENGTH 8
      LOOP 1
      ALLTAKES 0
      FADEIN 1 0 0 1 0 0
      FADEOUT 1 0 0 1 0 0
      MUTE 0
      SEL 1
      IGUID {FB483336-8C3C-DB4B-31BD-7ADF3894DA10}
      IID 17
      NAME "01-Recorded MIDI"
      VOLPAN 1 0 1 -1
      SOFFS 0 0
      PLAYRATE 1 1 0 -1 0 0.0021
      CHANMODE 0
      GUID {ADF900AF-B942-E2B2-5A81-214F2F270A94}
      RECPASS 1
      <SOURCE MIDI
        HASDATA 1 960 QN
        CCINTERP 32
        POOLEDEVTS {0EA22011-76D6-5527-1F80-435A07931C73}
        E 0 90 3c 48
        E 0 90 40 48
        E 0 90 43 48
        E 1920 80 3c 00
        E 0 80 40 00
        E 0 80 43 00
        E 0 90 3c 48
        E 0 90 40 48
        E 0 90 43 48
        E 260 80 3c 00
        E 0 80 40 00
        E 0 80 43 00
        E 440 90 3c 48
        E 0 90 40 48
        E 0 90 43 48
        E 260 80 3c 00
        E 0 80 40 00
        E 0 80 43 00
        e 514 90 3c 48
        e 0 90 40 48
        e 0 90 43 48
        e 260 80 3c 00
        e 0 80 40 00
        e 0 80 43 00
        E 186 90 43 48
        E 0 90 47 48
        E 20 90 40 48
        E 1900 80 43 00
        E 0 80 47 00
        E 0 80 40 00
        E 0 90 43 48
        E 0 90 47 48
        E 20 90 40 48
        E 240 80 43 00
        E 0 80 47 00
        E 0 80 40 00
        E 440 90 43 48
        E 0 90 47 48
        E 20 90 40 48
        E 240 80 43 00
        E 0 80 47 00
        E 0 80 40 00
        e 514 90 43 48
        e 0 90 47 48
        e 20 90 40 48
        e 240 80 43 00
        e 0 80 47 00
        e 0 80 40 00
        E 186 90 41 48
        E 0 90 45 48
        E 0 90 48 48
        E 1920 80 41 00
        E 0 80 45 00
        E 0 80 48 00
        E 0 90 41 48
        E 0 90 45 48
        E 0 90 48 48
        E 260 80 41 00
        E 0 80 45 00
        E 0 80 48 00
        E 440 90 41 48
        E 0 90 45 48
        E 0 90 48 48
        E 260 80 41 00
        E 0 80 45 00
        E 0 80 48 00
        e 514 90 41 48
        e 0 90 45 48
        e 0 90 48 48
        e 260 80 41 00
        e 0 80 45 00
        e 0 80 48 00
        E 162 90 3e 48
        E 24 90 41 48
        E 0 90 45 48
        E 1896 90 3e 48
        E 24 80 3e 00
        E 0 80 41 00
        E 0 80 45 00
        E 0 90 41 48
        E 0 90 45 48
        E 260 80 3e 00
        E 0 80 41 00
        E 0 80 45 00
        E 416 90 3e 48
        E 24 90 41 48
        E 0 90 45 48
        E 260 80 3e 00
        E 0 80 41 00
        E 0 80 45 00
        e 490 90 3e 48
        e 24 90 41 48
        e 0 90 45 48
        e 260 80 3e 00
        e 0 80 41 00
        e 0 80 45 00
        E 186 b0 7b 00
        CHASE_CC_TAKEOFFS 1
        GUID {A64857E2-94F8-0990-20DF-4C1E9B5E6251}
        IGNTEMPO 0 120 4 4
        SRCCOLOR 24
        VELLANE -1 100 0
        CFGEDITVIEW 0 0.045808 45 12 0 -1 0 0 0 0.5
        KEYSNAP 0
        TRACKSEL 0
        EVTFILTER 0 -1 -1 -1 -1 0 0 0 0 -1 -1 -1 -1 0 -1 0 -1 -1
        CFGEDIT 1 1 0 1 0 0 1 1 1 1 1 1 58 171 1253 866 0 0 0 0 0.25 0 0 0 0 0.5 0 0 1 64
      >
    >
    <ITEM
      POSITION 64
      SNAPOFFS 0
      LENGTH 8
      LOOP 1
      ALLTAKES 0
      FADEIN 1 0 0 1 0 0
      FADEOUT 1 0 0 1 0 0
      MUTE 0
      SEL 1
      IGUID {FF0F22C3-500C-8DA3-6733-7CFFE775BAC0}
      IID 18
      NAME "01-Recorded MIDI"
      VOLPAN 1 0 1 -1
      SOFFS 0 0
      PLAYRATE 1 1 0 -1 0 0.0021
      CHANMODE 0
      GUID {31F5CB78-4A96-69CE-CA83-3E07F61AD5A1}
      RECPASS 1
      <SOURCE MIDI
        HASDATA 1 960 QN
        CCINTERP 32
        POOLEDEVTS {291751AF-3718-F1F0-2D0B-FE94BD7241E0}
        E 0 90 3c 48
        E 0 90 40 48
        E 0 90 43 48
        E 1920 80 3c 00
        E 0 80 40 00
        E 0 80 43 00
        E 0 90 3c 48
        E 0 90 40 48
        E 0 90 43 48
        E 260 80 3c 00
        E 0 80 40 00
        E 0 80 43 00
        E 440 90 3c 48
        E 0 90 40 48
        E 0 90 43 48
        E 260 80 3c 00
        E 0 80 40 00
        E 0 80 43 00
        e 514 90 3c 48
        e 0 90 40 48
        e 0 90 43 48
        e 260 80 3c 00
        e 0 80 40 00
        e 0 80 43 00
        E 186 90 43 48
        E 0 90 47 48
        E 20 90 40 48
        E 1900 80 43 00
        E 0 80 47 00
        E 0 80 40 00
        E 0 90 43 48
        E 0 90 47 48
        E 20 90 40 48
        E 240 80 43 00
        E 0 80 47 00
        E 0 80 40 00
        E 440 90 43 48
        E 0 90 47 48
        E 20 90 40 48
        E 240 80 43 00
        E 0 80 47 00
        E 0 80 40 00
        e 514 90 43 48
        e 0 90 47 48
        e 20 90 40 48
        e 240 80 43 00
        e 0 80 47 00
        e 0 80 40 00
        E 186 90 41 48
        E 0 90 45 48
        E 0 90 48 48
        E 1920 80 41 00
        E 0 80 45 00
        E 0 80 48 00
        E 0 90 41 48
        E 0 90 45 48
        E 0 90 48 48
        E 260 80 41 00
        E 0 80 45 00
        E 0 80 48 00
        E 440 90 41 48
        E 0 90 45 48
        E 0 90 48 48
        E 260 80 41 00
        E 0 80 45 00
        E 0 80 48 00
        e 514 90 41 48
        e 0 90 45 48
        e 0 90 48 48
        e 260 80 41 00
        e 0 80 45 00
        e 0 80 48 00
        E 162 90 3e 48
        E 24 90 41 48
        E 0 90 45 48
        E 1896 90 3e 48
        E 24 80 3e 00
        E 0 80 41 00
        E 0 80 45 00
        E 0 90 41 48
        E 0 90 45 48
        E 260 80 3e 00
        E 0 80 41 00
        E 0 80 45 00
        E 416 90 3e 48
        E 24 90 41 48
        E 0 90 45 48
        E 260 80 3e 00
        E 0 80 41 00
        E 0 80 45 00
        e 490 90 3e 48
        e 24 90 41 48
        e 0 90 45 48
        e 260 80 3e 00
        e 0 80 41 00
        e 0 80 45 00
        E 186 b0 7b 00
        CHASE_CC_TAKEOFFS 1
        GUID {19362806-85F2-5D9E-E1F9-07BE0CF3D16E}
        IGNTEMPO 0 120 4 4
        SRCCOLOR 25
        VELLANE -1 100 0
        CFGEDITVIEW 0 0.045808 45 12 0 -1 0 0 0 0.5
        KEYSNAP 0
        TRACKSEL 0
        EVTFILTER 0 -1 -1 -1 -1 0 0 0 0 -1 -1 -1 -1 0 -1 0 -1 -1
        CFGEDIT 1 1 0 1 0 0 1 1 1 1 1 1 58 171 1253 866 0 0 0 0 0.25 0 0 0 0 0.5 0 0 1 64
      >
    >
    <ITEM
      POSITION 72
      SNAPOFFS 0
      LENGTH 8
      LOOP 1
      ALLTAKES 0
      FADEIN 1 0 0 1 0 0
      FADEOUT 1 0 0 1 0 0
      MUTE 0
      SEL 1
      IGUID {48C410A5-D308-C55E-098B-5A5D27B27D95}
      IID 19
      NAME "01-Recorded MIDI"
      VOLPAN 1 0 1 -1
      SOFFS 0 0
      PLAYRATE 1 1 0 -1 0 0.0021
      CHANMODE 0
      GUID {7810827E-0B5D-DFEA-D4F9-F9E5CBA2F282}
      RECPASS 1
      <SOURCE MIDI
        HASDATA 1 960 QN
        CCINTERP 32
        POOLEDEVTS {473A73F0-4659-1056-3B38-CA890F67A3C4}
        E 0 90 3c 48
        E 0 90 40 48
        E 0 90 43 48
        E 1920 80 3c 00
        E 0 80 40 00
        E 0 80 43 00
        E 0 90 3c 48
        E 0 90 40 48
        E 0 90 43 48
        E 260 80 3c 00
        E 0 80 40 00
        E 0 80 43 00
        E 440 90 3c 48
        E 0 90 40 48
        E 0 90 43 48
        E 260 80 3c 00
        E 0 80 40 00
        E 0 80 43 00
        e 514 90 3c 48
        e 0 90 40 48
        e 0 90 43 48
        e 260 80 3c 00
        e 0 80 40 00
        e 0 80 43 00
        E 186 90 43 48
        E 0 90 47 48
        E 20 90 40 48
        E 1900 80 43 00
        E 0 80 47 00
        E 0 80 40 00
        E 0 90 43 48
        E 0 90 47 48
        E 20 90 40 48
        E 240 80 43 00
        E 0 80 47 00
        E 0 80 40 00
        E 440 90 43 48
        E 0 90 47 48
        E 20 90 40 48
        E 240 80 43 00
        E 0 80 47 00
        E 0 80 40 00
        e 514 90 43 48
        e 0 90 47 48
        e 20 90 40 48
        e 240 80 43 00
        e 0 80 47 00
        e 0 80 40 00
        E 186 90 41 48
        E 0 90 45 48
        E 0 90 48 48
        E 1920 80 41 00
        E 0 80 45 00
        E 0 80 48 00
        E 0 90 41 48
        E 0 90 45 48
        E 0 90 48 48
        E 260 80 41 00
        E 0 80 45 00
        E 0 80 48 00
        E 440 90 41 48
        E 0 90 45 48
        E 0 90 48 48
        E 260 80 41 00
        E 0 80 45 00
        E 0 80 48 00
        e 514 90 41 48
        e 0 90 45 48
        e 0 90 48 48
        e 260 80 41 00
        e 0 80 45 00
        e 0 80 48 00
        E 162 90 3e 48
        E 24 90 41 48
        E 0 90 45 48
        E 1896 90 3e 48
        E 24 80 3e 00
        E 0 80 41 00
        E 0 80 45 00
        E 0 90 41 48
        E 0 90 45 48
        E 260 80 3e 00
        E 0 80 41 00
        E 0 80 45 00
        E 416 90 3e 48
        E 24 90 41 48
        E 0 90 45 48
        E 260 80 3e 00
        E 0 80 41 00
        E 0 80 45 00
        e 490 90 3e 48
        e 24 90 41 48
        e 0 90 45 48
        e 260 80 3e 00
        e 0 80 41 00
        e 0 80 45 00
        E 186 b0 7b 00
        CHASE_CC_TAKEOFFS 1
        GUID {6844F8A9-6BE9-023C-4A46-0A676470C99B}
        IGNTEMPO 0 120 4 4
        SRCCOLOR 26
        VELLANE -1 100 0
        CFGEDITVIEW 0 0.045808 45 12 0 -1 0 0 0 0.5
        KEYSNAP 0
        TRACKSEL 0
        EVTFILTER 0 -1 -1 -1 -1 0 0 0 0 -1 -1 -1 -1 0 -1 0 -1 -1
        CFGEDIT 1 1 0 1 0 0 1 1 1 1 1 1 58 171 1253 866 0 0 0 0 0.25 0 0 0 0 0.5 0 0 1 64
      >
    >
    <ITEM
      POSITION 80
      SNAPOFFS 0
      LENGTH 8
      LOOP 1
      ALLTAKES 0
      FADEIN 1 0 0 1 0 0
      FADEOUT 1 0 0 1 0 0
      MUTE 0
      SEL 1
      IGUID {14148A68-73C9-0D50-B905-87F3A89FC7C8}
      IID 20
      NAME "01-Recorded MIDI"
      VOLPAN 1 0 1 -1
      SOFFS 0 0
      PLAYRATE 1 1 0 -1 0 0.0021
      CHANMODE 0
      GUID {D8B4D353-64E3-80E6-33B8-DAD4681EDDE3}
      RECPASS 1
      <SOURCE MIDI
        HASDATA 1 960 QN
        CCINTERP 32
        POOLEDEVTS {3F6F1D7E-DC46-07CB-9935-29969DF36837}
        E 0 90 3c 48
        E 0 90 40 48
        E 0 90 43 48
        E 1920 80 3c 00
        E 0 80 40 00
        E 0 80 43 00
        E 0 90 3c 48
        E 0 90 40 48
        E 0 90 43 48
        E 260 80 3c 00
        E 0 80 40 00
        E 0 80 43 00
        E 440 90 3c 48
        E 0 90 40 48
        E 0 90 43 48
        E 260 80 3c 00
        E 0 80 40 00
        E 0 80 43 00
        e 514 90 3c 48
        e 0 90 40 48
        e 0 90 43 48
        e 260 80 3c 00
        e 0 80 40 00
        e 0 80 43 00
        E 186 90 43 48
        E 0 90 47 48
        E 20 90 40 48
        E 1900 80 43 00
        E 0 80 47 00
        E 0 80 40 00
        E 0 90 43 48
        E 0 90 47 48
        E 20 90 40 48
        E 240 80 43 00
        E 0 80 47 00
        E 0 80 40 00
        E 440 90 43 48
        E 0 90 47 48
        E 20 90 40 48
        E 240 80 43 00
        E 0 80 47 00
        E 0 80 40 00
        e 514 90 43 48
        e 0 90 47 48
        e 20 90 40 48
        e 240 80 43 00
        e 0 80 47 00
        e 0 80 40 00
        E 186 90 41 48
        E 0 90 45 48
        E 0 90 48 48
        E 1920 80 41 00
        E 0 80 45 00
        E 0 80 48 00
        E 0 90 41 48
        E 0 90 45 48
        E 0 90 48 48
        E 260 80 41 00
        E 0 80 45 00
        E 0 80 48 00
        E 440 90 41 48
        E 0 90 45 48
        E 0 90 48 48
        E 260 80 41 00
        E 0 80 45 00
        E 0 80 48 00
        e 514 90 41 48
        e 0 90 45 48
        e 0 90 48 48
        e 260 80 41 00
        e 0 80 45 00
        e 0 80 48 00
        E 162 90 3e 48
        E 24 90 41 48
        E 0 90 45 48
        E 1896 90 3e 48
        E 24 80 3e 00
        E 0 80 41 00
        E 0 80 45 00
        E 0 90 41 48
        E 0 90 45 48
        E 260 80 3e 00
        E 0 80 41 00
        E 0 80 45 00
        E 416 90 3e 48
        E 24 90 41 48
        E 0 90 45 48
        E 260 80 3e 00
        E 0 80 41 00
        E 0 80 45 00
        e 490 90 3e 48
        e 24 90 41 48
        e 0 90 45 48
        e 260 80 3e 00
        e 0 80 41 00
        e 0 80 45 00
        E 186 b0 7b 00
        CHASE_CC_TAKEOFFS 1
        GUID {E611ADB6-4869-6CCA-8E83-3954D5E743B1}
        IGNTEMPO 0 120 4 4
        SRCCOLOR 27
        VELLANE -1 100 0
        CFGEDITVIEW 0 0.045808 45 12 0 -1 0 0 0 0.5
        KEYSNAP 0
        TRACKSEL 0
        EVTFILTER 0 -1 -1 -1 -1 0 0 0 0 -1 -1 -1 -1 0 -1 0 -1 -1
        CFGEDIT 1 1 0 1 0 0 1 1 1 1 1 1 58 171 1253 866 0 0 0 0 0.25 0 0 0 0 0.5 0 0 1 64
      >
    >
    <ITEM
      POSITION 88
      SNAPOFFS 0
      LENGTH 8
      LOOP 1
      ALLTAKES 0
      FADEIN 1 0 0 1 0 0
      FADEOUT 1 0 0 1 0 0
      MUTE 0
      SEL 1
      IGUID {9AED603F-621A-F83A-8444-71D9E9E90194}
      IID 21
      NAME "01-Recorded MIDI"
      VOLPAN 1 0 1 -1
      SOFFS 0 0
      PLAYRATE 1 1 0 -1 0 0.0021
      CHANMODE 0
      GUID {51A22338-141D-7062-DCF1-C53DCAFA7508}
      RECPASS 1
      <SOURCE MIDI
        HASDATA 1 960 QN
        CCINTERP 32
        POOLEDEVTS {C6D90415-D2A4-72E1-7CDF-DECC8300C8D0}
        E 0 90 3c 48
        E 0 90 40 48
        E 0 90 43 48
        E 1920 80 3c 00
        E 0 80 40 00
        E 0 80 43 00
        E 0 90 3c 48
        E 0 90 40 48
        E 0 90 43 48
        E 260 80 3c 00
        E 0 80 40 00
        E 0 80 43 00
        E 440 90 3c 48
        E 0 90 40 48
        E 0 90 43 48
        E 260 80 3c 00
        E 0 80 40 00
        E 0 80 43 00
        e 514 90 3c 48
        e 0 90 40 48
        e 0 90 43 48
        e 260 80 3c 00
        e 0 80 40 00
        e 0 80 43 00
        E 186 90 43 48
        E 0 90 47 48
        E 20 90 40 48
        E 1900 80 43 00
        E 0 80 47 00
        E 0 80 40 00
        E 0 90 43 48
        E 0 90 47 48
        E 20 90 40 48
        E 240 80 43 00
        E 0 80 47 00
        E 0 80 40 00
        E 440 90 43 48
        E 0 90 47 48
        E 20 90 40 48
        E 240 80 43 00
        E 0 80 47 00
        E 0 80 40 00
        e 514 90 43 48
        e 0 90 47 48
        e 20 90 40 48
        e 240 80 43 00
        e 0 80 47 00
        e 0 80 40 00
        E 186 90 41 48
        E 0 90 45 48
        E 0 90 48 48
        E 1920 80 41 00
        E 0 80 45 00
        E 0 80 48 00
        E 0 90 41 48
        E 0 90 45 48
        E 0 90 48 48
        E 260 80 41 00
        E 0 80 45 00
        E 0 80 48 00
        E 440 90 41 48
        E 0 90 45 48
        E 0 90 48 48
        E 260 80 41 00
        E 0 80 45 00
        E 0 80 48 00
        e 514 90 41 48
        e 0 90 45 48
        e 0 90 48 48
        e 260 80 41 00
        e 0 80 45 00
        e 0 80 48 00
        E 162 90 3e 48
        E 24 90 41 48
        E 0 90 45 48
        E 1896 90 3e 48
        E 24 80 3e 00
        E 0 80 41 00
        E 0 80 45 00
        E 0 90 41 48
        E 0 90 45 48
        E 260 80 3e 00
        E 0 80 41 00
        E 0 80 45 00
        E 416 90 3e 48
        E 24 90 41 48
        E 0 90 45 48
        E 260 80 3e 00
        E 0 80 41 00
        E 0 80 45 00
        e 490 90 3e 48
        e 24 90 41 48
        e 0 90 45 48
        e 260 80 3e 00
        e 0 80 41 00
        e 0 80 45 00
        E 186 b0 7b 00
        CHASE_CC_TAKEOFFS 1
        GUID {C762B555-17FC-D765-5340-11D3487D2955}
        IGNTEMPO 0 120 4 4
        SRCCOLOR 28
        VELLANE -1 100 0
        CFGEDITVIEW 0 0.045808 45 12 0 -1 0 0 0 0.5
        KEYSNAP 0
        TRACKSEL 0
        EVTFILTER 0 -1 -1 -1 -1 0 0 0 0 -1 -1 -1 -1 0 -1 0 -1 -1
        CFGEDIT 1 1 0 1 0 0 1 1 1 1 1 1 58 171 1253 866 0 0 0 0 0.25 0 0 0 0 0.5 0 0 1 64
      >
    >
  >
>
