<REAPER_PROJECT 0.1 "6.10/linux-arm" 1589231611
  RIPPLE 0
  GROUPOVERRIDE 0 0 0
  AUTOXFADE 3
  ENVATTACH 1
  POOLEDENVATTACH 0
  MIXERUIFLAGS 11 48
  PEAKGAIN 1
  FEEDBACK 0
  PANLAW 1
  PROJOFFS 0 0 0
  MAXPROJLEN 0 600
  GRID 3199 8 1 8 1 0 0 0
  TIMEMODE 1 5 -1 30 0 0 -1
  VIDEO_CONFIG 0 0 256
  PANMODE 3
  CURSOR 1
  ZOOM 12.71868690114718 0 0
  VZOOMEX 6 0
  USE_REC_CFG 0
  RECMODE 1
  SMPTESYNC 0 30 100 40 1000 300 0 0 1 0 0
  LOOP 1
  LOOPGRAN 0 4
  RECORD_PATH "" ""
  <RECORD_CFG
  >
  <APPLYFX_CFG
  >
  RENDER_FILE ""
  RENDER_PATTERN ""
  RENDER_FMT 0 2 0
  RENDER_1X 0
  RENDER_RANGE 0 0 220 18 1000
  RENDER_RESAMPLE 3 0 1
  RENDER_ADDTOPROJ 0
  RENDER_STEMS 0
  RENDER_DITHER 0
  TIMELOCKMODE 1
  TEMPOENVLOCKMODE 1
  ITEMMIX 0
  DEFPITCHMODE 589824 0
  TAKELANE 1
  SAMPLERATE 44100 0 0
  <RENDER_CFG
  >
  LOCK 1
  <METRONOME 7 2
    VOL 0.25 0.125
    FREQ 800 1600 1
    BEATLEN 4
    SAMPLES "" ""
    PATTERN 2863311530 2863311529
  >
  GLOBAL_AUTO -1
  TEMPO 120 4 4
  PLAYRATE 1 0 0.25 4
  SELECTION 96 0
  SELECTION2 96 0
  MASTERAUTOMODE 0
  MASTERTRACKHEIGHT 0 0
  MASTERPEAKCOL 24935548
  MASTERMUTESOLO 0
  MASTERTRACKVIEW 0 0.6667 0.5 0.5 0 0 0 0 0 0
  MASTERHWOUT 0 0 1 0 0 0 0 -1
  MASTER_NCH 2 2
  MASTER_VOLUME 1 0 -1 -1 1
  MASTER_FX 1
  MASTER_SEL 0
  <MASTERPLAYSPEEDENV
    ACT 0 -1
    VIS 0 1 1
    LANEHEIGHT 0 0
    ARM 0
    DEFSHAPE 0 -1 -1
  >
  <TEMPOENVEX
    ACT 0 -1
    VIS 1 0 1
    LANEHEIGHT 0 0
    ARM 0
    DEFSHAPE 1 -1 -1
  >
  <PROJBAY
  >
  <TRACK {F73B46BF-2722-5415-E73E-4559C2DD7736}
    NAME ""
    PEAKCOL 16576
    BEAT -1
    AUTOMODE 0
    VOLPAN 0.00052194381917 0 -1 -1 1
    MUTESOLO 0 0 0
    IPHASE 0
    PLAYOFFS 0 1
    ISBUS 0 0
    BUSCOMP 0 0 0 0 0
    SHOWINMIX 1 0.6667 0.5 1 0.5 0 0 0
    FREEMODE 0
    SEL 1
    REC 0 5056 1 0 0 0 0
    VU 2
    TRACKHEIGHT 21 0 0
    INQ 0 0 0 0.5 100 0 0 100
    NCHAN 2
    FX 0
    TRACKID {F73B46BF-2722-5415-E73E-4559C2DD7736}
    PERF 0
    MIDIOUT -1
    MAINSEND 1 0
    <FXCHAIN
      WNDRECT 346 266 902 608
      SHOW 0
      LASTSEL 5
      DOCKED 0
      BYPASS 0 0 0
      <VST "VST: ReaEQ (Cockos)" reaeq.vst.so 0 "" 1919247729<56535472656571726561657100000000> ""
        cWVlcu5e7f4CAAAAAQAAAAAAAAACAAAAAAAAAAIAAAABAAAAAAAAAAIAAAAAAAAAqAAAAAEAAAAAABAA
        IQAAAAQAAAAEAAAAAQAAAH+4Xhmm+DRAAAAAAAAA8D8AAAAAAAAAQAEIAAAAAQAAAAAAAAAAwHJAAAAAAAAA8D8AAAAAAAAAQAEIAAAAAQAAAAAAAAAAQI9AAAAAAAAA
        8D8AAAAAAAAAQAEDAAAAAQAAABMBaCorbdRAAAAAAAAA8D8AAAAAAAAAQAEBAAAAAQAAAAAAAAAAAPA/AAAAAJoCAACcAQAA
        AEhpZ2ggbG93IHBhc3MAEAAAAA==
      >
      PRESETNAME "High low pass"
      FLOATPOS 0 0 0 0
      FXID {E8289135-54FF-A1DC-F093-4DEA30092053}
      WAK 0 0
      BYPASS 0 0 0
      <VST "VSTi: ReaSynth (Cockos)" reasynth.vst.so 0 "" 1919251321<5653547265737972656173796E746800> ""
        eXNlcu9e7f4AAAAAAgAAAAEAAAAAAAAAAgAAAAAAAAA8AAAAAAAAAAAAEAA=
        776t3g3wrd6lm8Q7F7fROgAAAAAAAAAAAAAAAJCNuT3oZ4g9AACAPwAAAD8AAIA/AAAAAAAAAD8AAAAA
        AAAQAAAA
      >
      FLOATPOS 0 0 0 0
      FXID {75103AB5-7D2B-7153-1110-D55214987CB5}
      WAK 0 0
      BYPASS 0 0 0
      <JS guitar/amp-model ""
        "Dumble Overdrive Special - Tweed Deluxe.wav" -21.000000 1.000000 0.000000 73.000000 256.000000 - - - - - - - - - - - - - - - - - - - - - - - - - - - - - - - - - - - - - - - - - - - - - - - - - - - - - - - - - - 
      >
      FLOATPOS 0 0 0 0
      FXID {C054EDE4-8EA4-5119-6CA6-73D2D2E31610}
      WAK 0 0
      BYPASS 0 0 0
      <VST "VST: ReaComp (Cockos)" reacomp.vst.so 0 "" 1919247213<5653547265636D726561636F6D700000> ""
        bWNlcu9e7f4EAAAAAQAAAAAAAAACAAAAAAAAAAQAAAAAAAAACAAAAAAAAAACAAAAAQAAAAAAAAACAAAAAAAAAFQAAAAAAAAAAAAQAA==
        776t3g3wrd5FoYg9/AWpPKWbxDsK16M8AAAAAAAAAAAAAIA/AAAAAAAAAAAAAAAAnNEHMwAAgD8AAAAAzMxMPQAAAAAAAAAAAAAAAAAAgD7YiZ09
        AAAQAAAA
      >
      FLOATPOS 0 0 0 0
      FXID {02C456F9-6B05-ECC6-D094-EA336968B5DA}
      WAK 0 0
      BYPASS 0 0 0
      <VST "VST: ReaDelay (Cockos)" readelay.vst.so 0 "" 1919247468<5653547265646C72656164656C617900> ""
        bGRlcu5e7f4CAAAAAQAAAAAAAAACAAAAAAAAAAIAAAABAAAAAAAAAAIAAAAAAAAA/AAAAAEAAAAAAAAA
        AAAAAAAAAAAFAAAALAAAAAIAAAAEAAAAAACAPwAAgD8AAAAAAACAPwAAAAAAAIA7vTeGNQAAgD8AAAAAAACAPwAAgD8AAIA/AAAAAAAAAAAAAIA/AAAAAAAAADwAAAAA
        AACAPwAAAAAAAIA/AACAP+87NT8AAIA/AAAAAAAAgD8AAAAAAABAPL03hjUAAIA/AAAAAAAAgD8AAIA/zk0AP6abhD4AAAAAAACAPwAAAAAAAIA8vTeGNQAAgD8AAAAA
        AACAPwAAgD8aqrU+pHA9PwAAAAAAAIA/AAAAAAAAoDy9N4Y1AACAPwAAAAAAAIA/AACAP/npAD4AAAA/
        AHN0b2NrIC0gYmFzaWMgNSB0YXAgcGluZyBwb25nAAAAAAA=
      >
      PRESETNAME "stock - basic 5 tap ping pong"
      FLOATPOS 0 0 0 0
      FXID {9F37C55C-00A2-8F2B-E9AA-B51575560C73}
      WAK 0 0
      BYPASS 0 0 0
      <VST "VST: ReaVerb (Cockos)" reaverb.vst.so 0 "" 1919252066<56535472657662726561766572620000> ""
        YnZlcu5e7f4CAAAAAQAAAAAAAAACAAAAAAAAAAIAAAABAAAAAAAAAAIAAAAAAAAAcAAAAAEAAAAAAAAA
        AAAAwcybgD4AAIA/AAAAAAAAgD8AAIA/AAAAPwAAgD8AAAAAVkVSQkdFTgAYAAAAAAAAAJHgV0QdrLRA3rK7QsHIjEIAAIC/RUNIT0dFTgAcAAAAy/i2QLUjdUJdzdM/
        osdfP5lRrzyRzYxAnMQAPw==
        AHN3ZWV0dmVyYm8AAAAAAA==
      >
      PRESETNAME sweetverbo
      FLOATPOS 0 0 0 0
      FXID {E8BBF139-73BA-C8CB-23E4-259656AC53BA}
      WAK 0 0
    >
    <ITEM
      POSITION 0
      SNAPOFFS 0
      LENGTH 8
      LOOP 1
      ALLTAKES 0
      FADEIN 1 0 0 1 0 0
      FADEOUT 1 0 0 1 0 0
      MUTE 0
      SEL 1
      IGUID {23A366AA-7091-722F-9481-F0ABB120B2DC}
      IID 10
      NAME "01-Recorded MIDI"
      VOLPAN 1 0 1 -1
      SOFFS 0 0
      PLAYRATE 1 1 0 -1 0 0.0021
      CHANMODE 0
      GUID {5467F500-DBEB-71A6-C06A-3E6A9E119C58}
      RECPASS 1
      <SOURCE MIDI
        HASDATA 1 960 QN
        CCINTERP 32
        POOLEDEVTS {13FC6AF0-B2B3-3E1C-1877-9AA7A465122D}
        E 0 90 3c 48
        E 0 90 40 48
        E 0 90 43 48
        E 1920 80 3c 00
        E 0 80 40 00
        E 0 80 43 00
        E 0 90 3c 48
        E 0 90 40 48
        E 0 90 43 48
        E 260 80 3c 00
        E 0 80 40 00
        E 0 80 43 00
        E 440 90 3c 48
        E 0 90 40 48
        E 0 90 43 48
        E 260 80 3c 00
        E 0 80 40 00
        E 0 80 43 00
        e 514 90 3c 48
        e 0 90 40 48
        e 0 90 43 48
        e 260 80 3c 00
        e 0 80 40 00
        e 0 80 43 00
        E 186 90 43 48
        E 0 90 47 48
        E 20 90 40 48
        E 1900 80 43 00
        E 0 80 47 00
        E 0 80 40 00
        E 0 90 43 48
        E 0 90 47 48
        E 20 90 40 48
        E 240 80 43 00
        E 0 80 47 00
        E 0 80 40 00
        E 440 90 43 48
        E 0 90 47 48
        E 20 90 40 48
        E 240 80 43 00
        E 0 80 47 00
        E 0 80 40 00
        e 514 90 43 48
        e 0 90 47 48
        e 20 90 40 48
        e 240 80 43 00
        e 0 80 47 00
        e 0 80 40 00
        E 186 90 41 48
        E 0 90 45 48
        E 0 90 48 48
        E 1920 80 41 00
        E 0 80 45 00
        E 0 80 48 00
        E 0 90 41 48
        E 0 90 45 48
        E 0 90 48 48
        E 260 80 41 00
        E 0 80 45 00
        E 0 80 48 00
        E 440 90 41 48
        E 0 90 45 48
        E 0 90 48 48
        E 260 80 41 00
        E 0 80 45 00
        E 0 80 48 00
        e 514 90 41 48
        e 0 90 45 48
        e 0 90 48 48
        e 260 80 41 00
        e 0 80 45 00
        e 0 80 48 00
        E 162 90 3e 48
        E 24 90 41 48
        E 0 90 45 48
        E 1896 90 3e 48
        E 24 80 3e 00
        E 0 80 41 00
        E 0 80 45 00
        E 0 90 41 48
        E 0 90 45 48
        E 260 80 3e 00
        E 0 80 41 00
        E 0 80 45 00
        E 416 90 3e 48
        E 24 90 41 48
        E 0 90 45 48
        E 260 80 3e 00
        E 0 80 41 00
        E 0 80 45 00
        e 490 90 3e 48
        e 24 90 41 48
        e 0 90 45 48
        e 260 80 3e 00
        e 0 80 41 00
        e 0 80 45 00
        E 186 b0 7b 00
        CHASE_CC_TAKEOFFS 1
        GUID {7B9D708B-43E1-C8D4-C4B3-87E2A6C27801}
        IGNTEMPO 0 120 4 4
        SRCCOLOR 17
        VELLANE -1 100 0
        CFGEDITVIEW 0 0.045808 45 12 0 -1 0 0 0 0.5
        KEYSNAP 0
        TRACKSEL 0
        EVTFILTER 0 -1 -1 -1 -1 0 0 0 0 -1 -1 -1 -1 0 -1 0 -1 -1
        CFGEDIT 1 1 0 1 0 0 1 1 1 1 1 1 58 171 1253 866 0 0 0 0 0.25 0 0 0 0 0.5 0 0 1 64
      >
    >
    <ITEM
      POSITION 8
      SNAPOFFS 0
      LENGTH 8
      LOOP 1
      ALLTAKES 0
      FADEIN 1 0 0 1 0 0
      FADEOUT 1 0 0 1 0 0
      MUTE 0
      SEL 1
      IGUID {19D7C30F-6A4F-DFD9-E5D4-88DDDA8A7F60}
      IID 11
      NAME "01-Recorded MIDI"
      VOLPAN 1 0 1 -1
      SOFFS 0 0
      PLAYRATE 1 1 0 -1 0 0.0021
      CHANMODE 0
      GUID {38707A9E-28CC-DEAD-FF07-63CEF6D1C5A7}
      RECPASS 1
      <SOURCE MIDI
        HASDATA 1 960 QN
        CCINTERP 32
        POOLEDEVTS {44ED55B8-C1BD-F240-A8C4-91FD54160D52}
        E 0 90 3c 48
        E 0 90 40 48
        E 0 90 43 48
        E 1920 80 3c 00
        E 0 80 40 00
        E 0 80 43 00
        E 0 90 3c 48
        E 0 90 40 48
        E 0 90 43 48
        E 260 80 3c 00
        E 0 80 40 00
        E 0 80 43 00
        E 440 90 3c 48
        E 0 90 40 48
        E 0 90 43 48
        E 260 80 3c 00
        E 0 80 40 00
        E 0 80 43 00
        e 514 90 3c 48
        e 0 90 40 48
        e 0 90 43 48
        e 260 80 3c 00
        e 0 80 40 00
        e 0 80 43 00
        E 186 90 43 48
        E 0 90 47 48
        E 20 90 40 48
        E 1900 80 43 00
        E 0 80 47 00
        E 0 80 40 00
        E 0 90 43 48
        E 0 90 47 48
        E 20 90 40 48
        E 240 80 43 00
        E 0 80 47 00
        E 0 80 40 00
        E 440 90 43 48
        E 0 90 47 48
        E 20 90 40 48
        E 240 80 43 00
        E 0 80 47 00
        E 0 80 40 00
        e 514 90 43 48
        e 0 90 47 48
        e 20 90 40 48
        e 240 80 43 00
        e 0 80 47 00
        e 0 80 40 00
        E 186 90 41 48
        E 0 90 45 48
        E 0 90 48 48
        E 1920 80 41 00
        E 0 80 45 00
        E 0 80 48 00
        E 0 90 41 48
        E 0 90 45 48
        E 0 90 48 48
        E 260 80 41 00
        E 0 80 45 00
        E 0 80 48 00
        E 440 90 41 48
        E 0 90 45 48
        E 0 90 48 48
        E 260 80 41 00
        E 0 80 45 00
        E 0 80 48 00
        e 514 90 41 48
        e 0 90 45 48
        e 0 90 48 48
        e 260 80 41 00
        e 0 80 45 00
        e 0 80 48 00
        E 162 90 3e 48
        E 24 90 41 48
        E 0 90 45 48
        E 1896 90 3e 48
        E 24 80 3e 00
        E 0 80 41 00
        E 0 80 45 00
        E 0 90 41 48
        E 0 90 45 48
        E 260 80 3e 00
        E 0 80 41 00
        E 0 80 45 00
        E 416 90 3e 48
        E 24 90 41 48
        E 0 90 45 48
        E 260 80 3e 00
        E 0 80 41 00
        E 0 80 45 00
        e 490 90 3e 48
        e 24 90 41 48
        e 0 90 45 48
        e 260 80 3e 00
        e 0 80 41 00
        e 0 80 45 00
        E 186 b0 7b 00
        CHASE_CC_TAKEOFFS 1
        GUID {3131B4E2-B370-E352-A9C5-C8CA31551A86}
        IGNTEMPO 0 120 4 4
        SRCCOLOR 18
        VELLANE -1 100 0
        CFGEDITVIEW 0 0.045808 45 12 0 -1 0 0 0 0.5
        KEYSNAP 0
        TRACKSEL 0
        EVTFILTER 0 -1 -1 -1 -1 0 0 0 0 -1 -1 -1 -1 0 -1 0 -1 -1
        CFGEDIT 1 1 0 1 0 0 1 1 1 1 1 1 58 171 1253 866 0 0 0 0 0.25 0 0 0 0 0.5 0 0 1 64
      >
    >
    <ITEM
      POSITION 16
      SNAPOFFS 0
      LENGTH 8
      LOOP 1
      ALLTAKES 0
      FADEIN 1 0 0 1 0 0
      FADEOUT 1 0 0 1 0 0
      MUTE 0
      SEL 1
      IGUID {68B4996A-34C1-FF9D-6F3C-40E2B6FCFB25}
      IID 12
      NAME "01-Recorded MIDI"
      VOLPAN 1 0 1 -1
      SOFFS 0 0
      PLAYRATE 1 1 0 -1 0 0.0021
      CHANMODE 0
      GUID {899732D9-D36E-7039-FDF2-02594808E707}
      RECPASS 1
      <SOURCE MIDI
        HASDATA 1 960 QN
        CCINTERP 32
        POOLEDEVTS {C2279713-72CD-5DCB-A9AE-86953835C5E0}
        E 0 90 3c 48
        E 0 90 40 48
        E 0 90 43 48
        E 1920 80 3c 00
        E 0 80 40 00
        E 0 80 43 00
        E 0 90 3c 48
        E 0 90 40 48
        E 0 90 43 48
        E 260 80 3c 00
        E 0 80 40 00
        E 0 80 43 00
        E 440 90 3c 48
        E 0 90 40 48
        E 0 90 43 48
        E 260 80 3c 00
        E 0 80 40 00
        E 0 80 43 00
        e 514 90 3c 48
        e 0 90 40 48
        e 0 90 43 48
        e 260 80 3c 00
        e 0 80 40 00
        e 0 80 43 00
        E 186 90 43 48
        E 0 90 47 48
        E 20 90 40 48
        E 1900 80 43 00
        E 0 80 47 00
        E 0 80 40 00
        E 0 90 43 48
        E 0 90 47 48
        E 20 90 40 48
        E 240 80 43 00
        E 0 80 47 00
        E 0 80 40 00
        E 440 90 43 48
        E 0 90 47 48
        E 20 90 40 48
        E 240 80 43 00
        E 0 80 47 00
        E 0 80 40 00
        e 514 90 43 48
        e 0 90 47 48
        e 20 90 40 48
        e 240 80 43 00
        e 0 80 47 00
        e 0 80 40 00
        E 186 90 41 48
        E 0 90 45 48
        E 0 90 48 48
        E 1920 80 41 00
        E 0 80 45 00
        E 0 80 48 00
        E 0 90 41 48
        E 0 90 45 48
        E 0 90 48 48
        E 260 80 41 00
        E 0 80 45 00
        E 0 80 48 00
        E 440 90 41 48
        E 0 90 45 48
        E 0 90 48 48
        E 260 80 41 00
        E 0 80 45 00
        E 0 80 48 00
        e 514 90 41 48
        e 0 90 45 48
        e 0 90 48 48
        e 260 80 41 00
        e 0 80 45 00
        e 0 80 48 00
        E 162 90 3e 48
        E 24 90 41 48
        E 0 90 45 48
        E 1896 90 3e 48
        E 24 80 3e 00
        E 0 80 41 00
        E 0 80 45 00
        E 0 90 41 48
        E 0 90 45 48
        E 260 80 3e 00
        E 0 80 41 00
        E 0 80 45 00
        E 416 90 3e 48
        E 24 90 41 48
        E 0 90 45 48
        E 260 80 3e 00
        E 0 80 41 00
        E 0 80 45 00
        e 490 90 3e 48
        e 24 90 41 48
        e 0 90 45 48
        e 260 80 3e 00
        e 0 80 41 00
        e 0 80 45 00
        E 186 b0 7b 00
        CHASE_CC_TAKEOFFS 1
        GUID {48C567A2-895C-FB9B-FDBA-0ADB7004ABF3}
        IGNTEMPO 0 120 4 4
        SRCCOLOR 19
        VELLANE -1 100 0
        CFGEDITVIEW 0 0.045808 45 12 0 -1 0 0 0 0.5
        KEYSNAP 0
        TRACKSEL 0
        EVTFILTER 0 -1 -1 -1 -1 0 0 0 0 -1 -1 -1 -1 0 -1 0 -1 -1
        CFGEDIT 1 1 0 1 0 0 1 1 1 1 1 1 58 171 1253 866 0 0 0 0 0.25 0 0 0 0 0.5 0 0 1 64
      >
    >
    <ITEM
      POSITION 24
      SNAPOFFS 0
      LENGTH 8
      LOOP 1
      ALLTAKES 0
      FADEIN 1 0 0 1 0 0
      FADEOUT 1 0 0 1 0 0
      MUTE 0
      SEL 1
      IGUID {FCAF5E72-6745-645E-05DE-28A400B31E01}
      IID 13
      NAME "01-Recorded MIDI"
      VOLPAN 1 0 1 -1
      SOFFS 0 0
      PLAYRATE 1 1 0 -1 0 0.0021
      CHANMODE 0
      GUID {338F2F76-9EB2-972F-58D0-4244BDC849CD}
      RECPASS 1
      <SOURCE MIDI
        HASDATA 1 960 QN
        CCINTERP 32
        POOLEDEVTS {801D4218-6C0D-B713-1CE5-762411BB953A}
        E 0 90 3c 48
        E 0 90 40 48
        E 0 90 43 48
        E 1920 80 3c 00
        E 0 80 40 00
        E 0 80 43 00
        E 0 90 3c 48
        E 0 90 40 48
        E 0 90 43 48
        E 260 80 3c 00
        E 0 80 40 00
        E 0 80 43 00
        E 440 90 3c 48
        E 0 90 40 48
        E 0 90 43 48
        E 260 80 3c 00
        E 0 80 40 00
        E 0 80 43 00
        e 514 90 3c 48
        e 0 90 40 48
        e 0 90 43 48
        e 260 80 3c 00
        e 0 80 40 00
        e 0 80 43 00
        E 186 90 43 48
        E 0 90 47 48
        E 20 90 40 48
        E 1900 80 43 00
        E 0 80 47 00
        E 0 80 40 00
        E 0 90 43 48
        E 0 90 47 48
        E 20 90 40 48
        E 240 80 43 00
        E 0 80 47 00
        E 0 80 40 00
        E 440 90 43 48
        E 0 90 47 48
        E 20 90 40 48
        E 240 80 43 00
        E 0 80 47 00
        E 0 80 40 00
        e 514 90 43 48
        e 0 90 47 48
        e 20 90 40 48
        e 240 80 43 00
        e 0 80 47 00
        e 0 80 40 00
        E 186 90 41 48
        E 0 90 45 48
        E 0 90 48 48
        E 1920 80 41 00
        E 0 80 45 00
        E 0 80 48 00
        E 0 90 41 48
        E 0 90 45 48
        E 0 90 48 48
        E 260 80 41 00
        E 0 80 45 00
        E 0 80 48 00
        E 440 90 41 48
        E 0 90 45 48
        E 0 90 48 48
        E 260 80 41 00
        E 0 80 45 00
        E 0 80 48 00
        e 514 90 41 48
        e 0 90 45 48
        e 0 90 48 48
        e 260 80 41 00
        e 0 80 45 00
        e 0 80 48 00
        E 162 90 3e 48
        E 24 90 41 48
        E 0 90 45 48
        E 1896 90 3e 48
        E 24 80 3e 00
        E 0 80 41 00
        E 0 80 45 00
        E 0 90 41 48
        E 0 90 45 48
        E 260 80 3e 00
        E 0 80 41 00
        E 0 80 45 00
        E 416 90 3e 48
        E 24 90 41 48
        E 0 90 45 48
        E 260 80 3e 00
        E 0 80 41 00
        E 0 80 45 00
        e 490 90 3e 48
        e 24 90 41 48
        e 0 90 45 48
        e 260 80 3e 00
        e 0 80 41 00
        e 0 80 45 00
        E 186 b0 7b 00
        CHASE_CC_TAKEOFFS 1
        GUID {1DE38800-E2A1-41B5-9C8C-3291891093B1}
        IGNTEMPO 0 120 4 4
        SRCCOLOR 20
        VELLANE -1 100 0
        CFGEDITVIEW 0 0.045808 45 12 0 -1 0 0 0 0.5
        KEYSNAP 0
        TRACKSEL 0
        EVTFILTER 0 -1 -1 -1 -1 0 0 0 0 -1 -1 -1 -1 0 -1 0 -1 -1
        CFGEDIT 1 1 0 1 0 0 1 1 1 1 1 1 58 171 1253 866 0 0 0 0 0.25 0 0 0 0 0.5 0 0 1 64
      >
    >
    <ITEM
      POSITION 32
      SNAPOFFS 0
      LENGTH 8
      LOOP 1
      ALLTAKES 0
      FADEIN 1 0 0 1 0 0
      FADEOUT 1 0 0 1 0 0
      MUTE 0
      SEL 1
      IGUID {EBAB0996-0B07-7355-05EE-4795B05B12B9}
      IID 14
      NAME "01-Recorded MIDI"
      VOLPAN 1 0 1 -1
      SOFFS 0 0
      PLAYRATE 1 1 0 -1 0 0.0021
      CHANMODE 0
      GUID {D9579EC6-94FE-CC1A-E565-5C297AA69178}
      RECPASS 1
      <SOURCE MIDI
        HASDATA 1 960 QN
        CCINTERP 32
        POOLEDEVTS {C4E79D74-322D-3449-13B3-511E79F85871}
        E 0 90 3c 48
        E 0 90 40 48
        E 0 90 43 48
        E 1920 80 3c 00
        E 0 80 40 00
        E 0 80 43 00
        E 0 90 3c 48
        E 0 90 40 48
        E 0 90 43 48
        E 260 80 3c 00
        E 0 80 40 00
        E 0 80 43 00
        E 440 90 3c 48
        E 0 90 40 48
        E 0 90 43 48
        E 260 80 3c 00
        E 0 80 40 00
        E 0 80 43 00
        e 514 90 3c 48
        e 0 90 40 48
        e 0 90 43 48
        e 260 80 3c 00
        e 0 80 40 00
        e 0 80 43 00
        E 186 90 43 48
        E 0 90 47 48
        E 20 90 40 48
        E 1900 80 43 00
        E 0 80 47 00
        E 0 80 40 00
        E 0 90 43 48
        E 0 90 47 48
        E 20 90 40 48
        E 240 80 43 00
        E 0 80 47 00
        E 0 80 40 00
        E 440 90 43 48
        E 0 90 47 48
        E 20 90 40 48
        E 240 80 43 00
        E 0 80 47 00
        E 0 80 40 00
        e 514 90 43 48
        e 0 90 47 48
        e 20 90 40 48
        e 240 80 43 00
        e 0 80 47 00
        e 0 80 40 00
        E 186 90 41 48
        E 0 90 45 48
        E 0 90 48 48
        E 1920 80 41 00
        E 0 80 45 00
        E 0 80 48 00
        E 0 90 41 48
        E 0 90 45 48
        E 0 90 48 48
        E 260 80 41 00
        E 0 80 45 00
        E 0 80 48 00
        E 440 90 41 48
        E 0 90 45 48
        E 0 90 48 48
        E 260 80 41 00
        E 0 80 45 00
        E 0 80 48 00
        e 514 90 41 48
        e 0 90 45 48
        e 0 90 48 48
        e 260 80 41 00
        e 0 80 45 00
        e 0 80 48 00
        E 162 90 3e 48
        E 24 90 41 48
        E 0 90 45 48
        E 1896 90 3e 48
        E 24 80 3e 00
        E 0 80 41 00
        E 0 80 45 00
        E 0 90 41 48
        E 0 90 45 48
        E 260 80 3e 00
        E 0 80 41 00
        E 0 80 45 00
        E 416 90 3e 48
        E 24 90 41 48
        E 0 90 45 48
        E 260 80 3e 00
        E 0 80 41 00
        E 0 80 45 00
        e 490 90 3e 48
        e 24 90 41 48
        e 0 90 45 48
        e 260 80 3e 00
        e 0 80 41 00
        e 0 80 45 00
        E 186 b0 7b 00
        CHASE_CC_TAKEOFFS 1
        GUID {0C3271F4-E233-9088-9B25-A722FAE7C579}
        IGNTEMPO 0 120 4 4
        SRCCOLOR 21
        VELLANE -1 100 0
        CFGEDITVIEW 0 0.045808 45 12 0 -1 0 0 0 0.5
        KEYSNAP 0
        TRACKSEL 0
        EVTFILTER 0 -1 -1 -1 -1 0 0 0 0 -1 -1 -1 -1 0 -1 0 -1 -1
        CFGEDIT 1 1 0 1 0 0 1 1 1 1 1 1 58 171 1253 866 0 0 0 0 0.25 0 0 0 0 0.5 0 0 1 64
      >
    >
    <ITEM
      POSITION 40
      SNAPOFFS 0
      LENGTH 8
      LOOP 1
      ALLTAKES 0
      FADEIN 1 0 0 1 0 0
      FADEOUT 1 0 0 1 0 0
      MUTE 0
      SEL 1
      IGUID {F47B6739-58E3-F8E2-CAED-CB8104F27258}
      IID 15
      NAME "01-Recorded MIDI"
      VOLPAN 1 0 1 -1
      SOFFS 0 0
      PLAYRATE 1 1 0 -1 0 0.0021
      CHANMODE 0
      GUID {CCAAF4D1-42BD-EC1B-6F5C-EFB864732BB9}
      RECPASS 1
      <SOURCE MIDI
        HASDATA 1 960 QN
        CCINTERP 32
        POOLEDEVTS {E0FE7672-22A7-FB62-2FA2-C9C9CBE55D5B}
        E 0 90 3c 48
        E 0 90 40 48
        E 0 90 43 48
        E 1920 80 3c 00
        E 0 80 40 00
        E 0 80 43 00
        E 0 90 3c 48
        E 0 90 40 48
        E 0 90 43 48
        E 260 80 3c 00
        E 0 80 40 00
        E 0 80 43 00
        E 440 90 3c 48
        E 0 90 40 48
        E 0 90 43 48
        E 260 80 3c 00
        E 0 80 40 00
        E 0 80 43 00
        e 514 90 3c 48
        e 0 90 40 48
        e 0 90 43 48
        e 260 80 3c 00
        e 0 80 40 00
        e 0 80 43 00
        E 186 90 43 48
        E 0 90 47 48
        E 20 90 40 48
        E 1900 80 43 00
        E 0 80 47 00
        E 0 80 40 00
        E 0 90 43 48
        E 0 90 47 48
        E 20 90 40 48
        E 240 80 43 00
        E 0 80 47 00
        E 0 80 40 00
        E 440 90 43 48
        E 0 90 47 48
        E 20 90 40 48
        E 240 80 43 00
        E 0 80 47 00
        E 0 80 40 00
        e 514 90 43 48
        e 0 90 47 48
        e 20 90 40 48
        e 240 80 43 00
        e 0 80 47 00
        e 0 80 40 00
        E 186 90 41 48
        E 0 90 45 48
        E 0 90 48 48
        E 1920 80 41 00
        E 0 80 45 00
        E 0 80 48 00
        E 0 90 41 48
        E 0 90 45 48
        E 0 90 48 48
        E 260 80 41 00
        E 0 80 45 00
        E 0 80 48 00
        E 440 90 41 48
        E 0 90 45 48
        E 0 90 48 48
        E 260 80 41 00
        E 0 80 45 00
        E 0 80 48 00
        e 514 90 41 48
        e 0 90 45 48
        e 0 90 48 48
        e 260 80 41 00
        e 0 80 45 00
        e 0 80 48 00
        E 162 90 3e 48
        E 24 90 41 48
        E 0 90 45 48
        E 1896 90 3e 48
        E 24 80 3e 00
        E 0 80 41 00
        E 0 80 45 00
        E 0 90 41 48
        E 0 90 45 48
        E 260 80 3e 00
        E 0 80 41 00
        E 0 80 45 00
        E 416 90 3e 48
        E 24 90 41 48
        E 0 90 45 48
        E 260 80 3e 00
        E 0 80 41 00
        E 0 80 45 00
        e 490 90 3e 48
        e 24 90 41 48
        e 0 90 45 48
        e 260 80 3e 00
        e 0 80 41 00
        e 0 80 45 00
        E 186 b0 7b 00
        CHASE_CC_TAKEOFFS 1
        GUID {040E7AF8-3572-5D91-3C86-797AEE7444D4}
        IGNTEMPO 0 120 4 4
        SRCCOLOR 22
        VELLANE -1 100 0
        CFGEDITVIEW 0 0.045808 45 12 0 -1 0 0 0 0.5
        KEYSNAP 0
        TRACKSEL 0
        EVTFILTER 0 -1 -1 -1 -1 0 0 0 0 -1 -1 -1 -1 0 -1 0 -1 -1
        CFGEDIT 1 1 0 1 0 0 1 1 1 1 1 1 58 171 1253 866 0 0 0 0 0.25 0 0 0 0 0.5 0 0 1 64
      >
    >
    <ITEM
      POSITION 48
      SNAPOFFS 0
      LENGTH 8
      LOOP 1
      ALLTAKES 0
      FADEIN 1 0 0 1 0 0
      FADEOUT 1 0 0 1 0 0
      MUTE 0
      SEL 1
      IGUID {59FFC571-622D-C67C-4F9D-92B6F95918E9}
      IID 16
      NAME "01-Recorded MIDI"
      VOLPAN 1 0 1 -1
      SOFFS 0 0
      PLAYRATE 1 1 0 -1 0 0.0021
      CHANMODE 0
      GUID {00E89AC3-41F9-CE77-9091-EE8D36023259}
      RECPASS 1
      <SOURCE MIDI
        HASDATA 1 960 QN
        CCINTERP 32
        POOLEDEVTS {E066097B-1419-2DEE-9A7D-777D819671ED}
        E 0 90 3c 48
        E 0 90 40 48
        E 0 90 43 48
        E 1920 80 3c 00
        E 0 80 40 00
        E 0 80 43 00
        E 0 90 3c 48
        E 0 90 40 48
        E 0 90 43 48
        E 260 80 3c 00
        E 0 80 40 00
        E 0 80 43 00
        E 440 90 3c 48
        E 0 90 40 48
        E 0 90 43 48
        E 260 80 3c 00
        E 0 80 40 00
        E 0 80 43 00
        e 514 90 3c 48
        e 0 90 40 48
        e 0 90 43 48
        e 260 80 3c 00
        e 0 80 40 00
        e 0 80 43 00
        E 186 90 43 48
        E 0 90 47 48
        E 20 90 40 48
        E 1900 80 43 00
        E 0 80 47 00
        E 0 80 40 00
        E 0 90 43 48
        E 0 90 47 48
        E 20 90 40 48
        E 240 80 43 00
        E 0 80 47 00
        E 0 80 40 00
        E 440 90 43 48
        E 0 90 47 48
        E 20 90 40 48
        E 240 80 43 00
        E 0 80 47 00
        E 0 80 40 00
        e 514 90 43 48
        e 0 90 47 48
        e 20 90 40 48
        e 240 80 43 00
        e 0 80 47 00
        e 0 80 40 00
        E 186 90 41 48
        E 0 90 45 48
        E 0 90 48 48
        E 1920 80 41 00
        E 0 80 45 00
        E 0 80 48 00
        E 0 90 41 48
        E 0 90 45 48
        E 0 90 48 48
        E 260 80 41 00
        E 0 80 45 00
        E 0 80 48 00
        E 440 90 41 48
        E 0 90 45 48
        E 0 90 48 48
        E 260 80 41 00
        E 0 80 45 00
        E 0 80 48 00
        e 514 90 41 48
        e 0 90 45 48
        e 0 90 48 48
        e 260 80 41 00
        e 0 80 45 00
        e 0 80 48 00
        E 162 90 3e 48
        E 24 90 41 48
        E 0 90 45 48
        E 1896 90 3e 48
        E 24 80 3e 00
        E 0 80 41 00
        E 0 80 45 00
        E 0 90 41 48
        E 0 90 45 48
        E 260 80 3e 00
        E 0 80 41 00
        E 0 80 45 00
        E 416 90 3e 48
        E 24 90 41 48
        E 0 90 45 48
        E 260 80 3e 00
        E 0 80 41 00
        E 0 80 45 00
        e 490 90 3e 48
        e 24 90 41 48
        e 0 90 45 48
        e 260 80 3e 00
        e 0 80 41 00
        e 0 80 45 00
        E 186 b0 7b 00
        CHASE_CC_TAKEOFFS 1
        GUID {2338968B-6CF9-9F40-300F-DEB89D3392EA}
        IGNTEMPO 0 120 4 4
        SRCCOLOR 23
        VELLANE -1 100 0
        CFGEDITVIEW 0 0.045808 45 12 0 -1 0 0 0 0.5
        KEYSNAP 0
        TRACKSEL 0
        EVTFILTER 0 -1 -1 -1 -1 0 0 0 0 -1 -1 -1 -1 0 -1 0 -1 -1
        CFGEDIT 1 1 0 1 0 0 1 1 1 1 1 1 58 171 1253 866 0 0 0 0 0.25 0 0 0 0 0.5 0 0 1 64
      >
    >
    <ITEM
      POSITION 56
      SNAPOFFS 0
      LENGTH 8
      LOOP 1
      ALLTAKES 0
      FADEIN 1 0 0 1 0 0
      FADEOUT 1 0 0 1 0 0
      MUTE 0
      SEL 1
      IGUID {286F9F1E-4375-9125-B7B0-4957E9FB2E8F}
      IID 17
      NAME "01-Recorded MIDI"
      VOLPAN 1 0 1 -1
      SOFFS 0 0
      PLAYRATE 1 1 0 -1 0 0.0021
      CHANMODE 0
      GUID {378C1610-965C-8314-17D7-ED8DAB0B78F2}
      RECPASS 1
      <SOURCE MIDI
        HASDATA 1 960 QN
        CCINTERP 32
        POOLEDEVTS {F61328D0-FCFF-A0ED-4929-A4FF59D23A9D}
        E 0 90 3c 48
        E 0 90 40 48
        E 0 90 43 48
        E 1920 80 3c 00
        E 0 80 40 00
        E 0 80 43 00
        E 0 90 3c 48
        E 0 90 40 48
        E 0 90 43 48
        E 260 80 3c 00
        E 0 80 40 00
        E 0 80 43 00
        E 440 90 3c 48
        E 0 90 40 48
        E 0 90 43 48
        E 260 80 3c 00
        E 0 80 40 00
        E 0 80 43 00
        e 514 90 3c 48
        e 0 90 40 48
        e 0 90 43 48
        e 260 80 3c 00
        e 0 80 40 00
        e 0 80 43 00
        E 186 90 43 48
        E 0 90 47 48
        E 20 90 40 48
        E 1900 80 43 00
        E 0 80 47 00
        E 0 80 40 00
        E 0 90 43 48
        E 0 90 47 48
        E 20 90 40 48
        E 240 80 43 00
        E 0 80 47 00
        E 0 80 40 00
        E 440 90 43 48
        E 0 90 47 48
        E 20 90 40 48
        E 240 80 43 00
        E 0 80 47 00
        E 0 80 40 00
        e 514 90 43 48
        e 0 90 47 48
        e 20 90 40 48
        e 240 80 43 00
        e 0 80 47 00
        e 0 80 40 00
        E 186 90 41 48
        E 0 90 45 48
        E 0 90 48 48
        E 1920 80 41 00
        E 0 80 45 00
        E 0 80 48 00
        E 0 90 41 48
        E 0 90 45 48
        E 0 90 48 48
        E 260 80 41 00
        E 0 80 45 00
        E 0 80 48 00
        E 440 90 41 48
        E 0 90 45 48
        E 0 90 48 48
        E 260 80 41 00
        E 0 80 45 00
        E 0 80 48 00
        e 514 90 41 48
        e 0 90 45 48
        e 0 90 48 48
        e 260 80 41 00
        e 0 80 45 00
        e 0 80 48 00
        E 162 90 3e 48
        E 24 90 41 48
        E 0 90 45 48
        E 1896 90 3e 48
        E 24 80 3e 00
        E 0 80 41 00
        E 0 80 45 00
        E 0 90 41 48
        E 0 90 45 48
        E 260 80 3e 00
        E 0 80 41 00
        E 0 80 45 00
        E 416 90 3e 48
        E 24 90 41 48
        E 0 90 45 48
        E 260 80 3e 00
        E 0 80 41 00
        E 0 80 45 00
        e 490 90 3e 48
        e 24 90 41 48
        e 0 90 45 48
        e 260 80 3e 00
        e 0 80 41 00
        e 0 80 45 00
        E 186 b0 7b 00
        CHASE_CC_TAKEOFFS 1
        GUID {A64857E2-94F8-0990-20DF-4C1E9B5E6251}
        IGNTEMPO 0 120 4 4
        SRCCOLOR 24
        VELLANE -1 100 0
        CFGEDITVIEW 0 0.045808 45 12 0 -1 0 0 0 0.5
        KEYSNAP 0
        TRACKSEL 0
        EVTFILTER 0 -1 -1 -1 -1 0 0 0 0 -1 -1 -1 -1 0 -1 0 -1 -1
        CFGEDIT 1 1 0 1 0 0 1 1 1 1 1 1 58 171 1253 866 0 0 0 0 0.25 0 0 0 0 0.5 0 0 1 64
      >
    >
    <ITEM
      POSITION 64
      SNAPOFFS 0
      LENGTH 8
      LOOP 1
      ALLTAKES 0
      FADEIN 1 0 0 1 0 0
      FADEOUT 1 0 0 1 0 0
      MUTE 0
      SEL 1
      IGUID {753B5380-D6D0-DB93-8F30-319AB6A7797D}
      IID 18
      NAME "01-Recorded MIDI"
      VOLPAN 1 0 1 -1
      SOFFS 0 0
      PLAYRATE 1 1 0 -1 0 0.0021
      CHANMODE 0
      GUID {B79D3235-2F26-0657-1402-39BA921E7EDA}
      RECPASS 1
      <SOURCE MIDI
        HASDATA 1 960 QN
        CCINTERP 32
        POOLEDEVTS {08A1831D-7484-CF7D-3FD1-1B0C45573FF8}
        E 0 90 3c 48
        E 0 90 40 48
        E 0 90 43 48
        E 1920 80 3c 00
        E 0 80 40 00
        E 0 80 43 00
        E 0 90 3c 48
        E 0 90 40 48
        E 0 90 43 48
        E 260 80 3c 00
        E 0 80 40 00
        E 0 80 43 00
        E 440 90 3c 48
        E 0 90 40 48
        E 0 90 43 48
        E 260 80 3c 00
        E 0 80 40 00
        E 0 80 43 00
        e 514 90 3c 48
        e 0 90 40 48
        e 0 90 43 48
        e 260 80 3c 00
        e 0 80 40 00
        e 0 80 43 00
        E 186 90 43 48
        E 0 90 47 48
        E 20 90 40 48
        E 1900 80 43 00
        E 0 80 47 00
        E 0 80 40 00
        E 0 90 43 48
        E 0 90 47 48
        E 20 90 40 48
        E 240 80 43 00
        E 0 80 47 00
        E 0 80 40 00
        E 440 90 43 48
        E 0 90 47 48
        E 20 90 40 48
        E 240 80 43 00
        E 0 80 47 00
        E 0 80 40 00
        e 514 90 43 48
        e 0 90 47 48
        e 20 90 40 48
        e 240 80 43 00
        e 0 80 47 00
        e 0 80 40 00
        E 186 90 41 48
        E 0 90 45 48
        E 0 90 48 48
        E 1920 80 41 00
        E 0 80 45 00
        E 0 80 48 00
        E 0 90 41 48
        E 0 90 45 48
        E 0 90 48 48
        E 260 80 41 00
        E 0 80 45 00
        E 0 80 48 00
        E 440 90 41 48
        E 0 90 45 48
        E 0 90 48 48
        E 260 80 41 00
        E 0 80 45 00
        E 0 80 48 00
        e 514 90 41 48
        e 0 90 45 48
        e 0 90 48 48
        e 260 80 41 00
        e 0 80 45 00
        e 0 80 48 00
        E 162 90 3e 48
        E 24 90 41 48
        E 0 90 45 48
        E 1896 90 3e 48
        E 24 80 3e 00
        E 0 80 41 00
        E 0 80 45 00
        E 0 90 41 48
        E 0 90 45 48
        E 260 80 3e 00
        E 0 80 41 00
        E 0 80 45 00
        E 416 90 3e 48
        E 24 90 41 48
        E 0 90 45 48
        E 260 80 3e 00
        E 0 80 41 00
        E 0 80 45 00
        e 490 90 3e 48
        e 24 90 41 48
        e 0 90 45 48
        e 260 80 3e 00
        e 0 80 41 00
        e 0 80 45 00
        E 186 b0 7b 00
        CHASE_CC_TAKEOFFS 1
        GUID {19362806-85F2-5D9E-E1F9-07BE0CF3D16E}
        IGNTEMPO 0 120 4 4
        SRCCOLOR 25
        VELLANE -1 100 0
        CFGEDITVIEW 0 0.045808 45 12 0 -1 0 0 0 0.5
        KEYSNAP 0
        TRACKSEL 0
        EVTFILTER 0 -1 -1 -1 -1 0 0 0 0 -1 -1 -1 -1 0 -1 0 -1 -1
        CFGEDIT 1 1 0 1 0 0 1 1 1 1 1 1 58 171 1253 866 0 0 0 0 0.25 0 0 0 0 0.5 0 0 1 64
      >
    >
    <ITEM
      POSITION 72
      SNAPOFFS 0
      LENGTH 8
      LOOP 1
      ALLTAKES 0
      FADEIN 1 0 0 1 0 0
      FADEOUT 1 0 0 1 0 0
      MUTE 0
      SEL 1
      IGUID {0C504511-ACEA-6375-B459-0403E73A8F81}
      IID 19
      NAME "01-Recorded MIDI"
      VOLPAN 1 0 1 -1
      SOFFS 0 0
      PLAYRATE 1 1 0 -1 0 0.0021
      CHANMODE 0
      GUID {55B069AE-22D6-8856-A1D6-795DD434AEF4}
      RECPASS 1
      <SOURCE MIDI
        HASDATA 1 960 QN
        CCINTERP 32
        POOLEDEVTS {38FF4A22-42E5-9C04-8714-D9090C0F2C14}
        E 0 90 3c 48
        E 0 90 40 48
        E 0 90 43 48
        E 1920 80 3c 00
        E 0 80 40 00
        E 0 80 43 00
        E 0 90 3c 48
        E 0 90 40 48
        E 0 90 43 48
        E 260 80 3c 00
        E 0 80 40 00
        E 0 80 43 00
        E 440 90 3c 48
        E 0 90 40 48
        E 0 90 43 48
        E 260 80 3c 00
        E 0 80 40 00
        E 0 80 43 00
        e 514 90 3c 48
        e 0 90 40 48
        e 0 90 43 48
        e 260 80 3c 00
        e 0 80 40 00
        e 0 80 43 00
        E 186 90 43 48
        E 0 90 47 48
        E 20 90 40 48
        E 1900 80 43 00
        E 0 80 47 00
        E 0 80 40 00
        E 0 90 43 48
        E 0 90 47 48
        E 20 90 40 48
        E 240 80 43 00
        E 0 80 47 00
        E 0 80 40 00
        E 440 90 43 48
        E 0 90 47 48
        E 20 90 40 48
        E 240 80 43 00
        E 0 80 47 00
        E 0 80 40 00
        e 514 90 43 48
        e 0 90 47 48
        e 20 90 40 48
        e 240 80 43 00
        e 0 80 47 00
        e 0 80 40 00
        E 186 90 41 48
        E 0 90 45 48
        E 0 90 48 48
        E 1920 80 41 00
        E 0 80 45 00
        E 0 80 48 00
        E 0 90 41 48
        E 0 90 45 48
        E 0 90 48 48
        E 260 80 41 00
        E 0 80 45 00
        E 0 80 48 00
        E 440 90 41 48
        E 0 90 45 48
        E 0 90 48 48
        E 260 80 41 00
        E 0 80 45 00
        E 0 80 48 00
        e 514 90 41 48
        e 0 90 45 48
        e 0 90 48 48
        e 260 80 41 00
        e 0 80 45 00
        e 0 80 48 00
        E 162 90 3e 48
        E 24 90 41 48
        E 0 90 45 48
        E 1896 90 3e 48
        E 24 80 3e 00
        E 0 80 41 00
        E 0 80 45 00
        E 0 90 41 48
        E 0 90 45 48
        E 260 80 3e 00
        E 0 80 41 00
        E 0 80 45 00
        E 416 90 3e 48
        E 24 90 41 48
        E 0 90 45 48
        E 260 80 3e 00
        E 0 80 41 00
        E 0 80 45 00
        e 490 90 3e 48
        e 24 90 41 48
        e 0 90 45 48
        e 260 80 3e 00
        e 0 80 41 00
        e 0 80 45 00
        E 186 b0 7b 00
        CHASE_CC_TAKEOFFS 1
        GUID {6844F8A9-6BE9-023C-4A46-0A676470C99B}
        IGNTEMPO 0 120 4 4
        SRCCOLOR 26
        VELLANE -1 100 0
        CFGEDITVIEW 0 0.045808 45 12 0 -1 0 0 0 0.5
        KEYSNAP 0
        TRACKSEL 0
        EVTFILTER 0 -1 -1 -1 -1 0 0 0 0 -1 -1 -1 -1 0 -1 0 -1 -1
        CFGEDIT 1 1 0 1 0 0 1 1 1 1 1 1 58 171 1253 866 0 0 0 0 0.25 0 0 0 0 0.5 0 0 1 64
      >
    >
    <ITEM
      POSITION 80
      SNAPOFFS 0
      LENGTH 8
      LOOP 1
      ALLTAKES 0
      FADEIN 1 0 0 1 0 0
      FADEOUT 1 0 0 1 0 0
      MUTE 0
      SEL 1
      IGUID {BF18406B-5EDB-1E04-85F7-550CA8F5AA6E}
      IID 20
      NAME "01-Recorded MIDI"
      VOLPAN 1 0 1 -1
      SOFFS 0 0
      PLAYRATE 1 1 0 -1 0 0.0021
      CHANMODE 0
      GUID {04E3B4B5-1AF5-D055-9125-43AB5CC29683}
      RECPASS 1
      <SOURCE MIDI
        HASDATA 1 960 QN
        CCINTERP 32
        POOLEDEVTS {09557A27-668F-9FCA-83D1-6D312290C416}
        E 0 90 3c 48
        E 0 90 40 48
        E 0 90 43 48
        E 1920 80 3c 00
        E 0 80 40 00
        E 0 80 43 00
        E 0 90 3c 48
        E 0 90 40 48
        E 0 90 43 48
        E 260 80 3c 00
        E 0 80 40 00
        E 0 80 43 00
        E 440 90 3c 48
        E 0 90 40 48
        E 0 90 43 48
        E 260 80 3c 00
        E 0 80 40 00
        E 0 80 43 00
        e 514 90 3c 48
        e 0 90 40 48
        e 0 90 43 48
        e 260 80 3c 00
        e 0 80 40 00
        e 0 80 43 00
        E 186 90 43 48
        E 0 90 47 48
        E 20 90 40 48
        E 1900 80 43 00
        E 0 80 47 00
        E 0 80 40 00
        E 0 90 43 48
        E 0 90 47 48
        E 20 90 40 48
        E 240 80 43 00
        E 0 80 47 00
        E 0 80 40 00
        E 440 90 43 48
        E 0 90 47 48
        E 20 90 40 48
        E 240 80 43 00
        E 0 80 47 00
        E 0 80 40 00
        e 514 90 43 48
        e 0 90 47 48
        e 20 90 40 48
        e 240 80 43 00
        e 0 80 47 00
        e 0 80 40 00
        E 186 90 41 48
        E 0 90 45 48
        E 0 90 48 48
        E 1920 80 41 00
        E 0 80 45 00
        E 0 80 48 00
        E 0 90 41 48
        E 0 90 45 48
        E 0 90 48 48
        E 260 80 41 00
        E 0 80 45 00
        E 0 80 48 00
        E 440 90 41 48
        E 0 90 45 48
        E 0 90 48 48
        E 260 80 41 00
        E 0 80 45 00
        E 0 80 48 00
        e 514 90 41 48
        e 0 90 45 48
        e 0 90 48 48
        e 260 80 41 00
        e 0 80 45 00
        e 0 80 48 00
        E 162 90 3e 48
        E 24 90 41 48
        E 0 90 45 48
        E 1896 90 3e 48
        E 24 80 3e 00
        E 0 80 41 00
        E 0 80 45 00
        E 0 90 41 48
        E 0 90 45 48
        E 260 80 3e 00
        E 0 80 41 00
        E 0 80 45 00
        E 416 90 3e 48
        E 24 90 41 48
        E 0 90 45 48
        E 260 80 3e 00
        E 0 80 41 00
        E 0 80 45 00
        e 490 90 3e 48
        e 24 90 41 48
        e 0 90 45 48
        e 260 80 3e 00
        e 0 80 41 00
        e 0 80 45 00
        E 186 b0 7b 00
        CHASE_CC_TAKEOFFS 1
        GUID {E611ADB6-4869-6CCA-8E83-3954D5E743B1}
        IGNTEMPO 0 120 4 4
        SRCCOLOR 27
        VELLANE -1 100 0
        CFGEDITVIEW 0 0.045808 45 12 0 -1 0 0 0 0.5
        KEYSNAP 0
        TRACKSEL 0
        EVTFILTER 0 -1 -1 -1 -1 0 0 0 0 -1 -1 -1 -1 0 -1 0 -1 -1
        CFGEDIT 1 1 0 1 0 0 1 1 1 1 1 1 58 171 1253 866 0 0 0 0 0.25 0 0 0 0 0.5 0 0 1 64
      >
    >
    <ITEM
      POSITION 88
      SNAPOFFS 0
      LENGTH 8
      LOOP 1
      ALLTAKES 0
      FADEIN 1 0 0 1 0 0
      FADEOUT 1 0 0 1 0 0
      MUTE 0
      SEL 1
      IGUID {57020AD3-A32C-2789-6A4C-B6F450F3C823}
      IID 21
      NAME "01-Recorded MIDI"
      VOLPAN 1 0 1 -1
      SOFFS 0 0
      PLAYRATE 1 1 0 -1 0 0.0021
      CHANMODE 0
      GUID {48AC9D0F-B1EA-33BA-1C45-E0B0B82AA2DC}
      RECPASS 1
      <SOURCE MIDI
        HASDATA 1 960 QN
        CCINTERP 32
        POOLEDEVTS {2EB210EA-C0A6-DA4D-D76A-E6F24C76292C}
        E 0 90 3c 48
        E 0 90 40 48
        E 0 90 43 48
        E 1920 80 3c 00
        E 0 80 40 00
        E 0 80 43 00
        E 0 90 3c 48
        E 0 90 40 48
        E 0 90 43 48
        E 260 80 3c 00
        E 0 80 40 00
        E 0 80 43 00
        E 440 90 3c 48
        E 0 90 40 48
        E 0 90 43 48
        E 260 80 3c 00
        E 0 80 40 00
        E 0 80 43 00
        e 514 90 3c 48
        e 0 90 40 48
        e 0 90 43 48
        e 260 80 3c 00
        e 0 80 40 00
        e 0 80 43 00
        E 186 90 43 48
        E 0 90 47 48
        E 20 90 40 48
        E 1900 80 43 00
        E 0 80 47 00
        E 0 80 40 00
        E 0 90 43 48
        E 0 90 47 48
        E 20 90 40 48
        E 240 80 43 00
        E 0 80 47 00
        E 0 80 40 00
        E 440 90 43 48
        E 0 90 47 48
        E 20 90 40 48
        E 240 80 43 00
        E 0 80 47 00
        E 0 80 40 00
        e 514 90 43 48
        e 0 90 47 48
        e 20 90 40 48
        e 240 80 43 00
        e 0 80 47 00
        e 0 80 40 00
        E 186 90 41 48
        E 0 90 45 48
        E 0 90 48 48
        E 1920 80 41 00
        E 0 80 45 00
        E 0 80 48 00
        E 0 90 41 48
        E 0 90 45 48
        E 0 90 48 48
        E 260 80 41 00
        E 0 80 45 00
        E 0 80 48 00
        E 440 90 41 48
        E 0 90 45 48
        E 0 90 48 48
        E 260 80 41 00
        E 0 80 45 00
        E 0 80 48 00
        e 514 90 41 48
        e 0 90 45 48
        e 0 90 48 48
        e 260 80 41 00
        e 0 80 45 00
        e 0 80 48 00
        E 162 90 3e 48
        E 24 90 41 48
        E 0 90 45 48
        E 1896 90 3e 48
        E 24 80 3e 00
        E 0 80 41 00
        E 0 80 45 00
        E 0 90 41 48
        E 0 90 45 48
        E 260 80 3e 00
        E 0 80 41 00
        E 0 80 45 00
        E 416 90 3e 48
        E 24 90 41 48
        E 0 90 45 48
        E 260 80 3e 00
        E 0 80 41 00
        E 0 80 45 00
        e 490 90 3e 48
        e 24 90 41 48
        e 0 90 45 48
        e 260 80 3e 00
        e 0 80 41 00
        e 0 80 45 00
        E 186 b0 7b 00
        CHASE_CC_TAKEOFFS 1
        GUID {C762B555-17FC-D765-5340-11D3487D2955}
        IGNTEMPO 0 120 4 4
        SRCCOLOR 28
        VELLANE -1 100 0
        CFGEDITVIEW 0 0.045808 45 12 0 -1 0 0 0 0.5
        KEYSNAP 0
        TRACKSEL 0
        EVTFILTER 0 -1 -1 -1 -1 0 0 0 0 -1 -1 -1 -1 0 -1 0 -1 -1
        CFGEDIT 1 1 0 1 0 0 1 1 1 1 1 1 58 171 1253 866 0 0 0 0 0.25 0 0 0 0 0.5 0 0 1 64
      >
    >
  >
  <TRACK {4F4AAEC0-1387-2561-6DF1-5D2FBDBAEC7F}
    NAME ""
    PEAKCOL 16576
    BEAT -1
    AUTOMODE 0
    VOLPAN 0.00052194381917 0 -1 -1 1
    MUTESOLO 0 0 0
    IPHASE 0
    PLAYOFFS 0 1
    ISBUS 0 0
    BUSCOMP 0 0 0 0 0
    SHOWINMIX 1 0.6667 0.5 1 0.5 0 0 0
    FREEMODE 0
    SEL 0
    REC 0 5056 1 0 0 0 0
    VU 2
    TRACKHEIGHT 21 0 0
    INQ 0 0 0 0.5 100 0 0 100
    NCHAN 2
    FX 0
    TRACKID {4F4AAEC0-1387-2561-6DF1-5D2FBDBAEC7F}
    PERF 0
    MIDIOUT -1
    MAINSEND 1 0
    <FXCHAIN
      WNDRECT 346 266 902 608
      SHOW 0
      LASTSEL 5
      DOCKED 0
      BYPASS 0 0 0
      <VST "VST: ReaEQ (Cockos)" reaeq.vst.so 0 "" 1919247729<56535472656571726561657100000000> ""
        cWVlcu5e7f4CAAAAAQAAAAAAAAACAAAAAAAAAAIAAAABAAAAAAAAAAIAAAAAAAAAqAAAAAEAAAAAABAA
        IQAAAAQAAAAEAAAAAQAAAH+4Xhmm+DRAAAAAAAAA8D8AAAAAAAAAQAEIAAAAAQAAAAAAAAAAwHJAAAAAAAAA8D8AAAAAAAAAQAEIAAAAAQAAAAAAAAAAQI9AAAAAAAAA
        8D8AAAAAAAAAQAEDAAAAAQAAABMBaCorbdRAAAAAAAAA8D8AAAAAAAAAQAEBAAAAAQAAAAAAAAAAAPA/AAAAAJoCAACcAQAA
        AEhpZ2ggbG93IHBhc3MAEAAAAA==
      >
      PRESETNAME "High low pass"
      FLOATPOS 0 0 0 0
      FXID {56268078-6AA0-6DC3-184E-9A567141C1CC}
      WAK 0 0
      BYPASS 0 0 0
      <VST "VSTi: ReaSynth (Cockos)" reasynth.vst.so 0 "" 1919251321<5653547265737972656173796E746800> ""
        eXNlcu9e7f4AAAAAAgAAAAEAAAAAAAAAAgAAAAAAAAA8AAAAAAAAAAAAEAA=
        776t3g3wrd6lm8Q7F7fROgAAAAAAAAAAAAAAAJCNuT3oZ4g9AACAPwAAAD8AAIA/AAAAAAAAAD8AAAAA
        AAAQAAAA
      >
      FLOATPOS 0 0 0 0
      FXID {0EF5CF83-4EE0-FF53-A30C-DC92A58EE6C3}
      WAK 0 0
      BYPASS 0 0 0
      <JS guitar/amp-model ""
        "Dumble Overdrive Special - Tweed Deluxe.wav" -21.000000 1.000000 0.000000 73.000000 256.000000 - - - - - - - - - - - - - - - - - - - - - - - - - - - - - - - - - - - - - - - - - - - - - - - - - - - - - - - - - - 
      >
      FLOATPOS 0 0 0 0
      FXID {D7B1D3C3-5E9C-294E-5C90-1EEC089BDC89}
      WAK 0 0
      BYPASS 0 0 0
      <VST "VST: ReaComp (Cockos)" reacomp.vst.so 0 "" 1919247213<5653547265636D726561636F6D700000> ""
        bWNlcu9e7f4EAAAAAQAAAAAAAAACAAAAAAAAAAQAAAAAAAAACAAAAAAAAAACAAAAAQAAAAAAAAACAAAAAAAAAFQAAAAAAAAAAAAQAA==
        776t3g3wrd5FoYg9/AWpPKWbxDsK16M8AAAAAAAAAAAAAIA/AAAAAAAAAAAAAAAAnNEHMwAAgD8AAAAAzMxMPQAAAAAAAAAAAAAAAAAAgD7YiZ09
        AAAQAAAA
      >
      FLOATPOS 0 0 0 0
      FXID {69204668-82FD-AC93-693F-7200BCF016FA}
      WAK 0 0
      BYPASS 0 0 0
      <VST "VST: ReaDelay (Cockos)" readelay.vst.so 0 "" 1919247468<5653547265646C72656164656C617900> ""
        bGRlcu5e7f4CAAAAAQAAAAAAAAACAAAAAAAAAAIAAAABAAAAAAAAAAIAAAAAAAAA/AAAAAEAAAAAAAAA
        AAAAAAAAAAAFAAAALAAAAAIAAAAEAAAAAACAPwAAgD8AAAAAAACAPwAAAAAAAIA7vTeGNQAAgD8AAAAAAACAPwAAgD8AAIA/AAAAAAAAAAAAAIA/AAAAAAAAADwAAAAA
        AACAPwAAAAAAAIA/AACAP+87NT8AAIA/AAAAAAAAgD8AAAAAAABAPL03hjUAAIA/AAAAAAAAgD8AAIA/zk0AP6abhD4AAAAAAACAPwAAAAAAAIA8vTeGNQAAgD8AAAAA
        AACAPwAAgD8aqrU+pHA9PwAAAAAAAIA/AAAAAAAAoDy9N4Y1AACAPwAAAAAAAIA/AACAP/npAD4AAAA/
        AHN0b2NrIC0gYmFzaWMgNSB0YXAgcGluZyBwb25nAAAAAAA=
      >
      PRESETNAME "stock - basic 5 tap ping pong"
      FLOATPOS 0 0 0 0
      FXID {2DEA9B72-6F29-E7DE-175F-BDB6D8A8D38D}
      WAK 0 0
      BYPASS 0 0 0
      <VST "VST: ReaVerb (Cockos)" reaverb.vst.so 0 "" 1919252066<56535472657662726561766572620000> ""
        YnZlcu5e7f4CAAAAAQAAAAAAAAACAAAAAAAAAAIAAAABAAAAAAAAAAIAAAAAAAAAcAAAAAEAAAAAAAAA
        AAAAwcybgD4AAIA/AAAAAAAAgD8AAIA/AAAAPwAAgD8AAAAAVkVSQkdFTgAYAAAAAAAAAJHgV0QdrLRA3rK7QsHIjEIAAIC/RUNIT0dFTgAcAAAAy/i2QLUjdUJdzdM/
        osdfP5lRrzyRzYxAnMQAPw==
        AHN3ZWV0dmVyYm8AAAAAAA==
      >
      PRESETNAME sweetverbo
      FLOATPOS 0 0 0 0
      FXID {A826A8FE-9EB5-6E6F-DBBF-4471CE946D5C}
      WAK 0 0
    >
    <ITEM
      POSITION 0
      SNAPOFFS 0
      LENGTH 8
      LOOP 1
      ALLTAKES 0
      FADEIN 1 0 0 1 0 0
      FADEOUT 1 0 0 1 0 0
      MUTE 0
      SEL 1
      IGUID {63434919-82A6-380E-C169-7B8EFB4DCCE8}
      IID 10
      NAME "01-Recorded MIDI"
      VOLPAN 1 0 1 -1
      SOFFS 0 0
      PLAYRATE 1 1 0 -1 0 0.0021
      CHANMODE 0
      GUID {597005A6-0E9F-C73A-C8C3-22687BB1D30A}
      RECPASS 1
      <SOURCE MIDI
        HASDATA 1 960 QN
        CCINTERP 32
        POOLEDEVTS {E23F9081-57BF-33D8-E6A3-2EABF44C7C26}
        E 0 90 3c 48
        E 0 90 40 48
        E 0 90 43 48
        E 1920 80 3c 00
        E 0 80 40 00
        E 0 80 43 00
        E 0 90 3c 48
        E 0 90 40 48
        E 0 90 43 48
        E 260 80 3c 00
        E 0 80 40 00
        E 0 80 43 00
        E 440 90 3c 48
        E 0 90 40 48
        E 0 90 43 48
        E 260 80 3c 00
        E 0 80 40 00
        E 0 80 43 00
        e 514 90 3c 48
        e 0 90 40 48
        e 0 90 43 48
        e 260 80 3c 00
        e 0 80 40 00
        e 0 80 43 00
        E 186 90 43 48
        E 0 90 47 48
        E 20 90 40 48
        E 1900 80 43 00
        E 0 80 47 00
        E 0 80 40 00
        E 0 90 43 48
        E 0 90 47 48
        E 20 90 40 48
        E 240 80 43 00
        E 0 80 47 00
        E 0 80 40 00
        E 440 90 43 48
        E 0 90 47 48
        E 20 90 40 48
        E 240 80 43 00
        E 0 80 47 00
        E 0 80 40 00
        e 514 90 43 48
        e 0 90 47 48
        e 20 90 40 48
        e 240 80 43 00
        e 0 80 47 00
        e 0 80 40 00
        E 186 90 41 48
        E 0 90 45 48
        E 0 90 48 48
        E 1920 80 41 00
        E 0 80 45 00
        E 0 80 48 00
        E 0 90 41 48
        E 0 90 45 48
        E 0 90 48 48
        E 260 80 41 00
        E 0 80 45 00
        E 0 80 48 00
        E 440 90 41 48
        E 0 90 45 48
        E 0 90 48 48
        E 260 80 41 00
        E 0 80 45 00
        E 0 80 48 00
        e 514 90 41 48
        e 0 90 45 48
        e 0 90 48 48
        e 260 80 41 00
        e 0 80 45 00
        e 0 80 48 00
        E 162 90 3e 48
        E 24 90 41 48
        E 0 90 45 48
        E 1896 90 3e 48
        E 24 80 3e 00
        E 0 80 41 00
        E 0 80 45 00
        E 0 90 41 48
        E 0 90 45 48
        E 260 80 3e 00
        E 0 80 41 00
        E 0 80 45 00
        E 416 90 3e 48
        E 24 90 41 48
        E 0 90 45 48
        E 260 80 3e 00
        E 0 80 41 00
        E 0 80 45 00
        e 490 90 3e 48
        e 24 90 41 48
        e 0 90 45 48
        e 260 80 3e 00
        e 0 80 41 00
        e 0 80 45 00
        E 186 b0 7b 00
        CHASE_CC_TAKEOFFS 1
        GUID {7B9D708B-43E1-C8D4-C4B3-87E2A6C27801}
        IGNTEMPO 0 120 4 4
        SRCCOLOR 17
        VELLANE -1 100 0
        CFGEDITVIEW 0 0.045808 45 12 0 -1 0 0 0 0.5
        KEYSNAP 0
        TRACKSEL 0
        EVTFILTER 0 -1 -1 -1 -1 0 0 0 0 -1 -1 -1 -1 0 -1 0 -1 -1
        CFGEDIT 1 1 0 1 0 0 1 1 1 1 1 1 58 171 1253 866 0 0 0 0 0.25 0 0 0 0 0.5 0 0 1 64
      >
    >
    <ITEM
      POSITION 8
      SNAPOFFS 0
      LENGTH 8
      LOOP 1
      ALLTAKES 0
      FADEIN 1 0 0 1 0 0
      FADEOUT 1 0 0 1 0 0
      MUTE 0
      SEL 1
      IGUID {49FD0C53-9E38-DB35-962D-A47BEE77BA8E}
      IID 11
      NAME "01-Recorded MIDI"
      VOLPAN 1 0 1 -1
      SOFFS 0 0
      PLAYRATE 1 1 0 -1 0 0.0021
      CHANMODE 0
      GUID {95838564-5E8B-4F1F-60AF-79893ADCCE92}
      RECPASS 1
      <SOURCE MIDI
        HASDATA 1 960 QN
        CCINTERP 32
        POOLEDEVTS {78FC5AF3-CF4F-9115-784B-FFA13AB8AF67}
        E 0 90 3c 48
        E 0 90 40 48
        E 0 90 43 48
        E 1920 80 3c 00
        E 0 80 40 00
        E 0 80 43 00
        E 0 90 3c 48
        E 0 90 40 48
        E 0 90 43 48
        E 260 80 3c 00
        E 0 80 40 00
        E 0 80 43 00
        E 440 90 3c 48
        E 0 90 40 48
        E 0 90 43 48
        E 260 80 3c 00
        E 0 80 40 00
        E 0 80 43 00
        e 514 90 3c 48
        e 0 90 40 48
        e 0 90 43 48
        e 260 80 3c 00
        e 0 80 40 00
        e 0 80 43 00
        E 186 90 43 48
        E 0 90 47 48
        E 20 90 40 48
        E 1900 80 43 00
        E 0 80 47 00
        E 0 80 40 00
        E 0 90 43 48
        E 0 90 47 48
        E 20 90 40 48
        E 240 80 43 00
        E 0 80 47 00
        E 0 80 40 00
        E 440 90 43 48
        E 0 90 47 48
        E 20 90 40 48
        E 240 80 43 00
        E 0 80 47 00
        E 0 80 40 00
        e 514 90 43 48
        e 0 90 47 48
        e 20 90 40 48
        e 240 80 43 00
        e 0 80 47 00
        e 0 80 40 00
        E 186 90 41 48
        E 0 90 45 48
        E 0 90 48 48
        E 1920 80 41 00
        E 0 80 45 00
        E 0 80 48 00
        E 0 90 41 48
        E 0 90 45 48
        E 0 90 48 48
        E 260 80 41 00
        E 0 80 45 00
        E 0 80 48 00
        E 440 90 41 48
        E 0 90 45 48
        E 0 90 48 48
        E 260 80 41 00
        E 0 80 45 00
        E 0 80 48 00
        e 514 90 41 48
        e 0 90 45 48
        e 0 90 48 48
        e 260 80 41 00
        e 0 80 45 00
        e 0 80 48 00
        E 162 90 3e 48
        E 24 90 41 48
        E 0 90 45 48
        E 1896 90 3e 48
        E 24 80 3e 00
        E 0 80 41 00
        E 0 80 45 00
        E 0 90 41 48
        E 0 90 45 48
        E 260 80 3e 00
        E 0 80 41 00
        E 0 80 45 00
        E 416 90 3e 48
        E 24 90 41 48
        E 0 90 45 48
        E 260 80 3e 00
        E 0 80 41 00
        E 0 80 45 00
        e 490 90 3e 48
        e 24 90 41 48
        e 0 90 45 48
        e 260 80 3e 00
        e 0 80 41 00
        e 0 80 45 00
        E 186 b0 7b 00
        CHASE_CC_TAKEOFFS 1
        GUID {3131B4E2-B370-E352-A9C5-C8CA31551A86}
        IGNTEMPO 0 120 4 4
        SRCCOLOR 18
        VELLANE -1 100 0
        CFGEDITVIEW 0 0.045808 45 12 0 -1 0 0 0 0.5
        KEYSNAP 0
        TRACKSEL 0
        EVTFILTER 0 -1 -1 -1 -1 0 0 0 0 -1 -1 -1 -1 0 -1 0 -1 -1
        CFGEDIT 1 1 0 1 0 0 1 1 1 1 1 1 58 171 1253 866 0 0 0 0 0.25 0 0 0 0 0.5 0 0 1 64
      >
    >
    <ITEM
      POSITION 16
      SNAPOFFS 0
      LENGTH 8
      LOOP 1
      ALLTAKES 0
      FADEIN 1 0 0 1 0 0
      FADEOUT 1 0 0 1 0 0
      MUTE 0
      SEL 1
      IGUID {FD524069-2D5D-03BD-0F6C-E83B71DCE5B9}
      IID 12
      NAME "01-Recorded MIDI"
      VOLPAN 1 0 1 -1
      SOFFS 0 0
      PLAYRATE 1 1 0 -1 0 0.0021
      CHANMODE 0
      GUID {269D01F0-7439-89B5-6753-2AB700113317}
      RECPASS 1
      <SOURCE MIDI
        HASDATA 1 960 QN
        CCINTERP 32
        POOLEDEVTS {F0D25EDA-3381-816E-B313-C62EDF6936CC}
        E 0 90 3c 48
        E 0 90 40 48
        E 0 90 43 48
        E 1920 80 3c 00
        E 0 80 40 00
        E 0 80 43 00
        E 0 90 3c 48
        E 0 90 40 48
        E 0 90 43 48
        E 260 80 3c 00
        E 0 80 40 00
        E 0 80 43 00
        E 440 90 3c 48
        E 0 90 40 48
        E 0 90 43 48
        E 260 80 3c 00
        E 0 80 40 00
        E 0 80 43 00
        e 514 90 3c 48
        e 0 90 40 48
        e 0 90 43 48
        e 260 80 3c 00
        e 0 80 40 00
        e 0 80 43 00
        E 186 90 43 48
        E 0 90 47 48
        E 20 90 40 48
        E 1900 80 43 00
        E 0 80 47 00
        E 0 80 40 00
        E 0 90 43 48
        E 0 90 47 48
        E 20 90 40 48
        E 240 80 43 00
        E 0 80 47 00
        E 0 80 40 00
        E 440 90 43 48
        E 0 90 47 48
        E 20 90 40 48
        E 240 80 43 00
        E 0 80 47 00
        E 0 80 40 00
        e 514 90 43 48
        e 0 90 47 48
        e 20 90 40 48
        e 240 80 43 00
        e 0 80 47 00
        e 0 80 40 00
        E 186 90 41 48
        E 0 90 45 48
        E 0 90 48 48
        E 1920 80 41 00
        E 0 80 45 00
        E 0 80 48 00
        E 0 90 41 48
        E 0 90 45 48
        E 0 90 48 48
        E 260 80 41 00
        E 0 80 45 00
        E 0 80 48 00
        E 440 90 41 48
        E 0 90 45 48
        E 0 90 48 48
        E 260 80 41 00
        E 0 80 45 00
        E 0 80 48 00
        e 514 90 41 48
        e 0 90 45 48
        e 0 90 48 48
        e 260 80 41 00
        e 0 80 45 00
        e 0 80 48 00
        E 162 90 3e 48
        E 24 90 41 48
        E 0 90 45 48
        E 1896 90 3e 48
        E 24 80 3e 00
        E 0 80 41 00
        E 0 80 45 00
        E 0 90 41 48
        E 0 90 45 48
        E 260 80 3e 00
        E 0 80 41 00
        E 0 80 45 00
        E 416 90 3e 48
        E 24 90 41 48
        E 0 90 45 48
        E 260 80 3e 00
        E 0 80 41 00
        E 0 80 45 00
        e 490 90 3e 48
        e 24 90 41 48
        e 0 90 45 48
        e 260 80 3e 00
        e 0 80 41 00
        e 0 80 45 00
        E 186 b0 7b 00
        CHASE_CC_TAKEOFFS 1
        GUID {48C567A2-895C-FB9B-FDBA-0ADB7004ABF3}
        IGNTEMPO 0 120 4 4
        SRCCOLOR 19
        VELLANE -1 100 0
        CFGEDITVIEW 0 0.045808 45 12 0 -1 0 0 0 0.5
        KEYSNAP 0
        TRACKSEL 0
        EVTFILTER 0 -1 -1 -1 -1 0 0 0 0 -1 -1 -1 -1 0 -1 0 -1 -1
        CFGEDIT 1 1 0 1 0 0 1 1 1 1 1 1 58 171 1253 866 0 0 0 0 0.25 0 0 0 0 0.5 0 0 1 64
      >
    >
    <ITEM
      POSITION 24
      SNAPOFFS 0
      LENGTH 8
      LOOP 1
      ALLTAKES 0
      FADEIN 1 0 0 1 0 0
      FADEOUT 1 0 0 1 0 0
      MUTE 0
      SEL 1
      IGUID {C67D7E5E-180D-9906-7335-E25010171708}
      IID 13
      NAME "01-Recorded MIDI"
      VOLPAN 1 0 1 -1
      SOFFS 0 0
      PLAYRATE 1 1 0 -1 0 0.0021
      CHANMODE 0
      GUID {437E7C68-3FF0-B648-165D-149E357E654C}
      RECPASS 1
      <SOURCE MIDI
        HASDATA 1 960 QN
        CCINTERP 32
        POOLEDEVTS {0652F945-2848-EE71-C5A2-E2CDC674A799}
        E 0 90 3c 48
        E 0 90 40 48
        E 0 90 43 48
        E 1920 80 3c 00
        E 0 80 40 00
        E 0 80 43 00
        E 0 90 3c 48
        E 0 90 40 48
        E 0 90 43 48
        E 260 80 3c 00
        E 0 80 40 00
        E 0 80 43 00
        E 440 90 3c 48
        E 0 90 40 48
        E 0 90 43 48
        E 260 80 3c 00
        E 0 80 40 00
        E 0 80 43 00
        e 514 90 3c 48
        e 0 90 40 48
        e 0 90 43 48
        e 260 80 3c 00
        e 0 80 40 00
        e 0 80 43 00
        E 186 90 43 48
        E 0 90 47 48
        E 20 90 40 48
        E 1900 80 43 00
        E 0 80 47 00
        E 0 80 40 00
        E 0 90 43 48
        E 0 90 47 48
        E 20 90 40 48
        E 240 80 43 00
        E 0 80 47 00
        E 0 80 40 00
        E 440 90 43 48
        E 0 90 47 48
        E 20 90 40 48
        E 240 80 43 00
        E 0 80 47 00
        E 0 80 40 00
        e 514 90 43 48
        e 0 90 47 48
        e 20 90 40 48
        e 240 80 43 00
        e 0 80 47 00
        e 0 80 40 00
        E 186 90 41 48
        E 0 90 45 48
        E 0 90 48 48
        E 1920 80 41 00
        E 0 80 45 00
        E 0 80 48 00
        E 0 90 41 48
        E 0 90 45 48
        E 0 90 48 48
        E 260 80 41 00
        E 0 80 45 00
        E 0 80 48 00
        E 440 90 41 48
        E 0 90 45 48
        E 0 90 48 48
        E 260 80 41 00
        E 0 80 45 00
        E 0 80 48 00
        e 514 90 41 48
        e 0 90 45 48
        e 0 90 48 48
        e 260 80 41 00
        e 0 80 45 00
        e 0 80 48 00
        E 162 90 3e 48
        E 24 90 41 48
        E 0 90 45 48
        E 1896 90 3e 48
        E 24 80 3e 00
        E 0 80 41 00
        E 0 80 45 00
        E 0 90 41 48
        E 0 90 45 48
        E 260 80 3e 00
        E 0 80 41 00
        E 0 80 45 00
        E 416 90 3e 48
        E 24 90 41 48
        E 0 90 45 48
        E 260 80 3e 00
        E 0 80 41 00
        E 0 80 45 00
        e 490 90 3e 48
        e 24 90 41 48
        e 0 90 45 48
        e 260 80 3e 00
        e 0 80 41 00
        e 0 80 45 00
        E 186 b0 7b 00
        CHASE_CC_TAKEOFFS 1
        GUID {1DE38800-E2A1-41B5-9C8C-3291891093B1}
        IGNTEMPO 0 120 4 4
        SRCCOLOR 20
        VELLANE -1 100 0
        CFGEDITVIEW 0 0.045808 45 12 0 -1 0 0 0 0.5
        KEYSNAP 0
        TRACKSEL 0
        EVTFILTER 0 -1 -1 -1 -1 0 0 0 0 -1 -1 -1 -1 0 -1 0 -1 -1
        CFGEDIT 1 1 0 1 0 0 1 1 1 1 1 1 58 171 1253 866 0 0 0 0 0.25 0 0 0 0 0.5 0 0 1 64
      >
    >
    <ITEM
      POSITION 32
      SNAPOFFS 0
      LENGTH 8
      LOOP 1
      ALLTAKES 0
      FADEIN 1 0 0 1 0 0
      FADEOUT 1 0 0 1 0 0
      MUTE 0
      SEL 1
      IGUID {F0B5BB7C-9D97-F123-D5AA-A5A8477336D7}
      IID 14
      NAME "01-Recorded MIDI"
      VOLPAN 1 0 1 -1
      SOFFS 0 0
      PLAYRATE 1 1 0 -1 0 0.0021
      CHANMODE 0
      GUID {03F9E414-FCE0-A43F-CEB0-CE3349BB1C35}
      RECPASS 1
      <SOURCE MIDI
        HASDATA 1 960 QN
        CCINTERP 32
        POOLEDEVTS {1A95630A-B0B2-6D4A-5EC0-9CD5DC60EB9A}
        E 0 90 3c 48
        E 0 90 40 48
        E 0 90 43 48
        E 1920 80 3c 00
        E 0 80 40 00
        E 0 80 43 00
        E 0 90 3c 48
        E 0 90 40 48
        E 0 90 43 48
        E 260 80 3c 00
        E 0 80 40 00
        E 0 80 43 00
        E 440 90 3c 48
        E 0 90 40 48
        E 0 90 43 48
        E 260 80 3c 00
        E 0 80 40 00
        E 0 80 43 00
        e 514 90 3c 48
        e 0 90 40 48
        e 0 90 43 48
        e 260 80 3c 00
        e 0 80 40 00
        e 0 80 43 00
        E 186 90 43 48
        E 0 90 47 48
        E 20 90 40 48
        E 1900 80 43 00
        E 0 80 47 00
        E 0 80 40 00
        E 0 90 43 48
        E 0 90 47 48
        E 20 90 40 48
        E 240 80 43 00
        E 0 80 47 00
        E 0 80 40 00
        E 440 90 43 48
        E 0 90 47 48
        E 20 90 40 48
        E 240 80 43 00
        E 0 80 47 00
        E 0 80 40 00
        e 514 90 43 48
        e 0 90 47 48
        e 20 90 40 48
        e 240 80 43 00
        e 0 80 47 00
        e 0 80 40 00
        E 186 90 41 48
        E 0 90 45 48
        E 0 90 48 48
        E 1920 80 41 00
        E 0 80 45 00
        E 0 80 48 00
        E 0 90 41 48
        E 0 90 45 48
        E 0 90 48 48
        E 260 80 41 00
        E 0 80 45 00
        E 0 80 48 00
        E 440 90 41 48
        E 0 90 45 48
        E 0 90 48 48
        E 260 80 41 00
        E 0 80 45 00
        E 0 80 48 00
        e 514 90 41 48
        e 0 90 45 48
        e 0 90 48 48
        e 260 80 41 00
        e 0 80 45 00
        e 0 80 48 00
        E 162 90 3e 48
        E 24 90 41 48
        E 0 90 45 48
        E 1896 90 3e 48
        E 24 80 3e 00
        E 0 80 41 00
        E 0 80 45 00
        E 0 90 41 48
        E 0 90 45 48
        E 260 80 3e 00
        E 0 80 41 00
        E 0 80 45 00
        E 416 90 3e 48
        E 24 90 41 48
        E 0 90 45 48
        E 260 80 3e 00
        E 0 80 41 00
        E 0 80 45 00
        e 490 90 3e 48
        e 24 90 41 48
        e 0 90 45 48
        e 260 80 3e 00
        e 0 80 41 00
        e 0 80 45 00
        E 186 b0 7b 00
        CHASE_CC_TAKEOFFS 1
        GUID {0C3271F4-E233-9088-9B25-A722FAE7C579}
        IGNTEMPO 0 120 4 4
        SRCCOLOR 21
        VELLANE -1 100 0
        CFGEDITVIEW 0 0.045808 45 12 0 -1 0 0 0 0.5
        KEYSNAP 0
        TRACKSEL 0
        EVTFILTER 0 -1 -1 -1 -1 0 0 0 0 -1 -1 -1 -1 0 -1 0 -1 -1
        CFGEDIT 1 1 0 1 0 0 1 1 1 1 1 1 58 171 1253 866 0 0 0 0 0.25 0 0 0 0 0.5 0 0 1 64
      >
    >
    <ITEM
      POSITION 40
      SNAPOFFS 0
      LENGTH 8
      LOOP 1
      ALLTAKES 0
      FADEIN 1 0 0 1 0 0
      FADEOUT 1 0 0 1 0 0
      MUTE 0
      SEL 1
      IGUID {4A30604E-D46E-72D9-D9E9-5415E7F4DC69}
      IID 15
      NAME "01-Recorded MIDI"
      VOLPAN 1 0 1 -1
      SOFFS 0 0
      PLAYRATE 1 1 0 -1 0 0.0021
      CHANMODE 0
      GUID {7B00D7D9-B918-D729-E870-401FDB93BF85}
      RECPASS 1
      <SOURCE MIDI
        HASDATA 1 960 QN
        CCINTERP 32
        POOLEDEVTS {0E8AFC59-3036-BA3A-410D-D127613D5F11}
        E 0 90 3c 48
        E 0 90 40 48
        E 0 90 43 48
        E 1920 80 3c 00
        E 0 80 40 00
        E 0 80 43 00
        E 0 90 3c 48
        E 0 90 40 48
        E 0 90 43 48
        E 260 80 3c 00
        E 0 80 40 00
        E 0 80 43 00
        E 440 90 3c 48
        E 0 90 40 48
        E 0 90 43 48
        E 260 80 3c 00
        E 0 80 40 00
        E 0 80 43 00
        e 514 90 3c 48
        e 0 90 40 48
        e 0 90 43 48
        e 260 80 3c 00
        e 0 80 40 00
        e 0 80 43 00
        E 186 90 43 48
        E 0 90 47 48
        E 20 90 40 48
        E 1900 80 43 00
        E 0 80 47 00
        E 0 80 40 00
        E 0 90 43 48
        E 0 90 47 48
        E 20 90 40 48
        E 240 80 43 00
        E 0 80 47 00
        E 0 80 40 00
        E 440 90 43 48
        E 0 90 47 48
        E 20 90 40 48
        E 240 80 43 00
        E 0 80 47 00
        E 0 80 40 00
        e 514 90 43 48
        e 0 90 47 48
        e 20 90 40 48
        e 240 80 43 00
        e 0 80 47 00
        e 0 80 40 00
        E 186 90 41 48
        E 0 90 45 48
        E 0 90 48 48
        E 1920 80 41 00
        E 0 80 45 00
        E 0 80 48 00
        E 0 90 41 48
        E 0 90 45 48
        E 0 90 48 48
        E 260 80 41 00
        E 0 80 45 00
        E 0 80 48 00
        E 440 90 41 48
        E 0 90 45 48
        E 0 90 48 48
        E 260 80 41 00
        E 0 80 45 00
        E 0 80 48 00
        e 514 90 41 48
        e 0 90 45 48
        e 0 90 48 48
        e 260 80 41 00
        e 0 80 45 00
        e 0 80 48 00
        E 162 90 3e 48
        E 24 90 41 48
        E 0 90 45 48
        E 1896 90 3e 48
        E 24 80 3e 00
        E 0 80 41 00
        E 0 80 45 00
        E 0 90 41 48
        E 0 90 45 48
        E 260 80 3e 00
        E 0 80 41 00
        E 0 80 45 00
        E 416 90 3e 48
        E 24 90 41 48
        E 0 90 45 48
        E 260 80 3e 00
        E 0 80 41 00
        E 0 80 45 00
        e 490 90 3e 48
        e 24 90 41 48
        e 0 90 45 48
        e 260 80 3e 00
        e 0 80 41 00
        e 0 80 45 00
        E 186 b0 7b 00
        CHASE_CC_TAKEOFFS 1
        GUID {040E7AF8-3572-5D91-3C86-797AEE7444D4}
        IGNTEMPO 0 120 4 4
        SRCCOLOR 22
        VELLANE -1 100 0
        CFGEDITVIEW 0 0.045808 45 12 0 -1 0 0 0 0.5
        KEYSNAP 0
        TRACKSEL 0
        EVTFILTER 0 -1 -1 -1 -1 0 0 0 0 -1 -1 -1 -1 0 -1 0 -1 -1
        CFGEDIT 1 1 0 1 0 0 1 1 1 1 1 1 58 171 1253 866 0 0 0 0 0.25 0 0 0 0 0.5 0 0 1 64
      >
    >
    <ITEM
      POSITION 48
      SNAPOFFS 0
      LENGTH 8
      LOOP 1
      ALLTAKES 0
      FADEIN 1 0 0 1 0 0
      FADEOUT 1 0 0 1 0 0
      MUTE 0
      SEL 1
      IGUID {248D66B9-D907-6EEA-234F-3748DF07329E}
      IID 16
      NAME "01-Recorded MIDI"
      VOLPAN 1 0 1 -1
      SOFFS 0 0
      PLAYRATE 1 1 0 -1 0 0.0021
      CHANMODE 0
      GUID {7D7D265D-C099-97A7-0D93-5301CA5EC43C}
      RECPASS 1
      <SOURCE MIDI
        HASDATA 1 960 QN
        CCINTERP 32
        POOLEDEVTS {556FE8C6-7A25-9B5E-3C43-DC92EFF66F60}
        E 0 90 3c 48
        E 0 90 40 48
        E 0 90 43 48
        E 1920 80 3c 00
        E 0 80 40 00
        E 0 80 43 00
        E 0 90 3c 48
        E 0 90 40 48
        E 0 90 43 48
        E 260 80 3c 00
        E 0 80 40 00
        E 0 80 43 00
        E 440 90 3c 48
        E 0 90 40 48
        E 0 90 43 48
        E 260 80 3c 00
        E 0 80 40 00
        E 0 80 43 00
        e 514 90 3c 48
        e 0 90 40 48
        e 0 90 43 48
        e 260 80 3c 00
        e 0 80 40 00
        e 0 80 43 00
        E 186 90 43 48
        E 0 90 47 48
        E 20 90 40 48
        E 1900 80 43 00
        E 0 80 47 00
        E 0 80 40 00
        E 0 90 43 48
        E 0 90 47 48
        E 20 90 40 48
        E 240 80 43 00
        E 0 80 47 00
        E 0 80 40 00
        E 440 90 43 48
        E 0 90 47 48
        E 20 90 40 48
        E 240 80 43 00
        E 0 80 47 00
        E 0 80 40 00
        e 514 90 43 48
        e 0 90 47 48
        e 20 90 40 48
        e 240 80 43 00
        e 0 80 47 00
        e 0 80 40 00
        E 186 90 41 48
        E 0 90 45 48
        E 0 90 48 48
        E 1920 80 41 00
        E 0 80 45 00
        E 0 80 48 00
        E 0 90 41 48
        E 0 90 45 48
        E 0 90 48 48
        E 260 80 41 00
        E 0 80 45 00
        E 0 80 48 00
        E 440 90 41 48
        E 0 90 45 48
        E 0 90 48 48
        E 260 80 41 00
        E 0 80 45 00
        E 0 80 48 00
        e 514 90 41 48
        e 0 90 45 48
        e 0 90 48 48
        e 260 80 41 00
        e 0 80 45 00
        e 0 80 48 00
        E 162 90 3e 48
        E 24 90 41 48
        E 0 90 45 48
        E 1896 90 3e 48
        E 24 80 3e 00
        E 0 80 41 00
        E 0 80 45 00
        E 0 90 41 48
        E 0 90 45 48
        E 260 80 3e 00
        E 0 80 41 00
        E 0 80 45 00
        E 416 90 3e 48
        E 24 90 41 48
        E 0 90 45 48
        E 260 80 3e 00
        E 0 80 41 00
        E 0 80 45 00
        e 490 90 3e 48
        e 24 90 41 48
        e 0 90 45 48
        e 260 80 3e 00
        e 0 80 41 00
        e 0 80 45 00
        E 186 b0 7b 00
        CHASE_CC_TAKEOFFS 1
        GUID {2338968B-6CF9-9F40-300F-DEB89D3392EA}
        IGNTEMPO 0 120 4 4
        SRCCOLOR 23
        VELLANE -1 100 0
        CFGEDITVIEW 0 0.045808 45 12 0 -1 0 0 0 0.5
        KEYSNAP 0
        TRACKSEL 0
        EVTFILTER 0 -1 -1 -1 -1 0 0 0 0 -1 -1 -1 -1 0 -1 0 -1 -1
        CFGEDIT 1 1 0 1 0 0 1 1 1 1 1 1 58 171 1253 866 0 0 0 0 0.25 0 0 0 0 0.5 0 0 1 64
      >
    >
    <ITEM
      POSITION 56
      SNAPOFFS 0
      LENGTH 8
      LOOP 1
      ALLTAKES 0
      FADEIN 1 0 0 1 0 0
      FADEOUT 1 0 0 1 0 0
      MUTE 0
      SEL 1
      IGUID {46B514E4-4A0F-7F10-4C9A-BEAEE7DAFBA4}
      IID 17
      NAME "01-Recorded MIDI"
      VOLPAN 1 0 1 -1
      SOFFS 0 0
      PLAYRATE 1 1 0 -1 0 0.0021
      CHANMODE 0
      GUID {A1111C5E-B1C1-389C-3D55-F049A2747013}
      RECPASS 1
      <SOURCE MIDI
        HASDATA 1 960 QN
        CCINTERP 32
        POOLEDEVTS {FB4B69BC-EF0C-5685-BFA3-F95C94612CF0}
        E 0 90 3c 48
        E 0 90 40 48
        E 0 90 43 48
        E 1920 80 3c 00
        E 0 80 40 00
        E 0 80 43 00
        E 0 90 3c 48
        E 0 90 40 48
        E 0 90 43 48
        E 260 80 3c 00
        E 0 80 40 00
        E 0 80 43 00
        E 440 90 3c 48
        E 0 90 40 48
        E 0 90 43 48
        E 260 80 3c 00
        E 0 80 40 00
        E 0 80 43 00
        e 514 90 3c 48
        e 0 90 40 48
        e 0 90 43 48
        e 260 80 3c 00
        e 0 80 40 00
        e 0 80 43 00
        E 186 90 43 48
        E 0 90 47 48
        E 20 90 40 48
        E 1900 80 43 00
        E 0 80 47 00
        E 0 80 40 00
        E 0 90 43 48
        E 0 90 47 48
        E 20 90 40 48
        E 240 80 43 00
        E 0 80 47 00
        E 0 80 40 00
        E 440 90 43 48
        E 0 90 47 48
        E 20 90 40 48
        E 240 80 43 00
        E 0 80 47 00
        E 0 80 40 00
        e 514 90 43 48
        e 0 90 47 48
        e 20 90 40 48
        e 240 80 43 00
        e 0 80 47 00
        e 0 80 40 00
        E 186 90 41 48
        E 0 90 45 48
        E 0 90 48 48
        E 1920 80 41 00
        E 0 80 45 00
        E 0 80 48 00
        E 0 90 41 48
        E 0 90 45 48
        E 0 90 48 48
        E 260 80 41 00
        E 0 80 45 00
        E 0 80 48 00
        E 440 90 41 48
        E 0 90 45 48
        E 0 90 48 48
        E 260 80 41 00
        E 0 80 45 00
        E 0 80 48 00
        e 514 90 41 48
        e 0 90 45 48
        e 0 90 48 48
        e 260 80 41 00
        e 0 80 45 00
        e 0 80 48 00
        E 162 90 3e 48
        E 24 90 41 48
        E 0 90 45 48
        E 1896 90 3e 48
        E 24 80 3e 00
        E 0 80 41 00
        E 0 80 45 00
        E 0 90 41 48
        E 0 90 45 48
        E 260 80 3e 00
        E 0 80 41 00
        E 0 80 45 00
        E 416 90 3e 48
        E 24 90 41 48
        E 0 90 45 48
        E 260 80 3e 00
        E 0 80 41 00
        E 0 80 45 00
        e 490 90 3e 48
        e 24 90 41 48
        e 0 90 45 48
        e 260 80 3e 00
        e 0 80 41 00
        e 0 80 45 00
        E 186 b0 7b 00
        CHASE_CC_TAKEOFFS 1
        GUID {A64857E2-94F8-0990-20DF-4C1E9B5E6251}
        IGNTEMPO 0 120 4 4
        SRCCOLOR 24
        VELLANE -1 100 0
        CFGEDITVIEW 0 0.045808 45 12 0 -1 0 0 0 0.5
        KEYSNAP 0
        TRACKSEL 0
        EVTFILTER 0 -1 -1 -1 -1 0 0 0 0 -1 -1 -1 -1 0 -1 0 -1 -1
        CFGEDIT 1 1 0 1 0 0 1 1 1 1 1 1 58 171 1253 866 0 0 0 0 0.25 0 0 0 0 0.5 0 0 1 64
      >
    >
    <ITEM
      POSITION 64
      SNAPOFFS 0
      LENGTH 8
      LOOP 1
      ALLTAKES 0
      FADEIN 1 0 0 1 0 0
      FADEOUT 1 0 0 1 0 0
      MUTE 0
      SEL 1
      IGUID {EED2C5FC-14CD-A6A5-42DB-4B354A7C1606}
      IID 18
      NAME "01-Recorded MIDI"
      VOLPAN 1 0 1 -1
      SOFFS 0 0
      PLAYRATE 1 1 0 -1 0 0.0021
      CHANMODE 0
      GUID {565D34BB-AC34-3B94-D284-E28C1CD2A903}
      RECPASS 1
      <SOURCE MIDI
        HASDATA 1 960 QN
        CCINTERP 32
        POOLEDEVTS {ECD13E30-F277-6BCE-2FFA-BCB97E028A7F}
        E 0 90 3c 48
        E 0 90 40 48
        E 0 90 43 48
        E 1920 80 3c 00
        E 0 80 40 00
        E 0 80 43 00
        E 0 90 3c 48
        E 0 90 40 48
        E 0 90 43 48
        E 260 80 3c 00
        E 0 80 40 00
        E 0 80 43 00
        E 440 90 3c 48
        E 0 90 40 48
        E 0 90 43 48
        E 260 80 3c 00
        E 0 80 40 00
        E 0 80 43 00
        e 514 90 3c 48
        e 0 90 40 48
        e 0 90 43 48
        e 260 80 3c 00
        e 0 80 40 00
        e 0 80 43 00
        E 186 90 43 48
        E 0 90 47 48
        E 20 90 40 48
        E 1900 80 43 00
        E 0 80 47 00
        E 0 80 40 00
        E 0 90 43 48
        E 0 90 47 48
        E 20 90 40 48
        E 240 80 43 00
        E 0 80 47 00
        E 0 80 40 00
        E 440 90 43 48
        E 0 90 47 48
        E 20 90 40 48
        E 240 80 43 00
        E 0 80 47 00
        E 0 80 40 00
        e 514 90 43 48
        e 0 90 47 48
        e 20 90 40 48
        e 240 80 43 00
        e 0 80 47 00
        e 0 80 40 00
        E 186 90 41 48
        E 0 90 45 48
        E 0 90 48 48
        E 1920 80 41 00
        E 0 80 45 00
        E 0 80 48 00
        E 0 90 41 48
        E 0 90 45 48
        E 0 90 48 48
        E 260 80 41 00
        E 0 80 45 00
        E 0 80 48 00
        E 440 90 41 48
        E 0 90 45 48
        E 0 90 48 48
        E 260 80 41 00
        E 0 80 45 00
        E 0 80 48 00
        e 514 90 41 48
        e 0 90 45 48
        e 0 90 48 48
        e 260 80 41 00
        e 0 80 45 00
        e 0 80 48 00
        E 162 90 3e 48
        E 24 90 41 48
        E 0 90 45 48
        E 1896 90 3e 48
        E 24 80 3e 00
        E 0 80 41 00
        E 0 80 45 00
        E 0 90 41 48
        E 0 90 45 48
        E 260 80 3e 00
        E 0 80 41 00
        E 0 80 45 00
        E 416 90 3e 48
        E 24 90 41 48
        E 0 90 45 48
        E 260 80 3e 00
        E 0 80 41 00
        E 0 80 45 00
        e 490 90 3e 48
        e 24 90 41 48
        e 0 90 45 48
        e 260 80 3e 00
        e 0 80 41 00
        e 0 80 45 00
        E 186 b0 7b 00
        CHASE_CC_TAKEOFFS 1
        GUID {19362806-85F2-5D9E-E1F9-07BE0CF3D16E}
        IGNTEMPO 0 120 4 4
        SRCCOLOR 25
        VELLANE -1 100 0
        CFGEDITVIEW 0 0.045808 45 12 0 -1 0 0 0 0.5
        KEYSNAP 0
        TRACKSEL 0
        EVTFILTER 0 -1 -1 -1 -1 0 0 0 0 -1 -1 -1 -1 0 -1 0 -1 -1
        CFGEDIT 1 1 0 1 0 0 1 1 1 1 1 1 58 171 1253 866 0 0 0 0 0.25 0 0 0 0 0.5 0 0 1 64
      >
    >
    <ITEM
      POSITION 72
      SNAPOFFS 0
      LENGTH 8
      LOOP 1
      ALLTAKES 0
      FADEIN 1 0 0 1 0 0
      FADEOUT 1 0 0 1 0 0
      MUTE 0
      SEL 1
      IGUID {B8FA8C94-D80F-3579-82A6-759CF08BF7C6}
      IID 19
      NAME "01-Recorded MIDI"
      VOLPAN 1 0 1 -1
      SOFFS 0 0
      PLAYRATE 1 1 0 -1 0 0.0021
      CHANMODE 0
      GUID {C96C4AA0-C99A-5830-7517-731CDDDC4F6E}
      RECPASS 1
      <SOURCE MIDI
        HASDATA 1 960 QN
        CCINTERP 32
        POOLEDEVTS {C24397EC-1EC0-F700-FE43-DC66B455364F}
        E 0 90 3c 48
        E 0 90 40 48
        E 0 90 43 48
        E 1920 80 3c 00
        E 0 80 40 00
        E 0 80 43 00
        E 0 90 3c 48
        E 0 90 40 48
        E 0 90 43 48
        E 260 80 3c 00
        E 0 80 40 00
        E 0 80 43 00
        E 440 90 3c 48
        E 0 90 40 48
        E 0 90 43 48
        E 260 80 3c 00
        E 0 80 40 00
        E 0 80 43 00
        e 514 90 3c 48
        e 0 90 40 48
        e 0 90 43 48
        e 260 80 3c 00
        e 0 80 40 00
        e 0 80 43 00
        E 186 90 43 48
        E 0 90 47 48
        E 20 90 40 48
        E 1900 80 43 00
        E 0 80 47 00
        E 0 80 40 00
        E 0 90 43 48
        E 0 90 47 48
        E 20 90 40 48
        E 240 80 43 00
        E 0 80 47 00
        E 0 80 40 00
        E 440 90 43 48
        E 0 90 47 48
        E 20 90 40 48
        E 240 80 43 00
        E 0 80 47 00
        E 0 80 40 00
        e 514 90 43 48
        e 0 90 47 48
        e 20 90 40 48
        e 240 80 43 00
        e 0 80 47 00
        e 0 80 40 00
        E 186 90 41 48
        E 0 90 45 48
        E 0 90 48 48
        E 1920 80 41 00
        E 0 80 45 00
        E 0 80 48 00
        E 0 90 41 48
        E 0 90 45 48
        E 0 90 48 48
        E 260 80 41 00
        E 0 80 45 00
        E 0 80 48 00
        E 440 90 41 48
        E 0 90 45 48
        E 0 90 48 48
        E 260 80 41 00
        E 0 80 45 00
        E 0 80 48 00
        e 514 90 41 48
        e 0 90 45 48
        e 0 90 48 48
        e 260 80 41 00
        e 0 80 45 00
        e 0 80 48 00
        E 162 90 3e 48
        E 24 90 41 48
        E 0 90 45 48
        E 1896 90 3e 48
        E 24 80 3e 00
        E 0 80 41 00
        E 0 80 45 00
        E 0 90 41 48
        E 0 90 45 48
        E 260 80 3e 00
        E 0 80 41 00
        E 0 80 45 00
        E 416 90 3e 48
        E 24 90 41 48
        E 0 90 45 48
        E 260 80 3e 00
        E 0 80 41 00
        E 0 80 45 00
        e 490 90 3e 48
        e 24 90 41 48
        e 0 90 45 48
        e 260 80 3e 00
        e 0 80 41 00
        e 0 80 45 00
        E 186 b0 7b 00
        CHASE_CC_TAKEOFFS 1
        GUID {6844F8A9-6BE9-023C-4A46-0A676470C99B}
        IGNTEMPO 0 120 4 4
        SRCCOLOR 26
        VELLANE -1 100 0
        CFGEDITVIEW 0 0.045808 45 12 0 -1 0 0 0 0.5
        KEYSNAP 0
        TRACKSEL 0
        EVTFILTER 0 -1 -1 -1 -1 0 0 0 0 -1 -1 -1 -1 0 -1 0 -1 -1
        CFGEDIT 1 1 0 1 0 0 1 1 1 1 1 1 58 171 1253 866 0 0 0 0 0.25 0 0 0 0 0.5 0 0 1 64
      >
    >
    <ITEM
      POSITION 80
      SNAPOFFS 0
      LENGTH 8
      LOOP 1
      ALLTAKES 0
      FADEIN 1 0 0 1 0 0
      FADEOUT 1 0 0 1 0 0
      MUTE 0
      SEL 1
      IGUID {85222FB5-6DE5-5A77-D3A0-BC04325BED62}
      IID 20
      NAME "01-Recorded MIDI"
      VOLPAN 1 0 1 -1
      SOFFS 0 0
      PLAYRATE 1 1 0 -1 0 0.0021
      CHANMODE 0
      GUID {6C3B8761-BD2F-1B1D-E456-75BC310DB177}
      RECPASS 1
      <SOURCE MIDI
        HASDATA 1 960 QN
        CCINTERP 32
        POOLEDEVTS {31BA954E-818B-3483-9DA3-48F996FE9711}
        E 0 90 3c 48
        E 0 90 40 48
        E 0 90 43 48
        E 1920 80 3c 00
        E 0 80 40 00
        E 0 80 43 00
        E 0 90 3c 48
        E 0 90 40 48
        E 0 90 43 48
        E 260 80 3c 00
        E 0 80 40 00
        E 0 80 43 00
        E 440 90 3c 48
        E 0 90 40 48
        E 0 90 43 48
        E 260 80 3c 00
        E 0 80 40 00
        E 0 80 43 00
        e 514 90 3c 48
        e 0 90 40 48
        e 0 90 43 48
        e 260 80 3c 00
        e 0 80 40 00
        e 0 80 43 00
        E 186 90 43 48
        E 0 90 47 48
        E 20 90 40 48
        E 1900 80 43 00
        E 0 80 47 00
        E 0 80 40 00
        E 0 90 43 48
        E 0 90 47 48
        E 20 90 40 48
        E 240 80 43 00
        E 0 80 47 00
        E 0 80 40 00
        E 440 90 43 48
        E 0 90 47 48
        E 20 90 40 48
        E 240 80 43 00
        E 0 80 47 00
        E 0 80 40 00
        e 514 90 43 48
        e 0 90 47 48
        e 20 90 40 48
        e 240 80 43 00
        e 0 80 47 00
        e 0 80 40 00
        E 186 90 41 48
        E 0 90 45 48
        E 0 90 48 48
        E 1920 80 41 00
        E 0 80 45 00
        E 0 80 48 00
        E 0 90 41 48
        E 0 90 45 48
        E 0 90 48 48
        E 260 80 41 00
        E 0 80 45 00
        E 0 80 48 00
        E 440 90 41 48
        E 0 90 45 48
        E 0 90 48 48
        E 260 80 41 00
        E 0 80 45 00
        E 0 80 48 00
        e 514 90 41 48
        e 0 90 45 48
        e 0 90 48 48
        e 260 80 41 00
        e 0 80 45 00
        e 0 80 48 00
        E 162 90 3e 48
        E 24 90 41 48
        E 0 90 45 48
        E 1896 90 3e 48
        E 24 80 3e 00
        E 0 80 41 00
        E 0 80 45 00
        E 0 90 41 48
        E 0 90 45 48
        E 260 80 3e 00
        E 0 80 41 00
        E 0 80 45 00
        E 416 90 3e 48
        E 24 90 41 48
        E 0 90 45 48
        E 260 80 3e 00
        E 0 80 41 00
        E 0 80 45 00
        e 490 90 3e 48
        e 24 90 41 48
        e 0 90 45 48
        e 260 80 3e 00
        e 0 80 41 00
        e 0 80 45 00
        E 186 b0 7b 00
        CHASE_CC_TAKEOFFS 1
        GUID {E611ADB6-4869-6CCA-8E83-3954D5E743B1}
        IGNTEMPO 0 120 4 4
        SRCCOLOR 27
        VELLANE -1 100 0
        CFGEDITVIEW 0 0.045808 45 12 0 -1 0 0 0 0.5
        KEYSNAP 0
        TRACKSEL 0
        EVTFILTER 0 -1 -1 -1 -1 0 0 0 0 -1 -1 -1 -1 0 -1 0 -1 -1
        CFGEDIT 1 1 0 1 0 0 1 1 1 1 1 1 58 171 1253 866 0 0 0 0 0.25 0 0 0 0 0.5 0 0 1 64
      >
    >
    <ITEM
      POSITION 88
      SNAPOFFS 0
      LENGTH 8
      LOOP 1
      ALLTAKES 0
      FADEIN 1 0 0 1 0 0
      FADEOUT 1 0 0 1 0 0
      MUTE 0
      SEL 1
      IGUID {76A514A2-FC99-8FFF-152F-2EF78EDFB81A}
      IID 21
      NAME "01-Recorded MIDI"
      VOLPAN 1 0 1 -1
      SOFFS 0 0
      PLAYRATE 1 1 0 -1 0 0.0021
      CHANMODE 0
      GUID {ED028331-AC9E-762F-1A6B-2A7A302243A7}
      RECPASS 1
      <SOURCE MIDI
        HASDATA 1 960 QN
        CCINTERP 32
        POOLEDEVTS {81340771-51C4-4B6E-5C2B-C1D04D7F8777}
        E 0 90 3c 48
        E 0 90 40 48
        E 0 90 43 48
        E 1920 80 3c 00
        E 0 80 40 00
        E 0 80 43 00
        E 0 90 3c 48
        E 0 90 40 48
        E 0 90 43 48
        E 260 80 3c 00
        E 0 80 40 00
        E 0 80 43 00
        E 440 90 3c 48
        E 0 90 40 48
        E 0 90 43 48
        E 260 80 3c 00
        E 0 80 40 00
        E 0 80 43 00
        e 514 90 3c 48
        e 0 90 40 48
        e 0 90 43 48
        e 260 80 3c 00
        e 0 80 40 00
        e 0 80 43 00
        E 186 90 43 48
        E 0 90 47 48
        E 20 90 40 48
        E 1900 80 43 00
        E 0 80 47 00
        E 0 80 40 00
        E 0 90 43 48
        E 0 90 47 48
        E 20 90 40 48
        E 240 80 43 00
        E 0 80 47 00
        E 0 80 40 00
        E 440 90 43 48
        E 0 90 47 48
        E 20 90 40 48
        E 240 80 43 00
        E 0 80 47 00
        E 0 80 40 00
        e 514 90 43 48
        e 0 90 47 48
        e 20 90 40 48
        e 240 80 43 00
        e 0 80 47 00
        e 0 80 40 00
        E 186 90 41 48
        E 0 90 45 48
        E 0 90 48 48
        E 1920 80 41 00
        E 0 80 45 00
        E 0 80 48 00
        E 0 90 41 48
        E 0 90 45 48
        E 0 90 48 48
        E 260 80 41 00
        E 0 80 45 00
        E 0 80 48 00
        E 440 90 41 48
        E 0 90 45 48
        E 0 90 48 48
        E 260 80 41 00
        E 0 80 45 00
        E 0 80 48 00
        e 514 90 41 48
        e 0 90 45 48
        e 0 90 48 48
        e 260 80 41 00
        e 0 80 45 00
        e 0 80 48 00
        E 162 90 3e 48
        E 24 90 41 48
        E 0 90 45 48
        E 1896 90 3e 48
        E 24 80 3e 00
        E 0 80 41 00
        E 0 80 45 00
        E 0 90 41 48
        E 0 90 45 48
        E 260 80 3e 00
        E 0 80 41 00
        E 0 80 45 00
        E 416 90 3e 48
        E 24 90 41 48
        E 0 90 45 48
        E 260 80 3e 00
        E 0 80 41 00
        E 0 80 45 00
        e 490 90 3e 48
        e 24 90 41 48
        e 0 90 45 48
        e 260 80 3e 00
        e 0 80 41 00
        e 0 80 45 00
        E 186 b0 7b 00
        CHASE_CC_TAKEOFFS 1
        GUID {C762B555-17FC-D765-5340-11D3487D2955}
        IGNTEMPO 0 120 4 4
        SRCCOLOR 28
        VELLANE -1 100 0
        CFGEDITVIEW 0 0.045808 45 12 0 -1 0 0 0 0.5
        KEYSNAP 0
        TRACKSEL 0
        EVTFILTER 0 -1 -1 -1 -1 0 0 0 0 -1 -1 -1 -1 0 -1 0 -1 -1
        CFGEDIT 1 1 0 1 0 0 1 1 1 1 1 1 58 171 1253 866 0 0 0 0 0.25 0 0 0 0 0.5 0 0 1 64
      >
    >
  >
  <TRACK {34D8766F-44A7-6F4B-E3ED-75786D262785}
    NAME ""
    PEAKCOL 16576
    BEAT -1
    AUTOMODE 0
    VOLPAN 0.00052194381917 0 -1 -1 1
    MUTESOLO 0 0 0
    IPHASE 0
    PLAYOFFS 0 1
    ISBUS 0 0
    BUSCOMP 0 0 0 0 0
    SHOWINMIX 1 0.6667 0.5 1 0.5 0 0 0
    FREEMODE 0
    SEL 0
    REC 0 5056 1 0 0 0 0
    VU 2
    TRACKHEIGHT 21 0 0
    INQ 0 0 0 0.5 100 0 0 100
    NCHAN 2
    FX 0
    TRACKID {34D8766F-44A7-6F4B-E3ED-75786D262785}
    PERF 0
    MIDIOUT -1
    MAINSEND 1 0
    <FXCHAIN
      WNDRECT 346 266 902 608
      SHOW 0
      LASTSEL 5
      DOCKED 0
      BYPASS 0 0 0
      <VST "VST: ReaEQ (Cockos)" reaeq.vst.so 0 "" 1919247729<56535472656571726561657100000000> ""
        cWVlcu5e7f4CAAAAAQAAAAAAAAACAAAAAAAAAAIAAAABAAAAAAAAAAIAAAAAAAAAqAAAAAEAAAAAABAA
        IQAAAAQAAAAEAAAAAQAAAGi4Xhmm+DRAAAAAAAAA8D8AAAAAAAAAQAEIAAAAAQAAAAAAAAAAwHJAAAAAAAAA8D8AAAAAAAAAQAEIAAAAAQAAAAAAAAAAQI9AAAAAAAAA
        8D8AAAAAAAAAQAEDAAAAAQAAAAIBaCorbdRAAAAAAAAA8D8AAAAAAAAAQAEBAAAAAQAAAAAAAAAAAPA/AAAAAJoCAACcAQAA
        AEhpZ2ggbG93IHBhc3MAEAAAAA==
      >
      PRESETNAME "High low pass"
      FLOATPOS 0 0 0 0
      FXID {640E2670-5271-73B3-6EF8-27F608DB6BD8}
      WAK 0 0
      BYPASS 0 0 0
      <VST "VSTi: ReaSynth (Cockos)" reasynth.vst.so 0 "" 1919251321<5653547265737972656173796E746800> ""
        eXNlcu9e7f4AAAAAAgAAAAEAAAAAAAAAAgAAAAAAAAA8AAAAAAAAAAAAEAA=
        776t3g3wrd6lm8Q7F7fROgAAAAAAAAAAAAAAAJCNuT3oZ4g9AACAPwAAAD8AAIA/AAAAAAAAAD8AAAAA
        AAAQAAAA
      >
      FLOATPOS 0 0 0 0
      FXID {C0F1F01F-1B81-223A-F765-7CC946ACB4CF}
      WAK 0 0
      BYPASS 0 0 0
      <JS guitar/amp-model ""
        "Dumble Overdrive Special - Tweed Deluxe.wav" -21.000000 1.000000 0.000000 73.000000 256.000000 - - - - - - - - - - - - - - - - - - - - - - - - - - - - - - - - - - - - - - - - - - - - - - - - - - - - - - - - - - 
      >
      FLOATPOS 0 0 0 0
      FXID {BC07B308-E2F3-4616-658D-E9AC463CC1CD}
      WAK 0 0
      BYPASS 0 0 0
      <VST "VST: ReaComp (Cockos)" reacomp.vst.so 0 "" 1919247213<5653547265636D726561636F6D700000> ""
        bWNlcu9e7f4EAAAAAQAAAAAAAAACAAAAAAAAAAQAAAAAAAAACAAAAAAAAAACAAAAAQAAAAAAAAACAAAAAAAAAFQAAAAAAAAAAAAQAA==
        776t3g3wrd5FoYg9/AWpPKWbxDsK16M8AAAAAAAAAAAAAIA/AAAAAAAAAAAAAAAAnNEHMwAAgD8AAAAAzMxMPQAAAAAAAAAAAAAAAAAAgD7YiZ09
        AAAQAAAA
      >
      FLOATPOS 0 0 0 0
      FXID {4ACCB17A-735A-A2E9-FA57-882AC9F059B8}
      WAK 0 0
      BYPASS 0 0 0
      <VST "VST: ReaDelay (Cockos)" readelay.vst.so 0 "" 1919247468<5653547265646C72656164656C617900> ""
        bGRlcu5e7f4CAAAAAQAAAAAAAAACAAAAAAAAAAIAAAABAAAAAAAAAAIAAAAAAAAA/AAAAAEAAAAAAAAA
        AAAAAAAAAAAFAAAALAAAAAIAAAAEAAAAAACAPwAAgD8AAAAAAACAPwAAAAAAAIA7vTeGNQAAgD8AAAAAAACAPwAAgD8AAIA/AAAAAAAAAAAAAIA/AAAAAAAAADwAAAAA
        AACAPwAAAAAAAIA/AACAP+87NT8AAIA/AAAAAAAAgD8AAAAAAABAPL03hjUAAIA/AAAAAAAAgD8AAIA/zk0AP6abhD4AAAAAAACAPwAAAAAAAIA8vTeGNQAAgD8AAAAA
        AACAPwAAgD8aqrU+pHA9PwAAAAAAAIA/AAAAAAAAoDy9N4Y1AACAPwAAAAAAAIA/AACAP/npAD4AAAA/
        AHN0b2NrIC0gYmFzaWMgNSB0YXAgcGluZyBwb25nAAAAAAA=
      >
      PRESETNAME "stock - basic 5 tap ping pong"
      FLOATPOS 0 0 0 0
      FXID {D8B35CE8-72E3-951E-1639-9270A43B7C52}
      WAK 0 0
      BYPASS 0 0 0
      <VST "VST: ReaVerb (Cockos)" reaverb.vst.so 0 "" 1919252066<56535472657662726561766572620000> ""
        YnZlcu5e7f4CAAAAAQAAAAAAAAACAAAAAAAAAAIAAAABAAAAAAAAAAIAAAAAAAAAcAAAAAEAAAAAAAAA
        AAAAwcybgD4AAIA/AAAAAAAAgD8AAIA/AAAAPwAAgD8AAAAAVkVSQkdFTgAYAAAAAAAAAJHgV0QdrLRA3rK7QsHIjEIAAIC/RUNIT0dFTgAcAAAAy/i2QLUjdUJdzdM/
        osdfP5lRrzyRzYxAnMQAPw==
        AHN3ZWV0dmVyYm8AAAAAAA==
      >
      PRESETNAME sweetverbo
      FLOATPOS 0 0 0 0
      FXID {78F4673F-BD80-EA3E-5342-2AC649D5180E}
      WAK 0 0
    >
    <ITEM
      POSITION 0
      SNAPOFFS 0
      LENGTH 8
      LOOP 1
      ALLTAKES 0
      FADEIN 1 0 0 1 0 0
      FADEOUT 1 0 0 1 0 0
      MUTE 0
      SEL 1
      IGUID {1585288D-ACB1-C1FA-30CF-824092185241}
      IID 10
      NAME "01-Recorded MIDI"
      VOLPAN 1 0 1 -1
      SOFFS 0 0
      PLAYRATE 1 1 0 -1 0 0.0021
      CHANMODE 0
      GUID {12588A47-B60B-64E9-FCEA-E87B74B3E063}
      RECPASS 1
      <SOURCE MIDI
        HASDATA 1 960 QN
        CCINTERP 32
        POOLEDEVTS {1EFB8D39-6C88-4F05-0120-F829C5C780EC}
        E 0 90 3c 48
        E 0 90 40 48
        E 0 90 43 48
        E 1920 80 3c 00
        E 0 80 40 00
        E 0 80 43 00
        E 0 90 3c 48
        E 0 90 40 48
        E 0 90 43 48
        E 260 80 3c 00
        E 0 80 40 00
        E 0 80 43 00
        E 440 90 3c 48
        E 0 90 40 48
        E 0 90 43 48
        E 260 80 3c 00
        E 0 80 40 00
        E 0 80 43 00
        e 514 90 3c 48
        e 0 90 40 48
        e 0 90 43 48
        e 260 80 3c 00
        e 0 80 40 00
        e 0 80 43 00
        E 186 90 43 48
        E 0 90 47 48
        E 20 90 40 48
        E 1900 80 43 00
        E 0 80 47 00
        E 0 80 40 00
        E 0 90 43 48
        E 0 90 47 48
        E 20 90 40 48
        E 240 80 43 00
        E 0 80 47 00
        E 0 80 40 00
        E 440 90 43 48
        E 0 90 47 48
        E 20 90 40 48
        E 240 80 43 00
        E 0 80 47 00
        E 0 80 40 00
        e 514 90 43 48
        e 0 90 47 48
        e 20 90 40 48
        e 240 80 43 00
        e 0 80 47 00
        e 0 80 40 00
        E 186 90 41 48
        E 0 90 45 48
        E 0 90 48 48
        E 1920 80 41 00
        E 0 80 45 00
        E 0 80 48 00
        E 0 90 41 48
        E 0 90 45 48
        E 0 90 48 48
        E 260 80 41 00
        E 0 80 45 00
        E 0 80 48 00
        E 440 90 41 48
        E 0 90 45 48
        E 0 90 48 48
        E 260 80 41 00
        E 0 80 45 00
        E 0 80 48 00
        e 514 90 41 48
        e 0 90 45 48
        e 0 90 48 48
        e 260 80 41 00
        e 0 80 45 00
        e 0 80 48 00
        E 162 90 3e 48
        E 24 90 41 48
        E 0 90 45 48
        E 1896 90 3e 48
        E 24 80 3e 00
        E 0 80 41 00
        E 0 80 45 00
        E 0 90 41 48
        E 0 90 45 48
        E 260 80 3e 00
        E 0 80 41 00
        E 0 80 45 00
        E 416 90 3e 48
        E 24 90 41 48
        E 0 90 45 48
        E 260 80 3e 00
        E 0 80 41 00
        E 0 80 45 00
        e 490 90 3e 48
        e 24 90 41 48
        e 0 90 45 48
        e 260 80 3e 00
        e 0 80 41 00
        e 0 80 45 00
        E 186 b0 7b 00
        CHASE_CC_TAKEOFFS 1
        GUID {7B9D708B-43E1-C8D4-C4B3-87E2A6C27801}
        IGNTEMPO 0 120 4 4
        SRCCOLOR 17
        VELLANE -1 100 0
        CFGEDITVIEW 0 0.045808 45 12 0 -1 0 0 0 0.5
        KEYSNAP 0
        TRACKSEL 0
        EVTFILTER 0 -1 -1 -1 -1 0 0 0 0 -1 -1 -1 -1 0 -1 0 -1 -1
        CFGEDIT 1 1 0 1 0 0 1 1 1 1 1 1 58 171 1253 866 0 0 0 0 0.25 0 0 0 0 0.5 0 0 1 64
      >
    >
    <ITEM
      POSITION 8
      SNAPOFFS 0
      LENGTH 8
      LOOP 1
      ALLTAKES 0
      FADEIN 1 0 0 1 0 0
      FADEOUT 1 0 0 1 0 0
      MUTE 0
      SEL 1
      IGUID {057C6EED-7C03-3BA6-A0E3-3566D41FDBB3}
      IID 11
      NAME "01-Recorded MIDI"
      VOLPAN 1 0 1 -1
      SOFFS 0 0
      PLAYRATE 1 1 0 -1 0 0.0021
      CHANMODE 0
      GUID {0AF87ACA-5195-BFF2-261A-A31F3A681178}
      RECPASS 1
      <SOURCE MIDI
        HASDATA 1 960 QN
        CCINTERP 32
        POOLEDEVTS {73FC01D1-4724-C373-50BD-ABF9E7106540}
        E 0 90 3c 48
        E 0 90 40 48
        E 0 90 43 48
        E 1920 80 3c 00
        E 0 80 40 00
        E 0 80 43 00
        E 0 90 3c 48
        E 0 90 40 48
        E 0 90 43 48
        E 260 80 3c 00
        E 0 80 40 00
        E 0 80 43 00
        E 440 90 3c 48
        E 0 90 40 48
        E 0 90 43 48
        E 260 80 3c 00
        E 0 80 40 00
        E 0 80 43 00
        e 514 90 3c 48
        e 0 90 40 48
        e 0 90 43 48
        e 260 80 3c 00
        e 0 80 40 00
        e 0 80 43 00
        E 186 90 43 48
        E 0 90 47 48
        E 20 90 40 48
        E 1900 80 43 00
        E 0 80 47 00
        E 0 80 40 00
        E 0 90 43 48
        E 0 90 47 48
        E 20 90 40 48
        E 240 80 43 00
        E 0 80 47 00
        E 0 80 40 00
        E 440 90 43 48
        E 0 90 47 48
        E 20 90 40 48
        E 240 80 43 00
        E 0 80 47 00
        E 0 80 40 00
        e 514 90 43 48
        e 0 90 47 48
        e 20 90 40 48
        e 240 80 43 00
        e 0 80 47 00
        e 0 80 40 00
        E 186 90 41 48
        E 0 90 45 48
        E 0 90 48 48
        E 1920 80 41 00
        E 0 80 45 00
        E 0 80 48 00
        E 0 90 41 48
        E 0 90 45 48
        E 0 90 48 48
        E 260 80 41 00
        E 0 80 45 00
        E 0 80 48 00
        E 440 90 41 48
        E 0 90 45 48
        E 0 90 48 48
        E 260 80 41 00
        E 0 80 45 00
        E 0 80 48 00
        e 514 90 41 48
        e 0 90 45 48
        e 0 90 48 48
        e 260 80 41 00
        e 0 80 45 00
        e 0 80 48 00
        E 162 90 3e 48
        E 24 90 41 48
        E 0 90 45 48
        E 1896 90 3e 48
        E 24 80 3e 00
        E 0 80 41 00
        E 0 80 45 00
        E 0 90 41 48
        E 0 90 45 48
        E 260 80 3e 00
        E 0 80 41 00
        E 0 80 45 00
        E 416 90 3e 48
        E 24 90 41 48
        E 0 90 45 48
        E 260 80 3e 00
        E 0 80 41 00
        E 0 80 45 00
        e 490 90 3e 48
        e 24 90 41 48
        e 0 90 45 48
        e 260 80 3e 00
        e 0 80 41 00
        e 0 80 45 00
        E 186 b0 7b 00
        CHASE_CC_TAKEOFFS 1
        GUID {3131B4E2-B370-E352-A9C5-C8CA31551A86}
        IGNTEMPO 0 120 4 4
        SRCCOLOR 18
        VELLANE -1 100 0
        CFGEDITVIEW 0 0.045808 45 12 0 -1 0 0 0 0.5
        KEYSNAP 0
        TRACKSEL 0
        EVTFILTER 0 -1 -1 -1 -1 0 0 0 0 -1 -1 -1 -1 0 -1 0 -1 -1
        CFGEDIT 1 1 0 1 0 0 1 1 1 1 1 1 58 171 1253 866 0 0 0 0 0.25 0 0 0 0 0.5 0 0 1 64
      >
    >
    <ITEM
      POSITION 16
      SNAPOFFS 0
      LENGTH 8
      LOOP 1
      ALLTAKES 0
      FADEIN 1 0 0 1 0 0
      FADEOUT 1 0 0 1 0 0
      MUTE 0
      SEL 1
      IGUID {43BD1F1D-7513-ED2C-1695-91AD0C10FD37}
      IID 12
      NAME "01-Recorded MIDI"
      VOLPAN 1 0 1 -1
      SOFFS 0 0
      PLAYRATE 1 1 0 -1 0 0.0021
      CHANMODE 0
      GUID {19927DA3-547A-EED7-F6FB-C2CB0F39DB6F}
      RECPASS 1
      <SOURCE MIDI
        HASDATA 1 960 QN
        CCINTERP 32
        POOLEDEVTS {1A0E1383-1EDC-22B0-AC6B-66792F005064}
        E 0 90 3c 48
        E 0 90 40 48
        E 0 90 43 48
        E 1920 80 3c 00
        E 0 80 40 00
        E 0 80 43 00
        E 0 90 3c 48
        E 0 90 40 48
        E 0 90 43 48
        E 260 80 3c 00
        E 0 80 40 00
        E 0 80 43 00
        E 440 90 3c 48
        E 0 90 40 48
        E 0 90 43 48
        E 260 80 3c 00
        E 0 80 40 00
        E 0 80 43 00
        e 514 90 3c 48
        e 0 90 40 48
        e 0 90 43 48
        e 260 80 3c 00
        e 0 80 40 00
        e 0 80 43 00
        E 186 90 43 48
        E 0 90 47 48
        E 20 90 40 48
        E 1900 80 43 00
        E 0 80 47 00
        E 0 80 40 00
        E 0 90 43 48
        E 0 90 47 48
        E 20 90 40 48
        E 240 80 43 00
        E 0 80 47 00
        E 0 80 40 00
        E 440 90 43 48
        E 0 90 47 48
        E 20 90 40 48
        E 240 80 43 00
        E 0 80 47 00
        E 0 80 40 00
        e 514 90 43 48
        e 0 90 47 48
        e 20 90 40 48
        e 240 80 43 00
        e 0 80 47 00
        e 0 80 40 00
        E 186 90 41 48
        E 0 90 45 48
        E 0 90 48 48
        E 1920 80 41 00
        E 0 80 45 00
        E 0 80 48 00
        E 0 90 41 48
        E 0 90 45 48
        E 0 90 48 48
        E 260 80 41 00
        E 0 80 45 00
        E 0 80 48 00
        E 440 90 41 48
        E 0 90 45 48
        E 0 90 48 48
        E 260 80 41 00
        E 0 80 45 00
        E 0 80 48 00
        e 514 90 41 48
        e 0 90 45 48
        e 0 90 48 48
        e 260 80 41 00
        e 0 80 45 00
        e 0 80 48 00
        E 162 90 3e 48
        E 24 90 41 48
        E 0 90 45 48
        E 1896 90 3e 48
        E 24 80 3e 00
        E 0 80 41 00
        E 0 80 45 00
        E 0 90 41 48
        E 0 90 45 48
        E 260 80 3e 00
        E 0 80 41 00
        E 0 80 45 00
        E 416 90 3e 48
        E 24 90 41 48
        E 0 90 45 48
        E 260 80 3e 00
        E 0 80 41 00
        E 0 80 45 00
        e 490 90 3e 48
        e 24 90 41 48
        e 0 90 45 48
        e 260 80 3e 00
        e 0 80 41 00
        e 0 80 45 00
        E 186 b0 7b 00
        CHASE_CC_TAKEOFFS 1
        GUID {48C567A2-895C-FB9B-FDBA-0ADB7004ABF3}
        IGNTEMPO 0 120 4 4
        SRCCOLOR 19
        VELLANE -1 100 0
        CFGEDITVIEW 0 0.045808 45 12 0 -1 0 0 0 0.5
        KEYSNAP 0
        TRACKSEL 0
        EVTFILTER 0 -1 -1 -1 -1 0 0 0 0 -1 -1 -1 -1 0 -1 0 -1 -1
        CFGEDIT 1 1 0 1 0 0 1 1 1 1 1 1 58 171 1253 866 0 0 0 0 0.25 0 0 0 0 0.5 0 0 1 64
      >
    >
    <ITEM
      POSITION 24
      SNAPOFFS 0
      LENGTH 8
      LOOP 1
      ALLTAKES 0
      FADEIN 1 0 0 1 0 0
      FADEOUT 1 0 0 1 0 0
      MUTE 0
      SEL 1
      IGUID {6AEF0575-091A-7129-9E6B-594EA1483194}
      IID 13
      NAME "01-Recorded MIDI"
      VOLPAN 1 0 1 -1
      SOFFS 0 0
      PLAYRATE 1 1 0 -1 0 0.0021
      CHANMODE 0
      GUID {C9FF5122-3475-1550-725C-F07E027D7F4B}
      RECPASS 1
      <SOURCE MIDI
        HASDATA 1 960 QN
        CCINTERP 32
        POOLEDEVTS {FBA4D5FE-4975-E817-B0DB-1B8D61732680}
        E 0 90 3c 48
        E 0 90 40 48
        E 0 90 43 48
        E 1920 80 3c 00
        E 0 80 40 00
        E 0 80 43 00
        E 0 90 3c 48
        E 0 90 40 48
        E 0 90 43 48
        E 260 80 3c 00
        E 0 80 40 00
        E 0 80 43 00
        E 440 90 3c 48
        E 0 90 40 48
        E 0 90 43 48
        E 260 80 3c 00
        E 0 80 40 00
        E 0 80 43 00
        e 514 90 3c 48
        e 0 90 40 48
        e 0 90 43 48
        e 260 80 3c 00
        e 0 80 40 00
        e 0 80 43 00
        E 186 90 43 48
        E 0 90 47 48
        E 20 90 40 48
        E 1900 80 43 00
        E 0 80 47 00
        E 0 80 40 00
        E 0 90 43 48
        E 0 90 47 48
        E 20 90 40 48
        E 240 80 43 00
        E 0 80 47 00
        E 0 80 40 00
        E 440 90 43 48
        E 0 90 47 48
        E 20 90 40 48
        E 240 80 43 00
        E 0 80 47 00
        E 0 80 40 00
        e 514 90 43 48
        e 0 90 47 48
        e 20 90 40 48
        e 240 80 43 00
        e 0 80 47 00
        e 0 80 40 00
        E 186 90 41 48
        E 0 90 45 48
        E 0 90 48 48
        E 1920 80 41 00
        E 0 80 45 00
        E 0 80 48 00
        E 0 90 41 48
        E 0 90 45 48
        E 0 90 48 48
        E 260 80 41 00
        E 0 80 45 00
        E 0 80 48 00
        E 440 90 41 48
        E 0 90 45 48
        E 0 90 48 48
        E 260 80 41 00
        E 0 80 45 00
        E 0 80 48 00
        e 514 90 41 48
        e 0 90 45 48
        e 0 90 48 48
        e 260 80 41 00
        e 0 80 45 00
        e 0 80 48 00
        E 162 90 3e 48
        E 24 90 41 48
        E 0 90 45 48
        E 1896 90 3e 48
        E 24 80 3e 00
        E 0 80 41 00
        E 0 80 45 00
        E 0 90 41 48
        E 0 90 45 48
        E 260 80 3e 00
        E 0 80 41 00
        E 0 80 45 00
        E 416 90 3e 48
        E 24 90 41 48
        E 0 90 45 48
        E 260 80 3e 00
        E 0 80 41 00
        E 0 80 45 00
        e 490 90 3e 48
        e 24 90 41 48
        e 0 90 45 48
        e 260 80 3e 00
        e 0 80 41 00
        e 0 80 45 00
        E 186 b0 7b 00
        CHASE_CC_TAKEOFFS 1
        GUID {1DE38800-E2A1-41B5-9C8C-3291891093B1}
        IGNTEMPO 0 120 4 4
        SRCCOLOR 20
        VELLANE -1 100 0
        CFGEDITVIEW 0 0.045808 45 12 0 -1 0 0 0 0.5
        KEYSNAP 0
        TRACKSEL 0
        EVTFILTER 0 -1 -1 -1 -1 0 0 0 0 -1 -1 -1 -1 0 -1 0 -1 -1
        CFGEDIT 1 1 0 1 0 0 1 1 1 1 1 1 58 171 1253 866 0 0 0 0 0.25 0 0 0 0 0.5 0 0 1 64
      >
    >
    <ITEM
      POSITION 32
      SNAPOFFS 0
      LENGTH 8
      LOOP 1
      ALLTAKES 0
      FADEIN 1 0 0 1 0 0
      FADEOUT 1 0 0 1 0 0
      MUTE 0
      SEL 1
      IGUID {2FDAE80F-AD6D-E7DA-3280-3B22E4486DA4}
      IID 14
      NAME "01-Recorded MIDI"
      VOLPAN 1 0 1 -1
      SOFFS 0 0
      PLAYRATE 1 1 0 -1 0 0.0021
      CHANMODE 0
      GUID {07C6AA10-C006-3DE5-7627-EAE65E95FF4C}
      RECPASS 1
      <SOURCE MIDI
        HASDATA 1 960 QN
        CCINTERP 32
        POOLEDEVTS {DCF69B82-6C7D-6D8C-9D9E-D1ADB2E5A03E}
        E 0 90 3c 48
        E 0 90 40 48
        E 0 90 43 48
        E 1920 80 3c 00
        E 0 80 40 00
        E 0 80 43 00
        E 0 90 3c 48
        E 0 90 40 48
        E 0 90 43 48
        E 260 80 3c 00
        E 0 80 40 00
        E 0 80 43 00
        E 440 90 3c 48
        E 0 90 40 48
        E 0 90 43 48
        E 260 80 3c 00
        E 0 80 40 00
        E 0 80 43 00
        e 514 90 3c 48
        e 0 90 40 48
        e 0 90 43 48
        e 260 80 3c 00
        e 0 80 40 00
        e 0 80 43 00
        E 186 90 43 48
        E 0 90 47 48
        E 20 90 40 48
        E 1900 80 43 00
        E 0 80 47 00
        E 0 80 40 00
        E 0 90 43 48
        E 0 90 47 48
        E 20 90 40 48
        E 240 80 43 00
        E 0 80 47 00
        E 0 80 40 00
        E 440 90 43 48
        E 0 90 47 48
        E 20 90 40 48
        E 240 80 43 00
        E 0 80 47 00
        E 0 80 40 00
        e 514 90 43 48
        e 0 90 47 48
        e 20 90 40 48
        e 240 80 43 00
        e 0 80 47 00
        e 0 80 40 00
        E 186 90 41 48
        E 0 90 45 48
        E 0 90 48 48
        E 1920 80 41 00
        E 0 80 45 00
        E 0 80 48 00
        E 0 90 41 48
        E 0 90 45 48
        E 0 90 48 48
        E 260 80 41 00
        E 0 80 45 00
        E 0 80 48 00
        E 440 90 41 48
        E 0 90 45 48
        E 0 90 48 48
        E 260 80 41 00
        E 0 80 45 00
        E 0 80 48 00
        e 514 90 41 48
        e 0 90 45 48
        e 0 90 48 48
        e 260 80 41 00
        e 0 80 45 00
        e 0 80 48 00
        E 162 90 3e 48
        E 24 90 41 48
        E 0 90 45 48
        E 1896 90 3e 48
        E 24 80 3e 00
        E 0 80 41 00
        E 0 80 45 00
        E 0 90 41 48
        E 0 90 45 48
        E 260 80 3e 00
        E 0 80 41 00
        E 0 80 45 00
        E 416 90 3e 48
        E 24 90 41 48
        E 0 90 45 48
        E 260 80 3e 00
        E 0 80 41 00
        E 0 80 45 00
        e 490 90 3e 48
        e 24 90 41 48
        e 0 90 45 48
        e 260 80 3e 00
        e 0 80 41 00
        e 0 80 45 00
        E 186 b0 7b 00
        CHASE_CC_TAKEOFFS 1
        GUID {0C3271F4-E233-9088-9B25-A722FAE7C579}
        IGNTEMPO 0 120 4 4
        SRCCOLOR 21
        VELLANE -1 100 0
        CFGEDITVIEW 0 0.045808 45 12 0 -1 0 0 0 0.5
        KEYSNAP 0
        TRACKSEL 0
        EVTFILTER 0 -1 -1 -1 -1 0 0 0 0 -1 -1 -1 -1 0 -1 0 -1 -1
        CFGEDIT 1 1 0 1 0 0 1 1 1 1 1 1 58 171 1253 866 0 0 0 0 0.25 0 0 0 0 0.5 0 0 1 64
      >
    >
    <ITEM
      POSITION 40
      SNAPOFFS 0
      LENGTH 8
      LOOP 1
      ALLTAKES 0
      FADEIN 1 0 0 1 0 0
      FADEOUT 1 0 0 1 0 0
      MUTE 0
      SEL 1
      IGUID {9DBFA313-286D-481F-F28A-4FC65D5D6EAE}
      IID 15
      NAME "01-Recorded MIDI"
      VOLPAN 1 0 1 -1
      SOFFS 0 0
      PLAYRATE 1 1 0 -1 0 0.0021
      CHANMODE 0
      GUID {7CFAD28C-0B47-DBCC-E1B6-A4D780BABA44}
      RECPASS 1
      <SOURCE MIDI
        HASDATA 1 960 QN
        CCINTERP 32
        POOLEDEVTS {FAAD5F60-45BC-EEF0-E32F-AAFF6F67EC8A}
        E 0 90 3c 48
        E 0 90 40 48
        E 0 90 43 48
        E 1920 80 3c 00
        E 0 80 40 00
        E 0 80 43 00
        E 0 90 3c 48
        E 0 90 40 48
        E 0 90 43 48
        E 260 80 3c 00
        E 0 80 40 00
        E 0 80 43 00
        E 440 90 3c 48
        E 0 90 40 48
        E 0 90 43 48
        E 260 80 3c 00
        E 0 80 40 00
        E 0 80 43 00
        e 514 90 3c 48
        e 0 90 40 48
        e 0 90 43 48
        e 260 80 3c 00
        e 0 80 40 00
        e 0 80 43 00
        E 186 90 43 48
        E 0 90 47 48
        E 20 90 40 48
        E 1900 80 43 00
        E 0 80 47 00
        E 0 80 40 00
        E 0 90 43 48
        E 0 90 47 48
        E 20 90 40 48
        E 240 80 43 00
        E 0 80 47 00
        E 0 80 40 00
        E 440 90 43 48
        E 0 90 47 48
        E 20 90 40 48
        E 240 80 43 00
        E 0 80 47 00
        E 0 80 40 00
        e 514 90 43 48
        e 0 90 47 48
        e 20 90 40 48
        e 240 80 43 00
        e 0 80 47 00
        e 0 80 40 00
        E 186 90 41 48
        E 0 90 45 48
        E 0 90 48 48
        E 1920 80 41 00
        E 0 80 45 00
        E 0 80 48 00
        E 0 90 41 48
        E 0 90 45 48
        E 0 90 48 48
        E 260 80 41 00
        E 0 80 45 00
        E 0 80 48 00
        E 440 90 41 48
        E 0 90 45 48
        E 0 90 48 48
        E 260 80 41 00
        E 0 80 45 00
        E 0 80 48 00
        e 514 90 41 48
        e 0 90 45 48
        e 0 90 48 48
        e 260 80 41 00
        e 0 80 45 00
        e 0 80 48 00
        E 162 90 3e 48
        E 24 90 41 48
        E 0 90 45 48
        E 1896 90 3e 48
        E 24 80 3e 00
        E 0 80 41 00
        E 0 80 45 00
        E 0 90 41 48
        E 0 90 45 48
        E 260 80 3e 00
        E 0 80 41 00
        E 0 80 45 00
        E 416 90 3e 48
        E 24 90 41 48
        E 0 90 45 48
        E 260 80 3e 00
        E 0 80 41 00
        E 0 80 45 00
        e 490 90 3e 48
        e 24 90 41 48
        e 0 90 45 48
        e 260 80 3e 00
        e 0 80 41 00
        e 0 80 45 00
        E 186 b0 7b 00
        CHASE_CC_TAKEOFFS 1
        GUID {040E7AF8-3572-5D91-3C86-797AEE7444D4}
        IGNTEMPO 0 120 4 4
        SRCCOLOR 22
        VELLANE -1 100 0
        CFGEDITVIEW 0 0.045808 45 12 0 -1 0 0 0 0.5
        KEYSNAP 0
        TRACKSEL 0
        EVTFILTER 0 -1 -1 -1 -1 0 0 0 0 -1 -1 -1 -1 0 -1 0 -1 -1
        CFGEDIT 1 1 0 1 0 0 1 1 1 1 1 1 58 171 1253 866 0 0 0 0 0.25 0 0 0 0 0.5 0 0 1 64
      >
    >
    <ITEM
      POSITION 48
      SNAPOFFS 0
      LENGTH 8
      LOOP 1
      ALLTAKES 0
      FADEIN 1 0 0 1 0 0
      FADEOUT 1 0 0 1 0 0
      MUTE 0
      SEL 1
      IGUID {D031652A-8636-5461-A673-4549330CBC9F}
      IID 16
      NAME "01-Recorded MIDI"
      VOLPAN 1 0 1 -1
      SOFFS 0 0
      PLAYRATE 1 1 0 -1 0 0.0021
      CHANMODE 0
      GUID {35CD87F6-E628-73B1-C8BE-1CAF05C006B1}
      RECPASS 1
      <SOURCE MIDI
        HASDATA 1 960 QN
        CCINTERP 32
        POOLEDEVTS {C0E650E4-E24F-B1E7-641C-C02CF8F8E236}
        E 0 90 3c 48
        E 0 90 40 48
        E 0 90 43 48
        E 1920 80 3c 00
        E 0 80 40 00
        E 0 80 43 00
        E 0 90 3c 48
        E 0 90 40 48
        E 0 90 43 48
        E 260 80 3c 00
        E 0 80 40 00
        E 0 80 43 00
        E 440 90 3c 48
        E 0 90 40 48
        E 0 90 43 48
        E 260 80 3c 00
        E 0 80 40 00
        E 0 80 43 00
        e 514 90 3c 48
        e 0 90 40 48
        e 0 90 43 48
        e 260 80 3c 00
        e 0 80 40 00
        e 0 80 43 00
        E 186 90 43 48
        E 0 90 47 48
        E 20 90 40 48
        E 1900 80 43 00
        E 0 80 47 00
        E 0 80 40 00
        E 0 90 43 48
        E 0 90 47 48
        E 20 90 40 48
        E 240 80 43 00
        E 0 80 47 00
        E 0 80 40 00
        E 440 90 43 48
        E 0 90 47 48
        E 20 90 40 48
        E 240 80 43 00
        E 0 80 47 00
        E 0 80 40 00
        e 514 90 43 48
        e 0 90 47 48
        e 20 90 40 48
        e 240 80 43 00
        e 0 80 47 00
        e 0 80 40 00
        E 186 90 41 48
        E 0 90 45 48
        E 0 90 48 48
        E 1920 80 41 00
        E 0 80 45 00
        E 0 80 48 00
        E 0 90 41 48
        E 0 90 45 48
        E 0 90 48 48
        E 260 80 41 00
        E 0 80 45 00
        E 0 80 48 00
        E 440 90 41 48
        E 0 90 45 48
        E 0 90 48 48
        E 260 80 41 00
        E 0 80 45 00
        E 0 80 48 00
        e 514 90 41 48
        e 0 90 45 48
        e 0 90 48 48
        e 260 80 41 00
        e 0 80 45 00
        e 0 80 48 00
        E 162 90 3e 48
        E 24 90 41 48
        E 0 90 45 48
        E 1896 90 3e 48
        E 24 80 3e 00
        E 0 80 41 00
        E 0 80 45 00
        E 0 90 41 48
        E 0 90 45 48
        E 260 80 3e 00
        E 0 80 41 00
        E 0 80 45 00
        E 416 90 3e 48
        E 24 90 41 48
        E 0 90 45 48
        E 260 80 3e 00
        E 0 80 41 00
        E 0 80 45 00
        e 490 90 3e 48
        e 24 90 41 48
        e 0 90 45 48
        e 260 80 3e 00
        e 0 80 41 00
        e 0 80 45 00
        E 186 b0 7b 00
        CHASE_CC_TAKEOFFS 1
        GUID {2338968B-6CF9-9F40-300F-DEB89D3392EA}
        IGNTEMPO 0 120 4 4
        SRCCOLOR 23
        VELLANE -1 100 0
        CFGEDITVIEW 0 0.045808 45 12 0 -1 0 0 0 0.5
        KEYSNAP 0
        TRACKSEL 0
        EVTFILTER 0 -1 -1 -1 -1 0 0 0 0 -1 -1 -1 -1 0 -1 0 -1 -1
        CFGEDIT 1 1 0 1 0 0 1 1 1 1 1 1 58 171 1253 866 0 0 0 0 0.25 0 0 0 0 0.5 0 0 1 64
      >
    >
    <ITEM
      POSITION 56
      SNAPOFFS 0
      LENGTH 8
      LOOP 1
      ALLTAKES 0
      FADEIN 1 0 0 1 0 0
      FADEOUT 1 0 0 1 0 0
      MUTE 0
      SEL 1
      IGUID {CA8C2936-2566-4C08-97B8-2EB9FD2B1C04}
      IID 17
      NAME "01-Recorded MIDI"
      VOLPAN 1 0 1 -1
      SOFFS 0 0
      PLAYRATE 1 1 0 -1 0 0.0021
      CHANMODE 0
      GUID {048024A8-2E13-DB0A-3AAC-48C08B0F4BDA}
      RECPASS 1
      <SOURCE MIDI
        HASDATA 1 960 QN
        CCINTERP 32
        POOLEDEVTS {41F8E8BF-B1CE-4258-7560-E5FD7C65CDAA}
        E 0 90 3c 48
        E 0 90 40 48
        E 0 90 43 48
        E 1920 80 3c 00
        E 0 80 40 00
        E 0 80 43 00
        E 0 90 3c 48
        E 0 90 40 48
        E 0 90 43 48
        E 260 80 3c 00
        E 0 80 40 00
        E 0 80 43 00
        E 440 90 3c 48
        E 0 90 40 48
        E 0 90 43 48
        E 260 80 3c 00
        E 0 80 40 00
        E 0 80 43 00
        e 514 90 3c 48
        e 0 90 40 48
        e 0 90 43 48
        e 260 80 3c 00
        e 0 80 40 00
        e 0 80 43 00
        E 186 90 43 48
        E 0 90 47 48
        E 20 90 40 48
        E 1900 80 43 00
        E 0 80 47 00
        E 0 80 40 00
        E 0 90 43 48
        E 0 90 47 48
        E 20 90 40 48
        E 240 80 43 00
        E 0 80 47 00
        E 0 80 40 00
        E 440 90 43 48
        E 0 90 47 48
        E 20 90 40 48
        E 240 80 43 00
        E 0 80 47 00
        E 0 80 40 00
        e 514 90 43 48
        e 0 90 47 48
        e 20 90 40 48
        e 240 80 43 00
        e 0 80 47 00
        e 0 80 40 00
        E 186 90 41 48
        E 0 90 45 48
        E 0 90 48 48
        E 1920 80 41 00
        E 0 80 45 00
        E 0 80 48 00
        E 0 90 41 48
        E 0 90 45 48
        E 0 90 48 48
        E 260 80 41 00
        E 0 80 45 00
        E 0 80 48 00
        E 440 90 41 48
        E 0 90 45 48
        E 0 90 48 48
        E 260 80 41 00
        E 0 80 45 00
        E 0 80 48 00
        e 514 90 41 48
        e 0 90 45 48
        e 0 90 48 48
        e 260 80 41 00
        e 0 80 45 00
        e 0 80 48 00
        E 162 90 3e 48
        E 24 90 41 48
        E 0 90 45 48
        E 1896 90 3e 48
        E 24 80 3e 00
        E 0 80 41 00
        E 0 80 45 00
        E 0 90 41 48
        E 0 90 45 48
        E 260 80 3e 00
        E 0 80 41 00
        E 0 80 45 00
        E 416 90 3e 48
        E 24 90 41 48
        E 0 90 45 48
        E 260 80 3e 00
        E 0 80 41 00
        E 0 80 45 00
        e 490 90 3e 48
        e 24 90 41 48
        e 0 90 45 48
        e 260 80 3e 00
        e 0 80 41 00
        e 0 80 45 00
        E 186 b0 7b 00
        CHASE_CC_TAKEOFFS 1
        GUID {A64857E2-94F8-0990-20DF-4C1E9B5E6251}
        IGNTEMPO 0 120 4 4
        SRCCOLOR 24
        VELLANE -1 100 0
        CFGEDITVIEW 0 0.045808 45 12 0 -1 0 0 0 0.5
        KEYSNAP 0
        TRACKSEL 0
        EVTFILTER 0 -1 -1 -1 -1 0 0 0 0 -1 -1 -1 -1 0 -1 0 -1 -1
        CFGEDIT 1 1 0 1 0 0 1 1 1 1 1 1 58 171 1253 866 0 0 0 0 0.25 0 0 0 0 0.5 0 0 1 64
      >
    >
    <ITEM
      POSITION 64
      SNAPOFFS 0
      LENGTH 8
      LOOP 1
      ALLTAKES 0
      FADEIN 1 0 0 1 0 0
      FADEOUT 1 0 0 1 0 0
      MUTE 0
      SEL 1
      IGUID {6728C7F1-AEA0-6A33-9ED1-DA10E0FD182A}
      IID 18
      NAME "01-Recorded MIDI"
      VOLPAN 1 0 1 -1
      SOFFS 0 0
      PLAYRATE 1 1 0 -1 0 0.0021
      CHANMODE 0
      GUID {03F81559-C2CA-F91E-B388-D9DBA7B9C560}
      RECPASS 1
      <SOURCE MIDI
        HASDATA 1 960 QN
        CCINTERP 32
        POOLEDEVTS {9576525C-BC5E-9582-0CD9-0B9E9D9E45F7}
        E 0 90 3c 48
        E 0 90 40 48
        E 0 90 43 48
        E 1920 80 3c 00
        E 0 80 40 00
        E 0 80 43 00
        E 0 90 3c 48
        E 0 90 40 48
        E 0 90 43 48
        E 260 80 3c 00
        E 0 80 40 00
        E 0 80 43 00
        E 440 90 3c 48
        E 0 90 40 48
        E 0 90 43 48
        E 260 80 3c 00
        E 0 80 40 00
        E 0 80 43 00
        e 514 90 3c 48
        e 0 90 40 48
        e 0 90 43 48
        e 260 80 3c 00
        e 0 80 40 00
        e 0 80 43 00
        E 186 90 43 48
        E 0 90 47 48
        E 20 90 40 48
        E 1900 80 43 00
        E 0 80 47 00
        E 0 80 40 00
        E 0 90 43 48
        E 0 90 47 48
        E 20 90 40 48
        E 240 80 43 00
        E 0 80 47 00
        E 0 80 40 00
        E 440 90 43 48
        E 0 90 47 48
        E 20 90 40 48
        E 240 80 43 00
        E 0 80 47 00
        E 0 80 40 00
        e 514 90 43 48
        e 0 90 47 48
        e 20 90 40 48
        e 240 80 43 00
        e 0 80 47 00
        e 0 80 40 00
        E 186 90 41 48
        E 0 90 45 48
        E 0 90 48 48
        E 1920 80 41 00
        E 0 80 45 00
        E 0 80 48 00
        E 0 90 41 48
        E 0 90 45 48
        E 0 90 48 48
        E 260 80 41 00
        E 0 80 45 00
        E 0 80 48 00
        E 440 90 41 48
        E 0 90 45 48
        E 0 90 48 48
        E 260 80 41 00
        E 0 80 45 00
        E 0 80 48 00
        e 514 90 41 48
        e 0 90 45 48
        e 0 90 48 48
        e 260 80 41 00
        e 0 80 45 00
        e 0 80 48 00
        E 162 90 3e 48
        E 24 90 41 48
        E 0 90 45 48
        E 1896 90 3e 48
        E 24 80 3e 00
        E 0 80 41 00
        E 0 80 45 00
        E 0 90 41 48
        E 0 90 45 48
        E 260 80 3e 00
        E 0 80 41 00
        E 0 80 45 00
        E 416 90 3e 48
        E 24 90 41 48
        E 0 90 45 48
        E 260 80 3e 00
        E 0 80 41 00
        E 0 80 45 00
        e 490 90 3e 48
        e 24 90 41 48
        e 0 90 45 48
        e 260 80 3e 00
        e 0 80 41 00
        e 0 80 45 00
        E 186 b0 7b 00
        CHASE_CC_TAKEOFFS 1
        GUID {19362806-85F2-5D9E-E1F9-07BE0CF3D16E}
        IGNTEMPO 0 120 4 4
        SRCCOLOR 25
        VELLANE -1 100 0
        CFGEDITVIEW 0 0.045808 45 12 0 -1 0 0 0 0.5
        KEYSNAP 0
        TRACKSEL 0
        EVTFILTER 0 -1 -1 -1 -1 0 0 0 0 -1 -1 -1 -1 0 -1 0 -1 -1
        CFGEDIT 1 1 0 1 0 0 1 1 1 1 1 1 58 171 1253 866 0 0 0 0 0.25 0 0 0 0 0.5 0 0 1 64
      >
    >
    <ITEM
      POSITION 72
      SNAPOFFS 0
      LENGTH 8
      LOOP 1
      ALLTAKES 0
      FADEIN 1 0 0 1 0 0
      FADEOUT 1 0 0 1 0 0
      MUTE 0
      SEL 1
      IGUID {B7D8B22D-B992-5177-F34F-8C50283C5475}
      IID 19
      NAME "01-Recorded MIDI"
      VOLPAN 1 0 1 -1
      SOFFS 0 0
      PLAYRATE 1 1 0 -1 0 0.0021
      CHANMODE 0
      GUID {ECC53517-3ED1-A043-3421-08A02821E83A}
      RECPASS 1
      <SOURCE MIDI
        HASDATA 1 960 QN
        CCINTERP 32
        POOLEDEVTS {F42EE529-A64A-3DD7-EC62-ED7844AE04F6}
        E 0 90 3c 48
        E 0 90 40 48
        E 0 90 43 48
        E 1920 80 3c 00
        E 0 80 40 00
        E 0 80 43 00
        E 0 90 3c 48
        E 0 90 40 48
        E 0 90 43 48
        E 260 80 3c 00
        E 0 80 40 00
        E 0 80 43 00
        E 440 90 3c 48
        E 0 90 40 48
        E 0 90 43 48
        E 260 80 3c 00
        E 0 80 40 00
        E 0 80 43 00
        e 514 90 3c 48
        e 0 90 40 48
        e 0 90 43 48
        e 260 80 3c 00
        e 0 80 40 00
        e 0 80 43 00
        E 186 90 43 48
        E 0 90 47 48
        E 20 90 40 48
        E 1900 80 43 00
        E 0 80 47 00
        E 0 80 40 00
        E 0 90 43 48
        E 0 90 47 48
        E 20 90 40 48
        E 240 80 43 00
        E 0 80 47 00
        E 0 80 40 00
        E 440 90 43 48
        E 0 90 47 48
        E 20 90 40 48
        E 240 80 43 00
        E 0 80 47 00
        E 0 80 40 00
        e 514 90 43 48
        e 0 90 47 48
        e 20 90 40 48
        e 240 80 43 00
        e 0 80 47 00
        e 0 80 40 00
        E 186 90 41 48
        E 0 90 45 48
        E 0 90 48 48
        E 1920 80 41 00
        E 0 80 45 00
        E 0 80 48 00
        E 0 90 41 48
        E 0 90 45 48
        E 0 90 48 48
        E 260 80 41 00
        E 0 80 45 00
        E 0 80 48 00
        E 440 90 41 48
        E 0 90 45 48
        E 0 90 48 48
        E 260 80 41 00
        E 0 80 45 00
        E 0 80 48 00
        e 514 90 41 48
        e 0 90 45 48
        e 0 90 48 48
        e 260 80 41 00
        e 0 80 45 00
        e 0 80 48 00
        E 162 90 3e 48
        E 24 90 41 48
        E 0 90 45 48
        E 1896 90 3e 48
        E 24 80 3e 00
        E 0 80 41 00
        E 0 80 45 00
        E 0 90 41 48
        E 0 90 45 48
        E 260 80 3e 00
        E 0 80 41 00
        E 0 80 45 00
        E 416 90 3e 48
        E 24 90 41 48
        E 0 90 45 48
        E 260 80 3e 00
        E 0 80 41 00
        E 0 80 45 00
        e 490 90 3e 48
        e 24 90 41 48
        e 0 90 45 48
        e 260 80 3e 00
        e 0 80 41 00
        e 0 80 45 00
        E 186 b0 7b 00
        CHASE_CC_TAKEOFFS 1
        GUID {6844F8A9-6BE9-023C-4A46-0A676470C99B}
        IGNTEMPO 0 120 4 4
        SRCCOLOR 26
        VELLANE -1 100 0
        CFGEDITVIEW 0 0.045808 45 12 0 -1 0 0 0 0.5
        KEYSNAP 0
        TRACKSEL 0
        EVTFILTER 0 -1 -1 -1 -1 0 0 0 0 -1 -1 -1 -1 0 -1 0 -1 -1
        CFGEDIT 1 1 0 1 0 0 1 1 1 1 1 1 58 171 1253 866 0 0 0 0 0.25 0 0 0 0 0.5 0 0 1 64
      >
    >
    <ITEM
      POSITION 80
      SNAPOFFS 0
      LENGTH 8
      LOOP 1
      ALLTAKES 0
      FADEIN 1 0 0 1 0 0
      FADEOUT 1 0 0 1 0 0
      MUTE 0
      SEL 1
      IGUID {8EEC5DE2-999F-1D0A-A422-A79A7622A22F}
      IID 20
      NAME "01-Recorded MIDI"
      VOLPAN 1 0 1 -1
      SOFFS 0 0
      PLAYRATE 1 1 0 -1 0 0.0021
      CHANMODE 0
      GUID {89FC3678-6A08-1909-978B-48CA6D71C037}
      RECPASS 1
      <SOURCE MIDI
        HASDATA 1 960 QN
        CCINTERP 32
        POOLEDEVTS {67B110B4-FAD6-4567-F2F8-89C021874FAB}
        E 0 90 3c 48
        E 0 90 40 48
        E 0 90 43 48
        E 1920 80 3c 00
        E 0 80 40 00
        E 0 80 43 00
        E 0 90 3c 48
        E 0 90 40 48
        E 0 90 43 48
        E 260 80 3c 00
        E 0 80 40 00
        E 0 80 43 00
        E 440 90 3c 48
        E 0 90 40 48
        E 0 90 43 48
        E 260 80 3c 00
        E 0 80 40 00
        E 0 80 43 00
        e 514 90 3c 48
        e 0 90 40 48
        e 0 90 43 48
        e 260 80 3c 00
        e 0 80 40 00
        e 0 80 43 00
        E 186 90 43 48
        E 0 90 47 48
        E 20 90 40 48
        E 1900 80 43 00
        E 0 80 47 00
        E 0 80 40 00
        E 0 90 43 48
        E 0 90 47 48
        E 20 90 40 48
        E 240 80 43 00
        E 0 80 47 00
        E 0 80 40 00
        E 440 90 43 48
        E 0 90 47 48
        E 20 90 40 48
        E 240 80 43 00
        E 0 80 47 00
        E 0 80 40 00
        e 514 90 43 48
        e 0 90 47 48
        e 20 90 40 48
        e 240 80 43 00
        e 0 80 47 00
        e 0 80 40 00
        E 186 90 41 48
        E 0 90 45 48
        E 0 90 48 48
        E 1920 80 41 00
        E 0 80 45 00
        E 0 80 48 00
        E 0 90 41 48
        E 0 90 45 48
        E 0 90 48 48
        E 260 80 41 00
        E 0 80 45 00
        E 0 80 48 00
        E 440 90 41 48
        E 0 90 45 48
        E 0 90 48 48
        E 260 80 41 00
        E 0 80 45 00
        E 0 80 48 00
        e 514 90 41 48
        e 0 90 45 48
        e 0 90 48 48
        e 260 80 41 00
        e 0 80 45 00
        e 0 80 48 00
        E 162 90 3e 48
        E 24 90 41 48
        E 0 90 45 48
        E 1896 90 3e 48
        E 24 80 3e 00
        E 0 80 41 00
        E 0 80 45 00
        E 0 90 41 48
        E 0 90 45 48
        E 260 80 3e 00
        E 0 80 41 00
        E 0 80 45 00
        E 416 90 3e 48
        E 24 90 41 48
        E 0 90 45 48
        E 260 80 3e 00
        E 0 80 41 00
        E 0 80 45 00
        e 490 90 3e 48
        e 24 90 41 48
        e 0 90 45 48
        e 260 80 3e 00
        e 0 80 41 00
        e 0 80 45 00
        E 186 b0 7b 00
        CHASE_CC_TAKEOFFS 1
        GUID {E611ADB6-4869-6CCA-8E83-3954D5E743B1}
        IGNTEMPO 0 120 4 4
        SRCCOLOR 27
        VELLANE -1 100 0
        CFGEDITVIEW 0 0.045808 45 12 0 -1 0 0 0 0.5
        KEYSNAP 0
        TRACKSEL 0
        EVTFILTER 0 -1 -1 -1 -1 0 0 0 0 -1 -1 -1 -1 0 -1 0 -1 -1
        CFGEDIT 1 1 0 1 0 0 1 1 1 1 1 1 58 171 1253 866 0 0 0 0 0.25 0 0 0 0 0.5 0 0 1 64
      >
    >
    <ITEM
      POSITION 88
      SNAPOFFS 0
      LENGTH 8
      LOOP 1
      ALLTAKES 0
      FADEIN 1 0 0 1 0 0
      FADEOUT 1 0 0 1 0 0
      MUTE 0
      SEL 1
      IGUID {E3A162BC-4359-47DA-C7B7-DD0723CBEE8D}
      IID 21
      NAME "01-Recorded MIDI"
      VOLPAN 1 0 1 -1
      SOFFS 0 0
      PLAYRATE 1 1 0 -1 0 0.0021
      CHANMODE 0
      GUID {FC62AC93-8EFC-E69A-774B-0F6811F34907}
      RECPASS 1
      <SOURCE MIDI
        HASDATA 1 960 QN
        CCINTERP 32
        POOLEDEVTS {C6506636-D42C-2E7E-30B9-EF4DB4F8B89E}
        E 0 90 3c 48
        E 0 90 40 48
        E 0 90 43 48
        E 1920 80 3c 00
        E 0 80 40 00
        E 0 80 43 00
        E 0 90 3c 48
        E 0 90 40 48
        E 0 90 43 48
        E 260 80 3c 00
        E 0 80 40 00
        E 0 80 43 00
        E 440 90 3c 48
        E 0 90 40 48
        E 0 90 43 48
        E 260 80 3c 00
        E 0 80 40 00
        E 0 80 43 00
        e 514 90 3c 48
        e 0 90 40 48
        e 0 90 43 48
        e 260 80 3c 00
        e 0 80 40 00
        e 0 80 43 00
        E 186 90 43 48
        E 0 90 47 48
        E 20 90 40 48
        E 1900 80 43 00
        E 0 80 47 00
        E 0 80 40 00
        E 0 90 43 48
        E 0 90 47 48
        E 20 90 40 48
        E 240 80 43 00
        E 0 80 47 00
        E 0 80 40 00
        E 440 90 43 48
        E 0 90 47 48
        E 20 90 40 48
        E 240 80 43 00
        E 0 80 47 00
        E 0 80 40 00
        e 514 90 43 48
        e 0 90 47 48
        e 20 90 40 48
        e 240 80 43 00
        e 0 80 47 00
        e 0 80 40 00
        E 186 90 41 48
        E 0 90 45 48
        E 0 90 48 48
        E 1920 80 41 00
        E 0 80 45 00
        E 0 80 48 00
        E 0 90 41 48
        E 0 90 45 48
        E 0 90 48 48
        E 260 80 41 00
        E 0 80 45 00
        E 0 80 48 00
        E 440 90 41 48
        E 0 90 45 48
        E 0 90 48 48
        E 260 80 41 00
        E 0 80 45 00
        E 0 80 48 00
        e 514 90 41 48
        e 0 90 45 48
        e 0 90 48 48
        e 260 80 41 00
        e 0 80 45 00
        e 0 80 48 00
        E 162 90 3e 48
        E 24 90 41 48
        E 0 90 45 48
        E 1896 90 3e 48
        E 24 80 3e 00
        E 0 80 41 00
        E 0 80 45 00
        E 0 90 41 48
        E 0 90 45 48
        E 260 80 3e 00
        E 0 80 41 00
        E 0 80 45 00
        E 416 90 3e 48
        E 24 90 41 48
        E 0 90 45 48
        E 260 80 3e 00
        E 0 80 41 00
        E 0 80 45 00
        e 490 90 3e 48
        e 24 90 41 48
        e 0 90 45 48
        e 260 80 3e 00
        e 0 80 41 00
        e 0 80 45 00
        E 186 b0 7b 00
        CHASE_CC_TAKEOFFS 1
        GUID {C762B555-17FC-D765-5340-11D3487D2955}
        IGNTEMPO 0 120 4 4
        SRCCOLOR 28
        VELLANE -1 100 0
        CFGEDITVIEW 0 0.045808 45 12 0 -1 0 0 0 0.5
        KEYSNAP 0
        TRACKSEL 0
        EVTFILTER 0 -1 -1 -1 -1 0 0 0 0 -1 -1 -1 -1 0 -1 0 -1 -1
        CFGEDIT 1 1 0 1 0 0 1 1 1 1 1 1 58 171 1253 866 0 0 0 0 0.25 0 0 0 0 0.5 0 0 1 64
      >
    >
  >
  <TRACK {7FB70D42-D4A4-4A8A-C044-9EB35B895847}
    NAME ""
    PEAKCOL 16576
    BEAT -1
    AUTOMODE 0
    VOLPAN 0.00052194381917 0 -1 -1 1
    MUTESOLO 0 0 0
    IPHASE 0
    PLAYOFFS 0 1
    ISBUS 0 0
    BUSCOMP 0 0 0 0 0
    SHOWINMIX 1 0.6667 0.5 1 0.5 0 0 0
    FREEMODE 0
    SEL 0
    REC 0 5056 1 0 0 0 0
    VU 2
    TRACKHEIGHT 21 0 0
    INQ 0 0 0 0.5 100 0 0 100
    NCHAN 2
    FX 0
    TRACKID {7FB70D42-D4A4-4A8A-C044-9EB35B895847}
    PERF 0
    MIDIOUT -1
    MAINSEND 1 0
    <FXCHAIN
      WNDRECT 346 266 902 608
      SHOW 0
      LASTSEL 5
      DOCKED 0
      BYPASS 0 0 0
      <VST "VST: ReaEQ (Cockos)" reaeq.vst.so 0 "" 1919247729<56535472656571726561657100000000> ""
        cWVlcu5e7f4CAAAAAQAAAAAAAAACAAAAAAAAAAIAAAABAAAAAAAAAAIAAAAAAAAAqAAAAAEAAAAAABAA
        IQAAAAQAAAAEAAAAAQAAAGm4Xhmm+DRAAAAAAAAA8D8AAAAAAAAAQAEIAAAAAQAAAAAAAAAAwHJAAAAAAAAA8D8AAAAAAAAAQAEIAAAAAQAAAAAAAAAAQI9AAAAAAAAA
        8D8AAAAAAAAAQAEDAAAAAQAAAAEBaCorbdRAAAAAAAAA8D8AAAAAAAAAQAEBAAAAAQAAAAAAAAAAAPA/AAAAAJoCAACcAQAA
        AEhpZ2ggbG93IHBhc3MAEAAAAA==
      >
      PRESETNAME "High low pass"
      FLOATPOS 0 0 0 0
      FXID {6E8C7699-B904-2A32-75E6-450378EDE756}
      WAK 0 0
      BYPASS 0 0 0
      <VST "VSTi: ReaSynth (Cockos)" reasynth.vst.so 0 "" 1919251321<5653547265737972656173796E746800> ""
        eXNlcu9e7f4AAAAAAgAAAAEAAAAAAAAAAgAAAAAAAAA8AAAAAAAAAAAAEAA=
        776t3g3wrd6lm8Q7F7fROgAAAAAAAAAAAAAAAJCNuT3oZ4g9AACAPwAAAD8AAIA/AAAAAAAAAD8AAAAA
        AAAQAAAA
      >
      FLOATPOS 0 0 0 0
      FXID {F99D6628-9C10-4709-78AB-588DB7842BE3}
      WAK 0 0
      BYPASS 0 0 0
      <JS guitar/amp-model ""
        "Dumble Overdrive Special - Tweed Deluxe.wav" -21.000000 1.000000 0.000000 73.000000 256.000000 - - - - - - - - - - - - - - - - - - - - - - - - - - - - - - - - - - - - - - - - - - - - - - - - - - - - - - - - - - 
      >
      FLOATPOS 0 0 0 0
      FXID {77508021-E3BE-1873-305E-51ADC0C0184E}
      WAK 0 0
      BYPASS 0 0 0
      <VST "VST: ReaComp (Cockos)" reacomp.vst.so 0 "" 1919247213<5653547265636D726561636F6D700000> ""
        bWNlcu9e7f4EAAAAAQAAAAAAAAACAAAAAAAAAAQAAAAAAAAACAAAAAAAAAACAAAAAQAAAAAAAAACAAAAAAAAAFQAAAAAAAAAAAAQAA==
        776t3g3wrd5FoYg9/AWpPKWbxDsK16M8AAAAAAAAAAAAAIA/AAAAAAAAAAAAAAAAnNEHMwAAgD8AAAAAzMxMPQAAAAAAAAAAAAAAAAAAgD7YiZ09
        AAAQAAAA
      >
      FLOATPOS 0 0 0 0
      FXID {8F8EF42B-EDE0-C884-2BC6-74F9FD3E3617}
      WAK 0 0
      BYPASS 0 0 0
      <VST "VST: ReaDelay (Cockos)" readelay.vst.so 0 "" 1919247468<5653547265646C72656164656C617900> ""
        bGRlcu5e7f4CAAAAAQAAAAAAAAACAAAAAAAAAAIAAAABAAAAAAAAAAIAAAAAAAAA/AAAAAEAAAAAAAAA
        AAAAAAAAAAAFAAAALAAAAAIAAAAEAAAAAACAPwAAgD8AAAAAAACAPwAAAAAAAIA7vTeGNQAAgD8AAAAAAACAPwAAgD8AAIA/AAAAAAAAAAAAAIA/AAAAAAAAADwAAAAA
        AACAPwAAAAAAAIA/AACAP+87NT8AAIA/AAAAAAAAgD8AAAAAAABAPL03hjUAAIA/AAAAAAAAgD8AAIA/zk0AP6abhD4AAAAAAACAPwAAAAAAAIA8vTeGNQAAgD8AAAAA
        AACAPwAAgD8aqrU+pHA9PwAAAAAAAIA/AAAAAAAAoDy9N4Y1AACAPwAAAAAAAIA/AACAP/npAD4AAAA/
        AHN0b2NrIC0gYmFzaWMgNSB0YXAgcGluZyBwb25nAAAAAAA=
      >
      PRESETNAME "stock - basic 5 tap ping pong"
      FLOATPOS 0 0 0 0
      FXID {267209D0-BBA2-89BC-6A09-5B9CCE5F87C9}
      WAK 0 0
      BYPASS 0 0 0
      <VST "VST: ReaVerb (Cockos)" reaverb.vst.so 0 "" 1919252066<56535472657662726561766572620000> ""
        YnZlcu5e7f4CAAAAAQAAAAAAAAACAAAAAAAAAAIAAAABAAAAAAAAAAIAAAAAAAAAcAAAAAEAAAAAAAAA
        AAAAwcybgD4AAIA/AAAAAAAAgD8AAIA/AAAAPwAAgD8AAAAAVkVSQkdFTgAYAAAAAAAAAJHgV0QdrLRA3rK7QsHIjEIAAIC/RUNIT0dFTgAcAAAAy/i2QLUjdUJdzdM/
        osdfP5lRrzyRzYxAnMQAPw==
        AHN3ZWV0dmVyYm8AAAAAAA==
      >
      PRESETNAME sweetverbo
      FLOATPOS 0 0 0 0
      FXID {5EC22F7E-2806-B753-3008-F6C2AD483914}
      WAK 0 0
    >
    <ITEM
      POSITION 0
      SNAPOFFS 0
      LENGTH 8
      LOOP 1
      ALLTAKES 0
      FADEIN 1 0 0 1 0 0
      FADEOUT 1 0 0 1 0 0
      MUTE 0
      SEL 1
      IGUID {169A97AC-449E-FAA0-F2ED-4D6E24075160}
      IID 10
      NAME "01-Recorded MIDI"
      VOLPAN 1 0 1 -1
      SOFFS 0 0
      PLAYRATE 1 1 0 -1 0 0.0021
      CHANMODE 0
      GUID {9B82983E-6691-5E8A-FAD4-605E68058CDC}
      RECPASS 1
      <SOURCE MIDI
        HASDATA 1 960 QN
        CCINTERP 32
        POOLEDEVTS {00F44DBF-5887-EF2D-3BFD-E8E80830C467}
        E 0 90 3c 48
        E 0 90 40 48
        E 0 90 43 48
        E 1920 80 3c 00
        E 0 80 40 00
        E 0 80 43 00
        E 0 90 3c 48
        E 0 90 40 48
        E 0 90 43 48
        E 260 80 3c 00
        E 0 80 40 00
        E 0 80 43 00
        E 440 90 3c 48
        E 0 90 40 48
        E 0 90 43 48
        E 260 80 3c 00
        E 0 80 40 00
        E 0 80 43 00
        e 514 90 3c 48
        e 0 90 40 48
        e 0 90 43 48
        e 260 80 3c 00
        e 0 80 40 00
        e 0 80 43 00
        E 186 90 43 48
        E 0 90 47 48
        E 20 90 40 48
        E 1900 80 43 00
        E 0 80 47 00
        E 0 80 40 00
        E 0 90 43 48
        E 0 90 47 48
        E 20 90 40 48
        E 240 80 43 00
        E 0 80 47 00
        E 0 80 40 00
        E 440 90 43 48
        E 0 90 47 48
        E 20 90 40 48
        E 240 80 43 00
        E 0 80 47 00
        E 0 80 40 00
        e 514 90 43 48
        e 0 90 47 48
        e 20 90 40 48
        e 240 80 43 00
        e 0 80 47 00
        e 0 80 40 00
        E 186 90 41 48
        E 0 90 45 48
        E 0 90 48 48
        E 1920 80 41 00
        E 0 80 45 00
        E 0 80 48 00
        E 0 90 41 48
        E 0 90 45 48
        E 0 90 48 48
        E 260 80 41 00
        E 0 80 45 00
        E 0 80 48 00
        E 440 90 41 48
        E 0 90 45 48
        E 0 90 48 48
        E 260 80 41 00
        E 0 80 45 00
        E 0 80 48 00
        e 514 90 41 48
        e 0 90 45 48
        e 0 90 48 48
        e 260 80 41 00
        e 0 80 45 00
        e 0 80 48 00
        E 162 90 3e 48
        E 24 90 41 48
        E 0 90 45 48
        E 1896 90 3e 48
        E 24 80 3e 00
        E 0 80 41 00
        E 0 80 45 00
        E 0 90 41 48
        E 0 90 45 48
        E 260 80 3e 00
        E 0 80 41 00
        E 0 80 45 00
        E 416 90 3e 48
        E 24 90 41 48
        E 0 90 45 48
        E 260 80 3e 00
        E 0 80 41 00
        E 0 80 45 00
        e 490 90 3e 48
        e 24 90 41 48
        e 0 90 45 48
        e 260 80 3e 00
        e 0 80 41 00
        e 0 80 45 00
        E 186 b0 7b 00
        CHASE_CC_TAKEOFFS 1
        GUID {7B9D708B-43E1-C8D4-C4B3-87E2A6C27801}
        IGNTEMPO 0 120 4 4
        SRCCOLOR 17
        VELLANE -1 100 0
        CFGEDITVIEW 0 0.045808 45 12 0 -1 0 0 0 0.5
        KEYSNAP 0
        TRACKSEL 0
        EVTFILTER 0 -1 -1 -1 -1 0 0 0 0 -1 -1 -1 -1 0 -1 0 -1 -1
        CFGEDIT 1 1 0 1 0 0 1 1 1 1 1 1 58 171 1253 866 0 0 0 0 0.25 0 0 0 0 0.5 0 0 1 64
      >
    >
    <ITEM
      POSITION 8
      SNAPOFFS 0
      LENGTH 8
      LOOP 1
      ALLTAKES 0
      FADEIN 1 0 0 1 0 0
      FADEOUT 1 0 0 1 0 0
      MUTE 0
      SEL 1
      IGUID {838C0B05-3109-25E4-D8E9-80B1D424F659}
      IID 11
      NAME "01-Recorded MIDI"
      VOLPAN 1 0 1 -1
      SOFFS 0 0
      PLAYRATE 1 1 0 -1 0 0.0021
      CHANMODE 0
      GUID {61270841-D9FC-348D-AABA-91420D2EA592}
      RECPASS 1
      <SOURCE MIDI
        HASDATA 1 960 QN
        CCINTERP 32
        POOLEDEVTS {E6514750-57D6-E92C-EEDD-E672F9509C32}
        E 0 90 3c 48
        E 0 90 40 48
        E 0 90 43 48
        E 1920 80 3c 00
        E 0 80 40 00
        E 0 80 43 00
        E 0 90 3c 48
        E 0 90 40 48
        E 0 90 43 48
        E 260 80 3c 00
        E 0 80 40 00
        E 0 80 43 00
        E 440 90 3c 48
        E 0 90 40 48
        E 0 90 43 48
        E 260 80 3c 00
        E 0 80 40 00
        E 0 80 43 00
        e 514 90 3c 48
        e 0 90 40 48
        e 0 90 43 48
        e 260 80 3c 00
        e 0 80 40 00
        e 0 80 43 00
        E 186 90 43 48
        E 0 90 47 48
        E 20 90 40 48
        E 1900 80 43 00
        E 0 80 47 00
        E 0 80 40 00
        E 0 90 43 48
        E 0 90 47 48
        E 20 90 40 48
        E 240 80 43 00
        E 0 80 47 00
        E 0 80 40 00
        E 440 90 43 48
        E 0 90 47 48
        E 20 90 40 48
        E 240 80 43 00
        E 0 80 47 00
        E 0 80 40 00
        e 514 90 43 48
        e 0 90 47 48
        e 20 90 40 48
        e 240 80 43 00
        e 0 80 47 00
        e 0 80 40 00
        E 186 90 41 48
        E 0 90 45 48
        E 0 90 48 48
        E 1920 80 41 00
        E 0 80 45 00
        E 0 80 48 00
        E 0 90 41 48
        E 0 90 45 48
        E 0 90 48 48
        E 260 80 41 00
        E 0 80 45 00
        E 0 80 48 00
        E 440 90 41 48
        E 0 90 45 48
        E 0 90 48 48
        E 260 80 41 00
        E 0 80 45 00
        E 0 80 48 00
        e 514 90 41 48
        e 0 90 45 48
        e 0 90 48 48
        e 260 80 41 00
        e 0 80 45 00
        e 0 80 48 00
        E 162 90 3e 48
        E 24 90 41 48
        E 0 90 45 48
        E 1896 90 3e 48
        E 24 80 3e 00
        E 0 80 41 00
        E 0 80 45 00
        E 0 90 41 48
        E 0 90 45 48
        E 260 80 3e 00
        E 0 80 41 00
        E 0 80 45 00
        E 416 90 3e 48
        E 24 90 41 48
        E 0 90 45 48
        E 260 80 3e 00
        E 0 80 41 00
        E 0 80 45 00
        e 490 90 3e 48
        e 24 90 41 48
        e 0 90 45 48
        e 260 80 3e 00
        e 0 80 41 00
        e 0 80 45 00
        E 186 b0 7b 00
        CHASE_CC_TAKEOFFS 1
        GUID {3131B4E2-B370-E352-A9C5-C8CA31551A86}
        IGNTEMPO 0 120 4 4
        SRCCOLOR 18
        VELLANE -1 100 0
        CFGEDITVIEW 0 0.045808 45 12 0 -1 0 0 0 0.5
        KEYSNAP 0
        TRACKSEL 0
        EVTFILTER 0 -1 -1 -1 -1 0 0 0 0 -1 -1 -1 -1 0 -1 0 -1 -1
        CFGEDIT 1 1 0 1 0 0 1 1 1 1 1 1 58 171 1253 866 0 0 0 0 0.25 0 0 0 0 0.5 0 0 1 64
      >
    >
    <ITEM
      POSITION 16
      SNAPOFFS 0
      LENGTH 8
      LOOP 1
      ALLTAKES 0
      FADEIN 1 0 0 1 0 0
      FADEOUT 1 0 0 1 0 0
      MUTE 0
      SEL 1
      IGUID {DD044098-C8C2-0597-2FB5-C22CB62D10C8}
      IID 12
      NAME "01-Recorded MIDI"
      VOLPAN 1 0 1 -1
      SOFFS 0 0
      PLAYRATE 1 1 0 -1 0 0.0021
      CHANMODE 0
      GUID {40347327-3CA1-ECDC-16FA-7E41AD5E5B1A}
      RECPASS 1
      <SOURCE MIDI
        HASDATA 1 960 QN
        CCINTERP 32
        POOLEDEVTS {D08E38E5-DFD0-DE4A-09C7-336A2AFFE537}
        E 0 90 3c 48
        E 0 90 40 48
        E 0 90 43 48
        E 1920 80 3c 00
        E 0 80 40 00
        E 0 80 43 00
        E 0 90 3c 48
        E 0 90 40 48
        E 0 90 43 48
        E 260 80 3c 00
        E 0 80 40 00
        E 0 80 43 00
        E 440 90 3c 48
        E 0 90 40 48
        E 0 90 43 48
        E 260 80 3c 00
        E 0 80 40 00
        E 0 80 43 00
        e 514 90 3c 48
        e 0 90 40 48
        e 0 90 43 48
        e 260 80 3c 00
        e 0 80 40 00
        e 0 80 43 00
        E 186 90 43 48
        E 0 90 47 48
        E 20 90 40 48
        E 1900 80 43 00
        E 0 80 47 00
        E 0 80 40 00
        E 0 90 43 48
        E 0 90 47 48
        E 20 90 40 48
        E 240 80 43 00
        E 0 80 47 00
        E 0 80 40 00
        E 440 90 43 48
        E 0 90 47 48
        E 20 90 40 48
        E 240 80 43 00
        E 0 80 47 00
        E 0 80 40 00
        e 514 90 43 48
        e 0 90 47 48
        e 20 90 40 48
        e 240 80 43 00
        e 0 80 47 00
        e 0 80 40 00
        E 186 90 41 48
        E 0 90 45 48
        E 0 90 48 48
        E 1920 80 41 00
        E 0 80 45 00
        E 0 80 48 00
        E 0 90 41 48
        E 0 90 45 48
        E 0 90 48 48
        E 260 80 41 00
        E 0 80 45 00
        E 0 80 48 00
        E 440 90 41 48
        E 0 90 45 48
        E 0 90 48 48
        E 260 80 41 00
        E 0 80 45 00
        E 0 80 48 00
        e 514 90 41 48
        e 0 90 45 48
        e 0 90 48 48
        e 260 80 41 00
        e 0 80 45 00
        e 0 80 48 00
        E 162 90 3e 48
        E 24 90 41 48
        E 0 90 45 48
        E 1896 90 3e 48
        E 24 80 3e 00
        E 0 80 41 00
        E 0 80 45 00
        E 0 90 41 48
        E 0 90 45 48
        E 260 80 3e 00
        E 0 80 41 00
        E 0 80 45 00
        E 416 90 3e 48
        E 24 90 41 48
        E 0 90 45 48
        E 260 80 3e 00
        E 0 80 41 00
        E 0 80 45 00
        e 490 90 3e 48
        e 24 90 41 48
        e 0 90 45 48
        e 260 80 3e 00
        e 0 80 41 00
        e 0 80 45 00
        E 186 b0 7b 00
        CHASE_CC_TAKEOFFS 1
        GUID {48C567A2-895C-FB9B-FDBA-0ADB7004ABF3}
        IGNTEMPO 0 120 4 4
        SRCCOLOR 19
        VELLANE -1 100 0
        CFGEDITVIEW 0 0.045808 45 12 0 -1 0 0 0 0.5
        KEYSNAP 0
        TRACKSEL 0
        EVTFILTER 0 -1 -1 -1 -1 0 0 0 0 -1 -1 -1 -1 0 -1 0 -1 -1
        CFGEDIT 1 1 0 1 0 0 1 1 1 1 1 1 58 171 1253 866 0 0 0 0 0.25 0 0 0 0 0.5 0 0 1 64
      >
    >
    <ITEM
      POSITION 24
      SNAPOFFS 0
      LENGTH 8
      LOOP 1
      ALLTAKES 0
      FADEIN 1 0 0 1 0 0
      FADEOUT 1 0 0 1 0 0
      MUTE 0
      SEL 1
      IGUID {3A968C8E-9EC8-3195-9335-CCB97264B941}
      IID 13
      NAME "01-Recorded MIDI"
      VOLPAN 1 0 1 -1
      SOFFS 0 0
      PLAYRATE 1 1 0 -1 0 0.0021
      CHANMODE 0
      GUID {3D909B63-E547-67D7-FE94-A955BEAEE4F7}
      RECPASS 1
      <SOURCE MIDI
        HASDATA 1 960 QN
        CCINTERP 32
        POOLEDEVTS {083FE7A7-63C5-7D42-EC8D-144D80E632AB}
        E 0 90 3c 48
        E 0 90 40 48
        E 0 90 43 48
        E 1920 80 3c 00
        E 0 80 40 00
        E 0 80 43 00
        E 0 90 3c 48
        E 0 90 40 48
        E 0 90 43 48
        E 260 80 3c 00
        E 0 80 40 00
        E 0 80 43 00
        E 440 90 3c 48
        E 0 90 40 48
        E 0 90 43 48
        E 260 80 3c 00
        E 0 80 40 00
        E 0 80 43 00
        e 514 90 3c 48
        e 0 90 40 48
        e 0 90 43 48
        e 260 80 3c 00
        e 0 80 40 00
        e 0 80 43 00
        E 186 90 43 48
        E 0 90 47 48
        E 20 90 40 48
        E 1900 80 43 00
        E 0 80 47 00
        E 0 80 40 00
        E 0 90 43 48
        E 0 90 47 48
        E 20 90 40 48
        E 240 80 43 00
        E 0 80 47 00
        E 0 80 40 00
        E 440 90 43 48
        E 0 90 47 48
        E 20 90 40 48
        E 240 80 43 00
        E 0 80 47 00
        E 0 80 40 00
        e 514 90 43 48
        e 0 90 47 48
        e 20 90 40 48
        e 240 80 43 00
        e 0 80 47 00
        e 0 80 40 00
        E 186 90 41 48
        E 0 90 45 48
        E 0 90 48 48
        E 1920 80 41 00
        E 0 80 45 00
        E 0 80 48 00
        E 0 90 41 48
        E 0 90 45 48
        E 0 90 48 48
        E 260 80 41 00
        E 0 80 45 00
        E 0 80 48 00
        E 440 90 41 48
        E 0 90 45 48
        E 0 90 48 48
        E 260 80 41 00
        E 0 80 45 00
        E 0 80 48 00
        e 514 90 41 48
        e 0 90 45 48
        e 0 90 48 48
        e 260 80 41 00
        e 0 80 45 00
        e 0 80 48 00
        E 162 90 3e 48
        E 24 90 41 48
        E 0 90 45 48
        E 1896 90 3e 48
        E 24 80 3e 00
        E 0 80 41 00
        E 0 80 45 00
        E 0 90 41 48
        E 0 90 45 48
        E 260 80 3e 00
        E 0 80 41 00
        E 0 80 45 00
        E 416 90 3e 48
        E 24 90 41 48
        E 0 90 45 48
        E 260 80 3e 00
        E 0 80 41 00
        E 0 80 45 00
        e 490 90 3e 48
        e 24 90 41 48
        e 0 90 45 48
        e 260 80 3e 00
        e 0 80 41 00
        e 0 80 45 00
        E 186 b0 7b 00
        CHASE_CC_TAKEOFFS 1
        GUID {1DE38800-E2A1-41B5-9C8C-3291891093B1}
        IGNTEMPO 0 120 4 4
        SRCCOLOR 20
        VELLANE -1 100 0
        CFGEDITVIEW 0 0.045808 45 12 0 -1 0 0 0 0.5
        KEYSNAP 0
        TRACKSEL 0
        EVTFILTER 0 -1 -1 -1 -1 0 0 0 0 -1 -1 -1 -1 0 -1 0 -1 -1
        CFGEDIT 1 1 0 1 0 0 1 1 1 1 1 1 58 171 1253 866 0 0 0 0 0.25 0 0 0 0 0.5 0 0 1 64
      >
    >
    <ITEM
      POSITION 32
      SNAPOFFS 0
      LENGTH 8
      LOOP 1
      ALLTAKES 0
      FADEIN 1 0 0 1 0 0
      FADEOUT 1 0 0 1 0 0
      MUTE 0
      SEL 1
      IGUID {AF4CD6E1-6496-C326-A059-62C5BBDD2397}
      IID 14
      NAME "01-Recorded MIDI"
      VOLPAN 1 0 1 -1
      SOFFS 0 0
      PLAYRATE 1 1 0 -1 0 0.0021
      CHANMODE 0
      GUID {ACDBCFE0-7B25-E6FC-0C21-D677F49B8436}
      RECPASS 1
      <SOURCE MIDI
        HASDATA 1 960 QN
        CCINTERP 32
        POOLEDEVTS {1790D6D1-95F0-1C4B-9ED8-16AF69C9D9B0}
        E 0 90 3c 48
        E 0 90 40 48
        E 0 90 43 48
        E 1920 80 3c 00
        E 0 80 40 00
        E 0 80 43 00
        E 0 90 3c 48
        E 0 90 40 48
        E 0 90 43 48
        E 260 80 3c 00
        E 0 80 40 00
        E 0 80 43 00
        E 440 90 3c 48
        E 0 90 40 48
        E 0 90 43 48
        E 260 80 3c 00
        E 0 80 40 00
        E 0 80 43 00
        e 514 90 3c 48
        e 0 90 40 48
        e 0 90 43 48
        e 260 80 3c 00
        e 0 80 40 00
        e 0 80 43 00
        E 186 90 43 48
        E 0 90 47 48
        E 20 90 40 48
        E 1900 80 43 00
        E 0 80 47 00
        E 0 80 40 00
        E 0 90 43 48
        E 0 90 47 48
        E 20 90 40 48
        E 240 80 43 00
        E 0 80 47 00
        E 0 80 40 00
        E 440 90 43 48
        E 0 90 47 48
        E 20 90 40 48
        E 240 80 43 00
        E 0 80 47 00
        E 0 80 40 00
        e 514 90 43 48
        e 0 90 47 48
        e 20 90 40 48
        e 240 80 43 00
        e 0 80 47 00
        e 0 80 40 00
        E 186 90 41 48
        E 0 90 45 48
        E 0 90 48 48
        E 1920 80 41 00
        E 0 80 45 00
        E 0 80 48 00
        E 0 90 41 48
        E 0 90 45 48
        E 0 90 48 48
        E 260 80 41 00
        E 0 80 45 00
        E 0 80 48 00
        E 440 90 41 48
        E 0 90 45 48
        E 0 90 48 48
        E 260 80 41 00
        E 0 80 45 00
        E 0 80 48 00
        e 514 90 41 48
        e 0 90 45 48
        e 0 90 48 48
        e 260 80 41 00
        e 0 80 45 00
        e 0 80 48 00
        E 162 90 3e 48
        E 24 90 41 48
        E 0 90 45 48
        E 1896 90 3e 48
        E 24 80 3e 00
        E 0 80 41 00
        E 0 80 45 00
        E 0 90 41 48
        E 0 90 45 48
        E 260 80 3e 00
        E 0 80 41 00
        E 0 80 45 00
        E 416 90 3e 48
        E 24 90 41 48
        E 0 90 45 48
        E 260 80 3e 00
        E 0 80 41 00
        E 0 80 45 00
        e 490 90 3e 48
        e 24 90 41 48
        e 0 90 45 48
        e 260 80 3e 00
        e 0 80 41 00
        e 0 80 45 00
        E 186 b0 7b 00
        CHASE_CC_TAKEOFFS 1
        GUID {0C3271F4-E233-9088-9B25-A722FAE7C579}
        IGNTEMPO 0 120 4 4
        SRCCOLOR 21
        VELLANE -1 100 0
        CFGEDITVIEW 0 0.045808 45 12 0 -1 0 0 0 0.5
        KEYSNAP 0
        TRACKSEL 0
        EVTFILTER 0 -1 -1 -1 -1 0 0 0 0 -1 -1 -1 -1 0 -1 0 -1 -1
        CFGEDIT 1 1 0 1 0 0 1 1 1 1 1 1 58 171 1253 866 0 0 0 0 0.25 0 0 0 0 0.5 0 0 1 64
      >
    >
    <ITEM
      POSITION 40
      SNAPOFFS 0
      LENGTH 8
      LOOP 1
      ALLTAKES 0
      FADEIN 1 0 0 1 0 0
      FADEOUT 1 0 0 1 0 0
      MUTE 0
      SEL 1
      IGUID {FF69F4AE-ABFA-9DEC-AE70-F55BAAC14D53}
      IID 15
      NAME "01-Recorded MIDI"
      VOLPAN 1 0 1 -1
      SOFFS 0 0
      PLAYRATE 1 1 0 -1 0 0.0021
      CHANMODE 0
      GUID {B35E4DA4-EF6E-8DFF-AA1A-3BDFFE66B16C}
      RECPASS 1
      <SOURCE MIDI
        HASDATA 1 960 QN
        CCINTERP 32
        POOLEDEVTS {8381E03D-EED4-9E26-7534-B8C322EE158F}
        E 0 90 3c 48
        E 0 90 40 48
        E 0 90 43 48
        E 1920 80 3c 00
        E 0 80 40 00
        E 0 80 43 00
        E 0 90 3c 48
        E 0 90 40 48
        E 0 90 43 48
        E 260 80 3c 00
        E 0 80 40 00
        E 0 80 43 00
        E 440 90 3c 48
        E 0 90 40 48
        E 0 90 43 48
        E 260 80 3c 00
        E 0 80 40 00
        E 0 80 43 00
        e 514 90 3c 48
        e 0 90 40 48
        e 0 90 43 48
        e 260 80 3c 00
        e 0 80 40 00
        e 0 80 43 00
        E 186 90 43 48
        E 0 90 47 48
        E 20 90 40 48
        E 1900 80 43 00
        E 0 80 47 00
        E 0 80 40 00
        E 0 90 43 48
        E 0 90 47 48
        E 20 90 40 48
        E 240 80 43 00
        E 0 80 47 00
        E 0 80 40 00
        E 440 90 43 48
        E 0 90 47 48
        E 20 90 40 48
        E 240 80 43 00
        E 0 80 47 00
        E 0 80 40 00
        e 514 90 43 48
        e 0 90 47 48
        e 20 90 40 48
        e 240 80 43 00
        e 0 80 47 00
        e 0 80 40 00
        E 186 90 41 48
        E 0 90 45 48
        E 0 90 48 48
        E 1920 80 41 00
        E 0 80 45 00
        E 0 80 48 00
        E 0 90 41 48
        E 0 90 45 48
        E 0 90 48 48
        E 260 80 41 00
        E 0 80 45 00
        E 0 80 48 00
        E 440 90 41 48
        E 0 90 45 48
        E 0 90 48 48
        E 260 80 41 00
        E 0 80 45 00
        E 0 80 48 00
        e 514 90 41 48
        e 0 90 45 48
        e 0 90 48 48
        e 260 80 41 00
        e 0 80 45 00
        e 0 80 48 00
        E 162 90 3e 48
        E 24 90 41 48
        E 0 90 45 48
        E 1896 90 3e 48
        E 24 80 3e 00
        E 0 80 41 00
        E 0 80 45 00
        E 0 90 41 48
        E 0 90 45 48
        E 260 80 3e 00
        E 0 80 41 00
        E 0 80 45 00
        E 416 90 3e 48
        E 24 90 41 48
        E 0 90 45 48
        E 260 80 3e 00
        E 0 80 41 00
        E 0 80 45 00
        e 490 90 3e 48
        e 24 90 41 48
        e 0 90 45 48
        e 260 80 3e 00
        e 0 80 41 00
        e 0 80 45 00
        E 186 b0 7b 00
        CHASE_CC_TAKEOFFS 1
        GUID {040E7AF8-3572-5D91-3C86-797AEE7444D4}
        IGNTEMPO 0 120 4 4
        SRCCOLOR 22
        VELLANE -1 100 0
        CFGEDITVIEW 0 0.045808 45 12 0 -1 0 0 0 0.5
        KEYSNAP 0
        TRACKSEL 0
        EVTFILTER 0 -1 -1 -1 -1 0 0 0 0 -1 -1 -1 -1 0 -1 0 -1 -1
        CFGEDIT 1 1 0 1 0 0 1 1 1 1 1 1 58 171 1253 866 0 0 0 0 0.25 0 0 0 0 0.5 0 0 1 64
      >
    >
    <ITEM
      POSITION 48
      SNAPOFFS 0
      LENGTH 8
      LOOP 1
      ALLTAKES 0
      FADEIN 1 0 0 1 0 0
      FADEOUT 1 0 0 1 0 0
      MUTE 0
      SEL 1
      IGUID {B29A9066-9651-9F91-82BB-295145EECDBE}
      IID 16
      NAME "01-Recorded MIDI"
      VOLPAN 1 0 1 -1
      SOFFS 0 0
      PLAYRATE 1 1 0 -1 0 0.0021
      CHANMODE 0
      GUID {541C5EC3-CD61-616C-9008-05BC2EAC10B3}
      RECPASS 1
      <SOURCE MIDI
        HASDATA 1 960 QN
        CCINTERP 32
        POOLEDEVTS {EB498821-BF78-29B5-2B0D-F9AB6A0EA804}
        E 0 90 3c 48
        E 0 90 40 48
        E 0 90 43 48
        E 1920 80 3c 00
        E 0 80 40 00
        E 0 80 43 00
        E 0 90 3c 48
        E 0 90 40 48
        E 0 90 43 48
        E 260 80 3c 00
        E 0 80 40 00
        E 0 80 43 00
        E 440 90 3c 48
        E 0 90 40 48
        E 0 90 43 48
        E 260 80 3c 00
        E 0 80 40 00
        E 0 80 43 00
        e 514 90 3c 48
        e 0 90 40 48
        e 0 90 43 48
        e 260 80 3c 00
        e 0 80 40 00
        e 0 80 43 00
        E 186 90 43 48
        E 0 90 47 48
        E 20 90 40 48
        E 1900 80 43 00
        E 0 80 47 00
        E 0 80 40 00
        E 0 90 43 48
        E 0 90 47 48
        E 20 90 40 48
        E 240 80 43 00
        E 0 80 47 00
        E 0 80 40 00
        E 440 90 43 48
        E 0 90 47 48
        E 20 90 40 48
        E 240 80 43 00
        E 0 80 47 00
        E 0 80 40 00
        e 514 90 43 48
        e 0 90 47 48
        e 20 90 40 48
        e 240 80 43 00
        e 0 80 47 00
        e 0 80 40 00
        E 186 90 41 48
        E 0 90 45 48
        E 0 90 48 48
        E 1920 80 41 00
        E 0 80 45 00
        E 0 80 48 00
        E 0 90 41 48
        E 0 90 45 48
        E 0 90 48 48
        E 260 80 41 00
        E 0 80 45 00
        E 0 80 48 00
        E 440 90 41 48
        E 0 90 45 48
        E 0 90 48 48
        E 260 80 41 00
        E 0 80 45 00
        E 0 80 48 00
        e 514 90 41 48
        e 0 90 45 48
        e 0 90 48 48
        e 260 80 41 00
        e 0 80 45 00
        e 0 80 48 00
        E 162 90 3e 48
        E 24 90 41 48
        E 0 90 45 48
        E 1896 90 3e 48
        E 24 80 3e 00
        E 0 80 41 00
        E 0 80 45 00
        E 0 90 41 48
        E 0 90 45 48
        E 260 80 3e 00
        E 0 80 41 00
        E 0 80 45 00
        E 416 90 3e 48
        E 24 90 41 48
        E 0 90 45 48
        E 260 80 3e 00
        E 0 80 41 00
        E 0 80 45 00
        e 490 90 3e 48
        e 24 90 41 48
        e 0 90 45 48
        e 260 80 3e 00
        e 0 80 41 00
        e 0 80 45 00
        E 186 b0 7b 00
        CHASE_CC_TAKEOFFS 1
        GUID {2338968B-6CF9-9F40-300F-DEB89D3392EA}
        IGNTEMPO 0 120 4 4
        SRCCOLOR 23
        VELLANE -1 100 0
        CFGEDITVIEW 0 0.045808 45 12 0 -1 0 0 0 0.5
        KEYSNAP 0
        TRACKSEL 0
        EVTFILTER 0 -1 -1 -1 -1 0 0 0 0 -1 -1 -1 -1 0 -1 0 -1 -1
        CFGEDIT 1 1 0 1 0 0 1 1 1 1 1 1 58 171 1253 866 0 0 0 0 0.25 0 0 0 0 0.5 0 0 1 64
      >
    >
    <ITEM
      POSITION 56
      SNAPOFFS 0
      LENGTH 8
      LOOP 1
      ALLTAKES 0
      FADEIN 1 0 0 1 0 0
      FADEOUT 1 0 0 1 0 0
      MUTE 0
      SEL 1
      IGUID {57DDED7C-4B04-D43F-7D9A-9403B079BE9B}
      IID 17
      NAME "01-Recorded MIDI"
      VOLPAN 1 0 1 -1
      SOFFS 0 0
      PLAYRATE 1 1 0 -1 0 0.0021
      CHANMODE 0
      GUID {3BC6ACFA-F075-F51F-657F-A7505AD2ED07}
      RECPASS 1
      <SOURCE MIDI
        HASDATA 1 960 QN
        CCINTERP 32
        POOLEDEVTS {59273AF2-C8EC-AAE2-7DF7-E644397782C7}
        E 0 90 3c 48
        E 0 90 40 48
        E 0 90 43 48
        E 1920 80 3c 00
        E 0 80 40 00
        E 0 80 43 00
        E 0 90 3c 48
        E 0 90 40 48
        E 0 90 43 48
        E 260 80 3c 00
        E 0 80 40 00
        E 0 80 43 00
        E 440 90 3c 48
        E 0 90 40 48
        E 0 90 43 48
        E 260 80 3c 00
        E 0 80 40 00
        E 0 80 43 00
        e 514 90 3c 48
        e 0 90 40 48
        e 0 90 43 48
        e 260 80 3c 00
        e 0 80 40 00
        e 0 80 43 00
        E 186 90 43 48
        E 0 90 47 48
        E 20 90 40 48
        E 1900 80 43 00
        E 0 80 47 00
        E 0 80 40 00
        E 0 90 43 48
        E 0 90 47 48
        E 20 90 40 48
        E 240 80 43 00
        E 0 80 47 00
        E 0 80 40 00
        E 440 90 43 48
        E 0 90 47 48
        E 20 90 40 48
        E 240 80 43 00
        E 0 80 47 00
        E 0 80 40 00
        e 514 90 43 48
        e 0 90 47 48
        e 20 90 40 48
        e 240 80 43 00
        e 0 80 47 00
        e 0 80 40 00
        E 186 90 41 48
        E 0 90 45 48
        E 0 90 48 48
        E 1920 80 41 00
        E 0 80 45 00
        E 0 80 48 00
        E 0 90 41 48
        E 0 90 45 48
        E 0 90 48 48
        E 260 80 41 00
        E 0 80 45 00
        E 0 80 48 00
        E 440 90 41 48
        E 0 90 45 48
        E 0 90 48 48
        E 260 80 41 00
        E 0 80 45 00
        E 0 80 48 00
        e 514 90 41 48
        e 0 90 45 48
        e 0 90 48 48
        e 260 80 41 00
        e 0 80 45 00
        e 0 80 48 00
        E 162 90 3e 48
        E 24 90 41 48
        E 0 90 45 48
        E 1896 90 3e 48
        E 24 80 3e 00
        E 0 80 41 00
        E 0 80 45 00
        E 0 90 41 48
        E 0 90 45 48
        E 260 80 3e 00
        E 0 80 41 00
        E 0 80 45 00
        E 416 90 3e 48
        E 24 90 41 48
        E 0 90 45 48
        E 260 80 3e 00
        E 0 80 41 00
        E 0 80 45 00
        e 490 90 3e 48
        e 24 90 41 48
        e 0 90 45 48
        e 260 80 3e 00
        e 0 80 41 00
        e 0 80 45 00
        E 186 b0 7b 00
        CHASE_CC_TAKEOFFS 1
        GUID {A64857E2-94F8-0990-20DF-4C1E9B5E6251}
        IGNTEMPO 0 120 4 4
        SRCCOLOR 24
        VELLANE -1 100 0
        CFGEDITVIEW 0 0.045808 45 12 0 -1 0 0 0 0.5
        KEYSNAP 0
        TRACKSEL 0
        EVTFILTER 0 -1 -1 -1 -1 0 0 0 0 -1 -1 -1 -1 0 -1 0 -1 -1
        CFGEDIT 1 1 0 1 0 0 1 1 1 1 1 1 58 171 1253 866 0 0 0 0 0.25 0 0 0 0 0.5 0 0 1 64
      >
    >
    <ITEM
      POSITION 64
      SNAPOFFS 0
      LENGTH 8
      LOOP 1
      ALLTAKES 0
      FADEIN 1 0 0 1 0 0
      FADEOUT 1 0 0 1 0 0
      MUTE 0
      SEL 1
      IGUID {3E147CA0-CA72-29B9-8B49-8CEB041AF3B8}
      IID 18
      NAME "01-Recorded MIDI"
      VOLPAN 1 0 1 -1
      SOFFS 0 0
      PLAYRATE 1 1 0 -1 0 0.0021
      CHANMODE 0
      GUID {2526BFFF-C787-DC15-A3D2-35C8310608A8}
      RECPASS 1
      <SOURCE MIDI
        HASDATA 1 960 QN
        CCINTERP 32
        POOLEDEVTS {A072E4C0-8F06-7B4B-94E2-624B5C110DA8}
        E 0 90 3c 48
        E 0 90 40 48
        E 0 90 43 48
        E 1920 80 3c 00
        E 0 80 40 00
        E 0 80 43 00
        E 0 90 3c 48
        E 0 90 40 48
        E 0 90 43 48
        E 260 80 3c 00
        E 0 80 40 00
        E 0 80 43 00
        E 440 90 3c 48
        E 0 90 40 48
        E 0 90 43 48
        E 260 80 3c 00
        E 0 80 40 00
        E 0 80 43 00
        e 514 90 3c 48
        e 0 90 40 48
        e 0 90 43 48
        e 260 80 3c 00
        e 0 80 40 00
        e 0 80 43 00
        E 186 90 43 48
        E 0 90 47 48
        E 20 90 40 48
        E 1900 80 43 00
        E 0 80 47 00
        E 0 80 40 00
        E 0 90 43 48
        E 0 90 47 48
        E 20 90 40 48
        E 240 80 43 00
        E 0 80 47 00
        E 0 80 40 00
        E 440 90 43 48
        E 0 90 47 48
        E 20 90 40 48
        E 240 80 43 00
        E 0 80 47 00
        E 0 80 40 00
        e 514 90 43 48
        e 0 90 47 48
        e 20 90 40 48
        e 240 80 43 00
        e 0 80 47 00
        e 0 80 40 00
        E 186 90 41 48
        E 0 90 45 48
        E 0 90 48 48
        E 1920 80 41 00
        E 0 80 45 00
        E 0 80 48 00
        E 0 90 41 48
        E 0 90 45 48
        E 0 90 48 48
        E 260 80 41 00
        E 0 80 45 00
        E 0 80 48 00
        E 440 90 41 48
        E 0 90 45 48
        E 0 90 48 48
        E 260 80 41 00
        E 0 80 45 00
        E 0 80 48 00
        e 514 90 41 48
        e 0 90 45 48
        e 0 90 48 48
        e 260 80 41 00
        e 0 80 45 00
        e 0 80 48 00
        E 162 90 3e 48
        E 24 90 41 48
        E 0 90 45 48
        E 1896 90 3e 48
        E 24 80 3e 00
        E 0 80 41 00
        E 0 80 45 00
        E 0 90 41 48
        E 0 90 45 48
        E 260 80 3e 00
        E 0 80 41 00
        E 0 80 45 00
        E 416 90 3e 48
        E 24 90 41 48
        E 0 90 45 48
        E 260 80 3e 00
        E 0 80 41 00
        E 0 80 45 00
        e 490 90 3e 48
        e 24 90 41 48
        e 0 90 45 48
        e 260 80 3e 00
        e 0 80 41 00
        e 0 80 45 00
        E 186 b0 7b 00
        CHASE_CC_TAKEOFFS 1
        GUID {19362806-85F2-5D9E-E1F9-07BE0CF3D16E}
        IGNTEMPO 0 120 4 4
        SRCCOLOR 25
        VELLANE -1 100 0
        CFGEDITVIEW 0 0.045808 45 12 0 -1 0 0 0 0.5
        KEYSNAP 0
        TRACKSEL 0
        EVTFILTER 0 -1 -1 -1 -1 0 0 0 0 -1 -1 -1 -1 0 -1 0 -1 -1
        CFGEDIT 1 1 0 1 0 0 1 1 1 1 1 1 58 171 1253 866 0 0 0 0 0.25 0 0 0 0 0.5 0 0 1 64
      >
    >
    <ITEM
      POSITION 72
      SNAPOFFS 0
      LENGTH 8
      LOOP 1
      ALLTAKES 0
      FADEIN 1 0 0 1 0 0
      FADEOUT 1 0 0 1 0 0
      MUTE 0
      SEL 1
      IGUID {ECC52F70-36F0-EC72-7170-F2113BC35678}
      IID 19
      NAME "01-Recorded MIDI"
      VOLPAN 1 0 1 -1
      SOFFS 0 0
      PLAYRATE 1 1 0 -1 0 0.0021
      CHANMODE 0
      GUID {BA939121-21B6-7132-2448-BCEFAE85B233}
      RECPASS 1
      <SOURCE MIDI
        HASDATA 1 960 QN
        CCINTERP 32
        POOLEDEVTS {6053DBF6-5CF1-02E7-4E00-D0CEEC2E2EAF}
        E 0 90 3c 48
        E 0 90 40 48
        E 0 90 43 48
        E 1920 80 3c 00
        E 0 80 40 00
        E 0 80 43 00
        E 0 90 3c 48
        E 0 90 40 48
        E 0 90 43 48
        E 260 80 3c 00
        E 0 80 40 00
        E 0 80 43 00
        E 440 90 3c 48
        E 0 90 40 48
        E 0 90 43 48
        E 260 80 3c 00
        E 0 80 40 00
        E 0 80 43 00
        e 514 90 3c 48
        e 0 90 40 48
        e 0 90 43 48
        e 260 80 3c 00
        e 0 80 40 00
        e 0 80 43 00
        E 186 90 43 48
        E 0 90 47 48
        E 20 90 40 48
        E 1900 80 43 00
        E 0 80 47 00
        E 0 80 40 00
        E 0 90 43 48
        E 0 90 47 48
        E 20 90 40 48
        E 240 80 43 00
        E 0 80 47 00
        E 0 80 40 00
        E 440 90 43 48
        E 0 90 47 48
        E 20 90 40 48
        E 240 80 43 00
        E 0 80 47 00
        E 0 80 40 00
        e 514 90 43 48
        e 0 90 47 48
        e 20 90 40 48
        e 240 80 43 00
        e 0 80 47 00
        e 0 80 40 00
        E 186 90 41 48
        E 0 90 45 48
        E 0 90 48 48
        E 1920 80 41 00
        E 0 80 45 00
        E 0 80 48 00
        E 0 90 41 48
        E 0 90 45 48
        E 0 90 48 48
        E 260 80 41 00
        E 0 80 45 00
        E 0 80 48 00
        E 440 90 41 48
        E 0 90 45 48
        E 0 90 48 48
        E 260 80 41 00
        E 0 80 45 00
        E 0 80 48 00
        e 514 90 41 48
        e 0 90 45 48
        e 0 90 48 48
        e 260 80 41 00
        e 0 80 45 00
        e 0 80 48 00
        E 162 90 3e 48
        E 24 90 41 48
        E 0 90 45 48
        E 1896 90 3e 48
        E 24 80 3e 00
        E 0 80 41 00
        E 0 80 45 00
        E 0 90 41 48
        E 0 90 45 48
        E 260 80 3e 00
        E 0 80 41 00
        E 0 80 45 00
        E 416 90 3e 48
        E 24 90 41 48
        E 0 90 45 48
        E 260 80 3e 00
        E 0 80 41 00
        E 0 80 45 00
        e 490 90 3e 48
        e 24 90 41 48
        e 0 90 45 48
        e 260 80 3e 00
        e 0 80 41 00
        e 0 80 45 00
        E 186 b0 7b 00
        CHASE_CC_TAKEOFFS 1
        GUID {6844F8A9-6BE9-023C-4A46-0A676470C99B}
        IGNTEMPO 0 120 4 4
        SRCCOLOR 26
        VELLANE -1 100 0
        CFGEDITVIEW 0 0.045808 45 12 0 -1 0 0 0 0.5
        KEYSNAP 0
        TRACKSEL 0
        EVTFILTER 0 -1 -1 -1 -1 0 0 0 0 -1 -1 -1 -1 0 -1 0 -1 -1
        CFGEDIT 1 1 0 1 0 0 1 1 1 1 1 1 58 171 1253 866 0 0 0 0 0.25 0 0 0 0 0.5 0 0 1 64
      >
    >
    <ITEM
      POSITION 80
      SNAPOFFS 0
      LENGTH 8
      LOOP 1
      ALLTAKES 0
      FADEIN 1 0 0 1 0 0
      FADEOUT 1 0 0 1 0 0
      MUTE 0
      SEL 1
      IGUID {C0B31407-CFA9-40C0-34DA-ECBE5E955E04}
      IID 20
      NAME "01-Recorded MIDI"
      VOLPAN 1 0 1 -1
      SOFFS 0 0
      PLAYRATE 1 1 0 -1 0 0.0021
      CHANMODE 0
      GUID {911873B3-3D3B-7615-CDF5-89CBF0122213}
      RECPASS 1
      <SOURCE MIDI
        HASDATA 1 960 QN
        CCINTERP 32
        POOLEDEVTS {113AC866-1A07-7DB9-07EF-108AC9A5431C}
        E 0 90 3c 48
        E 0 90 40 48
        E 0 90 43 48
        E 1920 80 3c 00
        E 0 80 40 00
        E 0 80 43 00
        E 0 90 3c 48
        E 0 90 40 48
        E 0 90 43 48
        E 260 80 3c 00
        E 0 80 40 00
        E 0 80 43 00
        E 440 90 3c 48
        E 0 90 40 48
        E 0 90 43 48
        E 260 80 3c 00
        E 0 80 40 00
        E 0 80 43 00
        e 514 90 3c 48
        e 0 90 40 48
        e 0 90 43 48
        e 260 80 3c 00
        e 0 80 40 00
        e 0 80 43 00
        E 186 90 43 48
        E 0 90 47 48
        E 20 90 40 48
        E 1900 80 43 00
        E 0 80 47 00
        E 0 80 40 00
        E 0 90 43 48
        E 0 90 47 48
        E 20 90 40 48
        E 240 80 43 00
        E 0 80 47 00
        E 0 80 40 00
        E 440 90 43 48
        E 0 90 47 48
        E 20 90 40 48
        E 240 80 43 00
        E 0 80 47 00
        E 0 80 40 00
        e 514 90 43 48
        e 0 90 47 48
        e 20 90 40 48
        e 240 80 43 00
        e 0 80 47 00
        e 0 80 40 00
        E 186 90 41 48
        E 0 90 45 48
        E 0 90 48 48
        E 1920 80 41 00
        E 0 80 45 00
        E 0 80 48 00
        E 0 90 41 48
        E 0 90 45 48
        E 0 90 48 48
        E 260 80 41 00
        E 0 80 45 00
        E 0 80 48 00
        E 440 90 41 48
        E 0 90 45 48
        E 0 90 48 48
        E 260 80 41 00
        E 0 80 45 00
        E 0 80 48 00
        e 514 90 41 48
        e 0 90 45 48
        e 0 90 48 48
        e 260 80 41 00
        e 0 80 45 00
        e 0 80 48 00
        E 162 90 3e 48
        E 24 90 41 48
        E 0 90 45 48
        E 1896 90 3e 48
        E 24 80 3e 00
        E 0 80 41 00
        E 0 80 45 00
        E 0 90 41 48
        E 0 90 45 48
        E 260 80 3e 00
        E 0 80 41 00
        E 0 80 45 00
        E 416 90 3e 48
        E 24 90 41 48
        E 0 90 45 48
        E 260 80 3e 00
        E 0 80 41 00
        E 0 80 45 00
        e 490 90 3e 48
        e 24 90 41 48
        e 0 90 45 48
        e 260 80 3e 00
        e 0 80 41 00
        e 0 80 45 00
        E 186 b0 7b 00
        CHASE_CC_TAKEOFFS 1
        GUID {E611ADB6-4869-6CCA-8E83-3954D5E743B1}
        IGNTEMPO 0 120 4 4
        SRCCOLOR 27
        VELLANE -1 100 0
        CFGEDITVIEW 0 0.045808 45 12 0 -1 0 0 0 0.5
        KEYSNAP 0
        TRACKSEL 0
        EVTFILTER 0 -1 -1 -1 -1 0 0 0 0 -1 -1 -1 -1 0 -1 0 -1 -1
        CFGEDIT 1 1 0 1 0 0 1 1 1 1 1 1 58 171 1253 866 0 0 0 0 0.25 0 0 0 0 0.5 0 0 1 64
      >
    >
    <ITEM
      POSITION 88
      SNAPOFFS 0
      LENGTH 8
      LOOP 1
      ALLTAKES 0
      FADEIN 1 0 0 1 0 0
      FADEOUT 1 0 0 1 0 0
      MUTE 0
      SEL 1
      IGUID {0AACE114-C691-A2F0-5171-0F2D7506F7E1}
      IID 21
      NAME "01-Recorded MIDI"
      VOLPAN 1 0 1 -1
      SOFFS 0 0
      PLAYRATE 1 1 0 -1 0 0.0021
      CHANMODE 0
      GUID {46B95563-7895-065A-2E3A-BC49F68E626F}
      RECPASS 1
      <SOURCE MIDI
        HASDATA 1 960 QN
        CCINTERP 32
        POOLEDEVTS {6B0C0303-BB7F-E04B-1A6F-476A7FF92014}
        E 0 90 3c 48
        E 0 90 40 48
        E 0 90 43 48
        E 1920 80 3c 00
        E 0 80 40 00
        E 0 80 43 00
        E 0 90 3c 48
        E 0 90 40 48
        E 0 90 43 48
        E 260 80 3c 00
        E 0 80 40 00
        E 0 80 43 00
        E 440 90 3c 48
        E 0 90 40 48
        E 0 90 43 48
        E 260 80 3c 00
        E 0 80 40 00
        E 0 80 43 00
        e 514 90 3c 48
        e 0 90 40 48
        e 0 90 43 48
        e 260 80 3c 00
        e 0 80 40 00
        e 0 80 43 00
        E 186 90 43 48
        E 0 90 47 48
        E 20 90 40 48
        E 1900 80 43 00
        E 0 80 47 00
        E 0 80 40 00
        E 0 90 43 48
        E 0 90 47 48
        E 20 90 40 48
        E 240 80 43 00
        E 0 80 47 00
        E 0 80 40 00
        E 440 90 43 48
        E 0 90 47 48
        E 20 90 40 48
        E 240 80 43 00
        E 0 80 47 00
        E 0 80 40 00
        e 514 90 43 48
        e 0 90 47 48
        e 20 90 40 48
        e 240 80 43 00
        e 0 80 47 00
        e 0 80 40 00
        E 186 90 41 48
        E 0 90 45 48
        E 0 90 48 48
        E 1920 80 41 00
        E 0 80 45 00
        E 0 80 48 00
        E 0 90 41 48
        E 0 90 45 48
        E 0 90 48 48
        E 260 80 41 00
        E 0 80 45 00
        E 0 80 48 00
        E 440 90 41 48
        E 0 90 45 48
        E 0 90 48 48
        E 260 80 41 00
        E 0 80 45 00
        E 0 80 48 00
        e 514 90 41 48
        e 0 90 45 48
        e 0 90 48 48
        e 260 80 41 00
        e 0 80 45 00
        e 0 80 48 00
        E 162 90 3e 48
        E 24 90 41 48
        E 0 90 45 48
        E 1896 90 3e 48
        E 24 80 3e 00
        E 0 80 41 00
        E 0 80 45 00
        E 0 90 41 48
        E 0 90 45 48
        E 260 80 3e 00
        E 0 80 41 00
        E 0 80 45 00
        E 416 90 3e 48
        E 24 90 41 48
        E 0 90 45 48
        E 260 80 3e 00
        E 0 80 41 00
        E 0 80 45 00
        e 490 90 3e 48
        e 24 90 41 48
        e 0 90 45 48
        e 260 80 3e 00
        e 0 80 41 00
        e 0 80 45 00
        E 186 b0 7b 00
        CHASE_CC_TAKEOFFS 1
        GUID {C762B555-17FC-D765-5340-11D3487D2955}
        IGNTEMPO 0 120 4 4
        SRCCOLOR 28
        VELLANE -1 100 0
        CFGEDITVIEW 0 0.045808 45 12 0 -1 0 0 0 0.5
        KEYSNAP 0
        TRACKSEL 0
        EVTFILTER 0 -1 -1 -1 -1 0 0 0 0 -1 -1 -1 -1 0 -1 0 -1 -1
        CFGEDIT 1 1 0 1 0 0 1 1 1 1 1 1 58 171 1253 866 0 0 0 0 0.25 0 0 0 0 0.5 0 0 1 64
      >
    >
  >
  <TRACK {770CB815-CFED-FE2A-ECF9-2DF5039D7507}
    NAME ""
    PEAKCOL 16576
    BEAT -1
    AUTOMODE 0
    VOLPAN 0.00052194381917 0 -1 -1 1
    MUTESOLO 0 0 0
    IPHASE 0
    PLAYOFFS 0 1
    ISBUS 0 0
    BUSCOMP 0 0 0 0 0
    SHOWINMIX 1 0.6667 0.5 1 0.5 0 0 0
    FREEMODE 0
    SEL 0
    REC 0 5056 1 0 0 0 0
    VU 2
    TRACKHEIGHT 21 0 0
    INQ 0 0 0 0.5 100 0 0 100
    NCHAN 2
    FX 0
    TRACKID {770CB815-CFED-FE2A-ECF9-2DF5039D7507}
    PERF 0
    MIDIOUT -1
    MAINSEND 1 0
    <FXCHAIN
      WNDRECT 346 266 902 608
      SHOW 0
      LASTSEL 5
      DOCKED 0
      BYPASS 0 0 0
      <VST "VST: ReaEQ (Cockos)" reaeq.vst.so 0 "" 1919247729<56535472656571726561657100000000> ""
        cWVlcu5e7f4CAAAAAQAAAAAAAAACAAAAAAAAAAIAAAABAAAAAAAAAAIAAAAAAAAAqAAAAAEAAAAAABAA
        IQAAAAQAAAAEAAAAAQAAAFe4Xhmm+DRAAAAAAAAA8D8AAAAAAAAAQAEIAAAAAQAAAAAAAAAAwHJAAAAAAAAA8D8AAAAAAAAAQAEIAAAAAQAAAAAAAAAAQI9AAAAAAAAA
        8D8AAAAAAAAAQAEDAAAAAQAAAAABaCorbdRAAAAAAAAA8D8AAAAAAAAAQAEBAAAAAQAAAAAAAAAAAPA/AAAAAJoCAACcAQAA
        AEhpZ2ggbG93IHBhc3MAEAAAAA==
      >
      PRESETNAME "High low pass"
      FLOATPOS 0 0 0 0
      FXID {8828B062-ADC6-7E83-D430-73086A6B2037}
      WAK 0 0
      BYPASS 0 0 0
      <VST "VSTi: ReaSynth (Cockos)" reasynth.vst.so 0 "" 1919251321<5653547265737972656173796E746800> ""
        eXNlcu9e7f4AAAAAAgAAAAEAAAAAAAAAAgAAAAAAAAA8AAAAAAAAAAAAEAA=
        776t3g3wrd6lm8Q7F7fROgAAAAAAAAAAAAAAAJCNuT3oZ4g9AACAPwAAAD8AAIA/AAAAAAAAAD8AAAAA
        AAAQAAAA
      >
      FLOATPOS 0 0 0 0
      FXID {D2E5CC47-1B9E-17FB-8517-F34BCF66AF69}
      WAK 0 0
      BYPASS 0 0 0
      <JS guitar/amp-model ""
        "Dumble Overdrive Special - Tweed Deluxe.wav" -21.000000 1.000000 0.000000 73.000000 256.000000 - - - - - - - - - - - - - - - - - - - - - - - - - - - - - - - - - - - - - - - - - - - - - - - - - - - - - - - - - - 
      >
      FLOATPOS 0 0 0 0
      FXID {357EB9AD-F206-676D-3D7C-C58EFD26A024}
      WAK 0 0
      BYPASS 0 0 0
      <VST "VST: ReaComp (Cockos)" reacomp.vst.so 0 "" 1919247213<5653547265636D726561636F6D700000> ""
        bWNlcu9e7f4EAAAAAQAAAAAAAAACAAAAAAAAAAQAAAAAAAAACAAAAAAAAAACAAAAAQAAAAAAAAACAAAAAAAAAFQAAAAAAAAAAAAQAA==
        776t3g3wrd5FoYg9/AWpPKWbxDsK16M8AAAAAAAAAAAAAIA/AAAAAAAAAAAAAAAAnNEHMwAAgD8AAAAAzMxMPQAAAAAAAAAAAAAAAAAAgD7YiZ09
        AAAQAAAA
      >
      FLOATPOS 0 0 0 0
      FXID {AA793B62-7F7D-6F19-CCBA-9F9E3D0B58A6}
      WAK 0 0
      BYPASS 0 0 0
      <VST "VST: ReaDelay (Cockos)" readelay.vst.so 0 "" 1919247468<5653547265646C72656164656C617900> ""
        bGRlcu5e7f4CAAAAAQAAAAAAAAACAAAAAAAAAAIAAAABAAAAAAAAAAIAAAAAAAAA/AAAAAEAAAAAAAAA
        AAAAAAAAAAAFAAAALAAAAAIAAAAEAAAAAACAPwAAgD8AAAAAAACAPwAAAAAAAIA7vTeGNQAAgD8AAAAAAACAPwAAgD8AAIA/AAAAAAAAAAAAAIA/AAAAAAAAADwAAAAA
        AACAPwAAAAAAAIA/AACAP+87NT8AAIA/AAAAAAAAgD8AAAAAAABAPL03hjUAAIA/AAAAAAAAgD8AAIA/zk0AP6abhD4AAAAAAACAPwAAAAAAAIA8vTeGNQAAgD8AAAAA
        AACAPwAAgD8aqrU+pHA9PwAAAAAAAIA/AAAAAAAAoDy9N4Y1AACAPwAAAAAAAIA/AACAP/npAD4AAAA/
        AHN0b2NrIC0gYmFzaWMgNSB0YXAgcGluZyBwb25nAAAAAAA=
      >
      PRESETNAME "stock - basic 5 tap ping pong"
      FLOATPOS 0 0 0 0
      FXID {C2E203FD-3EE4-931E-6CBC-7C389293697F}
      WAK 0 0
      BYPASS 0 0 0
      <VST "VST: ReaVerb (Cockos)" reaverb.vst.so 0 "" 1919252066<56535472657662726561766572620000> ""
        YnZlcu5e7f4CAAAAAQAAAAAAAAACAAAAAAAAAAIAAAABAAAAAAAAAAIAAAAAAAAAcAAAAAEAAAAAAAAA
        AAAAwcybgD4AAIA/AAAAAAAAgD8AAIA/AAAAPwAAgD8AAAAAVkVSQkdFTgAYAAAAAAAAAJHgV0QdrLRA3rK7QsHIjEIAAIC/RUNIT0dFTgAcAAAAy/i2QLUjdUJdzdM/
        osdfP5lRrzyRzYxAnMQAPw==
        AHN3ZWV0dmVyYm8AAAAAAA==
      >
      PRESETNAME sweetverbo
      FLOATPOS 0 0 0 0
      FXID {EBEFE3E9-5F2C-FCAC-30C9-79A089123880}
      WAK 0 0
    >
    <ITEM
      POSITION 0
      SNAPOFFS 0
      LENGTH 8
      LOOP 1
      ALLTAKES 0
      FADEIN 1 0 0 1 0 0
      FADEOUT 1 0 0 1 0 0
      MUTE 0
      SEL 1
      IGUID {BA1AF609-B2F3-9D6F-37FF-0ECE5F1F42C8}
      IID 10
      NAME "01-Recorded MIDI"
      VOLPAN 1 0 1 -1
      SOFFS 0 0
      PLAYRATE 1 1 0 -1 0 0.0021
      CHANMODE 0
      GUID {BA647B45-DB3F-990C-A1A0-B4075CBE3370}
      RECPASS 1
      <SOURCE MIDI
        HASDATA 1 960 QN
        CCINTERP 32
        POOLEDEVTS {19E12AF9-A2D2-7A48-C64E-5AC28FF3A559}
        E 0 90 3c 48
        E 0 90 40 48
        E 0 90 43 48
        E 1920 80 3c 00
        E 0 80 40 00
        E 0 80 43 00
        E 0 90 3c 48
        E 0 90 40 48
        E 0 90 43 48
        E 260 80 3c 00
        E 0 80 40 00
        E 0 80 43 00
        E 440 90 3c 48
        E 0 90 40 48
        E 0 90 43 48
        E 260 80 3c 00
        E 0 80 40 00
        E 0 80 43 00
        e 514 90 3c 48
        e 0 90 40 48
        e 0 90 43 48
        e 260 80 3c 00
        e 0 80 40 00
        e 0 80 43 00
        E 186 90 43 48
        E 0 90 47 48
        E 20 90 40 48
        E 1900 80 43 00
        E 0 80 47 00
        E 0 80 40 00
        E 0 90 43 48
        E 0 90 47 48
        E 20 90 40 48
        E 240 80 43 00
        E 0 80 47 00
        E 0 80 40 00
        E 440 90 43 48
        E 0 90 47 48
        E 20 90 40 48
        E 240 80 43 00
        E 0 80 47 00
        E 0 80 40 00
        e 514 90 43 48
        e 0 90 47 48
        e 20 90 40 48
        e 240 80 43 00
        e 0 80 47 00
        e 0 80 40 00
        E 186 90 41 48
        E 0 90 45 48
        E 0 90 48 48
        E 1920 80 41 00
        E 0 80 45 00
        E 0 80 48 00
        E 0 90 41 48
        E 0 90 45 48
        E 0 90 48 48
        E 260 80 41 00
        E 0 80 45 00
        E 0 80 48 00
        E 440 90 41 48
        E 0 90 45 48
        E 0 90 48 48
        E 260 80 41 00
        E 0 80 45 00
        E 0 80 48 00
        e 514 90 41 48
        e 0 90 45 48
        e 0 90 48 48
        e 260 80 41 00
        e 0 80 45 00
        e 0 80 48 00
        E 162 90 3e 48
        E 24 90 41 48
        E 0 90 45 48
        E 1896 90 3e 48
        E 24 80 3e 00
        E 0 80 41 00
        E 0 80 45 00
        E 0 90 41 48
        E 0 90 45 48
        E 260 80 3e 00
        E 0 80 41 00
        E 0 80 45 00
        E 416 90 3e 48
        E 24 90 41 48
        E 0 90 45 48
        E 260 80 3e 00
        E 0 80 41 00
        E 0 80 45 00
        e 490 90 3e 48
        e 24 90 41 48
        e 0 90 45 48
        e 260 80 3e 00
        e 0 80 41 00
        e 0 80 45 00
        E 186 b0 7b 00
        CHASE_CC_TAKEOFFS 1
        GUID {7B9D708B-43E1-C8D4-C4B3-87E2A6C27801}
        IGNTEMPO 0 120 4 4
        SRCCOLOR 17
        VELLANE -1 100 0
        CFGEDITVIEW 0 0.045808 45 12 0 -1 0 0 0 0.5
        KEYSNAP 0
        TRACKSEL 0
        EVTFILTER 0 -1 -1 -1 -1 0 0 0 0 -1 -1 -1 -1 0 -1 0 -1 -1
        CFGEDIT 1 1 0 1 0 0 1 1 1 1 1 1 58 171 1253 866 0 0 0 0 0.25 0 0 0 0 0.5 0 0 1 64
      >
    >
    <ITEM
      POSITION 8
      SNAPOFFS 0
      LENGTH 8
      LOOP 1
      ALLTAKES 0
      FADEIN 1 0 0 1 0 0
      FADEOUT 1 0 0 1 0 0
      MUTE 0
      SEL 1
      IGUID {8AAD11E0-A442-F758-AE1D-B151491B3B64}
      IID 11
      NAME "01-Recorded MIDI"
      VOLPAN 1 0 1 -1
      SOFFS 0 0
      PLAYRATE 1 1 0 -1 0 0.0021
      CHANMODE 0
      GUID {62514046-7089-D96A-E28E-702CC9D8DFE2}
      RECPASS 1
      <SOURCE MIDI
        HASDATA 1 960 QN
        CCINTERP 32
        POOLEDEVTS {E16EEBBB-1ABB-4FC6-2DB2-089F96F05442}
        E 0 90 3c 48
        E 0 90 40 48
        E 0 90 43 48
        E 1920 80 3c 00
        E 0 80 40 00
        E 0 80 43 00
        E 0 90 3c 48
        E 0 90 40 48
        E 0 90 43 48
        E 260 80 3c 00
        E 0 80 40 00
        E 0 80 43 00
        E 440 90 3c 48
        E 0 90 40 48
        E 0 90 43 48
        E 260 80 3c 00
        E 0 80 40 00
        E 0 80 43 00
        e 514 90 3c 48
        e 0 90 40 48
        e 0 90 43 48
        e 260 80 3c 00
        e 0 80 40 00
        e 0 80 43 00
        E 186 90 43 48
        E 0 90 47 48
        E 20 90 40 48
        E 1900 80 43 00
        E 0 80 47 00
        E 0 80 40 00
        E 0 90 43 48
        E 0 90 47 48
        E 20 90 40 48
        E 240 80 43 00
        E 0 80 47 00
        E 0 80 40 00
        E 440 90 43 48
        E 0 90 47 48
        E 20 90 40 48
        E 240 80 43 00
        E 0 80 47 00
        E 0 80 40 00
        e 514 90 43 48
        e 0 90 47 48
        e 20 90 40 48
        e 240 80 43 00
        e 0 80 47 00
        e 0 80 40 00
        E 186 90 41 48
        E 0 90 45 48
        E 0 90 48 48
        E 1920 80 41 00
        E 0 80 45 00
        E 0 80 48 00
        E 0 90 41 48
        E 0 90 45 48
        E 0 90 48 48
        E 260 80 41 00
        E 0 80 45 00
        E 0 80 48 00
        E 440 90 41 48
        E 0 90 45 48
        E 0 90 48 48
        E 260 80 41 00
        E 0 80 45 00
        E 0 80 48 00
        e 514 90 41 48
        e 0 90 45 48
        e 0 90 48 48
        e 260 80 41 00
        e 0 80 45 00
        e 0 80 48 00
        E 162 90 3e 48
        E 24 90 41 48
        E 0 90 45 48
        E 1896 90 3e 48
        E 24 80 3e 00
        E 0 80 41 00
        E 0 80 45 00
        E 0 90 41 48
        E 0 90 45 48
        E 260 80 3e 00
        E 0 80 41 00
        E 0 80 45 00
        E 416 90 3e 48
        E 24 90 41 48
        E 0 90 45 48
        E 260 80 3e 00
        E 0 80 41 00
        E 0 80 45 00
        e 490 90 3e 48
        e 24 90 41 48
        e 0 90 45 48
        e 260 80 3e 00
        e 0 80 41 00
        e 0 80 45 00
        E 186 b0 7b 00
        CHASE_CC_TAKEOFFS 1
        GUID {3131B4E2-B370-E352-A9C5-C8CA31551A86}
        IGNTEMPO 0 120 4 4
        SRCCOLOR 18
        VELLANE -1 100 0
        CFGEDITVIEW 0 0.045808 45 12 0 -1 0 0 0 0.5
        KEYSNAP 0
        TRACKSEL 0
        EVTFILTER 0 -1 -1 -1 -1 0 0 0 0 -1 -1 -1 -1 0 -1 0 -1 -1
        CFGEDIT 1 1 0 1 0 0 1 1 1 1 1 1 58 171 1253 866 0 0 0 0 0.25 0 0 0 0 0.5 0 0 1 64
      >
    >
    <ITEM
      POSITION 16
      SNAPOFFS 0
      LENGTH 8
      LOOP 1
      ALLTAKES 0
      FADEIN 1 0 0 1 0 0
      FADEOUT 1 0 0 1 0 0
      MUTE 0
      SEL 1
      IGUID {CE25EDED-1BE1-C59D-33A6-25ED0F13E035}
      IID 12
      NAME "01-Recorded MIDI"
      VOLPAN 1 0 1 -1
      SOFFS 0 0
      PLAYRATE 1 1 0 -1 0 0.0021
      CHANMODE 0
      GUID {4CD5E714-A38B-2ACB-700C-94F0DD0C0D73}
      RECPASS 1
      <SOURCE MIDI
        HASDATA 1 960 QN
        CCINTERP 32
        POOLEDEVTS {32342148-0229-2710-9DDB-645E2F33D295}
        E 0 90 3c 48
        E 0 90 40 48
        E 0 90 43 48
        E 1920 80 3c 00
        E 0 80 40 00
        E 0 80 43 00
        E 0 90 3c 48
        E 0 90 40 48
        E 0 90 43 48
        E 260 80 3c 00
        E 0 80 40 00
        E 0 80 43 00
        E 440 90 3c 48
        E 0 90 40 48
        E 0 90 43 48
        E 260 80 3c 00
        E 0 80 40 00
        E 0 80 43 00
        e 514 90 3c 48
        e 0 90 40 48
        e 0 90 43 48
        e 260 80 3c 00
        e 0 80 40 00
        e 0 80 43 00
        E 186 90 43 48
        E 0 90 47 48
        E 20 90 40 48
        E 1900 80 43 00
        E 0 80 47 00
        E 0 80 40 00
        E 0 90 43 48
        E 0 90 47 48
        E 20 90 40 48
        E 240 80 43 00
        E 0 80 47 00
        E 0 80 40 00
        E 440 90 43 48
        E 0 90 47 48
        E 20 90 40 48
        E 240 80 43 00
        E 0 80 47 00
        E 0 80 40 00
        e 514 90 43 48
        e 0 90 47 48
        e 20 90 40 48
        e 240 80 43 00
        e 0 80 47 00
        e 0 80 40 00
        E 186 90 41 48
        E 0 90 45 48
        E 0 90 48 48
        E 1920 80 41 00
        E 0 80 45 00
        E 0 80 48 00
        E 0 90 41 48
        E 0 90 45 48
        E 0 90 48 48
        E 260 80 41 00
        E 0 80 45 00
        E 0 80 48 00
        E 440 90 41 48
        E 0 90 45 48
        E 0 90 48 48
        E 260 80 41 00
        E 0 80 45 00
        E 0 80 48 00
        e 514 90 41 48
        e 0 90 45 48
        e 0 90 48 48
        e 260 80 41 00
        e 0 80 45 00
        e 0 80 48 00
        E 162 90 3e 48
        E 24 90 41 48
        E 0 90 45 48
        E 1896 90 3e 48
        E 24 80 3e 00
        E 0 80 41 00
        E 0 80 45 00
        E 0 90 41 48
        E 0 90 45 48
        E 260 80 3e 00
        E 0 80 41 00
        E 0 80 45 00
        E 416 90 3e 48
        E 24 90 41 48
        E 0 90 45 48
        E 260 80 3e 00
        E 0 80 41 00
        E 0 80 45 00
        e 490 90 3e 48
        e 24 90 41 48
        e 0 90 45 48
        e 260 80 3e 00
        e 0 80 41 00
        e 0 80 45 00
        E 186 b0 7b 00
        CHASE_CC_TAKEOFFS 1
        GUID {48C567A2-895C-FB9B-FDBA-0ADB7004ABF3}
        IGNTEMPO 0 120 4 4
        SRCCOLOR 19
        VELLANE -1 100 0
        CFGEDITVIEW 0 0.045808 45 12 0 -1 0 0 0 0.5
        KEYSNAP 0
        TRACKSEL 0
        EVTFILTER 0 -1 -1 -1 -1 0 0 0 0 -1 -1 -1 -1 0 -1 0 -1 -1
        CFGEDIT 1 1 0 1 0 0 1 1 1 1 1 1 58 171 1253 866 0 0 0 0 0.25 0 0 0 0 0.5 0 0 1 64
      >
    >
    <ITEM
      POSITION 24
      SNAPOFFS 0
      LENGTH 8
      LOOP 1
      ALLTAKES 0
      FADEIN 1 0 0 1 0 0
      FADEOUT 1 0 0 1 0 0
      MUTE 0
      SEL 1
      IGUID {9A6546E5-D668-A0B9-9C38-A9104069C71D}
      IID 13
      NAME "01-Recorded MIDI"
      VOLPAN 1 0 1 -1
      SOFFS 0 0
      PLAYRATE 1 1 0 -1 0 0.0021
      CHANMODE 0
      GUID {3A43D583-8887-F198-2A96-F53BED2F9AFE}
      RECPASS 1
      <SOURCE MIDI
        HASDATA 1 960 QN
        CCINTERP 32
        POOLEDEVTS {20E5D48A-B31B-8325-9B89-5AC310D66996}
        E 0 90 3c 48
        E 0 90 40 48
        E 0 90 43 48
        E 1920 80 3c 00
        E 0 80 40 00
        E 0 80 43 00
        E 0 90 3c 48
        E 0 90 40 48
        E 0 90 43 48
        E 260 80 3c 00
        E 0 80 40 00
        E 0 80 43 00
        E 440 90 3c 48
        E 0 90 40 48
        E 0 90 43 48
        E 260 80 3c 00
        E 0 80 40 00
        E 0 80 43 00
        e 514 90 3c 48
        e 0 90 40 48
        e 0 90 43 48
        e 260 80 3c 00
        e 0 80 40 00
        e 0 80 43 00
        E 186 90 43 48
        E 0 90 47 48
        E 20 90 40 48
        E 1900 80 43 00
        E 0 80 47 00
        E 0 80 40 00
        E 0 90 43 48
        E 0 90 47 48
        E 20 90 40 48
        E 240 80 43 00
        E 0 80 47 00
        E 0 80 40 00
        E 440 90 43 48
        E 0 90 47 48
        E 20 90 40 48
        E 240 80 43 00
        E 0 80 47 00
        E 0 80 40 00
        e 514 90 43 48
        e 0 90 47 48
        e 20 90 40 48
        e 240 80 43 00
        e 0 80 47 00
        e 0 80 40 00
        E 186 90 41 48
        E 0 90 45 48
        E 0 90 48 48
        E 1920 80 41 00
        E 0 80 45 00
        E 0 80 48 00
        E 0 90 41 48
        E 0 90 45 48
        E 0 90 48 48
        E 260 80 41 00
        E 0 80 45 00
        E 0 80 48 00
        E 440 90 41 48
        E 0 90 45 48
        E 0 90 48 48
        E 260 80 41 00
        E 0 80 45 00
        E 0 80 48 00
        e 514 90 41 48
        e 0 90 45 48
        e 0 90 48 48
        e 260 80 41 00
        e 0 80 45 00
        e 0 80 48 00
        E 162 90 3e 48
        E 24 90 41 48
        E 0 90 45 48
        E 1896 90 3e 48
        E 24 80 3e 00
        E 0 80 41 00
        E 0 80 45 00
        E 0 90 41 48
        E 0 90 45 48
        E 260 80 3e 00
        E 0 80 41 00
        E 0 80 45 00
        E 416 90 3e 48
        E 24 90 41 48
        E 0 90 45 48
        E 260 80 3e 00
        E 0 80 41 00
        E 0 80 45 00
        e 490 90 3e 48
        e 24 90 41 48
        e 0 90 45 48
        e 260 80 3e 00
        e 0 80 41 00
        e 0 80 45 00
        E 186 b0 7b 00
        CHASE_CC_TAKEOFFS 1
        GUID {1DE38800-E2A1-41B5-9C8C-3291891093B1}
        IGNTEMPO 0 120 4 4
        SRCCOLOR 20
        VELLANE -1 100 0
        CFGEDITVIEW 0 0.045808 45 12 0 -1 0 0 0 0.5
        KEYSNAP 0
        TRACKSEL 0
        EVTFILTER 0 -1 -1 -1 -1 0 0 0 0 -1 -1 -1 -1 0 -1 0 -1 -1
        CFGEDIT 1 1 0 1 0 0 1 1 1 1 1 1 58 171 1253 866 0 0 0 0 0.25 0 0 0 0 0.5 0 0 1 64
      >
    >
    <ITEM
      POSITION 32
      SNAPOFFS 0
      LENGTH 8
      LOOP 1
      ALLTAKES 0
      FADEIN 1 0 0 1 0 0
      FADEOUT 1 0 0 1 0 0
      MUTE 0
      SEL 1
      IGUID {A7B8B4E1-428D-7367-549C-A002197CB915}
      IID 14
      NAME "01-Recorded MIDI"
      VOLPAN 1 0 1 -1
      SOFFS 0 0
      PLAYRATE 1 1 0 -1 0 0.0021
      CHANMODE 0
      GUID {9BBF6926-ADDC-CD9F-7971-B5046ED383A1}
      RECPASS 1
      <SOURCE MIDI
        HASDATA 1 960 QN
        CCINTERP 32
        POOLEDEVTS {2FFD4823-A861-D92E-0BCC-638C2B16C86A}
        E 0 90 3c 48
        E 0 90 40 48
        E 0 90 43 48
        E 1920 80 3c 00
        E 0 80 40 00
        E 0 80 43 00
        E 0 90 3c 48
        E 0 90 40 48
        E 0 90 43 48
        E 260 80 3c 00
        E 0 80 40 00
        E 0 80 43 00
        E 440 90 3c 48
        E 0 90 40 48
        E 0 90 43 48
        E 260 80 3c 00
        E 0 80 40 00
        E 0 80 43 00
        e 514 90 3c 48
        e 0 90 40 48
        e 0 90 43 48
        e 260 80 3c 00
        e 0 80 40 00
        e 0 80 43 00
        E 186 90 43 48
        E 0 90 47 48
        E 20 90 40 48
        E 1900 80 43 00
        E 0 80 47 00
        E 0 80 40 00
        E 0 90 43 48
        E 0 90 47 48
        E 20 90 40 48
        E 240 80 43 00
        E 0 80 47 00
        E 0 80 40 00
        E 440 90 43 48
        E 0 90 47 48
        E 20 90 40 48
        E 240 80 43 00
        E 0 80 47 00
        E 0 80 40 00
        e 514 90 43 48
        e 0 90 47 48
        e 20 90 40 48
        e 240 80 43 00
        e 0 80 47 00
        e 0 80 40 00
        E 186 90 41 48
        E 0 90 45 48
        E 0 90 48 48
        E 1920 80 41 00
        E 0 80 45 00
        E 0 80 48 00
        E 0 90 41 48
        E 0 90 45 48
        E 0 90 48 48
        E 260 80 41 00
        E 0 80 45 00
        E 0 80 48 00
        E 440 90 41 48
        E 0 90 45 48
        E 0 90 48 48
        E 260 80 41 00
        E 0 80 45 00
        E 0 80 48 00
        e 514 90 41 48
        e 0 90 45 48
        e 0 90 48 48
        e 260 80 41 00
        e 0 80 45 00
        e 0 80 48 00
        E 162 90 3e 48
        E 24 90 41 48
        E 0 90 45 48
        E 1896 90 3e 48
        E 24 80 3e 00
        E 0 80 41 00
        E 0 80 45 00
        E 0 90 41 48
        E 0 90 45 48
        E 260 80 3e 00
        E 0 80 41 00
        E 0 80 45 00
        E 416 90 3e 48
        E 24 90 41 48
        E 0 90 45 48
        E 260 80 3e 00
        E 0 80 41 00
        E 0 80 45 00
        e 490 90 3e 48
        e 24 90 41 48
        e 0 90 45 48
        e 260 80 3e 00
        e 0 80 41 00
        e 0 80 45 00
        E 186 b0 7b 00
        CHASE_CC_TAKEOFFS 1
        GUID {0C3271F4-E233-9088-9B25-A722FAE7C579}
        IGNTEMPO 0 120 4 4
        SRCCOLOR 21
        VELLANE -1 100 0
        CFGEDITVIEW 0 0.045808 45 12 0 -1 0 0 0 0.5
        KEYSNAP 0
        TRACKSEL 0
        EVTFILTER 0 -1 -1 -1 -1 0 0 0 0 -1 -1 -1 -1 0 -1 0 -1 -1
        CFGEDIT 1 1 0 1 0 0 1 1 1 1 1 1 58 171 1253 866 0 0 0 0 0.25 0 0 0 0 0.5 0 0 1 64
      >
    >
    <ITEM
      POSITION 40
      SNAPOFFS 0
      LENGTH 8
      LOOP 1
      ALLTAKES 0
      FADEIN 1 0 0 1 0 0
      FADEOUT 1 0 0 1 0 0
      MUTE 0
      SEL 1
      IGUID {9B68F98D-A50D-C8D6-0FE7-C7F5D8CBD57F}
      IID 15
      NAME "01-Recorded MIDI"
      VOLPAN 1 0 1 -1
      SOFFS 0 0
      PLAYRATE 1 1 0 -1 0 0.0021
      CHANMODE 0
      GUID {636D9FC5-93C2-6691-49E2-C9F8B0CB6CEC}
      RECPASS 1
      <SOURCE MIDI
        HASDATA 1 960 QN
        CCINTERP 32
        POOLEDEVTS {E2EE06F3-F342-6FE1-C158-9451A2E4EB86}
        E 0 90 3c 48
        E 0 90 40 48
        E 0 90 43 48
        E 1920 80 3c 00
        E 0 80 40 00
        E 0 80 43 00
        E 0 90 3c 48
        E 0 90 40 48
        E 0 90 43 48
        E 260 80 3c 00
        E 0 80 40 00
        E 0 80 43 00
        E 440 90 3c 48
        E 0 90 40 48
        E 0 90 43 48
        E 260 80 3c 00
        E 0 80 40 00
        E 0 80 43 00
        e 514 90 3c 48
        e 0 90 40 48
        e 0 90 43 48
        e 260 80 3c 00
        e 0 80 40 00
        e 0 80 43 00
        E 186 90 43 48
        E 0 90 47 48
        E 20 90 40 48
        E 1900 80 43 00
        E 0 80 47 00
        E 0 80 40 00
        E 0 90 43 48
        E 0 90 47 48
        E 20 90 40 48
        E 240 80 43 00
        E 0 80 47 00
        E 0 80 40 00
        E 440 90 43 48
        E 0 90 47 48
        E 20 90 40 48
        E 240 80 43 00
        E 0 80 47 00
        E 0 80 40 00
        e 514 90 43 48
        e 0 90 47 48
        e 20 90 40 48
        e 240 80 43 00
        e 0 80 47 00
        e 0 80 40 00
        E 186 90 41 48
        E 0 90 45 48
        E 0 90 48 48
        E 1920 80 41 00
        E 0 80 45 00
        E 0 80 48 00
        E 0 90 41 48
        E 0 90 45 48
        E 0 90 48 48
        E 260 80 41 00
        E 0 80 45 00
        E 0 80 48 00
        E 440 90 41 48
        E 0 90 45 48
        E 0 90 48 48
        E 260 80 41 00
        E 0 80 45 00
        E 0 80 48 00
        e 514 90 41 48
        e 0 90 45 48
        e 0 90 48 48
        e 260 80 41 00
        e 0 80 45 00
        e 0 80 48 00
        E 162 90 3e 48
        E 24 90 41 48
        E 0 90 45 48
        E 1896 90 3e 48
        E 24 80 3e 00
        E 0 80 41 00
        E 0 80 45 00
        E 0 90 41 48
        E 0 90 45 48
        E 260 80 3e 00
        E 0 80 41 00
        E 0 80 45 00
        E 416 90 3e 48
        E 24 90 41 48
        E 0 90 45 48
        E 260 80 3e 00
        E 0 80 41 00
        E 0 80 45 00
        e 490 90 3e 48
        e 24 90 41 48
        e 0 90 45 48
        e 260 80 3e 00
        e 0 80 41 00
        e 0 80 45 00
        E 186 b0 7b 00
        CHASE_CC_TAKEOFFS 1
        GUID {040E7AF8-3572-5D91-3C86-797AEE7444D4}
        IGNTEMPO 0 120 4 4
        SRCCOLOR 22
        VELLANE -1 100 0
        CFGEDITVIEW 0 0.045808 45 12 0 -1 0 0 0 0.5
        KEYSNAP 0
        TRACKSEL 0
        EVTFILTER 0 -1 -1 -1 -1 0 0 0 0 -1 -1 -1 -1 0 -1 0 -1 -1
        CFGEDIT 1 1 0 1 0 0 1 1 1 1 1 1 58 171 1253 866 0 0 0 0 0.25 0 0 0 0 0.5 0 0 1 64
      >
    >
    <ITEM
      POSITION 48
      SNAPOFFS 0
      LENGTH 8
      LOOP 1
      ALLTAKES 0
      FADEIN 1 0 0 1 0 0
      FADEOUT 1 0 0 1 0 0
      MUTE 0
      SEL 1
      IGUID {348EC61F-2DE2-1C88-E132-6056C29E6739}
      IID 16
      NAME "01-Recorded MIDI"
      VOLPAN 1 0 1 -1
      SOFFS 0 0
      PLAYRATE 1 1 0 -1 0 0.0021
      CHANMODE 0
      GUID {2A17FAFF-E4F1-17BF-87D1-7D069A24880B}
      RECPASS 1
      <SOURCE MIDI
        HASDATA 1 960 QN
        CCINTERP 32
        POOLEDEVTS {6AA92765-FA01-E06C-6658-5231AA1B7351}
        E 0 90 3c 48
        E 0 90 40 48
        E 0 90 43 48
        E 1920 80 3c 00
        E 0 80 40 00
        E 0 80 43 00
        E 0 90 3c 48
        E 0 90 40 48
        E 0 90 43 48
        E 260 80 3c 00
        E 0 80 40 00
        E 0 80 43 00
        E 440 90 3c 48
        E 0 90 40 48
        E 0 90 43 48
        E 260 80 3c 00
        E 0 80 40 00
        E 0 80 43 00
        e 514 90 3c 48
        e 0 90 40 48
        e 0 90 43 48
        e 260 80 3c 00
        e 0 80 40 00
        e 0 80 43 00
        E 186 90 43 48
        E 0 90 47 48
        E 20 90 40 48
        E 1900 80 43 00
        E 0 80 47 00
        E 0 80 40 00
        E 0 90 43 48
        E 0 90 47 48
        E 20 90 40 48
        E 240 80 43 00
        E 0 80 47 00
        E 0 80 40 00
        E 440 90 43 48
        E 0 90 47 48
        E 20 90 40 48
        E 240 80 43 00
        E 0 80 47 00
        E 0 80 40 00
        e 514 90 43 48
        e 0 90 47 48
        e 20 90 40 48
        e 240 80 43 00
        e 0 80 47 00
        e 0 80 40 00
        E 186 90 41 48
        E 0 90 45 48
        E 0 90 48 48
        E 1920 80 41 00
        E 0 80 45 00
        E 0 80 48 00
        E 0 90 41 48
        E 0 90 45 48
        E 0 90 48 48
        E 260 80 41 00
        E 0 80 45 00
        E 0 80 48 00
        E 440 90 41 48
        E 0 90 45 48
        E 0 90 48 48
        E 260 80 41 00
        E 0 80 45 00
        E 0 80 48 00
        e 514 90 41 48
        e 0 90 45 48
        e 0 90 48 48
        e 260 80 41 00
        e 0 80 45 00
        e 0 80 48 00
        E 162 90 3e 48
        E 24 90 41 48
        E 0 90 45 48
        E 1896 90 3e 48
        E 24 80 3e 00
        E 0 80 41 00
        E 0 80 45 00
        E 0 90 41 48
        E 0 90 45 48
        E 260 80 3e 00
        E 0 80 41 00
        E 0 80 45 00
        E 416 90 3e 48
        E 24 90 41 48
        E 0 90 45 48
        E 260 80 3e 00
        E 0 80 41 00
        E 0 80 45 00
        e 490 90 3e 48
        e 24 90 41 48
        e 0 90 45 48
        e 260 80 3e 00
        e 0 80 41 00
        e 0 80 45 00
        E 186 b0 7b 00
        CHASE_CC_TAKEOFFS 1
        GUID {2338968B-6CF9-9F40-300F-DEB89D3392EA}
        IGNTEMPO 0 120 4 4
        SRCCOLOR 23
        VELLANE -1 100 0
        CFGEDITVIEW 0 0.045808 45 12 0 -1 0 0 0 0.5
        KEYSNAP 0
        TRACKSEL 0
        EVTFILTER 0 -1 -1 -1 -1 0 0 0 0 -1 -1 -1 -1 0 -1 0 -1 -1
        CFGEDIT 1 1 0 1 0 0 1 1 1 1 1 1 58 171 1253 866 0 0 0 0 0.25 0 0 0 0 0.5 0 0 1 64
      >
    >
    <ITEM
      POSITION 56
      SNAPOFFS 0
      LENGTH 8
      LOOP 1
      ALLTAKES 0
      FADEIN 1 0 0 1 0 0
      FADEOUT 1 0 0 1 0 0
      MUTE 0
      SEL 1
      IGUID {70721F60-06ED-6514-D244-29EF54905661}
      IID 17
      NAME "01-Recorded MIDI"
      VOLPAN 1 0 1 -1
      SOFFS 0 0
      PLAYRATE 1 1 0 -1 0 0.0021
      CHANMODE 0
      GUID {69E7AF30-361A-CD80-A5D8-F3EFC845F4D7}
      RECPASS 1
      <SOURCE MIDI
        HASDATA 1 960 QN
        CCINTERP 32
        POOLEDEVTS {4F8C3E1D-D3ED-5E12-7071-1C849A40ADF0}
        E 0 90 3c 48
        E 0 90 40 48
        E 0 90 43 48
        E 1920 80 3c 00
        E 0 80 40 00
        E 0 80 43 00
        E 0 90 3c 48
        E 0 90 40 48
        E 0 90 43 48
        E 260 80 3c 00
        E 0 80 40 00
        E 0 80 43 00
        E 440 90 3c 48
        E 0 90 40 48
        E 0 90 43 48
        E 260 80 3c 00
        E 0 80 40 00
        E 0 80 43 00
        e 514 90 3c 48
        e 0 90 40 48
        e 0 90 43 48
        e 260 80 3c 00
        e 0 80 40 00
        e 0 80 43 00
        E 186 90 43 48
        E 0 90 47 48
        E 20 90 40 48
        E 1900 80 43 00
        E 0 80 47 00
        E 0 80 40 00
        E 0 90 43 48
        E 0 90 47 48
        E 20 90 40 48
        E 240 80 43 00
        E 0 80 47 00
        E 0 80 40 00
        E 440 90 43 48
        E 0 90 47 48
        E 20 90 40 48
        E 240 80 43 00
        E 0 80 47 00
        E 0 80 40 00
        e 514 90 43 48
        e 0 90 47 48
        e 20 90 40 48
        e 240 80 43 00
        e 0 80 47 00
        e 0 80 40 00
        E 186 90 41 48
        E 0 90 45 48
        E 0 90 48 48
        E 1920 80 41 00
        E 0 80 45 00
        E 0 80 48 00
        E 0 90 41 48
        E 0 90 45 48
        E 0 90 48 48
        E 260 80 41 00
        E 0 80 45 00
        E 0 80 48 00
        E 440 90 41 48
        E 0 90 45 48
        E 0 90 48 48
        E 260 80 41 00
        E 0 80 45 00
        E 0 80 48 00
        e 514 90 41 48
        e 0 90 45 48
        e 0 90 48 48
        e 260 80 41 00
        e 0 80 45 00
        e 0 80 48 00
        E 162 90 3e 48
        E 24 90 41 48
        E 0 90 45 48
        E 1896 90 3e 48
        E 24 80 3e 00
        E 0 80 41 00
        E 0 80 45 00
        E 0 90 41 48
        E 0 90 45 48
        E 260 80 3e 00
        E 0 80 41 00
        E 0 80 45 00
        E 416 90 3e 48
        E 24 90 41 48
        E 0 90 45 48
        E 260 80 3e 00
        E 0 80 41 00
        E 0 80 45 00
        e 490 90 3e 48
        e 24 90 41 48
        e 0 90 45 48
        e 260 80 3e 00
        e 0 80 41 00
        e 0 80 45 00
        E 186 b0 7b 00
        CHASE_CC_TAKEOFFS 1
        GUID {A64857E2-94F8-0990-20DF-4C1E9B5E6251}
        IGNTEMPO 0 120 4 4
        SRCCOLOR 24
        VELLANE -1 100 0
        CFGEDITVIEW 0 0.045808 45 12 0 -1 0 0 0 0.5
        KEYSNAP 0
        TRACKSEL 0
        EVTFILTER 0 -1 -1 -1 -1 0 0 0 0 -1 -1 -1 -1 0 -1 0 -1 -1
        CFGEDIT 1 1 0 1 0 0 1 1 1 1 1 1 58 171 1253 866 0 0 0 0 0.25 0 0 0 0 0.5 0 0 1 64
      >
    >
    <ITEM
      POSITION 64
      SNAPOFFS 0
      LENGTH 8
      LOOP 1
      ALLTAKES 0
      FADEIN 1 0 0 1 0 0
      FADEOUT 1 0 0 1 0 0
      MUTE 0
      SEL 1
      IGUID {1D564E37-5E70-A75D-5D09-1B6B3C879839}
      IID 18
      NAME "01-Recorded MIDI"
      VOLPAN 1 0 1 -1
      SOFFS 0 0
      PLAYRATE 1 1 0 -1 0 0.0021
      CHANMODE 0
      GUID {F17FD46F-8692-07C3-A359-A8485C9CF2F5}
      RECPASS 1
      <SOURCE MIDI
        HASDATA 1 960 QN
        CCINTERP 32
        POOLEDEVTS {A7C1DEFF-5B95-9FCE-77FF-A515AA8A60E2}
        E 0 90 3c 48
        E 0 90 40 48
        E 0 90 43 48
        E 1920 80 3c 00
        E 0 80 40 00
        E 0 80 43 00
        E 0 90 3c 48
        E 0 90 40 48
        E 0 90 43 48
        E 260 80 3c 00
        E 0 80 40 00
        E 0 80 43 00
        E 440 90 3c 48
        E 0 90 40 48
        E 0 90 43 48
        E 260 80 3c 00
        E 0 80 40 00
        E 0 80 43 00
        e 514 90 3c 48
        e 0 90 40 48
        e 0 90 43 48
        e 260 80 3c 00
        e 0 80 40 00
        e 0 80 43 00
        E 186 90 43 48
        E 0 90 47 48
        E 20 90 40 48
        E 1900 80 43 00
        E 0 80 47 00
        E 0 80 40 00
        E 0 90 43 48
        E 0 90 47 48
        E 20 90 40 48
        E 240 80 43 00
        E 0 80 47 00
        E 0 80 40 00
        E 440 90 43 48
        E 0 90 47 48
        E 20 90 40 48
        E 240 80 43 00
        E 0 80 47 00
        E 0 80 40 00
        e 514 90 43 48
        e 0 90 47 48
        e 20 90 40 48
        e 240 80 43 00
        e 0 80 47 00
        e 0 80 40 00
        E 186 90 41 48
        E 0 90 45 48
        E 0 90 48 48
        E 1920 80 41 00
        E 0 80 45 00
        E 0 80 48 00
        E 0 90 41 48
        E 0 90 45 48
        E 0 90 48 48
        E 260 80 41 00
        E 0 80 45 00
        E 0 80 48 00
        E 440 90 41 48
        E 0 90 45 48
        E 0 90 48 48
        E 260 80 41 00
        E 0 80 45 00
        E 0 80 48 00
        e 514 90 41 48
        e 0 90 45 48
        e 0 90 48 48
        e 260 80 41 00
        e 0 80 45 00
        e 0 80 48 00
        E 162 90 3e 48
        E 24 90 41 48
        E 0 90 45 48
        E 1896 90 3e 48
        E 24 80 3e 00
        E 0 80 41 00
        E 0 80 45 00
        E 0 90 41 48
        E 0 90 45 48
        E 260 80 3e 00
        E 0 80 41 00
        E 0 80 45 00
        E 416 90 3e 48
        E 24 90 41 48
        E 0 90 45 48
        E 260 80 3e 00
        E 0 80 41 00
        E 0 80 45 00
        e 490 90 3e 48
        e 24 90 41 48
        e 0 90 45 48
        e 260 80 3e 00
        e 0 80 41 00
        e 0 80 45 00
        E 186 b0 7b 00
        CHASE_CC_TAKEOFFS 1
        GUID {19362806-85F2-5D9E-E1F9-07BE0CF3D16E}
        IGNTEMPO 0 120 4 4
        SRCCOLOR 25
        VELLANE -1 100 0
        CFGEDITVIEW 0 0.045808 45 12 0 -1 0 0 0 0.5
        KEYSNAP 0
        TRACKSEL 0
        EVTFILTER 0 -1 -1 -1 -1 0 0 0 0 -1 -1 -1 -1 0 -1 0 -1 -1
        CFGEDIT 1 1 0 1 0 0 1 1 1 1 1 1 58 171 1253 866 0 0 0 0 0.25 0 0 0 0 0.5 0 0 1 64
      >
    >
    <ITEM
      POSITION 72
      SNAPOFFS 0
      LENGTH 8
      LOOP 1
      ALLTAKES 0
      FADEIN 1 0 0 1 0 0
      FADEOUT 1 0 0 1 0 0
      MUTE 0
      SEL 1
      IGUID {4E9B2112-BF92-8EC7-8296-13FD4F5B9E43}
      IID 19
      NAME "01-Recorded MIDI"
      VOLPAN 1 0 1 -1
      SOFFS 0 0
      PLAYRATE 1 1 0 -1 0 0.0021
      CHANMODE 0
      GUID {F4815918-E606-E05B-D788-EC10C6B0C636}
      RECPASS 1
      <SOURCE MIDI
        HASDATA 1 960 QN
        CCINTERP 32
        POOLEDEVTS {FD04B9AC-0D56-D031-83F5-439386B37D1B}
        E 0 90 3c 48
        E 0 90 40 48
        E 0 90 43 48
        E 1920 80 3c 00
        E 0 80 40 00
        E 0 80 43 00
        E 0 90 3c 48
        E 0 90 40 48
        E 0 90 43 48
        E 260 80 3c 00
        E 0 80 40 00
        E 0 80 43 00
        E 440 90 3c 48
        E 0 90 40 48
        E 0 90 43 48
        E 260 80 3c 00
        E 0 80 40 00
        E 0 80 43 00
        e 514 90 3c 48
        e 0 90 40 48
        e 0 90 43 48
        e 260 80 3c 00
        e 0 80 40 00
        e 0 80 43 00
        E 186 90 43 48
        E 0 90 47 48
        E 20 90 40 48
        E 1900 80 43 00
        E 0 80 47 00
        E 0 80 40 00
        E 0 90 43 48
        E 0 90 47 48
        E 20 90 40 48
        E 240 80 43 00
        E 0 80 47 00
        E 0 80 40 00
        E 440 90 43 48
        E 0 90 47 48
        E 20 90 40 48
        E 240 80 43 00
        E 0 80 47 00
        E 0 80 40 00
        e 514 90 43 48
        e 0 90 47 48
        e 20 90 40 48
        e 240 80 43 00
        e 0 80 47 00
        e 0 80 40 00
        E 186 90 41 48
        E 0 90 45 48
        E 0 90 48 48
        E 1920 80 41 00
        E 0 80 45 00
        E 0 80 48 00
        E 0 90 41 48
        E 0 90 45 48
        E 0 90 48 48
        E 260 80 41 00
        E 0 80 45 00
        E 0 80 48 00
        E 440 90 41 48
        E 0 90 45 48
        E 0 90 48 48
        E 260 80 41 00
        E 0 80 45 00
        E 0 80 48 00
        e 514 90 41 48
        e 0 90 45 48
        e 0 90 48 48
        e 260 80 41 00
        e 0 80 45 00
        e 0 80 48 00
        E 162 90 3e 48
        E 24 90 41 48
        E 0 90 45 48
        E 1896 90 3e 48
        E 24 80 3e 00
        E 0 80 41 00
        E 0 80 45 00
        E 0 90 41 48
        E 0 90 45 48
        E 260 80 3e 00
        E 0 80 41 00
        E 0 80 45 00
        E 416 90 3e 48
        E 24 90 41 48
        E 0 90 45 48
        E 260 80 3e 00
        E 0 80 41 00
        E 0 80 45 00
        e 490 90 3e 48
        e 24 90 41 48
        e 0 90 45 48
        e 260 80 3e 00
        e 0 80 41 00
        e 0 80 45 00
        E 186 b0 7b 00
        CHASE_CC_TAKEOFFS 1
        GUID {6844F8A9-6BE9-023C-4A46-0A676470C99B}
        IGNTEMPO 0 120 4 4
        SRCCOLOR 26
        VELLANE -1 100 0
        CFGEDITVIEW 0 0.045808 45 12 0 -1 0 0 0 0.5
        KEYSNAP 0
        TRACKSEL 0
        EVTFILTER 0 -1 -1 -1 -1 0 0 0 0 -1 -1 -1 -1 0 -1 0 -1 -1
        CFGEDIT 1 1 0 1 0 0 1 1 1 1 1 1 58 171 1253 866 0 0 0 0 0.25 0 0 0 0 0.5 0 0 1 64
      >
    >
    <ITEM
      POSITION 80
      SNAPOFFS 0
      LENGTH 8
      LOOP 1
      ALLTAKES 0
      FADEIN 1 0 0 1 0 0
      FADEOUT 1 0 0 1 0 0
      MUTE 0
      SEL 1
      IGUID {31C6D157-1F60-59F1-61FD-1936212F7E38}
      IID 20
      NAME "01-Recorded MIDI"
      VOLPAN 1 0 1 -1
      SOFFS 0 0
      PLAYRATE 1 1 0 -1 0 0.0021
      CHANMODE 0
      GUID {D8D91605-DECD-43A1-B0E6-B4C5195990A6}
      RECPASS 1
      <SOURCE MIDI
        HASDATA 1 960 QN
        CCINTERP 32
        POOLEDEVTS {9EB3914B-A010-6359-9362-9F70AE7F17DA}
        E 0 90 3c 48
        E 0 90 40 48
        E 0 90 43 48
        E 1920 80 3c 00
        E 0 80 40 00
        E 0 80 43 00
        E 0 90 3c 48
        E 0 90 40 48
        E 0 90 43 48
        E 260 80 3c 00
        E 0 80 40 00
        E 0 80 43 00
        E 440 90 3c 48
        E 0 90 40 48
        E 0 90 43 48
        E 260 80 3c 00
        E 0 80 40 00
        E 0 80 43 00
        e 514 90 3c 48
        e 0 90 40 48
        e 0 90 43 48
        e 260 80 3c 00
        e 0 80 40 00
        e 0 80 43 00
        E 186 90 43 48
        E 0 90 47 48
        E 20 90 40 48
        E 1900 80 43 00
        E 0 80 47 00
        E 0 80 40 00
        E 0 90 43 48
        E 0 90 47 48
        E 20 90 40 48
        E 240 80 43 00
        E 0 80 47 00
        E 0 80 40 00
        E 440 90 43 48
        E 0 90 47 48
        E 20 90 40 48
        E 240 80 43 00
        E 0 80 47 00
        E 0 80 40 00
        e 514 90 43 48
        e 0 90 47 48
        e 20 90 40 48
        e 240 80 43 00
        e 0 80 47 00
        e 0 80 40 00
        E 186 90 41 48
        E 0 90 45 48
        E 0 90 48 48
        E 1920 80 41 00
        E 0 80 45 00
        E 0 80 48 00
        E 0 90 41 48
        E 0 90 45 48
        E 0 90 48 48
        E 260 80 41 00
        E 0 80 45 00
        E 0 80 48 00
        E 440 90 41 48
        E 0 90 45 48
        E 0 90 48 48
        E 260 80 41 00
        E 0 80 45 00
        E 0 80 48 00
        e 514 90 41 48
        e 0 90 45 48
        e 0 90 48 48
        e 260 80 41 00
        e 0 80 45 00
        e 0 80 48 00
        E 162 90 3e 48
        E 24 90 41 48
        E 0 90 45 48
        E 1896 90 3e 48
        E 24 80 3e 00
        E 0 80 41 00
        E 0 80 45 00
        E 0 90 41 48
        E 0 90 45 48
        E 260 80 3e 00
        E 0 80 41 00
        E 0 80 45 00
        E 416 90 3e 48
        E 24 90 41 48
        E 0 90 45 48
        E 260 80 3e 00
        E 0 80 41 00
        E 0 80 45 00
        e 490 90 3e 48
        e 24 90 41 48
        e 0 90 45 48
        e 260 80 3e 00
        e 0 80 41 00
        e 0 80 45 00
        E 186 b0 7b 00
        CHASE_CC_TAKEOFFS 1
        GUID {E611ADB6-4869-6CCA-8E83-3954D5E743B1}
        IGNTEMPO 0 120 4 4
        SRCCOLOR 27
        VELLANE -1 100 0
        CFGEDITVIEW 0 0.045808 45 12 0 -1 0 0 0 0.5
        KEYSNAP 0
        TRACKSEL 0
        EVTFILTER 0 -1 -1 -1 -1 0 0 0 0 -1 -1 -1 -1 0 -1 0 -1 -1
        CFGEDIT 1 1 0 1 0 0 1 1 1 1 1 1 58 171 1253 866 0 0 0 0 0.25 0 0 0 0 0.5 0 0 1 64
      >
    >
    <ITEM
      POSITION 88
      SNAPOFFS 0
      LENGTH 8
      LOOP 1
      ALLTAKES 0
      FADEIN 1 0 0 1 0 0
      FADEOUT 1 0 0 1 0 0
      MUTE 0
      SEL 1
      IGUID {F3AA55A0-3022-00F5-05C6-521B1CCCF696}
      IID 21
      NAME "01-Recorded MIDI"
      VOLPAN 1 0 1 -1
      SOFFS 0 0
      PLAYRATE 1 1 0 -1 0 0.0021
      CHANMODE 0
      GUID {FFE6B6A5-222E-2ECC-9CA3-E3ED4FFE55BF}
      RECPASS 1
      <SOURCE MIDI
        HASDATA 1 960 QN
        CCINTERP 32
        POOLEDEVTS {E3752D10-246E-6D71-1951-BDE7C15EF6BC}
        E 0 90 3c 48
        E 0 90 40 48
        E 0 90 43 48
        E 1920 80 3c 00
        E 0 80 40 00
        E 0 80 43 00
        E 0 90 3c 48
        E 0 90 40 48
        E 0 90 43 48
        E 260 80 3c 00
        E 0 80 40 00
        E 0 80 43 00
        E 440 90 3c 48
        E 0 90 40 48
        E 0 90 43 48
        E 260 80 3c 00
        E 0 80 40 00
        E 0 80 43 00
        e 514 90 3c 48
        e 0 90 40 48
        e 0 90 43 48
        e 260 80 3c 00
        e 0 80 40 00
        e 0 80 43 00
        E 186 90 43 48
        E 0 90 47 48
        E 20 90 40 48
        E 1900 80 43 00
        E 0 80 47 00
        E 0 80 40 00
        E 0 90 43 48
        E 0 90 47 48
        E 20 90 40 48
        E 240 80 43 00
        E 0 80 47 00
        E 0 80 40 00
        E 440 90 43 48
        E 0 90 47 48
        E 20 90 40 48
        E 240 80 43 00
        E 0 80 47 00
        E 0 80 40 00
        e 514 90 43 48
        e 0 90 47 48
        e 20 90 40 48
        e 240 80 43 00
        e 0 80 47 00
        e 0 80 40 00
        E 186 90 41 48
        E 0 90 45 48
        E 0 90 48 48
        E 1920 80 41 00
        E 0 80 45 00
        E 0 80 48 00
        E 0 90 41 48
        E 0 90 45 48
        E 0 90 48 48
        E 260 80 41 00
        E 0 80 45 00
        E 0 80 48 00
        E 440 90 41 48
        E 0 90 45 48
        E 0 90 48 48
        E 260 80 41 00
        E 0 80 45 00
        E 0 80 48 00
        e 514 90 41 48
        e 0 90 45 48
        e 0 90 48 48
        e 260 80 41 00
        e 0 80 45 00
        e 0 80 48 00
        E 162 90 3e 48
        E 24 90 41 48
        E 0 90 45 48
        E 1896 90 3e 48
        E 24 80 3e 00
        E 0 80 41 00
        E 0 80 45 00
        E 0 90 41 48
        E 0 90 45 48
        E 260 80 3e 00
        E 0 80 41 00
        E 0 80 45 00
        E 416 90 3e 48
        E 24 90 41 48
        E 0 90 45 48
        E 260 80 3e 00
        E 0 80 41 00
        E 0 80 45 00
        e 490 90 3e 48
        e 24 90 41 48
        e 0 90 45 48
        e 260 80 3e 00
        e 0 80 41 00
        e 0 80 45 00
        E 186 b0 7b 00
        CHASE_CC_TAKEOFFS 1
        GUID {C762B555-17FC-D765-5340-11D3487D2955}
        IGNTEMPO 0 120 4 4
        SRCCOLOR 28
        VELLANE -1 100 0
        CFGEDITVIEW 0 0.045808 45 12 0 -1 0 0 0 0.5
        KEYSNAP 0
        TRACKSEL 0
        EVTFILTER 0 -1 -1 -1 -1 0 0 0 0 -1 -1 -1 -1 0 -1 0 -1 -1
        CFGEDIT 1 1 0 1 0 0 1 1 1 1 1 1 58 171 1253 866 0 0 0 0 0.25 0 0 0 0 0.5 0 0 1 64
      >
    >
  >
  <TRACK {BC013019-0F78-6ECA-4D2C-4F0B91B8F909}
    NAME ""
    PEAKCOL 16576
    BEAT -1
    AUTOMODE 0
    VOLPAN 0.00052194381917 0 -1 -1 1
    MUTESOLO 0 0 0
    IPHASE 0
    PLAYOFFS 0 1
    ISBUS 0 0
    BUSCOMP 0 0 0 0 0
    SHOWINMIX 1 0.6667 0.5 1 0.5 0 0 0
    FREEMODE 0
    SEL 0
    REC 0 5056 1 0 0 0 0
    VU 2
    TRACKHEIGHT 21 0 0
    INQ 0 0 0 0.5 100 0 0 100
    NCHAN 2
    FX 0
    TRACKID {BC013019-0F78-6ECA-4D2C-4F0B91B8F909}
    PERF 0
    MIDIOUT -1
    MAINSEND 1 0
    <FXCHAIN
      WNDRECT 346 266 902 608
      SHOW 0
      LASTSEL 5
      DOCKED 0
      BYPASS 0 0 0
      <VST "VST: ReaEQ (Cockos)" reaeq.vst.so 0 "" 1919247729<56535472656571726561657100000000> ""
        cWVlcu5e7f4CAAAAAQAAAAAAAAACAAAAAAAAAAIAAAABAAAAAAAAAAIAAAAAAAAAqAAAAAEAAAAAABAA
        IQAAAAQAAAAEAAAAAQAAAFS4Xhmm+DRAAAAAAAAA8D8AAAAAAAAAQAEIAAAAAQAAAAAAAAAAwHJAAAAAAAAA8D8AAAAAAAAAQAEIAAAAAQAAAAAAAAAAQI9AAAAAAAAA
        8D8AAAAAAAAAQAEDAAAAAQAAAAABaCorbdRAAAAAAAAA8D8AAAAAAAAAQAEBAAAAAQAAAAAAAAAAAPA/AAAAAJoCAACcAQAA
        AEhpZ2ggbG93IHBhc3MAEAAAAA==
      >
      PRESETNAME "High low pass"
      FLOATPOS 0 0 0 0
      FXID {3ED64BA4-14B4-F28C-CA3C-5D6A77F6363A}
      WAK 0 0
      BYPASS 0 0 0
      <VST "VSTi: ReaSynth (Cockos)" reasynth.vst.so 0 "" 1919251321<5653547265737972656173796E746800> ""
        eXNlcu9e7f4AAAAAAgAAAAEAAAAAAAAAAgAAAAAAAAA8AAAAAAAAAAAAEAA=
        776t3g3wrd6lm8Q7F7fROgAAAAAAAAAAAAAAAJCNuT3oZ4g9AACAPwAAAD8AAIA/AAAAAAAAAD8AAAAA
        AAAQAAAA
      >
      FLOATPOS 0 0 0 0
      FXID {D91192FB-BA77-3F01-E284-4D6016D579E1}
      WAK 0 0
      BYPASS 0 0 0
      <JS guitar/amp-model ""
        "Dumble Overdrive Special - Tweed Deluxe.wav" -21.000000 1.000000 0.000000 73.000000 256.000000 - - - - - - - - - - - - - - - - - - - - - - - - - - - - - - - - - - - - - - - - - - - - - - - - - - - - - - - - - - 
      >
      FLOATPOS 0 0 0 0
      FXID {42C7086E-D0C9-9A4A-8078-D4146C83CCBE}
      WAK 0 0
      BYPASS 0 0 0
      <VST "VST: ReaComp (Cockos)" reacomp.vst.so 0 "" 1919247213<5653547265636D726561636F6D700000> ""
        bWNlcu9e7f4EAAAAAQAAAAAAAAACAAAAAAAAAAQAAAAAAAAACAAAAAAAAAACAAAAAQAAAAAAAAACAAAAAAAAAFQAAAAAAAAAAAAQAA==
        776t3g3wrd5FoYg9/AWpPKWbxDsK16M8AAAAAAAAAAAAAIA/AAAAAAAAAAAAAAAAnNEHMwAAgD8AAAAAzMxMPQAAAAAAAAAAAAAAAAAAgD7YiZ09
        AAAQAAAA
      >
      FLOATPOS 0 0 0 0
      FXID {03A5A696-1899-F012-F9FB-8347E4C4B8D3}
      WAK 0 0
      BYPASS 0 0 0
      <VST "VST: ReaDelay (Cockos)" readelay.vst.so 0 "" 1919247468<5653547265646C72656164656C617900> ""
        bGRlcu5e7f4CAAAAAQAAAAAAAAACAAAAAAAAAAIAAAABAAAAAAAAAAIAAAAAAAAA/AAAAAEAAAAAAAAA
        AAAAAAAAAAAFAAAALAAAAAIAAAAEAAAAAACAPwAAgD8AAAAAAACAPwAAAAAAAIA7vTeGNQAAgD8AAAAAAACAPwAAgD8AAIA/AAAAAAAAAAAAAIA/AAAAAAAAADwAAAAA
        AACAPwAAAAAAAIA/AACAP+87NT8AAIA/AAAAAAAAgD8AAAAAAABAPL03hjUAAIA/AAAAAAAAgD8AAIA/zk0AP6abhD4AAAAAAACAPwAAAAAAAIA8vTeGNQAAgD8AAAAA
        AACAPwAAgD8aqrU+pHA9PwAAAAAAAIA/AAAAAAAAoDy9N4Y1AACAPwAAAAAAAIA/AACAP/npAD4AAAA/
        AHN0b2NrIC0gYmFzaWMgNSB0YXAgcGluZyBwb25nAAAAAAA=
      >
      PRESETNAME "stock - basic 5 tap ping pong"
      FLOATPOS 0 0 0 0
      FXID {5DF85E17-C4D2-E2DF-7F93-C295993F90AE}
      WAK 0 0
      BYPASS 0 0 0
      <VST "VST: ReaVerb (Cockos)" reaverb.vst.so 0 "" 1919252066<56535472657662726561766572620000> ""
        YnZlcu5e7f4CAAAAAQAAAAAAAAACAAAAAAAAAAIAAAABAAAAAAAAAAIAAAAAAAAAcAAAAAEAAAAAAAAA
        AAAAwcybgD4AAIA/AAAAAAAAgD8AAIA/AAAAPwAAgD8AAAAAVkVSQkdFTgAYAAAAAAAAAJHgV0QdrLRA3rK7QsHIjEIAAIC/RUNIT0dFTgAcAAAAy/i2QLUjdUJdzdM/
        osdfP5lRrzyRzYxAnMQAPw==
        AHN3ZWV0dmVyYm8AAAAAAA==
      >
      PRESETNAME sweetverbo
      FLOATPOS 0 0 0 0
      FXID {3664CD01-42C1-5645-B90D-C103C6FE4DE1}
      WAK 0 0
    >
    <ITEM
      POSITION 0
      SNAPOFFS 0
      LENGTH 8
      LOOP 1
      ALLTAKES 0
      FADEIN 1 0 0 1 0 0
      FADEOUT 1 0 0 1 0 0
      MUTE 0
      SEL 1
      IGUID {B72C1AAA-668C-1EDB-ED8C-8187E2E1ED67}
      IID 10
      NAME "01-Recorded MIDI"
      VOLPAN 1 0 1 -1
      SOFFS 0 0
      PLAYRATE 1 1 0 -1 0 0.0021
      CHANMODE 0
      GUID {6C6FF0B9-7193-2934-68E6-4B025462BBEE}
      RECPASS 1
      <SOURCE MIDI
        HASDATA 1 960 QN
        CCINTERP 32
        POOLEDEVTS {A300A950-91DE-0405-D11F-2E1901D26D1C}
        E 0 90 3c 48
        E 0 90 40 48
        E 0 90 43 48
        E 1920 80 3c 00
        E 0 80 40 00
        E 0 80 43 00
        E 0 90 3c 48
        E 0 90 40 48
        E 0 90 43 48
        E 260 80 3c 00
        E 0 80 40 00
        E 0 80 43 00
        E 440 90 3c 48
        E 0 90 40 48
        E 0 90 43 48
        E 260 80 3c 00
        E 0 80 40 00
        E 0 80 43 00
        e 514 90 3c 48
        e 0 90 40 48
        e 0 90 43 48
        e 260 80 3c 00
        e 0 80 40 00
        e 0 80 43 00
        E 186 90 43 48
        E 0 90 47 48
        E 20 90 40 48
        E 1900 80 43 00
        E 0 80 47 00
        E 0 80 40 00
        E 0 90 43 48
        E 0 90 47 48
        E 20 90 40 48
        E 240 80 43 00
        E 0 80 47 00
        E 0 80 40 00
        E 440 90 43 48
        E 0 90 47 48
        E 20 90 40 48
        E 240 80 43 00
        E 0 80 47 00
        E 0 80 40 00
        e 514 90 43 48
        e 0 90 47 48
        e 20 90 40 48
        e 240 80 43 00
        e 0 80 47 00
        e 0 80 40 00
        E 186 90 41 48
        E 0 90 45 48
        E 0 90 48 48
        E 1920 80 41 00
        E 0 80 45 00
        E 0 80 48 00
        E 0 90 41 48
        E 0 90 45 48
        E 0 90 48 48
        E 260 80 41 00
        E 0 80 45 00
        E 0 80 48 00
        E 440 90 41 48
        E 0 90 45 48
        E 0 90 48 48
        E 260 80 41 00
        E 0 80 45 00
        E 0 80 48 00
        e 514 90 41 48
        e 0 90 45 48
        e 0 90 48 48
        e 260 80 41 00
        e 0 80 45 00
        e 0 80 48 00
        E 162 90 3e 48
        E 24 90 41 48
        E 0 90 45 48
        E 1896 90 3e 48
        E 24 80 3e 00
        E 0 80 41 00
        E 0 80 45 00
        E 0 90 41 48
        E 0 90 45 48
        E 260 80 3e 00
        E 0 80 41 00
        E 0 80 45 00
        E 416 90 3e 48
        E 24 90 41 48
        E 0 90 45 48
        E 260 80 3e 00
        E 0 80 41 00
        E 0 80 45 00
        e 490 90 3e 48
        e 24 90 41 48
        e 0 90 45 48
        e 260 80 3e 00
        e 0 80 41 00
        e 0 80 45 00
        E 186 b0 7b 00
        CHASE_CC_TAKEOFFS 1
        GUID {7B9D708B-43E1-C8D4-C4B3-87E2A6C27801}
        IGNTEMPO 0 120 4 4
        SRCCOLOR 17
        VELLANE -1 100 0
        CFGEDITVIEW 0 0.045808 45 12 0 -1 0 0 0 0.5
        KEYSNAP 0
        TRACKSEL 0
        EVTFILTER 0 -1 -1 -1 -1 0 0 0 0 -1 -1 -1 -1 0 -1 0 -1 -1
        CFGEDIT 1 1 0 1 0 0 1 1 1 1 1 1 58 171 1253 866 0 0 0 0 0.25 0 0 0 0 0.5 0 0 1 64
      >
    >
    <ITEM
      POSITION 8
      SNAPOFFS 0
      LENGTH 8
      LOOP 1
      ALLTAKES 0
      FADEIN 1 0 0 1 0 0
      FADEOUT 1 0 0 1 0 0
      MUTE 0
      SEL 1
      IGUID {C59AF8A1-C88F-D70F-2C8E-A22ED190EF0D}
      IID 11
      NAME "01-Recorded MIDI"
      VOLPAN 1 0 1 -1
      SOFFS 0 0
      PLAYRATE 1 1 0 -1 0 0.0021
      CHANMODE 0
      GUID {77370209-C7D2-79BD-2E8E-A3CEDBFC407E}
      RECPASS 1
      <SOURCE MIDI
        HASDATA 1 960 QN
        CCINTERP 32
        POOLEDEVTS {79765DFA-0A14-9554-1783-CAF38FBEDBE3}
        E 0 90 3c 48
        E 0 90 40 48
        E 0 90 43 48
        E 1920 80 3c 00
        E 0 80 40 00
        E 0 80 43 00
        E 0 90 3c 48
        E 0 90 40 48
        E 0 90 43 48
        E 260 80 3c 00
        E 0 80 40 00
        E 0 80 43 00
        E 440 90 3c 48
        E 0 90 40 48
        E 0 90 43 48
        E 260 80 3c 00
        E 0 80 40 00
        E 0 80 43 00
        e 514 90 3c 48
        e 0 90 40 48
        e 0 90 43 48
        e 260 80 3c 00
        e 0 80 40 00
        e 0 80 43 00
        E 186 90 43 48
        E 0 90 47 48
        E 20 90 40 48
        E 1900 80 43 00
        E 0 80 47 00
        E 0 80 40 00
        E 0 90 43 48
        E 0 90 47 48
        E 20 90 40 48
        E 240 80 43 00
        E 0 80 47 00
        E 0 80 40 00
        E 440 90 43 48
        E 0 90 47 48
        E 20 90 40 48
        E 240 80 43 00
        E 0 80 47 00
        E 0 80 40 00
        e 514 90 43 48
        e 0 90 47 48
        e 20 90 40 48
        e 240 80 43 00
        e 0 80 47 00
        e 0 80 40 00
        E 186 90 41 48
        E 0 90 45 48
        E 0 90 48 48
        E 1920 80 41 00
        E 0 80 45 00
        E 0 80 48 00
        E 0 90 41 48
        E 0 90 45 48
        E 0 90 48 48
        E 260 80 41 00
        E 0 80 45 00
        E 0 80 48 00
        E 440 90 41 48
        E 0 90 45 48
        E 0 90 48 48
        E 260 80 41 00
        E 0 80 45 00
        E 0 80 48 00
        e 514 90 41 48
        e 0 90 45 48
        e 0 90 48 48
        e 260 80 41 00
        e 0 80 45 00
        e 0 80 48 00
        E 162 90 3e 48
        E 24 90 41 48
        E 0 90 45 48
        E 1896 90 3e 48
        E 24 80 3e 00
        E 0 80 41 00
        E 0 80 45 00
        E 0 90 41 48
        E 0 90 45 48
        E 260 80 3e 00
        E 0 80 41 00
        E 0 80 45 00
        E 416 90 3e 48
        E 24 90 41 48
        E 0 90 45 48
        E 260 80 3e 00
        E 0 80 41 00
        E 0 80 45 00
        e 490 90 3e 48
        e 24 90 41 48
        e 0 90 45 48
        e 260 80 3e 00
        e 0 80 41 00
        e 0 80 45 00
        E 186 b0 7b 00
        CHASE_CC_TAKEOFFS 1
        GUID {3131B4E2-B370-E352-A9C5-C8CA31551A86}
        IGNTEMPO 0 120 4 4
        SRCCOLOR 18
        VELLANE -1 100 0
        CFGEDITVIEW 0 0.045808 45 12 0 -1 0 0 0 0.5
        KEYSNAP 0
        TRACKSEL 0
        EVTFILTER 0 -1 -1 -1 -1 0 0 0 0 -1 -1 -1 -1 0 -1 0 -1 -1
        CFGEDIT 1 1 0 1 0 0 1 1 1 1 1 1 58 171 1253 866 0 0 0 0 0.25 0 0 0 0 0.5 0 0 1 64
      >
    >
    <ITEM
      POSITION 16
      SNAPOFFS 0
      LENGTH 8
      LOOP 1
      ALLTAKES 0
      FADEIN 1 0 0 1 0 0
      FADEOUT 1 0 0 1 0 0
      MUTE 0
      SEL 1
      IGUID {6C5AB892-4D81-1C29-9D76-9B33C9F32EA8}
      IID 12
      NAME "01-Recorded MIDI"
      VOLPAN 1 0 1 -1
      SOFFS 0 0
      PLAYRATE 1 1 0 -1 0 0.0021
      CHANMODE 0
      GUID {C36B13BD-F5DD-1A77-FB59-18580F411685}
      RECPASS 1
      <SOURCE MIDI
        HASDATA 1 960 QN
        CCINTERP 32
        POOLEDEVTS {27E25BD0-8CA7-8FCC-D61A-B4FF39F773BF}
        E 0 90 3c 48
        E 0 90 40 48
        E 0 90 43 48
        E 1920 80 3c 00
        E 0 80 40 00
        E 0 80 43 00
        E 0 90 3c 48
        E 0 90 40 48
        E 0 90 43 48
        E 260 80 3c 00
        E 0 80 40 00
        E 0 80 43 00
        E 440 90 3c 48
        E 0 90 40 48
        E 0 90 43 48
        E 260 80 3c 00
        E 0 80 40 00
        E 0 80 43 00
        e 514 90 3c 48
        e 0 90 40 48
        e 0 90 43 48
        e 260 80 3c 00
        e 0 80 40 00
        e 0 80 43 00
        E 186 90 43 48
        E 0 90 47 48
        E 20 90 40 48
        E 1900 80 43 00
        E 0 80 47 00
        E 0 80 40 00
        E 0 90 43 48
        E 0 90 47 48
        E 20 90 40 48
        E 240 80 43 00
        E 0 80 47 00
        E 0 80 40 00
        E 440 90 43 48
        E 0 90 47 48
        E 20 90 40 48
        E 240 80 43 00
        E 0 80 47 00
        E 0 80 40 00
        e 514 90 43 48
        e 0 90 47 48
        e 20 90 40 48
        e 240 80 43 00
        e 0 80 47 00
        e 0 80 40 00
        E 186 90 41 48
        E 0 90 45 48
        E 0 90 48 48
        E 1920 80 41 00
        E 0 80 45 00
        E 0 80 48 00
        E 0 90 41 48
        E 0 90 45 48
        E 0 90 48 48
        E 260 80 41 00
        E 0 80 45 00
        E 0 80 48 00
        E 440 90 41 48
        E 0 90 45 48
        E 0 90 48 48
        E 260 80 41 00
        E 0 80 45 00
        E 0 80 48 00
        e 514 90 41 48
        e 0 90 45 48
        e 0 90 48 48
        e 260 80 41 00
        e 0 80 45 00
        e 0 80 48 00
        E 162 90 3e 48
        E 24 90 41 48
        E 0 90 45 48
        E 1896 90 3e 48
        E 24 80 3e 00
        E 0 80 41 00
        E 0 80 45 00
        E 0 90 41 48
        E 0 90 45 48
        E 260 80 3e 00
        E 0 80 41 00
        E 0 80 45 00
        E 416 90 3e 48
        E 24 90 41 48
        E 0 90 45 48
        E 260 80 3e 00
        E 0 80 41 00
        E 0 80 45 00
        e 490 90 3e 48
        e 24 90 41 48
        e 0 90 45 48
        e 260 80 3e 00
        e 0 80 41 00
        e 0 80 45 00
        E 186 b0 7b 00
        CHASE_CC_TAKEOFFS 1
        GUID {48C567A2-895C-FB9B-FDBA-0ADB7004ABF3}
        IGNTEMPO 0 120 4 4
        SRCCOLOR 19
        VELLANE -1 100 0
        CFGEDITVIEW 0 0.045808 45 12 0 -1 0 0 0 0.5
        KEYSNAP 0
        TRACKSEL 0
        EVTFILTER 0 -1 -1 -1 -1 0 0 0 0 -1 -1 -1 -1 0 -1 0 -1 -1
        CFGEDIT 1 1 0 1 0 0 1 1 1 1 1 1 58 171 1253 866 0 0 0 0 0.25 0 0 0 0 0.5 0 0 1 64
      >
    >
    <ITEM
      POSITION 24
      SNAPOFFS 0
      LENGTH 8
      LOOP 1
      ALLTAKES 0
      FADEIN 1 0 0 1 0 0
      FADEOUT 1 0 0 1 0 0
      MUTE 0
      SEL 1
      IGUID {BFA12F2F-E08E-9032-13FC-384813D0268D}
      IID 13
      NAME "01-Recorded MIDI"
      VOLPAN 1 0 1 -1
      SOFFS 0 0
      PLAYRATE 1 1 0 -1 0 0.0021
      CHANMODE 0
      GUID {738A2E7A-0840-92E4-DEED-D8B450FB5610}
      RECPASS 1
      <SOURCE MIDI
        HASDATA 1 960 QN
        CCINTERP 32
        POOLEDEVTS {9ACD1C4B-F89F-5014-25BB-E6A6D9A3CF26}
        E 0 90 3c 48
        E 0 90 40 48
        E 0 90 43 48
        E 1920 80 3c 00
        E 0 80 40 00
        E 0 80 43 00
        E 0 90 3c 48
        E 0 90 40 48
        E 0 90 43 48
        E 260 80 3c 00
        E 0 80 40 00
        E 0 80 43 00
        E 440 90 3c 48
        E 0 90 40 48
        E 0 90 43 48
        E 260 80 3c 00
        E 0 80 40 00
        E 0 80 43 00
        e 514 90 3c 48
        e 0 90 40 48
        e 0 90 43 48
        e 260 80 3c 00
        e 0 80 40 00
        e 0 80 43 00
        E 186 90 43 48
        E 0 90 47 48
        E 20 90 40 48
        E 1900 80 43 00
        E 0 80 47 00
        E 0 80 40 00
        E 0 90 43 48
        E 0 90 47 48
        E 20 90 40 48
        E 240 80 43 00
        E 0 80 47 00
        E 0 80 40 00
        E 440 90 43 48
        E 0 90 47 48
        E 20 90 40 48
        E 240 80 43 00
        E 0 80 47 00
        E 0 80 40 00
        e 514 90 43 48
        e 0 90 47 48
        e 20 90 40 48
        e 240 80 43 00
        e 0 80 47 00
        e 0 80 40 00
        E 186 90 41 48
        E 0 90 45 48
        E 0 90 48 48
        E 1920 80 41 00
        E 0 80 45 00
        E 0 80 48 00
        E 0 90 41 48
        E 0 90 45 48
        E 0 90 48 48
        E 260 80 41 00
        E 0 80 45 00
        E 0 80 48 00
        E 440 90 41 48
        E 0 90 45 48
        E 0 90 48 48
        E 260 80 41 00
        E 0 80 45 00
        E 0 80 48 00
        e 514 90 41 48
        e 0 90 45 48
        e 0 90 48 48
        e 260 80 41 00
        e 0 80 45 00
        e 0 80 48 00
        E 162 90 3e 48
        E 24 90 41 48
        E 0 90 45 48
        E 1896 90 3e 48
        E 24 80 3e 00
        E 0 80 41 00
        E 0 80 45 00
        E 0 90 41 48
        E 0 90 45 48
        E 260 80 3e 00
        E 0 80 41 00
        E 0 80 45 00
        E 416 90 3e 48
        E 24 90 41 48
        E 0 90 45 48
        E 260 80 3e 00
        E 0 80 41 00
        E 0 80 45 00
        e 490 90 3e 48
        e 24 90 41 48
        e 0 90 45 48
        e 260 80 3e 00
        e 0 80 41 00
        e 0 80 45 00
        E 186 b0 7b 00
        CHASE_CC_TAKEOFFS 1
        GUID {1DE38800-E2A1-41B5-9C8C-3291891093B1}
        IGNTEMPO 0 120 4 4
        SRCCOLOR 20
        VELLANE -1 100 0
        CFGEDITVIEW 0 0.045808 45 12 0 -1 0 0 0 0.5
        KEYSNAP 0
        TRACKSEL 0
        EVTFILTER 0 -1 -1 -1 -1 0 0 0 0 -1 -1 -1 -1 0 -1 0 -1 -1
        CFGEDIT 1 1 0 1 0 0 1 1 1 1 1 1 58 171 1253 866 0 0 0 0 0.25 0 0 0 0 0.5 0 0 1 64
      >
    >
    <ITEM
      POSITION 32
      SNAPOFFS 0
      LENGTH 8
      LOOP 1
      ALLTAKES 0
      FADEIN 1 0 0 1 0 0
      FADEOUT 1 0 0 1 0 0
      MUTE 0
      SEL 1
      IGUID {F27828BB-79C9-6571-848E-0FB76B65B4E8}
      IID 14
      NAME "01-Recorded MIDI"
      VOLPAN 1 0 1 -1
      SOFFS 0 0
      PLAYRATE 1 1 0 -1 0 0.0021
      CHANMODE 0
      GUID {D9B9D71C-2093-2FD3-200D-00515EDC6589}
      RECPASS 1
      <SOURCE MIDI
        HASDATA 1 960 QN
        CCINTERP 32
        POOLEDEVTS {77016588-2941-66BC-98FB-2438F0319AE5}
        E 0 90 3c 48
        E 0 90 40 48
        E 0 90 43 48
        E 1920 80 3c 00
        E 0 80 40 00
        E 0 80 43 00
        E 0 90 3c 48
        E 0 90 40 48
        E 0 90 43 48
        E 260 80 3c 00
        E 0 80 40 00
        E 0 80 43 00
        E 440 90 3c 48
        E 0 90 40 48
        E 0 90 43 48
        E 260 80 3c 00
        E 0 80 40 00
        E 0 80 43 00
        e 514 90 3c 48
        e 0 90 40 48
        e 0 90 43 48
        e 260 80 3c 00
        e 0 80 40 00
        e 0 80 43 00
        E 186 90 43 48
        E 0 90 47 48
        E 20 90 40 48
        E 1900 80 43 00
        E 0 80 47 00
        E 0 80 40 00
        E 0 90 43 48
        E 0 90 47 48
        E 20 90 40 48
        E 240 80 43 00
        E 0 80 47 00
        E 0 80 40 00
        E 440 90 43 48
        E 0 90 47 48
        E 20 90 40 48
        E 240 80 43 00
        E 0 80 47 00
        E 0 80 40 00
        e 514 90 43 48
        e 0 90 47 48
        e 20 90 40 48
        e 240 80 43 00
        e 0 80 47 00
        e 0 80 40 00
        E 186 90 41 48
        E 0 90 45 48
        E 0 90 48 48
        E 1920 80 41 00
        E 0 80 45 00
        E 0 80 48 00
        E 0 90 41 48
        E 0 90 45 48
        E 0 90 48 48
        E 260 80 41 00
        E 0 80 45 00
        E 0 80 48 00
        E 440 90 41 48
        E 0 90 45 48
        E 0 90 48 48
        E 260 80 41 00
        E 0 80 45 00
        E 0 80 48 00
        e 514 90 41 48
        e 0 90 45 48
        e 0 90 48 48
        e 260 80 41 00
        e 0 80 45 00
        e 0 80 48 00
        E 162 90 3e 48
        E 24 90 41 48
        E 0 90 45 48
        E 1896 90 3e 48
        E 24 80 3e 00
        E 0 80 41 00
        E 0 80 45 00
        E 0 90 41 48
        E 0 90 45 48
        E 260 80 3e 00
        E 0 80 41 00
        E 0 80 45 00
        E 416 90 3e 48
        E 24 90 41 48
        E 0 90 45 48
        E 260 80 3e 00
        E 0 80 41 00
        E 0 80 45 00
        e 490 90 3e 48
        e 24 90 41 48
        e 0 90 45 48
        e 260 80 3e 00
        e 0 80 41 00
        e 0 80 45 00
        E 186 b0 7b 00
        CHASE_CC_TAKEOFFS 1
        GUID {0C3271F4-E233-9088-9B25-A722FAE7C579}
        IGNTEMPO 0 120 4 4
        SRCCOLOR 21
        VELLANE -1 100 0
        CFGEDITVIEW 0 0.045808 45 12 0 -1 0 0 0 0.5
        KEYSNAP 0
        TRACKSEL 0
        EVTFILTER 0 -1 -1 -1 -1 0 0 0 0 -1 -1 -1 -1 0 -1 0 -1 -1
        CFGEDIT 1 1 0 1 0 0 1 1 1 1 1 1 58 171 1253 866 0 0 0 0 0.25 0 0 0 0 0.5 0 0 1 64
      >
    >
    <ITEM
      POSITION 40
      SNAPOFFS 0
      LENGTH 8
      LOOP 1
      ALLTAKES 0
      FADEIN 1 0 0 1 0 0
      FADEOUT 1 0 0 1 0 0
      MUTE 0
      SEL 1
      IGUID {2E1FDE96-421A-E1AD-F9AF-42727B2DEF9E}
      IID 15
      NAME "01-Recorded MIDI"
      VOLPAN 1 0 1 -1
      SOFFS 0 0
      PLAYRATE 1 1 0 -1 0 0.0021
      CHANMODE 0
      GUID {E5CB1C91-67B7-263A-511D-ABF3553EE316}
      RECPASS 1
      <SOURCE MIDI
        HASDATA 1 960 QN
        CCINTERP 32
        POOLEDEVTS {0DB2CAB5-C55E-C370-F3A1-1C402B045C2F}
        E 0 90 3c 48
        E 0 90 40 48
        E 0 90 43 48
        E 1920 80 3c 00
        E 0 80 40 00
        E 0 80 43 00
        E 0 90 3c 48
        E 0 90 40 48
        E 0 90 43 48
        E 260 80 3c 00
        E 0 80 40 00
        E 0 80 43 00
        E 440 90 3c 48
        E 0 90 40 48
        E 0 90 43 48
        E 260 80 3c 00
        E 0 80 40 00
        E 0 80 43 00
        e 514 90 3c 48
        e 0 90 40 48
        e 0 90 43 48
        e 260 80 3c 00
        e 0 80 40 00
        e 0 80 43 00
        E 186 90 43 48
        E 0 90 47 48
        E 20 90 40 48
        E 1900 80 43 00
        E 0 80 47 00
        E 0 80 40 00
        E 0 90 43 48
        E 0 90 47 48
        E 20 90 40 48
        E 240 80 43 00
        E 0 80 47 00
        E 0 80 40 00
        E 440 90 43 48
        E 0 90 47 48
        E 20 90 40 48
        E 240 80 43 00
        E 0 80 47 00
        E 0 80 40 00
        e 514 90 43 48
        e 0 90 47 48
        e 20 90 40 48
        e 240 80 43 00
        e 0 80 47 00
        e 0 80 40 00
        E 186 90 41 48
        E 0 90 45 48
        E 0 90 48 48
        E 1920 80 41 00
        E 0 80 45 00
        E 0 80 48 00
        E 0 90 41 48
        E 0 90 45 48
        E 0 90 48 48
        E 260 80 41 00
        E 0 80 45 00
        E 0 80 48 00
        E 440 90 41 48
        E 0 90 45 48
        E 0 90 48 48
        E 260 80 41 00
        E 0 80 45 00
        E 0 80 48 00
        e 514 90 41 48
        e 0 90 45 48
        e 0 90 48 48
        e 260 80 41 00
        e 0 80 45 00
        e 0 80 48 00
        E 162 90 3e 48
        E 24 90 41 48
        E 0 90 45 48
        E 1896 90 3e 48
        E 24 80 3e 00
        E 0 80 41 00
        E 0 80 45 00
        E 0 90 41 48
        E 0 90 45 48
        E 260 80 3e 00
        E 0 80 41 00
        E 0 80 45 00
        E 416 90 3e 48
        E 24 90 41 48
        E 0 90 45 48
        E 260 80 3e 00
        E 0 80 41 00
        E 0 80 45 00
        e 490 90 3e 48
        e 24 90 41 48
        e 0 90 45 48
        e 260 80 3e 00
        e 0 80 41 00
        e 0 80 45 00
        E 186 b0 7b 00
        CHASE_CC_TAKEOFFS 1
        GUID {040E7AF8-3572-5D91-3C86-797AEE7444D4}
        IGNTEMPO 0 120 4 4
        SRCCOLOR 22
        VELLANE -1 100 0
        CFGEDITVIEW 0 0.045808 45 12 0 -1 0 0 0 0.5
        KEYSNAP 0
        TRACKSEL 0
        EVTFILTER 0 -1 -1 -1 -1 0 0 0 0 -1 -1 -1 -1 0 -1 0 -1 -1
        CFGEDIT 1 1 0 1 0 0 1 1 1 1 1 1 58 171 1253 866 0 0 0 0 0.25 0 0 0 0 0.5 0 0 1 64
      >
    >
    <ITEM
      POSITION 48
      SNAPOFFS 0
      LENGTH 8
      LOOP 1
      ALLTAKES 0
      FADEIN 1 0 0 1 0 0
      FADEOUT 1 0 0 1 0 0
      MUTE 0
      SEL 1
      IGUID {6812982A-610F-1B1C-53A1-F97F37ACBD0B}
      IID 16
      NAME "01-Recorded MIDI"
      VOLPAN 1 0 1 -1
      SOFFS 0 0
      PLAYRATE 1 1 0 -1 0 0.0021
      CHANMODE 0
      GUID {27ABF127-9109-97FC-9176-28E9EB3A01C0}
      RECPASS 1
      <SOURCE MIDI
        HASDATA 1 960 QN
        CCINTERP 32
        POOLEDEVTS {9E0B7F6C-5E93-B9E5-FF8D-4D73F494E348}
        E 0 90 3c 48
        E 0 90 40 48
        E 0 90 43 48
        E 1920 80 3c 00
        E 0 80 40 00
        E 0 80 43 00
        E 0 90 3c 48
        E 0 90 40 48
        E 0 90 43 48
        E 260 80 3c 00
        E 0 80 40 00
        E 0 80 43 00
        E 440 90 3c 48
        E 0 90 40 48
        E 0 90 43 48
        E 260 80 3c 00
        E 0 80 40 00
        E 0 80 43 00
        e 514 90 3c 48
        e 0 90 40 48
        e 0 90 43 48
        e 260 80 3c 00
        e 0 80 40 00
        e 0 80 43 00
        E 186 90 43 48
        E 0 90 47 48
        E 20 90 40 48
        E 1900 80 43 00
        E 0 80 47 00
        E 0 80 40 00
        E 0 90 43 48
        E 0 90 47 48
        E 20 90 40 48
        E 240 80 43 00
        E 0 80 47 00
        E 0 80 40 00
        E 440 90 43 48
        E 0 90 47 48
        E 20 90 40 48
        E 240 80 43 00
        E 0 80 47 00
        E 0 80 40 00
        e 514 90 43 48
        e 0 90 47 48
        e 20 90 40 48
        e 240 80 43 00
        e 0 80 47 00
        e 0 80 40 00
        E 186 90 41 48
        E 0 90 45 48
        E 0 90 48 48
        E 1920 80 41 00
        E 0 80 45 00
        E 0 80 48 00
        E 0 90 41 48
        E 0 90 45 48
        E 0 90 48 48
        E 260 80 41 00
        E 0 80 45 00
        E 0 80 48 00
        E 440 90 41 48
        E 0 90 45 48
        E 0 90 48 48
        E 260 80 41 00
        E 0 80 45 00
        E 0 80 48 00
        e 514 90 41 48
        e 0 90 45 48
        e 0 90 48 48
        e 260 80 41 00
        e 0 80 45 00
        e 0 80 48 00
        E 162 90 3e 48
        E 24 90 41 48
        E 0 90 45 48
        E 1896 90 3e 48
        E 24 80 3e 00
        E 0 80 41 00
        E 0 80 45 00
        E 0 90 41 48
        E 0 90 45 48
        E 260 80 3e 00
        E 0 80 41 00
        E 0 80 45 00
        E 416 90 3e 48
        E 24 90 41 48
        E 0 90 45 48
        E 260 80 3e 00
        E 0 80 41 00
        E 0 80 45 00
        e 490 90 3e 48
        e 24 90 41 48
        e 0 90 45 48
        e 260 80 3e 00
        e 0 80 41 00
        e 0 80 45 00
        E 186 b0 7b 00
        CHASE_CC_TAKEOFFS 1
        GUID {2338968B-6CF9-9F40-300F-DEB89D3392EA}
        IGNTEMPO 0 120 4 4
        SRCCOLOR 23
        VELLANE -1 100 0
        CFGEDITVIEW 0 0.045808 45 12 0 -1 0 0 0 0.5
        KEYSNAP 0
        TRACKSEL 0
        EVTFILTER 0 -1 -1 -1 -1 0 0 0 0 -1 -1 -1 -1 0 -1 0 -1 -1
        CFGEDIT 1 1 0 1 0 0 1 1 1 1 1 1 58 171 1253 866 0 0 0 0 0.25 0 0 0 0 0.5 0 0 1 64
      >
    >
    <ITEM
      POSITION 56
      SNAPOFFS 0
      LENGTH 8
      LOOP 1
      ALLTAKES 0
      FADEIN 1 0 0 1 0 0
      FADEOUT 1 0 0 1 0 0
      MUTE 0
      SEL 1
      IGUID {8F390501-F805-485E-83ED-4E9E981B53D1}
      IID 17
      NAME "01-Recorded MIDI"
      VOLPAN 1 0 1 -1
      SOFFS 0 0
      PLAYRATE 1 1 0 -1 0 0.0021
      CHANMODE 0
      GUID {7B15A7B5-7A7C-F302-770A-E8BF8A9F15FE}
      RECPASS 1
      <SOURCE MIDI
        HASDATA 1 960 QN
        CCINTERP 32
        POOLEDEVTS {D7145419-B48F-D3D3-8E9C-8FD08E9871B2}
        E 0 90 3c 48
        E 0 90 40 48
        E 0 90 43 48
        E 1920 80 3c 00
        E 0 80 40 00
        E 0 80 43 00
        E 0 90 3c 48
        E 0 90 40 48
        E 0 90 43 48
        E 260 80 3c 00
        E 0 80 40 00
        E 0 80 43 00
        E 440 90 3c 48
        E 0 90 40 48
        E 0 90 43 48
        E 260 80 3c 00
        E 0 80 40 00
        E 0 80 43 00
        e 514 90 3c 48
        e 0 90 40 48
        e 0 90 43 48
        e 260 80 3c 00
        e 0 80 40 00
        e 0 80 43 00
        E 186 90 43 48
        E 0 90 47 48
        E 20 90 40 48
        E 1900 80 43 00
        E 0 80 47 00
        E 0 80 40 00
        E 0 90 43 48
        E 0 90 47 48
        E 20 90 40 48
        E 240 80 43 00
        E 0 80 47 00
        E 0 80 40 00
        E 440 90 43 48
        E 0 90 47 48
        E 20 90 40 48
        E 240 80 43 00
        E 0 80 47 00
        E 0 80 40 00
        e 514 90 43 48
        e 0 90 47 48
        e 20 90 40 48
        e 240 80 43 00
        e 0 80 47 00
        e 0 80 40 00
        E 186 90 41 48
        E 0 90 45 48
        E 0 90 48 48
        E 1920 80 41 00
        E 0 80 45 00
        E 0 80 48 00
        E 0 90 41 48
        E 0 90 45 48
        E 0 90 48 48
        E 260 80 41 00
        E 0 80 45 00
        E 0 80 48 00
        E 440 90 41 48
        E 0 90 45 48
        E 0 90 48 48
        E 260 80 41 00
        E 0 80 45 00
        E 0 80 48 00
        e 514 90 41 48
        e 0 90 45 48
        e 0 90 48 48
        e 260 80 41 00
        e 0 80 45 00
        e 0 80 48 00
        E 162 90 3e 48
        E 24 90 41 48
        E 0 90 45 48
        E 1896 90 3e 48
        E 24 80 3e 00
        E 0 80 41 00
        E 0 80 45 00
        E 0 90 41 48
        E 0 90 45 48
        E 260 80 3e 00
        E 0 80 41 00
        E 0 80 45 00
        E 416 90 3e 48
        E 24 90 41 48
        E 0 90 45 48
        E 260 80 3e 00
        E 0 80 41 00
        E 0 80 45 00
        e 490 90 3e 48
        e 24 90 41 48
        e 0 90 45 48
        e 260 80 3e 00
        e 0 80 41 00
        e 0 80 45 00
        E 186 b0 7b 00
        CHASE_CC_TAKEOFFS 1
        GUID {A64857E2-94F8-0990-20DF-4C1E9B5E6251}
        IGNTEMPO 0 120 4 4
        SRCCOLOR 24
        VELLANE -1 100 0
        CFGEDITVIEW 0 0.045808 45 12 0 -1 0 0 0 0.5
        KEYSNAP 0
        TRACKSEL 0
        EVTFILTER 0 -1 -1 -1 -1 0 0 0 0 -1 -1 -1 -1 0 -1 0 -1 -1
        CFGEDIT 1 1 0 1 0 0 1 1 1 1 1 1 58 171 1253 866 0 0 0 0 0.25 0 0 0 0 0.5 0 0 1 64
      >
    >
    <ITEM
      POSITION 64
      SNAPOFFS 0
      LENGTH 8
      LOOP 1
      ALLTAKES 0
      FADEIN 1 0 0 1 0 0
      FADEOUT 1 0 0 1 0 0
      MUTE 0
      SEL 1
      IGUID {0A7DF641-286D-DD65-B06D-A6ADFFA77188}
      IID 18
      NAME "01-Recorded MIDI"
      VOLPAN 1 0 1 -1
      SOFFS 0 0
      PLAYRATE 1 1 0 -1 0 0.0021
      CHANMODE 0
      GUID {CB6FC4E4-2AFF-A85B-676C-C7368556CCF5}
      RECPASS 1
      <SOURCE MIDI
        HASDATA 1 960 QN
        CCINTERP 32
        POOLEDEVTS {24961113-2207-3650-630E-891FBEA9521E}
        E 0 90 3c 48
        E 0 90 40 48
        E 0 90 43 48
        E 1920 80 3c 00
        E 0 80 40 00
        E 0 80 43 00
        E 0 90 3c 48
        E 0 90 40 48
        E 0 90 43 48
        E 260 80 3c 00
        E 0 80 40 00
        E 0 80 43 00
        E 440 90 3c 48
        E 0 90 40 48
        E 0 90 43 48
        E 260 80 3c 00
        E 0 80 40 00
        E 0 80 43 00
        e 514 90 3c 48
        e 0 90 40 48
        e 0 90 43 48
        e 260 80 3c 00
        e 0 80 40 00
        e 0 80 43 00
        E 186 90 43 48
        E 0 90 47 48
        E 20 90 40 48
        E 1900 80 43 00
        E 0 80 47 00
        E 0 80 40 00
        E 0 90 43 48
        E 0 90 47 48
        E 20 90 40 48
        E 240 80 43 00
        E 0 80 47 00
        E 0 80 40 00
        E 440 90 43 48
        E 0 90 47 48
        E 20 90 40 48
        E 240 80 43 00
        E 0 80 47 00
        E 0 80 40 00
        e 514 90 43 48
        e 0 90 47 48
        e 20 90 40 48
        e 240 80 43 00
        e 0 80 47 00
        e 0 80 40 00
        E 186 90 41 48
        E 0 90 45 48
        E 0 90 48 48
        E 1920 80 41 00
        E 0 80 45 00
        E 0 80 48 00
        E 0 90 41 48
        E 0 90 45 48
        E 0 90 48 48
        E 260 80 41 00
        E 0 80 45 00
        E 0 80 48 00
        E 440 90 41 48
        E 0 90 45 48
        E 0 90 48 48
        E 260 80 41 00
        E 0 80 45 00
        E 0 80 48 00
        e 514 90 41 48
        e 0 90 45 48
        e 0 90 48 48
        e 260 80 41 00
        e 0 80 45 00
        e 0 80 48 00
        E 162 90 3e 48
        E 24 90 41 48
        E 0 90 45 48
        E 1896 90 3e 48
        E 24 80 3e 00
        E 0 80 41 00
        E 0 80 45 00
        E 0 90 41 48
        E 0 90 45 48
        E 260 80 3e 00
        E 0 80 41 00
        E 0 80 45 00
        E 416 90 3e 48
        E 24 90 41 48
        E 0 90 45 48
        E 260 80 3e 00
        E 0 80 41 00
        E 0 80 45 00
        e 490 90 3e 48
        e 24 90 41 48
        e 0 90 45 48
        e 260 80 3e 00
        e 0 80 41 00
        e 0 80 45 00
        E 186 b0 7b 00
        CHASE_CC_TAKEOFFS 1
        GUID {19362806-85F2-5D9E-E1F9-07BE0CF3D16E}
        IGNTEMPO 0 120 4 4
        SRCCOLOR 25
        VELLANE -1 100 0
        CFGEDITVIEW 0 0.045808 45 12 0 -1 0 0 0 0.5
        KEYSNAP 0
        TRACKSEL 0
        EVTFILTER 0 -1 -1 -1 -1 0 0 0 0 -1 -1 -1 -1 0 -1 0 -1 -1
        CFGEDIT 1 1 0 1 0 0 1 1 1 1 1 1 58 171 1253 866 0 0 0 0 0.25 0 0 0 0 0.5 0 0 1 64
      >
    >
    <ITEM
      POSITION 72
      SNAPOFFS 0
      LENGTH 8
      LOOP 1
      ALLTAKES 0
      FADEIN 1 0 0 1 0 0
      FADEOUT 1 0 0 1 0 0
      MUTE 0
      SEL 1
      IGUID {A4E99227-0FCB-07B7-B066-DAB29CD16839}
      IID 19
      NAME "01-Recorded MIDI"
      VOLPAN 1 0 1 -1
      SOFFS 0 0
      PLAYRATE 1 1 0 -1 0 0.0021
      CHANMODE 0
      GUID {43952710-782F-A0AE-B315-D186B5AF3BC0}
      RECPASS 1
      <SOURCE MIDI
        HASDATA 1 960 QN
        CCINTERP 32
        POOLEDEVTS {0BB903B7-6B7C-AD47-07C1-813FA44E8B59}
        E 0 90 3c 48
        E 0 90 40 48
        E 0 90 43 48
        E 1920 80 3c 00
        E 0 80 40 00
        E 0 80 43 00
        E 0 90 3c 48
        E 0 90 40 48
        E 0 90 43 48
        E 260 80 3c 00
        E 0 80 40 00
        E 0 80 43 00
        E 440 90 3c 48
        E 0 90 40 48
        E 0 90 43 48
        E 260 80 3c 00
        E 0 80 40 00
        E 0 80 43 00
        e 514 90 3c 48
        e 0 90 40 48
        e 0 90 43 48
        e 260 80 3c 00
        e 0 80 40 00
        e 0 80 43 00
        E 186 90 43 48
        E 0 90 47 48
        E 20 90 40 48
        E 1900 80 43 00
        E 0 80 47 00
        E 0 80 40 00
        E 0 90 43 48
        E 0 90 47 48
        E 20 90 40 48
        E 240 80 43 00
        E 0 80 47 00
        E 0 80 40 00
        E 440 90 43 48
        E 0 90 47 48
        E 20 90 40 48
        E 240 80 43 00
        E 0 80 47 00
        E 0 80 40 00
        e 514 90 43 48
        e 0 90 47 48
        e 20 90 40 48
        e 240 80 43 00
        e 0 80 47 00
        e 0 80 40 00
        E 186 90 41 48
        E 0 90 45 48
        E 0 90 48 48
        E 1920 80 41 00
        E 0 80 45 00
        E 0 80 48 00
        E 0 90 41 48
        E 0 90 45 48
        E 0 90 48 48
        E 260 80 41 00
        E 0 80 45 00
        E 0 80 48 00
        E 440 90 41 48
        E 0 90 45 48
        E 0 90 48 48
        E 260 80 41 00
        E 0 80 45 00
        E 0 80 48 00
        e 514 90 41 48
        e 0 90 45 48
        e 0 90 48 48
        e 260 80 41 00
        e 0 80 45 00
        e 0 80 48 00
        E 162 90 3e 48
        E 24 90 41 48
        E 0 90 45 48
        E 1896 90 3e 48
        E 24 80 3e 00
        E 0 80 41 00
        E 0 80 45 00
        E 0 90 41 48
        E 0 90 45 48
        E 260 80 3e 00
        E 0 80 41 00
        E 0 80 45 00
        E 416 90 3e 48
        E 24 90 41 48
        E 0 90 45 48
        E 260 80 3e 00
        E 0 80 41 00
        E 0 80 45 00
        e 490 90 3e 48
        e 24 90 41 48
        e 0 90 45 48
        e 260 80 3e 00
        e 0 80 41 00
        e 0 80 45 00
        E 186 b0 7b 00
        CHASE_CC_TAKEOFFS 1
        GUID {6844F8A9-6BE9-023C-4A46-0A676470C99B}
        IGNTEMPO 0 120 4 4
        SRCCOLOR 26
        VELLANE -1 100 0
        CFGEDITVIEW 0 0.045808 45 12 0 -1 0 0 0 0.5
        KEYSNAP 0
        TRACKSEL 0
        EVTFILTER 0 -1 -1 -1 -1 0 0 0 0 -1 -1 -1 -1 0 -1 0 -1 -1
        CFGEDIT 1 1 0 1 0 0 1 1 1 1 1 1 58 171 1253 866 0 0 0 0 0.25 0 0 0 0 0.5 0 0 1 64
      >
    >
    <ITEM
      POSITION 80
      SNAPOFFS 0
      LENGTH 8
      LOOP 1
      ALLTAKES 0
      FADEIN 1 0 0 1 0 0
      FADEOUT 1 0 0 1 0 0
      MUTE 0
      SEL 1
      IGUID {1BD092CE-0DA9-4A15-1C4C-2F08C2B872D6}
      IID 20
      NAME "01-Recorded MIDI"
      VOLPAN 1 0 1 -1
      SOFFS 0 0
      PLAYRATE 1 1 0 -1 0 0.0021
      CHANMODE 0
      GUID {C1CF0854-6A14-D247-00AC-F532B0489493}
      RECPASS 1
      <SOURCE MIDI
        HASDATA 1 960 QN
        CCINTERP 32
        POOLEDEVTS {4C2CF5F1-9353-D804-D7FA-10086B57646A}
        E 0 90 3c 48
        E 0 90 40 48
        E 0 90 43 48
        E 1920 80 3c 00
        E 0 80 40 00
        E 0 80 43 00
        E 0 90 3c 48
        E 0 90 40 48
        E 0 90 43 48
        E 260 80 3c 00
        E 0 80 40 00
        E 0 80 43 00
        E 440 90 3c 48
        E 0 90 40 48
        E 0 90 43 48
        E 260 80 3c 00
        E 0 80 40 00
        E 0 80 43 00
        e 514 90 3c 48
        e 0 90 40 48
        e 0 90 43 48
        e 260 80 3c 00
        e 0 80 40 00
        e 0 80 43 00
        E 186 90 43 48
        E 0 90 47 48
        E 20 90 40 48
        E 1900 80 43 00
        E 0 80 47 00
        E 0 80 40 00
        E 0 90 43 48
        E 0 90 47 48
        E 20 90 40 48
        E 240 80 43 00
        E 0 80 47 00
        E 0 80 40 00
        E 440 90 43 48
        E 0 90 47 48
        E 20 90 40 48
        E 240 80 43 00
        E 0 80 47 00
        E 0 80 40 00
        e 514 90 43 48
        e 0 90 47 48
        e 20 90 40 48
        e 240 80 43 00
        e 0 80 47 00
        e 0 80 40 00
        E 186 90 41 48
        E 0 90 45 48
        E 0 90 48 48
        E 1920 80 41 00
        E 0 80 45 00
        E 0 80 48 00
        E 0 90 41 48
        E 0 90 45 48
        E 0 90 48 48
        E 260 80 41 00
        E 0 80 45 00
        E 0 80 48 00
        E 440 90 41 48
        E 0 90 45 48
        E 0 90 48 48
        E 260 80 41 00
        E 0 80 45 00
        E 0 80 48 00
        e 514 90 41 48
        e 0 90 45 48
        e 0 90 48 48
        e 260 80 41 00
        e 0 80 45 00
        e 0 80 48 00
        E 162 90 3e 48
        E 24 90 41 48
        E 0 90 45 48
        E 1896 90 3e 48
        E 24 80 3e 00
        E 0 80 41 00
        E 0 80 45 00
        E 0 90 41 48
        E 0 90 45 48
        E 260 80 3e 00
        E 0 80 41 00
        E 0 80 45 00
        E 416 90 3e 48
        E 24 90 41 48
        E 0 90 45 48
        E 260 80 3e 00
        E 0 80 41 00
        E 0 80 45 00
        e 490 90 3e 48
        e 24 90 41 48
        e 0 90 45 48
        e 260 80 3e 00
        e 0 80 41 00
        e 0 80 45 00
        E 186 b0 7b 00
        CHASE_CC_TAKEOFFS 1
        GUID {E611ADB6-4869-6CCA-8E83-3954D5E743B1}
        IGNTEMPO 0 120 4 4
        SRCCOLOR 27
        VELLANE -1 100 0
        CFGEDITVIEW 0 0.045808 45 12 0 -1 0 0 0 0.5
        KEYSNAP 0
        TRACKSEL 0
        EVTFILTER 0 -1 -1 -1 -1 0 0 0 0 -1 -1 -1 -1 0 -1 0 -1 -1
        CFGEDIT 1 1 0 1 0 0 1 1 1 1 1 1 58 171 1253 866 0 0 0 0 0.25 0 0 0 0 0.5 0 0 1 64
      >
    >
    <ITEM
      POSITION 88
      SNAPOFFS 0
      LENGTH 8
      LOOP 1
      ALLTAKES 0
      FADEIN 1 0 0 1 0 0
      FADEOUT 1 0 0 1 0 0
      MUTE 0
      SEL 1
      IGUID {2AD905D4-EB79-BEC2-E8FA-2CBFEA97598E}
      IID 21
      NAME "01-Recorded MIDI"
      VOLPAN 1 0 1 -1
      SOFFS 0 0
      PLAYRATE 1 1 0 -1 0 0.0021
      CHANMODE 0
      GUID {ABF1C3F6-C1B4-42D4-3E85-64A2F2855393}
      RECPASS 1
      <SOURCE MIDI
        HASDATA 1 960 QN
        CCINTERP 32
        POOLEDEVTS {47184AC3-3E10-D1BA-C87E-E526F0F4488D}
        E 0 90 3c 48
        E 0 90 40 48
        E 0 90 43 48
        E 1920 80 3c 00
        E 0 80 40 00
        E 0 80 43 00
        E 0 90 3c 48
        E 0 90 40 48
        E 0 90 43 48
        E 260 80 3c 00
        E 0 80 40 00
        E 0 80 43 00
        E 440 90 3c 48
        E 0 90 40 48
        E 0 90 43 48
        E 260 80 3c 00
        E 0 80 40 00
        E 0 80 43 00
        e 514 90 3c 48
        e 0 90 40 48
        e 0 90 43 48
        e 260 80 3c 00
        e 0 80 40 00
        e 0 80 43 00
        E 186 90 43 48
        E 0 90 47 48
        E 20 90 40 48
        E 1900 80 43 00
        E 0 80 47 00
        E 0 80 40 00
        E 0 90 43 48
        E 0 90 47 48
        E 20 90 40 48
        E 240 80 43 00
        E 0 80 47 00
        E 0 80 40 00
        E 440 90 43 48
        E 0 90 47 48
        E 20 90 40 48
        E 240 80 43 00
        E 0 80 47 00
        E 0 80 40 00
        e 514 90 43 48
        e 0 90 47 48
        e 20 90 40 48
        e 240 80 43 00
        e 0 80 47 00
        e 0 80 40 00
        E 186 90 41 48
        E 0 90 45 48
        E 0 90 48 48
        E 1920 80 41 00
        E 0 80 45 00
        E 0 80 48 00
        E 0 90 41 48
        E 0 90 45 48
        E 0 90 48 48
        E 260 80 41 00
        E 0 80 45 00
        E 0 80 48 00
        E 440 90 41 48
        E 0 90 45 48
        E 0 90 48 48
        E 260 80 41 00
        E 0 80 45 00
        E 0 80 48 00
        e 514 90 41 48
        e 0 90 45 48
        e 0 90 48 48
        e 260 80 41 00
        e 0 80 45 00
        e 0 80 48 00
        E 162 90 3e 48
        E 24 90 41 48
        E 0 90 45 48
        E 1896 90 3e 48
        E 24 80 3e 00
        E 0 80 41 00
        E 0 80 45 00
        E 0 90 41 48
        E 0 90 45 48
        E 260 80 3e 00
        E 0 80 41 00
        E 0 80 45 00
        E 416 90 3e 48
        E 24 90 41 48
        E 0 90 45 48
        E 260 80 3e 00
        E 0 80 41 00
        E 0 80 45 00
        e 490 90 3e 48
        e 24 90 41 48
        e 0 90 45 48
        e 260 80 3e 00
        e 0 80 41 00
        e 0 80 45 00
        E 186 b0 7b 00
        CHASE_CC_TAKEOFFS 1
        GUID {C762B555-17FC-D765-5340-11D3487D2955}
        IGNTEMPO 0 120 4 4
        SRCCOLOR 28
        VELLANE -1 100 0
        CFGEDITVIEW 0 0.045808 45 12 0 -1 0 0 0 0.5
        KEYSNAP 0
        TRACKSEL 0
        EVTFILTER 0 -1 -1 -1 -1 0 0 0 0 -1 -1 -1 -1 0 -1 0 -1 -1
        CFGEDIT 1 1 0 1 0 0 1 1 1 1 1 1 58 171 1253 866 0 0 0 0 0.25 0 0 0 0 0.5 0 0 1 64
      >
    >
  >
  <TRACK {C178DF57-1D15-495D-4DD8-043C6DFA4C43}
    NAME ""
    PEAKCOL 16576
    BEAT -1
    AUTOMODE 0
    VOLPAN 0.00052194381917 0 -1 -1 1
    MUTESOLO 0 0 0
    IPHASE 0
    PLAYOFFS 0 1
    ISBUS 0 0
    BUSCOMP 0 0 0 0 0
    SHOWINMIX 1 0.6667 0.5 1 0.5 0 0 0
    FREEMODE 0
    SEL 0
    REC 0 5056 1 0 0 0 0
    VU 2
    TRACKHEIGHT 21 0 0
    INQ 0 0 0 0.5 100 0 0 100
    NCHAN 2
    FX 0
    TRACKID {C178DF57-1D15-495D-4DD8-043C6DFA4C43}
    PERF 0
    MIDIOUT -1
    MAINSEND 1 0
    <FXCHAIN
      WNDRECT 346 266 902 608
      SHOW 0
      LASTSEL 5
      DOCKED 0
      BYPASS 0 0 0
      <VST "VST: ReaEQ (Cockos)" reaeq.vst.so 0 "" 1919247729<56535472656571726561657100000000> ""
        cWVlcu5e7f4CAAAAAQAAAAAAAAACAAAAAAAAAAIAAAABAAAAAAAAAAIAAAAAAAAAqAAAAAEAAAAAABAA
        IQAAAAQAAAAEAAAAAQAAAEK4Xhmm+DRAAAAAAAAA8D8AAAAAAAAAQAEIAAAAAQAAAAAAAAAAwHJAAAAAAAAA8D8AAAAAAAAAQAEIAAAAAQAAAAAAAAAAQI9AAAAAAAAA
        8D8AAAAAAAAAQAEDAAAAAQAAAAABaCorbdRAAAAAAAAA8D8AAAAAAAAAQAEBAAAAAQAAAAAAAAAAAPA/AAAAAJoCAACcAQAA
        AEhpZ2ggbG93IHBhc3MAEAAAAA==
      >
      PRESETNAME "High low pass"
      FLOATPOS 0 0 0 0
      FXID {943DB5D8-59EA-AB51-4DF5-3B29C2CEC6B7}
      WAK 0 0
      BYPASS 0 0 0
      <VST "VSTi: ReaSynth (Cockos)" reasynth.vst.so 0 "" 1919251321<5653547265737972656173796E746800> ""
        eXNlcu9e7f4AAAAAAgAAAAEAAAAAAAAAAgAAAAAAAAA8AAAAAAAAAAAAEAA=
        776t3g3wrd6lm8Q7F7fROgAAAAAAAAAAAAAAAJCNuT3oZ4g9AACAPwAAAD8AAIA/AAAAAAAAAD8AAAAA
        AAAQAAAA
      >
      FLOATPOS 0 0 0 0
      FXID {697EEFDA-3F3C-DD73-C2B4-16D62A1BB976}
      WAK 0 0
      BYPASS 0 0 0
      <JS guitar/amp-model ""
        "Dumble Overdrive Special - Tweed Deluxe.wav" -21.000000 1.000000 0.000000 73.000000 256.000000 - - - - - - - - - - - - - - - - - - - - - - - - - - - - - - - - - - - - - - - - - - - - - - - - - - - - - - - - - - 
      >
      FLOATPOS 0 0 0 0
      FXID {A1FB7114-5EB3-3D17-2F07-A9F48782E233}
      WAK 0 0
      BYPASS 0 0 0
      <VST "VST: ReaComp (Cockos)" reacomp.vst.so 0 "" 1919247213<5653547265636D726561636F6D700000> ""
        bWNlcu9e7f4EAAAAAQAAAAAAAAACAAAAAAAAAAQAAAAAAAAACAAAAAAAAAACAAAAAQAAAAAAAAACAAAAAAAAAFQAAAAAAAAAAAAQAA==
        776t3g3wrd5FoYg9/AWpPKWbxDsK16M8AAAAAAAAAAAAAIA/AAAAAAAAAAAAAAAAnNEHMwAAgD8AAAAAzMxMPQAAAAAAAAAAAAAAAAAAgD7YiZ09
        AAAQAAAA
      >
      FLOATPOS 0 0 0 0
      FXID {8DB0DB8C-9FA8-BA34-C29C-EE065A25879D}
      WAK 0 0
      BYPASS 0 0 0
      <VST "VST: ReaDelay (Cockos)" readelay.vst.so 0 "" 1919247468<5653547265646C72656164656C617900> ""
        bGRlcu5e7f4CAAAAAQAAAAAAAAACAAAAAAAAAAIAAAABAAAAAAAAAAIAAAAAAAAA/AAAAAEAAAAAAAAA
        AAAAAAAAAAAFAAAALAAAAAIAAAAEAAAAAACAPwAAgD8AAAAAAACAPwAAAAAAAIA7vTeGNQAAgD8AAAAAAACAPwAAgD8AAIA/AAAAAAAAAAAAAIA/AAAAAAAAADwAAAAA
        AACAPwAAAAAAAIA/AACAP+87NT8AAIA/AAAAAAAAgD8AAAAAAABAPL03hjUAAIA/AAAAAAAAgD8AAIA/zk0AP6abhD4AAAAAAACAPwAAAAAAAIA8vTeGNQAAgD8AAAAA
        AACAPwAAgD8aqrU+pHA9PwAAAAAAAIA/AAAAAAAAoDy9N4Y1AACAPwAAAAAAAIA/AACAP/npAD4AAAA/
        AHN0b2NrIC0gYmFzaWMgNSB0YXAgcGluZyBwb25nAAAAAAA=
      >
      PRESETNAME "stock - basic 5 tap ping pong"
      FLOATPOS 0 0 0 0
      FXID {25DBB52B-7BFA-92AC-BB95-CE20387B9501}
      WAK 0 0
      BYPASS 0 0 0
      <VST "VST: ReaVerb (Cockos)" reaverb.vst.so 0 "" 1919252066<56535472657662726561766572620000> ""
        YnZlcu5e7f4CAAAAAQAAAAAAAAACAAAAAAAAAAIAAAABAAAAAAAAAAIAAAAAAAAAcAAAAAEAAAAAAAAA
        AAAAwcybgD4AAIA/AAAAAAAAgD8AAIA/AAAAPwAAgD8AAAAAVkVSQkdFTgAYAAAAAAAAAJHgV0QdrLRA3rK7QsHIjEIAAIC/RUNIT0dFTgAcAAAAy/i2QLUjdUJdzdM/
        osdfP5lRrzyRzYxAnMQAPw==
        AHN3ZWV0dmVyYm8AAAAAAA==
      >
      PRESETNAME sweetverbo
      FLOATPOS 0 0 0 0
      FXID {2A2BFF62-A07A-1ABB-740D-EE1BEB25A701}
      WAK 0 0
    >
    <ITEM
      POSITION 0
      SNAPOFFS 0
      LENGTH 8
      LOOP 1
      ALLTAKES 0
      FADEIN 1 0 0 1 0 0
      FADEOUT 1 0 0 1 0 0
      MUTE 0
      SEL 1
      IGUID {EF18A0BD-2BEA-3673-325A-C70AAC6F02FA}
      IID 10
      NAME "01-Recorded MIDI"
      VOLPAN 1 0 1 -1
      SOFFS 0 0
      PLAYRATE 1 1 0 -1 0 0.0021
      CHANMODE 0
      GUID {44A062CF-8AAF-BFC3-66E9-BB7254AD219A}
      RECPASS 1
      <SOURCE MIDI
        HASDATA 1 960 QN
        CCINTERP 32
        POOLEDEVTS {78994425-B862-F9FE-DC16-B20C24178CFE}
        E 0 90 3c 48
        E 0 90 40 48
        E 0 90 43 48
        E 1920 80 3c 00
        E 0 80 40 00
        E 0 80 43 00
        E 0 90 3c 48
        E 0 90 40 48
        E 0 90 43 48
        E 260 80 3c 00
        E 0 80 40 00
        E 0 80 43 00
        E 440 90 3c 48
        E 0 90 40 48
        E 0 90 43 48
        E 260 80 3c 00
        E 0 80 40 00
        E 0 80 43 00
        e 514 90 3c 48
        e 0 90 40 48
        e 0 90 43 48
        e 260 80 3c 00
        e 0 80 40 00
        e 0 80 43 00
        E 186 90 43 48
        E 0 90 47 48
        E 20 90 40 48
        E 1900 80 43 00
        E 0 80 47 00
        E 0 80 40 00
        E 0 90 43 48
        E 0 90 47 48
        E 20 90 40 48
        E 240 80 43 00
        E 0 80 47 00
        E 0 80 40 00
        E 440 90 43 48
        E 0 90 47 48
        E 20 90 40 48
        E 240 80 43 00
        E 0 80 47 00
        E 0 80 40 00
        e 514 90 43 48
        e 0 90 47 48
        e 20 90 40 48
        e 240 80 43 00
        e 0 80 47 00
        e 0 80 40 00
        E 186 90 41 48
        E 0 90 45 48
        E 0 90 48 48
        E 1920 80 41 00
        E 0 80 45 00
        E 0 80 48 00
        E 0 90 41 48
        E 0 90 45 48
        E 0 90 48 48
        E 260 80 41 00
        E 0 80 45 00
        E 0 80 48 00
        E 440 90 41 48
        E 0 90 45 48
        E 0 90 48 48
        E 260 80 41 00
        E 0 80 45 00
        E 0 80 48 00
        e 514 90 41 48
        e 0 90 45 48
        e 0 90 48 48
        e 260 80 41 00
        e 0 80 45 00
        e 0 80 48 00
        E 162 90 3e 48
        E 24 90 41 48
        E 0 90 45 48
        E 1896 90 3e 48
        E 24 80 3e 00
        E 0 80 41 00
        E 0 80 45 00
        E 0 90 41 48
        E 0 90 45 48
        E 260 80 3e 00
        E 0 80 41 00
        E 0 80 45 00
        E 416 90 3e 48
        E 24 90 41 48
        E 0 90 45 48
        E 260 80 3e 00
        E 0 80 41 00
        E 0 80 45 00
        e 490 90 3e 48
        e 24 90 41 48
        e 0 90 45 48
        e 260 80 3e 00
        e 0 80 41 00
        e 0 80 45 00
        E 186 b0 7b 00
        CHASE_CC_TAKEOFFS 1
        GUID {7B9D708B-43E1-C8D4-C4B3-87E2A6C27801}
        IGNTEMPO 0 120 4 4
        SRCCOLOR 17
        VELLANE -1 100 0
        CFGEDITVIEW 0 0.045808 45 12 0 -1 0 0 0 0.5
        KEYSNAP 0
        TRACKSEL 0
        EVTFILTER 0 -1 -1 -1 -1 0 0 0 0 -1 -1 -1 -1 0 -1 0 -1 -1
        CFGEDIT 1 1 0 1 0 0 1 1 1 1 1 1 58 171 1253 866 0 0 0 0 0.25 0 0 0 0 0.5 0 0 1 64
      >
    >
    <ITEM
      POSITION 8
      SNAPOFFS 0
      LENGTH 8
      LOOP 1
      ALLTAKES 0
      FADEIN 1 0 0 1 0 0
      FADEOUT 1 0 0 1 0 0
      MUTE 0
      SEL 1
      IGUID {88ABDC37-F0AB-44B7-5AC0-537A49DFE369}
      IID 11
      NAME "01-Recorded MIDI"
      VOLPAN 1 0 1 -1
      SOFFS 0 0
      PLAYRATE 1 1 0 -1 0 0.0021
      CHANMODE 0
      GUID {EB3638F0-12BD-F1B7-32F5-D72F716A2C27}
      RECPASS 1
      <SOURCE MIDI
        HASDATA 1 960 QN
        CCINTERP 32
        POOLEDEVTS {7D50AAB7-414C-2EEC-D59B-97F2095D8C8B}
        E 0 90 3c 48
        E 0 90 40 48
        E 0 90 43 48
        E 1920 80 3c 00
        E 0 80 40 00
        E 0 80 43 00
        E 0 90 3c 48
        E 0 90 40 48
        E 0 90 43 48
        E 260 80 3c 00
        E 0 80 40 00
        E 0 80 43 00
        E 440 90 3c 48
        E 0 90 40 48
        E 0 90 43 48
        E 260 80 3c 00
        E 0 80 40 00
        E 0 80 43 00
        e 514 90 3c 48
        e 0 90 40 48
        e 0 90 43 48
        e 260 80 3c 00
        e 0 80 40 00
        e 0 80 43 00
        E 186 90 43 48
        E 0 90 47 48
        E 20 90 40 48
        E 1900 80 43 00
        E 0 80 47 00
        E 0 80 40 00
        E 0 90 43 48
        E 0 90 47 48
        E 20 90 40 48
        E 240 80 43 00
        E 0 80 47 00
        E 0 80 40 00
        E 440 90 43 48
        E 0 90 47 48
        E 20 90 40 48
        E 240 80 43 00
        E 0 80 47 00
        E 0 80 40 00
        e 514 90 43 48
        e 0 90 47 48
        e 20 90 40 48
        e 240 80 43 00
        e 0 80 47 00
        e 0 80 40 00
        E 186 90 41 48
        E 0 90 45 48
        E 0 90 48 48
        E 1920 80 41 00
        E 0 80 45 00
        E 0 80 48 00
        E 0 90 41 48
        E 0 90 45 48
        E 0 90 48 48
        E 260 80 41 00
        E 0 80 45 00
        E 0 80 48 00
        E 440 90 41 48
        E 0 90 45 48
        E 0 90 48 48
        E 260 80 41 00
        E 0 80 45 00
        E 0 80 48 00
        e 514 90 41 48
        e 0 90 45 48
        e 0 90 48 48
        e 260 80 41 00
        e 0 80 45 00
        e 0 80 48 00
        E 162 90 3e 48
        E 24 90 41 48
        E 0 90 45 48
        E 1896 90 3e 48
        E 24 80 3e 00
        E 0 80 41 00
        E 0 80 45 00
        E 0 90 41 48
        E 0 90 45 48
        E 260 80 3e 00
        E 0 80 41 00
        E 0 80 45 00
        E 416 90 3e 48
        E 24 90 41 48
        E 0 90 45 48
        E 260 80 3e 00
        E 0 80 41 00
        E 0 80 45 00
        e 490 90 3e 48
        e 24 90 41 48
        e 0 90 45 48
        e 260 80 3e 00
        e 0 80 41 00
        e 0 80 45 00
        E 186 b0 7b 00
        CHASE_CC_TAKEOFFS 1
        GUID {3131B4E2-B370-E352-A9C5-C8CA31551A86}
        IGNTEMPO 0 120 4 4
        SRCCOLOR 18
        VELLANE -1 100 0
        CFGEDITVIEW 0 0.045808 45 12 0 -1 0 0 0 0.5
        KEYSNAP 0
        TRACKSEL 0
        EVTFILTER 0 -1 -1 -1 -1 0 0 0 0 -1 -1 -1 -1 0 -1 0 -1 -1
        CFGEDIT 1 1 0 1 0 0 1 1 1 1 1 1 58 171 1253 866 0 0 0 0 0.25 0 0 0 0 0.5 0 0 1 64
      >
    >
    <ITEM
      POSITION 16
      SNAPOFFS 0
      LENGTH 8
      LOOP 1
      ALLTAKES 0
      FADEIN 1 0 0 1 0 0
      FADEOUT 1 0 0 1 0 0
      MUTE 0
      SEL 1
      IGUID {55312732-6480-2643-87C2-01B6C67CA36A}
      IID 12
      NAME "01-Recorded MIDI"
      VOLPAN 1 0 1 -1
      SOFFS 0 0
      PLAYRATE 1 1 0 -1 0 0.0021
      CHANMODE 0
      GUID {8E9CFCC3-9783-A8F2-F7EB-D835B2412400}
      RECPASS 1
      <SOURCE MIDI
        HASDATA 1 960 QN
        CCINTERP 32
        POOLEDEVTS {9F34883D-1B5C-5F03-CD16-60027943862D}
        E 0 90 3c 48
        E 0 90 40 48
        E 0 90 43 48
        E 1920 80 3c 00
        E 0 80 40 00
        E 0 80 43 00
        E 0 90 3c 48
        E 0 90 40 48
        E 0 90 43 48
        E 260 80 3c 00
        E 0 80 40 00
        E 0 80 43 00
        E 440 90 3c 48
        E 0 90 40 48
        E 0 90 43 48
        E 260 80 3c 00
        E 0 80 40 00
        E 0 80 43 00
        e 514 90 3c 48
        e 0 90 40 48
        e 0 90 43 48
        e 260 80 3c 00
        e 0 80 40 00
        e 0 80 43 00
        E 186 90 43 48
        E 0 90 47 48
        E 20 90 40 48
        E 1900 80 43 00
        E 0 80 47 00
        E 0 80 40 00
        E 0 90 43 48
        E 0 90 47 48
        E 20 90 40 48
        E 240 80 43 00
        E 0 80 47 00
        E 0 80 40 00
        E 440 90 43 48
        E 0 90 47 48
        E 20 90 40 48
        E 240 80 43 00
        E 0 80 47 00
        E 0 80 40 00
        e 514 90 43 48
        e 0 90 47 48
        e 20 90 40 48
        e 240 80 43 00
        e 0 80 47 00
        e 0 80 40 00
        E 186 90 41 48
        E 0 90 45 48
        E 0 90 48 48
        E 1920 80 41 00
        E 0 80 45 00
        E 0 80 48 00
        E 0 90 41 48
        E 0 90 45 48
        E 0 90 48 48
        E 260 80 41 00
        E 0 80 45 00
        E 0 80 48 00
        E 440 90 41 48
        E 0 90 45 48
        E 0 90 48 48
        E 260 80 41 00
        E 0 80 45 00
        E 0 80 48 00
        e 514 90 41 48
        e 0 90 45 48
        e 0 90 48 48
        e 260 80 41 00
        e 0 80 45 00
        e 0 80 48 00
        E 162 90 3e 48
        E 24 90 41 48
        E 0 90 45 48
        E 1896 90 3e 48
        E 24 80 3e 00
        E 0 80 41 00
        E 0 80 45 00
        E 0 90 41 48
        E 0 90 45 48
        E 260 80 3e 00
        E 0 80 41 00
        E 0 80 45 00
        E 416 90 3e 48
        E 24 90 41 48
        E 0 90 45 48
        E 260 80 3e 00
        E 0 80 41 00
        E 0 80 45 00
        e 490 90 3e 48
        e 24 90 41 48
        e 0 90 45 48
        e 260 80 3e 00
        e 0 80 41 00
        e 0 80 45 00
        E 186 b0 7b 00
        CHASE_CC_TAKEOFFS 1
        GUID {48C567A2-895C-FB9B-FDBA-0ADB7004ABF3}
        IGNTEMPO 0 120 4 4
        SRCCOLOR 19
        VELLANE -1 100 0
        CFGEDITVIEW 0 0.045808 45 12 0 -1 0 0 0 0.5
        KEYSNAP 0
        TRACKSEL 0
        EVTFILTER 0 -1 -1 -1 -1 0 0 0 0 -1 -1 -1 -1 0 -1 0 -1 -1
        CFGEDIT 1 1 0 1 0 0 1 1 1 1 1 1 58 171 1253 866 0 0 0 0 0.25 0 0 0 0 0.5 0 0 1 64
      >
    >
    <ITEM
      POSITION 24
      SNAPOFFS 0
      LENGTH 8
      LOOP 1
      ALLTAKES 0
      FADEIN 1 0 0 1 0 0
      FADEOUT 1 0 0 1 0 0
      MUTE 0
      SEL 1
      IGUID {49E6D3BB-8B5C-3B17-84DF-AC131D96F0CF}
      IID 13
      NAME "01-Recorded MIDI"
      VOLPAN 1 0 1 -1
      SOFFS 0 0
      PLAYRATE 1 1 0 -1 0 0.0021
      CHANMODE 0
      GUID {95EF61B8-A80C-442A-C053-4D9526B14AF6}
      RECPASS 1
      <SOURCE MIDI
        HASDATA 1 960 QN
        CCINTERP 32
        POOLEDEVTS {68192EB3-0C83-E166-407A-6A581AFFF9E2}
        E 0 90 3c 48
        E 0 90 40 48
        E 0 90 43 48
        E 1920 80 3c 00
        E 0 80 40 00
        E 0 80 43 00
        E 0 90 3c 48
        E 0 90 40 48
        E 0 90 43 48
        E 260 80 3c 00
        E 0 80 40 00
        E 0 80 43 00
        E 440 90 3c 48
        E 0 90 40 48
        E 0 90 43 48
        E 260 80 3c 00
        E 0 80 40 00
        E 0 80 43 00
        e 514 90 3c 48
        e 0 90 40 48
        e 0 90 43 48
        e 260 80 3c 00
        e 0 80 40 00
        e 0 80 43 00
        E 186 90 43 48
        E 0 90 47 48
        E 20 90 40 48
        E 1900 80 43 00
        E 0 80 47 00
        E 0 80 40 00
        E 0 90 43 48
        E 0 90 47 48
        E 20 90 40 48
        E 240 80 43 00
        E 0 80 47 00
        E 0 80 40 00
        E 440 90 43 48
        E 0 90 47 48
        E 20 90 40 48
        E 240 80 43 00
        E 0 80 47 00
        E 0 80 40 00
        e 514 90 43 48
        e 0 90 47 48
        e 20 90 40 48
        e 240 80 43 00
        e 0 80 47 00
        e 0 80 40 00
        E 186 90 41 48
        E 0 90 45 48
        E 0 90 48 48
        E 1920 80 41 00
        E 0 80 45 00
        E 0 80 48 00
        E 0 90 41 48
        E 0 90 45 48
        E 0 90 48 48
        E 260 80 41 00
        E 0 80 45 00
        E 0 80 48 00
        E 440 90 41 48
        E 0 90 45 48
        E 0 90 48 48
        E 260 80 41 00
        E 0 80 45 00
        E 0 80 48 00
        e 514 90 41 48
        e 0 90 45 48
        e 0 90 48 48
        e 260 80 41 00
        e 0 80 45 00
        e 0 80 48 00
        E 162 90 3e 48
        E 24 90 41 48
        E 0 90 45 48
        E 1896 90 3e 48
        E 24 80 3e 00
        E 0 80 41 00
        E 0 80 45 00
        E 0 90 41 48
        E 0 90 45 48
        E 260 80 3e 00
        E 0 80 41 00
        E 0 80 45 00
        E 416 90 3e 48
        E 24 90 41 48
        E 0 90 45 48
        E 260 80 3e 00
        E 0 80 41 00
        E 0 80 45 00
        e 490 90 3e 48
        e 24 90 41 48
        e 0 90 45 48
        e 260 80 3e 00
        e 0 80 41 00
        e 0 80 45 00
        E 186 b0 7b 00
        CHASE_CC_TAKEOFFS 1
        GUID {1DE38800-E2A1-41B5-9C8C-3291891093B1}
        IGNTEMPO 0 120 4 4
        SRCCOLOR 20
        VELLANE -1 100 0
        CFGEDITVIEW 0 0.045808 45 12 0 -1 0 0 0 0.5
        KEYSNAP 0
        TRACKSEL 0
        EVTFILTER 0 -1 -1 -1 -1 0 0 0 0 -1 -1 -1 -1 0 -1 0 -1 -1
        CFGEDIT 1 1 0 1 0 0 1 1 1 1 1 1 58 171 1253 866 0 0 0 0 0.25 0 0 0 0 0.5 0 0 1 64
      >
    >
    <ITEM
      POSITION 32
      SNAPOFFS 0
      LENGTH 8
      LOOP 1
      ALLTAKES 0
      FADEIN 1 0 0 1 0 0
      FADEOUT 1 0 0 1 0 0
      MUTE 0
      SEL 1
      IGUID {9846B682-C46B-8A64-8D27-690C7537089D}
      IID 14
      NAME "01-Recorded MIDI"
      VOLPAN 1 0 1 -1
      SOFFS 0 0
      PLAYRATE 1 1 0 -1 0 0.0021
      CHANMODE 0
      GUID {61D1CDC0-7726-096B-CDAA-7679B5DFE07B}
      RECPASS 1
      <SOURCE MIDI
        HASDATA 1 960 QN
        CCINTERP 32
        POOLEDEVTS {D3357D45-1DBE-735F-BA25-D0EA5F5B5EC6}
        E 0 90 3c 48
        E 0 90 40 48
        E 0 90 43 48
        E 1920 80 3c 00
        E 0 80 40 00
        E 0 80 43 00
        E 0 90 3c 48
        E 0 90 40 48
        E 0 90 43 48
        E 260 80 3c 00
        E 0 80 40 00
        E 0 80 43 00
        E 440 90 3c 48
        E 0 90 40 48
        E 0 90 43 48
        E 260 80 3c 00
        E 0 80 40 00
        E 0 80 43 00
        e 514 90 3c 48
        e 0 90 40 48
        e 0 90 43 48
        e 260 80 3c 00
        e 0 80 40 00
        e 0 80 43 00
        E 186 90 43 48
        E 0 90 47 48
        E 20 90 40 48
        E 1900 80 43 00
        E 0 80 47 00
        E 0 80 40 00
        E 0 90 43 48
        E 0 90 47 48
        E 20 90 40 48
        E 240 80 43 00
        E 0 80 47 00
        E 0 80 40 00
        E 440 90 43 48
        E 0 90 47 48
        E 20 90 40 48
        E 240 80 43 00
        E 0 80 47 00
        E 0 80 40 00
        e 514 90 43 48
        e 0 90 47 48
        e 20 90 40 48
        e 240 80 43 00
        e 0 80 47 00
        e 0 80 40 00
        E 186 90 41 48
        E 0 90 45 48
        E 0 90 48 48
        E 1920 80 41 00
        E 0 80 45 00
        E 0 80 48 00
        E 0 90 41 48
        E 0 90 45 48
        E 0 90 48 48
        E 260 80 41 00
        E 0 80 45 00
        E 0 80 48 00
        E 440 90 41 48
        E 0 90 45 48
        E 0 90 48 48
        E 260 80 41 00
        E 0 80 45 00
        E 0 80 48 00
        e 514 90 41 48
        e 0 90 45 48
        e 0 90 48 48
        e 260 80 41 00
        e 0 80 45 00
        e 0 80 48 00
        E 162 90 3e 48
        E 24 90 41 48
        E 0 90 45 48
        E 1896 90 3e 48
        E 24 80 3e 00
        E 0 80 41 00
        E 0 80 45 00
        E 0 90 41 48
        E 0 90 45 48
        E 260 80 3e 00
        E 0 80 41 00
        E 0 80 45 00
        E 416 90 3e 48
        E 24 90 41 48
        E 0 90 45 48
        E 260 80 3e 00
        E 0 80 41 00
        E 0 80 45 00
        e 490 90 3e 48
        e 24 90 41 48
        e 0 90 45 48
        e 260 80 3e 00
        e 0 80 41 00
        e 0 80 45 00
        E 186 b0 7b 00
        CHASE_CC_TAKEOFFS 1
        GUID {0C3271F4-E233-9088-9B25-A722FAE7C579}
        IGNTEMPO 0 120 4 4
        SRCCOLOR 21
        VELLANE -1 100 0
        CFGEDITVIEW 0 0.045808 45 12 0 -1 0 0 0 0.5
        KEYSNAP 0
        TRACKSEL 0
        EVTFILTER 0 -1 -1 -1 -1 0 0 0 0 -1 -1 -1 -1 0 -1 0 -1 -1
        CFGEDIT 1 1 0 1 0 0 1 1 1 1 1 1 58 171 1253 866 0 0 0 0 0.25 0 0 0 0 0.5 0 0 1 64
      >
    >
    <ITEM
      POSITION 40
      SNAPOFFS 0
      LENGTH 8
      LOOP 1
      ALLTAKES 0
      FADEIN 1 0 0 1 0 0
      FADEOUT 1 0 0 1 0 0
      MUTE 0
      SEL 1
      IGUID {869D63D7-F982-1E3B-3184-5A29356A5344}
      IID 15
      NAME "01-Recorded MIDI"
      VOLPAN 1 0 1 -1
      SOFFS 0 0
      PLAYRATE 1 1 0 -1 0 0.0021
      CHANMODE 0
      GUID {8AB6FD18-1F6F-EA29-DF79-120E95177C80}
      RECPASS 1
      <SOURCE MIDI
        HASDATA 1 960 QN
        CCINTERP 32
        POOLEDEVTS {D51D88F5-E7C6-995F-F86B-9A17134F78E9}
        E 0 90 3c 48
        E 0 90 40 48
        E 0 90 43 48
        E 1920 80 3c 00
        E 0 80 40 00
        E 0 80 43 00
        E 0 90 3c 48
        E 0 90 40 48
        E 0 90 43 48
        E 260 80 3c 00
        E 0 80 40 00
        E 0 80 43 00
        E 440 90 3c 48
        E 0 90 40 48
        E 0 90 43 48
        E 260 80 3c 00
        E 0 80 40 00
        E 0 80 43 00
        e 514 90 3c 48
        e 0 90 40 48
        e 0 90 43 48
        e 260 80 3c 00
        e 0 80 40 00
        e 0 80 43 00
        E 186 90 43 48
        E 0 90 47 48
        E 20 90 40 48
        E 1900 80 43 00
        E 0 80 47 00
        E 0 80 40 00
        E 0 90 43 48
        E 0 90 47 48
        E 20 90 40 48
        E 240 80 43 00
        E 0 80 47 00
        E 0 80 40 00
        E 440 90 43 48
        E 0 90 47 48
        E 20 90 40 48
        E 240 80 43 00
        E 0 80 47 00
        E 0 80 40 00
        e 514 90 43 48
        e 0 90 47 48
        e 20 90 40 48
        e 240 80 43 00
        e 0 80 47 00
        e 0 80 40 00
        E 186 90 41 48
        E 0 90 45 48
        E 0 90 48 48
        E 1920 80 41 00
        E 0 80 45 00
        E 0 80 48 00
        E 0 90 41 48
        E 0 90 45 48
        E 0 90 48 48
        E 260 80 41 00
        E 0 80 45 00
        E 0 80 48 00
        E 440 90 41 48
        E 0 90 45 48
        E 0 90 48 48
        E 260 80 41 00
        E 0 80 45 00
        E 0 80 48 00
        e 514 90 41 48
        e 0 90 45 48
        e 0 90 48 48
        e 260 80 41 00
        e 0 80 45 00
        e 0 80 48 00
        E 162 90 3e 48
        E 24 90 41 48
        E 0 90 45 48
        E 1896 90 3e 48
        E 24 80 3e 00
        E 0 80 41 00
        E 0 80 45 00
        E 0 90 41 48
        E 0 90 45 48
        E 260 80 3e 00
        E 0 80 41 00
        E 0 80 45 00
        E 416 90 3e 48
        E 24 90 41 48
        E 0 90 45 48
        E 260 80 3e 00
        E 0 80 41 00
        E 0 80 45 00
        e 490 90 3e 48
        e 24 90 41 48
        e 0 90 45 48
        e 260 80 3e 00
        e 0 80 41 00
        e 0 80 45 00
        E 186 b0 7b 00
        CHASE_CC_TAKEOFFS 1
        GUID {040E7AF8-3572-5D91-3C86-797AEE7444D4}
        IGNTEMPO 0 120 4 4
        SRCCOLOR 22
        VELLANE -1 100 0
        CFGEDITVIEW 0 0.045808 45 12 0 -1 0 0 0 0.5
        KEYSNAP 0
        TRACKSEL 0
        EVTFILTER 0 -1 -1 -1 -1 0 0 0 0 -1 -1 -1 -1 0 -1 0 -1 -1
        CFGEDIT 1 1 0 1 0 0 1 1 1 1 1 1 58 171 1253 866 0 0 0 0 0.25 0 0 0 0 0.5 0 0 1 64
      >
    >
    <ITEM
      POSITION 48
      SNAPOFFS 0
      LENGTH 8
      LOOP 1
      ALLTAKES 0
      FADEIN 1 0 0 1 0 0
      FADEOUT 1 0 0 1 0 0
      MUTE 0
      SEL 1
      IGUID {4B651B90-271F-202F-8536-65585DD404DF}
      IID 16
      NAME "01-Recorded MIDI"
      VOLPAN 1 0 1 -1
      SOFFS 0 0
      PLAYRATE 1 1 0 -1 0 0.0021
      CHANMODE 0
      GUID {80408FF6-E340-16DD-75DA-818A9CF8CE7B}
      RECPASS 1
      <SOURCE MIDI
        HASDATA 1 960 QN
        CCINTERP 32
        POOLEDEVTS {CF0FDC2F-D396-17E3-D969-4859A61FB4AF}
        E 0 90 3c 48
        E 0 90 40 48
        E 0 90 43 48
        E 1920 80 3c 00
        E 0 80 40 00
        E 0 80 43 00
        E 0 90 3c 48
        E 0 90 40 48
        E 0 90 43 48
        E 260 80 3c 00
        E 0 80 40 00
        E 0 80 43 00
        E 440 90 3c 48
        E 0 90 40 48
        E 0 90 43 48
        E 260 80 3c 00
        E 0 80 40 00
        E 0 80 43 00
        e 514 90 3c 48
        e 0 90 40 48
        e 0 90 43 48
        e 260 80 3c 00
        e 0 80 40 00
        e 0 80 43 00
        E 186 90 43 48
        E 0 90 47 48
        E 20 90 40 48
        E 1900 80 43 00
        E 0 80 47 00
        E 0 80 40 00
        E 0 90 43 48
        E 0 90 47 48
        E 20 90 40 48
        E 240 80 43 00
        E 0 80 47 00
        E 0 80 40 00
        E 440 90 43 48
        E 0 90 47 48
        E 20 90 40 48
        E 240 80 43 00
        E 0 80 47 00
        E 0 80 40 00
        e 514 90 43 48
        e 0 90 47 48
        e 20 90 40 48
        e 240 80 43 00
        e 0 80 47 00
        e 0 80 40 00
        E 186 90 41 48
        E 0 90 45 48
        E 0 90 48 48
        E 1920 80 41 00
        E 0 80 45 00
        E 0 80 48 00
        E 0 90 41 48
        E 0 90 45 48
        E 0 90 48 48
        E 260 80 41 00
        E 0 80 45 00
        E 0 80 48 00
        E 440 90 41 48
        E 0 90 45 48
        E 0 90 48 48
        E 260 80 41 00
        E 0 80 45 00
        E 0 80 48 00
        e 514 90 41 48
        e 0 90 45 48
        e 0 90 48 48
        e 260 80 41 00
        e 0 80 45 00
        e 0 80 48 00
        E 162 90 3e 48
        E 24 90 41 48
        E 0 90 45 48
        E 1896 90 3e 48
        E 24 80 3e 00
        E 0 80 41 00
        E 0 80 45 00
        E 0 90 41 48
        E 0 90 45 48
        E 260 80 3e 00
        E 0 80 41 00
        E 0 80 45 00
        E 416 90 3e 48
        E 24 90 41 48
        E 0 90 45 48
        E 260 80 3e 00
        E 0 80 41 00
        E 0 80 45 00
        e 490 90 3e 48
        e 24 90 41 48
        e 0 90 45 48
        e 260 80 3e 00
        e 0 80 41 00
        e 0 80 45 00
        E 186 b0 7b 00
        CHASE_CC_TAKEOFFS 1
        GUID {2338968B-6CF9-9F40-300F-DEB89D3392EA}
        IGNTEMPO 0 120 4 4
        SRCCOLOR 23
        VELLANE -1 100 0
        CFGEDITVIEW 0 0.045808 45 12 0 -1 0 0 0 0.5
        KEYSNAP 0
        TRACKSEL 0
        EVTFILTER 0 -1 -1 -1 -1 0 0 0 0 -1 -1 -1 -1 0 -1 0 -1 -1
        CFGEDIT 1 1 0 1 0 0 1 1 1 1 1 1 58 171 1253 866 0 0 0 0 0.25 0 0 0 0 0.5 0 0 1 64
      >
    >
    <ITEM
      POSITION 56
      SNAPOFFS 0
      LENGTH 8
      LOOP 1
      ALLTAKES 0
      FADEIN 1 0 0 1 0 0
      FADEOUT 1 0 0 1 0 0
      MUTE 0
      SEL 1
      IGUID {0921429F-3375-AC52-3C46-8022EF4A6D34}
      IID 17
      NAME "01-Recorded MIDI"
      VOLPAN 1 0 1 -1
      SOFFS 0 0
      PLAYRATE 1 1 0 -1 0 0.0021
      CHANMODE 0
      GUID {E7301E36-E80F-59E6-D8E5-96EFA9B5C71D}
      RECPASS 1
      <SOURCE MIDI
        HASDATA 1 960 QN
        CCINTERP 32
        POOLEDEVTS {450C6E0F-F26F-30EA-4300-6EE331849BD0}
        E 0 90 3c 48
        E 0 90 40 48
        E 0 90 43 48
        E 1920 80 3c 00
        E 0 80 40 00
        E 0 80 43 00
        E 0 90 3c 48
        E 0 90 40 48
        E 0 90 43 48
        E 260 80 3c 00
        E 0 80 40 00
        E 0 80 43 00
        E 440 90 3c 48
        E 0 90 40 48
        E 0 90 43 48
        E 260 80 3c 00
        E 0 80 40 00
        E 0 80 43 00
        e 514 90 3c 48
        e 0 90 40 48
        e 0 90 43 48
        e 260 80 3c 00
        e 0 80 40 00
        e 0 80 43 00
        E 186 90 43 48
        E 0 90 47 48
        E 20 90 40 48
        E 1900 80 43 00
        E 0 80 47 00
        E 0 80 40 00
        E 0 90 43 48
        E 0 90 47 48
        E 20 90 40 48
        E 240 80 43 00
        E 0 80 47 00
        E 0 80 40 00
        E 440 90 43 48
        E 0 90 47 48
        E 20 90 40 48
        E 240 80 43 00
        E 0 80 47 00
        E 0 80 40 00
        e 514 90 43 48
        e 0 90 47 48
        e 20 90 40 48
        e 240 80 43 00
        e 0 80 47 00
        e 0 80 40 00
        E 186 90 41 48
        E 0 90 45 48
        E 0 90 48 48
        E 1920 80 41 00
        E 0 80 45 00
        E 0 80 48 00
        E 0 90 41 48
        E 0 90 45 48
        E 0 90 48 48
        E 260 80 41 00
        E 0 80 45 00
        E 0 80 48 00
        E 440 90 41 48
        E 0 90 45 48
        E 0 90 48 48
        E 260 80 41 00
        E 0 80 45 00
        E 0 80 48 00
        e 514 90 41 48
        e 0 90 45 48
        e 0 90 48 48
        e 260 80 41 00
        e 0 80 45 00
        e 0 80 48 00
        E 162 90 3e 48
        E 24 90 41 48
        E 0 90 45 48
        E 1896 90 3e 48
        E 24 80 3e 00
        E 0 80 41 00
        E 0 80 45 00
        E 0 90 41 48
        E 0 90 45 48
        E 260 80 3e 00
        E 0 80 41 00
        E 0 80 45 00
        E 416 90 3e 48
        E 24 90 41 48
        E 0 90 45 48
        E 260 80 3e 00
        E 0 80 41 00
        E 0 80 45 00
        e 490 90 3e 48
        e 24 90 41 48
        e 0 90 45 48
        e 260 80 3e 00
        e 0 80 41 00
        e 0 80 45 00
        E 186 b0 7b 00
        CHASE_CC_TAKEOFFS 1
        GUID {A64857E2-94F8-0990-20DF-4C1E9B5E6251}
        IGNTEMPO 0 120 4 4
        SRCCOLOR 24
        VELLANE -1 100 0
        CFGEDITVIEW 0 0.045808 45 12 0 -1 0 0 0 0.5
        KEYSNAP 0
        TRACKSEL 0
        EVTFILTER 0 -1 -1 -1 -1 0 0 0 0 -1 -1 -1 -1 0 -1 0 -1 -1
        CFGEDIT 1 1 0 1 0 0 1 1 1 1 1 1 58 171 1253 866 0 0 0 0 0.25 0 0 0 0 0.5 0 0 1 64
      >
    >
    <ITEM
      POSITION 64
      SNAPOFFS 0
      LENGTH 8
      LOOP 1
      ALLTAKES 0
      FADEIN 1 0 0 1 0 0
      FADEOUT 1 0 0 1 0 0
      MUTE 0
      SEL 1
      IGUID {E5F40459-45A2-BF81-64A3-819D4C98A31A}
      IID 18
      NAME "01-Recorded MIDI"
      VOLPAN 1 0 1 -1
      SOFFS 0 0
      PLAYRATE 1 1 0 -1 0 0.0021
      CHANMODE 0
      GUID {172ECC93-8B3B-D372-BFE4-5F3BCE5BFE0A}
      RECPASS 1
      <SOURCE MIDI
        HASDATA 1 960 QN
        CCINTERP 32
        POOLEDEVTS {03216BE8-B23F-68A0-ED0B-D9A3F28BE50E}
        E 0 90 3c 48
        E 0 90 40 48
        E 0 90 43 48
        E 1920 80 3c 00
        E 0 80 40 00
        E 0 80 43 00
        E 0 90 3c 48
        E 0 90 40 48
        E 0 90 43 48
        E 260 80 3c 00
        E 0 80 40 00
        E 0 80 43 00
        E 440 90 3c 48
        E 0 90 40 48
        E 0 90 43 48
        E 260 80 3c 00
        E 0 80 40 00
        E 0 80 43 00
        e 514 90 3c 48
        e 0 90 40 48
        e 0 90 43 48
        e 260 80 3c 00
        e 0 80 40 00
        e 0 80 43 00
        E 186 90 43 48
        E 0 90 47 48
        E 20 90 40 48
        E 1900 80 43 00
        E 0 80 47 00
        E 0 80 40 00
        E 0 90 43 48
        E 0 90 47 48
        E 20 90 40 48
        E 240 80 43 00
        E 0 80 47 00
        E 0 80 40 00
        E 440 90 43 48
        E 0 90 47 48
        E 20 90 40 48
        E 240 80 43 00
        E 0 80 47 00
        E 0 80 40 00
        e 514 90 43 48
        e 0 90 47 48
        e 20 90 40 48
        e 240 80 43 00
        e 0 80 47 00
        e 0 80 40 00
        E 186 90 41 48
        E 0 90 45 48
        E 0 90 48 48
        E 1920 80 41 00
        E 0 80 45 00
        E 0 80 48 00
        E 0 90 41 48
        E 0 90 45 48
        E 0 90 48 48
        E 260 80 41 00
        E 0 80 45 00
        E 0 80 48 00
        E 440 90 41 48
        E 0 90 45 48
        E 0 90 48 48
        E 260 80 41 00
        E 0 80 45 00
        E 0 80 48 00
        e 514 90 41 48
        e 0 90 45 48
        e 0 90 48 48
        e 260 80 41 00
        e 0 80 45 00
        e 0 80 48 00
        E 162 90 3e 48
        E 24 90 41 48
        E 0 90 45 48
        E 1896 90 3e 48
        E 24 80 3e 00
        E 0 80 41 00
        E 0 80 45 00
        E 0 90 41 48
        E 0 90 45 48
        E 260 80 3e 00
        E 0 80 41 00
        E 0 80 45 00
        E 416 90 3e 48
        E 24 90 41 48
        E 0 90 45 48
        E 260 80 3e 00
        E 0 80 41 00
        E 0 80 45 00
        e 490 90 3e 48
        e 24 90 41 48
        e 0 90 45 48
        e 260 80 3e 00
        e 0 80 41 00
        e 0 80 45 00
        E 186 b0 7b 00
        CHASE_CC_TAKEOFFS 1
        GUID {19362806-85F2-5D9E-E1F9-07BE0CF3D16E}
        IGNTEMPO 0 120 4 4
        SRCCOLOR 25
        VELLANE -1 100 0
        CFGEDITVIEW 0 0.045808 45 12 0 -1 0 0 0 0.5
        KEYSNAP 0
        TRACKSEL 0
        EVTFILTER 0 -1 -1 -1 -1 0 0 0 0 -1 -1 -1 -1 0 -1 0 -1 -1
        CFGEDIT 1 1 0 1 0 0 1 1 1 1 1 1 58 171 1253 866 0 0 0 0 0.25 0 0 0 0 0.5 0 0 1 64
      >
    >
    <ITEM
      POSITION 72
      SNAPOFFS 0
      LENGTH 8
      LOOP 1
      ALLTAKES 0
      FADEIN 1 0 0 1 0 0
      FADEOUT 1 0 0 1 0 0
      MUTE 0
      SEL 1
      IGUID {D2D7BAA7-484A-99B8-5184-288CAF079CB7}
      IID 19
      NAME "01-Recorded MIDI"
      VOLPAN 1 0 1 -1
      SOFFS 0 0
      PLAYRATE 1 1 0 -1 0 0.0021
      CHANMODE 0
      GUID {CAEC0C35-5E88-95CE-445B-18B0223F721F}
      RECPASS 1
      <SOURCE MIDI
        HASDATA 1 960 QN
        CCINTERP 32
        POOLEDEVTS {38B72621-52EE-9469-0145-46CC73A7AD65}
        E 0 90 3c 48
        E 0 90 40 48
        E 0 90 43 48
        E 1920 80 3c 00
        E 0 80 40 00
        E 0 80 43 00
        E 0 90 3c 48
        E 0 90 40 48
        E 0 90 43 48
        E 260 80 3c 00
        E 0 80 40 00
        E 0 80 43 00
        E 440 90 3c 48
        E 0 90 40 48
        E 0 90 43 48
        E 260 80 3c 00
        E 0 80 40 00
        E 0 80 43 00
        e 514 90 3c 48
        e 0 90 40 48
        e 0 90 43 48
        e 260 80 3c 00
        e 0 80 40 00
        e 0 80 43 00
        E 186 90 43 48
        E 0 90 47 48
        E 20 90 40 48
        E 1900 80 43 00
        E 0 80 47 00
        E 0 80 40 00
        E 0 90 43 48
        E 0 90 47 48
        E 20 90 40 48
        E 240 80 43 00
        E 0 80 47 00
        E 0 80 40 00
        E 440 90 43 48
        E 0 90 47 48
        E 20 90 40 48
        E 240 80 43 00
        E 0 80 47 00
        E 0 80 40 00
        e 514 90 43 48
        e 0 90 47 48
        e 20 90 40 48
        e 240 80 43 00
        e 0 80 47 00
        e 0 80 40 00
        E 186 90 41 48
        E 0 90 45 48
        E 0 90 48 48
        E 1920 80 41 00
        E 0 80 45 00
        E 0 80 48 00
        E 0 90 41 48
        E 0 90 45 48
        E 0 90 48 48
        E 260 80 41 00
        E 0 80 45 00
        E 0 80 48 00
        E 440 90 41 48
        E 0 90 45 48
        E 0 90 48 48
        E 260 80 41 00
        E 0 80 45 00
        E 0 80 48 00
        e 514 90 41 48
        e 0 90 45 48
        e 0 90 48 48
        e 260 80 41 00
        e 0 80 45 00
        e 0 80 48 00
        E 162 90 3e 48
        E 24 90 41 48
        E 0 90 45 48
        E 1896 90 3e 48
        E 24 80 3e 00
        E 0 80 41 00
        E 0 80 45 00
        E 0 90 41 48
        E 0 90 45 48
        E 260 80 3e 00
        E 0 80 41 00
        E 0 80 45 00
        E 416 90 3e 48
        E 24 90 41 48
        E 0 90 45 48
        E 260 80 3e 00
        E 0 80 41 00
        E 0 80 45 00
        e 490 90 3e 48
        e 24 90 41 48
        e 0 90 45 48
        e 260 80 3e 00
        e 0 80 41 00
        e 0 80 45 00
        E 186 b0 7b 00
        CHASE_CC_TAKEOFFS 1
        GUID {6844F8A9-6BE9-023C-4A46-0A676470C99B}
        IGNTEMPO 0 120 4 4
        SRCCOLOR 26
        VELLANE -1 100 0
        CFGEDITVIEW 0 0.045808 45 12 0 -1 0 0 0 0.5
        KEYSNAP 0
        TRACKSEL 0
        EVTFILTER 0 -1 -1 -1 -1 0 0 0 0 -1 -1 -1 -1 0 -1 0 -1 -1
        CFGEDIT 1 1 0 1 0 0 1 1 1 1 1 1 58 171 1253 866 0 0 0 0 0.25 0 0 0 0 0.5 0 0 1 64
      >
    >
    <ITEM
      POSITION 80
      SNAPOFFS 0
      LENGTH 8
      LOOP 1
      ALLTAKES 0
      FADEIN 1 0 0 1 0 0
      FADEOUT 1 0 0 1 0 0
      MUTE 0
      SEL 1
      IGUID {CD023810-6406-FAFB-11D8-9146F855FE04}
      IID 20
      NAME "01-Recorded MIDI"
      VOLPAN 1 0 1 -1
      SOFFS 0 0
      PLAYRATE 1 1 0 -1 0 0.0021
      CHANMODE 0
      GUID {54CE5CA3-0D27-C1F5-685F-413C192B7ED7}
      RECPASS 1
      <SOURCE MIDI
        HASDATA 1 960 QN
        CCINTERP 32
        POOLEDEVTS {A4D3C192-37D7-ED10-3689-EB4F5DE9C437}
        E 0 90 3c 48
        E 0 90 40 48
        E 0 90 43 48
        E 1920 80 3c 00
        E 0 80 40 00
        E 0 80 43 00
        E 0 90 3c 48
        E 0 90 40 48
        E 0 90 43 48
        E 260 80 3c 00
        E 0 80 40 00
        E 0 80 43 00
        E 440 90 3c 48
        E 0 90 40 48
        E 0 90 43 48
        E 260 80 3c 00
        E 0 80 40 00
        E 0 80 43 00
        e 514 90 3c 48
        e 0 90 40 48
        e 0 90 43 48
        e 260 80 3c 00
        e 0 80 40 00
        e 0 80 43 00
        E 186 90 43 48
        E 0 90 47 48
        E 20 90 40 48
        E 1900 80 43 00
        E 0 80 47 00
        E 0 80 40 00
        E 0 90 43 48
        E 0 90 47 48
        E 20 90 40 48
        E 240 80 43 00
        E 0 80 47 00
        E 0 80 40 00
        E 440 90 43 48
        E 0 90 47 48
        E 20 90 40 48
        E 240 80 43 00
        E 0 80 47 00
        E 0 80 40 00
        e 514 90 43 48
        e 0 90 47 48
        e 20 90 40 48
        e 240 80 43 00
        e 0 80 47 00
        e 0 80 40 00
        E 186 90 41 48
        E 0 90 45 48
        E 0 90 48 48
        E 1920 80 41 00
        E 0 80 45 00
        E 0 80 48 00
        E 0 90 41 48
        E 0 90 45 48
        E 0 90 48 48
        E 260 80 41 00
        E 0 80 45 00
        E 0 80 48 00
        E 440 90 41 48
        E 0 90 45 48
        E 0 90 48 48
        E 260 80 41 00
        E 0 80 45 00
        E 0 80 48 00
        e 514 90 41 48
        e 0 90 45 48
        e 0 90 48 48
        e 260 80 41 00
        e 0 80 45 00
        e 0 80 48 00
        E 162 90 3e 48
        E 24 90 41 48
        E 0 90 45 48
        E 1896 90 3e 48
        E 24 80 3e 00
        E 0 80 41 00
        E 0 80 45 00
        E 0 90 41 48
        E 0 90 45 48
        E 260 80 3e 00
        E 0 80 41 00
        E 0 80 45 00
        E 416 90 3e 48
        E 24 90 41 48
        E 0 90 45 48
        E 260 80 3e 00
        E 0 80 41 00
        E 0 80 45 00
        e 490 90 3e 48
        e 24 90 41 48
        e 0 90 45 48
        e 260 80 3e 00
        e 0 80 41 00
        e 0 80 45 00
        E 186 b0 7b 00
        CHASE_CC_TAKEOFFS 1
        GUID {E611ADB6-4869-6CCA-8E83-3954D5E743B1}
        IGNTEMPO 0 120 4 4
        SRCCOLOR 27
        VELLANE -1 100 0
        CFGEDITVIEW 0 0.045808 45 12 0 -1 0 0 0 0.5
        KEYSNAP 0
        TRACKSEL 0
        EVTFILTER 0 -1 -1 -1 -1 0 0 0 0 -1 -1 -1 -1 0 -1 0 -1 -1
        CFGEDIT 1 1 0 1 0 0 1 1 1 1 1 1 58 171 1253 866 0 0 0 0 0.25 0 0 0 0 0.5 0 0 1 64
      >
    >
    <ITEM
      POSITION 88
      SNAPOFFS 0
      LENGTH 8
      LOOP 1
      ALLTAKES 0
      FADEIN 1 0 0 1 0 0
      FADEOUT 1 0 0 1 0 0
      MUTE 0
      SEL 1
      IGUID {220F34EC-4441-942E-2AC2-2F6D12307A11}
      IID 21
      NAME "01-Recorded MIDI"
      VOLPAN 1 0 1 -1
      SOFFS 0 0
      PLAYRATE 1 1 0 -1 0 0.0021
      CHANMODE 0
      GUID {DF696FD0-F260-5BBA-0B01-9B494E4E47DF}
      RECPASS 1
      <SOURCE MIDI
        HASDATA 1 960 QN
        CCINTERP 32
        POOLEDEVTS {24A934EB-0FFF-760F-7F19-BAF6681501B2}
        E 0 90 3c 48
        E 0 90 40 48
        E 0 90 43 48
        E 1920 80 3c 00
        E 0 80 40 00
        E 0 80 43 00
        E 0 90 3c 48
        E 0 90 40 48
        E 0 90 43 48
        E 260 80 3c 00
        E 0 80 40 00
        E 0 80 43 00
        E 440 90 3c 48
        E 0 90 40 48
        E 0 90 43 48
        E 260 80 3c 00
        E 0 80 40 00
        E 0 80 43 00
        e 514 90 3c 48
        e 0 90 40 48
        e 0 90 43 48
        e 260 80 3c 00
        e 0 80 40 00
        e 0 80 43 00
        E 186 90 43 48
        E 0 90 47 48
        E 20 90 40 48
        E 1900 80 43 00
        E 0 80 47 00
        E 0 80 40 00
        E 0 90 43 48
        E 0 90 47 48
        E 20 90 40 48
        E 240 80 43 00
        E 0 80 47 00
        E 0 80 40 00
        E 440 90 43 48
        E 0 90 47 48
        E 20 90 40 48
        E 240 80 43 00
        E 0 80 47 00
        E 0 80 40 00
        e 514 90 43 48
        e 0 90 47 48
        e 20 90 40 48
        e 240 80 43 00
        e 0 80 47 00
        e 0 80 40 00
        E 186 90 41 48
        E 0 90 45 48
        E 0 90 48 48
        E 1920 80 41 00
        E 0 80 45 00
        E 0 80 48 00
        E 0 90 41 48
        E 0 90 45 48
        E 0 90 48 48
        E 260 80 41 00
        E 0 80 45 00
        E 0 80 48 00
        E 440 90 41 48
        E 0 90 45 48
        E 0 90 48 48
        E 260 80 41 00
        E 0 80 45 00
        E 0 80 48 00
        e 514 90 41 48
        e 0 90 45 48
        e 0 90 48 48
        e 260 80 41 00
        e 0 80 45 00
        e 0 80 48 00
        E 162 90 3e 48
        E 24 90 41 48
        E 0 90 45 48
        E 1896 90 3e 48
        E 24 80 3e 00
        E 0 80 41 00
        E 0 80 45 00
        E 0 90 41 48
        E 0 90 45 48
        E 260 80 3e 00
        E 0 80 41 00
        E 0 80 45 00
        E 416 90 3e 48
        E 24 90 41 48
        E 0 90 45 48
        E 260 80 3e 00
        E 0 80 41 00
        E 0 80 45 00
        e 490 90 3e 48
        e 24 90 41 48
        e 0 90 45 48
        e 260 80 3e 00
        e 0 80 41 00
        e 0 80 45 00
        E 186 b0 7b 00
        CHASE_CC_TAKEOFFS 1
        GUID {C762B555-17FC-D765-5340-11D3487D2955}
        IGNTEMPO 0 120 4 4
        SRCCOLOR 28
        VELLANE -1 100 0
        CFGEDITVIEW 0 0.045808 45 12 0 -1 0 0 0 0.5
        KEYSNAP 0
        TRACKSEL 0
        EVTFILTER 0 -1 -1 -1 -1 0 0 0 0 -1 -1 -1 -1 0 -1 0 -1 -1
        CFGEDIT 1 1 0 1 0 0 1 1 1 1 1 1 58 171 1253 866 0 0 0 0 0.25 0 0 0 0 0.5 0 0 1 64
      >
    >
  >
  <TRACK {50C40B64-E315-9BA5-3CDA-669BF0F38E39}
    NAME ""
    PEAKCOL 16576
    BEAT -1
    AUTOMODE 0
    VOLPAN 0.00052194381917 0 -1 -1 1
    MUTESOLO 0 0 0
    IPHASE 0
    PLAYOFFS 0 1
    ISBUS 0 0
    BUSCOMP 0 0 0 0 0
    SHOWINMIX 1 0.6667 0.5 1 0.5 0 0 0
    FREEMODE 0
    SEL 0
    REC 0 5056 1 0 0 0 0
    VU 2
    TRACKHEIGHT 21 0 0
    INQ 0 0 0 0.5 100 0 0 100
    NCHAN 2
    FX 0
    TRACKID {50C40B64-E315-9BA5-3CDA-669BF0F38E39}
    PERF 0
    MIDIOUT -1
    MAINSEND 1 0
    <FXCHAIN
      WNDRECT 346 266 902 608
      SHOW 0
      LASTSEL 5
      DOCKED 0
      BYPASS 0 0 0
      <VST "VST: ReaEQ (Cockos)" reaeq.vst.so 0 "" 1919247729<56535472656571726561657100000000> ""
        cWVlcu5e7f4CAAAAAQAAAAAAAAACAAAAAAAAAAIAAAABAAAAAAAAAAIAAAAAAAAAqAAAAAEAAAAAABAA
        IQAAAAQAAAAEAAAAAQAAAEG4Xhmm+DRAAAAAAAAA8D8AAAAAAAAAQAEIAAAAAQAAAAAAAAAAwHJAAAAAAAAA8D8AAAAAAAAAQAEIAAAAAQAAAAAAAAAAQI9AAAAAAAAA
        8D8AAAAAAAAAQAEDAAAAAQAAAAABaCorbdRAAAAAAAAA8D8AAAAAAAAAQAEBAAAAAQAAAAAAAAAAAPA/AAAAAJoCAACcAQAA
        AEhpZ2ggbG93IHBhc3MAEAAAAA==
      >
      PRESETNAME "High low pass"
      FLOATPOS 0 0 0 0
      FXID {3CB212A1-A454-243D-F4FA-19EC7581D61C}
      WAK 0 0
      BYPASS 0 0 0
      <VST "VSTi: ReaSynth (Cockos)" reasynth.vst.so 0 "" 1919251321<5653547265737972656173796E746800> ""
        eXNlcu9e7f4AAAAAAgAAAAEAAAAAAAAAAgAAAAAAAAA8AAAAAAAAAAAAEAA=
        776t3g3wrd6lm8Q7F7fROgAAAAAAAAAAAAAAAJCNuT3oZ4g9AACAPwAAAD8AAIA/AAAAAAAAAD8AAAAA
        AAAQAAAA
      >
      FLOATPOS 0 0 0 0
      FXID {E06DF037-E0CF-6E87-E825-B33F086A91A7}
      WAK 0 0
      BYPASS 0 0 0
      <JS guitar/amp-model ""
        "Dumble Overdrive Special - Tweed Deluxe.wav" -21.000000 1.000000 0.000000 73.000000 256.000000 - - - - - - - - - - - - - - - - - - - - - - - - - - - - - - - - - - - - - - - - - - - - - - - - - - - - - - - - - - 
      >
      FLOATPOS 0 0 0 0
      FXID {8A764160-8C20-7FAC-655D-80899F0B91FE}
      WAK 0 0
      BYPASS 0 0 0
      <VST "VST: ReaComp (Cockos)" reacomp.vst.so 0 "" 1919247213<5653547265636D726561636F6D700000> ""
        bWNlcu9e7f4EAAAAAQAAAAAAAAACAAAAAAAAAAQAAAAAAAAACAAAAAAAAAACAAAAAQAAAAAAAAACAAAAAAAAAFQAAAAAAAAAAAAQAA==
        776t3g3wrd5FoYg9/AWpPKWbxDsK16M8AAAAAAAAAAAAAIA/AAAAAAAAAAAAAAAAnNEHMwAAgD8AAAAAzMxMPQAAAAAAAAAAAAAAAAAAgD7YiZ09
        AAAQAAAA
      >
      FLOATPOS 0 0 0 0
      FXID {2FDEC8C1-8847-C57A-888E-FE9D327E1BAA}
      WAK 0 0
      BYPASS 0 0 0
      <VST "VST: ReaDelay (Cockos)" readelay.vst.so 0 "" 1919247468<5653547265646C72656164656C617900> ""
        bGRlcu5e7f4CAAAAAQAAAAAAAAACAAAAAAAAAAIAAAABAAAAAAAAAAIAAAAAAAAA/AAAAAEAAAAAAAAA
        AAAAAAAAAAAFAAAALAAAAAIAAAAEAAAAAACAPwAAgD8AAAAAAACAPwAAAAAAAIA7vTeGNQAAgD8AAAAAAACAPwAAgD8AAIA/AAAAAAAAAAAAAIA/AAAAAAAAADwAAAAA
        AACAPwAAAAAAAIA/AACAP+87NT8AAIA/AAAAAAAAgD8AAAAAAABAPL03hjUAAIA/AAAAAAAAgD8AAIA/zk0AP6abhD4AAAAAAACAPwAAAAAAAIA8vTeGNQAAgD8AAAAA
        AACAPwAAgD8aqrU+pHA9PwAAAAAAAIA/AAAAAAAAoDy9N4Y1AACAPwAAAAAAAIA/AACAP/npAD4AAAA/
        AHN0b2NrIC0gYmFzaWMgNSB0YXAgcGluZyBwb25nAAAAAAA=
      >
      PRESETNAME "stock - basic 5 tap ping pong"
      FLOATPOS 0 0 0 0
      FXID {4FBB412C-1325-81C0-D3A5-89D64625C1CB}
      WAK 0 0
      BYPASS 0 0 0
      <VST "VST: ReaVerb (Cockos)" reaverb.vst.so 0 "" 1919252066<56535472657662726561766572620000> ""
        YnZlcu5e7f4CAAAAAQAAAAAAAAACAAAAAAAAAAIAAAABAAAAAAAAAAIAAAAAAAAAcAAAAAEAAAAAAAAA
        AAAAwcybgD4AAIA/AAAAAAAAgD8AAIA/AAAAPwAAgD8AAAAAVkVSQkdFTgAYAAAAAAAAAJHgV0QdrLRA3rK7QsHIjEIAAIC/RUNIT0dFTgAcAAAAy/i2QLUjdUJdzdM/
        osdfP5lRrzyRzYxAnMQAPw==
        AHN3ZWV0dmVyYm8AAAAAAA==
      >
      PRESETNAME sweetverbo
      FLOATPOS 0 0 0 0
      FXID {606D46D4-D1B5-6168-AD97-6E935758E5DA}
      WAK 0 0
    >
    <ITEM
      POSITION 0
      SNAPOFFS 0
      LENGTH 8
      LOOP 1
      ALLTAKES 0
      FADEIN 1 0 0 1 0 0
      FADEOUT 1 0 0 1 0 0
      MUTE 0
      SEL 1
      IGUID {DA3BD046-8C4A-0C81-7E66-CE8E01622A48}
      IID 10
      NAME "01-Recorded MIDI"
      VOLPAN 1 0 1 -1
      SOFFS 0 0
      PLAYRATE 1 1 0 -1 0 0.0021
      CHANMODE 0
      GUID {D0104040-5A78-08EA-4F4C-FCD0C70FE2F2}
      RECPASS 1
      <SOURCE MIDI
        HASDATA 1 960 QN
        CCINTERP 32
        POOLEDEVTS {0296F07E-EE87-1DBD-674F-DE720C4DFA93}
        E 0 90 3c 48
        E 0 90 40 48
        E 0 90 43 48
        E 1920 80 3c 00
        E 0 80 40 00
        E 0 80 43 00
        E 0 90 3c 48
        E 0 90 40 48
        E 0 90 43 48
        E 260 80 3c 00
        E 0 80 40 00
        E 0 80 43 00
        E 440 90 3c 48
        E 0 90 40 48
        E 0 90 43 48
        E 260 80 3c 00
        E 0 80 40 00
        E 0 80 43 00
        e 514 90 3c 48
        e 0 90 40 48
        e 0 90 43 48
        e 260 80 3c 00
        e 0 80 40 00
        e 0 80 43 00
        E 186 90 43 48
        E 0 90 47 48
        E 20 90 40 48
        E 1900 80 43 00
        E 0 80 47 00
        E 0 80 40 00
        E 0 90 43 48
        E 0 90 47 48
        E 20 90 40 48
        E 240 80 43 00
        E 0 80 47 00
        E 0 80 40 00
        E 440 90 43 48
        E 0 90 47 48
        E 20 90 40 48
        E 240 80 43 00
        E 0 80 47 00
        E 0 80 40 00
        e 514 90 43 48
        e 0 90 47 48
        e 20 90 40 48
        e 240 80 43 00
        e 0 80 47 00
        e 0 80 40 00
        E 186 90 41 48
        E 0 90 45 48
        E 0 90 48 48
        E 1920 80 41 00
        E 0 80 45 00
        E 0 80 48 00
        E 0 90 41 48
        E 0 90 45 48
        E 0 90 48 48
        E 260 80 41 00
        E 0 80 45 00
        E 0 80 48 00
        E 440 90 41 48
        E 0 90 45 48
        E 0 90 48 48
        E 260 80 41 00
        E 0 80 45 00
        E 0 80 48 00
        e 514 90 41 48
        e 0 90 45 48
        e 0 90 48 48
        e 260 80 41 00
        e 0 80 45 00
        e 0 80 48 00
        E 162 90 3e 48
        E 24 90 41 48
        E 0 90 45 48
        E 1896 90 3e 48
        E 24 80 3e 00
        E 0 80 41 00
        E 0 80 45 00
        E 0 90 41 48
        E 0 90 45 48
        E 260 80 3e 00
        E 0 80 41 00
        E 0 80 45 00
        E 416 90 3e 48
        E 24 90 41 48
        E 0 90 45 48
        E 260 80 3e 00
        E 0 80 41 00
        E 0 80 45 00
        e 490 90 3e 48
        e 24 90 41 48
        e 0 90 45 48
        e 260 80 3e 00
        e 0 80 41 00
        e 0 80 45 00
        E 186 b0 7b 00
        CHASE_CC_TAKEOFFS 1
        GUID {7B9D708B-43E1-C8D4-C4B3-87E2A6C27801}
        IGNTEMPO 0 120 4 4
        SRCCOLOR 17
        VELLANE -1 100 0
        CFGEDITVIEW 0 0.045808 45 12 0 -1 0 0 0 0.5
        KEYSNAP 0
        TRACKSEL 0
        EVTFILTER 0 -1 -1 -1 -1 0 0 0 0 -1 -1 -1 -1 0 -1 0 -1 -1
        CFGEDIT 1 1 0 1 0 0 1 1 1 1 1 1 58 171 1253 866 0 0 0 0 0.25 0 0 0 0 0.5 0 0 1 64
      >
    >
    <ITEM
      POSITION 8
      SNAPOFFS 0
      LENGTH 8
      LOOP 1
      ALLTAKES 0
      FADEIN 1 0 0 1 0 0
      FADEOUT 1 0 0 1 0 0
      MUTE 0
      SEL 1
      IGUID {17C8E1B8-3328-62B4-5A9A-383649C609DA}
      IID 11
      NAME "01-Recorded MIDI"
      VOLPAN 1 0 1 -1
      SOFFS 0 0
      PLAYRATE 1 1 0 -1 0 0.0021
      CHANMODE 0
      GUID {965E290D-4DD7-1232-57FA-44FDD204432A}
      RECPASS 1
      <SOURCE MIDI
        HASDATA 1 960 QN
        CCINTERP 32
        POOLEDEVTS {561A3A91-65B2-705E-882E-16B62C5DAC69}
        E 0 90 3c 48
        E 0 90 40 48
        E 0 90 43 48
        E 1920 80 3c 00
        E 0 80 40 00
        E 0 80 43 00
        E 0 90 3c 48
        E 0 90 40 48
        E 0 90 43 48
        E 260 80 3c 00
        E 0 80 40 00
        E 0 80 43 00
        E 440 90 3c 48
        E 0 90 40 48
        E 0 90 43 48
        E 260 80 3c 00
        E 0 80 40 00
        E 0 80 43 00
        e 514 90 3c 48
        e 0 90 40 48
        e 0 90 43 48
        e 260 80 3c 00
        e 0 80 40 00
        e 0 80 43 00
        E 186 90 43 48
        E 0 90 47 48
        E 20 90 40 48
        E 1900 80 43 00
        E 0 80 47 00
        E 0 80 40 00
        E 0 90 43 48
        E 0 90 47 48
        E 20 90 40 48
        E 240 80 43 00
        E 0 80 47 00
        E 0 80 40 00
        E 440 90 43 48
        E 0 90 47 48
        E 20 90 40 48
        E 240 80 43 00
        E 0 80 47 00
        E 0 80 40 00
        e 514 90 43 48
        e 0 90 47 48
        e 20 90 40 48
        e 240 80 43 00
        e 0 80 47 00
        e 0 80 40 00
        E 186 90 41 48
        E 0 90 45 48
        E 0 90 48 48
        E 1920 80 41 00
        E 0 80 45 00
        E 0 80 48 00
        E 0 90 41 48
        E 0 90 45 48
        E 0 90 48 48
        E 260 80 41 00
        E 0 80 45 00
        E 0 80 48 00
        E 440 90 41 48
        E 0 90 45 48
        E 0 90 48 48
        E 260 80 41 00
        E 0 80 45 00
        E 0 80 48 00
        e 514 90 41 48
        e 0 90 45 48
        e 0 90 48 48
        e 260 80 41 00
        e 0 80 45 00
        e 0 80 48 00
        E 162 90 3e 48
        E 24 90 41 48
        E 0 90 45 48
        E 1896 90 3e 48
        E 24 80 3e 00
        E 0 80 41 00
        E 0 80 45 00
        E 0 90 41 48
        E 0 90 45 48
        E 260 80 3e 00
        E 0 80 41 00
        E 0 80 45 00
        E 416 90 3e 48
        E 24 90 41 48
        E 0 90 45 48
        E 260 80 3e 00
        E 0 80 41 00
        E 0 80 45 00
        e 490 90 3e 48
        e 24 90 41 48
        e 0 90 45 48
        e 260 80 3e 00
        e 0 80 41 00
        e 0 80 45 00
        E 186 b0 7b 00
        CHASE_CC_TAKEOFFS 1
        GUID {3131B4E2-B370-E352-A9C5-C8CA31551A86}
        IGNTEMPO 0 120 4 4
        SRCCOLOR 18
        VELLANE -1 100 0
        CFGEDITVIEW 0 0.045808 45 12 0 -1 0 0 0 0.5
        KEYSNAP 0
        TRACKSEL 0
        EVTFILTER 0 -1 -1 -1 -1 0 0 0 0 -1 -1 -1 -1 0 -1 0 -1 -1
        CFGEDIT 1 1 0 1 0 0 1 1 1 1 1 1 58 171 1253 866 0 0 0 0 0.25 0 0 0 0 0.5 0 0 1 64
      >
    >
    <ITEM
      POSITION 16
      SNAPOFFS 0
      LENGTH 8
      LOOP 1
      ALLTAKES 0
      FADEIN 1 0 0 1 0 0
      FADEOUT 1 0 0 1 0 0
      MUTE 0
      SEL 1
      IGUID {9F1B5E87-230E-8644-3AFC-CA4AD39CEA73}
      IID 12
      NAME "01-Recorded MIDI"
      VOLPAN 1 0 1 -1
      SOFFS 0 0
      PLAYRATE 1 1 0 -1 0 0.0021
      CHANMODE 0
      GUID {4883A943-529F-8E51-5A12-5DEC40917DC6}
      RECPASS 1
      <SOURCE MIDI
        HASDATA 1 960 QN
        CCINTERP 32
        POOLEDEVTS {E38BE6FC-C59C-108D-3611-32769D97467E}
        E 0 90 3c 48
        E 0 90 40 48
        E 0 90 43 48
        E 1920 80 3c 00
        E 0 80 40 00
        E 0 80 43 00
        E 0 90 3c 48
        E 0 90 40 48
        E 0 90 43 48
        E 260 80 3c 00
        E 0 80 40 00
        E 0 80 43 00
        E 440 90 3c 48
        E 0 90 40 48
        E 0 90 43 48
        E 260 80 3c 00
        E 0 80 40 00
        E 0 80 43 00
        e 514 90 3c 48
        e 0 90 40 48
        e 0 90 43 48
        e 260 80 3c 00
        e 0 80 40 00
        e 0 80 43 00
        E 186 90 43 48
        E 0 90 47 48
        E 20 90 40 48
        E 1900 80 43 00
        E 0 80 47 00
        E 0 80 40 00
        E 0 90 43 48
        E 0 90 47 48
        E 20 90 40 48
        E 240 80 43 00
        E 0 80 47 00
        E 0 80 40 00
        E 440 90 43 48
        E 0 90 47 48
        E 20 90 40 48
        E 240 80 43 00
        E 0 80 47 00
        E 0 80 40 00
        e 514 90 43 48
        e 0 90 47 48
        e 20 90 40 48
        e 240 80 43 00
        e 0 80 47 00
        e 0 80 40 00
        E 186 90 41 48
        E 0 90 45 48
        E 0 90 48 48
        E 1920 80 41 00
        E 0 80 45 00
        E 0 80 48 00
        E 0 90 41 48
        E 0 90 45 48
        E 0 90 48 48
        E 260 80 41 00
        E 0 80 45 00
        E 0 80 48 00
        E 440 90 41 48
        E 0 90 45 48
        E 0 90 48 48
        E 260 80 41 00
        E 0 80 45 00
        E 0 80 48 00
        e 514 90 41 48
        e 0 90 45 48
        e 0 90 48 48
        e 260 80 41 00
        e 0 80 45 00
        e 0 80 48 00
        E 162 90 3e 48
        E 24 90 41 48
        E 0 90 45 48
        E 1896 90 3e 48
        E 24 80 3e 00
        E 0 80 41 00
        E 0 80 45 00
        E 0 90 41 48
        E 0 90 45 48
        E 260 80 3e 00
        E 0 80 41 00
        E 0 80 45 00
        E 416 90 3e 48
        E 24 90 41 48
        E 0 90 45 48
        E 260 80 3e 00
        E 0 80 41 00
        E 0 80 45 00
        e 490 90 3e 48
        e 24 90 41 48
        e 0 90 45 48
        e 260 80 3e 00
        e 0 80 41 00
        e 0 80 45 00
        E 186 b0 7b 00
        CHASE_CC_TAKEOFFS 1
        GUID {48C567A2-895C-FB9B-FDBA-0ADB7004ABF3}
        IGNTEMPO 0 120 4 4
        SRCCOLOR 19
        VELLANE -1 100 0
        CFGEDITVIEW 0 0.045808 45 12 0 -1 0 0 0 0.5
        KEYSNAP 0
        TRACKSEL 0
        EVTFILTER 0 -1 -1 -1 -1 0 0 0 0 -1 -1 -1 -1 0 -1 0 -1 -1
        CFGEDIT 1 1 0 1 0 0 1 1 1 1 1 1 58 171 1253 866 0 0 0 0 0.25 0 0 0 0 0.5 0 0 1 64
      >
    >
    <ITEM
      POSITION 24
      SNAPOFFS 0
      LENGTH 8
      LOOP 1
      ALLTAKES 0
      FADEIN 1 0 0 1 0 0
      FADEOUT 1 0 0 1 0 0
      MUTE 0
      SEL 1
      IGUID {4B3C7633-0B35-28C6-3A1B-545F46AA1271}
      IID 13
      NAME "01-Recorded MIDI"
      VOLPAN 1 0 1 -1
      SOFFS 0 0
      PLAYRATE 1 1 0 -1 0 0.0021
      CHANMODE 0
      GUID {76A970AF-2966-246D-9151-019AFF6EA77F}
      RECPASS 1
      <SOURCE MIDI
        HASDATA 1 960 QN
        CCINTERP 32
        POOLEDEVTS {33818DF1-9C0D-FB00-95AA-9237A4419E73}
        E 0 90 3c 48
        E 0 90 40 48
        E 0 90 43 48
        E 1920 80 3c 00
        E 0 80 40 00
        E 0 80 43 00
        E 0 90 3c 48
        E 0 90 40 48
        E 0 90 43 48
        E 260 80 3c 00
        E 0 80 40 00
        E 0 80 43 00
        E 440 90 3c 48
        E 0 90 40 48
        E 0 90 43 48
        E 260 80 3c 00
        E 0 80 40 00
        E 0 80 43 00
        e 514 90 3c 48
        e 0 90 40 48
        e 0 90 43 48
        e 260 80 3c 00
        e 0 80 40 00
        e 0 80 43 00
        E 186 90 43 48
        E 0 90 47 48
        E 20 90 40 48
        E 1900 80 43 00
        E 0 80 47 00
        E 0 80 40 00
        E 0 90 43 48
        E 0 90 47 48
        E 20 90 40 48
        E 240 80 43 00
        E 0 80 47 00
        E 0 80 40 00
        E 440 90 43 48
        E 0 90 47 48
        E 20 90 40 48
        E 240 80 43 00
        E 0 80 47 00
        E 0 80 40 00
        e 514 90 43 48
        e 0 90 47 48
        e 20 90 40 48
        e 240 80 43 00
        e 0 80 47 00
        e 0 80 40 00
        E 186 90 41 48
        E 0 90 45 48
        E 0 90 48 48
        E 1920 80 41 00
        E 0 80 45 00
        E 0 80 48 00
        E 0 90 41 48
        E 0 90 45 48
        E 0 90 48 48
        E 260 80 41 00
        E 0 80 45 00
        E 0 80 48 00
        E 440 90 41 48
        E 0 90 45 48
        E 0 90 48 48
        E 260 80 41 00
        E 0 80 45 00
        E 0 80 48 00
        e 514 90 41 48
        e 0 90 45 48
        e 0 90 48 48
        e 260 80 41 00
        e 0 80 45 00
        e 0 80 48 00
        E 162 90 3e 48
        E 24 90 41 48
        E 0 90 45 48
        E 1896 90 3e 48
        E 24 80 3e 00
        E 0 80 41 00
        E 0 80 45 00
        E 0 90 41 48
        E 0 90 45 48
        E 260 80 3e 00
        E 0 80 41 00
        E 0 80 45 00
        E 416 90 3e 48
        E 24 90 41 48
        E 0 90 45 48
        E 260 80 3e 00
        E 0 80 41 00
        E 0 80 45 00
        e 490 90 3e 48
        e 24 90 41 48
        e 0 90 45 48
        e 260 80 3e 00
        e 0 80 41 00
        e 0 80 45 00
        E 186 b0 7b 00
        CHASE_CC_TAKEOFFS 1
        GUID {1DE38800-E2A1-41B5-9C8C-3291891093B1}
        IGNTEMPO 0 120 4 4
        SRCCOLOR 20
        VELLANE -1 100 0
        CFGEDITVIEW 0 0.045808 45 12 0 -1 0 0 0 0.5
        KEYSNAP 0
        TRACKSEL 0
        EVTFILTER 0 -1 -1 -1 -1 0 0 0 0 -1 -1 -1 -1 0 -1 0 -1 -1
        CFGEDIT 1 1 0 1 0 0 1 1 1 1 1 1 58 171 1253 866 0 0 0 0 0.25 0 0 0 0 0.5 0 0 1 64
      >
    >
    <ITEM
      POSITION 32
      SNAPOFFS 0
      LENGTH 8
      LOOP 1
      ALLTAKES 0
      FADEIN 1 0 0 1 0 0
      FADEOUT 1 0 0 1 0 0
      MUTE 0
      SEL 1
      IGUID {5A2A5421-9FD4-1D28-FD30-37E5A4F20D9C}
      IID 14
      NAME "01-Recorded MIDI"
      VOLPAN 1 0 1 -1
      SOFFS 0 0
      PLAYRATE 1 1 0 -1 0 0.0021
      CHANMODE 0
      GUID {3C5C22A2-D560-0AEC-43BA-A4692D534803}
      RECPASS 1
      <SOURCE MIDI
        HASDATA 1 960 QN
        CCINTERP 32
        POOLEDEVTS {A8C04432-40DA-8E8C-C476-1C62F270277B}
        E 0 90 3c 48
        E 0 90 40 48
        E 0 90 43 48
        E 1920 80 3c 00
        E 0 80 40 00
        E 0 80 43 00
        E 0 90 3c 48
        E 0 90 40 48
        E 0 90 43 48
        E 260 80 3c 00
        E 0 80 40 00
        E 0 80 43 00
        E 440 90 3c 48
        E 0 90 40 48
        E 0 90 43 48
        E 260 80 3c 00
        E 0 80 40 00
        E 0 80 43 00
        e 514 90 3c 48
        e 0 90 40 48
        e 0 90 43 48
        e 260 80 3c 00
        e 0 80 40 00
        e 0 80 43 00
        E 186 90 43 48
        E 0 90 47 48
        E 20 90 40 48
        E 1900 80 43 00
        E 0 80 47 00
        E 0 80 40 00
        E 0 90 43 48
        E 0 90 47 48
        E 20 90 40 48
        E 240 80 43 00
        E 0 80 47 00
        E 0 80 40 00
        E 440 90 43 48
        E 0 90 47 48
        E 20 90 40 48
        E 240 80 43 00
        E 0 80 47 00
        E 0 80 40 00
        e 514 90 43 48
        e 0 90 47 48
        e 20 90 40 48
        e 240 80 43 00
        e 0 80 47 00
        e 0 80 40 00
        E 186 90 41 48
        E 0 90 45 48
        E 0 90 48 48
        E 1920 80 41 00
        E 0 80 45 00
        E 0 80 48 00
        E 0 90 41 48
        E 0 90 45 48
        E 0 90 48 48
        E 260 80 41 00
        E 0 80 45 00
        E 0 80 48 00
        E 440 90 41 48
        E 0 90 45 48
        E 0 90 48 48
        E 260 80 41 00
        E 0 80 45 00
        E 0 80 48 00
        e 514 90 41 48
        e 0 90 45 48
        e 0 90 48 48
        e 260 80 41 00
        e 0 80 45 00
        e 0 80 48 00
        E 162 90 3e 48
        E 24 90 41 48
        E 0 90 45 48
        E 1896 90 3e 48
        E 24 80 3e 00
        E 0 80 41 00
        E 0 80 45 00
        E 0 90 41 48
        E 0 90 45 48
        E 260 80 3e 00
        E 0 80 41 00
        E 0 80 45 00
        E 416 90 3e 48
        E 24 90 41 48
        E 0 90 45 48
        E 260 80 3e 00
        E 0 80 41 00
        E 0 80 45 00
        e 490 90 3e 48
        e 24 90 41 48
        e 0 90 45 48
        e 260 80 3e 00
        e 0 80 41 00
        e 0 80 45 00
        E 186 b0 7b 00
        CHASE_CC_TAKEOFFS 1
        GUID {0C3271F4-E233-9088-9B25-A722FAE7C579}
        IGNTEMPO 0 120 4 4
        SRCCOLOR 21
        VELLANE -1 100 0
        CFGEDITVIEW 0 0.045808 45 12 0 -1 0 0 0 0.5
        KEYSNAP 0
        TRACKSEL 0
        EVTFILTER 0 -1 -1 -1 -1 0 0 0 0 -1 -1 -1 -1 0 -1 0 -1 -1
        CFGEDIT 1 1 0 1 0 0 1 1 1 1 1 1 58 171 1253 866 0 0 0 0 0.25 0 0 0 0 0.5 0 0 1 64
      >
    >
    <ITEM
      POSITION 40
      SNAPOFFS 0
      LENGTH 8
      LOOP 1
      ALLTAKES 0
      FADEIN 1 0 0 1 0 0
      FADEOUT 1 0 0 1 0 0
      MUTE 0
      SEL 1
      IGUID {6973611B-7B0C-5FC4-C911-20616478DA0C}
      IID 15
      NAME "01-Recorded MIDI"
      VOLPAN 1 0 1 -1
      SOFFS 0 0
      PLAYRATE 1 1 0 -1 0 0.0021
      CHANMODE 0
      GUID {1F600D6D-160A-154B-9079-1E1FA7EE8B53}
      RECPASS 1
      <SOURCE MIDI
        HASDATA 1 960 QN
        CCINTERP 32
        POOLEDEVTS {8F897199-1C4E-5F9F-4D30-0773B6CE5725}
        E 0 90 3c 48
        E 0 90 40 48
        E 0 90 43 48
        E 1920 80 3c 00
        E 0 80 40 00
        E 0 80 43 00
        E 0 90 3c 48
        E 0 90 40 48
        E 0 90 43 48
        E 260 80 3c 00
        E 0 80 40 00
        E 0 80 43 00
        E 440 90 3c 48
        E 0 90 40 48
        E 0 90 43 48
        E 260 80 3c 00
        E 0 80 40 00
        E 0 80 43 00
        e 514 90 3c 48
        e 0 90 40 48
        e 0 90 43 48
        e 260 80 3c 00
        e 0 80 40 00
        e 0 80 43 00
        E 186 90 43 48
        E 0 90 47 48
        E 20 90 40 48
        E 1900 80 43 00
        E 0 80 47 00
        E 0 80 40 00
        E 0 90 43 48
        E 0 90 47 48
        E 20 90 40 48
        E 240 80 43 00
        E 0 80 47 00
        E 0 80 40 00
        E 440 90 43 48
        E 0 90 47 48
        E 20 90 40 48
        E 240 80 43 00
        E 0 80 47 00
        E 0 80 40 00
        e 514 90 43 48
        e 0 90 47 48
        e 20 90 40 48
        e 240 80 43 00
        e 0 80 47 00
        e 0 80 40 00
        E 186 90 41 48
        E 0 90 45 48
        E 0 90 48 48
        E 1920 80 41 00
        E 0 80 45 00
        E 0 80 48 00
        E 0 90 41 48
        E 0 90 45 48
        E 0 90 48 48
        E 260 80 41 00
        E 0 80 45 00
        E 0 80 48 00
        E 440 90 41 48
        E 0 90 45 48
        E 0 90 48 48
        E 260 80 41 00
        E 0 80 45 00
        E 0 80 48 00
        e 514 90 41 48
        e 0 90 45 48
        e 0 90 48 48
        e 260 80 41 00
        e 0 80 45 00
        e 0 80 48 00
        E 162 90 3e 48
        E 24 90 41 48
        E 0 90 45 48
        E 1896 90 3e 48
        E 24 80 3e 00
        E 0 80 41 00
        E 0 80 45 00
        E 0 90 41 48
        E 0 90 45 48
        E 260 80 3e 00
        E 0 80 41 00
        E 0 80 45 00
        E 416 90 3e 48
        E 24 90 41 48
        E 0 90 45 48
        E 260 80 3e 00
        E 0 80 41 00
        E 0 80 45 00
        e 490 90 3e 48
        e 24 90 41 48
        e 0 90 45 48
        e 260 80 3e 00
        e 0 80 41 00
        e 0 80 45 00
        E 186 b0 7b 00
        CHASE_CC_TAKEOFFS 1
        GUID {040E7AF8-3572-5D91-3C86-797AEE7444D4}
        IGNTEMPO 0 120 4 4
        SRCCOLOR 22
        VELLANE -1 100 0
        CFGEDITVIEW 0 0.045808 45 12 0 -1 0 0 0 0.5
        KEYSNAP 0
        TRACKSEL 0
        EVTFILTER 0 -1 -1 -1 -1 0 0 0 0 -1 -1 -1 -1 0 -1 0 -1 -1
        CFGEDIT 1 1 0 1 0 0 1 1 1 1 1 1 58 171 1253 866 0 0 0 0 0.25 0 0 0 0 0.5 0 0 1 64
      >
    >
    <ITEM
      POSITION 48
      SNAPOFFS 0
      LENGTH 8
      LOOP 1
      ALLTAKES 0
      FADEIN 1 0 0 1 0 0
      FADEOUT 1 0 0 1 0 0
      MUTE 0
      SEL 1
      IGUID {7F408896-E603-95A8-11D0-CB45ECB7D647}
      IID 16
      NAME "01-Recorded MIDI"
      VOLPAN 1 0 1 -1
      SOFFS 0 0
      PLAYRATE 1 1 0 -1 0 0.0021
      CHANMODE 0
      GUID {1EBDA87B-DDEE-02CE-ECB0-A0B536046A45}
      RECPASS 1
      <SOURCE MIDI
        HASDATA 1 960 QN
        CCINTERP 32
        POOLEDEVTS {25C68EFE-34F4-084D-2D3F-7588E95F82A7}
        E 0 90 3c 48
        E 0 90 40 48
        E 0 90 43 48
        E 1920 80 3c 00
        E 0 80 40 00
        E 0 80 43 00
        E 0 90 3c 48
        E 0 90 40 48
        E 0 90 43 48
        E 260 80 3c 00
        E 0 80 40 00
        E 0 80 43 00
        E 440 90 3c 48
        E 0 90 40 48
        E 0 90 43 48
        E 260 80 3c 00
        E 0 80 40 00
        E 0 80 43 00
        e 514 90 3c 48
        e 0 90 40 48
        e 0 90 43 48
        e 260 80 3c 00
        e 0 80 40 00
        e 0 80 43 00
        E 186 90 43 48
        E 0 90 47 48
        E 20 90 40 48
        E 1900 80 43 00
        E 0 80 47 00
        E 0 80 40 00
        E 0 90 43 48
        E 0 90 47 48
        E 20 90 40 48
        E 240 80 43 00
        E 0 80 47 00
        E 0 80 40 00
        E 440 90 43 48
        E 0 90 47 48
        E 20 90 40 48
        E 240 80 43 00
        E 0 80 47 00
        E 0 80 40 00
        e 514 90 43 48
        e 0 90 47 48
        e 20 90 40 48
        e 240 80 43 00
        e 0 80 47 00
        e 0 80 40 00
        E 186 90 41 48
        E 0 90 45 48
        E 0 90 48 48
        E 1920 80 41 00
        E 0 80 45 00
        E 0 80 48 00
        E 0 90 41 48
        E 0 90 45 48
        E 0 90 48 48
        E 260 80 41 00
        E 0 80 45 00
        E 0 80 48 00
        E 440 90 41 48
        E 0 90 45 48
        E 0 90 48 48
        E 260 80 41 00
        E 0 80 45 00
        E 0 80 48 00
        e 514 90 41 48
        e 0 90 45 48
        e 0 90 48 48
        e 260 80 41 00
        e 0 80 45 00
        e 0 80 48 00
        E 162 90 3e 48
        E 24 90 41 48
        E 0 90 45 48
        E 1896 90 3e 48
        E 24 80 3e 00
        E 0 80 41 00
        E 0 80 45 00
        E 0 90 41 48
        E 0 90 45 48
        E 260 80 3e 00
        E 0 80 41 00
        E 0 80 45 00
        E 416 90 3e 48
        E 24 90 41 48
        E 0 90 45 48
        E 260 80 3e 00
        E 0 80 41 00
        E 0 80 45 00
        e 490 90 3e 48
        e 24 90 41 48
        e 0 90 45 48
        e 260 80 3e 00
        e 0 80 41 00
        e 0 80 45 00
        E 186 b0 7b 00
        CHASE_CC_TAKEOFFS 1
        GUID {2338968B-6CF9-9F40-300F-DEB89D3392EA}
        IGNTEMPO 0 120 4 4
        SRCCOLOR 23
        VELLANE -1 100 0
        CFGEDITVIEW 0 0.045808 45 12 0 -1 0 0 0 0.5
        KEYSNAP 0
        TRACKSEL 0
        EVTFILTER 0 -1 -1 -1 -1 0 0 0 0 -1 -1 -1 -1 0 -1 0 -1 -1
        CFGEDIT 1 1 0 1 0 0 1 1 1 1 1 1 58 171 1253 866 0 0 0 0 0.25 0 0 0 0 0.5 0 0 1 64
      >
    >
    <ITEM
      POSITION 56
      SNAPOFFS 0
      LENGTH 8
      LOOP 1
      ALLTAKES 0
      FADEIN 1 0 0 1 0 0
      FADEOUT 1 0 0 1 0 0
      MUTE 0
      SEL 1
      IGUID {63FE9A91-128B-8673-43D6-3AE67DE99EB2}
      IID 17
      NAME "01-Recorded MIDI"
      VOLPAN 1 0 1 -1
      SOFFS 0 0
      PLAYRATE 1 1 0 -1 0 0.0021
      CHANMODE 0
      GUID {90DFB89E-0E88-8FE9-F8B5-BD194C1C4A96}
      RECPASS 1
      <SOURCE MIDI
        HASDATA 1 960 QN
        CCINTERP 32
        POOLEDEVTS {D9A038CB-15B3-7BA9-1872-86F2FC5FC9F3}
        E 0 90 3c 48
        E 0 90 40 48
        E 0 90 43 48
        E 1920 80 3c 00
        E 0 80 40 00
        E 0 80 43 00
        E 0 90 3c 48
        E 0 90 40 48
        E 0 90 43 48
        E 260 80 3c 00
        E 0 80 40 00
        E 0 80 43 00
        E 440 90 3c 48
        E 0 90 40 48
        E 0 90 43 48
        E 260 80 3c 00
        E 0 80 40 00
        E 0 80 43 00
        e 514 90 3c 48
        e 0 90 40 48
        e 0 90 43 48
        e 260 80 3c 00
        e 0 80 40 00
        e 0 80 43 00
        E 186 90 43 48
        E 0 90 47 48
        E 20 90 40 48
        E 1900 80 43 00
        E 0 80 47 00
        E 0 80 40 00
        E 0 90 43 48
        E 0 90 47 48
        E 20 90 40 48
        E 240 80 43 00
        E 0 80 47 00
        E 0 80 40 00
        E 440 90 43 48
        E 0 90 47 48
        E 20 90 40 48
        E 240 80 43 00
        E 0 80 47 00
        E 0 80 40 00
        e 514 90 43 48
        e 0 90 47 48
        e 20 90 40 48
        e 240 80 43 00
        e 0 80 47 00
        e 0 80 40 00
        E 186 90 41 48
        E 0 90 45 48
        E 0 90 48 48
        E 1920 80 41 00
        E 0 80 45 00
        E 0 80 48 00
        E 0 90 41 48
        E 0 90 45 48
        E 0 90 48 48
        E 260 80 41 00
        E 0 80 45 00
        E 0 80 48 00
        E 440 90 41 48
        E 0 90 45 48
        E 0 90 48 48
        E 260 80 41 00
        E 0 80 45 00
        E 0 80 48 00
        e 514 90 41 48
        e 0 90 45 48
        e 0 90 48 48
        e 260 80 41 00
        e 0 80 45 00
        e 0 80 48 00
        E 162 90 3e 48
        E 24 90 41 48
        E 0 90 45 48
        E 1896 90 3e 48
        E 24 80 3e 00
        E 0 80 41 00
        E 0 80 45 00
        E 0 90 41 48
        E 0 90 45 48
        E 260 80 3e 00
        E 0 80 41 00
        E 0 80 45 00
        E 416 90 3e 48
        E 24 90 41 48
        E 0 90 45 48
        E 260 80 3e 00
        E 0 80 41 00
        E 0 80 45 00
        e 490 90 3e 48
        e 24 90 41 48
        e 0 90 45 48
        e 260 80 3e 00
        e 0 80 41 00
        e 0 80 45 00
        E 186 b0 7b 00
        CHASE_CC_TAKEOFFS 1
        GUID {A64857E2-94F8-0990-20DF-4C1E9B5E6251}
        IGNTEMPO 0 120 4 4
        SRCCOLOR 24
        VELLANE -1 100 0
        CFGEDITVIEW 0 0.045808 45 12 0 -1 0 0 0 0.5
        KEYSNAP 0
        TRACKSEL 0
        EVTFILTER 0 -1 -1 -1 -1 0 0 0 0 -1 -1 -1 -1 0 -1 0 -1 -1
        CFGEDIT 1 1 0 1 0 0 1 1 1 1 1 1 58 171 1253 866 0 0 0 0 0.25 0 0 0 0 0.5 0 0 1 64
      >
    >
    <ITEM
      POSITION 64
      SNAPOFFS 0
      LENGTH 8
      LOOP 1
      ALLTAKES 0
      FADEIN 1 0 0 1 0 0
      FADEOUT 1 0 0 1 0 0
      MUTE 0
      SEL 1
      IGUID {6E97B859-B403-1291-6D94-1D1AF9D596B7}
      IID 18
      NAME "01-Recorded MIDI"
      VOLPAN 1 0 1 -1
      SOFFS 0 0
      PLAYRATE 1 1 0 -1 0 0.0021
      CHANMODE 0
      GUID {8E76F172-21DD-B21C-2E74-E8FF1F35ACF5}
      RECPASS 1
      <SOURCE MIDI
        HASDATA 1 960 QN
        CCINTERP 32
        POOLEDEVTS {FBACB75B-09BB-66C2-59F4-53E1337C19E6}
        E 0 90 3c 48
        E 0 90 40 48
        E 0 90 43 48
        E 1920 80 3c 00
        E 0 80 40 00
        E 0 80 43 00
        E 0 90 3c 48
        E 0 90 40 48
        E 0 90 43 48
        E 260 80 3c 00
        E 0 80 40 00
        E 0 80 43 00
        E 440 90 3c 48
        E 0 90 40 48
        E 0 90 43 48
        E 260 80 3c 00
        E 0 80 40 00
        E 0 80 43 00
        e 514 90 3c 48
        e 0 90 40 48
        e 0 90 43 48
        e 260 80 3c 00
        e 0 80 40 00
        e 0 80 43 00
        E 186 90 43 48
        E 0 90 47 48
        E 20 90 40 48
        E 1900 80 43 00
        E 0 80 47 00
        E 0 80 40 00
        E 0 90 43 48
        E 0 90 47 48
        E 20 90 40 48
        E 240 80 43 00
        E 0 80 47 00
        E 0 80 40 00
        E 440 90 43 48
        E 0 90 47 48
        E 20 90 40 48
        E 240 80 43 00
        E 0 80 47 00
        E 0 80 40 00
        e 514 90 43 48
        e 0 90 47 48
        e 20 90 40 48
        e 240 80 43 00
        e 0 80 47 00
        e 0 80 40 00
        E 186 90 41 48
        E 0 90 45 48
        E 0 90 48 48
        E 1920 80 41 00
        E 0 80 45 00
        E 0 80 48 00
        E 0 90 41 48
        E 0 90 45 48
        E 0 90 48 48
        E 260 80 41 00
        E 0 80 45 00
        E 0 80 48 00
        E 440 90 41 48
        E 0 90 45 48
        E 0 90 48 48
        E 260 80 41 00
        E 0 80 45 00
        E 0 80 48 00
        e 514 90 41 48
        e 0 90 45 48
        e 0 90 48 48
        e 260 80 41 00
        e 0 80 45 00
        e 0 80 48 00
        E 162 90 3e 48
        E 24 90 41 48
        E 0 90 45 48
        E 1896 90 3e 48
        E 24 80 3e 00
        E 0 80 41 00
        E 0 80 45 00
        E 0 90 41 48
        E 0 90 45 48
        E 260 80 3e 00
        E 0 80 41 00
        E 0 80 45 00
        E 416 90 3e 48
        E 24 90 41 48
        E 0 90 45 48
        E 260 80 3e 00
        E 0 80 41 00
        E 0 80 45 00
        e 490 90 3e 48
        e 24 90 41 48
        e 0 90 45 48
        e 260 80 3e 00
        e 0 80 41 00
        e 0 80 45 00
        E 186 b0 7b 00
        CHASE_CC_TAKEOFFS 1
        GUID {19362806-85F2-5D9E-E1F9-07BE0CF3D16E}
        IGNTEMPO 0 120 4 4
        SRCCOLOR 25
        VELLANE -1 100 0
        CFGEDITVIEW 0 0.045808 45 12 0 -1 0 0 0 0.5
        KEYSNAP 0
        TRACKSEL 0
        EVTFILTER 0 -1 -1 -1 -1 0 0 0 0 -1 -1 -1 -1 0 -1 0 -1 -1
        CFGEDIT 1 1 0 1 0 0 1 1 1 1 1 1 58 171 1253 866 0 0 0 0 0.25 0 0 0 0 0.5 0 0 1 64
      >
    >
    <ITEM
      POSITION 72
      SNAPOFFS 0
      LENGTH 8
      LOOP 1
      ALLTAKES 0
      FADEIN 1 0 0 1 0 0
      FADEOUT 1 0 0 1 0 0
      MUTE 0
      SEL 1
      IGUID {B588D2AD-82F3-9EE9-AD05-998F3C51067C}
      IID 19
      NAME "01-Recorded MIDI"
      VOLPAN 1 0 1 -1
      SOFFS 0 0
      PLAYRATE 1 1 0 -1 0 0.0021
      CHANMODE 0
      GUID {E8124F4C-1DFC-13FC-65F8-BEEEBADA6DF1}
      RECPASS 1
      <SOURCE MIDI
        HASDATA 1 960 QN
        CCINTERP 32
        POOLEDEVTS {B4C75DB5-48D4-B51F-B110-DB76BFEF7273}
        E 0 90 3c 48
        E 0 90 40 48
        E 0 90 43 48
        E 1920 80 3c 00
        E 0 80 40 00
        E 0 80 43 00
        E 0 90 3c 48
        E 0 90 40 48
        E 0 90 43 48
        E 260 80 3c 00
        E 0 80 40 00
        E 0 80 43 00
        E 440 90 3c 48
        E 0 90 40 48
        E 0 90 43 48
        E 260 80 3c 00
        E 0 80 40 00
        E 0 80 43 00
        e 514 90 3c 48
        e 0 90 40 48
        e 0 90 43 48
        e 260 80 3c 00
        e 0 80 40 00
        e 0 80 43 00
        E 186 90 43 48
        E 0 90 47 48
        E 20 90 40 48
        E 1900 80 43 00
        E 0 80 47 00
        E 0 80 40 00
        E 0 90 43 48
        E 0 90 47 48
        E 20 90 40 48
        E 240 80 43 00
        E 0 80 47 00
        E 0 80 40 00
        E 440 90 43 48
        E 0 90 47 48
        E 20 90 40 48
        E 240 80 43 00
        E 0 80 47 00
        E 0 80 40 00
        e 514 90 43 48
        e 0 90 47 48
        e 20 90 40 48
        e 240 80 43 00
        e 0 80 47 00
        e 0 80 40 00
        E 186 90 41 48
        E 0 90 45 48
        E 0 90 48 48
        E 1920 80 41 00
        E 0 80 45 00
        E 0 80 48 00
        E 0 90 41 48
        E 0 90 45 48
        E 0 90 48 48
        E 260 80 41 00
        E 0 80 45 00
        E 0 80 48 00
        E 440 90 41 48
        E 0 90 45 48
        E 0 90 48 48
        E 260 80 41 00
        E 0 80 45 00
        E 0 80 48 00
        e 514 90 41 48
        e 0 90 45 48
        e 0 90 48 48
        e 260 80 41 00
        e 0 80 45 00
        e 0 80 48 00
        E 162 90 3e 48
        E 24 90 41 48
        E 0 90 45 48
        E 1896 90 3e 48
        E 24 80 3e 00
        E 0 80 41 00
        E 0 80 45 00
        E 0 90 41 48
        E 0 90 45 48
        E 260 80 3e 00
        E 0 80 41 00
        E 0 80 45 00
        E 416 90 3e 48
        E 24 90 41 48
        E 0 90 45 48
        E 260 80 3e 00
        E 0 80 41 00
        E 0 80 45 00
        e 490 90 3e 48
        e 24 90 41 48
        e 0 90 45 48
        e 260 80 3e 00
        e 0 80 41 00
        e 0 80 45 00
        E 186 b0 7b 00
        CHASE_CC_TAKEOFFS 1
        GUID {6844F8A9-6BE9-023C-4A46-0A676470C99B}
        IGNTEMPO 0 120 4 4
        SRCCOLOR 26
        VELLANE -1 100 0
        CFGEDITVIEW 0 0.045808 45 12 0 -1 0 0 0 0.5
        KEYSNAP 0
        TRACKSEL 0
        EVTFILTER 0 -1 -1 -1 -1 0 0 0 0 -1 -1 -1 -1 0 -1 0 -1 -1
        CFGEDIT 1 1 0 1 0 0 1 1 1 1 1 1 58 171 1253 866 0 0 0 0 0.25 0 0 0 0 0.5 0 0 1 64
      >
    >
    <ITEM
      POSITION 80
      SNAPOFFS 0
      LENGTH 8
      LOOP 1
      ALLTAKES 0
      FADEIN 1 0 0 1 0 0
      FADEOUT 1 0 0 1 0 0
      MUTE 0
      SEL 1
      IGUID {C33E098E-0AD8-EF89-7296-D0D864C7FD9E}
      IID 20
      NAME "01-Recorded MIDI"
      VOLPAN 1 0 1 -1
      SOFFS 0 0
      PLAYRATE 1 1 0 -1 0 0.0021
      CHANMODE 0
      GUID {E52895B7-72A8-3E3C-9F08-1456BAD44B90}
      RECPASS 1
      <SOURCE MIDI
        HASDATA 1 960 QN
        CCINTERP 32
        POOLEDEVTS {1B4CE236-A5A3-32D6-444C-409338AA1A73}
        E 0 90 3c 48
        E 0 90 40 48
        E 0 90 43 48
        E 1920 80 3c 00
        E 0 80 40 00
        E 0 80 43 00
        E 0 90 3c 48
        E 0 90 40 48
        E 0 90 43 48
        E 260 80 3c 00
        E 0 80 40 00
        E 0 80 43 00
        E 440 90 3c 48
        E 0 90 40 48
        E 0 90 43 48
        E 260 80 3c 00
        E 0 80 40 00
        E 0 80 43 00
        e 514 90 3c 48
        e 0 90 40 48
        e 0 90 43 48
        e 260 80 3c 00
        e 0 80 40 00
        e 0 80 43 00
        E 186 90 43 48
        E 0 90 47 48
        E 20 90 40 48
        E 1900 80 43 00
        E 0 80 47 00
        E 0 80 40 00
        E 0 90 43 48
        E 0 90 47 48
        E 20 90 40 48
        E 240 80 43 00
        E 0 80 47 00
        E 0 80 40 00
        E 440 90 43 48
        E 0 90 47 48
        E 20 90 40 48
        E 240 80 43 00
        E 0 80 47 00
        E 0 80 40 00
        e 514 90 43 48
        e 0 90 47 48
        e 20 90 40 48
        e 240 80 43 00
        e 0 80 47 00
        e 0 80 40 00
        E 186 90 41 48
        E 0 90 45 48
        E 0 90 48 48
        E 1920 80 41 00
        E 0 80 45 00
        E 0 80 48 00
        E 0 90 41 48
        E 0 90 45 48
        E 0 90 48 48
        E 260 80 41 00
        E 0 80 45 00
        E 0 80 48 00
        E 440 90 41 48
        E 0 90 45 48
        E 0 90 48 48
        E 260 80 41 00
        E 0 80 45 00
        E 0 80 48 00
        e 514 90 41 48
        e 0 90 45 48
        e 0 90 48 48
        e 260 80 41 00
        e 0 80 45 00
        e 0 80 48 00
        E 162 90 3e 48
        E 24 90 41 48
        E 0 90 45 48
        E 1896 90 3e 48
        E 24 80 3e 00
        E 0 80 41 00
        E 0 80 45 00
        E 0 90 41 48
        E 0 90 45 48
        E 260 80 3e 00
        E 0 80 41 00
        E 0 80 45 00
        E 416 90 3e 48
        E 24 90 41 48
        E 0 90 45 48
        E 260 80 3e 00
        E 0 80 41 00
        E 0 80 45 00
        e 490 90 3e 48
        e 24 90 41 48
        e 0 90 45 48
        e 260 80 3e 00
        e 0 80 41 00
        e 0 80 45 00
        E 186 b0 7b 00
        CHASE_CC_TAKEOFFS 1
        GUID {E611ADB6-4869-6CCA-8E83-3954D5E743B1}
        IGNTEMPO 0 120 4 4
        SRCCOLOR 27
        VELLANE -1 100 0
        CFGEDITVIEW 0 0.045808 45 12 0 -1 0 0 0 0.5
        KEYSNAP 0
        TRACKSEL 0
        EVTFILTER 0 -1 -1 -1 -1 0 0 0 0 -1 -1 -1 -1 0 -1 0 -1 -1
        CFGEDIT 1 1 0 1 0 0 1 1 1 1 1 1 58 171 1253 866 0 0 0 0 0.25 0 0 0 0 0.5 0 0 1 64
      >
    >
    <ITEM
      POSITION 88
      SNAPOFFS 0
      LENGTH 8
      LOOP 1
      ALLTAKES 0
      FADEIN 1 0 0 1 0 0
      FADEOUT 1 0 0 1 0 0
      MUTE 0
      SEL 1
      IGUID {F0C88419-8346-0259-C5D5-89669DA87996}
      IID 21
      NAME "01-Recorded MIDI"
      VOLPAN 1 0 1 -1
      SOFFS 0 0
      PLAYRATE 1 1 0 -1 0 0.0021
      CHANMODE 0
      GUID {970CCF9E-0CAE-449C-6088-069E307BC04C}
      RECPASS 1
      <SOURCE MIDI
        HASDATA 1 960 QN
        CCINTERP 32
        POOLEDEVTS {579BDC1F-3046-7597-8C5B-A5FFD3A19381}
        E 0 90 3c 48
        E 0 90 40 48
        E 0 90 43 48
        E 1920 80 3c 00
        E 0 80 40 00
        E 0 80 43 00
        E 0 90 3c 48
        E 0 90 40 48
        E 0 90 43 48
        E 260 80 3c 00
        E 0 80 40 00
        E 0 80 43 00
        E 440 90 3c 48
        E 0 90 40 48
        E 0 90 43 48
        E 260 80 3c 00
        E 0 80 40 00
        E 0 80 43 00
        e 514 90 3c 48
        e 0 90 40 48
        e 0 90 43 48
        e 260 80 3c 00
        e 0 80 40 00
        e 0 80 43 00
        E 186 90 43 48
        E 0 90 47 48
        E 20 90 40 48
        E 1900 80 43 00
        E 0 80 47 00
        E 0 80 40 00
        E 0 90 43 48
        E 0 90 47 48
        E 20 90 40 48
        E 240 80 43 00
        E 0 80 47 00
        E 0 80 40 00
        E 440 90 43 48
        E 0 90 47 48
        E 20 90 40 48
        E 240 80 43 00
        E 0 80 47 00
        E 0 80 40 00
        e 514 90 43 48
        e 0 90 47 48
        e 20 90 40 48
        e 240 80 43 00
        e 0 80 47 00
        e 0 80 40 00
        E 186 90 41 48
        E 0 90 45 48
        E 0 90 48 48
        E 1920 80 41 00
        E 0 80 45 00
        E 0 80 48 00
        E 0 90 41 48
        E 0 90 45 48
        E 0 90 48 48
        E 260 80 41 00
        E 0 80 45 00
        E 0 80 48 00
        E 440 90 41 48
        E 0 90 45 48
        E 0 90 48 48
        E 260 80 41 00
        E 0 80 45 00
        E 0 80 48 00
        e 514 90 41 48
        e 0 90 45 48
        e 0 90 48 48
        e 260 80 41 00
        e 0 80 45 00
        e 0 80 48 00
        E 162 90 3e 48
        E 24 90 41 48
        E 0 90 45 48
        E 1896 90 3e 48
        E 24 80 3e 00
        E 0 80 41 00
        E 0 80 45 00
        E 0 90 41 48
        E 0 90 45 48
        E 260 80 3e 00
        E 0 80 41 00
        E 0 80 45 00
        E 416 90 3e 48
        E 24 90 41 48
        E 0 90 45 48
        E 260 80 3e 00
        E 0 80 41 00
        E 0 80 45 00
        e 490 90 3e 48
        e 24 90 41 48
        e 0 90 45 48
        e 260 80 3e 00
        e 0 80 41 00
        e 0 80 45 00
        E 186 b0 7b 00
        CHASE_CC_TAKEOFFS 1
        GUID {C762B555-17FC-D765-5340-11D3487D2955}
        IGNTEMPO 0 120 4 4
        SRCCOLOR 28
        VELLANE -1 100 0
        CFGEDITVIEW 0 0.045808 45 12 0 -1 0 0 0 0.5
        KEYSNAP 0
        TRACKSEL 0
        EVTFILTER 0 -1 -1 -1 -1 0 0 0 0 -1 -1 -1 -1 0 -1 0 -1 -1
        CFGEDIT 1 1 0 1 0 0 1 1 1 1 1 1 58 171 1253 866 0 0 0 0 0.25 0 0 0 0 0.5 0 0 1 64
      >
    >
  >
  <TRACK {DC4A4FCE-39FB-958E-8AF8-DC4ABAEC2897}
    NAME ""
    PEAKCOL 16576
    BEAT -1
    AUTOMODE 0
    VOLPAN 0.00052194381917 0 -1 -1 1
    MUTESOLO 0 0 0
    IPHASE 0
    PLAYOFFS 0 1
    ISBUS 0 0
    BUSCOMP 0 0 0 0 0
    SHOWINMIX 1 0.6667 0.5 1 0.5 0 0 0
    FREEMODE 0
    SEL 0
    REC 0 5056 1 0 0 0 0
    VU 2
    TRACKHEIGHT 21 0 0
    INQ 0 0 0 0.5 100 0 0 100
    NCHAN 2
    FX 0
    TRACKID {DC4A4FCE-39FB-958E-8AF8-DC4ABAEC2897}
    PERF 0
    MIDIOUT -1
    MAINSEND 1 0
    <FXCHAIN
      WNDRECT 346 266 902 608
      SHOW 0
      LASTSEL 5
      DOCKED 0
      BYPASS 0 0 0
      <VST "VST: ReaEQ (Cockos)" reaeq.vst.so 0 "" 1919247729<56535472656571726561657100000000> ""
        cWVlcu5e7f4CAAAAAQAAAAAAAAACAAAAAAAAAAIAAAABAAAAAAAAAAIAAAAAAAAAqAAAAAEAAAAAABAA
        IQAAAAQAAAAEAAAAAQAAAEC4Xhmm+DRAAAAAAAAA8D8AAAAAAAAAQAEIAAAAAQAAAAAAAAAAwHJAAAAAAAAA8D8AAAAAAAAAQAEIAAAAAQAAAAAAAAAAQI9AAAAAAAAA
        8D8AAAAAAAAAQAEDAAAAAQAAAAABaCorbdRAAAAAAAAA8D8AAAAAAAAAQAEBAAAAAQAAAAAAAAAAAPA/AAAAAJoCAACcAQAA
        AEhpZ2ggbG93IHBhc3MAEAAAAA==
      >
      PRESETNAME "High low pass"
      FLOATPOS 0 0 0 0
      FXID {AFFB31CB-8499-6C3C-681F-7A2643294176}
      WAK 0 0
      BYPASS 0 0 0
      <VST "VSTi: ReaSynth (Cockos)" reasynth.vst.so 0 "" 1919251321<5653547265737972656173796E746800> ""
        eXNlcu9e7f4AAAAAAgAAAAEAAAAAAAAAAgAAAAAAAAA8AAAAAAAAAAAAEAA=
        776t3g3wrd6lm8Q7F7fROgAAAAAAAAAAAAAAAJCNuT3oZ4g9AACAPwAAAD8AAIA/AAAAAAAAAD8AAAAA
        AAAQAAAA
      >
      FLOATPOS 0 0 0 0
      FXID {2AE8C31F-A7BF-94F5-6F00-56092D31872D}
      WAK 0 0
      BYPASS 0 0 0
      <JS guitar/amp-model ""
        "Dumble Overdrive Special - Tweed Deluxe.wav" -21.000000 1.000000 0.000000 73.000000 256.000000 - - - - - - - - - - - - - - - - - - - - - - - - - - - - - - - - - - - - - - - - - - - - - - - - - - - - - - - - - - 
      >
      FLOATPOS 0 0 0 0
      FXID {D8BC49E8-1E2B-D301-6095-46520EC639BC}
      WAK 0 0
      BYPASS 0 0 0
      <VST "VST: ReaComp (Cockos)" reacomp.vst.so 0 "" 1919247213<5653547265636D726561636F6D700000> ""
        bWNlcu9e7f4EAAAAAQAAAAAAAAACAAAAAAAAAAQAAAAAAAAACAAAAAAAAAACAAAAAQAAAAAAAAACAAAAAAAAAFQAAAAAAAAAAAAQAA==
        776t3g3wrd5FoYg9/AWpPKWbxDsK16M8AAAAAAAAAAAAAIA/AAAAAAAAAAAAAAAAnNEHMwAAgD8AAAAAzMxMPQAAAAAAAAAAAAAAAAAAgD7YiZ09
        AAAQAAAA
      >
      FLOATPOS 0 0 0 0
      FXID {0A80C7D9-F167-9618-9067-1022409D81FB}
      WAK 0 0
      BYPASS 0 0 0
      <VST "VST: ReaDelay (Cockos)" readelay.vst.so 0 "" 1919247468<5653547265646C72656164656C617900> ""
        bGRlcu5e7f4CAAAAAQAAAAAAAAACAAAAAAAAAAIAAAABAAAAAAAAAAIAAAAAAAAA/AAAAAEAAAAAAAAA
        AAAAAAAAAAAFAAAALAAAAAIAAAAEAAAAAACAPwAAgD8AAAAAAACAPwAAAAAAAIA7vTeGNQAAgD8AAAAAAACAPwAAgD8AAIA/AAAAAAAAAAAAAIA/AAAAAAAAADwAAAAA
        AACAPwAAAAAAAIA/AACAP+87NT8AAIA/AAAAAAAAgD8AAAAAAABAPL03hjUAAIA/AAAAAAAAgD8AAIA/zk0AP6abhD4AAAAAAACAPwAAAAAAAIA8vTeGNQAAgD8AAAAA
        AACAPwAAgD8aqrU+pHA9PwAAAAAAAIA/AAAAAAAAoDy9N4Y1AACAPwAAAAAAAIA/AACAP/npAD4AAAA/
        AHN0b2NrIC0gYmFzaWMgNSB0YXAgcGluZyBwb25nAAAAAAA=
      >
      PRESETNAME "stock - basic 5 tap ping pong"
      FLOATPOS 0 0 0 0
      FXID {E6833AD0-E703-A8C2-D02B-E329BCFA6AC4}
      WAK 0 0
      BYPASS 0 0 0
      <VST "VST: ReaVerb (Cockos)" reaverb.vst.so 0 "" 1919252066<56535472657662726561766572620000> ""
        YnZlcu5e7f4CAAAAAQAAAAAAAAACAAAAAAAAAAIAAAABAAAAAAAAAAIAAAAAAAAAcAAAAAEAAAAAAAAA
        AAAAwcybgD4AAIA/AAAAAAAAgD8AAIA/AAAAPwAAgD8AAAAAVkVSQkdFTgAYAAAAAAAAAJHgV0QdrLRA3rK7QsHIjEIAAIC/RUNIT0dFTgAcAAAAy/i2QLUjdUJdzdM/
        osdfP5lRrzyRzYxAnMQAPw==
        AHN3ZWV0dmVyYm8AAAAAAA==
      >
      PRESETNAME sweetverbo
      FLOATPOS 0 0 0 0
      FXID {867A517A-E73B-8F5A-E980-FB31B99C9245}
      WAK 0 0
    >
    <ITEM
      POSITION 0
      SNAPOFFS 0
      LENGTH 8
      LOOP 1
      ALLTAKES 0
      FADEIN 1 0 0 1 0 0
      FADEOUT 1 0 0 1 0 0
      MUTE 0
      SEL 1
      IGUID {C47F705E-D941-7FCB-B0DA-17BDCD595347}
      IID 10
      NAME "01-Recorded MIDI"
      VOLPAN 1 0 1 -1
      SOFFS 0 0
      PLAYRATE 1 1 0 -1 0 0.0021
      CHANMODE 0
      GUID {465D8488-C0D6-E444-C6A8-63CFED86A4CC}
      RECPASS 1
      <SOURCE MIDI
        HASDATA 1 960 QN
        CCINTERP 32
        POOLEDEVTS {CE9B425E-25A5-502A-0EEF-C31FFFC80290}
        E 0 90 3c 48
        E 0 90 40 48
        E 0 90 43 48
        E 1920 80 3c 00
        E 0 80 40 00
        E 0 80 43 00
        E 0 90 3c 48
        E 0 90 40 48
        E 0 90 43 48
        E 260 80 3c 00
        E 0 80 40 00
        E 0 80 43 00
        E 440 90 3c 48
        E 0 90 40 48
        E 0 90 43 48
        E 260 80 3c 00
        E 0 80 40 00
        E 0 80 43 00
        e 514 90 3c 48
        e 0 90 40 48
        e 0 90 43 48
        e 260 80 3c 00
        e 0 80 40 00
        e 0 80 43 00
        E 186 90 43 48
        E 0 90 47 48
        E 20 90 40 48
        E 1900 80 43 00
        E 0 80 47 00
        E 0 80 40 00
        E 0 90 43 48
        E 0 90 47 48
        E 20 90 40 48
        E 240 80 43 00
        E 0 80 47 00
        E 0 80 40 00
        E 440 90 43 48
        E 0 90 47 48
        E 20 90 40 48
        E 240 80 43 00
        E 0 80 47 00
        E 0 80 40 00
        e 514 90 43 48
        e 0 90 47 48
        e 20 90 40 48
        e 240 80 43 00
        e 0 80 47 00
        e 0 80 40 00
        E 186 90 41 48
        E 0 90 45 48
        E 0 90 48 48
        E 1920 80 41 00
        E 0 80 45 00
        E 0 80 48 00
        E 0 90 41 48
        E 0 90 45 48
        E 0 90 48 48
        E 260 80 41 00
        E 0 80 45 00
        E 0 80 48 00
        E 440 90 41 48
        E 0 90 45 48
        E 0 90 48 48
        E 260 80 41 00
        E 0 80 45 00
        E 0 80 48 00
        e 514 90 41 48
        e 0 90 45 48
        e 0 90 48 48
        e 260 80 41 00
        e 0 80 45 00
        e 0 80 48 00
        E 162 90 3e 48
        E 24 90 41 48
        E 0 90 45 48
        E 1896 90 3e 48
        E 24 80 3e 00
        E 0 80 41 00
        E 0 80 45 00
        E 0 90 41 48
        E 0 90 45 48
        E 260 80 3e 00
        E 0 80 41 00
        E 0 80 45 00
        E 416 90 3e 48
        E 24 90 41 48
        E 0 90 45 48
        E 260 80 3e 00
        E 0 80 41 00
        E 0 80 45 00
        e 490 90 3e 48
        e 24 90 41 48
        e 0 90 45 48
        e 260 80 3e 00
        e 0 80 41 00
        e 0 80 45 00
        E 186 b0 7b 00
        CHASE_CC_TAKEOFFS 1
        GUID {7B9D708B-43E1-C8D4-C4B3-87E2A6C27801}
        IGNTEMPO 0 120 4 4
        SRCCOLOR 17
        VELLANE -1 100 0
        CFGEDITVIEW 0 0.045808 45 12 0 -1 0 0 0 0.5
        KEYSNAP 0
        TRACKSEL 0
        EVTFILTER 0 -1 -1 -1 -1 0 0 0 0 -1 -1 -1 -1 0 -1 0 -1 -1
        CFGEDIT 1 1 0 1 0 0 1 1 1 1 1 1 58 171 1253 866 0 0 0 0 0.25 0 0 0 0 0.5 0 0 1 64
      >
    >
    <ITEM
      POSITION 8
      SNAPOFFS 0
      LENGTH 8
      LOOP 1
      ALLTAKES 0
      FADEIN 1 0 0 1 0 0
      FADEOUT 1 0 0 1 0 0
      MUTE 0
      SEL 1
      IGUID {14C8867C-A146-DE7C-DA0D-2D0CF2B5C3D3}
      IID 11
      NAME "01-Recorded MIDI"
      VOLPAN 1 0 1 -1
      SOFFS 0 0
      PLAYRATE 1 1 0 -1 0 0.0021
      CHANMODE 0
      GUID {03BB0744-3D02-C5BC-487C-12D2B5092B03}
      RECPASS 1
      <SOURCE MIDI
        HASDATA 1 960 QN
        CCINTERP 32
        POOLEDEVTS {B5B698C4-405D-A9BB-F880-EAAC88706AA0}
        E 0 90 3c 48
        E 0 90 40 48
        E 0 90 43 48
        E 1920 80 3c 00
        E 0 80 40 00
        E 0 80 43 00
        E 0 90 3c 48
        E 0 90 40 48
        E 0 90 43 48
        E 260 80 3c 00
        E 0 80 40 00
        E 0 80 43 00
        E 440 90 3c 48
        E 0 90 40 48
        E 0 90 43 48
        E 260 80 3c 00
        E 0 80 40 00
        E 0 80 43 00
        e 514 90 3c 48
        e 0 90 40 48
        e 0 90 43 48
        e 260 80 3c 00
        e 0 80 40 00
        e 0 80 43 00
        E 186 90 43 48
        E 0 90 47 48
        E 20 90 40 48
        E 1900 80 43 00
        E 0 80 47 00
        E 0 80 40 00
        E 0 90 43 48
        E 0 90 47 48
        E 20 90 40 48
        E 240 80 43 00
        E 0 80 47 00
        E 0 80 40 00
        E 440 90 43 48
        E 0 90 47 48
        E 20 90 40 48
        E 240 80 43 00
        E 0 80 47 00
        E 0 80 40 00
        e 514 90 43 48
        e 0 90 47 48
        e 20 90 40 48
        e 240 80 43 00
        e 0 80 47 00
        e 0 80 40 00
        E 186 90 41 48
        E 0 90 45 48
        E 0 90 48 48
        E 1920 80 41 00
        E 0 80 45 00
        E 0 80 48 00
        E 0 90 41 48
        E 0 90 45 48
        E 0 90 48 48
        E 260 80 41 00
        E 0 80 45 00
        E 0 80 48 00
        E 440 90 41 48
        E 0 90 45 48
        E 0 90 48 48
        E 260 80 41 00
        E 0 80 45 00
        E 0 80 48 00
        e 514 90 41 48
        e 0 90 45 48
        e 0 90 48 48
        e 260 80 41 00
        e 0 80 45 00
        e 0 80 48 00
        E 162 90 3e 48
        E 24 90 41 48
        E 0 90 45 48
        E 1896 90 3e 48
        E 24 80 3e 00
        E 0 80 41 00
        E 0 80 45 00
        E 0 90 41 48
        E 0 90 45 48
        E 260 80 3e 00
        E 0 80 41 00
        E 0 80 45 00
        E 416 90 3e 48
        E 24 90 41 48
        E 0 90 45 48
        E 260 80 3e 00
        E 0 80 41 00
        E 0 80 45 00
        e 490 90 3e 48
        e 24 90 41 48
        e 0 90 45 48
        e 260 80 3e 00
        e 0 80 41 00
        e 0 80 45 00
        E 186 b0 7b 00
        CHASE_CC_TAKEOFFS 1
        GUID {3131B4E2-B370-E352-A9C5-C8CA31551A86}
        IGNTEMPO 0 120 4 4
        SRCCOLOR 18
        VELLANE -1 100 0
        CFGEDITVIEW 0 0.045808 45 12 0 -1 0 0 0 0.5
        KEYSNAP 0
        TRACKSEL 0
        EVTFILTER 0 -1 -1 -1 -1 0 0 0 0 -1 -1 -1 -1 0 -1 0 -1 -1
        CFGEDIT 1 1 0 1 0 0 1 1 1 1 1 1 58 171 1253 866 0 0 0 0 0.25 0 0 0 0 0.5 0 0 1 64
      >
    >
    <ITEM
      POSITION 16
      SNAPOFFS 0
      LENGTH 8
      LOOP 1
      ALLTAKES 0
      FADEIN 1 0 0 1 0 0
      FADEOUT 1 0 0 1 0 0
      MUTE 0
      SEL 1
      IGUID {F9AF4AE4-22E4-EFE4-3FEE-4BE89F72E580}
      IID 12
      NAME "01-Recorded MIDI"
      VOLPAN 1 0 1 -1
      SOFFS 0 0
      PLAYRATE 1 1 0 -1 0 0.0021
      CHANMODE 0
      GUID {84A52918-CEC0-B7DE-5CA2-080E2947F1F0}
      RECPASS 1
      <SOURCE MIDI
        HASDATA 1 960 QN
        CCINTERP 32
        POOLEDEVTS {C76E1E3D-ADE9-67A2-9ABA-B11DBC78A65E}
        E 0 90 3c 48
        E 0 90 40 48
        E 0 90 43 48
        E 1920 80 3c 00
        E 0 80 40 00
        E 0 80 43 00
        E 0 90 3c 48
        E 0 90 40 48
        E 0 90 43 48
        E 260 80 3c 00
        E 0 80 40 00
        E 0 80 43 00
        E 440 90 3c 48
        E 0 90 40 48
        E 0 90 43 48
        E 260 80 3c 00
        E 0 80 40 00
        E 0 80 43 00
        e 514 90 3c 48
        e 0 90 40 48
        e 0 90 43 48
        e 260 80 3c 00
        e 0 80 40 00
        e 0 80 43 00
        E 186 90 43 48
        E 0 90 47 48
        E 20 90 40 48
        E 1900 80 43 00
        E 0 80 47 00
        E 0 80 40 00
        E 0 90 43 48
        E 0 90 47 48
        E 20 90 40 48
        E 240 80 43 00
        E 0 80 47 00
        E 0 80 40 00
        E 440 90 43 48
        E 0 90 47 48
        E 20 90 40 48
        E 240 80 43 00
        E 0 80 47 00
        E 0 80 40 00
        e 514 90 43 48
        e 0 90 47 48
        e 20 90 40 48
        e 240 80 43 00
        e 0 80 47 00
        e 0 80 40 00
        E 186 90 41 48
        E 0 90 45 48
        E 0 90 48 48
        E 1920 80 41 00
        E 0 80 45 00
        E 0 80 48 00
        E 0 90 41 48
        E 0 90 45 48
        E 0 90 48 48
        E 260 80 41 00
        E 0 80 45 00
        E 0 80 48 00
        E 440 90 41 48
        E 0 90 45 48
        E 0 90 48 48
        E 260 80 41 00
        E 0 80 45 00
        E 0 80 48 00
        e 514 90 41 48
        e 0 90 45 48
        e 0 90 48 48
        e 260 80 41 00
        e 0 80 45 00
        e 0 80 48 00
        E 162 90 3e 48
        E 24 90 41 48
        E 0 90 45 48
        E 1896 90 3e 48
        E 24 80 3e 00
        E 0 80 41 00
        E 0 80 45 00
        E 0 90 41 48
        E 0 90 45 48
        E 260 80 3e 00
        E 0 80 41 00
        E 0 80 45 00
        E 416 90 3e 48
        E 24 90 41 48
        E 0 90 45 48
        E 260 80 3e 00
        E 0 80 41 00
        E 0 80 45 00
        e 490 90 3e 48
        e 24 90 41 48
        e 0 90 45 48
        e 260 80 3e 00
        e 0 80 41 00
        e 0 80 45 00
        E 186 b0 7b 00
        CHASE_CC_TAKEOFFS 1
        GUID {48C567A2-895C-FB9B-FDBA-0ADB7004ABF3}
        IGNTEMPO 0 120 4 4
        SRCCOLOR 19
        VELLANE -1 100 0
        CFGEDITVIEW 0 0.045808 45 12 0 -1 0 0 0 0.5
        KEYSNAP 0
        TRACKSEL 0
        EVTFILTER 0 -1 -1 -1 -1 0 0 0 0 -1 -1 -1 -1 0 -1 0 -1 -1
        CFGEDIT 1 1 0 1 0 0 1 1 1 1 1 1 58 171 1253 866 0 0 0 0 0.25 0 0 0 0 0.5 0 0 1 64
      >
    >
    <ITEM
      POSITION 24
      SNAPOFFS 0
      LENGTH 8
      LOOP 1
      ALLTAKES 0
      FADEIN 1 0 0 1 0 0
      FADEOUT 1 0 0 1 0 0
      MUTE 0
      SEL 1
      IGUID {4636FAD2-7CB5-0F94-4670-5653F639FB2D}
      IID 13
      NAME "01-Recorded MIDI"
      VOLPAN 1 0 1 -1
      SOFFS 0 0
      PLAYRATE 1 1 0 -1 0 0.0021
      CHANMODE 0
      GUID {7094ED22-F88B-16CD-AB4A-604D05F6A004}
      RECPASS 1
      <SOURCE MIDI
        HASDATA 1 960 QN
        CCINTERP 32
        POOLEDEVTS {64442E9B-EDB3-3642-AA0C-C11DC54A7DEF}
        E 0 90 3c 48
        E 0 90 40 48
        E 0 90 43 48
        E 1920 80 3c 00
        E 0 80 40 00
        E 0 80 43 00
        E 0 90 3c 48
        E 0 90 40 48
        E 0 90 43 48
        E 260 80 3c 00
        E 0 80 40 00
        E 0 80 43 00
        E 440 90 3c 48
        E 0 90 40 48
        E 0 90 43 48
        E 260 80 3c 00
        E 0 80 40 00
        E 0 80 43 00
        e 514 90 3c 48
        e 0 90 40 48
        e 0 90 43 48
        e 260 80 3c 00
        e 0 80 40 00
        e 0 80 43 00
        E 186 90 43 48
        E 0 90 47 48
        E 20 90 40 48
        E 1900 80 43 00
        E 0 80 47 00
        E 0 80 40 00
        E 0 90 43 48
        E 0 90 47 48
        E 20 90 40 48
        E 240 80 43 00
        E 0 80 47 00
        E 0 80 40 00
        E 440 90 43 48
        E 0 90 47 48
        E 20 90 40 48
        E 240 80 43 00
        E 0 80 47 00
        E 0 80 40 00
        e 514 90 43 48
        e 0 90 47 48
        e 20 90 40 48
        e 240 80 43 00
        e 0 80 47 00
        e 0 80 40 00
        E 186 90 41 48
        E 0 90 45 48
        E 0 90 48 48
        E 1920 80 41 00
        E 0 80 45 00
        E 0 80 48 00
        E 0 90 41 48
        E 0 90 45 48
        E 0 90 48 48
        E 260 80 41 00
        E 0 80 45 00
        E 0 80 48 00
        E 440 90 41 48
        E 0 90 45 48
        E 0 90 48 48
        E 260 80 41 00
        E 0 80 45 00
        E 0 80 48 00
        e 514 90 41 48
        e 0 90 45 48
        e 0 90 48 48
        e 260 80 41 00
        e 0 80 45 00
        e 0 80 48 00
        E 162 90 3e 48
        E 24 90 41 48
        E 0 90 45 48
        E 1896 90 3e 48
        E 24 80 3e 00
        E 0 80 41 00
        E 0 80 45 00
        E 0 90 41 48
        E 0 90 45 48
        E 260 80 3e 00
        E 0 80 41 00
        E 0 80 45 00
        E 416 90 3e 48
        E 24 90 41 48
        E 0 90 45 48
        E 260 80 3e 00
        E 0 80 41 00
        E 0 80 45 00
        e 490 90 3e 48
        e 24 90 41 48
        e 0 90 45 48
        e 260 80 3e 00
        e 0 80 41 00
        e 0 80 45 00
        E 186 b0 7b 00
        CHASE_CC_TAKEOFFS 1
        GUID {1DE38800-E2A1-41B5-9C8C-3291891093B1}
        IGNTEMPO 0 120 4 4
        SRCCOLOR 20
        VELLANE -1 100 0
        CFGEDITVIEW 0 0.045808 45 12 0 -1 0 0 0 0.5
        KEYSNAP 0
        TRACKSEL 0
        EVTFILTER 0 -1 -1 -1 -1 0 0 0 0 -1 -1 -1 -1 0 -1 0 -1 -1
        CFGEDIT 1 1 0 1 0 0 1 1 1 1 1 1 58 171 1253 866 0 0 0 0 0.25 0 0 0 0 0.5 0 0 1 64
      >
    >
    <ITEM
      POSITION 32
      SNAPOFFS 0
      LENGTH 8
      LOOP 1
      ALLTAKES 0
      FADEIN 1 0 0 1 0 0
      FADEOUT 1 0 0 1 0 0
      MUTE 0
      SEL 1
      IGUID {3A81E6A6-A316-3673-524E-0BD1E30F7BE8}
      IID 14
      NAME "01-Recorded MIDI"
      VOLPAN 1 0 1 -1
      SOFFS 0 0
      PLAYRATE 1 1 0 -1 0 0.0021
      CHANMODE 0
      GUID {60B2F477-775B-8A1B-6BF9-111259B5CD43}
      RECPASS 1
      <SOURCE MIDI
        HASDATA 1 960 QN
        CCINTERP 32
        POOLEDEVTS {740DFA82-E0C9-60F7-0CB2-4061F862F5CE}
        E 0 90 3c 48
        E 0 90 40 48
        E 0 90 43 48
        E 1920 80 3c 00
        E 0 80 40 00
        E 0 80 43 00
        E 0 90 3c 48
        E 0 90 40 48
        E 0 90 43 48
        E 260 80 3c 00
        E 0 80 40 00
        E 0 80 43 00
        E 440 90 3c 48
        E 0 90 40 48
        E 0 90 43 48
        E 260 80 3c 00
        E 0 80 40 00
        E 0 80 43 00
        e 514 90 3c 48
        e 0 90 40 48
        e 0 90 43 48
        e 260 80 3c 00
        e 0 80 40 00
        e 0 80 43 00
        E 186 90 43 48
        E 0 90 47 48
        E 20 90 40 48
        E 1900 80 43 00
        E 0 80 47 00
        E 0 80 40 00
        E 0 90 43 48
        E 0 90 47 48
        E 20 90 40 48
        E 240 80 43 00
        E 0 80 47 00
        E 0 80 40 00
        E 440 90 43 48
        E 0 90 47 48
        E 20 90 40 48
        E 240 80 43 00
        E 0 80 47 00
        E 0 80 40 00
        e 514 90 43 48
        e 0 90 47 48
        e 20 90 40 48
        e 240 80 43 00
        e 0 80 47 00
        e 0 80 40 00
        E 186 90 41 48
        E 0 90 45 48
        E 0 90 48 48
        E 1920 80 41 00
        E 0 80 45 00
        E 0 80 48 00
        E 0 90 41 48
        E 0 90 45 48
        E 0 90 48 48
        E 260 80 41 00
        E 0 80 45 00
        E 0 80 48 00
        E 440 90 41 48
        E 0 90 45 48
        E 0 90 48 48
        E 260 80 41 00
        E 0 80 45 00
        E 0 80 48 00
        e 514 90 41 48
        e 0 90 45 48
        e 0 90 48 48
        e 260 80 41 00
        e 0 80 45 00
        e 0 80 48 00
        E 162 90 3e 48
        E 24 90 41 48
        E 0 90 45 48
        E 1896 90 3e 48
        E 24 80 3e 00
        E 0 80 41 00
        E 0 80 45 00
        E 0 90 41 48
        E 0 90 45 48
        E 260 80 3e 00
        E 0 80 41 00
        E 0 80 45 00
        E 416 90 3e 48
        E 24 90 41 48
        E 0 90 45 48
        E 260 80 3e 00
        E 0 80 41 00
        E 0 80 45 00
        e 490 90 3e 48
        e 24 90 41 48
        e 0 90 45 48
        e 260 80 3e 00
        e 0 80 41 00
        e 0 80 45 00
        E 186 b0 7b 00
        CHASE_CC_TAKEOFFS 1
        GUID {0C3271F4-E233-9088-9B25-A722FAE7C579}
        IGNTEMPO 0 120 4 4
        SRCCOLOR 21
        VELLANE -1 100 0
        CFGEDITVIEW 0 0.045808 45 12 0 -1 0 0 0 0.5
        KEYSNAP 0
        TRACKSEL 0
        EVTFILTER 0 -1 -1 -1 -1 0 0 0 0 -1 -1 -1 -1 0 -1 0 -1 -1
        CFGEDIT 1 1 0 1 0 0 1 1 1 1 1 1 58 171 1253 866 0 0 0 0 0.25 0 0 0 0 0.5 0 0 1 64
      >
    >
    <ITEM
      POSITION 40
      SNAPOFFS 0
      LENGTH 8
      LOOP 1
      ALLTAKES 0
      FADEIN 1 0 0 1 0 0
      FADEOUT 1 0 0 1 0 0
      MUTE 0
      SEL 1
      IGUID {F94D4939-5B81-A586-B8B6-6092F2892841}
      IID 15
      NAME "01-Recorded MIDI"
      VOLPAN 1 0 1 -1
      SOFFS 0 0
      PLAYRATE 1 1 0 -1 0 0.0021
      CHANMODE 0
      GUID {21B36D86-0645-FF1D-60E4-190C52467EA5}
      RECPASS 1
      <SOURCE MIDI
        HASDATA 1 960 QN
        CCINTERP 32
        POOLEDEVTS {C0D4C951-DFE6-4C9F-706E-339EA4C8CE93}
        E 0 90 3c 48
        E 0 90 40 48
        E 0 90 43 48
        E 1920 80 3c 00
        E 0 80 40 00
        E 0 80 43 00
        E 0 90 3c 48
        E 0 90 40 48
        E 0 90 43 48
        E 260 80 3c 00
        E 0 80 40 00
        E 0 80 43 00
        E 440 90 3c 48
        E 0 90 40 48
        E 0 90 43 48
        E 260 80 3c 00
        E 0 80 40 00
        E 0 80 43 00
        e 514 90 3c 48
        e 0 90 40 48
        e 0 90 43 48
        e 260 80 3c 00
        e 0 80 40 00
        e 0 80 43 00
        E 186 90 43 48
        E 0 90 47 48
        E 20 90 40 48
        E 1900 80 43 00
        E 0 80 47 00
        E 0 80 40 00
        E 0 90 43 48
        E 0 90 47 48
        E 20 90 40 48
        E 240 80 43 00
        E 0 80 47 00
        E 0 80 40 00
        E 440 90 43 48
        E 0 90 47 48
        E 20 90 40 48
        E 240 80 43 00
        E 0 80 47 00
        E 0 80 40 00
        e 514 90 43 48
        e 0 90 47 48
        e 20 90 40 48
        e 240 80 43 00
        e 0 80 47 00
        e 0 80 40 00
        E 186 90 41 48
        E 0 90 45 48
        E 0 90 48 48
        E 1920 80 41 00
        E 0 80 45 00
        E 0 80 48 00
        E 0 90 41 48
        E 0 90 45 48
        E 0 90 48 48
        E 260 80 41 00
        E 0 80 45 00
        E 0 80 48 00
        E 440 90 41 48
        E 0 90 45 48
        E 0 90 48 48
        E 260 80 41 00
        E 0 80 45 00
        E 0 80 48 00
        e 514 90 41 48
        e 0 90 45 48
        e 0 90 48 48
        e 260 80 41 00
        e 0 80 45 00
        e 0 80 48 00
        E 162 90 3e 48
        E 24 90 41 48
        E 0 90 45 48
        E 1896 90 3e 48
        E 24 80 3e 00
        E 0 80 41 00
        E 0 80 45 00
        E 0 90 41 48
        E 0 90 45 48
        E 260 80 3e 00
        E 0 80 41 00
        E 0 80 45 00
        E 416 90 3e 48
        E 24 90 41 48
        E 0 90 45 48
        E 260 80 3e 00
        E 0 80 41 00
        E 0 80 45 00
        e 490 90 3e 48
        e 24 90 41 48
        e 0 90 45 48
        e 260 80 3e 00
        e 0 80 41 00
        e 0 80 45 00
        E 186 b0 7b 00
        CHASE_CC_TAKEOFFS 1
        GUID {040E7AF8-3572-5D91-3C86-797AEE7444D4}
        IGNTEMPO 0 120 4 4
        SRCCOLOR 22
        VELLANE -1 100 0
        CFGEDITVIEW 0 0.045808 45 12 0 -1 0 0 0 0.5
        KEYSNAP 0
        TRACKSEL 0
        EVTFILTER 0 -1 -1 -1 -1 0 0 0 0 -1 -1 -1 -1 0 -1 0 -1 -1
        CFGEDIT 1 1 0 1 0 0 1 1 1 1 1 1 58 171 1253 866 0 0 0 0 0.25 0 0 0 0 0.5 0 0 1 64
      >
    >
    <ITEM
      POSITION 48
      SNAPOFFS 0
      LENGTH 8
      LOOP 1
      ALLTAKES 0
      FADEIN 1 0 0 1 0 0
      FADEOUT 1 0 0 1 0 0
      MUTE 0
      SEL 1
      IGUID {9DFB5745-37DB-E35D-5F48-0747F6C2E400}
      IID 16
      NAME "01-Recorded MIDI"
      VOLPAN 1 0 1 -1
      SOFFS 0 0
      PLAYRATE 1 1 0 -1 0 0.0021
      CHANMODE 0
      GUID {0B86BD01-0F42-B4F1-B1C1-1E3D55FBF36D}
      RECPASS 1
      <SOURCE MIDI
        HASDATA 1 960 QN
        CCINTERP 32
        POOLEDEVTS {FEAA2080-124A-DB77-8EE6-A3DF12F12615}
        E 0 90 3c 48
        E 0 90 40 48
        E 0 90 43 48
        E 1920 80 3c 00
        E 0 80 40 00
        E 0 80 43 00
        E 0 90 3c 48
        E 0 90 40 48
        E 0 90 43 48
        E 260 80 3c 00
        E 0 80 40 00
        E 0 80 43 00
        E 440 90 3c 48
        E 0 90 40 48
        E 0 90 43 48
        E 260 80 3c 00
        E 0 80 40 00
        E 0 80 43 00
        e 514 90 3c 48
        e 0 90 40 48
        e 0 90 43 48
        e 260 80 3c 00
        e 0 80 40 00
        e 0 80 43 00
        E 186 90 43 48
        E 0 90 47 48
        E 20 90 40 48
        E 1900 80 43 00
        E 0 80 47 00
        E 0 80 40 00
        E 0 90 43 48
        E 0 90 47 48
        E 20 90 40 48
        E 240 80 43 00
        E 0 80 47 00
        E 0 80 40 00
        E 440 90 43 48
        E 0 90 47 48
        E 20 90 40 48
        E 240 80 43 00
        E 0 80 47 00
        E 0 80 40 00
        e 514 90 43 48
        e 0 90 47 48
        e 20 90 40 48
        e 240 80 43 00
        e 0 80 47 00
        e 0 80 40 00
        E 186 90 41 48
        E 0 90 45 48
        E 0 90 48 48
        E 1920 80 41 00
        E 0 80 45 00
        E 0 80 48 00
        E 0 90 41 48
        E 0 90 45 48
        E 0 90 48 48
        E 260 80 41 00
        E 0 80 45 00
        E 0 80 48 00
        E 440 90 41 48
        E 0 90 45 48
        E 0 90 48 48
        E 260 80 41 00
        E 0 80 45 00
        E 0 80 48 00
        e 514 90 41 48
        e 0 90 45 48
        e 0 90 48 48
        e 260 80 41 00
        e 0 80 45 00
        e 0 80 48 00
        E 162 90 3e 48
        E 24 90 41 48
        E 0 90 45 48
        E 1896 90 3e 48
        E 24 80 3e 00
        E 0 80 41 00
        E 0 80 45 00
        E 0 90 41 48
        E 0 90 45 48
        E 260 80 3e 00
        E 0 80 41 00
        E 0 80 45 00
        E 416 90 3e 48
        E 24 90 41 48
        E 0 90 45 48
        E 260 80 3e 00
        E 0 80 41 00
        E 0 80 45 00
        e 490 90 3e 48
        e 24 90 41 48
        e 0 90 45 48
        e 260 80 3e 00
        e 0 80 41 00
        e 0 80 45 00
        E 186 b0 7b 00
        CHASE_CC_TAKEOFFS 1
        GUID {2338968B-6CF9-9F40-300F-DEB89D3392EA}
        IGNTEMPO 0 120 4 4
        SRCCOLOR 23
        VELLANE -1 100 0
        CFGEDITVIEW 0 0.045808 45 12 0 -1 0 0 0 0.5
        KEYSNAP 0
        TRACKSEL 0
        EVTFILTER 0 -1 -1 -1 -1 0 0 0 0 -1 -1 -1 -1 0 -1 0 -1 -1
        CFGEDIT 1 1 0 1 0 0 1 1 1 1 1 1 58 171 1253 866 0 0 0 0 0.25 0 0 0 0 0.5 0 0 1 64
      >
    >
    <ITEM
      POSITION 56
      SNAPOFFS 0
      LENGTH 8
      LOOP 1
      ALLTAKES 0
      FADEIN 1 0 0 1 0 0
      FADEOUT 1 0 0 1 0 0
      MUTE 0
      SEL 1
      IGUID {90118694-23E5-89B4-230A-36EA93D68EBC}
      IID 17
      NAME "01-Recorded MIDI"
      VOLPAN 1 0 1 -1
      SOFFS 0 0
      PLAYRATE 1 1 0 -1 0 0.0021
      CHANMODE 0
      GUID {80D80735-10EF-9639-8E4F-149FE363E7DB}
      RECPASS 1
      <SOURCE MIDI
        HASDATA 1 960 QN
        CCINTERP 32
        POOLEDEVTS {AD5BA412-DB1C-5E6F-F869-C57A0D399CDE}
        E 0 90 3c 48
        E 0 90 40 48
        E 0 90 43 48
        E 1920 80 3c 00
        E 0 80 40 00
        E 0 80 43 00
        E 0 90 3c 48
        E 0 90 40 48
        E 0 90 43 48
        E 260 80 3c 00
        E 0 80 40 00
        E 0 80 43 00
        E 440 90 3c 48
        E 0 90 40 48
        E 0 90 43 48
        E 260 80 3c 00
        E 0 80 40 00
        E 0 80 43 00
        e 514 90 3c 48
        e 0 90 40 48
        e 0 90 43 48
        e 260 80 3c 00
        e 0 80 40 00
        e 0 80 43 00
        E 186 90 43 48
        E 0 90 47 48
        E 20 90 40 48
        E 1900 80 43 00
        E 0 80 47 00
        E 0 80 40 00
        E 0 90 43 48
        E 0 90 47 48
        E 20 90 40 48
        E 240 80 43 00
        E 0 80 47 00
        E 0 80 40 00
        E 440 90 43 48
        E 0 90 47 48
        E 20 90 40 48
        E 240 80 43 00
        E 0 80 47 00
        E 0 80 40 00
        e 514 90 43 48
        e 0 90 47 48
        e 20 90 40 48
        e 240 80 43 00
        e 0 80 47 00
        e 0 80 40 00
        E 186 90 41 48
        E 0 90 45 48
        E 0 90 48 48
        E 1920 80 41 00
        E 0 80 45 00
        E 0 80 48 00
        E 0 90 41 48
        E 0 90 45 48
        E 0 90 48 48
        E 260 80 41 00
        E 0 80 45 00
        E 0 80 48 00
        E 440 90 41 48
        E 0 90 45 48
        E 0 90 48 48
        E 260 80 41 00
        E 0 80 45 00
        E 0 80 48 00
        e 514 90 41 48
        e 0 90 45 48
        e 0 90 48 48
        e 260 80 41 00
        e 0 80 45 00
        e 0 80 48 00
        E 162 90 3e 48
        E 24 90 41 48
        E 0 90 45 48
        E 1896 90 3e 48
        E 24 80 3e 00
        E 0 80 41 00
        E 0 80 45 00
        E 0 90 41 48
        E 0 90 45 48
        E 260 80 3e 00
        E 0 80 41 00
        E 0 80 45 00
        E 416 90 3e 48
        E 24 90 41 48
        E 0 90 45 48
        E 260 80 3e 00
        E 0 80 41 00
        E 0 80 45 00
        e 490 90 3e 48
        e 24 90 41 48
        e 0 90 45 48
        e 260 80 3e 00
        e 0 80 41 00
        e 0 80 45 00
        E 186 b0 7b 00
        CHASE_CC_TAKEOFFS 1
        GUID {A64857E2-94F8-0990-20DF-4C1E9B5E6251}
        IGNTEMPO 0 120 4 4
        SRCCOLOR 24
        VELLANE -1 100 0
        CFGEDITVIEW 0 0.045808 45 12 0 -1 0 0 0 0.5
        KEYSNAP 0
        TRACKSEL 0
        EVTFILTER 0 -1 -1 -1 -1 0 0 0 0 -1 -1 -1 -1 0 -1 0 -1 -1
        CFGEDIT 1 1 0 1 0 0 1 1 1 1 1 1 58 171 1253 866 0 0 0 0 0.25 0 0 0 0 0.5 0 0 1 64
      >
    >
    <ITEM
      POSITION 64
      SNAPOFFS 0
      LENGTH 8
      LOOP 1
      ALLTAKES 0
      FADEIN 1 0 0 1 0 0
      FADEOUT 1 0 0 1 0 0
      MUTE 0
      SEL 1
      IGUID {B8752184-36AC-1256-397E-5B7D3480BDA1}
      IID 18
      NAME "01-Recorded MIDI"
      VOLPAN 1 0 1 -1
      SOFFS 0 0
      PLAYRATE 1 1 0 -1 0 0.0021
      CHANMODE 0
      GUID {569901E2-40AB-33D6-D651-F922C4F3352C}
      RECPASS 1
      <SOURCE MIDI
        HASDATA 1 960 QN
        CCINTERP 32
        POOLEDEVTS {F47318B5-3A76-1E39-7408-149A29E8EABC}
        E 0 90 3c 48
        E 0 90 40 48
        E 0 90 43 48
        E 1920 80 3c 00
        E 0 80 40 00
        E 0 80 43 00
        E 0 90 3c 48
        E 0 90 40 48
        E 0 90 43 48
        E 260 80 3c 00
        E 0 80 40 00
        E 0 80 43 00
        E 440 90 3c 48
        E 0 90 40 48
        E 0 90 43 48
        E 260 80 3c 00
        E 0 80 40 00
        E 0 80 43 00
        e 514 90 3c 48
        e 0 90 40 48
        e 0 90 43 48
        e 260 80 3c 00
        e 0 80 40 00
        e 0 80 43 00
        E 186 90 43 48
        E 0 90 47 48
        E 20 90 40 48
        E 1900 80 43 00
        E 0 80 47 00
        E 0 80 40 00
        E 0 90 43 48
        E 0 90 47 48
        E 20 90 40 48
        E 240 80 43 00
        E 0 80 47 00
        E 0 80 40 00
        E 440 90 43 48
        E 0 90 47 48
        E 20 90 40 48
        E 240 80 43 00
        E 0 80 47 00
        E 0 80 40 00
        e 514 90 43 48
        e 0 90 47 48
        e 20 90 40 48
        e 240 80 43 00
        e 0 80 47 00
        e 0 80 40 00
        E 186 90 41 48
        E 0 90 45 48
        E 0 90 48 48
        E 1920 80 41 00
        E 0 80 45 00
        E 0 80 48 00
        E 0 90 41 48
        E 0 90 45 48
        E 0 90 48 48
        E 260 80 41 00
        E 0 80 45 00
        E 0 80 48 00
        E 440 90 41 48
        E 0 90 45 48
        E 0 90 48 48
        E 260 80 41 00
        E 0 80 45 00
        E 0 80 48 00
        e 514 90 41 48
        e 0 90 45 48
        e 0 90 48 48
        e 260 80 41 00
        e 0 80 45 00
        e 0 80 48 00
        E 162 90 3e 48
        E 24 90 41 48
        E 0 90 45 48
        E 1896 90 3e 48
        E 24 80 3e 00
        E 0 80 41 00
        E 0 80 45 00
        E 0 90 41 48
        E 0 90 45 48
        E 260 80 3e 00
        E 0 80 41 00
        E 0 80 45 00
        E 416 90 3e 48
        E 24 90 41 48
        E 0 90 45 48
        E 260 80 3e 00
        E 0 80 41 00
        E 0 80 45 00
        e 490 90 3e 48
        e 24 90 41 48
        e 0 90 45 48
        e 260 80 3e 00
        e 0 80 41 00
        e 0 80 45 00
        E 186 b0 7b 00
        CHASE_CC_TAKEOFFS 1
        GUID {19362806-85F2-5D9E-E1F9-07BE0CF3D16E}
        IGNTEMPO 0 120 4 4
        SRCCOLOR 25
        VELLANE -1 100 0
        CFGEDITVIEW 0 0.045808 45 12 0 -1 0 0 0 0.5
        KEYSNAP 0
        TRACKSEL 0
        EVTFILTER 0 -1 -1 -1 -1 0 0 0 0 -1 -1 -1 -1 0 -1 0 -1 -1
        CFGEDIT 1 1 0 1 0 0 1 1 1 1 1 1 58 171 1253 866 0 0 0 0 0.25 0 0 0 0 0.5 0 0 1 64
      >
    >
    <ITEM
      POSITION 72
      SNAPOFFS 0
      LENGTH 8
      LOOP 1
      ALLTAKES 0
      FADEIN 1 0 0 1 0 0
      FADEOUT 1 0 0 1 0 0
      MUTE 0
      SEL 1
      IGUID {F11CFA4F-5A57-56B7-621B-F7CEED019DE1}
      IID 19
      NAME "01-Recorded MIDI"
      VOLPAN 1 0 1 -1
      SOFFS 0 0
      PLAYRATE 1 1 0 -1 0 0.0021
      CHANMODE 0
      GUID {0B340B06-EB26-47D6-F380-B341A72E7A9A}
      RECPASS 1
      <SOURCE MIDI
        HASDATA 1 960 QN
        CCINTERP 32
        POOLEDEVTS {A117FFB4-AE09-C092-F46F-7E50169C1C34}
        E 0 90 3c 48
        E 0 90 40 48
        E 0 90 43 48
        E 1920 80 3c 00
        E 0 80 40 00
        E 0 80 43 00
        E 0 90 3c 48
        E 0 90 40 48
        E 0 90 43 48
        E 260 80 3c 00
        E 0 80 40 00
        E 0 80 43 00
        E 440 90 3c 48
        E 0 90 40 48
        E 0 90 43 48
        E 260 80 3c 00
        E 0 80 40 00
        E 0 80 43 00
        e 514 90 3c 48
        e 0 90 40 48
        e 0 90 43 48
        e 260 80 3c 00
        e 0 80 40 00
        e 0 80 43 00
        E 186 90 43 48
        E 0 90 47 48
        E 20 90 40 48
        E 1900 80 43 00
        E 0 80 47 00
        E 0 80 40 00
        E 0 90 43 48
        E 0 90 47 48
        E 20 90 40 48
        E 240 80 43 00
        E 0 80 47 00
        E 0 80 40 00
        E 440 90 43 48
        E 0 90 47 48
        E 20 90 40 48
        E 240 80 43 00
        E 0 80 47 00
        E 0 80 40 00
        e 514 90 43 48
        e 0 90 47 48
        e 20 90 40 48
        e 240 80 43 00
        e 0 80 47 00
        e 0 80 40 00
        E 186 90 41 48
        E 0 90 45 48
        E 0 90 48 48
        E 1920 80 41 00
        E 0 80 45 00
        E 0 80 48 00
        E 0 90 41 48
        E 0 90 45 48
        E 0 90 48 48
        E 260 80 41 00
        E 0 80 45 00
        E 0 80 48 00
        E 440 90 41 48
        E 0 90 45 48
        E 0 90 48 48
        E 260 80 41 00
        E 0 80 45 00
        E 0 80 48 00
        e 514 90 41 48
        e 0 90 45 48
        e 0 90 48 48
        e 260 80 41 00
        e 0 80 45 00
        e 0 80 48 00
        E 162 90 3e 48
        E 24 90 41 48
        E 0 90 45 48
        E 1896 90 3e 48
        E 24 80 3e 00
        E 0 80 41 00
        E 0 80 45 00
        E 0 90 41 48
        E 0 90 45 48
        E 260 80 3e 00
        E 0 80 41 00
        E 0 80 45 00
        E 416 90 3e 48
        E 24 90 41 48
        E 0 90 45 48
        E 260 80 3e 00
        E 0 80 41 00
        E 0 80 45 00
        e 490 90 3e 48
        e 24 90 41 48
        e 0 90 45 48
        e 260 80 3e 00
        e 0 80 41 00
        e 0 80 45 00
        E 186 b0 7b 00
        CHASE_CC_TAKEOFFS 1
        GUID {6844F8A9-6BE9-023C-4A46-0A676470C99B}
        IGNTEMPO 0 120 4 4
        SRCCOLOR 26
        VELLANE -1 100 0
        CFGEDITVIEW 0 0.045808 45 12 0 -1 0 0 0 0.5
        KEYSNAP 0
        TRACKSEL 0
        EVTFILTER 0 -1 -1 -1 -1 0 0 0 0 -1 -1 -1 -1 0 -1 0 -1 -1
        CFGEDIT 1 1 0 1 0 0 1 1 1 1 1 1 58 171 1253 866 0 0 0 0 0.25 0 0 0 0 0.5 0 0 1 64
      >
    >
    <ITEM
      POSITION 80
      SNAPOFFS 0
      LENGTH 8
      LOOP 1
      ALLTAKES 0
      FADEIN 1 0 0 1 0 0
      FADEOUT 1 0 0 1 0 0
      MUTE 0
      SEL 1
      IGUID {92A973F6-DEA7-EC05-4BD4-980655D98F1B}
      IID 20
      NAME "01-Recorded MIDI"
      VOLPAN 1 0 1 -1
      SOFFS 0 0
      PLAYRATE 1 1 0 -1 0 0.0021
      CHANMODE 0
      GUID {CEFFE897-14A3-C1D9-49CD-6D75EDBAF040}
      RECPASS 1
      <SOURCE MIDI
        HASDATA 1 960 QN
        CCINTERP 32
        POOLEDEVTS {3BA2F3DE-08DA-3FE2-756A-19675E0D2FA4}
        E 0 90 3c 48
        E 0 90 40 48
        E 0 90 43 48
        E 1920 80 3c 00
        E 0 80 40 00
        E 0 80 43 00
        E 0 90 3c 48
        E 0 90 40 48
        E 0 90 43 48
        E 260 80 3c 00
        E 0 80 40 00
        E 0 80 43 00
        E 440 90 3c 48
        E 0 90 40 48
        E 0 90 43 48
        E 260 80 3c 00
        E 0 80 40 00
        E 0 80 43 00
        e 514 90 3c 48
        e 0 90 40 48
        e 0 90 43 48
        e 260 80 3c 00
        e 0 80 40 00
        e 0 80 43 00
        E 186 90 43 48
        E 0 90 47 48
        E 20 90 40 48
        E 1900 80 43 00
        E 0 80 47 00
        E 0 80 40 00
        E 0 90 43 48
        E 0 90 47 48
        E 20 90 40 48
        E 240 80 43 00
        E 0 80 47 00
        E 0 80 40 00
        E 440 90 43 48
        E 0 90 47 48
        E 20 90 40 48
        E 240 80 43 00
        E 0 80 47 00
        E 0 80 40 00
        e 514 90 43 48
        e 0 90 47 48
        e 20 90 40 48
        e 240 80 43 00
        e 0 80 47 00
        e 0 80 40 00
        E 186 90 41 48
        E 0 90 45 48
        E 0 90 48 48
        E 1920 80 41 00
        E 0 80 45 00
        E 0 80 48 00
        E 0 90 41 48
        E 0 90 45 48
        E 0 90 48 48
        E 260 80 41 00
        E 0 80 45 00
        E 0 80 48 00
        E 440 90 41 48
        E 0 90 45 48
        E 0 90 48 48
        E 260 80 41 00
        E 0 80 45 00
        E 0 80 48 00
        e 514 90 41 48
        e 0 90 45 48
        e 0 90 48 48
        e 260 80 41 00
        e 0 80 45 00
        e 0 80 48 00
        E 162 90 3e 48
        E 24 90 41 48
        E 0 90 45 48
        E 1896 90 3e 48
        E 24 80 3e 00
        E 0 80 41 00
        E 0 80 45 00
        E 0 90 41 48
        E 0 90 45 48
        E 260 80 3e 00
        E 0 80 41 00
        E 0 80 45 00
        E 416 90 3e 48
        E 24 90 41 48
        E 0 90 45 48
        E 260 80 3e 00
        E 0 80 41 00
        E 0 80 45 00
        e 490 90 3e 48
        e 24 90 41 48
        e 0 90 45 48
        e 260 80 3e 00
        e 0 80 41 00
        e 0 80 45 00
        E 186 b0 7b 00
        CHASE_CC_TAKEOFFS 1
        GUID {E611ADB6-4869-6CCA-8E83-3954D5E743B1}
        IGNTEMPO 0 120 4 4
        SRCCOLOR 27
        VELLANE -1 100 0
        CFGEDITVIEW 0 0.045808 45 12 0 -1 0 0 0 0.5
        KEYSNAP 0
        TRACKSEL 0
        EVTFILTER 0 -1 -1 -1 -1 0 0 0 0 -1 -1 -1 -1 0 -1 0 -1 -1
        CFGEDIT 1 1 0 1 0 0 1 1 1 1 1 1 58 171 1253 866 0 0 0 0 0.25 0 0 0 0 0.5 0 0 1 64
      >
    >
    <ITEM
      POSITION 88
      SNAPOFFS 0
      LENGTH 8
      LOOP 1
      ALLTAKES 0
      FADEIN 1 0 0 1 0 0
      FADEOUT 1 0 0 1 0 0
      MUTE 0
      SEL 1
      IGUID {E3018C83-90CE-9DEF-A1AB-F3745CA394EA}
      IID 21
      NAME "01-Recorded MIDI"
      VOLPAN 1 0 1 -1
      SOFFS 0 0
      PLAYRATE 1 1 0 -1 0 0.0021
      CHANMODE 0
      GUID {F3F15D15-62D8-CBE2-C648-29AC728E0829}
      RECPASS 1
      <SOURCE MIDI
        HASDATA 1 960 QN
        CCINTERP 32
        POOLEDEVTS {1E69FC08-A1B1-122D-A742-F3421B246D92}
        E 0 90 3c 48
        E 0 90 40 48
        E 0 90 43 48
        E 1920 80 3c 00
        E 0 80 40 00
        E 0 80 43 00
        E 0 90 3c 48
        E 0 90 40 48
        E 0 90 43 48
        E 260 80 3c 00
        E 0 80 40 00
        E 0 80 43 00
        E 440 90 3c 48
        E 0 90 40 48
        E 0 90 43 48
        E 260 80 3c 00
        E 0 80 40 00
        E 0 80 43 00
        e 514 90 3c 48
        e 0 90 40 48
        e 0 90 43 48
        e 260 80 3c 00
        e 0 80 40 00
        e 0 80 43 00
        E 186 90 43 48
        E 0 90 47 48
        E 20 90 40 48
        E 1900 80 43 00
        E 0 80 47 00
        E 0 80 40 00
        E 0 90 43 48
        E 0 90 47 48
        E 20 90 40 48
        E 240 80 43 00
        E 0 80 47 00
        E 0 80 40 00
        E 440 90 43 48
        E 0 90 47 48
        E 20 90 40 48
        E 240 80 43 00
        E 0 80 47 00
        E 0 80 40 00
        e 514 90 43 48
        e 0 90 47 48
        e 20 90 40 48
        e 240 80 43 00
        e 0 80 47 00
        e 0 80 40 00
        E 186 90 41 48
        E 0 90 45 48
        E 0 90 48 48
        E 1920 80 41 00
        E 0 80 45 00
        E 0 80 48 00
        E 0 90 41 48
        E 0 90 45 48
        E 0 90 48 48
        E 260 80 41 00
        E 0 80 45 00
        E 0 80 48 00
        E 440 90 41 48
        E 0 90 45 48
        E 0 90 48 48
        E 260 80 41 00
        E 0 80 45 00
        E 0 80 48 00
        e 514 90 41 48
        e 0 90 45 48
        e 0 90 48 48
        e 260 80 41 00
        e 0 80 45 00
        e 0 80 48 00
        E 162 90 3e 48
        E 24 90 41 48
        E 0 90 45 48
        E 1896 90 3e 48
        E 24 80 3e 00
        E 0 80 41 00
        E 0 80 45 00
        E 0 90 41 48
        E 0 90 45 48
        E 260 80 3e 00
        E 0 80 41 00
        E 0 80 45 00
        E 416 90 3e 48
        E 24 90 41 48
        E 0 90 45 48
        E 260 80 3e 00
        E 0 80 41 00
        E 0 80 45 00
        e 490 90 3e 48
        e 24 90 41 48
        e 0 90 45 48
        e 260 80 3e 00
        e 0 80 41 00
        e 0 80 45 00
        E 186 b0 7b 00
        CHASE_CC_TAKEOFFS 1
        GUID {C762B555-17FC-D765-5340-11D3487D2955}
        IGNTEMPO 0 120 4 4
        SRCCOLOR 28
        VELLANE -1 100 0
        CFGEDITVIEW 0 0.045808 45 12 0 -1 0 0 0 0.5
        KEYSNAP 0
        TRACKSEL 0
        EVTFILTER 0 -1 -1 -1 -1 0 0 0 0 -1 -1 -1 -1 0 -1 0 -1 -1
        CFGEDIT 1 1 0 1 0 0 1 1 1 1 1 1 58 171 1253 866 0 0 0 0 0.25 0 0 0 0 0.5 0 0 1 64
      >
    >
  >
  <TRACK {FCA8BCEE-882D-6CEA-349F-0AA631C7DE0C}
    NAME ""
    PEAKCOL 16576
    BEAT -1
    AUTOMODE 0
    VOLPAN 0.00052194381917 0 -1 -1 1
    MUTESOLO 0 0 0
    IPHASE 0
    PLAYOFFS 0 1
    ISBUS 0 0
    BUSCOMP 0 0 0 0 0
    SHOWINMIX 1 0.6667 0.5 1 0.5 0 0 0
    FREEMODE 0
    SEL 0
    REC 0 5056 1 0 0 0 0
    VU 2
    TRACKHEIGHT 21 0 0
    INQ 0 0 0 0.5 100 0 0 100
    NCHAN 2
    FX 0
    TRACKID {FCA8BCEE-882D-6CEA-349F-0AA631C7DE0C}
    PERF 0
    MIDIOUT -1
    MAINSEND 1 0
    <FXCHAIN
      WNDRECT 346 266 902 608
      SHOW 0
      LASTSEL 5
      DOCKED 0
      BYPASS 0 0 0
      <VST "VST: ReaEQ (Cockos)" reaeq.vst.so 0 "" 1919247729<56535472656571726561657100000000> ""
        cWVlcu5e7f4CAAAAAQAAAAAAAAACAAAAAAAAAAIAAAABAAAAAAAAAAIAAAAAAAAAqAAAAAEAAAAAABAA
        IQAAAAQAAAAEAAAAAQAAAEC4Xhmm+DRAAAAAAAAA8D8AAAAAAAAAQAEIAAAAAQAAAAAAAAAAwHJAAAAAAAAA8D8AAAAAAAAAQAEIAAAAAQAAAAAAAAAAQI9AAAAAAAAA
        8D8AAAAAAAAAQAEDAAAAAQAAAAABaCorbdRAAAAAAAAA8D8AAAAAAAAAQAEBAAAAAQAAAAAAAAAAAPA/AAAAAJoCAACcAQAA
        AEhpZ2ggbG93IHBhc3MAEAAAAA==
      >
      PRESETNAME "High low pass"
      FLOATPOS 0 0 0 0
      FXID {BE8FECFA-1C9F-B6FB-90FB-B71CB8F10A70}
      WAK 0 0
      BYPASS 0 0 0
      <VST "VSTi: ReaSynth (Cockos)" reasynth.vst.so 0 "" 1919251321<5653547265737972656173796E746800> ""
        eXNlcu9e7f4AAAAAAgAAAAEAAAAAAAAAAgAAAAAAAAA8AAAAAAAAAAAAEAA=
        776t3g3wrd6lm8Q7F7fROgAAAAAAAAAAAAAAAJCNuT3oZ4g9AACAPwAAAD8AAIA/AAAAAAAAAD8AAAAA
        AAAQAAAA
      >
      FLOATPOS 0 0 0 0
      FXID {937A8E7A-C644-F98D-0E20-12236DB171E2}
      WAK 0 0
      BYPASS 0 0 0
      <JS guitar/amp-model ""
        "Dumble Overdrive Special - Tweed Deluxe.wav" -21.000000 1.000000 0.000000 73.000000 256.000000 - - - - - - - - - - - - - - - - - - - - - - - - - - - - - - - - - - - - - - - - - - - - - - - - - - - - - - - - - - 
      >
      FLOATPOS 0 0 0 0
      FXID {3176F814-7BDA-8DB2-A968-1B2BC3D026DE}
      WAK 0 0
      BYPASS 0 0 0
      <VST "VST: ReaComp (Cockos)" reacomp.vst.so 0 "" 1919247213<5653547265636D726561636F6D700000> ""
        bWNlcu9e7f4EAAAAAQAAAAAAAAACAAAAAAAAAAQAAAAAAAAACAAAAAAAAAACAAAAAQAAAAAAAAACAAAAAAAAAFQAAAAAAAAAAAAQAA==
        776t3g3wrd5FoYg9/AWpPKWbxDsK16M8AAAAAAAAAAAAAIA/AAAAAAAAAAAAAAAAnNEHMwAAgD8AAAAAzMxMPQAAAAAAAAAAAAAAAAAAgD7YiZ09
        AAAQAAAA
      >
      FLOATPOS 0 0 0 0
      FXID {A419EA5F-412C-492D-752B-DD3C3C833BD3}
      WAK 0 0
      BYPASS 0 0 0
      <VST "VST: ReaDelay (Cockos)" readelay.vst.so 0 "" 1919247468<5653547265646C72656164656C617900> ""
        bGRlcu5e7f4CAAAAAQAAAAAAAAACAAAAAAAAAAIAAAABAAAAAAAAAAIAAAAAAAAA/AAAAAEAAAAAAAAA
        AAAAAAAAAAAFAAAALAAAAAIAAAAEAAAAAACAPwAAgD8AAAAAAACAPwAAAAAAAIA7vTeGNQAAgD8AAAAAAACAPwAAgD8AAIA/AAAAAAAAAAAAAIA/AAAAAAAAADwAAAAA
        AACAPwAAAAAAAIA/AACAP+87NT8AAIA/AAAAAAAAgD8AAAAAAABAPL03hjUAAIA/AAAAAAAAgD8AAIA/zk0AP6abhD4AAAAAAACAPwAAAAAAAIA8vTeGNQAAgD8AAAAA
        AACAPwAAgD8aqrU+pHA9PwAAAAAAAIA/AAAAAAAAoDy9N4Y1AACAPwAAAAAAAIA/AACAP/npAD4AAAA/
        AHN0b2NrIC0gYmFzaWMgNSB0YXAgcGluZyBwb25nAAAAAAA=
      >
      PRESETNAME "stock - basic 5 tap ping pong"
      FLOATPOS 0 0 0 0
      FXID {93C3E26B-A3EE-9644-B10E-2184DD8D936A}
      WAK 0 0
      BYPASS 0 0 0
      <VST "VST: ReaVerb (Cockos)" reaverb.vst.so 0 "" 1919252066<56535472657662726561766572620000> ""
        YnZlcu5e7f4CAAAAAQAAAAAAAAACAAAAAAAAAAIAAAABAAAAAAAAAAIAAAAAAAAAcAAAAAEAAAAAAAAA
        AAAAwcybgD4AAIA/AAAAAAAAgD8AAIA/AAAAPwAAgD8AAAAAVkVSQkdFTgAYAAAAAAAAAJHgV0QdrLRA3rK7QsHIjEIAAIC/RUNIT0dFTgAcAAAAy/i2QLUjdUJdzdM/
        osdfP5lRrzyRzYxAnMQAPw==
        AHN3ZWV0dmVyYm8AAAAAAA==
      >
      PRESETNAME sweetverbo
      FLOATPOS 0 0 0 0
      FXID {4E86F605-B4A8-53EB-2F31-3C7234C26A1D}
      WAK 0 0
    >
    <ITEM
      POSITION 0
      SNAPOFFS 0
      LENGTH 8
      LOOP 1
      ALLTAKES 0
      FADEIN 1 0 0 1 0 0
      FADEOUT 1 0 0 1 0 0
      MUTE 0
      SEL 1
      IGUID {1B9EF399-DA6C-81FC-D052-887C320912FE}
      IID 10
      NAME "01-Recorded MIDI"
      VOLPAN 1 0 1 -1
      SOFFS 0 0
      PLAYRATE 1 1 0 -1 0 0.0021
      CHANMODE 0
      GUID {35FF5EF0-9A82-7F8A-99D3-26F078345E38}
      RECPASS 1
      <SOURCE MIDI
        HASDATA 1 960 QN
        CCINTERP 32
        POOLEDEVTS {B268B86C-3E8B-0803-F614-6C9C78747073}
        E 0 90 3c 48
        E 0 90 40 48
        E 0 90 43 48
        E 1920 80 3c 00
        E 0 80 40 00
        E 0 80 43 00
        E 0 90 3c 48
        E 0 90 40 48
        E 0 90 43 48
        E 260 80 3c 00
        E 0 80 40 00
        E 0 80 43 00
        E 440 90 3c 48
        E 0 90 40 48
        E 0 90 43 48
        E 260 80 3c 00
        E 0 80 40 00
        E 0 80 43 00
        e 514 90 3c 48
        e 0 90 40 48
        e 0 90 43 48
        e 260 80 3c 00
        e 0 80 40 00
        e 0 80 43 00
        E 186 90 43 48
        E 0 90 47 48
        E 20 90 40 48
        E 1900 80 43 00
        E 0 80 47 00
        E 0 80 40 00
        E 0 90 43 48
        E 0 90 47 48
        E 20 90 40 48
        E 240 80 43 00
        E 0 80 47 00
        E 0 80 40 00
        E 440 90 43 48
        E 0 90 47 48
        E 20 90 40 48
        E 240 80 43 00
        E 0 80 47 00
        E 0 80 40 00
        e 514 90 43 48
        e 0 90 47 48
        e 20 90 40 48
        e 240 80 43 00
        e 0 80 47 00
        e 0 80 40 00
        E 186 90 41 48
        E 0 90 45 48
        E 0 90 48 48
        E 1920 80 41 00
        E 0 80 45 00
        E 0 80 48 00
        E 0 90 41 48
        E 0 90 45 48
        E 0 90 48 48
        E 260 80 41 00
        E 0 80 45 00
        E 0 80 48 00
        E 440 90 41 48
        E 0 90 45 48
        E 0 90 48 48
        E 260 80 41 00
        E 0 80 45 00
        E 0 80 48 00
        e 514 90 41 48
        e 0 90 45 48
        e 0 90 48 48
        e 260 80 41 00
        e 0 80 45 00
        e 0 80 48 00
        E 162 90 3e 48
        E 24 90 41 48
        E 0 90 45 48
        E 1896 90 3e 48
        E 24 80 3e 00
        E 0 80 41 00
        E 0 80 45 00
        E 0 90 41 48
        E 0 90 45 48
        E 260 80 3e 00
        E 0 80 41 00
        E 0 80 45 00
        E 416 90 3e 48
        E 24 90 41 48
        E 0 90 45 48
        E 260 80 3e 00
        E 0 80 41 00
        E 0 80 45 00
        e 490 90 3e 48
        e 24 90 41 48
        e 0 90 45 48
        e 260 80 3e 00
        e 0 80 41 00
        e 0 80 45 00
        E 186 b0 7b 00
        CHASE_CC_TAKEOFFS 1
        GUID {7B9D708B-43E1-C8D4-C4B3-87E2A6C27801}
        IGNTEMPO 0 120 4 4
        SRCCOLOR 17
        VELLANE -1 100 0
        CFGEDITVIEW 0 0.045808 45 12 0 -1 0 0 0 0.5
        KEYSNAP 0
        TRACKSEL 0
        EVTFILTER 0 -1 -1 -1 -1 0 0 0 0 -1 -1 -1 -1 0 -1 0 -1 -1
        CFGEDIT 1 1 0 1 0 0 1 1 1 1 1 1 58 171 1253 866 0 0 0 0 0.25 0 0 0 0 0.5 0 0 1 64
      >
    >
    <ITEM
      POSITION 8
      SNAPOFFS 0
      LENGTH 8
      LOOP 1
      ALLTAKES 0
      FADEIN 1 0 0 1 0 0
      FADEOUT 1 0 0 1 0 0
      MUTE 0
      SEL 1
      IGUID {341AD994-724D-9E10-A9BD-C16AE3C7A701}
      IID 11
      NAME "01-Recorded MIDI"
      VOLPAN 1 0 1 -1
      SOFFS 0 0
      PLAYRATE 1 1 0 -1 0 0.0021
      CHANMODE 0
      GUID {ABA066AE-E1C4-4530-A730-AC314B29D051}
      RECPASS 1
      <SOURCE MIDI
        HASDATA 1 960 QN
        CCINTERP 32
        POOLEDEVTS {CE59BBB5-3AF5-D2AE-4E0A-7835FE4B8056}
        E 0 90 3c 48
        E 0 90 40 48
        E 0 90 43 48
        E 1920 80 3c 00
        E 0 80 40 00
        E 0 80 43 00
        E 0 90 3c 48
        E 0 90 40 48
        E 0 90 43 48
        E 260 80 3c 00
        E 0 80 40 00
        E 0 80 43 00
        E 440 90 3c 48
        E 0 90 40 48
        E 0 90 43 48
        E 260 80 3c 00
        E 0 80 40 00
        E 0 80 43 00
        e 514 90 3c 48
        e 0 90 40 48
        e 0 90 43 48
        e 260 80 3c 00
        e 0 80 40 00
        e 0 80 43 00
        E 186 90 43 48
        E 0 90 47 48
        E 20 90 40 48
        E 1900 80 43 00
        E 0 80 47 00
        E 0 80 40 00
        E 0 90 43 48
        E 0 90 47 48
        E 20 90 40 48
        E 240 80 43 00
        E 0 80 47 00
        E 0 80 40 00
        E 440 90 43 48
        E 0 90 47 48
        E 20 90 40 48
        E 240 80 43 00
        E 0 80 47 00
        E 0 80 40 00
        e 514 90 43 48
        e 0 90 47 48
        e 20 90 40 48
        e 240 80 43 00
        e 0 80 47 00
        e 0 80 40 00
        E 186 90 41 48
        E 0 90 45 48
        E 0 90 48 48
        E 1920 80 41 00
        E 0 80 45 00
        E 0 80 48 00
        E 0 90 41 48
        E 0 90 45 48
        E 0 90 48 48
        E 260 80 41 00
        E 0 80 45 00
        E 0 80 48 00
        E 440 90 41 48
        E 0 90 45 48
        E 0 90 48 48
        E 260 80 41 00
        E 0 80 45 00
        E 0 80 48 00
        e 514 90 41 48
        e 0 90 45 48
        e 0 90 48 48
        e 260 80 41 00
        e 0 80 45 00
        e 0 80 48 00
        E 162 90 3e 48
        E 24 90 41 48
        E 0 90 45 48
        E 1896 90 3e 48
        E 24 80 3e 00
        E 0 80 41 00
        E 0 80 45 00
        E 0 90 41 48
        E 0 90 45 48
        E 260 80 3e 00
        E 0 80 41 00
        E 0 80 45 00
        E 416 90 3e 48
        E 24 90 41 48
        E 0 90 45 48
        E 260 80 3e 00
        E 0 80 41 00
        E 0 80 45 00
        e 490 90 3e 48
        e 24 90 41 48
        e 0 90 45 48
        e 260 80 3e 00
        e 0 80 41 00
        e 0 80 45 00
        E 186 b0 7b 00
        CHASE_CC_TAKEOFFS 1
        GUID {3131B4E2-B370-E352-A9C5-C8CA31551A86}
        IGNTEMPO 0 120 4 4
        SRCCOLOR 18
        VELLANE -1 100 0
        CFGEDITVIEW 0 0.045808 45 12 0 -1 0 0 0 0.5
        KEYSNAP 0
        TRACKSEL 0
        EVTFILTER 0 -1 -1 -1 -1 0 0 0 0 -1 -1 -1 -1 0 -1 0 -1 -1
        CFGEDIT 1 1 0 1 0 0 1 1 1 1 1 1 58 171 1253 866 0 0 0 0 0.25 0 0 0 0 0.5 0 0 1 64
      >
    >
    <ITEM
      POSITION 16
      SNAPOFFS 0
      LENGTH 8
      LOOP 1
      ALLTAKES 0
      FADEIN 1 0 0 1 0 0
      FADEOUT 1 0 0 1 0 0
      MUTE 0
      SEL 1
      IGUID {36111D3B-9371-7364-5DA0-5C4C77CC2813}
      IID 12
      NAME "01-Recorded MIDI"
      VOLPAN 1 0 1 -1
      SOFFS 0 0
      PLAYRATE 1 1 0 -1 0 0.0021
      CHANMODE 0
      GUID {5CC21009-F985-3346-A8FF-296113192001}
      RECPASS 1
      <SOURCE MIDI
        HASDATA 1 960 QN
        CCINTERP 32
        POOLEDEVTS {E1E9CA6A-5E82-A41C-9516-CF8D3EF09EA2}
        E 0 90 3c 48
        E 0 90 40 48
        E 0 90 43 48
        E 1920 80 3c 00
        E 0 80 40 00
        E 0 80 43 00
        E 0 90 3c 48
        E 0 90 40 48
        E 0 90 43 48
        E 260 80 3c 00
        E 0 80 40 00
        E 0 80 43 00
        E 440 90 3c 48
        E 0 90 40 48
        E 0 90 43 48
        E 260 80 3c 00
        E 0 80 40 00
        E 0 80 43 00
        e 514 90 3c 48
        e 0 90 40 48
        e 0 90 43 48
        e 260 80 3c 00
        e 0 80 40 00
        e 0 80 43 00
        E 186 90 43 48
        E 0 90 47 48
        E 20 90 40 48
        E 1900 80 43 00
        E 0 80 47 00
        E 0 80 40 00
        E 0 90 43 48
        E 0 90 47 48
        E 20 90 40 48
        E 240 80 43 00
        E 0 80 47 00
        E 0 80 40 00
        E 440 90 43 48
        E 0 90 47 48
        E 20 90 40 48
        E 240 80 43 00
        E 0 80 47 00
        E 0 80 40 00
        e 514 90 43 48
        e 0 90 47 48
        e 20 90 40 48
        e 240 80 43 00
        e 0 80 47 00
        e 0 80 40 00
        E 186 90 41 48
        E 0 90 45 48
        E 0 90 48 48
        E 1920 80 41 00
        E 0 80 45 00
        E 0 80 48 00
        E 0 90 41 48
        E 0 90 45 48
        E 0 90 48 48
        E 260 80 41 00
        E 0 80 45 00
        E 0 80 48 00
        E 440 90 41 48
        E 0 90 45 48
        E 0 90 48 48
        E 260 80 41 00
        E 0 80 45 00
        E 0 80 48 00
        e 514 90 41 48
        e 0 90 45 48
        e 0 90 48 48
        e 260 80 41 00
        e 0 80 45 00
        e 0 80 48 00
        E 162 90 3e 48
        E 24 90 41 48
        E 0 90 45 48
        E 1896 90 3e 48
        E 24 80 3e 00
        E 0 80 41 00
        E 0 80 45 00
        E 0 90 41 48
        E 0 90 45 48
        E 260 80 3e 00
        E 0 80 41 00
        E 0 80 45 00
        E 416 90 3e 48
        E 24 90 41 48
        E 0 90 45 48
        E 260 80 3e 00
        E 0 80 41 00
        E 0 80 45 00
        e 490 90 3e 48
        e 24 90 41 48
        e 0 90 45 48
        e 260 80 3e 00
        e 0 80 41 00
        e 0 80 45 00
        E 186 b0 7b 00
        CHASE_CC_TAKEOFFS 1
        GUID {48C567A2-895C-FB9B-FDBA-0ADB7004ABF3}
        IGNTEMPO 0 120 4 4
        SRCCOLOR 19
        VELLANE -1 100 0
        CFGEDITVIEW 0 0.045808 45 12 0 -1 0 0 0 0.5
        KEYSNAP 0
        TRACKSEL 0
        EVTFILTER 0 -1 -1 -1 -1 0 0 0 0 -1 -1 -1 -1 0 -1 0 -1 -1
        CFGEDIT 1 1 0 1 0 0 1 1 1 1 1 1 58 171 1253 866 0 0 0 0 0.25 0 0 0 0 0.5 0 0 1 64
      >
    >
    <ITEM
      POSITION 24
      SNAPOFFS 0
      LENGTH 8
      LOOP 1
      ALLTAKES 0
      FADEIN 1 0 0 1 0 0
      FADEOUT 1 0 0 1 0 0
      MUTE 0
      SEL 1
      IGUID {C80CB4E0-CE6D-B77A-B22C-E5446677AAC3}
      IID 13
      NAME "01-Recorded MIDI"
      VOLPAN 1 0 1 -1
      SOFFS 0 0
      PLAYRATE 1 1 0 -1 0 0.0021
      CHANMODE 0
      GUID {13AC5106-B4AB-0664-C080-7790C39D3211}
      RECPASS 1
      <SOURCE MIDI
        HASDATA 1 960 QN
        CCINTERP 32
        POOLEDEVTS {C822050C-B1C8-7DCB-BD1A-9DB6FE5EE646}
        E 0 90 3c 48
        E 0 90 40 48
        E 0 90 43 48
        E 1920 80 3c 00
        E 0 80 40 00
        E 0 80 43 00
        E 0 90 3c 48
        E 0 90 40 48
        E 0 90 43 48
        E 260 80 3c 00
        E 0 80 40 00
        E 0 80 43 00
        E 440 90 3c 48
        E 0 90 40 48
        E 0 90 43 48
        E 260 80 3c 00
        E 0 80 40 00
        E 0 80 43 00
        e 514 90 3c 48
        e 0 90 40 48
        e 0 90 43 48
        e 260 80 3c 00
        e 0 80 40 00
        e 0 80 43 00
        E 186 90 43 48
        E 0 90 47 48
        E 20 90 40 48
        E 1900 80 43 00
        E 0 80 47 00
        E 0 80 40 00
        E 0 90 43 48
        E 0 90 47 48
        E 20 90 40 48
        E 240 80 43 00
        E 0 80 47 00
        E 0 80 40 00
        E 440 90 43 48
        E 0 90 47 48
        E 20 90 40 48
        E 240 80 43 00
        E 0 80 47 00
        E 0 80 40 00
        e 514 90 43 48
        e 0 90 47 48
        e 20 90 40 48
        e 240 80 43 00
        e 0 80 47 00
        e 0 80 40 00
        E 186 90 41 48
        E 0 90 45 48
        E 0 90 48 48
        E 1920 80 41 00
        E 0 80 45 00
        E 0 80 48 00
        E 0 90 41 48
        E 0 90 45 48
        E 0 90 48 48
        E 260 80 41 00
        E 0 80 45 00
        E 0 80 48 00
        E 440 90 41 48
        E 0 90 45 48
        E 0 90 48 48
        E 260 80 41 00
        E 0 80 45 00
        E 0 80 48 00
        e 514 90 41 48
        e 0 90 45 48
        e 0 90 48 48
        e 260 80 41 00
        e 0 80 45 00
        e 0 80 48 00
        E 162 90 3e 48
        E 24 90 41 48
        E 0 90 45 48
        E 1896 90 3e 48
        E 24 80 3e 00
        E 0 80 41 00
        E 0 80 45 00
        E 0 90 41 48
        E 0 90 45 48
        E 260 80 3e 00
        E 0 80 41 00
        E 0 80 45 00
        E 416 90 3e 48
        E 24 90 41 48
        E 0 90 45 48
        E 260 80 3e 00
        E 0 80 41 00
        E 0 80 45 00
        e 490 90 3e 48
        e 24 90 41 48
        e 0 90 45 48
        e 260 80 3e 00
        e 0 80 41 00
        e 0 80 45 00
        E 186 b0 7b 00
        CHASE_CC_TAKEOFFS 1
        GUID {1DE38800-E2A1-41B5-9C8C-3291891093B1}
        IGNTEMPO 0 120 4 4
        SRCCOLOR 20
        VELLANE -1 100 0
        CFGEDITVIEW 0 0.045808 45 12 0 -1 0 0 0 0.5
        KEYSNAP 0
        TRACKSEL 0
        EVTFILTER 0 -1 -1 -1 -1 0 0 0 0 -1 -1 -1 -1 0 -1 0 -1 -1
        CFGEDIT 1 1 0 1 0 0 1 1 1 1 1 1 58 171 1253 866 0 0 0 0 0.25 0 0 0 0 0.5 0 0 1 64
      >
    >
    <ITEM
      POSITION 32
      SNAPOFFS 0
      LENGTH 8
      LOOP 1
      ALLTAKES 0
      FADEIN 1 0 0 1 0 0
      FADEOUT 1 0 0 1 0 0
      MUTE 0
      SEL 1
      IGUID {263D6657-A372-744D-4E53-FD39AA6AE3E1}
      IID 14
      NAME "01-Recorded MIDI"
      VOLPAN 1 0 1 -1
      SOFFS 0 0
      PLAYRATE 1 1 0 -1 0 0.0021
      CHANMODE 0
      GUID {5B8680EF-3946-1C74-3BEF-B33F65A759E3}
      RECPASS 1
      <SOURCE MIDI
        HASDATA 1 960 QN
        CCINTERP 32
        POOLEDEVTS {A686C776-62EC-05AE-EB11-DE7EB50CC996}
        E 0 90 3c 48
        E 0 90 40 48
        E 0 90 43 48
        E 1920 80 3c 00
        E 0 80 40 00
        E 0 80 43 00
        E 0 90 3c 48
        E 0 90 40 48
        E 0 90 43 48
        E 260 80 3c 00
        E 0 80 40 00
        E 0 80 43 00
        E 440 90 3c 48
        E 0 90 40 48
        E 0 90 43 48
        E 260 80 3c 00
        E 0 80 40 00
        E 0 80 43 00
        e 514 90 3c 48
        e 0 90 40 48
        e 0 90 43 48
        e 260 80 3c 00
        e 0 80 40 00
        e 0 80 43 00
        E 186 90 43 48
        E 0 90 47 48
        E 20 90 40 48
        E 1900 80 43 00
        E 0 80 47 00
        E 0 80 40 00
        E 0 90 43 48
        E 0 90 47 48
        E 20 90 40 48
        E 240 80 43 00
        E 0 80 47 00
        E 0 80 40 00
        E 440 90 43 48
        E 0 90 47 48
        E 20 90 40 48
        E 240 80 43 00
        E 0 80 47 00
        E 0 80 40 00
        e 514 90 43 48
        e 0 90 47 48
        e 20 90 40 48
        e 240 80 43 00
        e 0 80 47 00
        e 0 80 40 00
        E 186 90 41 48
        E 0 90 45 48
        E 0 90 48 48
        E 1920 80 41 00
        E 0 80 45 00
        E 0 80 48 00
        E 0 90 41 48
        E 0 90 45 48
        E 0 90 48 48
        E 260 80 41 00
        E 0 80 45 00
        E 0 80 48 00
        E 440 90 41 48
        E 0 90 45 48
        E 0 90 48 48
        E 260 80 41 00
        E 0 80 45 00
        E 0 80 48 00
        e 514 90 41 48
        e 0 90 45 48
        e 0 90 48 48
        e 260 80 41 00
        e 0 80 45 00
        e 0 80 48 00
        E 162 90 3e 48
        E 24 90 41 48
        E 0 90 45 48
        E 1896 90 3e 48
        E 24 80 3e 00
        E 0 80 41 00
        E 0 80 45 00
        E 0 90 41 48
        E 0 90 45 48
        E 260 80 3e 00
        E 0 80 41 00
        E 0 80 45 00
        E 416 90 3e 48
        E 24 90 41 48
        E 0 90 45 48
        E 260 80 3e 00
        E 0 80 41 00
        E 0 80 45 00
        e 490 90 3e 48
        e 24 90 41 48
        e 0 90 45 48
        e 260 80 3e 00
        e 0 80 41 00
        e 0 80 45 00
        E 186 b0 7b 00
        CHASE_CC_TAKEOFFS 1
        GUID {0C3271F4-E233-9088-9B25-A722FAE7C579}
        IGNTEMPO 0 120 4 4
        SRCCOLOR 21
        VELLANE -1 100 0
        CFGEDITVIEW 0 0.045808 45 12 0 -1 0 0 0 0.5
        KEYSNAP 0
        TRACKSEL 0
        EVTFILTER 0 -1 -1 -1 -1 0 0 0 0 -1 -1 -1 -1 0 -1 0 -1 -1
        CFGEDIT 1 1 0 1 0 0 1 1 1 1 1 1 58 171 1253 866 0 0 0 0 0.25 0 0 0 0 0.5 0 0 1 64
      >
    >
    <ITEM
      POSITION 40
      SNAPOFFS 0
      LENGTH 8
      LOOP 1
      ALLTAKES 0
      FADEIN 1 0 0 1 0 0
      FADEOUT 1 0 0 1 0 0
      MUTE 0
      SEL 1
      IGUID {D52D5409-53AB-3F89-0438-DC5DF135D1BD}
      IID 15
      NAME "01-Recorded MIDI"
      VOLPAN 1 0 1 -1
      SOFFS 0 0
      PLAYRATE 1 1 0 -1 0 0.0021
      CHANMODE 0
      GUID {BE3B5DBA-4FF4-57C4-F3BE-9CE78E14E423}
      RECPASS 1
      <SOURCE MIDI
        HASDATA 1 960 QN
        CCINTERP 32
        POOLEDEVTS {0501556C-5911-1E5A-4494-38A8339D2D04}
        E 0 90 3c 48
        E 0 90 40 48
        E 0 90 43 48
        E 1920 80 3c 00
        E 0 80 40 00
        E 0 80 43 00
        E 0 90 3c 48
        E 0 90 40 48
        E 0 90 43 48
        E 260 80 3c 00
        E 0 80 40 00
        E 0 80 43 00
        E 440 90 3c 48
        E 0 90 40 48
        E 0 90 43 48
        E 260 80 3c 00
        E 0 80 40 00
        E 0 80 43 00
        e 514 90 3c 48
        e 0 90 40 48
        e 0 90 43 48
        e 260 80 3c 00
        e 0 80 40 00
        e 0 80 43 00
        E 186 90 43 48
        E 0 90 47 48
        E 20 90 40 48
        E 1900 80 43 00
        E 0 80 47 00
        E 0 80 40 00
        E 0 90 43 48
        E 0 90 47 48
        E 20 90 40 48
        E 240 80 43 00
        E 0 80 47 00
        E 0 80 40 00
        E 440 90 43 48
        E 0 90 47 48
        E 20 90 40 48
        E 240 80 43 00
        E 0 80 47 00
        E 0 80 40 00
        e 514 90 43 48
        e 0 90 47 48
        e 20 90 40 48
        e 240 80 43 00
        e 0 80 47 00
        e 0 80 40 00
        E 186 90 41 48
        E 0 90 45 48
        E 0 90 48 48
        E 1920 80 41 00
        E 0 80 45 00
        E 0 80 48 00
        E 0 90 41 48
        E 0 90 45 48
        E 0 90 48 48
        E 260 80 41 00
        E 0 80 45 00
        E 0 80 48 00
        E 440 90 41 48
        E 0 90 45 48
        E 0 90 48 48
        E 260 80 41 00
        E 0 80 45 00
        E 0 80 48 00
        e 514 90 41 48
        e 0 90 45 48
        e 0 90 48 48
        e 260 80 41 00
        e 0 80 45 00
        e 0 80 48 00
        E 162 90 3e 48
        E 24 90 41 48
        E 0 90 45 48
        E 1896 90 3e 48
        E 24 80 3e 00
        E 0 80 41 00
        E 0 80 45 00
        E 0 90 41 48
        E 0 90 45 48
        E 260 80 3e 00
        E 0 80 41 00
        E 0 80 45 00
        E 416 90 3e 48
        E 24 90 41 48
        E 0 90 45 48
        E 260 80 3e 00
        E 0 80 41 00
        E 0 80 45 00
        e 490 90 3e 48
        e 24 90 41 48
        e 0 90 45 48
        e 260 80 3e 00
        e 0 80 41 00
        e 0 80 45 00
        E 186 b0 7b 00
        CHASE_CC_TAKEOFFS 1
        GUID {040E7AF8-3572-5D91-3C86-797AEE7444D4}
        IGNTEMPO 0 120 4 4
        SRCCOLOR 22
        VELLANE -1 100 0
        CFGEDITVIEW 0 0.045808 45 12 0 -1 0 0 0 0.5
        KEYSNAP 0
        TRACKSEL 0
        EVTFILTER 0 -1 -1 -1 -1 0 0 0 0 -1 -1 -1 -1 0 -1 0 -1 -1
        CFGEDIT 1 1 0 1 0 0 1 1 1 1 1 1 58 171 1253 866 0 0 0 0 0.25 0 0 0 0 0.5 0 0 1 64
      >
    >
    <ITEM
      POSITION 48
      SNAPOFFS 0
      LENGTH 8
      LOOP 1
      ALLTAKES 0
      FADEIN 1 0 0 1 0 0
      FADEOUT 1 0 0 1 0 0
      MUTE 0
      SEL 1
      IGUID {AF09E632-E0C4-F823-D8F6-C206D7EA32D0}
      IID 16
      NAME "01-Recorded MIDI"
      VOLPAN 1 0 1 -1
      SOFFS 0 0
      PLAYRATE 1 1 0 -1 0 0.0021
      CHANMODE 0
      GUID {25C35549-3A29-1971-7DF3-B5E96309E9FD}
      RECPASS 1
      <SOURCE MIDI
        HASDATA 1 960 QN
        CCINTERP 32
        POOLEDEVTS {D8808818-ECFE-AC62-AE78-C90F471A09C4}
        E 0 90 3c 48
        E 0 90 40 48
        E 0 90 43 48
        E 1920 80 3c 00
        E 0 80 40 00
        E 0 80 43 00
        E 0 90 3c 48
        E 0 90 40 48
        E 0 90 43 48
        E 260 80 3c 00
        E 0 80 40 00
        E 0 80 43 00
        E 440 90 3c 48
        E 0 90 40 48
        E 0 90 43 48
        E 260 80 3c 00
        E 0 80 40 00
        E 0 80 43 00
        e 514 90 3c 48
        e 0 90 40 48
        e 0 90 43 48
        e 260 80 3c 00
        e 0 80 40 00
        e 0 80 43 00
        E 186 90 43 48
        E 0 90 47 48
        E 20 90 40 48
        E 1900 80 43 00
        E 0 80 47 00
        E 0 80 40 00
        E 0 90 43 48
        E 0 90 47 48
        E 20 90 40 48
        E 240 80 43 00
        E 0 80 47 00
        E 0 80 40 00
        E 440 90 43 48
        E 0 90 47 48
        E 20 90 40 48
        E 240 80 43 00
        E 0 80 47 00
        E 0 80 40 00
        e 514 90 43 48
        e 0 90 47 48
        e 20 90 40 48
        e 240 80 43 00
        e 0 80 47 00
        e 0 80 40 00
        E 186 90 41 48
        E 0 90 45 48
        E 0 90 48 48
        E 1920 80 41 00
        E 0 80 45 00
        E 0 80 48 00
        E 0 90 41 48
        E 0 90 45 48
        E 0 90 48 48
        E 260 80 41 00
        E 0 80 45 00
        E 0 80 48 00
        E 440 90 41 48
        E 0 90 45 48
        E 0 90 48 48
        E 260 80 41 00
        E 0 80 45 00
        E 0 80 48 00
        e 514 90 41 48
        e 0 90 45 48
        e 0 90 48 48
        e 260 80 41 00
        e 0 80 45 00
        e 0 80 48 00
        E 162 90 3e 48
        E 24 90 41 48
        E 0 90 45 48
        E 1896 90 3e 48
        E 24 80 3e 00
        E 0 80 41 00
        E 0 80 45 00
        E 0 90 41 48
        E 0 90 45 48
        E 260 80 3e 00
        E 0 80 41 00
        E 0 80 45 00
        E 416 90 3e 48
        E 24 90 41 48
        E 0 90 45 48
        E 260 80 3e 00
        E 0 80 41 00
        E 0 80 45 00
        e 490 90 3e 48
        e 24 90 41 48
        e 0 90 45 48
        e 260 80 3e 00
        e 0 80 41 00
        e 0 80 45 00
        E 186 b0 7b 00
        CHASE_CC_TAKEOFFS 1
        GUID {2338968B-6CF9-9F40-300F-DEB89D3392EA}
        IGNTEMPO 0 120 4 4
        SRCCOLOR 23
        VELLANE -1 100 0
        CFGEDITVIEW 0 0.045808 45 12 0 -1 0 0 0 0.5
        KEYSNAP 0
        TRACKSEL 0
        EVTFILTER 0 -1 -1 -1 -1 0 0 0 0 -1 -1 -1 -1 0 -1 0 -1 -1
        CFGEDIT 1 1 0 1 0 0 1 1 1 1 1 1 58 171 1253 866 0 0 0 0 0.25 0 0 0 0 0.5 0 0 1 64
      >
    >
    <ITEM
      POSITION 56
      SNAPOFFS 0
      LENGTH 8
      LOOP 1
      ALLTAKES 0
      FADEIN 1 0 0 1 0 0
      FADEOUT 1 0 0 1 0 0
      MUTE 0
      SEL 1
      IGUID {B8AA77ED-1E71-3994-AAAE-34B411B47336}
      IID 17
      NAME "01-Recorded MIDI"
      VOLPAN 1 0 1 -1
      SOFFS 0 0
      PLAYRATE 1 1 0 -1 0 0.0021
      CHANMODE 0
      GUID {CA8714C5-3B75-7EDB-4146-593BC78732E2}
      RECPASS 1
      <SOURCE MIDI
        HASDATA 1 960 QN
        CCINTERP 32
        POOLEDEVTS {FC904055-EBC9-8781-FBB2-01CCCA1B6077}
        E 0 90 3c 48
        E 0 90 40 48
        E 0 90 43 48
        E 1920 80 3c 00
        E 0 80 40 00
        E 0 80 43 00
        E 0 90 3c 48
        E 0 90 40 48
        E 0 90 43 48
        E 260 80 3c 00
        E 0 80 40 00
        E 0 80 43 00
        E 440 90 3c 48
        E 0 90 40 48
        E 0 90 43 48
        E 260 80 3c 00
        E 0 80 40 00
        E 0 80 43 00
        e 514 90 3c 48
        e 0 90 40 48
        e 0 90 43 48
        e 260 80 3c 00
        e 0 80 40 00
        e 0 80 43 00
        E 186 90 43 48
        E 0 90 47 48
        E 20 90 40 48
        E 1900 80 43 00
        E 0 80 47 00
        E 0 80 40 00
        E 0 90 43 48
        E 0 90 47 48
        E 20 90 40 48
        E 240 80 43 00
        E 0 80 47 00
        E 0 80 40 00
        E 440 90 43 48
        E 0 90 47 48
        E 20 90 40 48
        E 240 80 43 00
        E 0 80 47 00
        E 0 80 40 00
        e 514 90 43 48
        e 0 90 47 48
        e 20 90 40 48
        e 240 80 43 00
        e 0 80 47 00
        e 0 80 40 00
        E 186 90 41 48
        E 0 90 45 48
        E 0 90 48 48
        E 1920 80 41 00
        E 0 80 45 00
        E 0 80 48 00
        E 0 90 41 48
        E 0 90 45 48
        E 0 90 48 48
        E 260 80 41 00
        E 0 80 45 00
        E 0 80 48 00
        E 440 90 41 48
        E 0 90 45 48
        E 0 90 48 48
        E 260 80 41 00
        E 0 80 45 00
        E 0 80 48 00
        e 514 90 41 48
        e 0 90 45 48
        e 0 90 48 48
        e 260 80 41 00
        e 0 80 45 00
        e 0 80 48 00
        E 162 90 3e 48
        E 24 90 41 48
        E 0 90 45 48
        E 1896 90 3e 48
        E 24 80 3e 00
        E 0 80 41 00
        E 0 80 45 00
        E 0 90 41 48
        E 0 90 45 48
        E 260 80 3e 00
        E 0 80 41 00
        E 0 80 45 00
        E 416 90 3e 48
        E 24 90 41 48
        E 0 90 45 48
        E 260 80 3e 00
        E 0 80 41 00
        E 0 80 45 00
        e 490 90 3e 48
        e 24 90 41 48
        e 0 90 45 48
        e 260 80 3e 00
        e 0 80 41 00
        e 0 80 45 00
        E 186 b0 7b 00
        CHASE_CC_TAKEOFFS 1
        GUID {A64857E2-94F8-0990-20DF-4C1E9B5E6251}
        IGNTEMPO 0 120 4 4
        SRCCOLOR 24
        VELLANE -1 100 0
        CFGEDITVIEW 0 0.045808 45 12 0 -1 0 0 0 0.5
        KEYSNAP 0
        TRACKSEL 0
        EVTFILTER 0 -1 -1 -1 -1 0 0 0 0 -1 -1 -1 -1 0 -1 0 -1 -1
        CFGEDIT 1 1 0 1 0 0 1 1 1 1 1 1 58 171 1253 866 0 0 0 0 0.25 0 0 0 0 0.5 0 0 1 64
      >
    >
    <ITEM
      POSITION 64
      SNAPOFFS 0
      LENGTH 8
      LOOP 1
      ALLTAKES 0
      FADEIN 1 0 0 1 0 0
      FADEOUT 1 0 0 1 0 0
      MUTE 0
      SEL 1
      IGUID {119D9C44-61AE-D7CF-C2D1-044BF403F745}
      IID 18
      NAME "01-Recorded MIDI"
      VOLPAN 1 0 1 -1
      SOFFS 0 0
      PLAYRATE 1 1 0 -1 0 0.0021
      CHANMODE 0
      GUID {B8552AAC-1243-E922-E1B0-771D84FFBA35}
      RECPASS 1
      <SOURCE MIDI
        HASDATA 1 960 QN
        CCINTERP 32
        POOLEDEVTS {BA9365B2-E52F-41E1-2D32-BAADC8631202}
        E 0 90 3c 48
        E 0 90 40 48
        E 0 90 43 48
        E 1920 80 3c 00
        E 0 80 40 00
        E 0 80 43 00
        E 0 90 3c 48
        E 0 90 40 48
        E 0 90 43 48
        E 260 80 3c 00
        E 0 80 40 00
        E 0 80 43 00
        E 440 90 3c 48
        E 0 90 40 48
        E 0 90 43 48
        E 260 80 3c 00
        E 0 80 40 00
        E 0 80 43 00
        e 514 90 3c 48
        e 0 90 40 48
        e 0 90 43 48
        e 260 80 3c 00
        e 0 80 40 00
        e 0 80 43 00
        E 186 90 43 48
        E 0 90 47 48
        E 20 90 40 48
        E 1900 80 43 00
        E 0 80 47 00
        E 0 80 40 00
        E 0 90 43 48
        E 0 90 47 48
        E 20 90 40 48
        E 240 80 43 00
        E 0 80 47 00
        E 0 80 40 00
        E 440 90 43 48
        E 0 90 47 48
        E 20 90 40 48
        E 240 80 43 00
        E 0 80 47 00
        E 0 80 40 00
        e 514 90 43 48
        e 0 90 47 48
        e 20 90 40 48
        e 240 80 43 00
        e 0 80 47 00
        e 0 80 40 00
        E 186 90 41 48
        E 0 90 45 48
        E 0 90 48 48
        E 1920 80 41 00
        E 0 80 45 00
        E 0 80 48 00
        E 0 90 41 48
        E 0 90 45 48
        E 0 90 48 48
        E 260 80 41 00
        E 0 80 45 00
        E 0 80 48 00
        E 440 90 41 48
        E 0 90 45 48
        E 0 90 48 48
        E 260 80 41 00
        E 0 80 45 00
        E 0 80 48 00
        e 514 90 41 48
        e 0 90 45 48
        e 0 90 48 48
        e 260 80 41 00
        e 0 80 45 00
        e 0 80 48 00
        E 162 90 3e 48
        E 24 90 41 48
        E 0 90 45 48
        E 1896 90 3e 48
        E 24 80 3e 00
        E 0 80 41 00
        E 0 80 45 00
        E 0 90 41 48
        E 0 90 45 48
        E 260 80 3e 00
        E 0 80 41 00
        E 0 80 45 00
        E 416 90 3e 48
        E 24 90 41 48
        E 0 90 45 48
        E 260 80 3e 00
        E 0 80 41 00
        E 0 80 45 00
        e 490 90 3e 48
        e 24 90 41 48
        e 0 90 45 48
        e 260 80 3e 00
        e 0 80 41 00
        e 0 80 45 00
        E 186 b0 7b 00
        CHASE_CC_TAKEOFFS 1
        GUID {19362806-85F2-5D9E-E1F9-07BE0CF3D16E}
        IGNTEMPO 0 120 4 4
        SRCCOLOR 25
        VELLANE -1 100 0
        CFGEDITVIEW 0 0.045808 45 12 0 -1 0 0 0 0.5
        KEYSNAP 0
        TRACKSEL 0
        EVTFILTER 0 -1 -1 -1 -1 0 0 0 0 -1 -1 -1 -1 0 -1 0 -1 -1
        CFGEDIT 1 1 0 1 0 0 1 1 1 1 1 1 58 171 1253 866 0 0 0 0 0.25 0 0 0 0 0.5 0 0 1 64
      >
    >
    <ITEM
      POSITION 72
      SNAPOFFS 0
      LENGTH 8
      LOOP 1
      ALLTAKES 0
      FADEIN 1 0 0 1 0 0
      FADEOUT 1 0 0 1 0 0
      MUTE 0
      SEL 1
      IGUID {60663924-7A49-A56A-632D-D9CF30A4FEF0}
      IID 19
      NAME "01-Recorded MIDI"
      VOLPAN 1 0 1 -1
      SOFFS 0 0
      PLAYRATE 1 1 0 -1 0 0.0021
      CHANMODE 0
      GUID {0816DE6F-0CF0-4A19-EE4B-08728D415FBE}
      RECPASS 1
      <SOURCE MIDI
        HASDATA 1 960 QN
        CCINTERP 32
        POOLEDEVTS {BABBBB7A-A215-761B-09C0-EB7C086DE354}
        E 0 90 3c 48
        E 0 90 40 48
        E 0 90 43 48
        E 1920 80 3c 00
        E 0 80 40 00
        E 0 80 43 00
        E 0 90 3c 48
        E 0 90 40 48
        E 0 90 43 48
        E 260 80 3c 00
        E 0 80 40 00
        E 0 80 43 00
        E 440 90 3c 48
        E 0 90 40 48
        E 0 90 43 48
        E 260 80 3c 00
        E 0 80 40 00
        E 0 80 43 00
        e 514 90 3c 48
        e 0 90 40 48
        e 0 90 43 48
        e 260 80 3c 00
        e 0 80 40 00
        e 0 80 43 00
        E 186 90 43 48
        E 0 90 47 48
        E 20 90 40 48
        E 1900 80 43 00
        E 0 80 47 00
        E 0 80 40 00
        E 0 90 43 48
        E 0 90 47 48
        E 20 90 40 48
        E 240 80 43 00
        E 0 80 47 00
        E 0 80 40 00
        E 440 90 43 48
        E 0 90 47 48
        E 20 90 40 48
        E 240 80 43 00
        E 0 80 47 00
        E 0 80 40 00
        e 514 90 43 48
        e 0 90 47 48
        e 20 90 40 48
        e 240 80 43 00
        e 0 80 47 00
        e 0 80 40 00
        E 186 90 41 48
        E 0 90 45 48
        E 0 90 48 48
        E 1920 80 41 00
        E 0 80 45 00
        E 0 80 48 00
        E 0 90 41 48
        E 0 90 45 48
        E 0 90 48 48
        E 260 80 41 00
        E 0 80 45 00
        E 0 80 48 00
        E 440 90 41 48
        E 0 90 45 48
        E 0 90 48 48
        E 260 80 41 00
        E 0 80 45 00
        E 0 80 48 00
        e 514 90 41 48
        e 0 90 45 48
        e 0 90 48 48
        e 260 80 41 00
        e 0 80 45 00
        e 0 80 48 00
        E 162 90 3e 48
        E 24 90 41 48
        E 0 90 45 48
        E 1896 90 3e 48
        E 24 80 3e 00
        E 0 80 41 00
        E 0 80 45 00
        E 0 90 41 48
        E 0 90 45 48
        E 260 80 3e 00
        E 0 80 41 00
        E 0 80 45 00
        E 416 90 3e 48
        E 24 90 41 48
        E 0 90 45 48
        E 260 80 3e 00
        E 0 80 41 00
        E 0 80 45 00
        e 490 90 3e 48
        e 24 90 41 48
        e 0 90 45 48
        e 260 80 3e 00
        e 0 80 41 00
        e 0 80 45 00
        E 186 b0 7b 00
        CHASE_CC_TAKEOFFS 1
        GUID {6844F8A9-6BE9-023C-4A46-0A676470C99B}
        IGNTEMPO 0 120 4 4
        SRCCOLOR 26
        VELLANE -1 100 0
        CFGEDITVIEW 0 0.045808 45 12 0 -1 0 0 0 0.5
        KEYSNAP 0
        TRACKSEL 0
        EVTFILTER 0 -1 -1 -1 -1 0 0 0 0 -1 -1 -1 -1 0 -1 0 -1 -1
        CFGEDIT 1 1 0 1 0 0 1 1 1 1 1 1 58 171 1253 866 0 0 0 0 0.25 0 0 0 0 0.5 0 0 1 64
      >
    >
    <ITEM
      POSITION 80
      SNAPOFFS 0
      LENGTH 8
      LOOP 1
      ALLTAKES 0
      FADEIN 1 0 0 1 0 0
      FADEOUT 1 0 0 1 0 0
      MUTE 0
      SEL 1
      IGUID {C3B2AEDE-879A-EC7C-E389-FA6F800163E1}
      IID 20
      NAME "01-Recorded MIDI"
      VOLPAN 1 0 1 -1
      SOFFS 0 0
      PLAYRATE 1 1 0 -1 0 0.0021
      CHANMODE 0
      GUID {CF44C0FF-0CE1-5C9D-F483-77947509F8E8}
      RECPASS 1
      <SOURCE MIDI
        HASDATA 1 960 QN
        CCINTERP 32
        POOLEDEVTS {E56F4E7D-1018-C4B1-F999-492E2FA784FC}
        E 0 90 3c 48
        E 0 90 40 48
        E 0 90 43 48
        E 1920 80 3c 00
        E 0 80 40 00
        E 0 80 43 00
        E 0 90 3c 48
        E 0 90 40 48
        E 0 90 43 48
        E 260 80 3c 00
        E 0 80 40 00
        E 0 80 43 00
        E 440 90 3c 48
        E 0 90 40 48
        E 0 90 43 48
        E 260 80 3c 00
        E 0 80 40 00
        E 0 80 43 00
        e 514 90 3c 48
        e 0 90 40 48
        e 0 90 43 48
        e 260 80 3c 00
        e 0 80 40 00
        e 0 80 43 00
        E 186 90 43 48
        E 0 90 47 48
        E 20 90 40 48
        E 1900 80 43 00
        E 0 80 47 00
        E 0 80 40 00
        E 0 90 43 48
        E 0 90 47 48
        E 20 90 40 48
        E 240 80 43 00
        E 0 80 47 00
        E 0 80 40 00
        E 440 90 43 48
        E 0 90 47 48
        E 20 90 40 48
        E 240 80 43 00
        E 0 80 47 00
        E 0 80 40 00
        e 514 90 43 48
        e 0 90 47 48
        e 20 90 40 48
        e 240 80 43 00
        e 0 80 47 00
        e 0 80 40 00
        E 186 90 41 48
        E 0 90 45 48
        E 0 90 48 48
        E 1920 80 41 00
        E 0 80 45 00
        E 0 80 48 00
        E 0 90 41 48
        E 0 90 45 48
        E 0 90 48 48
        E 260 80 41 00
        E 0 80 45 00
        E 0 80 48 00
        E 440 90 41 48
        E 0 90 45 48
        E 0 90 48 48
        E 260 80 41 00
        E 0 80 45 00
        E 0 80 48 00
        e 514 90 41 48
        e 0 90 45 48
        e 0 90 48 48
        e 260 80 41 00
        e 0 80 45 00
        e 0 80 48 00
        E 162 90 3e 48
        E 24 90 41 48
        E 0 90 45 48
        E 1896 90 3e 48
        E 24 80 3e 00
        E 0 80 41 00
        E 0 80 45 00
        E 0 90 41 48
        E 0 90 45 48
        E 260 80 3e 00
        E 0 80 41 00
        E 0 80 45 00
        E 416 90 3e 48
        E 24 90 41 48
        E 0 90 45 48
        E 260 80 3e 00
        E 0 80 41 00
        E 0 80 45 00
        e 490 90 3e 48
        e 24 90 41 48
        e 0 90 45 48
        e 260 80 3e 00
        e 0 80 41 00
        e 0 80 45 00
        E 186 b0 7b 00
        CHASE_CC_TAKEOFFS 1
        GUID {E611ADB6-4869-6CCA-8E83-3954D5E743B1}
        IGNTEMPO 0 120 4 4
        SRCCOLOR 27
        VELLANE -1 100 0
        CFGEDITVIEW 0 0.045808 45 12 0 -1 0 0 0 0.5
        KEYSNAP 0
        TRACKSEL 0
        EVTFILTER 0 -1 -1 -1 -1 0 0 0 0 -1 -1 -1 -1 0 -1 0 -1 -1
        CFGEDIT 1 1 0 1 0 0 1 1 1 1 1 1 58 171 1253 866 0 0 0 0 0.25 0 0 0 0 0.5 0 0 1 64
      >
    >
    <ITEM
      POSITION 88
      SNAPOFFS 0
      LENGTH 8
      LOOP 1
      ALLTAKES 0
      FADEIN 1 0 0 1 0 0
      FADEOUT 1 0 0 1 0 0
      MUTE 0
      SEL 1
      IGUID {09231F20-51F2-834F-2453-56FCF765D606}
      IID 21
      NAME "01-Recorded MIDI"
      VOLPAN 1 0 1 -1
      SOFFS 0 0
      PLAYRATE 1 1 0 -1 0 0.0021
      CHANMODE 0
      GUID {0299618D-8871-56B6-FA22-D0E1A162B313}
      RECPASS 1
      <SOURCE MIDI
        HASDATA 1 960 QN
        CCINTERP 32
        POOLEDEVTS {A255788C-0827-82E7-2331-901817BACD74}
        E 0 90 3c 48
        E 0 90 40 48
        E 0 90 43 48
        E 1920 80 3c 00
        E 0 80 40 00
        E 0 80 43 00
        E 0 90 3c 48
        E 0 90 40 48
        E 0 90 43 48
        E 260 80 3c 00
        E 0 80 40 00
        E 0 80 43 00
        E 440 90 3c 48
        E 0 90 40 48
        E 0 90 43 48
        E 260 80 3c 00
        E 0 80 40 00
        E 0 80 43 00
        e 514 90 3c 48
        e 0 90 40 48
        e 0 90 43 48
        e 260 80 3c 00
        e 0 80 40 00
        e 0 80 43 00
        E 186 90 43 48
        E 0 90 47 48
        E 20 90 40 48
        E 1900 80 43 00
        E 0 80 47 00
        E 0 80 40 00
        E 0 90 43 48
        E 0 90 47 48
        E 20 90 40 48
        E 240 80 43 00
        E 0 80 47 00
        E 0 80 40 00
        E 440 90 43 48
        E 0 90 47 48
        E 20 90 40 48
        E 240 80 43 00
        E 0 80 47 00
        E 0 80 40 00
        e 514 90 43 48
        e 0 90 47 48
        e 20 90 40 48
        e 240 80 43 00
        e 0 80 47 00
        e 0 80 40 00
        E 186 90 41 48
        E 0 90 45 48
        E 0 90 48 48
        E 1920 80 41 00
        E 0 80 45 00
        E 0 80 48 00
        E 0 90 41 48
        E 0 90 45 48
        E 0 90 48 48
        E 260 80 41 00
        E 0 80 45 00
        E 0 80 48 00
        E 440 90 41 48
        E 0 90 45 48
        E 0 90 48 48
        E 260 80 41 00
        E 0 80 45 00
        E 0 80 48 00
        e 514 90 41 48
        e 0 90 45 48
        e 0 90 48 48
        e 260 80 41 00
        e 0 80 45 00
        e 0 80 48 00
        E 162 90 3e 48
        E 24 90 41 48
        E 0 90 45 48
        E 1896 90 3e 48
        E 24 80 3e 00
        E 0 80 41 00
        E 0 80 45 00
        E 0 90 41 48
        E 0 90 45 48
        E 260 80 3e 00
        E 0 80 41 00
        E 0 80 45 00
        E 416 90 3e 48
        E 24 90 41 48
        E 0 90 45 48
        E 260 80 3e 00
        E 0 80 41 00
        E 0 80 45 00
        e 490 90 3e 48
        e 24 90 41 48
        e 0 90 45 48
        e 260 80 3e 00
        e 0 80 41 00
        e 0 80 45 00
        E 186 b0 7b 00
        CHASE_CC_TAKEOFFS 1
        GUID {C762B555-17FC-D765-5340-11D3487D2955}
        IGNTEMPO 0 120 4 4
        SRCCOLOR 28
        VELLANE -1 100 0
        CFGEDITVIEW 0 0.045808 45 12 0 -1 0 0 0 0.5
        KEYSNAP 0
        TRACKSEL 0
        EVTFILTER 0 -1 -1 -1 -1 0 0 0 0 -1 -1 -1 -1 0 -1 0 -1 -1
        CFGEDIT 1 1 0 1 0 0 1 1 1 1 1 1 58 171 1253 866 0 0 0 0 0.25 0 0 0 0 0.5 0 0 1 64
      >
    >
  >
  <TRACK {DD1C7975-040C-1CD6-D926-0F838E001798}
    NAME ""
    PEAKCOL 16576
    BEAT -1
    AUTOMODE 0
    VOLPAN 0.00052194381917 0 -1 -1 1
    MUTESOLO 0 0 0
    IPHASE 0
    PLAYOFFS 0 1
    ISBUS 0 0
    BUSCOMP 0 0 0 0 0
    SHOWINMIX 1 0.6667 0.5 1 0.5 0 0 0
    FREEMODE 0
    SEL 0
    REC 0 5056 1 0 0 0 0
    VU 2
    TRACKHEIGHT 21 0 0
    INQ 0 0 0 0.5 100 0 0 100
    NCHAN 2
    FX 0
    TRACKID {DD1C7975-040C-1CD6-D926-0F838E001798}
    PERF 0
    MIDIOUT -1
    MAINSEND 1 0
    <FXCHAIN
      WNDRECT 346 266 902 608
      SHOW 0
      LASTSEL 5
      DOCKED 0
      BYPASS 0 0 0
      <VST "VST: ReaEQ (Cockos)" reaeq.vst.so 0 "" 1919247729<56535472656571726561657100000000> ""
        cWVlcu5e7f4CAAAAAQAAAAAAAAACAAAAAAAAAAIAAAABAAAAAAAAAAIAAAAAAAAAqAAAAAEAAAAAABAA
        IQAAAAQAAAAEAAAAAQAAAEC4Xhmm+DRAAAAAAAAA8D8AAAAAAAAAQAEIAAAAAQAAAAAAAAAAwHJAAAAAAAAA8D8AAAAAAAAAQAEIAAAAAQAAAAAAAAAAQI9AAAAAAAAA
        8D8AAAAAAAAAQAEDAAAAAQAAAAABaCorbdRAAAAAAAAA8D8AAAAAAAAAQAEBAAAAAQAAAAAAAAAAAPA/AAAAAJoCAACcAQAA
        AEhpZ2ggbG93IHBhc3MAEAAAAA==
      >
      PRESETNAME "High low pass"
      FLOATPOS 0 0 0 0
      FXID {E63D219D-F390-5B32-0A3B-FE715F3455A3}
      WAK 0 0
      BYPASS 0 0 0
      <VST "VSTi: ReaSynth (Cockos)" reasynth.vst.so 0 "" 1919251321<5653547265737972656173796E746800> ""
        eXNlcu9e7f4AAAAAAgAAAAEAAAAAAAAAAgAAAAAAAAA8AAAAAAAAAAAAEAA=
        776t3g3wrd6lm8Q7F7fROgAAAAAAAAAAAAAAAJCNuT3oZ4g9AACAPwAAAD8AAIA/AAAAAAAAAD8AAAAA
        AAAQAAAA
      >
      FLOATPOS 0 0 0 0
      FXID {EC75C244-3934-D1E8-891B-29781CE5B84C}
      WAK 0 0
      BYPASS 0 0 0
      <JS guitar/amp-model ""
        "Dumble Overdrive Special - Tweed Deluxe.wav" -21.000000 1.000000 0.000000 73.000000 256.000000 - - - - - - - - - - - - - - - - - - - - - - - - - - - - - - - - - - - - - - - - - - - - - - - - - - - - - - - - - - 
      >
      FLOATPOS 0 0 0 0
      FXID {B78721D3-C033-3195-CB51-2429F29D8F70}
      WAK 0 0
      BYPASS 0 0 0
      <VST "VST: ReaComp (Cockos)" reacomp.vst.so 0 "" 1919247213<5653547265636D726561636F6D700000> ""
        bWNlcu9e7f4EAAAAAQAAAAAAAAACAAAAAAAAAAQAAAAAAAAACAAAAAAAAAACAAAAAQAAAAAAAAACAAAAAAAAAFQAAAAAAAAAAAAQAA==
        776t3g3wrd5FoYg9/AWpPKWbxDsK16M8AAAAAAAAAAAAAIA/AAAAAAAAAAAAAAAAnNEHMwAAgD8AAAAAzMxMPQAAAAAAAAAAAAAAAAAAgD7YiZ09
        AAAQAAAA
      >
      FLOATPOS 0 0 0 0
      FXID {665FDF4B-F56F-4A5C-2AB6-A46ED1AF1DCE}
      WAK 0 0
      BYPASS 0 0 0
      <VST "VST: ReaDelay (Cockos)" readelay.vst.so 0 "" 1919247468<5653547265646C72656164656C617900> ""
        bGRlcu5e7f4CAAAAAQAAAAAAAAACAAAAAAAAAAIAAAABAAAAAAAAAAIAAAAAAAAA/AAAAAEAAAAAAAAA
        AAAAAAAAAAAFAAAALAAAAAIAAAAEAAAAAACAPwAAgD8AAAAAAACAPwAAAAAAAIA7vTeGNQAAgD8AAAAAAACAPwAAgD8AAIA/AAAAAAAAAAAAAIA/AAAAAAAAADwAAAAA
        AACAPwAAAAAAAIA/AACAP+87NT8AAIA/AAAAAAAAgD8AAAAAAABAPL03hjUAAIA/AAAAAAAAgD8AAIA/zk0AP6abhD4AAAAAAACAPwAAAAAAAIA8vTeGNQAAgD8AAAAA
        AACAPwAAgD8aqrU+pHA9PwAAAAAAAIA/AAAAAAAAoDy9N4Y1AACAPwAAAAAAAIA/AACAP/npAD4AAAA/
        AHN0b2NrIC0gYmFzaWMgNSB0YXAgcGluZyBwb25nAAAAAAA=
      >
      PRESETNAME "stock - basic 5 tap ping pong"
      FLOATPOS 0 0 0 0
      FXID {0DDEDB64-DF8B-ADAB-5D0B-1597F63EC8F9}
      WAK 0 0
      BYPASS 0 0 0
      <VST "VST: ReaVerb (Cockos)" reaverb.vst.so 0 "" 1919252066<56535472657662726561766572620000> ""
        YnZlcu5e7f4CAAAAAQAAAAAAAAACAAAAAAAAAAIAAAABAAAAAAAAAAIAAAAAAAAAcAAAAAEAAAAAAAAA
        AAAAwcybgD4AAIA/AAAAAAAAgD8AAIA/AAAAPwAAgD8AAAAAVkVSQkdFTgAYAAAAAAAAAJHgV0QdrLRA3rK7QsHIjEIAAIC/RUNIT0dFTgAcAAAAy/i2QLUjdUJdzdM/
        osdfP5lRrzyRzYxAnMQAPw==
        AHN3ZWV0dmVyYm8AAAAAAA==
      >
      PRESETNAME sweetverbo
      FLOATPOS 0 0 0 0
      FXID {D93485BB-08D2-5B9D-890A-E046333287D4}
      WAK 0 0
    >
    <ITEM
      POSITION 0
      SNAPOFFS 0
      LENGTH 8
      LOOP 1
      ALLTAKES 0
      FADEIN 1 0 0 1 0 0
      FADEOUT 1 0 0 1 0 0
      MUTE 0
      SEL 1
      IGUID {0863AAE6-2EA4-E00F-60CC-AD159C4EFAC4}
      IID 10
      NAME "01-Recorded MIDI"
      VOLPAN 1 0 1 -1
      SOFFS 0 0
      PLAYRATE 1 1 0 -1 0 0.0021
      CHANMODE 0
      GUID {A39D142A-C92C-3A30-7A45-E9B411BF0E3B}
      RECPASS 1
      <SOURCE MIDI
        HASDATA 1 960 QN
        CCINTERP 32
        POOLEDEVTS {4121348B-8AA6-2064-1E09-17930E0EDBE1}
        E 0 90 3c 48
        E 0 90 40 48
        E 0 90 43 48
        E 1920 80 3c 00
        E 0 80 40 00
        E 0 80 43 00
        E 0 90 3c 48
        E 0 90 40 48
        E 0 90 43 48
        E 260 80 3c 00
        E 0 80 40 00
        E 0 80 43 00
        E 440 90 3c 48
        E 0 90 40 48
        E 0 90 43 48
        E 260 80 3c 00
        E 0 80 40 00
        E 0 80 43 00
        e 514 90 3c 48
        e 0 90 40 48
        e 0 90 43 48
        e 260 80 3c 00
        e 0 80 40 00
        e 0 80 43 00
        E 186 90 43 48
        E 0 90 47 48
        E 20 90 40 48
        E 1900 80 43 00
        E 0 80 47 00
        E 0 80 40 00
        E 0 90 43 48
        E 0 90 47 48
        E 20 90 40 48
        E 240 80 43 00
        E 0 80 47 00
        E 0 80 40 00
        E 440 90 43 48
        E 0 90 47 48
        E 20 90 40 48
        E 240 80 43 00
        E 0 80 47 00
        E 0 80 40 00
        e 514 90 43 48
        e 0 90 47 48
        e 20 90 40 48
        e 240 80 43 00
        e 0 80 47 00
        e 0 80 40 00
        E 186 90 41 48
        E 0 90 45 48
        E 0 90 48 48
        E 1920 80 41 00
        E 0 80 45 00
        E 0 80 48 00
        E 0 90 41 48
        E 0 90 45 48
        E 0 90 48 48
        E 260 80 41 00
        E 0 80 45 00
        E 0 80 48 00
        E 440 90 41 48
        E 0 90 45 48
        E 0 90 48 48
        E 260 80 41 00
        E 0 80 45 00
        E 0 80 48 00
        e 514 90 41 48
        e 0 90 45 48
        e 0 90 48 48
        e 260 80 41 00
        e 0 80 45 00
        e 0 80 48 00
        E 162 90 3e 48
        E 24 90 41 48
        E 0 90 45 48
        E 1896 90 3e 48
        E 24 80 3e 00
        E 0 80 41 00
        E 0 80 45 00
        E 0 90 41 48
        E 0 90 45 48
        E 260 80 3e 00
        E 0 80 41 00
        E 0 80 45 00
        E 416 90 3e 48
        E 24 90 41 48
        E 0 90 45 48
        E 260 80 3e 00
        E 0 80 41 00
        E 0 80 45 00
        e 490 90 3e 48
        e 24 90 41 48
        e 0 90 45 48
        e 260 80 3e 00
        e 0 80 41 00
        e 0 80 45 00
        E 186 b0 7b 00
        CHASE_CC_TAKEOFFS 1
        GUID {7B9D708B-43E1-C8D4-C4B3-87E2A6C27801}
        IGNTEMPO 0 120 4 4
        SRCCOLOR 17
        VELLANE -1 100 0
        CFGEDITVIEW 0 0.045808 45 12 0 -1 0 0 0 0.5
        KEYSNAP 0
        TRACKSEL 0
        EVTFILTER 0 -1 -1 -1 -1 0 0 0 0 -1 -1 -1 -1 0 -1 0 -1 -1
        CFGEDIT 1 1 0 1 0 0 1 1 1 1 1 1 58 171 1253 866 0 0 0 0 0.25 0 0 0 0 0.5 0 0 1 64
      >
    >
    <ITEM
      POSITION 8
      SNAPOFFS 0
      LENGTH 8
      LOOP 1
      ALLTAKES 0
      FADEIN 1 0 0 1 0 0
      FADEOUT 1 0 0 1 0 0
      MUTE 0
      SEL 1
      IGUID {69B11E81-2D51-055D-4682-13AB7AD6F29F}
      IID 11
      NAME "01-Recorded MIDI"
      VOLPAN 1 0 1 -1
      SOFFS 0 0
      PLAYRATE 1 1 0 -1 0 0.0021
      CHANMODE 0
      GUID {8D6781EF-EE79-A6D2-6B53-5CE5F4F6D7EF}
      RECPASS 1
      <SOURCE MIDI
        HASDATA 1 960 QN
        CCINTERP 32
        POOLEDEVTS {CEA74737-D89A-D315-2CAF-DB284B020ACD}
        E 0 90 3c 48
        E 0 90 40 48
        E 0 90 43 48
        E 1920 80 3c 00
        E 0 80 40 00
        E 0 80 43 00
        E 0 90 3c 48
        E 0 90 40 48
        E 0 90 43 48
        E 260 80 3c 00
        E 0 80 40 00
        E 0 80 43 00
        E 440 90 3c 48
        E 0 90 40 48
        E 0 90 43 48
        E 260 80 3c 00
        E 0 80 40 00
        E 0 80 43 00
        e 514 90 3c 48
        e 0 90 40 48
        e 0 90 43 48
        e 260 80 3c 00
        e 0 80 40 00
        e 0 80 43 00
        E 186 90 43 48
        E 0 90 47 48
        E 20 90 40 48
        E 1900 80 43 00
        E 0 80 47 00
        E 0 80 40 00
        E 0 90 43 48
        E 0 90 47 48
        E 20 90 40 48
        E 240 80 43 00
        E 0 80 47 00
        E 0 80 40 00
        E 440 90 43 48
        E 0 90 47 48
        E 20 90 40 48
        E 240 80 43 00
        E 0 80 47 00
        E 0 80 40 00
        e 514 90 43 48
        e 0 90 47 48
        e 20 90 40 48
        e 240 80 43 00
        e 0 80 47 00
        e 0 80 40 00
        E 186 90 41 48
        E 0 90 45 48
        E 0 90 48 48
        E 1920 80 41 00
        E 0 80 45 00
        E 0 80 48 00
        E 0 90 41 48
        E 0 90 45 48
        E 0 90 48 48
        E 260 80 41 00
        E 0 80 45 00
        E 0 80 48 00
        E 440 90 41 48
        E 0 90 45 48
        E 0 90 48 48
        E 260 80 41 00
        E 0 80 45 00
        E 0 80 48 00
        e 514 90 41 48
        e 0 90 45 48
        e 0 90 48 48
        e 260 80 41 00
        e 0 80 45 00
        e 0 80 48 00
        E 162 90 3e 48
        E 24 90 41 48
        E 0 90 45 48
        E 1896 90 3e 48
        E 24 80 3e 00
        E 0 80 41 00
        E 0 80 45 00
        E 0 90 41 48
        E 0 90 45 48
        E 260 80 3e 00
        E 0 80 41 00
        E 0 80 45 00
        E 416 90 3e 48
        E 24 90 41 48
        E 0 90 45 48
        E 260 80 3e 00
        E 0 80 41 00
        E 0 80 45 00
        e 490 90 3e 48
        e 24 90 41 48
        e 0 90 45 48
        e 260 80 3e 00
        e 0 80 41 00
        e 0 80 45 00
        E 186 b0 7b 00
        CHASE_CC_TAKEOFFS 1
        GUID {3131B4E2-B370-E352-A9C5-C8CA31551A86}
        IGNTEMPO 0 120 4 4
        SRCCOLOR 18
        VELLANE -1 100 0
        CFGEDITVIEW 0 0.045808 45 12 0 -1 0 0 0 0.5
        KEYSNAP 0
        TRACKSEL 0
        EVTFILTER 0 -1 -1 -1 -1 0 0 0 0 -1 -1 -1 -1 0 -1 0 -1 -1
        CFGEDIT 1 1 0 1 0 0 1 1 1 1 1 1 58 171 1253 866 0 0 0 0 0.25 0 0 0 0 0.5 0 0 1 64
      >
    >
    <ITEM
      POSITION 16
      SNAPOFFS 0
      LENGTH 8
      LOOP 1
      ALLTAKES 0
      FADEIN 1 0 0 1 0 0
      FADEOUT 1 0 0 1 0 0
      MUTE 0
      SEL 1
      IGUID {AC84C84A-8674-FB53-92E4-E4EECB3F535D}
      IID 12
      NAME "01-Recorded MIDI"
      VOLPAN 1 0 1 -1
      SOFFS 0 0
      PLAYRATE 1 1 0 -1 0 0.0021
      CHANMODE 0
      GUID {C5ABBF76-66F0-6E79-F298-1463AE453794}
      RECPASS 1
      <SOURCE MIDI
        HASDATA 1 960 QN
        CCINTERP 32
        POOLEDEVTS {6B53D793-F428-3A48-D6FB-89E7013754DC}
        E 0 90 3c 48
        E 0 90 40 48
        E 0 90 43 48
        E 1920 80 3c 00
        E 0 80 40 00
        E 0 80 43 00
        E 0 90 3c 48
        E 0 90 40 48
        E 0 90 43 48
        E 260 80 3c 00
        E 0 80 40 00
        E 0 80 43 00
        E 440 90 3c 48
        E 0 90 40 48
        E 0 90 43 48
        E 260 80 3c 00
        E 0 80 40 00
        E 0 80 43 00
        e 514 90 3c 48
        e 0 90 40 48
        e 0 90 43 48
        e 260 80 3c 00
        e 0 80 40 00
        e 0 80 43 00
        E 186 90 43 48
        E 0 90 47 48
        E 20 90 40 48
        E 1900 80 43 00
        E 0 80 47 00
        E 0 80 40 00
        E 0 90 43 48
        E 0 90 47 48
        E 20 90 40 48
        E 240 80 43 00
        E 0 80 47 00
        E 0 80 40 00
        E 440 90 43 48
        E 0 90 47 48
        E 20 90 40 48
        E 240 80 43 00
        E 0 80 47 00
        E 0 80 40 00
        e 514 90 43 48
        e 0 90 47 48
        e 20 90 40 48
        e 240 80 43 00
        e 0 80 47 00
        e 0 80 40 00
        E 186 90 41 48
        E 0 90 45 48
        E 0 90 48 48
        E 1920 80 41 00
        E 0 80 45 00
        E 0 80 48 00
        E 0 90 41 48
        E 0 90 45 48
        E 0 90 48 48
        E 260 80 41 00
        E 0 80 45 00
        E 0 80 48 00
        E 440 90 41 48
        E 0 90 45 48
        E 0 90 48 48
        E 260 80 41 00
        E 0 80 45 00
        E 0 80 48 00
        e 514 90 41 48
        e 0 90 45 48
        e 0 90 48 48
        e 260 80 41 00
        e 0 80 45 00
        e 0 80 48 00
        E 162 90 3e 48
        E 24 90 41 48
        E 0 90 45 48
        E 1896 90 3e 48
        E 24 80 3e 00
        E 0 80 41 00
        E 0 80 45 00
        E 0 90 41 48
        E 0 90 45 48
        E 260 80 3e 00
        E 0 80 41 00
        E 0 80 45 00
        E 416 90 3e 48
        E 24 90 41 48
        E 0 90 45 48
        E 260 80 3e 00
        E 0 80 41 00
        E 0 80 45 00
        e 490 90 3e 48
        e 24 90 41 48
        e 0 90 45 48
        e 260 80 3e 00
        e 0 80 41 00
        e 0 80 45 00
        E 186 b0 7b 00
        CHASE_CC_TAKEOFFS 1
        GUID {48C567A2-895C-FB9B-FDBA-0ADB7004ABF3}
        IGNTEMPO 0 120 4 4
        SRCCOLOR 19
        VELLANE -1 100 0
        CFGEDITVIEW 0 0.045808 45 12 0 -1 0 0 0 0.5
        KEYSNAP 0
        TRACKSEL 0
        EVTFILTER 0 -1 -1 -1 -1 0 0 0 0 -1 -1 -1 -1 0 -1 0 -1 -1
        CFGEDIT 1 1 0 1 0 0 1 1 1 1 1 1 58 171 1253 866 0 0 0 0 0.25 0 0 0 0 0.5 0 0 1 64
      >
    >
    <ITEM
      POSITION 24
      SNAPOFFS 0
      LENGTH 8
      LOOP 1
      ALLTAKES 0
      FADEIN 1 0 0 1 0 0
      FADEOUT 1 0 0 1 0 0
      MUTE 0
      SEL 1
      IGUID {A7EAF7BE-19B6-CE6E-8EB3-6DD029E59914}
      IID 13
      NAME "01-Recorded MIDI"
      VOLPAN 1 0 1 -1
      SOFFS 0 0
      PLAYRATE 1 1 0 -1 0 0.0021
      CHANMODE 0
      GUID {F306551C-B95E-5A8C-E4D7-C07BF29647AE}
      RECPASS 1
      <SOURCE MIDI
        HASDATA 1 960 QN
        CCINTERP 32
        POOLEDEVTS {22E2A147-48CE-0570-6F61-AC62249C8F51}
        E 0 90 3c 48
        E 0 90 40 48
        E 0 90 43 48
        E 1920 80 3c 00
        E 0 80 40 00
        E 0 80 43 00
        E 0 90 3c 48
        E 0 90 40 48
        E 0 90 43 48
        E 260 80 3c 00
        E 0 80 40 00
        E 0 80 43 00
        E 440 90 3c 48
        E 0 90 40 48
        E 0 90 43 48
        E 260 80 3c 00
        E 0 80 40 00
        E 0 80 43 00
        e 514 90 3c 48
        e 0 90 40 48
        e 0 90 43 48
        e 260 80 3c 00
        e 0 80 40 00
        e 0 80 43 00
        E 186 90 43 48
        E 0 90 47 48
        E 20 90 40 48
        E 1900 80 43 00
        E 0 80 47 00
        E 0 80 40 00
        E 0 90 43 48
        E 0 90 47 48
        E 20 90 40 48
        E 240 80 43 00
        E 0 80 47 00
        E 0 80 40 00
        E 440 90 43 48
        E 0 90 47 48
        E 20 90 40 48
        E 240 80 43 00
        E 0 80 47 00
        E 0 80 40 00
        e 514 90 43 48
        e 0 90 47 48
        e 20 90 40 48
        e 240 80 43 00
        e 0 80 47 00
        e 0 80 40 00
        E 186 90 41 48
        E 0 90 45 48
        E 0 90 48 48
        E 1920 80 41 00
        E 0 80 45 00
        E 0 80 48 00
        E 0 90 41 48
        E 0 90 45 48
        E 0 90 48 48
        E 260 80 41 00
        E 0 80 45 00
        E 0 80 48 00
        E 440 90 41 48
        E 0 90 45 48
        E 0 90 48 48
        E 260 80 41 00
        E 0 80 45 00
        E 0 80 48 00
        e 514 90 41 48
        e 0 90 45 48
        e 0 90 48 48
        e 260 80 41 00
        e 0 80 45 00
        e 0 80 48 00
        E 162 90 3e 48
        E 24 90 41 48
        E 0 90 45 48
        E 1896 90 3e 48
        E 24 80 3e 00
        E 0 80 41 00
        E 0 80 45 00
        E 0 90 41 48
        E 0 90 45 48
        E 260 80 3e 00
        E 0 80 41 00
        E 0 80 45 00
        E 416 90 3e 48
        E 24 90 41 48
        E 0 90 45 48
        E 260 80 3e 00
        E 0 80 41 00
        E 0 80 45 00
        e 490 90 3e 48
        e 24 90 41 48
        e 0 90 45 48
        e 260 80 3e 00
        e 0 80 41 00
        e 0 80 45 00
        E 186 b0 7b 00
        CHASE_CC_TAKEOFFS 1
        GUID {1DE38800-E2A1-41B5-9C8C-3291891093B1}
        IGNTEMPO 0 120 4 4
        SRCCOLOR 20
        VELLANE -1 100 0
        CFGEDITVIEW 0 0.045808 45 12 0 -1 0 0 0 0.5
        KEYSNAP 0
        TRACKSEL 0
        EVTFILTER 0 -1 -1 -1 -1 0 0 0 0 -1 -1 -1 -1 0 -1 0 -1 -1
        CFGEDIT 1 1 0 1 0 0 1 1 1 1 1 1 58 171 1253 866 0 0 0 0 0.25 0 0 0 0 0.5 0 0 1 64
      >
    >
    <ITEM
      POSITION 32
      SNAPOFFS 0
      LENGTH 8
      LOOP 1
      ALLTAKES 0
      FADEIN 1 0 0 1 0 0
      FADEOUT 1 0 0 1 0 0
      MUTE 0
      SEL 1
      IGUID {99DE0CCF-5606-5932-349B-8F88C4BAAE5E}
      IID 14
      NAME "01-Recorded MIDI"
      VOLPAN 1 0 1 -1
      SOFFS 0 0
      PLAYRATE 1 1 0 -1 0 0.0021
      CHANMODE 0
      GUID {DC153331-172F-CA72-F208-58EC8C88FFDD}
      RECPASS 1
      <SOURCE MIDI
        HASDATA 1 960 QN
        CCINTERP 32
        POOLEDEVTS {3C55FB1E-C3CF-8015-0EF1-B10157196C57}
        E 0 90 3c 48
        E 0 90 40 48
        E 0 90 43 48
        E 1920 80 3c 00
        E 0 80 40 00
        E 0 80 43 00
        E 0 90 3c 48
        E 0 90 40 48
        E 0 90 43 48
        E 260 80 3c 00
        E 0 80 40 00
        E 0 80 43 00
        E 440 90 3c 48
        E 0 90 40 48
        E 0 90 43 48
        E 260 80 3c 00
        E 0 80 40 00
        E 0 80 43 00
        e 514 90 3c 48
        e 0 90 40 48
        e 0 90 43 48
        e 260 80 3c 00
        e 0 80 40 00
        e 0 80 43 00
        E 186 90 43 48
        E 0 90 47 48
        E 20 90 40 48
        E 1900 80 43 00
        E 0 80 47 00
        E 0 80 40 00
        E 0 90 43 48
        E 0 90 47 48
        E 20 90 40 48
        E 240 80 43 00
        E 0 80 47 00
        E 0 80 40 00
        E 440 90 43 48
        E 0 90 47 48
        E 20 90 40 48
        E 240 80 43 00
        E 0 80 47 00
        E 0 80 40 00
        e 514 90 43 48
        e 0 90 47 48
        e 20 90 40 48
        e 240 80 43 00
        e 0 80 47 00
        e 0 80 40 00
        E 186 90 41 48
        E 0 90 45 48
        E 0 90 48 48
        E 1920 80 41 00
        E 0 80 45 00
        E 0 80 48 00
        E 0 90 41 48
        E 0 90 45 48
        E 0 90 48 48
        E 260 80 41 00
        E 0 80 45 00
        E 0 80 48 00
        E 440 90 41 48
        E 0 90 45 48
        E 0 90 48 48
        E 260 80 41 00
        E 0 80 45 00
        E 0 80 48 00
        e 514 90 41 48
        e 0 90 45 48
        e 0 90 48 48
        e 260 80 41 00
        e 0 80 45 00
        e 0 80 48 00
        E 162 90 3e 48
        E 24 90 41 48
        E 0 90 45 48
        E 1896 90 3e 48
        E 24 80 3e 00
        E 0 80 41 00
        E 0 80 45 00
        E 0 90 41 48
        E 0 90 45 48
        E 260 80 3e 00
        E 0 80 41 00
        E 0 80 45 00
        E 416 90 3e 48
        E 24 90 41 48
        E 0 90 45 48
        E 260 80 3e 00
        E 0 80 41 00
        E 0 80 45 00
        e 490 90 3e 48
        e 24 90 41 48
        e 0 90 45 48
        e 260 80 3e 00
        e 0 80 41 00
        e 0 80 45 00
        E 186 b0 7b 00
        CHASE_CC_TAKEOFFS 1
        GUID {0C3271F4-E233-9088-9B25-A722FAE7C579}
        IGNTEMPO 0 120 4 4
        SRCCOLOR 21
        VELLANE -1 100 0
        CFGEDITVIEW 0 0.045808 45 12 0 -1 0 0 0 0.5
        KEYSNAP 0
        TRACKSEL 0
        EVTFILTER 0 -1 -1 -1 -1 0 0 0 0 -1 -1 -1 -1 0 -1 0 -1 -1
        CFGEDIT 1 1 0 1 0 0 1 1 1 1 1 1 58 171 1253 866 0 0 0 0 0.25 0 0 0 0 0.5 0 0 1 64
      >
    >
    <ITEM
      POSITION 40
      SNAPOFFS 0
      LENGTH 8
      LOOP 1
      ALLTAKES 0
      FADEIN 1 0 0 1 0 0
      FADEOUT 1 0 0 1 0 0
      MUTE 0
      SEL 1
      IGUID {A1431DE0-A9D4-E531-D96B-7890FABF605C}
      IID 15
      NAME "01-Recorded MIDI"
      VOLPAN 1 0 1 -1
      SOFFS 0 0
      PLAYRATE 1 1 0 -1 0 0.0021
      CHANMODE 0
      GUID {A6FBBA04-6A54-01CC-D514-2D2F30D263FE}
      RECPASS 1
      <SOURCE MIDI
        HASDATA 1 960 QN
        CCINTERP 32
        POOLEDEVTS {90FB23A0-1639-810F-92F9-FE2FEA6B5C68}
        E 0 90 3c 48
        E 0 90 40 48
        E 0 90 43 48
        E 1920 80 3c 00
        E 0 80 40 00
        E 0 80 43 00
        E 0 90 3c 48
        E 0 90 40 48
        E 0 90 43 48
        E 260 80 3c 00
        E 0 80 40 00
        E 0 80 43 00
        E 440 90 3c 48
        E 0 90 40 48
        E 0 90 43 48
        E 260 80 3c 00
        E 0 80 40 00
        E 0 80 43 00
        e 514 90 3c 48
        e 0 90 40 48
        e 0 90 43 48
        e 260 80 3c 00
        e 0 80 40 00
        e 0 80 43 00
        E 186 90 43 48
        E 0 90 47 48
        E 20 90 40 48
        E 1900 80 43 00
        E 0 80 47 00
        E 0 80 40 00
        E 0 90 43 48
        E 0 90 47 48
        E 20 90 40 48
        E 240 80 43 00
        E 0 80 47 00
        E 0 80 40 00
        E 440 90 43 48
        E 0 90 47 48
        E 20 90 40 48
        E 240 80 43 00
        E 0 80 47 00
        E 0 80 40 00
        e 514 90 43 48
        e 0 90 47 48
        e 20 90 40 48
        e 240 80 43 00
        e 0 80 47 00
        e 0 80 40 00
        E 186 90 41 48
        E 0 90 45 48
        E 0 90 48 48
        E 1920 80 41 00
        E 0 80 45 00
        E 0 80 48 00
        E 0 90 41 48
        E 0 90 45 48
        E 0 90 48 48
        E 260 80 41 00
        E 0 80 45 00
        E 0 80 48 00
        E 440 90 41 48
        E 0 90 45 48
        E 0 90 48 48
        E 260 80 41 00
        E 0 80 45 00
        E 0 80 48 00
        e 514 90 41 48
        e 0 90 45 48
        e 0 90 48 48
        e 260 80 41 00
        e 0 80 45 00
        e 0 80 48 00
        E 162 90 3e 48
        E 24 90 41 48
        E 0 90 45 48
        E 1896 90 3e 48
        E 24 80 3e 00
        E 0 80 41 00
        E 0 80 45 00
        E 0 90 41 48
        E 0 90 45 48
        E 260 80 3e 00
        E 0 80 41 00
        E 0 80 45 00
        E 416 90 3e 48
        E 24 90 41 48
        E 0 90 45 48
        E 260 80 3e 00
        E 0 80 41 00
        E 0 80 45 00
        e 490 90 3e 48
        e 24 90 41 48
        e 0 90 45 48
        e 260 80 3e 00
        e 0 80 41 00
        e 0 80 45 00
        E 186 b0 7b 00
        CHASE_CC_TAKEOFFS 1
        GUID {040E7AF8-3572-5D91-3C86-797AEE7444D4}
        IGNTEMPO 0 120 4 4
        SRCCOLOR 22
        VELLANE -1 100 0
        CFGEDITVIEW 0 0.045808 45 12 0 -1 0 0 0 0.5
        KEYSNAP 0
        TRACKSEL 0
        EVTFILTER 0 -1 -1 -1 -1 0 0 0 0 -1 -1 -1 -1 0 -1 0 -1 -1
        CFGEDIT 1 1 0 1 0 0 1 1 1 1 1 1 58 171 1253 866 0 0 0 0 0.25 0 0 0 0 0.5 0 0 1 64
      >
    >
    <ITEM
      POSITION 48
      SNAPOFFS 0
      LENGTH 8
      LOOP 1
      ALLTAKES 0
      FADEIN 1 0 0 1 0 0
      FADEOUT 1 0 0 1 0 0
      MUTE 0
      SEL 1
      IGUID {79983082-CAF0-AB12-D04F-F9F9E69BDAA5}
      IID 16
      NAME "01-Recorded MIDI"
      VOLPAN 1 0 1 -1
      SOFFS 0 0
      PLAYRATE 1 1 0 -1 0 0.0021
      CHANMODE 0
      GUID {3D41231B-C454-5DD7-25BC-47DFEADD7363}
      RECPASS 1
      <SOURCE MIDI
        HASDATA 1 960 QN
        CCINTERP 32
        POOLEDEVTS {1BBA8A6F-6FE9-47ED-A62A-2713D99ABEFB}
        E 0 90 3c 48
        E 0 90 40 48
        E 0 90 43 48
        E 1920 80 3c 00
        E 0 80 40 00
        E 0 80 43 00
        E 0 90 3c 48
        E 0 90 40 48
        E 0 90 43 48
        E 260 80 3c 00
        E 0 80 40 00
        E 0 80 43 00
        E 440 90 3c 48
        E 0 90 40 48
        E 0 90 43 48
        E 260 80 3c 00
        E 0 80 40 00
        E 0 80 43 00
        e 514 90 3c 48
        e 0 90 40 48
        e 0 90 43 48
        e 260 80 3c 00
        e 0 80 40 00
        e 0 80 43 00
        E 186 90 43 48
        E 0 90 47 48
        E 20 90 40 48
        E 1900 80 43 00
        E 0 80 47 00
        E 0 80 40 00
        E 0 90 43 48
        E 0 90 47 48
        E 20 90 40 48
        E 240 80 43 00
        E 0 80 47 00
        E 0 80 40 00
        E 440 90 43 48
        E 0 90 47 48
        E 20 90 40 48
        E 240 80 43 00
        E 0 80 47 00
        E 0 80 40 00
        e 514 90 43 48
        e 0 90 47 48
        e 20 90 40 48
        e 240 80 43 00
        e 0 80 47 00
        e 0 80 40 00
        E 186 90 41 48
        E 0 90 45 48
        E 0 90 48 48
        E 1920 80 41 00
        E 0 80 45 00
        E 0 80 48 00
        E 0 90 41 48
        E 0 90 45 48
        E 0 90 48 48
        E 260 80 41 00
        E 0 80 45 00
        E 0 80 48 00
        E 440 90 41 48
        E 0 90 45 48
        E 0 90 48 48
        E 260 80 41 00
        E 0 80 45 00
        E 0 80 48 00
        e 514 90 41 48
        e 0 90 45 48
        e 0 90 48 48
        e 260 80 41 00
        e 0 80 45 00
        e 0 80 48 00
        E 162 90 3e 48
        E 24 90 41 48
        E 0 90 45 48
        E 1896 90 3e 48
        E 24 80 3e 00
        E 0 80 41 00
        E 0 80 45 00
        E 0 90 41 48
        E 0 90 45 48
        E 260 80 3e 00
        E 0 80 41 00
        E 0 80 45 00
        E 416 90 3e 48
        E 24 90 41 48
        E 0 90 45 48
        E 260 80 3e 00
        E 0 80 41 00
        E 0 80 45 00
        e 490 90 3e 48
        e 24 90 41 48
        e 0 90 45 48
        e 260 80 3e 00
        e 0 80 41 00
        e 0 80 45 00
        E 186 b0 7b 00
        CHASE_CC_TAKEOFFS 1
        GUID {2338968B-6CF9-9F40-300F-DEB89D3392EA}
        IGNTEMPO 0 120 4 4
        SRCCOLOR 23
        VELLANE -1 100 0
        CFGEDITVIEW 0 0.045808 45 12 0 -1 0 0 0 0.5
        KEYSNAP 0
        TRACKSEL 0
        EVTFILTER 0 -1 -1 -1 -1 0 0 0 0 -1 -1 -1 -1 0 -1 0 -1 -1
        CFGEDIT 1 1 0 1 0 0 1 1 1 1 1 1 58 171 1253 866 0 0 0 0 0.25 0 0 0 0 0.5 0 0 1 64
      >
    >
    <ITEM
      POSITION 56
      SNAPOFFS 0
      LENGTH 8
      LOOP 1
      ALLTAKES 0
      FADEIN 1 0 0 1 0 0
      FADEOUT 1 0 0 1 0 0
      MUTE 0
      SEL 1
      IGUID {4709540E-8885-FF8A-D345-8B64E13B7D29}
      IID 17
      NAME "01-Recorded MIDI"
      VOLPAN 1 0 1 -1
      SOFFS 0 0
      PLAYRATE 1 1 0 -1 0 0.0021
      CHANMODE 0
      GUID {5F52205D-CB2F-50CE-3E24-1B8B73C70973}
      RECPASS 1
      <SOURCE MIDI
        HASDATA 1 960 QN
        CCINTERP 32
        POOLEDEVTS {5F599006-5C36-EC56-06B6-277FE1CC4D2E}
        E 0 90 3c 48
        E 0 90 40 48
        E 0 90 43 48
        E 1920 80 3c 00
        E 0 80 40 00
        E 0 80 43 00
        E 0 90 3c 48
        E 0 90 40 48
        E 0 90 43 48
        E 260 80 3c 00
        E 0 80 40 00
        E 0 80 43 00
        E 440 90 3c 48
        E 0 90 40 48
        E 0 90 43 48
        E 260 80 3c 00
        E 0 80 40 00
        E 0 80 43 00
        e 514 90 3c 48
        e 0 90 40 48
        e 0 90 43 48
        e 260 80 3c 00
        e 0 80 40 00
        e 0 80 43 00
        E 186 90 43 48
        E 0 90 47 48
        E 20 90 40 48
        E 1900 80 43 00
        E 0 80 47 00
        E 0 80 40 00
        E 0 90 43 48
        E 0 90 47 48
        E 20 90 40 48
        E 240 80 43 00
        E 0 80 47 00
        E 0 80 40 00
        E 440 90 43 48
        E 0 90 47 48
        E 20 90 40 48
        E 240 80 43 00
        E 0 80 47 00
        E 0 80 40 00
        e 514 90 43 48
        e 0 90 47 48
        e 20 90 40 48
        e 240 80 43 00
        e 0 80 47 00
        e 0 80 40 00
        E 186 90 41 48
        E 0 90 45 48
        E 0 90 48 48
        E 1920 80 41 00
        E 0 80 45 00
        E 0 80 48 00
        E 0 90 41 48
        E 0 90 45 48
        E 0 90 48 48
        E 260 80 41 00
        E 0 80 45 00
        E 0 80 48 00
        E 440 90 41 48
        E 0 90 45 48
        E 0 90 48 48
        E 260 80 41 00
        E 0 80 45 00
        E 0 80 48 00
        e 514 90 41 48
        e 0 90 45 48
        e 0 90 48 48
        e 260 80 41 00
        e 0 80 45 00
        e 0 80 48 00
        E 162 90 3e 48
        E 24 90 41 48
        E 0 90 45 48
        E 1896 90 3e 48
        E 24 80 3e 00
        E 0 80 41 00
        E 0 80 45 00
        E 0 90 41 48
        E 0 90 45 48
        E 260 80 3e 00
        E 0 80 41 00
        E 0 80 45 00
        E 416 90 3e 48
        E 24 90 41 48
        E 0 90 45 48
        E 260 80 3e 00
        E 0 80 41 00
        E 0 80 45 00
        e 490 90 3e 48
        e 24 90 41 48
        e 0 90 45 48
        e 260 80 3e 00
        e 0 80 41 00
        e 0 80 45 00
        E 186 b0 7b 00
        CHASE_CC_TAKEOFFS 1
        GUID {A64857E2-94F8-0990-20DF-4C1E9B5E6251}
        IGNTEMPO 0 120 4 4
        SRCCOLOR 24
        VELLANE -1 100 0
        CFGEDITVIEW 0 0.045808 45 12 0 -1 0 0 0 0.5
        KEYSNAP 0
        TRACKSEL 0
        EVTFILTER 0 -1 -1 -1 -1 0 0 0 0 -1 -1 -1 -1 0 -1 0 -1 -1
        CFGEDIT 1 1 0 1 0 0 1 1 1 1 1 1 58 171 1253 866 0 0 0 0 0.25 0 0 0 0 0.5 0 0 1 64
      >
    >
    <ITEM
      POSITION 64
      SNAPOFFS 0
      LENGTH 8
      LOOP 1
      ALLTAKES 0
      FADEIN 1 0 0 1 0 0
      FADEOUT 1 0 0 1 0 0
      MUTE 0
      SEL 1
      IGUID {2301D710-25D2-B84C-1EE0-BD8CC1B7A526}
      IID 18
      NAME "01-Recorded MIDI"
      VOLPAN 1 0 1 -1
      SOFFS 0 0
      PLAYRATE 1 1 0 -1 0 0.0021
      CHANMODE 0
      GUID {E01F7CE7-7811-FC69-E368-18ED0C1B64B3}
      RECPASS 1
      <SOURCE MIDI
        HASDATA 1 960 QN
        CCINTERP 32
        POOLEDEVTS {3A66799F-0EF5-7B89-5BD2-3E9603697B5B}
        E 0 90 3c 48
        E 0 90 40 48
        E 0 90 43 48
        E 1920 80 3c 00
        E 0 80 40 00
        E 0 80 43 00
        E 0 90 3c 48
        E 0 90 40 48
        E 0 90 43 48
        E 260 80 3c 00
        E 0 80 40 00
        E 0 80 43 00
        E 440 90 3c 48
        E 0 90 40 48
        E 0 90 43 48
        E 260 80 3c 00
        E 0 80 40 00
        E 0 80 43 00
        e 514 90 3c 48
        e 0 90 40 48
        e 0 90 43 48
        e 260 80 3c 00
        e 0 80 40 00
        e 0 80 43 00
        E 186 90 43 48
        E 0 90 47 48
        E 20 90 40 48
        E 1900 80 43 00
        E 0 80 47 00
        E 0 80 40 00
        E 0 90 43 48
        E 0 90 47 48
        E 20 90 40 48
        E 240 80 43 00
        E 0 80 47 00
        E 0 80 40 00
        E 440 90 43 48
        E 0 90 47 48
        E 20 90 40 48
        E 240 80 43 00
        E 0 80 47 00
        E 0 80 40 00
        e 514 90 43 48
        e 0 90 47 48
        e 20 90 40 48
        e 240 80 43 00
        e 0 80 47 00
        e 0 80 40 00
        E 186 90 41 48
        E 0 90 45 48
        E 0 90 48 48
        E 1920 80 41 00
        E 0 80 45 00
        E 0 80 48 00
        E 0 90 41 48
        E 0 90 45 48
        E 0 90 48 48
        E 260 80 41 00
        E 0 80 45 00
        E 0 80 48 00
        E 440 90 41 48
        E 0 90 45 48
        E 0 90 48 48
        E 260 80 41 00
        E 0 80 45 00
        E 0 80 48 00
        e 514 90 41 48
        e 0 90 45 48
        e 0 90 48 48
        e 260 80 41 00
        e 0 80 45 00
        e 0 80 48 00
        E 162 90 3e 48
        E 24 90 41 48
        E 0 90 45 48
        E 1896 90 3e 48
        E 24 80 3e 00
        E 0 80 41 00
        E 0 80 45 00
        E 0 90 41 48
        E 0 90 45 48
        E 260 80 3e 00
        E 0 80 41 00
        E 0 80 45 00
        E 416 90 3e 48
        E 24 90 41 48
        E 0 90 45 48
        E 260 80 3e 00
        E 0 80 41 00
        E 0 80 45 00
        e 490 90 3e 48
        e 24 90 41 48
        e 0 90 45 48
        e 260 80 3e 00
        e 0 80 41 00
        e 0 80 45 00
        E 186 b0 7b 00
        CHASE_CC_TAKEOFFS 1
        GUID {19362806-85F2-5D9E-E1F9-07BE0CF3D16E}
        IGNTEMPO 0 120 4 4
        SRCCOLOR 25
        VELLANE -1 100 0
        CFGEDITVIEW 0 0.045808 45 12 0 -1 0 0 0 0.5
        KEYSNAP 0
        TRACKSEL 0
        EVTFILTER 0 -1 -1 -1 -1 0 0 0 0 -1 -1 -1 -1 0 -1 0 -1 -1
        CFGEDIT 1 1 0 1 0 0 1 1 1 1 1 1 58 171 1253 866 0 0 0 0 0.25 0 0 0 0 0.5 0 0 1 64
      >
    >
    <ITEM
      POSITION 72
      SNAPOFFS 0
      LENGTH 8
      LOOP 1
      ALLTAKES 0
      FADEIN 1 0 0 1 0 0
      FADEOUT 1 0 0 1 0 0
      MUTE 0
      SEL 1
      IGUID {F5F765CA-755D-68C9-8F76-D90AAD09711C}
      IID 19
      NAME "01-Recorded MIDI"
      VOLPAN 1 0 1 -1
      SOFFS 0 0
      PLAYRATE 1 1 0 -1 0 0.0021
      CHANMODE 0
      GUID {A6500D49-EF8F-5FB1-AA24-F01B04257406}
      RECPASS 1
      <SOURCE MIDI
        HASDATA 1 960 QN
        CCINTERP 32
        POOLEDEVTS {E0C3FA8E-C222-4F57-33A1-17B2702EEBFA}
        E 0 90 3c 48
        E 0 90 40 48
        E 0 90 43 48
        E 1920 80 3c 00
        E 0 80 40 00
        E 0 80 43 00
        E 0 90 3c 48
        E 0 90 40 48
        E 0 90 43 48
        E 260 80 3c 00
        E 0 80 40 00
        E 0 80 43 00
        E 440 90 3c 48
        E 0 90 40 48
        E 0 90 43 48
        E 260 80 3c 00
        E 0 80 40 00
        E 0 80 43 00
        e 514 90 3c 48
        e 0 90 40 48
        e 0 90 43 48
        e 260 80 3c 00
        e 0 80 40 00
        e 0 80 43 00
        E 186 90 43 48
        E 0 90 47 48
        E 20 90 40 48
        E 1900 80 43 00
        E 0 80 47 00
        E 0 80 40 00
        E 0 90 43 48
        E 0 90 47 48
        E 20 90 40 48
        E 240 80 43 00
        E 0 80 47 00
        E 0 80 40 00
        E 440 90 43 48
        E 0 90 47 48
        E 20 90 40 48
        E 240 80 43 00
        E 0 80 47 00
        E 0 80 40 00
        e 514 90 43 48
        e 0 90 47 48
        e 20 90 40 48
        e 240 80 43 00
        e 0 80 47 00
        e 0 80 40 00
        E 186 90 41 48
        E 0 90 45 48
        E 0 90 48 48
        E 1920 80 41 00
        E 0 80 45 00
        E 0 80 48 00
        E 0 90 41 48
        E 0 90 45 48
        E 0 90 48 48
        E 260 80 41 00
        E 0 80 45 00
        E 0 80 48 00
        E 440 90 41 48
        E 0 90 45 48
        E 0 90 48 48
        E 260 80 41 00
        E 0 80 45 00
        E 0 80 48 00
        e 514 90 41 48
        e 0 90 45 48
        e 0 90 48 48
        e 260 80 41 00
        e 0 80 45 00
        e 0 80 48 00
        E 162 90 3e 48
        E 24 90 41 48
        E 0 90 45 48
        E 1896 90 3e 48
        E 24 80 3e 00
        E 0 80 41 00
        E 0 80 45 00
        E 0 90 41 48
        E 0 90 45 48
        E 260 80 3e 00
        E 0 80 41 00
        E 0 80 45 00
        E 416 90 3e 48
        E 24 90 41 48
        E 0 90 45 48
        E 260 80 3e 00
        E 0 80 41 00
        E 0 80 45 00
        e 490 90 3e 48
        e 24 90 41 48
        e 0 90 45 48
        e 260 80 3e 00
        e 0 80 41 00
        e 0 80 45 00
        E 186 b0 7b 00
        CHASE_CC_TAKEOFFS 1
        GUID {6844F8A9-6BE9-023C-4A46-0A676470C99B}
        IGNTEMPO 0 120 4 4
        SRCCOLOR 26
        VELLANE -1 100 0
        CFGEDITVIEW 0 0.045808 45 12 0 -1 0 0 0 0.5
        KEYSNAP 0
        TRACKSEL 0
        EVTFILTER 0 -1 -1 -1 -1 0 0 0 0 -1 -1 -1 -1 0 -1 0 -1 -1
        CFGEDIT 1 1 0 1 0 0 1 1 1 1 1 1 58 171 1253 866 0 0 0 0 0.25 0 0 0 0 0.5 0 0 1 64
      >
    >
    <ITEM
      POSITION 80
      SNAPOFFS 0
      LENGTH 8
      LOOP 1
      ALLTAKES 0
      FADEIN 1 0 0 1 0 0
      FADEOUT 1 0 0 1 0 0
      MUTE 0
      SEL 1
      IGUID {E255D566-2AFF-A4FE-BE85-599C4D0B68A7}
      IID 20
      NAME "01-Recorded MIDI"
      VOLPAN 1 0 1 -1
      SOFFS 0 0
      PLAYRATE 1 1 0 -1 0 0.0021
      CHANMODE 0
      GUID {B93818EF-21F5-7811-5D7E-17264ED2B12B}
      RECPASS 1
      <SOURCE MIDI
        HASDATA 1 960 QN
        CCINTERP 32
        POOLEDEVTS {E3DF77DE-50BC-5539-3EE6-5E728D3521D1}
        E 0 90 3c 48
        E 0 90 40 48
        E 0 90 43 48
        E 1920 80 3c 00
        E 0 80 40 00
        E 0 80 43 00
        E 0 90 3c 48
        E 0 90 40 48
        E 0 90 43 48
        E 260 80 3c 00
        E 0 80 40 00
        E 0 80 43 00
        E 440 90 3c 48
        E 0 90 40 48
        E 0 90 43 48
        E 260 80 3c 00
        E 0 80 40 00
        E 0 80 43 00
        e 514 90 3c 48
        e 0 90 40 48
        e 0 90 43 48
        e 260 80 3c 00
        e 0 80 40 00
        e 0 80 43 00
        E 186 90 43 48
        E 0 90 47 48
        E 20 90 40 48
        E 1900 80 43 00
        E 0 80 47 00
        E 0 80 40 00
        E 0 90 43 48
        E 0 90 47 48
        E 20 90 40 48
        E 240 80 43 00
        E 0 80 47 00
        E 0 80 40 00
        E 440 90 43 48
        E 0 90 47 48
        E 20 90 40 48
        E 240 80 43 00
        E 0 80 47 00
        E 0 80 40 00
        e 514 90 43 48
        e 0 90 47 48
        e 20 90 40 48
        e 240 80 43 00
        e 0 80 47 00
        e 0 80 40 00
        E 186 90 41 48
        E 0 90 45 48
        E 0 90 48 48
        E 1920 80 41 00
        E 0 80 45 00
        E 0 80 48 00
        E 0 90 41 48
        E 0 90 45 48
        E 0 90 48 48
        E 260 80 41 00
        E 0 80 45 00
        E 0 80 48 00
        E 440 90 41 48
        E 0 90 45 48
        E 0 90 48 48
        E 260 80 41 00
        E 0 80 45 00
        E 0 80 48 00
        e 514 90 41 48
        e 0 90 45 48
        e 0 90 48 48
        e 260 80 41 00
        e 0 80 45 00
        e 0 80 48 00
        E 162 90 3e 48
        E 24 90 41 48
        E 0 90 45 48
        E 1896 90 3e 48
        E 24 80 3e 00
        E 0 80 41 00
        E 0 80 45 00
        E 0 90 41 48
        E 0 90 45 48
        E 260 80 3e 00
        E 0 80 41 00
        E 0 80 45 00
        E 416 90 3e 48
        E 24 90 41 48
        E 0 90 45 48
        E 260 80 3e 00
        E 0 80 41 00
        E 0 80 45 00
        e 490 90 3e 48
        e 24 90 41 48
        e 0 90 45 48
        e 260 80 3e 00
        e 0 80 41 00
        e 0 80 45 00
        E 186 b0 7b 00
        CHASE_CC_TAKEOFFS 1
        GUID {E611ADB6-4869-6CCA-8E83-3954D5E743B1}
        IGNTEMPO 0 120 4 4
        SRCCOLOR 27
        VELLANE -1 100 0
        CFGEDITVIEW 0 0.045808 45 12 0 -1 0 0 0 0.5
        KEYSNAP 0
        TRACKSEL 0
        EVTFILTER 0 -1 -1 -1 -1 0 0 0 0 -1 -1 -1 -1 0 -1 0 -1 -1
        CFGEDIT 1 1 0 1 0 0 1 1 1 1 1 1 58 171 1253 866 0 0 0 0 0.25 0 0 0 0 0.5 0 0 1 64
      >
    >
    <ITEM
      POSITION 88
      SNAPOFFS 0
      LENGTH 8
      LOOP 1
      ALLTAKES 0
      FADEIN 1 0 0 1 0 0
      FADEOUT 1 0 0 1 0 0
      MUTE 0
      SEL 1
      IGUID {CC1101EC-FCD9-F6F9-4E81-659F27F09C11}
      IID 21
      NAME "01-Recorded MIDI"
      VOLPAN 1 0 1 -1
      SOFFS 0 0
      PLAYRATE 1 1 0 -1 0 0.0021
      CHANMODE 0
      GUID {E8304624-F6A7-A819-3483-B172E44FA7B8}
      RECPASS 1
      <SOURCE MIDI
        HASDATA 1 960 QN
        CCINTERP 32
        POOLEDEVTS {C6116DAE-2398-6AA9-ADBE-6793A668D518}
        E 0 90 3c 48
        E 0 90 40 48
        E 0 90 43 48
        E 1920 80 3c 00
        E 0 80 40 00
        E 0 80 43 00
        E 0 90 3c 48
        E 0 90 40 48
        E 0 90 43 48
        E 260 80 3c 00
        E 0 80 40 00
        E 0 80 43 00
        E 440 90 3c 48
        E 0 90 40 48
        E 0 90 43 48
        E 260 80 3c 00
        E 0 80 40 00
        E 0 80 43 00
        e 514 90 3c 48
        e 0 90 40 48
        e 0 90 43 48
        e 260 80 3c 00
        e 0 80 40 00
        e 0 80 43 00
        E 186 90 43 48
        E 0 90 47 48
        E 20 90 40 48
        E 1900 80 43 00
        E 0 80 47 00
        E 0 80 40 00
        E 0 90 43 48
        E 0 90 47 48
        E 20 90 40 48
        E 240 80 43 00
        E 0 80 47 00
        E 0 80 40 00
        E 440 90 43 48
        E 0 90 47 48
        E 20 90 40 48
        E 240 80 43 00
        E 0 80 47 00
        E 0 80 40 00
        e 514 90 43 48
        e 0 90 47 48
        e 20 90 40 48
        e 240 80 43 00
        e 0 80 47 00
        e 0 80 40 00
        E 186 90 41 48
        E 0 90 45 48
        E 0 90 48 48
        E 1920 80 41 00
        E 0 80 45 00
        E 0 80 48 00
        E 0 90 41 48
        E 0 90 45 48
        E 0 90 48 48
        E 260 80 41 00
        E 0 80 45 00
        E 0 80 48 00
        E 440 90 41 48
        E 0 90 45 48
        E 0 90 48 48
        E 260 80 41 00
        E 0 80 45 00
        E 0 80 48 00
        e 514 90 41 48
        e 0 90 45 48
        e 0 90 48 48
        e 260 80 41 00
        e 0 80 45 00
        e 0 80 48 00
        E 162 90 3e 48
        E 24 90 41 48
        E 0 90 45 48
        E 1896 90 3e 48
        E 24 80 3e 00
        E 0 80 41 00
        E 0 80 45 00
        E 0 90 41 48
        E 0 90 45 48
        E 260 80 3e 00
        E 0 80 41 00
        E 0 80 45 00
        E 416 90 3e 48
        E 24 90 41 48
        E 0 90 45 48
        E 260 80 3e 00
        E 0 80 41 00
        E 0 80 45 00
        e 490 90 3e 48
        e 24 90 41 48
        e 0 90 45 48
        e 260 80 3e 00
        e 0 80 41 00
        e 0 80 45 00
        E 186 b0 7b 00
        CHASE_CC_TAKEOFFS 1
        GUID {C762B555-17FC-D765-5340-11D3487D2955}
        IGNTEMPO 0 120 4 4
        SRCCOLOR 28
        VELLANE -1 100 0
        CFGEDITVIEW 0 0.045808 45 12 0 -1 0 0 0 0.5
        KEYSNAP 0
        TRACKSEL 0
        EVTFILTER 0 -1 -1 -1 -1 0 0 0 0 -1 -1 -1 -1 0 -1 0 -1 -1
        CFGEDIT 1 1 0 1 0 0 1 1 1 1 1 1 58 171 1253 866 0 0 0 0 0.25 0 0 0 0 0.5 0 0 1 64
      >
    >
  >
  <TRACK {C7FD16C1-FE2E-3F7B-D6A3-CEA531D25354}
    NAME ""
    PEAKCOL 16576
    BEAT -1
    AUTOMODE 0
    VOLPAN 0.00052194381917 0 -1 -1 1
    MUTESOLO 0 0 0
    IPHASE 0
    PLAYOFFS 0 1
    ISBUS 0 0
    BUSCOMP 0 0 0 0 0
    SHOWINMIX 1 0.6667 0.5 1 0.5 0 0 0
    FREEMODE 0
    SEL 0
    REC 0 5056 1 0 0 0 0
    VU 2
    TRACKHEIGHT 21 0 0
    INQ 0 0 0 0.5 100 0 0 100
    NCHAN 2
    FX 0
    TRACKID {C7FD16C1-FE2E-3F7B-D6A3-CEA531D25354}
    PERF 0
    MIDIOUT -1
    MAINSEND 1 0
    <FXCHAIN
      WNDRECT 346 266 902 608
      SHOW 0
      LASTSEL 5
      DOCKED 0
      BYPASS 0 0 0
      <VST "VST: ReaEQ (Cockos)" reaeq.vst.so 0 "" 1919247729<56535472656571726561657100000000> ""
        cWVlcu5e7f4CAAAAAQAAAAAAAAACAAAAAAAAAAIAAAABAAAAAAAAAAIAAAAAAAAAqAAAAAEAAAAAABAA
        IQAAAAQAAAAEAAAAAQAAAEC4Xhmm+DRAAAAAAAAA8D8AAAAAAAAAQAEIAAAAAQAAAAAAAAAAwHJAAAAAAAAA8D8AAAAAAAAAQAEIAAAAAQAAAAAAAAAAQI9AAAAAAAAA
        8D8AAAAAAAAAQAEDAAAAAQAAAAABaCorbdRAAAAAAAAA8D8AAAAAAAAAQAEBAAAAAQAAAAAAAAAAAPA/AAAAAJoCAACcAQAA
        AEhpZ2ggbG93IHBhc3MAEAAAAA==
      >
      PRESETNAME "High low pass"
      FLOATPOS 0 0 0 0
      FXID {9CE79289-13BA-7D28-3566-F1ADE95DDF9E}
      WAK 0 0
      BYPASS 0 0 0
      <VST "VSTi: ReaSynth (Cockos)" reasynth.vst.so 0 "" 1919251321<5653547265737972656173796E746800> ""
        eXNlcu9e7f4AAAAAAgAAAAEAAAAAAAAAAgAAAAAAAAA8AAAAAAAAAAAAEAA=
        776t3g3wrd6lm8Q7F7fROgAAAAAAAAAAAAAAAJCNuT3oZ4g9AACAPwAAAD8AAIA/AAAAAAAAAD8AAAAA
        AAAQAAAA
      >
      FLOATPOS 0 0 0 0
      FXID {1308EBB2-DC32-CEA3-FEED-6FF5B35CF19D}
      WAK 0 0
      BYPASS 0 0 0
      <JS guitar/amp-model ""
        "Dumble Overdrive Special - Tweed Deluxe.wav" -21.000000 1.000000 0.000000 73.000000 256.000000 - - - - - - - - - - - - - - - - - - - - - - - - - - - - - - - - - - - - - - - - - - - - - - - - - - - - - - - - - - 
      >
      FLOATPOS 0 0 0 0
      FXID {037DBF2C-A8A1-884E-ECC8-16D13D20107B}
      WAK 0 0
      BYPASS 0 0 0
      <VST "VST: ReaComp (Cockos)" reacomp.vst.so 0 "" 1919247213<5653547265636D726561636F6D700000> ""
        bWNlcu9e7f4EAAAAAQAAAAAAAAACAAAAAAAAAAQAAAAAAAAACAAAAAAAAAACAAAAAQAAAAAAAAACAAAAAAAAAFQAAAAAAAAAAAAQAA==
        776t3g3wrd5FoYg9/AWpPKWbxDsK16M8AAAAAAAAAAAAAIA/AAAAAAAAAAAAAAAAnNEHMwAAgD8AAAAAzMxMPQAAAAAAAAAAAAAAAAAAgD7YiZ09
        AAAQAAAA
      >
      FLOATPOS 0 0 0 0
      FXID {DF06C8AA-9FB7-4ACD-80A5-0166EA0F66DD}
      WAK 0 0
      BYPASS 0 0 0
      <VST "VST: ReaDelay (Cockos)" readelay.vst.so 0 "" 1919247468<5653547265646C72656164656C617900> ""
        bGRlcu5e7f4CAAAAAQAAAAAAAAACAAAAAAAAAAIAAAABAAAAAAAAAAIAAAAAAAAA/AAAAAEAAAAAAAAA
        AAAAAAAAAAAFAAAALAAAAAIAAAAEAAAAAACAPwAAgD8AAAAAAACAPwAAAAAAAIA7vTeGNQAAgD8AAAAAAACAPwAAgD8AAIA/AAAAAAAAAAAAAIA/AAAAAAAAADwAAAAA
        AACAPwAAAAAAAIA/AACAP+87NT8AAIA/AAAAAAAAgD8AAAAAAABAPL03hjUAAIA/AAAAAAAAgD8AAIA/zk0AP6abhD4AAAAAAACAPwAAAAAAAIA8vTeGNQAAgD8AAAAA
        AACAPwAAgD8aqrU+pHA9PwAAAAAAAIA/AAAAAAAAoDy9N4Y1AACAPwAAAAAAAIA/AACAP/npAD4AAAA/
        AHN0b2NrIC0gYmFzaWMgNSB0YXAgcGluZyBwb25nAAAAAAA=
      >
      PRESETNAME "stock - basic 5 tap ping pong"
      FLOATPOS 0 0 0 0
      FXID {F629BA6F-B3F4-0D74-1638-5910747886C4}
      WAK 0 0
      BYPASS 0 0 0
      <VST "VST: ReaVerb (Cockos)" reaverb.vst.so 0 "" 1919252066<56535472657662726561766572620000> ""
        YnZlcu5e7f4CAAAAAQAAAAAAAAACAAAAAAAAAAIAAAABAAAAAAAAAAIAAAAAAAAAcAAAAAEAAAAAAAAA
        AAAAwcybgD4AAIA/AAAAAAAAgD8AAIA/AAAAPwAAgD8AAAAAVkVSQkdFTgAYAAAAAAAAAJHgV0QdrLRA3rK7QsHIjEIAAIC/RUNIT0dFTgAcAAAAy/i2QLUjdUJdzdM/
        osdfP5lRrzyRzYxAnMQAPw==
        AHN3ZWV0dmVyYm8AAAAAAA==
      >
      PRESETNAME sweetverbo
      FLOATPOS 0 0 0 0
      FXID {A3D97CCE-D99F-1DEB-4EC6-69AF35BB8438}
      WAK 0 0
    >
    <ITEM
      POSITION 0
      SNAPOFFS 0
      LENGTH 8
      LOOP 1
      ALLTAKES 0
      FADEIN 1 0 0 1 0 0
      FADEOUT 1 0 0 1 0 0
      MUTE 0
      SEL 1
      IGUID {6DAD17CD-8C36-146C-E4CF-3E017720B494}
      IID 10
      NAME "01-Recorded MIDI"
      VOLPAN 1 0 1 -1
      SOFFS 0 0
      PLAYRATE 1 1 0 -1 0 0.0021
      CHANMODE 0
      GUID {5886C308-EA69-FD03-0ED3-B9435D5F55A3}
      RECPASS 1
      <SOURCE MIDI
        HASDATA 1 960 QN
        CCINTERP 32
        POOLEDEVTS {D8C00C07-40B1-1334-EC69-8444867579D3}
        E 0 90 3c 48
        E 0 90 40 48
        E 0 90 43 48
        E 1920 80 3c 00
        E 0 80 40 00
        E 0 80 43 00
        E 0 90 3c 48
        E 0 90 40 48
        E 0 90 43 48
        E 260 80 3c 00
        E 0 80 40 00
        E 0 80 43 00
        E 440 90 3c 48
        E 0 90 40 48
        E 0 90 43 48
        E 260 80 3c 00
        E 0 80 40 00
        E 0 80 43 00
        e 514 90 3c 48
        e 0 90 40 48
        e 0 90 43 48
        e 260 80 3c 00
        e 0 80 40 00
        e 0 80 43 00
        E 186 90 43 48
        E 0 90 47 48
        E 20 90 40 48
        E 1900 80 43 00
        E 0 80 47 00
        E 0 80 40 00
        E 0 90 43 48
        E 0 90 47 48
        E 20 90 40 48
        E 240 80 43 00
        E 0 80 47 00
        E 0 80 40 00
        E 440 90 43 48
        E 0 90 47 48
        E 20 90 40 48
        E 240 80 43 00
        E 0 80 47 00
        E 0 80 40 00
        e 514 90 43 48
        e 0 90 47 48
        e 20 90 40 48
        e 240 80 43 00
        e 0 80 47 00
        e 0 80 40 00
        E 186 90 41 48
        E 0 90 45 48
        E 0 90 48 48
        E 1920 80 41 00
        E 0 80 45 00
        E 0 80 48 00
        E 0 90 41 48
        E 0 90 45 48
        E 0 90 48 48
        E 260 80 41 00
        E 0 80 45 00
        E 0 80 48 00
        E 440 90 41 48
        E 0 90 45 48
        E 0 90 48 48
        E 260 80 41 00
        E 0 80 45 00
        E 0 80 48 00
        e 514 90 41 48
        e 0 90 45 48
        e 0 90 48 48
        e 260 80 41 00
        e 0 80 45 00
        e 0 80 48 00
        E 162 90 3e 48
        E 24 90 41 48
        E 0 90 45 48
        E 1896 90 3e 48
        E 24 80 3e 00
        E 0 80 41 00
        E 0 80 45 00
        E 0 90 41 48
        E 0 90 45 48
        E 260 80 3e 00
        E 0 80 41 00
        E 0 80 45 00
        E 416 90 3e 48
        E 24 90 41 48
        E 0 90 45 48
        E 260 80 3e 00
        E 0 80 41 00
        E 0 80 45 00
        e 490 90 3e 48
        e 24 90 41 48
        e 0 90 45 48
        e 260 80 3e 00
        e 0 80 41 00
        e 0 80 45 00
        E 186 b0 7b 00
        CHASE_CC_TAKEOFFS 1
        GUID {7B9D708B-43E1-C8D4-C4B3-87E2A6C27801}
        IGNTEMPO 0 120 4 4
        SRCCOLOR 17
        VELLANE -1 100 0
        CFGEDITVIEW 0 0.045808 45 12 0 -1 0 0 0 0.5
        KEYSNAP 0
        TRACKSEL 0
        EVTFILTER 0 -1 -1 -1 -1 0 0 0 0 -1 -1 -1 -1 0 -1 0 -1 -1
        CFGEDIT 1 1 0 1 0 0 1 1 1 1 1 1 58 171 1253 866 0 0 0 0 0.25 0 0 0 0 0.5 0 0 1 64
      >
    >
    <ITEM
      POSITION 8
      SNAPOFFS 0
      LENGTH 8
      LOOP 1
      ALLTAKES 0
      FADEIN 1 0 0 1 0 0
      FADEOUT 1 0 0 1 0 0
      MUTE 0
      SEL 1
      IGUID {C615D0F6-08FE-132E-DD10-7B35294B5DF2}
      IID 11
      NAME "01-Recorded MIDI"
      VOLPAN 1 0 1 -1
      SOFFS 0 0
      PLAYRATE 1 1 0 -1 0 0.0021
      CHANMODE 0
      GUID {EC17B3FC-F827-D517-C56F-46C368A370AD}
      RECPASS 1
      <SOURCE MIDI
        HASDATA 1 960 QN
        CCINTERP 32
        POOLEDEVTS {2B845973-BED4-E79F-644E-3D468B37D222}
        E 0 90 3c 48
        E 0 90 40 48
        E 0 90 43 48
        E 1920 80 3c 00
        E 0 80 40 00
        E 0 80 43 00
        E 0 90 3c 48
        E 0 90 40 48
        E 0 90 43 48
        E 260 80 3c 00
        E 0 80 40 00
        E 0 80 43 00
        E 440 90 3c 48
        E 0 90 40 48
        E 0 90 43 48
        E 260 80 3c 00
        E 0 80 40 00
        E 0 80 43 00
        e 514 90 3c 48
        e 0 90 40 48
        e 0 90 43 48
        e 260 80 3c 00
        e 0 80 40 00
        e 0 80 43 00
        E 186 90 43 48
        E 0 90 47 48
        E 20 90 40 48
        E 1900 80 43 00
        E 0 80 47 00
        E 0 80 40 00
        E 0 90 43 48
        E 0 90 47 48
        E 20 90 40 48
        E 240 80 43 00
        E 0 80 47 00
        E 0 80 40 00
        E 440 90 43 48
        E 0 90 47 48
        E 20 90 40 48
        E 240 80 43 00
        E 0 80 47 00
        E 0 80 40 00
        e 514 90 43 48
        e 0 90 47 48
        e 20 90 40 48
        e 240 80 43 00
        e 0 80 47 00
        e 0 80 40 00
        E 186 90 41 48
        E 0 90 45 48
        E 0 90 48 48
        E 1920 80 41 00
        E 0 80 45 00
        E 0 80 48 00
        E 0 90 41 48
        E 0 90 45 48
        E 0 90 48 48
        E 260 80 41 00
        E 0 80 45 00
        E 0 80 48 00
        E 440 90 41 48
        E 0 90 45 48
        E 0 90 48 48
        E 260 80 41 00
        E 0 80 45 00
        E 0 80 48 00
        e 514 90 41 48
        e 0 90 45 48
        e 0 90 48 48
        e 260 80 41 00
        e 0 80 45 00
        e 0 80 48 00
        E 162 90 3e 48
        E 24 90 41 48
        E 0 90 45 48
        E 1896 90 3e 48
        E 24 80 3e 00
        E 0 80 41 00
        E 0 80 45 00
        E 0 90 41 48
        E 0 90 45 48
        E 260 80 3e 00
        E 0 80 41 00
        E 0 80 45 00
        E 416 90 3e 48
        E 24 90 41 48
        E 0 90 45 48
        E 260 80 3e 00
        E 0 80 41 00
        E 0 80 45 00
        e 490 90 3e 48
        e 24 90 41 48
        e 0 90 45 48
        e 260 80 3e 00
        e 0 80 41 00
        e 0 80 45 00
        E 186 b0 7b 00
        CHASE_CC_TAKEOFFS 1
        GUID {3131B4E2-B370-E352-A9C5-C8CA31551A86}
        IGNTEMPO 0 120 4 4
        SRCCOLOR 18
        VELLANE -1 100 0
        CFGEDITVIEW 0 0.045808 45 12 0 -1 0 0 0 0.5
        KEYSNAP 0
        TRACKSEL 0
        EVTFILTER 0 -1 -1 -1 -1 0 0 0 0 -1 -1 -1 -1 0 -1 0 -1 -1
        CFGEDIT 1 1 0 1 0 0 1 1 1 1 1 1 58 171 1253 866 0 0 0 0 0.25 0 0 0 0 0.5 0 0 1 64
      >
    >
    <ITEM
      POSITION 16
      SNAPOFFS 0
      LENGTH 8
      LOOP 1
      ALLTAKES 0
      FADEIN 1 0 0 1 0 0
      FADEOUT 1 0 0 1 0 0
      MUTE 0
      SEL 1
      IGUID {A4A7AEB4-176C-97F8-E4B6-D43344BA7E7A}
      IID 12
      NAME "01-Recorded MIDI"
      VOLPAN 1 0 1 -1
      SOFFS 0 0
      PLAYRATE 1 1 0 -1 0 0.0021
      CHANMODE 0
      GUID {B92CA281-B7B4-AD46-A2A8-5948136EF400}
      RECPASS 1
      <SOURCE MIDI
        HASDATA 1 960 QN
        CCINTERP 32
        POOLEDEVTS {0D814AFF-717D-B95C-D0F0-E9899B14D0A7}
        E 0 90 3c 48
        E 0 90 40 48
        E 0 90 43 48
        E 1920 80 3c 00
        E 0 80 40 00
        E 0 80 43 00
        E 0 90 3c 48
        E 0 90 40 48
        E 0 90 43 48
        E 260 80 3c 00
        E 0 80 40 00
        E 0 80 43 00
        E 440 90 3c 48
        E 0 90 40 48
        E 0 90 43 48
        E 260 80 3c 00
        E 0 80 40 00
        E 0 80 43 00
        e 514 90 3c 48
        e 0 90 40 48
        e 0 90 43 48
        e 260 80 3c 00
        e 0 80 40 00
        e 0 80 43 00
        E 186 90 43 48
        E 0 90 47 48
        E 20 90 40 48
        E 1900 80 43 00
        E 0 80 47 00
        E 0 80 40 00
        E 0 90 43 48
        E 0 90 47 48
        E 20 90 40 48
        E 240 80 43 00
        E 0 80 47 00
        E 0 80 40 00
        E 440 90 43 48
        E 0 90 47 48
        E 20 90 40 48
        E 240 80 43 00
        E 0 80 47 00
        E 0 80 40 00
        e 514 90 43 48
        e 0 90 47 48
        e 20 90 40 48
        e 240 80 43 00
        e 0 80 47 00
        e 0 80 40 00
        E 186 90 41 48
        E 0 90 45 48
        E 0 90 48 48
        E 1920 80 41 00
        E 0 80 45 00
        E 0 80 48 00
        E 0 90 41 48
        E 0 90 45 48
        E 0 90 48 48
        E 260 80 41 00
        E 0 80 45 00
        E 0 80 48 00
        E 440 90 41 48
        E 0 90 45 48
        E 0 90 48 48
        E 260 80 41 00
        E 0 80 45 00
        E 0 80 48 00
        e 514 90 41 48
        e 0 90 45 48
        e 0 90 48 48
        e 260 80 41 00
        e 0 80 45 00
        e 0 80 48 00
        E 162 90 3e 48
        E 24 90 41 48
        E 0 90 45 48
        E 1896 90 3e 48
        E 24 80 3e 00
        E 0 80 41 00
        E 0 80 45 00
        E 0 90 41 48
        E 0 90 45 48
        E 260 80 3e 00
        E 0 80 41 00
        E 0 80 45 00
        E 416 90 3e 48
        E 24 90 41 48
        E 0 90 45 48
        E 260 80 3e 00
        E 0 80 41 00
        E 0 80 45 00
        e 490 90 3e 48
        e 24 90 41 48
        e 0 90 45 48
        e 260 80 3e 00
        e 0 80 41 00
        e 0 80 45 00
        E 186 b0 7b 00
        CHASE_CC_TAKEOFFS 1
        GUID {48C567A2-895C-FB9B-FDBA-0ADB7004ABF3}
        IGNTEMPO 0 120 4 4
        SRCCOLOR 19
        VELLANE -1 100 0
        CFGEDITVIEW 0 0.045808 45 12 0 -1 0 0 0 0.5
        KEYSNAP 0
        TRACKSEL 0
        EVTFILTER 0 -1 -1 -1 -1 0 0 0 0 -1 -1 -1 -1 0 -1 0 -1 -1
        CFGEDIT 1 1 0 1 0 0 1 1 1 1 1 1 58 171 1253 866 0 0 0 0 0.25 0 0 0 0 0.5 0 0 1 64
      >
    >
    <ITEM
      POSITION 24
      SNAPOFFS 0
      LENGTH 8
      LOOP 1
      ALLTAKES 0
      FADEIN 1 0 0 1 0 0
      FADEOUT 1 0 0 1 0 0
      MUTE 0
      SEL 1
      IGUID {71776C20-5FA8-7190-85CD-8A13242F0155}
      IID 13
      NAME "01-Recorded MIDI"
      VOLPAN 1 0 1 -1
      SOFFS 0 0
      PLAYRATE 1 1 0 -1 0 0.0021
      CHANMODE 0
      GUID {B7016C71-FDE6-256F-17A0-9D56358E9EED}
      RECPASS 1
      <SOURCE MIDI
        HASDATA 1 960 QN
        CCINTERP 32
        POOLEDEVTS {711B733B-498B-BA9D-FF07-8138D7A4498D}
        E 0 90 3c 48
        E 0 90 40 48
        E 0 90 43 48
        E 1920 80 3c 00
        E 0 80 40 00
        E 0 80 43 00
        E 0 90 3c 48
        E 0 90 40 48
        E 0 90 43 48
        E 260 80 3c 00
        E 0 80 40 00
        E 0 80 43 00
        E 440 90 3c 48
        E 0 90 40 48
        E 0 90 43 48
        E 260 80 3c 00
        E 0 80 40 00
        E 0 80 43 00
        e 514 90 3c 48
        e 0 90 40 48
        e 0 90 43 48
        e 260 80 3c 00
        e 0 80 40 00
        e 0 80 43 00
        E 186 90 43 48
        E 0 90 47 48
        E 20 90 40 48
        E 1900 80 43 00
        E 0 80 47 00
        E 0 80 40 00
        E 0 90 43 48
        E 0 90 47 48
        E 20 90 40 48
        E 240 80 43 00
        E 0 80 47 00
        E 0 80 40 00
        E 440 90 43 48
        E 0 90 47 48
        E 20 90 40 48
        E 240 80 43 00
        E 0 80 47 00
        E 0 80 40 00
        e 514 90 43 48
        e 0 90 47 48
        e 20 90 40 48
        e 240 80 43 00
        e 0 80 47 00
        e 0 80 40 00
        E 186 90 41 48
        E 0 90 45 48
        E 0 90 48 48
        E 1920 80 41 00
        E 0 80 45 00
        E 0 80 48 00
        E 0 90 41 48
        E 0 90 45 48
        E 0 90 48 48
        E 260 80 41 00
        E 0 80 45 00
        E 0 80 48 00
        E 440 90 41 48
        E 0 90 45 48
        E 0 90 48 48
        E 260 80 41 00
        E 0 80 45 00
        E 0 80 48 00
        e 514 90 41 48
        e 0 90 45 48
        e 0 90 48 48
        e 260 80 41 00
        e 0 80 45 00
        e 0 80 48 00
        E 162 90 3e 48
        E 24 90 41 48
        E 0 90 45 48
        E 1896 90 3e 48
        E 24 80 3e 00
        E 0 80 41 00
        E 0 80 45 00
        E 0 90 41 48
        E 0 90 45 48
        E 260 80 3e 00
        E 0 80 41 00
        E 0 80 45 00
        E 416 90 3e 48
        E 24 90 41 48
        E 0 90 45 48
        E 260 80 3e 00
        E 0 80 41 00
        E 0 80 45 00
        e 490 90 3e 48
        e 24 90 41 48
        e 0 90 45 48
        e 260 80 3e 00
        e 0 80 41 00
        e 0 80 45 00
        E 186 b0 7b 00
        CHASE_CC_TAKEOFFS 1
        GUID {1DE38800-E2A1-41B5-9C8C-3291891093B1}
        IGNTEMPO 0 120 4 4
        SRCCOLOR 20
        VELLANE -1 100 0
        CFGEDITVIEW 0 0.045808 45 12 0 -1 0 0 0 0.5
        KEYSNAP 0
        TRACKSEL 0
        EVTFILTER 0 -1 -1 -1 -1 0 0 0 0 -1 -1 -1 -1 0 -1 0 -1 -1
        CFGEDIT 1 1 0 1 0 0 1 1 1 1 1 1 58 171 1253 866 0 0 0 0 0.25 0 0 0 0 0.5 0 0 1 64
      >
    >
    <ITEM
      POSITION 32
      SNAPOFFS 0
      LENGTH 8
      LOOP 1
      ALLTAKES 0
      FADEIN 1 0 0 1 0 0
      FADEOUT 1 0 0 1 0 0
      MUTE 0
      SEL 1
      IGUID {2CBD6B7D-35B2-EC6A-A963-5B0E6AECA846}
      IID 14
      NAME "01-Recorded MIDI"
      VOLPAN 1 0 1 -1
      SOFFS 0 0
      PLAYRATE 1 1 0 -1 0 0.0021
      CHANMODE 0
      GUID {794B9E70-AD81-FF5C-75E6-DC6FDF420B48}
      RECPASS 1
      <SOURCE MIDI
        HASDATA 1 960 QN
        CCINTERP 32
        POOLEDEVTS {C8C7EB31-9ABE-3897-9D55-838544B54732}
        E 0 90 3c 48
        E 0 90 40 48
        E 0 90 43 48
        E 1920 80 3c 00
        E 0 80 40 00
        E 0 80 43 00
        E 0 90 3c 48
        E 0 90 40 48
        E 0 90 43 48
        E 260 80 3c 00
        E 0 80 40 00
        E 0 80 43 00
        E 440 90 3c 48
        E 0 90 40 48
        E 0 90 43 48
        E 260 80 3c 00
        E 0 80 40 00
        E 0 80 43 00
        e 514 90 3c 48
        e 0 90 40 48
        e 0 90 43 48
        e 260 80 3c 00
        e 0 80 40 00
        e 0 80 43 00
        E 186 90 43 48
        E 0 90 47 48
        E 20 90 40 48
        E 1900 80 43 00
        E 0 80 47 00
        E 0 80 40 00
        E 0 90 43 48
        E 0 90 47 48
        E 20 90 40 48
        E 240 80 43 00
        E 0 80 47 00
        E 0 80 40 00
        E 440 90 43 48
        E 0 90 47 48
        E 20 90 40 48
        E 240 80 43 00
        E 0 80 47 00
        E 0 80 40 00
        e 514 90 43 48
        e 0 90 47 48
        e 20 90 40 48
        e 240 80 43 00
        e 0 80 47 00
        e 0 80 40 00
        E 186 90 41 48
        E 0 90 45 48
        E 0 90 48 48
        E 1920 80 41 00
        E 0 80 45 00
        E 0 80 48 00
        E 0 90 41 48
        E 0 90 45 48
        E 0 90 48 48
        E 260 80 41 00
        E 0 80 45 00
        E 0 80 48 00
        E 440 90 41 48
        E 0 90 45 48
        E 0 90 48 48
        E 260 80 41 00
        E 0 80 45 00
        E 0 80 48 00
        e 514 90 41 48
        e 0 90 45 48
        e 0 90 48 48
        e 260 80 41 00
        e 0 80 45 00
        e 0 80 48 00
        E 162 90 3e 48
        E 24 90 41 48
        E 0 90 45 48
        E 1896 90 3e 48
        E 24 80 3e 00
        E 0 80 41 00
        E 0 80 45 00
        E 0 90 41 48
        E 0 90 45 48
        E 260 80 3e 00
        E 0 80 41 00
        E 0 80 45 00
        E 416 90 3e 48
        E 24 90 41 48
        E 0 90 45 48
        E 260 80 3e 00
        E 0 80 41 00
        E 0 80 45 00
        e 490 90 3e 48
        e 24 90 41 48
        e 0 90 45 48
        e 260 80 3e 00
        e 0 80 41 00
        e 0 80 45 00
        E 186 b0 7b 00
        CHASE_CC_TAKEOFFS 1
        GUID {0C3271F4-E233-9088-9B25-A722FAE7C579}
        IGNTEMPO 0 120 4 4
        SRCCOLOR 21
        VELLANE -1 100 0
        CFGEDITVIEW 0 0.045808 45 12 0 -1 0 0 0 0.5
        KEYSNAP 0
        TRACKSEL 0
        EVTFILTER 0 -1 -1 -1 -1 0 0 0 0 -1 -1 -1 -1 0 -1 0 -1 -1
        CFGEDIT 1 1 0 1 0 0 1 1 1 1 1 1 58 171 1253 866 0 0 0 0 0.25 0 0 0 0 0.5 0 0 1 64
      >
    >
    <ITEM
      POSITION 40
      SNAPOFFS 0
      LENGTH 8
      LOOP 1
      ALLTAKES 0
      FADEIN 1 0 0 1 0 0
      FADEOUT 1 0 0 1 0 0
      MUTE 0
      SEL 1
      IGUID {58E21EE4-DC3A-ABAC-67F7-03500EA50F87}
      IID 15
      NAME "01-Recorded MIDI"
      VOLPAN 1 0 1 -1
      SOFFS 0 0
      PLAYRATE 1 1 0 -1 0 0.0021
      CHANMODE 0
      GUID {2F56BAEF-A290-6E41-85DE-5D5ECA0D886B}
      RECPASS 1
      <SOURCE MIDI
        HASDATA 1 960 QN
        CCINTERP 32
        POOLEDEVTS {34ADAFDC-D683-C474-F9E9-138107916551}
        E 0 90 3c 48
        E 0 90 40 48
        E 0 90 43 48
        E 1920 80 3c 00
        E 0 80 40 00
        E 0 80 43 00
        E 0 90 3c 48
        E 0 90 40 48
        E 0 90 43 48
        E 260 80 3c 00
        E 0 80 40 00
        E 0 80 43 00
        E 440 90 3c 48
        E 0 90 40 48
        E 0 90 43 48
        E 260 80 3c 00
        E 0 80 40 00
        E 0 80 43 00
        e 514 90 3c 48
        e 0 90 40 48
        e 0 90 43 48
        e 260 80 3c 00
        e 0 80 40 00
        e 0 80 43 00
        E 186 90 43 48
        E 0 90 47 48
        E 20 90 40 48
        E 1900 80 43 00
        E 0 80 47 00
        E 0 80 40 00
        E 0 90 43 48
        E 0 90 47 48
        E 20 90 40 48
        E 240 80 43 00
        E 0 80 47 00
        E 0 80 40 00
        E 440 90 43 48
        E 0 90 47 48
        E 20 90 40 48
        E 240 80 43 00
        E 0 80 47 00
        E 0 80 40 00
        e 514 90 43 48
        e 0 90 47 48
        e 20 90 40 48
        e 240 80 43 00
        e 0 80 47 00
        e 0 80 40 00
        E 186 90 41 48
        E 0 90 45 48
        E 0 90 48 48
        E 1920 80 41 00
        E 0 80 45 00
        E 0 80 48 00
        E 0 90 41 48
        E 0 90 45 48
        E 0 90 48 48
        E 260 80 41 00
        E 0 80 45 00
        E 0 80 48 00
        E 440 90 41 48
        E 0 90 45 48
        E 0 90 48 48
        E 260 80 41 00
        E 0 80 45 00
        E 0 80 48 00
        e 514 90 41 48
        e 0 90 45 48
        e 0 90 48 48
        e 260 80 41 00
        e 0 80 45 00
        e 0 80 48 00
        E 162 90 3e 48
        E 24 90 41 48
        E 0 90 45 48
        E 1896 90 3e 48
        E 24 80 3e 00
        E 0 80 41 00
        E 0 80 45 00
        E 0 90 41 48
        E 0 90 45 48
        E 260 80 3e 00
        E 0 80 41 00
        E 0 80 45 00
        E 416 90 3e 48
        E 24 90 41 48
        E 0 90 45 48
        E 260 80 3e 00
        E 0 80 41 00
        E 0 80 45 00
        e 490 90 3e 48
        e 24 90 41 48
        e 0 90 45 48
        e 260 80 3e 00
        e 0 80 41 00
        e 0 80 45 00
        E 186 b0 7b 00
        CHASE_CC_TAKEOFFS 1
        GUID {040E7AF8-3572-5D91-3C86-797AEE7444D4}
        IGNTEMPO 0 120 4 4
        SRCCOLOR 22
        VELLANE -1 100 0
        CFGEDITVIEW 0 0.045808 45 12 0 -1 0 0 0 0.5
        KEYSNAP 0
        TRACKSEL 0
        EVTFILTER 0 -1 -1 -1 -1 0 0 0 0 -1 -1 -1 -1 0 -1 0 -1 -1
        CFGEDIT 1 1 0 1 0 0 1 1 1 1 1 1 58 171 1253 866 0 0 0 0 0.25 0 0 0 0 0.5 0 0 1 64
      >
    >
    <ITEM
      POSITION 48
      SNAPOFFS 0
      LENGTH 8
      LOOP 1
      ALLTAKES 0
      FADEIN 1 0 0 1 0 0
      FADEOUT 1 0 0 1 0 0
      MUTE 0
      SEL 1
      IGUID {E4A3A167-13AE-3F01-E5E2-7862F27C0F13}
      IID 16
      NAME "01-Recorded MIDI"
      VOLPAN 1 0 1 -1
      SOFFS 0 0
      PLAYRATE 1 1 0 -1 0 0.0021
      CHANMODE 0
      GUID {70196729-7FC6-0A31-6535-12629826F396}
      RECPASS 1
      <SOURCE MIDI
        HASDATA 1 960 QN
        CCINTERP 32
        POOLEDEVTS {37E697DB-E1CE-CDBC-E05B-ADAE814BD18D}
        E 0 90 3c 48
        E 0 90 40 48
        E 0 90 43 48
        E 1920 80 3c 00
        E 0 80 40 00
        E 0 80 43 00
        E 0 90 3c 48
        E 0 90 40 48
        E 0 90 43 48
        E 260 80 3c 00
        E 0 80 40 00
        E 0 80 43 00
        E 440 90 3c 48
        E 0 90 40 48
        E 0 90 43 48
        E 260 80 3c 00
        E 0 80 40 00
        E 0 80 43 00
        e 514 90 3c 48
        e 0 90 40 48
        e 0 90 43 48
        e 260 80 3c 00
        e 0 80 40 00
        e 0 80 43 00
        E 186 90 43 48
        E 0 90 47 48
        E 20 90 40 48
        E 1900 80 43 00
        E 0 80 47 00
        E 0 80 40 00
        E 0 90 43 48
        E 0 90 47 48
        E 20 90 40 48
        E 240 80 43 00
        E 0 80 47 00
        E 0 80 40 00
        E 440 90 43 48
        E 0 90 47 48
        E 20 90 40 48
        E 240 80 43 00
        E 0 80 47 00
        E 0 80 40 00
        e 514 90 43 48
        e 0 90 47 48
        e 20 90 40 48
        e 240 80 43 00
        e 0 80 47 00
        e 0 80 40 00
        E 186 90 41 48
        E 0 90 45 48
        E 0 90 48 48
        E 1920 80 41 00
        E 0 80 45 00
        E 0 80 48 00
        E 0 90 41 48
        E 0 90 45 48
        E 0 90 48 48
        E 260 80 41 00
        E 0 80 45 00
        E 0 80 48 00
        E 440 90 41 48
        E 0 90 45 48
        E 0 90 48 48
        E 260 80 41 00
        E 0 80 45 00
        E 0 80 48 00
        e 514 90 41 48
        e 0 90 45 48
        e 0 90 48 48
        e 260 80 41 00
        e 0 80 45 00
        e 0 80 48 00
        E 162 90 3e 48
        E 24 90 41 48
        E 0 90 45 48
        E 1896 90 3e 48
        E 24 80 3e 00
        E 0 80 41 00
        E 0 80 45 00
        E 0 90 41 48
        E 0 90 45 48
        E 260 80 3e 00
        E 0 80 41 00
        E 0 80 45 00
        E 416 90 3e 48
        E 24 90 41 48
        E 0 90 45 48
        E 260 80 3e 00
        E 0 80 41 00
        E 0 80 45 00
        e 490 90 3e 48
        e 24 90 41 48
        e 0 90 45 48
        e 260 80 3e 00
        e 0 80 41 00
        e 0 80 45 00
        E 186 b0 7b 00
        CHASE_CC_TAKEOFFS 1
        GUID {2338968B-6CF9-9F40-300F-DEB89D3392EA}
        IGNTEMPO 0 120 4 4
        SRCCOLOR 23
        VELLANE -1 100 0
        CFGEDITVIEW 0 0.045808 45 12 0 -1 0 0 0 0.5
        KEYSNAP 0
        TRACKSEL 0
        EVTFILTER 0 -1 -1 -1 -1 0 0 0 0 -1 -1 -1 -1 0 -1 0 -1 -1
        CFGEDIT 1 1 0 1 0 0 1 1 1 1 1 1 58 171 1253 866 0 0 0 0 0.25 0 0 0 0 0.5 0 0 1 64
      >
    >
    <ITEM
      POSITION 56
      SNAPOFFS 0
      LENGTH 8
      LOOP 1
      ALLTAKES 0
      FADEIN 1 0 0 1 0 0
      FADEOUT 1 0 0 1 0 0
      MUTE 0
      SEL 1
      IGUID {FD568720-AC2C-28D0-56DA-6EA42377CBAB}
      IID 17
      NAME "01-Recorded MIDI"
      VOLPAN 1 0 1 -1
      SOFFS 0 0
      PLAYRATE 1 1 0 -1 0 0.0021
      CHANMODE 0
      GUID {52FB73E8-20CF-BAC5-0965-CF13CCCBB355}
      RECPASS 1
      <SOURCE MIDI
        HASDATA 1 960 QN
        CCINTERP 32
        POOLEDEVTS {69766573-565F-B648-2322-7A7F31E9B0BB}
        E 0 90 3c 48
        E 0 90 40 48
        E 0 90 43 48
        E 1920 80 3c 00
        E 0 80 40 00
        E 0 80 43 00
        E 0 90 3c 48
        E 0 90 40 48
        E 0 90 43 48
        E 260 80 3c 00
        E 0 80 40 00
        E 0 80 43 00
        E 440 90 3c 48
        E 0 90 40 48
        E 0 90 43 48
        E 260 80 3c 00
        E 0 80 40 00
        E 0 80 43 00
        e 514 90 3c 48
        e 0 90 40 48
        e 0 90 43 48
        e 260 80 3c 00
        e 0 80 40 00
        e 0 80 43 00
        E 186 90 43 48
        E 0 90 47 48
        E 20 90 40 48
        E 1900 80 43 00
        E 0 80 47 00
        E 0 80 40 00
        E 0 90 43 48
        E 0 90 47 48
        E 20 90 40 48
        E 240 80 43 00
        E 0 80 47 00
        E 0 80 40 00
        E 440 90 43 48
        E 0 90 47 48
        E 20 90 40 48
        E 240 80 43 00
        E 0 80 47 00
        E 0 80 40 00
        e 514 90 43 48
        e 0 90 47 48
        e 20 90 40 48
        e 240 80 43 00
        e 0 80 47 00
        e 0 80 40 00
        E 186 90 41 48
        E 0 90 45 48
        E 0 90 48 48
        E 1920 80 41 00
        E 0 80 45 00
        E 0 80 48 00
        E 0 90 41 48
        E 0 90 45 48
        E 0 90 48 48
        E 260 80 41 00
        E 0 80 45 00
        E 0 80 48 00
        E 440 90 41 48
        E 0 90 45 48
        E 0 90 48 48
        E 260 80 41 00
        E 0 80 45 00
        E 0 80 48 00
        e 514 90 41 48
        e 0 90 45 48
        e 0 90 48 48
        e 260 80 41 00
        e 0 80 45 00
        e 0 80 48 00
        E 162 90 3e 48
        E 24 90 41 48
        E 0 90 45 48
        E 1896 90 3e 48
        E 24 80 3e 00
        E 0 80 41 00
        E 0 80 45 00
        E 0 90 41 48
        E 0 90 45 48
        E 260 80 3e 00
        E 0 80 41 00
        E 0 80 45 00
        E 416 90 3e 48
        E 24 90 41 48
        E 0 90 45 48
        E 260 80 3e 00
        E 0 80 41 00
        E 0 80 45 00
        e 490 90 3e 48
        e 24 90 41 48
        e 0 90 45 48
        e 260 80 3e 00
        e 0 80 41 00
        e 0 80 45 00
        E 186 b0 7b 00
        CHASE_CC_TAKEOFFS 1
        GUID {A64857E2-94F8-0990-20DF-4C1E9B5E6251}
        IGNTEMPO 0 120 4 4
        SRCCOLOR 24
        VELLANE -1 100 0
        CFGEDITVIEW 0 0.045808 45 12 0 -1 0 0 0 0.5
        KEYSNAP 0
        TRACKSEL 0
        EVTFILTER 0 -1 -1 -1 -1 0 0 0 0 -1 -1 -1 -1 0 -1 0 -1 -1
        CFGEDIT 1 1 0 1 0 0 1 1 1 1 1 1 58 171 1253 866 0 0 0 0 0.25 0 0 0 0 0.5 0 0 1 64
      >
    >
    <ITEM
      POSITION 64
      SNAPOFFS 0
      LENGTH 8
      LOOP 1
      ALLTAKES 0
      FADEIN 1 0 0 1 0 0
      FADEOUT 1 0 0 1 0 0
      MUTE 0
      SEL 1
      IGUID {E9C98578-3C2B-7F7C-2D20-CBE3DAD3D734}
      IID 18
      NAME "01-Recorded MIDI"
      VOLPAN 1 0 1 -1
      SOFFS 0 0
      PLAYRATE 1 1 0 -1 0 0.0021
      CHANMODE 0
      GUID {3F91A499-10C6-D3ED-0F0F-0A56710FBB5C}
      RECPASS 1
      <SOURCE MIDI
        HASDATA 1 960 QN
        CCINTERP 32
        POOLEDEVTS {5EB7B1CB-8A43-FA7A-9164-9344EA280739}
        E 0 90 3c 48
        E 0 90 40 48
        E 0 90 43 48
        E 1920 80 3c 00
        E 0 80 40 00
        E 0 80 43 00
        E 0 90 3c 48
        E 0 90 40 48
        E 0 90 43 48
        E 260 80 3c 00
        E 0 80 40 00
        E 0 80 43 00
        E 440 90 3c 48
        E 0 90 40 48
        E 0 90 43 48
        E 260 80 3c 00
        E 0 80 40 00
        E 0 80 43 00
        e 514 90 3c 48
        e 0 90 40 48
        e 0 90 43 48
        e 260 80 3c 00
        e 0 80 40 00
        e 0 80 43 00
        E 186 90 43 48
        E 0 90 47 48
        E 20 90 40 48
        E 1900 80 43 00
        E 0 80 47 00
        E 0 80 40 00
        E 0 90 43 48
        E 0 90 47 48
        E 20 90 40 48
        E 240 80 43 00
        E 0 80 47 00
        E 0 80 40 00
        E 440 90 43 48
        E 0 90 47 48
        E 20 90 40 48
        E 240 80 43 00
        E 0 80 47 00
        E 0 80 40 00
        e 514 90 43 48
        e 0 90 47 48
        e 20 90 40 48
        e 240 80 43 00
        e 0 80 47 00
        e 0 80 40 00
        E 186 90 41 48
        E 0 90 45 48
        E 0 90 48 48
        E 1920 80 41 00
        E 0 80 45 00
        E 0 80 48 00
        E 0 90 41 48
        E 0 90 45 48
        E 0 90 48 48
        E 260 80 41 00
        E 0 80 45 00
        E 0 80 48 00
        E 440 90 41 48
        E 0 90 45 48
        E 0 90 48 48
        E 260 80 41 00
        E 0 80 45 00
        E 0 80 48 00
        e 514 90 41 48
        e 0 90 45 48
        e 0 90 48 48
        e 260 80 41 00
        e 0 80 45 00
        e 0 80 48 00
        E 162 90 3e 48
        E 24 90 41 48
        E 0 90 45 48
        E 1896 90 3e 48
        E 24 80 3e 00
        E 0 80 41 00
        E 0 80 45 00
        E 0 90 41 48
        E 0 90 45 48
        E 260 80 3e 00
        E 0 80 41 00
        E 0 80 45 00
        E 416 90 3e 48
        E 24 90 41 48
        E 0 90 45 48
        E 260 80 3e 00
        E 0 80 41 00
        E 0 80 45 00
        e 490 90 3e 48
        e 24 90 41 48
        e 0 90 45 48
        e 260 80 3e 00
        e 0 80 41 00
        e 0 80 45 00
        E 186 b0 7b 00
        CHASE_CC_TAKEOFFS 1
        GUID {19362806-85F2-5D9E-E1F9-07BE0CF3D16E}
        IGNTEMPO 0 120 4 4
        SRCCOLOR 25
        VELLANE -1 100 0
        CFGEDITVIEW 0 0.045808 45 12 0 -1 0 0 0 0.5
        KEYSNAP 0
        TRACKSEL 0
        EVTFILTER 0 -1 -1 -1 -1 0 0 0 0 -1 -1 -1 -1 0 -1 0 -1 -1
        CFGEDIT 1 1 0 1 0 0 1 1 1 1 1 1 58 171 1253 866 0 0 0 0 0.25 0 0 0 0 0.5 0 0 1 64
      >
    >
    <ITEM
      POSITION 72
      SNAPOFFS 0
      LENGTH 8
      LOOP 1
      ALLTAKES 0
      FADEIN 1 0 0 1 0 0
      FADEOUT 1 0 0 1 0 0
      MUTE 0
      SEL 1
      IGUID {3A8D4F76-C8B7-04D1-CA7B-AA850F850ABD}
      IID 19
      NAME "01-Recorded MIDI"
      VOLPAN 1 0 1 -1
      SOFFS 0 0
      PLAYRATE 1 1 0 -1 0 0.0021
      CHANMODE 0
      GUID {F244486A-73E8-AA16-DEAB-A8FC876F7448}
      RECPASS 1
      <SOURCE MIDI
        HASDATA 1 960 QN
        CCINTERP 32
        POOLEDEVTS {F0EFF0A6-F446-4872-7487-92CCACD5AF9A}
        E 0 90 3c 48
        E 0 90 40 48
        E 0 90 43 48
        E 1920 80 3c 00
        E 0 80 40 00
        E 0 80 43 00
        E 0 90 3c 48
        E 0 90 40 48
        E 0 90 43 48
        E 260 80 3c 00
        E 0 80 40 00
        E 0 80 43 00
        E 440 90 3c 48
        E 0 90 40 48
        E 0 90 43 48
        E 260 80 3c 00
        E 0 80 40 00
        E 0 80 43 00
        e 514 90 3c 48
        e 0 90 40 48
        e 0 90 43 48
        e 260 80 3c 00
        e 0 80 40 00
        e 0 80 43 00
        E 186 90 43 48
        E 0 90 47 48
        E 20 90 40 48
        E 1900 80 43 00
        E 0 80 47 00
        E 0 80 40 00
        E 0 90 43 48
        E 0 90 47 48
        E 20 90 40 48
        E 240 80 43 00
        E 0 80 47 00
        E 0 80 40 00
        E 440 90 43 48
        E 0 90 47 48
        E 20 90 40 48
        E 240 80 43 00
        E 0 80 47 00
        E 0 80 40 00
        e 514 90 43 48
        e 0 90 47 48
        e 20 90 40 48
        e 240 80 43 00
        e 0 80 47 00
        e 0 80 40 00
        E 186 90 41 48
        E 0 90 45 48
        E 0 90 48 48
        E 1920 80 41 00
        E 0 80 45 00
        E 0 80 48 00
        E 0 90 41 48
        E 0 90 45 48
        E 0 90 48 48
        E 260 80 41 00
        E 0 80 45 00
        E 0 80 48 00
        E 440 90 41 48
        E 0 90 45 48
        E 0 90 48 48
        E 260 80 41 00
        E 0 80 45 00
        E 0 80 48 00
        e 514 90 41 48
        e 0 90 45 48
        e 0 90 48 48
        e 260 80 41 00
        e 0 80 45 00
        e 0 80 48 00
        E 162 90 3e 48
        E 24 90 41 48
        E 0 90 45 48
        E 1896 90 3e 48
        E 24 80 3e 00
        E 0 80 41 00
        E 0 80 45 00
        E 0 90 41 48
        E 0 90 45 48
        E 260 80 3e 00
        E 0 80 41 00
        E 0 80 45 00
        E 416 90 3e 48
        E 24 90 41 48
        E 0 90 45 48
        E 260 80 3e 00
        E 0 80 41 00
        E 0 80 45 00
        e 490 90 3e 48
        e 24 90 41 48
        e 0 90 45 48
        e 260 80 3e 00
        e 0 80 41 00
        e 0 80 45 00
        E 186 b0 7b 00
        CHASE_CC_TAKEOFFS 1
        GUID {6844F8A9-6BE9-023C-4A46-0A676470C99B}
        IGNTEMPO 0 120 4 4
        SRCCOLOR 26
        VELLANE -1 100 0
        CFGEDITVIEW 0 0.045808 45 12 0 -1 0 0 0 0.5
        KEYSNAP 0
        TRACKSEL 0
        EVTFILTER 0 -1 -1 -1 -1 0 0 0 0 -1 -1 -1 -1 0 -1 0 -1 -1
        CFGEDIT 1 1 0 1 0 0 1 1 1 1 1 1 58 171 1253 866 0 0 0 0 0.25 0 0 0 0 0.5 0 0 1 64
      >
    >
    <ITEM
      POSITION 80
      SNAPOFFS 0
      LENGTH 8
      LOOP 1
      ALLTAKES 0
      FADEIN 1 0 0 1 0 0
      FADEOUT 1 0 0 1 0 0
      MUTE 0
      SEL 1
      IGUID {A45FD419-42FF-B661-3365-5624AF64C7CB}
      IID 20
      NAME "01-Recorded MIDI"
      VOLPAN 1 0 1 -1
      SOFFS 0 0
      PLAYRATE 1 1 0 -1 0 0.0021
      CHANMODE 0
      GUID {C3557F74-78BC-6F9D-23CB-1F558DAF6CE8}
      RECPASS 1
      <SOURCE MIDI
        HASDATA 1 960 QN
        CCINTERP 32
        POOLEDEVTS {0CF9C61F-ECB9-87BE-D54B-96660ECE27F1}
        E 0 90 3c 48
        E 0 90 40 48
        E 0 90 43 48
        E 1920 80 3c 00
        E 0 80 40 00
        E 0 80 43 00
        E 0 90 3c 48
        E 0 90 40 48
        E 0 90 43 48
        E 260 80 3c 00
        E 0 80 40 00
        E 0 80 43 00
        E 440 90 3c 48
        E 0 90 40 48
        E 0 90 43 48
        E 260 80 3c 00
        E 0 80 40 00
        E 0 80 43 00
        e 514 90 3c 48
        e 0 90 40 48
        e 0 90 43 48
        e 260 80 3c 00
        e 0 80 40 00
        e 0 80 43 00
        E 186 90 43 48
        E 0 90 47 48
        E 20 90 40 48
        E 1900 80 43 00
        E 0 80 47 00
        E 0 80 40 00
        E 0 90 43 48
        E 0 90 47 48
        E 20 90 40 48
        E 240 80 43 00
        E 0 80 47 00
        E 0 80 40 00
        E 440 90 43 48
        E 0 90 47 48
        E 20 90 40 48
        E 240 80 43 00
        E 0 80 47 00
        E 0 80 40 00
        e 514 90 43 48
        e 0 90 47 48
        e 20 90 40 48
        e 240 80 43 00
        e 0 80 47 00
        e 0 80 40 00
        E 186 90 41 48
        E 0 90 45 48
        E 0 90 48 48
        E 1920 80 41 00
        E 0 80 45 00
        E 0 80 48 00
        E 0 90 41 48
        E 0 90 45 48
        E 0 90 48 48
        E 260 80 41 00
        E 0 80 45 00
        E 0 80 48 00
        E 440 90 41 48
        E 0 90 45 48
        E 0 90 48 48
        E 260 80 41 00
        E 0 80 45 00
        E 0 80 48 00
        e 514 90 41 48
        e 0 90 45 48
        e 0 90 48 48
        e 260 80 41 00
        e 0 80 45 00
        e 0 80 48 00
        E 162 90 3e 48
        E 24 90 41 48
        E 0 90 45 48
        E 1896 90 3e 48
        E 24 80 3e 00
        E 0 80 41 00
        E 0 80 45 00
        E 0 90 41 48
        E 0 90 45 48
        E 260 80 3e 00
        E 0 80 41 00
        E 0 80 45 00
        E 416 90 3e 48
        E 24 90 41 48
        E 0 90 45 48
        E 260 80 3e 00
        E 0 80 41 00
        E 0 80 45 00
        e 490 90 3e 48
        e 24 90 41 48
        e 0 90 45 48
        e 260 80 3e 00
        e 0 80 41 00
        e 0 80 45 00
        E 186 b0 7b 00
        CHASE_CC_TAKEOFFS 1
        GUID {E611ADB6-4869-6CCA-8E83-3954D5E743B1}
        IGNTEMPO 0 120 4 4
        SRCCOLOR 27
        VELLANE -1 100 0
        CFGEDITVIEW 0 0.045808 45 12 0 -1 0 0 0 0.5
        KEYSNAP 0
        TRACKSEL 0
        EVTFILTER 0 -1 -1 -1 -1 0 0 0 0 -1 -1 -1 -1 0 -1 0 -1 -1
        CFGEDIT 1 1 0 1 0 0 1 1 1 1 1 1 58 171 1253 866 0 0 0 0 0.25 0 0 0 0 0.5 0 0 1 64
      >
    >
    <ITEM
      POSITION 88
      SNAPOFFS 0
      LENGTH 8
      LOOP 1
      ALLTAKES 0
      FADEIN 1 0 0 1 0 0
      FADEOUT 1 0 0 1 0 0
      MUTE 0
      SEL 1
      IGUID {2DAFC04C-A921-013D-EBFA-E472F0240213}
      IID 21
      NAME "01-Recorded MIDI"
      VOLPAN 1 0 1 -1
      SOFFS 0 0
      PLAYRATE 1 1 0 -1 0 0.0021
      CHANMODE 0
      GUID {37720AF4-2BC1-0791-8DFD-117B3A335F6E}
      RECPASS 1
      <SOURCE MIDI
        HASDATA 1 960 QN
        CCINTERP 32
        POOLEDEVTS {74F72497-387A-7F82-740A-73426395ED86}
        E 0 90 3c 48
        E 0 90 40 48
        E 0 90 43 48
        E 1920 80 3c 00
        E 0 80 40 00
        E 0 80 43 00
        E 0 90 3c 48
        E 0 90 40 48
        E 0 90 43 48
        E 260 80 3c 00
        E 0 80 40 00
        E 0 80 43 00
        E 440 90 3c 48
        E 0 90 40 48
        E 0 90 43 48
        E 260 80 3c 00
        E 0 80 40 00
        E 0 80 43 00
        e 514 90 3c 48
        e 0 90 40 48
        e 0 90 43 48
        e 260 80 3c 00
        e 0 80 40 00
        e 0 80 43 00
        E 186 90 43 48
        E 0 90 47 48
        E 20 90 40 48
        E 1900 80 43 00
        E 0 80 47 00
        E 0 80 40 00
        E 0 90 43 48
        E 0 90 47 48
        E 20 90 40 48
        E 240 80 43 00
        E 0 80 47 00
        E 0 80 40 00
        E 440 90 43 48
        E 0 90 47 48
        E 20 90 40 48
        E 240 80 43 00
        E 0 80 47 00
        E 0 80 40 00
        e 514 90 43 48
        e 0 90 47 48
        e 20 90 40 48
        e 240 80 43 00
        e 0 80 47 00
        e 0 80 40 00
        E 186 90 41 48
        E 0 90 45 48
        E 0 90 48 48
        E 1920 80 41 00
        E 0 80 45 00
        E 0 80 48 00
        E 0 90 41 48
        E 0 90 45 48
        E 0 90 48 48
        E 260 80 41 00
        E 0 80 45 00
        E 0 80 48 00
        E 440 90 41 48
        E 0 90 45 48
        E 0 90 48 48
        E 260 80 41 00
        E 0 80 45 00
        E 0 80 48 00
        e 514 90 41 48
        e 0 90 45 48
        e 0 90 48 48
        e 260 80 41 00
        e 0 80 45 00
        e 0 80 48 00
        E 162 90 3e 48
        E 24 90 41 48
        E 0 90 45 48
        E 1896 90 3e 48
        E 24 80 3e 00
        E 0 80 41 00
        E 0 80 45 00
        E 0 90 41 48
        E 0 90 45 48
        E 260 80 3e 00
        E 0 80 41 00
        E 0 80 45 00
        E 416 90 3e 48
        E 24 90 41 48
        E 0 90 45 48
        E 260 80 3e 00
        E 0 80 41 00
        E 0 80 45 00
        e 490 90 3e 48
        e 24 90 41 48
        e 0 90 45 48
        e 260 80 3e 00
        e 0 80 41 00
        e 0 80 45 00
        E 186 b0 7b 00
        CHASE_CC_TAKEOFFS 1
        GUID {C762B555-17FC-D765-5340-11D3487D2955}
        IGNTEMPO 0 120 4 4
        SRCCOLOR 28
        VELLANE -1 100 0
        CFGEDITVIEW 0 0.045808 45 12 0 -1 0 0 0 0.5
        KEYSNAP 0
        TRACKSEL 0
        EVTFILTER 0 -1 -1 -1 -1 0 0 0 0 -1 -1 -1 -1 0 -1 0 -1 -1
        CFGEDIT 1 1 0 1 0 0 1 1 1 1 1 1 58 171 1253 866 0 0 0 0 0.25 0 0 0 0 0.5 0 0 1 64
      >
    >
  >
  <TRACK {EB00AD23-A713-B83F-89DF-6A7A5E35EE1B}
    NAME ""
    PEAKCOL 16576
    BEAT -1
    AUTOMODE 0
    VOLPAN 0.00052194381917 0 -1 -1 1
    MUTESOLO 0 0 0
    IPHASE 0
    PLAYOFFS 0 1
    ISBUS 0 0
    BUSCOMP 0 0 0 0 0
    SHOWINMIX 1 0.6667 0.5 1 0.5 0 0 0
    FREEMODE 0
    SEL 0
    REC 0 5056 1 0 0 0 0
    VU 2
    TRACKHEIGHT 21 0 0
    INQ 0 0 0 0.5 100 0 0 100
    NCHAN 2
    FX 0
    TRACKID {EB00AD23-A713-B83F-89DF-6A7A5E35EE1B}
    PERF 0
    MIDIOUT -1
    MAINSEND 1 0
    <FXCHAIN
      WNDRECT 346 266 902 608
      SHOW 0
      LASTSEL 5
      DOCKED 0
      BYPASS 0 0 0
      <VST "VST: ReaEQ (Cockos)" reaeq.vst.so 0 "" 1919247729<56535472656571726561657100000000> ""
        cWVlcu5e7f4CAAAAAQAAAAAAAAACAAAAAAAAAAIAAAABAAAAAAAAAAIAAAAAAAAAqAAAAAEAAAAAABAA
        IQAAAAQAAAAEAAAAAQAAAEC4Xhmm+DRAAAAAAAAA8D8AAAAAAAAAQAEIAAAAAQAAAAAAAAAAwHJAAAAAAAAA8D8AAAAAAAAAQAEIAAAAAQAAAAAAAAAAQI9AAAAAAAAA
        8D8AAAAAAAAAQAEDAAAAAQAAAAABaCorbdRAAAAAAAAA8D8AAAAAAAAAQAEBAAAAAQAAAAAAAAAAAPA/AAAAAJoCAACcAQAA
        AEhpZ2ggbG93IHBhc3MAEAAAAA==
      >
      PRESETNAME "High low pass"
      FLOATPOS 0 0 0 0
      FXID {7BFFB5AB-B3FC-8BFC-C7A3-A8538EB7EBF7}
      WAK 0 0
      BYPASS 0 0 0
      <VST "VSTi: ReaSynth (Cockos)" reasynth.vst.so 0 "" 1919251321<5653547265737972656173796E746800> ""
        eXNlcu9e7f4AAAAAAgAAAAEAAAAAAAAAAgAAAAAAAAA8AAAAAAAAAAAAEAA=
        776t3g3wrd6lm8Q7F7fROgAAAAAAAAAAAAAAAJCNuT3oZ4g9AACAPwAAAD8AAIA/AAAAAAAAAD8AAAAA
        AAAQAAAA
      >
      FLOATPOS 0 0 0 0
      FXID {E10176A4-7932-DD6F-BF33-0FB1DAA482C6}
      WAK 0 0
      BYPASS 0 0 0
      <JS guitar/amp-model ""
        "Dumble Overdrive Special - Tweed Deluxe.wav" -21.000000 1.000000 0.000000 73.000000 256.000000 - - - - - - - - - - - - - - - - - - - - - - - - - - - - - - - - - - - - - - - - - - - - - - - - - - - - - - - - - - 
      >
      FLOATPOS 0 0 0 0
      FXID {636179FF-368A-98C8-AD17-93F2F9E224AA}
      WAK 0 0
      BYPASS 0 0 0
      <VST "VST: ReaComp (Cockos)" reacomp.vst.so 0 "" 1919247213<5653547265636D726561636F6D700000> ""
        bWNlcu9e7f4EAAAAAQAAAAAAAAACAAAAAAAAAAQAAAAAAAAACAAAAAAAAAACAAAAAQAAAAAAAAACAAAAAAAAAFQAAAAAAAAAAAAQAA==
        776t3g3wrd5FoYg9/AWpPKWbxDsK16M8AAAAAAAAAAAAAIA/AAAAAAAAAAAAAAAAnNEHMwAAgD8AAAAAzMxMPQAAAAAAAAAAAAAAAAAAgD7YiZ09
        AAAQAAAA
      >
      FLOATPOS 0 0 0 0
      FXID {C1204D6A-E986-C3F8-8EE8-46DE17FAE556}
      WAK 0 0
      BYPASS 0 0 0
      <VST "VST: ReaDelay (Cockos)" readelay.vst.so 0 "" 1919247468<5653547265646C72656164656C617900> ""
        bGRlcu5e7f4CAAAAAQAAAAAAAAACAAAAAAAAAAIAAAABAAAAAAAAAAIAAAAAAAAA/AAAAAEAAAAAAAAA
        AAAAAAAAAAAFAAAALAAAAAIAAAAEAAAAAACAPwAAgD8AAAAAAACAPwAAAAAAAIA7vTeGNQAAgD8AAAAAAACAPwAAgD8AAIA/AAAAAAAAAAAAAIA/AAAAAAAAADwAAAAA
        AACAPwAAAAAAAIA/AACAP+87NT8AAIA/AAAAAAAAgD8AAAAAAABAPL03hjUAAIA/AAAAAAAAgD8AAIA/zk0AP6abhD4AAAAAAACAPwAAAAAAAIA8vTeGNQAAgD8AAAAA
        AACAPwAAgD8aqrU+pHA9PwAAAAAAAIA/AAAAAAAAoDy9N4Y1AACAPwAAAAAAAIA/AACAP/npAD4AAAA/
        AHN0b2NrIC0gYmFzaWMgNSB0YXAgcGluZyBwb25nAAAAAAA=
      >
      PRESETNAME "stock - basic 5 tap ping pong"
      FLOATPOS 0 0 0 0
      FXID {97936E6D-3EFF-47D3-96A1-CBB442A8AAD4}
      WAK 0 0
      BYPASS 0 0 0
      <VST "VST: ReaVerb (Cockos)" reaverb.vst.so 0 "" 1919252066<56535472657662726561766572620000> ""
        YnZlcu5e7f4CAAAAAQAAAAAAAAACAAAAAAAAAAIAAAABAAAAAAAAAAIAAAAAAAAAcAAAAAEAAAAAAAAA
        AAAAwcybgD4AAIA/AAAAAAAAgD8AAIA/AAAAPwAAgD8AAAAAVkVSQkdFTgAYAAAAAAAAAJHgV0QdrLRA3rK7QsHIjEIAAIC/RUNIT0dFTgAcAAAAy/i2QLUjdUJdzdM/
        osdfP5lRrzyRzYxAnMQAPw==
        AHN3ZWV0dmVyYm8AAAAAAA==
      >
      PRESETNAME sweetverbo
      FLOATPOS 0 0 0 0
      FXID {F0FAA873-F762-1D78-4528-8ED50D2069C0}
      WAK 0 0
    >
    <ITEM
      POSITION 0
      SNAPOFFS 0
      LENGTH 8
      LOOP 1
      ALLTAKES 0
      FADEIN 1 0 0 1 0 0
      FADEOUT 1 0 0 1 0 0
      MUTE 0
      SEL 1
      IGUID {FF8C3163-271A-E353-F5AF-19C7D9AF3AD6}
      IID 10
      NAME "01-Recorded MIDI"
      VOLPAN 1 0 1 -1
      SOFFS 0 0
      PLAYRATE 1 1 0 -1 0 0.0021
      CHANMODE 0
      GUID {5BB5186D-2A41-7169-55BB-4A9C0DA30714}
      RECPASS 1
      <SOURCE MIDI
        HASDATA 1 960 QN
        CCINTERP 32
        POOLEDEVTS {8F8E41C9-E0B9-7A3D-64C2-C2355D5F5FA8}
        E 0 90 3c 48
        E 0 90 40 48
        E 0 90 43 48
        E 1920 80 3c 00
        E 0 80 40 00
        E 0 80 43 00
        E 0 90 3c 48
        E 0 90 40 48
        E 0 90 43 48
        E 260 80 3c 00
        E 0 80 40 00
        E 0 80 43 00
        E 440 90 3c 48
        E 0 90 40 48
        E 0 90 43 48
        E 260 80 3c 00
        E 0 80 40 00
        E 0 80 43 00
        e 514 90 3c 48
        e 0 90 40 48
        e 0 90 43 48
        e 260 80 3c 00
        e 0 80 40 00
        e 0 80 43 00
        E 186 90 43 48
        E 0 90 47 48
        E 20 90 40 48
        E 1900 80 43 00
        E 0 80 47 00
        E 0 80 40 00
        E 0 90 43 48
        E 0 90 47 48
        E 20 90 40 48
        E 240 80 43 00
        E 0 80 47 00
        E 0 80 40 00
        E 440 90 43 48
        E 0 90 47 48
        E 20 90 40 48
        E 240 80 43 00
        E 0 80 47 00
        E 0 80 40 00
        e 514 90 43 48
        e 0 90 47 48
        e 20 90 40 48
        e 240 80 43 00
        e 0 80 47 00
        e 0 80 40 00
        E 186 90 41 48
        E 0 90 45 48
        E 0 90 48 48
        E 1920 80 41 00
        E 0 80 45 00
        E 0 80 48 00
        E 0 90 41 48
        E 0 90 45 48
        E 0 90 48 48
        E 260 80 41 00
        E 0 80 45 00
        E 0 80 48 00
        E 440 90 41 48
        E 0 90 45 48
        E 0 90 48 48
        E 260 80 41 00
        E 0 80 45 00
        E 0 80 48 00
        e 514 90 41 48
        e 0 90 45 48
        e 0 90 48 48
        e 260 80 41 00
        e 0 80 45 00
        e 0 80 48 00
        E 162 90 3e 48
        E 24 90 41 48
        E 0 90 45 48
        E 1896 90 3e 48
        E 24 80 3e 00
        E 0 80 41 00
        E 0 80 45 00
        E 0 90 41 48
        E 0 90 45 48
        E 260 80 3e 00
        E 0 80 41 00
        E 0 80 45 00
        E 416 90 3e 48
        E 24 90 41 48
        E 0 90 45 48
        E 260 80 3e 00
        E 0 80 41 00
        E 0 80 45 00
        e 490 90 3e 48
        e 24 90 41 48
        e 0 90 45 48
        e 260 80 3e 00
        e 0 80 41 00
        e 0 80 45 00
        E 186 b0 7b 00
        CHASE_CC_TAKEOFFS 1
        GUID {7B9D708B-43E1-C8D4-C4B3-87E2A6C27801}
        IGNTEMPO 0 120 4 4
        SRCCOLOR 17
        VELLANE -1 100 0
        CFGEDITVIEW 0 0.045808 45 12 0 -1 0 0 0 0.5
        KEYSNAP 0
        TRACKSEL 0
        EVTFILTER 0 -1 -1 -1 -1 0 0 0 0 -1 -1 -1 -1 0 -1 0 -1 -1
        CFGEDIT 1 1 0 1 0 0 1 1 1 1 1 1 58 171 1253 866 0 0 0 0 0.25 0 0 0 0 0.5 0 0 1 64
      >
    >
    <ITEM
      POSITION 8
      SNAPOFFS 0
      LENGTH 8
      LOOP 1
      ALLTAKES 0
      FADEIN 1 0 0 1 0 0
      FADEOUT 1 0 0 1 0 0
      MUTE 0
      SEL 1
      IGUID {58B716BD-745D-48CD-D16C-07F0869E4D3A}
      IID 11
      NAME "01-Recorded MIDI"
      VOLPAN 1 0 1 -1
      SOFFS 0 0
      PLAYRATE 1 1 0 -1 0 0.0021
      CHANMODE 0
      GUID {C224BDD2-C808-9464-70C1-95802243B3F9}
      RECPASS 1
      <SOURCE MIDI
        HASDATA 1 960 QN
        CCINTERP 32
        POOLEDEVTS {D7E8D4C3-D2C4-C6CC-AC09-CBEE960A9770}
        E 0 90 3c 48
        E 0 90 40 48
        E 0 90 43 48
        E 1920 80 3c 00
        E 0 80 40 00
        E 0 80 43 00
        E 0 90 3c 48
        E 0 90 40 48
        E 0 90 43 48
        E 260 80 3c 00
        E 0 80 40 00
        E 0 80 43 00
        E 440 90 3c 48
        E 0 90 40 48
        E 0 90 43 48
        E 260 80 3c 00
        E 0 80 40 00
        E 0 80 43 00
        e 514 90 3c 48
        e 0 90 40 48
        e 0 90 43 48
        e 260 80 3c 00
        e 0 80 40 00
        e 0 80 43 00
        E 186 90 43 48
        E 0 90 47 48
        E 20 90 40 48
        E 1900 80 43 00
        E 0 80 47 00
        E 0 80 40 00
        E 0 90 43 48
        E 0 90 47 48
        E 20 90 40 48
        E 240 80 43 00
        E 0 80 47 00
        E 0 80 40 00
        E 440 90 43 48
        E 0 90 47 48
        E 20 90 40 48
        E 240 80 43 00
        E 0 80 47 00
        E 0 80 40 00
        e 514 90 43 48
        e 0 90 47 48
        e 20 90 40 48
        e 240 80 43 00
        e 0 80 47 00
        e 0 80 40 00
        E 186 90 41 48
        E 0 90 45 48
        E 0 90 48 48
        E 1920 80 41 00
        E 0 80 45 00
        E 0 80 48 00
        E 0 90 41 48
        E 0 90 45 48
        E 0 90 48 48
        E 260 80 41 00
        E 0 80 45 00
        E 0 80 48 00
        E 440 90 41 48
        E 0 90 45 48
        E 0 90 48 48
        E 260 80 41 00
        E 0 80 45 00
        E 0 80 48 00
        e 514 90 41 48
        e 0 90 45 48
        e 0 90 48 48
        e 260 80 41 00
        e 0 80 45 00
        e 0 80 48 00
        E 162 90 3e 48
        E 24 90 41 48
        E 0 90 45 48
        E 1896 90 3e 48
        E 24 80 3e 00
        E 0 80 41 00
        E 0 80 45 00
        E 0 90 41 48
        E 0 90 45 48
        E 260 80 3e 00
        E 0 80 41 00
        E 0 80 45 00
        E 416 90 3e 48
        E 24 90 41 48
        E 0 90 45 48
        E 260 80 3e 00
        E 0 80 41 00
        E 0 80 45 00
        e 490 90 3e 48
        e 24 90 41 48
        e 0 90 45 48
        e 260 80 3e 00
        e 0 80 41 00
        e 0 80 45 00
        E 186 b0 7b 00
        CHASE_CC_TAKEOFFS 1
        GUID {3131B4E2-B370-E352-A9C5-C8CA31551A86}
        IGNTEMPO 0 120 4 4
        SRCCOLOR 18
        VELLANE -1 100 0
        CFGEDITVIEW 0 0.045808 45 12 0 -1 0 0 0 0.5
        KEYSNAP 0
        TRACKSEL 0
        EVTFILTER 0 -1 -1 -1 -1 0 0 0 0 -1 -1 -1 -1 0 -1 0 -1 -1
        CFGEDIT 1 1 0 1 0 0 1 1 1 1 1 1 58 171 1253 866 0 0 0 0 0.25 0 0 0 0 0.5 0 0 1 64
      >
    >
    <ITEM
      POSITION 16
      SNAPOFFS 0
      LENGTH 8
      LOOP 1
      ALLTAKES 0
      FADEIN 1 0 0 1 0 0
      FADEOUT 1 0 0 1 0 0
      MUTE 0
      SEL 1
      IGUID {917214A2-A443-FD9C-5613-B05037F05F13}
      IID 12
      NAME "01-Recorded MIDI"
      VOLPAN 1 0 1 -1
      SOFFS 0 0
      PLAYRATE 1 1 0 -1 0 0.0021
      CHANMODE 0
      GUID {6122CF8D-FEF6-4ABD-426A-BBF9304BB179}
      RECPASS 1
      <SOURCE MIDI
        HASDATA 1 960 QN
        CCINTERP 32
        POOLEDEVTS {4A0F5566-B38C-8AB4-06F8-F1507BDCE4A7}
        E 0 90 3c 48
        E 0 90 40 48
        E 0 90 43 48
        E 1920 80 3c 00
        E 0 80 40 00
        E 0 80 43 00
        E 0 90 3c 48
        E 0 90 40 48
        E 0 90 43 48
        E 260 80 3c 00
        E 0 80 40 00
        E 0 80 43 00
        E 440 90 3c 48
        E 0 90 40 48
        E 0 90 43 48
        E 260 80 3c 00
        E 0 80 40 00
        E 0 80 43 00
        e 514 90 3c 48
        e 0 90 40 48
        e 0 90 43 48
        e 260 80 3c 00
        e 0 80 40 00
        e 0 80 43 00
        E 186 90 43 48
        E 0 90 47 48
        E 20 90 40 48
        E 1900 80 43 00
        E 0 80 47 00
        E 0 80 40 00
        E 0 90 43 48
        E 0 90 47 48
        E 20 90 40 48
        E 240 80 43 00
        E 0 80 47 00
        E 0 80 40 00
        E 440 90 43 48
        E 0 90 47 48
        E 20 90 40 48
        E 240 80 43 00
        E 0 80 47 00
        E 0 80 40 00
        e 514 90 43 48
        e 0 90 47 48
        e 20 90 40 48
        e 240 80 43 00
        e 0 80 47 00
        e 0 80 40 00
        E 186 90 41 48
        E 0 90 45 48
        E 0 90 48 48
        E 1920 80 41 00
        E 0 80 45 00
        E 0 80 48 00
        E 0 90 41 48
        E 0 90 45 48
        E 0 90 48 48
        E 260 80 41 00
        E 0 80 45 00
        E 0 80 48 00
        E 440 90 41 48
        E 0 90 45 48
        E 0 90 48 48
        E 260 80 41 00
        E 0 80 45 00
        E 0 80 48 00
        e 514 90 41 48
        e 0 90 45 48
        e 0 90 48 48
        e 260 80 41 00
        e 0 80 45 00
        e 0 80 48 00
        E 162 90 3e 48
        E 24 90 41 48
        E 0 90 45 48
        E 1896 90 3e 48
        E 24 80 3e 00
        E 0 80 41 00
        E 0 80 45 00
        E 0 90 41 48
        E 0 90 45 48
        E 260 80 3e 00
        E 0 80 41 00
        E 0 80 45 00
        E 416 90 3e 48
        E 24 90 41 48
        E 0 90 45 48
        E 260 80 3e 00
        E 0 80 41 00
        E 0 80 45 00
        e 490 90 3e 48
        e 24 90 41 48
        e 0 90 45 48
        e 260 80 3e 00
        e 0 80 41 00
        e 0 80 45 00
        E 186 b0 7b 00
        CHASE_CC_TAKEOFFS 1
        GUID {48C567A2-895C-FB9B-FDBA-0ADB7004ABF3}
        IGNTEMPO 0 120 4 4
        SRCCOLOR 19
        VELLANE -1 100 0
        CFGEDITVIEW 0 0.045808 45 12 0 -1 0 0 0 0.5
        KEYSNAP 0
        TRACKSEL 0
        EVTFILTER 0 -1 -1 -1 -1 0 0 0 0 -1 -1 -1 -1 0 -1 0 -1 -1
        CFGEDIT 1 1 0 1 0 0 1 1 1 1 1 1 58 171 1253 866 0 0 0 0 0.25 0 0 0 0 0.5 0 0 1 64
      >
    >
    <ITEM
      POSITION 24
      SNAPOFFS 0
      LENGTH 8
      LOOP 1
      ALLTAKES 0
      FADEIN 1 0 0 1 0 0
      FADEOUT 1 0 0 1 0 0
      MUTE 0
      SEL 1
      IGUID {19749E2E-5ECD-A07C-CE67-D20B529C4F4C}
      IID 13
      NAME "01-Recorded MIDI"
      VOLPAN 1 0 1 -1
      SOFFS 0 0
      PLAYRATE 1 1 0 -1 0 0.0021
      CHANMODE 0
      GUID {51D2BC87-B7FD-B58B-CD73-8116C0ED0548}
      RECPASS 1
      <SOURCE MIDI
        HASDATA 1 960 QN
        CCINTERP 32
        POOLEDEVTS {D1DB519D-7D4F-FA6A-6C64-A1081742A455}
        E 0 90 3c 48
        E 0 90 40 48
        E 0 90 43 48
        E 1920 80 3c 00
        E 0 80 40 00
        E 0 80 43 00
        E 0 90 3c 48
        E 0 90 40 48
        E 0 90 43 48
        E 260 80 3c 00
        E 0 80 40 00
        E 0 80 43 00
        E 440 90 3c 48
        E 0 90 40 48
        E 0 90 43 48
        E 260 80 3c 00
        E 0 80 40 00
        E 0 80 43 00
        e 514 90 3c 48
        e 0 90 40 48
        e 0 90 43 48
        e 260 80 3c 00
        e 0 80 40 00
        e 0 80 43 00
        E 186 90 43 48
        E 0 90 47 48
        E 20 90 40 48
        E 1900 80 43 00
        E 0 80 47 00
        E 0 80 40 00
        E 0 90 43 48
        E 0 90 47 48
        E 20 90 40 48
        E 240 80 43 00
        E 0 80 47 00
        E 0 80 40 00
        E 440 90 43 48
        E 0 90 47 48
        E 20 90 40 48
        E 240 80 43 00
        E 0 80 47 00
        E 0 80 40 00
        e 514 90 43 48
        e 0 90 47 48
        e 20 90 40 48
        e 240 80 43 00
        e 0 80 47 00
        e 0 80 40 00
        E 186 90 41 48
        E 0 90 45 48
        E 0 90 48 48
        E 1920 80 41 00
        E 0 80 45 00
        E 0 80 48 00
        E 0 90 41 48
        E 0 90 45 48
        E 0 90 48 48
        E 260 80 41 00
        E 0 80 45 00
        E 0 80 48 00
        E 440 90 41 48
        E 0 90 45 48
        E 0 90 48 48
        E 260 80 41 00
        E 0 80 45 00
        E 0 80 48 00
        e 514 90 41 48
        e 0 90 45 48
        e 0 90 48 48
        e 260 80 41 00
        e 0 80 45 00
        e 0 80 48 00
        E 162 90 3e 48
        E 24 90 41 48
        E 0 90 45 48
        E 1896 90 3e 48
        E 24 80 3e 00
        E 0 80 41 00
        E 0 80 45 00
        E 0 90 41 48
        E 0 90 45 48
        E 260 80 3e 00
        E 0 80 41 00
        E 0 80 45 00
        E 416 90 3e 48
        E 24 90 41 48
        E 0 90 45 48
        E 260 80 3e 00
        E 0 80 41 00
        E 0 80 45 00
        e 490 90 3e 48
        e 24 90 41 48
        e 0 90 45 48
        e 260 80 3e 00
        e 0 80 41 00
        e 0 80 45 00
        E 186 b0 7b 00
        CHASE_CC_TAKEOFFS 1
        GUID {1DE38800-E2A1-41B5-9C8C-3291891093B1}
        IGNTEMPO 0 120 4 4
        SRCCOLOR 20
        VELLANE -1 100 0
        CFGEDITVIEW 0 0.045808 45 12 0 -1 0 0 0 0.5
        KEYSNAP 0
        TRACKSEL 0
        EVTFILTER 0 -1 -1 -1 -1 0 0 0 0 -1 -1 -1 -1 0 -1 0 -1 -1
        CFGEDIT 1 1 0 1 0 0 1 1 1 1 1 1 58 171 1253 866 0 0 0 0 0.25 0 0 0 0 0.5 0 0 1 64
      >
    >
    <ITEM
      POSITION 32
      SNAPOFFS 0
      LENGTH 8
      LOOP 1
      ALLTAKES 0
      FADEIN 1 0 0 1 0 0
      FADEOUT 1 0 0 1 0 0
      MUTE 0
      SEL 1
      IGUID {EC937347-6746-15D1-63DC-9DBE421E0AEB}
      IID 14
      NAME "01-Recorded MIDI"
      VOLPAN 1 0 1 -1
      SOFFS 0 0
      PLAYRATE 1 1 0 -1 0 0.0021
      CHANMODE 0
      GUID {2B02CAC0-4423-B8DE-B98A-8E964F33B43D}
      RECPASS 1
      <SOURCE MIDI
        HASDATA 1 960 QN
        CCINTERP 32
        POOLEDEVTS {04BCD878-5E49-8845-8220-8215B1A9B3F9}
        E 0 90 3c 48
        E 0 90 40 48
        E 0 90 43 48
        E 1920 80 3c 00
        E 0 80 40 00
        E 0 80 43 00
        E 0 90 3c 48
        E 0 90 40 48
        E 0 90 43 48
        E 260 80 3c 00
        E 0 80 40 00
        E 0 80 43 00
        E 440 90 3c 48
        E 0 90 40 48
        E 0 90 43 48
        E 260 80 3c 00
        E 0 80 40 00
        E 0 80 43 00
        e 514 90 3c 48
        e 0 90 40 48
        e 0 90 43 48
        e 260 80 3c 00
        e 0 80 40 00
        e 0 80 43 00
        E 186 90 43 48
        E 0 90 47 48
        E 20 90 40 48
        E 1900 80 43 00
        E 0 80 47 00
        E 0 80 40 00
        E 0 90 43 48
        E 0 90 47 48
        E 20 90 40 48
        E 240 80 43 00
        E 0 80 47 00
        E 0 80 40 00
        E 440 90 43 48
        E 0 90 47 48
        E 20 90 40 48
        E 240 80 43 00
        E 0 80 47 00
        E 0 80 40 00
        e 514 90 43 48
        e 0 90 47 48
        e 20 90 40 48
        e 240 80 43 00
        e 0 80 47 00
        e 0 80 40 00
        E 186 90 41 48
        E 0 90 45 48
        E 0 90 48 48
        E 1920 80 41 00
        E 0 80 45 00
        E 0 80 48 00
        E 0 90 41 48
        E 0 90 45 48
        E 0 90 48 48
        E 260 80 41 00
        E 0 80 45 00
        E 0 80 48 00
        E 440 90 41 48
        E 0 90 45 48
        E 0 90 48 48
        E 260 80 41 00
        E 0 80 45 00
        E 0 80 48 00
        e 514 90 41 48
        e 0 90 45 48
        e 0 90 48 48
        e 260 80 41 00
        e 0 80 45 00
        e 0 80 48 00
        E 162 90 3e 48
        E 24 90 41 48
        E 0 90 45 48
        E 1896 90 3e 48
        E 24 80 3e 00
        E 0 80 41 00
        E 0 80 45 00
        E 0 90 41 48
        E 0 90 45 48
        E 260 80 3e 00
        E 0 80 41 00
        E 0 80 45 00
        E 416 90 3e 48
        E 24 90 41 48
        E 0 90 45 48
        E 260 80 3e 00
        E 0 80 41 00
        E 0 80 45 00
        e 490 90 3e 48
        e 24 90 41 48
        e 0 90 45 48
        e 260 80 3e 00
        e 0 80 41 00
        e 0 80 45 00
        E 186 b0 7b 00
        CHASE_CC_TAKEOFFS 1
        GUID {0C3271F4-E233-9088-9B25-A722FAE7C579}
        IGNTEMPO 0 120 4 4
        SRCCOLOR 21
        VELLANE -1 100 0
        CFGEDITVIEW 0 0.045808 45 12 0 -1 0 0 0 0.5
        KEYSNAP 0
        TRACKSEL 0
        EVTFILTER 0 -1 -1 -1 -1 0 0 0 0 -1 -1 -1 -1 0 -1 0 -1 -1
        CFGEDIT 1 1 0 1 0 0 1 1 1 1 1 1 58 171 1253 866 0 0 0 0 0.25 0 0 0 0 0.5 0 0 1 64
      >
    >
    <ITEM
      POSITION 40
      SNAPOFFS 0
      LENGTH 8
      LOOP 1
      ALLTAKES 0
      FADEIN 1 0 0 1 0 0
      FADEOUT 1 0 0 1 0 0
      MUTE 0
      SEL 1
      IGUID {648457C0-CB91-E1BA-644C-15233E14E4E1}
      IID 15
      NAME "01-Recorded MIDI"
      VOLPAN 1 0 1 -1
      SOFFS 0 0
      PLAYRATE 1 1 0 -1 0 0.0021
      CHANMODE 0
      GUID {E1CFA928-0401-3EC8-F374-6F2EEC1BABCE}
      RECPASS 1
      <SOURCE MIDI
        HASDATA 1 960 QN
        CCINTERP 32
        POOLEDEVTS {7103C51D-8E98-7E8F-8778-0EC80B8AA019}
        E 0 90 3c 48
        E 0 90 40 48
        E 0 90 43 48
        E 1920 80 3c 00
        E 0 80 40 00
        E 0 80 43 00
        E 0 90 3c 48
        E 0 90 40 48
        E 0 90 43 48
        E 260 80 3c 00
        E 0 80 40 00
        E 0 80 43 00
        E 440 90 3c 48
        E 0 90 40 48
        E 0 90 43 48
        E 260 80 3c 00
        E 0 80 40 00
        E 0 80 43 00
        e 514 90 3c 48
        e 0 90 40 48
        e 0 90 43 48
        e 260 80 3c 00
        e 0 80 40 00
        e 0 80 43 00
        E 186 90 43 48
        E 0 90 47 48
        E 20 90 40 48
        E 1900 80 43 00
        E 0 80 47 00
        E 0 80 40 00
        E 0 90 43 48
        E 0 90 47 48
        E 20 90 40 48
        E 240 80 43 00
        E 0 80 47 00
        E 0 80 40 00
        E 440 90 43 48
        E 0 90 47 48
        E 20 90 40 48
        E 240 80 43 00
        E 0 80 47 00
        E 0 80 40 00
        e 514 90 43 48
        e 0 90 47 48
        e 20 90 40 48
        e 240 80 43 00
        e 0 80 47 00
        e 0 80 40 00
        E 186 90 41 48
        E 0 90 45 48
        E 0 90 48 48
        E 1920 80 41 00
        E 0 80 45 00
        E 0 80 48 00
        E 0 90 41 48
        E 0 90 45 48
        E 0 90 48 48
        E 260 80 41 00
        E 0 80 45 00
        E 0 80 48 00
        E 440 90 41 48
        E 0 90 45 48
        E 0 90 48 48
        E 260 80 41 00
        E 0 80 45 00
        E 0 80 48 00
        e 514 90 41 48
        e 0 90 45 48
        e 0 90 48 48
        e 260 80 41 00
        e 0 80 45 00
        e 0 80 48 00
        E 162 90 3e 48
        E 24 90 41 48
        E 0 90 45 48
        E 1896 90 3e 48
        E 24 80 3e 00
        E 0 80 41 00
        E 0 80 45 00
        E 0 90 41 48
        E 0 90 45 48
        E 260 80 3e 00
        E 0 80 41 00
        E 0 80 45 00
        E 416 90 3e 48
        E 24 90 41 48
        E 0 90 45 48
        E 260 80 3e 00
        E 0 80 41 00
        E 0 80 45 00
        e 490 90 3e 48
        e 24 90 41 48
        e 0 90 45 48
        e 260 80 3e 00
        e 0 80 41 00
        e 0 80 45 00
        E 186 b0 7b 00
        CHASE_CC_TAKEOFFS 1
        GUID {040E7AF8-3572-5D91-3C86-797AEE7444D4}
        IGNTEMPO 0 120 4 4
        SRCCOLOR 22
        VELLANE -1 100 0
        CFGEDITVIEW 0 0.045808 45 12 0 -1 0 0 0 0.5
        KEYSNAP 0
        TRACKSEL 0
        EVTFILTER 0 -1 -1 -1 -1 0 0 0 0 -1 -1 -1 -1 0 -1 0 -1 -1
        CFGEDIT 1 1 0 1 0 0 1 1 1 1 1 1 58 171 1253 866 0 0 0 0 0.25 0 0 0 0 0.5 0 0 1 64
      >
    >
    <ITEM
      POSITION 48
      SNAPOFFS 0
      LENGTH 8
      LOOP 1
      ALLTAKES 0
      FADEIN 1 0 0 1 0 0
      FADEOUT 1 0 0 1 0 0
      MUTE 0
      SEL 1
      IGUID {E2B0E09E-B203-CEE4-7173-FB75DEB4E02A}
      IID 16
      NAME "01-Recorded MIDI"
      VOLPAN 1 0 1 -1
      SOFFS 0 0
      PLAYRATE 1 1 0 -1 0 0.0021
      CHANMODE 0
      GUID {E810B937-BDFA-B0F3-D013-363303B89D9E}
      RECPASS 1
      <SOURCE MIDI
        HASDATA 1 960 QN
        CCINTERP 32
        POOLEDEVTS {020E5D05-58AE-5F0A-C5FC-00B81F9AFACF}
        E 0 90 3c 48
        E 0 90 40 48
        E 0 90 43 48
        E 1920 80 3c 00
        E 0 80 40 00
        E 0 80 43 00
        E 0 90 3c 48
        E 0 90 40 48
        E 0 90 43 48
        E 260 80 3c 00
        E 0 80 40 00
        E 0 80 43 00
        E 440 90 3c 48
        E 0 90 40 48
        E 0 90 43 48
        E 260 80 3c 00
        E 0 80 40 00
        E 0 80 43 00
        e 514 90 3c 48
        e 0 90 40 48
        e 0 90 43 48
        e 260 80 3c 00
        e 0 80 40 00
        e 0 80 43 00
        E 186 90 43 48
        E 0 90 47 48
        E 20 90 40 48
        E 1900 80 43 00
        E 0 80 47 00
        E 0 80 40 00
        E 0 90 43 48
        E 0 90 47 48
        E 20 90 40 48
        E 240 80 43 00
        E 0 80 47 00
        E 0 80 40 00
        E 440 90 43 48
        E 0 90 47 48
        E 20 90 40 48
        E 240 80 43 00
        E 0 80 47 00
        E 0 80 40 00
        e 514 90 43 48
        e 0 90 47 48
        e 20 90 40 48
        e 240 80 43 00
        e 0 80 47 00
        e 0 80 40 00
        E 186 90 41 48
        E 0 90 45 48
        E 0 90 48 48
        E 1920 80 41 00
        E 0 80 45 00
        E 0 80 48 00
        E 0 90 41 48
        E 0 90 45 48
        E 0 90 48 48
        E 260 80 41 00
        E 0 80 45 00
        E 0 80 48 00
        E 440 90 41 48
        E 0 90 45 48
        E 0 90 48 48
        E 260 80 41 00
        E 0 80 45 00
        E 0 80 48 00
        e 514 90 41 48
        e 0 90 45 48
        e 0 90 48 48
        e 260 80 41 00
        e 0 80 45 00
        e 0 80 48 00
        E 162 90 3e 48
        E 24 90 41 48
        E 0 90 45 48
        E 1896 90 3e 48
        E 24 80 3e 00
        E 0 80 41 00
        E 0 80 45 00
        E 0 90 41 48
        E 0 90 45 48
        E 260 80 3e 00
        E 0 80 41 00
        E 0 80 45 00
        E 416 90 3e 48
        E 24 90 41 48
        E 0 90 45 48
        E 260 80 3e 00
        E 0 80 41 00
        E 0 80 45 00
        e 490 90 3e 48
        e 24 90 41 48
        e 0 90 45 48
        e 260 80 3e 00
        e 0 80 41 00
        e 0 80 45 00
        E 186 b0 7b 00
        CHASE_CC_TAKEOFFS 1
        GUID {2338968B-6CF9-9F40-300F-DEB89D3392EA}
        IGNTEMPO 0 120 4 4
        SRCCOLOR 23
        VELLANE -1 100 0
        CFGEDITVIEW 0 0.045808 45 12 0 -1 0 0 0 0.5
        KEYSNAP 0
        TRACKSEL 0
        EVTFILTER 0 -1 -1 -1 -1 0 0 0 0 -1 -1 -1 -1 0 -1 0 -1 -1
        CFGEDIT 1 1 0 1 0 0 1 1 1 1 1 1 58 171 1253 866 0 0 0 0 0.25 0 0 0 0 0.5 0 0 1 64
      >
    >
    <ITEM
      POSITION 56
      SNAPOFFS 0
      LENGTH 8
      LOOP 1
      ALLTAKES 0
      FADEIN 1 0 0 1 0 0
      FADEOUT 1 0 0 1 0 0
      MUTE 0
      SEL 1
      IGUID {E85E755A-7BA6-E125-5A86-BDD9F11BF5F4}
      IID 17
      NAME "01-Recorded MIDI"
      VOLPAN 1 0 1 -1
      SOFFS 0 0
      PLAYRATE 1 1 0 -1 0 0.0021
      CHANMODE 0
      GUID {E7316FD7-AE32-687E-1CEF-A52C5EFB18C4}
      RECPASS 1
      <SOURCE MIDI
        HASDATA 1 960 QN
        CCINTERP 32
        POOLEDEVTS {B453988B-72A7-26C3-9669-B0AADF389823}
        E 0 90 3c 48
        E 0 90 40 48
        E 0 90 43 48
        E 1920 80 3c 00
        E 0 80 40 00
        E 0 80 43 00
        E 0 90 3c 48
        E 0 90 40 48
        E 0 90 43 48
        E 260 80 3c 00
        E 0 80 40 00
        E 0 80 43 00
        E 440 90 3c 48
        E 0 90 40 48
        E 0 90 43 48
        E 260 80 3c 00
        E 0 80 40 00
        E 0 80 43 00
        e 514 90 3c 48
        e 0 90 40 48
        e 0 90 43 48
        e 260 80 3c 00
        e 0 80 40 00
        e 0 80 43 00
        E 186 90 43 48
        E 0 90 47 48
        E 20 90 40 48
        E 1900 80 43 00
        E 0 80 47 00
        E 0 80 40 00
        E 0 90 43 48
        E 0 90 47 48
        E 20 90 40 48
        E 240 80 43 00
        E 0 80 47 00
        E 0 80 40 00
        E 440 90 43 48
        E 0 90 47 48
        E 20 90 40 48
        E 240 80 43 00
        E 0 80 47 00
        E 0 80 40 00
        e 514 90 43 48
        e 0 90 47 48
        e 20 90 40 48
        e 240 80 43 00
        e 0 80 47 00
        e 0 80 40 00
        E 186 90 41 48
        E 0 90 45 48
        E 0 90 48 48
        E 1920 80 41 00
        E 0 80 45 00
        E 0 80 48 00
        E 0 90 41 48
        E 0 90 45 48
        E 0 90 48 48
        E 260 80 41 00
        E 0 80 45 00
        E 0 80 48 00
        E 440 90 41 48
        E 0 90 45 48
        E 0 90 48 48
        E 260 80 41 00
        E 0 80 45 00
        E 0 80 48 00
        e 514 90 41 48
        e 0 90 45 48
        e 0 90 48 48
        e 260 80 41 00
        e 0 80 45 00
        e 0 80 48 00
        E 162 90 3e 48
        E 24 90 41 48
        E 0 90 45 48
        E 1896 90 3e 48
        E 24 80 3e 00
        E 0 80 41 00
        E 0 80 45 00
        E 0 90 41 48
        E 0 90 45 48
        E 260 80 3e 00
        E 0 80 41 00
        E 0 80 45 00
        E 416 90 3e 48
        E 24 90 41 48
        E 0 90 45 48
        E 260 80 3e 00
        E 0 80 41 00
        E 0 80 45 00
        e 490 90 3e 48
        e 24 90 41 48
        e 0 90 45 48
        e 260 80 3e 00
        e 0 80 41 00
        e 0 80 45 00
        E 186 b0 7b 00
        CHASE_CC_TAKEOFFS 1
        GUID {A64857E2-94F8-0990-20DF-4C1E9B5E6251}
        IGNTEMPO 0 120 4 4
        SRCCOLOR 24
        VELLANE -1 100 0
        CFGEDITVIEW 0 0.045808 45 12 0 -1 0 0 0 0.5
        KEYSNAP 0
        TRACKSEL 0
        EVTFILTER 0 -1 -1 -1 -1 0 0 0 0 -1 -1 -1 -1 0 -1 0 -1 -1
        CFGEDIT 1 1 0 1 0 0 1 1 1 1 1 1 58 171 1253 866 0 0 0 0 0.25 0 0 0 0 0.5 0 0 1 64
      >
    >
    <ITEM
      POSITION 64
      SNAPOFFS 0
      LENGTH 8
      LOOP 1
      ALLTAKES 0
      FADEIN 1 0 0 1 0 0
      FADEOUT 1 0 0 1 0 0
      MUTE 0
      SEL 1
      IGUID {35126DB0-C6D9-2DA4-D3AE-29E5BB0CA966}
      IID 18
      NAME "01-Recorded MIDI"
      VOLPAN 1 0 1 -1
      SOFFS 0 0
      PLAYRATE 1 1 0 -1 0 0.0021
      CHANMODE 0
      GUID {ECA01AC2-64E0-BA80-5BED-CBE0920A2515}
      RECPASS 1
      <SOURCE MIDI
        HASDATA 1 960 QN
        CCINTERP 32
        POOLEDEVTS {689EDED2-1592-62F1-D296-C29BB3202908}
        E 0 90 3c 48
        E 0 90 40 48
        E 0 90 43 48
        E 1920 80 3c 00
        E 0 80 40 00
        E 0 80 43 00
        E 0 90 3c 48
        E 0 90 40 48
        E 0 90 43 48
        E 260 80 3c 00
        E 0 80 40 00
        E 0 80 43 00
        E 440 90 3c 48
        E 0 90 40 48
        E 0 90 43 48
        E 260 80 3c 00
        E 0 80 40 00
        E 0 80 43 00
        e 514 90 3c 48
        e 0 90 40 48
        e 0 90 43 48
        e 260 80 3c 00
        e 0 80 40 00
        e 0 80 43 00
        E 186 90 43 48
        E 0 90 47 48
        E 20 90 40 48
        E 1900 80 43 00
        E 0 80 47 00
        E 0 80 40 00
        E 0 90 43 48
        E 0 90 47 48
        E 20 90 40 48
        E 240 80 43 00
        E 0 80 47 00
        E 0 80 40 00
        E 440 90 43 48
        E 0 90 47 48
        E 20 90 40 48
        E 240 80 43 00
        E 0 80 47 00
        E 0 80 40 00
        e 514 90 43 48
        e 0 90 47 48
        e 20 90 40 48
        e 240 80 43 00
        e 0 80 47 00
        e 0 80 40 00
        E 186 90 41 48
        E 0 90 45 48
        E 0 90 48 48
        E 1920 80 41 00
        E 0 80 45 00
        E 0 80 48 00
        E 0 90 41 48
        E 0 90 45 48
        E 0 90 48 48
        E 260 80 41 00
        E 0 80 45 00
        E 0 80 48 00
        E 440 90 41 48
        E 0 90 45 48
        E 0 90 48 48
        E 260 80 41 00
        E 0 80 45 00
        E 0 80 48 00
        e 514 90 41 48
        e 0 90 45 48
        e 0 90 48 48
        e 260 80 41 00
        e 0 80 45 00
        e 0 80 48 00
        E 162 90 3e 48
        E 24 90 41 48
        E 0 90 45 48
        E 1896 90 3e 48
        E 24 80 3e 00
        E 0 80 41 00
        E 0 80 45 00
        E 0 90 41 48
        E 0 90 45 48
        E 260 80 3e 00
        E 0 80 41 00
        E 0 80 45 00
        E 416 90 3e 48
        E 24 90 41 48
        E 0 90 45 48
        E 260 80 3e 00
        E 0 80 41 00
        E 0 80 45 00
        e 490 90 3e 48
        e 24 90 41 48
        e 0 90 45 48
        e 260 80 3e 00
        e 0 80 41 00
        e 0 80 45 00
        E 186 b0 7b 00
        CHASE_CC_TAKEOFFS 1
        GUID {19362806-85F2-5D9E-E1F9-07BE0CF3D16E}
        IGNTEMPO 0 120 4 4
        SRCCOLOR 25
        VELLANE -1 100 0
        CFGEDITVIEW 0 0.045808 45 12 0 -1 0 0 0 0.5
        KEYSNAP 0
        TRACKSEL 0
        EVTFILTER 0 -1 -1 -1 -1 0 0 0 0 -1 -1 -1 -1 0 -1 0 -1 -1
        CFGEDIT 1 1 0 1 0 0 1 1 1 1 1 1 58 171 1253 866 0 0 0 0 0.25 0 0 0 0 0.5 0 0 1 64
      >
    >
    <ITEM
      POSITION 72
      SNAPOFFS 0
      LENGTH 8
      LOOP 1
      ALLTAKES 0
      FADEIN 1 0 0 1 0 0
      FADEOUT 1 0 0 1 0 0
      MUTE 0
      SEL 1
      IGUID {C1D3E4B4-4597-430B-618A-AAC2C505F0BD}
      IID 19
      NAME "01-Recorded MIDI"
      VOLPAN 1 0 1 -1
      SOFFS 0 0
      PLAYRATE 1 1 0 -1 0 0.0021
      CHANMODE 0
      GUID {9C5DCCDE-D07C-2792-18D9-F51376B514EC}
      RECPASS 1
      <SOURCE MIDI
        HASDATA 1 960 QN
        CCINTERP 32
        POOLEDEVTS {24E26C7D-C825-51D8-80EA-A011A4448796}
        E 0 90 3c 48
        E 0 90 40 48
        E 0 90 43 48
        E 1920 80 3c 00
        E 0 80 40 00
        E 0 80 43 00
        E 0 90 3c 48
        E 0 90 40 48
        E 0 90 43 48
        E 260 80 3c 00
        E 0 80 40 00
        E 0 80 43 00
        E 440 90 3c 48
        E 0 90 40 48
        E 0 90 43 48
        E 260 80 3c 00
        E 0 80 40 00
        E 0 80 43 00
        e 514 90 3c 48
        e 0 90 40 48
        e 0 90 43 48
        e 260 80 3c 00
        e 0 80 40 00
        e 0 80 43 00
        E 186 90 43 48
        E 0 90 47 48
        E 20 90 40 48
        E 1900 80 43 00
        E 0 80 47 00
        E 0 80 40 00
        E 0 90 43 48
        E 0 90 47 48
        E 20 90 40 48
        E 240 80 43 00
        E 0 80 47 00
        E 0 80 40 00
        E 440 90 43 48
        E 0 90 47 48
        E 20 90 40 48
        E 240 80 43 00
        E 0 80 47 00
        E 0 80 40 00
        e 514 90 43 48
        e 0 90 47 48
        e 20 90 40 48
        e 240 80 43 00
        e 0 80 47 00
        e 0 80 40 00
        E 186 90 41 48
        E 0 90 45 48
        E 0 90 48 48
        E 1920 80 41 00
        E 0 80 45 00
        E 0 80 48 00
        E 0 90 41 48
        E 0 90 45 48
        E 0 90 48 48
        E 260 80 41 00
        E 0 80 45 00
        E 0 80 48 00
        E 440 90 41 48
        E 0 90 45 48
        E 0 90 48 48
        E 260 80 41 00
        E 0 80 45 00
        E 0 80 48 00
        e 514 90 41 48
        e 0 90 45 48
        e 0 90 48 48
        e 260 80 41 00
        e 0 80 45 00
        e 0 80 48 00
        E 162 90 3e 48
        E 24 90 41 48
        E 0 90 45 48
        E 1896 90 3e 48
        E 24 80 3e 00
        E 0 80 41 00
        E 0 80 45 00
        E 0 90 41 48
        E 0 90 45 48
        E 260 80 3e 00
        E 0 80 41 00
        E 0 80 45 00
        E 416 90 3e 48
        E 24 90 41 48
        E 0 90 45 48
        E 260 80 3e 00
        E 0 80 41 00
        E 0 80 45 00
        e 490 90 3e 48
        e 24 90 41 48
        e 0 90 45 48
        e 260 80 3e 00
        e 0 80 41 00
        e 0 80 45 00
        E 186 b0 7b 00
        CHASE_CC_TAKEOFFS 1
        GUID {6844F8A9-6BE9-023C-4A46-0A676470C99B}
        IGNTEMPO 0 120 4 4
        SRCCOLOR 26
        VELLANE -1 100 0
        CFGEDITVIEW 0 0.045808 45 12 0 -1 0 0 0 0.5
        KEYSNAP 0
        TRACKSEL 0
        EVTFILTER 0 -1 -1 -1 -1 0 0 0 0 -1 -1 -1 -1 0 -1 0 -1 -1
        CFGEDIT 1 1 0 1 0 0 1 1 1 1 1 1 58 171 1253 866 0 0 0 0 0.25 0 0 0 0 0.5 0 0 1 64
      >
    >
    <ITEM
      POSITION 80
      SNAPOFFS 0
      LENGTH 8
      LOOP 1
      ALLTAKES 0
      FADEIN 1 0 0 1 0 0
      FADEOUT 1 0 0 1 0 0
      MUTE 0
      SEL 1
      IGUID {31FD984C-1242-B09D-15E2-6C454481E005}
      IID 20
      NAME "01-Recorded MIDI"
      VOLPAN 1 0 1 -1
      SOFFS 0 0
      PLAYRATE 1 1 0 -1 0 0.0021
      CHANMODE 0
      GUID {03E68161-49F3-0D9B-079A-B9F45659216D}
      RECPASS 1
      <SOURCE MIDI
        HASDATA 1 960 QN
        CCINTERP 32
        POOLEDEVTS {A09D5792-2D5F-C01A-FF70-893499A4C91C}
        E 0 90 3c 48
        E 0 90 40 48
        E 0 90 43 48
        E 1920 80 3c 00
        E 0 80 40 00
        E 0 80 43 00
        E 0 90 3c 48
        E 0 90 40 48
        E 0 90 43 48
        E 260 80 3c 00
        E 0 80 40 00
        E 0 80 43 00
        E 440 90 3c 48
        E 0 90 40 48
        E 0 90 43 48
        E 260 80 3c 00
        E 0 80 40 00
        E 0 80 43 00
        e 514 90 3c 48
        e 0 90 40 48
        e 0 90 43 48
        e 260 80 3c 00
        e 0 80 40 00
        e 0 80 43 00
        E 186 90 43 48
        E 0 90 47 48
        E 20 90 40 48
        E 1900 80 43 00
        E 0 80 47 00
        E 0 80 40 00
        E 0 90 43 48
        E 0 90 47 48
        E 20 90 40 48
        E 240 80 43 00
        E 0 80 47 00
        E 0 80 40 00
        E 440 90 43 48
        E 0 90 47 48
        E 20 90 40 48
        E 240 80 43 00
        E 0 80 47 00
        E 0 80 40 00
        e 514 90 43 48
        e 0 90 47 48
        e 20 90 40 48
        e 240 80 43 00
        e 0 80 47 00
        e 0 80 40 00
        E 186 90 41 48
        E 0 90 45 48
        E 0 90 48 48
        E 1920 80 41 00
        E 0 80 45 00
        E 0 80 48 00
        E 0 90 41 48
        E 0 90 45 48
        E 0 90 48 48
        E 260 80 41 00
        E 0 80 45 00
        E 0 80 48 00
        E 440 90 41 48
        E 0 90 45 48
        E 0 90 48 48
        E 260 80 41 00
        E 0 80 45 00
        E 0 80 48 00
        e 514 90 41 48
        e 0 90 45 48
        e 0 90 48 48
        e 260 80 41 00
        e 0 80 45 00
        e 0 80 48 00
        E 162 90 3e 48
        E 24 90 41 48
        E 0 90 45 48
        E 1896 90 3e 48
        E 24 80 3e 00
        E 0 80 41 00
        E 0 80 45 00
        E 0 90 41 48
        E 0 90 45 48
        E 260 80 3e 00
        E 0 80 41 00
        E 0 80 45 00
        E 416 90 3e 48
        E 24 90 41 48
        E 0 90 45 48
        E 260 80 3e 00
        E 0 80 41 00
        E 0 80 45 00
        e 490 90 3e 48
        e 24 90 41 48
        e 0 90 45 48
        e 260 80 3e 00
        e 0 80 41 00
        e 0 80 45 00
        E 186 b0 7b 00
        CHASE_CC_TAKEOFFS 1
        GUID {E611ADB6-4869-6CCA-8E83-3954D5E743B1}
        IGNTEMPO 0 120 4 4
        SRCCOLOR 27
        VELLANE -1 100 0
        CFGEDITVIEW 0 0.045808 45 12 0 -1 0 0 0 0.5
        KEYSNAP 0
        TRACKSEL 0
        EVTFILTER 0 -1 -1 -1 -1 0 0 0 0 -1 -1 -1 -1 0 -1 0 -1 -1
        CFGEDIT 1 1 0 1 0 0 1 1 1 1 1 1 58 171 1253 866 0 0 0 0 0.25 0 0 0 0 0.5 0 0 1 64
      >
    >
    <ITEM
      POSITION 88
      SNAPOFFS 0
      LENGTH 8
      LOOP 1
      ALLTAKES 0
      FADEIN 1 0 0 1 0 0
      FADEOUT 1 0 0 1 0 0
      MUTE 0
      SEL 1
      IGUID {6AECBF0F-394D-AF53-1201-224C4B0185A5}
      IID 21
      NAME "01-Recorded MIDI"
      VOLPAN 1 0 1 -1
      SOFFS 0 0
      PLAYRATE 1 1 0 -1 0 0.0021
      CHANMODE 0
      GUID {A8214072-08A4-B2F7-7BA1-D546847ED80D}
      RECPASS 1
      <SOURCE MIDI
        HASDATA 1 960 QN
        CCINTERP 32
        POOLEDEVTS {45D66F1E-8B77-2A8C-1246-291B3997826E}
        E 0 90 3c 48
        E 0 90 40 48
        E 0 90 43 48
        E 1920 80 3c 00
        E 0 80 40 00
        E 0 80 43 00
        E 0 90 3c 48
        E 0 90 40 48
        E 0 90 43 48
        E 260 80 3c 00
        E 0 80 40 00
        E 0 80 43 00
        E 440 90 3c 48
        E 0 90 40 48
        E 0 90 43 48
        E 260 80 3c 00
        E 0 80 40 00
        E 0 80 43 00
        e 514 90 3c 48
        e 0 90 40 48
        e 0 90 43 48
        e 260 80 3c 00
        e 0 80 40 00
        e 0 80 43 00
        E 186 90 43 48
        E 0 90 47 48
        E 20 90 40 48
        E 1900 80 43 00
        E 0 80 47 00
        E 0 80 40 00
        E 0 90 43 48
        E 0 90 47 48
        E 20 90 40 48
        E 240 80 43 00
        E 0 80 47 00
        E 0 80 40 00
        E 440 90 43 48
        E 0 90 47 48
        E 20 90 40 48
        E 240 80 43 00
        E 0 80 47 00
        E 0 80 40 00
        e 514 90 43 48
        e 0 90 47 48
        e 20 90 40 48
        e 240 80 43 00
        e 0 80 47 00
        e 0 80 40 00
        E 186 90 41 48
        E 0 90 45 48
        E 0 90 48 48
        E 1920 80 41 00
        E 0 80 45 00
        E 0 80 48 00
        E 0 90 41 48
        E 0 90 45 48
        E 0 90 48 48
        E 260 80 41 00
        E 0 80 45 00
        E 0 80 48 00
        E 440 90 41 48
        E 0 90 45 48
        E 0 90 48 48
        E 260 80 41 00
        E 0 80 45 00
        E 0 80 48 00
        e 514 90 41 48
        e 0 90 45 48
        e 0 90 48 48
        e 260 80 41 00
        e 0 80 45 00
        e 0 80 48 00
        E 162 90 3e 48
        E 24 90 41 48
        E 0 90 45 48
        E 1896 90 3e 48
        E 24 80 3e 00
        E 0 80 41 00
        E 0 80 45 00
        E 0 90 41 48
        E 0 90 45 48
        E 260 80 3e 00
        E 0 80 41 00
        E 0 80 45 00
        E 416 90 3e 48
        E 24 90 41 48
        E 0 90 45 48
        E 260 80 3e 00
        E 0 80 41 00
        E 0 80 45 00
        e 490 90 3e 48
        e 24 90 41 48
        e 0 90 45 48
        e 260 80 3e 00
        e 0 80 41 00
        e 0 80 45 00
        E 186 b0 7b 00
        CHASE_CC_TAKEOFFS 1
        GUID {C762B555-17FC-D765-5340-11D3487D2955}
        IGNTEMPO 0 120 4 4
        SRCCOLOR 28
        VELLANE -1 100 0
        CFGEDITVIEW 0 0.045808 45 12 0 -1 0 0 0 0.5
        KEYSNAP 0
        TRACKSEL 0
        EVTFILTER 0 -1 -1 -1 -1 0 0 0 0 -1 -1 -1 -1 0 -1 0 -1 -1
        CFGEDIT 1 1 0 1 0 0 1 1 1 1 1 1 58 171 1253 866 0 0 0 0 0.25 0 0 0 0 0.5 0 0 1 64
      >
    >
  >
  <TRACK {7709EA85-6EAA-3EC7-E4E3-449759A45C09}
    NAME ""
    PEAKCOL 16576
    BEAT -1
    AUTOMODE 0
    VOLPAN 0.00052194381917 0 -1 -1 1
    MUTESOLO 0 0 0
    IPHASE 0
    PLAYOFFS 0 1
    ISBUS 0 0
    BUSCOMP 0 0 0 0 0
    SHOWINMIX 1 0.6667 0.5 1 0.5 0 0 0
    FREEMODE 0
    SEL 0
    REC 0 5056 1 0 0 0 0
    VU 2
    TRACKHEIGHT 21 0 0
    INQ 0 0 0 0.5 100 0 0 100
    NCHAN 2
    FX 0
    TRACKID {7709EA85-6EAA-3EC7-E4E3-449759A45C09}
    PERF 0
    MIDIOUT -1
    MAINSEND 1 0
    <FXCHAIN
      WNDRECT 346 266 902 608
      SHOW 0
      LASTSEL 5
      DOCKED 0
      BYPASS 0 0 0
      <VST "VST: ReaEQ (Cockos)" reaeq.vst.so 0 "" 1919247729<56535472656571726561657100000000> ""
        cWVlcu5e7f4CAAAAAQAAAAAAAAACAAAAAAAAAAIAAAABAAAAAAAAAAIAAAAAAAAAqAAAAAEAAAAAABAA
        IQAAAAQAAAAEAAAAAQAAAEC4Xhmm+DRAAAAAAAAA8D8AAAAAAAAAQAEIAAAAAQAAAAAAAAAAwHJAAAAAAAAA8D8AAAAAAAAAQAEIAAAAAQAAAAAAAAAAQI9AAAAAAAAA
        8D8AAAAAAAAAQAEDAAAAAQAAAAABaCorbdRAAAAAAAAA8D8AAAAAAAAAQAEBAAAAAQAAAAAAAAAAAPA/AAAAAJoCAACcAQAA
        AEhpZ2ggbG93IHBhc3MAEAAAAA==
      >
      PRESETNAME "High low pass"
      FLOATPOS 0 0 0 0
      FXID {203FC732-B7FC-BD76-08C3-B2C83EF9A6F7}
      WAK 0 0
      BYPASS 0 0 0
      <VST "VSTi: ReaSynth (Cockos)" reasynth.vst.so 0 "" 1919251321<5653547265737972656173796E746800> ""
        eXNlcu9e7f4AAAAAAgAAAAEAAAAAAAAAAgAAAAAAAAA8AAAAAAAAAAAAEAA=
        776t3g3wrd6lm8Q7F7fROgAAAAAAAAAAAAAAAJCNuT3oZ4g9AACAPwAAAD8AAIA/AAAAAAAAAD8AAAAA
        AAAQAAAA
      >
      FLOATPOS 0 0 0 0
      FXID {018A1EF4-AD79-5450-60BB-5B6752256CD2}
      WAK 0 0
      BYPASS 0 0 0
      <JS guitar/amp-model ""
        "Dumble Overdrive Special - Tweed Deluxe.wav" -21.000000 1.000000 0.000000 73.000000 256.000000 - - - - - - - - - - - - - - - - - - - - - - - - - - - - - - - - - - - - - - - - - - - - - - - - - - - - - - - - - - 
      >
      FLOATPOS 0 0 0 0
      FXID {CC69D711-3844-7666-6EDD-E93967B1F164}
      WAK 0 0
      BYPASS 0 0 0
      <VST "VST: ReaComp (Cockos)" reacomp.vst.so 0 "" 1919247213<5653547265636D726561636F6D700000> ""
        bWNlcu9e7f4EAAAAAQAAAAAAAAACAAAAAAAAAAQAAAAAAAAACAAAAAAAAAACAAAAAQAAAAAAAAACAAAAAAAAAFQAAAAAAAAAAAAQAA==
        776t3g3wrd5FoYg9/AWpPKWbxDsK16M8AAAAAAAAAAAAAIA/AAAAAAAAAAAAAAAAnNEHMwAAgD8AAAAAzMxMPQAAAAAAAAAAAAAAAAAAgD7YiZ09
        AAAQAAAA
      >
      FLOATPOS 0 0 0 0
      FXID {6E3C998A-6317-2524-FB26-213BBEAE33CA}
      WAK 0 0
      BYPASS 0 0 0
      <VST "VST: ReaDelay (Cockos)" readelay.vst.so 0 "" 1919247468<5653547265646C72656164656C617900> ""
        bGRlcu5e7f4CAAAAAQAAAAAAAAACAAAAAAAAAAIAAAABAAAAAAAAAAIAAAAAAAAA/AAAAAEAAAAAAAAA
        AAAAAAAAAAAFAAAALAAAAAIAAAAEAAAAAACAPwAAgD8AAAAAAACAPwAAAAAAAIA7vTeGNQAAgD8AAAAAAACAPwAAgD8AAIA/AAAAAAAAAAAAAIA/AAAAAAAAADwAAAAA
        AACAPwAAAAAAAIA/AACAP+87NT8AAIA/AAAAAAAAgD8AAAAAAABAPL03hjUAAIA/AAAAAAAAgD8AAIA/zk0AP6abhD4AAAAAAACAPwAAAAAAAIA8vTeGNQAAgD8AAAAA
        AACAPwAAgD8aqrU+pHA9PwAAAAAAAIA/AAAAAAAAoDy9N4Y1AACAPwAAAAAAAIA/AACAP/npAD4AAAA/
        AHN0b2NrIC0gYmFzaWMgNSB0YXAgcGluZyBwb25nAAAAAAA=
      >
      PRESETNAME "stock - basic 5 tap ping pong"
      FLOATPOS 0 0 0 0
      FXID {44547E05-87F1-9543-FCC7-1B9B279FCFAB}
      WAK 0 0
      BYPASS 0 0 0
      <VST "VST: ReaVerb (Cockos)" reaverb.vst.so 0 "" 1919252066<56535472657662726561766572620000> ""
        YnZlcu5e7f4CAAAAAQAAAAAAAAACAAAAAAAAAAIAAAABAAAAAAAAAAIAAAAAAAAAcAAAAAEAAAAAAAAA
        AAAAwcybgD4AAIA/AAAAAAAAgD8AAIA/AAAAPwAAgD8AAAAAVkVSQkdFTgAYAAAAAAAAAJHgV0QdrLRA3rK7QsHIjEIAAIC/RUNIT0dFTgAcAAAAy/i2QLUjdUJdzdM/
        osdfP5lRrzyRzYxAnMQAPw==
        AHN3ZWV0dmVyYm8AAAAAAA==
      >
      PRESETNAME sweetverbo
      FLOATPOS 0 0 0 0
      FXID {30081077-D36F-2D25-F1E1-047E69A2B52F}
      WAK 0 0
    >
    <ITEM
      POSITION 0
      SNAPOFFS 0
      LENGTH 8
      LOOP 1
      ALLTAKES 0
      FADEIN 1 0 0 1 0 0
      FADEOUT 1 0 0 1 0 0
      MUTE 0
      SEL 1
      IGUID {1F48CBBB-FDC7-19CC-220E-72FB9F9D6AC8}
      IID 10
      NAME "01-Recorded MIDI"
      VOLPAN 1 0 1 -1
      SOFFS 0 0
      PLAYRATE 1 1 0 -1 0 0.0021
      CHANMODE 0
      GUID {87194F4B-66A9-F292-93C2-6ED74E51B793}
      RECPASS 1
      <SOURCE MIDI
        HASDATA 1 960 QN
        CCINTERP 32
        POOLEDEVTS {59A87E34-4487-2E74-7C2B-4621E7EB6A09}
        E 0 90 3c 48
        E 0 90 40 48
        E 0 90 43 48
        E 1920 80 3c 00
        E 0 80 40 00
        E 0 80 43 00
        E 0 90 3c 48
        E 0 90 40 48
        E 0 90 43 48
        E 260 80 3c 00
        E 0 80 40 00
        E 0 80 43 00
        E 440 90 3c 48
        E 0 90 40 48
        E 0 90 43 48
        E 260 80 3c 00
        E 0 80 40 00
        E 0 80 43 00
        e 514 90 3c 48
        e 0 90 40 48
        e 0 90 43 48
        e 260 80 3c 00
        e 0 80 40 00
        e 0 80 43 00
        E 186 90 43 48
        E 0 90 47 48
        E 20 90 40 48
        E 1900 80 43 00
        E 0 80 47 00
        E 0 80 40 00
        E 0 90 43 48
        E 0 90 47 48
        E 20 90 40 48
        E 240 80 43 00
        E 0 80 47 00
        E 0 80 40 00
        E 440 90 43 48
        E 0 90 47 48
        E 20 90 40 48
        E 240 80 43 00
        E 0 80 47 00
        E 0 80 40 00
        e 514 90 43 48
        e 0 90 47 48
        e 20 90 40 48
        e 240 80 43 00
        e 0 80 47 00
        e 0 80 40 00
        E 186 90 41 48
        E 0 90 45 48
        E 0 90 48 48
        E 1920 80 41 00
        E 0 80 45 00
        E 0 80 48 00
        E 0 90 41 48
        E 0 90 45 48
        E 0 90 48 48
        E 260 80 41 00
        E 0 80 45 00
        E 0 80 48 00
        E 440 90 41 48
        E 0 90 45 48
        E 0 90 48 48
        E 260 80 41 00
        E 0 80 45 00
        E 0 80 48 00
        e 514 90 41 48
        e 0 90 45 48
        e 0 90 48 48
        e 260 80 41 00
        e 0 80 45 00
        e 0 80 48 00
        E 162 90 3e 48
        E 24 90 41 48
        E 0 90 45 48
        E 1896 90 3e 48
        E 24 80 3e 00
        E 0 80 41 00
        E 0 80 45 00
        E 0 90 41 48
        E 0 90 45 48
        E 260 80 3e 00
        E 0 80 41 00
        E 0 80 45 00
        E 416 90 3e 48
        E 24 90 41 48
        E 0 90 45 48
        E 260 80 3e 00
        E 0 80 41 00
        E 0 80 45 00
        e 490 90 3e 48
        e 24 90 41 48
        e 0 90 45 48
        e 260 80 3e 00
        e 0 80 41 00
        e 0 80 45 00
        E 186 b0 7b 00
        CHASE_CC_TAKEOFFS 1
        GUID {7B9D708B-43E1-C8D4-C4B3-87E2A6C27801}
        IGNTEMPO 0 120 4 4
        SRCCOLOR 17
        VELLANE -1 100 0
        CFGEDITVIEW 0 0.045808 45 12 0 -1 0 0 0 0.5
        KEYSNAP 0
        TRACKSEL 0
        EVTFILTER 0 -1 -1 -1 -1 0 0 0 0 -1 -1 -1 -1 0 -1 0 -1 -1
        CFGEDIT 1 1 0 1 0 0 1 1 1 1 1 1 58 171 1253 866 0 0 0 0 0.25 0 0 0 0 0.5 0 0 1 64
      >
    >
    <ITEM
      POSITION 8
      SNAPOFFS 0
      LENGTH 8
      LOOP 1
      ALLTAKES 0
      FADEIN 1 0 0 1 0 0
      FADEOUT 1 0 0 1 0 0
      MUTE 0
      SEL 1
      IGUID {65AA4A6B-8439-1F63-157D-9146AC4F3262}
      IID 11
      NAME "01-Recorded MIDI"
      VOLPAN 1 0 1 -1
      SOFFS 0 0
      PLAYRATE 1 1 0 -1 0 0.0021
      CHANMODE 0
      GUID {699D72B6-D952-31EA-78C2-E21E561ADF7F}
      RECPASS 1
      <SOURCE MIDI
        HASDATA 1 960 QN
        CCINTERP 32
        POOLEDEVTS {CFA26BD8-2C60-FC1E-E52A-412F9E01067A}
        E 0 90 3c 48
        E 0 90 40 48
        E 0 90 43 48
        E 1920 80 3c 00
        E 0 80 40 00
        E 0 80 43 00
        E 0 90 3c 48
        E 0 90 40 48
        E 0 90 43 48
        E 260 80 3c 00
        E 0 80 40 00
        E 0 80 43 00
        E 440 90 3c 48
        E 0 90 40 48
        E 0 90 43 48
        E 260 80 3c 00
        E 0 80 40 00
        E 0 80 43 00
        e 514 90 3c 48
        e 0 90 40 48
        e 0 90 43 48
        e 260 80 3c 00
        e 0 80 40 00
        e 0 80 43 00
        E 186 90 43 48
        E 0 90 47 48
        E 20 90 40 48
        E 1900 80 43 00
        E 0 80 47 00
        E 0 80 40 00
        E 0 90 43 48
        E 0 90 47 48
        E 20 90 40 48
        E 240 80 43 00
        E 0 80 47 00
        E 0 80 40 00
        E 440 90 43 48
        E 0 90 47 48
        E 20 90 40 48
        E 240 80 43 00
        E 0 80 47 00
        E 0 80 40 00
        e 514 90 43 48
        e 0 90 47 48
        e 20 90 40 48
        e 240 80 43 00
        e 0 80 47 00
        e 0 80 40 00
        E 186 90 41 48
        E 0 90 45 48
        E 0 90 48 48
        E 1920 80 41 00
        E 0 80 45 00
        E 0 80 48 00
        E 0 90 41 48
        E 0 90 45 48
        E 0 90 48 48
        E 260 80 41 00
        E 0 80 45 00
        E 0 80 48 00
        E 440 90 41 48
        E 0 90 45 48
        E 0 90 48 48
        E 260 80 41 00
        E 0 80 45 00
        E 0 80 48 00
        e 514 90 41 48
        e 0 90 45 48
        e 0 90 48 48
        e 260 80 41 00
        e 0 80 45 00
        e 0 80 48 00
        E 162 90 3e 48
        E 24 90 41 48
        E 0 90 45 48
        E 1896 90 3e 48
        E 24 80 3e 00
        E 0 80 41 00
        E 0 80 45 00
        E 0 90 41 48
        E 0 90 45 48
        E 260 80 3e 00
        E 0 80 41 00
        E 0 80 45 00
        E 416 90 3e 48
        E 24 90 41 48
        E 0 90 45 48
        E 260 80 3e 00
        E 0 80 41 00
        E 0 80 45 00
        e 490 90 3e 48
        e 24 90 41 48
        e 0 90 45 48
        e 260 80 3e 00
        e 0 80 41 00
        e 0 80 45 00
        E 186 b0 7b 00
        CHASE_CC_TAKEOFFS 1
        GUID {3131B4E2-B370-E352-A9C5-C8CA31551A86}
        IGNTEMPO 0 120 4 4
        SRCCOLOR 18
        VELLANE -1 100 0
        CFGEDITVIEW 0 0.045808 45 12 0 -1 0 0 0 0.5
        KEYSNAP 0
        TRACKSEL 0
        EVTFILTER 0 -1 -1 -1 -1 0 0 0 0 -1 -1 -1 -1 0 -1 0 -1 -1
        CFGEDIT 1 1 0 1 0 0 1 1 1 1 1 1 58 171 1253 866 0 0 0 0 0.25 0 0 0 0 0.5 0 0 1 64
      >
    >
    <ITEM
      POSITION 16
      SNAPOFFS 0
      LENGTH 8
      LOOP 1
      ALLTAKES 0
      FADEIN 1 0 0 1 0 0
      FADEOUT 1 0 0 1 0 0
      MUTE 0
      SEL 1
      IGUID {2F9ED9AF-3AC5-842E-3C85-4E3A24D9D146}
      IID 12
      NAME "01-Recorded MIDI"
      VOLPAN 1 0 1 -1
      SOFFS 0 0
      PLAYRATE 1 1 0 -1 0 0.0021
      CHANMODE 0
      GUID {BC7871E6-3E67-6E1E-9213-6D9B557E64D0}
      RECPASS 1
      <SOURCE MIDI
        HASDATA 1 960 QN
        CCINTERP 32
        POOLEDEVTS {D8ED075F-C00C-BA9E-183E-B49D27D9F69B}
        E 0 90 3c 48
        E 0 90 40 48
        E 0 90 43 48
        E 1920 80 3c 00
        E 0 80 40 00
        E 0 80 43 00
        E 0 90 3c 48
        E 0 90 40 48
        E 0 90 43 48
        E 260 80 3c 00
        E 0 80 40 00
        E 0 80 43 00
        E 440 90 3c 48
        E 0 90 40 48
        E 0 90 43 48
        E 260 80 3c 00
        E 0 80 40 00
        E 0 80 43 00
        e 514 90 3c 48
        e 0 90 40 48
        e 0 90 43 48
        e 260 80 3c 00
        e 0 80 40 00
        e 0 80 43 00
        E 186 90 43 48
        E 0 90 47 48
        E 20 90 40 48
        E 1900 80 43 00
        E 0 80 47 00
        E 0 80 40 00
        E 0 90 43 48
        E 0 90 47 48
        E 20 90 40 48
        E 240 80 43 00
        E 0 80 47 00
        E 0 80 40 00
        E 440 90 43 48
        E 0 90 47 48
        E 20 90 40 48
        E 240 80 43 00
        E 0 80 47 00
        E 0 80 40 00
        e 514 90 43 48
        e 0 90 47 48
        e 20 90 40 48
        e 240 80 43 00
        e 0 80 47 00
        e 0 80 40 00
        E 186 90 41 48
        E 0 90 45 48
        E 0 90 48 48
        E 1920 80 41 00
        E 0 80 45 00
        E 0 80 48 00
        E 0 90 41 48
        E 0 90 45 48
        E 0 90 48 48
        E 260 80 41 00
        E 0 80 45 00
        E 0 80 48 00
        E 440 90 41 48
        E 0 90 45 48
        E 0 90 48 48
        E 260 80 41 00
        E 0 80 45 00
        E 0 80 48 00
        e 514 90 41 48
        e 0 90 45 48
        e 0 90 48 48
        e 260 80 41 00
        e 0 80 45 00
        e 0 80 48 00
        E 162 90 3e 48
        E 24 90 41 48
        E 0 90 45 48
        E 1896 90 3e 48
        E 24 80 3e 00
        E 0 80 41 00
        E 0 80 45 00
        E 0 90 41 48
        E 0 90 45 48
        E 260 80 3e 00
        E 0 80 41 00
        E 0 80 45 00
        E 416 90 3e 48
        E 24 90 41 48
        E 0 90 45 48
        E 260 80 3e 00
        E 0 80 41 00
        E 0 80 45 00
        e 490 90 3e 48
        e 24 90 41 48
        e 0 90 45 48
        e 260 80 3e 00
        e 0 80 41 00
        e 0 80 45 00
        E 186 b0 7b 00
        CHASE_CC_TAKEOFFS 1
        GUID {48C567A2-895C-FB9B-FDBA-0ADB7004ABF3}
        IGNTEMPO 0 120 4 4
        SRCCOLOR 19
        VELLANE -1 100 0
        CFGEDITVIEW 0 0.045808 45 12 0 -1 0 0 0 0.5
        KEYSNAP 0
        TRACKSEL 0
        EVTFILTER 0 -1 -1 -1 -1 0 0 0 0 -1 -1 -1 -1 0 -1 0 -1 -1
        CFGEDIT 1 1 0 1 0 0 1 1 1 1 1 1 58 171 1253 866 0 0 0 0 0.25 0 0 0 0 0.5 0 0 1 64
      >
    >
    <ITEM
      POSITION 24
      SNAPOFFS 0
      LENGTH 8
      LOOP 1
      ALLTAKES 0
      FADEIN 1 0 0 1 0 0
      FADEOUT 1 0 0 1 0 0
      MUTE 0
      SEL 1
      IGUID {27316FB6-B6DA-EF3A-DDA1-244CEFE94A32}
      IID 13
      NAME "01-Recorded MIDI"
      VOLPAN 1 0 1 -1
      SOFFS 0 0
      PLAYRATE 1 1 0 -1 0 0.0021
      CHANMODE 0
      GUID {2A0C450C-1B47-12CF-21D4-7571C1AFAF52}
      RECPASS 1
      <SOURCE MIDI
        HASDATA 1 960 QN
        CCINTERP 32
        POOLEDEVTS {CB3117B4-23AF-F543-53DB-1EAA589CCDF6}
        E 0 90 3c 48
        E 0 90 40 48
        E 0 90 43 48
        E 1920 80 3c 00
        E 0 80 40 00
        E 0 80 43 00
        E 0 90 3c 48
        E 0 90 40 48
        E 0 90 43 48
        E 260 80 3c 00
        E 0 80 40 00
        E 0 80 43 00
        E 440 90 3c 48
        E 0 90 40 48
        E 0 90 43 48
        E 260 80 3c 00
        E 0 80 40 00
        E 0 80 43 00
        e 514 90 3c 48
        e 0 90 40 48
        e 0 90 43 48
        e 260 80 3c 00
        e 0 80 40 00
        e 0 80 43 00
        E 186 90 43 48
        E 0 90 47 48
        E 20 90 40 48
        E 1900 80 43 00
        E 0 80 47 00
        E 0 80 40 00
        E 0 90 43 48
        E 0 90 47 48
        E 20 90 40 48
        E 240 80 43 00
        E 0 80 47 00
        E 0 80 40 00
        E 440 90 43 48
        E 0 90 47 48
        E 20 90 40 48
        E 240 80 43 00
        E 0 80 47 00
        E 0 80 40 00
        e 514 90 43 48
        e 0 90 47 48
        e 20 90 40 48
        e 240 80 43 00
        e 0 80 47 00
        e 0 80 40 00
        E 186 90 41 48
        E 0 90 45 48
        E 0 90 48 48
        E 1920 80 41 00
        E 0 80 45 00
        E 0 80 48 00
        E 0 90 41 48
        E 0 90 45 48
        E 0 90 48 48
        E 260 80 41 00
        E 0 80 45 00
        E 0 80 48 00
        E 440 90 41 48
        E 0 90 45 48
        E 0 90 48 48
        E 260 80 41 00
        E 0 80 45 00
        E 0 80 48 00
        e 514 90 41 48
        e 0 90 45 48
        e 0 90 48 48
        e 260 80 41 00
        e 0 80 45 00
        e 0 80 48 00
        E 162 90 3e 48
        E 24 90 41 48
        E 0 90 45 48
        E 1896 90 3e 48
        E 24 80 3e 00
        E 0 80 41 00
        E 0 80 45 00
        E 0 90 41 48
        E 0 90 45 48
        E 260 80 3e 00
        E 0 80 41 00
        E 0 80 45 00
        E 416 90 3e 48
        E 24 90 41 48
        E 0 90 45 48
        E 260 80 3e 00
        E 0 80 41 00
        E 0 80 45 00
        e 490 90 3e 48
        e 24 90 41 48
        e 0 90 45 48
        e 260 80 3e 00
        e 0 80 41 00
        e 0 80 45 00
        E 186 b0 7b 00
        CHASE_CC_TAKEOFFS 1
        GUID {1DE38800-E2A1-41B5-9C8C-3291891093B1}
        IGNTEMPO 0 120 4 4
        SRCCOLOR 20
        VELLANE -1 100 0
        CFGEDITVIEW 0 0.045808 45 12 0 -1 0 0 0 0.5
        KEYSNAP 0
        TRACKSEL 0
        EVTFILTER 0 -1 -1 -1 -1 0 0 0 0 -1 -1 -1 -1 0 -1 0 -1 -1
        CFGEDIT 1 1 0 1 0 0 1 1 1 1 1 1 58 171 1253 866 0 0 0 0 0.25 0 0 0 0 0.5 0 0 1 64
      >
    >
    <ITEM
      POSITION 32
      SNAPOFFS 0
      LENGTH 8
      LOOP 1
      ALLTAKES 0
      FADEIN 1 0 0 1 0 0
      FADEOUT 1 0 0 1 0 0
      MUTE 0
      SEL 1
      IGUID {F6FC67BA-B65D-5F13-3934-3BBAED40FAF6}
      IID 14
      NAME "01-Recorded MIDI"
      VOLPAN 1 0 1 -1
      SOFFS 0 0
      PLAYRATE 1 1 0 -1 0 0.0021
      CHANMODE 0
      GUID {80B74407-40E3-810B-AA34-F196E7F9B3EF}
      RECPASS 1
      <SOURCE MIDI
        HASDATA 1 960 QN
        CCINTERP 32
        POOLEDEVTS {6AF3702C-71BC-59CF-736C-1A1564C9783D}
        E 0 90 3c 48
        E 0 90 40 48
        E 0 90 43 48
        E 1920 80 3c 00
        E 0 80 40 00
        E 0 80 43 00
        E 0 90 3c 48
        E 0 90 40 48
        E 0 90 43 48
        E 260 80 3c 00
        E 0 80 40 00
        E 0 80 43 00
        E 440 90 3c 48
        E 0 90 40 48
        E 0 90 43 48
        E 260 80 3c 00
        E 0 80 40 00
        E 0 80 43 00
        e 514 90 3c 48
        e 0 90 40 48
        e 0 90 43 48
        e 260 80 3c 00
        e 0 80 40 00
        e 0 80 43 00
        E 186 90 43 48
        E 0 90 47 48
        E 20 90 40 48
        E 1900 80 43 00
        E 0 80 47 00
        E 0 80 40 00
        E 0 90 43 48
        E 0 90 47 48
        E 20 90 40 48
        E 240 80 43 00
        E 0 80 47 00
        E 0 80 40 00
        E 440 90 43 48
        E 0 90 47 48
        E 20 90 40 48
        E 240 80 43 00
        E 0 80 47 00
        E 0 80 40 00
        e 514 90 43 48
        e 0 90 47 48
        e 20 90 40 48
        e 240 80 43 00
        e 0 80 47 00
        e 0 80 40 00
        E 186 90 41 48
        E 0 90 45 48
        E 0 90 48 48
        E 1920 80 41 00
        E 0 80 45 00
        E 0 80 48 00
        E 0 90 41 48
        E 0 90 45 48
        E 0 90 48 48
        E 260 80 41 00
        E 0 80 45 00
        E 0 80 48 00
        E 440 90 41 48
        E 0 90 45 48
        E 0 90 48 48
        E 260 80 41 00
        E 0 80 45 00
        E 0 80 48 00
        e 514 90 41 48
        e 0 90 45 48
        e 0 90 48 48
        e 260 80 41 00
        e 0 80 45 00
        e 0 80 48 00
        E 162 90 3e 48
        E 24 90 41 48
        E 0 90 45 48
        E 1896 90 3e 48
        E 24 80 3e 00
        E 0 80 41 00
        E 0 80 45 00
        E 0 90 41 48
        E 0 90 45 48
        E 260 80 3e 00
        E 0 80 41 00
        E 0 80 45 00
        E 416 90 3e 48
        E 24 90 41 48
        E 0 90 45 48
        E 260 80 3e 00
        E 0 80 41 00
        E 0 80 45 00
        e 490 90 3e 48
        e 24 90 41 48
        e 0 90 45 48
        e 260 80 3e 00
        e 0 80 41 00
        e 0 80 45 00
        E 186 b0 7b 00
        CHASE_CC_TAKEOFFS 1
        GUID {0C3271F4-E233-9088-9B25-A722FAE7C579}
        IGNTEMPO 0 120 4 4
        SRCCOLOR 21
        VELLANE -1 100 0
        CFGEDITVIEW 0 0.045808 45 12 0 -1 0 0 0 0.5
        KEYSNAP 0
        TRACKSEL 0
        EVTFILTER 0 -1 -1 -1 -1 0 0 0 0 -1 -1 -1 -1 0 -1 0 -1 -1
        CFGEDIT 1 1 0 1 0 0 1 1 1 1 1 1 58 171 1253 866 0 0 0 0 0.25 0 0 0 0 0.5 0 0 1 64
      >
    >
    <ITEM
      POSITION 40
      SNAPOFFS 0
      LENGTH 8
      LOOP 1
      ALLTAKES 0
      FADEIN 1 0 0 1 0 0
      FADEOUT 1 0 0 1 0 0
      MUTE 0
      SEL 1
      IGUID {A2898540-11E9-E420-0E4D-2F6988E54AB3}
      IID 15
      NAME "01-Recorded MIDI"
      VOLPAN 1 0 1 -1
      SOFFS 0 0
      PLAYRATE 1 1 0 -1 0 0.0021
      CHANMODE 0
      GUID {356FCC70-E877-8016-5A1F-7F2E6A10E995}
      RECPASS 1
      <SOURCE MIDI
        HASDATA 1 960 QN
        CCINTERP 32
        POOLEDEVTS {15115C19-4BB2-F532-FC41-23CE1F524DEF}
        E 0 90 3c 48
        E 0 90 40 48
        E 0 90 43 48
        E 1920 80 3c 00
        E 0 80 40 00
        E 0 80 43 00
        E 0 90 3c 48
        E 0 90 40 48
        E 0 90 43 48
        E 260 80 3c 00
        E 0 80 40 00
        E 0 80 43 00
        E 440 90 3c 48
        E 0 90 40 48
        E 0 90 43 48
        E 260 80 3c 00
        E 0 80 40 00
        E 0 80 43 00
        e 514 90 3c 48
        e 0 90 40 48
        e 0 90 43 48
        e 260 80 3c 00
        e 0 80 40 00
        e 0 80 43 00
        E 186 90 43 48
        E 0 90 47 48
        E 20 90 40 48
        E 1900 80 43 00
        E 0 80 47 00
        E 0 80 40 00
        E 0 90 43 48
        E 0 90 47 48
        E 20 90 40 48
        E 240 80 43 00
        E 0 80 47 00
        E 0 80 40 00
        E 440 90 43 48
        E 0 90 47 48
        E 20 90 40 48
        E 240 80 43 00
        E 0 80 47 00
        E 0 80 40 00
        e 514 90 43 48
        e 0 90 47 48
        e 20 90 40 48
        e 240 80 43 00
        e 0 80 47 00
        e 0 80 40 00
        E 186 90 41 48
        E 0 90 45 48
        E 0 90 48 48
        E 1920 80 41 00
        E 0 80 45 00
        E 0 80 48 00
        E 0 90 41 48
        E 0 90 45 48
        E 0 90 48 48
        E 260 80 41 00
        E 0 80 45 00
        E 0 80 48 00
        E 440 90 41 48
        E 0 90 45 48
        E 0 90 48 48
        E 260 80 41 00
        E 0 80 45 00
        E 0 80 48 00
        e 514 90 41 48
        e 0 90 45 48
        e 0 90 48 48
        e 260 80 41 00
        e 0 80 45 00
        e 0 80 48 00
        E 162 90 3e 48
        E 24 90 41 48
        E 0 90 45 48
        E 1896 90 3e 48
        E 24 80 3e 00
        E 0 80 41 00
        E 0 80 45 00
        E 0 90 41 48
        E 0 90 45 48
        E 260 80 3e 00
        E 0 80 41 00
        E 0 80 45 00
        E 416 90 3e 48
        E 24 90 41 48
        E 0 90 45 48
        E 260 80 3e 00
        E 0 80 41 00
        E 0 80 45 00
        e 490 90 3e 48
        e 24 90 41 48
        e 0 90 45 48
        e 260 80 3e 00
        e 0 80 41 00
        e 0 80 45 00
        E 186 b0 7b 00
        CHASE_CC_TAKEOFFS 1
        GUID {040E7AF8-3572-5D91-3C86-797AEE7444D4}
        IGNTEMPO 0 120 4 4
        SRCCOLOR 22
        VELLANE -1 100 0
        CFGEDITVIEW 0 0.045808 45 12 0 -1 0 0 0 0.5
        KEYSNAP 0
        TRACKSEL 0
        EVTFILTER 0 -1 -1 -1 -1 0 0 0 0 -1 -1 -1 -1 0 -1 0 -1 -1
        CFGEDIT 1 1 0 1 0 0 1 1 1 1 1 1 58 171 1253 866 0 0 0 0 0.25 0 0 0 0 0.5 0 0 1 64
      >
    >
    <ITEM
      POSITION 48
      SNAPOFFS 0
      LENGTH 8
      LOOP 1
      ALLTAKES 0
      FADEIN 1 0 0 1 0 0
      FADEOUT 1 0 0 1 0 0
      MUTE 0
      SEL 1
      IGUID {97A2494B-9551-EB14-5EA6-D4B1EAE4110F}
      IID 16
      NAME "01-Recorded MIDI"
      VOLPAN 1 0 1 -1
      SOFFS 0 0
      PLAYRATE 1 1 0 -1 0 0.0021
      CHANMODE 0
      GUID {2F18819C-F16C-ADC0-9253-6BC8C9500B3C}
      RECPASS 1
      <SOURCE MIDI
        HASDATA 1 960 QN
        CCINTERP 32
        POOLEDEVTS {47A9B5E1-667B-7373-7960-01B4D54DA15C}
        E 0 90 3c 48
        E 0 90 40 48
        E 0 90 43 48
        E 1920 80 3c 00
        E 0 80 40 00
        E 0 80 43 00
        E 0 90 3c 48
        E 0 90 40 48
        E 0 90 43 48
        E 260 80 3c 00
        E 0 80 40 00
        E 0 80 43 00
        E 440 90 3c 48
        E 0 90 40 48
        E 0 90 43 48
        E 260 80 3c 00
        E 0 80 40 00
        E 0 80 43 00
        e 514 90 3c 48
        e 0 90 40 48
        e 0 90 43 48
        e 260 80 3c 00
        e 0 80 40 00
        e 0 80 43 00
        E 186 90 43 48
        E 0 90 47 48
        E 20 90 40 48
        E 1900 80 43 00
        E 0 80 47 00
        E 0 80 40 00
        E 0 90 43 48
        E 0 90 47 48
        E 20 90 40 48
        E 240 80 43 00
        E 0 80 47 00
        E 0 80 40 00
        E 440 90 43 48
        E 0 90 47 48
        E 20 90 40 48
        E 240 80 43 00
        E 0 80 47 00
        E 0 80 40 00
        e 514 90 43 48
        e 0 90 47 48
        e 20 90 40 48
        e 240 80 43 00
        e 0 80 47 00
        e 0 80 40 00
        E 186 90 41 48
        E 0 90 45 48
        E 0 90 48 48
        E 1920 80 41 00
        E 0 80 45 00
        E 0 80 48 00
        E 0 90 41 48
        E 0 90 45 48
        E 0 90 48 48
        E 260 80 41 00
        E 0 80 45 00
        E 0 80 48 00
        E 440 90 41 48
        E 0 90 45 48
        E 0 90 48 48
        E 260 80 41 00
        E 0 80 45 00
        E 0 80 48 00
        e 514 90 41 48
        e 0 90 45 48
        e 0 90 48 48
        e 260 80 41 00
        e 0 80 45 00
        e 0 80 48 00
        E 162 90 3e 48
        E 24 90 41 48
        E 0 90 45 48
        E 1896 90 3e 48
        E 24 80 3e 00
        E 0 80 41 00
        E 0 80 45 00
        E 0 90 41 48
        E 0 90 45 48
        E 260 80 3e 00
        E 0 80 41 00
        E 0 80 45 00
        E 416 90 3e 48
        E 24 90 41 48
        E 0 90 45 48
        E 260 80 3e 00
        E 0 80 41 00
        E 0 80 45 00
        e 490 90 3e 48
        e 24 90 41 48
        e 0 90 45 48
        e 260 80 3e 00
        e 0 80 41 00
        e 0 80 45 00
        E 186 b0 7b 00
        CHASE_CC_TAKEOFFS 1
        GUID {2338968B-6CF9-9F40-300F-DEB89D3392EA}
        IGNTEMPO 0 120 4 4
        SRCCOLOR 23
        VELLANE -1 100 0
        CFGEDITVIEW 0 0.045808 45 12 0 -1 0 0 0 0.5
        KEYSNAP 0
        TRACKSEL 0
        EVTFILTER 0 -1 -1 -1 -1 0 0 0 0 -1 -1 -1 -1 0 -1 0 -1 -1
        CFGEDIT 1 1 0 1 0 0 1 1 1 1 1 1 58 171 1253 866 0 0 0 0 0.25 0 0 0 0 0.5 0 0 1 64
      >
    >
    <ITEM
      POSITION 56
      SNAPOFFS 0
      LENGTH 8
      LOOP 1
      ALLTAKES 0
      FADEIN 1 0 0 1 0 0
      FADEOUT 1 0 0 1 0 0
      MUTE 0
      SEL 1
      IGUID {D0903A28-EBE5-A751-35F6-457859D6527D}
      IID 17
      NAME "01-Recorded MIDI"
      VOLPAN 1 0 1 -1
      SOFFS 0 0
      PLAYRATE 1 1 0 -1 0 0.0021
      CHANMODE 0
      GUID {1D26DFFA-0565-9662-5863-99A97C234048}
      RECPASS 1
      <SOURCE MIDI
        HASDATA 1 960 QN
        CCINTERP 32
        POOLEDEVTS {38296017-368C-415F-6036-82DF530C7815}
        E 0 90 3c 48
        E 0 90 40 48
        E 0 90 43 48
        E 1920 80 3c 00
        E 0 80 40 00
        E 0 80 43 00
        E 0 90 3c 48
        E 0 90 40 48
        E 0 90 43 48
        E 260 80 3c 00
        E 0 80 40 00
        E 0 80 43 00
        E 440 90 3c 48
        E 0 90 40 48
        E 0 90 43 48
        E 260 80 3c 00
        E 0 80 40 00
        E 0 80 43 00
        e 514 90 3c 48
        e 0 90 40 48
        e 0 90 43 48
        e 260 80 3c 00
        e 0 80 40 00
        e 0 80 43 00
        E 186 90 43 48
        E 0 90 47 48
        E 20 90 40 48
        E 1900 80 43 00
        E 0 80 47 00
        E 0 80 40 00
        E 0 90 43 48
        E 0 90 47 48
        E 20 90 40 48
        E 240 80 43 00
        E 0 80 47 00
        E 0 80 40 00
        E 440 90 43 48
        E 0 90 47 48
        E 20 90 40 48
        E 240 80 43 00
        E 0 80 47 00
        E 0 80 40 00
        e 514 90 43 48
        e 0 90 47 48
        e 20 90 40 48
        e 240 80 43 00
        e 0 80 47 00
        e 0 80 40 00
        E 186 90 41 48
        E 0 90 45 48
        E 0 90 48 48
        E 1920 80 41 00
        E 0 80 45 00
        E 0 80 48 00
        E 0 90 41 48
        E 0 90 45 48
        E 0 90 48 48
        E 260 80 41 00
        E 0 80 45 00
        E 0 80 48 00
        E 440 90 41 48
        E 0 90 45 48
        E 0 90 48 48
        E 260 80 41 00
        E 0 80 45 00
        E 0 80 48 00
        e 514 90 41 48
        e 0 90 45 48
        e 0 90 48 48
        e 260 80 41 00
        e 0 80 45 00
        e 0 80 48 00
        E 162 90 3e 48
        E 24 90 41 48
        E 0 90 45 48
        E 1896 90 3e 48
        E 24 80 3e 00
        E 0 80 41 00
        E 0 80 45 00
        E 0 90 41 48
        E 0 90 45 48
        E 260 80 3e 00
        E 0 80 41 00
        E 0 80 45 00
        E 416 90 3e 48
        E 24 90 41 48
        E 0 90 45 48
        E 260 80 3e 00
        E 0 80 41 00
        E 0 80 45 00
        e 490 90 3e 48
        e 24 90 41 48
        e 0 90 45 48
        e 260 80 3e 00
        e 0 80 41 00
        e 0 80 45 00
        E 186 b0 7b 00
        CHASE_CC_TAKEOFFS 1
        GUID {A64857E2-94F8-0990-20DF-4C1E9B5E6251}
        IGNTEMPO 0 120 4 4
        SRCCOLOR 24
        VELLANE -1 100 0
        CFGEDITVIEW 0 0.045808 45 12 0 -1 0 0 0 0.5
        KEYSNAP 0
        TRACKSEL 0
        EVTFILTER 0 -1 -1 -1 -1 0 0 0 0 -1 -1 -1 -1 0 -1 0 -1 -1
        CFGEDIT 1 1 0 1 0 0 1 1 1 1 1 1 58 171 1253 866 0 0 0 0 0.25 0 0 0 0 0.5 0 0 1 64
      >
    >
    <ITEM
      POSITION 64
      SNAPOFFS 0
      LENGTH 8
      LOOP 1
      ALLTAKES 0
      FADEIN 1 0 0 1 0 0
      FADEOUT 1 0 0 1 0 0
      MUTE 0
      SEL 1
      IGUID {7FFAAFC0-B925-3E2B-BB7D-43D5A5E76595}
      IID 18
      NAME "01-Recorded MIDI"
      VOLPAN 1 0 1 -1
      SOFFS 0 0
      PLAYRATE 1 1 0 -1 0 0.0021
      CHANMODE 0
      GUID {EC2F0AAA-4534-3E06-82CE-4AAA0D346A8C}
      RECPASS 1
      <SOURCE MIDI
        HASDATA 1 960 QN
        CCINTERP 32
        POOLEDEVTS {2F041449-DE8D-97D1-3FEE-7CED33D07694}
        E 0 90 3c 48
        E 0 90 40 48
        E 0 90 43 48
        E 1920 80 3c 00
        E 0 80 40 00
        E 0 80 43 00
        E 0 90 3c 48
        E 0 90 40 48
        E 0 90 43 48
        E 260 80 3c 00
        E 0 80 40 00
        E 0 80 43 00
        E 440 90 3c 48
        E 0 90 40 48
        E 0 90 43 48
        E 260 80 3c 00
        E 0 80 40 00
        E 0 80 43 00
        e 514 90 3c 48
        e 0 90 40 48
        e 0 90 43 48
        e 260 80 3c 00
        e 0 80 40 00
        e 0 80 43 00
        E 186 90 43 48
        E 0 90 47 48
        E 20 90 40 48
        E 1900 80 43 00
        E 0 80 47 00
        E 0 80 40 00
        E 0 90 43 48
        E 0 90 47 48
        E 20 90 40 48
        E 240 80 43 00
        E 0 80 47 00
        E 0 80 40 00
        E 440 90 43 48
        E 0 90 47 48
        E 20 90 40 48
        E 240 80 43 00
        E 0 80 47 00
        E 0 80 40 00
        e 514 90 43 48
        e 0 90 47 48
        e 20 90 40 48
        e 240 80 43 00
        e 0 80 47 00
        e 0 80 40 00
        E 186 90 41 48
        E 0 90 45 48
        E 0 90 48 48
        E 1920 80 41 00
        E 0 80 45 00
        E 0 80 48 00
        E 0 90 41 48
        E 0 90 45 48
        E 0 90 48 48
        E 260 80 41 00
        E 0 80 45 00
        E 0 80 48 00
        E 440 90 41 48
        E 0 90 45 48
        E 0 90 48 48
        E 260 80 41 00
        E 0 80 45 00
        E 0 80 48 00
        e 514 90 41 48
        e 0 90 45 48
        e 0 90 48 48
        e 260 80 41 00
        e 0 80 45 00
        e 0 80 48 00
        E 162 90 3e 48
        E 24 90 41 48
        E 0 90 45 48
        E 1896 90 3e 48
        E 24 80 3e 00
        E 0 80 41 00
        E 0 80 45 00
        E 0 90 41 48
        E 0 90 45 48
        E 260 80 3e 00
        E 0 80 41 00
        E 0 80 45 00
        E 416 90 3e 48
        E 24 90 41 48
        E 0 90 45 48
        E 260 80 3e 00
        E 0 80 41 00
        E 0 80 45 00
        e 490 90 3e 48
        e 24 90 41 48
        e 0 90 45 48
        e 260 80 3e 00
        e 0 80 41 00
        e 0 80 45 00
        E 186 b0 7b 00
        CHASE_CC_TAKEOFFS 1
        GUID {19362806-85F2-5D9E-E1F9-07BE0CF3D16E}
        IGNTEMPO 0 120 4 4
        SRCCOLOR 25
        VELLANE -1 100 0
        CFGEDITVIEW 0 0.045808 45 12 0 -1 0 0 0 0.5
        KEYSNAP 0
        TRACKSEL 0
        EVTFILTER 0 -1 -1 -1 -1 0 0 0 0 -1 -1 -1 -1 0 -1 0 -1 -1
        CFGEDIT 1 1 0 1 0 0 1 1 1 1 1 1 58 171 1253 866 0 0 0 0 0.25 0 0 0 0 0.5 0 0 1 64
      >
    >
    <ITEM
      POSITION 72
      SNAPOFFS 0
      LENGTH 8
      LOOP 1
      ALLTAKES 0
      FADEIN 1 0 0 1 0 0
      FADEOUT 1 0 0 1 0 0
      MUTE 0
      SEL 1
      IGUID {6815070E-AB0A-A957-B640-A9E94C4DF3AC}
      IID 19
      NAME "01-Recorded MIDI"
      VOLPAN 1 0 1 -1
      SOFFS 0 0
      PLAYRATE 1 1 0 -1 0 0.0021
      CHANMODE 0
      GUID {84824F89-A00B-C488-29CE-6C806E40378C}
      RECPASS 1
      <SOURCE MIDI
        HASDATA 1 960 QN
        CCINTERP 32
        POOLEDEVTS {E2CD3B34-600D-3DDE-4545-3931E486F3F1}
        E 0 90 3c 48
        E 0 90 40 48
        E 0 90 43 48
        E 1920 80 3c 00
        E 0 80 40 00
        E 0 80 43 00
        E 0 90 3c 48
        E 0 90 40 48
        E 0 90 43 48
        E 260 80 3c 00
        E 0 80 40 00
        E 0 80 43 00
        E 440 90 3c 48
        E 0 90 40 48
        E 0 90 43 48
        E 260 80 3c 00
        E 0 80 40 00
        E 0 80 43 00
        e 514 90 3c 48
        e 0 90 40 48
        e 0 90 43 48
        e 260 80 3c 00
        e 0 80 40 00
        e 0 80 43 00
        E 186 90 43 48
        E 0 90 47 48
        E 20 90 40 48
        E 1900 80 43 00
        E 0 80 47 00
        E 0 80 40 00
        E 0 90 43 48
        E 0 90 47 48
        E 20 90 40 48
        E 240 80 43 00
        E 0 80 47 00
        E 0 80 40 00
        E 440 90 43 48
        E 0 90 47 48
        E 20 90 40 48
        E 240 80 43 00
        E 0 80 47 00
        E 0 80 40 00
        e 514 90 43 48
        e 0 90 47 48
        e 20 90 40 48
        e 240 80 43 00
        e 0 80 47 00
        e 0 80 40 00
        E 186 90 41 48
        E 0 90 45 48
        E 0 90 48 48
        E 1920 80 41 00
        E 0 80 45 00
        E 0 80 48 00
        E 0 90 41 48
        E 0 90 45 48
        E 0 90 48 48
        E 260 80 41 00
        E 0 80 45 00
        E 0 80 48 00
        E 440 90 41 48
        E 0 90 45 48
        E 0 90 48 48
        E 260 80 41 00
        E 0 80 45 00
        E 0 80 48 00
        e 514 90 41 48
        e 0 90 45 48
        e 0 90 48 48
        e 260 80 41 00
        e 0 80 45 00
        e 0 80 48 00
        E 162 90 3e 48
        E 24 90 41 48
        E 0 90 45 48
        E 1896 90 3e 48
        E 24 80 3e 00
        E 0 80 41 00
        E 0 80 45 00
        E 0 90 41 48
        E 0 90 45 48
        E 260 80 3e 00
        E 0 80 41 00
        E 0 80 45 00
        E 416 90 3e 48
        E 24 90 41 48
        E 0 90 45 48
        E 260 80 3e 00
        E 0 80 41 00
        E 0 80 45 00
        e 490 90 3e 48
        e 24 90 41 48
        e 0 90 45 48
        e 260 80 3e 00
        e 0 80 41 00
        e 0 80 45 00
        E 186 b0 7b 00
        CHASE_CC_TAKEOFFS 1
        GUID {6844F8A9-6BE9-023C-4A46-0A676470C99B}
        IGNTEMPO 0 120 4 4
        SRCCOLOR 26
        VELLANE -1 100 0
        CFGEDITVIEW 0 0.045808 45 12 0 -1 0 0 0 0.5
        KEYSNAP 0
        TRACKSEL 0
        EVTFILTER 0 -1 -1 -1 -1 0 0 0 0 -1 -1 -1 -1 0 -1 0 -1 -1
        CFGEDIT 1 1 0 1 0 0 1 1 1 1 1 1 58 171 1253 866 0 0 0 0 0.25 0 0 0 0 0.5 0 0 1 64
      >
    >
    <ITEM
      POSITION 80
      SNAPOFFS 0
      LENGTH 8
      LOOP 1
      ALLTAKES 0
      FADEIN 1 0 0 1 0 0
      FADEOUT 1 0 0 1 0 0
      MUTE 0
      SEL 1
      IGUID {D2A34DA1-4052-416A-5E9E-1844602340D9}
      IID 20
      NAME "01-Recorded MIDI"
      VOLPAN 1 0 1 -1
      SOFFS 0 0
      PLAYRATE 1 1 0 -1 0 0.0021
      CHANMODE 0
      GUID {50F723F3-A17B-8B02-559B-31A66EAB297A}
      RECPASS 1
      <SOURCE MIDI
        HASDATA 1 960 QN
        CCINTERP 32
        POOLEDEVTS {357E74A7-A333-1C7C-08D5-59BD5691F2CD}
        E 0 90 3c 48
        E 0 90 40 48
        E 0 90 43 48
        E 1920 80 3c 00
        E 0 80 40 00
        E 0 80 43 00
        E 0 90 3c 48
        E 0 90 40 48
        E 0 90 43 48
        E 260 80 3c 00
        E 0 80 40 00
        E 0 80 43 00
        E 440 90 3c 48
        E 0 90 40 48
        E 0 90 43 48
        E 260 80 3c 00
        E 0 80 40 00
        E 0 80 43 00
        e 514 90 3c 48
        e 0 90 40 48
        e 0 90 43 48
        e 260 80 3c 00
        e 0 80 40 00
        e 0 80 43 00
        E 186 90 43 48
        E 0 90 47 48
        E 20 90 40 48
        E 1900 80 43 00
        E 0 80 47 00
        E 0 80 40 00
        E 0 90 43 48
        E 0 90 47 48
        E 20 90 40 48
        E 240 80 43 00
        E 0 80 47 00
        E 0 80 40 00
        E 440 90 43 48
        E 0 90 47 48
        E 20 90 40 48
        E 240 80 43 00
        E 0 80 47 00
        E 0 80 40 00
        e 514 90 43 48
        e 0 90 47 48
        e 20 90 40 48
        e 240 80 43 00
        e 0 80 47 00
        e 0 80 40 00
        E 186 90 41 48
        E 0 90 45 48
        E 0 90 48 48
        E 1920 80 41 00
        E 0 80 45 00
        E 0 80 48 00
        E 0 90 41 48
        E 0 90 45 48
        E 0 90 48 48
        E 260 80 41 00
        E 0 80 45 00
        E 0 80 48 00
        E 440 90 41 48
        E 0 90 45 48
        E 0 90 48 48
        E 260 80 41 00
        E 0 80 45 00
        E 0 80 48 00
        e 514 90 41 48
        e 0 90 45 48
        e 0 90 48 48
        e 260 80 41 00
        e 0 80 45 00
        e 0 80 48 00
        E 162 90 3e 48
        E 24 90 41 48
        E 0 90 45 48
        E 1896 90 3e 48
        E 24 80 3e 00
        E 0 80 41 00
        E 0 80 45 00
        E 0 90 41 48
        E 0 90 45 48
        E 260 80 3e 00
        E 0 80 41 00
        E 0 80 45 00
        E 416 90 3e 48
        E 24 90 41 48
        E 0 90 45 48
        E 260 80 3e 00
        E 0 80 41 00
        E 0 80 45 00
        e 490 90 3e 48
        e 24 90 41 48
        e 0 90 45 48
        e 260 80 3e 00
        e 0 80 41 00
        e 0 80 45 00
        E 186 b0 7b 00
        CHASE_CC_TAKEOFFS 1
        GUID {E611ADB6-4869-6CCA-8E83-3954D5E743B1}
        IGNTEMPO 0 120 4 4
        SRCCOLOR 27
        VELLANE -1 100 0
        CFGEDITVIEW 0 0.045808 45 12 0 -1 0 0 0 0.5
        KEYSNAP 0
        TRACKSEL 0
        EVTFILTER 0 -1 -1 -1 -1 0 0 0 0 -1 -1 -1 -1 0 -1 0 -1 -1
        CFGEDIT 1 1 0 1 0 0 1 1 1 1 1 1 58 171 1253 866 0 0 0 0 0.25 0 0 0 0 0.5 0 0 1 64
      >
    >
    <ITEM
      POSITION 88
      SNAPOFFS 0
      LENGTH 8
      LOOP 1
      ALLTAKES 0
      FADEIN 1 0 0 1 0 0
      FADEOUT 1 0 0 1 0 0
      MUTE 0
      SEL 1
      IGUID {4FE94EAC-D50A-E947-3FC9-D01A1626314D}
      IID 21
      NAME "01-Recorded MIDI"
      VOLPAN 1 0 1 -1
      SOFFS 0 0
      PLAYRATE 1 1 0 -1 0 0.0021
      CHANMODE 0
      GUID {59F36B56-2E0C-D48A-8F9E-9904F99ECFFA}
      RECPASS 1
      <SOURCE MIDI
        HASDATA 1 960 QN
        CCINTERP 32
        POOLEDEVTS {FA983BFC-B84F-FB0B-B0FD-1C42C47EE87D}
        E 0 90 3c 48
        E 0 90 40 48
        E 0 90 43 48
        E 1920 80 3c 00
        E 0 80 40 00
        E 0 80 43 00
        E 0 90 3c 48
        E 0 90 40 48
        E 0 90 43 48
        E 260 80 3c 00
        E 0 80 40 00
        E 0 80 43 00
        E 440 90 3c 48
        E 0 90 40 48
        E 0 90 43 48
        E 260 80 3c 00
        E 0 80 40 00
        E 0 80 43 00
        e 514 90 3c 48
        e 0 90 40 48
        e 0 90 43 48
        e 260 80 3c 00
        e 0 80 40 00
        e 0 80 43 00
        E 186 90 43 48
        E 0 90 47 48
        E 20 90 40 48
        E 1900 80 43 00
        E 0 80 47 00
        E 0 80 40 00
        E 0 90 43 48
        E 0 90 47 48
        E 20 90 40 48
        E 240 80 43 00
        E 0 80 47 00
        E 0 80 40 00
        E 440 90 43 48
        E 0 90 47 48
        E 20 90 40 48
        E 240 80 43 00
        E 0 80 47 00
        E 0 80 40 00
        e 514 90 43 48
        e 0 90 47 48
        e 20 90 40 48
        e 240 80 43 00
        e 0 80 47 00
        e 0 80 40 00
        E 186 90 41 48
        E 0 90 45 48
        E 0 90 48 48
        E 1920 80 41 00
        E 0 80 45 00
        E 0 80 48 00
        E 0 90 41 48
        E 0 90 45 48
        E 0 90 48 48
        E 260 80 41 00
        E 0 80 45 00
        E 0 80 48 00
        E 440 90 41 48
        E 0 90 45 48
        E 0 90 48 48
        E 260 80 41 00
        E 0 80 45 00
        E 0 80 48 00
        e 514 90 41 48
        e 0 90 45 48
        e 0 90 48 48
        e 260 80 41 00
        e 0 80 45 00
        e 0 80 48 00
        E 162 90 3e 48
        E 24 90 41 48
        E 0 90 45 48
        E 1896 90 3e 48
        E 24 80 3e 00
        E 0 80 41 00
        E 0 80 45 00
        E 0 90 41 48
        E 0 90 45 48
        E 260 80 3e 00
        E 0 80 41 00
        E 0 80 45 00
        E 416 90 3e 48
        E 24 90 41 48
        E 0 90 45 48
        E 260 80 3e 00
        E 0 80 41 00
        E 0 80 45 00
        e 490 90 3e 48
        e 24 90 41 48
        e 0 90 45 48
        e 260 80 3e 00
        e 0 80 41 00
        e 0 80 45 00
        E 186 b0 7b 00
        CHASE_CC_TAKEOFFS 1
        GUID {C762B555-17FC-D765-5340-11D3487D2955}
        IGNTEMPO 0 120 4 4
        SRCCOLOR 28
        VELLANE -1 100 0
        CFGEDITVIEW 0 0.045808 45 12 0 -1 0 0 0 0.5
        KEYSNAP 0
        TRACKSEL 0
        EVTFILTER 0 -1 -1 -1 -1 0 0 0 0 -1 -1 -1 -1 0 -1 0 -1 -1
        CFGEDIT 1 1 0 1 0 0 1 1 1 1 1 1 58 171 1253 866 0 0 0 0 0.25 0 0 0 0 0.5 0 0 1 64
      >
    >
  >
  <TRACK {19810E95-6494-6A0B-A041-874CD7170721}
    NAME ""
    PEAKCOL 16576
    BEAT -1
    AUTOMODE 0
    VOLPAN 0.00052194381917 0 -1 -1 1
    MUTESOLO 0 0 0
    IPHASE 0
    PLAYOFFS 0 1
    ISBUS 0 0
    BUSCOMP 0 0 0 0 0
    SHOWINMIX 1 0.6667 0.5 1 0.5 0 0 0
    FREEMODE 0
    SEL 0
    REC 0 5056 1 0 0 0 0
    VU 2
    TRACKHEIGHT 21 0 0
    INQ 0 0 0 0.5 100 0 0 100
    NCHAN 2
    FX 0
    TRACKID {19810E95-6494-6A0B-A041-874CD7170721}
    PERF 0
    MIDIOUT -1
    MAINSEND 1 0
    <FXCHAIN
      WNDRECT 346 266 902 608
      SHOW 0
      LASTSEL 5
      DOCKED 0
      BYPASS 0 0 0
      <VST "VST: ReaEQ (Cockos)" reaeq.vst.so 0 "" 1919247729<56535472656571726561657100000000> ""
        cWVlcu5e7f4CAAAAAQAAAAAAAAACAAAAAAAAAAIAAAABAAAAAAAAAAIAAAAAAAAAqAAAAAEAAAAAABAA
        IQAAAAQAAAAEAAAAAQAAAEC4Xhmm+DRAAAAAAAAA8D8AAAAAAAAAQAEIAAAAAQAAAAAAAAAAwHJAAAAAAAAA8D8AAAAAAAAAQAEIAAAAAQAAAAAAAAAAQI9AAAAAAAAA
        8D8AAAAAAAAAQAEDAAAAAQAAAAABaCorbdRAAAAAAAAA8D8AAAAAAAAAQAEBAAAAAQAAAAAAAAAAAPA/AAAAAJoCAACcAQAA
        AEhpZ2ggbG93IHBhc3MAEAAAAA==
      >
      PRESETNAME "High low pass"
      FLOATPOS 0 0 0 0
      FXID {10EF0354-FA5A-80F8-7109-305225AB4442}
      WAK 0 0
      BYPASS 0 0 0
      <VST "VSTi: ReaSynth (Cockos)" reasynth.vst.so 0 "" 1919251321<5653547265737972656173796E746800> ""
        eXNlcu9e7f4AAAAAAgAAAAEAAAAAAAAAAgAAAAAAAAA8AAAAAAAAAAAAEAA=
        776t3g3wrd6lm8Q7F7fROgAAAAAAAAAAAAAAAJCNuT3oZ4g9AACAPwAAAD8AAIA/AAAAAAAAAD8AAAAA
        AAAQAAAA
      >
      FLOATPOS 0 0 0 0
      FXID {BE6FADC8-119A-E60F-2070-AE72BF7E4BAB}
      WAK 0 0
      BYPASS 0 0 0
      <JS guitar/amp-model ""
        "Dumble Overdrive Special - Tweed Deluxe.wav" -21.000000 1.000000 0.000000 73.000000 256.000000 - - - - - - - - - - - - - - - - - - - - - - - - - - - - - - - - - - - - - - - - - - - - - - - - - - - - - - - - - - 
      >
      FLOATPOS 0 0 0 0
      FXID {A68CD24E-7212-057E-DEB5-26ED67F710AF}
      WAK 0 0
      BYPASS 0 0 0
      <VST "VST: ReaComp (Cockos)" reacomp.vst.so 0 "" 1919247213<5653547265636D726561636F6D700000> ""
        bWNlcu9e7f4EAAAAAQAAAAAAAAACAAAAAAAAAAQAAAAAAAAACAAAAAAAAAACAAAAAQAAAAAAAAACAAAAAAAAAFQAAAAAAAAAAAAQAA==
        776t3g3wrd5FoYg9/AWpPKWbxDsK16M8AAAAAAAAAAAAAIA/AAAAAAAAAAAAAAAAnNEHMwAAgD8AAAAAzMxMPQAAAAAAAAAAAAAAAAAAgD7YiZ09
        AAAQAAAA
      >
      FLOATPOS 0 0 0 0
      FXID {792F57E1-6252-75B5-A5CA-80E841D74EBD}
      WAK 0 0
      BYPASS 0 0 0
      <VST "VST: ReaDelay (Cockos)" readelay.vst.so 0 "" 1919247468<5653547265646C72656164656C617900> ""
        bGRlcu5e7f4CAAAAAQAAAAAAAAACAAAAAAAAAAIAAAABAAAAAAAAAAIAAAAAAAAA/AAAAAEAAAAAAAAA
        AAAAAAAAAAAFAAAALAAAAAIAAAAEAAAAAACAPwAAgD8AAAAAAACAPwAAAAAAAIA7vTeGNQAAgD8AAAAAAACAPwAAgD8AAIA/AAAAAAAAAAAAAIA/AAAAAAAAADwAAAAA
        AACAPwAAAAAAAIA/AACAP+87NT8AAIA/AAAAAAAAgD8AAAAAAABAPL03hjUAAIA/AAAAAAAAgD8AAIA/zk0AP6abhD4AAAAAAACAPwAAAAAAAIA8vTeGNQAAgD8AAAAA
        AACAPwAAgD8aqrU+pHA9PwAAAAAAAIA/AAAAAAAAoDy9N4Y1AACAPwAAAAAAAIA/AACAP/npAD4AAAA/
        AHN0b2NrIC0gYmFzaWMgNSB0YXAgcGluZyBwb25nAAAAAAA=
      >
      PRESETNAME "stock - basic 5 tap ping pong"
      FLOATPOS 0 0 0 0
      FXID {63961CBA-0FC2-5CAC-03E9-8847242DC8C4}
      WAK 0 0
      BYPASS 0 0 0
      <VST "VST: ReaVerb (Cockos)" reaverb.vst.so 0 "" 1919252066<56535472657662726561766572620000> ""
        YnZlcu5e7f4CAAAAAQAAAAAAAAACAAAAAAAAAAIAAAABAAAAAAAAAAIAAAAAAAAAcAAAAAEAAAAAAAAA
        AAAAwcybgD4AAIA/AAAAAAAAgD8AAIA/AAAAPwAAgD8AAAAAVkVSQkdFTgAYAAAAAAAAAJHgV0QdrLRA3rK7QsHIjEIAAIC/RUNIT0dFTgAcAAAAy/i2QLUjdUJdzdM/
        osdfP5lRrzyRzYxAnMQAPw==
        AHN3ZWV0dmVyYm8AAAAAAA==
      >
      PRESETNAME sweetverbo
      FLOATPOS 0 0 0 0
      FXID {97B42389-D57E-0734-7A9C-290D92A4515F}
      WAK 0 0
    >
    <ITEM
      POSITION 0
      SNAPOFFS 0
      LENGTH 8
      LOOP 1
      ALLTAKES 0
      FADEIN 1 0 0 1 0 0
      FADEOUT 1 0 0 1 0 0
      MUTE 0
      SEL 1
      IGUID {556BAE4B-45E0-F3E2-4821-510CDE4882C1}
      IID 10
      NAME "01-Recorded MIDI"
      VOLPAN 1 0 1 -1
      SOFFS 0 0
      PLAYRATE 1 1 0 -1 0 0.0021
      CHANMODE 0
      GUID {A4C8466E-61B3-A17C-2206-6CFAC7E4C64B}
      RECPASS 1
      <SOURCE MIDI
        HASDATA 1 960 QN
        CCINTERP 32
        POOLEDEVTS {587BF925-D62E-0E33-D861-CB97639AFEC7}
        E 0 90 3c 48
        E 0 90 40 48
        E 0 90 43 48
        E 1920 80 3c 00
        E 0 80 40 00
        E 0 80 43 00
        E 0 90 3c 48
        E 0 90 40 48
        E 0 90 43 48
        E 260 80 3c 00
        E 0 80 40 00
        E 0 80 43 00
        E 440 90 3c 48
        E 0 90 40 48
        E 0 90 43 48
        E 260 80 3c 00
        E 0 80 40 00
        E 0 80 43 00
        e 514 90 3c 48
        e 0 90 40 48
        e 0 90 43 48
        e 260 80 3c 00
        e 0 80 40 00
        e 0 80 43 00
        E 186 90 43 48
        E 0 90 47 48
        E 20 90 40 48
        E 1900 80 43 00
        E 0 80 47 00
        E 0 80 40 00
        E 0 90 43 48
        E 0 90 47 48
        E 20 90 40 48
        E 240 80 43 00
        E 0 80 47 00
        E 0 80 40 00
        E 440 90 43 48
        E 0 90 47 48
        E 20 90 40 48
        E 240 80 43 00
        E 0 80 47 00
        E 0 80 40 00
        e 514 90 43 48
        e 0 90 47 48
        e 20 90 40 48
        e 240 80 43 00
        e 0 80 47 00
        e 0 80 40 00
        E 186 90 41 48
        E 0 90 45 48
        E 0 90 48 48
        E 1920 80 41 00
        E 0 80 45 00
        E 0 80 48 00
        E 0 90 41 48
        E 0 90 45 48
        E 0 90 48 48
        E 260 80 41 00
        E 0 80 45 00
        E 0 80 48 00
        E 440 90 41 48
        E 0 90 45 48
        E 0 90 48 48
        E 260 80 41 00
        E 0 80 45 00
        E 0 80 48 00
        e 514 90 41 48
        e 0 90 45 48
        e 0 90 48 48
        e 260 80 41 00
        e 0 80 45 00
        e 0 80 48 00
        E 162 90 3e 48
        E 24 90 41 48
        E 0 90 45 48
        E 1896 90 3e 48
        E 24 80 3e 00
        E 0 80 41 00
        E 0 80 45 00
        E 0 90 41 48
        E 0 90 45 48
        E 260 80 3e 00
        E 0 80 41 00
        E 0 80 45 00
        E 416 90 3e 48
        E 24 90 41 48
        E 0 90 45 48
        E 260 80 3e 00
        E 0 80 41 00
        E 0 80 45 00
        e 490 90 3e 48
        e 24 90 41 48
        e 0 90 45 48
        e 260 80 3e 00
        e 0 80 41 00
        e 0 80 45 00
        E 186 b0 7b 00
        CHASE_CC_TAKEOFFS 1
        GUID {7B9D708B-43E1-C8D4-C4B3-87E2A6C27801}
        IGNTEMPO 0 120 4 4
        SRCCOLOR 17
        VELLANE -1 100 0
        CFGEDITVIEW 0 0.045808 45 12 0 -1 0 0 0 0.5
        KEYSNAP 0
        TRACKSEL 0
        EVTFILTER 0 -1 -1 -1 -1 0 0 0 0 -1 -1 -1 -1 0 -1 0 -1 -1
        CFGEDIT 1 1 0 1 0 0 1 1 1 1 1 1 58 171 1253 866 0 0 0 0 0.25 0 0 0 0 0.5 0 0 1 64
      >
    >
    <ITEM
      POSITION 8
      SNAPOFFS 0
      LENGTH 8
      LOOP 1
      ALLTAKES 0
      FADEIN 1 0 0 1 0 0
      FADEOUT 1 0 0 1 0 0
      MUTE 0
      SEL 1
      IGUID {F56D3265-4A29-8554-CEB1-63BAD6BBA894}
      IID 11
      NAME "01-Recorded MIDI"
      VOLPAN 1 0 1 -1
      SOFFS 0 0
      PLAYRATE 1 1 0 -1 0 0.0021
      CHANMODE 0
      GUID {09F79921-A8CE-210D-517F-9C71FAA4E2A8}
      RECPASS 1
      <SOURCE MIDI
        HASDATA 1 960 QN
        CCINTERP 32
        POOLEDEVTS {B2114383-BF52-9D19-3624-E44235A2817A}
        E 0 90 3c 48
        E 0 90 40 48
        E 0 90 43 48
        E 1920 80 3c 00
        E 0 80 40 00
        E 0 80 43 00
        E 0 90 3c 48
        E 0 90 40 48
        E 0 90 43 48
        E 260 80 3c 00
        E 0 80 40 00
        E 0 80 43 00
        E 440 90 3c 48
        E 0 90 40 48
        E 0 90 43 48
        E 260 80 3c 00
        E 0 80 40 00
        E 0 80 43 00
        e 514 90 3c 48
        e 0 90 40 48
        e 0 90 43 48
        e 260 80 3c 00
        e 0 80 40 00
        e 0 80 43 00
        E 186 90 43 48
        E 0 90 47 48
        E 20 90 40 48
        E 1900 80 43 00
        E 0 80 47 00
        E 0 80 40 00
        E 0 90 43 48
        E 0 90 47 48
        E 20 90 40 48
        E 240 80 43 00
        E 0 80 47 00
        E 0 80 40 00
        E 440 90 43 48
        E 0 90 47 48
        E 20 90 40 48
        E 240 80 43 00
        E 0 80 47 00
        E 0 80 40 00
        e 514 90 43 48
        e 0 90 47 48
        e 20 90 40 48
        e 240 80 43 00
        e 0 80 47 00
        e 0 80 40 00
        E 186 90 41 48
        E 0 90 45 48
        E 0 90 48 48
        E 1920 80 41 00
        E 0 80 45 00
        E 0 80 48 00
        E 0 90 41 48
        E 0 90 45 48
        E 0 90 48 48
        E 260 80 41 00
        E 0 80 45 00
        E 0 80 48 00
        E 440 90 41 48
        E 0 90 45 48
        E 0 90 48 48
        E 260 80 41 00
        E 0 80 45 00
        E 0 80 48 00
        e 514 90 41 48
        e 0 90 45 48
        e 0 90 48 48
        e 260 80 41 00
        e 0 80 45 00
        e 0 80 48 00
        E 162 90 3e 48
        E 24 90 41 48
        E 0 90 45 48
        E 1896 90 3e 48
        E 24 80 3e 00
        E 0 80 41 00
        E 0 80 45 00
        E 0 90 41 48
        E 0 90 45 48
        E 260 80 3e 00
        E 0 80 41 00
        E 0 80 45 00
        E 416 90 3e 48
        E 24 90 41 48
        E 0 90 45 48
        E 260 80 3e 00
        E 0 80 41 00
        E 0 80 45 00
        e 490 90 3e 48
        e 24 90 41 48
        e 0 90 45 48
        e 260 80 3e 00
        e 0 80 41 00
        e 0 80 45 00
        E 186 b0 7b 00
        CHASE_CC_TAKEOFFS 1
        GUID {3131B4E2-B370-E352-A9C5-C8CA31551A86}
        IGNTEMPO 0 120 4 4
        SRCCOLOR 18
        VELLANE -1 100 0
        CFGEDITVIEW 0 0.045808 45 12 0 -1 0 0 0 0.5
        KEYSNAP 0
        TRACKSEL 0
        EVTFILTER 0 -1 -1 -1 -1 0 0 0 0 -1 -1 -1 -1 0 -1 0 -1 -1
        CFGEDIT 1 1 0 1 0 0 1 1 1 1 1 1 58 171 1253 866 0 0 0 0 0.25 0 0 0 0 0.5 0 0 1 64
      >
    >
    <ITEM
      POSITION 16
      SNAPOFFS 0
      LENGTH 8
      LOOP 1
      ALLTAKES 0
      FADEIN 1 0 0 1 0 0
      FADEOUT 1 0 0 1 0 0
      MUTE 0
      SEL 1
      IGUID {5849475B-1D5C-047D-3C35-B5A85CA69AC1}
      IID 12
      NAME "01-Recorded MIDI"
      VOLPAN 1 0 1 -1
      SOFFS 0 0
      PLAYRATE 1 1 0 -1 0 0.0021
      CHANMODE 0
      GUID {D063E426-52E0-5579-5A04-E89055EB1AFC}
      RECPASS 1
      <SOURCE MIDI
        HASDATA 1 960 QN
        CCINTERP 32
        POOLEDEVTS {9E1B75C6-D88D-F57F-3AB3-5870BD2274FC}
        E 0 90 3c 48
        E 0 90 40 48
        E 0 90 43 48
        E 1920 80 3c 00
        E 0 80 40 00
        E 0 80 43 00
        E 0 90 3c 48
        E 0 90 40 48
        E 0 90 43 48
        E 260 80 3c 00
        E 0 80 40 00
        E 0 80 43 00
        E 440 90 3c 48
        E 0 90 40 48
        E 0 90 43 48
        E 260 80 3c 00
        E 0 80 40 00
        E 0 80 43 00
        e 514 90 3c 48
        e 0 90 40 48
        e 0 90 43 48
        e 260 80 3c 00
        e 0 80 40 00
        e 0 80 43 00
        E 186 90 43 48
        E 0 90 47 48
        E 20 90 40 48
        E 1900 80 43 00
        E 0 80 47 00
        E 0 80 40 00
        E 0 90 43 48
        E 0 90 47 48
        E 20 90 40 48
        E 240 80 43 00
        E 0 80 47 00
        E 0 80 40 00
        E 440 90 43 48
        E 0 90 47 48
        E 20 90 40 48
        E 240 80 43 00
        E 0 80 47 00
        E 0 80 40 00
        e 514 90 43 48
        e 0 90 47 48
        e 20 90 40 48
        e 240 80 43 00
        e 0 80 47 00
        e 0 80 40 00
        E 186 90 41 48
        E 0 90 45 48
        E 0 90 48 48
        E 1920 80 41 00
        E 0 80 45 00
        E 0 80 48 00
        E 0 90 41 48
        E 0 90 45 48
        E 0 90 48 48
        E 260 80 41 00
        E 0 80 45 00
        E 0 80 48 00
        E 440 90 41 48
        E 0 90 45 48
        E 0 90 48 48
        E 260 80 41 00
        E 0 80 45 00
        E 0 80 48 00
        e 514 90 41 48
        e 0 90 45 48
        e 0 90 48 48
        e 260 80 41 00
        e 0 80 45 00
        e 0 80 48 00
        E 162 90 3e 48
        E 24 90 41 48
        E 0 90 45 48
        E 1896 90 3e 48
        E 24 80 3e 00
        E 0 80 41 00
        E 0 80 45 00
        E 0 90 41 48
        E 0 90 45 48
        E 260 80 3e 00
        E 0 80 41 00
        E 0 80 45 00
        E 416 90 3e 48
        E 24 90 41 48
        E 0 90 45 48
        E 260 80 3e 00
        E 0 80 41 00
        E 0 80 45 00
        e 490 90 3e 48
        e 24 90 41 48
        e 0 90 45 48
        e 260 80 3e 00
        e 0 80 41 00
        e 0 80 45 00
        E 186 b0 7b 00
        CHASE_CC_TAKEOFFS 1
        GUID {48C567A2-895C-FB9B-FDBA-0ADB7004ABF3}
        IGNTEMPO 0 120 4 4
        SRCCOLOR 19
        VELLANE -1 100 0
        CFGEDITVIEW 0 0.045808 45 12 0 -1 0 0 0 0.5
        KEYSNAP 0
        TRACKSEL 0
        EVTFILTER 0 -1 -1 -1 -1 0 0 0 0 -1 -1 -1 -1 0 -1 0 -1 -1
        CFGEDIT 1 1 0 1 0 0 1 1 1 1 1 1 58 171 1253 866 0 0 0 0 0.25 0 0 0 0 0.5 0 0 1 64
      >
    >
    <ITEM
      POSITION 24
      SNAPOFFS 0
      LENGTH 8
      LOOP 1
      ALLTAKES 0
      FADEIN 1 0 0 1 0 0
      FADEOUT 1 0 0 1 0 0
      MUTE 0
      SEL 1
      IGUID {10C7B94F-9059-3A11-FEC9-78BA95B1E1BC}
      IID 13
      NAME "01-Recorded MIDI"
      VOLPAN 1 0 1 -1
      SOFFS 0 0
      PLAYRATE 1 1 0 -1 0 0.0021
      CHANMODE 0
      GUID {CEA9A39F-07AC-2BC0-5167-1963A8185B7A}
      RECPASS 1
      <SOURCE MIDI
        HASDATA 1 960 QN
        CCINTERP 32
        POOLEDEVTS {7D69604D-C24F-53C9-53AA-DB53C0A27214}
        E 0 90 3c 48
        E 0 90 40 48
        E 0 90 43 48
        E 1920 80 3c 00
        E 0 80 40 00
        E 0 80 43 00
        E 0 90 3c 48
        E 0 90 40 48
        E 0 90 43 48
        E 260 80 3c 00
        E 0 80 40 00
        E 0 80 43 00
        E 440 90 3c 48
        E 0 90 40 48
        E 0 90 43 48
        E 260 80 3c 00
        E 0 80 40 00
        E 0 80 43 00
        e 514 90 3c 48
        e 0 90 40 48
        e 0 90 43 48
        e 260 80 3c 00
        e 0 80 40 00
        e 0 80 43 00
        E 186 90 43 48
        E 0 90 47 48
        E 20 90 40 48
        E 1900 80 43 00
        E 0 80 47 00
        E 0 80 40 00
        E 0 90 43 48
        E 0 90 47 48
        E 20 90 40 48
        E 240 80 43 00
        E 0 80 47 00
        E 0 80 40 00
        E 440 90 43 48
        E 0 90 47 48
        E 20 90 40 48
        E 240 80 43 00
        E 0 80 47 00
        E 0 80 40 00
        e 514 90 43 48
        e 0 90 47 48
        e 20 90 40 48
        e 240 80 43 00
        e 0 80 47 00
        e 0 80 40 00
        E 186 90 41 48
        E 0 90 45 48
        E 0 90 48 48
        E 1920 80 41 00
        E 0 80 45 00
        E 0 80 48 00
        E 0 90 41 48
        E 0 90 45 48
        E 0 90 48 48
        E 260 80 41 00
        E 0 80 45 00
        E 0 80 48 00
        E 440 90 41 48
        E 0 90 45 48
        E 0 90 48 48
        E 260 80 41 00
        E 0 80 45 00
        E 0 80 48 00
        e 514 90 41 48
        e 0 90 45 48
        e 0 90 48 48
        e 260 80 41 00
        e 0 80 45 00
        e 0 80 48 00
        E 162 90 3e 48
        E 24 90 41 48
        E 0 90 45 48
        E 1896 90 3e 48
        E 24 80 3e 00
        E 0 80 41 00
        E 0 80 45 00
        E 0 90 41 48
        E 0 90 45 48
        E 260 80 3e 00
        E 0 80 41 00
        E 0 80 45 00
        E 416 90 3e 48
        E 24 90 41 48
        E 0 90 45 48
        E 260 80 3e 00
        E 0 80 41 00
        E 0 80 45 00
        e 490 90 3e 48
        e 24 90 41 48
        e 0 90 45 48
        e 260 80 3e 00
        e 0 80 41 00
        e 0 80 45 00
        E 186 b0 7b 00
        CHASE_CC_TAKEOFFS 1
        GUID {1DE38800-E2A1-41B5-9C8C-3291891093B1}
        IGNTEMPO 0 120 4 4
        SRCCOLOR 20
        VELLANE -1 100 0
        CFGEDITVIEW 0 0.045808 45 12 0 -1 0 0 0 0.5
        KEYSNAP 0
        TRACKSEL 0
        EVTFILTER 0 -1 -1 -1 -1 0 0 0 0 -1 -1 -1 -1 0 -1 0 -1 -1
        CFGEDIT 1 1 0 1 0 0 1 1 1 1 1 1 58 171 1253 866 0 0 0 0 0.25 0 0 0 0 0.5 0 0 1 64
      >
    >
    <ITEM
      POSITION 32
      SNAPOFFS 0
      LENGTH 8
      LOOP 1
      ALLTAKES 0
      FADEIN 1 0 0 1 0 0
      FADEOUT 1 0 0 1 0 0
      MUTE 0
      SEL 1
      IGUID {0A71A724-6B16-83AD-3B2F-7DFF98375A7A}
      IID 14
      NAME "01-Recorded MIDI"
      VOLPAN 1 0 1 -1
      SOFFS 0 0
      PLAYRATE 1 1 0 -1 0 0.0021
      CHANMODE 0
      GUID {D2EFD3D0-FEA1-6D64-92E3-CC230E1111CC}
      RECPASS 1
      <SOURCE MIDI
        HASDATA 1 960 QN
        CCINTERP 32
        POOLEDEVTS {EB2FCE91-5BE7-DEAE-7F16-3B47D6B0AE9B}
        E 0 90 3c 48
        E 0 90 40 48
        E 0 90 43 48
        E 1920 80 3c 00
        E 0 80 40 00
        E 0 80 43 00
        E 0 90 3c 48
        E 0 90 40 48
        E 0 90 43 48
        E 260 80 3c 00
        E 0 80 40 00
        E 0 80 43 00
        E 440 90 3c 48
        E 0 90 40 48
        E 0 90 43 48
        E 260 80 3c 00
        E 0 80 40 00
        E 0 80 43 00
        e 514 90 3c 48
        e 0 90 40 48
        e 0 90 43 48
        e 260 80 3c 00
        e 0 80 40 00
        e 0 80 43 00
        E 186 90 43 48
        E 0 90 47 48
        E 20 90 40 48
        E 1900 80 43 00
        E 0 80 47 00
        E 0 80 40 00
        E 0 90 43 48
        E 0 90 47 48
        E 20 90 40 48
        E 240 80 43 00
        E 0 80 47 00
        E 0 80 40 00
        E 440 90 43 48
        E 0 90 47 48
        E 20 90 40 48
        E 240 80 43 00
        E 0 80 47 00
        E 0 80 40 00
        e 514 90 43 48
        e 0 90 47 48
        e 20 90 40 48
        e 240 80 43 00
        e 0 80 47 00
        e 0 80 40 00
        E 186 90 41 48
        E 0 90 45 48
        E 0 90 48 48
        E 1920 80 41 00
        E 0 80 45 00
        E 0 80 48 00
        E 0 90 41 48
        E 0 90 45 48
        E 0 90 48 48
        E 260 80 41 00
        E 0 80 45 00
        E 0 80 48 00
        E 440 90 41 48
        E 0 90 45 48
        E 0 90 48 48
        E 260 80 41 00
        E 0 80 45 00
        E 0 80 48 00
        e 514 90 41 48
        e 0 90 45 48
        e 0 90 48 48
        e 260 80 41 00
        e 0 80 45 00
        e 0 80 48 00
        E 162 90 3e 48
        E 24 90 41 48
        E 0 90 45 48
        E 1896 90 3e 48
        E 24 80 3e 00
        E 0 80 41 00
        E 0 80 45 00
        E 0 90 41 48
        E 0 90 45 48
        E 260 80 3e 00
        E 0 80 41 00
        E 0 80 45 00
        E 416 90 3e 48
        E 24 90 41 48
        E 0 90 45 48
        E 260 80 3e 00
        E 0 80 41 00
        E 0 80 45 00
        e 490 90 3e 48
        e 24 90 41 48
        e 0 90 45 48
        e 260 80 3e 00
        e 0 80 41 00
        e 0 80 45 00
        E 186 b0 7b 00
        CHASE_CC_TAKEOFFS 1
        GUID {0C3271F4-E233-9088-9B25-A722FAE7C579}
        IGNTEMPO 0 120 4 4
        SRCCOLOR 21
        VELLANE -1 100 0
        CFGEDITVIEW 0 0.045808 45 12 0 -1 0 0 0 0.5
        KEYSNAP 0
        TRACKSEL 0
        EVTFILTER 0 -1 -1 -1 -1 0 0 0 0 -1 -1 -1 -1 0 -1 0 -1 -1
        CFGEDIT 1 1 0 1 0 0 1 1 1 1 1 1 58 171 1253 866 0 0 0 0 0.25 0 0 0 0 0.5 0 0 1 64
      >
    >
    <ITEM
      POSITION 40
      SNAPOFFS 0
      LENGTH 8
      LOOP 1
      ALLTAKES 0
      FADEIN 1 0 0 1 0 0
      FADEOUT 1 0 0 1 0 0
      MUTE 0
      SEL 1
      IGUID {2991A413-8561-9814-5339-2D32FA0576DA}
      IID 15
      NAME "01-Recorded MIDI"
      VOLPAN 1 0 1 -1
      SOFFS 0 0
      PLAYRATE 1 1 0 -1 0 0.0021
      CHANMODE 0
      GUID {06A364C7-27BA-2DFF-EFB4-53DC5169A636}
      RECPASS 1
      <SOURCE MIDI
        HASDATA 1 960 QN
        CCINTERP 32
        POOLEDEVTS {C104AABC-9728-F141-1D40-DAABDC5E38F2}
        E 0 90 3c 48
        E 0 90 40 48
        E 0 90 43 48
        E 1920 80 3c 00
        E 0 80 40 00
        E 0 80 43 00
        E 0 90 3c 48
        E 0 90 40 48
        E 0 90 43 48
        E 260 80 3c 00
        E 0 80 40 00
        E 0 80 43 00
        E 440 90 3c 48
        E 0 90 40 48
        E 0 90 43 48
        E 260 80 3c 00
        E 0 80 40 00
        E 0 80 43 00
        e 514 90 3c 48
        e 0 90 40 48
        e 0 90 43 48
        e 260 80 3c 00
        e 0 80 40 00
        e 0 80 43 00
        E 186 90 43 48
        E 0 90 47 48
        E 20 90 40 48
        E 1900 80 43 00
        E 0 80 47 00
        E 0 80 40 00
        E 0 90 43 48
        E 0 90 47 48
        E 20 90 40 48
        E 240 80 43 00
        E 0 80 47 00
        E 0 80 40 00
        E 440 90 43 48
        E 0 90 47 48
        E 20 90 40 48
        E 240 80 43 00
        E 0 80 47 00
        E 0 80 40 00
        e 514 90 43 48
        e 0 90 47 48
        e 20 90 40 48
        e 240 80 43 00
        e 0 80 47 00
        e 0 80 40 00
        E 186 90 41 48
        E 0 90 45 48
        E 0 90 48 48
        E 1920 80 41 00
        E 0 80 45 00
        E 0 80 48 00
        E 0 90 41 48
        E 0 90 45 48
        E 0 90 48 48
        E 260 80 41 00
        E 0 80 45 00
        E 0 80 48 00
        E 440 90 41 48
        E 0 90 45 48
        E 0 90 48 48
        E 260 80 41 00
        E 0 80 45 00
        E 0 80 48 00
        e 514 90 41 48
        e 0 90 45 48
        e 0 90 48 48
        e 260 80 41 00
        e 0 80 45 00
        e 0 80 48 00
        E 162 90 3e 48
        E 24 90 41 48
        E 0 90 45 48
        E 1896 90 3e 48
        E 24 80 3e 00
        E 0 80 41 00
        E 0 80 45 00
        E 0 90 41 48
        E 0 90 45 48
        E 260 80 3e 00
        E 0 80 41 00
        E 0 80 45 00
        E 416 90 3e 48
        E 24 90 41 48
        E 0 90 45 48
        E 260 80 3e 00
        E 0 80 41 00
        E 0 80 45 00
        e 490 90 3e 48
        e 24 90 41 48
        e 0 90 45 48
        e 260 80 3e 00
        e 0 80 41 00
        e 0 80 45 00
        E 186 b0 7b 00
        CHASE_CC_TAKEOFFS 1
        GUID {040E7AF8-3572-5D91-3C86-797AEE7444D4}
        IGNTEMPO 0 120 4 4
        SRCCOLOR 22
        VELLANE -1 100 0
        CFGEDITVIEW 0 0.045808 45 12 0 -1 0 0 0 0.5
        KEYSNAP 0
        TRACKSEL 0
        EVTFILTER 0 -1 -1 -1 -1 0 0 0 0 -1 -1 -1 -1 0 -1 0 -1 -1
        CFGEDIT 1 1 0 1 0 0 1 1 1 1 1 1 58 171 1253 866 0 0 0 0 0.25 0 0 0 0 0.5 0 0 1 64
      >
    >
    <ITEM
      POSITION 48
      SNAPOFFS 0
      LENGTH 8
      LOOP 1
      ALLTAKES 0
      FADEIN 1 0 0 1 0 0
      FADEOUT 1 0 0 1 0 0
      MUTE 0
      SEL 1
      IGUID {EBA46D6E-D012-C7B4-ACA7-F4231997F93C}
      IID 16
      NAME "01-Recorded MIDI"
      VOLPAN 1 0 1 -1
      SOFFS 0 0
      PLAYRATE 1 1 0 -1 0 0.0021
      CHANMODE 0
      GUID {7E20FC0E-5B81-5613-F6B0-3FA411728390}
      RECPASS 1
      <SOURCE MIDI
        HASDATA 1 960 QN
        CCINTERP 32
        POOLEDEVTS {28DCEAB1-F8FF-3313-256A-6F384226DCA1}
        E 0 90 3c 48
        E 0 90 40 48
        E 0 90 43 48
        E 1920 80 3c 00
        E 0 80 40 00
        E 0 80 43 00
        E 0 90 3c 48
        E 0 90 40 48
        E 0 90 43 48
        E 260 80 3c 00
        E 0 80 40 00
        E 0 80 43 00
        E 440 90 3c 48
        E 0 90 40 48
        E 0 90 43 48
        E 260 80 3c 00
        E 0 80 40 00
        E 0 80 43 00
        e 514 90 3c 48
        e 0 90 40 48
        e 0 90 43 48
        e 260 80 3c 00
        e 0 80 40 00
        e 0 80 43 00
        E 186 90 43 48
        E 0 90 47 48
        E 20 90 40 48
        E 1900 80 43 00
        E 0 80 47 00
        E 0 80 40 00
        E 0 90 43 48
        E 0 90 47 48
        E 20 90 40 48
        E 240 80 43 00
        E 0 80 47 00
        E 0 80 40 00
        E 440 90 43 48
        E 0 90 47 48
        E 20 90 40 48
        E 240 80 43 00
        E 0 80 47 00
        E 0 80 40 00
        e 514 90 43 48
        e 0 90 47 48
        e 20 90 40 48
        e 240 80 43 00
        e 0 80 47 00
        e 0 80 40 00
        E 186 90 41 48
        E 0 90 45 48
        E 0 90 48 48
        E 1920 80 41 00
        E 0 80 45 00
        E 0 80 48 00
        E 0 90 41 48
        E 0 90 45 48
        E 0 90 48 48
        E 260 80 41 00
        E 0 80 45 00
        E 0 80 48 00
        E 440 90 41 48
        E 0 90 45 48
        E 0 90 48 48
        E 260 80 41 00
        E 0 80 45 00
        E 0 80 48 00
        e 514 90 41 48
        e 0 90 45 48
        e 0 90 48 48
        e 260 80 41 00
        e 0 80 45 00
        e 0 80 48 00
        E 162 90 3e 48
        E 24 90 41 48
        E 0 90 45 48
        E 1896 90 3e 48
        E 24 80 3e 00
        E 0 80 41 00
        E 0 80 45 00
        E 0 90 41 48
        E 0 90 45 48
        E 260 80 3e 00
        E 0 80 41 00
        E 0 80 45 00
        E 416 90 3e 48
        E 24 90 41 48
        E 0 90 45 48
        E 260 80 3e 00
        E 0 80 41 00
        E 0 80 45 00
        e 490 90 3e 48
        e 24 90 41 48
        e 0 90 45 48
        e 260 80 3e 00
        e 0 80 41 00
        e 0 80 45 00
        E 186 b0 7b 00
        CHASE_CC_TAKEOFFS 1
        GUID {2338968B-6CF9-9F40-300F-DEB89D3392EA}
        IGNTEMPO 0 120 4 4
        SRCCOLOR 23
        VELLANE -1 100 0
        CFGEDITVIEW 0 0.045808 45 12 0 -1 0 0 0 0.5
        KEYSNAP 0
        TRACKSEL 0
        EVTFILTER 0 -1 -1 -1 -1 0 0 0 0 -1 -1 -1 -1 0 -1 0 -1 -1
        CFGEDIT 1 1 0 1 0 0 1 1 1 1 1 1 58 171 1253 866 0 0 0 0 0.25 0 0 0 0 0.5 0 0 1 64
      >
    >
    <ITEM
      POSITION 56
      SNAPOFFS 0
      LENGTH 8
      LOOP 1
      ALLTAKES 0
      FADEIN 1 0 0 1 0 0
      FADEOUT 1 0 0 1 0 0
      MUTE 0
      SEL 1
      IGUID {082C1D13-A9B4-3916-1122-3B26471F2133}
      IID 17
      NAME "01-Recorded MIDI"
      VOLPAN 1 0 1 -1
      SOFFS 0 0
      PLAYRATE 1 1 0 -1 0 0.0021
      CHANMODE 0
      GUID {C436C55E-6ADB-946A-B891-E610EAB2F69C}
      RECPASS 1
      <SOURCE MIDI
        HASDATA 1 960 QN
        CCINTERP 32
        POOLEDEVTS {6AE376A3-8781-B3BA-4D9F-28014F0CE10A}
        E 0 90 3c 48
        E 0 90 40 48
        E 0 90 43 48
        E 1920 80 3c 00
        E 0 80 40 00
        E 0 80 43 00
        E 0 90 3c 48
        E 0 90 40 48
        E 0 90 43 48
        E 260 80 3c 00
        E 0 80 40 00
        E 0 80 43 00
        E 440 90 3c 48
        E 0 90 40 48
        E 0 90 43 48
        E 260 80 3c 00
        E 0 80 40 00
        E 0 80 43 00
        e 514 90 3c 48
        e 0 90 40 48
        e 0 90 43 48
        e 260 80 3c 00
        e 0 80 40 00
        e 0 80 43 00
        E 186 90 43 48
        E 0 90 47 48
        E 20 90 40 48
        E 1900 80 43 00
        E 0 80 47 00
        E 0 80 40 00
        E 0 90 43 48
        E 0 90 47 48
        E 20 90 40 48
        E 240 80 43 00
        E 0 80 47 00
        E 0 80 40 00
        E 440 90 43 48
        E 0 90 47 48
        E 20 90 40 48
        E 240 80 43 00
        E 0 80 47 00
        E 0 80 40 00
        e 514 90 43 48
        e 0 90 47 48
        e 20 90 40 48
        e 240 80 43 00
        e 0 80 47 00
        e 0 80 40 00
        E 186 90 41 48
        E 0 90 45 48
        E 0 90 48 48
        E 1920 80 41 00
        E 0 80 45 00
        E 0 80 48 00
        E 0 90 41 48
        E 0 90 45 48
        E 0 90 48 48
        E 260 80 41 00
        E 0 80 45 00
        E 0 80 48 00
        E 440 90 41 48
        E 0 90 45 48
        E 0 90 48 48
        E 260 80 41 00
        E 0 80 45 00
        E 0 80 48 00
        e 514 90 41 48
        e 0 90 45 48
        e 0 90 48 48
        e 260 80 41 00
        e 0 80 45 00
        e 0 80 48 00
        E 162 90 3e 48
        E 24 90 41 48
        E 0 90 45 48
        E 1896 90 3e 48
        E 24 80 3e 00
        E 0 80 41 00
        E 0 80 45 00
        E 0 90 41 48
        E 0 90 45 48
        E 260 80 3e 00
        E 0 80 41 00
        E 0 80 45 00
        E 416 90 3e 48
        E 24 90 41 48
        E 0 90 45 48
        E 260 80 3e 00
        E 0 80 41 00
        E 0 80 45 00
        e 490 90 3e 48
        e 24 90 41 48
        e 0 90 45 48
        e 260 80 3e 00
        e 0 80 41 00
        e 0 80 45 00
        E 186 b0 7b 00
        CHASE_CC_TAKEOFFS 1
        GUID {A64857E2-94F8-0990-20DF-4C1E9B5E6251}
        IGNTEMPO 0 120 4 4
        SRCCOLOR 24
        VELLANE -1 100 0
        CFGEDITVIEW 0 0.045808 45 12 0 -1 0 0 0 0.5
        KEYSNAP 0
        TRACKSEL 0
        EVTFILTER 0 -1 -1 -1 -1 0 0 0 0 -1 -1 -1 -1 0 -1 0 -1 -1
        CFGEDIT 1 1 0 1 0 0 1 1 1 1 1 1 58 171 1253 866 0 0 0 0 0.25 0 0 0 0 0.5 0 0 1 64
      >
    >
    <ITEM
      POSITION 64
      SNAPOFFS 0
      LENGTH 8
      LOOP 1
      ALLTAKES 0
      FADEIN 1 0 0 1 0 0
      FADEOUT 1 0 0 1 0 0
      MUTE 0
      SEL 1
      IGUID {FE7ED3CA-18AB-D656-686F-1E3A01D12402}
      IID 18
      NAME "01-Recorded MIDI"
      VOLPAN 1 0 1 -1
      SOFFS 0 0
      PLAYRATE 1 1 0 -1 0 0.0021
      CHANMODE 0
      GUID {A0F5021C-8C20-5988-A8FF-3307D45662E7}
      RECPASS 1
      <SOURCE MIDI
        HASDATA 1 960 QN
        CCINTERP 32
        POOLEDEVTS {6968E7C3-C293-4D1F-6125-E3E86DBF3ACB}
        E 0 90 3c 48
        E 0 90 40 48
        E 0 90 43 48
        E 1920 80 3c 00
        E 0 80 40 00
        E 0 80 43 00
        E 0 90 3c 48
        E 0 90 40 48
        E 0 90 43 48
        E 260 80 3c 00
        E 0 80 40 00
        E 0 80 43 00
        E 440 90 3c 48
        E 0 90 40 48
        E 0 90 43 48
        E 260 80 3c 00
        E 0 80 40 00
        E 0 80 43 00
        e 514 90 3c 48
        e 0 90 40 48
        e 0 90 43 48
        e 260 80 3c 00
        e 0 80 40 00
        e 0 80 43 00
        E 186 90 43 48
        E 0 90 47 48
        E 20 90 40 48
        E 1900 80 43 00
        E 0 80 47 00
        E 0 80 40 00
        E 0 90 43 48
        E 0 90 47 48
        E 20 90 40 48
        E 240 80 43 00
        E 0 80 47 00
        E 0 80 40 00
        E 440 90 43 48
        E 0 90 47 48
        E 20 90 40 48
        E 240 80 43 00
        E 0 80 47 00
        E 0 80 40 00
        e 514 90 43 48
        e 0 90 47 48
        e 20 90 40 48
        e 240 80 43 00
        e 0 80 47 00
        e 0 80 40 00
        E 186 90 41 48
        E 0 90 45 48
        E 0 90 48 48
        E 1920 80 41 00
        E 0 80 45 00
        E 0 80 48 00
        E 0 90 41 48
        E 0 90 45 48
        E 0 90 48 48
        E 260 80 41 00
        E 0 80 45 00
        E 0 80 48 00
        E 440 90 41 48
        E 0 90 45 48
        E 0 90 48 48
        E 260 80 41 00
        E 0 80 45 00
        E 0 80 48 00
        e 514 90 41 48
        e 0 90 45 48
        e 0 90 48 48
        e 260 80 41 00
        e 0 80 45 00
        e 0 80 48 00
        E 162 90 3e 48
        E 24 90 41 48
        E 0 90 45 48
        E 1896 90 3e 48
        E 24 80 3e 00
        E 0 80 41 00
        E 0 80 45 00
        E 0 90 41 48
        E 0 90 45 48
        E 260 80 3e 00
        E 0 80 41 00
        E 0 80 45 00
        E 416 90 3e 48
        E 24 90 41 48
        E 0 90 45 48
        E 260 80 3e 00
        E 0 80 41 00
        E 0 80 45 00
        e 490 90 3e 48
        e 24 90 41 48
        e 0 90 45 48
        e 260 80 3e 00
        e 0 80 41 00
        e 0 80 45 00
        E 186 b0 7b 00
        CHASE_CC_TAKEOFFS 1
        GUID {19362806-85F2-5D9E-E1F9-07BE0CF3D16E}
        IGNTEMPO 0 120 4 4
        SRCCOLOR 25
        VELLANE -1 100 0
        CFGEDITVIEW 0 0.045808 45 12 0 -1 0 0 0 0.5
        KEYSNAP 0
        TRACKSEL 0
        EVTFILTER 0 -1 -1 -1 -1 0 0 0 0 -1 -1 -1 -1 0 -1 0 -1 -1
        CFGEDIT 1 1 0 1 0 0 1 1 1 1 1 1 58 171 1253 866 0 0 0 0 0.25 0 0 0 0 0.5 0 0 1 64
      >
    >
    <ITEM
      POSITION 72
      SNAPOFFS 0
      LENGTH 8
      LOOP 1
      ALLTAKES 0
      FADEIN 1 0 0 1 0 0
      FADEOUT 1 0 0 1 0 0
      MUTE 0
      SEL 1
      IGUID {75E74343-1011-CF65-9CC1-84B573EA78A1}
      IID 19
      NAME "01-Recorded MIDI"
      VOLPAN 1 0 1 -1
      SOFFS 0 0
      PLAYRATE 1 1 0 -1 0 0.0021
      CHANMODE 0
      GUID {E7AE403A-02C9-651A-8F8C-6CA0A22977DD}
      RECPASS 1
      <SOURCE MIDI
        HASDATA 1 960 QN
        CCINTERP 32
        POOLEDEVTS {217FC1A1-6F18-9D34-9DD1-9F6B35190252}
        E 0 90 3c 48
        E 0 90 40 48
        E 0 90 43 48
        E 1920 80 3c 00
        E 0 80 40 00
        E 0 80 43 00
        E 0 90 3c 48
        E 0 90 40 48
        E 0 90 43 48
        E 260 80 3c 00
        E 0 80 40 00
        E 0 80 43 00
        E 440 90 3c 48
        E 0 90 40 48
        E 0 90 43 48
        E 260 80 3c 00
        E 0 80 40 00
        E 0 80 43 00
        e 514 90 3c 48
        e 0 90 40 48
        e 0 90 43 48
        e 260 80 3c 00
        e 0 80 40 00
        e 0 80 43 00
        E 186 90 43 48
        E 0 90 47 48
        E 20 90 40 48
        E 1900 80 43 00
        E 0 80 47 00
        E 0 80 40 00
        E 0 90 43 48
        E 0 90 47 48
        E 20 90 40 48
        E 240 80 43 00
        E 0 80 47 00
        E 0 80 40 00
        E 440 90 43 48
        E 0 90 47 48
        E 20 90 40 48
        E 240 80 43 00
        E 0 80 47 00
        E 0 80 40 00
        e 514 90 43 48
        e 0 90 47 48
        e 20 90 40 48
        e 240 80 43 00
        e 0 80 47 00
        e 0 80 40 00
        E 186 90 41 48
        E 0 90 45 48
        E 0 90 48 48
        E 1920 80 41 00
        E 0 80 45 00
        E 0 80 48 00
        E 0 90 41 48
        E 0 90 45 48
        E 0 90 48 48
        E 260 80 41 00
        E 0 80 45 00
        E 0 80 48 00
        E 440 90 41 48
        E 0 90 45 48
        E 0 90 48 48
        E 260 80 41 00
        E 0 80 45 00
        E 0 80 48 00
        e 514 90 41 48
        e 0 90 45 48
        e 0 90 48 48
        e 260 80 41 00
        e 0 80 45 00
        e 0 80 48 00
        E 162 90 3e 48
        E 24 90 41 48
        E 0 90 45 48
        E 1896 90 3e 48
        E 24 80 3e 00
        E 0 80 41 00
        E 0 80 45 00
        E 0 90 41 48
        E 0 90 45 48
        E 260 80 3e 00
        E 0 80 41 00
        E 0 80 45 00
        E 416 90 3e 48
        E 24 90 41 48
        E 0 90 45 48
        E 260 80 3e 00
        E 0 80 41 00
        E 0 80 45 00
        e 490 90 3e 48
        e 24 90 41 48
        e 0 90 45 48
        e 260 80 3e 00
        e 0 80 41 00
        e 0 80 45 00
        E 186 b0 7b 00
        CHASE_CC_TAKEOFFS 1
        GUID {6844F8A9-6BE9-023C-4A46-0A676470C99B}
        IGNTEMPO 0 120 4 4
        SRCCOLOR 26
        VELLANE -1 100 0
        CFGEDITVIEW 0 0.045808 45 12 0 -1 0 0 0 0.5
        KEYSNAP 0
        TRACKSEL 0
        EVTFILTER 0 -1 -1 -1 -1 0 0 0 0 -1 -1 -1 -1 0 -1 0 -1 -1
        CFGEDIT 1 1 0 1 0 0 1 1 1 1 1 1 58 171 1253 866 0 0 0 0 0.25 0 0 0 0 0.5 0 0 1 64
      >
    >
    <ITEM
      POSITION 80
      SNAPOFFS 0
      LENGTH 8
      LOOP 1
      ALLTAKES 0
      FADEIN 1 0 0 1 0 0
      FADEOUT 1 0 0 1 0 0
      MUTE 0
      SEL 1
      IGUID {94EA1C2C-CBBE-B8CD-FF83-897E10B1A5FA}
      IID 20
      NAME "01-Recorded MIDI"
      VOLPAN 1 0 1 -1
      SOFFS 0 0
      PLAYRATE 1 1 0 -1 0 0.0021
      CHANMODE 0
      GUID {0D978862-BFC0-50B2-467B-C3779C0A9864}
      RECPASS 1
      <SOURCE MIDI
        HASDATA 1 960 QN
        CCINTERP 32
        POOLEDEVTS {C7D3FEC2-9788-C86B-9335-FA98D5684C70}
        E 0 90 3c 48
        E 0 90 40 48
        E 0 90 43 48
        E 1920 80 3c 00
        E 0 80 40 00
        E 0 80 43 00
        E 0 90 3c 48
        E 0 90 40 48
        E 0 90 43 48
        E 260 80 3c 00
        E 0 80 40 00
        E 0 80 43 00
        E 440 90 3c 48
        E 0 90 40 48
        E 0 90 43 48
        E 260 80 3c 00
        E 0 80 40 00
        E 0 80 43 00
        e 514 90 3c 48
        e 0 90 40 48
        e 0 90 43 48
        e 260 80 3c 00
        e 0 80 40 00
        e 0 80 43 00
        E 186 90 43 48
        E 0 90 47 48
        E 20 90 40 48
        E 1900 80 43 00
        E 0 80 47 00
        E 0 80 40 00
        E 0 90 43 48
        E 0 90 47 48
        E 20 90 40 48
        E 240 80 43 00
        E 0 80 47 00
        E 0 80 40 00
        E 440 90 43 48
        E 0 90 47 48
        E 20 90 40 48
        E 240 80 43 00
        E 0 80 47 00
        E 0 80 40 00
        e 514 90 43 48
        e 0 90 47 48
        e 20 90 40 48
        e 240 80 43 00
        e 0 80 47 00
        e 0 80 40 00
        E 186 90 41 48
        E 0 90 45 48
        E 0 90 48 48
        E 1920 80 41 00
        E 0 80 45 00
        E 0 80 48 00
        E 0 90 41 48
        E 0 90 45 48
        E 0 90 48 48
        E 260 80 41 00
        E 0 80 45 00
        E 0 80 48 00
        E 440 90 41 48
        E 0 90 45 48
        E 0 90 48 48
        E 260 80 41 00
        E 0 80 45 00
        E 0 80 48 00
        e 514 90 41 48
        e 0 90 45 48
        e 0 90 48 48
        e 260 80 41 00
        e 0 80 45 00
        e 0 80 48 00
        E 162 90 3e 48
        E 24 90 41 48
        E 0 90 45 48
        E 1896 90 3e 48
        E 24 80 3e 00
        E 0 80 41 00
        E 0 80 45 00
        E 0 90 41 48
        E 0 90 45 48
        E 260 80 3e 00
        E 0 80 41 00
        E 0 80 45 00
        E 416 90 3e 48
        E 24 90 41 48
        E 0 90 45 48
        E 260 80 3e 00
        E 0 80 41 00
        E 0 80 45 00
        e 490 90 3e 48
        e 24 90 41 48
        e 0 90 45 48
        e 260 80 3e 00
        e 0 80 41 00
        e 0 80 45 00
        E 186 b0 7b 00
        CHASE_CC_TAKEOFFS 1
        GUID {E611ADB6-4869-6CCA-8E83-3954D5E743B1}
        IGNTEMPO 0 120 4 4
        SRCCOLOR 27
        VELLANE -1 100 0
        CFGEDITVIEW 0 0.045808 45 12 0 -1 0 0 0 0.5
        KEYSNAP 0
        TRACKSEL 0
        EVTFILTER 0 -1 -1 -1 -1 0 0 0 0 -1 -1 -1 -1 0 -1 0 -1 -1
        CFGEDIT 1 1 0 1 0 0 1 1 1 1 1 1 58 171 1253 866 0 0 0 0 0.25 0 0 0 0 0.5 0 0 1 64
      >
    >
    <ITEM
      POSITION 88
      SNAPOFFS 0
      LENGTH 8
      LOOP 1
      ALLTAKES 0
      FADEIN 1 0 0 1 0 0
      FADEOUT 1 0 0 1 0 0
      MUTE 0
      SEL 1
      IGUID {FDFBC07E-B108-AF7C-88DD-EE625F550F9C}
      IID 21
      NAME "01-Recorded MIDI"
      VOLPAN 1 0 1 -1
      SOFFS 0 0
      PLAYRATE 1 1 0 -1 0 0.0021
      CHANMODE 0
      GUID {C11F0774-0C37-DF89-A5B2-BE694A075632}
      RECPASS 1
      <SOURCE MIDI
        HASDATA 1 960 QN
        CCINTERP 32
        POOLEDEVTS {00EBE915-7CD1-AC5A-EDC3-1D11F0870E2A}
        E 0 90 3c 48
        E 0 90 40 48
        E 0 90 43 48
        E 1920 80 3c 00
        E 0 80 40 00
        E 0 80 43 00
        E 0 90 3c 48
        E 0 90 40 48
        E 0 90 43 48
        E 260 80 3c 00
        E 0 80 40 00
        E 0 80 43 00
        E 440 90 3c 48
        E 0 90 40 48
        E 0 90 43 48
        E 260 80 3c 00
        E 0 80 40 00
        E 0 80 43 00
        e 514 90 3c 48
        e 0 90 40 48
        e 0 90 43 48
        e 260 80 3c 00
        e 0 80 40 00
        e 0 80 43 00
        E 186 90 43 48
        E 0 90 47 48
        E 20 90 40 48
        E 1900 80 43 00
        E 0 80 47 00
        E 0 80 40 00
        E 0 90 43 48
        E 0 90 47 48
        E 20 90 40 48
        E 240 80 43 00
        E 0 80 47 00
        E 0 80 40 00
        E 440 90 43 48
        E 0 90 47 48
        E 20 90 40 48
        E 240 80 43 00
        E 0 80 47 00
        E 0 80 40 00
        e 514 90 43 48
        e 0 90 47 48
        e 20 90 40 48
        e 240 80 43 00
        e 0 80 47 00
        e 0 80 40 00
        E 186 90 41 48
        E 0 90 45 48
        E 0 90 48 48
        E 1920 80 41 00
        E 0 80 45 00
        E 0 80 48 00
        E 0 90 41 48
        E 0 90 45 48
        E 0 90 48 48
        E 260 80 41 00
        E 0 80 45 00
        E 0 80 48 00
        E 440 90 41 48
        E 0 90 45 48
        E 0 90 48 48
        E 260 80 41 00
        E 0 80 45 00
        E 0 80 48 00
        e 514 90 41 48
        e 0 90 45 48
        e 0 90 48 48
        e 260 80 41 00
        e 0 80 45 00
        e 0 80 48 00
        E 162 90 3e 48
        E 24 90 41 48
        E 0 90 45 48
        E 1896 90 3e 48
        E 24 80 3e 00
        E 0 80 41 00
        E 0 80 45 00
        E 0 90 41 48
        E 0 90 45 48
        E 260 80 3e 00
        E 0 80 41 00
        E 0 80 45 00
        E 416 90 3e 48
        E 24 90 41 48
        E 0 90 45 48
        E 260 80 3e 00
        E 0 80 41 00
        E 0 80 45 00
        e 490 90 3e 48
        e 24 90 41 48
        e 0 90 45 48
        e 260 80 3e 00
        e 0 80 41 00
        e 0 80 45 00
        E 186 b0 7b 00
        CHASE_CC_TAKEOFFS 1
        GUID {C762B555-17FC-D765-5340-11D3487D2955}
        IGNTEMPO 0 120 4 4
        SRCCOLOR 28
        VELLANE -1 100 0
        CFGEDITVIEW 0 0.045808 45 12 0 -1 0 0 0 0.5
        KEYSNAP 0
        TRACKSEL 0
        EVTFILTER 0 -1 -1 -1 -1 0 0 0 0 -1 -1 -1 -1 0 -1 0 -1 -1
        CFGEDIT 1 1 0 1 0 0 1 1 1 1 1 1 58 171 1253 866 0 0 0 0 0.25 0 0 0 0 0.5 0 0 1 64
      >
    >
  >
  <TRACK {EF5E9B31-B687-686A-D8B1-CB5213C07EB4}
    NAME ""
    PEAKCOL 16576
    BEAT -1
    AUTOMODE 0
    VOLPAN 0.00052194381917 0 -1 -1 1
    MUTESOLO 0 0 0
    IPHASE 0
    PLAYOFFS 0 1
    ISBUS 0 0
    BUSCOMP 0 0 0 0 0
    SHOWINMIX 1 0.6667 0.5 1 0.5 0 0 0
    FREEMODE 0
    SEL 0
    REC 0 5056 1 0 0 0 0
    VU 2
    TRACKHEIGHT 21 0 0
    INQ 0 0 0 0.5 100 0 0 100
    NCHAN 2
    FX 0
    TRACKID {EF5E9B31-B687-686A-D8B1-CB5213C07EB4}
    PERF 0
    MIDIOUT -1
    MAINSEND 1 0
    <FXCHAIN
      WNDRECT 346 266 902 608
      SHOW 0
      LASTSEL 5
      DOCKED 0
      BYPASS 0 0 0
      <VST "VST: ReaEQ (Cockos)" reaeq.vst.so 0 "" 1919247729<56535472656571726561657100000000> ""
        cWVlcu5e7f4CAAAAAQAAAAAAAAACAAAAAAAAAAIAAAABAAAAAAAAAAIAAAAAAAAAqAAAAAEAAAAAABAA
        IQAAAAQAAAAEAAAAAQAAAEC4Xhmm+DRAAAAAAAAA8D8AAAAAAAAAQAEIAAAAAQAAAAAAAAAAwHJAAAAAAAAA8D8AAAAAAAAAQAEIAAAAAQAAAAAAAAAAQI9AAAAAAAAA
        8D8AAAAAAAAAQAEDAAAAAQAAAAABaCorbdRAAAAAAAAA8D8AAAAAAAAAQAEBAAAAAQAAAAAAAAAAAPA/AAAAAJoCAACcAQAA
        AEhpZ2ggbG93IHBhc3MAEAAAAA==
      >
      PRESETNAME "High low pass"
      FLOATPOS 0 0 0 0
      FXID {84556A2C-1068-C0F7-CF51-AB5A2FE7955D}
      WAK 0 0
      BYPASS 0 0 0
      <VST "VSTi: ReaSynth (Cockos)" reasynth.vst.so 0 "" 1919251321<5653547265737972656173796E746800> ""
        eXNlcu9e7f4AAAAAAgAAAAEAAAAAAAAAAgAAAAAAAAA8AAAAAAAAAAAAEAA=
        776t3g3wrd6lm8Q7F7fROgAAAAAAAAAAAAAAAJCNuT3oZ4g9AACAPwAAAD8AAIA/AAAAAAAAAD8AAAAA
        AAAQAAAA
      >
      FLOATPOS 0 0 0 0
      FXID {56E49B61-5284-C0EB-E25E-FA6C07365D30}
      WAK 0 0
      BYPASS 0 0 0
      <JS guitar/amp-model ""
        "Dumble Overdrive Special - Tweed Deluxe.wav" -21.000000 1.000000 0.000000 73.000000 256.000000 - - - - - - - - - - - - - - - - - - - - - - - - - - - - - - - - - - - - - - - - - - - - - - - - - - - - - - - - - - 
      >
      FLOATPOS 0 0 0 0
      FXID {EA5DD143-7A88-83DD-1FAF-C62705E91A15}
      WAK 0 0
      BYPASS 0 0 0
      <VST "VST: ReaComp (Cockos)" reacomp.vst.so 0 "" 1919247213<5653547265636D726561636F6D700000> ""
        bWNlcu9e7f4EAAAAAQAAAAAAAAACAAAAAAAAAAQAAAAAAAAACAAAAAAAAAACAAAAAQAAAAAAAAACAAAAAAAAAFQAAAAAAAAAAAAQAA==
        776t3g3wrd5FoYg9/AWpPKWbxDsK16M8AAAAAAAAAAAAAIA/AAAAAAAAAAAAAAAAnNEHMwAAgD8AAAAAzMxMPQAAAAAAAAAAAAAAAAAAgD7YiZ09
        AAAQAAAA
      >
      FLOATPOS 0 0 0 0
      FXID {0A273987-6476-32EC-D236-C79999ECFBE5}
      WAK 0 0
      BYPASS 0 0 0
      <VST "VST: ReaDelay (Cockos)" readelay.vst.so 0 "" 1919247468<5653547265646C72656164656C617900> ""
        bGRlcu5e7f4CAAAAAQAAAAAAAAACAAAAAAAAAAIAAAABAAAAAAAAAAIAAAAAAAAA/AAAAAEAAAAAAAAA
        AAAAAAAAAAAFAAAALAAAAAIAAAAEAAAAAACAPwAAgD8AAAAAAACAPwAAAAAAAIA7vTeGNQAAgD8AAAAAAACAPwAAgD8AAIA/AAAAAAAAAAAAAIA/AAAAAAAAADwAAAAA
        AACAPwAAAAAAAIA/AACAP+87NT8AAIA/AAAAAAAAgD8AAAAAAABAPL03hjUAAIA/AAAAAAAAgD8AAIA/zk0AP6abhD4AAAAAAACAPwAAAAAAAIA8vTeGNQAAgD8AAAAA
        AACAPwAAgD8aqrU+pHA9PwAAAAAAAIA/AAAAAAAAoDy9N4Y1AACAPwAAAAAAAIA/AACAP/npAD4AAAA/
        AHN0b2NrIC0gYmFzaWMgNSB0YXAgcGluZyBwb25nAAAAAAA=
      >
      PRESETNAME "stock - basic 5 tap ping pong"
      FLOATPOS 0 0 0 0
      FXID {394FC946-803E-82C2-3DFE-9CB4798A45BB}
      WAK 0 0
      BYPASS 0 0 0
      <VST "VST: ReaVerb (Cockos)" reaverb.vst.so 0 "" 1919252066<56535472657662726561766572620000> ""
        YnZlcu5e7f4CAAAAAQAAAAAAAAACAAAAAAAAAAIAAAABAAAAAAAAAAIAAAAAAAAAcAAAAAEAAAAAAAAA
        AAAAwcybgD4AAIA/AAAAAAAAgD8AAIA/AAAAPwAAgD8AAAAAVkVSQkdFTgAYAAAAAAAAAJHgV0QdrLRA3rK7QsHIjEIAAIC/RUNIT0dFTgAcAAAAy/i2QLUjdUJdzdM/
        osdfP5lRrzyRzYxAnMQAPw==
        AHN3ZWV0dmVyYm8AAAAAAA==
      >
      PRESETNAME sweetverbo
      FLOATPOS 0 0 0 0
      FXID {62E67C22-75AF-CDBD-D817-40E461AA69F9}
      WAK 0 0
    >
    <ITEM
      POSITION 0
      SNAPOFFS 0
      LENGTH 8
      LOOP 1
      ALLTAKES 0
      FADEIN 1 0 0 1 0 0
      FADEOUT 1 0 0 1 0 0
      MUTE 0
      SEL 1
      IGUID {3731978A-2337-4764-5198-7B242512CA2A}
      IID 10
      NAME "01-Recorded MIDI"
      VOLPAN 1 0 1 -1
      SOFFS 0 0
      PLAYRATE 1 1 0 -1 0 0.0021
      CHANMODE 0
      GUID {0F321883-AD09-8CA7-84EE-271DA297F57A}
      RECPASS 1
      <SOURCE MIDI
        HASDATA 1 960 QN
        CCINTERP 32
        POOLEDEVTS {641755B7-EDF1-82DE-D82F-9E5BD9D1596B}
        E 0 90 3c 48
        E 0 90 40 48
        E 0 90 43 48
        E 1920 80 3c 00
        E 0 80 40 00
        E 0 80 43 00
        E 0 90 3c 48
        E 0 90 40 48
        E 0 90 43 48
        E 260 80 3c 00
        E 0 80 40 00
        E 0 80 43 00
        E 440 90 3c 48
        E 0 90 40 48
        E 0 90 43 48
        E 260 80 3c 00
        E 0 80 40 00
        E 0 80 43 00
        e 514 90 3c 48
        e 0 90 40 48
        e 0 90 43 48
        e 260 80 3c 00
        e 0 80 40 00
        e 0 80 43 00
        E 186 90 43 48
        E 0 90 47 48
        E 20 90 40 48
        E 1900 80 43 00
        E 0 80 47 00
        E 0 80 40 00
        E 0 90 43 48
        E 0 90 47 48
        E 20 90 40 48
        E 240 80 43 00
        E 0 80 47 00
        E 0 80 40 00
        E 440 90 43 48
        E 0 90 47 48
        E 20 90 40 48
        E 240 80 43 00
        E 0 80 47 00
        E 0 80 40 00
        e 514 90 43 48
        e 0 90 47 48
        e 20 90 40 48
        e 240 80 43 00
        e 0 80 47 00
        e 0 80 40 00
        E 186 90 41 48
        E 0 90 45 48
        E 0 90 48 48
        E 1920 80 41 00
        E 0 80 45 00
        E 0 80 48 00
        E 0 90 41 48
        E 0 90 45 48
        E 0 90 48 48
        E 260 80 41 00
        E 0 80 45 00
        E 0 80 48 00
        E 440 90 41 48
        E 0 90 45 48
        E 0 90 48 48
        E 260 80 41 00
        E 0 80 45 00
        E 0 80 48 00
        e 514 90 41 48
        e 0 90 45 48
        e 0 90 48 48
        e 260 80 41 00
        e 0 80 45 00
        e 0 80 48 00
        E 162 90 3e 48
        E 24 90 41 48
        E 0 90 45 48
        E 1896 90 3e 48
        E 24 80 3e 00
        E 0 80 41 00
        E 0 80 45 00
        E 0 90 41 48
        E 0 90 45 48
        E 260 80 3e 00
        E 0 80 41 00
        E 0 80 45 00
        E 416 90 3e 48
        E 24 90 41 48
        E 0 90 45 48
        E 260 80 3e 00
        E 0 80 41 00
        E 0 80 45 00
        e 490 90 3e 48
        e 24 90 41 48
        e 0 90 45 48
        e 260 80 3e 00
        e 0 80 41 00
        e 0 80 45 00
        E 186 b0 7b 00
        CHASE_CC_TAKEOFFS 1
        GUID {7B9D708B-43E1-C8D4-C4B3-87E2A6C27801}
        IGNTEMPO 0 120 4 4
        SRCCOLOR 17
        VELLANE -1 100 0
        CFGEDITVIEW 0 0.045808 45 12 0 -1 0 0 0 0.5
        KEYSNAP 0
        TRACKSEL 0
        EVTFILTER 0 -1 -1 -1 -1 0 0 0 0 -1 -1 -1 -1 0 -1 0 -1 -1
        CFGEDIT 1 1 0 1 0 0 1 1 1 1 1 1 58 171 1253 866 0 0 0 0 0.25 0 0 0 0 0.5 0 0 1 64
      >
    >
    <ITEM
      POSITION 8
      SNAPOFFS 0
      LENGTH 8
      LOOP 1
      ALLTAKES 0
      FADEIN 1 0 0 1 0 0
      FADEOUT 1 0 0 1 0 0
      MUTE 0
      SEL 1
      IGUID {4FCBB203-5C1D-8F16-0ADD-544848E07DCB}
      IID 11
      NAME "01-Recorded MIDI"
      VOLPAN 1 0 1 -1
      SOFFS 0 0
      PLAYRATE 1 1 0 -1 0 0.0021
      CHANMODE 0
      GUID {C88E7907-0FC2-6CF8-EFC8-F7E2963B2F1D}
      RECPASS 1
      <SOURCE MIDI
        HASDATA 1 960 QN
        CCINTERP 32
        POOLEDEVTS {8BA8FD48-58C4-06B8-2DC4-6238045AB844}
        E 0 90 3c 48
        E 0 90 40 48
        E 0 90 43 48
        E 1920 80 3c 00
        E 0 80 40 00
        E 0 80 43 00
        E 0 90 3c 48
        E 0 90 40 48
        E 0 90 43 48
        E 260 80 3c 00
        E 0 80 40 00
        E 0 80 43 00
        E 440 90 3c 48
        E 0 90 40 48
        E 0 90 43 48
        E 260 80 3c 00
        E 0 80 40 00
        E 0 80 43 00
        e 514 90 3c 48
        e 0 90 40 48
        e 0 90 43 48
        e 260 80 3c 00
        e 0 80 40 00
        e 0 80 43 00
        E 186 90 43 48
        E 0 90 47 48
        E 20 90 40 48
        E 1900 80 43 00
        E 0 80 47 00
        E 0 80 40 00
        E 0 90 43 48
        E 0 90 47 48
        E 20 90 40 48
        E 240 80 43 00
        E 0 80 47 00
        E 0 80 40 00
        E 440 90 43 48
        E 0 90 47 48
        E 20 90 40 48
        E 240 80 43 00
        E 0 80 47 00
        E 0 80 40 00
        e 514 90 43 48
        e 0 90 47 48
        e 20 90 40 48
        e 240 80 43 00
        e 0 80 47 00
        e 0 80 40 00
        E 186 90 41 48
        E 0 90 45 48
        E 0 90 48 48
        E 1920 80 41 00
        E 0 80 45 00
        E 0 80 48 00
        E 0 90 41 48
        E 0 90 45 48
        E 0 90 48 48
        E 260 80 41 00
        E 0 80 45 00
        E 0 80 48 00
        E 440 90 41 48
        E 0 90 45 48
        E 0 90 48 48
        E 260 80 41 00
        E 0 80 45 00
        E 0 80 48 00
        e 514 90 41 48
        e 0 90 45 48
        e 0 90 48 48
        e 260 80 41 00
        e 0 80 45 00
        e 0 80 48 00
        E 162 90 3e 48
        E 24 90 41 48
        E 0 90 45 48
        E 1896 90 3e 48
        E 24 80 3e 00
        E 0 80 41 00
        E 0 80 45 00
        E 0 90 41 48
        E 0 90 45 48
        E 260 80 3e 00
        E 0 80 41 00
        E 0 80 45 00
        E 416 90 3e 48
        E 24 90 41 48
        E 0 90 45 48
        E 260 80 3e 00
        E 0 80 41 00
        E 0 80 45 00
        e 490 90 3e 48
        e 24 90 41 48
        e 0 90 45 48
        e 260 80 3e 00
        e 0 80 41 00
        e 0 80 45 00
        E 186 b0 7b 00
        CHASE_CC_TAKEOFFS 1
        GUID {3131B4E2-B370-E352-A9C5-C8CA31551A86}
        IGNTEMPO 0 120 4 4
        SRCCOLOR 18
        VELLANE -1 100 0
        CFGEDITVIEW 0 0.045808 45 12 0 -1 0 0 0 0.5
        KEYSNAP 0
        TRACKSEL 0
        EVTFILTER 0 -1 -1 -1 -1 0 0 0 0 -1 -1 -1 -1 0 -1 0 -1 -1
        CFGEDIT 1 1 0 1 0 0 1 1 1 1 1 1 58 171 1253 866 0 0 0 0 0.25 0 0 0 0 0.5 0 0 1 64
      >
    >
    <ITEM
      POSITION 16
      SNAPOFFS 0
      LENGTH 8
      LOOP 1
      ALLTAKES 0
      FADEIN 1 0 0 1 0 0
      FADEOUT 1 0 0 1 0 0
      MUTE 0
      SEL 1
      IGUID {DC69B022-A5B6-16D1-5B15-ADE5FF7FF5D0}
      IID 12
      NAME "01-Recorded MIDI"
      VOLPAN 1 0 1 -1
      SOFFS 0 0
      PLAYRATE 1 1 0 -1 0 0.0021
      CHANMODE 0
      GUID {EED8811B-893C-EBF0-1D25-456702B7B167}
      RECPASS 1
      <SOURCE MIDI
        HASDATA 1 960 QN
        CCINTERP 32
        POOLEDEVTS {72ADDE31-DFAC-21CF-DDDA-C9EB3C6BFA88}
        E 0 90 3c 48
        E 0 90 40 48
        E 0 90 43 48
        E 1920 80 3c 00
        E 0 80 40 00
        E 0 80 43 00
        E 0 90 3c 48
        E 0 90 40 48
        E 0 90 43 48
        E 260 80 3c 00
        E 0 80 40 00
        E 0 80 43 00
        E 440 90 3c 48
        E 0 90 40 48
        E 0 90 43 48
        E 260 80 3c 00
        E 0 80 40 00
        E 0 80 43 00
        e 514 90 3c 48
        e 0 90 40 48
        e 0 90 43 48
        e 260 80 3c 00
        e 0 80 40 00
        e 0 80 43 00
        E 186 90 43 48
        E 0 90 47 48
        E 20 90 40 48
        E 1900 80 43 00
        E 0 80 47 00
        E 0 80 40 00
        E 0 90 43 48
        E 0 90 47 48
        E 20 90 40 48
        E 240 80 43 00
        E 0 80 47 00
        E 0 80 40 00
        E 440 90 43 48
        E 0 90 47 48
        E 20 90 40 48
        E 240 80 43 00
        E 0 80 47 00
        E 0 80 40 00
        e 514 90 43 48
        e 0 90 47 48
        e 20 90 40 48
        e 240 80 43 00
        e 0 80 47 00
        e 0 80 40 00
        E 186 90 41 48
        E 0 90 45 48
        E 0 90 48 48
        E 1920 80 41 00
        E 0 80 45 00
        E 0 80 48 00
        E 0 90 41 48
        E 0 90 45 48
        E 0 90 48 48
        E 260 80 41 00
        E 0 80 45 00
        E 0 80 48 00
        E 440 90 41 48
        E 0 90 45 48
        E 0 90 48 48
        E 260 80 41 00
        E 0 80 45 00
        E 0 80 48 00
        e 514 90 41 48
        e 0 90 45 48
        e 0 90 48 48
        e 260 80 41 00
        e 0 80 45 00
        e 0 80 48 00
        E 162 90 3e 48
        E 24 90 41 48
        E 0 90 45 48
        E 1896 90 3e 48
        E 24 80 3e 00
        E 0 80 41 00
        E 0 80 45 00
        E 0 90 41 48
        E 0 90 45 48
        E 260 80 3e 00
        E 0 80 41 00
        E 0 80 45 00
        E 416 90 3e 48
        E 24 90 41 48
        E 0 90 45 48
        E 260 80 3e 00
        E 0 80 41 00
        E 0 80 45 00
        e 490 90 3e 48
        e 24 90 41 48
        e 0 90 45 48
        e 260 80 3e 00
        e 0 80 41 00
        e 0 80 45 00
        E 186 b0 7b 00
        CHASE_CC_TAKEOFFS 1
        GUID {48C567A2-895C-FB9B-FDBA-0ADB7004ABF3}
        IGNTEMPO 0 120 4 4
        SRCCOLOR 19
        VELLANE -1 100 0
        CFGEDITVIEW 0 0.045808 45 12 0 -1 0 0 0 0.5
        KEYSNAP 0
        TRACKSEL 0
        EVTFILTER 0 -1 -1 -1 -1 0 0 0 0 -1 -1 -1 -1 0 -1 0 -1 -1
        CFGEDIT 1 1 0 1 0 0 1 1 1 1 1 1 58 171 1253 866 0 0 0 0 0.25 0 0 0 0 0.5 0 0 1 64
      >
    >
    <ITEM
      POSITION 24
      SNAPOFFS 0
      LENGTH 8
      LOOP 1
      ALLTAKES 0
      FADEIN 1 0 0 1 0 0
      FADEOUT 1 0 0 1 0 0
      MUTE 0
      SEL 1
      IGUID {9FFD0592-DC2C-C465-7AA4-F4A5B81EC974}
      IID 13
      NAME "01-Recorded MIDI"
      VOLPAN 1 0 1 -1
      SOFFS 0 0
      PLAYRATE 1 1 0 -1 0 0.0021
      CHANMODE 0
      GUID {017561AA-78DF-0D4A-B97E-13A8FE5D1C6A}
      RECPASS 1
      <SOURCE MIDI
        HASDATA 1 960 QN
        CCINTERP 32
        POOLEDEVTS {F102C67C-DA24-9A28-B493-086D19FECE96}
        E 0 90 3c 48
        E 0 90 40 48
        E 0 90 43 48
        E 1920 80 3c 00
        E 0 80 40 00
        E 0 80 43 00
        E 0 90 3c 48
        E 0 90 40 48
        E 0 90 43 48
        E 260 80 3c 00
        E 0 80 40 00
        E 0 80 43 00
        E 440 90 3c 48
        E 0 90 40 48
        E 0 90 43 48
        E 260 80 3c 00
        E 0 80 40 00
        E 0 80 43 00
        e 514 90 3c 48
        e 0 90 40 48
        e 0 90 43 48
        e 260 80 3c 00
        e 0 80 40 00
        e 0 80 43 00
        E 186 90 43 48
        E 0 90 47 48
        E 20 90 40 48
        E 1900 80 43 00
        E 0 80 47 00
        E 0 80 40 00
        E 0 90 43 48
        E 0 90 47 48
        E 20 90 40 48
        E 240 80 43 00
        E 0 80 47 00
        E 0 80 40 00
        E 440 90 43 48
        E 0 90 47 48
        E 20 90 40 48
        E 240 80 43 00
        E 0 80 47 00
        E 0 80 40 00
        e 514 90 43 48
        e 0 90 47 48
        e 20 90 40 48
        e 240 80 43 00
        e 0 80 47 00
        e 0 80 40 00
        E 186 90 41 48
        E 0 90 45 48
        E 0 90 48 48
        E 1920 80 41 00
        E 0 80 45 00
        E 0 80 48 00
        E 0 90 41 48
        E 0 90 45 48
        E 0 90 48 48
        E 260 80 41 00
        E 0 80 45 00
        E 0 80 48 00
        E 440 90 41 48
        E 0 90 45 48
        E 0 90 48 48
        E 260 80 41 00
        E 0 80 45 00
        E 0 80 48 00
        e 514 90 41 48
        e 0 90 45 48
        e 0 90 48 48
        e 260 80 41 00
        e 0 80 45 00
        e 0 80 48 00
        E 162 90 3e 48
        E 24 90 41 48
        E 0 90 45 48
        E 1896 90 3e 48
        E 24 80 3e 00
        E 0 80 41 00
        E 0 80 45 00
        E 0 90 41 48
        E 0 90 45 48
        E 260 80 3e 00
        E 0 80 41 00
        E 0 80 45 00
        E 416 90 3e 48
        E 24 90 41 48
        E 0 90 45 48
        E 260 80 3e 00
        E 0 80 41 00
        E 0 80 45 00
        e 490 90 3e 48
        e 24 90 41 48
        e 0 90 45 48
        e 260 80 3e 00
        e 0 80 41 00
        e 0 80 45 00
        E 186 b0 7b 00
        CHASE_CC_TAKEOFFS 1
        GUID {1DE38800-E2A1-41B5-9C8C-3291891093B1}
        IGNTEMPO 0 120 4 4
        SRCCOLOR 20
        VELLANE -1 100 0
        CFGEDITVIEW 0 0.045808 45 12 0 -1 0 0 0 0.5
        KEYSNAP 0
        TRACKSEL 0
        EVTFILTER 0 -1 -1 -1 -1 0 0 0 0 -1 -1 -1 -1 0 -1 0 -1 -1
        CFGEDIT 1 1 0 1 0 0 1 1 1 1 1 1 58 171 1253 866 0 0 0 0 0.25 0 0 0 0 0.5 0 0 1 64
      >
    >
    <ITEM
      POSITION 32
      SNAPOFFS 0
      LENGTH 8
      LOOP 1
      ALLTAKES 0
      FADEIN 1 0 0 1 0 0
      FADEOUT 1 0 0 1 0 0
      MUTE 0
      SEL 1
      IGUID {F893B3A9-AD67-65ED-CF6B-91FC744F50FF}
      IID 14
      NAME "01-Recorded MIDI"
      VOLPAN 1 0 1 -1
      SOFFS 0 0
      PLAYRATE 1 1 0 -1 0 0.0021
      CHANMODE 0
      GUID {42E1EA3E-863E-DF21-C54D-BDE17841678F}
      RECPASS 1
      <SOURCE MIDI
        HASDATA 1 960 QN
        CCINTERP 32
        POOLEDEVTS {84ED9557-3EC5-7A24-3FA3-779420160F1D}
        E 0 90 3c 48
        E 0 90 40 48
        E 0 90 43 48
        E 1920 80 3c 00
        E 0 80 40 00
        E 0 80 43 00
        E 0 90 3c 48
        E 0 90 40 48
        E 0 90 43 48
        E 260 80 3c 00
        E 0 80 40 00
        E 0 80 43 00
        E 440 90 3c 48
        E 0 90 40 48
        E 0 90 43 48
        E 260 80 3c 00
        E 0 80 40 00
        E 0 80 43 00
        e 514 90 3c 48
        e 0 90 40 48
        e 0 90 43 48
        e 260 80 3c 00
        e 0 80 40 00
        e 0 80 43 00
        E 186 90 43 48
        E 0 90 47 48
        E 20 90 40 48
        E 1900 80 43 00
        E 0 80 47 00
        E 0 80 40 00
        E 0 90 43 48
        E 0 90 47 48
        E 20 90 40 48
        E 240 80 43 00
        E 0 80 47 00
        E 0 80 40 00
        E 440 90 43 48
        E 0 90 47 48
        E 20 90 40 48
        E 240 80 43 00
        E 0 80 47 00
        E 0 80 40 00
        e 514 90 43 48
        e 0 90 47 48
        e 20 90 40 48
        e 240 80 43 00
        e 0 80 47 00
        e 0 80 40 00
        E 186 90 41 48
        E 0 90 45 48
        E 0 90 48 48
        E 1920 80 41 00
        E 0 80 45 00
        E 0 80 48 00
        E 0 90 41 48
        E 0 90 45 48
        E 0 90 48 48
        E 260 80 41 00
        E 0 80 45 00
        E 0 80 48 00
        E 440 90 41 48
        E 0 90 45 48
        E 0 90 48 48
        E 260 80 41 00
        E 0 80 45 00
        E 0 80 48 00
        e 514 90 41 48
        e 0 90 45 48
        e 0 90 48 48
        e 260 80 41 00
        e 0 80 45 00
        e 0 80 48 00
        E 162 90 3e 48
        E 24 90 41 48
        E 0 90 45 48
        E 1896 90 3e 48
        E 24 80 3e 00
        E 0 80 41 00
        E 0 80 45 00
        E 0 90 41 48
        E 0 90 45 48
        E 260 80 3e 00
        E 0 80 41 00
        E 0 80 45 00
        E 416 90 3e 48
        E 24 90 41 48
        E 0 90 45 48
        E 260 80 3e 00
        E 0 80 41 00
        E 0 80 45 00
        e 490 90 3e 48
        e 24 90 41 48
        e 0 90 45 48
        e 260 80 3e 00
        e 0 80 41 00
        e 0 80 45 00
        E 186 b0 7b 00
        CHASE_CC_TAKEOFFS 1
        GUID {0C3271F4-E233-9088-9B25-A722FAE7C579}
        IGNTEMPO 0 120 4 4
        SRCCOLOR 21
        VELLANE -1 100 0
        CFGEDITVIEW 0 0.045808 45 12 0 -1 0 0 0 0.5
        KEYSNAP 0
        TRACKSEL 0
        EVTFILTER 0 -1 -1 -1 -1 0 0 0 0 -1 -1 -1 -1 0 -1 0 -1 -1
        CFGEDIT 1 1 0 1 0 0 1 1 1 1 1 1 58 171 1253 866 0 0 0 0 0.25 0 0 0 0 0.5 0 0 1 64
      >
    >
    <ITEM
      POSITION 40
      SNAPOFFS 0
      LENGTH 8
      LOOP 1
      ALLTAKES 0
      FADEIN 1 0 0 1 0 0
      FADEOUT 1 0 0 1 0 0
      MUTE 0
      SEL 1
      IGUID {3CA64AC9-184C-56C7-954C-CF0907129E0E}
      IID 15
      NAME "01-Recorded MIDI"
      VOLPAN 1 0 1 -1
      SOFFS 0 0
      PLAYRATE 1 1 0 -1 0 0.0021
      CHANMODE 0
      GUID {2689E061-3E8F-634B-84AB-D1CC1A4F80FE}
      RECPASS 1
      <SOURCE MIDI
        HASDATA 1 960 QN
        CCINTERP 32
        POOLEDEVTS {DD95590B-52FE-DCB8-2757-D13F034DE2EB}
        E 0 90 3c 48
        E 0 90 40 48
        E 0 90 43 48
        E 1920 80 3c 00
        E 0 80 40 00
        E 0 80 43 00
        E 0 90 3c 48
        E 0 90 40 48
        E 0 90 43 48
        E 260 80 3c 00
        E 0 80 40 00
        E 0 80 43 00
        E 440 90 3c 48
        E 0 90 40 48
        E 0 90 43 48
        E 260 80 3c 00
        E 0 80 40 00
        E 0 80 43 00
        e 514 90 3c 48
        e 0 90 40 48
        e 0 90 43 48
        e 260 80 3c 00
        e 0 80 40 00
        e 0 80 43 00
        E 186 90 43 48
        E 0 90 47 48
        E 20 90 40 48
        E 1900 80 43 00
        E 0 80 47 00
        E 0 80 40 00
        E 0 90 43 48
        E 0 90 47 48
        E 20 90 40 48
        E 240 80 43 00
        E 0 80 47 00
        E 0 80 40 00
        E 440 90 43 48
        E 0 90 47 48
        E 20 90 40 48
        E 240 80 43 00
        E 0 80 47 00
        E 0 80 40 00
        e 514 90 43 48
        e 0 90 47 48
        e 20 90 40 48
        e 240 80 43 00
        e 0 80 47 00
        e 0 80 40 00
        E 186 90 41 48
        E 0 90 45 48
        E 0 90 48 48
        E 1920 80 41 00
        E 0 80 45 00
        E 0 80 48 00
        E 0 90 41 48
        E 0 90 45 48
        E 0 90 48 48
        E 260 80 41 00
        E 0 80 45 00
        E 0 80 48 00
        E 440 90 41 48
        E 0 90 45 48
        E 0 90 48 48
        E 260 80 41 00
        E 0 80 45 00
        E 0 80 48 00
        e 514 90 41 48
        e 0 90 45 48
        e 0 90 48 48
        e 260 80 41 00
        e 0 80 45 00
        e 0 80 48 00
        E 162 90 3e 48
        E 24 90 41 48
        E 0 90 45 48
        E 1896 90 3e 48
        E 24 80 3e 00
        E 0 80 41 00
        E 0 80 45 00
        E 0 90 41 48
        E 0 90 45 48
        E 260 80 3e 00
        E 0 80 41 00
        E 0 80 45 00
        E 416 90 3e 48
        E 24 90 41 48
        E 0 90 45 48
        E 260 80 3e 00
        E 0 80 41 00
        E 0 80 45 00
        e 490 90 3e 48
        e 24 90 41 48
        e 0 90 45 48
        e 260 80 3e 00
        e 0 80 41 00
        e 0 80 45 00
        E 186 b0 7b 00
        CHASE_CC_TAKEOFFS 1
        GUID {040E7AF8-3572-5D91-3C86-797AEE7444D4}
        IGNTEMPO 0 120 4 4
        SRCCOLOR 22
        VELLANE -1 100 0
        CFGEDITVIEW 0 0.045808 45 12 0 -1 0 0 0 0.5
        KEYSNAP 0
        TRACKSEL 0
        EVTFILTER 0 -1 -1 -1 -1 0 0 0 0 -1 -1 -1 -1 0 -1 0 -1 -1
        CFGEDIT 1 1 0 1 0 0 1 1 1 1 1 1 58 171 1253 866 0 0 0 0 0.25 0 0 0 0 0.5 0 0 1 64
      >
    >
    <ITEM
      POSITION 48
      SNAPOFFS 0
      LENGTH 8
      LOOP 1
      ALLTAKES 0
      FADEIN 1 0 0 1 0 0
      FADEOUT 1 0 0 1 0 0
      MUTE 0
      SEL 1
      IGUID {476C6F75-6FC0-875C-4465-9E6CF3597846}
      IID 16
      NAME "01-Recorded MIDI"
      VOLPAN 1 0 1 -1
      SOFFS 0 0
      PLAYRATE 1 1 0 -1 0 0.0021
      CHANMODE 0
      GUID {A79CCC1F-E025-52FE-0D6C-69B62AC3E0A6}
      RECPASS 1
      <SOURCE MIDI
        HASDATA 1 960 QN
        CCINTERP 32
        POOLEDEVTS {E1D38538-09DB-14C3-4306-57E0D79ED654}
        E 0 90 3c 48
        E 0 90 40 48
        E 0 90 43 48
        E 1920 80 3c 00
        E 0 80 40 00
        E 0 80 43 00
        E 0 90 3c 48
        E 0 90 40 48
        E 0 90 43 48
        E 260 80 3c 00
        E 0 80 40 00
        E 0 80 43 00
        E 440 90 3c 48
        E 0 90 40 48
        E 0 90 43 48
        E 260 80 3c 00
        E 0 80 40 00
        E 0 80 43 00
        e 514 90 3c 48
        e 0 90 40 48
        e 0 90 43 48
        e 260 80 3c 00
        e 0 80 40 00
        e 0 80 43 00
        E 186 90 43 48
        E 0 90 47 48
        E 20 90 40 48
        E 1900 80 43 00
        E 0 80 47 00
        E 0 80 40 00
        E 0 90 43 48
        E 0 90 47 48
        E 20 90 40 48
        E 240 80 43 00
        E 0 80 47 00
        E 0 80 40 00
        E 440 90 43 48
        E 0 90 47 48
        E 20 90 40 48
        E 240 80 43 00
        E 0 80 47 00
        E 0 80 40 00
        e 514 90 43 48
        e 0 90 47 48
        e 20 90 40 48
        e 240 80 43 00
        e 0 80 47 00
        e 0 80 40 00
        E 186 90 41 48
        E 0 90 45 48
        E 0 90 48 48
        E 1920 80 41 00
        E 0 80 45 00
        E 0 80 48 00
        E 0 90 41 48
        E 0 90 45 48
        E 0 90 48 48
        E 260 80 41 00
        E 0 80 45 00
        E 0 80 48 00
        E 440 90 41 48
        E 0 90 45 48
        E 0 90 48 48
        E 260 80 41 00
        E 0 80 45 00
        E 0 80 48 00
        e 514 90 41 48
        e 0 90 45 48
        e 0 90 48 48
        e 260 80 41 00
        e 0 80 45 00
        e 0 80 48 00
        E 162 90 3e 48
        E 24 90 41 48
        E 0 90 45 48
        E 1896 90 3e 48
        E 24 80 3e 00
        E 0 80 41 00
        E 0 80 45 00
        E 0 90 41 48
        E 0 90 45 48
        E 260 80 3e 00
        E 0 80 41 00
        E 0 80 45 00
        E 416 90 3e 48
        E 24 90 41 48
        E 0 90 45 48
        E 260 80 3e 00
        E 0 80 41 00
        E 0 80 45 00
        e 490 90 3e 48
        e 24 90 41 48
        e 0 90 45 48
        e 260 80 3e 00
        e 0 80 41 00
        e 0 80 45 00
        E 186 b0 7b 00
        CHASE_CC_TAKEOFFS 1
        GUID {2338968B-6CF9-9F40-300F-DEB89D3392EA}
        IGNTEMPO 0 120 4 4
        SRCCOLOR 23
        VELLANE -1 100 0
        CFGEDITVIEW 0 0.045808 45 12 0 -1 0 0 0 0.5
        KEYSNAP 0
        TRACKSEL 0
        EVTFILTER 0 -1 -1 -1 -1 0 0 0 0 -1 -1 -1 -1 0 -1 0 -1 -1
        CFGEDIT 1 1 0 1 0 0 1 1 1 1 1 1 58 171 1253 866 0 0 0 0 0.25 0 0 0 0 0.5 0 0 1 64
      >
    >
    <ITEM
      POSITION 56
      SNAPOFFS 0
      LENGTH 8
      LOOP 1
      ALLTAKES 0
      FADEIN 1 0 0 1 0 0
      FADEOUT 1 0 0 1 0 0
      MUTE 0
      SEL 1
      IGUID {065B69C9-3323-8B3A-FE27-727AF4E7281C}
      IID 17
      NAME "01-Recorded MIDI"
      VOLPAN 1 0 1 -1
      SOFFS 0 0
      PLAYRATE 1 1 0 -1 0 0.0021
      CHANMODE 0
      GUID {94A33D6D-8EFC-CCBD-A8FE-14C984578B5D}
      RECPASS 1
      <SOURCE MIDI
        HASDATA 1 960 QN
        CCINTERP 32
        POOLEDEVTS {21167241-A1AC-A792-F9D7-C800E9B025B4}
        E 0 90 3c 48
        E 0 90 40 48
        E 0 90 43 48
        E 1920 80 3c 00
        E 0 80 40 00
        E 0 80 43 00
        E 0 90 3c 48
        E 0 90 40 48
        E 0 90 43 48
        E 260 80 3c 00
        E 0 80 40 00
        E 0 80 43 00
        E 440 90 3c 48
        E 0 90 40 48
        E 0 90 43 48
        E 260 80 3c 00
        E 0 80 40 00
        E 0 80 43 00
        e 514 90 3c 48
        e 0 90 40 48
        e 0 90 43 48
        e 260 80 3c 00
        e 0 80 40 00
        e 0 80 43 00
        E 186 90 43 48
        E 0 90 47 48
        E 20 90 40 48
        E 1900 80 43 00
        E 0 80 47 00
        E 0 80 40 00
        E 0 90 43 48
        E 0 90 47 48
        E 20 90 40 48
        E 240 80 43 00
        E 0 80 47 00
        E 0 80 40 00
        E 440 90 43 48
        E 0 90 47 48
        E 20 90 40 48
        E 240 80 43 00
        E 0 80 47 00
        E 0 80 40 00
        e 514 90 43 48
        e 0 90 47 48
        e 20 90 40 48
        e 240 80 43 00
        e 0 80 47 00
        e 0 80 40 00
        E 186 90 41 48
        E 0 90 45 48
        E 0 90 48 48
        E 1920 80 41 00
        E 0 80 45 00
        E 0 80 48 00
        E 0 90 41 48
        E 0 90 45 48
        E 0 90 48 48
        E 260 80 41 00
        E 0 80 45 00
        E 0 80 48 00
        E 440 90 41 48
        E 0 90 45 48
        E 0 90 48 48
        E 260 80 41 00
        E 0 80 45 00
        E 0 80 48 00
        e 514 90 41 48
        e 0 90 45 48
        e 0 90 48 48
        e 260 80 41 00
        e 0 80 45 00
        e 0 80 48 00
        E 162 90 3e 48
        E 24 90 41 48
        E 0 90 45 48
        E 1896 90 3e 48
        E 24 80 3e 00
        E 0 80 41 00
        E 0 80 45 00
        E 0 90 41 48
        E 0 90 45 48
        E 260 80 3e 00
        E 0 80 41 00
        E 0 80 45 00
        E 416 90 3e 48
        E 24 90 41 48
        E 0 90 45 48
        E 260 80 3e 00
        E 0 80 41 00
        E 0 80 45 00
        e 490 90 3e 48
        e 24 90 41 48
        e 0 90 45 48
        e 260 80 3e 00
        e 0 80 41 00
        e 0 80 45 00
        E 186 b0 7b 00
        CHASE_CC_TAKEOFFS 1
        GUID {A64857E2-94F8-0990-20DF-4C1E9B5E6251}
        IGNTEMPO 0 120 4 4
        SRCCOLOR 24
        VELLANE -1 100 0
        CFGEDITVIEW 0 0.045808 45 12 0 -1 0 0 0 0.5
        KEYSNAP 0
        TRACKSEL 0
        EVTFILTER 0 -1 -1 -1 -1 0 0 0 0 -1 -1 -1 -1 0 -1 0 -1 -1
        CFGEDIT 1 1 0 1 0 0 1 1 1 1 1 1 58 171 1253 866 0 0 0 0 0.25 0 0 0 0 0.5 0 0 1 64
      >
    >
    <ITEM
      POSITION 64
      SNAPOFFS 0
      LENGTH 8
      LOOP 1
      ALLTAKES 0
      FADEIN 1 0 0 1 0 0
      FADEOUT 1 0 0 1 0 0
      MUTE 0
      SEL 1
      IGUID {18FF0DE7-6C10-D4B0-E7E9-E3459C30E9E1}
      IID 18
      NAME "01-Recorded MIDI"
      VOLPAN 1 0 1 -1
      SOFFS 0 0
      PLAYRATE 1 1 0 -1 0 0.0021
      CHANMODE 0
      GUID {B4F40378-1CA7-16EB-5092-82A933B4BFFA}
      RECPASS 1
      <SOURCE MIDI
        HASDATA 1 960 QN
        CCINTERP 32
        POOLEDEVTS {9C50E134-1913-1531-5B1C-5FBEDF911798}
        E 0 90 3c 48
        E 0 90 40 48
        E 0 90 43 48
        E 1920 80 3c 00
        E 0 80 40 00
        E 0 80 43 00
        E 0 90 3c 48
        E 0 90 40 48
        E 0 90 43 48
        E 260 80 3c 00
        E 0 80 40 00
        E 0 80 43 00
        E 440 90 3c 48
        E 0 90 40 48
        E 0 90 43 48
        E 260 80 3c 00
        E 0 80 40 00
        E 0 80 43 00
        e 514 90 3c 48
        e 0 90 40 48
        e 0 90 43 48
        e 260 80 3c 00
        e 0 80 40 00
        e 0 80 43 00
        E 186 90 43 48
        E 0 90 47 48
        E 20 90 40 48
        E 1900 80 43 00
        E 0 80 47 00
        E 0 80 40 00
        E 0 90 43 48
        E 0 90 47 48
        E 20 90 40 48
        E 240 80 43 00
        E 0 80 47 00
        E 0 80 40 00
        E 440 90 43 48
        E 0 90 47 48
        E 20 90 40 48
        E 240 80 43 00
        E 0 80 47 00
        E 0 80 40 00
        e 514 90 43 48
        e 0 90 47 48
        e 20 90 40 48
        e 240 80 43 00
        e 0 80 47 00
        e 0 80 40 00
        E 186 90 41 48
        E 0 90 45 48
        E 0 90 48 48
        E 1920 80 41 00
        E 0 80 45 00
        E 0 80 48 00
        E 0 90 41 48
        E 0 90 45 48
        E 0 90 48 48
        E 260 80 41 00
        E 0 80 45 00
        E 0 80 48 00
        E 440 90 41 48
        E 0 90 45 48
        E 0 90 48 48
        E 260 80 41 00
        E 0 80 45 00
        E 0 80 48 00
        e 514 90 41 48
        e 0 90 45 48
        e 0 90 48 48
        e 260 80 41 00
        e 0 80 45 00
        e 0 80 48 00
        E 162 90 3e 48
        E 24 90 41 48
        E 0 90 45 48
        E 1896 90 3e 48
        E 24 80 3e 00
        E 0 80 41 00
        E 0 80 45 00
        E 0 90 41 48
        E 0 90 45 48
        E 260 80 3e 00
        E 0 80 41 00
        E 0 80 45 00
        E 416 90 3e 48
        E 24 90 41 48
        E 0 90 45 48
        E 260 80 3e 00
        E 0 80 41 00
        E 0 80 45 00
        e 490 90 3e 48
        e 24 90 41 48
        e 0 90 45 48
        e 260 80 3e 00
        e 0 80 41 00
        e 0 80 45 00
        E 186 b0 7b 00
        CHASE_CC_TAKEOFFS 1
        GUID {19362806-85F2-5D9E-E1F9-07BE0CF3D16E}
        IGNTEMPO 0 120 4 4
        SRCCOLOR 25
        VELLANE -1 100 0
        CFGEDITVIEW 0 0.045808 45 12 0 -1 0 0 0 0.5
        KEYSNAP 0
        TRACKSEL 0
        EVTFILTER 0 -1 -1 -1 -1 0 0 0 0 -1 -1 -1 -1 0 -1 0 -1 -1
        CFGEDIT 1 1 0 1 0 0 1 1 1 1 1 1 58 171 1253 866 0 0 0 0 0.25 0 0 0 0 0.5 0 0 1 64
      >
    >
    <ITEM
      POSITION 72
      SNAPOFFS 0
      LENGTH 8
      LOOP 1
      ALLTAKES 0
      FADEIN 1 0 0 1 0 0
      FADEOUT 1 0 0 1 0 0
      MUTE 0
      SEL 1
      IGUID {18087184-FCC5-6411-4E5E-9992D7ABF8DC}
      IID 19
      NAME "01-Recorded MIDI"
      VOLPAN 1 0 1 -1
      SOFFS 0 0
      PLAYRATE 1 1 0 -1 0 0.0021
      CHANMODE 0
      GUID {75224FBA-41A9-A8F2-D313-F8A22719CBF2}
      RECPASS 1
      <SOURCE MIDI
        HASDATA 1 960 QN
        CCINTERP 32
        POOLEDEVTS {561322D4-89E3-6D4B-C216-8A0C8629F74D}
        E 0 90 3c 48
        E 0 90 40 48
        E 0 90 43 48
        E 1920 80 3c 00
        E 0 80 40 00
        E 0 80 43 00
        E 0 90 3c 48
        E 0 90 40 48
        E 0 90 43 48
        E 260 80 3c 00
        E 0 80 40 00
        E 0 80 43 00
        E 440 90 3c 48
        E 0 90 40 48
        E 0 90 43 48
        E 260 80 3c 00
        E 0 80 40 00
        E 0 80 43 00
        e 514 90 3c 48
        e 0 90 40 48
        e 0 90 43 48
        e 260 80 3c 00
        e 0 80 40 00
        e 0 80 43 00
        E 186 90 43 48
        E 0 90 47 48
        E 20 90 40 48
        E 1900 80 43 00
        E 0 80 47 00
        E 0 80 40 00
        E 0 90 43 48
        E 0 90 47 48
        E 20 90 40 48
        E 240 80 43 00
        E 0 80 47 00
        E 0 80 40 00
        E 440 90 43 48
        E 0 90 47 48
        E 20 90 40 48
        E 240 80 43 00
        E 0 80 47 00
        E 0 80 40 00
        e 514 90 43 48
        e 0 90 47 48
        e 20 90 40 48
        e 240 80 43 00
        e 0 80 47 00
        e 0 80 40 00
        E 186 90 41 48
        E 0 90 45 48
        E 0 90 48 48
        E 1920 80 41 00
        E 0 80 45 00
        E 0 80 48 00
        E 0 90 41 48
        E 0 90 45 48
        E 0 90 48 48
        E 260 80 41 00
        E 0 80 45 00
        E 0 80 48 00
        E 440 90 41 48
        E 0 90 45 48
        E 0 90 48 48
        E 260 80 41 00
        E 0 80 45 00
        E 0 80 48 00
        e 514 90 41 48
        e 0 90 45 48
        e 0 90 48 48
        e 260 80 41 00
        e 0 80 45 00
        e 0 80 48 00
        E 162 90 3e 48
        E 24 90 41 48
        E 0 90 45 48
        E 1896 90 3e 48
        E 24 80 3e 00
        E 0 80 41 00
        E 0 80 45 00
        E 0 90 41 48
        E 0 90 45 48
        E 260 80 3e 00
        E 0 80 41 00
        E 0 80 45 00
        E 416 90 3e 48
        E 24 90 41 48
        E 0 90 45 48
        E 260 80 3e 00
        E 0 80 41 00
        E 0 80 45 00
        e 490 90 3e 48
        e 24 90 41 48
        e 0 90 45 48
        e 260 80 3e 00
        e 0 80 41 00
        e 0 80 45 00
        E 186 b0 7b 00
        CHASE_CC_TAKEOFFS 1
        GUID {6844F8A9-6BE9-023C-4A46-0A676470C99B}
        IGNTEMPO 0 120 4 4
        SRCCOLOR 26
        VELLANE -1 100 0
        CFGEDITVIEW 0 0.045808 45 12 0 -1 0 0 0 0.5
        KEYSNAP 0
        TRACKSEL 0
        EVTFILTER 0 -1 -1 -1 -1 0 0 0 0 -1 -1 -1 -1 0 -1 0 -1 -1
        CFGEDIT 1 1 0 1 0 0 1 1 1 1 1 1 58 171 1253 866 0 0 0 0 0.25 0 0 0 0 0.5 0 0 1 64
      >
    >
    <ITEM
      POSITION 80
      SNAPOFFS 0
      LENGTH 8
      LOOP 1
      ALLTAKES 0
      FADEIN 1 0 0 1 0 0
      FADEOUT 1 0 0 1 0 0
      MUTE 0
      SEL 1
      IGUID {5BCB35F0-6F5D-F47D-043F-DF9C287AC98E}
      IID 20
      NAME "01-Recorded MIDI"
      VOLPAN 1 0 1 -1
      SOFFS 0 0
      PLAYRATE 1 1 0 -1 0 0.0021
      CHANMODE 0
      GUID {3FB6EA1A-7AA2-BFE6-967E-CFDD71673CAB}
      RECPASS 1
      <SOURCE MIDI
        HASDATA 1 960 QN
        CCINTERP 32
        POOLEDEVTS {9D104FB1-CEBE-9A8C-890B-EFD2E532E9BF}
        E 0 90 3c 48
        E 0 90 40 48
        E 0 90 43 48
        E 1920 80 3c 00
        E 0 80 40 00
        E 0 80 43 00
        E 0 90 3c 48
        E 0 90 40 48
        E 0 90 43 48
        E 260 80 3c 00
        E 0 80 40 00
        E 0 80 43 00
        E 440 90 3c 48
        E 0 90 40 48
        E 0 90 43 48
        E 260 80 3c 00
        E 0 80 40 00
        E 0 80 43 00
        e 514 90 3c 48
        e 0 90 40 48
        e 0 90 43 48
        e 260 80 3c 00
        e 0 80 40 00
        e 0 80 43 00
        E 186 90 43 48
        E 0 90 47 48
        E 20 90 40 48
        E 1900 80 43 00
        E 0 80 47 00
        E 0 80 40 00
        E 0 90 43 48
        E 0 90 47 48
        E 20 90 40 48
        E 240 80 43 00
        E 0 80 47 00
        E 0 80 40 00
        E 440 90 43 48
        E 0 90 47 48
        E 20 90 40 48
        E 240 80 43 00
        E 0 80 47 00
        E 0 80 40 00
        e 514 90 43 48
        e 0 90 47 48
        e 20 90 40 48
        e 240 80 43 00
        e 0 80 47 00
        e 0 80 40 00
        E 186 90 41 48
        E 0 90 45 48
        E 0 90 48 48
        E 1920 80 41 00
        E 0 80 45 00
        E 0 80 48 00
        E 0 90 41 48
        E 0 90 45 48
        E 0 90 48 48
        E 260 80 41 00
        E 0 80 45 00
        E 0 80 48 00
        E 440 90 41 48
        E 0 90 45 48
        E 0 90 48 48
        E 260 80 41 00
        E 0 80 45 00
        E 0 80 48 00
        e 514 90 41 48
        e 0 90 45 48
        e 0 90 48 48
        e 260 80 41 00
        e 0 80 45 00
        e 0 80 48 00
        E 162 90 3e 48
        E 24 90 41 48
        E 0 90 45 48
        E 1896 90 3e 48
        E 24 80 3e 00
        E 0 80 41 00
        E 0 80 45 00
        E 0 90 41 48
        E 0 90 45 48
        E 260 80 3e 00
        E 0 80 41 00
        E 0 80 45 00
        E 416 90 3e 48
        E 24 90 41 48
        E 0 90 45 48
        E 260 80 3e 00
        E 0 80 41 00
        E 0 80 45 00
        e 490 90 3e 48
        e 24 90 41 48
        e 0 90 45 48
        e 260 80 3e 00
        e 0 80 41 00
        e 0 80 45 00
        E 186 b0 7b 00
        CHASE_CC_TAKEOFFS 1
        GUID {E611ADB6-4869-6CCA-8E83-3954D5E743B1}
        IGNTEMPO 0 120 4 4
        SRCCOLOR 27
        VELLANE -1 100 0
        CFGEDITVIEW 0 0.045808 45 12 0 -1 0 0 0 0.5
        KEYSNAP 0
        TRACKSEL 0
        EVTFILTER 0 -1 -1 -1 -1 0 0 0 0 -1 -1 -1 -1 0 -1 0 -1 -1
        CFGEDIT 1 1 0 1 0 0 1 1 1 1 1 1 58 171 1253 866 0 0 0 0 0.25 0 0 0 0 0.5 0 0 1 64
      >
    >
    <ITEM
      POSITION 88
      SNAPOFFS 0
      LENGTH 8
      LOOP 1
      ALLTAKES 0
      FADEIN 1 0 0 1 0 0
      FADEOUT 1 0 0 1 0 0
      MUTE 0
      SEL 1
      IGUID {E1282C30-1E63-BA70-70D9-A35315EE257A}
      IID 21
      NAME "01-Recorded MIDI"
      VOLPAN 1 0 1 -1
      SOFFS 0 0
      PLAYRATE 1 1 0 -1 0 0.0021
      CHANMODE 0
      GUID {527B98E2-2ED7-BFAF-0267-1AA6E5513EFC}
      RECPASS 1
      <SOURCE MIDI
        HASDATA 1 960 QN
        CCINTERP 32
        POOLEDEVTS {A02688D1-62DE-9CF1-D37B-C380EC97FAFD}
        E 0 90 3c 48
        E 0 90 40 48
        E 0 90 43 48
        E 1920 80 3c 00
        E 0 80 40 00
        E 0 80 43 00
        E 0 90 3c 48
        E 0 90 40 48
        E 0 90 43 48
        E 260 80 3c 00
        E 0 80 40 00
        E 0 80 43 00
        E 440 90 3c 48
        E 0 90 40 48
        E 0 90 43 48
        E 260 80 3c 00
        E 0 80 40 00
        E 0 80 43 00
        e 514 90 3c 48
        e 0 90 40 48
        e 0 90 43 48
        e 260 80 3c 00
        e 0 80 40 00
        e 0 80 43 00
        E 186 90 43 48
        E 0 90 47 48
        E 20 90 40 48
        E 1900 80 43 00
        E 0 80 47 00
        E 0 80 40 00
        E 0 90 43 48
        E 0 90 47 48
        E 20 90 40 48
        E 240 80 43 00
        E 0 80 47 00
        E 0 80 40 00
        E 440 90 43 48
        E 0 90 47 48
        E 20 90 40 48
        E 240 80 43 00
        E 0 80 47 00
        E 0 80 40 00
        e 514 90 43 48
        e 0 90 47 48
        e 20 90 40 48
        e 240 80 43 00
        e 0 80 47 00
        e 0 80 40 00
        E 186 90 41 48
        E 0 90 45 48
        E 0 90 48 48
        E 1920 80 41 00
        E 0 80 45 00
        E 0 80 48 00
        E 0 90 41 48
        E 0 90 45 48
        E 0 90 48 48
        E 260 80 41 00
        E 0 80 45 00
        E 0 80 48 00
        E 440 90 41 48
        E 0 90 45 48
        E 0 90 48 48
        E 260 80 41 00
        E 0 80 45 00
        E 0 80 48 00
        e 514 90 41 48
        e 0 90 45 48
        e 0 90 48 48
        e 260 80 41 00
        e 0 80 45 00
        e 0 80 48 00
        E 162 90 3e 48
        E 24 90 41 48
        E 0 90 45 48
        E 1896 90 3e 48
        E 24 80 3e 00
        E 0 80 41 00
        E 0 80 45 00
        E 0 90 41 48
        E 0 90 45 48
        E 260 80 3e 00
        E 0 80 41 00
        E 0 80 45 00
        E 416 90 3e 48
        E 24 90 41 48
        E 0 90 45 48
        E 260 80 3e 00
        E 0 80 41 00
        E 0 80 45 00
        e 490 90 3e 48
        e 24 90 41 48
        e 0 90 45 48
        e 260 80 3e 00
        e 0 80 41 00
        e 0 80 45 00
        E 186 b0 7b 00
        CHASE_CC_TAKEOFFS 1
        GUID {C762B555-17FC-D765-5340-11D3487D2955}
        IGNTEMPO 0 120 4 4
        SRCCOLOR 28
        VELLANE -1 100 0
        CFGEDITVIEW 0 0.045808 45 12 0 -1 0 0 0 0.5
        KEYSNAP 0
        TRACKSEL 0
        EVTFILTER 0 -1 -1 -1 -1 0 0 0 0 -1 -1 -1 -1 0 -1 0 -1 -1
        CFGEDIT 1 1 0 1 0 0 1 1 1 1 1 1 58 171 1253 866 0 0 0 0 0.25 0 0 0 0 0.5 0 0 1 64
      >
    >
  >
  <TRACK {F873A4F1-AEFF-F52F-EDF7-E2145DD047D3}
    NAME ""
    PEAKCOL 16576
    BEAT -1
    AUTOMODE 0
    VOLPAN 0.00052194381917 0 -1 -1 1
    MUTESOLO 0 0 0
    IPHASE 0
    PLAYOFFS 0 1
    ISBUS 0 0
    BUSCOMP 0 0 0 0 0
    SHOWINMIX 1 0.6667 0.5 1 0.5 0 0 0
    FREEMODE 0
    SEL 0
    REC 0 5056 1 0 0 0 0
    VU 2
    TRACKHEIGHT 21 0 0
    INQ 0 0 0 0.5 100 0 0 100
    NCHAN 2
    FX 0
    TRACKID {F873A4F1-AEFF-F52F-EDF7-E2145DD047D3}
    PERF 0
    MIDIOUT -1
    MAINSEND 1 0
    <FXCHAIN
      WNDRECT 346 266 902 608
      SHOW 0
      LASTSEL 5
      DOCKED 0
      BYPASS 0 0 0
      <VST "VST: ReaEQ (Cockos)" reaeq.vst.so 0 "" 1919247729<56535472656571726561657100000000> ""
        cWVlcu5e7f4CAAAAAQAAAAAAAAACAAAAAAAAAAIAAAABAAAAAAAAAAIAAAAAAAAAqAAAAAEAAAAAABAA
        IQAAAAQAAAAEAAAAAQAAAEC4Xhmm+DRAAAAAAAAA8D8AAAAAAAAAQAEIAAAAAQAAAAAAAAAAwHJAAAAAAAAA8D8AAAAAAAAAQAEIAAAAAQAAAAAAAAAAQI9AAAAAAAAA
        8D8AAAAAAAAAQAEDAAAAAQAAAAABaCorbdRAAAAAAAAA8D8AAAAAAAAAQAEBAAAAAQAAAAAAAAAAAPA/AAAAAJoCAACcAQAA
        AEhpZ2ggbG93IHBhc3MAEAAAAA==
      >
      PRESETNAME "High low pass"
      FLOATPOS 0 0 0 0
      FXID {AEDD0732-4737-242D-7B62-61B482709577}
      WAK 0 0
      BYPASS 0 0 0
      <VST "VSTi: ReaSynth (Cockos)" reasynth.vst.so 0 "" 1919251321<5653547265737972656173796E746800> ""
        eXNlcu9e7f4AAAAAAgAAAAEAAAAAAAAAAgAAAAAAAAA8AAAAAAAAAAAAEAA=
        776t3g3wrd6lm8Q7F7fROgAAAAAAAAAAAAAAAJCNuT3oZ4g9AACAPwAAAD8AAIA/AAAAAAAAAD8AAAAA
        AAAQAAAA
      >
      FLOATPOS 0 0 0 0
      FXID {044F8BB1-90A0-D48F-B2D6-199102AF4FF5}
      WAK 0 0
      BYPASS 0 0 0
      <JS guitar/amp-model ""
        "Dumble Overdrive Special - Tweed Deluxe.wav" -21.000000 1.000000 0.000000 73.000000 256.000000 - - - - - - - - - - - - - - - - - - - - - - - - - - - - - - - - - - - - - - - - - - - - - - - - - - - - - - - - - - 
      >
      FLOATPOS 0 0 0 0
      FXID {806303E5-E204-D256-1BF3-05A6D584E99E}
      WAK 0 0
      BYPASS 0 0 0
      <VST "VST: ReaComp (Cockos)" reacomp.vst.so 0 "" 1919247213<5653547265636D726561636F6D700000> ""
        bWNlcu9e7f4EAAAAAQAAAAAAAAACAAAAAAAAAAQAAAAAAAAACAAAAAAAAAACAAAAAQAAAAAAAAACAAAAAAAAAFQAAAAAAAAAAAAQAA==
        776t3g3wrd5FoYg9/AWpPKWbxDsK16M8AAAAAAAAAAAAAIA/AAAAAAAAAAAAAAAAnNEHMwAAgD8AAAAAzMxMPQAAAAAAAAAAAAAAAAAAgD7YiZ09
        AAAQAAAA
      >
      FLOATPOS 0 0 0 0
      FXID {36D2BEAA-178F-2A8A-086E-2F77E80B274A}
      WAK 0 0
      BYPASS 0 0 0
      <VST "VST: ReaDelay (Cockos)" readelay.vst.so 0 "" 1919247468<5653547265646C72656164656C617900> ""
        bGRlcu5e7f4CAAAAAQAAAAAAAAACAAAAAAAAAAIAAAABAAAAAAAAAAIAAAAAAAAA/AAAAAEAAAAAAAAA
        AAAAAAAAAAAFAAAALAAAAAIAAAAEAAAAAACAPwAAgD8AAAAAAACAPwAAAAAAAIA7vTeGNQAAgD8AAAAAAACAPwAAgD8AAIA/AAAAAAAAAAAAAIA/AAAAAAAAADwAAAAA
        AACAPwAAAAAAAIA/AACAP+87NT8AAIA/AAAAAAAAgD8AAAAAAABAPL03hjUAAIA/AAAAAAAAgD8AAIA/zk0AP6abhD4AAAAAAACAPwAAAAAAAIA8vTeGNQAAgD8AAAAA
        AACAPwAAgD8aqrU+pHA9PwAAAAAAAIA/AAAAAAAAoDy9N4Y1AACAPwAAAAAAAIA/AACAP/npAD4AAAA/
        AHN0b2NrIC0gYmFzaWMgNSB0YXAgcGluZyBwb25nAAAAAAA=
      >
      PRESETNAME "stock - basic 5 tap ping pong"
      FLOATPOS 0 0 0 0
      FXID {86AA04EF-626F-E58C-402F-6DE40B8077EA}
      WAK 0 0
      BYPASS 0 0 0
      <VST "VST: ReaVerb (Cockos)" reaverb.vst.so 0 "" 1919252066<56535472657662726561766572620000> ""
        YnZlcu5e7f4CAAAAAQAAAAAAAAACAAAAAAAAAAIAAAABAAAAAAAAAAIAAAAAAAAAcAAAAAEAAAAAAAAA
        AAAAwcybgD4AAIA/AAAAAAAAgD8AAIA/AAAAPwAAgD8AAAAAVkVSQkdFTgAYAAAAAAAAAJHgV0QdrLRA3rK7QsHIjEIAAIC/RUNIT0dFTgAcAAAAy/i2QLUjdUJdzdM/
        osdfP5lRrzyRzYxAnMQAPw==
        AHN3ZWV0dmVyYm8AAAAAAA==
      >
      PRESETNAME sweetverbo
      FLOATPOS 0 0 0 0
      FXID {654E58E3-E22A-4C89-B070-E6318B2963AC}
      WAK 0 0
    >
    <ITEM
      POSITION 0
      SNAPOFFS 0
      LENGTH 8
      LOOP 1
      ALLTAKES 0
      FADEIN 1 0 0 1 0 0
      FADEOUT 1 0 0 1 0 0
      MUTE 0
      SEL 1
      IGUID {D34B0ECD-B545-4914-CB29-39666524B487}
      IID 10
      NAME "01-Recorded MIDI"
      VOLPAN 1 0 1 -1
      SOFFS 0 0
      PLAYRATE 1 1 0 -1 0 0.0021
      CHANMODE 0
      GUID {F740A728-469F-29B1-9372-7DEB0918510A}
      RECPASS 1
      <SOURCE MIDI
        HASDATA 1 960 QN
        CCINTERP 32
        POOLEDEVTS {A7F1A84A-F368-97FC-3EB5-EDCE5739C4B3}
        E 0 90 3c 48
        E 0 90 40 48
        E 0 90 43 48
        E 1920 80 3c 00
        E 0 80 40 00
        E 0 80 43 00
        E 0 90 3c 48
        E 0 90 40 48
        E 0 90 43 48
        E 260 80 3c 00
        E 0 80 40 00
        E 0 80 43 00
        E 440 90 3c 48
        E 0 90 40 48
        E 0 90 43 48
        E 260 80 3c 00
        E 0 80 40 00
        E 0 80 43 00
        e 514 90 3c 48
        e 0 90 40 48
        e 0 90 43 48
        e 260 80 3c 00
        e 0 80 40 00
        e 0 80 43 00
        E 186 90 43 48
        E 0 90 47 48
        E 20 90 40 48
        E 1900 80 43 00
        E 0 80 47 00
        E 0 80 40 00
        E 0 90 43 48
        E 0 90 47 48
        E 20 90 40 48
        E 240 80 43 00
        E 0 80 47 00
        E 0 80 40 00
        E 440 90 43 48
        E 0 90 47 48
        E 20 90 40 48
        E 240 80 43 00
        E 0 80 47 00
        E 0 80 40 00
        e 514 90 43 48
        e 0 90 47 48
        e 20 90 40 48
        e 240 80 43 00
        e 0 80 47 00
        e 0 80 40 00
        E 186 90 41 48
        E 0 90 45 48
        E 0 90 48 48
        E 1920 80 41 00
        E 0 80 45 00
        E 0 80 48 00
        E 0 90 41 48
        E 0 90 45 48
        E 0 90 48 48
        E 260 80 41 00
        E 0 80 45 00
        E 0 80 48 00
        E 440 90 41 48
        E 0 90 45 48
        E 0 90 48 48
        E 260 80 41 00
        E 0 80 45 00
        E 0 80 48 00
        e 514 90 41 48
        e 0 90 45 48
        e 0 90 48 48
        e 260 80 41 00
        e 0 80 45 00
        e 0 80 48 00
        E 162 90 3e 48
        E 24 90 41 48
        E 0 90 45 48
        E 1896 90 3e 48
        E 24 80 3e 00
        E 0 80 41 00
        E 0 80 45 00
        E 0 90 41 48
        E 0 90 45 48
        E 260 80 3e 00
        E 0 80 41 00
        E 0 80 45 00
        E 416 90 3e 48
        E 24 90 41 48
        E 0 90 45 48
        E 260 80 3e 00
        E 0 80 41 00
        E 0 80 45 00
        e 490 90 3e 48
        e 24 90 41 48
        e 0 90 45 48
        e 260 80 3e 00
        e 0 80 41 00
        e 0 80 45 00
        E 186 b0 7b 00
        CHASE_CC_TAKEOFFS 1
        GUID {7B9D708B-43E1-C8D4-C4B3-87E2A6C27801}
        IGNTEMPO 0 120 4 4
        SRCCOLOR 17
        VELLANE -1 100 0
        CFGEDITVIEW 0 0.045808 45 12 0 -1 0 0 0 0.5
        KEYSNAP 0
        TRACKSEL 0
        EVTFILTER 0 -1 -1 -1 -1 0 0 0 0 -1 -1 -1 -1 0 -1 0 -1 -1
        CFGEDIT 1 1 0 1 0 0 1 1 1 1 1 1 58 171 1253 866 0 0 0 0 0.25 0 0 0 0 0.5 0 0 1 64
      >
    >
    <ITEM
      POSITION 8
      SNAPOFFS 0
      LENGTH 8
      LOOP 1
      ALLTAKES 0
      FADEIN 1 0 0 1 0 0
      FADEOUT 1 0 0 1 0 0
      MUTE 0
      SEL 1
      IGUID {5ABF5AC1-B8AA-FC57-EB8F-11B28D913527}
      IID 11
      NAME "01-Recorded MIDI"
      VOLPAN 1 0 1 -1
      SOFFS 0 0
      PLAYRATE 1 1 0 -1 0 0.0021
      CHANMODE 0
      GUID {69BB2555-83A2-78D7-9F2C-BDBD4A00C9BB}
      RECPASS 1
      <SOURCE MIDI
        HASDATA 1 960 QN
        CCINTERP 32
        POOLEDEVTS {EDEBD870-4AD8-DF8E-3168-41358E1D9067}
        E 0 90 3c 48
        E 0 90 40 48
        E 0 90 43 48
        E 1920 80 3c 00
        E 0 80 40 00
        E 0 80 43 00
        E 0 90 3c 48
        E 0 90 40 48
        E 0 90 43 48
        E 260 80 3c 00
        E 0 80 40 00
        E 0 80 43 00
        E 440 90 3c 48
        E 0 90 40 48
        E 0 90 43 48
        E 260 80 3c 00
        E 0 80 40 00
        E 0 80 43 00
        e 514 90 3c 48
        e 0 90 40 48
        e 0 90 43 48
        e 260 80 3c 00
        e 0 80 40 00
        e 0 80 43 00
        E 186 90 43 48
        E 0 90 47 48
        E 20 90 40 48
        E 1900 80 43 00
        E 0 80 47 00
        E 0 80 40 00
        E 0 90 43 48
        E 0 90 47 48
        E 20 90 40 48
        E 240 80 43 00
        E 0 80 47 00
        E 0 80 40 00
        E 440 90 43 48
        E 0 90 47 48
        E 20 90 40 48
        E 240 80 43 00
        E 0 80 47 00
        E 0 80 40 00
        e 514 90 43 48
        e 0 90 47 48
        e 20 90 40 48
        e 240 80 43 00
        e 0 80 47 00
        e 0 80 40 00
        E 186 90 41 48
        E 0 90 45 48
        E 0 90 48 48
        E 1920 80 41 00
        E 0 80 45 00
        E 0 80 48 00
        E 0 90 41 48
        E 0 90 45 48
        E 0 90 48 48
        E 260 80 41 00
        E 0 80 45 00
        E 0 80 48 00
        E 440 90 41 48
        E 0 90 45 48
        E 0 90 48 48
        E 260 80 41 00
        E 0 80 45 00
        E 0 80 48 00
        e 514 90 41 48
        e 0 90 45 48
        e 0 90 48 48
        e 260 80 41 00
        e 0 80 45 00
        e 0 80 48 00
        E 162 90 3e 48
        E 24 90 41 48
        E 0 90 45 48
        E 1896 90 3e 48
        E 24 80 3e 00
        E 0 80 41 00
        E 0 80 45 00
        E 0 90 41 48
        E 0 90 45 48
        E 260 80 3e 00
        E 0 80 41 00
        E 0 80 45 00
        E 416 90 3e 48
        E 24 90 41 48
        E 0 90 45 48
        E 260 80 3e 00
        E 0 80 41 00
        E 0 80 45 00
        e 490 90 3e 48
        e 24 90 41 48
        e 0 90 45 48
        e 260 80 3e 00
        e 0 80 41 00
        e 0 80 45 00
        E 186 b0 7b 00
        CHASE_CC_TAKEOFFS 1
        GUID {3131B4E2-B370-E352-A9C5-C8CA31551A86}
        IGNTEMPO 0 120 4 4
        SRCCOLOR 18
        VELLANE -1 100 0
        CFGEDITVIEW 0 0.045808 45 12 0 -1 0 0 0 0.5
        KEYSNAP 0
        TRACKSEL 0
        EVTFILTER 0 -1 -1 -1 -1 0 0 0 0 -1 -1 -1 -1 0 -1 0 -1 -1
        CFGEDIT 1 1 0 1 0 0 1 1 1 1 1 1 58 171 1253 866 0 0 0 0 0.25 0 0 0 0 0.5 0 0 1 64
      >
    >
    <ITEM
      POSITION 16
      SNAPOFFS 0
      LENGTH 8
      LOOP 1
      ALLTAKES 0
      FADEIN 1 0 0 1 0 0
      FADEOUT 1 0 0 1 0 0
      MUTE 0
      SEL 1
      IGUID {FBAEA190-4C5D-614A-9146-7BD52D3A9B5F}
      IID 12
      NAME "01-Recorded MIDI"
      VOLPAN 1 0 1 -1
      SOFFS 0 0
      PLAYRATE 1 1 0 -1 0 0.0021
      CHANMODE 0
      GUID {0D72F475-6B8A-C6A4-52CA-87B32404F411}
      RECPASS 1
      <SOURCE MIDI
        HASDATA 1 960 QN
        CCINTERP 32
        POOLEDEVTS {863E90B2-005E-F152-F835-FD5534138576}
        E 0 90 3c 48
        E 0 90 40 48
        E 0 90 43 48
        E 1920 80 3c 00
        E 0 80 40 00
        E 0 80 43 00
        E 0 90 3c 48
        E 0 90 40 48
        E 0 90 43 48
        E 260 80 3c 00
        E 0 80 40 00
        E 0 80 43 00
        E 440 90 3c 48
        E 0 90 40 48
        E 0 90 43 48
        E 260 80 3c 00
        E 0 80 40 00
        E 0 80 43 00
        e 514 90 3c 48
        e 0 90 40 48
        e 0 90 43 48
        e 260 80 3c 00
        e 0 80 40 00
        e 0 80 43 00
        E 186 90 43 48
        E 0 90 47 48
        E 20 90 40 48
        E 1900 80 43 00
        E 0 80 47 00
        E 0 80 40 00
        E 0 90 43 48
        E 0 90 47 48
        E 20 90 40 48
        E 240 80 43 00
        E 0 80 47 00
        E 0 80 40 00
        E 440 90 43 48
        E 0 90 47 48
        E 20 90 40 48
        E 240 80 43 00
        E 0 80 47 00
        E 0 80 40 00
        e 514 90 43 48
        e 0 90 47 48
        e 20 90 40 48
        e 240 80 43 00
        e 0 80 47 00
        e 0 80 40 00
        E 186 90 41 48
        E 0 90 45 48
        E 0 90 48 48
        E 1920 80 41 00
        E 0 80 45 00
        E 0 80 48 00
        E 0 90 41 48
        E 0 90 45 48
        E 0 90 48 48
        E 260 80 41 00
        E 0 80 45 00
        E 0 80 48 00
        E 440 90 41 48
        E 0 90 45 48
        E 0 90 48 48
        E 260 80 41 00
        E 0 80 45 00
        E 0 80 48 00
        e 514 90 41 48
        e 0 90 45 48
        e 0 90 48 48
        e 260 80 41 00
        e 0 80 45 00
        e 0 80 48 00
        E 162 90 3e 48
        E 24 90 41 48
        E 0 90 45 48
        E 1896 90 3e 48
        E 24 80 3e 00
        E 0 80 41 00
        E 0 80 45 00
        E 0 90 41 48
        E 0 90 45 48
        E 260 80 3e 00
        E 0 80 41 00
        E 0 80 45 00
        E 416 90 3e 48
        E 24 90 41 48
        E 0 90 45 48
        E 260 80 3e 00
        E 0 80 41 00
        E 0 80 45 00
        e 490 90 3e 48
        e 24 90 41 48
        e 0 90 45 48
        e 260 80 3e 00
        e 0 80 41 00
        e 0 80 45 00
        E 186 b0 7b 00
        CHASE_CC_TAKEOFFS 1
        GUID {48C567A2-895C-FB9B-FDBA-0ADB7004ABF3}
        IGNTEMPO 0 120 4 4
        SRCCOLOR 19
        VELLANE -1 100 0
        CFGEDITVIEW 0 0.045808 45 12 0 -1 0 0 0 0.5
        KEYSNAP 0
        TRACKSEL 0
        EVTFILTER 0 -1 -1 -1 -1 0 0 0 0 -1 -1 -1 -1 0 -1 0 -1 -1
        CFGEDIT 1 1 0 1 0 0 1 1 1 1 1 1 58 171 1253 866 0 0 0 0 0.25 0 0 0 0 0.5 0 0 1 64
      >
    >
    <ITEM
      POSITION 24
      SNAPOFFS 0
      LENGTH 8
      LOOP 1
      ALLTAKES 0
      FADEIN 1 0 0 1 0 0
      FADEOUT 1 0 0 1 0 0
      MUTE 0
      SEL 1
      IGUID {43335510-8511-CA9D-938D-E25C5A0CB2BA}
      IID 13
      NAME "01-Recorded MIDI"
      VOLPAN 1 0 1 -1
      SOFFS 0 0
      PLAYRATE 1 1 0 -1 0 0.0021
      CHANMODE 0
      GUID {CD3FCDBC-7569-23D3-C28D-8D5A157264D7}
      RECPASS 1
      <SOURCE MIDI
        HASDATA 1 960 QN
        CCINTERP 32
        POOLEDEVTS {942EFE6E-EEDD-A629-2F76-A42D12D9A8C0}
        E 0 90 3c 48
        E 0 90 40 48
        E 0 90 43 48
        E 1920 80 3c 00
        E 0 80 40 00
        E 0 80 43 00
        E 0 90 3c 48
        E 0 90 40 48
        E 0 90 43 48
        E 260 80 3c 00
        E 0 80 40 00
        E 0 80 43 00
        E 440 90 3c 48
        E 0 90 40 48
        E 0 90 43 48
        E 260 80 3c 00
        E 0 80 40 00
        E 0 80 43 00
        e 514 90 3c 48
        e 0 90 40 48
        e 0 90 43 48
        e 260 80 3c 00
        e 0 80 40 00
        e 0 80 43 00
        E 186 90 43 48
        E 0 90 47 48
        E 20 90 40 48
        E 1900 80 43 00
        E 0 80 47 00
        E 0 80 40 00
        E 0 90 43 48
        E 0 90 47 48
        E 20 90 40 48
        E 240 80 43 00
        E 0 80 47 00
        E 0 80 40 00
        E 440 90 43 48
        E 0 90 47 48
        E 20 90 40 48
        E 240 80 43 00
        E 0 80 47 00
        E 0 80 40 00
        e 514 90 43 48
        e 0 90 47 48
        e 20 90 40 48
        e 240 80 43 00
        e 0 80 47 00
        e 0 80 40 00
        E 186 90 41 48
        E 0 90 45 48
        E 0 90 48 48
        E 1920 80 41 00
        E 0 80 45 00
        E 0 80 48 00
        E 0 90 41 48
        E 0 90 45 48
        E 0 90 48 48
        E 260 80 41 00
        E 0 80 45 00
        E 0 80 48 00
        E 440 90 41 48
        E 0 90 45 48
        E 0 90 48 48
        E 260 80 41 00
        E 0 80 45 00
        E 0 80 48 00
        e 514 90 41 48
        e 0 90 45 48
        e 0 90 48 48
        e 260 80 41 00
        e 0 80 45 00
        e 0 80 48 00
        E 162 90 3e 48
        E 24 90 41 48
        E 0 90 45 48
        E 1896 90 3e 48
        E 24 80 3e 00
        E 0 80 41 00
        E 0 80 45 00
        E 0 90 41 48
        E 0 90 45 48
        E 260 80 3e 00
        E 0 80 41 00
        E 0 80 45 00
        E 416 90 3e 48
        E 24 90 41 48
        E 0 90 45 48
        E 260 80 3e 00
        E 0 80 41 00
        E 0 80 45 00
        e 490 90 3e 48
        e 24 90 41 48
        e 0 90 45 48
        e 260 80 3e 00
        e 0 80 41 00
        e 0 80 45 00
        E 186 b0 7b 00
        CHASE_CC_TAKEOFFS 1
        GUID {1DE38800-E2A1-41B5-9C8C-3291891093B1}
        IGNTEMPO 0 120 4 4
        SRCCOLOR 20
        VELLANE -1 100 0
        CFGEDITVIEW 0 0.045808 45 12 0 -1 0 0 0 0.5
        KEYSNAP 0
        TRACKSEL 0
        EVTFILTER 0 -1 -1 -1 -1 0 0 0 0 -1 -1 -1 -1 0 -1 0 -1 -1
        CFGEDIT 1 1 0 1 0 0 1 1 1 1 1 1 58 171 1253 866 0 0 0 0 0.25 0 0 0 0 0.5 0 0 1 64
      >
    >
    <ITEM
      POSITION 32
      SNAPOFFS 0
      LENGTH 8
      LOOP 1
      ALLTAKES 0
      FADEIN 1 0 0 1 0 0
      FADEOUT 1 0 0 1 0 0
      MUTE 0
      SEL 1
      IGUID {9FDA23F2-1F1E-C0D4-135E-A314990C789D}
      IID 14
      NAME "01-Recorded MIDI"
      VOLPAN 1 0 1 -1
      SOFFS 0 0
      PLAYRATE 1 1 0 -1 0 0.0021
      CHANMODE 0
      GUID {7F399444-4752-FE0D-A168-B93564EA0BD8}
      RECPASS 1
      <SOURCE MIDI
        HASDATA 1 960 QN
        CCINTERP 32
        POOLEDEVTS {015D440B-C6AD-DB7E-C173-2D71E972C5A9}
        E 0 90 3c 48
        E 0 90 40 48
        E 0 90 43 48
        E 1920 80 3c 00
        E 0 80 40 00
        E 0 80 43 00
        E 0 90 3c 48
        E 0 90 40 48
        E 0 90 43 48
        E 260 80 3c 00
        E 0 80 40 00
        E 0 80 43 00
        E 440 90 3c 48
        E 0 90 40 48
        E 0 90 43 48
        E 260 80 3c 00
        E 0 80 40 00
        E 0 80 43 00
        e 514 90 3c 48
        e 0 90 40 48
        e 0 90 43 48
        e 260 80 3c 00
        e 0 80 40 00
        e 0 80 43 00
        E 186 90 43 48
        E 0 90 47 48
        E 20 90 40 48
        E 1900 80 43 00
        E 0 80 47 00
        E 0 80 40 00
        E 0 90 43 48
        E 0 90 47 48
        E 20 90 40 48
        E 240 80 43 00
        E 0 80 47 00
        E 0 80 40 00
        E 440 90 43 48
        E 0 90 47 48
        E 20 90 40 48
        E 240 80 43 00
        E 0 80 47 00
        E 0 80 40 00
        e 514 90 43 48
        e 0 90 47 48
        e 20 90 40 48
        e 240 80 43 00
        e 0 80 47 00
        e 0 80 40 00
        E 186 90 41 48
        E 0 90 45 48
        E 0 90 48 48
        E 1920 80 41 00
        E 0 80 45 00
        E 0 80 48 00
        E 0 90 41 48
        E 0 90 45 48
        E 0 90 48 48
        E 260 80 41 00
        E 0 80 45 00
        E 0 80 48 00
        E 440 90 41 48
        E 0 90 45 48
        E 0 90 48 48
        E 260 80 41 00
        E 0 80 45 00
        E 0 80 48 00
        e 514 90 41 48
        e 0 90 45 48
        e 0 90 48 48
        e 260 80 41 00
        e 0 80 45 00
        e 0 80 48 00
        E 162 90 3e 48
        E 24 90 41 48
        E 0 90 45 48
        E 1896 90 3e 48
        E 24 80 3e 00
        E 0 80 41 00
        E 0 80 45 00
        E 0 90 41 48
        E 0 90 45 48
        E 260 80 3e 00
        E 0 80 41 00
        E 0 80 45 00
        E 416 90 3e 48
        E 24 90 41 48
        E 0 90 45 48
        E 260 80 3e 00
        E 0 80 41 00
        E 0 80 45 00
        e 490 90 3e 48
        e 24 90 41 48
        e 0 90 45 48
        e 260 80 3e 00
        e 0 80 41 00
        e 0 80 45 00
        E 186 b0 7b 00
        CHASE_CC_TAKEOFFS 1
        GUID {0C3271F4-E233-9088-9B25-A722FAE7C579}
        IGNTEMPO 0 120 4 4
        SRCCOLOR 21
        VELLANE -1 100 0
        CFGEDITVIEW 0 0.045808 45 12 0 -1 0 0 0 0.5
        KEYSNAP 0
        TRACKSEL 0
        EVTFILTER 0 -1 -1 -1 -1 0 0 0 0 -1 -1 -1 -1 0 -1 0 -1 -1
        CFGEDIT 1 1 0 1 0 0 1 1 1 1 1 1 58 171 1253 866 0 0 0 0 0.25 0 0 0 0 0.5 0 0 1 64
      >
    >
    <ITEM
      POSITION 40
      SNAPOFFS 0
      LENGTH 8
      LOOP 1
      ALLTAKES 0
      FADEIN 1 0 0 1 0 0
      FADEOUT 1 0 0 1 0 0
      MUTE 0
      SEL 1
      IGUID {B630EEC6-6B36-60B3-96EC-234A9F60D154}
      IID 15
      NAME "01-Recorded MIDI"
      VOLPAN 1 0 1 -1
      SOFFS 0 0
      PLAYRATE 1 1 0 -1 0 0.0021
      CHANMODE 0
      GUID {A87881F2-9A3E-C0B5-E7D4-21C605EE1046}
      RECPASS 1
      <SOURCE MIDI
        HASDATA 1 960 QN
        CCINTERP 32
        POOLEDEVTS {5A166E5B-34C3-79C9-DC65-ED6188F7109A}
        E 0 90 3c 48
        E 0 90 40 48
        E 0 90 43 48
        E 1920 80 3c 00
        E 0 80 40 00
        E 0 80 43 00
        E 0 90 3c 48
        E 0 90 40 48
        E 0 90 43 48
        E 260 80 3c 00
        E 0 80 40 00
        E 0 80 43 00
        E 440 90 3c 48
        E 0 90 40 48
        E 0 90 43 48
        E 260 80 3c 00
        E 0 80 40 00
        E 0 80 43 00
        e 514 90 3c 48
        e 0 90 40 48
        e 0 90 43 48
        e 260 80 3c 00
        e 0 80 40 00
        e 0 80 43 00
        E 186 90 43 48
        E 0 90 47 48
        E 20 90 40 48
        E 1900 80 43 00
        E 0 80 47 00
        E 0 80 40 00
        E 0 90 43 48
        E 0 90 47 48
        E 20 90 40 48
        E 240 80 43 00
        E 0 80 47 00
        E 0 80 40 00
        E 440 90 43 48
        E 0 90 47 48
        E 20 90 40 48
        E 240 80 43 00
        E 0 80 47 00
        E 0 80 40 00
        e 514 90 43 48
        e 0 90 47 48
        e 20 90 40 48
        e 240 80 43 00
        e 0 80 47 00
        e 0 80 40 00
        E 186 90 41 48
        E 0 90 45 48
        E 0 90 48 48
        E 1920 80 41 00
        E 0 80 45 00
        E 0 80 48 00
        E 0 90 41 48
        E 0 90 45 48
        E 0 90 48 48
        E 260 80 41 00
        E 0 80 45 00
        E 0 80 48 00
        E 440 90 41 48
        E 0 90 45 48
        E 0 90 48 48
        E 260 80 41 00
        E 0 80 45 00
        E 0 80 48 00
        e 514 90 41 48
        e 0 90 45 48
        e 0 90 48 48
        e 260 80 41 00
        e 0 80 45 00
        e 0 80 48 00
        E 162 90 3e 48
        E 24 90 41 48
        E 0 90 45 48
        E 1896 90 3e 48
        E 24 80 3e 00
        E 0 80 41 00
        E 0 80 45 00
        E 0 90 41 48
        E 0 90 45 48
        E 260 80 3e 00
        E 0 80 41 00
        E 0 80 45 00
        E 416 90 3e 48
        E 24 90 41 48
        E 0 90 45 48
        E 260 80 3e 00
        E 0 80 41 00
        E 0 80 45 00
        e 490 90 3e 48
        e 24 90 41 48
        e 0 90 45 48
        e 260 80 3e 00
        e 0 80 41 00
        e 0 80 45 00
        E 186 b0 7b 00
        CHASE_CC_TAKEOFFS 1
        GUID {040E7AF8-3572-5D91-3C86-797AEE7444D4}
        IGNTEMPO 0 120 4 4
        SRCCOLOR 22
        VELLANE -1 100 0
        CFGEDITVIEW 0 0.045808 45 12 0 -1 0 0 0 0.5
        KEYSNAP 0
        TRACKSEL 0
        EVTFILTER 0 -1 -1 -1 -1 0 0 0 0 -1 -1 -1 -1 0 -1 0 -1 -1
        CFGEDIT 1 1 0 1 0 0 1 1 1 1 1 1 58 171 1253 866 0 0 0 0 0.25 0 0 0 0 0.5 0 0 1 64
      >
    >
    <ITEM
      POSITION 48
      SNAPOFFS 0
      LENGTH 8
      LOOP 1
      ALLTAKES 0
      FADEIN 1 0 0 1 0 0
      FADEOUT 1 0 0 1 0 0
      MUTE 0
      SEL 1
      IGUID {4BBA1E42-350C-CB53-773A-F852F3318FA2}
      IID 16
      NAME "01-Recorded MIDI"
      VOLPAN 1 0 1 -1
      SOFFS 0 0
      PLAYRATE 1 1 0 -1 0 0.0021
      CHANMODE 0
      GUID {F1E269E1-AFF7-E96E-DA74-4B88C4BBD576}
      RECPASS 1
      <SOURCE MIDI
        HASDATA 1 960 QN
        CCINTERP 32
        POOLEDEVTS {5F9AA6C4-2C26-FC44-A8D5-DD925FFEBDC7}
        E 0 90 3c 48
        E 0 90 40 48
        E 0 90 43 48
        E 1920 80 3c 00
        E 0 80 40 00
        E 0 80 43 00
        E 0 90 3c 48
        E 0 90 40 48
        E 0 90 43 48
        E 260 80 3c 00
        E 0 80 40 00
        E 0 80 43 00
        E 440 90 3c 48
        E 0 90 40 48
        E 0 90 43 48
        E 260 80 3c 00
        E 0 80 40 00
        E 0 80 43 00
        e 514 90 3c 48
        e 0 90 40 48
        e 0 90 43 48
        e 260 80 3c 00
        e 0 80 40 00
        e 0 80 43 00
        E 186 90 43 48
        E 0 90 47 48
        E 20 90 40 48
        E 1900 80 43 00
        E 0 80 47 00
        E 0 80 40 00
        E 0 90 43 48
        E 0 90 47 48
        E 20 90 40 48
        E 240 80 43 00
        E 0 80 47 00
        E 0 80 40 00
        E 440 90 43 48
        E 0 90 47 48
        E 20 90 40 48
        E 240 80 43 00
        E 0 80 47 00
        E 0 80 40 00
        e 514 90 43 48
        e 0 90 47 48
        e 20 90 40 48
        e 240 80 43 00
        e 0 80 47 00
        e 0 80 40 00
        E 186 90 41 48
        E 0 90 45 48
        E 0 90 48 48
        E 1920 80 41 00
        E 0 80 45 00
        E 0 80 48 00
        E 0 90 41 48
        E 0 90 45 48
        E 0 90 48 48
        E 260 80 41 00
        E 0 80 45 00
        E 0 80 48 00
        E 440 90 41 48
        E 0 90 45 48
        E 0 90 48 48
        E 260 80 41 00
        E 0 80 45 00
        E 0 80 48 00
        e 514 90 41 48
        e 0 90 45 48
        e 0 90 48 48
        e 260 80 41 00
        e 0 80 45 00
        e 0 80 48 00
        E 162 90 3e 48
        E 24 90 41 48
        E 0 90 45 48
        E 1896 90 3e 48
        E 24 80 3e 00
        E 0 80 41 00
        E 0 80 45 00
        E 0 90 41 48
        E 0 90 45 48
        E 260 80 3e 00
        E 0 80 41 00
        E 0 80 45 00
        E 416 90 3e 48
        E 24 90 41 48
        E 0 90 45 48
        E 260 80 3e 00
        E 0 80 41 00
        E 0 80 45 00
        e 490 90 3e 48
        e 24 90 41 48
        e 0 90 45 48
        e 260 80 3e 00
        e 0 80 41 00
        e 0 80 45 00
        E 186 b0 7b 00
        CHASE_CC_TAKEOFFS 1
        GUID {2338968B-6CF9-9F40-300F-DEB89D3392EA}
        IGNTEMPO 0 120 4 4
        SRCCOLOR 23
        VELLANE -1 100 0
        CFGEDITVIEW 0 0.045808 45 12 0 -1 0 0 0 0.5
        KEYSNAP 0
        TRACKSEL 0
        EVTFILTER 0 -1 -1 -1 -1 0 0 0 0 -1 -1 -1 -1 0 -1 0 -1 -1
        CFGEDIT 1 1 0 1 0 0 1 1 1 1 1 1 58 171 1253 866 0 0 0 0 0.25 0 0 0 0 0.5 0 0 1 64
      >
    >
    <ITEM
      POSITION 56
      SNAPOFFS 0
      LENGTH 8
      LOOP 1
      ALLTAKES 0
      FADEIN 1 0 0 1 0 0
      FADEOUT 1 0 0 1 0 0
      MUTE 0
      SEL 1
      IGUID {D438C69B-907C-097F-E77C-81C63B4F7CCC}
      IID 17
      NAME "01-Recorded MIDI"
      VOLPAN 1 0 1 -1
      SOFFS 0 0
      PLAYRATE 1 1 0 -1 0 0.0021
      CHANMODE 0
      GUID {A2EBA3E4-5EEC-4F2E-2ADB-51C38EBB02F3}
      RECPASS 1
      <SOURCE MIDI
        HASDATA 1 960 QN
        CCINTERP 32
        POOLEDEVTS {C8896687-9358-9F71-06C7-EEE256F2E1FA}
        E 0 90 3c 48
        E 0 90 40 48
        E 0 90 43 48
        E 1920 80 3c 00
        E 0 80 40 00
        E 0 80 43 00
        E 0 90 3c 48
        E 0 90 40 48
        E 0 90 43 48
        E 260 80 3c 00
        E 0 80 40 00
        E 0 80 43 00
        E 440 90 3c 48
        E 0 90 40 48
        E 0 90 43 48
        E 260 80 3c 00
        E 0 80 40 00
        E 0 80 43 00
        e 514 90 3c 48
        e 0 90 40 48
        e 0 90 43 48
        e 260 80 3c 00
        e 0 80 40 00
        e 0 80 43 00
        E 186 90 43 48
        E 0 90 47 48
        E 20 90 40 48
        E 1900 80 43 00
        E 0 80 47 00
        E 0 80 40 00
        E 0 90 43 48
        E 0 90 47 48
        E 20 90 40 48
        E 240 80 43 00
        E 0 80 47 00
        E 0 80 40 00
        E 440 90 43 48
        E 0 90 47 48
        E 20 90 40 48
        E 240 80 43 00
        E 0 80 47 00
        E 0 80 40 00
        e 514 90 43 48
        e 0 90 47 48
        e 20 90 40 48
        e 240 80 43 00
        e 0 80 47 00
        e 0 80 40 00
        E 186 90 41 48
        E 0 90 45 48
        E 0 90 48 48
        E 1920 80 41 00
        E 0 80 45 00
        E 0 80 48 00
        E 0 90 41 48
        E 0 90 45 48
        E 0 90 48 48
        E 260 80 41 00
        E 0 80 45 00
        E 0 80 48 00
        E 440 90 41 48
        E 0 90 45 48
        E 0 90 48 48
        E 260 80 41 00
        E 0 80 45 00
        E 0 80 48 00
        e 514 90 41 48
        e 0 90 45 48
        e 0 90 48 48
        e 260 80 41 00
        e 0 80 45 00
        e 0 80 48 00
        E 162 90 3e 48
        E 24 90 41 48
        E 0 90 45 48
        E 1896 90 3e 48
        E 24 80 3e 00
        E 0 80 41 00
        E 0 80 45 00
        E 0 90 41 48
        E 0 90 45 48
        E 260 80 3e 00
        E 0 80 41 00
        E 0 80 45 00
        E 416 90 3e 48
        E 24 90 41 48
        E 0 90 45 48
        E 260 80 3e 00
        E 0 80 41 00
        E 0 80 45 00
        e 490 90 3e 48
        e 24 90 41 48
        e 0 90 45 48
        e 260 80 3e 00
        e 0 80 41 00
        e 0 80 45 00
        E 186 b0 7b 00
        CHASE_CC_TAKEOFFS 1
        GUID {A64857E2-94F8-0990-20DF-4C1E9B5E6251}
        IGNTEMPO 0 120 4 4
        SRCCOLOR 24
        VELLANE -1 100 0
        CFGEDITVIEW 0 0.045808 45 12 0 -1 0 0 0 0.5
        KEYSNAP 0
        TRACKSEL 0
        EVTFILTER 0 -1 -1 -1 -1 0 0 0 0 -1 -1 -1 -1 0 -1 0 -1 -1
        CFGEDIT 1 1 0 1 0 0 1 1 1 1 1 1 58 171 1253 866 0 0 0 0 0.25 0 0 0 0 0.5 0 0 1 64
      >
    >
    <ITEM
      POSITION 64
      SNAPOFFS 0
      LENGTH 8
      LOOP 1
      ALLTAKES 0
      FADEIN 1 0 0 1 0 0
      FADEOUT 1 0 0 1 0 0
      MUTE 0
      SEL 1
      IGUID {75F26E6D-8B20-726B-AF4E-2BA659F2457C}
      IID 18
      NAME "01-Recorded MIDI"
      VOLPAN 1 0 1 -1
      SOFFS 0 0
      PLAYRATE 1 1 0 -1 0 0.0021
      CHANMODE 0
      GUID {8BB607E3-063E-B23D-C806-50D15D14E8D2}
      RECPASS 1
      <SOURCE MIDI
        HASDATA 1 960 QN
        CCINTERP 32
        POOLEDEVTS {776E7287-051B-2B32-0758-B924282E519D}
        E 0 90 3c 48
        E 0 90 40 48
        E 0 90 43 48
        E 1920 80 3c 00
        E 0 80 40 00
        E 0 80 43 00
        E 0 90 3c 48
        E 0 90 40 48
        E 0 90 43 48
        E 260 80 3c 00
        E 0 80 40 00
        E 0 80 43 00
        E 440 90 3c 48
        E 0 90 40 48
        E 0 90 43 48
        E 260 80 3c 00
        E 0 80 40 00
        E 0 80 43 00
        e 514 90 3c 48
        e 0 90 40 48
        e 0 90 43 48
        e 260 80 3c 00
        e 0 80 40 00
        e 0 80 43 00
        E 186 90 43 48
        E 0 90 47 48
        E 20 90 40 48
        E 1900 80 43 00
        E 0 80 47 00
        E 0 80 40 00
        E 0 90 43 48
        E 0 90 47 48
        E 20 90 40 48
        E 240 80 43 00
        E 0 80 47 00
        E 0 80 40 00
        E 440 90 43 48
        E 0 90 47 48
        E 20 90 40 48
        E 240 80 43 00
        E 0 80 47 00
        E 0 80 40 00
        e 514 90 43 48
        e 0 90 47 48
        e 20 90 40 48
        e 240 80 43 00
        e 0 80 47 00
        e 0 80 40 00
        E 186 90 41 48
        E 0 90 45 48
        E 0 90 48 48
        E 1920 80 41 00
        E 0 80 45 00
        E 0 80 48 00
        E 0 90 41 48
        E 0 90 45 48
        E 0 90 48 48
        E 260 80 41 00
        E 0 80 45 00
        E 0 80 48 00
        E 440 90 41 48
        E 0 90 45 48
        E 0 90 48 48
        E 260 80 41 00
        E 0 80 45 00
        E 0 80 48 00
        e 514 90 41 48
        e 0 90 45 48
        e 0 90 48 48
        e 260 80 41 00
        e 0 80 45 00
        e 0 80 48 00
        E 162 90 3e 48
        E 24 90 41 48
        E 0 90 45 48
        E 1896 90 3e 48
        E 24 80 3e 00
        E 0 80 41 00
        E 0 80 45 00
        E 0 90 41 48
        E 0 90 45 48
        E 260 80 3e 00
        E 0 80 41 00
        E 0 80 45 00
        E 416 90 3e 48
        E 24 90 41 48
        E 0 90 45 48
        E 260 80 3e 00
        E 0 80 41 00
        E 0 80 45 00
        e 490 90 3e 48
        e 24 90 41 48
        e 0 90 45 48
        e 260 80 3e 00
        e 0 80 41 00
        e 0 80 45 00
        E 186 b0 7b 00
        CHASE_CC_TAKEOFFS 1
        GUID {19362806-85F2-5D9E-E1F9-07BE0CF3D16E}
        IGNTEMPO 0 120 4 4
        SRCCOLOR 25
        VELLANE -1 100 0
        CFGEDITVIEW 0 0.045808 45 12 0 -1 0 0 0 0.5
        KEYSNAP 0
        TRACKSEL 0
        EVTFILTER 0 -1 -1 -1 -1 0 0 0 0 -1 -1 -1 -1 0 -1 0 -1 -1
        CFGEDIT 1 1 0 1 0 0 1 1 1 1 1 1 58 171 1253 866 0 0 0 0 0.25 0 0 0 0 0.5 0 0 1 64
      >
    >
    <ITEM
      POSITION 72
      SNAPOFFS 0
      LENGTH 8
      LOOP 1
      ALLTAKES 0
      FADEIN 1 0 0 1 0 0
      FADEOUT 1 0 0 1 0 0
      MUTE 0
      SEL 1
      IGUID {5D6733B6-4A05-9E1D-8AD8-56E94FB9160F}
      IID 19
      NAME "01-Recorded MIDI"
      VOLPAN 1 0 1 -1
      SOFFS 0 0
      PLAYRATE 1 1 0 -1 0 0.0021
      CHANMODE 0
      GUID {689D1017-5BF9-8A88-69DB-05F5735067F7}
      RECPASS 1
      <SOURCE MIDI
        HASDATA 1 960 QN
        CCINTERP 32
        POOLEDEVTS {EFF2B9CE-D8A4-3E55-9E65-99B92C69C7F7}
        E 0 90 3c 48
        E 0 90 40 48
        E 0 90 43 48
        E 1920 80 3c 00
        E 0 80 40 00
        E 0 80 43 00
        E 0 90 3c 48
        E 0 90 40 48
        E 0 90 43 48
        E 260 80 3c 00
        E 0 80 40 00
        E 0 80 43 00
        E 440 90 3c 48
        E 0 90 40 48
        E 0 90 43 48
        E 260 80 3c 00
        E 0 80 40 00
        E 0 80 43 00
        e 514 90 3c 48
        e 0 90 40 48
        e 0 90 43 48
        e 260 80 3c 00
        e 0 80 40 00
        e 0 80 43 00
        E 186 90 43 48
        E 0 90 47 48
        E 20 90 40 48
        E 1900 80 43 00
        E 0 80 47 00
        E 0 80 40 00
        E 0 90 43 48
        E 0 90 47 48
        E 20 90 40 48
        E 240 80 43 00
        E 0 80 47 00
        E 0 80 40 00
        E 440 90 43 48
        E 0 90 47 48
        E 20 90 40 48
        E 240 80 43 00
        E 0 80 47 00
        E 0 80 40 00
        e 514 90 43 48
        e 0 90 47 48
        e 20 90 40 48
        e 240 80 43 00
        e 0 80 47 00
        e 0 80 40 00
        E 186 90 41 48
        E 0 90 45 48
        E 0 90 48 48
        E 1920 80 41 00
        E 0 80 45 00
        E 0 80 48 00
        E 0 90 41 48
        E 0 90 45 48
        E 0 90 48 48
        E 260 80 41 00
        E 0 80 45 00
        E 0 80 48 00
        E 440 90 41 48
        E 0 90 45 48
        E 0 90 48 48
        E 260 80 41 00
        E 0 80 45 00
        E 0 80 48 00
        e 514 90 41 48
        e 0 90 45 48
        e 0 90 48 48
        e 260 80 41 00
        e 0 80 45 00
        e 0 80 48 00
        E 162 90 3e 48
        E 24 90 41 48
        E 0 90 45 48
        E 1896 90 3e 48
        E 24 80 3e 00
        E 0 80 41 00
        E 0 80 45 00
        E 0 90 41 48
        E 0 90 45 48
        E 260 80 3e 00
        E 0 80 41 00
        E 0 80 45 00
        E 416 90 3e 48
        E 24 90 41 48
        E 0 90 45 48
        E 260 80 3e 00
        E 0 80 41 00
        E 0 80 45 00
        e 490 90 3e 48
        e 24 90 41 48
        e 0 90 45 48
        e 260 80 3e 00
        e 0 80 41 00
        e 0 80 45 00
        E 186 b0 7b 00
        CHASE_CC_TAKEOFFS 1
        GUID {6844F8A9-6BE9-023C-4A46-0A676470C99B}
        IGNTEMPO 0 120 4 4
        SRCCOLOR 26
        VELLANE -1 100 0
        CFGEDITVIEW 0 0.045808 45 12 0 -1 0 0 0 0.5
        KEYSNAP 0
        TRACKSEL 0
        EVTFILTER 0 -1 -1 -1 -1 0 0 0 0 -1 -1 -1 -1 0 -1 0 -1 -1
        CFGEDIT 1 1 0 1 0 0 1 1 1 1 1 1 58 171 1253 866 0 0 0 0 0.25 0 0 0 0 0.5 0 0 1 64
      >
    >
    <ITEM
      POSITION 80
      SNAPOFFS 0
      LENGTH 8
      LOOP 1
      ALLTAKES 0
      FADEIN 1 0 0 1 0 0
      FADEOUT 1 0 0 1 0 0
      MUTE 0
      SEL 1
      IGUID {3831B508-2480-2F09-B430-010627FA0B20}
      IID 20
      NAME "01-Recorded MIDI"
      VOLPAN 1 0 1 -1
      SOFFS 0 0
      PLAYRATE 1 1 0 -1 0 0.0021
      CHANMODE 0
      GUID {38701DC6-1063-68A0-FAD4-5FF143BC0F19}
      RECPASS 1
      <SOURCE MIDI
        HASDATA 1 960 QN
        CCINTERP 32
        POOLEDEVTS {0F237683-F18D-8C67-E2B7-4F94D45C4F27}
        E 0 90 3c 48
        E 0 90 40 48
        E 0 90 43 48
        E 1920 80 3c 00
        E 0 80 40 00
        E 0 80 43 00
        E 0 90 3c 48
        E 0 90 40 48
        E 0 90 43 48
        E 260 80 3c 00
        E 0 80 40 00
        E 0 80 43 00
        E 440 90 3c 48
        E 0 90 40 48
        E 0 90 43 48
        E 260 80 3c 00
        E 0 80 40 00
        E 0 80 43 00
        e 514 90 3c 48
        e 0 90 40 48
        e 0 90 43 48
        e 260 80 3c 00
        e 0 80 40 00
        e 0 80 43 00
        E 186 90 43 48
        E 0 90 47 48
        E 20 90 40 48
        E 1900 80 43 00
        E 0 80 47 00
        E 0 80 40 00
        E 0 90 43 48
        E 0 90 47 48
        E 20 90 40 48
        E 240 80 43 00
        E 0 80 47 00
        E 0 80 40 00
        E 440 90 43 48
        E 0 90 47 48
        E 20 90 40 48
        E 240 80 43 00
        E 0 80 47 00
        E 0 80 40 00
        e 514 90 43 48
        e 0 90 47 48
        e 20 90 40 48
        e 240 80 43 00
        e 0 80 47 00
        e 0 80 40 00
        E 186 90 41 48
        E 0 90 45 48
        E 0 90 48 48
        E 1920 80 41 00
        E 0 80 45 00
        E 0 80 48 00
        E 0 90 41 48
        E 0 90 45 48
        E 0 90 48 48
        E 260 80 41 00
        E 0 80 45 00
        E 0 80 48 00
        E 440 90 41 48
        E 0 90 45 48
        E 0 90 48 48
        E 260 80 41 00
        E 0 80 45 00
        E 0 80 48 00
        e 514 90 41 48
        e 0 90 45 48
        e 0 90 48 48
        e 260 80 41 00
        e 0 80 45 00
        e 0 80 48 00
        E 162 90 3e 48
        E 24 90 41 48
        E 0 90 45 48
        E 1896 90 3e 48
        E 24 80 3e 00
        E 0 80 41 00
        E 0 80 45 00
        E 0 90 41 48
        E 0 90 45 48
        E 260 80 3e 00
        E 0 80 41 00
        E 0 80 45 00
        E 416 90 3e 48
        E 24 90 41 48
        E 0 90 45 48
        E 260 80 3e 00
        E 0 80 41 00
        E 0 80 45 00
        e 490 90 3e 48
        e 24 90 41 48
        e 0 90 45 48
        e 260 80 3e 00
        e 0 80 41 00
        e 0 80 45 00
        E 186 b0 7b 00
        CHASE_CC_TAKEOFFS 1
        GUID {E611ADB6-4869-6CCA-8E83-3954D5E743B1}
        IGNTEMPO 0 120 4 4
        SRCCOLOR 27
        VELLANE -1 100 0
        CFGEDITVIEW 0 0.045808 45 12 0 -1 0 0 0 0.5
        KEYSNAP 0
        TRACKSEL 0
        EVTFILTER 0 -1 -1 -1 -1 0 0 0 0 -1 -1 -1 -1 0 -1 0 -1 -1
        CFGEDIT 1 1 0 1 0 0 1 1 1 1 1 1 58 171 1253 866 0 0 0 0 0.25 0 0 0 0 0.5 0 0 1 64
      >
    >
    <ITEM
      POSITION 88
      SNAPOFFS 0
      LENGTH 8
      LOOP 1
      ALLTAKES 0
      FADEIN 1 0 0 1 0 0
      FADEOUT 1 0 0 1 0 0
      MUTE 0
      SEL 1
      IGUID {D7D362DE-40DC-34FC-5874-98DE8FBFFB16}
      IID 21
      NAME "01-Recorded MIDI"
      VOLPAN 1 0 1 -1
      SOFFS 0 0
      PLAYRATE 1 1 0 -1 0 0.0021
      CHANMODE 0
      GUID {272E1340-C7D1-908C-FC3B-06B6807145BF}
      RECPASS 1
      <SOURCE MIDI
        HASDATA 1 960 QN
        CCINTERP 32
        POOLEDEVTS {AF25872E-9860-0D3D-E5D2-99BA66D9B580}
        E 0 90 3c 48
        E 0 90 40 48
        E 0 90 43 48
        E 1920 80 3c 00
        E 0 80 40 00
        E 0 80 43 00
        E 0 90 3c 48
        E 0 90 40 48
        E 0 90 43 48
        E 260 80 3c 00
        E 0 80 40 00
        E 0 80 43 00
        E 440 90 3c 48
        E 0 90 40 48
        E 0 90 43 48
        E 260 80 3c 00
        E 0 80 40 00
        E 0 80 43 00
        e 514 90 3c 48
        e 0 90 40 48
        e 0 90 43 48
        e 260 80 3c 00
        e 0 80 40 00
        e 0 80 43 00
        E 186 90 43 48
        E 0 90 47 48
        E 20 90 40 48
        E 1900 80 43 00
        E 0 80 47 00
        E 0 80 40 00
        E 0 90 43 48
        E 0 90 47 48
        E 20 90 40 48
        E 240 80 43 00
        E 0 80 47 00
        E 0 80 40 00
        E 440 90 43 48
        E 0 90 47 48
        E 20 90 40 48
        E 240 80 43 00
        E 0 80 47 00
        E 0 80 40 00
        e 514 90 43 48
        e 0 90 47 48
        e 20 90 40 48
        e 240 80 43 00
        e 0 80 47 00
        e 0 80 40 00
        E 186 90 41 48
        E 0 90 45 48
        E 0 90 48 48
        E 1920 80 41 00
        E 0 80 45 00
        E 0 80 48 00
        E 0 90 41 48
        E 0 90 45 48
        E 0 90 48 48
        E 260 80 41 00
        E 0 80 45 00
        E 0 80 48 00
        E 440 90 41 48
        E 0 90 45 48
        E 0 90 48 48
        E 260 80 41 00
        E 0 80 45 00
        E 0 80 48 00
        e 514 90 41 48
        e 0 90 45 48
        e 0 90 48 48
        e 260 80 41 00
        e 0 80 45 00
        e 0 80 48 00
        E 162 90 3e 48
        E 24 90 41 48
        E 0 90 45 48
        E 1896 90 3e 48
        E 24 80 3e 00
        E 0 80 41 00
        E 0 80 45 00
        E 0 90 41 48
        E 0 90 45 48
        E 260 80 3e 00
        E 0 80 41 00
        E 0 80 45 00
        E 416 90 3e 48
        E 24 90 41 48
        E 0 90 45 48
        E 260 80 3e 00
        E 0 80 41 00
        E 0 80 45 00
        e 490 90 3e 48
        e 24 90 41 48
        e 0 90 45 48
        e 260 80 3e 00
        e 0 80 41 00
        e 0 80 45 00
        E 186 b0 7b 00
        CHASE_CC_TAKEOFFS 1
        GUID {C762B555-17FC-D765-5340-11D3487D2955}
        IGNTEMPO 0 120 4 4
        SRCCOLOR 28
        VELLANE -1 100 0
        CFGEDITVIEW 0 0.045808 45 12 0 -1 0 0 0 0.5
        KEYSNAP 0
        TRACKSEL 0
        EVTFILTER 0 -1 -1 -1 -1 0 0 0 0 -1 -1 -1 -1 0 -1 0 -1 -1
        CFGEDIT 1 1 0 1 0 0 1 1 1 1 1 1 58 171 1253 866 0 0 0 0 0.25 0 0 0 0 0.5 0 0 1 64
      >
    >
  >
  <TRACK {EF4B2607-B3FF-BE0B-707B-874385F3D2DF}
    NAME ""
    PEAKCOL 16576
    BEAT -1
    AUTOMODE 0
    VOLPAN 0.00052194381917 0 -1 -1 1
    MUTESOLO 0 0 0
    IPHASE 0
    PLAYOFFS 0 1
    ISBUS 0 0
    BUSCOMP 0 0 0 0 0
    SHOWINMIX 1 0.6667 0.5 1 0.5 0 0 0
    FREEMODE 0
    SEL 0
    REC 0 5056 1 0 0 0 0
    VU 2
    TRACKHEIGHT 21 0 0
    INQ 0 0 0 0.5 100 0 0 100
    NCHAN 2
    FX 0
    TRACKID {EF4B2607-B3FF-BE0B-707B-874385F3D2DF}
    PERF 0
    MIDIOUT -1
    MAINSEND 1 0
    <FXCHAIN
      WNDRECT 346 266 902 608
      SHOW 0
      LASTSEL 5
      DOCKED 0
      BYPASS 0 0 0
      <VST "VST: ReaEQ (Cockos)" reaeq.vst.so 0 "" 1919247729<56535472656571726561657100000000> ""
        cWVlcu5e7f4CAAAAAQAAAAAAAAACAAAAAAAAAAIAAAABAAAAAAAAAAIAAAAAAAAAqAAAAAEAAAAAABAA
        IQAAAAQAAAAEAAAAAQAAAEC4Xhmm+DRAAAAAAAAA8D8AAAAAAAAAQAEIAAAAAQAAAAAAAAAAwHJAAAAAAAAA8D8AAAAAAAAAQAEIAAAAAQAAAAAAAAAAQI9AAAAAAAAA
        8D8AAAAAAAAAQAEDAAAAAQAAAAABaCorbdRAAAAAAAAA8D8AAAAAAAAAQAEBAAAAAQAAAAAAAAAAAPA/AAAAAJoCAACcAQAA
        AEhpZ2ggbG93IHBhc3MAEAAAAA==
      >
      PRESETNAME "High low pass"
      FLOATPOS 0 0 0 0
      FXID {6103AC4D-02C1-B16D-310A-53EB1419AC36}
      WAK 0 0
      BYPASS 0 0 0
      <VST "VSTi: ReaSynth (Cockos)" reasynth.vst.so 0 "" 1919251321<5653547265737972656173796E746800> ""
        eXNlcu9e7f4AAAAAAgAAAAEAAAAAAAAAAgAAAAAAAAA8AAAAAAAAAAAAEAA=
        776t3g3wrd6lm8Q7F7fROgAAAAAAAAAAAAAAAJCNuT3oZ4g9AACAPwAAAD8AAIA/AAAAAAAAAD8AAAAA
        AAAQAAAA
      >
      FLOATPOS 0 0 0 0
      FXID {66A7C726-596F-675F-E74C-77F74E080B2C}
      WAK 0 0
      BYPASS 0 0 0
      <JS guitar/amp-model ""
        "Dumble Overdrive Special - Tweed Deluxe.wav" -21.000000 1.000000 0.000000 73.000000 256.000000 - - - - - - - - - - - - - - - - - - - - - - - - - - - - - - - - - - - - - - - - - - - - - - - - - - - - - - - - - - 
      >
      FLOATPOS 0 0 0 0
      FXID {6719BC0B-9894-92EB-7E25-1DDA0BA436D9}
      WAK 0 0
      BYPASS 0 0 0
      <VST "VST: ReaComp (Cockos)" reacomp.vst.so 0 "" 1919247213<5653547265636D726561636F6D700000> ""
        bWNlcu9e7f4EAAAAAQAAAAAAAAACAAAAAAAAAAQAAAAAAAAACAAAAAAAAAACAAAAAQAAAAAAAAACAAAAAAAAAFQAAAAAAAAAAAAQAA==
        776t3g3wrd5FoYg9/AWpPKWbxDsK16M8AAAAAAAAAAAAAIA/AAAAAAAAAAAAAAAAnNEHMwAAgD8AAAAAzMxMPQAAAAAAAAAAAAAAAAAAgD7YiZ09
        AAAQAAAA
      >
      FLOATPOS 0 0 0 0
      FXID {6A4645CC-024B-A16C-B596-7A4E35B30303}
      WAK 0 0
      BYPASS 0 0 0
      <VST "VST: ReaDelay (Cockos)" readelay.vst.so 0 "" 1919247468<5653547265646C72656164656C617900> ""
        bGRlcu5e7f4CAAAAAQAAAAAAAAACAAAAAAAAAAIAAAABAAAAAAAAAAIAAAAAAAAA/AAAAAEAAAAAAAAA
        AAAAAAAAAAAFAAAALAAAAAIAAAAEAAAAAACAPwAAgD8AAAAAAACAPwAAAAAAAIA7vTeGNQAAgD8AAAAAAACAPwAAgD8AAIA/AAAAAAAAAAAAAIA/AAAAAAAAADwAAAAA
        AACAPwAAAAAAAIA/AACAP+87NT8AAIA/AAAAAAAAgD8AAAAAAABAPL03hjUAAIA/AAAAAAAAgD8AAIA/zk0AP6abhD4AAAAAAACAPwAAAAAAAIA8vTeGNQAAgD8AAAAA
        AACAPwAAgD8aqrU+pHA9PwAAAAAAAIA/AAAAAAAAoDy9N4Y1AACAPwAAAAAAAIA/AACAP/npAD4AAAA/
        AHN0b2NrIC0gYmFzaWMgNSB0YXAgcGluZyBwb25nAAAAAAA=
      >
      PRESETNAME "stock - basic 5 tap ping pong"
      FLOATPOS 0 0 0 0
      FXID {D9BB9E81-E8B4-3CF7-7932-4E97000970EE}
      WAK 0 0
      BYPASS 0 0 0
      <VST "VST: ReaVerb (Cockos)" reaverb.vst.so 0 "" 1919252066<56535472657662726561766572620000> ""
        YnZlcu5e7f4CAAAAAQAAAAAAAAACAAAAAAAAAAIAAAABAAAAAAAAAAIAAAAAAAAAcAAAAAEAAAAAAAAA
        AAAAwcybgD4AAIA/AAAAAAAAgD8AAIA/AAAAPwAAgD8AAAAAVkVSQkdFTgAYAAAAAAAAAJHgV0QdrLRA3rK7QsHIjEIAAIC/RUNIT0dFTgAcAAAAy/i2QLUjdUJdzdM/
        osdfP5lRrzyRzYxAnMQAPw==
        AHN3ZWV0dmVyYm8AAAAAAA==
      >
      PRESETNAME sweetverbo
      FLOATPOS 0 0 0 0
      FXID {BDB63552-F238-0597-6E89-DFE17F955799}
      WAK 0 0
    >
    <ITEM
      POSITION 0
      SNAPOFFS 0
      LENGTH 8
      LOOP 1
      ALLTAKES 0
      FADEIN 1 0 0 1 0 0
      FADEOUT 1 0 0 1 0 0
      MUTE 0
      SEL 1
      IGUID {4DD2A6EC-C26A-E542-6664-991203D87A52}
      IID 10
      NAME "01-Recorded MIDI"
      VOLPAN 1 0 1 -1
      SOFFS 0 0
      PLAYRATE 1 1 0 -1 0 0.0021
      CHANMODE 0
      GUID {481282DA-3CEE-DAD1-AE30-59D4D981FA7B}
      RECPASS 1
      <SOURCE MIDI
        HASDATA 1 960 QN
        CCINTERP 32
        POOLEDEVTS {D51E97F3-3391-2D31-DF21-2BCEF3EE6607}
        E 0 90 3c 48
        E 0 90 40 48
        E 0 90 43 48
        E 1920 80 3c 00
        E 0 80 40 00
        E 0 80 43 00
        E 0 90 3c 48
        E 0 90 40 48
        E 0 90 43 48
        E 260 80 3c 00
        E 0 80 40 00
        E 0 80 43 00
        E 440 90 3c 48
        E 0 90 40 48
        E 0 90 43 48
        E 260 80 3c 00
        E 0 80 40 00
        E 0 80 43 00
        e 514 90 3c 48
        e 0 90 40 48
        e 0 90 43 48
        e 260 80 3c 00
        e 0 80 40 00
        e 0 80 43 00
        E 186 90 43 48
        E 0 90 47 48
        E 20 90 40 48
        E 1900 80 43 00
        E 0 80 47 00
        E 0 80 40 00
        E 0 90 43 48
        E 0 90 47 48
        E 20 90 40 48
        E 240 80 43 00
        E 0 80 47 00
        E 0 80 40 00
        E 440 90 43 48
        E 0 90 47 48
        E 20 90 40 48
        E 240 80 43 00
        E 0 80 47 00
        E 0 80 40 00
        e 514 90 43 48
        e 0 90 47 48
        e 20 90 40 48
        e 240 80 43 00
        e 0 80 47 00
        e 0 80 40 00
        E 186 90 41 48
        E 0 90 45 48
        E 0 90 48 48
        E 1920 80 41 00
        E 0 80 45 00
        E 0 80 48 00
        E 0 90 41 48
        E 0 90 45 48
        E 0 90 48 48
        E 260 80 41 00
        E 0 80 45 00
        E 0 80 48 00
        E 440 90 41 48
        E 0 90 45 48
        E 0 90 48 48
        E 260 80 41 00
        E 0 80 45 00
        E 0 80 48 00
        e 514 90 41 48
        e 0 90 45 48
        e 0 90 48 48
        e 260 80 41 00
        e 0 80 45 00
        e 0 80 48 00
        E 162 90 3e 48
        E 24 90 41 48
        E 0 90 45 48
        E 1896 90 3e 48
        E 24 80 3e 00
        E 0 80 41 00
        E 0 80 45 00
        E 0 90 41 48
        E 0 90 45 48
        E 260 80 3e 00
        E 0 80 41 00
        E 0 80 45 00
        E 416 90 3e 48
        E 24 90 41 48
        E 0 90 45 48
        E 260 80 3e 00
        E 0 80 41 00
        E 0 80 45 00
        e 490 90 3e 48
        e 24 90 41 48
        e 0 90 45 48
        e 260 80 3e 00
        e 0 80 41 00
        e 0 80 45 00
        E 186 b0 7b 00
        CHASE_CC_TAKEOFFS 1
        GUID {7B9D708B-43E1-C8D4-C4B3-87E2A6C27801}
        IGNTEMPO 0 120 4 4
        SRCCOLOR 17
        VELLANE -1 100 0
        CFGEDITVIEW 0 0.045808 45 12 0 -1 0 0 0 0.5
        KEYSNAP 0
        TRACKSEL 0
        EVTFILTER 0 -1 -1 -1 -1 0 0 0 0 -1 -1 -1 -1 0 -1 0 -1 -1
        CFGEDIT 1 1 0 1 0 0 1 1 1 1 1 1 58 171 1253 866 0 0 0 0 0.25 0 0 0 0 0.5 0 0 1 64
      >
    >
    <ITEM
      POSITION 8
      SNAPOFFS 0
      LENGTH 8
      LOOP 1
      ALLTAKES 0
      FADEIN 1 0 0 1 0 0
      FADEOUT 1 0 0 1 0 0
      MUTE 0
      SEL 1
      IGUID {9EF6B000-7E77-77CD-ECBE-F8A152988F86}
      IID 11
      NAME "01-Recorded MIDI"
      VOLPAN 1 0 1 -1
      SOFFS 0 0
      PLAYRATE 1 1 0 -1 0 0.0021
      CHANMODE 0
      GUID {F45008AF-04D0-BA8C-C379-219DE01A8C48}
      RECPASS 1
      <SOURCE MIDI
        HASDATA 1 960 QN
        CCINTERP 32
        POOLEDEVTS {B82DFB21-BB87-E5C2-E989-1B9918E86604}
        E 0 90 3c 48
        E 0 90 40 48
        E 0 90 43 48
        E 1920 80 3c 00
        E 0 80 40 00
        E 0 80 43 00
        E 0 90 3c 48
        E 0 90 40 48
        E 0 90 43 48
        E 260 80 3c 00
        E 0 80 40 00
        E 0 80 43 00
        E 440 90 3c 48
        E 0 90 40 48
        E 0 90 43 48
        E 260 80 3c 00
        E 0 80 40 00
        E 0 80 43 00
        e 514 90 3c 48
        e 0 90 40 48
        e 0 90 43 48
        e 260 80 3c 00
        e 0 80 40 00
        e 0 80 43 00
        E 186 90 43 48
        E 0 90 47 48
        E 20 90 40 48
        E 1900 80 43 00
        E 0 80 47 00
        E 0 80 40 00
        E 0 90 43 48
        E 0 90 47 48
        E 20 90 40 48
        E 240 80 43 00
        E 0 80 47 00
        E 0 80 40 00
        E 440 90 43 48
        E 0 90 47 48
        E 20 90 40 48
        E 240 80 43 00
        E 0 80 47 00
        E 0 80 40 00
        e 514 90 43 48
        e 0 90 47 48
        e 20 90 40 48
        e 240 80 43 00
        e 0 80 47 00
        e 0 80 40 00
        E 186 90 41 48
        E 0 90 45 48
        E 0 90 48 48
        E 1920 80 41 00
        E 0 80 45 00
        E 0 80 48 00
        E 0 90 41 48
        E 0 90 45 48
        E 0 90 48 48
        E 260 80 41 00
        E 0 80 45 00
        E 0 80 48 00
        E 440 90 41 48
        E 0 90 45 48
        E 0 90 48 48
        E 260 80 41 00
        E 0 80 45 00
        E 0 80 48 00
        e 514 90 41 48
        e 0 90 45 48
        e 0 90 48 48
        e 260 80 41 00
        e 0 80 45 00
        e 0 80 48 00
        E 162 90 3e 48
        E 24 90 41 48
        E 0 90 45 48
        E 1896 90 3e 48
        E 24 80 3e 00
        E 0 80 41 00
        E 0 80 45 00
        E 0 90 41 48
        E 0 90 45 48
        E 260 80 3e 00
        E 0 80 41 00
        E 0 80 45 00
        E 416 90 3e 48
        E 24 90 41 48
        E 0 90 45 48
        E 260 80 3e 00
        E 0 80 41 00
        E 0 80 45 00
        e 490 90 3e 48
        e 24 90 41 48
        e 0 90 45 48
        e 260 80 3e 00
        e 0 80 41 00
        e 0 80 45 00
        E 186 b0 7b 00
        CHASE_CC_TAKEOFFS 1
        GUID {3131B4E2-B370-E352-A9C5-C8CA31551A86}
        IGNTEMPO 0 120 4 4
        SRCCOLOR 18
        VELLANE -1 100 0
        CFGEDITVIEW 0 0.045808 45 12 0 -1 0 0 0 0.5
        KEYSNAP 0
        TRACKSEL 0
        EVTFILTER 0 -1 -1 -1 -1 0 0 0 0 -1 -1 -1 -1 0 -1 0 -1 -1
        CFGEDIT 1 1 0 1 0 0 1 1 1 1 1 1 58 171 1253 866 0 0 0 0 0.25 0 0 0 0 0.5 0 0 1 64
      >
    >
    <ITEM
      POSITION 16
      SNAPOFFS 0
      LENGTH 8
      LOOP 1
      ALLTAKES 0
      FADEIN 1 0 0 1 0 0
      FADEOUT 1 0 0 1 0 0
      MUTE 0
      SEL 1
      IGUID {D7BFB6B0-0149-04A6-4963-86CF7910F74A}
      IID 12
      NAME "01-Recorded MIDI"
      VOLPAN 1 0 1 -1
      SOFFS 0 0
      PLAYRATE 1 1 0 -1 0 0.0021
      CHANMODE 0
      GUID {FB6A1061-F8EB-E91D-89E6-581BC21F13F3}
      RECPASS 1
      <SOURCE MIDI
        HASDATA 1 960 QN
        CCINTERP 32
        POOLEDEVTS {3A62635F-BAA9-A9B4-7035-2E25607B828A}
        E 0 90 3c 48
        E 0 90 40 48
        E 0 90 43 48
        E 1920 80 3c 00
        E 0 80 40 00
        E 0 80 43 00
        E 0 90 3c 48
        E 0 90 40 48
        E 0 90 43 48
        E 260 80 3c 00
        E 0 80 40 00
        E 0 80 43 00
        E 440 90 3c 48
        E 0 90 40 48
        E 0 90 43 48
        E 260 80 3c 00
        E 0 80 40 00
        E 0 80 43 00
        e 514 90 3c 48
        e 0 90 40 48
        e 0 90 43 48
        e 260 80 3c 00
        e 0 80 40 00
        e 0 80 43 00
        E 186 90 43 48
        E 0 90 47 48
        E 20 90 40 48
        E 1900 80 43 00
        E 0 80 47 00
        E 0 80 40 00
        E 0 90 43 48
        E 0 90 47 48
        E 20 90 40 48
        E 240 80 43 00
        E 0 80 47 00
        E 0 80 40 00
        E 440 90 43 48
        E 0 90 47 48
        E 20 90 40 48
        E 240 80 43 00
        E 0 80 47 00
        E 0 80 40 00
        e 514 90 43 48
        e 0 90 47 48
        e 20 90 40 48
        e 240 80 43 00
        e 0 80 47 00
        e 0 80 40 00
        E 186 90 41 48
        E 0 90 45 48
        E 0 90 48 48
        E 1920 80 41 00
        E 0 80 45 00
        E 0 80 48 00
        E 0 90 41 48
        E 0 90 45 48
        E 0 90 48 48
        E 260 80 41 00
        E 0 80 45 00
        E 0 80 48 00
        E 440 90 41 48
        E 0 90 45 48
        E 0 90 48 48
        E 260 80 41 00
        E 0 80 45 00
        E 0 80 48 00
        e 514 90 41 48
        e 0 90 45 48
        e 0 90 48 48
        e 260 80 41 00
        e 0 80 45 00
        e 0 80 48 00
        E 162 90 3e 48
        E 24 90 41 48
        E 0 90 45 48
        E 1896 90 3e 48
        E 24 80 3e 00
        E 0 80 41 00
        E 0 80 45 00
        E 0 90 41 48
        E 0 90 45 48
        E 260 80 3e 00
        E 0 80 41 00
        E 0 80 45 00
        E 416 90 3e 48
        E 24 90 41 48
        E 0 90 45 48
        E 260 80 3e 00
        E 0 80 41 00
        E 0 80 45 00
        e 490 90 3e 48
        e 24 90 41 48
        e 0 90 45 48
        e 260 80 3e 00
        e 0 80 41 00
        e 0 80 45 00
        E 186 b0 7b 00
        CHASE_CC_TAKEOFFS 1
        GUID {48C567A2-895C-FB9B-FDBA-0ADB7004ABF3}
        IGNTEMPO 0 120 4 4
        SRCCOLOR 19
        VELLANE -1 100 0
        CFGEDITVIEW 0 0.045808 45 12 0 -1 0 0 0 0.5
        KEYSNAP 0
        TRACKSEL 0
        EVTFILTER 0 -1 -1 -1 -1 0 0 0 0 -1 -1 -1 -1 0 -1 0 -1 -1
        CFGEDIT 1 1 0 1 0 0 1 1 1 1 1 1 58 171 1253 866 0 0 0 0 0.25 0 0 0 0 0.5 0 0 1 64
      >
    >
    <ITEM
      POSITION 24
      SNAPOFFS 0
      LENGTH 8
      LOOP 1
      ALLTAKES 0
      FADEIN 1 0 0 1 0 0
      FADEOUT 1 0 0 1 0 0
      MUTE 0
      SEL 1
      IGUID {02C18964-E19B-A615-D0CE-694DA49D3C31}
      IID 13
      NAME "01-Recorded MIDI"
      VOLPAN 1 0 1 -1
      SOFFS 0 0
      PLAYRATE 1 1 0 -1 0 0.0021
      CHANMODE 0
      GUID {74A60E83-75F0-7E5F-5740-6A3FC6D5D4BE}
      RECPASS 1
      <SOURCE MIDI
        HASDATA 1 960 QN
        CCINTERP 32
        POOLEDEVTS {0F27BB82-BFA6-6F5D-3133-4537AB9126C1}
        E 0 90 3c 48
        E 0 90 40 48
        E 0 90 43 48
        E 1920 80 3c 00
        E 0 80 40 00
        E 0 80 43 00
        E 0 90 3c 48
        E 0 90 40 48
        E 0 90 43 48
        E 260 80 3c 00
        E 0 80 40 00
        E 0 80 43 00
        E 440 90 3c 48
        E 0 90 40 48
        E 0 90 43 48
        E 260 80 3c 00
        E 0 80 40 00
        E 0 80 43 00
        e 514 90 3c 48
        e 0 90 40 48
        e 0 90 43 48
        e 260 80 3c 00
        e 0 80 40 00
        e 0 80 43 00
        E 186 90 43 48
        E 0 90 47 48
        E 20 90 40 48
        E 1900 80 43 00
        E 0 80 47 00
        E 0 80 40 00
        E 0 90 43 48
        E 0 90 47 48
        E 20 90 40 48
        E 240 80 43 00
        E 0 80 47 00
        E 0 80 40 00
        E 440 90 43 48
        E 0 90 47 48
        E 20 90 40 48
        E 240 80 43 00
        E 0 80 47 00
        E 0 80 40 00
        e 514 90 43 48
        e 0 90 47 48
        e 20 90 40 48
        e 240 80 43 00
        e 0 80 47 00
        e 0 80 40 00
        E 186 90 41 48
        E 0 90 45 48
        E 0 90 48 48
        E 1920 80 41 00
        E 0 80 45 00
        E 0 80 48 00
        E 0 90 41 48
        E 0 90 45 48
        E 0 90 48 48
        E 260 80 41 00
        E 0 80 45 00
        E 0 80 48 00
        E 440 90 41 48
        E 0 90 45 48
        E 0 90 48 48
        E 260 80 41 00
        E 0 80 45 00
        E 0 80 48 00
        e 514 90 41 48
        e 0 90 45 48
        e 0 90 48 48
        e 260 80 41 00
        e 0 80 45 00
        e 0 80 48 00
        E 162 90 3e 48
        E 24 90 41 48
        E 0 90 45 48
        E 1896 90 3e 48
        E 24 80 3e 00
        E 0 80 41 00
        E 0 80 45 00
        E 0 90 41 48
        E 0 90 45 48
        E 260 80 3e 00
        E 0 80 41 00
        E 0 80 45 00
        E 416 90 3e 48
        E 24 90 41 48
        E 0 90 45 48
        E 260 80 3e 00
        E 0 80 41 00
        E 0 80 45 00
        e 490 90 3e 48
        e 24 90 41 48
        e 0 90 45 48
        e 260 80 3e 00
        e 0 80 41 00
        e 0 80 45 00
        E 186 b0 7b 00
        CHASE_CC_TAKEOFFS 1
        GUID {1DE38800-E2A1-41B5-9C8C-3291891093B1}
        IGNTEMPO 0 120 4 4
        SRCCOLOR 20
        VELLANE -1 100 0
        CFGEDITVIEW 0 0.045808 45 12 0 -1 0 0 0 0.5
        KEYSNAP 0
        TRACKSEL 0
        EVTFILTER 0 -1 -1 -1 -1 0 0 0 0 -1 -1 -1 -1 0 -1 0 -1 -1
        CFGEDIT 1 1 0 1 0 0 1 1 1 1 1 1 58 171 1253 866 0 0 0 0 0.25 0 0 0 0 0.5 0 0 1 64
      >
    >
    <ITEM
      POSITION 32
      SNAPOFFS 0
      LENGTH 8
      LOOP 1
      ALLTAKES 0
      FADEIN 1 0 0 1 0 0
      FADEOUT 1 0 0 1 0 0
      MUTE 0
      SEL 1
      IGUID {EFCA8E1F-8FCA-0E2D-BE04-949B9218CE4F}
      IID 14
      NAME "01-Recorded MIDI"
      VOLPAN 1 0 1 -1
      SOFFS 0 0
      PLAYRATE 1 1 0 -1 0 0.0021
      CHANMODE 0
      GUID {E95B6BEC-3495-578D-6921-2FD33FAC0AEF}
      RECPASS 1
      <SOURCE MIDI
        HASDATA 1 960 QN
        CCINTERP 32
        POOLEDEVTS {49E2B315-0D0F-3B7C-2D34-CAB6CAB1C8A3}
        E 0 90 3c 48
        E 0 90 40 48
        E 0 90 43 48
        E 1920 80 3c 00
        E 0 80 40 00
        E 0 80 43 00
        E 0 90 3c 48
        E 0 90 40 48
        E 0 90 43 48
        E 260 80 3c 00
        E 0 80 40 00
        E 0 80 43 00
        E 440 90 3c 48
        E 0 90 40 48
        E 0 90 43 48
        E 260 80 3c 00
        E 0 80 40 00
        E 0 80 43 00
        e 514 90 3c 48
        e 0 90 40 48
        e 0 90 43 48
        e 260 80 3c 00
        e 0 80 40 00
        e 0 80 43 00
        E 186 90 43 48
        E 0 90 47 48
        E 20 90 40 48
        E 1900 80 43 00
        E 0 80 47 00
        E 0 80 40 00
        E 0 90 43 48
        E 0 90 47 48
        E 20 90 40 48
        E 240 80 43 00
        E 0 80 47 00
        E 0 80 40 00
        E 440 90 43 48
        E 0 90 47 48
        E 20 90 40 48
        E 240 80 43 00
        E 0 80 47 00
        E 0 80 40 00
        e 514 90 43 48
        e 0 90 47 48
        e 20 90 40 48
        e 240 80 43 00
        e 0 80 47 00
        e 0 80 40 00
        E 186 90 41 48
        E 0 90 45 48
        E 0 90 48 48
        E 1920 80 41 00
        E 0 80 45 00
        E 0 80 48 00
        E 0 90 41 48
        E 0 90 45 48
        E 0 90 48 48
        E 260 80 41 00
        E 0 80 45 00
        E 0 80 48 00
        E 440 90 41 48
        E 0 90 45 48
        E 0 90 48 48
        E 260 80 41 00
        E 0 80 45 00
        E 0 80 48 00
        e 514 90 41 48
        e 0 90 45 48
        e 0 90 48 48
        e 260 80 41 00
        e 0 80 45 00
        e 0 80 48 00
        E 162 90 3e 48
        E 24 90 41 48
        E 0 90 45 48
        E 1896 90 3e 48
        E 24 80 3e 00
        E 0 80 41 00
        E 0 80 45 00
        E 0 90 41 48
        E 0 90 45 48
        E 260 80 3e 00
        E 0 80 41 00
        E 0 80 45 00
        E 416 90 3e 48
        E 24 90 41 48
        E 0 90 45 48
        E 260 80 3e 00
        E 0 80 41 00
        E 0 80 45 00
        e 490 90 3e 48
        e 24 90 41 48
        e 0 90 45 48
        e 260 80 3e 00
        e 0 80 41 00
        e 0 80 45 00
        E 186 b0 7b 00
        CHASE_CC_TAKEOFFS 1
        GUID {0C3271F4-E233-9088-9B25-A722FAE7C579}
        IGNTEMPO 0 120 4 4
        SRCCOLOR 21
        VELLANE -1 100 0
        CFGEDITVIEW 0 0.045808 45 12 0 -1 0 0 0 0.5
        KEYSNAP 0
        TRACKSEL 0
        EVTFILTER 0 -1 -1 -1 -1 0 0 0 0 -1 -1 -1 -1 0 -1 0 -1 -1
        CFGEDIT 1 1 0 1 0 0 1 1 1 1 1 1 58 171 1253 866 0 0 0 0 0.25 0 0 0 0 0.5 0 0 1 64
      >
    >
    <ITEM
      POSITION 40
      SNAPOFFS 0
      LENGTH 8
      LOOP 1
      ALLTAKES 0
      FADEIN 1 0 0 1 0 0
      FADEOUT 1 0 0 1 0 0
      MUTE 0
      SEL 1
      IGUID {8B58C2C1-2FD1-FF4D-9803-0FB512958FE3}
      IID 15
      NAME "01-Recorded MIDI"
      VOLPAN 1 0 1 -1
      SOFFS 0 0
      PLAYRATE 1 1 0 -1 0 0.0021
      CHANMODE 0
      GUID {CFAAF387-74EE-4269-C6C2-F058F0D225CD}
      RECPASS 1
      <SOURCE MIDI
        HASDATA 1 960 QN
        CCINTERP 32
        POOLEDEVTS {7A3D31E9-A7A9-10BD-9FD9-FE3FC641875A}
        E 0 90 3c 48
        E 0 90 40 48
        E 0 90 43 48
        E 1920 80 3c 00
        E 0 80 40 00
        E 0 80 43 00
        E 0 90 3c 48
        E 0 90 40 48
        E 0 90 43 48
        E 260 80 3c 00
        E 0 80 40 00
        E 0 80 43 00
        E 440 90 3c 48
        E 0 90 40 48
        E 0 90 43 48
        E 260 80 3c 00
        E 0 80 40 00
        E 0 80 43 00
        e 514 90 3c 48
        e 0 90 40 48
        e 0 90 43 48
        e 260 80 3c 00
        e 0 80 40 00
        e 0 80 43 00
        E 186 90 43 48
        E 0 90 47 48
        E 20 90 40 48
        E 1900 80 43 00
        E 0 80 47 00
        E 0 80 40 00
        E 0 90 43 48
        E 0 90 47 48
        E 20 90 40 48
        E 240 80 43 00
        E 0 80 47 00
        E 0 80 40 00
        E 440 90 43 48
        E 0 90 47 48
        E 20 90 40 48
        E 240 80 43 00
        E 0 80 47 00
        E 0 80 40 00
        e 514 90 43 48
        e 0 90 47 48
        e 20 90 40 48
        e 240 80 43 00
        e 0 80 47 00
        e 0 80 40 00
        E 186 90 41 48
        E 0 90 45 48
        E 0 90 48 48
        E 1920 80 41 00
        E 0 80 45 00
        E 0 80 48 00
        E 0 90 41 48
        E 0 90 45 48
        E 0 90 48 48
        E 260 80 41 00
        E 0 80 45 00
        E 0 80 48 00
        E 440 90 41 48
        E 0 90 45 48
        E 0 90 48 48
        E 260 80 41 00
        E 0 80 45 00
        E 0 80 48 00
        e 514 90 41 48
        e 0 90 45 48
        e 0 90 48 48
        e 260 80 41 00
        e 0 80 45 00
        e 0 80 48 00
        E 162 90 3e 48
        E 24 90 41 48
        E 0 90 45 48
        E 1896 90 3e 48
        E 24 80 3e 00
        E 0 80 41 00
        E 0 80 45 00
        E 0 90 41 48
        E 0 90 45 48
        E 260 80 3e 00
        E 0 80 41 00
        E 0 80 45 00
        E 416 90 3e 48
        E 24 90 41 48
        E 0 90 45 48
        E 260 80 3e 00
        E 0 80 41 00
        E 0 80 45 00
        e 490 90 3e 48
        e 24 90 41 48
        e 0 90 45 48
        e 260 80 3e 00
        e 0 80 41 00
        e 0 80 45 00
        E 186 b0 7b 00
        CHASE_CC_TAKEOFFS 1
        GUID {040E7AF8-3572-5D91-3C86-797AEE7444D4}
        IGNTEMPO 0 120 4 4
        SRCCOLOR 22
        VELLANE -1 100 0
        CFGEDITVIEW 0 0.045808 45 12 0 -1 0 0 0 0.5
        KEYSNAP 0
        TRACKSEL 0
        EVTFILTER 0 -1 -1 -1 -1 0 0 0 0 -1 -1 -1 -1 0 -1 0 -1 -1
        CFGEDIT 1 1 0 1 0 0 1 1 1 1 1 1 58 171 1253 866 0 0 0 0 0.25 0 0 0 0 0.5 0 0 1 64
      >
    >
    <ITEM
      POSITION 48
      SNAPOFFS 0
      LENGTH 8
      LOOP 1
      ALLTAKES 0
      FADEIN 1 0 0 1 0 0
      FADEOUT 1 0 0 1 0 0
      MUTE 0
      SEL 1
      IGUID {1DCA251D-2DE9-4B05-132E-6C1D322B732E}
      IID 16
      NAME "01-Recorded MIDI"
      VOLPAN 1 0 1 -1
      SOFFS 0 0
      PLAYRATE 1 1 0 -1 0 0.0021
      CHANMODE 0
      GUID {7459D617-DDA7-E8BD-6245-5F079F426352}
      RECPASS 1
      <SOURCE MIDI
        HASDATA 1 960 QN
        CCINTERP 32
        POOLEDEVTS {5094F0F3-65E6-CFFC-7734-A3D8EE0B545F}
        E 0 90 3c 48
        E 0 90 40 48
        E 0 90 43 48
        E 1920 80 3c 00
        E 0 80 40 00
        E 0 80 43 00
        E 0 90 3c 48
        E 0 90 40 48
        E 0 90 43 48
        E 260 80 3c 00
        E 0 80 40 00
        E 0 80 43 00
        E 440 90 3c 48
        E 0 90 40 48
        E 0 90 43 48
        E 260 80 3c 00
        E 0 80 40 00
        E 0 80 43 00
        e 514 90 3c 48
        e 0 90 40 48
        e 0 90 43 48
        e 260 80 3c 00
        e 0 80 40 00
        e 0 80 43 00
        E 186 90 43 48
        E 0 90 47 48
        E 20 90 40 48
        E 1900 80 43 00
        E 0 80 47 00
        E 0 80 40 00
        E 0 90 43 48
        E 0 90 47 48
        E 20 90 40 48
        E 240 80 43 00
        E 0 80 47 00
        E 0 80 40 00
        E 440 90 43 48
        E 0 90 47 48
        E 20 90 40 48
        E 240 80 43 00
        E 0 80 47 00
        E 0 80 40 00
        e 514 90 43 48
        e 0 90 47 48
        e 20 90 40 48
        e 240 80 43 00
        e 0 80 47 00
        e 0 80 40 00
        E 186 90 41 48
        E 0 90 45 48
        E 0 90 48 48
        E 1920 80 41 00
        E 0 80 45 00
        E 0 80 48 00
        E 0 90 41 48
        E 0 90 45 48
        E 0 90 48 48
        E 260 80 41 00
        E 0 80 45 00
        E 0 80 48 00
        E 440 90 41 48
        E 0 90 45 48
        E 0 90 48 48
        E 260 80 41 00
        E 0 80 45 00
        E 0 80 48 00
        e 514 90 41 48
        e 0 90 45 48
        e 0 90 48 48
        e 260 80 41 00
        e 0 80 45 00
        e 0 80 48 00
        E 162 90 3e 48
        E 24 90 41 48
        E 0 90 45 48
        E 1896 90 3e 48
        E 24 80 3e 00
        E 0 80 41 00
        E 0 80 45 00
        E 0 90 41 48
        E 0 90 45 48
        E 260 80 3e 00
        E 0 80 41 00
        E 0 80 45 00
        E 416 90 3e 48
        E 24 90 41 48
        E 0 90 45 48
        E 260 80 3e 00
        E 0 80 41 00
        E 0 80 45 00
        e 490 90 3e 48
        e 24 90 41 48
        e 0 90 45 48
        e 260 80 3e 00
        e 0 80 41 00
        e 0 80 45 00
        E 186 b0 7b 00
        CHASE_CC_TAKEOFFS 1
        GUID {2338968B-6CF9-9F40-300F-DEB89D3392EA}
        IGNTEMPO 0 120 4 4
        SRCCOLOR 23
        VELLANE -1 100 0
        CFGEDITVIEW 0 0.045808 45 12 0 -1 0 0 0 0.5
        KEYSNAP 0
        TRACKSEL 0
        EVTFILTER 0 -1 -1 -1 -1 0 0 0 0 -1 -1 -1 -1 0 -1 0 -1 -1
        CFGEDIT 1 1 0 1 0 0 1 1 1 1 1 1 58 171 1253 866 0 0 0 0 0.25 0 0 0 0 0.5 0 0 1 64
      >
    >
    <ITEM
      POSITION 56
      SNAPOFFS 0
      LENGTH 8
      LOOP 1
      ALLTAKES 0
      FADEIN 1 0 0 1 0 0
      FADEOUT 1 0 0 1 0 0
      MUTE 0
      SEL 1
      IGUID {6A71B9CE-705E-FED3-AA44-FFEA5B3D1E76}
      IID 17
      NAME "01-Recorded MIDI"
      VOLPAN 1 0 1 -1
      SOFFS 0 0
      PLAYRATE 1 1 0 -1 0 0.0021
      CHANMODE 0
      GUID {D4B3DF77-C104-768C-7919-2FE291E66B7C}
      RECPASS 1
      <SOURCE MIDI
        HASDATA 1 960 QN
        CCINTERP 32
        POOLEDEVTS {32B2F6AE-6A84-7304-C8A2-0A8557E72839}
        E 0 90 3c 48
        E 0 90 40 48
        E 0 90 43 48
        E 1920 80 3c 00
        E 0 80 40 00
        E 0 80 43 00
        E 0 90 3c 48
        E 0 90 40 48
        E 0 90 43 48
        E 260 80 3c 00
        E 0 80 40 00
        E 0 80 43 00
        E 440 90 3c 48
        E 0 90 40 48
        E 0 90 43 48
        E 260 80 3c 00
        E 0 80 40 00
        E 0 80 43 00
        e 514 90 3c 48
        e 0 90 40 48
        e 0 90 43 48
        e 260 80 3c 00
        e 0 80 40 00
        e 0 80 43 00
        E 186 90 43 48
        E 0 90 47 48
        E 20 90 40 48
        E 1900 80 43 00
        E 0 80 47 00
        E 0 80 40 00
        E 0 90 43 48
        E 0 90 47 48
        E 20 90 40 48
        E 240 80 43 00
        E 0 80 47 00
        E 0 80 40 00
        E 440 90 43 48
        E 0 90 47 48
        E 20 90 40 48
        E 240 80 43 00
        E 0 80 47 00
        E 0 80 40 00
        e 514 90 43 48
        e 0 90 47 48
        e 20 90 40 48
        e 240 80 43 00
        e 0 80 47 00
        e 0 80 40 00
        E 186 90 41 48
        E 0 90 45 48
        E 0 90 48 48
        E 1920 80 41 00
        E 0 80 45 00
        E 0 80 48 00
        E 0 90 41 48
        E 0 90 45 48
        E 0 90 48 48
        E 260 80 41 00
        E 0 80 45 00
        E 0 80 48 00
        E 440 90 41 48
        E 0 90 45 48
        E 0 90 48 48
        E 260 80 41 00
        E 0 80 45 00
        E 0 80 48 00
        e 514 90 41 48
        e 0 90 45 48
        e 0 90 48 48
        e 260 80 41 00
        e 0 80 45 00
        e 0 80 48 00
        E 162 90 3e 48
        E 24 90 41 48
        E 0 90 45 48
        E 1896 90 3e 48
        E 24 80 3e 00
        E 0 80 41 00
        E 0 80 45 00
        E 0 90 41 48
        E 0 90 45 48
        E 260 80 3e 00
        E 0 80 41 00
        E 0 80 45 00
        E 416 90 3e 48
        E 24 90 41 48
        E 0 90 45 48
        E 260 80 3e 00
        E 0 80 41 00
        E 0 80 45 00
        e 490 90 3e 48
        e 24 90 41 48
        e 0 90 45 48
        e 260 80 3e 00
        e 0 80 41 00
        e 0 80 45 00
        E 186 b0 7b 00
        CHASE_CC_TAKEOFFS 1
        GUID {A64857E2-94F8-0990-20DF-4C1E9B5E6251}
        IGNTEMPO 0 120 4 4
        SRCCOLOR 24
        VELLANE -1 100 0
        CFGEDITVIEW 0 0.045808 45 12 0 -1 0 0 0 0.5
        KEYSNAP 0
        TRACKSEL 0
        EVTFILTER 0 -1 -1 -1 -1 0 0 0 0 -1 -1 -1 -1 0 -1 0 -1 -1
        CFGEDIT 1 1 0 1 0 0 1 1 1 1 1 1 58 171 1253 866 0 0 0 0 0.25 0 0 0 0 0.5 0 0 1 64
      >
    >
    <ITEM
      POSITION 64
      SNAPOFFS 0
      LENGTH 8
      LOOP 1
      ALLTAKES 0
      FADEIN 1 0 0 1 0 0
      FADEOUT 1 0 0 1 0 0
      MUTE 0
      SEL 1
      IGUID {E2312649-AEE7-B036-215C-C49C987AF705}
      IID 18
      NAME "01-Recorded MIDI"
      VOLPAN 1 0 1 -1
      SOFFS 0 0
      PLAYRATE 1 1 0 -1 0 0.0021
      CHANMODE 0
      GUID {BC8C5FBF-D915-0FE3-30C5-7B4E1D8350DD}
      RECPASS 1
      <SOURCE MIDI
        HASDATA 1 960 QN
        CCINTERP 32
        POOLEDEVTS {AE564F89-A9D8-5A5B-19EF-1D616AC7DECD}
        E 0 90 3c 48
        E 0 90 40 48
        E 0 90 43 48
        E 1920 80 3c 00
        E 0 80 40 00
        E 0 80 43 00
        E 0 90 3c 48
        E 0 90 40 48
        E 0 90 43 48
        E 260 80 3c 00
        E 0 80 40 00
        E 0 80 43 00
        E 440 90 3c 48
        E 0 90 40 48
        E 0 90 43 48
        E 260 80 3c 00
        E 0 80 40 00
        E 0 80 43 00
        e 514 90 3c 48
        e 0 90 40 48
        e 0 90 43 48
        e 260 80 3c 00
        e 0 80 40 00
        e 0 80 43 00
        E 186 90 43 48
        E 0 90 47 48
        E 20 90 40 48
        E 1900 80 43 00
        E 0 80 47 00
        E 0 80 40 00
        E 0 90 43 48
        E 0 90 47 48
        E 20 90 40 48
        E 240 80 43 00
        E 0 80 47 00
        E 0 80 40 00
        E 440 90 43 48
        E 0 90 47 48
        E 20 90 40 48
        E 240 80 43 00
        E 0 80 47 00
        E 0 80 40 00
        e 514 90 43 48
        e 0 90 47 48
        e 20 90 40 48
        e 240 80 43 00
        e 0 80 47 00
        e 0 80 40 00
        E 186 90 41 48
        E 0 90 45 48
        E 0 90 48 48
        E 1920 80 41 00
        E 0 80 45 00
        E 0 80 48 00
        E 0 90 41 48
        E 0 90 45 48
        E 0 90 48 48
        E 260 80 41 00
        E 0 80 45 00
        E 0 80 48 00
        E 440 90 41 48
        E 0 90 45 48
        E 0 90 48 48
        E 260 80 41 00
        E 0 80 45 00
        E 0 80 48 00
        e 514 90 41 48
        e 0 90 45 48
        e 0 90 48 48
        e 260 80 41 00
        e 0 80 45 00
        e 0 80 48 00
        E 162 90 3e 48
        E 24 90 41 48
        E 0 90 45 48
        E 1896 90 3e 48
        E 24 80 3e 00
        E 0 80 41 00
        E 0 80 45 00
        E 0 90 41 48
        E 0 90 45 48
        E 260 80 3e 00
        E 0 80 41 00
        E 0 80 45 00
        E 416 90 3e 48
        E 24 90 41 48
        E 0 90 45 48
        E 260 80 3e 00
        E 0 80 41 00
        E 0 80 45 00
        e 490 90 3e 48
        e 24 90 41 48
        e 0 90 45 48
        e 260 80 3e 00
        e 0 80 41 00
        e 0 80 45 00
        E 186 b0 7b 00
        CHASE_CC_TAKEOFFS 1
        GUID {19362806-85F2-5D9E-E1F9-07BE0CF3D16E}
        IGNTEMPO 0 120 4 4
        SRCCOLOR 25
        VELLANE -1 100 0
        CFGEDITVIEW 0 0.045808 45 12 0 -1 0 0 0 0.5
        KEYSNAP 0
        TRACKSEL 0
        EVTFILTER 0 -1 -1 -1 -1 0 0 0 0 -1 -1 -1 -1 0 -1 0 -1 -1
        CFGEDIT 1 1 0 1 0 0 1 1 1 1 1 1 58 171 1253 866 0 0 0 0 0.25 0 0 0 0 0.5 0 0 1 64
      >
    >
    <ITEM
      POSITION 72
      SNAPOFFS 0
      LENGTH 8
      LOOP 1
      ALLTAKES 0
      FADEIN 1 0 0 1 0 0
      FADEOUT 1 0 0 1 0 0
      MUTE 0
      SEL 1
      IGUID {EB32FAFB-15A4-1A9E-AA09-F8083B5516C1}
      IID 19
      NAME "01-Recorded MIDI"
      VOLPAN 1 0 1 -1
      SOFFS 0 0
      PLAYRATE 1 1 0 -1 0 0.0021
      CHANMODE 0
      GUID {31093F41-B97F-3A04-B9E3-6DAE4890020C}
      RECPASS 1
      <SOURCE MIDI
        HASDATA 1 960 QN
        CCINTERP 32
        POOLEDEVTS {4C6188F7-A74B-DDCF-2689-E6354A4C3141}
        E 0 90 3c 48
        E 0 90 40 48
        E 0 90 43 48
        E 1920 80 3c 00
        E 0 80 40 00
        E 0 80 43 00
        E 0 90 3c 48
        E 0 90 40 48
        E 0 90 43 48
        E 260 80 3c 00
        E 0 80 40 00
        E 0 80 43 00
        E 440 90 3c 48
        E 0 90 40 48
        E 0 90 43 48
        E 260 80 3c 00
        E 0 80 40 00
        E 0 80 43 00
        e 514 90 3c 48
        e 0 90 40 48
        e 0 90 43 48
        e 260 80 3c 00
        e 0 80 40 00
        e 0 80 43 00
        E 186 90 43 48
        E 0 90 47 48
        E 20 90 40 48
        E 1900 80 43 00
        E 0 80 47 00
        E 0 80 40 00
        E 0 90 43 48
        E 0 90 47 48
        E 20 90 40 48
        E 240 80 43 00
        E 0 80 47 00
        E 0 80 40 00
        E 440 90 43 48
        E 0 90 47 48
        E 20 90 40 48
        E 240 80 43 00
        E 0 80 47 00
        E 0 80 40 00
        e 514 90 43 48
        e 0 90 47 48
        e 20 90 40 48
        e 240 80 43 00
        e 0 80 47 00
        e 0 80 40 00
        E 186 90 41 48
        E 0 90 45 48
        E 0 90 48 48
        E 1920 80 41 00
        E 0 80 45 00
        E 0 80 48 00
        E 0 90 41 48
        E 0 90 45 48
        E 0 90 48 48
        E 260 80 41 00
        E 0 80 45 00
        E 0 80 48 00
        E 440 90 41 48
        E 0 90 45 48
        E 0 90 48 48
        E 260 80 41 00
        E 0 80 45 00
        E 0 80 48 00
        e 514 90 41 48
        e 0 90 45 48
        e 0 90 48 48
        e 260 80 41 00
        e 0 80 45 00
        e 0 80 48 00
        E 162 90 3e 48
        E 24 90 41 48
        E 0 90 45 48
        E 1896 90 3e 48
        E 24 80 3e 00
        E 0 80 41 00
        E 0 80 45 00
        E 0 90 41 48
        E 0 90 45 48
        E 260 80 3e 00
        E 0 80 41 00
        E 0 80 45 00
        E 416 90 3e 48
        E 24 90 41 48
        E 0 90 45 48
        E 260 80 3e 00
        E 0 80 41 00
        E 0 80 45 00
        e 490 90 3e 48
        e 24 90 41 48
        e 0 90 45 48
        e 260 80 3e 00
        e 0 80 41 00
        e 0 80 45 00
        E 186 b0 7b 00
        CHASE_CC_TAKEOFFS 1
        GUID {6844F8A9-6BE9-023C-4A46-0A676470C99B}
        IGNTEMPO 0 120 4 4
        SRCCOLOR 26
        VELLANE -1 100 0
        CFGEDITVIEW 0 0.045808 45 12 0 -1 0 0 0 0.5
        KEYSNAP 0
        TRACKSEL 0
        EVTFILTER 0 -1 -1 -1 -1 0 0 0 0 -1 -1 -1 -1 0 -1 0 -1 -1
        CFGEDIT 1 1 0 1 0 0 1 1 1 1 1 1 58 171 1253 866 0 0 0 0 0.25 0 0 0 0 0.5 0 0 1 64
      >
    >
    <ITEM
      POSITION 80
      SNAPOFFS 0
      LENGTH 8
      LOOP 1
      ALLTAKES 0
      FADEIN 1 0 0 1 0 0
      FADEOUT 1 0 0 1 0 0
      MUTE 0
      SEL 1
      IGUID {E94154CB-C2C2-8640-802C-9556FE47049B}
      IID 20
      NAME "01-Recorded MIDI"
      VOLPAN 1 0 1 -1
      SOFFS 0 0
      PLAYRATE 1 1 0 -1 0 0.0021
      CHANMODE 0
      GUID {A7291157-00D5-6CB2-66C2-74C6EA62EE78}
      RECPASS 1
      <SOURCE MIDI
        HASDATA 1 960 QN
        CCINTERP 32
        POOLEDEVTS {A954ADCA-CC04-2699-D007-52D9523A815F}
        E 0 90 3c 48
        E 0 90 40 48
        E 0 90 43 48
        E 1920 80 3c 00
        E 0 80 40 00
        E 0 80 43 00
        E 0 90 3c 48
        E 0 90 40 48
        E 0 90 43 48
        E 260 80 3c 00
        E 0 80 40 00
        E 0 80 43 00
        E 440 90 3c 48
        E 0 90 40 48
        E 0 90 43 48
        E 260 80 3c 00
        E 0 80 40 00
        E 0 80 43 00
        e 514 90 3c 48
        e 0 90 40 48
        e 0 90 43 48
        e 260 80 3c 00
        e 0 80 40 00
        e 0 80 43 00
        E 186 90 43 48
        E 0 90 47 48
        E 20 90 40 48
        E 1900 80 43 00
        E 0 80 47 00
        E 0 80 40 00
        E 0 90 43 48
        E 0 90 47 48
        E 20 90 40 48
        E 240 80 43 00
        E 0 80 47 00
        E 0 80 40 00
        E 440 90 43 48
        E 0 90 47 48
        E 20 90 40 48
        E 240 80 43 00
        E 0 80 47 00
        E 0 80 40 00
        e 514 90 43 48
        e 0 90 47 48
        e 20 90 40 48
        e 240 80 43 00
        e 0 80 47 00
        e 0 80 40 00
        E 186 90 41 48
        E 0 90 45 48
        E 0 90 48 48
        E 1920 80 41 00
        E 0 80 45 00
        E 0 80 48 00
        E 0 90 41 48
        E 0 90 45 48
        E 0 90 48 48
        E 260 80 41 00
        E 0 80 45 00
        E 0 80 48 00
        E 440 90 41 48
        E 0 90 45 48
        E 0 90 48 48
        E 260 80 41 00
        E 0 80 45 00
        E 0 80 48 00
        e 514 90 41 48
        e 0 90 45 48
        e 0 90 48 48
        e 260 80 41 00
        e 0 80 45 00
        e 0 80 48 00
        E 162 90 3e 48
        E 24 90 41 48
        E 0 90 45 48
        E 1896 90 3e 48
        E 24 80 3e 00
        E 0 80 41 00
        E 0 80 45 00
        E 0 90 41 48
        E 0 90 45 48
        E 260 80 3e 00
        E 0 80 41 00
        E 0 80 45 00
        E 416 90 3e 48
        E 24 90 41 48
        E 0 90 45 48
        E 260 80 3e 00
        E 0 80 41 00
        E 0 80 45 00
        e 490 90 3e 48
        e 24 90 41 48
        e 0 90 45 48
        e 260 80 3e 00
        e 0 80 41 00
        e 0 80 45 00
        E 186 b0 7b 00
        CHASE_CC_TAKEOFFS 1
        GUID {E611ADB6-4869-6CCA-8E83-3954D5E743B1}
        IGNTEMPO 0 120 4 4
        SRCCOLOR 27
        VELLANE -1 100 0
        CFGEDITVIEW 0 0.045808 45 12 0 -1 0 0 0 0.5
        KEYSNAP 0
        TRACKSEL 0
        EVTFILTER 0 -1 -1 -1 -1 0 0 0 0 -1 -1 -1 -1 0 -1 0 -1 -1
        CFGEDIT 1 1 0 1 0 0 1 1 1 1 1 1 58 171 1253 866 0 0 0 0 0.25 0 0 0 0 0.5 0 0 1 64
      >
    >
    <ITEM
      POSITION 88
      SNAPOFFS 0
      LENGTH 8
      LOOP 1
      ALLTAKES 0
      FADEIN 1 0 0 1 0 0
      FADEOUT 1 0 0 1 0 0
      MUTE 0
      SEL 1
      IGUID {366DA5B7-9D74-4F33-E38B-E6936D50F842}
      IID 21
      NAME "01-Recorded MIDI"
      VOLPAN 1 0 1 -1
      SOFFS 0 0
      PLAYRATE 1 1 0 -1 0 0.0021
      CHANMODE 0
      GUID {6852643B-4B7D-8EA4-E440-28EF16A3AA4A}
      RECPASS 1
      <SOURCE MIDI
        HASDATA 1 960 QN
        CCINTERP 32
        POOLEDEVTS {58A50E5D-5CA0-3BD4-B861-D21F705EC819}
        E 0 90 3c 48
        E 0 90 40 48
        E 0 90 43 48
        E 1920 80 3c 00
        E 0 80 40 00
        E 0 80 43 00
        E 0 90 3c 48
        E 0 90 40 48
        E 0 90 43 48
        E 260 80 3c 00
        E 0 80 40 00
        E 0 80 43 00
        E 440 90 3c 48
        E 0 90 40 48
        E 0 90 43 48
        E 260 80 3c 00
        E 0 80 40 00
        E 0 80 43 00
        e 514 90 3c 48
        e 0 90 40 48
        e 0 90 43 48
        e 260 80 3c 00
        e 0 80 40 00
        e 0 80 43 00
        E 186 90 43 48
        E 0 90 47 48
        E 20 90 40 48
        E 1900 80 43 00
        E 0 80 47 00
        E 0 80 40 00
        E 0 90 43 48
        E 0 90 47 48
        E 20 90 40 48
        E 240 80 43 00
        E 0 80 47 00
        E 0 80 40 00
        E 440 90 43 48
        E 0 90 47 48
        E 20 90 40 48
        E 240 80 43 00
        E 0 80 47 00
        E 0 80 40 00
        e 514 90 43 48
        e 0 90 47 48
        e 20 90 40 48
        e 240 80 43 00
        e 0 80 47 00
        e 0 80 40 00
        E 186 90 41 48
        E 0 90 45 48
        E 0 90 48 48
        E 1920 80 41 00
        E 0 80 45 00
        E 0 80 48 00
        E 0 90 41 48
        E 0 90 45 48
        E 0 90 48 48
        E 260 80 41 00
        E 0 80 45 00
        E 0 80 48 00
        E 440 90 41 48
        E 0 90 45 48
        E 0 90 48 48
        E 260 80 41 00
        E 0 80 45 00
        E 0 80 48 00
        e 514 90 41 48
        e 0 90 45 48
        e 0 90 48 48
        e 260 80 41 00
        e 0 80 45 00
        e 0 80 48 00
        E 162 90 3e 48
        E 24 90 41 48
        E 0 90 45 48
        E 1896 90 3e 48
        E 24 80 3e 00
        E 0 80 41 00
        E 0 80 45 00
        E 0 90 41 48
        E 0 90 45 48
        E 260 80 3e 00
        E 0 80 41 00
        E 0 80 45 00
        E 416 90 3e 48
        E 24 90 41 48
        E 0 90 45 48
        E 260 80 3e 00
        E 0 80 41 00
        E 0 80 45 00
        e 490 90 3e 48
        e 24 90 41 48
        e 0 90 45 48
        e 260 80 3e 00
        e 0 80 41 00
        e 0 80 45 00
        E 186 b0 7b 00
        CHASE_CC_TAKEOFFS 1
        GUID {C762B555-17FC-D765-5340-11D3487D2955}
        IGNTEMPO 0 120 4 4
        SRCCOLOR 28
        VELLANE -1 100 0
        CFGEDITVIEW 0 0.045808 45 12 0 -1 0 0 0 0.5
        KEYSNAP 0
        TRACKSEL 0
        EVTFILTER 0 -1 -1 -1 -1 0 0 0 0 -1 -1 -1 -1 0 -1 0 -1 -1
        CFGEDIT 1 1 0 1 0 0 1 1 1 1 1 1 58 171 1253 866 0 0 0 0 0.25 0 0 0 0 0.5 0 0 1 64
      >
    >
  >
  <TRACK {CFB0C003-3325-9146-2A04-7F840C3507FB}
    NAME ""
    PEAKCOL 16576
    BEAT -1
    AUTOMODE 0
    VOLPAN 0.00052194381917 0 -1 -1 1
    MUTESOLO 0 0 0
    IPHASE 0
    PLAYOFFS 0 1
    ISBUS 0 0
    BUSCOMP 0 0 0 0 0
    SHOWINMIX 1 0.6667 0.5 1 0.5 0 0 0
    FREEMODE 0
    SEL 0
    REC 0 5056 1 0 0 0 0
    VU 2
    TRACKHEIGHT 21 0 0
    INQ 0 0 0 0.5 100 0 0 100
    NCHAN 2
    FX 0
    TRACKID {CFB0C003-3325-9146-2A04-7F840C3507FB}
    PERF 0
    MIDIOUT -1
    MAINSEND 1 0
    <FXCHAIN
      WNDRECT 346 266 902 608
      SHOW 0
      LASTSEL 5
      DOCKED 0
      BYPASS 0 0 0
      <VST "VST: ReaEQ (Cockos)" reaeq.vst.so 0 "" 1919247729<56535472656571726561657100000000> ""
        cWVlcu5e7f4CAAAAAQAAAAAAAAACAAAAAAAAAAIAAAABAAAAAAAAAAIAAAAAAAAAqAAAAAEAAAAAABAA
        IQAAAAQAAAAEAAAAAQAAAEC4Xhmm+DRAAAAAAAAA8D8AAAAAAAAAQAEIAAAAAQAAAAAAAAAAwHJAAAAAAAAA8D8AAAAAAAAAQAEIAAAAAQAAAAAAAAAAQI9AAAAAAAAA
        8D8AAAAAAAAAQAEDAAAAAQAAAAABaCorbdRAAAAAAAAA8D8AAAAAAAAAQAEBAAAAAQAAAAAAAAAAAPA/AAAAAJoCAACcAQAA
        AEhpZ2ggbG93IHBhc3MAEAAAAA==
      >
      PRESETNAME "High low pass"
      FLOATPOS 0 0 0 0
      FXID {0C7B9483-A717-D982-1318-67146D5EE976}
      WAK 0 0
      BYPASS 0 0 0
      <VST "VSTi: ReaSynth (Cockos)" reasynth.vst.so 0 "" 1919251321<5653547265737972656173796E746800> ""
        eXNlcu9e7f4AAAAAAgAAAAEAAAAAAAAAAgAAAAAAAAA8AAAAAAAAAAAAEAA=
        776t3g3wrd6lm8Q7F7fROgAAAAAAAAAAAAAAAJCNuT3oZ4g9AACAPwAAAD8AAIA/AAAAAAAAAD8AAAAA
        AAAQAAAA
      >
      FLOATPOS 0 0 0 0
      FXID {4238C785-0F37-BFE8-B6D7-B7E89C90C5EF}
      WAK 0 0
      BYPASS 0 0 0
      <JS guitar/amp-model ""
        "Dumble Overdrive Special - Tweed Deluxe.wav" -21.000000 1.000000 0.000000 0.000000 -1.000000 - - - - - - - - - - - - - - - - - - - - - - - - - - - - - - - - - - - - - - - - - - - - - - - - - - - - - - - - - - 
      >
      FLOATPOS 0 0 0 0
      FXID {09AA41D5-B219-E88F-B703-5567D9A500C9}
      WAK 0 0
      BYPASS 0 0 0
      <VST "VST: ReaComp (Cockos)" reacomp.vst.so 0 "" 1919247213<5653547265636D726561636F6D700000> ""
        bWNlcu9e7f4EAAAAAQAAAAAAAAACAAAAAAAAAAQAAAAAAAAACAAAAAAAAAACAAAAAQAAAAAAAAACAAAAAAAAAFQAAAAAAAAAAAAQAA==
        776t3g3wrd5FoYg9/AWpPKWbxDsK16M8AAAAAAAAAAAAAIA/AAAAAAAAAAAAAAAAnNEHMwAAgD8AAAAAzMxMPQAAAAAAAAAAAAAAAAAAgD7YiZ09
        AAAQAAAA
      >
      FLOATPOS 0 0 0 0
      FXID {535A04D9-5AEF-E936-E798-D6FF60FAF38A}
      WAK 0 0
      BYPASS 0 0 0
      <VST "VST: ReaDelay (Cockos)" readelay.vst.so 0 "" 1919247468<5653547265646C72656164656C617900> ""
        bGRlcu5e7f4CAAAAAQAAAAAAAAACAAAAAAAAAAIAAAABAAAAAAAAAAIAAAAAAAAA/AAAAAEAAAAAAAAA
        AAAAAAAAAAAFAAAALAAAAAIAAAAEAAAAAACAPwAAgD8AAAAAAACAPwAAAAAAAIA7vTeGNQAAgD8AAAAAAACAPwAAgD8AAIA/AAAAAAAAAAAAAIA/AAAAAAAAADwAAAAA
        AACAPwAAAAAAAIA/AACAP+87NT8AAIA/AAAAAAAAgD8AAAAAAABAPL03hjUAAIA/AAAAAAAAgD8AAIA/zk0AP6abhD4AAAAAAACAPwAAAAAAAIA8vTeGNQAAgD8AAAAA
        AACAPwAAgD8aqrU+pHA9PwAAAAAAAIA/AAAAAAAAoDy9N4Y1AACAPwAAAAAAAIA/AACAP/npAD4AAAA/
        AHN0b2NrIC0gYmFzaWMgNSB0YXAgcGluZyBwb25nAAAAAAA=
      >
      PRESETNAME "stock - basic 5 tap ping pong"
      FLOATPOS 0 0 0 0
      FXID {408A7AC0-41FA-EF17-A422-CD138C9032FA}
      WAK 0 0
      BYPASS 0 0 0
      <VST "VST: ReaVerb (Cockos)" reaverb.vst.so 0 "" 1919252066<56535472657662726561766572620000> ""
        YnZlcu5e7f4CAAAAAQAAAAAAAAACAAAAAAAAAAIAAAABAAAAAAAAAAIAAAAAAAAAcAAAAAEAAAAAAAAA
        AAAAwcybgD4AAIA/AAAAAAAAgD8AAIA/AAAAPwAAgD8AAAAAVkVSQkdFTgAYAAAAAAAAAJHgV0QdrLRA3rK7QsHIjEIAAIC/RUNIT0dFTgAcAAAAy/i2QLUjdUJdzdM/
        osdfP5lRrzyRzYxAnMQAPw==
        AHN3ZWV0dmVyYm8AAAAAAA==
      >
      PRESETNAME sweetverbo
      FLOATPOS 0 0 0 0
      FXID {6403E339-6CC4-D4E3-C10E-ABA903AE2B55}
      WAK 0 0
    >
    <ITEM
      POSITION 0
      SNAPOFFS 0
      LENGTH 8
      LOOP 1
      ALLTAKES 0
      FADEIN 1 0 0 1 0 0
      FADEOUT 1 0 0 1 0 0
      MUTE 0
      SEL 1
      IGUID {24DC2617-AAD7-FB9D-6E70-1075BAA67EDE}
      IID 10
      NAME "01-Recorded MIDI"
      VOLPAN 1 0 1 -1
      SOFFS 0 0
      PLAYRATE 1 1 0 -1 0 0.0021
      CHANMODE 0
      GUID {F1F5A6E8-3D66-F21B-D1AD-9005DAF7970C}
      RECPASS 1
      <SOURCE MIDI
        HASDATA 1 960 QN
        CCINTERP 32
        POOLEDEVTS {21C3E693-7275-0B3B-F70B-063B967169DA}
        E 0 90 3c 48
        E 0 90 40 48
        E 0 90 43 48
        E 1920 80 3c 00
        E 0 80 40 00
        E 0 80 43 00
        E 0 90 3c 48
        E 0 90 40 48
        E 0 90 43 48
        E 260 80 3c 00
        E 0 80 40 00
        E 0 80 43 00
        E 440 90 3c 48
        E 0 90 40 48
        E 0 90 43 48
        E 260 80 3c 00
        E 0 80 40 00
        E 0 80 43 00
        e 514 90 3c 48
        e 0 90 40 48
        e 0 90 43 48
        e 260 80 3c 00
        e 0 80 40 00
        e 0 80 43 00
        E 186 90 43 48
        E 0 90 47 48
        E 20 90 40 48
        E 1900 80 43 00
        E 0 80 47 00
        E 0 80 40 00
        E 0 90 43 48
        E 0 90 47 48
        E 20 90 40 48
        E 240 80 43 00
        E 0 80 47 00
        E 0 80 40 00
        E 440 90 43 48
        E 0 90 47 48
        E 20 90 40 48
        E 240 80 43 00
        E 0 80 47 00
        E 0 80 40 00
        e 514 90 43 48
        e 0 90 47 48
        e 20 90 40 48
        e 240 80 43 00
        e 0 80 47 00
        e 0 80 40 00
        E 186 90 41 48
        E 0 90 45 48
        E 0 90 48 48
        E 1920 80 41 00
        E 0 80 45 00
        E 0 80 48 00
        E 0 90 41 48
        E 0 90 45 48
        E 0 90 48 48
        E 260 80 41 00
        E 0 80 45 00
        E 0 80 48 00
        E 440 90 41 48
        E 0 90 45 48
        E 0 90 48 48
        E 260 80 41 00
        E 0 80 45 00
        E 0 80 48 00
        e 514 90 41 48
        e 0 90 45 48
        e 0 90 48 48
        e 260 80 41 00
        e 0 80 45 00
        e 0 80 48 00
        E 162 90 3e 48
        E 24 90 41 48
        E 0 90 45 48
        E 1896 90 3e 48
        E 24 80 3e 00
        E 0 80 41 00
        E 0 80 45 00
        E 0 90 41 48
        E 0 90 45 48
        E 260 80 3e 00
        E 0 80 41 00
        E 0 80 45 00
        E 416 90 3e 48
        E 24 90 41 48
        E 0 90 45 48
        E 260 80 3e 00
        E 0 80 41 00
        E 0 80 45 00
        e 490 90 3e 48
        e 24 90 41 48
        e 0 90 45 48
        e 260 80 3e 00
        e 0 80 41 00
        e 0 80 45 00
        E 186 b0 7b 00
        CHASE_CC_TAKEOFFS 1
        GUID {7B9D708B-43E1-C8D4-C4B3-87E2A6C27801}
        IGNTEMPO 0 120 4 4
        SRCCOLOR 17
        VELLANE -1 100 0
        CFGEDITVIEW 0 0.045808 45 12 0 -1 0 0 0 0.5
        KEYSNAP 0
        TRACKSEL 0
        EVTFILTER 0 -1 -1 -1 -1 0 0 0 0 -1 -1 -1 -1 0 -1 0 -1 -1
        CFGEDIT 1 1 0 1 0 0 1 1 1 1 1 1 58 171 1253 866 0 0 0 0 0.25 0 0 0 0 0.5 0 0 1 64
      >
    >
    <ITEM
      POSITION 8
      SNAPOFFS 0
      LENGTH 8
      LOOP 1
      ALLTAKES 0
      FADEIN 1 0 0 1 0 0
      FADEOUT 1 0 0 1 0 0
      MUTE 0
      SEL 1
      IGUID {DB2A41B1-9148-3A5D-224A-904AE0B9CD22}
      IID 11
      NAME "01-Recorded MIDI"
      VOLPAN 1 0 1 -1
      SOFFS 0 0
      PLAYRATE 1 1 0 -1 0 0.0021
      CHANMODE 0
      GUID {B2ABAF86-A5E9-2EDD-2B1B-2C8F6009BFE5}
      RECPASS 1
      <SOURCE MIDI
        HASDATA 1 960 QN
        CCINTERP 32
        POOLEDEVTS {27B3411F-FC4D-8463-3084-A14EB84A0059}
        E 0 90 3c 48
        E 0 90 40 48
        E 0 90 43 48
        E 1920 80 3c 00
        E 0 80 40 00
        E 0 80 43 00
        E 0 90 3c 48
        E 0 90 40 48
        E 0 90 43 48
        E 260 80 3c 00
        E 0 80 40 00
        E 0 80 43 00
        E 440 90 3c 48
        E 0 90 40 48
        E 0 90 43 48
        E 260 80 3c 00
        E 0 80 40 00
        E 0 80 43 00
        e 514 90 3c 48
        e 0 90 40 48
        e 0 90 43 48
        e 260 80 3c 00
        e 0 80 40 00
        e 0 80 43 00
        E 186 90 43 48
        E 0 90 47 48
        E 20 90 40 48
        E 1900 80 43 00
        E 0 80 47 00
        E 0 80 40 00
        E 0 90 43 48
        E 0 90 47 48
        E 20 90 40 48
        E 240 80 43 00
        E 0 80 47 00
        E 0 80 40 00
        E 440 90 43 48
        E 0 90 47 48
        E 20 90 40 48
        E 240 80 43 00
        E 0 80 47 00
        E 0 80 40 00
        e 514 90 43 48
        e 0 90 47 48
        e 20 90 40 48
        e 240 80 43 00
        e 0 80 47 00
        e 0 80 40 00
        E 186 90 41 48
        E 0 90 45 48
        E 0 90 48 48
        E 1920 80 41 00
        E 0 80 45 00
        E 0 80 48 00
        E 0 90 41 48
        E 0 90 45 48
        E 0 90 48 48
        E 260 80 41 00
        E 0 80 45 00
        E 0 80 48 00
        E 440 90 41 48
        E 0 90 45 48
        E 0 90 48 48
        E 260 80 41 00
        E 0 80 45 00
        E 0 80 48 00
        e 514 90 41 48
        e 0 90 45 48
        e 0 90 48 48
        e 260 80 41 00
        e 0 80 45 00
        e 0 80 48 00
        E 162 90 3e 48
        E 24 90 41 48
        E 0 90 45 48
        E 1896 90 3e 48
        E 24 80 3e 00
        E 0 80 41 00
        E 0 80 45 00
        E 0 90 41 48
        E 0 90 45 48
        E 260 80 3e 00
        E 0 80 41 00
        E 0 80 45 00
        E 416 90 3e 48
        E 24 90 41 48
        E 0 90 45 48
        E 260 80 3e 00
        E 0 80 41 00
        E 0 80 45 00
        e 490 90 3e 48
        e 24 90 41 48
        e 0 90 45 48
        e 260 80 3e 00
        e 0 80 41 00
        e 0 80 45 00
        E 186 b0 7b 00
        CHASE_CC_TAKEOFFS 1
        GUID {3131B4E2-B370-E352-A9C5-C8CA31551A86}
        IGNTEMPO 0 120 4 4
        SRCCOLOR 18
        VELLANE -1 100 0
        CFGEDITVIEW 0 0.045808 45 12 0 -1 0 0 0 0.5
        KEYSNAP 0
        TRACKSEL 0
        EVTFILTER 0 -1 -1 -1 -1 0 0 0 0 -1 -1 -1 -1 0 -1 0 -1 -1
        CFGEDIT 1 1 0 1 0 0 1 1 1 1 1 1 58 171 1253 866 0 0 0 0 0.25 0 0 0 0 0.5 0 0 1 64
      >
    >
    <ITEM
      POSITION 16
      SNAPOFFS 0
      LENGTH 8
      LOOP 1
      ALLTAKES 0
      FADEIN 1 0 0 1 0 0
      FADEOUT 1 0 0 1 0 0
      MUTE 0
      SEL 1
      IGUID {02A6B752-5A01-1317-0628-D00DCE76439C}
      IID 12
      NAME "01-Recorded MIDI"
      VOLPAN 1 0 1 -1
      SOFFS 0 0
      PLAYRATE 1 1 0 -1 0 0.0021
      CHANMODE 0
      GUID {ECBAF801-AC95-BFAB-A0B1-4B5E562E42EA}
      RECPASS 1
      <SOURCE MIDI
        HASDATA 1 960 QN
        CCINTERP 32
        POOLEDEVTS {12FC77F0-CBD1-2C1C-FBDA-46A75D099FAB}
        E 0 90 3c 48
        E 0 90 40 48
        E 0 90 43 48
        E 1920 80 3c 00
        E 0 80 40 00
        E 0 80 43 00
        E 0 90 3c 48
        E 0 90 40 48
        E 0 90 43 48
        E 260 80 3c 00
        E 0 80 40 00
        E 0 80 43 00
        E 440 90 3c 48
        E 0 90 40 48
        E 0 90 43 48
        E 260 80 3c 00
        E 0 80 40 00
        E 0 80 43 00
        e 514 90 3c 48
        e 0 90 40 48
        e 0 90 43 48
        e 260 80 3c 00
        e 0 80 40 00
        e 0 80 43 00
        E 186 90 43 48
        E 0 90 47 48
        E 20 90 40 48
        E 1900 80 43 00
        E 0 80 47 00
        E 0 80 40 00
        E 0 90 43 48
        E 0 90 47 48
        E 20 90 40 48
        E 240 80 43 00
        E 0 80 47 00
        E 0 80 40 00
        E 440 90 43 48
        E 0 90 47 48
        E 20 90 40 48
        E 240 80 43 00
        E 0 80 47 00
        E 0 80 40 00
        e 514 90 43 48
        e 0 90 47 48
        e 20 90 40 48
        e 240 80 43 00
        e 0 80 47 00
        e 0 80 40 00
        E 186 90 41 48
        E 0 90 45 48
        E 0 90 48 48
        E 1920 80 41 00
        E 0 80 45 00
        E 0 80 48 00
        E 0 90 41 48
        E 0 90 45 48
        E 0 90 48 48
        E 260 80 41 00
        E 0 80 45 00
        E 0 80 48 00
        E 440 90 41 48
        E 0 90 45 48
        E 0 90 48 48
        E 260 80 41 00
        E 0 80 45 00
        E 0 80 48 00
        e 514 90 41 48
        e 0 90 45 48
        e 0 90 48 48
        e 260 80 41 00
        e 0 80 45 00
        e 0 80 48 00
        E 162 90 3e 48
        E 24 90 41 48
        E 0 90 45 48
        E 1896 90 3e 48
        E 24 80 3e 00
        E 0 80 41 00
        E 0 80 45 00
        E 0 90 41 48
        E 0 90 45 48
        E 260 80 3e 00
        E 0 80 41 00
        E 0 80 45 00
        E 416 90 3e 48
        E 24 90 41 48
        E 0 90 45 48
        E 260 80 3e 00
        E 0 80 41 00
        E 0 80 45 00
        e 490 90 3e 48
        e 24 90 41 48
        e 0 90 45 48
        e 260 80 3e 00
        e 0 80 41 00
        e 0 80 45 00
        E 186 b0 7b 00
        CHASE_CC_TAKEOFFS 1
        GUID {48C567A2-895C-FB9B-FDBA-0ADB7004ABF3}
        IGNTEMPO 0 120 4 4
        SRCCOLOR 19
        VELLANE -1 100 0
        CFGEDITVIEW 0 0.045808 45 12 0 -1 0 0 0 0.5
        KEYSNAP 0
        TRACKSEL 0
        EVTFILTER 0 -1 -1 -1 -1 0 0 0 0 -1 -1 -1 -1 0 -1 0 -1 -1
        CFGEDIT 1 1 0 1 0 0 1 1 1 1 1 1 58 171 1253 866 0 0 0 0 0.25 0 0 0 0 0.5 0 0 1 64
      >
    >
    <ITEM
      POSITION 24
      SNAPOFFS 0
      LENGTH 8
      LOOP 1
      ALLTAKES 0
      FADEIN 1 0 0 1 0 0
      FADEOUT 1 0 0 1 0 0
      MUTE 0
      SEL 1
      IGUID {7A778F9D-8C7C-388E-49EE-2473E899AD35}
      IID 13
      NAME "01-Recorded MIDI"
      VOLPAN 1 0 1 -1
      SOFFS 0 0
      PLAYRATE 1 1 0 -1 0 0.0021
      CHANMODE 0
      GUID {79EB5FC5-A4B8-A0C0-76BE-9F89512C3630}
      RECPASS 1
      <SOURCE MIDI
        HASDATA 1 960 QN
        CCINTERP 32
        POOLEDEVTS {548785AF-44C5-A23C-8123-FB6FB063FC87}
        E 0 90 3c 48
        E 0 90 40 48
        E 0 90 43 48
        E 1920 80 3c 00
        E 0 80 40 00
        E 0 80 43 00
        E 0 90 3c 48
        E 0 90 40 48
        E 0 90 43 48
        E 260 80 3c 00
        E 0 80 40 00
        E 0 80 43 00
        E 440 90 3c 48
        E 0 90 40 48
        E 0 90 43 48
        E 260 80 3c 00
        E 0 80 40 00
        E 0 80 43 00
        e 514 90 3c 48
        e 0 90 40 48
        e 0 90 43 48
        e 260 80 3c 00
        e 0 80 40 00
        e 0 80 43 00
        E 186 90 43 48
        E 0 90 47 48
        E 20 90 40 48
        E 1900 80 43 00
        E 0 80 47 00
        E 0 80 40 00
        E 0 90 43 48
        E 0 90 47 48
        E 20 90 40 48
        E 240 80 43 00
        E 0 80 47 00
        E 0 80 40 00
        E 440 90 43 48
        E 0 90 47 48
        E 20 90 40 48
        E 240 80 43 00
        E 0 80 47 00
        E 0 80 40 00
        e 514 90 43 48
        e 0 90 47 48
        e 20 90 40 48
        e 240 80 43 00
        e 0 80 47 00
        e 0 80 40 00
        E 186 90 41 48
        E 0 90 45 48
        E 0 90 48 48
        E 1920 80 41 00
        E 0 80 45 00
        E 0 80 48 00
        E 0 90 41 48
        E 0 90 45 48
        E 0 90 48 48
        E 260 80 41 00
        E 0 80 45 00
        E 0 80 48 00
        E 440 90 41 48
        E 0 90 45 48
        E 0 90 48 48
        E 260 80 41 00
        E 0 80 45 00
        E 0 80 48 00
        e 514 90 41 48
        e 0 90 45 48
        e 0 90 48 48
        e 260 80 41 00
        e 0 80 45 00
        e 0 80 48 00
        E 162 90 3e 48
        E 24 90 41 48
        E 0 90 45 48
        E 1896 90 3e 48
        E 24 80 3e 00
        E 0 80 41 00
        E 0 80 45 00
        E 0 90 41 48
        E 0 90 45 48
        E 260 80 3e 00
        E 0 80 41 00
        E 0 80 45 00
        E 416 90 3e 48
        E 24 90 41 48
        E 0 90 45 48
        E 260 80 3e 00
        E 0 80 41 00
        E 0 80 45 00
        e 490 90 3e 48
        e 24 90 41 48
        e 0 90 45 48
        e 260 80 3e 00
        e 0 80 41 00
        e 0 80 45 00
        E 186 b0 7b 00
        CHASE_CC_TAKEOFFS 1
        GUID {1DE38800-E2A1-41B5-9C8C-3291891093B1}
        IGNTEMPO 0 120 4 4
        SRCCOLOR 20
        VELLANE -1 100 0
        CFGEDITVIEW 0 0.045808 45 12 0 -1 0 0 0 0.5
        KEYSNAP 0
        TRACKSEL 0
        EVTFILTER 0 -1 -1 -1 -1 0 0 0 0 -1 -1 -1 -1 0 -1 0 -1 -1
        CFGEDIT 1 1 0 1 0 0 1 1 1 1 1 1 58 171 1253 866 0 0 0 0 0.25 0 0 0 0 0.5 0 0 1 64
      >
    >
    <ITEM
      POSITION 32
      SNAPOFFS 0
      LENGTH 8
      LOOP 1
      ALLTAKES 0
      FADEIN 1 0 0 1 0 0
      FADEOUT 1 0 0 1 0 0
      MUTE 0
      SEL 1
      IGUID {642B346E-C912-E3C5-551E-CACD652C38E4}
      IID 14
      NAME "01-Recorded MIDI"
      VOLPAN 1 0 1 -1
      SOFFS 0 0
      PLAYRATE 1 1 0 -1 0 0.0021
      CHANMODE 0
      GUID {A0222212-35E0-D61D-1F25-1ACD2541390F}
      RECPASS 1
      <SOURCE MIDI
        HASDATA 1 960 QN
        CCINTERP 32
        POOLEDEVTS {5F5CCFA2-8C3E-E615-065E-11FAB6AD7CE3}
        E 0 90 3c 48
        E 0 90 40 48
        E 0 90 43 48
        E 1920 80 3c 00
        E 0 80 40 00
        E 0 80 43 00
        E 0 90 3c 48
        E 0 90 40 48
        E 0 90 43 48
        E 260 80 3c 00
        E 0 80 40 00
        E 0 80 43 00
        E 440 90 3c 48
        E 0 90 40 48
        E 0 90 43 48
        E 260 80 3c 00
        E 0 80 40 00
        E 0 80 43 00
        e 514 90 3c 48
        e 0 90 40 48
        e 0 90 43 48
        e 260 80 3c 00
        e 0 80 40 00
        e 0 80 43 00
        E 186 90 43 48
        E 0 90 47 48
        E 20 90 40 48
        E 1900 80 43 00
        E 0 80 47 00
        E 0 80 40 00
        E 0 90 43 48
        E 0 90 47 48
        E 20 90 40 48
        E 240 80 43 00
        E 0 80 47 00
        E 0 80 40 00
        E 440 90 43 48
        E 0 90 47 48
        E 20 90 40 48
        E 240 80 43 00
        E 0 80 47 00
        E 0 80 40 00
        e 514 90 43 48
        e 0 90 47 48
        e 20 90 40 48
        e 240 80 43 00
        e 0 80 47 00
        e 0 80 40 00
        E 186 90 41 48
        E 0 90 45 48
        E 0 90 48 48
        E 1920 80 41 00
        E 0 80 45 00
        E 0 80 48 00
        E 0 90 41 48
        E 0 90 45 48
        E 0 90 48 48
        E 260 80 41 00
        E 0 80 45 00
        E 0 80 48 00
        E 440 90 41 48
        E 0 90 45 48
        E 0 90 48 48
        E 260 80 41 00
        E 0 80 45 00
        E 0 80 48 00
        e 514 90 41 48
        e 0 90 45 48
        e 0 90 48 48
        e 260 80 41 00
        e 0 80 45 00
        e 0 80 48 00
        E 162 90 3e 48
        E 24 90 41 48
        E 0 90 45 48
        E 1896 90 3e 48
        E 24 80 3e 00
        E 0 80 41 00
        E 0 80 45 00
        E 0 90 41 48
        E 0 90 45 48
        E 260 80 3e 00
        E 0 80 41 00
        E 0 80 45 00
        E 416 90 3e 48
        E 24 90 41 48
        E 0 90 45 48
        E 260 80 3e 00
        E 0 80 41 00
        E 0 80 45 00
        e 490 90 3e 48
        e 24 90 41 48
        e 0 90 45 48
        e 260 80 3e 00
        e 0 80 41 00
        e 0 80 45 00
        E 186 b0 7b 00
        CHASE_CC_TAKEOFFS 1
        GUID {0C3271F4-E233-9088-9B25-A722FAE7C579}
        IGNTEMPO 0 120 4 4
        SRCCOLOR 21
        VELLANE -1 100 0
        CFGEDITVIEW 0 0.045808 45 12 0 -1 0 0 0 0.5
        KEYSNAP 0
        TRACKSEL 0
        EVTFILTER 0 -1 -1 -1 -1 0 0 0 0 -1 -1 -1 -1 0 -1 0 -1 -1
        CFGEDIT 1 1 0 1 0 0 1 1 1 1 1 1 58 171 1253 866 0 0 0 0 0.25 0 0 0 0 0.5 0 0 1 64
      >
    >
    <ITEM
      POSITION 40
      SNAPOFFS 0
      LENGTH 8
      LOOP 1
      ALLTAKES 0
      FADEIN 1 0 0 1 0 0
      FADEOUT 1 0 0 1 0 0
      MUTE 0
      SEL 1
      IGUID {C19F0643-E38A-207B-0767-C10FFF4E0B37}
      IID 15
      NAME "01-Recorded MIDI"
      VOLPAN 1 0 1 -1
      SOFFS 0 0
      PLAYRATE 1 1 0 -1 0 0.0021
      CHANMODE 0
      GUID {32241755-0AE8-B7A1-823D-926601C00D04}
      RECPASS 1
      <SOURCE MIDI
        HASDATA 1 960 QN
        CCINTERP 32
        POOLEDEVTS {8C4B2E48-02B7-C917-2C76-C66B15FB22C7}
        E 0 90 3c 48
        E 0 90 40 48
        E 0 90 43 48
        E 1920 80 3c 00
        E 0 80 40 00
        E 0 80 43 00
        E 0 90 3c 48
        E 0 90 40 48
        E 0 90 43 48
        E 260 80 3c 00
        E 0 80 40 00
        E 0 80 43 00
        E 440 90 3c 48
        E 0 90 40 48
        E 0 90 43 48
        E 260 80 3c 00
        E 0 80 40 00
        E 0 80 43 00
        e 514 90 3c 48
        e 0 90 40 48
        e 0 90 43 48
        e 260 80 3c 00
        e 0 80 40 00
        e 0 80 43 00
        E 186 90 43 48
        E 0 90 47 48
        E 20 90 40 48
        E 1900 80 43 00
        E 0 80 47 00
        E 0 80 40 00
        E 0 90 43 48
        E 0 90 47 48
        E 20 90 40 48
        E 240 80 43 00
        E 0 80 47 00
        E 0 80 40 00
        E 440 90 43 48
        E 0 90 47 48
        E 20 90 40 48
        E 240 80 43 00
        E 0 80 47 00
        E 0 80 40 00
        e 514 90 43 48
        e 0 90 47 48
        e 20 90 40 48
        e 240 80 43 00
        e 0 80 47 00
        e 0 80 40 00
        E 186 90 41 48
        E 0 90 45 48
        E 0 90 48 48
        E 1920 80 41 00
        E 0 80 45 00
        E 0 80 48 00
        E 0 90 41 48
        E 0 90 45 48
        E 0 90 48 48
        E 260 80 41 00
        E 0 80 45 00
        E 0 80 48 00
        E 440 90 41 48
        E 0 90 45 48
        E 0 90 48 48
        E 260 80 41 00
        E 0 80 45 00
        E 0 80 48 00
        e 514 90 41 48
        e 0 90 45 48
        e 0 90 48 48
        e 260 80 41 00
        e 0 80 45 00
        e 0 80 48 00
        E 162 90 3e 48
        E 24 90 41 48
        E 0 90 45 48
        E 1896 90 3e 48
        E 24 80 3e 00
        E 0 80 41 00
        E 0 80 45 00
        E 0 90 41 48
        E 0 90 45 48
        E 260 80 3e 00
        E 0 80 41 00
        E 0 80 45 00
        E 416 90 3e 48
        E 24 90 41 48
        E 0 90 45 48
        E 260 80 3e 00
        E 0 80 41 00
        E 0 80 45 00
        e 490 90 3e 48
        e 24 90 41 48
        e 0 90 45 48
        e 260 80 3e 00
        e 0 80 41 00
        e 0 80 45 00
        E 186 b0 7b 00
        CHASE_CC_TAKEOFFS 1
        GUID {040E7AF8-3572-5D91-3C86-797AEE7444D4}
        IGNTEMPO 0 120 4 4
        SRCCOLOR 22
        VELLANE -1 100 0
        CFGEDITVIEW 0 0.045808 45 12 0 -1 0 0 0 0.5
        KEYSNAP 0
        TRACKSEL 0
        EVTFILTER 0 -1 -1 -1 -1 0 0 0 0 -1 -1 -1 -1 0 -1 0 -1 -1
        CFGEDIT 1 1 0 1 0 0 1 1 1 1 1 1 58 171 1253 866 0 0 0 0 0.25 0 0 0 0 0.5 0 0 1 64
      >
    >
    <ITEM
      POSITION 48
      SNAPOFFS 0
      LENGTH 8
      LOOP 1
      ALLTAKES 0
      FADEIN 1 0 0 1 0 0
      FADEOUT 1 0 0 1 0 0
      MUTE 0
      SEL 1
      IGUID {B3B20EBF-25C0-B6DA-A2B9-A5F9B48791B3}
      IID 16
      NAME "01-Recorded MIDI"
      VOLPAN 1 0 1 -1
      SOFFS 0 0
      PLAYRATE 1 1 0 -1 0 0.0021
      CHANMODE 0
      GUID {3B17A8F4-4638-8414-BFBF-4CD513B329F1}
      RECPASS 1
      <SOURCE MIDI
        HASDATA 1 960 QN
        CCINTERP 32
        POOLEDEVTS {4CC66C43-18EB-81F8-A8B4-85EDCF9FCAA8}
        E 0 90 3c 48
        E 0 90 40 48
        E 0 90 43 48
        E 1920 80 3c 00
        E 0 80 40 00
        E 0 80 43 00
        E 0 90 3c 48
        E 0 90 40 48
        E 0 90 43 48
        E 260 80 3c 00
        E 0 80 40 00
        E 0 80 43 00
        E 440 90 3c 48
        E 0 90 40 48
        E 0 90 43 48
        E 260 80 3c 00
        E 0 80 40 00
        E 0 80 43 00
        e 514 90 3c 48
        e 0 90 40 48
        e 0 90 43 48
        e 260 80 3c 00
        e 0 80 40 00
        e 0 80 43 00
        E 186 90 43 48
        E 0 90 47 48
        E 20 90 40 48
        E 1900 80 43 00
        E 0 80 47 00
        E 0 80 40 00
        E 0 90 43 48
        E 0 90 47 48
        E 20 90 40 48
        E 240 80 43 00
        E 0 80 47 00
        E 0 80 40 00
        E 440 90 43 48
        E 0 90 47 48
        E 20 90 40 48
        E 240 80 43 00
        E 0 80 47 00
        E 0 80 40 00
        e 514 90 43 48
        e 0 90 47 48
        e 20 90 40 48
        e 240 80 43 00
        e 0 80 47 00
        e 0 80 40 00
        E 186 90 41 48
        E 0 90 45 48
        E 0 90 48 48
        E 1920 80 41 00
        E 0 80 45 00
        E 0 80 48 00
        E 0 90 41 48
        E 0 90 45 48
        E 0 90 48 48
        E 260 80 41 00
        E 0 80 45 00
        E 0 80 48 00
        E 440 90 41 48
        E 0 90 45 48
        E 0 90 48 48
        E 260 80 41 00
        E 0 80 45 00
        E 0 80 48 00
        e 514 90 41 48
        e 0 90 45 48
        e 0 90 48 48
        e 260 80 41 00
        e 0 80 45 00
        e 0 80 48 00
        E 162 90 3e 48
        E 24 90 41 48
        E 0 90 45 48
        E 1896 90 3e 48
        E 24 80 3e 00
        E 0 80 41 00
        E 0 80 45 00
        E 0 90 41 48
        E 0 90 45 48
        E 260 80 3e 00
        E 0 80 41 00
        E 0 80 45 00
        E 416 90 3e 48
        E 24 90 41 48
        E 0 90 45 48
        E 260 80 3e 00
        E 0 80 41 00
        E 0 80 45 00
        e 490 90 3e 48
        e 24 90 41 48
        e 0 90 45 48
        e 260 80 3e 00
        e 0 80 41 00
        e 0 80 45 00
        E 186 b0 7b 00
        CHASE_CC_TAKEOFFS 1
        GUID {2338968B-6CF9-9F40-300F-DEB89D3392EA}
        IGNTEMPO 0 120 4 4
        SRCCOLOR 23
        VELLANE -1 100 0
        CFGEDITVIEW 0 0.045808 45 12 0 -1 0 0 0 0.5
        KEYSNAP 0
        TRACKSEL 0
        EVTFILTER 0 -1 -1 -1 -1 0 0 0 0 -1 -1 -1 -1 0 -1 0 -1 -1
        CFGEDIT 1 1 0 1 0 0 1 1 1 1 1 1 58 171 1253 866 0 0 0 0 0.25 0 0 0 0 0.5 0 0 1 64
      >
    >
    <ITEM
      POSITION 56
      SNAPOFFS 0
      LENGTH 8
      LOOP 1
      ALLTAKES 0
      FADEIN 1 0 0 1 0 0
      FADEOUT 1 0 0 1 0 0
      MUTE 0
      SEL 1
      IGUID {4BE5A516-1423-B2D3-174E-F11CBFFF19DC}
      IID 17
      NAME "01-Recorded MIDI"
      VOLPAN 1 0 1 -1
      SOFFS 0 0
      PLAYRATE 1 1 0 -1 0 0.0021
      CHANMODE 0
      GUID {93502216-E973-F1E8-F6DE-EF64A8EA4F23}
      RECPASS 1
      <SOURCE MIDI
        HASDATA 1 960 QN
        CCINTERP 32
        POOLEDEVTS {BE677B38-8BE6-A04B-BF5B-8A57FA17C263}
        E 0 90 3c 48
        E 0 90 40 48
        E 0 90 43 48
        E 1920 80 3c 00
        E 0 80 40 00
        E 0 80 43 00
        E 0 90 3c 48
        E 0 90 40 48
        E 0 90 43 48
        E 260 80 3c 00
        E 0 80 40 00
        E 0 80 43 00
        E 440 90 3c 48
        E 0 90 40 48
        E 0 90 43 48
        E 260 80 3c 00
        E 0 80 40 00
        E 0 80 43 00
        e 514 90 3c 48
        e 0 90 40 48
        e 0 90 43 48
        e 260 80 3c 00
        e 0 80 40 00
        e 0 80 43 00
        E 186 90 43 48
        E 0 90 47 48
        E 20 90 40 48
        E 1900 80 43 00
        E 0 80 47 00
        E 0 80 40 00
        E 0 90 43 48
        E 0 90 47 48
        E 20 90 40 48
        E 240 80 43 00
        E 0 80 47 00
        E 0 80 40 00
        E 440 90 43 48
        E 0 90 47 48
        E 20 90 40 48
        E 240 80 43 00
        E 0 80 47 00
        E 0 80 40 00
        e 514 90 43 48
        e 0 90 47 48
        e 20 90 40 48
        e 240 80 43 00
        e 0 80 47 00
        e 0 80 40 00
        E 186 90 41 48
        E 0 90 45 48
        E 0 90 48 48
        E 1920 80 41 00
        E 0 80 45 00
        E 0 80 48 00
        E 0 90 41 48
        E 0 90 45 48
        E 0 90 48 48
        E 260 80 41 00
        E 0 80 45 00
        E 0 80 48 00
        E 440 90 41 48
        E 0 90 45 48
        E 0 90 48 48
        E 260 80 41 00
        E 0 80 45 00
        E 0 80 48 00
        e 514 90 41 48
        e 0 90 45 48
        e 0 90 48 48
        e 260 80 41 00
        e 0 80 45 00
        e 0 80 48 00
        E 162 90 3e 48
        E 24 90 41 48
        E 0 90 45 48
        E 1896 90 3e 48
        E 24 80 3e 00
        E 0 80 41 00
        E 0 80 45 00
        E 0 90 41 48
        E 0 90 45 48
        E 260 80 3e 00
        E 0 80 41 00
        E 0 80 45 00
        E 416 90 3e 48
        E 24 90 41 48
        E 0 90 45 48
        E 260 80 3e 00
        E 0 80 41 00
        E 0 80 45 00
        e 490 90 3e 48
        e 24 90 41 48
        e 0 90 45 48
        e 260 80 3e 00
        e 0 80 41 00
        e 0 80 45 00
        E 186 b0 7b 00
        CHASE_CC_TAKEOFFS 1
        GUID {A64857E2-94F8-0990-20DF-4C1E9B5E6251}
        IGNTEMPO 0 120 4 4
        SRCCOLOR 24
        VELLANE -1 100 0
        CFGEDITVIEW 0 0.045808 45 12 0 -1 0 0 0 0.5
        KEYSNAP 0
        TRACKSEL 0
        EVTFILTER 0 -1 -1 -1 -1 0 0 0 0 -1 -1 -1 -1 0 -1 0 -1 -1
        CFGEDIT 1 1 0 1 0 0 1 1 1 1 1 1 58 171 1253 866 0 0 0 0 0.25 0 0 0 0 0.5 0 0 1 64
      >
    >
    <ITEM
      POSITION 64
      SNAPOFFS 0
      LENGTH 8
      LOOP 1
      ALLTAKES 0
      FADEIN 1 0 0 1 0 0
      FADEOUT 1 0 0 1 0 0
      MUTE 0
      SEL 1
      IGUID {1EB56438-48A5-7A43-62BA-AD2765F495C5}
      IID 18
      NAME "01-Recorded MIDI"
      VOLPAN 1 0 1 -1
      SOFFS 0 0
      PLAYRATE 1 1 0 -1 0 0.0021
      CHANMODE 0
      GUID {791CF472-0D27-58A1-A311-8BCD61916611}
      RECPASS 1
      <SOURCE MIDI
        HASDATA 1 960 QN
        CCINTERP 32
        POOLEDEVTS {683ECA89-B5AE-6265-B052-3882AE9E1D16}
        E 0 90 3c 48
        E 0 90 40 48
        E 0 90 43 48
        E 1920 80 3c 00
        E 0 80 40 00
        E 0 80 43 00
        E 0 90 3c 48
        E 0 90 40 48
        E 0 90 43 48
        E 260 80 3c 00
        E 0 80 40 00
        E 0 80 43 00
        E 440 90 3c 48
        E 0 90 40 48
        E 0 90 43 48
        E 260 80 3c 00
        E 0 80 40 00
        E 0 80 43 00
        e 514 90 3c 48
        e 0 90 40 48
        e 0 90 43 48
        e 260 80 3c 00
        e 0 80 40 00
        e 0 80 43 00
        E 186 90 43 48
        E 0 90 47 48
        E 20 90 40 48
        E 1900 80 43 00
        E 0 80 47 00
        E 0 80 40 00
        E 0 90 43 48
        E 0 90 47 48
        E 20 90 40 48
        E 240 80 43 00
        E 0 80 47 00
        E 0 80 40 00
        E 440 90 43 48
        E 0 90 47 48
        E 20 90 40 48
        E 240 80 43 00
        E 0 80 47 00
        E 0 80 40 00
        e 514 90 43 48
        e 0 90 47 48
        e 20 90 40 48
        e 240 80 43 00
        e 0 80 47 00
        e 0 80 40 00
        E 186 90 41 48
        E 0 90 45 48
        E 0 90 48 48
        E 1920 80 41 00
        E 0 80 45 00
        E 0 80 48 00
        E 0 90 41 48
        E 0 90 45 48
        E 0 90 48 48
        E 260 80 41 00
        E 0 80 45 00
        E 0 80 48 00
        E 440 90 41 48
        E 0 90 45 48
        E 0 90 48 48
        E 260 80 41 00
        E 0 80 45 00
        E 0 80 48 00
        e 514 90 41 48
        e 0 90 45 48
        e 0 90 48 48
        e 260 80 41 00
        e 0 80 45 00
        e 0 80 48 00
        E 162 90 3e 48
        E 24 90 41 48
        E 0 90 45 48
        E 1896 90 3e 48
        E 24 80 3e 00
        E 0 80 41 00
        E 0 80 45 00
        E 0 90 41 48
        E 0 90 45 48
        E 260 80 3e 00
        E 0 80 41 00
        E 0 80 45 00
        E 416 90 3e 48
        E 24 90 41 48
        E 0 90 45 48
        E 260 80 3e 00
        E 0 80 41 00
        E 0 80 45 00
        e 490 90 3e 48
        e 24 90 41 48
        e 0 90 45 48
        e 260 80 3e 00
        e 0 80 41 00
        e 0 80 45 00
        E 186 b0 7b 00
        CHASE_CC_TAKEOFFS 1
        GUID {19362806-85F2-5D9E-E1F9-07BE0CF3D16E}
        IGNTEMPO 0 120 4 4
        SRCCOLOR 25
        VELLANE -1 100 0
        CFGEDITVIEW 0 0.045808 45 12 0 -1 0 0 0 0.5
        KEYSNAP 0
        TRACKSEL 0
        EVTFILTER 0 -1 -1 -1 -1 0 0 0 0 -1 -1 -1 -1 0 -1 0 -1 -1
        CFGEDIT 1 1 0 1 0 0 1 1 1 1 1 1 58 171 1253 866 0 0 0 0 0.25 0 0 0 0 0.5 0 0 1 64
      >
    >
    <ITEM
      POSITION 72
      SNAPOFFS 0
      LENGTH 8
      LOOP 1
      ALLTAKES 0
      FADEIN 1 0 0 1 0 0
      FADEOUT 1 0 0 1 0 0
      MUTE 0
      SEL 1
      IGUID {372F4A42-6DA2-EAA5-A2CA-1C5F55E4A57C}
      IID 19
      NAME "01-Recorded MIDI"
      VOLPAN 1 0 1 -1
      SOFFS 0 0
      PLAYRATE 1 1 0 -1 0 0.0021
      CHANMODE 0
      GUID {E448F3A9-DC75-D84C-5EE4-FF30A4D571DC}
      RECPASS 1
      <SOURCE MIDI
        HASDATA 1 960 QN
        CCINTERP 32
        POOLEDEVTS {FC50FD39-B6F5-8B7E-FE04-F13262BA366F}
        E 0 90 3c 48
        E 0 90 40 48
        E 0 90 43 48
        E 1920 80 3c 00
        E 0 80 40 00
        E 0 80 43 00
        E 0 90 3c 48
        E 0 90 40 48
        E 0 90 43 48
        E 260 80 3c 00
        E 0 80 40 00
        E 0 80 43 00
        E 440 90 3c 48
        E 0 90 40 48
        E 0 90 43 48
        E 260 80 3c 00
        E 0 80 40 00
        E 0 80 43 00
        e 514 90 3c 48
        e 0 90 40 48
        e 0 90 43 48
        e 260 80 3c 00
        e 0 80 40 00
        e 0 80 43 00
        E 186 90 43 48
        E 0 90 47 48
        E 20 90 40 48
        E 1900 80 43 00
        E 0 80 47 00
        E 0 80 40 00
        E 0 90 43 48
        E 0 90 47 48
        E 20 90 40 48
        E 240 80 43 00
        E 0 80 47 00
        E 0 80 40 00
        E 440 90 43 48
        E 0 90 47 48
        E 20 90 40 48
        E 240 80 43 00
        E 0 80 47 00
        E 0 80 40 00
        e 514 90 43 48
        e 0 90 47 48
        e 20 90 40 48
        e 240 80 43 00
        e 0 80 47 00
        e 0 80 40 00
        E 186 90 41 48
        E 0 90 45 48
        E 0 90 48 48
        E 1920 80 41 00
        E 0 80 45 00
        E 0 80 48 00
        E 0 90 41 48
        E 0 90 45 48
        E 0 90 48 48
        E 260 80 41 00
        E 0 80 45 00
        E 0 80 48 00
        E 440 90 41 48
        E 0 90 45 48
        E 0 90 48 48
        E 260 80 41 00
        E 0 80 45 00
        E 0 80 48 00
        e 514 90 41 48
        e 0 90 45 48
        e 0 90 48 48
        e 260 80 41 00
        e 0 80 45 00
        e 0 80 48 00
        E 162 90 3e 48
        E 24 90 41 48
        E 0 90 45 48
        E 1896 90 3e 48
        E 24 80 3e 00
        E 0 80 41 00
        E 0 80 45 00
        E 0 90 41 48
        E 0 90 45 48
        E 260 80 3e 00
        E 0 80 41 00
        E 0 80 45 00
        E 416 90 3e 48
        E 24 90 41 48
        E 0 90 45 48
        E 260 80 3e 00
        E 0 80 41 00
        E 0 80 45 00
        e 490 90 3e 48
        e 24 90 41 48
        e 0 90 45 48
        e 260 80 3e 00
        e 0 80 41 00
        e 0 80 45 00
        E 186 b0 7b 00
        CHASE_CC_TAKEOFFS 1
        GUID {6844F8A9-6BE9-023C-4A46-0A676470C99B}
        IGNTEMPO 0 120 4 4
        SRCCOLOR 26
        VELLANE -1 100 0
        CFGEDITVIEW 0 0.045808 45 12 0 -1 0 0 0 0.5
        KEYSNAP 0
        TRACKSEL 0
        EVTFILTER 0 -1 -1 -1 -1 0 0 0 0 -1 -1 -1 -1 0 -1 0 -1 -1
        CFGEDIT 1 1 0 1 0 0 1 1 1 1 1 1 58 171 1253 866 0 0 0 0 0.25 0 0 0 0 0.5 0 0 1 64
      >
    >
    <ITEM
      POSITION 80
      SNAPOFFS 0
      LENGTH 8
      LOOP 1
      ALLTAKES 0
      FADEIN 1 0 0 1 0 0
      FADEOUT 1 0 0 1 0 0
      MUTE 0
      SEL 1
      IGUID {6C2738D3-36DA-A52E-4049-FA67DF9B5C48}
      IID 20
      NAME "01-Recorded MIDI"
      VOLPAN 1 0 1 -1
      SOFFS 0 0
      PLAYRATE 1 1 0 -1 0 0.0021
      CHANMODE 0
      GUID {CAEC27F8-8C8D-05F1-33EE-A34500588B97}
      RECPASS 1
      <SOURCE MIDI
        HASDATA 1 960 QN
        CCINTERP 32
        POOLEDEVTS {6DE546CD-14EC-7A8D-79EA-0C9B81197AF8}
        E 0 90 3c 48
        E 0 90 40 48
        E 0 90 43 48
        E 1920 80 3c 00
        E 0 80 40 00
        E 0 80 43 00
        E 0 90 3c 48
        E 0 90 40 48
        E 0 90 43 48
        E 260 80 3c 00
        E 0 80 40 00
        E 0 80 43 00
        E 440 90 3c 48
        E 0 90 40 48
        E 0 90 43 48
        E 260 80 3c 00
        E 0 80 40 00
        E 0 80 43 00
        e 514 90 3c 48
        e 0 90 40 48
        e 0 90 43 48
        e 260 80 3c 00
        e 0 80 40 00
        e 0 80 43 00
        E 186 90 43 48
        E 0 90 47 48
        E 20 90 40 48
        E 1900 80 43 00
        E 0 80 47 00
        E 0 80 40 00
        E 0 90 43 48
        E 0 90 47 48
        E 20 90 40 48
        E 240 80 43 00
        E 0 80 47 00
        E 0 80 40 00
        E 440 90 43 48
        E 0 90 47 48
        E 20 90 40 48
        E 240 80 43 00
        E 0 80 47 00
        E 0 80 40 00
        e 514 90 43 48
        e 0 90 47 48
        e 20 90 40 48
        e 240 80 43 00
        e 0 80 47 00
        e 0 80 40 00
        E 186 90 41 48
        E 0 90 45 48
        E 0 90 48 48
        E 1920 80 41 00
        E 0 80 45 00
        E 0 80 48 00
        E 0 90 41 48
        E 0 90 45 48
        E 0 90 48 48
        E 260 80 41 00
        E 0 80 45 00
        E 0 80 48 00
        E 440 90 41 48
        E 0 90 45 48
        E 0 90 48 48
        E 260 80 41 00
        E 0 80 45 00
        E 0 80 48 00
        e 514 90 41 48
        e 0 90 45 48
        e 0 90 48 48
        e 260 80 41 00
        e 0 80 45 00
        e 0 80 48 00
        E 162 90 3e 48
        E 24 90 41 48
        E 0 90 45 48
        E 1896 90 3e 48
        E 24 80 3e 00
        E 0 80 41 00
        E 0 80 45 00
        E 0 90 41 48
        E 0 90 45 48
        E 260 80 3e 00
        E 0 80 41 00
        E 0 80 45 00
        E 416 90 3e 48
        E 24 90 41 48
        E 0 90 45 48
        E 260 80 3e 00
        E 0 80 41 00
        E 0 80 45 00
        e 490 90 3e 48
        e 24 90 41 48
        e 0 90 45 48
        e 260 80 3e 00
        e 0 80 41 00
        e 0 80 45 00
        E 186 b0 7b 00
        CHASE_CC_TAKEOFFS 1
        GUID {E611ADB6-4869-6CCA-8E83-3954D5E743B1}
        IGNTEMPO 0 120 4 4
        SRCCOLOR 27
        VELLANE -1 100 0
        CFGEDITVIEW 0 0.045808 45 12 0 -1 0 0 0 0.5
        KEYSNAP 0
        TRACKSEL 0
        EVTFILTER 0 -1 -1 -1 -1 0 0 0 0 -1 -1 -1 -1 0 -1 0 -1 -1
        CFGEDIT 1 1 0 1 0 0 1 1 1 1 1 1 58 171 1253 866 0 0 0 0 0.25 0 0 0 0 0.5 0 0 1 64
      >
    >
    <ITEM
      POSITION 88
      SNAPOFFS 0
      LENGTH 8
      LOOP 1
      ALLTAKES 0
      FADEIN 1 0 0 1 0 0
      FADEOUT 1 0 0 1 0 0
      MUTE 0
      SEL 1
      IGUID {D8645555-AAFD-CDED-5EE2-D5A0DF99B48E}
      IID 21
      NAME "01-Recorded MIDI"
      VOLPAN 1 0 1 -1
      SOFFS 0 0
      PLAYRATE 1 1 0 -1 0 0.0021
      CHANMODE 0
      GUID {D1414B87-FB9A-C3EA-097C-06822911FBD3}
      RECPASS 1
      <SOURCE MIDI
        HASDATA 1 960 QN
        CCINTERP 32
        POOLEDEVTS {C68D10CC-1DCD-5B01-722D-897DC9AD25DF}
        E 0 90 3c 48
        E 0 90 40 48
        E 0 90 43 48
        E 1920 80 3c 00
        E 0 80 40 00
        E 0 80 43 00
        E 0 90 3c 48
        E 0 90 40 48
        E 0 90 43 48
        E 260 80 3c 00
        E 0 80 40 00
        E 0 80 43 00
        E 440 90 3c 48
        E 0 90 40 48
        E 0 90 43 48
        E 260 80 3c 00
        E 0 80 40 00
        E 0 80 43 00
        e 514 90 3c 48
        e 0 90 40 48
        e 0 90 43 48
        e 260 80 3c 00
        e 0 80 40 00
        e 0 80 43 00
        E 186 90 43 48
        E 0 90 47 48
        E 20 90 40 48
        E 1900 80 43 00
        E 0 80 47 00
        E 0 80 40 00
        E 0 90 43 48
        E 0 90 47 48
        E 20 90 40 48
        E 240 80 43 00
        E 0 80 47 00
        E 0 80 40 00
        E 440 90 43 48
        E 0 90 47 48
        E 20 90 40 48
        E 240 80 43 00
        E 0 80 47 00
        E 0 80 40 00
        e 514 90 43 48
        e 0 90 47 48
        e 20 90 40 48
        e 240 80 43 00
        e 0 80 47 00
        e 0 80 40 00
        E 186 90 41 48
        E 0 90 45 48
        E 0 90 48 48
        E 1920 80 41 00
        E 0 80 45 00
        E 0 80 48 00
        E 0 90 41 48
        E 0 90 45 48
        E 0 90 48 48
        E 260 80 41 00
        E 0 80 45 00
        E 0 80 48 00
        E 440 90 41 48
        E 0 90 45 48
        E 0 90 48 48
        E 260 80 41 00
        E 0 80 45 00
        E 0 80 48 00
        e 514 90 41 48
        e 0 90 45 48
        e 0 90 48 48
        e 260 80 41 00
        e 0 80 45 00
        e 0 80 48 00
        E 162 90 3e 48
        E 24 90 41 48
        E 0 90 45 48
        E 1896 90 3e 48
        E 24 80 3e 00
        E 0 80 41 00
        E 0 80 45 00
        E 0 90 41 48
        E 0 90 45 48
        E 260 80 3e 00
        E 0 80 41 00
        E 0 80 45 00
        E 416 90 3e 48
        E 24 90 41 48
        E 0 90 45 48
        E 260 80 3e 00
        E 0 80 41 00
        E 0 80 45 00
        e 490 90 3e 48
        e 24 90 41 48
        e 0 90 45 48
        e 260 80 3e 00
        e 0 80 41 00
        e 0 80 45 00
        E 186 b0 7b 00
        CHASE_CC_TAKEOFFS 1
        GUID {C762B555-17FC-D765-5340-11D3487D2955}
        IGNTEMPO 0 120 4 4
        SRCCOLOR 28
        VELLANE -1 100 0
        CFGEDITVIEW 0 0.045808 45 12 0 -1 0 0 0 0.5
        KEYSNAP 0
        TRACKSEL 0
        EVTFILTER 0 -1 -1 -1 -1 0 0 0 0 -1 -1 -1 -1 0 -1 0 -1 -1
        CFGEDIT 1 1 0 1 0 0 1 1 1 1 1 1 58 171 1253 866 0 0 0 0 0.25 0 0 0 0 0.5 0 0 1 64
      >
    >
  >
  <TRACK {FA6087FB-D4C4-89B3-45DC-06401C2DB555}
    NAME ""
    PEAKCOL 16576
    BEAT -1
    AUTOMODE 0
    VOLPAN 0.00052194381917 0 -1 -1 1
    MUTESOLO 0 0 0
    IPHASE 0
    PLAYOFFS 0 1
    ISBUS 0 0
    BUSCOMP 0 0 0 0 0
    SHOWINMIX 1 0.6667 0.5 1 0.5 0 0 0
    FREEMODE 0
    SEL 0
    REC 0 5056 1 0 0 0 0
    VU 2
    TRACKHEIGHT 21 0 0
    INQ 0 0 0 0.5 100 0 0 100
    NCHAN 2
    FX 0
    TRACKID {FA6087FB-D4C4-89B3-45DC-06401C2DB555}
    PERF 0
    MIDIOUT -1
    MAINSEND 1 0
    <FXCHAIN
      WNDRECT 346 266 902 608
      SHOW 0
      LASTSEL 5
      DOCKED 0
      BYPASS 0 0 0
      <VST "VST: ReaEQ (Cockos)" reaeq.vst.so 0 "" 1919247729<56535472656571726561657100000000> ""
        cWVlcu5e7f4CAAAAAQAAAAAAAAACAAAAAAAAAAIAAAABAAAAAAAAAAIAAAAAAAAAqAAAAAEAAAAAABAA
        IQAAAAQAAAAEAAAAAQAAAEC4Xhmm+DRAAAAAAAAA8D8AAAAAAAAAQAEIAAAAAQAAAAAAAAAAwHJAAAAAAAAA8D8AAAAAAAAAQAEIAAAAAQAAAAAAAAAAQI9AAAAAAAAA
        8D8AAAAAAAAAQAEDAAAAAQAAAAABaCorbdRAAAAAAAAA8D8AAAAAAAAAQAEBAAAAAQAAAAAAAAAAAPA/AAAAAJoCAACcAQAA
        AEhpZ2ggbG93IHBhc3MAEAAAAA==
      >
      PRESETNAME "High low pass"
      FLOATPOS 0 0 0 0
      FXID {9FA36175-DFCB-0580-90F2-3025FD2E380C}
      WAK 0 0
      BYPASS 0 0 0
      <VST "VSTi: ReaSynth (Cockos)" reasynth.vst.so 0 "" 1919251321<5653547265737972656173796E746800> ""
        eXNlcu9e7f4AAAAAAgAAAAEAAAAAAAAAAgAAAAAAAAA8AAAAAAAAAAAAEAA=
        776t3g3wrd6lm8Q7F7fROgAAAAAAAAAAAAAAAJCNuT3oZ4g9AACAPwAAAD8AAIA/AAAAAAAAAD8AAAAA
        AAAQAAAA
      >
      FLOATPOS 0 0 0 0
      FXID {ED58B26D-25EA-8ABE-FD1D-22E207CAF24F}
      WAK 0 0
      BYPASS 0 0 0
      <JS guitar/amp-model ""
        "Dumble Overdrive Special - Tweed Deluxe.wav" -21.000000 1.000000 0.000000 0.000000 -1.000000 - - - - - - - - - - - - - - - - - - - - - - - - - - - - - - - - - - - - - - - - - - - - - - - - - - - - - - - - - - 
      >
      FLOATPOS 0 0 0 0
      FXID {F0E7A79F-B88B-777A-303E-B3F1335471CC}
      WAK 0 0
      BYPASS 0 0 0
      <VST "VST: ReaComp (Cockos)" reacomp.vst.so 0 "" 1919247213<5653547265636D726561636F6D700000> ""
        bWNlcu9e7f4EAAAAAQAAAAAAAAACAAAAAAAAAAQAAAAAAAAACAAAAAAAAAACAAAAAQAAAAAAAAACAAAAAAAAAFQAAAAAAAAAAAAQAA==
        776t3g3wrd5FoYg9/AWpPKWbxDsK16M8AAAAAAAAAAAAAIA/AAAAAAAAAAAAAAAAnNEHMwAAgD8AAAAAzMxMPQAAAAAAAAAAAAAAAAAAgD7YiZ09
        AAAQAAAA
      >
      FLOATPOS 0 0 0 0
      FXID {AB105BB1-B594-03B4-8781-9216A1A450BB}
      WAK 0 0
      BYPASS 0 0 0
      <VST "VST: ReaDelay (Cockos)" readelay.vst.so 0 "" 1919247468<5653547265646C72656164656C617900> ""
        bGRlcu5e7f4CAAAAAQAAAAAAAAACAAAAAAAAAAIAAAABAAAAAAAAAAIAAAAAAAAA/AAAAAEAAAAAAAAA
        AAAAAAAAAAAFAAAALAAAAAIAAAAEAAAAAACAPwAAgD8AAAAAAACAPwAAAAAAAIA7vTeGNQAAgD8AAAAAAACAPwAAgD8AAIA/AAAAAAAAAAAAAIA/AAAAAAAAADwAAAAA
        AACAPwAAAAAAAIA/AACAP+87NT8AAIA/AAAAAAAAgD8AAAAAAABAPL03hjUAAIA/AAAAAAAAgD8AAIA/zk0AP6abhD4AAAAAAACAPwAAAAAAAIA8vTeGNQAAgD8AAAAA
        AACAPwAAgD8aqrU+pHA9PwAAAAAAAIA/AAAAAAAAoDy9N4Y1AACAPwAAAAAAAIA/AACAP/npAD4AAAA/
        AHN0b2NrIC0gYmFzaWMgNSB0YXAgcGluZyBwb25nAAAAAAA=
      >
      PRESETNAME "stock - basic 5 tap ping pong"
      FLOATPOS 0 0 0 0
      FXID {9901E12B-5DF4-F393-C432-7E5453D4C67B}
      WAK 0 0
      BYPASS 0 0 0
      <VST "VST: ReaVerb (Cockos)" reaverb.vst.so 0 "" 1919252066<56535472657662726561766572620000> ""
        YnZlcu5e7f4CAAAAAQAAAAAAAAACAAAAAAAAAAIAAAABAAAAAAAAAAIAAAAAAAAAcAAAAAEAAAAAAAAA
        AAAAwcybgD4AAIA/AAAAAAAAgD8AAIA/AAAAPwAAgD8AAAAAVkVSQkdFTgAYAAAAAAAAAJHgV0QdrLRA3rK7QsHIjEIAAIC/RUNIT0dFTgAcAAAAy/i2QLUjdUJdzdM/
        osdfP5lRrzyRzYxAnMQAPw==
        AHN3ZWV0dmVyYm8AAAAAAA==
      >
      PRESETNAME sweetverbo
      FLOATPOS 0 0 0 0
      FXID {9B42CE34-773C-BA87-213D-A068F55500A2}
      WAK 0 0
    >
    <ITEM
      POSITION 0
      SNAPOFFS 0
      LENGTH 8
      LOOP 1
      ALLTAKES 0
      FADEIN 1 0 0 1 0 0
      FADEOUT 1 0 0 1 0 0
      MUTE 0
      SEL 1
      IGUID {D4FB7B44-594D-CB45-E264-8B6940734120}
      IID 10
      NAME "01-Recorded MIDI"
      VOLPAN 1 0 1 -1
      SOFFS 0 0
      PLAYRATE 1 1 0 -1 0 0.0021
      CHANMODE 0
      GUID {826F67ED-E91F-96FA-7252-DABECB473B09}
      RECPASS 1
      <SOURCE MIDI
        HASDATA 1 960 QN
        CCINTERP 32
        POOLEDEVTS {8B40940F-9CCD-8637-7CEF-2BF6DE7DC76E}
        E 0 90 3c 48
        E 0 90 40 48
        E 0 90 43 48
        E 1920 80 3c 00
        E 0 80 40 00
        E 0 80 43 00
        E 0 90 3c 48
        E 0 90 40 48
        E 0 90 43 48
        E 260 80 3c 00
        E 0 80 40 00
        E 0 80 43 00
        E 440 90 3c 48
        E 0 90 40 48
        E 0 90 43 48
        E 260 80 3c 00
        E 0 80 40 00
        E 0 80 43 00
        e 514 90 3c 48
        e 0 90 40 48
        e 0 90 43 48
        e 260 80 3c 00
        e 0 80 40 00
        e 0 80 43 00
        E 186 90 43 48
        E 0 90 47 48
        E 20 90 40 48
        E 1900 80 43 00
        E 0 80 47 00
        E 0 80 40 00
        E 0 90 43 48
        E 0 90 47 48
        E 20 90 40 48
        E 240 80 43 00
        E 0 80 47 00
        E 0 80 40 00
        E 440 90 43 48
        E 0 90 47 48
        E 20 90 40 48
        E 240 80 43 00
        E 0 80 47 00
        E 0 80 40 00
        e 514 90 43 48
        e 0 90 47 48
        e 20 90 40 48
        e 240 80 43 00
        e 0 80 47 00
        e 0 80 40 00
        E 186 90 41 48
        E 0 90 45 48
        E 0 90 48 48
        E 1920 80 41 00
        E 0 80 45 00
        E 0 80 48 00
        E 0 90 41 48
        E 0 90 45 48
        E 0 90 48 48
        E 260 80 41 00
        E 0 80 45 00
        E 0 80 48 00
        E 440 90 41 48
        E 0 90 45 48
        E 0 90 48 48
        E 260 80 41 00
        E 0 80 45 00
        E 0 80 48 00
        e 514 90 41 48
        e 0 90 45 48
        e 0 90 48 48
        e 260 80 41 00
        e 0 80 45 00
        e 0 80 48 00
        E 162 90 3e 48
        E 24 90 41 48
        E 0 90 45 48
        E 1896 90 3e 48
        E 24 80 3e 00
        E 0 80 41 00
        E 0 80 45 00
        E 0 90 41 48
        E 0 90 45 48
        E 260 80 3e 00
        E 0 80 41 00
        E 0 80 45 00
        E 416 90 3e 48
        E 24 90 41 48
        E 0 90 45 48
        E 260 80 3e 00
        E 0 80 41 00
        E 0 80 45 00
        e 490 90 3e 48
        e 24 90 41 48
        e 0 90 45 48
        e 260 80 3e 00
        e 0 80 41 00
        e 0 80 45 00
        E 186 b0 7b 00
        CHASE_CC_TAKEOFFS 1
        GUID {7B9D708B-43E1-C8D4-C4B3-87E2A6C27801}
        IGNTEMPO 0 120 4 4
        SRCCOLOR 17
        VELLANE -1 100 0
        CFGEDITVIEW 0 0.045808 45 12 0 -1 0 0 0 0.5
        KEYSNAP 0
        TRACKSEL 0
        EVTFILTER 0 -1 -1 -1 -1 0 0 0 0 -1 -1 -1 -1 0 -1 0 -1 -1
        CFGEDIT 1 1 0 1 0 0 1 1 1 1 1 1 58 171 1253 866 0 0 0 0 0.25 0 0 0 0 0.5 0 0 1 64
      >
    >
    <ITEM
      POSITION 8
      SNAPOFFS 0
      LENGTH 8
      LOOP 1
      ALLTAKES 0
      FADEIN 1 0 0 1 0 0
      FADEOUT 1 0 0 1 0 0
      MUTE 0
      SEL 1
      IGUID {EE542967-D248-6A55-A2EB-141177C77C7F}
      IID 11
      NAME "01-Recorded MIDI"
      VOLPAN 1 0 1 -1
      SOFFS 0 0
      PLAYRATE 1 1 0 -1 0 0.0021
      CHANMODE 0
      GUID {AAED0907-3179-D8F8-CD16-E455A81A14A2}
      RECPASS 1
      <SOURCE MIDI
        HASDATA 1 960 QN
        CCINTERP 32
        POOLEDEVTS {B744823B-C0A7-D8D6-4236-E0134C202611}
        E 0 90 3c 48
        E 0 90 40 48
        E 0 90 43 48
        E 1920 80 3c 00
        E 0 80 40 00
        E 0 80 43 00
        E 0 90 3c 48
        E 0 90 40 48
        E 0 90 43 48
        E 260 80 3c 00
        E 0 80 40 00
        E 0 80 43 00
        E 440 90 3c 48
        E 0 90 40 48
        E 0 90 43 48
        E 260 80 3c 00
        E 0 80 40 00
        E 0 80 43 00
        e 514 90 3c 48
        e 0 90 40 48
        e 0 90 43 48
        e 260 80 3c 00
        e 0 80 40 00
        e 0 80 43 00
        E 186 90 43 48
        E 0 90 47 48
        E 20 90 40 48
        E 1900 80 43 00
        E 0 80 47 00
        E 0 80 40 00
        E 0 90 43 48
        E 0 90 47 48
        E 20 90 40 48
        E 240 80 43 00
        E 0 80 47 00
        E 0 80 40 00
        E 440 90 43 48
        E 0 90 47 48
        E 20 90 40 48
        E 240 80 43 00
        E 0 80 47 00
        E 0 80 40 00
        e 514 90 43 48
        e 0 90 47 48
        e 20 90 40 48
        e 240 80 43 00
        e 0 80 47 00
        e 0 80 40 00
        E 186 90 41 48
        E 0 90 45 48
        E 0 90 48 48
        E 1920 80 41 00
        E 0 80 45 00
        E 0 80 48 00
        E 0 90 41 48
        E 0 90 45 48
        E 0 90 48 48
        E 260 80 41 00
        E 0 80 45 00
        E 0 80 48 00
        E 440 90 41 48
        E 0 90 45 48
        E 0 90 48 48
        E 260 80 41 00
        E 0 80 45 00
        E 0 80 48 00
        e 514 90 41 48
        e 0 90 45 48
        e 0 90 48 48
        e 260 80 41 00
        e 0 80 45 00
        e 0 80 48 00
        E 162 90 3e 48
        E 24 90 41 48
        E 0 90 45 48
        E 1896 90 3e 48
        E 24 80 3e 00
        E 0 80 41 00
        E 0 80 45 00
        E 0 90 41 48
        E 0 90 45 48
        E 260 80 3e 00
        E 0 80 41 00
        E 0 80 45 00
        E 416 90 3e 48
        E 24 90 41 48
        E 0 90 45 48
        E 260 80 3e 00
        E 0 80 41 00
        E 0 80 45 00
        e 490 90 3e 48
        e 24 90 41 48
        e 0 90 45 48
        e 260 80 3e 00
        e 0 80 41 00
        e 0 80 45 00
        E 186 b0 7b 00
        CHASE_CC_TAKEOFFS 1
        GUID {3131B4E2-B370-E352-A9C5-C8CA31551A86}
        IGNTEMPO 0 120 4 4
        SRCCOLOR 18
        VELLANE -1 100 0
        CFGEDITVIEW 0 0.045808 45 12 0 -1 0 0 0 0.5
        KEYSNAP 0
        TRACKSEL 0
        EVTFILTER 0 -1 -1 -1 -1 0 0 0 0 -1 -1 -1 -1 0 -1 0 -1 -1
        CFGEDIT 1 1 0 1 0 0 1 1 1 1 1 1 58 171 1253 866 0 0 0 0 0.25 0 0 0 0 0.5 0 0 1 64
      >
    >
    <ITEM
      POSITION 16
      SNAPOFFS 0
      LENGTH 8
      LOOP 1
      ALLTAKES 0
      FADEIN 1 0 0 1 0 0
      FADEOUT 1 0 0 1 0 0
      MUTE 0
      SEL 1
      IGUID {C0FC5EA1-07FD-F355-0C4E-4E20FD8B0348}
      IID 12
      NAME "01-Recorded MIDI"
      VOLPAN 1 0 1 -1
      SOFFS 0 0
      PLAYRATE 1 1 0 -1 0 0.0021
      CHANMODE 0
      GUID {D0189033-A13C-DB2C-1EDF-91D916AEF82F}
      RECPASS 1
      <SOURCE MIDI
        HASDATA 1 960 QN
        CCINTERP 32
        POOLEDEVTS {8B3DB05E-A4E6-E728-FBB6-056A3A9D0801}
        E 0 90 3c 48
        E 0 90 40 48
        E 0 90 43 48
        E 1920 80 3c 00
        E 0 80 40 00
        E 0 80 43 00
        E 0 90 3c 48
        E 0 90 40 48
        E 0 90 43 48
        E 260 80 3c 00
        E 0 80 40 00
        E 0 80 43 00
        E 440 90 3c 48
        E 0 90 40 48
        E 0 90 43 48
        E 260 80 3c 00
        E 0 80 40 00
        E 0 80 43 00
        e 514 90 3c 48
        e 0 90 40 48
        e 0 90 43 48
        e 260 80 3c 00
        e 0 80 40 00
        e 0 80 43 00
        E 186 90 43 48
        E 0 90 47 48
        E 20 90 40 48
        E 1900 80 43 00
        E 0 80 47 00
        E 0 80 40 00
        E 0 90 43 48
        E 0 90 47 48
        E 20 90 40 48
        E 240 80 43 00
        E 0 80 47 00
        E 0 80 40 00
        E 440 90 43 48
        E 0 90 47 48
        E 20 90 40 48
        E 240 80 43 00
        E 0 80 47 00
        E 0 80 40 00
        e 514 90 43 48
        e 0 90 47 48
        e 20 90 40 48
        e 240 80 43 00
        e 0 80 47 00
        e 0 80 40 00
        E 186 90 41 48
        E 0 90 45 48
        E 0 90 48 48
        E 1920 80 41 00
        E 0 80 45 00
        E 0 80 48 00
        E 0 90 41 48
        E 0 90 45 48
        E 0 90 48 48
        E 260 80 41 00
        E 0 80 45 00
        E 0 80 48 00
        E 440 90 41 48
        E 0 90 45 48
        E 0 90 48 48
        E 260 80 41 00
        E 0 80 45 00
        E 0 80 48 00
        e 514 90 41 48
        e 0 90 45 48
        e 0 90 48 48
        e 260 80 41 00
        e 0 80 45 00
        e 0 80 48 00
        E 162 90 3e 48
        E 24 90 41 48
        E 0 90 45 48
        E 1896 90 3e 48
        E 24 80 3e 00
        E 0 80 41 00
        E 0 80 45 00
        E 0 90 41 48
        E 0 90 45 48
        E 260 80 3e 00
        E 0 80 41 00
        E 0 80 45 00
        E 416 90 3e 48
        E 24 90 41 48
        E 0 90 45 48
        E 260 80 3e 00
        E 0 80 41 00
        E 0 80 45 00
        e 490 90 3e 48
        e 24 90 41 48
        e 0 90 45 48
        e 260 80 3e 00
        e 0 80 41 00
        e 0 80 45 00
        E 186 b0 7b 00
        CHASE_CC_TAKEOFFS 1
        GUID {48C567A2-895C-FB9B-FDBA-0ADB7004ABF3}
        IGNTEMPO 0 120 4 4
        SRCCOLOR 19
        VELLANE -1 100 0
        CFGEDITVIEW 0 0.045808 45 12 0 -1 0 0 0 0.5
        KEYSNAP 0
        TRACKSEL 0
        EVTFILTER 0 -1 -1 -1 -1 0 0 0 0 -1 -1 -1 -1 0 -1 0 -1 -1
        CFGEDIT 1 1 0 1 0 0 1 1 1 1 1 1 58 171 1253 866 0 0 0 0 0.25 0 0 0 0 0.5 0 0 1 64
      >
    >
    <ITEM
      POSITION 24
      SNAPOFFS 0
      LENGTH 8
      LOOP 1
      ALLTAKES 0
      FADEIN 1 0 0 1 0 0
      FADEOUT 1 0 0 1 0 0
      MUTE 0
      SEL 1
      IGUID {AD47F228-5FC2-3895-5415-D21061AAED8B}
      IID 13
      NAME "01-Recorded MIDI"
      VOLPAN 1 0 1 -1
      SOFFS 0 0
      PLAYRATE 1 1 0 -1 0 0.0021
      CHANMODE 0
      GUID {2A069FFB-A567-5A7D-F137-F5D46DCF6E03}
      RECPASS 1
      <SOURCE MIDI
        HASDATA 1 960 QN
        CCINTERP 32
        POOLEDEVTS {FB549345-A36B-9BD4-DA28-3CEE770223EB}
        E 0 90 3c 48
        E 0 90 40 48
        E 0 90 43 48
        E 1920 80 3c 00
        E 0 80 40 00
        E 0 80 43 00
        E 0 90 3c 48
        E 0 90 40 48
        E 0 90 43 48
        E 260 80 3c 00
        E 0 80 40 00
        E 0 80 43 00
        E 440 90 3c 48
        E 0 90 40 48
        E 0 90 43 48
        E 260 80 3c 00
        E 0 80 40 00
        E 0 80 43 00
        e 514 90 3c 48
        e 0 90 40 48
        e 0 90 43 48
        e 260 80 3c 00
        e 0 80 40 00
        e 0 80 43 00
        E 186 90 43 48
        E 0 90 47 48
        E 20 90 40 48
        E 1900 80 43 00
        E 0 80 47 00
        E 0 80 40 00
        E 0 90 43 48
        E 0 90 47 48
        E 20 90 40 48
        E 240 80 43 00
        E 0 80 47 00
        E 0 80 40 00
        E 440 90 43 48
        E 0 90 47 48
        E 20 90 40 48
        E 240 80 43 00
        E 0 80 47 00
        E 0 80 40 00
        e 514 90 43 48
        e 0 90 47 48
        e 20 90 40 48
        e 240 80 43 00
        e 0 80 47 00
        e 0 80 40 00
        E 186 90 41 48
        E 0 90 45 48
        E 0 90 48 48
        E 1920 80 41 00
        E 0 80 45 00
        E 0 80 48 00
        E 0 90 41 48
        E 0 90 45 48
        E 0 90 48 48
        E 260 80 41 00
        E 0 80 45 00
        E 0 80 48 00
        E 440 90 41 48
        E 0 90 45 48
        E 0 90 48 48
        E 260 80 41 00
        E 0 80 45 00
        E 0 80 48 00
        e 514 90 41 48
        e 0 90 45 48
        e 0 90 48 48
        e 260 80 41 00
        e 0 80 45 00
        e 0 80 48 00
        E 162 90 3e 48
        E 24 90 41 48
        E 0 90 45 48
        E 1896 90 3e 48
        E 24 80 3e 00
        E 0 80 41 00
        E 0 80 45 00
        E 0 90 41 48
        E 0 90 45 48
        E 260 80 3e 00
        E 0 80 41 00
        E 0 80 45 00
        E 416 90 3e 48
        E 24 90 41 48
        E 0 90 45 48
        E 260 80 3e 00
        E 0 80 41 00
        E 0 80 45 00
        e 490 90 3e 48
        e 24 90 41 48
        e 0 90 45 48
        e 260 80 3e 00
        e 0 80 41 00
        e 0 80 45 00
        E 186 b0 7b 00
        CHASE_CC_TAKEOFFS 1
        GUID {1DE38800-E2A1-41B5-9C8C-3291891093B1}
        IGNTEMPO 0 120 4 4
        SRCCOLOR 20
        VELLANE -1 100 0
        CFGEDITVIEW 0 0.045808 45 12 0 -1 0 0 0 0.5
        KEYSNAP 0
        TRACKSEL 0
        EVTFILTER 0 -1 -1 -1 -1 0 0 0 0 -1 -1 -1 -1 0 -1 0 -1 -1
        CFGEDIT 1 1 0 1 0 0 1 1 1 1 1 1 58 171 1253 866 0 0 0 0 0.25 0 0 0 0 0.5 0 0 1 64
      >
    >
    <ITEM
      POSITION 32
      SNAPOFFS 0
      LENGTH 8
      LOOP 1
      ALLTAKES 0
      FADEIN 1 0 0 1 0 0
      FADEOUT 1 0 0 1 0 0
      MUTE 0
      SEL 1
      IGUID {5BF49685-CBD6-6AC0-2308-A29DB147D703}
      IID 14
      NAME "01-Recorded MIDI"
      VOLPAN 1 0 1 -1
      SOFFS 0 0
      PLAYRATE 1 1 0 -1 0 0.0021
      CHANMODE 0
      GUID {217944C1-3B03-427D-7FB0-360EF6295779}
      RECPASS 1
      <SOURCE MIDI
        HASDATA 1 960 QN
        CCINTERP 32
        POOLEDEVTS {906FF635-39A9-BFA5-A901-BBB173FF9879}
        E 0 90 3c 48
        E 0 90 40 48
        E 0 90 43 48
        E 1920 80 3c 00
        E 0 80 40 00
        E 0 80 43 00
        E 0 90 3c 48
        E 0 90 40 48
        E 0 90 43 48
        E 260 80 3c 00
        E 0 80 40 00
        E 0 80 43 00
        E 440 90 3c 48
        E 0 90 40 48
        E 0 90 43 48
        E 260 80 3c 00
        E 0 80 40 00
        E 0 80 43 00
        e 514 90 3c 48
        e 0 90 40 48
        e 0 90 43 48
        e 260 80 3c 00
        e 0 80 40 00
        e 0 80 43 00
        E 186 90 43 48
        E 0 90 47 48
        E 20 90 40 48
        E 1900 80 43 00
        E 0 80 47 00
        E 0 80 40 00
        E 0 90 43 48
        E 0 90 47 48
        E 20 90 40 48
        E 240 80 43 00
        E 0 80 47 00
        E 0 80 40 00
        E 440 90 43 48
        E 0 90 47 48
        E 20 90 40 48
        E 240 80 43 00
        E 0 80 47 00
        E 0 80 40 00
        e 514 90 43 48
        e 0 90 47 48
        e 20 90 40 48
        e 240 80 43 00
        e 0 80 47 00
        e 0 80 40 00
        E 186 90 41 48
        E 0 90 45 48
        E 0 90 48 48
        E 1920 80 41 00
        E 0 80 45 00
        E 0 80 48 00
        E 0 90 41 48
        E 0 90 45 48
        E 0 90 48 48
        E 260 80 41 00
        E 0 80 45 00
        E 0 80 48 00
        E 440 90 41 48
        E 0 90 45 48
        E 0 90 48 48
        E 260 80 41 00
        E 0 80 45 00
        E 0 80 48 00
        e 514 90 41 48
        e 0 90 45 48
        e 0 90 48 48
        e 260 80 41 00
        e 0 80 45 00
        e 0 80 48 00
        E 162 90 3e 48
        E 24 90 41 48
        E 0 90 45 48
        E 1896 90 3e 48
        E 24 80 3e 00
        E 0 80 41 00
        E 0 80 45 00
        E 0 90 41 48
        E 0 90 45 48
        E 260 80 3e 00
        E 0 80 41 00
        E 0 80 45 00
        E 416 90 3e 48
        E 24 90 41 48
        E 0 90 45 48
        E 260 80 3e 00
        E 0 80 41 00
        E 0 80 45 00
        e 490 90 3e 48
        e 24 90 41 48
        e 0 90 45 48
        e 260 80 3e 00
        e 0 80 41 00
        e 0 80 45 00
        E 186 b0 7b 00
        CHASE_CC_TAKEOFFS 1
        GUID {0C3271F4-E233-9088-9B25-A722FAE7C579}
        IGNTEMPO 0 120 4 4
        SRCCOLOR 21
        VELLANE -1 100 0
        CFGEDITVIEW 0 0.045808 45 12 0 -1 0 0 0 0.5
        KEYSNAP 0
        TRACKSEL 0
        EVTFILTER 0 -1 -1 -1 -1 0 0 0 0 -1 -1 -1 -1 0 -1 0 -1 -1
        CFGEDIT 1 1 0 1 0 0 1 1 1 1 1 1 58 171 1253 866 0 0 0 0 0.25 0 0 0 0 0.5 0 0 1 64
      >
    >
    <ITEM
      POSITION 40
      SNAPOFFS 0
      LENGTH 8
      LOOP 1
      ALLTAKES 0
      FADEIN 1 0 0 1 0 0
      FADEOUT 1 0 0 1 0 0
      MUTE 0
      SEL 1
      IGUID {E1CCFAA4-8DD0-FD8D-6FD1-D1BB2E9242A5}
      IID 15
      NAME "01-Recorded MIDI"
      VOLPAN 1 0 1 -1
      SOFFS 0 0
      PLAYRATE 1 1 0 -1 0 0.0021
      CHANMODE 0
      GUID {008686E7-3F80-4488-33D5-EE8CA62D17C3}
      RECPASS 1
      <SOURCE MIDI
        HASDATA 1 960 QN
        CCINTERP 32
        POOLEDEVTS {98B5CEC5-4513-2967-040C-2DC2E1542EEB}
        E 0 90 3c 48
        E 0 90 40 48
        E 0 90 43 48
        E 1920 80 3c 00
        E 0 80 40 00
        E 0 80 43 00
        E 0 90 3c 48
        E 0 90 40 48
        E 0 90 43 48
        E 260 80 3c 00
        E 0 80 40 00
        E 0 80 43 00
        E 440 90 3c 48
        E 0 90 40 48
        E 0 90 43 48
        E 260 80 3c 00
        E 0 80 40 00
        E 0 80 43 00
        e 514 90 3c 48
        e 0 90 40 48
        e 0 90 43 48
        e 260 80 3c 00
        e 0 80 40 00
        e 0 80 43 00
        E 186 90 43 48
        E 0 90 47 48
        E 20 90 40 48
        E 1900 80 43 00
        E 0 80 47 00
        E 0 80 40 00
        E 0 90 43 48
        E 0 90 47 48
        E 20 90 40 48
        E 240 80 43 00
        E 0 80 47 00
        E 0 80 40 00
        E 440 90 43 48
        E 0 90 47 48
        E 20 90 40 48
        E 240 80 43 00
        E 0 80 47 00
        E 0 80 40 00
        e 514 90 43 48
        e 0 90 47 48
        e 20 90 40 48
        e 240 80 43 00
        e 0 80 47 00
        e 0 80 40 00
        E 186 90 41 48
        E 0 90 45 48
        E 0 90 48 48
        E 1920 80 41 00
        E 0 80 45 00
        E 0 80 48 00
        E 0 90 41 48
        E 0 90 45 48
        E 0 90 48 48
        E 260 80 41 00
        E 0 80 45 00
        E 0 80 48 00
        E 440 90 41 48
        E 0 90 45 48
        E 0 90 48 48
        E 260 80 41 00
        E 0 80 45 00
        E 0 80 48 00
        e 514 90 41 48
        e 0 90 45 48
        e 0 90 48 48
        e 260 80 41 00
        e 0 80 45 00
        e 0 80 48 00
        E 162 90 3e 48
        E 24 90 41 48
        E 0 90 45 48
        E 1896 90 3e 48
        E 24 80 3e 00
        E 0 80 41 00
        E 0 80 45 00
        E 0 90 41 48
        E 0 90 45 48
        E 260 80 3e 00
        E 0 80 41 00
        E 0 80 45 00
        E 416 90 3e 48
        E 24 90 41 48
        E 0 90 45 48
        E 260 80 3e 00
        E 0 80 41 00
        E 0 80 45 00
        e 490 90 3e 48
        e 24 90 41 48
        e 0 90 45 48
        e 260 80 3e 00
        e 0 80 41 00
        e 0 80 45 00
        E 186 b0 7b 00
        CHASE_CC_TAKEOFFS 1
        GUID {040E7AF8-3572-5D91-3C86-797AEE7444D4}
        IGNTEMPO 0 120 4 4
        SRCCOLOR 22
        VELLANE -1 100 0
        CFGEDITVIEW 0 0.045808 45 12 0 -1 0 0 0 0.5
        KEYSNAP 0
        TRACKSEL 0
        EVTFILTER 0 -1 -1 -1 -1 0 0 0 0 -1 -1 -1 -1 0 -1 0 -1 -1
        CFGEDIT 1 1 0 1 0 0 1 1 1 1 1 1 58 171 1253 866 0 0 0 0 0.25 0 0 0 0 0.5 0 0 1 64
      >
    >
    <ITEM
      POSITION 48
      SNAPOFFS 0
      LENGTH 8
      LOOP 1
      ALLTAKES 0
      FADEIN 1 0 0 1 0 0
      FADEOUT 1 0 0 1 0 0
      MUTE 0
      SEL 1
      IGUID {E1B9EAB4-D5EC-9F35-04D6-A02045143480}
      IID 16
      NAME "01-Recorded MIDI"
      VOLPAN 1 0 1 -1
      SOFFS 0 0
      PLAYRATE 1 1 0 -1 0 0.0021
      CHANMODE 0
      GUID {516D0C7F-BD6E-BABA-163B-B3D3090D237C}
      RECPASS 1
      <SOURCE MIDI
        HASDATA 1 960 QN
        CCINTERP 32
        POOLEDEVTS {8D259A3E-961E-CC98-4A55-6C11FDB8B67E}
        E 0 90 3c 48
        E 0 90 40 48
        E 0 90 43 48
        E 1920 80 3c 00
        E 0 80 40 00
        E 0 80 43 00
        E 0 90 3c 48
        E 0 90 40 48
        E 0 90 43 48
        E 260 80 3c 00
        E 0 80 40 00
        E 0 80 43 00
        E 440 90 3c 48
        E 0 90 40 48
        E 0 90 43 48
        E 260 80 3c 00
        E 0 80 40 00
        E 0 80 43 00
        e 514 90 3c 48
        e 0 90 40 48
        e 0 90 43 48
        e 260 80 3c 00
        e 0 80 40 00
        e 0 80 43 00
        E 186 90 43 48
        E 0 90 47 48
        E 20 90 40 48
        E 1900 80 43 00
        E 0 80 47 00
        E 0 80 40 00
        E 0 90 43 48
        E 0 90 47 48
        E 20 90 40 48
        E 240 80 43 00
        E 0 80 47 00
        E 0 80 40 00
        E 440 90 43 48
        E 0 90 47 48
        E 20 90 40 48
        E 240 80 43 00
        E 0 80 47 00
        E 0 80 40 00
        e 514 90 43 48
        e 0 90 47 48
        e 20 90 40 48
        e 240 80 43 00
        e 0 80 47 00
        e 0 80 40 00
        E 186 90 41 48
        E 0 90 45 48
        E 0 90 48 48
        E 1920 80 41 00
        E 0 80 45 00
        E 0 80 48 00
        E 0 90 41 48
        E 0 90 45 48
        E 0 90 48 48
        E 260 80 41 00
        E 0 80 45 00
        E 0 80 48 00
        E 440 90 41 48
        E 0 90 45 48
        E 0 90 48 48
        E 260 80 41 00
        E 0 80 45 00
        E 0 80 48 00
        e 514 90 41 48
        e 0 90 45 48
        e 0 90 48 48
        e 260 80 41 00
        e 0 80 45 00
        e 0 80 48 00
        E 162 90 3e 48
        E 24 90 41 48
        E 0 90 45 48
        E 1896 90 3e 48
        E 24 80 3e 00
        E 0 80 41 00
        E 0 80 45 00
        E 0 90 41 48
        E 0 90 45 48
        E 260 80 3e 00
        E 0 80 41 00
        E 0 80 45 00
        E 416 90 3e 48
        E 24 90 41 48
        E 0 90 45 48
        E 260 80 3e 00
        E 0 80 41 00
        E 0 80 45 00
        e 490 90 3e 48
        e 24 90 41 48
        e 0 90 45 48
        e 260 80 3e 00
        e 0 80 41 00
        e 0 80 45 00
        E 186 b0 7b 00
        CHASE_CC_TAKEOFFS 1
        GUID {2338968B-6CF9-9F40-300F-DEB89D3392EA}
        IGNTEMPO 0 120 4 4
        SRCCOLOR 23
        VELLANE -1 100 0
        CFGEDITVIEW 0 0.045808 45 12 0 -1 0 0 0 0.5
        KEYSNAP 0
        TRACKSEL 0
        EVTFILTER 0 -1 -1 -1 -1 0 0 0 0 -1 -1 -1 -1 0 -1 0 -1 -1
        CFGEDIT 1 1 0 1 0 0 1 1 1 1 1 1 58 171 1253 866 0 0 0 0 0.25 0 0 0 0 0.5 0 0 1 64
      >
    >
    <ITEM
      POSITION 56
      SNAPOFFS 0
      LENGTH 8
      LOOP 1
      ALLTAKES 0
      FADEIN 1 0 0 1 0 0
      FADEOUT 1 0 0 1 0 0
      MUTE 0
      SEL 1
      IGUID {35C78E72-FD33-2892-42FE-05BFF5D1358B}
      IID 17
      NAME "01-Recorded MIDI"
      VOLPAN 1 0 1 -1
      SOFFS 0 0
      PLAYRATE 1 1 0 -1 0 0.0021
      CHANMODE 0
      GUID {DE41D947-7FF2-0954-9E60-C3CAB9924F23}
      RECPASS 1
      <SOURCE MIDI
        HASDATA 1 960 QN
        CCINTERP 32
        POOLEDEVTS {CAAA01DF-3AA2-6C77-8047-41A4FA5FB80C}
        E 0 90 3c 48
        E 0 90 40 48
        E 0 90 43 48
        E 1920 80 3c 00
        E 0 80 40 00
        E 0 80 43 00
        E 0 90 3c 48
        E 0 90 40 48
        E 0 90 43 48
        E 260 80 3c 00
        E 0 80 40 00
        E 0 80 43 00
        E 440 90 3c 48
        E 0 90 40 48
        E 0 90 43 48
        E 260 80 3c 00
        E 0 80 40 00
        E 0 80 43 00
        e 514 90 3c 48
        e 0 90 40 48
        e 0 90 43 48
        e 260 80 3c 00
        e 0 80 40 00
        e 0 80 43 00
        E 186 90 43 48
        E 0 90 47 48
        E 20 90 40 48
        E 1900 80 43 00
        E 0 80 47 00
        E 0 80 40 00
        E 0 90 43 48
        E 0 90 47 48
        E 20 90 40 48
        E 240 80 43 00
        E 0 80 47 00
        E 0 80 40 00
        E 440 90 43 48
        E 0 90 47 48
        E 20 90 40 48
        E 240 80 43 00
        E 0 80 47 00
        E 0 80 40 00
        e 514 90 43 48
        e 0 90 47 48
        e 20 90 40 48
        e 240 80 43 00
        e 0 80 47 00
        e 0 80 40 00
        E 186 90 41 48
        E 0 90 45 48
        E 0 90 48 48
        E 1920 80 41 00
        E 0 80 45 00
        E 0 80 48 00
        E 0 90 41 48
        E 0 90 45 48
        E 0 90 48 48
        E 260 80 41 00
        E 0 80 45 00
        E 0 80 48 00
        E 440 90 41 48
        E 0 90 45 48
        E 0 90 48 48
        E 260 80 41 00
        E 0 80 45 00
        E 0 80 48 00
        e 514 90 41 48
        e 0 90 45 48
        e 0 90 48 48
        e 260 80 41 00
        e 0 80 45 00
        e 0 80 48 00
        E 162 90 3e 48
        E 24 90 41 48
        E 0 90 45 48
        E 1896 90 3e 48
        E 24 80 3e 00
        E 0 80 41 00
        E 0 80 45 00
        E 0 90 41 48
        E 0 90 45 48
        E 260 80 3e 00
        E 0 80 41 00
        E 0 80 45 00
        E 416 90 3e 48
        E 24 90 41 48
        E 0 90 45 48
        E 260 80 3e 00
        E 0 80 41 00
        E 0 80 45 00
        e 490 90 3e 48
        e 24 90 41 48
        e 0 90 45 48
        e 260 80 3e 00
        e 0 80 41 00
        e 0 80 45 00
        E 186 b0 7b 00
        CHASE_CC_TAKEOFFS 1
        GUID {A64857E2-94F8-0990-20DF-4C1E9B5E6251}
        IGNTEMPO 0 120 4 4
        SRCCOLOR 24
        VELLANE -1 100 0
        CFGEDITVIEW 0 0.045808 45 12 0 -1 0 0 0 0.5
        KEYSNAP 0
        TRACKSEL 0
        EVTFILTER 0 -1 -1 -1 -1 0 0 0 0 -1 -1 -1 -1 0 -1 0 -1 -1
        CFGEDIT 1 1 0 1 0 0 1 1 1 1 1 1 58 171 1253 866 0 0 0 0 0.25 0 0 0 0 0.5 0 0 1 64
      >
    >
    <ITEM
      POSITION 64
      SNAPOFFS 0
      LENGTH 8
      LOOP 1
      ALLTAKES 0
      FADEIN 1 0 0 1 0 0
      FADEOUT 1 0 0 1 0 0
      MUTE 0
      SEL 1
      IGUID {CE225C6A-3B42-DBE8-A329-5C557A5F155C}
      IID 18
      NAME "01-Recorded MIDI"
      VOLPAN 1 0 1 -1
      SOFFS 0 0
      PLAYRATE 1 1 0 -1 0 0.0021
      CHANMODE 0
      GUID {4FEF6637-414C-B887-793C-594591C7DB95}
      RECPASS 1
      <SOURCE MIDI
        HASDATA 1 960 QN
        CCINTERP 32
        POOLEDEVTS {A910A773-FF54-7395-72B1-B6C00357F129}
        E 0 90 3c 48
        E 0 90 40 48
        E 0 90 43 48
        E 1920 80 3c 00
        E 0 80 40 00
        E 0 80 43 00
        E 0 90 3c 48
        E 0 90 40 48
        E 0 90 43 48
        E 260 80 3c 00
        E 0 80 40 00
        E 0 80 43 00
        E 440 90 3c 48
        E 0 90 40 48
        E 0 90 43 48
        E 260 80 3c 00
        E 0 80 40 00
        E 0 80 43 00
        e 514 90 3c 48
        e 0 90 40 48
        e 0 90 43 48
        e 260 80 3c 00
        e 0 80 40 00
        e 0 80 43 00
        E 186 90 43 48
        E 0 90 47 48
        E 20 90 40 48
        E 1900 80 43 00
        E 0 80 47 00
        E 0 80 40 00
        E 0 90 43 48
        E 0 90 47 48
        E 20 90 40 48
        E 240 80 43 00
        E 0 80 47 00
        E 0 80 40 00
        E 440 90 43 48
        E 0 90 47 48
        E 20 90 40 48
        E 240 80 43 00
        E 0 80 47 00
        E 0 80 40 00
        e 514 90 43 48
        e 0 90 47 48
        e 20 90 40 48
        e 240 80 43 00
        e 0 80 47 00
        e 0 80 40 00
        E 186 90 41 48
        E 0 90 45 48
        E 0 90 48 48
        E 1920 80 41 00
        E 0 80 45 00
        E 0 80 48 00
        E 0 90 41 48
        E 0 90 45 48
        E 0 90 48 48
        E 260 80 41 00
        E 0 80 45 00
        E 0 80 48 00
        E 440 90 41 48
        E 0 90 45 48
        E 0 90 48 48
        E 260 80 41 00
        E 0 80 45 00
        E 0 80 48 00
        e 514 90 41 48
        e 0 90 45 48
        e 0 90 48 48
        e 260 80 41 00
        e 0 80 45 00
        e 0 80 48 00
        E 162 90 3e 48
        E 24 90 41 48
        E 0 90 45 48
        E 1896 90 3e 48
        E 24 80 3e 00
        E 0 80 41 00
        E 0 80 45 00
        E 0 90 41 48
        E 0 90 45 48
        E 260 80 3e 00
        E 0 80 41 00
        E 0 80 45 00
        E 416 90 3e 48
        E 24 90 41 48
        E 0 90 45 48
        E 260 80 3e 00
        E 0 80 41 00
        E 0 80 45 00
        e 490 90 3e 48
        e 24 90 41 48
        e 0 90 45 48
        e 260 80 3e 00
        e 0 80 41 00
        e 0 80 45 00
        E 186 b0 7b 00
        CHASE_CC_TAKEOFFS 1
        GUID {19362806-85F2-5D9E-E1F9-07BE0CF3D16E}
        IGNTEMPO 0 120 4 4
        SRCCOLOR 25
        VELLANE -1 100 0
        CFGEDITVIEW 0 0.045808 45 12 0 -1 0 0 0 0.5
        KEYSNAP 0
        TRACKSEL 0
        EVTFILTER 0 -1 -1 -1 -1 0 0 0 0 -1 -1 -1 -1 0 -1 0 -1 -1
        CFGEDIT 1 1 0 1 0 0 1 1 1 1 1 1 58 171 1253 866 0 0 0 0 0.25 0 0 0 0 0.5 0 0 1 64
      >
    >
    <ITEM
      POSITION 72
      SNAPOFFS 0
      LENGTH 8
      LOOP 1
      ALLTAKES 0
      FADEIN 1 0 0 1 0 0
      FADEOUT 1 0 0 1 0 0
      MUTE 0
      SEL 1
      IGUID {F12724F8-CA75-F412-7119-404AF6901A03}
      IID 19
      NAME "01-Recorded MIDI"
      VOLPAN 1 0 1 -1
      SOFFS 0 0
      PLAYRATE 1 1 0 -1 0 0.0021
      CHANMODE 0
      GUID {5810B07F-2FB8-DFA9-660F-57103BAE9F86}
      RECPASS 1
      <SOURCE MIDI
        HASDATA 1 960 QN
        CCINTERP 32
        POOLEDEVTS {4E719D37-D061-800F-3BD5-D05720272A8A}
        E 0 90 3c 48
        E 0 90 40 48
        E 0 90 43 48
        E 1920 80 3c 00
        E 0 80 40 00
        E 0 80 43 00
        E 0 90 3c 48
        E 0 90 40 48
        E 0 90 43 48
        E 260 80 3c 00
        E 0 80 40 00
        E 0 80 43 00
        E 440 90 3c 48
        E 0 90 40 48
        E 0 90 43 48
        E 260 80 3c 00
        E 0 80 40 00
        E 0 80 43 00
        e 514 90 3c 48
        e 0 90 40 48
        e 0 90 43 48
        e 260 80 3c 00
        e 0 80 40 00
        e 0 80 43 00
        E 186 90 43 48
        E 0 90 47 48
        E 20 90 40 48
        E 1900 80 43 00
        E 0 80 47 00
        E 0 80 40 00
        E 0 90 43 48
        E 0 90 47 48
        E 20 90 40 48
        E 240 80 43 00
        E 0 80 47 00
        E 0 80 40 00
        E 440 90 43 48
        E 0 90 47 48
        E 20 90 40 48
        E 240 80 43 00
        E 0 80 47 00
        E 0 80 40 00
        e 514 90 43 48
        e 0 90 47 48
        e 20 90 40 48
        e 240 80 43 00
        e 0 80 47 00
        e 0 80 40 00
        E 186 90 41 48
        E 0 90 45 48
        E 0 90 48 48
        E 1920 80 41 00
        E 0 80 45 00
        E 0 80 48 00
        E 0 90 41 48
        E 0 90 45 48
        E 0 90 48 48
        E 260 80 41 00
        E 0 80 45 00
        E 0 80 48 00
        E 440 90 41 48
        E 0 90 45 48
        E 0 90 48 48
        E 260 80 41 00
        E 0 80 45 00
        E 0 80 48 00
        e 514 90 41 48
        e 0 90 45 48
        e 0 90 48 48
        e 260 80 41 00
        e 0 80 45 00
        e 0 80 48 00
        E 162 90 3e 48
        E 24 90 41 48
        E 0 90 45 48
        E 1896 90 3e 48
        E 24 80 3e 00
        E 0 80 41 00
        E 0 80 45 00
        E 0 90 41 48
        E 0 90 45 48
        E 260 80 3e 00
        E 0 80 41 00
        E 0 80 45 00
        E 416 90 3e 48
        E 24 90 41 48
        E 0 90 45 48
        E 260 80 3e 00
        E 0 80 41 00
        E 0 80 45 00
        e 490 90 3e 48
        e 24 90 41 48
        e 0 90 45 48
        e 260 80 3e 00
        e 0 80 41 00
        e 0 80 45 00
        E 186 b0 7b 00
        CHASE_CC_TAKEOFFS 1
        GUID {6844F8A9-6BE9-023C-4A46-0A676470C99B}
        IGNTEMPO 0 120 4 4
        SRCCOLOR 26
        VELLANE -1 100 0
        CFGEDITVIEW 0 0.045808 45 12 0 -1 0 0 0 0.5
        KEYSNAP 0
        TRACKSEL 0
        EVTFILTER 0 -1 -1 -1 -1 0 0 0 0 -1 -1 -1 -1 0 -1 0 -1 -1
        CFGEDIT 1 1 0 1 0 0 1 1 1 1 1 1 58 171 1253 866 0 0 0 0 0.25 0 0 0 0 0.5 0 0 1 64
      >
    >
    <ITEM
      POSITION 80
      SNAPOFFS 0
      LENGTH 8
      LOOP 1
      ALLTAKES 0
      FADEIN 1 0 0 1 0 0
      FADEOUT 1 0 0 1 0 0
      MUTE 0
      SEL 1
      IGUID {F1D42459-DC26-A8FC-5145-29333FDB8A3D}
      IID 20
      NAME "01-Recorded MIDI"
      VOLPAN 1 0 1 -1
      SOFFS 0 0
      PLAYRATE 1 1 0 -1 0 0.0021
      CHANMODE 0
      GUID {430DFE80-9DC7-22C1-A75B-B5D16FD58CD9}
      RECPASS 1
      <SOURCE MIDI
        HASDATA 1 960 QN
        CCINTERP 32
        POOLEDEVTS {61CAC0A5-BD2A-5206-EB5A-4F91CBDC58B1}
        E 0 90 3c 48
        E 0 90 40 48
        E 0 90 43 48
        E 1920 80 3c 00
        E 0 80 40 00
        E 0 80 43 00
        E 0 90 3c 48
        E 0 90 40 48
        E 0 90 43 48
        E 260 80 3c 00
        E 0 80 40 00
        E 0 80 43 00
        E 440 90 3c 48
        E 0 90 40 48
        E 0 90 43 48
        E 260 80 3c 00
        E 0 80 40 00
        E 0 80 43 00
        e 514 90 3c 48
        e 0 90 40 48
        e 0 90 43 48
        e 260 80 3c 00
        e 0 80 40 00
        e 0 80 43 00
        E 186 90 43 48
        E 0 90 47 48
        E 20 90 40 48
        E 1900 80 43 00
        E 0 80 47 00
        E 0 80 40 00
        E 0 90 43 48
        E 0 90 47 48
        E 20 90 40 48
        E 240 80 43 00
        E 0 80 47 00
        E 0 80 40 00
        E 440 90 43 48
        E 0 90 47 48
        E 20 90 40 48
        E 240 80 43 00
        E 0 80 47 00
        E 0 80 40 00
        e 514 90 43 48
        e 0 90 47 48
        e 20 90 40 48
        e 240 80 43 00
        e 0 80 47 00
        e 0 80 40 00
        E 186 90 41 48
        E 0 90 45 48
        E 0 90 48 48
        E 1920 80 41 00
        E 0 80 45 00
        E 0 80 48 00
        E 0 90 41 48
        E 0 90 45 48
        E 0 90 48 48
        E 260 80 41 00
        E 0 80 45 00
        E 0 80 48 00
        E 440 90 41 48
        E 0 90 45 48
        E 0 90 48 48
        E 260 80 41 00
        E 0 80 45 00
        E 0 80 48 00
        e 514 90 41 48
        e 0 90 45 48
        e 0 90 48 48
        e 260 80 41 00
        e 0 80 45 00
        e 0 80 48 00
        E 162 90 3e 48
        E 24 90 41 48
        E 0 90 45 48
        E 1896 90 3e 48
        E 24 80 3e 00
        E 0 80 41 00
        E 0 80 45 00
        E 0 90 41 48
        E 0 90 45 48
        E 260 80 3e 00
        E 0 80 41 00
        E 0 80 45 00
        E 416 90 3e 48
        E 24 90 41 48
        E 0 90 45 48
        E 260 80 3e 00
        E 0 80 41 00
        E 0 80 45 00
        e 490 90 3e 48
        e 24 90 41 48
        e 0 90 45 48
        e 260 80 3e 00
        e 0 80 41 00
        e 0 80 45 00
        E 186 b0 7b 00
        CHASE_CC_TAKEOFFS 1
        GUID {E611ADB6-4869-6CCA-8E83-3954D5E743B1}
        IGNTEMPO 0 120 4 4
        SRCCOLOR 27
        VELLANE -1 100 0
        CFGEDITVIEW 0 0.045808 45 12 0 -1 0 0 0 0.5
        KEYSNAP 0
        TRACKSEL 0
        EVTFILTER 0 -1 -1 -1 -1 0 0 0 0 -1 -1 -1 -1 0 -1 0 -1 -1
        CFGEDIT 1 1 0 1 0 0 1 1 1 1 1 1 58 171 1253 866 0 0 0 0 0.25 0 0 0 0 0.5 0 0 1 64
      >
    >
    <ITEM
      POSITION 88
      SNAPOFFS 0
      LENGTH 8
      LOOP 1
      ALLTAKES 0
      FADEIN 1 0 0 1 0 0
      FADEOUT 1 0 0 1 0 0
      MUTE 0
      SEL 1
      IGUID {552B3EAA-9634-48EF-9361-A14C726CE3DE}
      IID 21
      NAME "01-Recorded MIDI"
      VOLPAN 1 0 1 -1
      SOFFS 0 0
      PLAYRATE 1 1 0 -1 0 0.0021
      CHANMODE 0
      GUID {2FBF0F7F-8BBC-D149-F74E-2DD79FF8264F}
      RECPASS 1
      <SOURCE MIDI
        HASDATA 1 960 QN
        CCINTERP 32
        POOLEDEVTS {9F7A3B9F-E9DC-B7D8-DC61-EFC60DEB47E9}
        E 0 90 3c 48
        E 0 90 40 48
        E 0 90 43 48
        E 1920 80 3c 00
        E 0 80 40 00
        E 0 80 43 00
        E 0 90 3c 48
        E 0 90 40 48
        E 0 90 43 48
        E 260 80 3c 00
        E 0 80 40 00
        E 0 80 43 00
        E 440 90 3c 48
        E 0 90 40 48
        E 0 90 43 48
        E 260 80 3c 00
        E 0 80 40 00
        E 0 80 43 00
        e 514 90 3c 48
        e 0 90 40 48
        e 0 90 43 48
        e 260 80 3c 00
        e 0 80 40 00
        e 0 80 43 00
        E 186 90 43 48
        E 0 90 47 48
        E 20 90 40 48
        E 1900 80 43 00
        E 0 80 47 00
        E 0 80 40 00
        E 0 90 43 48
        E 0 90 47 48
        E 20 90 40 48
        E 240 80 43 00
        E 0 80 47 00
        E 0 80 40 00
        E 440 90 43 48
        E 0 90 47 48
        E 20 90 40 48
        E 240 80 43 00
        E 0 80 47 00
        E 0 80 40 00
        e 514 90 43 48
        e 0 90 47 48
        e 20 90 40 48
        e 240 80 43 00
        e 0 80 47 00
        e 0 80 40 00
        E 186 90 41 48
        E 0 90 45 48
        E 0 90 48 48
        E 1920 80 41 00
        E 0 80 45 00
        E 0 80 48 00
        E 0 90 41 48
        E 0 90 45 48
        E 0 90 48 48
        E 260 80 41 00
        E 0 80 45 00
        E 0 80 48 00
        E 440 90 41 48
        E 0 90 45 48
        E 0 90 48 48
        E 260 80 41 00
        E 0 80 45 00
        E 0 80 48 00
        e 514 90 41 48
        e 0 90 45 48
        e 0 90 48 48
        e 260 80 41 00
        e 0 80 45 00
        e 0 80 48 00
        E 162 90 3e 48
        E 24 90 41 48
        E 0 90 45 48
        E 1896 90 3e 48
        E 24 80 3e 00
        E 0 80 41 00
        E 0 80 45 00
        E 0 90 41 48
        E 0 90 45 48
        E 260 80 3e 00
        E 0 80 41 00
        E 0 80 45 00
        E 416 90 3e 48
        E 24 90 41 48
        E 0 90 45 48
        E 260 80 3e 00
        E 0 80 41 00
        E 0 80 45 00
        e 490 90 3e 48
        e 24 90 41 48
        e 0 90 45 48
        e 260 80 3e 00
        e 0 80 41 00
        e 0 80 45 00
        E 186 b0 7b 00
        CHASE_CC_TAKEOFFS 1
        GUID {C762B555-17FC-D765-5340-11D3487D2955}
        IGNTEMPO 0 120 4 4
        SRCCOLOR 28
        VELLANE -1 100 0
        CFGEDITVIEW 0 0.045808 45 12 0 -1 0 0 0 0.5
        KEYSNAP 0
        TRACKSEL 0
        EVTFILTER 0 -1 -1 -1 -1 0 0 0 0 -1 -1 -1 -1 0 -1 0 -1 -1
        CFGEDIT 1 1 0 1 0 0 1 1 1 1 1 1 58 171 1253 866 0 0 0 0 0.25 0 0 0 0 0.5 0 0 1 64
      >
    >
  >
  <TRACK {038241DA-97E9-02FC-72E3-B9F8997C8DE7}
    NAME ""
    PEAKCOL 16576
    BEAT -1
    AUTOMODE 0
    VOLPAN 0.00052194381917 0 -1 -1 1
    MUTESOLO 0 0 0
    IPHASE 0
    PLAYOFFS 0 1
    ISBUS 0 0
    BUSCOMP 0 0 0 0 0
    SHOWINMIX 1 0.6667 0.5 1 0.5 0 0 0
    FREEMODE 0
    SEL 0
    REC 0 5056 1 0 0 0 0
    VU 2
    TRACKHEIGHT 21 0 0
    INQ 0 0 0 0.5 100 0 0 100
    NCHAN 2
    FX 0
    TRACKID {038241DA-97E9-02FC-72E3-B9F8997C8DE7}
    PERF 0
    MIDIOUT -1
    MAINSEND 1 0
    <FXCHAIN
      WNDRECT 346 266 902 608
      SHOW 0
      LASTSEL 5
      DOCKED 0
      BYPASS 0 0 0
      <VST "VST: ReaEQ (Cockos)" reaeq.vst.so 0 "" 1919247729<56535472656571726561657100000000> ""
        cWVlcu5e7f4CAAAAAQAAAAAAAAACAAAAAAAAAAIAAAABAAAAAAAAAAIAAAAAAAAAqAAAAAEAAAAAABAA
        IQAAAAQAAAAEAAAAAQAAAEC4Xhmm+DRAAAAAAAAA8D8AAAAAAAAAQAEIAAAAAQAAAAAAAAAAwHJAAAAAAAAA8D8AAAAAAAAAQAEIAAAAAQAAAAAAAAAAQI9AAAAAAAAA
        8D8AAAAAAAAAQAEDAAAAAQAAAAABaCorbdRAAAAAAAAA8D8AAAAAAAAAQAEBAAAAAQAAAAAAAAAAAPA/AAAAAJoCAACcAQAA
        AEhpZ2ggbG93IHBhc3MAEAAAAA==
      >
      PRESETNAME "High low pass"
      FLOATPOS 0 0 0 0
      FXID {E1C121EE-4F1E-7C32-8B8F-AF2D6BCAA66C}
      WAK 0 0
      BYPASS 0 0 0
      <VST "VSTi: ReaSynth (Cockos)" reasynth.vst.so 0 "" 1919251321<5653547265737972656173796E746800> ""
        eXNlcu9e7f4AAAAAAgAAAAEAAAAAAAAAAgAAAAAAAAA8AAAAAAAAAAAAEAA=
        776t3g3wrd6lm8Q7F7fROgAAAAAAAAAAAAAAAJCNuT3oZ4g9AACAPwAAAD8AAIA/AAAAAAAAAD8AAAAA
        AAAQAAAA
      >
      FLOATPOS 0 0 0 0
      FXID {355426AA-FF78-6CF2-1416-24E20DEC09D9}
      WAK 0 0
      BYPASS 0 0 0
      <JS guitar/amp-model ""
        "Dumble Overdrive Special - Tweed Deluxe.wav" -21.000000 1.000000 0.000000 0.000000 -1.000000 - - - - - - - - - - - - - - - - - - - - - - - - - - - - - - - - - - - - - - - - - - - - - - - - - - - - - - - - - - 
      >
      FLOATPOS 0 0 0 0
      FXID {41298EBE-9F9F-C83F-27ED-7E556E6FB8E9}
      WAK 0 0
      BYPASS 0 0 0
      <VST "VST: ReaComp (Cockos)" reacomp.vst.so 0 "" 1919247213<5653547265636D726561636F6D700000> ""
        bWNlcu9e7f4EAAAAAQAAAAAAAAACAAAAAAAAAAQAAAAAAAAACAAAAAAAAAACAAAAAQAAAAAAAAACAAAAAAAAAFQAAAAAAAAAAAAQAA==
        776t3g3wrd5FoYg9/AWpPKWbxDsK16M8AAAAAAAAAAAAAIA/AAAAAAAAAAAAAAAAnNEHMwAAgD8AAAAAzMxMPQAAAAAAAAAAAAAAAAAAgD7YiZ09
        AAAQAAAA
      >
      FLOATPOS 0 0 0 0
      FXID {A85A7820-B8E6-5B55-33BE-76602AE4183A}
      WAK 0 0
      BYPASS 0 0 0
      <VST "VST: ReaDelay (Cockos)" readelay.vst.so 0 "" 1919247468<5653547265646C72656164656C617900> ""
        bGRlcu5e7f4CAAAAAQAAAAAAAAACAAAAAAAAAAIAAAABAAAAAAAAAAIAAAAAAAAA/AAAAAEAAAAAAAAA
        AAAAAAAAAAAFAAAALAAAAAIAAAAEAAAAAACAPwAAgD8AAAAAAACAPwAAAAAAAIA7vTeGNQAAgD8AAAAAAACAPwAAgD8AAIA/AAAAAAAAAAAAAIA/AAAAAAAAADwAAAAA
        AACAPwAAAAAAAIA/AACAP+87NT8AAIA/AAAAAAAAgD8AAAAAAABAPL03hjUAAIA/AAAAAAAAgD8AAIA/zk0AP6abhD4AAAAAAACAPwAAAAAAAIA8vTeGNQAAgD8AAAAA
        AACAPwAAgD8aqrU+pHA9PwAAAAAAAIA/AAAAAAAAoDy9N4Y1AACAPwAAAAAAAIA/AACAP/npAD4AAAA/
        AHN0b2NrIC0gYmFzaWMgNSB0YXAgcGluZyBwb25nAAAAAAA=
      >
      PRESETNAME "stock - basic 5 tap ping pong"
      FLOATPOS 0 0 0 0
      FXID {2A2921ED-2202-E4A4-5EA8-7F7091818CFE}
      WAK 0 0
      BYPASS 0 0 0
      <VST "VST: ReaVerb (Cockos)" reaverb.vst.so 0 "" 1919252066<56535472657662726561766572620000> ""
        YnZlcu5e7f4CAAAAAQAAAAAAAAACAAAAAAAAAAIAAAABAAAAAAAAAAIAAAAAAAAAcAAAAAEAAAAAAAAA
        AAAAwcybgD4AAIA/AAAAAAAAgD8AAIA/AAAAPwAAgD8AAAAAVkVSQkdFTgAYAAAAAAAAAJHgV0QdrLRA3rK7QsHIjEIAAIC/RUNIT0dFTgAcAAAAy/i2QLUjdUJdzdM/
        osdfP5lRrzyRzYxAnMQAPw==
        AHN3ZWV0dmVyYm8AAAAAAA==
      >
      PRESETNAME sweetverbo
      FLOATPOS 0 0 0 0
      FXID {57BC2482-CB7E-E0C6-05B2-F66CEFE4594B}
      WAK 0 0
    >
    <ITEM
      POSITION 0
      SNAPOFFS 0
      LENGTH 8
      LOOP 1
      ALLTAKES 0
      FADEIN 1 0 0 1 0 0
      FADEOUT 1 0 0 1 0 0
      MUTE 0
      SEL 1
      IGUID {E7EA9505-5943-E122-0CB7-6D53F101AD75}
      IID 10
      NAME "01-Recorded MIDI"
      VOLPAN 1 0 1 -1
      SOFFS 0 0
      PLAYRATE 1 1 0 -1 0 0.0021
      CHANMODE 0
      GUID {40898C6F-4267-7A2F-9ECC-DF4B21769977}
      RECPASS 1
      <SOURCE MIDI
        HASDATA 1 960 QN
        CCINTERP 32
        POOLEDEVTS {3CCDCC87-28FF-4E1C-1276-BDE3A821B8A9}
        E 0 90 3c 48
        E 0 90 40 48
        E 0 90 43 48
        E 1920 80 3c 00
        E 0 80 40 00
        E 0 80 43 00
        E 0 90 3c 48
        E 0 90 40 48
        E 0 90 43 48
        E 260 80 3c 00
        E 0 80 40 00
        E 0 80 43 00
        E 440 90 3c 48
        E 0 90 40 48
        E 0 90 43 48
        E 260 80 3c 00
        E 0 80 40 00
        E 0 80 43 00
        e 514 90 3c 48
        e 0 90 40 48
        e 0 90 43 48
        e 260 80 3c 00
        e 0 80 40 00
        e 0 80 43 00
        E 186 90 43 48
        E 0 90 47 48
        E 20 90 40 48
        E 1900 80 43 00
        E 0 80 47 00
        E 0 80 40 00
        E 0 90 43 48
        E 0 90 47 48
        E 20 90 40 48
        E 240 80 43 00
        E 0 80 47 00
        E 0 80 40 00
        E 440 90 43 48
        E 0 90 47 48
        E 20 90 40 48
        E 240 80 43 00
        E 0 80 47 00
        E 0 80 40 00
        e 514 90 43 48
        e 0 90 47 48
        e 20 90 40 48
        e 240 80 43 00
        e 0 80 47 00
        e 0 80 40 00
        E 186 90 41 48
        E 0 90 45 48
        E 0 90 48 48
        E 1920 80 41 00
        E 0 80 45 00
        E 0 80 48 00
        E 0 90 41 48
        E 0 90 45 48
        E 0 90 48 48
        E 260 80 41 00
        E 0 80 45 00
        E 0 80 48 00
        E 440 90 41 48
        E 0 90 45 48
        E 0 90 48 48
        E 260 80 41 00
        E 0 80 45 00
        E 0 80 48 00
        e 514 90 41 48
        e 0 90 45 48
        e 0 90 48 48
        e 260 80 41 00
        e 0 80 45 00
        e 0 80 48 00
        E 162 90 3e 48
        E 24 90 41 48
        E 0 90 45 48
        E 1896 90 3e 48
        E 24 80 3e 00
        E 0 80 41 00
        E 0 80 45 00
        E 0 90 41 48
        E 0 90 45 48
        E 260 80 3e 00
        E 0 80 41 00
        E 0 80 45 00
        E 416 90 3e 48
        E 24 90 41 48
        E 0 90 45 48
        E 260 80 3e 00
        E 0 80 41 00
        E 0 80 45 00
        e 490 90 3e 48
        e 24 90 41 48
        e 0 90 45 48
        e 260 80 3e 00
        e 0 80 41 00
        e 0 80 45 00
        E 186 b0 7b 00
        CHASE_CC_TAKEOFFS 1
        GUID {7B9D708B-43E1-C8D4-C4B3-87E2A6C27801}
        IGNTEMPO 0 120 4 4
        SRCCOLOR 17
        VELLANE -1 100 0
        CFGEDITVIEW 0 0.045808 45 12 0 -1 0 0 0 0.5
        KEYSNAP 0
        TRACKSEL 0
        EVTFILTER 0 -1 -1 -1 -1 0 0 0 0 -1 -1 -1 -1 0 -1 0 -1 -1
        CFGEDIT 1 1 0 1 0 0 1 1 1 1 1 1 58 171 1253 866 0 0 0 0 0.25 0 0 0 0 0.5 0 0 1 64
      >
    >
    <ITEM
      POSITION 8
      SNAPOFFS 0
      LENGTH 8
      LOOP 1
      ALLTAKES 0
      FADEIN 1 0 0 1 0 0
      FADEOUT 1 0 0 1 0 0
      MUTE 0
      SEL 1
      IGUID {A9C2F377-F05B-CD3F-FF44-F928B2E80634}
      IID 11
      NAME "01-Recorded MIDI"
      VOLPAN 1 0 1 -1
      SOFFS 0 0
      PLAYRATE 1 1 0 -1 0 0.0021
      CHANMODE 0
      GUID {25CD0DD9-9FF1-9165-120C-DFD3E0C59044}
      RECPASS 1
      <SOURCE MIDI
        HASDATA 1 960 QN
        CCINTERP 32
        POOLEDEVTS {18C62309-02EA-36E4-39CC-0438A9538F27}
        E 0 90 3c 48
        E 0 90 40 48
        E 0 90 43 48
        E 1920 80 3c 00
        E 0 80 40 00
        E 0 80 43 00
        E 0 90 3c 48
        E 0 90 40 48
        E 0 90 43 48
        E 260 80 3c 00
        E 0 80 40 00
        E 0 80 43 00
        E 440 90 3c 48
        E 0 90 40 48
        E 0 90 43 48
        E 260 80 3c 00
        E 0 80 40 00
        E 0 80 43 00
        e 514 90 3c 48
        e 0 90 40 48
        e 0 90 43 48
        e 260 80 3c 00
        e 0 80 40 00
        e 0 80 43 00
        E 186 90 43 48
        E 0 90 47 48
        E 20 90 40 48
        E 1900 80 43 00
        E 0 80 47 00
        E 0 80 40 00
        E 0 90 43 48
        E 0 90 47 48
        E 20 90 40 48
        E 240 80 43 00
        E 0 80 47 00
        E 0 80 40 00
        E 440 90 43 48
        E 0 90 47 48
        E 20 90 40 48
        E 240 80 43 00
        E 0 80 47 00
        E 0 80 40 00
        e 514 90 43 48
        e 0 90 47 48
        e 20 90 40 48
        e 240 80 43 00
        e 0 80 47 00
        e 0 80 40 00
        E 186 90 41 48
        E 0 90 45 48
        E 0 90 48 48
        E 1920 80 41 00
        E 0 80 45 00
        E 0 80 48 00
        E 0 90 41 48
        E 0 90 45 48
        E 0 90 48 48
        E 260 80 41 00
        E 0 80 45 00
        E 0 80 48 00
        E 440 90 41 48
        E 0 90 45 48
        E 0 90 48 48
        E 260 80 41 00
        E 0 80 45 00
        E 0 80 48 00
        e 514 90 41 48
        e 0 90 45 48
        e 0 90 48 48
        e 260 80 41 00
        e 0 80 45 00
        e 0 80 48 00
        E 162 90 3e 48
        E 24 90 41 48
        E 0 90 45 48
        E 1896 90 3e 48
        E 24 80 3e 00
        E 0 80 41 00
        E 0 80 45 00
        E 0 90 41 48
        E 0 90 45 48
        E 260 80 3e 00
        E 0 80 41 00
        E 0 80 45 00
        E 416 90 3e 48
        E 24 90 41 48
        E 0 90 45 48
        E 260 80 3e 00
        E 0 80 41 00
        E 0 80 45 00
        e 490 90 3e 48
        e 24 90 41 48
        e 0 90 45 48
        e 260 80 3e 00
        e 0 80 41 00
        e 0 80 45 00
        E 186 b0 7b 00
        CHASE_CC_TAKEOFFS 1
        GUID {3131B4E2-B370-E352-A9C5-C8CA31551A86}
        IGNTEMPO 0 120 4 4
        SRCCOLOR 18
        VELLANE -1 100 0
        CFGEDITVIEW 0 0.045808 45 12 0 -1 0 0 0 0.5
        KEYSNAP 0
        TRACKSEL 0
        EVTFILTER 0 -1 -1 -1 -1 0 0 0 0 -1 -1 -1 -1 0 -1 0 -1 -1
        CFGEDIT 1 1 0 1 0 0 1 1 1 1 1 1 58 171 1253 866 0 0 0 0 0.25 0 0 0 0 0.5 0 0 1 64
      >
    >
    <ITEM
      POSITION 16
      SNAPOFFS 0
      LENGTH 8
      LOOP 1
      ALLTAKES 0
      FADEIN 1 0 0 1 0 0
      FADEOUT 1 0 0 1 0 0
      MUTE 0
      SEL 1
      IGUID {5CC21154-7609-2144-6972-0AB9DDE1B596}
      IID 12
      NAME "01-Recorded MIDI"
      VOLPAN 1 0 1 -1
      SOFFS 0 0
      PLAYRATE 1 1 0 -1 0 0.0021
      CHANMODE 0
      GUID {2D5CA8CC-A6F0-1CD8-AB96-973B2D2E9B2B}
      RECPASS 1
      <SOURCE MIDI
        HASDATA 1 960 QN
        CCINTERP 32
        POOLEDEVTS {340D40B3-10D8-CCC9-5AC9-2E1CA1F228E1}
        E 0 90 3c 48
        E 0 90 40 48
        E 0 90 43 48
        E 1920 80 3c 00
        E 0 80 40 00
        E 0 80 43 00
        E 0 90 3c 48
        E 0 90 40 48
        E 0 90 43 48
        E 260 80 3c 00
        E 0 80 40 00
        E 0 80 43 00
        E 440 90 3c 48
        E 0 90 40 48
        E 0 90 43 48
        E 260 80 3c 00
        E 0 80 40 00
        E 0 80 43 00
        e 514 90 3c 48
        e 0 90 40 48
        e 0 90 43 48
        e 260 80 3c 00
        e 0 80 40 00
        e 0 80 43 00
        E 186 90 43 48
        E 0 90 47 48
        E 20 90 40 48
        E 1900 80 43 00
        E 0 80 47 00
        E 0 80 40 00
        E 0 90 43 48
        E 0 90 47 48
        E 20 90 40 48
        E 240 80 43 00
        E 0 80 47 00
        E 0 80 40 00
        E 440 90 43 48
        E 0 90 47 48
        E 20 90 40 48
        E 240 80 43 00
        E 0 80 47 00
        E 0 80 40 00
        e 514 90 43 48
        e 0 90 47 48
        e 20 90 40 48
        e 240 80 43 00
        e 0 80 47 00
        e 0 80 40 00
        E 186 90 41 48
        E 0 90 45 48
        E 0 90 48 48
        E 1920 80 41 00
        E 0 80 45 00
        E 0 80 48 00
        E 0 90 41 48
        E 0 90 45 48
        E 0 90 48 48
        E 260 80 41 00
        E 0 80 45 00
        E 0 80 48 00
        E 440 90 41 48
        E 0 90 45 48
        E 0 90 48 48
        E 260 80 41 00
        E 0 80 45 00
        E 0 80 48 00
        e 514 90 41 48
        e 0 90 45 48
        e 0 90 48 48
        e 260 80 41 00
        e 0 80 45 00
        e 0 80 48 00
        E 162 90 3e 48
        E 24 90 41 48
        E 0 90 45 48
        E 1896 90 3e 48
        E 24 80 3e 00
        E 0 80 41 00
        E 0 80 45 00
        E 0 90 41 48
        E 0 90 45 48
        E 260 80 3e 00
        E 0 80 41 00
        E 0 80 45 00
        E 416 90 3e 48
        E 24 90 41 48
        E 0 90 45 48
        E 260 80 3e 00
        E 0 80 41 00
        E 0 80 45 00
        e 490 90 3e 48
        e 24 90 41 48
        e 0 90 45 48
        e 260 80 3e 00
        e 0 80 41 00
        e 0 80 45 00
        E 186 b0 7b 00
        CHASE_CC_TAKEOFFS 1
        GUID {48C567A2-895C-FB9B-FDBA-0ADB7004ABF3}
        IGNTEMPO 0 120 4 4
        SRCCOLOR 19
        VELLANE -1 100 0
        CFGEDITVIEW 0 0.045808 45 12 0 -1 0 0 0 0.5
        KEYSNAP 0
        TRACKSEL 0
        EVTFILTER 0 -1 -1 -1 -1 0 0 0 0 -1 -1 -1 -1 0 -1 0 -1 -1
        CFGEDIT 1 1 0 1 0 0 1 1 1 1 1 1 58 171 1253 866 0 0 0 0 0.25 0 0 0 0 0.5 0 0 1 64
      >
    >
    <ITEM
      POSITION 24
      SNAPOFFS 0
      LENGTH 8
      LOOP 1
      ALLTAKES 0
      FADEIN 1 0 0 1 0 0
      FADEOUT 1 0 0 1 0 0
      MUTE 0
      SEL 1
      IGUID {6B9D89D6-7659-8704-67ED-5261786E3F98}
      IID 13
      NAME "01-Recorded MIDI"
      VOLPAN 1 0 1 -1
      SOFFS 0 0
      PLAYRATE 1 1 0 -1 0 0.0021
      CHANMODE 0
      GUID {789D3CCE-6E3B-9C25-D649-98FC004FAC43}
      RECPASS 1
      <SOURCE MIDI
        HASDATA 1 960 QN
        CCINTERP 32
        POOLEDEVTS {67CE4A43-DA96-3BAD-C2B2-1889B69F9FCA}
        E 0 90 3c 48
        E 0 90 40 48
        E 0 90 43 48
        E 1920 80 3c 00
        E 0 80 40 00
        E 0 80 43 00
        E 0 90 3c 48
        E 0 90 40 48
        E 0 90 43 48
        E 260 80 3c 00
        E 0 80 40 00
        E 0 80 43 00
        E 440 90 3c 48
        E 0 90 40 48
        E 0 90 43 48
        E 260 80 3c 00
        E 0 80 40 00
        E 0 80 43 00
        e 514 90 3c 48
        e 0 90 40 48
        e 0 90 43 48
        e 260 80 3c 00
        e 0 80 40 00
        e 0 80 43 00
        E 186 90 43 48
        E 0 90 47 48
        E 20 90 40 48
        E 1900 80 43 00
        E 0 80 47 00
        E 0 80 40 00
        E 0 90 43 48
        E 0 90 47 48
        E 20 90 40 48
        E 240 80 43 00
        E 0 80 47 00
        E 0 80 40 00
        E 440 90 43 48
        E 0 90 47 48
        E 20 90 40 48
        E 240 80 43 00
        E 0 80 47 00
        E 0 80 40 00
        e 514 90 43 48
        e 0 90 47 48
        e 20 90 40 48
        e 240 80 43 00
        e 0 80 47 00
        e 0 80 40 00
        E 186 90 41 48
        E 0 90 45 48
        E 0 90 48 48
        E 1920 80 41 00
        E 0 80 45 00
        E 0 80 48 00
        E 0 90 41 48
        E 0 90 45 48
        E 0 90 48 48
        E 260 80 41 00
        E 0 80 45 00
        E 0 80 48 00
        E 440 90 41 48
        E 0 90 45 48
        E 0 90 48 48
        E 260 80 41 00
        E 0 80 45 00
        E 0 80 48 00
        e 514 90 41 48
        e 0 90 45 48
        e 0 90 48 48
        e 260 80 41 00
        e 0 80 45 00
        e 0 80 48 00
        E 162 90 3e 48
        E 24 90 41 48
        E 0 90 45 48
        E 1896 90 3e 48
        E 24 80 3e 00
        E 0 80 41 00
        E 0 80 45 00
        E 0 90 41 48
        E 0 90 45 48
        E 260 80 3e 00
        E 0 80 41 00
        E 0 80 45 00
        E 416 90 3e 48
        E 24 90 41 48
        E 0 90 45 48
        E 260 80 3e 00
        E 0 80 41 00
        E 0 80 45 00
        e 490 90 3e 48
        e 24 90 41 48
        e 0 90 45 48
        e 260 80 3e 00
        e 0 80 41 00
        e 0 80 45 00
        E 186 b0 7b 00
        CHASE_CC_TAKEOFFS 1
        GUID {1DE38800-E2A1-41B5-9C8C-3291891093B1}
        IGNTEMPO 0 120 4 4
        SRCCOLOR 20
        VELLANE -1 100 0
        CFGEDITVIEW 0 0.045808 45 12 0 -1 0 0 0 0.5
        KEYSNAP 0
        TRACKSEL 0
        EVTFILTER 0 -1 -1 -1 -1 0 0 0 0 -1 -1 -1 -1 0 -1 0 -1 -1
        CFGEDIT 1 1 0 1 0 0 1 1 1 1 1 1 58 171 1253 866 0 0 0 0 0.25 0 0 0 0 0.5 0 0 1 64
      >
    >
    <ITEM
      POSITION 32
      SNAPOFFS 0
      LENGTH 8
      LOOP 1
      ALLTAKES 0
      FADEIN 1 0 0 1 0 0
      FADEOUT 1 0 0 1 0 0
      MUTE 0
      SEL 1
      IGUID {9E2610C8-F270-312A-611A-08BF5CF37CD5}
      IID 14
      NAME "01-Recorded MIDI"
      VOLPAN 1 0 1 -1
      SOFFS 0 0
      PLAYRATE 1 1 0 -1 0 0.0021
      CHANMODE 0
      GUID {47E3002A-D907-6559-9BCA-C2D0F2F3643E}
      RECPASS 1
      <SOURCE MIDI
        HASDATA 1 960 QN
        CCINTERP 32
        POOLEDEVTS {695A9E86-7618-23E4-0AE8-D8D6D947ED4F}
        E 0 90 3c 48
        E 0 90 40 48
        E 0 90 43 48
        E 1920 80 3c 00
        E 0 80 40 00
        E 0 80 43 00
        E 0 90 3c 48
        E 0 90 40 48
        E 0 90 43 48
        E 260 80 3c 00
        E 0 80 40 00
        E 0 80 43 00
        E 440 90 3c 48
        E 0 90 40 48
        E 0 90 43 48
        E 260 80 3c 00
        E 0 80 40 00
        E 0 80 43 00
        e 514 90 3c 48
        e 0 90 40 48
        e 0 90 43 48
        e 260 80 3c 00
        e 0 80 40 00
        e 0 80 43 00
        E 186 90 43 48
        E 0 90 47 48
        E 20 90 40 48
        E 1900 80 43 00
        E 0 80 47 00
        E 0 80 40 00
        E 0 90 43 48
        E 0 90 47 48
        E 20 90 40 48
        E 240 80 43 00
        E 0 80 47 00
        E 0 80 40 00
        E 440 90 43 48
        E 0 90 47 48
        E 20 90 40 48
        E 240 80 43 00
        E 0 80 47 00
        E 0 80 40 00
        e 514 90 43 48
        e 0 90 47 48
        e 20 90 40 48
        e 240 80 43 00
        e 0 80 47 00
        e 0 80 40 00
        E 186 90 41 48
        E 0 90 45 48
        E 0 90 48 48
        E 1920 80 41 00
        E 0 80 45 00
        E 0 80 48 00
        E 0 90 41 48
        E 0 90 45 48
        E 0 90 48 48
        E 260 80 41 00
        E 0 80 45 00
        E 0 80 48 00
        E 440 90 41 48
        E 0 90 45 48
        E 0 90 48 48
        E 260 80 41 00
        E 0 80 45 00
        E 0 80 48 00
        e 514 90 41 48
        e 0 90 45 48
        e 0 90 48 48
        e 260 80 41 00
        e 0 80 45 00
        e 0 80 48 00
        E 162 90 3e 48
        E 24 90 41 48
        E 0 90 45 48
        E 1896 90 3e 48
        E 24 80 3e 00
        E 0 80 41 00
        E 0 80 45 00
        E 0 90 41 48
        E 0 90 45 48
        E 260 80 3e 00
        E 0 80 41 00
        E 0 80 45 00
        E 416 90 3e 48
        E 24 90 41 48
        E 0 90 45 48
        E 260 80 3e 00
        E 0 80 41 00
        E 0 80 45 00
        e 490 90 3e 48
        e 24 90 41 48
        e 0 90 45 48
        e 260 80 3e 00
        e 0 80 41 00
        e 0 80 45 00
        E 186 b0 7b 00
        CHASE_CC_TAKEOFFS 1
        GUID {0C3271F4-E233-9088-9B25-A722FAE7C579}
        IGNTEMPO 0 120 4 4
        SRCCOLOR 21
        VELLANE -1 100 0
        CFGEDITVIEW 0 0.045808 45 12 0 -1 0 0 0 0.5
        KEYSNAP 0
        TRACKSEL 0
        EVTFILTER 0 -1 -1 -1 -1 0 0 0 0 -1 -1 -1 -1 0 -1 0 -1 -1
        CFGEDIT 1 1 0 1 0 0 1 1 1 1 1 1 58 171 1253 866 0 0 0 0 0.25 0 0 0 0 0.5 0 0 1 64
      >
    >
    <ITEM
      POSITION 40
      SNAPOFFS 0
      LENGTH 8
      LOOP 1
      ALLTAKES 0
      FADEIN 1 0 0 1 0 0
      FADEOUT 1 0 0 1 0 0
      MUTE 0
      SEL 1
      IGUID {718D6127-1F24-472D-C0D8-ECD42E1011B5}
      IID 15
      NAME "01-Recorded MIDI"
      VOLPAN 1 0 1 -1
      SOFFS 0 0
      PLAYRATE 1 1 0 -1 0 0.0021
      CHANMODE 0
      GUID {069024EE-D3C2-EE83-739C-4336293E4B1A}
      RECPASS 1
      <SOURCE MIDI
        HASDATA 1 960 QN
        CCINTERP 32
        POOLEDEVTS {D2CCA7C1-DD16-C742-EB73-39BFD533925E}
        E 0 90 3c 48
        E 0 90 40 48
        E 0 90 43 48
        E 1920 80 3c 00
        E 0 80 40 00
        E 0 80 43 00
        E 0 90 3c 48
        E 0 90 40 48
        E 0 90 43 48
        E 260 80 3c 00
        E 0 80 40 00
        E 0 80 43 00
        E 440 90 3c 48
        E 0 90 40 48
        E 0 90 43 48
        E 260 80 3c 00
        E 0 80 40 00
        E 0 80 43 00
        e 514 90 3c 48
        e 0 90 40 48
        e 0 90 43 48
        e 260 80 3c 00
        e 0 80 40 00
        e 0 80 43 00
        E 186 90 43 48
        E 0 90 47 48
        E 20 90 40 48
        E 1900 80 43 00
        E 0 80 47 00
        E 0 80 40 00
        E 0 90 43 48
        E 0 90 47 48
        E 20 90 40 48
        E 240 80 43 00
        E 0 80 47 00
        E 0 80 40 00
        E 440 90 43 48
        E 0 90 47 48
        E 20 90 40 48
        E 240 80 43 00
        E 0 80 47 00
        E 0 80 40 00
        e 514 90 43 48
        e 0 90 47 48
        e 20 90 40 48
        e 240 80 43 00
        e 0 80 47 00
        e 0 80 40 00
        E 186 90 41 48
        E 0 90 45 48
        E 0 90 48 48
        E 1920 80 41 00
        E 0 80 45 00
        E 0 80 48 00
        E 0 90 41 48
        E 0 90 45 48
        E 0 90 48 48
        E 260 80 41 00
        E 0 80 45 00
        E 0 80 48 00
        E 440 90 41 48
        E 0 90 45 48
        E 0 90 48 48
        E 260 80 41 00
        E 0 80 45 00
        E 0 80 48 00
        e 514 90 41 48
        e 0 90 45 48
        e 0 90 48 48
        e 260 80 41 00
        e 0 80 45 00
        e 0 80 48 00
        E 162 90 3e 48
        E 24 90 41 48
        E 0 90 45 48
        E 1896 90 3e 48
        E 24 80 3e 00
        E 0 80 41 00
        E 0 80 45 00
        E 0 90 41 48
        E 0 90 45 48
        E 260 80 3e 00
        E 0 80 41 00
        E 0 80 45 00
        E 416 90 3e 48
        E 24 90 41 48
        E 0 90 45 48
        E 260 80 3e 00
        E 0 80 41 00
        E 0 80 45 00
        e 490 90 3e 48
        e 24 90 41 48
        e 0 90 45 48
        e 260 80 3e 00
        e 0 80 41 00
        e 0 80 45 00
        E 186 b0 7b 00
        CHASE_CC_TAKEOFFS 1
        GUID {040E7AF8-3572-5D91-3C86-797AEE7444D4}
        IGNTEMPO 0 120 4 4
        SRCCOLOR 22
        VELLANE -1 100 0
        CFGEDITVIEW 0 0.045808 45 12 0 -1 0 0 0 0.5
        KEYSNAP 0
        TRACKSEL 0
        EVTFILTER 0 -1 -1 -1 -1 0 0 0 0 -1 -1 -1 -1 0 -1 0 -1 -1
        CFGEDIT 1 1 0 1 0 0 1 1 1 1 1 1 58 171 1253 866 0 0 0 0 0.25 0 0 0 0 0.5 0 0 1 64
      >
    >
    <ITEM
      POSITION 48
      SNAPOFFS 0
      LENGTH 8
      LOOP 1
      ALLTAKES 0
      FADEIN 1 0 0 1 0 0
      FADEOUT 1 0 0 1 0 0
      MUTE 0
      SEL 1
      IGUID {18D27376-1885-C332-9EDE-7A1A9A6111DD}
      IID 16
      NAME "01-Recorded MIDI"
      VOLPAN 1 0 1 -1
      SOFFS 0 0
      PLAYRATE 1 1 0 -1 0 0.0021
      CHANMODE 0
      GUID {C4967111-EE31-818D-A478-A792534839A0}
      RECPASS 1
      <SOURCE MIDI
        HASDATA 1 960 QN
        CCINTERP 32
        POOLEDEVTS {E6DBB1A7-EEE2-7DE2-8BD1-BBD2F81E293F}
        E 0 90 3c 48
        E 0 90 40 48
        E 0 90 43 48
        E 1920 80 3c 00
        E 0 80 40 00
        E 0 80 43 00
        E 0 90 3c 48
        E 0 90 40 48
        E 0 90 43 48
        E 260 80 3c 00
        E 0 80 40 00
        E 0 80 43 00
        E 440 90 3c 48
        E 0 90 40 48
        E 0 90 43 48
        E 260 80 3c 00
        E 0 80 40 00
        E 0 80 43 00
        e 514 90 3c 48
        e 0 90 40 48
        e 0 90 43 48
        e 260 80 3c 00
        e 0 80 40 00
        e 0 80 43 00
        E 186 90 43 48
        E 0 90 47 48
        E 20 90 40 48
        E 1900 80 43 00
        E 0 80 47 00
        E 0 80 40 00
        E 0 90 43 48
        E 0 90 47 48
        E 20 90 40 48
        E 240 80 43 00
        E 0 80 47 00
        E 0 80 40 00
        E 440 90 43 48
        E 0 90 47 48
        E 20 90 40 48
        E 240 80 43 00
        E 0 80 47 00
        E 0 80 40 00
        e 514 90 43 48
        e 0 90 47 48
        e 20 90 40 48
        e 240 80 43 00
        e 0 80 47 00
        e 0 80 40 00
        E 186 90 41 48
        E 0 90 45 48
        E 0 90 48 48
        E 1920 80 41 00
        E 0 80 45 00
        E 0 80 48 00
        E 0 90 41 48
        E 0 90 45 48
        E 0 90 48 48
        E 260 80 41 00
        E 0 80 45 00
        E 0 80 48 00
        E 440 90 41 48
        E 0 90 45 48
        E 0 90 48 48
        E 260 80 41 00
        E 0 80 45 00
        E 0 80 48 00
        e 514 90 41 48
        e 0 90 45 48
        e 0 90 48 48
        e 260 80 41 00
        e 0 80 45 00
        e 0 80 48 00
        E 162 90 3e 48
        E 24 90 41 48
        E 0 90 45 48
        E 1896 90 3e 48
        E 24 80 3e 00
        E 0 80 41 00
        E 0 80 45 00
        E 0 90 41 48
        E 0 90 45 48
        E 260 80 3e 00
        E 0 80 41 00
        E 0 80 45 00
        E 416 90 3e 48
        E 24 90 41 48
        E 0 90 45 48
        E 260 80 3e 00
        E 0 80 41 00
        E 0 80 45 00
        e 490 90 3e 48
        e 24 90 41 48
        e 0 90 45 48
        e 260 80 3e 00
        e 0 80 41 00
        e 0 80 45 00
        E 186 b0 7b 00
        CHASE_CC_TAKEOFFS 1
        GUID {2338968B-6CF9-9F40-300F-DEB89D3392EA}
        IGNTEMPO 0 120 4 4
        SRCCOLOR 23
        VELLANE -1 100 0
        CFGEDITVIEW 0 0.045808 45 12 0 -1 0 0 0 0.5
        KEYSNAP 0
        TRACKSEL 0
        EVTFILTER 0 -1 -1 -1 -1 0 0 0 0 -1 -1 -1 -1 0 -1 0 -1 -1
        CFGEDIT 1 1 0 1 0 0 1 1 1 1 1 1 58 171 1253 866 0 0 0 0 0.25 0 0 0 0 0.5 0 0 1 64
      >
    >
    <ITEM
      POSITION 56
      SNAPOFFS 0
      LENGTH 8
      LOOP 1
      ALLTAKES 0
      FADEIN 1 0 0 1 0 0
      FADEOUT 1 0 0 1 0 0
      MUTE 0
      SEL 1
      IGUID {C82B37BC-568A-8C3E-F172-D61481FA5948}
      IID 17
      NAME "01-Recorded MIDI"
      VOLPAN 1 0 1 -1
      SOFFS 0 0
      PLAYRATE 1 1 0 -1 0 0.0021
      CHANMODE 0
      GUID {58DEEE31-28D2-A253-0FE6-4B8CC199929F}
      RECPASS 1
      <SOURCE MIDI
        HASDATA 1 960 QN
        CCINTERP 32
        POOLEDEVTS {C7B118A1-9021-B3CE-BC28-250D168B5053}
        E 0 90 3c 48
        E 0 90 40 48
        E 0 90 43 48
        E 1920 80 3c 00
        E 0 80 40 00
        E 0 80 43 00
        E 0 90 3c 48
        E 0 90 40 48
        E 0 90 43 48
        E 260 80 3c 00
        E 0 80 40 00
        E 0 80 43 00
        E 440 90 3c 48
        E 0 90 40 48
        E 0 90 43 48
        E 260 80 3c 00
        E 0 80 40 00
        E 0 80 43 00
        e 514 90 3c 48
        e 0 90 40 48
        e 0 90 43 48
        e 260 80 3c 00
        e 0 80 40 00
        e 0 80 43 00
        E 186 90 43 48
        E 0 90 47 48
        E 20 90 40 48
        E 1900 80 43 00
        E 0 80 47 00
        E 0 80 40 00
        E 0 90 43 48
        E 0 90 47 48
        E 20 90 40 48
        E 240 80 43 00
        E 0 80 47 00
        E 0 80 40 00
        E 440 90 43 48
        E 0 90 47 48
        E 20 90 40 48
        E 240 80 43 00
        E 0 80 47 00
        E 0 80 40 00
        e 514 90 43 48
        e 0 90 47 48
        e 20 90 40 48
        e 240 80 43 00
        e 0 80 47 00
        e 0 80 40 00
        E 186 90 41 48
        E 0 90 45 48
        E 0 90 48 48
        E 1920 80 41 00
        E 0 80 45 00
        E 0 80 48 00
        E 0 90 41 48
        E 0 90 45 48
        E 0 90 48 48
        E 260 80 41 00
        E 0 80 45 00
        E 0 80 48 00
        E 440 90 41 48
        E 0 90 45 48
        E 0 90 48 48
        E 260 80 41 00
        E 0 80 45 00
        E 0 80 48 00
        e 514 90 41 48
        e 0 90 45 48
        e 0 90 48 48
        e 260 80 41 00
        e 0 80 45 00
        e 0 80 48 00
        E 162 90 3e 48
        E 24 90 41 48
        E 0 90 45 48
        E 1896 90 3e 48
        E 24 80 3e 00
        E 0 80 41 00
        E 0 80 45 00
        E 0 90 41 48
        E 0 90 45 48
        E 260 80 3e 00
        E 0 80 41 00
        E 0 80 45 00
        E 416 90 3e 48
        E 24 90 41 48
        E 0 90 45 48
        E 260 80 3e 00
        E 0 80 41 00
        E 0 80 45 00
        e 490 90 3e 48
        e 24 90 41 48
        e 0 90 45 48
        e 260 80 3e 00
        e 0 80 41 00
        e 0 80 45 00
        E 186 b0 7b 00
        CHASE_CC_TAKEOFFS 1
        GUID {A64857E2-94F8-0990-20DF-4C1E9B5E6251}
        IGNTEMPO 0 120 4 4
        SRCCOLOR 24
        VELLANE -1 100 0
        CFGEDITVIEW 0 0.045808 45 12 0 -1 0 0 0 0.5
        KEYSNAP 0
        TRACKSEL 0
        EVTFILTER 0 -1 -1 -1 -1 0 0 0 0 -1 -1 -1 -1 0 -1 0 -1 -1
        CFGEDIT 1 1 0 1 0 0 1 1 1 1 1 1 58 171 1253 866 0 0 0 0 0.25 0 0 0 0 0.5 0 0 1 64
      >
    >
    <ITEM
      POSITION 64
      SNAPOFFS 0
      LENGTH 8
      LOOP 1
      ALLTAKES 0
      FADEIN 1 0 0 1 0 0
      FADEOUT 1 0 0 1 0 0
      MUTE 0
      SEL 1
      IGUID {648C68F8-74C3-03F1-A59C-E38BA5AF9143}
      IID 18
      NAME "01-Recorded MIDI"
      VOLPAN 1 0 1 -1
      SOFFS 0 0
      PLAYRATE 1 1 0 -1 0 0.0021
      CHANMODE 0
      GUID {C17D2CE8-51D0-A18F-F8AB-6921CDBE4431}
      RECPASS 1
      <SOURCE MIDI
        HASDATA 1 960 QN
        CCINTERP 32
        POOLEDEVTS {040869BD-2AFB-3E3B-B5F2-78996E9C85F1}
        E 0 90 3c 48
        E 0 90 40 48
        E 0 90 43 48
        E 1920 80 3c 00
        E 0 80 40 00
        E 0 80 43 00
        E 0 90 3c 48
        E 0 90 40 48
        E 0 90 43 48
        E 260 80 3c 00
        E 0 80 40 00
        E 0 80 43 00
        E 440 90 3c 48
        E 0 90 40 48
        E 0 90 43 48
        E 260 80 3c 00
        E 0 80 40 00
        E 0 80 43 00
        e 514 90 3c 48
        e 0 90 40 48
        e 0 90 43 48
        e 260 80 3c 00
        e 0 80 40 00
        e 0 80 43 00
        E 186 90 43 48
        E 0 90 47 48
        E 20 90 40 48
        E 1900 80 43 00
        E 0 80 47 00
        E 0 80 40 00
        E 0 90 43 48
        E 0 90 47 48
        E 20 90 40 48
        E 240 80 43 00
        E 0 80 47 00
        E 0 80 40 00
        E 440 90 43 48
        E 0 90 47 48
        E 20 90 40 48
        E 240 80 43 00
        E 0 80 47 00
        E 0 80 40 00
        e 514 90 43 48
        e 0 90 47 48
        e 20 90 40 48
        e 240 80 43 00
        e 0 80 47 00
        e 0 80 40 00
        E 186 90 41 48
        E 0 90 45 48
        E 0 90 48 48
        E 1920 80 41 00
        E 0 80 45 00
        E 0 80 48 00
        E 0 90 41 48
        E 0 90 45 48
        E 0 90 48 48
        E 260 80 41 00
        E 0 80 45 00
        E 0 80 48 00
        E 440 90 41 48
        E 0 90 45 48
        E 0 90 48 48
        E 260 80 41 00
        E 0 80 45 00
        E 0 80 48 00
        e 514 90 41 48
        e 0 90 45 48
        e 0 90 48 48
        e 260 80 41 00
        e 0 80 45 00
        e 0 80 48 00
        E 162 90 3e 48
        E 24 90 41 48
        E 0 90 45 48
        E 1896 90 3e 48
        E 24 80 3e 00
        E 0 80 41 00
        E 0 80 45 00
        E 0 90 41 48
        E 0 90 45 48
        E 260 80 3e 00
        E 0 80 41 00
        E 0 80 45 00
        E 416 90 3e 48
        E 24 90 41 48
        E 0 90 45 48
        E 260 80 3e 00
        E 0 80 41 00
        E 0 80 45 00
        e 490 90 3e 48
        e 24 90 41 48
        e 0 90 45 48
        e 260 80 3e 00
        e 0 80 41 00
        e 0 80 45 00
        E 186 b0 7b 00
        CHASE_CC_TAKEOFFS 1
        GUID {19362806-85F2-5D9E-E1F9-07BE0CF3D16E}
        IGNTEMPO 0 120 4 4
        SRCCOLOR 25
        VELLANE -1 100 0
        CFGEDITVIEW 0 0.045808 45 12 0 -1 0 0 0 0.5
        KEYSNAP 0
        TRACKSEL 0
        EVTFILTER 0 -1 -1 -1 -1 0 0 0 0 -1 -1 -1 -1 0 -1 0 -1 -1
        CFGEDIT 1 1 0 1 0 0 1 1 1 1 1 1 58 171 1253 866 0 0 0 0 0.25 0 0 0 0 0.5 0 0 1 64
      >
    >
    <ITEM
      POSITION 72
      SNAPOFFS 0
      LENGTH 8
      LOOP 1
      ALLTAKES 0
      FADEIN 1 0 0 1 0 0
      FADEOUT 1 0 0 1 0 0
      MUTE 0
      SEL 1
      IGUID {28CBC932-DD4B-BB5D-047E-6D927B1F4150}
      IID 19
      NAME "01-Recorded MIDI"
      VOLPAN 1 0 1 -1
      SOFFS 0 0
      PLAYRATE 1 1 0 -1 0 0.0021
      CHANMODE 0
      GUID {0C025A63-42E7-C1A3-991D-4E8D1B8A03A5}
      RECPASS 1
      <SOURCE MIDI
        HASDATA 1 960 QN
        CCINTERP 32
        POOLEDEVTS {8372FC43-441E-B063-B1F5-3195820FA3CA}
        E 0 90 3c 48
        E 0 90 40 48
        E 0 90 43 48
        E 1920 80 3c 00
        E 0 80 40 00
        E 0 80 43 00
        E 0 90 3c 48
        E 0 90 40 48
        E 0 90 43 48
        E 260 80 3c 00
        E 0 80 40 00
        E 0 80 43 00
        E 440 90 3c 48
        E 0 90 40 48
        E 0 90 43 48
        E 260 80 3c 00
        E 0 80 40 00
        E 0 80 43 00
        e 514 90 3c 48
        e 0 90 40 48
        e 0 90 43 48
        e 260 80 3c 00
        e 0 80 40 00
        e 0 80 43 00
        E 186 90 43 48
        E 0 90 47 48
        E 20 90 40 48
        E 1900 80 43 00
        E 0 80 47 00
        E 0 80 40 00
        E 0 90 43 48
        E 0 90 47 48
        E 20 90 40 48
        E 240 80 43 00
        E 0 80 47 00
        E 0 80 40 00
        E 440 90 43 48
        E 0 90 47 48
        E 20 90 40 48
        E 240 80 43 00
        E 0 80 47 00
        E 0 80 40 00
        e 514 90 43 48
        e 0 90 47 48
        e 20 90 40 48
        e 240 80 43 00
        e 0 80 47 00
        e 0 80 40 00
        E 186 90 41 48
        E 0 90 45 48
        E 0 90 48 48
        E 1920 80 41 00
        E 0 80 45 00
        E 0 80 48 00
        E 0 90 41 48
        E 0 90 45 48
        E 0 90 48 48
        E 260 80 41 00
        E 0 80 45 00
        E 0 80 48 00
        E 440 90 41 48
        E 0 90 45 48
        E 0 90 48 48
        E 260 80 41 00
        E 0 80 45 00
        E 0 80 48 00
        e 514 90 41 48
        e 0 90 45 48
        e 0 90 48 48
        e 260 80 41 00
        e 0 80 45 00
        e 0 80 48 00
        E 162 90 3e 48
        E 24 90 41 48
        E 0 90 45 48
        E 1896 90 3e 48
        E 24 80 3e 00
        E 0 80 41 00
        E 0 80 45 00
        E 0 90 41 48
        E 0 90 45 48
        E 260 80 3e 00
        E 0 80 41 00
        E 0 80 45 00
        E 416 90 3e 48
        E 24 90 41 48
        E 0 90 45 48
        E 260 80 3e 00
        E 0 80 41 00
        E 0 80 45 00
        e 490 90 3e 48
        e 24 90 41 48
        e 0 90 45 48
        e 260 80 3e 00
        e 0 80 41 00
        e 0 80 45 00
        E 186 b0 7b 00
        CHASE_CC_TAKEOFFS 1
        GUID {6844F8A9-6BE9-023C-4A46-0A676470C99B}
        IGNTEMPO 0 120 4 4
        SRCCOLOR 26
        VELLANE -1 100 0
        CFGEDITVIEW 0 0.045808 45 12 0 -1 0 0 0 0.5
        KEYSNAP 0
        TRACKSEL 0
        EVTFILTER 0 -1 -1 -1 -1 0 0 0 0 -1 -1 -1 -1 0 -1 0 -1 -1
        CFGEDIT 1 1 0 1 0 0 1 1 1 1 1 1 58 171 1253 866 0 0 0 0 0.25 0 0 0 0 0.5 0 0 1 64
      >
    >
    <ITEM
      POSITION 80
      SNAPOFFS 0
      LENGTH 8
      LOOP 1
      ALLTAKES 0
      FADEIN 1 0 0 1 0 0
      FADEOUT 1 0 0 1 0 0
      MUTE 0
      SEL 1
      IGUID {1BF4CDF0-C830-1892-84AF-25CF7FA4AB11}
      IID 20
      NAME "01-Recorded MIDI"
      VOLPAN 1 0 1 -1
      SOFFS 0 0
      PLAYRATE 1 1 0 -1 0 0.0021
      CHANMODE 0
      GUID {B182AF85-7CBD-0EF0-3344-394CD5041124}
      RECPASS 1
      <SOURCE MIDI
        HASDATA 1 960 QN
        CCINTERP 32
        POOLEDEVTS {15563388-63EB-0F86-CD01-82C404A90FBA}
        E 0 90 3c 48
        E 0 90 40 48
        E 0 90 43 48
        E 1920 80 3c 00
        E 0 80 40 00
        E 0 80 43 00
        E 0 90 3c 48
        E 0 90 40 48
        E 0 90 43 48
        E 260 80 3c 00
        E 0 80 40 00
        E 0 80 43 00
        E 440 90 3c 48
        E 0 90 40 48
        E 0 90 43 48
        E 260 80 3c 00
        E 0 80 40 00
        E 0 80 43 00
        e 514 90 3c 48
        e 0 90 40 48
        e 0 90 43 48
        e 260 80 3c 00
        e 0 80 40 00
        e 0 80 43 00
        E 186 90 43 48
        E 0 90 47 48
        E 20 90 40 48
        E 1900 80 43 00
        E 0 80 47 00
        E 0 80 40 00
        E 0 90 43 48
        E 0 90 47 48
        E 20 90 40 48
        E 240 80 43 00
        E 0 80 47 00
        E 0 80 40 00
        E 440 90 43 48
        E 0 90 47 48
        E 20 90 40 48
        E 240 80 43 00
        E 0 80 47 00
        E 0 80 40 00
        e 514 90 43 48
        e 0 90 47 48
        e 20 90 40 48
        e 240 80 43 00
        e 0 80 47 00
        e 0 80 40 00
        E 186 90 41 48
        E 0 90 45 48
        E 0 90 48 48
        E 1920 80 41 00
        E 0 80 45 00
        E 0 80 48 00
        E 0 90 41 48
        E 0 90 45 48
        E 0 90 48 48
        E 260 80 41 00
        E 0 80 45 00
        E 0 80 48 00
        E 440 90 41 48
        E 0 90 45 48
        E 0 90 48 48
        E 260 80 41 00
        E 0 80 45 00
        E 0 80 48 00
        e 514 90 41 48
        e 0 90 45 48
        e 0 90 48 48
        e 260 80 41 00
        e 0 80 45 00
        e 0 80 48 00
        E 162 90 3e 48
        E 24 90 41 48
        E 0 90 45 48
        E 1896 90 3e 48
        E 24 80 3e 00
        E 0 80 41 00
        E 0 80 45 00
        E 0 90 41 48
        E 0 90 45 48
        E 260 80 3e 00
        E 0 80 41 00
        E 0 80 45 00
        E 416 90 3e 48
        E 24 90 41 48
        E 0 90 45 48
        E 260 80 3e 00
        E 0 80 41 00
        E 0 80 45 00
        e 490 90 3e 48
        e 24 90 41 48
        e 0 90 45 48
        e 260 80 3e 00
        e 0 80 41 00
        e 0 80 45 00
        E 186 b0 7b 00
        CHASE_CC_TAKEOFFS 1
        GUID {E611ADB6-4869-6CCA-8E83-3954D5E743B1}
        IGNTEMPO 0 120 4 4
        SRCCOLOR 27
        VELLANE -1 100 0
        CFGEDITVIEW 0 0.045808 45 12 0 -1 0 0 0 0.5
        KEYSNAP 0
        TRACKSEL 0
        EVTFILTER 0 -1 -1 -1 -1 0 0 0 0 -1 -1 -1 -1 0 -1 0 -1 -1
        CFGEDIT 1 1 0 1 0 0 1 1 1 1 1 1 58 171 1253 866 0 0 0 0 0.25 0 0 0 0 0.5 0 0 1 64
      >
    >
    <ITEM
      POSITION 88
      SNAPOFFS 0
      LENGTH 8
      LOOP 1
      ALLTAKES 0
      FADEIN 1 0 0 1 0 0
      FADEOUT 1 0 0 1 0 0
      MUTE 0
      SEL 1
      IGUID {936A3622-D421-39C1-9550-F5F67337D3AC}
      IID 21
      NAME "01-Recorded MIDI"
      VOLPAN 1 0 1 -1
      SOFFS 0 0
      PLAYRATE 1 1 0 -1 0 0.0021
      CHANMODE 0
      GUID {6F2CDF68-F846-1081-388C-3A5210691BEF}
      RECPASS 1
      <SOURCE MIDI
        HASDATA 1 960 QN
        CCINTERP 32
        POOLEDEVTS {85A9220B-5862-7318-E3AE-D70D8F07E48D}
        E 0 90 3c 48
        E 0 90 40 48
        E 0 90 43 48
        E 1920 80 3c 00
        E 0 80 40 00
        E 0 80 43 00
        E 0 90 3c 48
        E 0 90 40 48
        E 0 90 43 48
        E 260 80 3c 00
        E 0 80 40 00
        E 0 80 43 00
        E 440 90 3c 48
        E 0 90 40 48
        E 0 90 43 48
        E 260 80 3c 00
        E 0 80 40 00
        E 0 80 43 00
        e 514 90 3c 48
        e 0 90 40 48
        e 0 90 43 48
        e 260 80 3c 00
        e 0 80 40 00
        e 0 80 43 00
        E 186 90 43 48
        E 0 90 47 48
        E 20 90 40 48
        E 1900 80 43 00
        E 0 80 47 00
        E 0 80 40 00
        E 0 90 43 48
        E 0 90 47 48
        E 20 90 40 48
        E 240 80 43 00
        E 0 80 47 00
        E 0 80 40 00
        E 440 90 43 48
        E 0 90 47 48
        E 20 90 40 48
        E 240 80 43 00
        E 0 80 47 00
        E 0 80 40 00
        e 514 90 43 48
        e 0 90 47 48
        e 20 90 40 48
        e 240 80 43 00
        e 0 80 47 00
        e 0 80 40 00
        E 186 90 41 48
        E 0 90 45 48
        E 0 90 48 48
        E 1920 80 41 00
        E 0 80 45 00
        E 0 80 48 00
        E 0 90 41 48
        E 0 90 45 48
        E 0 90 48 48
        E 260 80 41 00
        E 0 80 45 00
        E 0 80 48 00
        E 440 90 41 48
        E 0 90 45 48
        E 0 90 48 48
        E 260 80 41 00
        E 0 80 45 00
        E 0 80 48 00
        e 514 90 41 48
        e 0 90 45 48
        e 0 90 48 48
        e 260 80 41 00
        e 0 80 45 00
        e 0 80 48 00
        E 162 90 3e 48
        E 24 90 41 48
        E 0 90 45 48
        E 1896 90 3e 48
        E 24 80 3e 00
        E 0 80 41 00
        E 0 80 45 00
        E 0 90 41 48
        E 0 90 45 48
        E 260 80 3e 00
        E 0 80 41 00
        E 0 80 45 00
        E 416 90 3e 48
        E 24 90 41 48
        E 0 90 45 48
        E 260 80 3e 00
        E 0 80 41 00
        E 0 80 45 00
        e 490 90 3e 48
        e 24 90 41 48
        e 0 90 45 48
        e 260 80 3e 00
        e 0 80 41 00
        e 0 80 45 00
        E 186 b0 7b 00
        CHASE_CC_TAKEOFFS 1
        GUID {C762B555-17FC-D765-5340-11D3487D2955}
        IGNTEMPO 0 120 4 4
        SRCCOLOR 28
        VELLANE -1 100 0
        CFGEDITVIEW 0 0.045808 45 12 0 -1 0 0 0 0.5
        KEYSNAP 0
        TRACKSEL 0
        EVTFILTER 0 -1 -1 -1 -1 0 0 0 0 -1 -1 -1 -1 0 -1 0 -1 -1
        CFGEDIT 1 1 0 1 0 0 1 1 1 1 1 1 58 171 1253 866 0 0 0 0 0.25 0 0 0 0 0.5 0 0 1 64
      >
    >
  >
  <TRACK {D8ECBACF-B81F-3881-23C1-4C14E7AE5120}
    NAME ""
    PEAKCOL 16576
    BEAT -1
    AUTOMODE 0
    VOLPAN 0.00052194381917 0 -1 -1 1
    MUTESOLO 0 0 0
    IPHASE 0
    PLAYOFFS 0 1
    ISBUS 0 0
    BUSCOMP 0 0 0 0 0
    SHOWINMIX 1 0.6667 0.5 1 0.5 0 0 0
    FREEMODE 0
    SEL 0
    REC 0 5056 1 0 0 0 0
    VU 2
    TRACKHEIGHT 21 0 0
    INQ 0 0 0 0.5 100 0 0 100
    NCHAN 2
    FX 0
    TRACKID {D8ECBACF-B81F-3881-23C1-4C14E7AE5120}
    PERF 0
    MIDIOUT -1
    MAINSEND 1 0
    <FXCHAIN
      WNDRECT 346 266 902 608
      SHOW 0
      LASTSEL 5
      DOCKED 0
      BYPASS 0 0 0
      <VST "VST: ReaEQ (Cockos)" reaeq.vst.so 0 "" 1919247729<56535472656571726561657100000000> ""
        cWVlcu5e7f4CAAAAAQAAAAAAAAACAAAAAAAAAAIAAAABAAAAAAAAAAIAAAAAAAAAqAAAAAEAAAAAABAA
        IQAAAAQAAAAEAAAAAQAAAEC4Xhmm+DRAAAAAAAAA8D8AAAAAAAAAQAEIAAAAAQAAAAAAAAAAwHJAAAAAAAAA8D8AAAAAAAAAQAEIAAAAAQAAAAAAAAAAQI9AAAAAAAAA
        8D8AAAAAAAAAQAEDAAAAAQAAAAABaCorbdRAAAAAAAAA8D8AAAAAAAAAQAEBAAAAAQAAAAAAAAAAAPA/AAAAAJoCAACcAQAA
        AEhpZ2ggbG93IHBhc3MAEAAAAA==
      >
      PRESETNAME "High low pass"
      FLOATPOS 0 0 0 0
      FXID {EFC55449-3B28-FADD-F3D7-11E61E13641F}
      WAK 0 0
      BYPASS 0 0 0
      <VST "VSTi: ReaSynth (Cockos)" reasynth.vst.so 0 "" 1919251321<5653547265737972656173796E746800> ""
        eXNlcu9e7f4AAAAAAgAAAAEAAAAAAAAAAgAAAAAAAAA8AAAAAAAAAAAAEAA=
        776t3g3wrd6lm8Q7F7fROgAAAAAAAAAAAAAAAJCNuT3oZ4g9AACAPwAAAD8AAIA/AAAAAAAAAD8AAAAA
        AAAQAAAA
      >
      FLOATPOS 0 0 0 0
      FXID {857C27F9-296F-F2AE-8B41-FC46788151D7}
      WAK 0 0
      BYPASS 0 0 0
      <JS guitar/amp-model ""
        "Dumble Overdrive Special - Tweed Deluxe.wav" -21.000000 1.000000 0.000000 0.000000 -1.000000 - - - - - - - - - - - - - - - - - - - - - - - - - - - - - - - - - - - - - - - - - - - - - - - - - - - - - - - - - - 
      >
      FLOATPOS 0 0 0 0
      FXID {C3693E63-40A0-C292-A90C-80FB7F3B95E1}
      WAK 0 0
      BYPASS 0 0 0
      <VST "VST: ReaComp (Cockos)" reacomp.vst.so 0 "" 1919247213<5653547265636D726561636F6D700000> ""
        bWNlcu9e7f4EAAAAAQAAAAAAAAACAAAAAAAAAAQAAAAAAAAACAAAAAAAAAACAAAAAQAAAAAAAAACAAAAAAAAAFQAAAAAAAAAAAAQAA==
        776t3g3wrd5FoYg9/AWpPKWbxDsK16M8AAAAAAAAAAAAAIA/AAAAAAAAAAAAAAAAnNEHMwAAgD8AAAAAzMxMPQAAAAAAAAAAAAAAAAAAgD7YiZ09
        AAAQAAAA
      >
      FLOATPOS 0 0 0 0
      FXID {82B12BCC-7B5E-ACA8-3C23-97DB2289D181}
      WAK 0 0
      BYPASS 0 0 0
      <VST "VST: ReaDelay (Cockos)" readelay.vst.so 0 "" 1919247468<5653547265646C72656164656C617900> ""
        bGRlcu5e7f4CAAAAAQAAAAAAAAACAAAAAAAAAAIAAAABAAAAAAAAAAIAAAAAAAAA/AAAAAEAAAAAAAAA
        AAAAAAAAAAAFAAAALAAAAAIAAAAEAAAAAACAPwAAgD8AAAAAAACAPwAAAAAAAIA7vTeGNQAAgD8AAAAAAACAPwAAgD8AAIA/AAAAAAAAAAAAAIA/AAAAAAAAADwAAAAA
        AACAPwAAAAAAAIA/AACAP+87NT8AAIA/AAAAAAAAgD8AAAAAAABAPL03hjUAAIA/AAAAAAAAgD8AAIA/zk0AP6abhD4AAAAAAACAPwAAAAAAAIA8vTeGNQAAgD8AAAAA
        AACAPwAAgD8aqrU+pHA9PwAAAAAAAIA/AAAAAAAAoDy9N4Y1AACAPwAAAAAAAIA/AACAP/npAD4AAAA/
        AHN0b2NrIC0gYmFzaWMgNSB0YXAgcGluZyBwb25nAAAAAAA=
      >
      PRESETNAME "stock - basic 5 tap ping pong"
      FLOATPOS 0 0 0 0
      FXID {20C8FED1-3461-FC32-85EB-6A761DCCD478}
      WAK 0 0
      BYPASS 0 0 0
      <VST "VST: ReaVerb (Cockos)" reaverb.vst.so 0 "" 1919252066<56535472657662726561766572620000> ""
        YnZlcu5e7f4CAAAAAQAAAAAAAAACAAAAAAAAAAIAAAABAAAAAAAAAAIAAAAAAAAAcAAAAAEAAAAAAAAA
        AAAAwcybgD4AAIA/AAAAAAAAgD8AAIA/AAAAPwAAgD8AAAAAVkVSQkdFTgAYAAAAAAAAAJHgV0QdrLRA3rK7QsHIjEIAAIC/RUNIT0dFTgAcAAAAy/i2QLUjdUJdzdM/
        osdfP5lRrzyRzYxAnMQAPw==
        AHN3ZWV0dmVyYm8AAAAAAA==
      >
      PRESETNAME sweetverbo
      FLOATPOS 0 0 0 0
      FXID {62575727-0B70-AAE4-588E-409BC0DE7A95}
      WAK 0 0
    >
    <ITEM
      POSITION 0
      SNAPOFFS 0
      LENGTH 8
      LOOP 1
      ALLTAKES 0
      FADEIN 1 0 0 1 0 0
      FADEOUT 1 0 0 1 0 0
      MUTE 0
      SEL 1
      IGUID {D3FA0C53-FAFC-B4E3-9222-8F49B1BC78B2}
      IID 10
      NAME "01-Recorded MIDI"
      VOLPAN 1 0 1 -1
      SOFFS 0 0
      PLAYRATE 1 1 0 -1 0 0.0021
      CHANMODE 0
      GUID {2EC28253-DFDC-9D65-7116-930EC872EE90}
      RECPASS 1
      <SOURCE MIDI
        HASDATA 1 960 QN
        CCINTERP 32
        POOLEDEVTS {FEB2B1BB-C7CE-CE53-FCF6-1A2AB6269BB4}
        E 0 90 3c 48
        E 0 90 40 48
        E 0 90 43 48
        E 1920 80 3c 00
        E 0 80 40 00
        E 0 80 43 00
        E 0 90 3c 48
        E 0 90 40 48
        E 0 90 43 48
        E 260 80 3c 00
        E 0 80 40 00
        E 0 80 43 00
        E 440 90 3c 48
        E 0 90 40 48
        E 0 90 43 48
        E 260 80 3c 00
        E 0 80 40 00
        E 0 80 43 00
        e 514 90 3c 48
        e 0 90 40 48
        e 0 90 43 48
        e 260 80 3c 00
        e 0 80 40 00
        e 0 80 43 00
        E 186 90 43 48
        E 0 90 47 48
        E 20 90 40 48
        E 1900 80 43 00
        E 0 80 47 00
        E 0 80 40 00
        E 0 90 43 48
        E 0 90 47 48
        E 20 90 40 48
        E 240 80 43 00
        E 0 80 47 00
        E 0 80 40 00
        E 440 90 43 48
        E 0 90 47 48
        E 20 90 40 48
        E 240 80 43 00
        E 0 80 47 00
        E 0 80 40 00
        e 514 90 43 48
        e 0 90 47 48
        e 20 90 40 48
        e 240 80 43 00
        e 0 80 47 00
        e 0 80 40 00
        E 186 90 41 48
        E 0 90 45 48
        E 0 90 48 48
        E 1920 80 41 00
        E 0 80 45 00
        E 0 80 48 00
        E 0 90 41 48
        E 0 90 45 48
        E 0 90 48 48
        E 260 80 41 00
        E 0 80 45 00
        E 0 80 48 00
        E 440 90 41 48
        E 0 90 45 48
        E 0 90 48 48
        E 260 80 41 00
        E 0 80 45 00
        E 0 80 48 00
        e 514 90 41 48
        e 0 90 45 48
        e 0 90 48 48
        e 260 80 41 00
        e 0 80 45 00
        e 0 80 48 00
        E 162 90 3e 48
        E 24 90 41 48
        E 0 90 45 48
        E 1896 90 3e 48
        E 24 80 3e 00
        E 0 80 41 00
        E 0 80 45 00
        E 0 90 41 48
        E 0 90 45 48
        E 260 80 3e 00
        E 0 80 41 00
        E 0 80 45 00
        E 416 90 3e 48
        E 24 90 41 48
        E 0 90 45 48
        E 260 80 3e 00
        E 0 80 41 00
        E 0 80 45 00
        e 490 90 3e 48
        e 24 90 41 48
        e 0 90 45 48
        e 260 80 3e 00
        e 0 80 41 00
        e 0 80 45 00
        E 186 b0 7b 00
        CHASE_CC_TAKEOFFS 1
        GUID {7B9D708B-43E1-C8D4-C4B3-87E2A6C27801}
        IGNTEMPO 0 120 4 4
        SRCCOLOR 17
        VELLANE -1 100 0
        CFGEDITVIEW 0 0.045808 45 12 0 -1 0 0 0 0.5
        KEYSNAP 0
        TRACKSEL 0
        EVTFILTER 0 -1 -1 -1 -1 0 0 0 0 -1 -1 -1 -1 0 -1 0 -1 -1
        CFGEDIT 1 1 0 1 0 0 1 1 1 1 1 1 58 171 1253 866 0 0 0 0 0.25 0 0 0 0 0.5 0 0 1 64
      >
    >
    <ITEM
      POSITION 8
      SNAPOFFS 0
      LENGTH 8
      LOOP 1
      ALLTAKES 0
      FADEIN 1 0 0 1 0 0
      FADEOUT 1 0 0 1 0 0
      MUTE 0
      SEL 1
      IGUID {2310F3AA-5D78-0D86-53DA-917C2EFC8DE4}
      IID 11
      NAME "01-Recorded MIDI"
      VOLPAN 1 0 1 -1
      SOFFS 0 0
      PLAYRATE 1 1 0 -1 0 0.0021
      CHANMODE 0
      GUID {337B0E98-5730-AC85-7E46-BACEA7CA9E51}
      RECPASS 1
      <SOURCE MIDI
        HASDATA 1 960 QN
        CCINTERP 32
        POOLEDEVTS {B6B80294-C0EA-1B33-880C-7DBB17F32AA1}
        E 0 90 3c 48
        E 0 90 40 48
        E 0 90 43 48
        E 1920 80 3c 00
        E 0 80 40 00
        E 0 80 43 00
        E 0 90 3c 48
        E 0 90 40 48
        E 0 90 43 48
        E 260 80 3c 00
        E 0 80 40 00
        E 0 80 43 00
        E 440 90 3c 48
        E 0 90 40 48
        E 0 90 43 48
        E 260 80 3c 00
        E 0 80 40 00
        E 0 80 43 00
        e 514 90 3c 48
        e 0 90 40 48
        e 0 90 43 48
        e 260 80 3c 00
        e 0 80 40 00
        e 0 80 43 00
        E 186 90 43 48
        E 0 90 47 48
        E 20 90 40 48
        E 1900 80 43 00
        E 0 80 47 00
        E 0 80 40 00
        E 0 90 43 48
        E 0 90 47 48
        E 20 90 40 48
        E 240 80 43 00
        E 0 80 47 00
        E 0 80 40 00
        E 440 90 43 48
        E 0 90 47 48
        E 20 90 40 48
        E 240 80 43 00
        E 0 80 47 00
        E 0 80 40 00
        e 514 90 43 48
        e 0 90 47 48
        e 20 90 40 48
        e 240 80 43 00
        e 0 80 47 00
        e 0 80 40 00
        E 186 90 41 48
        E 0 90 45 48
        E 0 90 48 48
        E 1920 80 41 00
        E 0 80 45 00
        E 0 80 48 00
        E 0 90 41 48
        E 0 90 45 48
        E 0 90 48 48
        E 260 80 41 00
        E 0 80 45 00
        E 0 80 48 00
        E 440 90 41 48
        E 0 90 45 48
        E 0 90 48 48
        E 260 80 41 00
        E 0 80 45 00
        E 0 80 48 00
        e 514 90 41 48
        e 0 90 45 48
        e 0 90 48 48
        e 260 80 41 00
        e 0 80 45 00
        e 0 80 48 00
        E 162 90 3e 48
        E 24 90 41 48
        E 0 90 45 48
        E 1896 90 3e 48
        E 24 80 3e 00
        E 0 80 41 00
        E 0 80 45 00
        E 0 90 41 48
        E 0 90 45 48
        E 260 80 3e 00
        E 0 80 41 00
        E 0 80 45 00
        E 416 90 3e 48
        E 24 90 41 48
        E 0 90 45 48
        E 260 80 3e 00
        E 0 80 41 00
        E 0 80 45 00
        e 490 90 3e 48
        e 24 90 41 48
        e 0 90 45 48
        e 260 80 3e 00
        e 0 80 41 00
        e 0 80 45 00
        E 186 b0 7b 00
        CHASE_CC_TAKEOFFS 1
        GUID {3131B4E2-B370-E352-A9C5-C8CA31551A86}
        IGNTEMPO 0 120 4 4
        SRCCOLOR 18
        VELLANE -1 100 0
        CFGEDITVIEW 0 0.045808 45 12 0 -1 0 0 0 0.5
        KEYSNAP 0
        TRACKSEL 0
        EVTFILTER 0 -1 -1 -1 -1 0 0 0 0 -1 -1 -1 -1 0 -1 0 -1 -1
        CFGEDIT 1 1 0 1 0 0 1 1 1 1 1 1 58 171 1253 866 0 0 0 0 0.25 0 0 0 0 0.5 0 0 1 64
      >
    >
    <ITEM
      POSITION 16
      SNAPOFFS 0
      LENGTH 8
      LOOP 1
      ALLTAKES 0
      FADEIN 1 0 0 1 0 0
      FADEOUT 1 0 0 1 0 0
      MUTE 0
      SEL 1
      IGUID {273A807A-EC7F-8500-F076-EC04D09DCEED}
      IID 12
      NAME "01-Recorded MIDI"
      VOLPAN 1 0 1 -1
      SOFFS 0 0
      PLAYRATE 1 1 0 -1 0 0.0021
      CHANMODE 0
      GUID {C3EC22A4-4A8F-5216-0468-0662194B4518}
      RECPASS 1
      <SOURCE MIDI
        HASDATA 1 960 QN
        CCINTERP 32
        POOLEDEVTS {AECEC042-92C7-1631-7840-149282C701E3}
        E 0 90 3c 48
        E 0 90 40 48
        E 0 90 43 48
        E 1920 80 3c 00
        E 0 80 40 00
        E 0 80 43 00
        E 0 90 3c 48
        E 0 90 40 48
        E 0 90 43 48
        E 260 80 3c 00
        E 0 80 40 00
        E 0 80 43 00
        E 440 90 3c 48
        E 0 90 40 48
        E 0 90 43 48
        E 260 80 3c 00
        E 0 80 40 00
        E 0 80 43 00
        e 514 90 3c 48
        e 0 90 40 48
        e 0 90 43 48
        e 260 80 3c 00
        e 0 80 40 00
        e 0 80 43 00
        E 186 90 43 48
        E 0 90 47 48
        E 20 90 40 48
        E 1900 80 43 00
        E 0 80 47 00
        E 0 80 40 00
        E 0 90 43 48
        E 0 90 47 48
        E 20 90 40 48
        E 240 80 43 00
        E 0 80 47 00
        E 0 80 40 00
        E 440 90 43 48
        E 0 90 47 48
        E 20 90 40 48
        E 240 80 43 00
        E 0 80 47 00
        E 0 80 40 00
        e 514 90 43 48
        e 0 90 47 48
        e 20 90 40 48
        e 240 80 43 00
        e 0 80 47 00
        e 0 80 40 00
        E 186 90 41 48
        E 0 90 45 48
        E 0 90 48 48
        E 1920 80 41 00
        E 0 80 45 00
        E 0 80 48 00
        E 0 90 41 48
        E 0 90 45 48
        E 0 90 48 48
        E 260 80 41 00
        E 0 80 45 00
        E 0 80 48 00
        E 440 90 41 48
        E 0 90 45 48
        E 0 90 48 48
        E 260 80 41 00
        E 0 80 45 00
        E 0 80 48 00
        e 514 90 41 48
        e 0 90 45 48
        e 0 90 48 48
        e 260 80 41 00
        e 0 80 45 00
        e 0 80 48 00
        E 162 90 3e 48
        E 24 90 41 48
        E 0 90 45 48
        E 1896 90 3e 48
        E 24 80 3e 00
        E 0 80 41 00
        E 0 80 45 00
        E 0 90 41 48
        E 0 90 45 48
        E 260 80 3e 00
        E 0 80 41 00
        E 0 80 45 00
        E 416 90 3e 48
        E 24 90 41 48
        E 0 90 45 48
        E 260 80 3e 00
        E 0 80 41 00
        E 0 80 45 00
        e 490 90 3e 48
        e 24 90 41 48
        e 0 90 45 48
        e 260 80 3e 00
        e 0 80 41 00
        e 0 80 45 00
        E 186 b0 7b 00
        CHASE_CC_TAKEOFFS 1
        GUID {48C567A2-895C-FB9B-FDBA-0ADB7004ABF3}
        IGNTEMPO 0 120 4 4
        SRCCOLOR 19
        VELLANE -1 100 0
        CFGEDITVIEW 0 0.045808 45 12 0 -1 0 0 0 0.5
        KEYSNAP 0
        TRACKSEL 0
        EVTFILTER 0 -1 -1 -1 -1 0 0 0 0 -1 -1 -1 -1 0 -1 0 -1 -1
        CFGEDIT 1 1 0 1 0 0 1 1 1 1 1 1 58 171 1253 866 0 0 0 0 0.25 0 0 0 0 0.5 0 0 1 64
      >
    >
    <ITEM
      POSITION 24
      SNAPOFFS 0
      LENGTH 8
      LOOP 1
      ALLTAKES 0
      FADEIN 1 0 0 1 0 0
      FADEOUT 1 0 0 1 0 0
      MUTE 0
      SEL 1
      IGUID {28EF8FE1-6301-4335-6FDD-3B72DF1AA723}
      IID 13
      NAME "01-Recorded MIDI"
      VOLPAN 1 0 1 -1
      SOFFS 0 0
      PLAYRATE 1 1 0 -1 0 0.0021
      CHANMODE 0
      GUID {54BC5074-AEC2-F6BB-54FA-9189F1DA0EE2}
      RECPASS 1
      <SOURCE MIDI
        HASDATA 1 960 QN
        CCINTERP 32
        POOLEDEVTS {1C8A8D29-6C12-C07D-45B9-A09262B8DE65}
        E 0 90 3c 48
        E 0 90 40 48
        E 0 90 43 48
        E 1920 80 3c 00
        E 0 80 40 00
        E 0 80 43 00
        E 0 90 3c 48
        E 0 90 40 48
        E 0 90 43 48
        E 260 80 3c 00
        E 0 80 40 00
        E 0 80 43 00
        E 440 90 3c 48
        E 0 90 40 48
        E 0 90 43 48
        E 260 80 3c 00
        E 0 80 40 00
        E 0 80 43 00
        e 514 90 3c 48
        e 0 90 40 48
        e 0 90 43 48
        e 260 80 3c 00
        e 0 80 40 00
        e 0 80 43 00
        E 186 90 43 48
        E 0 90 47 48
        E 20 90 40 48
        E 1900 80 43 00
        E 0 80 47 00
        E 0 80 40 00
        E 0 90 43 48
        E 0 90 47 48
        E 20 90 40 48
        E 240 80 43 00
        E 0 80 47 00
        E 0 80 40 00
        E 440 90 43 48
        E 0 90 47 48
        E 20 90 40 48
        E 240 80 43 00
        E 0 80 47 00
        E 0 80 40 00
        e 514 90 43 48
        e 0 90 47 48
        e 20 90 40 48
        e 240 80 43 00
        e 0 80 47 00
        e 0 80 40 00
        E 186 90 41 48
        E 0 90 45 48
        E 0 90 48 48
        E 1920 80 41 00
        E 0 80 45 00
        E 0 80 48 00
        E 0 90 41 48
        E 0 90 45 48
        E 0 90 48 48
        E 260 80 41 00
        E 0 80 45 00
        E 0 80 48 00
        E 440 90 41 48
        E 0 90 45 48
        E 0 90 48 48
        E 260 80 41 00
        E 0 80 45 00
        E 0 80 48 00
        e 514 90 41 48
        e 0 90 45 48
        e 0 90 48 48
        e 260 80 41 00
        e 0 80 45 00
        e 0 80 48 00
        E 162 90 3e 48
        E 24 90 41 48
        E 0 90 45 48
        E 1896 90 3e 48
        E 24 80 3e 00
        E 0 80 41 00
        E 0 80 45 00
        E 0 90 41 48
        E 0 90 45 48
        E 260 80 3e 00
        E 0 80 41 00
        E 0 80 45 00
        E 416 90 3e 48
        E 24 90 41 48
        E 0 90 45 48
        E 260 80 3e 00
        E 0 80 41 00
        E 0 80 45 00
        e 490 90 3e 48
        e 24 90 41 48
        e 0 90 45 48
        e 260 80 3e 00
        e 0 80 41 00
        e 0 80 45 00
        E 186 b0 7b 00
        CHASE_CC_TAKEOFFS 1
        GUID {1DE38800-E2A1-41B5-9C8C-3291891093B1}
        IGNTEMPO 0 120 4 4
        SRCCOLOR 20
        VELLANE -1 100 0
        CFGEDITVIEW 0 0.045808 45 12 0 -1 0 0 0 0.5
        KEYSNAP 0
        TRACKSEL 0
        EVTFILTER 0 -1 -1 -1 -1 0 0 0 0 -1 -1 -1 -1 0 -1 0 -1 -1
        CFGEDIT 1 1 0 1 0 0 1 1 1 1 1 1 58 171 1253 866 0 0 0 0 0.25 0 0 0 0 0.5 0 0 1 64
      >
    >
    <ITEM
      POSITION 32
      SNAPOFFS 0
      LENGTH 8
      LOOP 1
      ALLTAKES 0
      FADEIN 1 0 0 1 0 0
      FADEOUT 1 0 0 1 0 0
      MUTE 0
      SEL 1
      IGUID {E79A7C85-60FB-48BA-D811-AF65291DF14B}
      IID 14
      NAME "01-Recorded MIDI"
      VOLPAN 1 0 1 -1
      SOFFS 0 0
      PLAYRATE 1 1 0 -1 0 0.0021
      CHANMODE 0
      GUID {21DF212E-6491-C944-0AD6-85E8CFEE94A7}
      RECPASS 1
      <SOURCE MIDI
        HASDATA 1 960 QN
        CCINTERP 32
        POOLEDEVTS {CBCDE5C0-6290-D7EC-5DB9-0E6D8CBE43F6}
        E 0 90 3c 48
        E 0 90 40 48
        E 0 90 43 48
        E 1920 80 3c 00
        E 0 80 40 00
        E 0 80 43 00
        E 0 90 3c 48
        E 0 90 40 48
        E 0 90 43 48
        E 260 80 3c 00
        E 0 80 40 00
        E 0 80 43 00
        E 440 90 3c 48
        E 0 90 40 48
        E 0 90 43 48
        E 260 80 3c 00
        E 0 80 40 00
        E 0 80 43 00
        e 514 90 3c 48
        e 0 90 40 48
        e 0 90 43 48
        e 260 80 3c 00
        e 0 80 40 00
        e 0 80 43 00
        E 186 90 43 48
        E 0 90 47 48
        E 20 90 40 48
        E 1900 80 43 00
        E 0 80 47 00
        E 0 80 40 00
        E 0 90 43 48
        E 0 90 47 48
        E 20 90 40 48
        E 240 80 43 00
        E 0 80 47 00
        E 0 80 40 00
        E 440 90 43 48
        E 0 90 47 48
        E 20 90 40 48
        E 240 80 43 00
        E 0 80 47 00
        E 0 80 40 00
        e 514 90 43 48
        e 0 90 47 48
        e 20 90 40 48
        e 240 80 43 00
        e 0 80 47 00
        e 0 80 40 00
        E 186 90 41 48
        E 0 90 45 48
        E 0 90 48 48
        E 1920 80 41 00
        E 0 80 45 00
        E 0 80 48 00
        E 0 90 41 48
        E 0 90 45 48
        E 0 90 48 48
        E 260 80 41 00
        E 0 80 45 00
        E 0 80 48 00
        E 440 90 41 48
        E 0 90 45 48
        E 0 90 48 48
        E 260 80 41 00
        E 0 80 45 00
        E 0 80 48 00
        e 514 90 41 48
        e 0 90 45 48
        e 0 90 48 48
        e 260 80 41 00
        e 0 80 45 00
        e 0 80 48 00
        E 162 90 3e 48
        E 24 90 41 48
        E 0 90 45 48
        E 1896 90 3e 48
        E 24 80 3e 00
        E 0 80 41 00
        E 0 80 45 00
        E 0 90 41 48
        E 0 90 45 48
        E 260 80 3e 00
        E 0 80 41 00
        E 0 80 45 00
        E 416 90 3e 48
        E 24 90 41 48
        E 0 90 45 48
        E 260 80 3e 00
        E 0 80 41 00
        E 0 80 45 00
        e 490 90 3e 48
        e 24 90 41 48
        e 0 90 45 48
        e 260 80 3e 00
        e 0 80 41 00
        e 0 80 45 00
        E 186 b0 7b 00
        CHASE_CC_TAKEOFFS 1
        GUID {0C3271F4-E233-9088-9B25-A722FAE7C579}
        IGNTEMPO 0 120 4 4
        SRCCOLOR 21
        VELLANE -1 100 0
        CFGEDITVIEW 0 0.045808 45 12 0 -1 0 0 0 0.5
        KEYSNAP 0
        TRACKSEL 0
        EVTFILTER 0 -1 -1 -1 -1 0 0 0 0 -1 -1 -1 -1 0 -1 0 -1 -1
        CFGEDIT 1 1 0 1 0 0 1 1 1 1 1 1 58 171 1253 866 0 0 0 0 0.25 0 0 0 0 0.5 0 0 1 64
      >
    >
    <ITEM
      POSITION 40
      SNAPOFFS 0
      LENGTH 8
      LOOP 1
      ALLTAKES 0
      FADEIN 1 0 0 1 0 0
      FADEOUT 1 0 0 1 0 0
      MUTE 0
      SEL 1
      IGUID {0C171558-6FA6-D7A4-28B8-8ACCDE6B24BA}
      IID 15
      NAME "01-Recorded MIDI"
      VOLPAN 1 0 1 -1
      SOFFS 0 0
      PLAYRATE 1 1 0 -1 0 0.0021
      CHANMODE 0
      GUID {29656EA6-03B4-F03C-2861-D66F158ABB06}
      RECPASS 1
      <SOURCE MIDI
        HASDATA 1 960 QN
        CCINTERP 32
        POOLEDEVTS {76E9B9FE-13AB-822F-1D0A-26B3C71EFD2D}
        E 0 90 3c 48
        E 0 90 40 48
        E 0 90 43 48
        E 1920 80 3c 00
        E 0 80 40 00
        E 0 80 43 00
        E 0 90 3c 48
        E 0 90 40 48
        E 0 90 43 48
        E 260 80 3c 00
        E 0 80 40 00
        E 0 80 43 00
        E 440 90 3c 48
        E 0 90 40 48
        E 0 90 43 48
        E 260 80 3c 00
        E 0 80 40 00
        E 0 80 43 00
        e 514 90 3c 48
        e 0 90 40 48
        e 0 90 43 48
        e 260 80 3c 00
        e 0 80 40 00
        e 0 80 43 00
        E 186 90 43 48
        E 0 90 47 48
        E 20 90 40 48
        E 1900 80 43 00
        E 0 80 47 00
        E 0 80 40 00
        E 0 90 43 48
        E 0 90 47 48
        E 20 90 40 48
        E 240 80 43 00
        E 0 80 47 00
        E 0 80 40 00
        E 440 90 43 48
        E 0 90 47 48
        E 20 90 40 48
        E 240 80 43 00
        E 0 80 47 00
        E 0 80 40 00
        e 514 90 43 48
        e 0 90 47 48
        e 20 90 40 48
        e 240 80 43 00
        e 0 80 47 00
        e 0 80 40 00
        E 186 90 41 48
        E 0 90 45 48
        E 0 90 48 48
        E 1920 80 41 00
        E 0 80 45 00
        E 0 80 48 00
        E 0 90 41 48
        E 0 90 45 48
        E 0 90 48 48
        E 260 80 41 00
        E 0 80 45 00
        E 0 80 48 00
        E 440 90 41 48
        E 0 90 45 48
        E 0 90 48 48
        E 260 80 41 00
        E 0 80 45 00
        E 0 80 48 00
        e 514 90 41 48
        e 0 90 45 48
        e 0 90 48 48
        e 260 80 41 00
        e 0 80 45 00
        e 0 80 48 00
        E 162 90 3e 48
        E 24 90 41 48
        E 0 90 45 48
        E 1896 90 3e 48
        E 24 80 3e 00
        E 0 80 41 00
        E 0 80 45 00
        E 0 90 41 48
        E 0 90 45 48
        E 260 80 3e 00
        E 0 80 41 00
        E 0 80 45 00
        E 416 90 3e 48
        E 24 90 41 48
        E 0 90 45 48
        E 260 80 3e 00
        E 0 80 41 00
        E 0 80 45 00
        e 490 90 3e 48
        e 24 90 41 48
        e 0 90 45 48
        e 260 80 3e 00
        e 0 80 41 00
        e 0 80 45 00
        E 186 b0 7b 00
        CHASE_CC_TAKEOFFS 1
        GUID {040E7AF8-3572-5D91-3C86-797AEE7444D4}
        IGNTEMPO 0 120 4 4
        SRCCOLOR 22
        VELLANE -1 100 0
        CFGEDITVIEW 0 0.045808 45 12 0 -1 0 0 0 0.5
        KEYSNAP 0
        TRACKSEL 0
        EVTFILTER 0 -1 -1 -1 -1 0 0 0 0 -1 -1 -1 -1 0 -1 0 -1 -1
        CFGEDIT 1 1 0 1 0 0 1 1 1 1 1 1 58 171 1253 866 0 0 0 0 0.25 0 0 0 0 0.5 0 0 1 64
      >
    >
    <ITEM
      POSITION 48
      SNAPOFFS 0
      LENGTH 8
      LOOP 1
      ALLTAKES 0
      FADEIN 1 0 0 1 0 0
      FADEOUT 1 0 0 1 0 0
      MUTE 0
      SEL 1
      IGUID {0D7FAA83-43D5-71CC-EBA3-BADF7069FFD9}
      IID 16
      NAME "01-Recorded MIDI"
      VOLPAN 1 0 1 -1
      SOFFS 0 0
      PLAYRATE 1 1 0 -1 0 0.0021
      CHANMODE 0
      GUID {721A186E-1144-00F6-76D5-C1269BDCF78B}
      RECPASS 1
      <SOURCE MIDI
        HASDATA 1 960 QN
        CCINTERP 32
        POOLEDEVTS {9AC43CC4-4A95-F6FF-B426-10489B57596D}
        E 0 90 3c 48
        E 0 90 40 48
        E 0 90 43 48
        E 1920 80 3c 00
        E 0 80 40 00
        E 0 80 43 00
        E 0 90 3c 48
        E 0 90 40 48
        E 0 90 43 48
        E 260 80 3c 00
        E 0 80 40 00
        E 0 80 43 00
        E 440 90 3c 48
        E 0 90 40 48
        E 0 90 43 48
        E 260 80 3c 00
        E 0 80 40 00
        E 0 80 43 00
        e 514 90 3c 48
        e 0 90 40 48
        e 0 90 43 48
        e 260 80 3c 00
        e 0 80 40 00
        e 0 80 43 00
        E 186 90 43 48
        E 0 90 47 48
        E 20 90 40 48
        E 1900 80 43 00
        E 0 80 47 00
        E 0 80 40 00
        E 0 90 43 48
        E 0 90 47 48
        E 20 90 40 48
        E 240 80 43 00
        E 0 80 47 00
        E 0 80 40 00
        E 440 90 43 48
        E 0 90 47 48
        E 20 90 40 48
        E 240 80 43 00
        E 0 80 47 00
        E 0 80 40 00
        e 514 90 43 48
        e 0 90 47 48
        e 20 90 40 48
        e 240 80 43 00
        e 0 80 47 00
        e 0 80 40 00
        E 186 90 41 48
        E 0 90 45 48
        E 0 90 48 48
        E 1920 80 41 00
        E 0 80 45 00
        E 0 80 48 00
        E 0 90 41 48
        E 0 90 45 48
        E 0 90 48 48
        E 260 80 41 00
        E 0 80 45 00
        E 0 80 48 00
        E 440 90 41 48
        E 0 90 45 48
        E 0 90 48 48
        E 260 80 41 00
        E 0 80 45 00
        E 0 80 48 00
        e 514 90 41 48
        e 0 90 45 48
        e 0 90 48 48
        e 260 80 41 00
        e 0 80 45 00
        e 0 80 48 00
        E 162 90 3e 48
        E 24 90 41 48
        E 0 90 45 48
        E 1896 90 3e 48
        E 24 80 3e 00
        E 0 80 41 00
        E 0 80 45 00
        E 0 90 41 48
        E 0 90 45 48
        E 260 80 3e 00
        E 0 80 41 00
        E 0 80 45 00
        E 416 90 3e 48
        E 24 90 41 48
        E 0 90 45 48
        E 260 80 3e 00
        E 0 80 41 00
        E 0 80 45 00
        e 490 90 3e 48
        e 24 90 41 48
        e 0 90 45 48
        e 260 80 3e 00
        e 0 80 41 00
        e 0 80 45 00
        E 186 b0 7b 00
        CHASE_CC_TAKEOFFS 1
        GUID {2338968B-6CF9-9F40-300F-DEB89D3392EA}
        IGNTEMPO 0 120 4 4
        SRCCOLOR 23
        VELLANE -1 100 0
        CFGEDITVIEW 0 0.045808 45 12 0 -1 0 0 0 0.5
        KEYSNAP 0
        TRACKSEL 0
        EVTFILTER 0 -1 -1 -1 -1 0 0 0 0 -1 -1 -1 -1 0 -1 0 -1 -1
        CFGEDIT 1 1 0 1 0 0 1 1 1 1 1 1 58 171 1253 866 0 0 0 0 0.25 0 0 0 0 0.5 0 0 1 64
      >
    >
    <ITEM
      POSITION 56
      SNAPOFFS 0
      LENGTH 8
      LOOP 1
      ALLTAKES 0
      FADEIN 1 0 0 1 0 0
      FADEOUT 1 0 0 1 0 0
      MUTE 0
      SEL 1
      IGUID {49015B2A-F2E6-5ECD-A30D-5026C023A3A2}
      IID 17
      NAME "01-Recorded MIDI"
      VOLPAN 1 0 1 -1
      SOFFS 0 0
      PLAYRATE 1 1 0 -1 0 0.0021
      CHANMODE 0
      GUID {BCB44B59-527C-C786-8046-2D34957591CA}
      RECPASS 1
      <SOURCE MIDI
        HASDATA 1 960 QN
        CCINTERP 32
        POOLEDEVTS {19DA0744-18C3-944F-5770-7F5EE633A724}
        E 0 90 3c 48
        E 0 90 40 48
        E 0 90 43 48
        E 1920 80 3c 00
        E 0 80 40 00
        E 0 80 43 00
        E 0 90 3c 48
        E 0 90 40 48
        E 0 90 43 48
        E 260 80 3c 00
        E 0 80 40 00
        E 0 80 43 00
        E 440 90 3c 48
        E 0 90 40 48
        E 0 90 43 48
        E 260 80 3c 00
        E 0 80 40 00
        E 0 80 43 00
        e 514 90 3c 48
        e 0 90 40 48
        e 0 90 43 48
        e 260 80 3c 00
        e 0 80 40 00
        e 0 80 43 00
        E 186 90 43 48
        E 0 90 47 48
        E 20 90 40 48
        E 1900 80 43 00
        E 0 80 47 00
        E 0 80 40 00
        E 0 90 43 48
        E 0 90 47 48
        E 20 90 40 48
        E 240 80 43 00
        E 0 80 47 00
        E 0 80 40 00
        E 440 90 43 48
        E 0 90 47 48
        E 20 90 40 48
        E 240 80 43 00
        E 0 80 47 00
        E 0 80 40 00
        e 514 90 43 48
        e 0 90 47 48
        e 20 90 40 48
        e 240 80 43 00
        e 0 80 47 00
        e 0 80 40 00
        E 186 90 41 48
        E 0 90 45 48
        E 0 90 48 48
        E 1920 80 41 00
        E 0 80 45 00
        E 0 80 48 00
        E 0 90 41 48
        E 0 90 45 48
        E 0 90 48 48
        E 260 80 41 00
        E 0 80 45 00
        E 0 80 48 00
        E 440 90 41 48
        E 0 90 45 48
        E 0 90 48 48
        E 260 80 41 00
        E 0 80 45 00
        E 0 80 48 00
        e 514 90 41 48
        e 0 90 45 48
        e 0 90 48 48
        e 260 80 41 00
        e 0 80 45 00
        e 0 80 48 00
        E 162 90 3e 48
        E 24 90 41 48
        E 0 90 45 48
        E 1896 90 3e 48
        E 24 80 3e 00
        E 0 80 41 00
        E 0 80 45 00
        E 0 90 41 48
        E 0 90 45 48
        E 260 80 3e 00
        E 0 80 41 00
        E 0 80 45 00
        E 416 90 3e 48
        E 24 90 41 48
        E 0 90 45 48
        E 260 80 3e 00
        E 0 80 41 00
        E 0 80 45 00
        e 490 90 3e 48
        e 24 90 41 48
        e 0 90 45 48
        e 260 80 3e 00
        e 0 80 41 00
        e 0 80 45 00
        E 186 b0 7b 00
        CHASE_CC_TAKEOFFS 1
        GUID {A64857E2-94F8-0990-20DF-4C1E9B5E6251}
        IGNTEMPO 0 120 4 4
        SRCCOLOR 24
        VELLANE -1 100 0
        CFGEDITVIEW 0 0.045808 45 12 0 -1 0 0 0 0.5
        KEYSNAP 0
        TRACKSEL 0
        EVTFILTER 0 -1 -1 -1 -1 0 0 0 0 -1 -1 -1 -1 0 -1 0 -1 -1
        CFGEDIT 1 1 0 1 0 0 1 1 1 1 1 1 58 171 1253 866 0 0 0 0 0.25 0 0 0 0 0.5 0 0 1 64
      >
    >
    <ITEM
      POSITION 64
      SNAPOFFS 0
      LENGTH 8
      LOOP 1
      ALLTAKES 0
      FADEIN 1 0 0 1 0 0
      FADEOUT 1 0 0 1 0 0
      MUTE 0
      SEL 1
      IGUID {9753AE01-38FC-42B1-76D5-6F1CBACF9154}
      IID 18
      NAME "01-Recorded MIDI"
      VOLPAN 1 0 1 -1
      SOFFS 0 0
      PLAYRATE 1 1 0 -1 0 0.0021
      CHANMODE 0
      GUID {2E37C18A-ACF3-E443-81E2-0D539A41AF0B}
      RECPASS 1
      <SOURCE MIDI
        HASDATA 1 960 QN
        CCINTERP 32
        POOLEDEVTS {D90F6399-D25F-ACCA-C780-98C9DF6C5586}
        E 0 90 3c 48
        E 0 90 40 48
        E 0 90 43 48
        E 1920 80 3c 00
        E 0 80 40 00
        E 0 80 43 00
        E 0 90 3c 48
        E 0 90 40 48
        E 0 90 43 48
        E 260 80 3c 00
        E 0 80 40 00
        E 0 80 43 00
        E 440 90 3c 48
        E 0 90 40 48
        E 0 90 43 48
        E 260 80 3c 00
        E 0 80 40 00
        E 0 80 43 00
        e 514 90 3c 48
        e 0 90 40 48
        e 0 90 43 48
        e 260 80 3c 00
        e 0 80 40 00
        e 0 80 43 00
        E 186 90 43 48
        E 0 90 47 48
        E 20 90 40 48
        E 1900 80 43 00
        E 0 80 47 00
        E 0 80 40 00
        E 0 90 43 48
        E 0 90 47 48
        E 20 90 40 48
        E 240 80 43 00
        E 0 80 47 00
        E 0 80 40 00
        E 440 90 43 48
        E 0 90 47 48
        E 20 90 40 48
        E 240 80 43 00
        E 0 80 47 00
        E 0 80 40 00
        e 514 90 43 48
        e 0 90 47 48
        e 20 90 40 48
        e 240 80 43 00
        e 0 80 47 00
        e 0 80 40 00
        E 186 90 41 48
        E 0 90 45 48
        E 0 90 48 48
        E 1920 80 41 00
        E 0 80 45 00
        E 0 80 48 00
        E 0 90 41 48
        E 0 90 45 48
        E 0 90 48 48
        E 260 80 41 00
        E 0 80 45 00
        E 0 80 48 00
        E 440 90 41 48
        E 0 90 45 48
        E 0 90 48 48
        E 260 80 41 00
        E 0 80 45 00
        E 0 80 48 00
        e 514 90 41 48
        e 0 90 45 48
        e 0 90 48 48
        e 260 80 41 00
        e 0 80 45 00
        e 0 80 48 00
        E 162 90 3e 48
        E 24 90 41 48
        E 0 90 45 48
        E 1896 90 3e 48
        E 24 80 3e 00
        E 0 80 41 00
        E 0 80 45 00
        E 0 90 41 48
        E 0 90 45 48
        E 260 80 3e 00
        E 0 80 41 00
        E 0 80 45 00
        E 416 90 3e 48
        E 24 90 41 48
        E 0 90 45 48
        E 260 80 3e 00
        E 0 80 41 00
        E 0 80 45 00
        e 490 90 3e 48
        e 24 90 41 48
        e 0 90 45 48
        e 260 80 3e 00
        e 0 80 41 00
        e 0 80 45 00
        E 186 b0 7b 00
        CHASE_CC_TAKEOFFS 1
        GUID {19362806-85F2-5D9E-E1F9-07BE0CF3D16E}
        IGNTEMPO 0 120 4 4
        SRCCOLOR 25
        VELLANE -1 100 0
        CFGEDITVIEW 0 0.045808 45 12 0 -1 0 0 0 0.5
        KEYSNAP 0
        TRACKSEL 0
        EVTFILTER 0 -1 -1 -1 -1 0 0 0 0 -1 -1 -1 -1 0 -1 0 -1 -1
        CFGEDIT 1 1 0 1 0 0 1 1 1 1 1 1 58 171 1253 866 0 0 0 0 0.25 0 0 0 0 0.5 0 0 1 64
      >
    >
    <ITEM
      POSITION 72
      SNAPOFFS 0
      LENGTH 8
      LOOP 1
      ALLTAKES 0
      FADEIN 1 0 0 1 0 0
      FADEOUT 1 0 0 1 0 0
      MUTE 0
      SEL 1
      IGUID {FBD75609-063C-35E6-E820-D6D24597C1CE}
      IID 19
      NAME "01-Recorded MIDI"
      VOLPAN 1 0 1 -1
      SOFFS 0 0
      PLAYRATE 1 1 0 -1 0 0.0021
      CHANMODE 0
      GUID {1E96D64B-4BD3-215D-1F2F-5D049593D46F}
      RECPASS 1
      <SOURCE MIDI
        HASDATA 1 960 QN
        CCINTERP 32
        POOLEDEVTS {A23A03CA-F433-FA5A-A78A-7C0110458D40}
        E 0 90 3c 48
        E 0 90 40 48
        E 0 90 43 48
        E 1920 80 3c 00
        E 0 80 40 00
        E 0 80 43 00
        E 0 90 3c 48
        E 0 90 40 48
        E 0 90 43 48
        E 260 80 3c 00
        E 0 80 40 00
        E 0 80 43 00
        E 440 90 3c 48
        E 0 90 40 48
        E 0 90 43 48
        E 260 80 3c 00
        E 0 80 40 00
        E 0 80 43 00
        e 514 90 3c 48
        e 0 90 40 48
        e 0 90 43 48
        e 260 80 3c 00
        e 0 80 40 00
        e 0 80 43 00
        E 186 90 43 48
        E 0 90 47 48
        E 20 90 40 48
        E 1900 80 43 00
        E 0 80 47 00
        E 0 80 40 00
        E 0 90 43 48
        E 0 90 47 48
        E 20 90 40 48
        E 240 80 43 00
        E 0 80 47 00
        E 0 80 40 00
        E 440 90 43 48
        E 0 90 47 48
        E 20 90 40 48
        E 240 80 43 00
        E 0 80 47 00
        E 0 80 40 00
        e 514 90 43 48
        e 0 90 47 48
        e 20 90 40 48
        e 240 80 43 00
        e 0 80 47 00
        e 0 80 40 00
        E 186 90 41 48
        E 0 90 45 48
        E 0 90 48 48
        E 1920 80 41 00
        E 0 80 45 00
        E 0 80 48 00
        E 0 90 41 48
        E 0 90 45 48
        E 0 90 48 48
        E 260 80 41 00
        E 0 80 45 00
        E 0 80 48 00
        E 440 90 41 48
        E 0 90 45 48
        E 0 90 48 48
        E 260 80 41 00
        E 0 80 45 00
        E 0 80 48 00
        e 514 90 41 48
        e 0 90 45 48
        e 0 90 48 48
        e 260 80 41 00
        e 0 80 45 00
        e 0 80 48 00
        E 162 90 3e 48
        E 24 90 41 48
        E 0 90 45 48
        E 1896 90 3e 48
        E 24 80 3e 00
        E 0 80 41 00
        E 0 80 45 00
        E 0 90 41 48
        E 0 90 45 48
        E 260 80 3e 00
        E 0 80 41 00
        E 0 80 45 00
        E 416 90 3e 48
        E 24 90 41 48
        E 0 90 45 48
        E 260 80 3e 00
        E 0 80 41 00
        E 0 80 45 00
        e 490 90 3e 48
        e 24 90 41 48
        e 0 90 45 48
        e 260 80 3e 00
        e 0 80 41 00
        e 0 80 45 00
        E 186 b0 7b 00
        CHASE_CC_TAKEOFFS 1
        GUID {6844F8A9-6BE9-023C-4A46-0A676470C99B}
        IGNTEMPO 0 120 4 4
        SRCCOLOR 26
        VELLANE -1 100 0
        CFGEDITVIEW 0 0.045808 45 12 0 -1 0 0 0 0.5
        KEYSNAP 0
        TRACKSEL 0
        EVTFILTER 0 -1 -1 -1 -1 0 0 0 0 -1 -1 -1 -1 0 -1 0 -1 -1
        CFGEDIT 1 1 0 1 0 0 1 1 1 1 1 1 58 171 1253 866 0 0 0 0 0.25 0 0 0 0 0.5 0 0 1 64
      >
    >
    <ITEM
      POSITION 80
      SNAPOFFS 0
      LENGTH 8
      LOOP 1
      ALLTAKES 0
      FADEIN 1 0 0 1 0 0
      FADEOUT 1 0 0 1 0 0
      MUTE 0
      SEL 1
      IGUID {F2D74586-0FC2-3A78-3564-217AE410F6BD}
      IID 20
      NAME "01-Recorded MIDI"
      VOLPAN 1 0 1 -1
      SOFFS 0 0
      PLAYRATE 1 1 0 -1 0 0.0021
      CHANMODE 0
      GUID {9DC16242-CD0E-E856-E295-ADA04367BD4A}
      RECPASS 1
      <SOURCE MIDI
        HASDATA 1 960 QN
        CCINTERP 32
        POOLEDEVTS {BB3F711F-993A-8C26-832A-C71BCF259D46}
        E 0 90 3c 48
        E 0 90 40 48
        E 0 90 43 48
        E 1920 80 3c 00
        E 0 80 40 00
        E 0 80 43 00
        E 0 90 3c 48
        E 0 90 40 48
        E 0 90 43 48
        E 260 80 3c 00
        E 0 80 40 00
        E 0 80 43 00
        E 440 90 3c 48
        E 0 90 40 48
        E 0 90 43 48
        E 260 80 3c 00
        E 0 80 40 00
        E 0 80 43 00
        e 514 90 3c 48
        e 0 90 40 48
        e 0 90 43 48
        e 260 80 3c 00
        e 0 80 40 00
        e 0 80 43 00
        E 186 90 43 48
        E 0 90 47 48
        E 20 90 40 48
        E 1900 80 43 00
        E 0 80 47 00
        E 0 80 40 00
        E 0 90 43 48
        E 0 90 47 48
        E 20 90 40 48
        E 240 80 43 00
        E 0 80 47 00
        E 0 80 40 00
        E 440 90 43 48
        E 0 90 47 48
        E 20 90 40 48
        E 240 80 43 00
        E 0 80 47 00
        E 0 80 40 00
        e 514 90 43 48
        e 0 90 47 48
        e 20 90 40 48
        e 240 80 43 00
        e 0 80 47 00
        e 0 80 40 00
        E 186 90 41 48
        E 0 90 45 48
        E 0 90 48 48
        E 1920 80 41 00
        E 0 80 45 00
        E 0 80 48 00
        E 0 90 41 48
        E 0 90 45 48
        E 0 90 48 48
        E 260 80 41 00
        E 0 80 45 00
        E 0 80 48 00
        E 440 90 41 48
        E 0 90 45 48
        E 0 90 48 48
        E 260 80 41 00
        E 0 80 45 00
        E 0 80 48 00
        e 514 90 41 48
        e 0 90 45 48
        e 0 90 48 48
        e 260 80 41 00
        e 0 80 45 00
        e 0 80 48 00
        E 162 90 3e 48
        E 24 90 41 48
        E 0 90 45 48
        E 1896 90 3e 48
        E 24 80 3e 00
        E 0 80 41 00
        E 0 80 45 00
        E 0 90 41 48
        E 0 90 45 48
        E 260 80 3e 00
        E 0 80 41 00
        E 0 80 45 00
        E 416 90 3e 48
        E 24 90 41 48
        E 0 90 45 48
        E 260 80 3e 00
        E 0 80 41 00
        E 0 80 45 00
        e 490 90 3e 48
        e 24 90 41 48
        e 0 90 45 48
        e 260 80 3e 00
        e 0 80 41 00
        e 0 80 45 00
        E 186 b0 7b 00
        CHASE_CC_TAKEOFFS 1
        GUID {E611ADB6-4869-6CCA-8E83-3954D5E743B1}
        IGNTEMPO 0 120 4 4
        SRCCOLOR 27
        VELLANE -1 100 0
        CFGEDITVIEW 0 0.045808 45 12 0 -1 0 0 0 0.5
        KEYSNAP 0
        TRACKSEL 0
        EVTFILTER 0 -1 -1 -1 -1 0 0 0 0 -1 -1 -1 -1 0 -1 0 -1 -1
        CFGEDIT 1 1 0 1 0 0 1 1 1 1 1 1 58 171 1253 866 0 0 0 0 0.25 0 0 0 0 0.5 0 0 1 64
      >
    >
    <ITEM
      POSITION 88
      SNAPOFFS 0
      LENGTH 8
      LOOP 1
      ALLTAKES 0
      FADEIN 1 0 0 1 0 0
      FADEOUT 1 0 0 1 0 0
      MUTE 0
      SEL 1
      IGUID {E0CBB80B-C532-1042-DFE9-4D331E3AF9AD}
      IID 21
      NAME "01-Recorded MIDI"
      VOLPAN 1 0 1 -1
      SOFFS 0 0
      PLAYRATE 1 1 0 -1 0 0.0021
      CHANMODE 0
      GUID {43BAC357-F1BB-66A3-7388-72DED1EC0723}
      RECPASS 1
      <SOURCE MIDI
        HASDATA 1 960 QN
        CCINTERP 32
        POOLEDEVTS {C505CEBE-7DA6-3CAF-1F78-8D1C9811990C}
        E 0 90 3c 48
        E 0 90 40 48
        E 0 90 43 48
        E 1920 80 3c 00
        E 0 80 40 00
        E 0 80 43 00
        E 0 90 3c 48
        E 0 90 40 48
        E 0 90 43 48
        E 260 80 3c 00
        E 0 80 40 00
        E 0 80 43 00
        E 440 90 3c 48
        E 0 90 40 48
        E 0 90 43 48
        E 260 80 3c 00
        E 0 80 40 00
        E 0 80 43 00
        e 514 90 3c 48
        e 0 90 40 48
        e 0 90 43 48
        e 260 80 3c 00
        e 0 80 40 00
        e 0 80 43 00
        E 186 90 43 48
        E 0 90 47 48
        E 20 90 40 48
        E 1900 80 43 00
        E 0 80 47 00
        E 0 80 40 00
        E 0 90 43 48
        E 0 90 47 48
        E 20 90 40 48
        E 240 80 43 00
        E 0 80 47 00
        E 0 80 40 00
        E 440 90 43 48
        E 0 90 47 48
        E 20 90 40 48
        E 240 80 43 00
        E 0 80 47 00
        E 0 80 40 00
        e 514 90 43 48
        e 0 90 47 48
        e 20 90 40 48
        e 240 80 43 00
        e 0 80 47 00
        e 0 80 40 00
        E 186 90 41 48
        E 0 90 45 48
        E 0 90 48 48
        E 1920 80 41 00
        E 0 80 45 00
        E 0 80 48 00
        E 0 90 41 48
        E 0 90 45 48
        E 0 90 48 48
        E 260 80 41 00
        E 0 80 45 00
        E 0 80 48 00
        E 440 90 41 48
        E 0 90 45 48
        E 0 90 48 48
        E 260 80 41 00
        E 0 80 45 00
        E 0 80 48 00
        e 514 90 41 48
        e 0 90 45 48
        e 0 90 48 48
        e 260 80 41 00
        e 0 80 45 00
        e 0 80 48 00
        E 162 90 3e 48
        E 24 90 41 48
        E 0 90 45 48
        E 1896 90 3e 48
        E 24 80 3e 00
        E 0 80 41 00
        E 0 80 45 00
        E 0 90 41 48
        E 0 90 45 48
        E 260 80 3e 00
        E 0 80 41 00
        E 0 80 45 00
        E 416 90 3e 48
        E 24 90 41 48
        E 0 90 45 48
        E 260 80 3e 00
        E 0 80 41 00
        E 0 80 45 00
        e 490 90 3e 48
        e 24 90 41 48
        e 0 90 45 48
        e 260 80 3e 00
        e 0 80 41 00
        e 0 80 45 00
        E 186 b0 7b 00
        CHASE_CC_TAKEOFFS 1
        GUID {C762B555-17FC-D765-5340-11D3487D2955}
        IGNTEMPO 0 120 4 4
        SRCCOLOR 28
        VELLANE -1 100 0
        CFGEDITVIEW 0 0.045808 45 12 0 -1 0 0 0 0.5
        KEYSNAP 0
        TRACKSEL 0
        EVTFILTER 0 -1 -1 -1 -1 0 0 0 0 -1 -1 -1 -1 0 -1 0 -1 -1
        CFGEDIT 1 1 0 1 0 0 1 1 1 1 1 1 58 171 1253 866 0 0 0 0 0.25 0 0 0 0 0.5 0 0 1 64
      >
    >
  >
  <TRACK {1A5976EB-C109-8FF5-C9FC-0026CD836B4A}
    NAME ""
    PEAKCOL 16576
    BEAT -1
    AUTOMODE 0
    VOLPAN 0.00052194381917 0 -1 -1 1
    MUTESOLO 0 0 0
    IPHASE 0
    PLAYOFFS 0 1
    ISBUS 0 0
    BUSCOMP 0 0 0 0 0
    SHOWINMIX 1 0.6667 0.5 1 0.5 0 0 0
    FREEMODE 0
    SEL 0
    REC 0 5056 1 0 0 0 0
    VU 2
    TRACKHEIGHT 21 0 0
    INQ 0 0 0 0.5 100 0 0 100
    NCHAN 2
    FX 0
    TRACKID {1A5976EB-C109-8FF5-C9FC-0026CD836B4A}
    PERF 0
    MIDIOUT -1
    MAINSEND 1 0
    <FXCHAIN
      WNDRECT 346 266 902 608
      SHOW 0
      LASTSEL 5
      DOCKED 0
      BYPASS 0 0 0
      <VST "VST: ReaEQ (Cockos)" reaeq.vst.so 0 "" 1919247729<56535472656571726561657100000000> ""
        cWVlcu5e7f4CAAAAAQAAAAAAAAACAAAAAAAAAAIAAAABAAAAAAAAAAIAAAAAAAAAqAAAAAEAAAAAABAA
        IQAAAAQAAAAEAAAAAQAAAEC4Xhmm+DRAAAAAAAAA8D8AAAAAAAAAQAEIAAAAAQAAAAAAAAAAwHJAAAAAAAAA8D8AAAAAAAAAQAEIAAAAAQAAAAAAAAAAQI9AAAAAAAAA
        8D8AAAAAAAAAQAEDAAAAAQAAAAABaCorbdRAAAAAAAAA8D8AAAAAAAAAQAEBAAAAAQAAAAAAAAAAAPA/AAAAAJoCAACcAQAA
        AEhpZ2ggbG93IHBhc3MAEAAAAA==
      >
      PRESETNAME "High low pass"
      FLOATPOS 0 0 0 0
      FXID {A8E0A785-5B3B-1E40-0508-ED6A24FE1F3E}
      WAK 0 0
      BYPASS 0 0 0
      <VST "VSTi: ReaSynth (Cockos)" reasynth.vst.so 0 "" 1919251321<5653547265737972656173796E746800> ""
        eXNlcu9e7f4AAAAAAgAAAAEAAAAAAAAAAgAAAAAAAAA8AAAAAAAAAAAAEAA=
        776t3g3wrd6lm8Q7F7fROgAAAAAAAAAAAAAAAJCNuT3oZ4g9AACAPwAAAD8AAIA/AAAAAAAAAD8AAAAA
        AAAQAAAA
      >
      FLOATPOS 0 0 0 0
      FXID {D2D2786C-5D08-E09E-03FF-D359861CC116}
      WAK 0 0
      BYPASS 0 0 0
      <JS guitar/amp-model ""
        "Dumble Overdrive Special - Tweed Deluxe.wav" -21.000000 1.000000 0.000000 0.000000 -1.000000 - - - - - - - - - - - - - - - - - - - - - - - - - - - - - - - - - - - - - - - - - - - - - - - - - - - - - - - - - - 
      >
      FLOATPOS 0 0 0 0
      FXID {44BA25F2-2F08-B7E2-A5CD-0675F90561C8}
      WAK 0 0
      BYPASS 0 0 0
      <VST "VST: ReaComp (Cockos)" reacomp.vst.so 0 "" 1919247213<5653547265636D726561636F6D700000> ""
        bWNlcu9e7f4EAAAAAQAAAAAAAAACAAAAAAAAAAQAAAAAAAAACAAAAAAAAAACAAAAAQAAAAAAAAACAAAAAAAAAFQAAAAAAAAAAAAQAA==
        776t3g3wrd5FoYg9/AWpPKWbxDsK16M8AAAAAAAAAAAAAIA/AAAAAAAAAAAAAAAAnNEHMwAAgD8AAAAAzMxMPQAAAAAAAAAAAAAAAAAAgD7YiZ09
        AAAQAAAA
      >
      FLOATPOS 0 0 0 0
      FXID {B30CD4E2-5CF3-013C-9804-28CD231EEEC5}
      WAK 0 0
      BYPASS 0 0 0
      <VST "VST: ReaDelay (Cockos)" readelay.vst.so 0 "" 1919247468<5653547265646C72656164656C617900> ""
        bGRlcu5e7f4CAAAAAQAAAAAAAAACAAAAAAAAAAIAAAABAAAAAAAAAAIAAAAAAAAA/AAAAAEAAAAAAAAA
        AAAAAAAAAAAFAAAALAAAAAIAAAAEAAAAAACAPwAAgD8AAAAAAACAPwAAAAAAAIA7vTeGNQAAgD8AAAAAAACAPwAAgD8AAIA/AAAAAAAAAAAAAIA/AAAAAAAAADwAAAAA
        AACAPwAAAAAAAIA/AACAP+87NT8AAIA/AAAAAAAAgD8AAAAAAABAPL03hjUAAIA/AAAAAAAAgD8AAIA/zk0AP6abhD4AAAAAAACAPwAAAAAAAIA8vTeGNQAAgD8AAAAA
        AACAPwAAgD8aqrU+pHA9PwAAAAAAAIA/AAAAAAAAoDy9N4Y1AACAPwAAAAAAAIA/AACAP/npAD4AAAA/
        AHN0b2NrIC0gYmFzaWMgNSB0YXAgcGluZyBwb25nAAAAAAA=
      >
      PRESETNAME "stock - basic 5 tap ping pong"
      FLOATPOS 0 0 0 0
      FXID {FDC9EE0A-AE27-4403-B4DB-D28580E6FBF8}
      WAK 0 0
      BYPASS 0 0 0
      <VST "VST: ReaVerb (Cockos)" reaverb.vst.so 0 "" 1919252066<56535472657662726561766572620000> ""
        YnZlcu5e7f4CAAAAAQAAAAAAAAACAAAAAAAAAAIAAAABAAAAAAAAAAIAAAAAAAAAcAAAAAEAAAAAAAAA
        AAAAwcybgD4AAIA/AAAAAAAAgD8AAIA/AAAAPwAAgD8AAAAAVkVSQkdFTgAYAAAAAAAAAJHgV0QdrLRA3rK7QsHIjEIAAIC/RUNIT0dFTgAcAAAAy/i2QLUjdUJdzdM/
        osdfP5lRrzyRzYxAnMQAPw==
        AHN3ZWV0dmVyYm8AAAAAAA==
      >
      PRESETNAME sweetverbo
      FLOATPOS 0 0 0 0
      FXID {5621BEC1-1672-9BD6-D4A1-9F643358F339}
      WAK 0 0
    >
    <ITEM
      POSITION 0
      SNAPOFFS 0
      LENGTH 8
      LOOP 1
      ALLTAKES 0
      FADEIN 1 0 0 1 0 0
      FADEOUT 1 0 0 1 0 0
      MUTE 0
      SEL 1
      IGUID {D4855EF5-65F0-349F-ECF8-E5A1F6331D2A}
      IID 10
      NAME "01-Recorded MIDI"
      VOLPAN 1 0 1 -1
      SOFFS 0 0
      PLAYRATE 1 1 0 -1 0 0.0021
      CHANMODE 0
      GUID {C1B79AF9-E9ED-72B5-0C44-4A25A1BD2291}
      RECPASS 1
      <SOURCE MIDI
        HASDATA 1 960 QN
        CCINTERP 32
        POOLEDEVTS {F19052CA-F9B9-883E-139E-546056E14FF3}
        E 0 90 3c 48
        E 0 90 40 48
        E 0 90 43 48
        E 1920 80 3c 00
        E 0 80 40 00
        E 0 80 43 00
        E 0 90 3c 48
        E 0 90 40 48
        E 0 90 43 48
        E 260 80 3c 00
        E 0 80 40 00
        E 0 80 43 00
        E 440 90 3c 48
        E 0 90 40 48
        E 0 90 43 48
        E 260 80 3c 00
        E 0 80 40 00
        E 0 80 43 00
        e 514 90 3c 48
        e 0 90 40 48
        e 0 90 43 48
        e 260 80 3c 00
        e 0 80 40 00
        e 0 80 43 00
        E 186 90 43 48
        E 0 90 47 48
        E 20 90 40 48
        E 1900 80 43 00
        E 0 80 47 00
        E 0 80 40 00
        E 0 90 43 48
        E 0 90 47 48
        E 20 90 40 48
        E 240 80 43 00
        E 0 80 47 00
        E 0 80 40 00
        E 440 90 43 48
        E 0 90 47 48
        E 20 90 40 48
        E 240 80 43 00
        E 0 80 47 00
        E 0 80 40 00
        e 514 90 43 48
        e 0 90 47 48
        e 20 90 40 48
        e 240 80 43 00
        e 0 80 47 00
        e 0 80 40 00
        E 186 90 41 48
        E 0 90 45 48
        E 0 90 48 48
        E 1920 80 41 00
        E 0 80 45 00
        E 0 80 48 00
        E 0 90 41 48
        E 0 90 45 48
        E 0 90 48 48
        E 260 80 41 00
        E 0 80 45 00
        E 0 80 48 00
        E 440 90 41 48
        E 0 90 45 48
        E 0 90 48 48
        E 260 80 41 00
        E 0 80 45 00
        E 0 80 48 00
        e 514 90 41 48
        e 0 90 45 48
        e 0 90 48 48
        e 260 80 41 00
        e 0 80 45 00
        e 0 80 48 00
        E 162 90 3e 48
        E 24 90 41 48
        E 0 90 45 48
        E 1896 90 3e 48
        E 24 80 3e 00
        E 0 80 41 00
        E 0 80 45 00
        E 0 90 41 48
        E 0 90 45 48
        E 260 80 3e 00
        E 0 80 41 00
        E 0 80 45 00
        E 416 90 3e 48
        E 24 90 41 48
        E 0 90 45 48
        E 260 80 3e 00
        E 0 80 41 00
        E 0 80 45 00
        e 490 90 3e 48
        e 24 90 41 48
        e 0 90 45 48
        e 260 80 3e 00
        e 0 80 41 00
        e 0 80 45 00
        E 186 b0 7b 00
        CHASE_CC_TAKEOFFS 1
        GUID {7B9D708B-43E1-C8D4-C4B3-87E2A6C27801}
        IGNTEMPO 0 120 4 4
        SRCCOLOR 17
        VELLANE -1 100 0
        CFGEDITVIEW 0 0.045808 45 12 0 -1 0 0 0 0.5
        KEYSNAP 0
        TRACKSEL 0
        EVTFILTER 0 -1 -1 -1 -1 0 0 0 0 -1 -1 -1 -1 0 -1 0 -1 -1
        CFGEDIT 1 1 0 1 0 0 1 1 1 1 1 1 58 171 1253 866 0 0 0 0 0.25 0 0 0 0 0.5 0 0 1 64
      >
    >
    <ITEM
      POSITION 8
      SNAPOFFS 0
      LENGTH 8
      LOOP 1
      ALLTAKES 0
      FADEIN 1 0 0 1 0 0
      FADEOUT 1 0 0 1 0 0
      MUTE 0
      SEL 1
      IGUID {4F1E7E5E-B55B-7724-DA13-51C2C5B52815}
      IID 11
      NAME "01-Recorded MIDI"
      VOLPAN 1 0 1 -1
      SOFFS 0 0
      PLAYRATE 1 1 0 -1 0 0.0021
      CHANMODE 0
      GUID {B1F6BDAD-9A90-F572-D464-14B7DAA7FBDD}
      RECPASS 1
      <SOURCE MIDI
        HASDATA 1 960 QN
        CCINTERP 32
        POOLEDEVTS {EB01CACC-6403-8B5A-27BE-03E4C7A15AE9}
        E 0 90 3c 48
        E 0 90 40 48
        E 0 90 43 48
        E 1920 80 3c 00
        E 0 80 40 00
        E 0 80 43 00
        E 0 90 3c 48
        E 0 90 40 48
        E 0 90 43 48
        E 260 80 3c 00
        E 0 80 40 00
        E 0 80 43 00
        E 440 90 3c 48
        E 0 90 40 48
        E 0 90 43 48
        E 260 80 3c 00
        E 0 80 40 00
        E 0 80 43 00
        e 514 90 3c 48
        e 0 90 40 48
        e 0 90 43 48
        e 260 80 3c 00
        e 0 80 40 00
        e 0 80 43 00
        E 186 90 43 48
        E 0 90 47 48
        E 20 90 40 48
        E 1900 80 43 00
        E 0 80 47 00
        E 0 80 40 00
        E 0 90 43 48
        E 0 90 47 48
        E 20 90 40 48
        E 240 80 43 00
        E 0 80 47 00
        E 0 80 40 00
        E 440 90 43 48
        E 0 90 47 48
        E 20 90 40 48
        E 240 80 43 00
        E 0 80 47 00
        E 0 80 40 00
        e 514 90 43 48
        e 0 90 47 48
        e 20 90 40 48
        e 240 80 43 00
        e 0 80 47 00
        e 0 80 40 00
        E 186 90 41 48
        E 0 90 45 48
        E 0 90 48 48
        E 1920 80 41 00
        E 0 80 45 00
        E 0 80 48 00
        E 0 90 41 48
        E 0 90 45 48
        E 0 90 48 48
        E 260 80 41 00
        E 0 80 45 00
        E 0 80 48 00
        E 440 90 41 48
        E 0 90 45 48
        E 0 90 48 48
        E 260 80 41 00
        E 0 80 45 00
        E 0 80 48 00
        e 514 90 41 48
        e 0 90 45 48
        e 0 90 48 48
        e 260 80 41 00
        e 0 80 45 00
        e 0 80 48 00
        E 162 90 3e 48
        E 24 90 41 48
        E 0 90 45 48
        E 1896 90 3e 48
        E 24 80 3e 00
        E 0 80 41 00
        E 0 80 45 00
        E 0 90 41 48
        E 0 90 45 48
        E 260 80 3e 00
        E 0 80 41 00
        E 0 80 45 00
        E 416 90 3e 48
        E 24 90 41 48
        E 0 90 45 48
        E 260 80 3e 00
        E 0 80 41 00
        E 0 80 45 00
        e 490 90 3e 48
        e 24 90 41 48
        e 0 90 45 48
        e 260 80 3e 00
        e 0 80 41 00
        e 0 80 45 00
        E 186 b0 7b 00
        CHASE_CC_TAKEOFFS 1
        GUID {3131B4E2-B370-E352-A9C5-C8CA31551A86}
        IGNTEMPO 0 120 4 4
        SRCCOLOR 18
        VELLANE -1 100 0
        CFGEDITVIEW 0 0.045808 45 12 0 -1 0 0 0 0.5
        KEYSNAP 0
        TRACKSEL 0
        EVTFILTER 0 -1 -1 -1 -1 0 0 0 0 -1 -1 -1 -1 0 -1 0 -1 -1
        CFGEDIT 1 1 0 1 0 0 1 1 1 1 1 1 58 171 1253 866 0 0 0 0 0.25 0 0 0 0 0.5 0 0 1 64
      >
    >
    <ITEM
      POSITION 16
      SNAPOFFS 0
      LENGTH 8
      LOOP 1
      ALLTAKES 0
      FADEIN 1 0 0 1 0 0
      FADEOUT 1 0 0 1 0 0
      MUTE 0
      SEL 1
      IGUID {B0F91B5A-B0D9-BB4B-A308-1BEB96BEEBFC}
      IID 12
      NAME "01-Recorded MIDI"
      VOLPAN 1 0 1 -1
      SOFFS 0 0
      PLAYRATE 1 1 0 -1 0 0.0021
      CHANMODE 0
      GUID {B8E4DB6A-BC7A-655F-403A-F55670E3D9E6}
      RECPASS 1
      <SOURCE MIDI
        HASDATA 1 960 QN
        CCINTERP 32
        POOLEDEVTS {B4AAAEEA-9C26-58DC-0057-7F88CF0B3E83}
        E 0 90 3c 48
        E 0 90 40 48
        E 0 90 43 48
        E 1920 80 3c 00
        E 0 80 40 00
        E 0 80 43 00
        E 0 90 3c 48
        E 0 90 40 48
        E 0 90 43 48
        E 260 80 3c 00
        E 0 80 40 00
        E 0 80 43 00
        E 440 90 3c 48
        E 0 90 40 48
        E 0 90 43 48
        E 260 80 3c 00
        E 0 80 40 00
        E 0 80 43 00
        e 514 90 3c 48
        e 0 90 40 48
        e 0 90 43 48
        e 260 80 3c 00
        e 0 80 40 00
        e 0 80 43 00
        E 186 90 43 48
        E 0 90 47 48
        E 20 90 40 48
        E 1900 80 43 00
        E 0 80 47 00
        E 0 80 40 00
        E 0 90 43 48
        E 0 90 47 48
        E 20 90 40 48
        E 240 80 43 00
        E 0 80 47 00
        E 0 80 40 00
        E 440 90 43 48
        E 0 90 47 48
        E 20 90 40 48
        E 240 80 43 00
        E 0 80 47 00
        E 0 80 40 00
        e 514 90 43 48
        e 0 90 47 48
        e 20 90 40 48
        e 240 80 43 00
        e 0 80 47 00
        e 0 80 40 00
        E 186 90 41 48
        E 0 90 45 48
        E 0 90 48 48
        E 1920 80 41 00
        E 0 80 45 00
        E 0 80 48 00
        E 0 90 41 48
        E 0 90 45 48
        E 0 90 48 48
        E 260 80 41 00
        E 0 80 45 00
        E 0 80 48 00
        E 440 90 41 48
        E 0 90 45 48
        E 0 90 48 48
        E 260 80 41 00
        E 0 80 45 00
        E 0 80 48 00
        e 514 90 41 48
        e 0 90 45 48
        e 0 90 48 48
        e 260 80 41 00
        e 0 80 45 00
        e 0 80 48 00
        E 162 90 3e 48
        E 24 90 41 48
        E 0 90 45 48
        E 1896 90 3e 48
        E 24 80 3e 00
        E 0 80 41 00
        E 0 80 45 00
        E 0 90 41 48
        E 0 90 45 48
        E 260 80 3e 00
        E 0 80 41 00
        E 0 80 45 00
        E 416 90 3e 48
        E 24 90 41 48
        E 0 90 45 48
        E 260 80 3e 00
        E 0 80 41 00
        E 0 80 45 00
        e 490 90 3e 48
        e 24 90 41 48
        e 0 90 45 48
        e 260 80 3e 00
        e 0 80 41 00
        e 0 80 45 00
        E 186 b0 7b 00
        CHASE_CC_TAKEOFFS 1
        GUID {48C567A2-895C-FB9B-FDBA-0ADB7004ABF3}
        IGNTEMPO 0 120 4 4
        SRCCOLOR 19
        VELLANE -1 100 0
        CFGEDITVIEW 0 0.045808 45 12 0 -1 0 0 0 0.5
        KEYSNAP 0
        TRACKSEL 0
        EVTFILTER 0 -1 -1 -1 -1 0 0 0 0 -1 -1 -1 -1 0 -1 0 -1 -1
        CFGEDIT 1 1 0 1 0 0 1 1 1 1 1 1 58 171 1253 866 0 0 0 0 0.25 0 0 0 0 0.5 0 0 1 64
      >
    >
    <ITEM
      POSITION 24
      SNAPOFFS 0
      LENGTH 8
      LOOP 1
      ALLTAKES 0
      FADEIN 1 0 0 1 0 0
      FADEOUT 1 0 0 1 0 0
      MUTE 0
      SEL 1
      IGUID {4E5A7A1E-1C0D-863D-9727-E4B086F4F8C8}
      IID 13
      NAME "01-Recorded MIDI"
      VOLPAN 1 0 1 -1
      SOFFS 0 0
      PLAYRATE 1 1 0 -1 0 0.0021
      CHANMODE 0
      GUID {C7D990EA-E046-D541-20A4-C47219931FCD}
      RECPASS 1
      <SOURCE MIDI
        HASDATA 1 960 QN
        CCINTERP 32
        POOLEDEVTS {7D6D79F4-C6AC-7F40-F1E5-7567A692152F}
        E 0 90 3c 48
        E 0 90 40 48
        E 0 90 43 48
        E 1920 80 3c 00
        E 0 80 40 00
        E 0 80 43 00
        E 0 90 3c 48
        E 0 90 40 48
        E 0 90 43 48
        E 260 80 3c 00
        E 0 80 40 00
        E 0 80 43 00
        E 440 90 3c 48
        E 0 90 40 48
        E 0 90 43 48
        E 260 80 3c 00
        E 0 80 40 00
        E 0 80 43 00
        e 514 90 3c 48
        e 0 90 40 48
        e 0 90 43 48
        e 260 80 3c 00
        e 0 80 40 00
        e 0 80 43 00
        E 186 90 43 48
        E 0 90 47 48
        E 20 90 40 48
        E 1900 80 43 00
        E 0 80 47 00
        E 0 80 40 00
        E 0 90 43 48
        E 0 90 47 48
        E 20 90 40 48
        E 240 80 43 00
        E 0 80 47 00
        E 0 80 40 00
        E 440 90 43 48
        E 0 90 47 48
        E 20 90 40 48
        E 240 80 43 00
        E 0 80 47 00
        E 0 80 40 00
        e 514 90 43 48
        e 0 90 47 48
        e 20 90 40 48
        e 240 80 43 00
        e 0 80 47 00
        e 0 80 40 00
        E 186 90 41 48
        E 0 90 45 48
        E 0 90 48 48
        E 1920 80 41 00
        E 0 80 45 00
        E 0 80 48 00
        E 0 90 41 48
        E 0 90 45 48
        E 0 90 48 48
        E 260 80 41 00
        E 0 80 45 00
        E 0 80 48 00
        E 440 90 41 48
        E 0 90 45 48
        E 0 90 48 48
        E 260 80 41 00
        E 0 80 45 00
        E 0 80 48 00
        e 514 90 41 48
        e 0 90 45 48
        e 0 90 48 48
        e 260 80 41 00
        e 0 80 45 00
        e 0 80 48 00
        E 162 90 3e 48
        E 24 90 41 48
        E 0 90 45 48
        E 1896 90 3e 48
        E 24 80 3e 00
        E 0 80 41 00
        E 0 80 45 00
        E 0 90 41 48
        E 0 90 45 48
        E 260 80 3e 00
        E 0 80 41 00
        E 0 80 45 00
        E 416 90 3e 48
        E 24 90 41 48
        E 0 90 45 48
        E 260 80 3e 00
        E 0 80 41 00
        E 0 80 45 00
        e 490 90 3e 48
        e 24 90 41 48
        e 0 90 45 48
        e 260 80 3e 00
        e 0 80 41 00
        e 0 80 45 00
        E 186 b0 7b 00
        CHASE_CC_TAKEOFFS 1
        GUID {1DE38800-E2A1-41B5-9C8C-3291891093B1}
        IGNTEMPO 0 120 4 4
        SRCCOLOR 20
        VELLANE -1 100 0
        CFGEDITVIEW 0 0.045808 45 12 0 -1 0 0 0 0.5
        KEYSNAP 0
        TRACKSEL 0
        EVTFILTER 0 -1 -1 -1 -1 0 0 0 0 -1 -1 -1 -1 0 -1 0 -1 -1
        CFGEDIT 1 1 0 1 0 0 1 1 1 1 1 1 58 171 1253 866 0 0 0 0 0.25 0 0 0 0 0.5 0 0 1 64
      >
    >
    <ITEM
      POSITION 32
      SNAPOFFS 0
      LENGTH 8
      LOOP 1
      ALLTAKES 0
      FADEIN 1 0 0 1 0 0
      FADEOUT 1 0 0 1 0 0
      MUTE 0
      SEL 1
      IGUID {98CCBC01-B02E-B9ED-1BDD-50B7A38D52B7}
      IID 14
      NAME "01-Recorded MIDI"
      VOLPAN 1 0 1 -1
      SOFFS 0 0
      PLAYRATE 1 1 0 -1 0 0.0021
      CHANMODE 0
      GUID {8D62537B-839B-F318-29B5-3FFC36AC3FF9}
      RECPASS 1
      <SOURCE MIDI
        HASDATA 1 960 QN
        CCINTERP 32
        POOLEDEVTS {DF20B85B-4033-F13D-6B54-4DDA1CA2C2F0}
        E 0 90 3c 48
        E 0 90 40 48
        E 0 90 43 48
        E 1920 80 3c 00
        E 0 80 40 00
        E 0 80 43 00
        E 0 90 3c 48
        E 0 90 40 48
        E 0 90 43 48
        E 260 80 3c 00
        E 0 80 40 00
        E 0 80 43 00
        E 440 90 3c 48
        E 0 90 40 48
        E 0 90 43 48
        E 260 80 3c 00
        E 0 80 40 00
        E 0 80 43 00
        e 514 90 3c 48
        e 0 90 40 48
        e 0 90 43 48
        e 260 80 3c 00
        e 0 80 40 00
        e 0 80 43 00
        E 186 90 43 48
        E 0 90 47 48
        E 20 90 40 48
        E 1900 80 43 00
        E 0 80 47 00
        E 0 80 40 00
        E 0 90 43 48
        E 0 90 47 48
        E 20 90 40 48
        E 240 80 43 00
        E 0 80 47 00
        E 0 80 40 00
        E 440 90 43 48
        E 0 90 47 48
        E 20 90 40 48
        E 240 80 43 00
        E 0 80 47 00
        E 0 80 40 00
        e 514 90 43 48
        e 0 90 47 48
        e 20 90 40 48
        e 240 80 43 00
        e 0 80 47 00
        e 0 80 40 00
        E 186 90 41 48
        E 0 90 45 48
        E 0 90 48 48
        E 1920 80 41 00
        E 0 80 45 00
        E 0 80 48 00
        E 0 90 41 48
        E 0 90 45 48
        E 0 90 48 48
        E 260 80 41 00
        E 0 80 45 00
        E 0 80 48 00
        E 440 90 41 48
        E 0 90 45 48
        E 0 90 48 48
        E 260 80 41 00
        E 0 80 45 00
        E 0 80 48 00
        e 514 90 41 48
        e 0 90 45 48
        e 0 90 48 48
        e 260 80 41 00
        e 0 80 45 00
        e 0 80 48 00
        E 162 90 3e 48
        E 24 90 41 48
        E 0 90 45 48
        E 1896 90 3e 48
        E 24 80 3e 00
        E 0 80 41 00
        E 0 80 45 00
        E 0 90 41 48
        E 0 90 45 48
        E 260 80 3e 00
        E 0 80 41 00
        E 0 80 45 00
        E 416 90 3e 48
        E 24 90 41 48
        E 0 90 45 48
        E 260 80 3e 00
        E 0 80 41 00
        E 0 80 45 00
        e 490 90 3e 48
        e 24 90 41 48
        e 0 90 45 48
        e 260 80 3e 00
        e 0 80 41 00
        e 0 80 45 00
        E 186 b0 7b 00
        CHASE_CC_TAKEOFFS 1
        GUID {0C3271F4-E233-9088-9B25-A722FAE7C579}
        IGNTEMPO 0 120 4 4
        SRCCOLOR 21
        VELLANE -1 100 0
        CFGEDITVIEW 0 0.045808 45 12 0 -1 0 0 0 0.5
        KEYSNAP 0
        TRACKSEL 0
        EVTFILTER 0 -1 -1 -1 -1 0 0 0 0 -1 -1 -1 -1 0 -1 0 -1 -1
        CFGEDIT 1 1 0 1 0 0 1 1 1 1 1 1 58 171 1253 866 0 0 0 0 0.25 0 0 0 0 0.5 0 0 1 64
      >
    >
    <ITEM
      POSITION 40
      SNAPOFFS 0
      LENGTH 8
      LOOP 1
      ALLTAKES 0
      FADEIN 1 0 0 1 0 0
      FADEOUT 1 0 0 1 0 0
      MUTE 0
      SEL 1
      IGUID {2A95A033-16EC-4E0C-A199-1AF7A4322AF6}
      IID 15
      NAME "01-Recorded MIDI"
      VOLPAN 1 0 1 -1
      SOFFS 0 0
      PLAYRATE 1 1 0 -1 0 0.0021
      CHANMODE 0
      GUID {D3426790-AE56-3C37-59CF-1710EB9BB18D}
      RECPASS 1
      <SOURCE MIDI
        HASDATA 1 960 QN
        CCINTERP 32
        POOLEDEVTS {865ED2B4-9B5D-7893-3CEB-79225DAEC12F}
        E 0 90 3c 48
        E 0 90 40 48
        E 0 90 43 48
        E 1920 80 3c 00
        E 0 80 40 00
        E 0 80 43 00
        E 0 90 3c 48
        E 0 90 40 48
        E 0 90 43 48
        E 260 80 3c 00
        E 0 80 40 00
        E 0 80 43 00
        E 440 90 3c 48
        E 0 90 40 48
        E 0 90 43 48
        E 260 80 3c 00
        E 0 80 40 00
        E 0 80 43 00
        e 514 90 3c 48
        e 0 90 40 48
        e 0 90 43 48
        e 260 80 3c 00
        e 0 80 40 00
        e 0 80 43 00
        E 186 90 43 48
        E 0 90 47 48
        E 20 90 40 48
        E 1900 80 43 00
        E 0 80 47 00
        E 0 80 40 00
        E 0 90 43 48
        E 0 90 47 48
        E 20 90 40 48
        E 240 80 43 00
        E 0 80 47 00
        E 0 80 40 00
        E 440 90 43 48
        E 0 90 47 48
        E 20 90 40 48
        E 240 80 43 00
        E 0 80 47 00
        E 0 80 40 00
        e 514 90 43 48
        e 0 90 47 48
        e 20 90 40 48
        e 240 80 43 00
        e 0 80 47 00
        e 0 80 40 00
        E 186 90 41 48
        E 0 90 45 48
        E 0 90 48 48
        E 1920 80 41 00
        E 0 80 45 00
        E 0 80 48 00
        E 0 90 41 48
        E 0 90 45 48
        E 0 90 48 48
        E 260 80 41 00
        E 0 80 45 00
        E 0 80 48 00
        E 440 90 41 48
        E 0 90 45 48
        E 0 90 48 48
        E 260 80 41 00
        E 0 80 45 00
        E 0 80 48 00
        e 514 90 41 48
        e 0 90 45 48
        e 0 90 48 48
        e 260 80 41 00
        e 0 80 45 00
        e 0 80 48 00
        E 162 90 3e 48
        E 24 90 41 48
        E 0 90 45 48
        E 1896 90 3e 48
        E 24 80 3e 00
        E 0 80 41 00
        E 0 80 45 00
        E 0 90 41 48
        E 0 90 45 48
        E 260 80 3e 00
        E 0 80 41 00
        E 0 80 45 00
        E 416 90 3e 48
        E 24 90 41 48
        E 0 90 45 48
        E 260 80 3e 00
        E 0 80 41 00
        E 0 80 45 00
        e 490 90 3e 48
        e 24 90 41 48
        e 0 90 45 48
        e 260 80 3e 00
        e 0 80 41 00
        e 0 80 45 00
        E 186 b0 7b 00
        CHASE_CC_TAKEOFFS 1
        GUID {040E7AF8-3572-5D91-3C86-797AEE7444D4}
        IGNTEMPO 0 120 4 4
        SRCCOLOR 22
        VELLANE -1 100 0
        CFGEDITVIEW 0 0.045808 45 12 0 -1 0 0 0 0.5
        KEYSNAP 0
        TRACKSEL 0
        EVTFILTER 0 -1 -1 -1 -1 0 0 0 0 -1 -1 -1 -1 0 -1 0 -1 -1
        CFGEDIT 1 1 0 1 0 0 1 1 1 1 1 1 58 171 1253 866 0 0 0 0 0.25 0 0 0 0 0.5 0 0 1 64
      >
    >
    <ITEM
      POSITION 48
      SNAPOFFS 0
      LENGTH 8
      LOOP 1
      ALLTAKES 0
      FADEIN 1 0 0 1 0 0
      FADEOUT 1 0 0 1 0 0
      MUTE 0
      SEL 1
      IGUID {F0031A10-E6A1-B1DE-190B-1EFE6F369775}
      IID 16
      NAME "01-Recorded MIDI"
      VOLPAN 1 0 1 -1
      SOFFS 0 0
      PLAYRATE 1 1 0 -1 0 0.0021
      CHANMODE 0
      GUID {7B35C931-0B1B-328C-2839-4C4EB8093D19}
      RECPASS 1
      <SOURCE MIDI
        HASDATA 1 960 QN
        CCINTERP 32
        POOLEDEVTS {4D05AB2F-32E4-1180-6A38-4FD7C93ABB8A}
        E 0 90 3c 48
        E 0 90 40 48
        E 0 90 43 48
        E 1920 80 3c 00
        E 0 80 40 00
        E 0 80 43 00
        E 0 90 3c 48
        E 0 90 40 48
        E 0 90 43 48
        E 260 80 3c 00
        E 0 80 40 00
        E 0 80 43 00
        E 440 90 3c 48
        E 0 90 40 48
        E 0 90 43 48
        E 260 80 3c 00
        E 0 80 40 00
        E 0 80 43 00
        e 514 90 3c 48
        e 0 90 40 48
        e 0 90 43 48
        e 260 80 3c 00
        e 0 80 40 00
        e 0 80 43 00
        E 186 90 43 48
        E 0 90 47 48
        E 20 90 40 48
        E 1900 80 43 00
        E 0 80 47 00
        E 0 80 40 00
        E 0 90 43 48
        E 0 90 47 48
        E 20 90 40 48
        E 240 80 43 00
        E 0 80 47 00
        E 0 80 40 00
        E 440 90 43 48
        E 0 90 47 48
        E 20 90 40 48
        E 240 80 43 00
        E 0 80 47 00
        E 0 80 40 00
        e 514 90 43 48
        e 0 90 47 48
        e 20 90 40 48
        e 240 80 43 00
        e 0 80 47 00
        e 0 80 40 00
        E 186 90 41 48
        E 0 90 45 48
        E 0 90 48 48
        E 1920 80 41 00
        E 0 80 45 00
        E 0 80 48 00
        E 0 90 41 48
        E 0 90 45 48
        E 0 90 48 48
        E 260 80 41 00
        E 0 80 45 00
        E 0 80 48 00
        E 440 90 41 48
        E 0 90 45 48
        E 0 90 48 48
        E 260 80 41 00
        E 0 80 45 00
        E 0 80 48 00
        e 514 90 41 48
        e 0 90 45 48
        e 0 90 48 48
        e 260 80 41 00
        e 0 80 45 00
        e 0 80 48 00
        E 162 90 3e 48
        E 24 90 41 48
        E 0 90 45 48
        E 1896 90 3e 48
        E 24 80 3e 00
        E 0 80 41 00
        E 0 80 45 00
        E 0 90 41 48
        E 0 90 45 48
        E 260 80 3e 00
        E 0 80 41 00
        E 0 80 45 00
        E 416 90 3e 48
        E 24 90 41 48
        E 0 90 45 48
        E 260 80 3e 00
        E 0 80 41 00
        E 0 80 45 00
        e 490 90 3e 48
        e 24 90 41 48
        e 0 90 45 48
        e 260 80 3e 00
        e 0 80 41 00
        e 0 80 45 00
        E 186 b0 7b 00
        CHASE_CC_TAKEOFFS 1
        GUID {2338968B-6CF9-9F40-300F-DEB89D3392EA}
        IGNTEMPO 0 120 4 4
        SRCCOLOR 23
        VELLANE -1 100 0
        CFGEDITVIEW 0 0.045808 45 12 0 -1 0 0 0 0.5
        KEYSNAP 0
        TRACKSEL 0
        EVTFILTER 0 -1 -1 -1 -1 0 0 0 0 -1 -1 -1 -1 0 -1 0 -1 -1
        CFGEDIT 1 1 0 1 0 0 1 1 1 1 1 1 58 171 1253 866 0 0 0 0 0.25 0 0 0 0 0.5 0 0 1 64
      >
    >
    <ITEM
      POSITION 56
      SNAPOFFS 0
      LENGTH 8
      LOOP 1
      ALLTAKES 0
      FADEIN 1 0 0 1 0 0
      FADEOUT 1 0 0 1 0 0
      MUTE 0
      SEL 1
      IGUID {441D71D0-0D48-0691-A5F4-A8E5C4B28298}
      IID 17
      NAME "01-Recorded MIDI"
      VOLPAN 1 0 1 -1
      SOFFS 0 0
      PLAYRATE 1 1 0 -1 0 0.0021
      CHANMODE 0
      GUID {D3C638C7-64FA-5A12-FBC0-B01942C7E7A8}
      RECPASS 1
      <SOURCE MIDI
        HASDATA 1 960 QN
        CCINTERP 32
        POOLEDEVTS {0D653905-BC1E-0761-D290-B4DAEFFCA3CD}
        E 0 90 3c 48
        E 0 90 40 48
        E 0 90 43 48
        E 1920 80 3c 00
        E 0 80 40 00
        E 0 80 43 00
        E 0 90 3c 48
        E 0 90 40 48
        E 0 90 43 48
        E 260 80 3c 00
        E 0 80 40 00
        E 0 80 43 00
        E 440 90 3c 48
        E 0 90 40 48
        E 0 90 43 48
        E 260 80 3c 00
        E 0 80 40 00
        E 0 80 43 00
        e 514 90 3c 48
        e 0 90 40 48
        e 0 90 43 48
        e 260 80 3c 00
        e 0 80 40 00
        e 0 80 43 00
        E 186 90 43 48
        E 0 90 47 48
        E 20 90 40 48
        E 1900 80 43 00
        E 0 80 47 00
        E 0 80 40 00
        E 0 90 43 48
        E 0 90 47 48
        E 20 90 40 48
        E 240 80 43 00
        E 0 80 47 00
        E 0 80 40 00
        E 440 90 43 48
        E 0 90 47 48
        E 20 90 40 48
        E 240 80 43 00
        E 0 80 47 00
        E 0 80 40 00
        e 514 90 43 48
        e 0 90 47 48
        e 20 90 40 48
        e 240 80 43 00
        e 0 80 47 00
        e 0 80 40 00
        E 186 90 41 48
        E 0 90 45 48
        E 0 90 48 48
        E 1920 80 41 00
        E 0 80 45 00
        E 0 80 48 00
        E 0 90 41 48
        E 0 90 45 48
        E 0 90 48 48
        E 260 80 41 00
        E 0 80 45 00
        E 0 80 48 00
        E 440 90 41 48
        E 0 90 45 48
        E 0 90 48 48
        E 260 80 41 00
        E 0 80 45 00
        E 0 80 48 00
        e 514 90 41 48
        e 0 90 45 48
        e 0 90 48 48
        e 260 80 41 00
        e 0 80 45 00
        e 0 80 48 00
        E 162 90 3e 48
        E 24 90 41 48
        E 0 90 45 48
        E 1896 90 3e 48
        E 24 80 3e 00
        E 0 80 41 00
        E 0 80 45 00
        E 0 90 41 48
        E 0 90 45 48
        E 260 80 3e 00
        E 0 80 41 00
        E 0 80 45 00
        E 416 90 3e 48
        E 24 90 41 48
        E 0 90 45 48
        E 260 80 3e 00
        E 0 80 41 00
        E 0 80 45 00
        e 490 90 3e 48
        e 24 90 41 48
        e 0 90 45 48
        e 260 80 3e 00
        e 0 80 41 00
        e 0 80 45 00
        E 186 b0 7b 00
        CHASE_CC_TAKEOFFS 1
        GUID {A64857E2-94F8-0990-20DF-4C1E9B5E6251}
        IGNTEMPO 0 120 4 4
        SRCCOLOR 24
        VELLANE -1 100 0
        CFGEDITVIEW 0 0.045808 45 12 0 -1 0 0 0 0.5
        KEYSNAP 0
        TRACKSEL 0
        EVTFILTER 0 -1 -1 -1 -1 0 0 0 0 -1 -1 -1 -1 0 -1 0 -1 -1
        CFGEDIT 1 1 0 1 0 0 1 1 1 1 1 1 58 171 1253 866 0 0 0 0 0.25 0 0 0 0 0.5 0 0 1 64
      >
    >
    <ITEM
      POSITION 64
      SNAPOFFS 0
      LENGTH 8
      LOOP 1
      ALLTAKES 0
      FADEIN 1 0 0 1 0 0
      FADEOUT 1 0 0 1 0 0
      MUTE 0
      SEL 1
      IGUID {B9043898-63B3-BD42-3747-31B41ECBEC4A}
      IID 18
      NAME "01-Recorded MIDI"
      VOLPAN 1 0 1 -1
      SOFFS 0 0
      PLAYRATE 1 1 0 -1 0 0.0021
      CHANMODE 0
      GUID {046107EB-8C90-F426-A5AF-BB08BC47B817}
      RECPASS 1
      <SOURCE MIDI
        HASDATA 1 960 QN
        CCINTERP 32
        POOLEDEVTS {4346A9FC-5351-21F4-F83B-B840C86B8AEE}
        E 0 90 3c 48
        E 0 90 40 48
        E 0 90 43 48
        E 1920 80 3c 00
        E 0 80 40 00
        E 0 80 43 00
        E 0 90 3c 48
        E 0 90 40 48
        E 0 90 43 48
        E 260 80 3c 00
        E 0 80 40 00
        E 0 80 43 00
        E 440 90 3c 48
        E 0 90 40 48
        E 0 90 43 48
        E 260 80 3c 00
        E 0 80 40 00
        E 0 80 43 00
        e 514 90 3c 48
        e 0 90 40 48
        e 0 90 43 48
        e 260 80 3c 00
        e 0 80 40 00
        e 0 80 43 00
        E 186 90 43 48
        E 0 90 47 48
        E 20 90 40 48
        E 1900 80 43 00
        E 0 80 47 00
        E 0 80 40 00
        E 0 90 43 48
        E 0 90 47 48
        E 20 90 40 48
        E 240 80 43 00
        E 0 80 47 00
        E 0 80 40 00
        E 440 90 43 48
        E 0 90 47 48
        E 20 90 40 48
        E 240 80 43 00
        E 0 80 47 00
        E 0 80 40 00
        e 514 90 43 48
        e 0 90 47 48
        e 20 90 40 48
        e 240 80 43 00
        e 0 80 47 00
        e 0 80 40 00
        E 186 90 41 48
        E 0 90 45 48
        E 0 90 48 48
        E 1920 80 41 00
        E 0 80 45 00
        E 0 80 48 00
        E 0 90 41 48
        E 0 90 45 48
        E 0 90 48 48
        E 260 80 41 00
        E 0 80 45 00
        E 0 80 48 00
        E 440 90 41 48
        E 0 90 45 48
        E 0 90 48 48
        E 260 80 41 00
        E 0 80 45 00
        E 0 80 48 00
        e 514 90 41 48
        e 0 90 45 48
        e 0 90 48 48
        e 260 80 41 00
        e 0 80 45 00
        e 0 80 48 00
        E 162 90 3e 48
        E 24 90 41 48
        E 0 90 45 48
        E 1896 90 3e 48
        E 24 80 3e 00
        E 0 80 41 00
        E 0 80 45 00
        E 0 90 41 48
        E 0 90 45 48
        E 260 80 3e 00
        E 0 80 41 00
        E 0 80 45 00
        E 416 90 3e 48
        E 24 90 41 48
        E 0 90 45 48
        E 260 80 3e 00
        E 0 80 41 00
        E 0 80 45 00
        e 490 90 3e 48
        e 24 90 41 48
        e 0 90 45 48
        e 260 80 3e 00
        e 0 80 41 00
        e 0 80 45 00
        E 186 b0 7b 00
        CHASE_CC_TAKEOFFS 1
        GUID {19362806-85F2-5D9E-E1F9-07BE0CF3D16E}
        IGNTEMPO 0 120 4 4
        SRCCOLOR 25
        VELLANE -1 100 0
        CFGEDITVIEW 0 0.045808 45 12 0 -1 0 0 0 0.5
        KEYSNAP 0
        TRACKSEL 0
        EVTFILTER 0 -1 -1 -1 -1 0 0 0 0 -1 -1 -1 -1 0 -1 0 -1 -1
        CFGEDIT 1 1 0 1 0 0 1 1 1 1 1 1 58 171 1253 866 0 0 0 0 0.25 0 0 0 0 0.5 0 0 1 64
      >
    >
    <ITEM
      POSITION 72
      SNAPOFFS 0
      LENGTH 8
      LOOP 1
      ALLTAKES 0
      FADEIN 1 0 0 1 0 0
      FADEOUT 1 0 0 1 0 0
      MUTE 0
      SEL 1
      IGUID {D96B1CEB-82AE-7875-7B86-96520BF8F321}
      IID 19
      NAME "01-Recorded MIDI"
      VOLPAN 1 0 1 -1
      SOFFS 0 0
      PLAYRATE 1 1 0 -1 0 0.0021
      CHANMODE 0
      GUID {68452D42-60C7-57DD-8D11-74F9D7518D39}
      RECPASS 1
      <SOURCE MIDI
        HASDATA 1 960 QN
        CCINTERP 32
        POOLEDEVTS {D0A18050-4AB9-589F-60F9-1D52194F7D58}
        E 0 90 3c 48
        E 0 90 40 48
        E 0 90 43 48
        E 1920 80 3c 00
        E 0 80 40 00
        E 0 80 43 00
        E 0 90 3c 48
        E 0 90 40 48
        E 0 90 43 48
        E 260 80 3c 00
        E 0 80 40 00
        E 0 80 43 00
        E 440 90 3c 48
        E 0 90 40 48
        E 0 90 43 48
        E 260 80 3c 00
        E 0 80 40 00
        E 0 80 43 00
        e 514 90 3c 48
        e 0 90 40 48
        e 0 90 43 48
        e 260 80 3c 00
        e 0 80 40 00
        e 0 80 43 00
        E 186 90 43 48
        E 0 90 47 48
        E 20 90 40 48
        E 1900 80 43 00
        E 0 80 47 00
        E 0 80 40 00
        E 0 90 43 48
        E 0 90 47 48
        E 20 90 40 48
        E 240 80 43 00
        E 0 80 47 00
        E 0 80 40 00
        E 440 90 43 48
        E 0 90 47 48
        E 20 90 40 48
        E 240 80 43 00
        E 0 80 47 00
        E 0 80 40 00
        e 514 90 43 48
        e 0 90 47 48
        e 20 90 40 48
        e 240 80 43 00
        e 0 80 47 00
        e 0 80 40 00
        E 186 90 41 48
        E 0 90 45 48
        E 0 90 48 48
        E 1920 80 41 00
        E 0 80 45 00
        E 0 80 48 00
        E 0 90 41 48
        E 0 90 45 48
        E 0 90 48 48
        E 260 80 41 00
        E 0 80 45 00
        E 0 80 48 00
        E 440 90 41 48
        E 0 90 45 48
        E 0 90 48 48
        E 260 80 41 00
        E 0 80 45 00
        E 0 80 48 00
        e 514 90 41 48
        e 0 90 45 48
        e 0 90 48 48
        e 260 80 41 00
        e 0 80 45 00
        e 0 80 48 00
        E 162 90 3e 48
        E 24 90 41 48
        E 0 90 45 48
        E 1896 90 3e 48
        E 24 80 3e 00
        E 0 80 41 00
        E 0 80 45 00
        E 0 90 41 48
        E 0 90 45 48
        E 260 80 3e 00
        E 0 80 41 00
        E 0 80 45 00
        E 416 90 3e 48
        E 24 90 41 48
        E 0 90 45 48
        E 260 80 3e 00
        E 0 80 41 00
        E 0 80 45 00
        e 490 90 3e 48
        e 24 90 41 48
        e 0 90 45 48
        e 260 80 3e 00
        e 0 80 41 00
        e 0 80 45 00
        E 186 b0 7b 00
        CHASE_CC_TAKEOFFS 1
        GUID {6844F8A9-6BE9-023C-4A46-0A676470C99B}
        IGNTEMPO 0 120 4 4
        SRCCOLOR 26
        VELLANE -1 100 0
        CFGEDITVIEW 0 0.045808 45 12 0 -1 0 0 0 0.5
        KEYSNAP 0
        TRACKSEL 0
        EVTFILTER 0 -1 -1 -1 -1 0 0 0 0 -1 -1 -1 -1 0 -1 0 -1 -1
        CFGEDIT 1 1 0 1 0 0 1 1 1 1 1 1 58 171 1253 866 0 0 0 0 0.25 0 0 0 0 0.5 0 0 1 64
      >
    >
    <ITEM
      POSITION 80
      SNAPOFFS 0
      LENGTH 8
      LOOP 1
      ALLTAKES 0
      FADEIN 1 0 0 1 0 0
      FADEOUT 1 0 0 1 0 0
      MUTE 0
      SEL 1
      IGUID {44CDACC7-8B3D-45DE-DCCA-31A5BEC14205}
      IID 20
      NAME "01-Recorded MIDI"
      VOLPAN 1 0 1 -1
      SOFFS 0 0
      PLAYRATE 1 1 0 -1 0 0.0021
      CHANMODE 0
      GUID {EBE7B91E-BF13-B05D-8BD1-A06D2109AAE4}
      RECPASS 1
      <SOURCE MIDI
        HASDATA 1 960 QN
        CCINTERP 32
        POOLEDEVTS {85985674-1C6D-2FE2-4C2F-7E911040B560}
        E 0 90 3c 48
        E 0 90 40 48
        E 0 90 43 48
        E 1920 80 3c 00
        E 0 80 40 00
        E 0 80 43 00
        E 0 90 3c 48
        E 0 90 40 48
        E 0 90 43 48
        E 260 80 3c 00
        E 0 80 40 00
        E 0 80 43 00
        E 440 90 3c 48
        E 0 90 40 48
        E 0 90 43 48
        E 260 80 3c 00
        E 0 80 40 00
        E 0 80 43 00
        e 514 90 3c 48
        e 0 90 40 48
        e 0 90 43 48
        e 260 80 3c 00
        e 0 80 40 00
        e 0 80 43 00
        E 186 90 43 48
        E 0 90 47 48
        E 20 90 40 48
        E 1900 80 43 00
        E 0 80 47 00
        E 0 80 40 00
        E 0 90 43 48
        E 0 90 47 48
        E 20 90 40 48
        E 240 80 43 00
        E 0 80 47 00
        E 0 80 40 00
        E 440 90 43 48
        E 0 90 47 48
        E 20 90 40 48
        E 240 80 43 00
        E 0 80 47 00
        E 0 80 40 00
        e 514 90 43 48
        e 0 90 47 48
        e 20 90 40 48
        e 240 80 43 00
        e 0 80 47 00
        e 0 80 40 00
        E 186 90 41 48
        E 0 90 45 48
        E 0 90 48 48
        E 1920 80 41 00
        E 0 80 45 00
        E 0 80 48 00
        E 0 90 41 48
        E 0 90 45 48
        E 0 90 48 48
        E 260 80 41 00
        E 0 80 45 00
        E 0 80 48 00
        E 440 90 41 48
        E 0 90 45 48
        E 0 90 48 48
        E 260 80 41 00
        E 0 80 45 00
        E 0 80 48 00
        e 514 90 41 48
        e 0 90 45 48
        e 0 90 48 48
        e 260 80 41 00
        e 0 80 45 00
        e 0 80 48 00
        E 162 90 3e 48
        E 24 90 41 48
        E 0 90 45 48
        E 1896 90 3e 48
        E 24 80 3e 00
        E 0 80 41 00
        E 0 80 45 00
        E 0 90 41 48
        E 0 90 45 48
        E 260 80 3e 00
        E 0 80 41 00
        E 0 80 45 00
        E 416 90 3e 48
        E 24 90 41 48
        E 0 90 45 48
        E 260 80 3e 00
        E 0 80 41 00
        E 0 80 45 00
        e 490 90 3e 48
        e 24 90 41 48
        e 0 90 45 48
        e 260 80 3e 00
        e 0 80 41 00
        e 0 80 45 00
        E 186 b0 7b 00
        CHASE_CC_TAKEOFFS 1
        GUID {E611ADB6-4869-6CCA-8E83-3954D5E743B1}
        IGNTEMPO 0 120 4 4
        SRCCOLOR 27
        VELLANE -1 100 0
        CFGEDITVIEW 0 0.045808 45 12 0 -1 0 0 0 0.5
        KEYSNAP 0
        TRACKSEL 0
        EVTFILTER 0 -1 -1 -1 -1 0 0 0 0 -1 -1 -1 -1 0 -1 0 -1 -1
        CFGEDIT 1 1 0 1 0 0 1 1 1 1 1 1 58 171 1253 866 0 0 0 0 0.25 0 0 0 0 0.5 0 0 1 64
      >
    >
    <ITEM
      POSITION 88
      SNAPOFFS 0
      LENGTH 8
      LOOP 1
      ALLTAKES 0
      FADEIN 1 0 0 1 0 0
      FADEOUT 1 0 0 1 0 0
      MUTE 0
      SEL 1
      IGUID {939A0F3C-BD95-A33A-A538-2F49161B465B}
      IID 21
      NAME "01-Recorded MIDI"
      VOLPAN 1 0 1 -1
      SOFFS 0 0
      PLAYRATE 1 1 0 -1 0 0.0021
      CHANMODE 0
      GUID {1DF1B170-0006-7DFE-9BA4-5BA1709300C4}
      RECPASS 1
      <SOURCE MIDI
        HASDATA 1 960 QN
        CCINTERP 32
        POOLEDEVTS {142779F0-0FD4-EECD-3230-F3EA4CF7E403}
        E 0 90 3c 48
        E 0 90 40 48
        E 0 90 43 48
        E 1920 80 3c 00
        E 0 80 40 00
        E 0 80 43 00
        E 0 90 3c 48
        E 0 90 40 48
        E 0 90 43 48
        E 260 80 3c 00
        E 0 80 40 00
        E 0 80 43 00
        E 440 90 3c 48
        E 0 90 40 48
        E 0 90 43 48
        E 260 80 3c 00
        E 0 80 40 00
        E 0 80 43 00
        e 514 90 3c 48
        e 0 90 40 48
        e 0 90 43 48
        e 260 80 3c 00
        e 0 80 40 00
        e 0 80 43 00
        E 186 90 43 48
        E 0 90 47 48
        E 20 90 40 48
        E 1900 80 43 00
        E 0 80 47 00
        E 0 80 40 00
        E 0 90 43 48
        E 0 90 47 48
        E 20 90 40 48
        E 240 80 43 00
        E 0 80 47 00
        E 0 80 40 00
        E 440 90 43 48
        E 0 90 47 48
        E 20 90 40 48
        E 240 80 43 00
        E 0 80 47 00
        E 0 80 40 00
        e 514 90 43 48
        e 0 90 47 48
        e 20 90 40 48
        e 240 80 43 00
        e 0 80 47 00
        e 0 80 40 00
        E 186 90 41 48
        E 0 90 45 48
        E 0 90 48 48
        E 1920 80 41 00
        E 0 80 45 00
        E 0 80 48 00
        E 0 90 41 48
        E 0 90 45 48
        E 0 90 48 48
        E 260 80 41 00
        E 0 80 45 00
        E 0 80 48 00
        E 440 90 41 48
        E 0 90 45 48
        E 0 90 48 48
        E 260 80 41 00
        E 0 80 45 00
        E 0 80 48 00
        e 514 90 41 48
        e 0 90 45 48
        e 0 90 48 48
        e 260 80 41 00
        e 0 80 45 00
        e 0 80 48 00
        E 162 90 3e 48
        E 24 90 41 48
        E 0 90 45 48
        E 1896 90 3e 48
        E 24 80 3e 00
        E 0 80 41 00
        E 0 80 45 00
        E 0 90 41 48
        E 0 90 45 48
        E 260 80 3e 00
        E 0 80 41 00
        E 0 80 45 00
        E 416 90 3e 48
        E 24 90 41 48
        E 0 90 45 48
        E 260 80 3e 00
        E 0 80 41 00
        E 0 80 45 00
        e 490 90 3e 48
        e 24 90 41 48
        e 0 90 45 48
        e 260 80 3e 00
        e 0 80 41 00
        e 0 80 45 00
        E 186 b0 7b 00
        CHASE_CC_TAKEOFFS 1
        GUID {C762B555-17FC-D765-5340-11D3487D2955}
        IGNTEMPO 0 120 4 4
        SRCCOLOR 28
        VELLANE -1 100 0
        CFGEDITVIEW 0 0.045808 45 12 0 -1 0 0 0 0.5
        KEYSNAP 0
        TRACKSEL 0
        EVTFILTER 0 -1 -1 -1 -1 0 0 0 0 -1 -1 -1 -1 0 -1 0 -1 -1
        CFGEDIT 1 1 0 1 0 0 1 1 1 1 1 1 58 171 1253 866 0 0 0 0 0.25 0 0 0 0 0.5 0 0 1 64
      >
    >
  >
  <TRACK {5B421CEE-DBCE-6C18-08FA-2B1CE5ED669F}
    NAME ""
    PEAKCOL 16576
    BEAT -1
    AUTOMODE 0
    VOLPAN 0.00052194381917 0 -1 -1 1
    MUTESOLO 0 0 0
    IPHASE 0
    PLAYOFFS 0 1
    ISBUS 0 0
    BUSCOMP 0 0 0 0 0
    SHOWINMIX 1 0.6667 0.5 1 0.5 0 0 0
    FREEMODE 0
    SEL 0
    REC 0 5056 1 0 0 0 0
    VU 2
    TRACKHEIGHT 21 0 0
    INQ 0 0 0 0.5 100 0 0 100
    NCHAN 2
    FX 0
    TRACKID {5B421CEE-DBCE-6C18-08FA-2B1CE5ED669F}
    PERF 0
    MIDIOUT -1
    MAINSEND 1 0
    <FXCHAIN
      WNDRECT 346 266 902 608
      SHOW 0
      LASTSEL 5
      DOCKED 0
      BYPASS 0 0 0
      <VST "VST: ReaEQ (Cockos)" reaeq.vst.so 0 "" 1919247729<56535472656571726561657100000000> ""
        cWVlcu5e7f4CAAAAAQAAAAAAAAACAAAAAAAAAAIAAAABAAAAAAAAAAIAAAAAAAAAqAAAAAEAAAAAABAA
        IQAAAAQAAAAEAAAAAQAAAEC4Xhmm+DRAAAAAAAAA8D8AAAAAAAAAQAEIAAAAAQAAAAAAAAAAwHJAAAAAAAAA8D8AAAAAAAAAQAEIAAAAAQAAAAAAAAAAQI9AAAAAAAAA
        8D8AAAAAAAAAQAEDAAAAAQAAAAABaCorbdRAAAAAAAAA8D8AAAAAAAAAQAEBAAAAAQAAAAAAAAAAAPA/AAAAAJoCAACcAQAA
        AEhpZ2ggbG93IHBhc3MAEAAAAA==
      >
      PRESETNAME "High low pass"
      FLOATPOS 0 0 0 0
      FXID {983C13E1-B224-3554-8C74-53B042F85C89}
      WAK 0 0
      BYPASS 0 0 0
      <VST "VSTi: ReaSynth (Cockos)" reasynth.vst.so 0 "" 1919251321<5653547265737972656173796E746800> ""
        eXNlcu9e7f4AAAAAAgAAAAEAAAAAAAAAAgAAAAAAAAA8AAAAAAAAAAAAEAA=
        776t3g3wrd6lm8Q7F7fROgAAAAAAAAAAAAAAAJCNuT3oZ4g9AACAPwAAAD8AAIA/AAAAAAAAAD8AAAAA
        AAAQAAAA
      >
      FLOATPOS 0 0 0 0
      FXID {E48171F0-EC51-510E-7E2D-F872CA07A504}
      WAK 0 0
      BYPASS 0 0 0
      <JS guitar/amp-model ""
        "Dumble Overdrive Special - Tweed Deluxe.wav" -21.000000 1.000000 0.000000 0.000000 -1.000000 - - - - - - - - - - - - - - - - - - - - - - - - - - - - - - - - - - - - - - - - - - - - - - - - - - - - - - - - - - 
      >
      FLOATPOS 0 0 0 0
      FXID {D6911DFA-76FF-1971-582D-FFD12E02B48C}
      WAK 0 0
      BYPASS 0 0 0
      <VST "VST: ReaComp (Cockos)" reacomp.vst.so 0 "" 1919247213<5653547265636D726561636F6D700000> ""
        bWNlcu9e7f4EAAAAAQAAAAAAAAACAAAAAAAAAAQAAAAAAAAACAAAAAAAAAACAAAAAQAAAAAAAAACAAAAAAAAAFQAAAAAAAAAAAAQAA==
        776t3g3wrd5FoYg9/AWpPKWbxDsK16M8AAAAAAAAAAAAAIA/AAAAAAAAAAAAAAAAnNEHMwAAgD8AAAAAzMxMPQAAAAAAAAAAAAAAAAAAgD7YiZ09
        AAAQAAAA
      >
      FLOATPOS 0 0 0 0
      FXID {F572614C-7948-6416-2E93-E00F505D14BC}
      WAK 0 0
      BYPASS 0 0 0
      <VST "VST: ReaDelay (Cockos)" readelay.vst.so 0 "" 1919247468<5653547265646C72656164656C617900> ""
        bGRlcu5e7f4CAAAAAQAAAAAAAAACAAAAAAAAAAIAAAABAAAAAAAAAAIAAAAAAAAA/AAAAAEAAAAAAAAA
        AAAAAAAAAAAFAAAALAAAAAIAAAAEAAAAAACAPwAAgD8AAAAAAACAPwAAAAAAAIA7vTeGNQAAgD8AAAAAAACAPwAAgD8AAIA/AAAAAAAAAAAAAIA/AAAAAAAAADwAAAAA
        AACAPwAAAAAAAIA/AACAP+87NT8AAIA/AAAAAAAAgD8AAAAAAABAPL03hjUAAIA/AAAAAAAAgD8AAIA/zk0AP6abhD4AAAAAAACAPwAAAAAAAIA8vTeGNQAAgD8AAAAA
        AACAPwAAgD8aqrU+pHA9PwAAAAAAAIA/AAAAAAAAoDy9N4Y1AACAPwAAAAAAAIA/AACAP/npAD4AAAA/
        AHN0b2NrIC0gYmFzaWMgNSB0YXAgcGluZyBwb25nAAAAAAA=
      >
      PRESETNAME "stock - basic 5 tap ping pong"
      FLOATPOS 0 0 0 0
      FXID {2FC217C1-26D3-5718-FCBD-DCBF57185954}
      WAK 0 0
      BYPASS 0 0 0
      <VST "VST: ReaVerb (Cockos)" reaverb.vst.so 0 "" 1919252066<56535472657662726561766572620000> ""
        YnZlcu5e7f4CAAAAAQAAAAAAAAACAAAAAAAAAAIAAAABAAAAAAAAAAIAAAAAAAAAcAAAAAEAAAAAAAAA
        AAAAwcybgD4AAIA/AAAAAAAAgD8AAIA/AAAAPwAAgD8AAAAAVkVSQkdFTgAYAAAAAAAAAJHgV0QdrLRA3rK7QsHIjEIAAIC/RUNIT0dFTgAcAAAAy/i2QLUjdUJdzdM/
        osdfP5lRrzyRzYxAnMQAPw==
        AHN3ZWV0dmVyYm8AAAAAAA==
      >
      PRESETNAME sweetverbo
      FLOATPOS 0 0 0 0
      FXID {A1EAA2EA-8450-7B77-D38E-C5BFF1DCFA58}
      WAK 0 0
    >
    <ITEM
      POSITION 0
      SNAPOFFS 0
      LENGTH 8
      LOOP 1
      ALLTAKES 0
      FADEIN 1 0 0 1 0 0
      FADEOUT 1 0 0 1 0 0
      MUTE 0
      SEL 1
      IGUID {01353066-59DE-BA3D-D303-DA8CD9780EF7}
      IID 10
      NAME "01-Recorded MIDI"
      VOLPAN 1 0 1 -1
      SOFFS 0 0
      PLAYRATE 1 1 0 -1 0 0.0021
      CHANMODE 0
      GUID {837A60AA-DA8B-525A-A787-6434896F1E86}
      RECPASS 1
      <SOURCE MIDI
        HASDATA 1 960 QN
        CCINTERP 32
        POOLEDEVTS {BF5FB955-7E17-EA27-6642-1A1FDD3FC17A}
        E 0 90 3c 48
        E 0 90 40 48
        E 0 90 43 48
        E 1920 80 3c 00
        E 0 80 40 00
        E 0 80 43 00
        E 0 90 3c 48
        E 0 90 40 48
        E 0 90 43 48
        E 260 80 3c 00
        E 0 80 40 00
        E 0 80 43 00
        E 440 90 3c 48
        E 0 90 40 48
        E 0 90 43 48
        E 260 80 3c 00
        E 0 80 40 00
        E 0 80 43 00
        e 514 90 3c 48
        e 0 90 40 48
        e 0 90 43 48
        e 260 80 3c 00
        e 0 80 40 00
        e 0 80 43 00
        E 186 90 43 48
        E 0 90 47 48
        E 20 90 40 48
        E 1900 80 43 00
        E 0 80 47 00
        E 0 80 40 00
        E 0 90 43 48
        E 0 90 47 48
        E 20 90 40 48
        E 240 80 43 00
        E 0 80 47 00
        E 0 80 40 00
        E 440 90 43 48
        E 0 90 47 48
        E 20 90 40 48
        E 240 80 43 00
        E 0 80 47 00
        E 0 80 40 00
        e 514 90 43 48
        e 0 90 47 48
        e 20 90 40 48
        e 240 80 43 00
        e 0 80 47 00
        e 0 80 40 00
        E 186 90 41 48
        E 0 90 45 48
        E 0 90 48 48
        E 1920 80 41 00
        E 0 80 45 00
        E 0 80 48 00
        E 0 90 41 48
        E 0 90 45 48
        E 0 90 48 48
        E 260 80 41 00
        E 0 80 45 00
        E 0 80 48 00
        E 440 90 41 48
        E 0 90 45 48
        E 0 90 48 48
        E 260 80 41 00
        E 0 80 45 00
        E 0 80 48 00
        e 514 90 41 48
        e 0 90 45 48
        e 0 90 48 48
        e 260 80 41 00
        e 0 80 45 00
        e 0 80 48 00
        E 162 90 3e 48
        E 24 90 41 48
        E 0 90 45 48
        E 1896 90 3e 48
        E 24 80 3e 00
        E 0 80 41 00
        E 0 80 45 00
        E 0 90 41 48
        E 0 90 45 48
        E 260 80 3e 00
        E 0 80 41 00
        E 0 80 45 00
        E 416 90 3e 48
        E 24 90 41 48
        E 0 90 45 48
        E 260 80 3e 00
        E 0 80 41 00
        E 0 80 45 00
        e 490 90 3e 48
        e 24 90 41 48
        e 0 90 45 48
        e 260 80 3e 00
        e 0 80 41 00
        e 0 80 45 00
        E 186 b0 7b 00
        CHASE_CC_TAKEOFFS 1
        GUID {7B9D708B-43E1-C8D4-C4B3-87E2A6C27801}
        IGNTEMPO 0 120 4 4
        SRCCOLOR 17
        VELLANE -1 100 0
        CFGEDITVIEW 0 0.045808 45 12 0 -1 0 0 0 0.5
        KEYSNAP 0
        TRACKSEL 0
        EVTFILTER 0 -1 -1 -1 -1 0 0 0 0 -1 -1 -1 -1 0 -1 0 -1 -1
        CFGEDIT 1 1 0 1 0 0 1 1 1 1 1 1 58 171 1253 866 0 0 0 0 0.25 0 0 0 0 0.5 0 0 1 64
      >
    >
    <ITEM
      POSITION 8
      SNAPOFFS 0
      LENGTH 8
      LOOP 1
      ALLTAKES 0
      FADEIN 1 0 0 1 0 0
      FADEOUT 1 0 0 1 0 0
      MUTE 0
      SEL 1
      IGUID {F529685F-03FD-482E-6A9E-3C273954CFA9}
      IID 11
      NAME "01-Recorded MIDI"
      VOLPAN 1 0 1 -1
      SOFFS 0 0
      PLAYRATE 1 1 0 -1 0 0.0021
      CHANMODE 0
      GUID {FD18F69B-1FB9-BC6E-6BB1-2EF4E0197CE5}
      RECPASS 1
      <SOURCE MIDI
        HASDATA 1 960 QN
        CCINTERP 32
        POOLEDEVTS {47AAC224-D829-5E18-BDB1-B94329025D4B}
        E 0 90 3c 48
        E 0 90 40 48
        E 0 90 43 48
        E 1920 80 3c 00
        E 0 80 40 00
        E 0 80 43 00
        E 0 90 3c 48
        E 0 90 40 48
        E 0 90 43 48
        E 260 80 3c 00
        E 0 80 40 00
        E 0 80 43 00
        E 440 90 3c 48
        E 0 90 40 48
        E 0 90 43 48
        E 260 80 3c 00
        E 0 80 40 00
        E 0 80 43 00
        e 514 90 3c 48
        e 0 90 40 48
        e 0 90 43 48
        e 260 80 3c 00
        e 0 80 40 00
        e 0 80 43 00
        E 186 90 43 48
        E 0 90 47 48
        E 20 90 40 48
        E 1900 80 43 00
        E 0 80 47 00
        E 0 80 40 00
        E 0 90 43 48
        E 0 90 47 48
        E 20 90 40 48
        E 240 80 43 00
        E 0 80 47 00
        E 0 80 40 00
        E 440 90 43 48
        E 0 90 47 48
        E 20 90 40 48
        E 240 80 43 00
        E 0 80 47 00
        E 0 80 40 00
        e 514 90 43 48
        e 0 90 47 48
        e 20 90 40 48
        e 240 80 43 00
        e 0 80 47 00
        e 0 80 40 00
        E 186 90 41 48
        E 0 90 45 48
        E 0 90 48 48
        E 1920 80 41 00
        E 0 80 45 00
        E 0 80 48 00
        E 0 90 41 48
        E 0 90 45 48
        E 0 90 48 48
        E 260 80 41 00
        E 0 80 45 00
        E 0 80 48 00
        E 440 90 41 48
        E 0 90 45 48
        E 0 90 48 48
        E 260 80 41 00
        E 0 80 45 00
        E 0 80 48 00
        e 514 90 41 48
        e 0 90 45 48
        e 0 90 48 48
        e 260 80 41 00
        e 0 80 45 00
        e 0 80 48 00
        E 162 90 3e 48
        E 24 90 41 48
        E 0 90 45 48
        E 1896 90 3e 48
        E 24 80 3e 00
        E 0 80 41 00
        E 0 80 45 00
        E 0 90 41 48
        E 0 90 45 48
        E 260 80 3e 00
        E 0 80 41 00
        E 0 80 45 00
        E 416 90 3e 48
        E 24 90 41 48
        E 0 90 45 48
        E 260 80 3e 00
        E 0 80 41 00
        E 0 80 45 00
        e 490 90 3e 48
        e 24 90 41 48
        e 0 90 45 48
        e 260 80 3e 00
        e 0 80 41 00
        e 0 80 45 00
        E 186 b0 7b 00
        CHASE_CC_TAKEOFFS 1
        GUID {3131B4E2-B370-E352-A9C5-C8CA31551A86}
        IGNTEMPO 0 120 4 4
        SRCCOLOR 18
        VELLANE -1 100 0
        CFGEDITVIEW 0 0.045808 45 12 0 -1 0 0 0 0.5
        KEYSNAP 0
        TRACKSEL 0
        EVTFILTER 0 -1 -1 -1 -1 0 0 0 0 -1 -1 -1 -1 0 -1 0 -1 -1
        CFGEDIT 1 1 0 1 0 0 1 1 1 1 1 1 58 171 1253 866 0 0 0 0 0.25 0 0 0 0 0.5 0 0 1 64
      >
    >
    <ITEM
      POSITION 16
      SNAPOFFS 0
      LENGTH 8
      LOOP 1
      ALLTAKES 0
      FADEIN 1 0 0 1 0 0
      FADEOUT 1 0 0 1 0 0
      MUTE 0
      SEL 1
      IGUID {B9069F3F-EC39-69D0-628B-533D52ABEBEA}
      IID 12
      NAME "01-Recorded MIDI"
      VOLPAN 1 0 1 -1
      SOFFS 0 0
      PLAYRATE 1 1 0 -1 0 0.0021
      CHANMODE 0
      GUID {75D158DC-17CE-EF9C-25ED-7EBA40A8501E}
      RECPASS 1
      <SOURCE MIDI
        HASDATA 1 960 QN
        CCINTERP 32
        POOLEDEVTS {45D10B08-2322-811F-AE68-18AA715EA611}
        E 0 90 3c 48
        E 0 90 40 48
        E 0 90 43 48
        E 1920 80 3c 00
        E 0 80 40 00
        E 0 80 43 00
        E 0 90 3c 48
        E 0 90 40 48
        E 0 90 43 48
        E 260 80 3c 00
        E 0 80 40 00
        E 0 80 43 00
        E 440 90 3c 48
        E 0 90 40 48
        E 0 90 43 48
        E 260 80 3c 00
        E 0 80 40 00
        E 0 80 43 00
        e 514 90 3c 48
        e 0 90 40 48
        e 0 90 43 48
        e 260 80 3c 00
        e 0 80 40 00
        e 0 80 43 00
        E 186 90 43 48
        E 0 90 47 48
        E 20 90 40 48
        E 1900 80 43 00
        E 0 80 47 00
        E 0 80 40 00
        E 0 90 43 48
        E 0 90 47 48
        E 20 90 40 48
        E 240 80 43 00
        E 0 80 47 00
        E 0 80 40 00
        E 440 90 43 48
        E 0 90 47 48
        E 20 90 40 48
        E 240 80 43 00
        E 0 80 47 00
        E 0 80 40 00
        e 514 90 43 48
        e 0 90 47 48
        e 20 90 40 48
        e 240 80 43 00
        e 0 80 47 00
        e 0 80 40 00
        E 186 90 41 48
        E 0 90 45 48
        E 0 90 48 48
        E 1920 80 41 00
        E 0 80 45 00
        E 0 80 48 00
        E 0 90 41 48
        E 0 90 45 48
        E 0 90 48 48
        E 260 80 41 00
        E 0 80 45 00
        E 0 80 48 00
        E 440 90 41 48
        E 0 90 45 48
        E 0 90 48 48
        E 260 80 41 00
        E 0 80 45 00
        E 0 80 48 00
        e 514 90 41 48
        e 0 90 45 48
        e 0 90 48 48
        e 260 80 41 00
        e 0 80 45 00
        e 0 80 48 00
        E 162 90 3e 48
        E 24 90 41 48
        E 0 90 45 48
        E 1896 90 3e 48
        E 24 80 3e 00
        E 0 80 41 00
        E 0 80 45 00
        E 0 90 41 48
        E 0 90 45 48
        E 260 80 3e 00
        E 0 80 41 00
        E 0 80 45 00
        E 416 90 3e 48
        E 24 90 41 48
        E 0 90 45 48
        E 260 80 3e 00
        E 0 80 41 00
        E 0 80 45 00
        e 490 90 3e 48
        e 24 90 41 48
        e 0 90 45 48
        e 260 80 3e 00
        e 0 80 41 00
        e 0 80 45 00
        E 186 b0 7b 00
        CHASE_CC_TAKEOFFS 1
        GUID {48C567A2-895C-FB9B-FDBA-0ADB7004ABF3}
        IGNTEMPO 0 120 4 4
        SRCCOLOR 19
        VELLANE -1 100 0
        CFGEDITVIEW 0 0.045808 45 12 0 -1 0 0 0 0.5
        KEYSNAP 0
        TRACKSEL 0
        EVTFILTER 0 -1 -1 -1 -1 0 0 0 0 -1 -1 -1 -1 0 -1 0 -1 -1
        CFGEDIT 1 1 0 1 0 0 1 1 1 1 1 1 58 171 1253 866 0 0 0 0 0.25 0 0 0 0 0.5 0 0 1 64
      >
    >
    <ITEM
      POSITION 24
      SNAPOFFS 0
      LENGTH 8
      LOOP 1
      ALLTAKES 0
      FADEIN 1 0 0 1 0 0
      FADEOUT 1 0 0 1 0 0
      MUTE 0
      SEL 1
      IGUID {EA3AC5B3-97A7-7888-33AC-CD4B87B59011}
      IID 13
      NAME "01-Recorded MIDI"
      VOLPAN 1 0 1 -1
      SOFFS 0 0
      PLAYRATE 1 1 0 -1 0 0.0021
      CHANMODE 0
      GUID {D0E04C17-E41C-1F76-2C80-B416F49C644B}
      RECPASS 1
      <SOURCE MIDI
        HASDATA 1 960 QN
        CCINTERP 32
        POOLEDEVTS {1255DAAF-1C58-BC37-DD2D-9FDED57901D5}
        E 0 90 3c 48
        E 0 90 40 48
        E 0 90 43 48
        E 1920 80 3c 00
        E 0 80 40 00
        E 0 80 43 00
        E 0 90 3c 48
        E 0 90 40 48
        E 0 90 43 48
        E 260 80 3c 00
        E 0 80 40 00
        E 0 80 43 00
        E 440 90 3c 48
        E 0 90 40 48
        E 0 90 43 48
        E 260 80 3c 00
        E 0 80 40 00
        E 0 80 43 00
        e 514 90 3c 48
        e 0 90 40 48
        e 0 90 43 48
        e 260 80 3c 00
        e 0 80 40 00
        e 0 80 43 00
        E 186 90 43 48
        E 0 90 47 48
        E 20 90 40 48
        E 1900 80 43 00
        E 0 80 47 00
        E 0 80 40 00
        E 0 90 43 48
        E 0 90 47 48
        E 20 90 40 48
        E 240 80 43 00
        E 0 80 47 00
        E 0 80 40 00
        E 440 90 43 48
        E 0 90 47 48
        E 20 90 40 48
        E 240 80 43 00
        E 0 80 47 00
        E 0 80 40 00
        e 514 90 43 48
        e 0 90 47 48
        e 20 90 40 48
        e 240 80 43 00
        e 0 80 47 00
        e 0 80 40 00
        E 186 90 41 48
        E 0 90 45 48
        E 0 90 48 48
        E 1920 80 41 00
        E 0 80 45 00
        E 0 80 48 00
        E 0 90 41 48
        E 0 90 45 48
        E 0 90 48 48
        E 260 80 41 00
        E 0 80 45 00
        E 0 80 48 00
        E 440 90 41 48
        E 0 90 45 48
        E 0 90 48 48
        E 260 80 41 00
        E 0 80 45 00
        E 0 80 48 00
        e 514 90 41 48
        e 0 90 45 48
        e 0 90 48 48
        e 260 80 41 00
        e 0 80 45 00
        e 0 80 48 00
        E 162 90 3e 48
        E 24 90 41 48
        E 0 90 45 48
        E 1896 90 3e 48
        E 24 80 3e 00
        E 0 80 41 00
        E 0 80 45 00
        E 0 90 41 48
        E 0 90 45 48
        E 260 80 3e 00
        E 0 80 41 00
        E 0 80 45 00
        E 416 90 3e 48
        E 24 90 41 48
        E 0 90 45 48
        E 260 80 3e 00
        E 0 80 41 00
        E 0 80 45 00
        e 490 90 3e 48
        e 24 90 41 48
        e 0 90 45 48
        e 260 80 3e 00
        e 0 80 41 00
        e 0 80 45 00
        E 186 b0 7b 00
        CHASE_CC_TAKEOFFS 1
        GUID {1DE38800-E2A1-41B5-9C8C-3291891093B1}
        IGNTEMPO 0 120 4 4
        SRCCOLOR 20
        VELLANE -1 100 0
        CFGEDITVIEW 0 0.045808 45 12 0 -1 0 0 0 0.5
        KEYSNAP 0
        TRACKSEL 0
        EVTFILTER 0 -1 -1 -1 -1 0 0 0 0 -1 -1 -1 -1 0 -1 0 -1 -1
        CFGEDIT 1 1 0 1 0 0 1 1 1 1 1 1 58 171 1253 866 0 0 0 0 0.25 0 0 0 0 0.5 0 0 1 64
      >
    >
    <ITEM
      POSITION 32
      SNAPOFFS 0
      LENGTH 8
      LOOP 1
      ALLTAKES 0
      FADEIN 1 0 0 1 0 0
      FADEOUT 1 0 0 1 0 0
      MUTE 0
      SEL 1
      IGUID {D9A02276-AE48-C500-723E-7092C81E42AA}
      IID 14
      NAME "01-Recorded MIDI"
      VOLPAN 1 0 1 -1
      SOFFS 0 0
      PLAYRATE 1 1 0 -1 0 0.0021
      CHANMODE 0
      GUID {730380A6-19EA-8230-99CC-E7CFF67CAAE8}
      RECPASS 1
      <SOURCE MIDI
        HASDATA 1 960 QN
        CCINTERP 32
        POOLEDEVTS {CFBE9719-E935-86AF-22E9-0E4905C04982}
        E 0 90 3c 48
        E 0 90 40 48
        E 0 90 43 48
        E 1920 80 3c 00
        E 0 80 40 00
        E 0 80 43 00
        E 0 90 3c 48
        E 0 90 40 48
        E 0 90 43 48
        E 260 80 3c 00
        E 0 80 40 00
        E 0 80 43 00
        E 440 90 3c 48
        E 0 90 40 48
        E 0 90 43 48
        E 260 80 3c 00
        E 0 80 40 00
        E 0 80 43 00
        e 514 90 3c 48
        e 0 90 40 48
        e 0 90 43 48
        e 260 80 3c 00
        e 0 80 40 00
        e 0 80 43 00
        E 186 90 43 48
        E 0 90 47 48
        E 20 90 40 48
        E 1900 80 43 00
        E 0 80 47 00
        E 0 80 40 00
        E 0 90 43 48
        E 0 90 47 48
        E 20 90 40 48
        E 240 80 43 00
        E 0 80 47 00
        E 0 80 40 00
        E 440 90 43 48
        E 0 90 47 48
        E 20 90 40 48
        E 240 80 43 00
        E 0 80 47 00
        E 0 80 40 00
        e 514 90 43 48
        e 0 90 47 48
        e 20 90 40 48
        e 240 80 43 00
        e 0 80 47 00
        e 0 80 40 00
        E 186 90 41 48
        E 0 90 45 48
        E 0 90 48 48
        E 1920 80 41 00
        E 0 80 45 00
        E 0 80 48 00
        E 0 90 41 48
        E 0 90 45 48
        E 0 90 48 48
        E 260 80 41 00
        E 0 80 45 00
        E 0 80 48 00
        E 440 90 41 48
        E 0 90 45 48
        E 0 90 48 48
        E 260 80 41 00
        E 0 80 45 00
        E 0 80 48 00
        e 514 90 41 48
        e 0 90 45 48
        e 0 90 48 48
        e 260 80 41 00
        e 0 80 45 00
        e 0 80 48 00
        E 162 90 3e 48
        E 24 90 41 48
        E 0 90 45 48
        E 1896 90 3e 48
        E 24 80 3e 00
        E 0 80 41 00
        E 0 80 45 00
        E 0 90 41 48
        E 0 90 45 48
        E 260 80 3e 00
        E 0 80 41 00
        E 0 80 45 00
        E 416 90 3e 48
        E 24 90 41 48
        E 0 90 45 48
        E 260 80 3e 00
        E 0 80 41 00
        E 0 80 45 00
        e 490 90 3e 48
        e 24 90 41 48
        e 0 90 45 48
        e 260 80 3e 00
        e 0 80 41 00
        e 0 80 45 00
        E 186 b0 7b 00
        CHASE_CC_TAKEOFFS 1
        GUID {0C3271F4-E233-9088-9B25-A722FAE7C579}
        IGNTEMPO 0 120 4 4
        SRCCOLOR 21
        VELLANE -1 100 0
        CFGEDITVIEW 0 0.045808 45 12 0 -1 0 0 0 0.5
        KEYSNAP 0
        TRACKSEL 0
        EVTFILTER 0 -1 -1 -1 -1 0 0 0 0 -1 -1 -1 -1 0 -1 0 -1 -1
        CFGEDIT 1 1 0 1 0 0 1 1 1 1 1 1 58 171 1253 866 0 0 0 0 0.25 0 0 0 0 0.5 0 0 1 64
      >
    >
    <ITEM
      POSITION 40
      SNAPOFFS 0
      LENGTH 8
      LOOP 1
      ALLTAKES 0
      FADEIN 1 0 0 1 0 0
      FADEOUT 1 0 0 1 0 0
      MUTE 0
      SEL 1
      IGUID {DDA5A77D-9E3B-4F0C-FBD8-D4C4116E8070}
      IID 15
      NAME "01-Recorded MIDI"
      VOLPAN 1 0 1 -1
      SOFFS 0 0
      PLAYRATE 1 1 0 -1 0 0.0021
      CHANMODE 0
      GUID {8FFC71E7-9219-E0A4-0985-5C38B799D3EF}
      RECPASS 1
      <SOURCE MIDI
        HASDATA 1 960 QN
        CCINTERP 32
        POOLEDEVTS {29F3701D-BA24-FAD3-BED0-A2FBE92464EC}
        E 0 90 3c 48
        E 0 90 40 48
        E 0 90 43 48
        E 1920 80 3c 00
        E 0 80 40 00
        E 0 80 43 00
        E 0 90 3c 48
        E 0 90 40 48
        E 0 90 43 48
        E 260 80 3c 00
        E 0 80 40 00
        E 0 80 43 00
        E 440 90 3c 48
        E 0 90 40 48
        E 0 90 43 48
        E 260 80 3c 00
        E 0 80 40 00
        E 0 80 43 00
        e 514 90 3c 48
        e 0 90 40 48
        e 0 90 43 48
        e 260 80 3c 00
        e 0 80 40 00
        e 0 80 43 00
        E 186 90 43 48
        E 0 90 47 48
        E 20 90 40 48
        E 1900 80 43 00
        E 0 80 47 00
        E 0 80 40 00
        E 0 90 43 48
        E 0 90 47 48
        E 20 90 40 48
        E 240 80 43 00
        E 0 80 47 00
        E 0 80 40 00
        E 440 90 43 48
        E 0 90 47 48
        E 20 90 40 48
        E 240 80 43 00
        E 0 80 47 00
        E 0 80 40 00
        e 514 90 43 48
        e 0 90 47 48
        e 20 90 40 48
        e 240 80 43 00
        e 0 80 47 00
        e 0 80 40 00
        E 186 90 41 48
        E 0 90 45 48
        E 0 90 48 48
        E 1920 80 41 00
        E 0 80 45 00
        E 0 80 48 00
        E 0 90 41 48
        E 0 90 45 48
        E 0 90 48 48
        E 260 80 41 00
        E 0 80 45 00
        E 0 80 48 00
        E 440 90 41 48
        E 0 90 45 48
        E 0 90 48 48
        E 260 80 41 00
        E 0 80 45 00
        E 0 80 48 00
        e 514 90 41 48
        e 0 90 45 48
        e 0 90 48 48
        e 260 80 41 00
        e 0 80 45 00
        e 0 80 48 00
        E 162 90 3e 48
        E 24 90 41 48
        E 0 90 45 48
        E 1896 90 3e 48
        E 24 80 3e 00
        E 0 80 41 00
        E 0 80 45 00
        E 0 90 41 48
        E 0 90 45 48
        E 260 80 3e 00
        E 0 80 41 00
        E 0 80 45 00
        E 416 90 3e 48
        E 24 90 41 48
        E 0 90 45 48
        E 260 80 3e 00
        E 0 80 41 00
        E 0 80 45 00
        e 490 90 3e 48
        e 24 90 41 48
        e 0 90 45 48
        e 260 80 3e 00
        e 0 80 41 00
        e 0 80 45 00
        E 186 b0 7b 00
        CHASE_CC_TAKEOFFS 1
        GUID {040E7AF8-3572-5D91-3C86-797AEE7444D4}
        IGNTEMPO 0 120 4 4
        SRCCOLOR 22
        VELLANE -1 100 0
        CFGEDITVIEW 0 0.045808 45 12 0 -1 0 0 0 0.5
        KEYSNAP 0
        TRACKSEL 0
        EVTFILTER 0 -1 -1 -1 -1 0 0 0 0 -1 -1 -1 -1 0 -1 0 -1 -1
        CFGEDIT 1 1 0 1 0 0 1 1 1 1 1 1 58 171 1253 866 0 0 0 0 0.25 0 0 0 0 0.5 0 0 1 64
      >
    >
    <ITEM
      POSITION 48
      SNAPOFFS 0
      LENGTH 8
      LOOP 1
      ALLTAKES 0
      FADEIN 1 0 0 1 0 0
      FADEOUT 1 0 0 1 0 0
      MUTE 0
      SEL 1
      IGUID {82ECA07F-A498-118F-9AB8-F0F6F5A3A699}
      IID 16
      NAME "01-Recorded MIDI"
      VOLPAN 1 0 1 -1
      SOFFS 0 0
      PLAYRATE 1 1 0 -1 0 0.0021
      CHANMODE 0
      GUID {9499D7FB-2FDC-C21D-A0D6-EFDFB4F06A67}
      RECPASS 1
      <SOURCE MIDI
        HASDATA 1 960 QN
        CCINTERP 32
        POOLEDEVTS {EF42FF84-1974-3DF4-78A4-1FAC09F633E3}
        E 0 90 3c 48
        E 0 90 40 48
        E 0 90 43 48
        E 1920 80 3c 00
        E 0 80 40 00
        E 0 80 43 00
        E 0 90 3c 48
        E 0 90 40 48
        E 0 90 43 48
        E 260 80 3c 00
        E 0 80 40 00
        E 0 80 43 00
        E 440 90 3c 48
        E 0 90 40 48
        E 0 90 43 48
        E 260 80 3c 00
        E 0 80 40 00
        E 0 80 43 00
        e 514 90 3c 48
        e 0 90 40 48
        e 0 90 43 48
        e 260 80 3c 00
        e 0 80 40 00
        e 0 80 43 00
        E 186 90 43 48
        E 0 90 47 48
        E 20 90 40 48
        E 1900 80 43 00
        E 0 80 47 00
        E 0 80 40 00
        E 0 90 43 48
        E 0 90 47 48
        E 20 90 40 48
        E 240 80 43 00
        E 0 80 47 00
        E 0 80 40 00
        E 440 90 43 48
        E 0 90 47 48
        E 20 90 40 48
        E 240 80 43 00
        E 0 80 47 00
        E 0 80 40 00
        e 514 90 43 48
        e 0 90 47 48
        e 20 90 40 48
        e 240 80 43 00
        e 0 80 47 00
        e 0 80 40 00
        E 186 90 41 48
        E 0 90 45 48
        E 0 90 48 48
        E 1920 80 41 00
        E 0 80 45 00
        E 0 80 48 00
        E 0 90 41 48
        E 0 90 45 48
        E 0 90 48 48
        E 260 80 41 00
        E 0 80 45 00
        E 0 80 48 00
        E 440 90 41 48
        E 0 90 45 48
        E 0 90 48 48
        E 260 80 41 00
        E 0 80 45 00
        E 0 80 48 00
        e 514 90 41 48
        e 0 90 45 48
        e 0 90 48 48
        e 260 80 41 00
        e 0 80 45 00
        e 0 80 48 00
        E 162 90 3e 48
        E 24 90 41 48
        E 0 90 45 48
        E 1896 90 3e 48
        E 24 80 3e 00
        E 0 80 41 00
        E 0 80 45 00
        E 0 90 41 48
        E 0 90 45 48
        E 260 80 3e 00
        E 0 80 41 00
        E 0 80 45 00
        E 416 90 3e 48
        E 24 90 41 48
        E 0 90 45 48
        E 260 80 3e 00
        E 0 80 41 00
        E 0 80 45 00
        e 490 90 3e 48
        e 24 90 41 48
        e 0 90 45 48
        e 260 80 3e 00
        e 0 80 41 00
        e 0 80 45 00
        E 186 b0 7b 00
        CHASE_CC_TAKEOFFS 1
        GUID {2338968B-6CF9-9F40-300F-DEB89D3392EA}
        IGNTEMPO 0 120 4 4
        SRCCOLOR 23
        VELLANE -1 100 0
        CFGEDITVIEW 0 0.045808 45 12 0 -1 0 0 0 0.5
        KEYSNAP 0
        TRACKSEL 0
        EVTFILTER 0 -1 -1 -1 -1 0 0 0 0 -1 -1 -1 -1 0 -1 0 -1 -1
        CFGEDIT 1 1 0 1 0 0 1 1 1 1 1 1 58 171 1253 866 0 0 0 0 0.25 0 0 0 0 0.5 0 0 1 64
      >
    >
    <ITEM
      POSITION 56
      SNAPOFFS 0
      LENGTH 8
      LOOP 1
      ALLTAKES 0
      FADEIN 1 0 0 1 0 0
      FADEOUT 1 0 0 1 0 0
      MUTE 0
      SEL 1
      IGUID {0BAE8A09-8B65-18ED-DBBC-C8AD7C4E85ED}
      IID 17
      NAME "01-Recorded MIDI"
      VOLPAN 1 0 1 -1
      SOFFS 0 0
      PLAYRATE 1 1 0 -1 0 0.0021
      CHANMODE 0
      GUID {76022F0B-ADD2-1B26-F8E8-E57AD31389C9}
      RECPASS 1
      <SOURCE MIDI
        HASDATA 1 960 QN
        CCINTERP 32
        POOLEDEVTS {27603470-AED0-B265-64CB-5237AA58474E}
        E 0 90 3c 48
        E 0 90 40 48
        E 0 90 43 48
        E 1920 80 3c 00
        E 0 80 40 00
        E 0 80 43 00
        E 0 90 3c 48
        E 0 90 40 48
        E 0 90 43 48
        E 260 80 3c 00
        E 0 80 40 00
        E 0 80 43 00
        E 440 90 3c 48
        E 0 90 40 48
        E 0 90 43 48
        E 260 80 3c 00
        E 0 80 40 00
        E 0 80 43 00
        e 514 90 3c 48
        e 0 90 40 48
        e 0 90 43 48
        e 260 80 3c 00
        e 0 80 40 00
        e 0 80 43 00
        E 186 90 43 48
        E 0 90 47 48
        E 20 90 40 48
        E 1900 80 43 00
        E 0 80 47 00
        E 0 80 40 00
        E 0 90 43 48
        E 0 90 47 48
        E 20 90 40 48
        E 240 80 43 00
        E 0 80 47 00
        E 0 80 40 00
        E 440 90 43 48
        E 0 90 47 48
        E 20 90 40 48
        E 240 80 43 00
        E 0 80 47 00
        E 0 80 40 00
        e 514 90 43 48
        e 0 90 47 48
        e 20 90 40 48
        e 240 80 43 00
        e 0 80 47 00
        e 0 80 40 00
        E 186 90 41 48
        E 0 90 45 48
        E 0 90 48 48
        E 1920 80 41 00
        E 0 80 45 00
        E 0 80 48 00
        E 0 90 41 48
        E 0 90 45 48
        E 0 90 48 48
        E 260 80 41 00
        E 0 80 45 00
        E 0 80 48 00
        E 440 90 41 48
        E 0 90 45 48
        E 0 90 48 48
        E 260 80 41 00
        E 0 80 45 00
        E 0 80 48 00
        e 514 90 41 48
        e 0 90 45 48
        e 0 90 48 48
        e 260 80 41 00
        e 0 80 45 00
        e 0 80 48 00
        E 162 90 3e 48
        E 24 90 41 48
        E 0 90 45 48
        E 1896 90 3e 48
        E 24 80 3e 00
        E 0 80 41 00
        E 0 80 45 00
        E 0 90 41 48
        E 0 90 45 48
        E 260 80 3e 00
        E 0 80 41 00
        E 0 80 45 00
        E 416 90 3e 48
        E 24 90 41 48
        E 0 90 45 48
        E 260 80 3e 00
        E 0 80 41 00
        E 0 80 45 00
        e 490 90 3e 48
        e 24 90 41 48
        e 0 90 45 48
        e 260 80 3e 00
        e 0 80 41 00
        e 0 80 45 00
        E 186 b0 7b 00
        CHASE_CC_TAKEOFFS 1
        GUID {A64857E2-94F8-0990-20DF-4C1E9B5E6251}
        IGNTEMPO 0 120 4 4
        SRCCOLOR 24
        VELLANE -1 100 0
        CFGEDITVIEW 0 0.045808 45 12 0 -1 0 0 0 0.5
        KEYSNAP 0
        TRACKSEL 0
        EVTFILTER 0 -1 -1 -1 -1 0 0 0 0 -1 -1 -1 -1 0 -1 0 -1 -1
        CFGEDIT 1 1 0 1 0 0 1 1 1 1 1 1 58 171 1253 866 0 0 0 0 0.25 0 0 0 0 0.5 0 0 1 64
      >
    >
    <ITEM
      POSITION 64
      SNAPOFFS 0
      LENGTH 8
      LOOP 1
      ALLTAKES 0
      FADEIN 1 0 0 1 0 0
      FADEOUT 1 0 0 1 0 0
      MUTE 0
      SEL 1
      IGUID {CD486C2C-4B4F-93B3-BD19-4AB1CC290E46}
      IID 18
      NAME "01-Recorded MIDI"
      VOLPAN 1 0 1 -1
      SOFFS 0 0
      PLAYRATE 1 1 0 -1 0 0.0021
      CHANMODE 0
      GUID {01323FE2-7221-B9EA-3D3C-C20E26E3ED4A}
      RECPASS 1
      <SOURCE MIDI
        HASDATA 1 960 QN
        CCINTERP 32
        POOLEDEVTS {62CF77C8-B44D-9BE6-A7A1-1784E6F3D84C}
        E 0 90 3c 48
        E 0 90 40 48
        E 0 90 43 48
        E 1920 80 3c 00
        E 0 80 40 00
        E 0 80 43 00
        E 0 90 3c 48
        E 0 90 40 48
        E 0 90 43 48
        E 260 80 3c 00
        E 0 80 40 00
        E 0 80 43 00
        E 440 90 3c 48
        E 0 90 40 48
        E 0 90 43 48
        E 260 80 3c 00
        E 0 80 40 00
        E 0 80 43 00
        e 514 90 3c 48
        e 0 90 40 48
        e 0 90 43 48
        e 260 80 3c 00
        e 0 80 40 00
        e 0 80 43 00
        E 186 90 43 48
        E 0 90 47 48
        E 20 90 40 48
        E 1900 80 43 00
        E 0 80 47 00
        E 0 80 40 00
        E 0 90 43 48
        E 0 90 47 48
        E 20 90 40 48
        E 240 80 43 00
        E 0 80 47 00
        E 0 80 40 00
        E 440 90 43 48
        E 0 90 47 48
        E 20 90 40 48
        E 240 80 43 00
        E 0 80 47 00
        E 0 80 40 00
        e 514 90 43 48
        e 0 90 47 48
        e 20 90 40 48
        e 240 80 43 00
        e 0 80 47 00
        e 0 80 40 00
        E 186 90 41 48
        E 0 90 45 48
        E 0 90 48 48
        E 1920 80 41 00
        E 0 80 45 00
        E 0 80 48 00
        E 0 90 41 48
        E 0 90 45 48
        E 0 90 48 48
        E 260 80 41 00
        E 0 80 45 00
        E 0 80 48 00
        E 440 90 41 48
        E 0 90 45 48
        E 0 90 48 48
        E 260 80 41 00
        E 0 80 45 00
        E 0 80 48 00
        e 514 90 41 48
        e 0 90 45 48
        e 0 90 48 48
        e 260 80 41 00
        e 0 80 45 00
        e 0 80 48 00
        E 162 90 3e 48
        E 24 90 41 48
        E 0 90 45 48
        E 1896 90 3e 48
        E 24 80 3e 00
        E 0 80 41 00
        E 0 80 45 00
        E 0 90 41 48
        E 0 90 45 48
        E 260 80 3e 00
        E 0 80 41 00
        E 0 80 45 00
        E 416 90 3e 48
        E 24 90 41 48
        E 0 90 45 48
        E 260 80 3e 00
        E 0 80 41 00
        E 0 80 45 00
        e 490 90 3e 48
        e 24 90 41 48
        e 0 90 45 48
        e 260 80 3e 00
        e 0 80 41 00
        e 0 80 45 00
        E 186 b0 7b 00
        CHASE_CC_TAKEOFFS 1
        GUID {19362806-85F2-5D9E-E1F9-07BE0CF3D16E}
        IGNTEMPO 0 120 4 4
        SRCCOLOR 25
        VELLANE -1 100 0
        CFGEDITVIEW 0 0.045808 45 12 0 -1 0 0 0 0.5
        KEYSNAP 0
        TRACKSEL 0
        EVTFILTER 0 -1 -1 -1 -1 0 0 0 0 -1 -1 -1 -1 0 -1 0 -1 -1
        CFGEDIT 1 1 0 1 0 0 1 1 1 1 1 1 58 171 1253 866 0 0 0 0 0.25 0 0 0 0 0.5 0 0 1 64
      >
    >
    <ITEM
      POSITION 72
      SNAPOFFS 0
      LENGTH 8
      LOOP 1
      ALLTAKES 0
      FADEIN 1 0 0 1 0 0
      FADEOUT 1 0 0 1 0 0
      MUTE 0
      SEL 1
      IGUID {5D9FA253-9645-D9FB-D73A-74298921F6DC}
      IID 19
      NAME "01-Recorded MIDI"
      VOLPAN 1 0 1 -1
      SOFFS 0 0
      PLAYRATE 1 1 0 -1 0 0.0021
      CHANMODE 0
      GUID {EBD5502F-131A-10C3-097C-A3DBC226DD30}
      RECPASS 1
      <SOURCE MIDI
        HASDATA 1 960 QN
        CCINTERP 32
        POOLEDEVTS {743600D0-5227-2308-748C-804EACDFD6B9}
        E 0 90 3c 48
        E 0 90 40 48
        E 0 90 43 48
        E 1920 80 3c 00
        E 0 80 40 00
        E 0 80 43 00
        E 0 90 3c 48
        E 0 90 40 48
        E 0 90 43 48
        E 260 80 3c 00
        E 0 80 40 00
        E 0 80 43 00
        E 440 90 3c 48
        E 0 90 40 48
        E 0 90 43 48
        E 260 80 3c 00
        E 0 80 40 00
        E 0 80 43 00
        e 514 90 3c 48
        e 0 90 40 48
        e 0 90 43 48
        e 260 80 3c 00
        e 0 80 40 00
        e 0 80 43 00
        E 186 90 43 48
        E 0 90 47 48
        E 20 90 40 48
        E 1900 80 43 00
        E 0 80 47 00
        E 0 80 40 00
        E 0 90 43 48
        E 0 90 47 48
        E 20 90 40 48
        E 240 80 43 00
        E 0 80 47 00
        E 0 80 40 00
        E 440 90 43 48
        E 0 90 47 48
        E 20 90 40 48
        E 240 80 43 00
        E 0 80 47 00
        E 0 80 40 00
        e 514 90 43 48
        e 0 90 47 48
        e 20 90 40 48
        e 240 80 43 00
        e 0 80 47 00
        e 0 80 40 00
        E 186 90 41 48
        E 0 90 45 48
        E 0 90 48 48
        E 1920 80 41 00
        E 0 80 45 00
        E 0 80 48 00
        E 0 90 41 48
        E 0 90 45 48
        E 0 90 48 48
        E 260 80 41 00
        E 0 80 45 00
        E 0 80 48 00
        E 440 90 41 48
        E 0 90 45 48
        E 0 90 48 48
        E 260 80 41 00
        E 0 80 45 00
        E 0 80 48 00
        e 514 90 41 48
        e 0 90 45 48
        e 0 90 48 48
        e 260 80 41 00
        e 0 80 45 00
        e 0 80 48 00
        E 162 90 3e 48
        E 24 90 41 48
        E 0 90 45 48
        E 1896 90 3e 48
        E 24 80 3e 00
        E 0 80 41 00
        E 0 80 45 00
        E 0 90 41 48
        E 0 90 45 48
        E 260 80 3e 00
        E 0 80 41 00
        E 0 80 45 00
        E 416 90 3e 48
        E 24 90 41 48
        E 0 90 45 48
        E 260 80 3e 00
        E 0 80 41 00
        E 0 80 45 00
        e 490 90 3e 48
        e 24 90 41 48
        e 0 90 45 48
        e 260 80 3e 00
        e 0 80 41 00
        e 0 80 45 00
        E 186 b0 7b 00
        CHASE_CC_TAKEOFFS 1
        GUID {6844F8A9-6BE9-023C-4A46-0A676470C99B}
        IGNTEMPO 0 120 4 4
        SRCCOLOR 26
        VELLANE -1 100 0
        CFGEDITVIEW 0 0.045808 45 12 0 -1 0 0 0 0.5
        KEYSNAP 0
        TRACKSEL 0
        EVTFILTER 0 -1 -1 -1 -1 0 0 0 0 -1 -1 -1 -1 0 -1 0 -1 -1
        CFGEDIT 1 1 0 1 0 0 1 1 1 1 1 1 58 171 1253 866 0 0 0 0 0.25 0 0 0 0 0.5 0 0 1 64
      >
    >
    <ITEM
      POSITION 80
      SNAPOFFS 0
      LENGTH 8
      LOOP 1
      ALLTAKES 0
      FADEIN 1 0 0 1 0 0
      FADEOUT 1 0 0 1 0 0
      MUTE 0
      SEL 1
      IGUID {BF0825DC-FCFE-0FA4-A83F-6E253C63C7D7}
      IID 20
      NAME "01-Recorded MIDI"
      VOLPAN 1 0 1 -1
      SOFFS 0 0
      PLAYRATE 1 1 0 -1 0 0.0021
      CHANMODE 0
      GUID {7B4A3937-A2B6-C8FB-CA77-3722B02CE7E5}
      RECPASS 1
      <SOURCE MIDI
        HASDATA 1 960 QN
        CCINTERP 32
        POOLEDEVTS {AE7D84BE-FDA9-FDB7-059F-DDE3C1DD3B21}
        E 0 90 3c 48
        E 0 90 40 48
        E 0 90 43 48
        E 1920 80 3c 00
        E 0 80 40 00
        E 0 80 43 00
        E 0 90 3c 48
        E 0 90 40 48
        E 0 90 43 48
        E 260 80 3c 00
        E 0 80 40 00
        E 0 80 43 00
        E 440 90 3c 48
        E 0 90 40 48
        E 0 90 43 48
        E 260 80 3c 00
        E 0 80 40 00
        E 0 80 43 00
        e 514 90 3c 48
        e 0 90 40 48
        e 0 90 43 48
        e 260 80 3c 00
        e 0 80 40 00
        e 0 80 43 00
        E 186 90 43 48
        E 0 90 47 48
        E 20 90 40 48
        E 1900 80 43 00
        E 0 80 47 00
        E 0 80 40 00
        E 0 90 43 48
        E 0 90 47 48
        E 20 90 40 48
        E 240 80 43 00
        E 0 80 47 00
        E 0 80 40 00
        E 440 90 43 48
        E 0 90 47 48
        E 20 90 40 48
        E 240 80 43 00
        E 0 80 47 00
        E 0 80 40 00
        e 514 90 43 48
        e 0 90 47 48
        e 20 90 40 48
        e 240 80 43 00
        e 0 80 47 00
        e 0 80 40 00
        E 186 90 41 48
        E 0 90 45 48
        E 0 90 48 48
        E 1920 80 41 00
        E 0 80 45 00
        E 0 80 48 00
        E 0 90 41 48
        E 0 90 45 48
        E 0 90 48 48
        E 260 80 41 00
        E 0 80 45 00
        E 0 80 48 00
        E 440 90 41 48
        E 0 90 45 48
        E 0 90 48 48
        E 260 80 41 00
        E 0 80 45 00
        E 0 80 48 00
        e 514 90 41 48
        e 0 90 45 48
        e 0 90 48 48
        e 260 80 41 00
        e 0 80 45 00
        e 0 80 48 00
        E 162 90 3e 48
        E 24 90 41 48
        E 0 90 45 48
        E 1896 90 3e 48
        E 24 80 3e 00
        E 0 80 41 00
        E 0 80 45 00
        E 0 90 41 48
        E 0 90 45 48
        E 260 80 3e 00
        E 0 80 41 00
        E 0 80 45 00
        E 416 90 3e 48
        E 24 90 41 48
        E 0 90 45 48
        E 260 80 3e 00
        E 0 80 41 00
        E 0 80 45 00
        e 490 90 3e 48
        e 24 90 41 48
        e 0 90 45 48
        e 260 80 3e 00
        e 0 80 41 00
        e 0 80 45 00
        E 186 b0 7b 00
        CHASE_CC_TAKEOFFS 1
        GUID {E611ADB6-4869-6CCA-8E83-3954D5E743B1}
        IGNTEMPO 0 120 4 4
        SRCCOLOR 27
        VELLANE -1 100 0
        CFGEDITVIEW 0 0.045808 45 12 0 -1 0 0 0 0.5
        KEYSNAP 0
        TRACKSEL 0
        EVTFILTER 0 -1 -1 -1 -1 0 0 0 0 -1 -1 -1 -1 0 -1 0 -1 -1
        CFGEDIT 1 1 0 1 0 0 1 1 1 1 1 1 58 171 1253 866 0 0 0 0 0.25 0 0 0 0 0.5 0 0 1 64
      >
    >
    <ITEM
      POSITION 88
      SNAPOFFS 0
      LENGTH 8
      LOOP 1
      ALLTAKES 0
      FADEIN 1 0 0 1 0 0
      FADEOUT 1 0 0 1 0 0
      MUTE 0
      SEL 1
      IGUID {561E06E0-119F-6AD9-6FBA-ADB62CAF879F}
      IID 21
      NAME "01-Recorded MIDI"
      VOLPAN 1 0 1 -1
      SOFFS 0 0
      PLAYRATE 1 1 0 -1 0 0.0021
      CHANMODE 0
      GUID {66F65B40-E582-EAAB-BE46-67489C8708DB}
      RECPASS 1
      <SOURCE MIDI
        HASDATA 1 960 QN
        CCINTERP 32
        POOLEDEVTS {1797D4D6-77AA-155E-79C5-E409357D2D02}
        E 0 90 3c 48
        E 0 90 40 48
        E 0 90 43 48
        E 1920 80 3c 00
        E 0 80 40 00
        E 0 80 43 00
        E 0 90 3c 48
        E 0 90 40 48
        E 0 90 43 48
        E 260 80 3c 00
        E 0 80 40 00
        E 0 80 43 00
        E 440 90 3c 48
        E 0 90 40 48
        E 0 90 43 48
        E 260 80 3c 00
        E 0 80 40 00
        E 0 80 43 00
        e 514 90 3c 48
        e 0 90 40 48
        e 0 90 43 48
        e 260 80 3c 00
        e 0 80 40 00
        e 0 80 43 00
        E 186 90 43 48
        E 0 90 47 48
        E 20 90 40 48
        E 1900 80 43 00
        E 0 80 47 00
        E 0 80 40 00
        E 0 90 43 48
        E 0 90 47 48
        E 20 90 40 48
        E 240 80 43 00
        E 0 80 47 00
        E 0 80 40 00
        E 440 90 43 48
        E 0 90 47 48
        E 20 90 40 48
        E 240 80 43 00
        E 0 80 47 00
        E 0 80 40 00
        e 514 90 43 48
        e 0 90 47 48
        e 20 90 40 48
        e 240 80 43 00
        e 0 80 47 00
        e 0 80 40 00
        E 186 90 41 48
        E 0 90 45 48
        E 0 90 48 48
        E 1920 80 41 00
        E 0 80 45 00
        E 0 80 48 00
        E 0 90 41 48
        E 0 90 45 48
        E 0 90 48 48
        E 260 80 41 00
        E 0 80 45 00
        E 0 80 48 00
        E 440 90 41 48
        E 0 90 45 48
        E 0 90 48 48
        E 260 80 41 00
        E 0 80 45 00
        E 0 80 48 00
        e 514 90 41 48
        e 0 90 45 48
        e 0 90 48 48
        e 260 80 41 00
        e 0 80 45 00
        e 0 80 48 00
        E 162 90 3e 48
        E 24 90 41 48
        E 0 90 45 48
        E 1896 90 3e 48
        E 24 80 3e 00
        E 0 80 41 00
        E 0 80 45 00
        E 0 90 41 48
        E 0 90 45 48
        E 260 80 3e 00
        E 0 80 41 00
        E 0 80 45 00
        E 416 90 3e 48
        E 24 90 41 48
        E 0 90 45 48
        E 260 80 3e 00
        E 0 80 41 00
        E 0 80 45 00
        e 490 90 3e 48
        e 24 90 41 48
        e 0 90 45 48
        e 260 80 3e 00
        e 0 80 41 00
        e 0 80 45 00
        E 186 b0 7b 00
        CHASE_CC_TAKEOFFS 1
        GUID {C762B555-17FC-D765-5340-11D3487D2955}
        IGNTEMPO 0 120 4 4
        SRCCOLOR 28
        VELLANE -1 100 0
        CFGEDITVIEW 0 0.045808 45 12 0 -1 0 0 0 0.5
        KEYSNAP 0
        TRACKSEL 0
        EVTFILTER 0 -1 -1 -1 -1 0 0 0 0 -1 -1 -1 -1 0 -1 0 -1 -1
        CFGEDIT 1 1 0 1 0 0 1 1 1 1 1 1 58 171 1253 866 0 0 0 0 0.25 0 0 0 0 0.5 0 0 1 64
      >
    >
  >
  <TRACK {1698EE1F-8C35-A557-55B8-6706D43A8E7F}
    NAME ""
    PEAKCOL 16576
    BEAT -1
    AUTOMODE 0
    VOLPAN 0.00052194381917 0 -1 -1 1
    MUTESOLO 0 0 0
    IPHASE 0
    PLAYOFFS 0 1
    ISBUS 0 0
    BUSCOMP 0 0 0 0 0
    SHOWINMIX 1 0.6667 0.5 1 0.5 0 0 0
    FREEMODE 0
    SEL 0
    REC 0 5056 1 0 0 0 0
    VU 2
    TRACKHEIGHT 21 0 0
    INQ 0 0 0 0.5 100 0 0 100
    NCHAN 2
    FX 0
    TRACKID {1698EE1F-8C35-A557-55B8-6706D43A8E7F}
    PERF 0
    MIDIOUT -1
    MAINSEND 1 0
    <FXCHAIN
      WNDRECT 346 266 902 608
      SHOW 0
      LASTSEL 5
      DOCKED 0
      BYPASS 0 0 0
      <VST "VST: ReaEQ (Cockos)" reaeq.vst.so 0 "" 1919247729<56535472656571726561657100000000> ""
        cWVlcu5e7f4CAAAAAQAAAAAAAAACAAAAAAAAAAIAAAABAAAAAAAAAAIAAAAAAAAAqAAAAAEAAAAAABAA
        IQAAAAQAAAAEAAAAAQAAAEC4Xhmm+DRAAAAAAAAA8D8AAAAAAAAAQAEIAAAAAQAAAAAAAAAAwHJAAAAAAAAA8D8AAAAAAAAAQAEIAAAAAQAAAAAAAAAAQI9AAAAAAAAA
        8D8AAAAAAAAAQAEDAAAAAQAAAAABaCorbdRAAAAAAAAA8D8AAAAAAAAAQAEBAAAAAQAAAAAAAAAAAPA/AAAAAJoCAACcAQAA
        AEhpZ2ggbG93IHBhc3MAEAAAAA==
      >
      PRESETNAME "High low pass"
      FLOATPOS 0 0 0 0
      FXID {E35D02E7-4805-EAD2-6CC8-2D65B80538D5}
      WAK 0 0
      BYPASS 0 0 0
      <VST "VSTi: ReaSynth (Cockos)" reasynth.vst.so 0 "" 1919251321<5653547265737972656173796E746800> ""
        eXNlcu9e7f4AAAAAAgAAAAEAAAAAAAAAAgAAAAAAAAA8AAAAAAAAAAAAEAA=
        776t3g3wrd6lm8Q7F7fROgAAAAAAAAAAAAAAAJCNuT3oZ4g9AACAPwAAAD8AAIA/AAAAAAAAAD8AAAAA
        AAAQAAAA
      >
      FLOATPOS 0 0 0 0
      FXID {78B78EBA-DD3E-9A80-CA27-F7C769760697}
      WAK 0 0
      BYPASS 0 0 0
      <JS guitar/amp-model ""
        "Dumble Overdrive Special - Tweed Deluxe.wav" -21.000000 1.000000 0.000000 0.000000 -1.000000 - - - - - - - - - - - - - - - - - - - - - - - - - - - - - - - - - - - - - - - - - - - - - - - - - - - - - - - - - - 
      >
      FLOATPOS 0 0 0 0
      FXID {769511FF-BB1E-E617-424F-93C84846BBC8}
      WAK 0 0
      BYPASS 0 0 0
      <VST "VST: ReaComp (Cockos)" reacomp.vst.so 0 "" 1919247213<5653547265636D726561636F6D700000> ""
        bWNlcu9e7f4EAAAAAQAAAAAAAAACAAAAAAAAAAQAAAAAAAAACAAAAAAAAAACAAAAAQAAAAAAAAACAAAAAAAAAFQAAAAAAAAAAAAQAA==
        776t3g3wrd5FoYg9/AWpPKWbxDsK16M8AAAAAAAAAAAAAIA/AAAAAAAAAAAAAAAAnNEHMwAAgD8AAAAAzMxMPQAAAAAAAAAAAAAAAAAAgD7YiZ09
        AAAQAAAA
      >
      FLOATPOS 0 0 0 0
      FXID {FE393631-DFB8-884F-FE63-35AB653BF2F9}
      WAK 0 0
      BYPASS 0 0 0
      <VST "VST: ReaDelay (Cockos)" readelay.vst.so 0 "" 1919247468<5653547265646C72656164656C617900> ""
        bGRlcu5e7f4CAAAAAQAAAAAAAAACAAAAAAAAAAIAAAABAAAAAAAAAAIAAAAAAAAA/AAAAAEAAAAAAAAA
        AAAAAAAAAAAFAAAALAAAAAIAAAAEAAAAAACAPwAAgD8AAAAAAACAPwAAAAAAAIA7vTeGNQAAgD8AAAAAAACAPwAAgD8AAIA/AAAAAAAAAAAAAIA/AAAAAAAAADwAAAAA
        AACAPwAAAAAAAIA/AACAP+87NT8AAIA/AAAAAAAAgD8AAAAAAABAPL03hjUAAIA/AAAAAAAAgD8AAIA/zk0AP6abhD4AAAAAAACAPwAAAAAAAIA8vTeGNQAAgD8AAAAA
        AACAPwAAgD8aqrU+pHA9PwAAAAAAAIA/AAAAAAAAoDy9N4Y1AACAPwAAAAAAAIA/AACAP/npAD4AAAA/
        AHN0b2NrIC0gYmFzaWMgNSB0YXAgcGluZyBwb25nAAAAAAA=
      >
      PRESETNAME "stock - basic 5 tap ping pong"
      FLOATPOS 0 0 0 0
      FXID {583FADA8-FD88-2992-F0DE-AF4E5318DBB2}
      WAK 0 0
      BYPASS 0 0 0
      <VST "VST: ReaVerb (Cockos)" reaverb.vst.so 0 "" 1919252066<56535472657662726561766572620000> ""
        YnZlcu5e7f4CAAAAAQAAAAAAAAACAAAAAAAAAAIAAAABAAAAAAAAAAIAAAAAAAAAcAAAAAEAAAAAAAAA
        AAAAwcybgD4AAIA/AAAAAAAAgD8AAIA/AAAAPwAAgD8AAAAAVkVSQkdFTgAYAAAAAAAAAJHgV0QdrLRA3rK7QsHIjEIAAIC/RUNIT0dFTgAcAAAAy/i2QLUjdUJdzdM/
        osdfP5lRrzyRzYxAnMQAPw==
        AHN3ZWV0dmVyYm8AAAAAAA==
      >
      PRESETNAME sweetverbo
      FLOATPOS 0 0 0 0
      FXID {DBF627D2-85D2-70CD-37BC-588CD63F0C1B}
      WAK 0 0
    >
    <ITEM
      POSITION 0
      SNAPOFFS 0
      LENGTH 8
      LOOP 1
      ALLTAKES 0
      FADEIN 1 0 0 1 0 0
      FADEOUT 1 0 0 1 0 0
      MUTE 0
      SEL 1
      IGUID {E2A8346A-D418-5AB4-90FB-63C31E960BF5}
      IID 10
      NAME "01-Recorded MIDI"
      VOLPAN 1 0 1 -1
      SOFFS 0 0
      PLAYRATE 1 1 0 -1 0 0.0021
      CHANMODE 0
      GUID {FB19442D-023D-D963-DC90-D5253F0D7271}
      RECPASS 1
      <SOURCE MIDI
        HASDATA 1 960 QN
        CCINTERP 32
        POOLEDEVTS {97C450C4-1CEA-51CD-595B-4F15D69A171D}
        E 0 90 3c 48
        E 0 90 40 48
        E 0 90 43 48
        E 1920 80 3c 00
        E 0 80 40 00
        E 0 80 43 00
        E 0 90 3c 48
        E 0 90 40 48
        E 0 90 43 48
        E 260 80 3c 00
        E 0 80 40 00
        E 0 80 43 00
        E 440 90 3c 48
        E 0 90 40 48
        E 0 90 43 48
        E 260 80 3c 00
        E 0 80 40 00
        E 0 80 43 00
        e 514 90 3c 48
        e 0 90 40 48
        e 0 90 43 48
        e 260 80 3c 00
        e 0 80 40 00
        e 0 80 43 00
        E 186 90 43 48
        E 0 90 47 48
        E 20 90 40 48
        E 1900 80 43 00
        E 0 80 47 00
        E 0 80 40 00
        E 0 90 43 48
        E 0 90 47 48
        E 20 90 40 48
        E 240 80 43 00
        E 0 80 47 00
        E 0 80 40 00
        E 440 90 43 48
        E 0 90 47 48
        E 20 90 40 48
        E 240 80 43 00
        E 0 80 47 00
        E 0 80 40 00
        e 514 90 43 48
        e 0 90 47 48
        e 20 90 40 48
        e 240 80 43 00
        e 0 80 47 00
        e 0 80 40 00
        E 186 90 41 48
        E 0 90 45 48
        E 0 90 48 48
        E 1920 80 41 00
        E 0 80 45 00
        E 0 80 48 00
        E 0 90 41 48
        E 0 90 45 48
        E 0 90 48 48
        E 260 80 41 00
        E 0 80 45 00
        E 0 80 48 00
        E 440 90 41 48
        E 0 90 45 48
        E 0 90 48 48
        E 260 80 41 00
        E 0 80 45 00
        E 0 80 48 00
        e 514 90 41 48
        e 0 90 45 48
        e 0 90 48 48
        e 260 80 41 00
        e 0 80 45 00
        e 0 80 48 00
        E 162 90 3e 48
        E 24 90 41 48
        E 0 90 45 48
        E 1896 90 3e 48
        E 24 80 3e 00
        E 0 80 41 00
        E 0 80 45 00
        E 0 90 41 48
        E 0 90 45 48
        E 260 80 3e 00
        E 0 80 41 00
        E 0 80 45 00
        E 416 90 3e 48
        E 24 90 41 48
        E 0 90 45 48
        E 260 80 3e 00
        E 0 80 41 00
        E 0 80 45 00
        e 490 90 3e 48
        e 24 90 41 48
        e 0 90 45 48
        e 260 80 3e 00
        e 0 80 41 00
        e 0 80 45 00
        E 186 b0 7b 00
        CHASE_CC_TAKEOFFS 1
        GUID {7B9D708B-43E1-C8D4-C4B3-87E2A6C27801}
        IGNTEMPO 0 120 4 4
        SRCCOLOR 17
        VELLANE -1 100 0
        CFGEDITVIEW 0 0.045808 45 12 0 -1 0 0 0 0.5
        KEYSNAP 0
        TRACKSEL 0
        EVTFILTER 0 -1 -1 -1 -1 0 0 0 0 -1 -1 -1 -1 0 -1 0 -1 -1
        CFGEDIT 1 1 0 1 0 0 1 1 1 1 1 1 58 171 1253 866 0 0 0 0 0.25 0 0 0 0 0.5 0 0 1 64
      >
    >
    <ITEM
      POSITION 8
      SNAPOFFS 0
      LENGTH 8
      LOOP 1
      ALLTAKES 0
      FADEIN 1 0 0 1 0 0
      FADEOUT 1 0 0 1 0 0
      MUTE 0
      SEL 1
      IGUID {98BD7C9A-1BD8-FFF9-3C36-D7063A711862}
      IID 11
      NAME "01-Recorded MIDI"
      VOLPAN 1 0 1 -1
      SOFFS 0 0
      PLAYRATE 1 1 0 -1 0 0.0021
      CHANMODE 0
      GUID {519A5428-11B0-2D81-5C5C-1B60C963E3D7}
      RECPASS 1
      <SOURCE MIDI
        HASDATA 1 960 QN
        CCINTERP 32
        POOLEDEVTS {723ADD07-A922-6328-FFF4-6D1934B1A8BA}
        E 0 90 3c 48
        E 0 90 40 48
        E 0 90 43 48
        E 1920 80 3c 00
        E 0 80 40 00
        E 0 80 43 00
        E 0 90 3c 48
        E 0 90 40 48
        E 0 90 43 48
        E 260 80 3c 00
        E 0 80 40 00
        E 0 80 43 00
        E 440 90 3c 48
        E 0 90 40 48
        E 0 90 43 48
        E 260 80 3c 00
        E 0 80 40 00
        E 0 80 43 00
        e 514 90 3c 48
        e 0 90 40 48
        e 0 90 43 48
        e 260 80 3c 00
        e 0 80 40 00
        e 0 80 43 00
        E 186 90 43 48
        E 0 90 47 48
        E 20 90 40 48
        E 1900 80 43 00
        E 0 80 47 00
        E 0 80 40 00
        E 0 90 43 48
        E 0 90 47 48
        E 20 90 40 48
        E 240 80 43 00
        E 0 80 47 00
        E 0 80 40 00
        E 440 90 43 48
        E 0 90 47 48
        E 20 90 40 48
        E 240 80 43 00
        E 0 80 47 00
        E 0 80 40 00
        e 514 90 43 48
        e 0 90 47 48
        e 20 90 40 48
        e 240 80 43 00
        e 0 80 47 00
        e 0 80 40 00
        E 186 90 41 48
        E 0 90 45 48
        E 0 90 48 48
        E 1920 80 41 00
        E 0 80 45 00
        E 0 80 48 00
        E 0 90 41 48
        E 0 90 45 48
        E 0 90 48 48
        E 260 80 41 00
        E 0 80 45 00
        E 0 80 48 00
        E 440 90 41 48
        E 0 90 45 48
        E 0 90 48 48
        E 260 80 41 00
        E 0 80 45 00
        E 0 80 48 00
        e 514 90 41 48
        e 0 90 45 48
        e 0 90 48 48
        e 260 80 41 00
        e 0 80 45 00
        e 0 80 48 00
        E 162 90 3e 48
        E 24 90 41 48
        E 0 90 45 48
        E 1896 90 3e 48
        E 24 80 3e 00
        E 0 80 41 00
        E 0 80 45 00
        E 0 90 41 48
        E 0 90 45 48
        E 260 80 3e 00
        E 0 80 41 00
        E 0 80 45 00
        E 416 90 3e 48
        E 24 90 41 48
        E 0 90 45 48
        E 260 80 3e 00
        E 0 80 41 00
        E 0 80 45 00
        e 490 90 3e 48
        e 24 90 41 48
        e 0 90 45 48
        e 260 80 3e 00
        e 0 80 41 00
        e 0 80 45 00
        E 186 b0 7b 00
        CHASE_CC_TAKEOFFS 1
        GUID {3131B4E2-B370-E352-A9C5-C8CA31551A86}
        IGNTEMPO 0 120 4 4
        SRCCOLOR 18
        VELLANE -1 100 0
        CFGEDITVIEW 0 0.045808 45 12 0 -1 0 0 0 0.5
        KEYSNAP 0
        TRACKSEL 0
        EVTFILTER 0 -1 -1 -1 -1 0 0 0 0 -1 -1 -1 -1 0 -1 0 -1 -1
        CFGEDIT 1 1 0 1 0 0 1 1 1 1 1 1 58 171 1253 866 0 0 0 0 0.25 0 0 0 0 0.5 0 0 1 64
      >
    >
    <ITEM
      POSITION 16
      SNAPOFFS 0
      LENGTH 8
      LOOP 1
      ALLTAKES 0
      FADEIN 1 0 0 1 0 0
      FADEOUT 1 0 0 1 0 0
      MUTE 0
      SEL 1
      IGUID {7616CBD2-BB19-51D7-531E-302DE6A711E9}
      IID 12
      NAME "01-Recorded MIDI"
      VOLPAN 1 0 1 -1
      SOFFS 0 0
      PLAYRATE 1 1 0 -1 0 0.0021
      CHANMODE 0
      GUID {5EFEA45E-ACC0-A259-726F-F03829E7A362}
      RECPASS 1
      <SOURCE MIDI
        HASDATA 1 960 QN
        CCINTERP 32
        POOLEDEVTS {50351429-3528-065F-BCAC-33379D5555D6}
        E 0 90 3c 48
        E 0 90 40 48
        E 0 90 43 48
        E 1920 80 3c 00
        E 0 80 40 00
        E 0 80 43 00
        E 0 90 3c 48
        E 0 90 40 48
        E 0 90 43 48
        E 260 80 3c 00
        E 0 80 40 00
        E 0 80 43 00
        E 440 90 3c 48
        E 0 90 40 48
        E 0 90 43 48
        E 260 80 3c 00
        E 0 80 40 00
        E 0 80 43 00
        e 514 90 3c 48
        e 0 90 40 48
        e 0 90 43 48
        e 260 80 3c 00
        e 0 80 40 00
        e 0 80 43 00
        E 186 90 43 48
        E 0 90 47 48
        E 20 90 40 48
        E 1900 80 43 00
        E 0 80 47 00
        E 0 80 40 00
        E 0 90 43 48
        E 0 90 47 48
        E 20 90 40 48
        E 240 80 43 00
        E 0 80 47 00
        E 0 80 40 00
        E 440 90 43 48
        E 0 90 47 48
        E 20 90 40 48
        E 240 80 43 00
        E 0 80 47 00
        E 0 80 40 00
        e 514 90 43 48
        e 0 90 47 48
        e 20 90 40 48
        e 240 80 43 00
        e 0 80 47 00
        e 0 80 40 00
        E 186 90 41 48
        E 0 90 45 48
        E 0 90 48 48
        E 1920 80 41 00
        E 0 80 45 00
        E 0 80 48 00
        E 0 90 41 48
        E 0 90 45 48
        E 0 90 48 48
        E 260 80 41 00
        E 0 80 45 00
        E 0 80 48 00
        E 440 90 41 48
        E 0 90 45 48
        E 0 90 48 48
        E 260 80 41 00
        E 0 80 45 00
        E 0 80 48 00
        e 514 90 41 48
        e 0 90 45 48
        e 0 90 48 48
        e 260 80 41 00
        e 0 80 45 00
        e 0 80 48 00
        E 162 90 3e 48
        E 24 90 41 48
        E 0 90 45 48
        E 1896 90 3e 48
        E 24 80 3e 00
        E 0 80 41 00
        E 0 80 45 00
        E 0 90 41 48
        E 0 90 45 48
        E 260 80 3e 00
        E 0 80 41 00
        E 0 80 45 00
        E 416 90 3e 48
        E 24 90 41 48
        E 0 90 45 48
        E 260 80 3e 00
        E 0 80 41 00
        E 0 80 45 00
        e 490 90 3e 48
        e 24 90 41 48
        e 0 90 45 48
        e 260 80 3e 00
        e 0 80 41 00
        e 0 80 45 00
        E 186 b0 7b 00
        CHASE_CC_TAKEOFFS 1
        GUID {48C567A2-895C-FB9B-FDBA-0ADB7004ABF3}
        IGNTEMPO 0 120 4 4
        SRCCOLOR 19
        VELLANE -1 100 0
        CFGEDITVIEW 0 0.045808 45 12 0 -1 0 0 0 0.5
        KEYSNAP 0
        TRACKSEL 0
        EVTFILTER 0 -1 -1 -1 -1 0 0 0 0 -1 -1 -1 -1 0 -1 0 -1 -1
        CFGEDIT 1 1 0 1 0 0 1 1 1 1 1 1 58 171 1253 866 0 0 0 0 0.25 0 0 0 0 0.5 0 0 1 64
      >
    >
    <ITEM
      POSITION 24
      SNAPOFFS 0
      LENGTH 8
      LOOP 1
      ALLTAKES 0
      FADEIN 1 0 0 1 0 0
      FADEOUT 1 0 0 1 0 0
      MUTE 0
      SEL 1
      IGUID {38FA2645-67E5-E785-F7D4-F5AA923AE712}
      IID 13
      NAME "01-Recorded MIDI"
      VOLPAN 1 0 1 -1
      SOFFS 0 0
      PLAYRATE 1 1 0 -1 0 0.0021
      CHANMODE 0
      GUID {4F0E126A-E544-72F0-499E-B6B2A8D283BD}
      RECPASS 1
      <SOURCE MIDI
        HASDATA 1 960 QN
        CCINTERP 32
        POOLEDEVTS {9D9507DA-CA52-73D3-DCF7-E7115C79F5C5}
        E 0 90 3c 48
        E 0 90 40 48
        E 0 90 43 48
        E 1920 80 3c 00
        E 0 80 40 00
        E 0 80 43 00
        E 0 90 3c 48
        E 0 90 40 48
        E 0 90 43 48
        E 260 80 3c 00
        E 0 80 40 00
        E 0 80 43 00
        E 440 90 3c 48
        E 0 90 40 48
        E 0 90 43 48
        E 260 80 3c 00
        E 0 80 40 00
        E 0 80 43 00
        e 514 90 3c 48
        e 0 90 40 48
        e 0 90 43 48
        e 260 80 3c 00
        e 0 80 40 00
        e 0 80 43 00
        E 186 90 43 48
        E 0 90 47 48
        E 20 90 40 48
        E 1900 80 43 00
        E 0 80 47 00
        E 0 80 40 00
        E 0 90 43 48
        E 0 90 47 48
        E 20 90 40 48
        E 240 80 43 00
        E 0 80 47 00
        E 0 80 40 00
        E 440 90 43 48
        E 0 90 47 48
        E 20 90 40 48
        E 240 80 43 00
        E 0 80 47 00
        E 0 80 40 00
        e 514 90 43 48
        e 0 90 47 48
        e 20 90 40 48
        e 240 80 43 00
        e 0 80 47 00
        e 0 80 40 00
        E 186 90 41 48
        E 0 90 45 48
        E 0 90 48 48
        E 1920 80 41 00
        E 0 80 45 00
        E 0 80 48 00
        E 0 90 41 48
        E 0 90 45 48
        E 0 90 48 48
        E 260 80 41 00
        E 0 80 45 00
        E 0 80 48 00
        E 440 90 41 48
        E 0 90 45 48
        E 0 90 48 48
        E 260 80 41 00
        E 0 80 45 00
        E 0 80 48 00
        e 514 90 41 48
        e 0 90 45 48
        e 0 90 48 48
        e 260 80 41 00
        e 0 80 45 00
        e 0 80 48 00
        E 162 90 3e 48
        E 24 90 41 48
        E 0 90 45 48
        E 1896 90 3e 48
        E 24 80 3e 00
        E 0 80 41 00
        E 0 80 45 00
        E 0 90 41 48
        E 0 90 45 48
        E 260 80 3e 00
        E 0 80 41 00
        E 0 80 45 00
        E 416 90 3e 48
        E 24 90 41 48
        E 0 90 45 48
        E 260 80 3e 00
        E 0 80 41 00
        E 0 80 45 00
        e 490 90 3e 48
        e 24 90 41 48
        e 0 90 45 48
        e 260 80 3e 00
        e 0 80 41 00
        e 0 80 45 00
        E 186 b0 7b 00
        CHASE_CC_TAKEOFFS 1
        GUID {1DE38800-E2A1-41B5-9C8C-3291891093B1}
        IGNTEMPO 0 120 4 4
        SRCCOLOR 20
        VELLANE -1 100 0
        CFGEDITVIEW 0 0.045808 45 12 0 -1 0 0 0 0.5
        KEYSNAP 0
        TRACKSEL 0
        EVTFILTER 0 -1 -1 -1 -1 0 0 0 0 -1 -1 -1 -1 0 -1 0 -1 -1
        CFGEDIT 1 1 0 1 0 0 1 1 1 1 1 1 58 171 1253 866 0 0 0 0 0.25 0 0 0 0 0.5 0 0 1 64
      >
    >
    <ITEM
      POSITION 32
      SNAPOFFS 0
      LENGTH 8
      LOOP 1
      ALLTAKES 0
      FADEIN 1 0 0 1 0 0
      FADEOUT 1 0 0 1 0 0
      MUTE 0
      SEL 1
      IGUID {99A13FCE-FAF3-63A8-DDA8-6D446277075F}
      IID 14
      NAME "01-Recorded MIDI"
      VOLPAN 1 0 1 -1
      SOFFS 0 0
      PLAYRATE 1 1 0 -1 0 0.0021
      CHANMODE 0
      GUID {6409D0C7-7E99-955A-302B-C925B829FF7A}
      RECPASS 1
      <SOURCE MIDI
        HASDATA 1 960 QN
        CCINTERP 32
        POOLEDEVTS {29E3FDA1-5A95-E4C4-45C9-178F58F1C85A}
        E 0 90 3c 48
        E 0 90 40 48
        E 0 90 43 48
        E 1920 80 3c 00
        E 0 80 40 00
        E 0 80 43 00
        E 0 90 3c 48
        E 0 90 40 48
        E 0 90 43 48
        E 260 80 3c 00
        E 0 80 40 00
        E 0 80 43 00
        E 440 90 3c 48
        E 0 90 40 48
        E 0 90 43 48
        E 260 80 3c 00
        E 0 80 40 00
        E 0 80 43 00
        e 514 90 3c 48
        e 0 90 40 48
        e 0 90 43 48
        e 260 80 3c 00
        e 0 80 40 00
        e 0 80 43 00
        E 186 90 43 48
        E 0 90 47 48
        E 20 90 40 48
        E 1900 80 43 00
        E 0 80 47 00
        E 0 80 40 00
        E 0 90 43 48
        E 0 90 47 48
        E 20 90 40 48
        E 240 80 43 00
        E 0 80 47 00
        E 0 80 40 00
        E 440 90 43 48
        E 0 90 47 48
        E 20 90 40 48
        E 240 80 43 00
        E 0 80 47 00
        E 0 80 40 00
        e 514 90 43 48
        e 0 90 47 48
        e 20 90 40 48
        e 240 80 43 00
        e 0 80 47 00
        e 0 80 40 00
        E 186 90 41 48
        E 0 90 45 48
        E 0 90 48 48
        E 1920 80 41 00
        E 0 80 45 00
        E 0 80 48 00
        E 0 90 41 48
        E 0 90 45 48
        E 0 90 48 48
        E 260 80 41 00
        E 0 80 45 00
        E 0 80 48 00
        E 440 90 41 48
        E 0 90 45 48
        E 0 90 48 48
        E 260 80 41 00
        E 0 80 45 00
        E 0 80 48 00
        e 514 90 41 48
        e 0 90 45 48
        e 0 90 48 48
        e 260 80 41 00
        e 0 80 45 00
        e 0 80 48 00
        E 162 90 3e 48
        E 24 90 41 48
        E 0 90 45 48
        E 1896 90 3e 48
        E 24 80 3e 00
        E 0 80 41 00
        E 0 80 45 00
        E 0 90 41 48
        E 0 90 45 48
        E 260 80 3e 00
        E 0 80 41 00
        E 0 80 45 00
        E 416 90 3e 48
        E 24 90 41 48
        E 0 90 45 48
        E 260 80 3e 00
        E 0 80 41 00
        E 0 80 45 00
        e 490 90 3e 48
        e 24 90 41 48
        e 0 90 45 48
        e 260 80 3e 00
        e 0 80 41 00
        e 0 80 45 00
        E 186 b0 7b 00
        CHASE_CC_TAKEOFFS 1
        GUID {0C3271F4-E233-9088-9B25-A722FAE7C579}
        IGNTEMPO 0 120 4 4
        SRCCOLOR 21
        VELLANE -1 100 0
        CFGEDITVIEW 0 0.045808 45 12 0 -1 0 0 0 0.5
        KEYSNAP 0
        TRACKSEL 0
        EVTFILTER 0 -1 -1 -1 -1 0 0 0 0 -1 -1 -1 -1 0 -1 0 -1 -1
        CFGEDIT 1 1 0 1 0 0 1 1 1 1 1 1 58 171 1253 866 0 0 0 0 0.25 0 0 0 0 0.5 0 0 1 64
      >
    >
    <ITEM
      POSITION 40
      SNAPOFFS 0
      LENGTH 8
      LOOP 1
      ALLTAKES 0
      FADEIN 1 0 0 1 0 0
      FADEOUT 1 0 0 1 0 0
      MUTE 0
      SEL 1
      IGUID {9B9483EB-C267-0723-B732-0016324114AA}
      IID 15
      NAME "01-Recorded MIDI"
      VOLPAN 1 0 1 -1
      SOFFS 0 0
      PLAYRATE 1 1 0 -1 0 0.0021
      CHANMODE 0
      GUID {FA839346-5448-3D7B-2445-3732A116AED5}
      RECPASS 1
      <SOURCE MIDI
        HASDATA 1 960 QN
        CCINTERP 32
        POOLEDEVTS {4819A33A-248E-7E58-93C1-44183AF979F4}
        E 0 90 3c 48
        E 0 90 40 48
        E 0 90 43 48
        E 1920 80 3c 00
        E 0 80 40 00
        E 0 80 43 00
        E 0 90 3c 48
        E 0 90 40 48
        E 0 90 43 48
        E 260 80 3c 00
        E 0 80 40 00
        E 0 80 43 00
        E 440 90 3c 48
        E 0 90 40 48
        E 0 90 43 48
        E 260 80 3c 00
        E 0 80 40 00
        E 0 80 43 00
        e 514 90 3c 48
        e 0 90 40 48
        e 0 90 43 48
        e 260 80 3c 00
        e 0 80 40 00
        e 0 80 43 00
        E 186 90 43 48
        E 0 90 47 48
        E 20 90 40 48
        E 1900 80 43 00
        E 0 80 47 00
        E 0 80 40 00
        E 0 90 43 48
        E 0 90 47 48
        E 20 90 40 48
        E 240 80 43 00
        E 0 80 47 00
        E 0 80 40 00
        E 440 90 43 48
        E 0 90 47 48
        E 20 90 40 48
        E 240 80 43 00
        E 0 80 47 00
        E 0 80 40 00
        e 514 90 43 48
        e 0 90 47 48
        e 20 90 40 48
        e 240 80 43 00
        e 0 80 47 00
        e 0 80 40 00
        E 186 90 41 48
        E 0 90 45 48
        E 0 90 48 48
        E 1920 80 41 00
        E 0 80 45 00
        E 0 80 48 00
        E 0 90 41 48
        E 0 90 45 48
        E 0 90 48 48
        E 260 80 41 00
        E 0 80 45 00
        E 0 80 48 00
        E 440 90 41 48
        E 0 90 45 48
        E 0 90 48 48
        E 260 80 41 00
        E 0 80 45 00
        E 0 80 48 00
        e 514 90 41 48
        e 0 90 45 48
        e 0 90 48 48
        e 260 80 41 00
        e 0 80 45 00
        e 0 80 48 00
        E 162 90 3e 48
        E 24 90 41 48
        E 0 90 45 48
        E 1896 90 3e 48
        E 24 80 3e 00
        E 0 80 41 00
        E 0 80 45 00
        E 0 90 41 48
        E 0 90 45 48
        E 260 80 3e 00
        E 0 80 41 00
        E 0 80 45 00
        E 416 90 3e 48
        E 24 90 41 48
        E 0 90 45 48
        E 260 80 3e 00
        E 0 80 41 00
        E 0 80 45 00
        e 490 90 3e 48
        e 24 90 41 48
        e 0 90 45 48
        e 260 80 3e 00
        e 0 80 41 00
        e 0 80 45 00
        E 186 b0 7b 00
        CHASE_CC_TAKEOFFS 1
        GUID {040E7AF8-3572-5D91-3C86-797AEE7444D4}
        IGNTEMPO 0 120 4 4
        SRCCOLOR 22
        VELLANE -1 100 0
        CFGEDITVIEW 0 0.045808 45 12 0 -1 0 0 0 0.5
        KEYSNAP 0
        TRACKSEL 0
        EVTFILTER 0 -1 -1 -1 -1 0 0 0 0 -1 -1 -1 -1 0 -1 0 -1 -1
        CFGEDIT 1 1 0 1 0 0 1 1 1 1 1 1 58 171 1253 866 0 0 0 0 0.25 0 0 0 0 0.5 0 0 1 64
      >
    >
    <ITEM
      POSITION 48
      SNAPOFFS 0
      LENGTH 8
      LOOP 1
      ALLTAKES 0
      FADEIN 1 0 0 1 0 0
      FADEOUT 1 0 0 1 0 0
      MUTE 0
      SEL 1
      IGUID {4C9A6968-F3E6-9170-81AA-4670A39A6DEC}
      IID 16
      NAME "01-Recorded MIDI"
      VOLPAN 1 0 1 -1
      SOFFS 0 0
      PLAYRATE 1 1 0 -1 0 0.0021
      CHANMODE 0
      GUID {214E68CD-426F-9051-75EE-BED1DB193D16}
      RECPASS 1
      <SOURCE MIDI
        HASDATA 1 960 QN
        CCINTERP 32
        POOLEDEVTS {8AEC9678-9FBF-EF38-5CE2-89518FD1AD4E}
        E 0 90 3c 48
        E 0 90 40 48
        E 0 90 43 48
        E 1920 80 3c 00
        E 0 80 40 00
        E 0 80 43 00
        E 0 90 3c 48
        E 0 90 40 48
        E 0 90 43 48
        E 260 80 3c 00
        E 0 80 40 00
        E 0 80 43 00
        E 440 90 3c 48
        E 0 90 40 48
        E 0 90 43 48
        E 260 80 3c 00
        E 0 80 40 00
        E 0 80 43 00
        e 514 90 3c 48
        e 0 90 40 48
        e 0 90 43 48
        e 260 80 3c 00
        e 0 80 40 00
        e 0 80 43 00
        E 186 90 43 48
        E 0 90 47 48
        E 20 90 40 48
        E 1900 80 43 00
        E 0 80 47 00
        E 0 80 40 00
        E 0 90 43 48
        E 0 90 47 48
        E 20 90 40 48
        E 240 80 43 00
        E 0 80 47 00
        E 0 80 40 00
        E 440 90 43 48
        E 0 90 47 48
        E 20 90 40 48
        E 240 80 43 00
        E 0 80 47 00
        E 0 80 40 00
        e 514 90 43 48
        e 0 90 47 48
        e 20 90 40 48
        e 240 80 43 00
        e 0 80 47 00
        e 0 80 40 00
        E 186 90 41 48
        E 0 90 45 48
        E 0 90 48 48
        E 1920 80 41 00
        E 0 80 45 00
        E 0 80 48 00
        E 0 90 41 48
        E 0 90 45 48
        E 0 90 48 48
        E 260 80 41 00
        E 0 80 45 00
        E 0 80 48 00
        E 440 90 41 48
        E 0 90 45 48
        E 0 90 48 48
        E 260 80 41 00
        E 0 80 45 00
        E 0 80 48 00
        e 514 90 41 48
        e 0 90 45 48
        e 0 90 48 48
        e 260 80 41 00
        e 0 80 45 00
        e 0 80 48 00
        E 162 90 3e 48
        E 24 90 41 48
        E 0 90 45 48
        E 1896 90 3e 48
        E 24 80 3e 00
        E 0 80 41 00
        E 0 80 45 00
        E 0 90 41 48
        E 0 90 45 48
        E 260 80 3e 00
        E 0 80 41 00
        E 0 80 45 00
        E 416 90 3e 48
        E 24 90 41 48
        E 0 90 45 48
        E 260 80 3e 00
        E 0 80 41 00
        E 0 80 45 00
        e 490 90 3e 48
        e 24 90 41 48
        e 0 90 45 48
        e 260 80 3e 00
        e 0 80 41 00
        e 0 80 45 00
        E 186 b0 7b 00
        CHASE_CC_TAKEOFFS 1
        GUID {2338968B-6CF9-9F40-300F-DEB89D3392EA}
        IGNTEMPO 0 120 4 4
        SRCCOLOR 23
        VELLANE -1 100 0
        CFGEDITVIEW 0 0.045808 45 12 0 -1 0 0 0 0.5
        KEYSNAP 0
        TRACKSEL 0
        EVTFILTER 0 -1 -1 -1 -1 0 0 0 0 -1 -1 -1 -1 0 -1 0 -1 -1
        CFGEDIT 1 1 0 1 0 0 1 1 1 1 1 1 58 171 1253 866 0 0 0 0 0.25 0 0 0 0 0.5 0 0 1 64
      >
    >
    <ITEM
      POSITION 56
      SNAPOFFS 0
      LENGTH 8
      LOOP 1
      ALLTAKES 0
      FADEIN 1 0 0 1 0 0
      FADEOUT 1 0 0 1 0 0
      MUTE 0
      SEL 1
      IGUID {ADBC43B6-9D16-25B0-8B57-536F0237A274}
      IID 17
      NAME "01-Recorded MIDI"
      VOLPAN 1 0 1 -1
      SOFFS 0 0
      PLAYRATE 1 1 0 -1 0 0.0021
      CHANMODE 0
      GUID {B1A6D8EF-CD66-5DCB-8184-6EEEC2163EE1}
      RECPASS 1
      <SOURCE MIDI
        HASDATA 1 960 QN
        CCINTERP 32
        POOLEDEVTS {AA5BCCBB-97BA-9970-2BEC-148E3A8D6909}
        E 0 90 3c 48
        E 0 90 40 48
        E 0 90 43 48
        E 1920 80 3c 00
        E 0 80 40 00
        E 0 80 43 00
        E 0 90 3c 48
        E 0 90 40 48
        E 0 90 43 48
        E 260 80 3c 00
        E 0 80 40 00
        E 0 80 43 00
        E 440 90 3c 48
        E 0 90 40 48
        E 0 90 43 48
        E 260 80 3c 00
        E 0 80 40 00
        E 0 80 43 00
        e 514 90 3c 48
        e 0 90 40 48
        e 0 90 43 48
        e 260 80 3c 00
        e 0 80 40 00
        e 0 80 43 00
        E 186 90 43 48
        E 0 90 47 48
        E 20 90 40 48
        E 1900 80 43 00
        E 0 80 47 00
        E 0 80 40 00
        E 0 90 43 48
        E 0 90 47 48
        E 20 90 40 48
        E 240 80 43 00
        E 0 80 47 00
        E 0 80 40 00
        E 440 90 43 48
        E 0 90 47 48
        E 20 90 40 48
        E 240 80 43 00
        E 0 80 47 00
        E 0 80 40 00
        e 514 90 43 48
        e 0 90 47 48
        e 20 90 40 48
        e 240 80 43 00
        e 0 80 47 00
        e 0 80 40 00
        E 186 90 41 48
        E 0 90 45 48
        E 0 90 48 48
        E 1920 80 41 00
        E 0 80 45 00
        E 0 80 48 00
        E 0 90 41 48
        E 0 90 45 48
        E 0 90 48 48
        E 260 80 41 00
        E 0 80 45 00
        E 0 80 48 00
        E 440 90 41 48
        E 0 90 45 48
        E 0 90 48 48
        E 260 80 41 00
        E 0 80 45 00
        E 0 80 48 00
        e 514 90 41 48
        e 0 90 45 48
        e 0 90 48 48
        e 260 80 41 00
        e 0 80 45 00
        e 0 80 48 00
        E 162 90 3e 48
        E 24 90 41 48
        E 0 90 45 48
        E 1896 90 3e 48
        E 24 80 3e 00
        E 0 80 41 00
        E 0 80 45 00
        E 0 90 41 48
        E 0 90 45 48
        E 260 80 3e 00
        E 0 80 41 00
        E 0 80 45 00
        E 416 90 3e 48
        E 24 90 41 48
        E 0 90 45 48
        E 260 80 3e 00
        E 0 80 41 00
        E 0 80 45 00
        e 490 90 3e 48
        e 24 90 41 48
        e 0 90 45 48
        e 260 80 3e 00
        e 0 80 41 00
        e 0 80 45 00
        E 186 b0 7b 00
        CHASE_CC_TAKEOFFS 1
        GUID {A64857E2-94F8-0990-20DF-4C1E9B5E6251}
        IGNTEMPO 0 120 4 4
        SRCCOLOR 24
        VELLANE -1 100 0
        CFGEDITVIEW 0 0.045808 45 12 0 -1 0 0 0 0.5
        KEYSNAP 0
        TRACKSEL 0
        EVTFILTER 0 -1 -1 -1 -1 0 0 0 0 -1 -1 -1 -1 0 -1 0 -1 -1
        CFGEDIT 1 1 0 1 0 0 1 1 1 1 1 1 58 171 1253 866 0 0 0 0 0.25 0 0 0 0 0.5 0 0 1 64
      >
    >
    <ITEM
      POSITION 64
      SNAPOFFS 0
      LENGTH 8
      LOOP 1
      ALLTAKES 0
      FADEIN 1 0 0 1 0 0
      FADEOUT 1 0 0 1 0 0
      MUTE 0
      SEL 1
      IGUID {DC8D58DB-1BC9-2B94-8AAA-F27621F88951}
      IID 18
      NAME "01-Recorded MIDI"
      VOLPAN 1 0 1 -1
      SOFFS 0 0
      PLAYRATE 1 1 0 -1 0 0.0021
      CHANMODE 0
      GUID {00507E1F-74B1-423B-1D16-28D437E62DA3}
      RECPASS 1
      <SOURCE MIDI
        HASDATA 1 960 QN
        CCINTERP 32
        POOLEDEVTS {36E7F09B-852E-402E-6DFC-BF1972985F59}
        E 0 90 3c 48
        E 0 90 40 48
        E 0 90 43 48
        E 1920 80 3c 00
        E 0 80 40 00
        E 0 80 43 00
        E 0 90 3c 48
        E 0 90 40 48
        E 0 90 43 48
        E 260 80 3c 00
        E 0 80 40 00
        E 0 80 43 00
        E 440 90 3c 48
        E 0 90 40 48
        E 0 90 43 48
        E 260 80 3c 00
        E 0 80 40 00
        E 0 80 43 00
        e 514 90 3c 48
        e 0 90 40 48
        e 0 90 43 48
        e 260 80 3c 00
        e 0 80 40 00
        e 0 80 43 00
        E 186 90 43 48
        E 0 90 47 48
        E 20 90 40 48
        E 1900 80 43 00
        E 0 80 47 00
        E 0 80 40 00
        E 0 90 43 48
        E 0 90 47 48
        E 20 90 40 48
        E 240 80 43 00
        E 0 80 47 00
        E 0 80 40 00
        E 440 90 43 48
        E 0 90 47 48
        E 20 90 40 48
        E 240 80 43 00
        E 0 80 47 00
        E 0 80 40 00
        e 514 90 43 48
        e 0 90 47 48
        e 20 90 40 48
        e 240 80 43 00
        e 0 80 47 00
        e 0 80 40 00
        E 186 90 41 48
        E 0 90 45 48
        E 0 90 48 48
        E 1920 80 41 00
        E 0 80 45 00
        E 0 80 48 00
        E 0 90 41 48
        E 0 90 45 48
        E 0 90 48 48
        E 260 80 41 00
        E 0 80 45 00
        E 0 80 48 00
        E 440 90 41 48
        E 0 90 45 48
        E 0 90 48 48
        E 260 80 41 00
        E 0 80 45 00
        E 0 80 48 00
        e 514 90 41 48
        e 0 90 45 48
        e 0 90 48 48
        e 260 80 41 00
        e 0 80 45 00
        e 0 80 48 00
        E 162 90 3e 48
        E 24 90 41 48
        E 0 90 45 48
        E 1896 90 3e 48
        E 24 80 3e 00
        E 0 80 41 00
        E 0 80 45 00
        E 0 90 41 48
        E 0 90 45 48
        E 260 80 3e 00
        E 0 80 41 00
        E 0 80 45 00
        E 416 90 3e 48
        E 24 90 41 48
        E 0 90 45 48
        E 260 80 3e 00
        E 0 80 41 00
        E 0 80 45 00
        e 490 90 3e 48
        e 24 90 41 48
        e 0 90 45 48
        e 260 80 3e 00
        e 0 80 41 00
        e 0 80 45 00
        E 186 b0 7b 00
        CHASE_CC_TAKEOFFS 1
        GUID {19362806-85F2-5D9E-E1F9-07BE0CF3D16E}
        IGNTEMPO 0 120 4 4
        SRCCOLOR 25
        VELLANE -1 100 0
        CFGEDITVIEW 0 0.045808 45 12 0 -1 0 0 0 0.5
        KEYSNAP 0
        TRACKSEL 0
        EVTFILTER 0 -1 -1 -1 -1 0 0 0 0 -1 -1 -1 -1 0 -1 0 -1 -1
        CFGEDIT 1 1 0 1 0 0 1 1 1 1 1 1 58 171 1253 866 0 0 0 0 0.25 0 0 0 0 0.5 0 0 1 64
      >
    >
    <ITEM
      POSITION 72
      SNAPOFFS 0
      LENGTH 8
      LOOP 1
      ALLTAKES 0
      FADEIN 1 0 0 1 0 0
      FADEOUT 1 0 0 1 0 0
      MUTE 0
      SEL 1
      IGUID {CF8B4CC8-AD12-ADCA-32C8-C79B547BDA51}
      IID 19
      NAME "01-Recorded MIDI"
      VOLPAN 1 0 1 -1
      SOFFS 0 0
      PLAYRATE 1 1 0 -1 0 0.0021
      CHANMODE 0
      GUID {76895487-DA32-FCA6-98FA-B17890EE32BC}
      RECPASS 1
      <SOURCE MIDI
        HASDATA 1 960 QN
        CCINTERP 32
        POOLEDEVTS {47FE62BF-36A9-974D-BBBC-A2A77653418C}
        E 0 90 3c 48
        E 0 90 40 48
        E 0 90 43 48
        E 1920 80 3c 00
        E 0 80 40 00
        E 0 80 43 00
        E 0 90 3c 48
        E 0 90 40 48
        E 0 90 43 48
        E 260 80 3c 00
        E 0 80 40 00
        E 0 80 43 00
        E 440 90 3c 48
        E 0 90 40 48
        E 0 90 43 48
        E 260 80 3c 00
        E 0 80 40 00
        E 0 80 43 00
        e 514 90 3c 48
        e 0 90 40 48
        e 0 90 43 48
        e 260 80 3c 00
        e 0 80 40 00
        e 0 80 43 00
        E 186 90 43 48
        E 0 90 47 48
        E 20 90 40 48
        E 1900 80 43 00
        E 0 80 47 00
        E 0 80 40 00
        E 0 90 43 48
        E 0 90 47 48
        E 20 90 40 48
        E 240 80 43 00
        E 0 80 47 00
        E 0 80 40 00
        E 440 90 43 48
        E 0 90 47 48
        E 20 90 40 48
        E 240 80 43 00
        E 0 80 47 00
        E 0 80 40 00
        e 514 90 43 48
        e 0 90 47 48
        e 20 90 40 48
        e 240 80 43 00
        e 0 80 47 00
        e 0 80 40 00
        E 186 90 41 48
        E 0 90 45 48
        E 0 90 48 48
        E 1920 80 41 00
        E 0 80 45 00
        E 0 80 48 00
        E 0 90 41 48
        E 0 90 45 48
        E 0 90 48 48
        E 260 80 41 00
        E 0 80 45 00
        E 0 80 48 00
        E 440 90 41 48
        E 0 90 45 48
        E 0 90 48 48
        E 260 80 41 00
        E 0 80 45 00
        E 0 80 48 00
        e 514 90 41 48
        e 0 90 45 48
        e 0 90 48 48
        e 260 80 41 00
        e 0 80 45 00
        e 0 80 48 00
        E 162 90 3e 48
        E 24 90 41 48
        E 0 90 45 48
        E 1896 90 3e 48
        E 24 80 3e 00
        E 0 80 41 00
        E 0 80 45 00
        E 0 90 41 48
        E 0 90 45 48
        E 260 80 3e 00
        E 0 80 41 00
        E 0 80 45 00
        E 416 90 3e 48
        E 24 90 41 48
        E 0 90 45 48
        E 260 80 3e 00
        E 0 80 41 00
        E 0 80 45 00
        e 490 90 3e 48
        e 24 90 41 48
        e 0 90 45 48
        e 260 80 3e 00
        e 0 80 41 00
        e 0 80 45 00
        E 186 b0 7b 00
        CHASE_CC_TAKEOFFS 1
        GUID {6844F8A9-6BE9-023C-4A46-0A676470C99B}
        IGNTEMPO 0 120 4 4
        SRCCOLOR 26
        VELLANE -1 100 0
        CFGEDITVIEW 0 0.045808 45 12 0 -1 0 0 0 0.5
        KEYSNAP 0
        TRACKSEL 0
        EVTFILTER 0 -1 -1 -1 -1 0 0 0 0 -1 -1 -1 -1 0 -1 0 -1 -1
        CFGEDIT 1 1 0 1 0 0 1 1 1 1 1 1 58 171 1253 866 0 0 0 0 0.25 0 0 0 0 0.5 0 0 1 64
      >
    >
    <ITEM
      POSITION 80
      SNAPOFFS 0
      LENGTH 8
      LOOP 1
      ALLTAKES 0
      FADEIN 1 0 0 1 0 0
      FADEOUT 1 0 0 1 0 0
      MUTE 0
      SEL 1
      IGUID {FD8E4993-B223-C53A-69B3-F91C42B694FD}
      IID 20
      NAME "01-Recorded MIDI"
      VOLPAN 1 0 1 -1
      SOFFS 0 0
      PLAYRATE 1 1 0 -1 0 0.0021
      CHANMODE 0
      GUID {36615877-5C85-E2F6-F7C7-7F67D131D881}
      RECPASS 1
      <SOURCE MIDI
        HASDATA 1 960 QN
        CCINTERP 32
        POOLEDEVTS {C3AC413D-6B55-0F11-2429-62FBBB4794C6}
        E 0 90 3c 48
        E 0 90 40 48
        E 0 90 43 48
        E 1920 80 3c 00
        E 0 80 40 00
        E 0 80 43 00
        E 0 90 3c 48
        E 0 90 40 48
        E 0 90 43 48
        E 260 80 3c 00
        E 0 80 40 00
        E 0 80 43 00
        E 440 90 3c 48
        E 0 90 40 48
        E 0 90 43 48
        E 260 80 3c 00
        E 0 80 40 00
        E 0 80 43 00
        e 514 90 3c 48
        e 0 90 40 48
        e 0 90 43 48
        e 260 80 3c 00
        e 0 80 40 00
        e 0 80 43 00
        E 186 90 43 48
        E 0 90 47 48
        E 20 90 40 48
        E 1900 80 43 00
        E 0 80 47 00
        E 0 80 40 00
        E 0 90 43 48
        E 0 90 47 48
        E 20 90 40 48
        E 240 80 43 00
        E 0 80 47 00
        E 0 80 40 00
        E 440 90 43 48
        E 0 90 47 48
        E 20 90 40 48
        E 240 80 43 00
        E 0 80 47 00
        E 0 80 40 00
        e 514 90 43 48
        e 0 90 47 48
        e 20 90 40 48
        e 240 80 43 00
        e 0 80 47 00
        e 0 80 40 00
        E 186 90 41 48
        E 0 90 45 48
        E 0 90 48 48
        E 1920 80 41 00
        E 0 80 45 00
        E 0 80 48 00
        E 0 90 41 48
        E 0 90 45 48
        E 0 90 48 48
        E 260 80 41 00
        E 0 80 45 00
        E 0 80 48 00
        E 440 90 41 48
        E 0 90 45 48
        E 0 90 48 48
        E 260 80 41 00
        E 0 80 45 00
        E 0 80 48 00
        e 514 90 41 48
        e 0 90 45 48
        e 0 90 48 48
        e 260 80 41 00
        e 0 80 45 00
        e 0 80 48 00
        E 162 90 3e 48
        E 24 90 41 48
        E 0 90 45 48
        E 1896 90 3e 48
        E 24 80 3e 00
        E 0 80 41 00
        E 0 80 45 00
        E 0 90 41 48
        E 0 90 45 48
        E 260 80 3e 00
        E 0 80 41 00
        E 0 80 45 00
        E 416 90 3e 48
        E 24 90 41 48
        E 0 90 45 48
        E 260 80 3e 00
        E 0 80 41 00
        E 0 80 45 00
        e 490 90 3e 48
        e 24 90 41 48
        e 0 90 45 48
        e 260 80 3e 00
        e 0 80 41 00
        e 0 80 45 00
        E 186 b0 7b 00
        CHASE_CC_TAKEOFFS 1
        GUID {E611ADB6-4869-6CCA-8E83-3954D5E743B1}
        IGNTEMPO 0 120 4 4
        SRCCOLOR 27
        VELLANE -1 100 0
        CFGEDITVIEW 0 0.045808 45 12 0 -1 0 0 0 0.5
        KEYSNAP 0
        TRACKSEL 0
        EVTFILTER 0 -1 -1 -1 -1 0 0 0 0 -1 -1 -1 -1 0 -1 0 -1 -1
        CFGEDIT 1 1 0 1 0 0 1 1 1 1 1 1 58 171 1253 866 0 0 0 0 0.25 0 0 0 0 0.5 0 0 1 64
      >
    >
    <ITEM
      POSITION 88
      SNAPOFFS 0
      LENGTH 8
      LOOP 1
      ALLTAKES 0
      FADEIN 1 0 0 1 0 0
      FADEOUT 1 0 0 1 0 0
      MUTE 0
      SEL 1
      IGUID {D60C161F-18F4-DC0A-8994-9A6A661D6731}
      IID 21
      NAME "01-Recorded MIDI"
      VOLPAN 1 0 1 -1
      SOFFS 0 0
      PLAYRATE 1 1 0 -1 0 0.0021
      CHANMODE 0
      GUID {1891060D-0ABA-5722-6D39-DAD11FAFEA78}
      RECPASS 1
      <SOURCE MIDI
        HASDATA 1 960 QN
        CCINTERP 32
        POOLEDEVTS {9F055BB9-D010-2799-127C-CDA527023B73}
        E 0 90 3c 48
        E 0 90 40 48
        E 0 90 43 48
        E 1920 80 3c 00
        E 0 80 40 00
        E 0 80 43 00
        E 0 90 3c 48
        E 0 90 40 48
        E 0 90 43 48
        E 260 80 3c 00
        E 0 80 40 00
        E 0 80 43 00
        E 440 90 3c 48
        E 0 90 40 48
        E 0 90 43 48
        E 260 80 3c 00
        E 0 80 40 00
        E 0 80 43 00
        e 514 90 3c 48
        e 0 90 40 48
        e 0 90 43 48
        e 260 80 3c 00
        e 0 80 40 00
        e 0 80 43 00
        E 186 90 43 48
        E 0 90 47 48
        E 20 90 40 48
        E 1900 80 43 00
        E 0 80 47 00
        E 0 80 40 00
        E 0 90 43 48
        E 0 90 47 48
        E 20 90 40 48
        E 240 80 43 00
        E 0 80 47 00
        E 0 80 40 00
        E 440 90 43 48
        E 0 90 47 48
        E 20 90 40 48
        E 240 80 43 00
        E 0 80 47 00
        E 0 80 40 00
        e 514 90 43 48
        e 0 90 47 48
        e 20 90 40 48
        e 240 80 43 00
        e 0 80 47 00
        e 0 80 40 00
        E 186 90 41 48
        E 0 90 45 48
        E 0 90 48 48
        E 1920 80 41 00
        E 0 80 45 00
        E 0 80 48 00
        E 0 90 41 48
        E 0 90 45 48
        E 0 90 48 48
        E 260 80 41 00
        E 0 80 45 00
        E 0 80 48 00
        E 440 90 41 48
        E 0 90 45 48
        E 0 90 48 48
        E 260 80 41 00
        E 0 80 45 00
        E 0 80 48 00
        e 514 90 41 48
        e 0 90 45 48
        e 0 90 48 48
        e 260 80 41 00
        e 0 80 45 00
        e 0 80 48 00
        E 162 90 3e 48
        E 24 90 41 48
        E 0 90 45 48
        E 1896 90 3e 48
        E 24 80 3e 00
        E 0 80 41 00
        E 0 80 45 00
        E 0 90 41 48
        E 0 90 45 48
        E 260 80 3e 00
        E 0 80 41 00
        E 0 80 45 00
        E 416 90 3e 48
        E 24 90 41 48
        E 0 90 45 48
        E 260 80 3e 00
        E 0 80 41 00
        E 0 80 45 00
        e 490 90 3e 48
        e 24 90 41 48
        e 0 90 45 48
        e 260 80 3e 00
        e 0 80 41 00
        e 0 80 45 00
        E 186 b0 7b 00
        CHASE_CC_TAKEOFFS 1
        GUID {C762B555-17FC-D765-5340-11D3487D2955}
        IGNTEMPO 0 120 4 4
        SRCCOLOR 28
        VELLANE -1 100 0
        CFGEDITVIEW 0 0.045808 45 12 0 -1 0 0 0 0.5
        KEYSNAP 0
        TRACKSEL 0
        EVTFILTER 0 -1 -1 -1 -1 0 0 0 0 -1 -1 -1 -1 0 -1 0 -1 -1
        CFGEDIT 1 1 0 1 0 0 1 1 1 1 1 1 58 171 1253 866 0 0 0 0 0.25 0 0 0 0 0.5 0 0 1 64
      >
    >
  >
  <TRACK {26C5AD01-8A66-49BA-A091-19A3B9E2824C}
    NAME ""
    PEAKCOL 16576
    BEAT -1
    AUTOMODE 0
    VOLPAN 0.00052194381917 0 -1 -1 1
    MUTESOLO 0 0 0
    IPHASE 0
    PLAYOFFS 0 1
    ISBUS 0 0
    BUSCOMP 0 0 0 0 0
    SHOWINMIX 1 0.6667 0.5 1 0.5 0 0 0
    FREEMODE 0
    SEL 0
    REC 0 5056 1 0 0 0 0
    VU 2
    TRACKHEIGHT 21 0 0
    INQ 0 0 0 0.5 100 0 0 100
    NCHAN 2
    FX 0
    TRACKID {26C5AD01-8A66-49BA-A091-19A3B9E2824C}
    PERF 0
    MIDIOUT -1
    MAINSEND 1 0
    <FXCHAIN
      WNDRECT 346 266 902 608
      SHOW 0
      LASTSEL 5
      DOCKED 0
      BYPASS 0 0 0
      <VST "VST: ReaEQ (Cockos)" reaeq.vst.so 0 "" 1919247729<56535472656571726561657100000000> ""
        cWVlcu5e7f4CAAAAAQAAAAAAAAACAAAAAAAAAAIAAAABAAAAAAAAAAIAAAAAAAAAqAAAAAEAAAAAABAA
        IQAAAAQAAAAEAAAAAQAAAEC4Xhmm+DRAAAAAAAAA8D8AAAAAAAAAQAEIAAAAAQAAAAAAAAAAwHJAAAAAAAAA8D8AAAAAAAAAQAEIAAAAAQAAAAAAAAAAQI9AAAAAAAAA
        8D8AAAAAAAAAQAEDAAAAAQAAAAABaCorbdRAAAAAAAAA8D8AAAAAAAAAQAEBAAAAAQAAAAAAAAAAAPA/AAAAAJoCAACcAQAA
        AEhpZ2ggbG93IHBhc3MAEAAAAA==
      >
      PRESETNAME "High low pass"
      FLOATPOS 0 0 0 0
      FXID {67F6F3FE-BBF4-2EA2-DEC8-01736E1CCC0E}
      WAK 0 0
      BYPASS 0 0 0
      <VST "VSTi: ReaSynth (Cockos)" reasynth.vst.so 0 "" 1919251321<5653547265737972656173796E746800> ""
        eXNlcu9e7f4AAAAAAgAAAAEAAAAAAAAAAgAAAAAAAAA8AAAAAAAAAAAAEAA=
        776t3g3wrd6lm8Q7F7fROgAAAAAAAAAAAAAAAJCNuT3oZ4g9AACAPwAAAD8AAIA/AAAAAAAAAD8AAAAA
        AAAQAAAA
      >
      FLOATPOS 0 0 0 0
      FXID {C78B089C-8637-653D-55A4-9FA368E6D47C}
      WAK 0 0
      BYPASS 0 0 0
      <JS guitar/amp-model ""
        "Dumble Overdrive Special - Tweed Deluxe.wav" -21.000000 1.000000 0.000000 0.000000 -1.000000 - - - - - - - - - - - - - - - - - - - - - - - - - - - - - - - - - - - - - - - - - - - - - - - - - - - - - - - - - - 
      >
      FLOATPOS 0 0 0 0
      FXID {5423C14B-8019-187F-E9B0-83F1FB0103BC}
      WAK 0 0
      BYPASS 0 0 0
      <VST "VST: ReaComp (Cockos)" reacomp.vst.so 0 "" 1919247213<5653547265636D726561636F6D700000> ""
        bWNlcu9e7f4EAAAAAQAAAAAAAAACAAAAAAAAAAQAAAAAAAAACAAAAAAAAAACAAAAAQAAAAAAAAACAAAAAAAAAFQAAAAAAAAAAAAQAA==
        776t3g3wrd5FoYg9/AWpPKWbxDsK16M8AAAAAAAAAAAAAIA/AAAAAAAAAAAAAAAAnNEHMwAAgD8AAAAAzMxMPQAAAAAAAAAAAAAAAAAAgD7YiZ09
        AAAQAAAA
      >
      FLOATPOS 0 0 0 0
      FXID {33DAB970-4AED-4A9D-84C2-A29CF2942D02}
      WAK 0 0
      BYPASS 0 0 0
      <VST "VST: ReaDelay (Cockos)" readelay.vst.so 0 "" 1919247468<5653547265646C72656164656C617900> ""
        bGRlcu5e7f4CAAAAAQAAAAAAAAACAAAAAAAAAAIAAAABAAAAAAAAAAIAAAAAAAAA/AAAAAEAAAAAAAAA
        AAAAAAAAAAAFAAAALAAAAAIAAAAEAAAAAACAPwAAgD8AAAAAAACAPwAAAAAAAIA7vTeGNQAAgD8AAAAAAACAPwAAgD8AAIA/AAAAAAAAAAAAAIA/AAAAAAAAADwAAAAA
        AACAPwAAAAAAAIA/AACAP+87NT8AAIA/AAAAAAAAgD8AAAAAAABAPL03hjUAAIA/AAAAAAAAgD8AAIA/zk0AP6abhD4AAAAAAACAPwAAAAAAAIA8vTeGNQAAgD8AAAAA
        AACAPwAAgD8aqrU+pHA9PwAAAAAAAIA/AAAAAAAAoDy9N4Y1AACAPwAAAAAAAIA/AACAP/npAD4AAAA/
        AHN0b2NrIC0gYmFzaWMgNSB0YXAgcGluZyBwb25nAAAAAAA=
      >
      PRESETNAME "stock - basic 5 tap ping pong"
      FLOATPOS 0 0 0 0
      FXID {FDD74BF7-1040-EE10-6FF1-2AC431E831B2}
      WAK 0 0
      BYPASS 0 0 0
      <VST "VST: ReaVerb (Cockos)" reaverb.vst.so 0 "" 1919252066<56535472657662726561766572620000> ""
        YnZlcu5e7f4CAAAAAQAAAAAAAAACAAAAAAAAAAIAAAABAAAAAAAAAAIAAAAAAAAAcAAAAAEAAAAAAAAA
        AAAAwcybgD4AAIA/AAAAAAAAgD8AAIA/AAAAPwAAgD8AAAAAVkVSQkdFTgAYAAAAAAAAAJHgV0QdrLRA3rK7QsHIjEIAAIC/RUNIT0dFTgAcAAAAy/i2QLUjdUJdzdM/
        osdfP5lRrzyRzYxAnMQAPw==
        AHN3ZWV0dmVyYm8AAAAAAA==
      >
      PRESETNAME sweetverbo
      FLOATPOS 0 0 0 0
      FXID {7D8D6387-F028-C341-C018-35E41A3B2B5F}
      WAK 0 0
    >
    <ITEM
      POSITION 0
      SNAPOFFS 0
      LENGTH 8
      LOOP 1
      ALLTAKES 0
      FADEIN 1 0 0 1 0 0
      FADEOUT 1 0 0 1 0 0
      MUTE 0
      SEL 1
      IGUID {CA5C77A4-872E-B4F3-53AA-C0D12B3D767C}
      IID 10
      NAME "01-Recorded MIDI"
      VOLPAN 1 0 1 -1
      SOFFS 0 0
      PLAYRATE 1 1 0 -1 0 0.0021
      CHANMODE 0
      GUID {5ECE0F57-94CA-E25D-6B85-98F27130C21A}
      RECPASS 1
      <SOURCE MIDI
        HASDATA 1 960 QN
        CCINTERP 32
        POOLEDEVTS {93B1C207-1653-ECB5-D596-ADA6A5DE9B77}
        E 0 90 3c 48
        E 0 90 40 48
        E 0 90 43 48
        E 1920 80 3c 00
        E 0 80 40 00
        E 0 80 43 00
        E 0 90 3c 48
        E 0 90 40 48
        E 0 90 43 48
        E 260 80 3c 00
        E 0 80 40 00
        E 0 80 43 00
        E 440 90 3c 48
        E 0 90 40 48
        E 0 90 43 48
        E 260 80 3c 00
        E 0 80 40 00
        E 0 80 43 00
        e 514 90 3c 48
        e 0 90 40 48
        e 0 90 43 48
        e 260 80 3c 00
        e 0 80 40 00
        e 0 80 43 00
        E 186 90 43 48
        E 0 90 47 48
        E 20 90 40 48
        E 1900 80 43 00
        E 0 80 47 00
        E 0 80 40 00
        E 0 90 43 48
        E 0 90 47 48
        E 20 90 40 48
        E 240 80 43 00
        E 0 80 47 00
        E 0 80 40 00
        E 440 90 43 48
        E 0 90 47 48
        E 20 90 40 48
        E 240 80 43 00
        E 0 80 47 00
        E 0 80 40 00
        e 514 90 43 48
        e 0 90 47 48
        e 20 90 40 48
        e 240 80 43 00
        e 0 80 47 00
        e 0 80 40 00
        E 186 90 41 48
        E 0 90 45 48
        E 0 90 48 48
        E 1920 80 41 00
        E 0 80 45 00
        E 0 80 48 00
        E 0 90 41 48
        E 0 90 45 48
        E 0 90 48 48
        E 260 80 41 00
        E 0 80 45 00
        E 0 80 48 00
        E 440 90 41 48
        E 0 90 45 48
        E 0 90 48 48
        E 260 80 41 00
        E 0 80 45 00
        E 0 80 48 00
        e 514 90 41 48
        e 0 90 45 48
        e 0 90 48 48
        e 260 80 41 00
        e 0 80 45 00
        e 0 80 48 00
        E 162 90 3e 48
        E 24 90 41 48
        E 0 90 45 48
        E 1896 90 3e 48
        E 24 80 3e 00
        E 0 80 41 00
        E 0 80 45 00
        E 0 90 41 48
        E 0 90 45 48
        E 260 80 3e 00
        E 0 80 41 00
        E 0 80 45 00
        E 416 90 3e 48
        E 24 90 41 48
        E 0 90 45 48
        E 260 80 3e 00
        E 0 80 41 00
        E 0 80 45 00
        e 490 90 3e 48
        e 24 90 41 48
        e 0 90 45 48
        e 260 80 3e 00
        e 0 80 41 00
        e 0 80 45 00
        E 186 b0 7b 00
        CHASE_CC_TAKEOFFS 1
        GUID {7B9D708B-43E1-C8D4-C4B3-87E2A6C27801}
        IGNTEMPO 0 120 4 4
        SRCCOLOR 17
        VELLANE -1 100 0
        CFGEDITVIEW 0 0.045808 45 12 0 -1 0 0 0 0.5
        KEYSNAP 0
        TRACKSEL 0
        EVTFILTER 0 -1 -1 -1 -1 0 0 0 0 -1 -1 -1 -1 0 -1 0 -1 -1
        CFGEDIT 1 1 0 1 0 0 1 1 1 1 1 1 58 171 1253 866 0 0 0 0 0.25 0 0 0 0 0.5 0 0 1 64
      >
    >
    <ITEM
      POSITION 8
      SNAPOFFS 0
      LENGTH 8
      LOOP 1
      ALLTAKES 0
      FADEIN 1 0 0 1 0 0
      FADEOUT 1 0 0 1 0 0
      MUTE 0
      SEL 1
      IGUID {4937DA2F-D68D-0492-F095-F082A40A87CE}
      IID 11
      NAME "01-Recorded MIDI"
      VOLPAN 1 0 1 -1
      SOFFS 0 0
      PLAYRATE 1 1 0 -1 0 0.0021
      CHANMODE 0
      GUID {42626806-8770-A22C-840A-30B3DC35D5A4}
      RECPASS 1
      <SOURCE MIDI
        HASDATA 1 960 QN
        CCINTERP 32
        POOLEDEVTS {17FF55DC-24F8-A39F-35CE-BEC16F9E3496}
        E 0 90 3c 48
        E 0 90 40 48
        E 0 90 43 48
        E 1920 80 3c 00
        E 0 80 40 00
        E 0 80 43 00
        E 0 90 3c 48
        E 0 90 40 48
        E 0 90 43 48
        E 260 80 3c 00
        E 0 80 40 00
        E 0 80 43 00
        E 440 90 3c 48
        E 0 90 40 48
        E 0 90 43 48
        E 260 80 3c 00
        E 0 80 40 00
        E 0 80 43 00
        e 514 90 3c 48
        e 0 90 40 48
        e 0 90 43 48
        e 260 80 3c 00
        e 0 80 40 00
        e 0 80 43 00
        E 186 90 43 48
        E 0 90 47 48
        E 20 90 40 48
        E 1900 80 43 00
        E 0 80 47 00
        E 0 80 40 00
        E 0 90 43 48
        E 0 90 47 48
        E 20 90 40 48
        E 240 80 43 00
        E 0 80 47 00
        E 0 80 40 00
        E 440 90 43 48
        E 0 90 47 48
        E 20 90 40 48
        E 240 80 43 00
        E 0 80 47 00
        E 0 80 40 00
        e 514 90 43 48
        e 0 90 47 48
        e 20 90 40 48
        e 240 80 43 00
        e 0 80 47 00
        e 0 80 40 00
        E 186 90 41 48
        E 0 90 45 48
        E 0 90 48 48
        E 1920 80 41 00
        E 0 80 45 00
        E 0 80 48 00
        E 0 90 41 48
        E 0 90 45 48
        E 0 90 48 48
        E 260 80 41 00
        E 0 80 45 00
        E 0 80 48 00
        E 440 90 41 48
        E 0 90 45 48
        E 0 90 48 48
        E 260 80 41 00
        E 0 80 45 00
        E 0 80 48 00
        e 514 90 41 48
        e 0 90 45 48
        e 0 90 48 48
        e 260 80 41 00
        e 0 80 45 00
        e 0 80 48 00
        E 162 90 3e 48
        E 24 90 41 48
        E 0 90 45 48
        E 1896 90 3e 48
        E 24 80 3e 00
        E 0 80 41 00
        E 0 80 45 00
        E 0 90 41 48
        E 0 90 45 48
        E 260 80 3e 00
        E 0 80 41 00
        E 0 80 45 00
        E 416 90 3e 48
        E 24 90 41 48
        E 0 90 45 48
        E 260 80 3e 00
        E 0 80 41 00
        E 0 80 45 00
        e 490 90 3e 48
        e 24 90 41 48
        e 0 90 45 48
        e 260 80 3e 00
        e 0 80 41 00
        e 0 80 45 00
        E 186 b0 7b 00
        CHASE_CC_TAKEOFFS 1
        GUID {3131B4E2-B370-E352-A9C5-C8CA31551A86}
        IGNTEMPO 0 120 4 4
        SRCCOLOR 18
        VELLANE -1 100 0
        CFGEDITVIEW 0 0.045808 45 12 0 -1 0 0 0 0.5
        KEYSNAP 0
        TRACKSEL 0
        EVTFILTER 0 -1 -1 -1 -1 0 0 0 0 -1 -1 -1 -1 0 -1 0 -1 -1
        CFGEDIT 1 1 0 1 0 0 1 1 1 1 1 1 58 171 1253 866 0 0 0 0 0.25 0 0 0 0 0.5 0 0 1 64
      >
    >
    <ITEM
      POSITION 16
      SNAPOFFS 0
      LENGTH 8
      LOOP 1
      ALLTAKES 0
      FADEIN 1 0 0 1 0 0
      FADEOUT 1 0 0 1 0 0
      MUTE 0
      SEL 1
      IGUID {497C8898-457D-0AC8-93F6-BA3F512BB27A}
      IID 12
      NAME "01-Recorded MIDI"
      VOLPAN 1 0 1 -1
      SOFFS 0 0
      PLAYRATE 1 1 0 -1 0 0.0021
      CHANMODE 0
      GUID {D27C2CDD-C918-B031-C47B-DFF09EBB4420}
      RECPASS 1
      <SOURCE MIDI
        HASDATA 1 960 QN
        CCINTERP 32
        POOLEDEVTS {4E7E9380-8463-1BDB-5E05-36589B14FA5A}
        E 0 90 3c 48
        E 0 90 40 48
        E 0 90 43 48
        E 1920 80 3c 00
        E 0 80 40 00
        E 0 80 43 00
        E 0 90 3c 48
        E 0 90 40 48
        E 0 90 43 48
        E 260 80 3c 00
        E 0 80 40 00
        E 0 80 43 00
        E 440 90 3c 48
        E 0 90 40 48
        E 0 90 43 48
        E 260 80 3c 00
        E 0 80 40 00
        E 0 80 43 00
        e 514 90 3c 48
        e 0 90 40 48
        e 0 90 43 48
        e 260 80 3c 00
        e 0 80 40 00
        e 0 80 43 00
        E 186 90 43 48
        E 0 90 47 48
        E 20 90 40 48
        E 1900 80 43 00
        E 0 80 47 00
        E 0 80 40 00
        E 0 90 43 48
        E 0 90 47 48
        E 20 90 40 48
        E 240 80 43 00
        E 0 80 47 00
        E 0 80 40 00
        E 440 90 43 48
        E 0 90 47 48
        E 20 90 40 48
        E 240 80 43 00
        E 0 80 47 00
        E 0 80 40 00
        e 514 90 43 48
        e 0 90 47 48
        e 20 90 40 48
        e 240 80 43 00
        e 0 80 47 00
        e 0 80 40 00
        E 186 90 41 48
        E 0 90 45 48
        E 0 90 48 48
        E 1920 80 41 00
        E 0 80 45 00
        E 0 80 48 00
        E 0 90 41 48
        E 0 90 45 48
        E 0 90 48 48
        E 260 80 41 00
        E 0 80 45 00
        E 0 80 48 00
        E 440 90 41 48
        E 0 90 45 48
        E 0 90 48 48
        E 260 80 41 00
        E 0 80 45 00
        E 0 80 48 00
        e 514 90 41 48
        e 0 90 45 48
        e 0 90 48 48
        e 260 80 41 00
        e 0 80 45 00
        e 0 80 48 00
        E 162 90 3e 48
        E 24 90 41 48
        E 0 90 45 48
        E 1896 90 3e 48
        E 24 80 3e 00
        E 0 80 41 00
        E 0 80 45 00
        E 0 90 41 48
        E 0 90 45 48
        E 260 80 3e 00
        E 0 80 41 00
        E 0 80 45 00
        E 416 90 3e 48
        E 24 90 41 48
        E 0 90 45 48
        E 260 80 3e 00
        E 0 80 41 00
        E 0 80 45 00
        e 490 90 3e 48
        e 24 90 41 48
        e 0 90 45 48
        e 260 80 3e 00
        e 0 80 41 00
        e 0 80 45 00
        E 186 b0 7b 00
        CHASE_CC_TAKEOFFS 1
        GUID {48C567A2-895C-FB9B-FDBA-0ADB7004ABF3}
        IGNTEMPO 0 120 4 4
        SRCCOLOR 19
        VELLANE -1 100 0
        CFGEDITVIEW 0 0.045808 45 12 0 -1 0 0 0 0.5
        KEYSNAP 0
        TRACKSEL 0
        EVTFILTER 0 -1 -1 -1 -1 0 0 0 0 -1 -1 -1 -1 0 -1 0 -1 -1
        CFGEDIT 1 1 0 1 0 0 1 1 1 1 1 1 58 171 1253 866 0 0 0 0 0.25 0 0 0 0 0.5 0 0 1 64
      >
    >
    <ITEM
      POSITION 24
      SNAPOFFS 0
      LENGTH 8
      LOOP 1
      ALLTAKES 0
      FADEIN 1 0 0 1 0 0
      FADEOUT 1 0 0 1 0 0
      MUTE 0
      SEL 1
      IGUID {2190AD85-2EF6-D231-1DDE-0B3D8549FDD7}
      IID 13
      NAME "01-Recorded MIDI"
      VOLPAN 1 0 1 -1
      SOFFS 0 0
      PLAYRATE 1 1 0 -1 0 0.0021
      CHANMODE 0
      GUID {E7AFAD29-4BAD-5E9D-CF92-85F0238D0FF5}
      RECPASS 1
      <SOURCE MIDI
        HASDATA 1 960 QN
        CCINTERP 32
        POOLEDEVTS {B19BA706-977F-F86D-7004-68B9A7976A0F}
        E 0 90 3c 48
        E 0 90 40 48
        E 0 90 43 48
        E 1920 80 3c 00
        E 0 80 40 00
        E 0 80 43 00
        E 0 90 3c 48
        E 0 90 40 48
        E 0 90 43 48
        E 260 80 3c 00
        E 0 80 40 00
        E 0 80 43 00
        E 440 90 3c 48
        E 0 90 40 48
        E 0 90 43 48
        E 260 80 3c 00
        E 0 80 40 00
        E 0 80 43 00
        e 514 90 3c 48
        e 0 90 40 48
        e 0 90 43 48
        e 260 80 3c 00
        e 0 80 40 00
        e 0 80 43 00
        E 186 90 43 48
        E 0 90 47 48
        E 20 90 40 48
        E 1900 80 43 00
        E 0 80 47 00
        E 0 80 40 00
        E 0 90 43 48
        E 0 90 47 48
        E 20 90 40 48
        E 240 80 43 00
        E 0 80 47 00
        E 0 80 40 00
        E 440 90 43 48
        E 0 90 47 48
        E 20 90 40 48
        E 240 80 43 00
        E 0 80 47 00
        E 0 80 40 00
        e 514 90 43 48
        e 0 90 47 48
        e 20 90 40 48
        e 240 80 43 00
        e 0 80 47 00
        e 0 80 40 00
        E 186 90 41 48
        E 0 90 45 48
        E 0 90 48 48
        E 1920 80 41 00
        E 0 80 45 00
        E 0 80 48 00
        E 0 90 41 48
        E 0 90 45 48
        E 0 90 48 48
        E 260 80 41 00
        E 0 80 45 00
        E 0 80 48 00
        E 440 90 41 48
        E 0 90 45 48
        E 0 90 48 48
        E 260 80 41 00
        E 0 80 45 00
        E 0 80 48 00
        e 514 90 41 48
        e 0 90 45 48
        e 0 90 48 48
        e 260 80 41 00
        e 0 80 45 00
        e 0 80 48 00
        E 162 90 3e 48
        E 24 90 41 48
        E 0 90 45 48
        E 1896 90 3e 48
        E 24 80 3e 00
        E 0 80 41 00
        E 0 80 45 00
        E 0 90 41 48
        E 0 90 45 48
        E 260 80 3e 00
        E 0 80 41 00
        E 0 80 45 00
        E 416 90 3e 48
        E 24 90 41 48
        E 0 90 45 48
        E 260 80 3e 00
        E 0 80 41 00
        E 0 80 45 00
        e 490 90 3e 48
        e 24 90 41 48
        e 0 90 45 48
        e 260 80 3e 00
        e 0 80 41 00
        e 0 80 45 00
        E 186 b0 7b 00
        CHASE_CC_TAKEOFFS 1
        GUID {1DE38800-E2A1-41B5-9C8C-3291891093B1}
        IGNTEMPO 0 120 4 4
        SRCCOLOR 20
        VELLANE -1 100 0
        CFGEDITVIEW 0 0.045808 45 12 0 -1 0 0 0 0.5
        KEYSNAP 0
        TRACKSEL 0
        EVTFILTER 0 -1 -1 -1 -1 0 0 0 0 -1 -1 -1 -1 0 -1 0 -1 -1
        CFGEDIT 1 1 0 1 0 0 1 1 1 1 1 1 58 171 1253 866 0 0 0 0 0.25 0 0 0 0 0.5 0 0 1 64
      >
    >
    <ITEM
      POSITION 32
      SNAPOFFS 0
      LENGTH 8
      LOOP 1
      ALLTAKES 0
      FADEIN 1 0 0 1 0 0
      FADEOUT 1 0 0 1 0 0
      MUTE 0
      SEL 1
      IGUID {D9A2E072-5B2E-BD59-757B-FED94E56F547}
      IID 14
      NAME "01-Recorded MIDI"
      VOLPAN 1 0 1 -1
      SOFFS 0 0
      PLAYRATE 1 1 0 -1 0 0.0021
      CHANMODE 0
      GUID {C9A50EA1-7EC4-F926-A189-ECE3E0E5E946}
      RECPASS 1
      <SOURCE MIDI
        HASDATA 1 960 QN
        CCINTERP 32
        POOLEDEVTS {23A1357B-AA62-998A-E7AA-C3DA8F772DA1}
        E 0 90 3c 48
        E 0 90 40 48
        E 0 90 43 48
        E 1920 80 3c 00
        E 0 80 40 00
        E 0 80 43 00
        E 0 90 3c 48
        E 0 90 40 48
        E 0 90 43 48
        E 260 80 3c 00
        E 0 80 40 00
        E 0 80 43 00
        E 440 90 3c 48
        E 0 90 40 48
        E 0 90 43 48
        E 260 80 3c 00
        E 0 80 40 00
        E 0 80 43 00
        e 514 90 3c 48
        e 0 90 40 48
        e 0 90 43 48
        e 260 80 3c 00
        e 0 80 40 00
        e 0 80 43 00
        E 186 90 43 48
        E 0 90 47 48
        E 20 90 40 48
        E 1900 80 43 00
        E 0 80 47 00
        E 0 80 40 00
        E 0 90 43 48
        E 0 90 47 48
        E 20 90 40 48
        E 240 80 43 00
        E 0 80 47 00
        E 0 80 40 00
        E 440 90 43 48
        E 0 90 47 48
        E 20 90 40 48
        E 240 80 43 00
        E 0 80 47 00
        E 0 80 40 00
        e 514 90 43 48
        e 0 90 47 48
        e 20 90 40 48
        e 240 80 43 00
        e 0 80 47 00
        e 0 80 40 00
        E 186 90 41 48
        E 0 90 45 48
        E 0 90 48 48
        E 1920 80 41 00
        E 0 80 45 00
        E 0 80 48 00
        E 0 90 41 48
        E 0 90 45 48
        E 0 90 48 48
        E 260 80 41 00
        E 0 80 45 00
        E 0 80 48 00
        E 440 90 41 48
        E 0 90 45 48
        E 0 90 48 48
        E 260 80 41 00
        E 0 80 45 00
        E 0 80 48 00
        e 514 90 41 48
        e 0 90 45 48
        e 0 90 48 48
        e 260 80 41 00
        e 0 80 45 00
        e 0 80 48 00
        E 162 90 3e 48
        E 24 90 41 48
        E 0 90 45 48
        E 1896 90 3e 48
        E 24 80 3e 00
        E 0 80 41 00
        E 0 80 45 00
        E 0 90 41 48
        E 0 90 45 48
        E 260 80 3e 00
        E 0 80 41 00
        E 0 80 45 00
        E 416 90 3e 48
        E 24 90 41 48
        E 0 90 45 48
        E 260 80 3e 00
        E 0 80 41 00
        E 0 80 45 00
        e 490 90 3e 48
        e 24 90 41 48
        e 0 90 45 48
        e 260 80 3e 00
        e 0 80 41 00
        e 0 80 45 00
        E 186 b0 7b 00
        CHASE_CC_TAKEOFFS 1
        GUID {0C3271F4-E233-9088-9B25-A722FAE7C579}
        IGNTEMPO 0 120 4 4
        SRCCOLOR 21
        VELLANE -1 100 0
        CFGEDITVIEW 0 0.045808 45 12 0 -1 0 0 0 0.5
        KEYSNAP 0
        TRACKSEL 0
        EVTFILTER 0 -1 -1 -1 -1 0 0 0 0 -1 -1 -1 -1 0 -1 0 -1 -1
        CFGEDIT 1 1 0 1 0 0 1 1 1 1 1 1 58 171 1253 866 0 0 0 0 0.25 0 0 0 0 0.5 0 0 1 64
      >
    >
    <ITEM
      POSITION 40
      SNAPOFFS 0
      LENGTH 8
      LOOP 1
      ALLTAKES 0
      FADEIN 1 0 0 1 0 0
      FADEOUT 1 0 0 1 0 0
      MUTE 0
      SEL 1
      IGUID {6C4F8FEC-AC56-F1AC-AE17-9692DD775373}
      IID 15
      NAME "01-Recorded MIDI"
      VOLPAN 1 0 1 -1
      SOFFS 0 0
      PLAYRATE 1 1 0 -1 0 0.0021
      CHANMODE 0
      GUID {FE7C4E54-C921-26A3-AC72-B91B5F83CDC4}
      RECPASS 1
      <SOURCE MIDI
        HASDATA 1 960 QN
        CCINTERP 32
        POOLEDEVTS {E6F260D5-CCA5-6E05-0FEC-1817BDAADC29}
        E 0 90 3c 48
        E 0 90 40 48
        E 0 90 43 48
        E 1920 80 3c 00
        E 0 80 40 00
        E 0 80 43 00
        E 0 90 3c 48
        E 0 90 40 48
        E 0 90 43 48
        E 260 80 3c 00
        E 0 80 40 00
        E 0 80 43 00
        E 440 90 3c 48
        E 0 90 40 48
        E 0 90 43 48
        E 260 80 3c 00
        E 0 80 40 00
        E 0 80 43 00
        e 514 90 3c 48
        e 0 90 40 48
        e 0 90 43 48
        e 260 80 3c 00
        e 0 80 40 00
        e 0 80 43 00
        E 186 90 43 48
        E 0 90 47 48
        E 20 90 40 48
        E 1900 80 43 00
        E 0 80 47 00
        E 0 80 40 00
        E 0 90 43 48
        E 0 90 47 48
        E 20 90 40 48
        E 240 80 43 00
        E 0 80 47 00
        E 0 80 40 00
        E 440 90 43 48
        E 0 90 47 48
        E 20 90 40 48
        E 240 80 43 00
        E 0 80 47 00
        E 0 80 40 00
        e 514 90 43 48
        e 0 90 47 48
        e 20 90 40 48
        e 240 80 43 00
        e 0 80 47 00
        e 0 80 40 00
        E 186 90 41 48
        E 0 90 45 48
        E 0 90 48 48
        E 1920 80 41 00
        E 0 80 45 00
        E 0 80 48 00
        E 0 90 41 48
        E 0 90 45 48
        E 0 90 48 48
        E 260 80 41 00
        E 0 80 45 00
        E 0 80 48 00
        E 440 90 41 48
        E 0 90 45 48
        E 0 90 48 48
        E 260 80 41 00
        E 0 80 45 00
        E 0 80 48 00
        e 514 90 41 48
        e 0 90 45 48
        e 0 90 48 48
        e 260 80 41 00
        e 0 80 45 00
        e 0 80 48 00
        E 162 90 3e 48
        E 24 90 41 48
        E 0 90 45 48
        E 1896 90 3e 48
        E 24 80 3e 00
        E 0 80 41 00
        E 0 80 45 00
        E 0 90 41 48
        E 0 90 45 48
        E 260 80 3e 00
        E 0 80 41 00
        E 0 80 45 00
        E 416 90 3e 48
        E 24 90 41 48
        E 0 90 45 48
        E 260 80 3e 00
        E 0 80 41 00
        E 0 80 45 00
        e 490 90 3e 48
        e 24 90 41 48
        e 0 90 45 48
        e 260 80 3e 00
        e 0 80 41 00
        e 0 80 45 00
        E 186 b0 7b 00
        CHASE_CC_TAKEOFFS 1
        GUID {040E7AF8-3572-5D91-3C86-797AEE7444D4}
        IGNTEMPO 0 120 4 4
        SRCCOLOR 22
        VELLANE -1 100 0
        CFGEDITVIEW 0 0.045808 45 12 0 -1 0 0 0 0.5
        KEYSNAP 0
        TRACKSEL 0
        EVTFILTER 0 -1 -1 -1 -1 0 0 0 0 -1 -1 -1 -1 0 -1 0 -1 -1
        CFGEDIT 1 1 0 1 0 0 1 1 1 1 1 1 58 171 1253 866 0 0 0 0 0.25 0 0 0 0 0.5 0 0 1 64
      >
    >
    <ITEM
      POSITION 48
      SNAPOFFS 0
      LENGTH 8
      LOOP 1
      ALLTAKES 0
      FADEIN 1 0 0 1 0 0
      FADEOUT 1 0 0 1 0 0
      MUTE 0
      SEL 1
      IGUID {39C81242-2121-BB43-F815-6715CCD6EF81}
      IID 16
      NAME "01-Recorded MIDI"
      VOLPAN 1 0 1 -1
      SOFFS 0 0
      PLAYRATE 1 1 0 -1 0 0.0021
      CHANMODE 0
      GUID {BCD1F2F3-DB66-3892-F2B9-A168ECCB4FDB}
      RECPASS 1
      <SOURCE MIDI
        HASDATA 1 960 QN
        CCINTERP 32
        POOLEDEVTS {40AF4B3A-89AE-F1A0-553E-210C834A0928}
        E 0 90 3c 48
        E 0 90 40 48
        E 0 90 43 48
        E 1920 80 3c 00
        E 0 80 40 00
        E 0 80 43 00
        E 0 90 3c 48
        E 0 90 40 48
        E 0 90 43 48
        E 260 80 3c 00
        E 0 80 40 00
        E 0 80 43 00
        E 440 90 3c 48
        E 0 90 40 48
        E 0 90 43 48
        E 260 80 3c 00
        E 0 80 40 00
        E 0 80 43 00
        e 514 90 3c 48
        e 0 90 40 48
        e 0 90 43 48
        e 260 80 3c 00
        e 0 80 40 00
        e 0 80 43 00
        E 186 90 43 48
        E 0 90 47 48
        E 20 90 40 48
        E 1900 80 43 00
        E 0 80 47 00
        E 0 80 40 00
        E 0 90 43 48
        E 0 90 47 48
        E 20 90 40 48
        E 240 80 43 00
        E 0 80 47 00
        E 0 80 40 00
        E 440 90 43 48
        E 0 90 47 48
        E 20 90 40 48
        E 240 80 43 00
        E 0 80 47 00
        E 0 80 40 00
        e 514 90 43 48
        e 0 90 47 48
        e 20 90 40 48
        e 240 80 43 00
        e 0 80 47 00
        e 0 80 40 00
        E 186 90 41 48
        E 0 90 45 48
        E 0 90 48 48
        E 1920 80 41 00
        E 0 80 45 00
        E 0 80 48 00
        E 0 90 41 48
        E 0 90 45 48
        E 0 90 48 48
        E 260 80 41 00
        E 0 80 45 00
        E 0 80 48 00
        E 440 90 41 48
        E 0 90 45 48
        E 0 90 48 48
        E 260 80 41 00
        E 0 80 45 00
        E 0 80 48 00
        e 514 90 41 48
        e 0 90 45 48
        e 0 90 48 48
        e 260 80 41 00
        e 0 80 45 00
        e 0 80 48 00
        E 162 90 3e 48
        E 24 90 41 48
        E 0 90 45 48
        E 1896 90 3e 48
        E 24 80 3e 00
        E 0 80 41 00
        E 0 80 45 00
        E 0 90 41 48
        E 0 90 45 48
        E 260 80 3e 00
        E 0 80 41 00
        E 0 80 45 00
        E 416 90 3e 48
        E 24 90 41 48
        E 0 90 45 48
        E 260 80 3e 00
        E 0 80 41 00
        E 0 80 45 00
        e 490 90 3e 48
        e 24 90 41 48
        e 0 90 45 48
        e 260 80 3e 00
        e 0 80 41 00
        e 0 80 45 00
        E 186 b0 7b 00
        CHASE_CC_TAKEOFFS 1
        GUID {2338968B-6CF9-9F40-300F-DEB89D3392EA}
        IGNTEMPO 0 120 4 4
        SRCCOLOR 23
        VELLANE -1 100 0
        CFGEDITVIEW 0 0.045808 45 12 0 -1 0 0 0 0.5
        KEYSNAP 0
        TRACKSEL 0
        EVTFILTER 0 -1 -1 -1 -1 0 0 0 0 -1 -1 -1 -1 0 -1 0 -1 -1
        CFGEDIT 1 1 0 1 0 0 1 1 1 1 1 1 58 171 1253 866 0 0 0 0 0.25 0 0 0 0 0.5 0 0 1 64
      >
    >
    <ITEM
      POSITION 56
      SNAPOFFS 0
      LENGTH 8
      LOOP 1
      ALLTAKES 0
      FADEIN 1 0 0 1 0 0
      FADEOUT 1 0 0 1 0 0
      MUTE 0
      SEL 1
      IGUID {9B6A4F46-9967-5807-B849-1AB544EA40A6}
      IID 17
      NAME "01-Recorded MIDI"
      VOLPAN 1 0 1 -1
      SOFFS 0 0
      PLAYRATE 1 1 0 -1 0 0.0021
      CHANMODE 0
      GUID {E173F13D-EED8-4CB5-76DC-FA18289EF4B5}
      RECPASS 1
      <SOURCE MIDI
        HASDATA 1 960 QN
        CCINTERP 32
        POOLEDEVTS {216D08C5-43F0-8D71-D898-F8BC9642AAE7}
        E 0 90 3c 48
        E 0 90 40 48
        E 0 90 43 48
        E 1920 80 3c 00
        E 0 80 40 00
        E 0 80 43 00
        E 0 90 3c 48
        E 0 90 40 48
        E 0 90 43 48
        E 260 80 3c 00
        E 0 80 40 00
        E 0 80 43 00
        E 440 90 3c 48
        E 0 90 40 48
        E 0 90 43 48
        E 260 80 3c 00
        E 0 80 40 00
        E 0 80 43 00
        e 514 90 3c 48
        e 0 90 40 48
        e 0 90 43 48
        e 260 80 3c 00
        e 0 80 40 00
        e 0 80 43 00
        E 186 90 43 48
        E 0 90 47 48
        E 20 90 40 48
        E 1900 80 43 00
        E 0 80 47 00
        E 0 80 40 00
        E 0 90 43 48
        E 0 90 47 48
        E 20 90 40 48
        E 240 80 43 00
        E 0 80 47 00
        E 0 80 40 00
        E 440 90 43 48
        E 0 90 47 48
        E 20 90 40 48
        E 240 80 43 00
        E 0 80 47 00
        E 0 80 40 00
        e 514 90 43 48
        e 0 90 47 48
        e 20 90 40 48
        e 240 80 43 00
        e 0 80 47 00
        e 0 80 40 00
        E 186 90 41 48
        E 0 90 45 48
        E 0 90 48 48
        E 1920 80 41 00
        E 0 80 45 00
        E 0 80 48 00
        E 0 90 41 48
        E 0 90 45 48
        E 0 90 48 48
        E 260 80 41 00
        E 0 80 45 00
        E 0 80 48 00
        E 440 90 41 48
        E 0 90 45 48
        E 0 90 48 48
        E 260 80 41 00
        E 0 80 45 00
        E 0 80 48 00
        e 514 90 41 48
        e 0 90 45 48
        e 0 90 48 48
        e 260 80 41 00
        e 0 80 45 00
        e 0 80 48 00
        E 162 90 3e 48
        E 24 90 41 48
        E 0 90 45 48
        E 1896 90 3e 48
        E 24 80 3e 00
        E 0 80 41 00
        E 0 80 45 00
        E 0 90 41 48
        E 0 90 45 48
        E 260 80 3e 00
        E 0 80 41 00
        E 0 80 45 00
        E 416 90 3e 48
        E 24 90 41 48
        E 0 90 45 48
        E 260 80 3e 00
        E 0 80 41 00
        E 0 80 45 00
        e 490 90 3e 48
        e 24 90 41 48
        e 0 90 45 48
        e 260 80 3e 00
        e 0 80 41 00
        e 0 80 45 00
        E 186 b0 7b 00
        CHASE_CC_TAKEOFFS 1
        GUID {A64857E2-94F8-0990-20DF-4C1E9B5E6251}
        IGNTEMPO 0 120 4 4
        SRCCOLOR 24
        VELLANE -1 100 0
        CFGEDITVIEW 0 0.045808 45 12 0 -1 0 0 0 0.5
        KEYSNAP 0
        TRACKSEL 0
        EVTFILTER 0 -1 -1 -1 -1 0 0 0 0 -1 -1 -1 -1 0 -1 0 -1 -1
        CFGEDIT 1 1 0 1 0 0 1 1 1 1 1 1 58 171 1253 866 0 0 0 0 0.25 0 0 0 0 0.5 0 0 1 64
      >
    >
    <ITEM
      POSITION 64
      SNAPOFFS 0
      LENGTH 8
      LOOP 1
      ALLTAKES 0
      FADEIN 1 0 0 1 0 0
      FADEOUT 1 0 0 1 0 0
      MUTE 0
      SEL 1
      IGUID {11D8DB32-ED5C-7523-9B0E-2013F6E496E1}
      IID 18
      NAME "01-Recorded MIDI"
      VOLPAN 1 0 1 -1
      SOFFS 0 0
      PLAYRATE 1 1 0 -1 0 0.0021
      CHANMODE 0
      GUID {87BA6FC3-115D-349C-938F-86DAF270F0B1}
      RECPASS 1
      <SOURCE MIDI
        HASDATA 1 960 QN
        CCINTERP 32
        POOLEDEVTS {A322CDF5-32B4-D9F0-3ACD-D8B6533FC1C8}
        E 0 90 3c 48
        E 0 90 40 48
        E 0 90 43 48
        E 1920 80 3c 00
        E 0 80 40 00
        E 0 80 43 00
        E 0 90 3c 48
        E 0 90 40 48
        E 0 90 43 48
        E 260 80 3c 00
        E 0 80 40 00
        E 0 80 43 00
        E 440 90 3c 48
        E 0 90 40 48
        E 0 90 43 48
        E 260 80 3c 00
        E 0 80 40 00
        E 0 80 43 00
        e 514 90 3c 48
        e 0 90 40 48
        e 0 90 43 48
        e 260 80 3c 00
        e 0 80 40 00
        e 0 80 43 00
        E 186 90 43 48
        E 0 90 47 48
        E 20 90 40 48
        E 1900 80 43 00
        E 0 80 47 00
        E 0 80 40 00
        E 0 90 43 48
        E 0 90 47 48
        E 20 90 40 48
        E 240 80 43 00
        E 0 80 47 00
        E 0 80 40 00
        E 440 90 43 48
        E 0 90 47 48
        E 20 90 40 48
        E 240 80 43 00
        E 0 80 47 00
        E 0 80 40 00
        e 514 90 43 48
        e 0 90 47 48
        e 20 90 40 48
        e 240 80 43 00
        e 0 80 47 00
        e 0 80 40 00
        E 186 90 41 48
        E 0 90 45 48
        E 0 90 48 48
        E 1920 80 41 00
        E 0 80 45 00
        E 0 80 48 00
        E 0 90 41 48
        E 0 90 45 48
        E 0 90 48 48
        E 260 80 41 00
        E 0 80 45 00
        E 0 80 48 00
        E 440 90 41 48
        E 0 90 45 48
        E 0 90 48 48
        E 260 80 41 00
        E 0 80 45 00
        E 0 80 48 00
        e 514 90 41 48
        e 0 90 45 48
        e 0 90 48 48
        e 260 80 41 00
        e 0 80 45 00
        e 0 80 48 00
        E 162 90 3e 48
        E 24 90 41 48
        E 0 90 45 48
        E 1896 90 3e 48
        E 24 80 3e 00
        E 0 80 41 00
        E 0 80 45 00
        E 0 90 41 48
        E 0 90 45 48
        E 260 80 3e 00
        E 0 80 41 00
        E 0 80 45 00
        E 416 90 3e 48
        E 24 90 41 48
        E 0 90 45 48
        E 260 80 3e 00
        E 0 80 41 00
        E 0 80 45 00
        e 490 90 3e 48
        e 24 90 41 48
        e 0 90 45 48
        e 260 80 3e 00
        e 0 80 41 00
        e 0 80 45 00
        E 186 b0 7b 00
        CHASE_CC_TAKEOFFS 1
        GUID {19362806-85F2-5D9E-E1F9-07BE0CF3D16E}
        IGNTEMPO 0 120 4 4
        SRCCOLOR 25
        VELLANE -1 100 0
        CFGEDITVIEW 0 0.045808 45 12 0 -1 0 0 0 0.5
        KEYSNAP 0
        TRACKSEL 0
        EVTFILTER 0 -1 -1 -1 -1 0 0 0 0 -1 -1 -1 -1 0 -1 0 -1 -1
        CFGEDIT 1 1 0 1 0 0 1 1 1 1 1 1 58 171 1253 866 0 0 0 0 0.25 0 0 0 0 0.5 0 0 1 64
      >
    >
    <ITEM
      POSITION 72
      SNAPOFFS 0
      LENGTH 8
      LOOP 1
      ALLTAKES 0
      FADEIN 1 0 0 1 0 0
      FADEOUT 1 0 0 1 0 0
      MUTE 0
      SEL 1
      IGUID {E55B3A3D-0F67-549C-18D9-983B5F3F7C1B}
      IID 19
      NAME "01-Recorded MIDI"
      VOLPAN 1 0 1 -1
      SOFFS 0 0
      PLAYRATE 1 1 0 -1 0 0.0021
      CHANMODE 0
      GUID {F682CF8A-2F5F-4DE2-DB01-434EB4ACAF1C}
      RECPASS 1
      <SOURCE MIDI
        HASDATA 1 960 QN
        CCINTERP 32
        POOLEDEVTS {EAAECB2B-2D49-3D1D-D2C5-66FCCE91CF2D}
        E 0 90 3c 48
        E 0 90 40 48
        E 0 90 43 48
        E 1920 80 3c 00
        E 0 80 40 00
        E 0 80 43 00
        E 0 90 3c 48
        E 0 90 40 48
        E 0 90 43 48
        E 260 80 3c 00
        E 0 80 40 00
        E 0 80 43 00
        E 440 90 3c 48
        E 0 90 40 48
        E 0 90 43 48
        E 260 80 3c 00
        E 0 80 40 00
        E 0 80 43 00
        e 514 90 3c 48
        e 0 90 40 48
        e 0 90 43 48
        e 260 80 3c 00
        e 0 80 40 00
        e 0 80 43 00
        E 186 90 43 48
        E 0 90 47 48
        E 20 90 40 48
        E 1900 80 43 00
        E 0 80 47 00
        E 0 80 40 00
        E 0 90 43 48
        E 0 90 47 48
        E 20 90 40 48
        E 240 80 43 00
        E 0 80 47 00
        E 0 80 40 00
        E 440 90 43 48
        E 0 90 47 48
        E 20 90 40 48
        E 240 80 43 00
        E 0 80 47 00
        E 0 80 40 00
        e 514 90 43 48
        e 0 90 47 48
        e 20 90 40 48
        e 240 80 43 00
        e 0 80 47 00
        e 0 80 40 00
        E 186 90 41 48
        E 0 90 45 48
        E 0 90 48 48
        E 1920 80 41 00
        E 0 80 45 00
        E 0 80 48 00
        E 0 90 41 48
        E 0 90 45 48
        E 0 90 48 48
        E 260 80 41 00
        E 0 80 45 00
        E 0 80 48 00
        E 440 90 41 48
        E 0 90 45 48
        E 0 90 48 48
        E 260 80 41 00
        E 0 80 45 00
        E 0 80 48 00
        e 514 90 41 48
        e 0 90 45 48
        e 0 90 48 48
        e 260 80 41 00
        e 0 80 45 00
        e 0 80 48 00
        E 162 90 3e 48
        E 24 90 41 48
        E 0 90 45 48
        E 1896 90 3e 48
        E 24 80 3e 00
        E 0 80 41 00
        E 0 80 45 00
        E 0 90 41 48
        E 0 90 45 48
        E 260 80 3e 00
        E 0 80 41 00
        E 0 80 45 00
        E 416 90 3e 48
        E 24 90 41 48
        E 0 90 45 48
        E 260 80 3e 00
        E 0 80 41 00
        E 0 80 45 00
        e 490 90 3e 48
        e 24 90 41 48
        e 0 90 45 48
        e 260 80 3e 00
        e 0 80 41 00
        e 0 80 45 00
        E 186 b0 7b 00
        CHASE_CC_TAKEOFFS 1
        GUID {6844F8A9-6BE9-023C-4A46-0A676470C99B}
        IGNTEMPO 0 120 4 4
        SRCCOLOR 26
        VELLANE -1 100 0
        CFGEDITVIEW 0 0.045808 45 12 0 -1 0 0 0 0.5
        KEYSNAP 0
        TRACKSEL 0
        EVTFILTER 0 -1 -1 -1 -1 0 0 0 0 -1 -1 -1 -1 0 -1 0 -1 -1
        CFGEDIT 1 1 0 1 0 0 1 1 1 1 1 1 58 171 1253 866 0 0 0 0 0.25 0 0 0 0 0.5 0 0 1 64
      >
    >
    <ITEM
      POSITION 80
      SNAPOFFS 0
      LENGTH 8
      LOOP 1
      ALLTAKES 0
      FADEIN 1 0 0 1 0 0
      FADEOUT 1 0 0 1 0 0
      MUTE 0
      SEL 1
      IGUID {37867DF7-7C4E-A466-C1AD-B8F10904C226}
      IID 20
      NAME "01-Recorded MIDI"
      VOLPAN 1 0 1 -1
      SOFFS 0 0
      PLAYRATE 1 1 0 -1 0 0.0021
      CHANMODE 0
      GUID {DDE29947-8CEE-F404-BCD8-BEB1B3579D13}
      RECPASS 1
      <SOURCE MIDI
        HASDATA 1 960 QN
        CCINTERP 32
        POOLEDEVTS {6C249D49-DB8A-2FDD-B2BC-67F0F0A93D90}
        E 0 90 3c 48
        E 0 90 40 48
        E 0 90 43 48
        E 1920 80 3c 00
        E 0 80 40 00
        E 0 80 43 00
        E 0 90 3c 48
        E 0 90 40 48
        E 0 90 43 48
        E 260 80 3c 00
        E 0 80 40 00
        E 0 80 43 00
        E 440 90 3c 48
        E 0 90 40 48
        E 0 90 43 48
        E 260 80 3c 00
        E 0 80 40 00
        E 0 80 43 00
        e 514 90 3c 48
        e 0 90 40 48
        e 0 90 43 48
        e 260 80 3c 00
        e 0 80 40 00
        e 0 80 43 00
        E 186 90 43 48
        E 0 90 47 48
        E 20 90 40 48
        E 1900 80 43 00
        E 0 80 47 00
        E 0 80 40 00
        E 0 90 43 48
        E 0 90 47 48
        E 20 90 40 48
        E 240 80 43 00
        E 0 80 47 00
        E 0 80 40 00
        E 440 90 43 48
        E 0 90 47 48
        E 20 90 40 48
        E 240 80 43 00
        E 0 80 47 00
        E 0 80 40 00
        e 514 90 43 48
        e 0 90 47 48
        e 20 90 40 48
        e 240 80 43 00
        e 0 80 47 00
        e 0 80 40 00
        E 186 90 41 48
        E 0 90 45 48
        E 0 90 48 48
        E 1920 80 41 00
        E 0 80 45 00
        E 0 80 48 00
        E 0 90 41 48
        E 0 90 45 48
        E 0 90 48 48
        E 260 80 41 00
        E 0 80 45 00
        E 0 80 48 00
        E 440 90 41 48
        E 0 90 45 48
        E 0 90 48 48
        E 260 80 41 00
        E 0 80 45 00
        E 0 80 48 00
        e 514 90 41 48
        e 0 90 45 48
        e 0 90 48 48
        e 260 80 41 00
        e 0 80 45 00
        e 0 80 48 00
        E 162 90 3e 48
        E 24 90 41 48
        E 0 90 45 48
        E 1896 90 3e 48
        E 24 80 3e 00
        E 0 80 41 00
        E 0 80 45 00
        E 0 90 41 48
        E 0 90 45 48
        E 260 80 3e 00
        E 0 80 41 00
        E 0 80 45 00
        E 416 90 3e 48
        E 24 90 41 48
        E 0 90 45 48
        E 260 80 3e 00
        E 0 80 41 00
        E 0 80 45 00
        e 490 90 3e 48
        e 24 90 41 48
        e 0 90 45 48
        e 260 80 3e 00
        e 0 80 41 00
        e 0 80 45 00
        E 186 b0 7b 00
        CHASE_CC_TAKEOFFS 1
        GUID {E611ADB6-4869-6CCA-8E83-3954D5E743B1}
        IGNTEMPO 0 120 4 4
        SRCCOLOR 27
        VELLANE -1 100 0
        CFGEDITVIEW 0 0.045808 45 12 0 -1 0 0 0 0.5
        KEYSNAP 0
        TRACKSEL 0
        EVTFILTER 0 -1 -1 -1 -1 0 0 0 0 -1 -1 -1 -1 0 -1 0 -1 -1
        CFGEDIT 1 1 0 1 0 0 1 1 1 1 1 1 58 171 1253 866 0 0 0 0 0.25 0 0 0 0 0.5 0 0 1 64
      >
    >
    <ITEM
      POSITION 88
      SNAPOFFS 0
      LENGTH 8
      LOOP 1
      ALLTAKES 0
      FADEIN 1 0 0 1 0 0
      FADEOUT 1 0 0 1 0 0
      MUTE 0
      SEL 1
      IGUID {3B52302D-8B96-05C7-7CC7-9E7D39AB569E}
      IID 21
      NAME "01-Recorded MIDI"
      VOLPAN 1 0 1 -1
      SOFFS 0 0
      PLAYRATE 1 1 0 -1 0 0.0021
      CHANMODE 0
      GUID {765A8F1E-42B4-FD60-C9D2-20C31EFB8B5F}
      RECPASS 1
      <SOURCE MIDI
        HASDATA 1 960 QN
        CCINTERP 32
        POOLEDEVTS {3433104F-962F-BBE6-72E2-A9DE04BB001E}
        E 0 90 3c 48
        E 0 90 40 48
        E 0 90 43 48
        E 1920 80 3c 00
        E 0 80 40 00
        E 0 80 43 00
        E 0 90 3c 48
        E 0 90 40 48
        E 0 90 43 48
        E 260 80 3c 00
        E 0 80 40 00
        E 0 80 43 00
        E 440 90 3c 48
        E 0 90 40 48
        E 0 90 43 48
        E 260 80 3c 00
        E 0 80 40 00
        E 0 80 43 00
        e 514 90 3c 48
        e 0 90 40 48
        e 0 90 43 48
        e 260 80 3c 00
        e 0 80 40 00
        e 0 80 43 00
        E 186 90 43 48
        E 0 90 47 48
        E 20 90 40 48
        E 1900 80 43 00
        E 0 80 47 00
        E 0 80 40 00
        E 0 90 43 48
        E 0 90 47 48
        E 20 90 40 48
        E 240 80 43 00
        E 0 80 47 00
        E 0 80 40 00
        E 440 90 43 48
        E 0 90 47 48
        E 20 90 40 48
        E 240 80 43 00
        E 0 80 47 00
        E 0 80 40 00
        e 514 90 43 48
        e 0 90 47 48
        e 20 90 40 48
        e 240 80 43 00
        e 0 80 47 00
        e 0 80 40 00
        E 186 90 41 48
        E 0 90 45 48
        E 0 90 48 48
        E 1920 80 41 00
        E 0 80 45 00
        E 0 80 48 00
        E 0 90 41 48
        E 0 90 45 48
        E 0 90 48 48
        E 260 80 41 00
        E 0 80 45 00
        E 0 80 48 00
        E 440 90 41 48
        E 0 90 45 48
        E 0 90 48 48
        E 260 80 41 00
        E 0 80 45 00
        E 0 80 48 00
        e 514 90 41 48
        e 0 90 45 48
        e 0 90 48 48
        e 260 80 41 00
        e 0 80 45 00
        e 0 80 48 00
        E 162 90 3e 48
        E 24 90 41 48
        E 0 90 45 48
        E 1896 90 3e 48
        E 24 80 3e 00
        E 0 80 41 00
        E 0 80 45 00
        E 0 90 41 48
        E 0 90 45 48
        E 260 80 3e 00
        E 0 80 41 00
        E 0 80 45 00
        E 416 90 3e 48
        E 24 90 41 48
        E 0 90 45 48
        E 260 80 3e 00
        E 0 80 41 00
        E 0 80 45 00
        e 490 90 3e 48
        e 24 90 41 48
        e 0 90 45 48
        e 260 80 3e 00
        e 0 80 41 00
        e 0 80 45 00
        E 186 b0 7b 00
        CHASE_CC_TAKEOFFS 1
        GUID {C762B555-17FC-D765-5340-11D3487D2955}
        IGNTEMPO 0 120 4 4
        SRCCOLOR 28
        VELLANE -1 100 0
        CFGEDITVIEW 0 0.045808 45 12 0 -1 0 0 0 0.5
        KEYSNAP 0
        TRACKSEL 0
        EVTFILTER 0 -1 -1 -1 -1 0 0 0 0 -1 -1 -1 -1 0 -1 0 -1 -1
        CFGEDIT 1 1 0 1 0 0 1 1 1 1 1 1 58 171 1253 866 0 0 0 0 0.25 0 0 0 0 0.5 0 0 1 64
      >
    >
  >
  <TRACK {23293E8C-DD90-238F-68C9-5F9CB9E6EF0D}
    NAME ""
    PEAKCOL 16576
    BEAT -1
    AUTOMODE 0
    VOLPAN 0.00052194381917 0 -1 -1 1
    MUTESOLO 0 0 0
    IPHASE 0
    PLAYOFFS 0 1
    ISBUS 0 0
    BUSCOMP 0 0 0 0 0
    SHOWINMIX 1 0.6667 0.5 1 0.5 0 0 0
    FREEMODE 0
    SEL 0
    REC 0 5056 1 0 0 0 0
    VU 2
    TRACKHEIGHT 21 0 0
    INQ 0 0 0 0.5 100 0 0 100
    NCHAN 2
    FX 0
    TRACKID {23293E8C-DD90-238F-68C9-5F9CB9E6EF0D}
    PERF 0
    MIDIOUT -1
    MAINSEND 1 0
    <FXCHAIN
      WNDRECT 346 266 902 608
      SHOW 0
      LASTSEL 5
      DOCKED 0
      BYPASS 0 0 0
      <VST "VST: ReaEQ (Cockos)" reaeq.vst.so 0 "" 1919247729<56535472656571726561657100000000> ""
        cWVlcu5e7f4CAAAAAQAAAAAAAAACAAAAAAAAAAIAAAABAAAAAAAAAAIAAAAAAAAAqAAAAAEAAAAAABAA
        IQAAAAQAAAAEAAAAAQAAAEC4Xhmm+DRAAAAAAAAA8D8AAAAAAAAAQAEIAAAAAQAAAAAAAAAAwHJAAAAAAAAA8D8AAAAAAAAAQAEIAAAAAQAAAAAAAAAAQI9AAAAAAAAA
        8D8AAAAAAAAAQAEDAAAAAQAAAAABaCorbdRAAAAAAAAA8D8AAAAAAAAAQAEBAAAAAQAAAAAAAAAAAPA/AAAAAJoCAACcAQAA
        AEhpZ2ggbG93IHBhc3MAEAAAAA==
      >
      PRESETNAME "High low pass"
      FLOATPOS 0 0 0 0
      FXID {6A81D32C-5B44-B33C-EA57-34467937E896}
      WAK 0 0
      BYPASS 0 0 0
      <VST "VSTi: ReaSynth (Cockos)" reasynth.vst.so 0 "" 1919251321<5653547265737972656173796E746800> ""
        eXNlcu9e7f4AAAAAAgAAAAEAAAAAAAAAAgAAAAAAAAA8AAAAAAAAAAAAEAA=
        776t3g3wrd6lm8Q7F7fROgAAAAAAAAAAAAAAAJCNuT3oZ4g9AACAPwAAAD8AAIA/AAAAAAAAAD8AAAAA
        AAAQAAAA
      >
      FLOATPOS 0 0 0 0
      FXID {583C5C4B-CE4B-A464-E528-EDFC9E154B90}
      WAK 0 0
      BYPASS 0 0 0
      <JS guitar/amp-model ""
        "Dumble Overdrive Special - Tweed Deluxe.wav" -21.000000 1.000000 0.000000 0.000000 -1.000000 - - - - - - - - - - - - - - - - - - - - - - - - - - - - - - - - - - - - - - - - - - - - - - - - - - - - - - - - - - 
      >
      FLOATPOS 0 0 0 0
      FXID {D34B8761-0A07-6756-2ED7-E22DC8BB384C}
      WAK 0 0
      BYPASS 0 0 0
      <VST "VST: ReaComp (Cockos)" reacomp.vst.so 0 "" 1919247213<5653547265636D726561636F6D700000> ""
        bWNlcu9e7f4EAAAAAQAAAAAAAAACAAAAAAAAAAQAAAAAAAAACAAAAAAAAAACAAAAAQAAAAAAAAACAAAAAAAAAFQAAAAAAAAAAAAQAA==
        776t3g3wrd5FoYg9/AWpPKWbxDsK16M8AAAAAAAAAAAAAIA/AAAAAAAAAAAAAAAAnNEHMwAAgD8AAAAAzMxMPQAAAAAAAAAAAAAAAAAAgD7YiZ09
        AAAQAAAA
      >
      FLOATPOS 0 0 0 0
      FXID {086627B0-8229-044F-57D4-8F315917EE74}
      WAK 0 0
      BYPASS 0 0 0
      <VST "VST: ReaDelay (Cockos)" readelay.vst.so 0 "" 1919247468<5653547265646C72656164656C617900> ""
        bGRlcu5e7f4CAAAAAQAAAAAAAAACAAAAAAAAAAIAAAABAAAAAAAAAAIAAAAAAAAA/AAAAAEAAAAAAAAA
        AAAAAAAAAAAFAAAALAAAAAIAAAAEAAAAAACAPwAAgD8AAAAAAACAPwAAAAAAAIA7vTeGNQAAgD8AAAAAAACAPwAAgD8AAIA/AAAAAAAAAAAAAIA/AAAAAAAAADwAAAAA
        AACAPwAAAAAAAIA/AACAP+87NT8AAIA/AAAAAAAAgD8AAAAAAABAPL03hjUAAIA/AAAAAAAAgD8AAIA/zk0AP6abhD4AAAAAAACAPwAAAAAAAIA8vTeGNQAAgD8AAAAA
        AACAPwAAgD8aqrU+pHA9PwAAAAAAAIA/AAAAAAAAoDy9N4Y1AACAPwAAAAAAAIA/AACAP/npAD4AAAA/
        AHN0b2NrIC0gYmFzaWMgNSB0YXAgcGluZyBwb25nAAAAAAA=
      >
      PRESETNAME "stock - basic 5 tap ping pong"
      FLOATPOS 0 0 0 0
      FXID {D9169AAB-3E8C-080D-50B8-EDEED75298A2}
      WAK 0 0
      BYPASS 0 0 0
      <VST "VST: ReaVerb (Cockos)" reaverb.vst.so 0 "" 1919252066<56535472657662726561766572620000> ""
        YnZlcu5e7f4CAAAAAQAAAAAAAAACAAAAAAAAAAIAAAABAAAAAAAAAAIAAAAAAAAAcAAAAAEAAAAAAAAA
        AAAAwcybgD4AAIA/AAAAAAAAgD8AAIA/AAAAPwAAgD8AAAAAVkVSQkdFTgAYAAAAAAAAAJHgV0QdrLRA3rK7QsHIjEIAAIC/RUNIT0dFTgAcAAAAy/i2QLUjdUJdzdM/
        osdfP5lRrzyRzYxAnMQAPw==
        AHN3ZWV0dmVyYm8AAAAAAA==
      >
      PRESETNAME sweetverbo
      FLOATPOS 0 0 0 0
      FXID {AA76ED80-CF4E-BB8F-9023-9C5263ED591C}
      WAK 0 0
    >
    <ITEM
      POSITION 0
      SNAPOFFS 0
      LENGTH 8
      LOOP 1
      ALLTAKES 0
      FADEIN 1 0 0 1 0 0
      FADEOUT 1 0 0 1 0 0
      MUTE 0
      SEL 1
      IGUID {70889D1A-421F-23EF-9508-15B073F95725}
      IID 10
      NAME "01-Recorded MIDI"
      VOLPAN 1 0 1 -1
      SOFFS 0 0
      PLAYRATE 1 1 0 -1 0 0.0021
      CHANMODE 0
      GUID {4EB9DA5F-5DE2-DC0B-F3EC-A004D4F41EC3}
      RECPASS 1
      <SOURCE MIDI
        HASDATA 1 960 QN
        CCINTERP 32
        POOLEDEVTS {BC211C7D-ACD9-357D-16D4-7B4D4A8B76C0}
        E 0 90 3c 48
        E 0 90 40 48
        E 0 90 43 48
        E 1920 80 3c 00
        E 0 80 40 00
        E 0 80 43 00
        E 0 90 3c 48
        E 0 90 40 48
        E 0 90 43 48
        E 260 80 3c 00
        E 0 80 40 00
        E 0 80 43 00
        E 440 90 3c 48
        E 0 90 40 48
        E 0 90 43 48
        E 260 80 3c 00
        E 0 80 40 00
        E 0 80 43 00
        e 514 90 3c 48
        e 0 90 40 48
        e 0 90 43 48
        e 260 80 3c 00
        e 0 80 40 00
        e 0 80 43 00
        E 186 90 43 48
        E 0 90 47 48
        E 20 90 40 48
        E 1900 80 43 00
        E 0 80 47 00
        E 0 80 40 00
        E 0 90 43 48
        E 0 90 47 48
        E 20 90 40 48
        E 240 80 43 00
        E 0 80 47 00
        E 0 80 40 00
        E 440 90 43 48
        E 0 90 47 48
        E 20 90 40 48
        E 240 80 43 00
        E 0 80 47 00
        E 0 80 40 00
        e 514 90 43 48
        e 0 90 47 48
        e 20 90 40 48
        e 240 80 43 00
        e 0 80 47 00
        e 0 80 40 00
        E 186 90 41 48
        E 0 90 45 48
        E 0 90 48 48
        E 1920 80 41 00
        E 0 80 45 00
        E 0 80 48 00
        E 0 90 41 48
        E 0 90 45 48
        E 0 90 48 48
        E 260 80 41 00
        E 0 80 45 00
        E 0 80 48 00
        E 440 90 41 48
        E 0 90 45 48
        E 0 90 48 48
        E 260 80 41 00
        E 0 80 45 00
        E 0 80 48 00
        e 514 90 41 48
        e 0 90 45 48
        e 0 90 48 48
        e 260 80 41 00
        e 0 80 45 00
        e 0 80 48 00
        E 162 90 3e 48
        E 24 90 41 48
        E 0 90 45 48
        E 1896 90 3e 48
        E 24 80 3e 00
        E 0 80 41 00
        E 0 80 45 00
        E 0 90 41 48
        E 0 90 45 48
        E 260 80 3e 00
        E 0 80 41 00
        E 0 80 45 00
        E 416 90 3e 48
        E 24 90 41 48
        E 0 90 45 48
        E 260 80 3e 00
        E 0 80 41 00
        E 0 80 45 00
        e 490 90 3e 48
        e 24 90 41 48
        e 0 90 45 48
        e 260 80 3e 00
        e 0 80 41 00
        e 0 80 45 00
        E 186 b0 7b 00
        CHASE_CC_TAKEOFFS 1
        GUID {7B9D708B-43E1-C8D4-C4B3-87E2A6C27801}
        IGNTEMPO 0 120 4 4
        SRCCOLOR 17
        VELLANE -1 100 0
        CFGEDITVIEW 0 0.045808 45 12 0 -1 0 0 0 0.5
        KEYSNAP 0
        TRACKSEL 0
        EVTFILTER 0 -1 -1 -1 -1 0 0 0 0 -1 -1 -1 -1 0 -1 0 -1 -1
        CFGEDIT 1 1 0 1 0 0 1 1 1 1 1 1 58 171 1253 866 0 0 0 0 0.25 0 0 0 0 0.5 0 0 1 64
      >
    >
    <ITEM
      POSITION 8
      SNAPOFFS 0
      LENGTH 8
      LOOP 1
      ALLTAKES 0
      FADEIN 1 0 0 1 0 0
      FADEOUT 1 0 0 1 0 0
      MUTE 0
      SEL 1
      IGUID {EEB2F0AF-E014-5951-6F61-5AF27AB511D0}
      IID 11
      NAME "01-Recorded MIDI"
      VOLPAN 1 0 1 -1
      SOFFS 0 0
      PLAYRATE 1 1 0 -1 0 0.0021
      CHANMODE 0
      GUID {569F300C-F690-1137-DE8E-21A2E07D769A}
      RECPASS 1
      <SOURCE MIDI
        HASDATA 1 960 QN
        CCINTERP 32
        POOLEDEVTS {9B9FFA61-850E-4B39-3760-1EBB4C9BBDBF}
        E 0 90 3c 48
        E 0 90 40 48
        E 0 90 43 48
        E 1920 80 3c 00
        E 0 80 40 00
        E 0 80 43 00
        E 0 90 3c 48
        E 0 90 40 48
        E 0 90 43 48
        E 260 80 3c 00
        E 0 80 40 00
        E 0 80 43 00
        E 440 90 3c 48
        E 0 90 40 48
        E 0 90 43 48
        E 260 80 3c 00
        E 0 80 40 00
        E 0 80 43 00
        e 514 90 3c 48
        e 0 90 40 48
        e 0 90 43 48
        e 260 80 3c 00
        e 0 80 40 00
        e 0 80 43 00
        E 186 90 43 48
        E 0 90 47 48
        E 20 90 40 48
        E 1900 80 43 00
        E 0 80 47 00
        E 0 80 40 00
        E 0 90 43 48
        E 0 90 47 48
        E 20 90 40 48
        E 240 80 43 00
        E 0 80 47 00
        E 0 80 40 00
        E 440 90 43 48
        E 0 90 47 48
        E 20 90 40 48
        E 240 80 43 00
        E 0 80 47 00
        E 0 80 40 00
        e 514 90 43 48
        e 0 90 47 48
        e 20 90 40 48
        e 240 80 43 00
        e 0 80 47 00
        e 0 80 40 00
        E 186 90 41 48
        E 0 90 45 48
        E 0 90 48 48
        E 1920 80 41 00
        E 0 80 45 00
        E 0 80 48 00
        E 0 90 41 48
        E 0 90 45 48
        E 0 90 48 48
        E 260 80 41 00
        E 0 80 45 00
        E 0 80 48 00
        E 440 90 41 48
        E 0 90 45 48
        E 0 90 48 48
        E 260 80 41 00
        E 0 80 45 00
        E 0 80 48 00
        e 514 90 41 48
        e 0 90 45 48
        e 0 90 48 48
        e 260 80 41 00
        e 0 80 45 00
        e 0 80 48 00
        E 162 90 3e 48
        E 24 90 41 48
        E 0 90 45 48
        E 1896 90 3e 48
        E 24 80 3e 00
        E 0 80 41 00
        E 0 80 45 00
        E 0 90 41 48
        E 0 90 45 48
        E 260 80 3e 00
        E 0 80 41 00
        E 0 80 45 00
        E 416 90 3e 48
        E 24 90 41 48
        E 0 90 45 48
        E 260 80 3e 00
        E 0 80 41 00
        E 0 80 45 00
        e 490 90 3e 48
        e 24 90 41 48
        e 0 90 45 48
        e 260 80 3e 00
        e 0 80 41 00
        e 0 80 45 00
        E 186 b0 7b 00
        CHASE_CC_TAKEOFFS 1
        GUID {3131B4E2-B370-E352-A9C5-C8CA31551A86}
        IGNTEMPO 0 120 4 4
        SRCCOLOR 18
        VELLANE -1 100 0
        CFGEDITVIEW 0 0.045808 45 12 0 -1 0 0 0 0.5
        KEYSNAP 0
        TRACKSEL 0
        EVTFILTER 0 -1 -1 -1 -1 0 0 0 0 -1 -1 -1 -1 0 -1 0 -1 -1
        CFGEDIT 1 1 0 1 0 0 1 1 1 1 1 1 58 171 1253 866 0 0 0 0 0.25 0 0 0 0 0.5 0 0 1 64
      >
    >
    <ITEM
      POSITION 16
      SNAPOFFS 0
      LENGTH 8
      LOOP 1
      ALLTAKES 0
      FADEIN 1 0 0 1 0 0
      FADEOUT 1 0 0 1 0 0
      MUTE 0
      SEL 1
      IGUID {23756EC2-945B-F627-D499-BC6350013636}
      IID 12
      NAME "01-Recorded MIDI"
      VOLPAN 1 0 1 -1
      SOFFS 0 0
      PLAYRATE 1 1 0 -1 0 0.0021
      CHANMODE 0
      GUID {D4393744-CB8A-65E5-1D84-36CA8E98B4AC}
      RECPASS 1
      <SOURCE MIDI
        HASDATA 1 960 QN
        CCINTERP 32
        POOLEDEVTS {062A2C28-ABA3-B8F2-5EE5-5FC04153ED11}
        E 0 90 3c 48
        E 0 90 40 48
        E 0 90 43 48
        E 1920 80 3c 00
        E 0 80 40 00
        E 0 80 43 00
        E 0 90 3c 48
        E 0 90 40 48
        E 0 90 43 48
        E 260 80 3c 00
        E 0 80 40 00
        E 0 80 43 00
        E 440 90 3c 48
        E 0 90 40 48
        E 0 90 43 48
        E 260 80 3c 00
        E 0 80 40 00
        E 0 80 43 00
        e 514 90 3c 48
        e 0 90 40 48
        e 0 90 43 48
        e 260 80 3c 00
        e 0 80 40 00
        e 0 80 43 00
        E 186 90 43 48
        E 0 90 47 48
        E 20 90 40 48
        E 1900 80 43 00
        E 0 80 47 00
        E 0 80 40 00
        E 0 90 43 48
        E 0 90 47 48
        E 20 90 40 48
        E 240 80 43 00
        E 0 80 47 00
        E 0 80 40 00
        E 440 90 43 48
        E 0 90 47 48
        E 20 90 40 48
        E 240 80 43 00
        E 0 80 47 00
        E 0 80 40 00
        e 514 90 43 48
        e 0 90 47 48
        e 20 90 40 48
        e 240 80 43 00
        e 0 80 47 00
        e 0 80 40 00
        E 186 90 41 48
        E 0 90 45 48
        E 0 90 48 48
        E 1920 80 41 00
        E 0 80 45 00
        E 0 80 48 00
        E 0 90 41 48
        E 0 90 45 48
        E 0 90 48 48
        E 260 80 41 00
        E 0 80 45 00
        E 0 80 48 00
        E 440 90 41 48
        E 0 90 45 48
        E 0 90 48 48
        E 260 80 41 00
        E 0 80 45 00
        E 0 80 48 00
        e 514 90 41 48
        e 0 90 45 48
        e 0 90 48 48
        e 260 80 41 00
        e 0 80 45 00
        e 0 80 48 00
        E 162 90 3e 48
        E 24 90 41 48
        E 0 90 45 48
        E 1896 90 3e 48
        E 24 80 3e 00
        E 0 80 41 00
        E 0 80 45 00
        E 0 90 41 48
        E 0 90 45 48
        E 260 80 3e 00
        E 0 80 41 00
        E 0 80 45 00
        E 416 90 3e 48
        E 24 90 41 48
        E 0 90 45 48
        E 260 80 3e 00
        E 0 80 41 00
        E 0 80 45 00
        e 490 90 3e 48
        e 24 90 41 48
        e 0 90 45 48
        e 260 80 3e 00
        e 0 80 41 00
        e 0 80 45 00
        E 186 b0 7b 00
        CHASE_CC_TAKEOFFS 1
        GUID {48C567A2-895C-FB9B-FDBA-0ADB7004ABF3}
        IGNTEMPO 0 120 4 4
        SRCCOLOR 19
        VELLANE -1 100 0
        CFGEDITVIEW 0 0.045808 45 12 0 -1 0 0 0 0.5
        KEYSNAP 0
        TRACKSEL 0
        EVTFILTER 0 -1 -1 -1 -1 0 0 0 0 -1 -1 -1 -1 0 -1 0 -1 -1
        CFGEDIT 1 1 0 1 0 0 1 1 1 1 1 1 58 171 1253 866 0 0 0 0 0.25 0 0 0 0 0.5 0 0 1 64
      >
    >
    <ITEM
      POSITION 24
      SNAPOFFS 0
      LENGTH 8
      LOOP 1
      ALLTAKES 0
      FADEIN 1 0 0 1 0 0
      FADEOUT 1 0 0 1 0 0
      MUTE 0
      SEL 1
      IGUID {1F4F83FD-0DBC-A172-BDD3-D89C4252EE7A}
      IID 13
      NAME "01-Recorded MIDI"
      VOLPAN 1 0 1 -1
      SOFFS 0 0
      PLAYRATE 1 1 0 -1 0 0.0021
      CHANMODE 0
      GUID {8834C65E-C941-B37D-46B1-817EFA1E403C}
      RECPASS 1
      <SOURCE MIDI
        HASDATA 1 960 QN
        CCINTERP 32
        POOLEDEVTS {98FE2AEE-D7D7-0C19-AE05-4CC696A1B201}
        E 0 90 3c 48
        E 0 90 40 48
        E 0 90 43 48
        E 1920 80 3c 00
        E 0 80 40 00
        E 0 80 43 00
        E 0 90 3c 48
        E 0 90 40 48
        E 0 90 43 48
        E 260 80 3c 00
        E 0 80 40 00
        E 0 80 43 00
        E 440 90 3c 48
        E 0 90 40 48
        E 0 90 43 48
        E 260 80 3c 00
        E 0 80 40 00
        E 0 80 43 00
        e 514 90 3c 48
        e 0 90 40 48
        e 0 90 43 48
        e 260 80 3c 00
        e 0 80 40 00
        e 0 80 43 00
        E 186 90 43 48
        E 0 90 47 48
        E 20 90 40 48
        E 1900 80 43 00
        E 0 80 47 00
        E 0 80 40 00
        E 0 90 43 48
        E 0 90 47 48
        E 20 90 40 48
        E 240 80 43 00
        E 0 80 47 00
        E 0 80 40 00
        E 440 90 43 48
        E 0 90 47 48
        E 20 90 40 48
        E 240 80 43 00
        E 0 80 47 00
        E 0 80 40 00
        e 514 90 43 48
        e 0 90 47 48
        e 20 90 40 48
        e 240 80 43 00
        e 0 80 47 00
        e 0 80 40 00
        E 186 90 41 48
        E 0 90 45 48
        E 0 90 48 48
        E 1920 80 41 00
        E 0 80 45 00
        E 0 80 48 00
        E 0 90 41 48
        E 0 90 45 48
        E 0 90 48 48
        E 260 80 41 00
        E 0 80 45 00
        E 0 80 48 00
        E 440 90 41 48
        E 0 90 45 48
        E 0 90 48 48
        E 260 80 41 00
        E 0 80 45 00
        E 0 80 48 00
        e 514 90 41 48
        e 0 90 45 48
        e 0 90 48 48
        e 260 80 41 00
        e 0 80 45 00
        e 0 80 48 00
        E 162 90 3e 48
        E 24 90 41 48
        E 0 90 45 48
        E 1896 90 3e 48
        E 24 80 3e 00
        E 0 80 41 00
        E 0 80 45 00
        E 0 90 41 48
        E 0 90 45 48
        E 260 80 3e 00
        E 0 80 41 00
        E 0 80 45 00
        E 416 90 3e 48
        E 24 90 41 48
        E 0 90 45 48
        E 260 80 3e 00
        E 0 80 41 00
        E 0 80 45 00
        e 490 90 3e 48
        e 24 90 41 48
        e 0 90 45 48
        e 260 80 3e 00
        e 0 80 41 00
        e 0 80 45 00
        E 186 b0 7b 00
        CHASE_CC_TAKEOFFS 1
        GUID {1DE38800-E2A1-41B5-9C8C-3291891093B1}
        IGNTEMPO 0 120 4 4
        SRCCOLOR 20
        VELLANE -1 100 0
        CFGEDITVIEW 0 0.045808 45 12 0 -1 0 0 0 0.5
        KEYSNAP 0
        TRACKSEL 0
        EVTFILTER 0 -1 -1 -1 -1 0 0 0 0 -1 -1 -1 -1 0 -1 0 -1 -1
        CFGEDIT 1 1 0 1 0 0 1 1 1 1 1 1 58 171 1253 866 0 0 0 0 0.25 0 0 0 0 0.5 0 0 1 64
      >
    >
    <ITEM
      POSITION 32
      SNAPOFFS 0
      LENGTH 8
      LOOP 1
      ALLTAKES 0
      FADEIN 1 0 0 1 0 0
      FADEOUT 1 0 0 1 0 0
      MUTE 0
      SEL 1
      IGUID {3068413E-BCDF-6AF8-B953-BDBD78B42AD0}
      IID 14
      NAME "01-Recorded MIDI"
      VOLPAN 1 0 1 -1
      SOFFS 0 0
      PLAYRATE 1 1 0 -1 0 0.0021
      CHANMODE 0
      GUID {4F6D7121-B75E-8D56-2EA1-CFE582E60948}
      RECPASS 1
      <SOURCE MIDI
        HASDATA 1 960 QN
        CCINTERP 32
        POOLEDEVTS {3CDB1594-DF63-8563-5BB2-FBAECF0C3F40}
        E 0 90 3c 48
        E 0 90 40 48
        E 0 90 43 48
        E 1920 80 3c 00
        E 0 80 40 00
        E 0 80 43 00
        E 0 90 3c 48
        E 0 90 40 48
        E 0 90 43 48
        E 260 80 3c 00
        E 0 80 40 00
        E 0 80 43 00
        E 440 90 3c 48
        E 0 90 40 48
        E 0 90 43 48
        E 260 80 3c 00
        E 0 80 40 00
        E 0 80 43 00
        e 514 90 3c 48
        e 0 90 40 48
        e 0 90 43 48
        e 260 80 3c 00
        e 0 80 40 00
        e 0 80 43 00
        E 186 90 43 48
        E 0 90 47 48
        E 20 90 40 48
        E 1900 80 43 00
        E 0 80 47 00
        E 0 80 40 00
        E 0 90 43 48
        E 0 90 47 48
        E 20 90 40 48
        E 240 80 43 00
        E 0 80 47 00
        E 0 80 40 00
        E 440 90 43 48
        E 0 90 47 48
        E 20 90 40 48
        E 240 80 43 00
        E 0 80 47 00
        E 0 80 40 00
        e 514 90 43 48
        e 0 90 47 48
        e 20 90 40 48
        e 240 80 43 00
        e 0 80 47 00
        e 0 80 40 00
        E 186 90 41 48
        E 0 90 45 48
        E 0 90 48 48
        E 1920 80 41 00
        E 0 80 45 00
        E 0 80 48 00
        E 0 90 41 48
        E 0 90 45 48
        E 0 90 48 48
        E 260 80 41 00
        E 0 80 45 00
        E 0 80 48 00
        E 440 90 41 48
        E 0 90 45 48
        E 0 90 48 48
        E 260 80 41 00
        E 0 80 45 00
        E 0 80 48 00
        e 514 90 41 48
        e 0 90 45 48
        e 0 90 48 48
        e 260 80 41 00
        e 0 80 45 00
        e 0 80 48 00
        E 162 90 3e 48
        E 24 90 41 48
        E 0 90 45 48
        E 1896 90 3e 48
        E 24 80 3e 00
        E 0 80 41 00
        E 0 80 45 00
        E 0 90 41 48
        E 0 90 45 48
        E 260 80 3e 00
        E 0 80 41 00
        E 0 80 45 00
        E 416 90 3e 48
        E 24 90 41 48
        E 0 90 45 48
        E 260 80 3e 00
        E 0 80 41 00
        E 0 80 45 00
        e 490 90 3e 48
        e 24 90 41 48
        e 0 90 45 48
        e 260 80 3e 00
        e 0 80 41 00
        e 0 80 45 00
        E 186 b0 7b 00
        CHASE_CC_TAKEOFFS 1
        GUID {0C3271F4-E233-9088-9B25-A722FAE7C579}
        IGNTEMPO 0 120 4 4
        SRCCOLOR 21
        VELLANE -1 100 0
        CFGEDITVIEW 0 0.045808 45 12 0 -1 0 0 0 0.5
        KEYSNAP 0
        TRACKSEL 0
        EVTFILTER 0 -1 -1 -1 -1 0 0 0 0 -1 -1 -1 -1 0 -1 0 -1 -1
        CFGEDIT 1 1 0 1 0 0 1 1 1 1 1 1 58 171 1253 866 0 0 0 0 0.25 0 0 0 0 0.5 0 0 1 64
      >
    >
    <ITEM
      POSITION 40
      SNAPOFFS 0
      LENGTH 8
      LOOP 1
      ALLTAKES 0
      FADEIN 1 0 0 1 0 0
      FADEOUT 1 0 0 1 0 0
      MUTE 0
      SEL 1
      IGUID {8B15149D-1FA4-AF27-2947-D5DE0466C712}
      IID 15
      NAME "01-Recorded MIDI"
      VOLPAN 1 0 1 -1
      SOFFS 0 0
      PLAYRATE 1 1 0 -1 0 0.0021
      CHANMODE 0
      GUID {4EE4BAE7-160A-9D1D-C2CF-569844E81526}
      RECPASS 1
      <SOURCE MIDI
        HASDATA 1 960 QN
        CCINTERP 32
        POOLEDEVTS {CFC02004-5C74-5C9A-DC60-979722CE04CD}
        E 0 90 3c 48
        E 0 90 40 48
        E 0 90 43 48
        E 1920 80 3c 00
        E 0 80 40 00
        E 0 80 43 00
        E 0 90 3c 48
        E 0 90 40 48
        E 0 90 43 48
        E 260 80 3c 00
        E 0 80 40 00
        E 0 80 43 00
        E 440 90 3c 48
        E 0 90 40 48
        E 0 90 43 48
        E 260 80 3c 00
        E 0 80 40 00
        E 0 80 43 00
        e 514 90 3c 48
        e 0 90 40 48
        e 0 90 43 48
        e 260 80 3c 00
        e 0 80 40 00
        e 0 80 43 00
        E 186 90 43 48
        E 0 90 47 48
        E 20 90 40 48
        E 1900 80 43 00
        E 0 80 47 00
        E 0 80 40 00
        E 0 90 43 48
        E 0 90 47 48
        E 20 90 40 48
        E 240 80 43 00
        E 0 80 47 00
        E 0 80 40 00
        E 440 90 43 48
        E 0 90 47 48
        E 20 90 40 48
        E 240 80 43 00
        E 0 80 47 00
        E 0 80 40 00
        e 514 90 43 48
        e 0 90 47 48
        e 20 90 40 48
        e 240 80 43 00
        e 0 80 47 00
        e 0 80 40 00
        E 186 90 41 48
        E 0 90 45 48
        E 0 90 48 48
        E 1920 80 41 00
        E 0 80 45 00
        E 0 80 48 00
        E 0 90 41 48
        E 0 90 45 48
        E 0 90 48 48
        E 260 80 41 00
        E 0 80 45 00
        E 0 80 48 00
        E 440 90 41 48
        E 0 90 45 48
        E 0 90 48 48
        E 260 80 41 00
        E 0 80 45 00
        E 0 80 48 00
        e 514 90 41 48
        e 0 90 45 48
        e 0 90 48 48
        e 260 80 41 00
        e 0 80 45 00
        e 0 80 48 00
        E 162 90 3e 48
        E 24 90 41 48
        E 0 90 45 48
        E 1896 90 3e 48
        E 24 80 3e 00
        E 0 80 41 00
        E 0 80 45 00
        E 0 90 41 48
        E 0 90 45 48
        E 260 80 3e 00
        E 0 80 41 00
        E 0 80 45 00
        E 416 90 3e 48
        E 24 90 41 48
        E 0 90 45 48
        E 260 80 3e 00
        E 0 80 41 00
        E 0 80 45 00
        e 490 90 3e 48
        e 24 90 41 48
        e 0 90 45 48
        e 260 80 3e 00
        e 0 80 41 00
        e 0 80 45 00
        E 186 b0 7b 00
        CHASE_CC_TAKEOFFS 1
        GUID {040E7AF8-3572-5D91-3C86-797AEE7444D4}
        IGNTEMPO 0 120 4 4
        SRCCOLOR 22
        VELLANE -1 100 0
        CFGEDITVIEW 0 0.045808 45 12 0 -1 0 0 0 0.5
        KEYSNAP 0
        TRACKSEL 0
        EVTFILTER 0 -1 -1 -1 -1 0 0 0 0 -1 -1 -1 -1 0 -1 0 -1 -1
        CFGEDIT 1 1 0 1 0 0 1 1 1 1 1 1 58 171 1253 866 0 0 0 0 0.25 0 0 0 0 0.5 0 0 1 64
      >
    >
    <ITEM
      POSITION 48
      SNAPOFFS 0
      LENGTH 8
      LOOP 1
      ALLTAKES 0
      FADEIN 1 0 0 1 0 0
      FADEOUT 1 0 0 1 0 0
      MUTE 0
      SEL 1
      IGUID {ECA78165-8C1D-6E3A-4811-E2ED4C7263E6}
      IID 16
      NAME "01-Recorded MIDI"
      VOLPAN 1 0 1 -1
      SOFFS 0 0
      PLAYRATE 1 1 0 -1 0 0.0021
      CHANMODE 0
      GUID {3C49880D-1113-7331-49CA-82291CB0B9CA}
      RECPASS 1
      <SOURCE MIDI
        HASDATA 1 960 QN
        CCINTERP 32
        POOLEDEVTS {D436E1A1-64A7-F40F-5A7F-B266BA756957}
        E 0 90 3c 48
        E 0 90 40 48
        E 0 90 43 48
        E 1920 80 3c 00
        E 0 80 40 00
        E 0 80 43 00
        E 0 90 3c 48
        E 0 90 40 48
        E 0 90 43 48
        E 260 80 3c 00
        E 0 80 40 00
        E 0 80 43 00
        E 440 90 3c 48
        E 0 90 40 48
        E 0 90 43 48
        E 260 80 3c 00
        E 0 80 40 00
        E 0 80 43 00
        e 514 90 3c 48
        e 0 90 40 48
        e 0 90 43 48
        e 260 80 3c 00
        e 0 80 40 00
        e 0 80 43 00
        E 186 90 43 48
        E 0 90 47 48
        E 20 90 40 48
        E 1900 80 43 00
        E 0 80 47 00
        E 0 80 40 00
        E 0 90 43 48
        E 0 90 47 48
        E 20 90 40 48
        E 240 80 43 00
        E 0 80 47 00
        E 0 80 40 00
        E 440 90 43 48
        E 0 90 47 48
        E 20 90 40 48
        E 240 80 43 00
        E 0 80 47 00
        E 0 80 40 00
        e 514 90 43 48
        e 0 90 47 48
        e 20 90 40 48
        e 240 80 43 00
        e 0 80 47 00
        e 0 80 40 00
        E 186 90 41 48
        E 0 90 45 48
        E 0 90 48 48
        E 1920 80 41 00
        E 0 80 45 00
        E 0 80 48 00
        E 0 90 41 48
        E 0 90 45 48
        E 0 90 48 48
        E 260 80 41 00
        E 0 80 45 00
        E 0 80 48 00
        E 440 90 41 48
        E 0 90 45 48
        E 0 90 48 48
        E 260 80 41 00
        E 0 80 45 00
        E 0 80 48 00
        e 514 90 41 48
        e 0 90 45 48
        e 0 90 48 48
        e 260 80 41 00
        e 0 80 45 00
        e 0 80 48 00
        E 162 90 3e 48
        E 24 90 41 48
        E 0 90 45 48
        E 1896 90 3e 48
        E 24 80 3e 00
        E 0 80 41 00
        E 0 80 45 00
        E 0 90 41 48
        E 0 90 45 48
        E 260 80 3e 00
        E 0 80 41 00
        E 0 80 45 00
        E 416 90 3e 48
        E 24 90 41 48
        E 0 90 45 48
        E 260 80 3e 00
        E 0 80 41 00
        E 0 80 45 00
        e 490 90 3e 48
        e 24 90 41 48
        e 0 90 45 48
        e 260 80 3e 00
        e 0 80 41 00
        e 0 80 45 00
        E 186 b0 7b 00
        CHASE_CC_TAKEOFFS 1
        GUID {2338968B-6CF9-9F40-300F-DEB89D3392EA}
        IGNTEMPO 0 120 4 4
        SRCCOLOR 23
        VELLANE -1 100 0
        CFGEDITVIEW 0 0.045808 45 12 0 -1 0 0 0 0.5
        KEYSNAP 0
        TRACKSEL 0
        EVTFILTER 0 -1 -1 -1 -1 0 0 0 0 -1 -1 -1 -1 0 -1 0 -1 -1
        CFGEDIT 1 1 0 1 0 0 1 1 1 1 1 1 58 171 1253 866 0 0 0 0 0.25 0 0 0 0 0.5 0 0 1 64
      >
    >
    <ITEM
      POSITION 56
      SNAPOFFS 0
      LENGTH 8
      LOOP 1
      ALLTAKES 0
      FADEIN 1 0 0 1 0 0
      FADEOUT 1 0 0 1 0 0
      MUTE 0
      SEL 1
      IGUID {8A19E2E5-8FAF-935E-F966-C4E80C7B4A9B}
      IID 17
      NAME "01-Recorded MIDI"
      VOLPAN 1 0 1 -1
      SOFFS 0 0
      PLAYRATE 1 1 0 -1 0 0.0021
      CHANMODE 0
      GUID {F0A5FC4A-0E31-49EA-2507-988A0D058F82}
      RECPASS 1
      <SOURCE MIDI
        HASDATA 1 960 QN
        CCINTERP 32
        POOLEDEVTS {A39E3BE7-C1BE-A11C-C748-53BC3F6D9596}
        E 0 90 3c 48
        E 0 90 40 48
        E 0 90 43 48
        E 1920 80 3c 00
        E 0 80 40 00
        E 0 80 43 00
        E 0 90 3c 48
        E 0 90 40 48
        E 0 90 43 48
        E 260 80 3c 00
        E 0 80 40 00
        E 0 80 43 00
        E 440 90 3c 48
        E 0 90 40 48
        E 0 90 43 48
        E 260 80 3c 00
        E 0 80 40 00
        E 0 80 43 00
        e 514 90 3c 48
        e 0 90 40 48
        e 0 90 43 48
        e 260 80 3c 00
        e 0 80 40 00
        e 0 80 43 00
        E 186 90 43 48
        E 0 90 47 48
        E 20 90 40 48
        E 1900 80 43 00
        E 0 80 47 00
        E 0 80 40 00
        E 0 90 43 48
        E 0 90 47 48
        E 20 90 40 48
        E 240 80 43 00
        E 0 80 47 00
        E 0 80 40 00
        E 440 90 43 48
        E 0 90 47 48
        E 20 90 40 48
        E 240 80 43 00
        E 0 80 47 00
        E 0 80 40 00
        e 514 90 43 48
        e 0 90 47 48
        e 20 90 40 48
        e 240 80 43 00
        e 0 80 47 00
        e 0 80 40 00
        E 186 90 41 48
        E 0 90 45 48
        E 0 90 48 48
        E 1920 80 41 00
        E 0 80 45 00
        E 0 80 48 00
        E 0 90 41 48
        E 0 90 45 48
        E 0 90 48 48
        E 260 80 41 00
        E 0 80 45 00
        E 0 80 48 00
        E 440 90 41 48
        E 0 90 45 48
        E 0 90 48 48
        E 260 80 41 00
        E 0 80 45 00
        E 0 80 48 00
        e 514 90 41 48
        e 0 90 45 48
        e 0 90 48 48
        e 260 80 41 00
        e 0 80 45 00
        e 0 80 48 00
        E 162 90 3e 48
        E 24 90 41 48
        E 0 90 45 48
        E 1896 90 3e 48
        E 24 80 3e 00
        E 0 80 41 00
        E 0 80 45 00
        E 0 90 41 48
        E 0 90 45 48
        E 260 80 3e 00
        E 0 80 41 00
        E 0 80 45 00
        E 416 90 3e 48
        E 24 90 41 48
        E 0 90 45 48
        E 260 80 3e 00
        E 0 80 41 00
        E 0 80 45 00
        e 490 90 3e 48
        e 24 90 41 48
        e 0 90 45 48
        e 260 80 3e 00
        e 0 80 41 00
        e 0 80 45 00
        E 186 b0 7b 00
        CHASE_CC_TAKEOFFS 1
        GUID {A64857E2-94F8-0990-20DF-4C1E9B5E6251}
        IGNTEMPO 0 120 4 4
        SRCCOLOR 24
        VELLANE -1 100 0
        CFGEDITVIEW 0 0.045808 45 12 0 -1 0 0 0 0.5
        KEYSNAP 0
        TRACKSEL 0
        EVTFILTER 0 -1 -1 -1 -1 0 0 0 0 -1 -1 -1 -1 0 -1 0 -1 -1
        CFGEDIT 1 1 0 1 0 0 1 1 1 1 1 1 58 171 1253 866 0 0 0 0 0.25 0 0 0 0 0.5 0 0 1 64
      >
    >
    <ITEM
      POSITION 64
      SNAPOFFS 0
      LENGTH 8
      LOOP 1
      ALLTAKES 0
      FADEIN 1 0 0 1 0 0
      FADEOUT 1 0 0 1 0 0
      MUTE 0
      SEL 1
      IGUID {5BF6DB45-FE39-75BC-78DD-3EE194A9B647}
      IID 18
      NAME "01-Recorded MIDI"
      VOLPAN 1 0 1 -1
      SOFFS 0 0
      PLAYRATE 1 1 0 -1 0 0.0021
      CHANMODE 0
      GUID {F7CC4BDB-D7B9-451A-1106-454A22A677DB}
      RECPASS 1
      <SOURCE MIDI
        HASDATA 1 960 QN
        CCINTERP 32
        POOLEDEVTS {0CC5B73A-315C-FC3A-697B-FAF1CC107CF7}
        E 0 90 3c 48
        E 0 90 40 48
        E 0 90 43 48
        E 1920 80 3c 00
        E 0 80 40 00
        E 0 80 43 00
        E 0 90 3c 48
        E 0 90 40 48
        E 0 90 43 48
        E 260 80 3c 00
        E 0 80 40 00
        E 0 80 43 00
        E 440 90 3c 48
        E 0 90 40 48
        E 0 90 43 48
        E 260 80 3c 00
        E 0 80 40 00
        E 0 80 43 00
        e 514 90 3c 48
        e 0 90 40 48
        e 0 90 43 48
        e 260 80 3c 00
        e 0 80 40 00
        e 0 80 43 00
        E 186 90 43 48
        E 0 90 47 48
        E 20 90 40 48
        E 1900 80 43 00
        E 0 80 47 00
        E 0 80 40 00
        E 0 90 43 48
        E 0 90 47 48
        E 20 90 40 48
        E 240 80 43 00
        E 0 80 47 00
        E 0 80 40 00
        E 440 90 43 48
        E 0 90 47 48
        E 20 90 40 48
        E 240 80 43 00
        E 0 80 47 00
        E 0 80 40 00
        e 514 90 43 48
        e 0 90 47 48
        e 20 90 40 48
        e 240 80 43 00
        e 0 80 47 00
        e 0 80 40 00
        E 186 90 41 48
        E 0 90 45 48
        E 0 90 48 48
        E 1920 80 41 00
        E 0 80 45 00
        E 0 80 48 00
        E 0 90 41 48
        E 0 90 45 48
        E 0 90 48 48
        E 260 80 41 00
        E 0 80 45 00
        E 0 80 48 00
        E 440 90 41 48
        E 0 90 45 48
        E 0 90 48 48
        E 260 80 41 00
        E 0 80 45 00
        E 0 80 48 00
        e 514 90 41 48
        e 0 90 45 48
        e 0 90 48 48
        e 260 80 41 00
        e 0 80 45 00
        e 0 80 48 00
        E 162 90 3e 48
        E 24 90 41 48
        E 0 90 45 48
        E 1896 90 3e 48
        E 24 80 3e 00
        E 0 80 41 00
        E 0 80 45 00
        E 0 90 41 48
        E 0 90 45 48
        E 260 80 3e 00
        E 0 80 41 00
        E 0 80 45 00
        E 416 90 3e 48
        E 24 90 41 48
        E 0 90 45 48
        E 260 80 3e 00
        E 0 80 41 00
        E 0 80 45 00
        e 490 90 3e 48
        e 24 90 41 48
        e 0 90 45 48
        e 260 80 3e 00
        e 0 80 41 00
        e 0 80 45 00
        E 186 b0 7b 00
        CHASE_CC_TAKEOFFS 1
        GUID {19362806-85F2-5D9E-E1F9-07BE0CF3D16E}
        IGNTEMPO 0 120 4 4
        SRCCOLOR 25
        VELLANE -1 100 0
        CFGEDITVIEW 0 0.045808 45 12 0 -1 0 0 0 0.5
        KEYSNAP 0
        TRACKSEL 0
        EVTFILTER 0 -1 -1 -1 -1 0 0 0 0 -1 -1 -1 -1 0 -1 0 -1 -1
        CFGEDIT 1 1 0 1 0 0 1 1 1 1 1 1 58 171 1253 866 0 0 0 0 0.25 0 0 0 0 0.5 0 0 1 64
      >
    >
    <ITEM
      POSITION 72
      SNAPOFFS 0
      LENGTH 8
      LOOP 1
      ALLTAKES 0
      FADEIN 1 0 0 1 0 0
      FADEOUT 1 0 0 1 0 0
      MUTE 0
      SEL 1
      IGUID {DBFE9516-BFAB-24D0-32EA-4CBB30485607}
      IID 19
      NAME "01-Recorded MIDI"
      VOLPAN 1 0 1 -1
      SOFFS 0 0
      PLAYRATE 1 1 0 -1 0 0.0021
      CHANMODE 0
      GUID {E9D84467-4657-F642-47FC-006A4C341303}
      RECPASS 1
      <SOURCE MIDI
        HASDATA 1 960 QN
        CCINTERP 32
        POOLEDEVTS {71EE6BE6-8587-680A-8F8F-1CDBA2F4D77A}
        E 0 90 3c 48
        E 0 90 40 48
        E 0 90 43 48
        E 1920 80 3c 00
        E 0 80 40 00
        E 0 80 43 00
        E 0 90 3c 48
        E 0 90 40 48
        E 0 90 43 48
        E 260 80 3c 00
        E 0 80 40 00
        E 0 80 43 00
        E 440 90 3c 48
        E 0 90 40 48
        E 0 90 43 48
        E 260 80 3c 00
        E 0 80 40 00
        E 0 80 43 00
        e 514 90 3c 48
        e 0 90 40 48
        e 0 90 43 48
        e 260 80 3c 00
        e 0 80 40 00
        e 0 80 43 00
        E 186 90 43 48
        E 0 90 47 48
        E 20 90 40 48
        E 1900 80 43 00
        E 0 80 47 00
        E 0 80 40 00
        E 0 90 43 48
        E 0 90 47 48
        E 20 90 40 48
        E 240 80 43 00
        E 0 80 47 00
        E 0 80 40 00
        E 440 90 43 48
        E 0 90 47 48
        E 20 90 40 48
        E 240 80 43 00
        E 0 80 47 00
        E 0 80 40 00
        e 514 90 43 48
        e 0 90 47 48
        e 20 90 40 48
        e 240 80 43 00
        e 0 80 47 00
        e 0 80 40 00
        E 186 90 41 48
        E 0 90 45 48
        E 0 90 48 48
        E 1920 80 41 00
        E 0 80 45 00
        E 0 80 48 00
        E 0 90 41 48
        E 0 90 45 48
        E 0 90 48 48
        E 260 80 41 00
        E 0 80 45 00
        E 0 80 48 00
        E 440 90 41 48
        E 0 90 45 48
        E 0 90 48 48
        E 260 80 41 00
        E 0 80 45 00
        E 0 80 48 00
        e 514 90 41 48
        e 0 90 45 48
        e 0 90 48 48
        e 260 80 41 00
        e 0 80 45 00
        e 0 80 48 00
        E 162 90 3e 48
        E 24 90 41 48
        E 0 90 45 48
        E 1896 90 3e 48
        E 24 80 3e 00
        E 0 80 41 00
        E 0 80 45 00
        E 0 90 41 48
        E 0 90 45 48
        E 260 80 3e 00
        E 0 80 41 00
        E 0 80 45 00
        E 416 90 3e 48
        E 24 90 41 48
        E 0 90 45 48
        E 260 80 3e 00
        E 0 80 41 00
        E 0 80 45 00
        e 490 90 3e 48
        e 24 90 41 48
        e 0 90 45 48
        e 260 80 3e 00
        e 0 80 41 00
        e 0 80 45 00
        E 186 b0 7b 00
        CHASE_CC_TAKEOFFS 1
        GUID {6844F8A9-6BE9-023C-4A46-0A676470C99B}
        IGNTEMPO 0 120 4 4
        SRCCOLOR 26
        VELLANE -1 100 0
        CFGEDITVIEW 0 0.045808 45 12 0 -1 0 0 0 0.5
        KEYSNAP 0
        TRACKSEL 0
        EVTFILTER 0 -1 -1 -1 -1 0 0 0 0 -1 -1 -1 -1 0 -1 0 -1 -1
        CFGEDIT 1 1 0 1 0 0 1 1 1 1 1 1 58 171 1253 866 0 0 0 0 0.25 0 0 0 0 0.5 0 0 1 64
      >
    >
    <ITEM
      POSITION 80
      SNAPOFFS 0
      LENGTH 8
      LOOP 1
      ALLTAKES 0
      FADEIN 1 0 0 1 0 0
      FADEOUT 1 0 0 1 0 0
      MUTE 0
      SEL 1
      IGUID {F04D4656-FF3F-1BCF-2EFB-0EC4DF47BEC6}
      IID 20
      NAME "01-Recorded MIDI"
      VOLPAN 1 0 1 -1
      SOFFS 0 0
      PLAYRATE 1 1 0 -1 0 0.0021
      CHANMODE 0
      GUID {EDBFE04F-6DE8-8E8C-619A-604DDAAE9C53}
      RECPASS 1
      <SOURCE MIDI
        HASDATA 1 960 QN
        CCINTERP 32
        POOLEDEVTS {BCD06C86-292C-AA51-EFBC-933B5AD50F4A}
        E 0 90 3c 48
        E 0 90 40 48
        E 0 90 43 48
        E 1920 80 3c 00
        E 0 80 40 00
        E 0 80 43 00
        E 0 90 3c 48
        E 0 90 40 48
        E 0 90 43 48
        E 260 80 3c 00
        E 0 80 40 00
        E 0 80 43 00
        E 440 90 3c 48
        E 0 90 40 48
        E 0 90 43 48
        E 260 80 3c 00
        E 0 80 40 00
        E 0 80 43 00
        e 514 90 3c 48
        e 0 90 40 48
        e 0 90 43 48
        e 260 80 3c 00
        e 0 80 40 00
        e 0 80 43 00
        E 186 90 43 48
        E 0 90 47 48
        E 20 90 40 48
        E 1900 80 43 00
        E 0 80 47 00
        E 0 80 40 00
        E 0 90 43 48
        E 0 90 47 48
        E 20 90 40 48
        E 240 80 43 00
        E 0 80 47 00
        E 0 80 40 00
        E 440 90 43 48
        E 0 90 47 48
        E 20 90 40 48
        E 240 80 43 00
        E 0 80 47 00
        E 0 80 40 00
        e 514 90 43 48
        e 0 90 47 48
        e 20 90 40 48
        e 240 80 43 00
        e 0 80 47 00
        e 0 80 40 00
        E 186 90 41 48
        E 0 90 45 48
        E 0 90 48 48
        E 1920 80 41 00
        E 0 80 45 00
        E 0 80 48 00
        E 0 90 41 48
        E 0 90 45 48
        E 0 90 48 48
        E 260 80 41 00
        E 0 80 45 00
        E 0 80 48 00
        E 440 90 41 48
        E 0 90 45 48
        E 0 90 48 48
        E 260 80 41 00
        E 0 80 45 00
        E 0 80 48 00
        e 514 90 41 48
        e 0 90 45 48
        e 0 90 48 48
        e 260 80 41 00
        e 0 80 45 00
        e 0 80 48 00
        E 162 90 3e 48
        E 24 90 41 48
        E 0 90 45 48
        E 1896 90 3e 48
        E 24 80 3e 00
        E 0 80 41 00
        E 0 80 45 00
        E 0 90 41 48
        E 0 90 45 48
        E 260 80 3e 00
        E 0 80 41 00
        E 0 80 45 00
        E 416 90 3e 48
        E 24 90 41 48
        E 0 90 45 48
        E 260 80 3e 00
        E 0 80 41 00
        E 0 80 45 00
        e 490 90 3e 48
        e 24 90 41 48
        e 0 90 45 48
        e 260 80 3e 00
        e 0 80 41 00
        e 0 80 45 00
        E 186 b0 7b 00
        CHASE_CC_TAKEOFFS 1
        GUID {E611ADB6-4869-6CCA-8E83-3954D5E743B1}
        IGNTEMPO 0 120 4 4
        SRCCOLOR 27
        VELLANE -1 100 0
        CFGEDITVIEW 0 0.045808 45 12 0 -1 0 0 0 0.5
        KEYSNAP 0
        TRACKSEL 0
        EVTFILTER 0 -1 -1 -1 -1 0 0 0 0 -1 -1 -1 -1 0 -1 0 -1 -1
        CFGEDIT 1 1 0 1 0 0 1 1 1 1 1 1 58 171 1253 866 0 0 0 0 0.25 0 0 0 0 0.5 0 0 1 64
      >
    >
    <ITEM
      POSITION 88
      SNAPOFFS 0
      LENGTH 8
      LOOP 1
      ALLTAKES 0
      FADEIN 1 0 0 1 0 0
      FADEOUT 1 0 0 1 0 0
      MUTE 0
      SEL 1
      IGUID {721EBF8B-5D30-EC79-48FD-9D657CA66F4A}
      IID 21
      NAME "01-Recorded MIDI"
      VOLPAN 1 0 1 -1
      SOFFS 0 0
      PLAYRATE 1 1 0 -1 0 0.0021
      CHANMODE 0
      GUID {E44EDCE8-B663-CA40-8757-ABABEAD6CD46}
      RECPASS 1
      <SOURCE MIDI
        HASDATA 1 960 QN
        CCINTERP 32
        POOLEDEVTS {EA8E0DEE-0883-4B3D-692B-635C43AD3E0D}
        E 0 90 3c 48
        E 0 90 40 48
        E 0 90 43 48
        E 1920 80 3c 00
        E 0 80 40 00
        E 0 80 43 00
        E 0 90 3c 48
        E 0 90 40 48
        E 0 90 43 48
        E 260 80 3c 00
        E 0 80 40 00
        E 0 80 43 00
        E 440 90 3c 48
        E 0 90 40 48
        E 0 90 43 48
        E 260 80 3c 00
        E 0 80 40 00
        E 0 80 43 00
        e 514 90 3c 48
        e 0 90 40 48
        e 0 90 43 48
        e 260 80 3c 00
        e 0 80 40 00
        e 0 80 43 00
        E 186 90 43 48
        E 0 90 47 48
        E 20 90 40 48
        E 1900 80 43 00
        E 0 80 47 00
        E 0 80 40 00
        E 0 90 43 48
        E 0 90 47 48
        E 20 90 40 48
        E 240 80 43 00
        E 0 80 47 00
        E 0 80 40 00
        E 440 90 43 48
        E 0 90 47 48
        E 20 90 40 48
        E 240 80 43 00
        E 0 80 47 00
        E 0 80 40 00
        e 514 90 43 48
        e 0 90 47 48
        e 20 90 40 48
        e 240 80 43 00
        e 0 80 47 00
        e 0 80 40 00
        E 186 90 41 48
        E 0 90 45 48
        E 0 90 48 48
        E 1920 80 41 00
        E 0 80 45 00
        E 0 80 48 00
        E 0 90 41 48
        E 0 90 45 48
        E 0 90 48 48
        E 260 80 41 00
        E 0 80 45 00
        E 0 80 48 00
        E 440 90 41 48
        E 0 90 45 48
        E 0 90 48 48
        E 260 80 41 00
        E 0 80 45 00
        E 0 80 48 00
        e 514 90 41 48
        e 0 90 45 48
        e 0 90 48 48
        e 260 80 41 00
        e 0 80 45 00
        e 0 80 48 00
        E 162 90 3e 48
        E 24 90 41 48
        E 0 90 45 48
        E 1896 90 3e 48
        E 24 80 3e 00
        E 0 80 41 00
        E 0 80 45 00
        E 0 90 41 48
        E 0 90 45 48
        E 260 80 3e 00
        E 0 80 41 00
        E 0 80 45 00
        E 416 90 3e 48
        E 24 90 41 48
        E 0 90 45 48
        E 260 80 3e 00
        E 0 80 41 00
        E 0 80 45 00
        e 490 90 3e 48
        e 24 90 41 48
        e 0 90 45 48
        e 260 80 3e 00
        e 0 80 41 00
        e 0 80 45 00
        E 186 b0 7b 00
        CHASE_CC_TAKEOFFS 1
        GUID {C762B555-17FC-D765-5340-11D3487D2955}
        IGNTEMPO 0 120 4 4
        SRCCOLOR 28
        VELLANE -1 100 0
        CFGEDITVIEW 0 0.045808 45 12 0 -1 0 0 0 0.5
        KEYSNAP 0
        TRACKSEL 0
        EVTFILTER 0 -1 -1 -1 -1 0 0 0 0 -1 -1 -1 -1 0 -1 0 -1 -1
        CFGEDIT 1 1 0 1 0 0 1 1 1 1 1 1 58 171 1253 866 0 0 0 0 0.25 0 0 0 0 0.5 0 0 1 64
      >
    >
  >
  <TRACK {AFEC691C-1B66-FC05-F62C-F67F0CDFF3A5}
    NAME ""
    PEAKCOL 16576
    BEAT -1
    AUTOMODE 0
    VOLPAN 0.00052194381917 0 -1 -1 1
    MUTESOLO 0 0 0
    IPHASE 0
    PLAYOFFS 0 1
    ISBUS 0 0
    BUSCOMP 0 0 0 0 0
    SHOWINMIX 1 0.6667 0.5 1 0.5 0 0 0
    FREEMODE 0
    SEL 0
    REC 0 5056 1 0 0 0 0
    VU 2
    TRACKHEIGHT 21 0 0
    INQ 0 0 0 0.5 100 0 0 100
    NCHAN 2
    FX 0
    TRACKID {AFEC691C-1B66-FC05-F62C-F67F0CDFF3A5}
    PERF 0
    MIDIOUT -1
    MAINSEND 1 0
    <FXCHAIN
      WNDRECT 346 266 902 608
      SHOW 0
      LASTSEL 5
      DOCKED 0
      BYPASS 0 0 0
      <VST "VST: ReaEQ (Cockos)" reaeq.vst.so 0 "" 1919247729<56535472656571726561657100000000> ""
        cWVlcu5e7f4CAAAAAQAAAAAAAAACAAAAAAAAAAIAAAABAAAAAAAAAAIAAAAAAAAAqAAAAAEAAAAAABAA
        IQAAAAQAAAAEAAAAAQAAAEC4Xhmm+DRAAAAAAAAA8D8AAAAAAAAAQAEIAAAAAQAAAAAAAAAAwHJAAAAAAAAA8D8AAAAAAAAAQAEIAAAAAQAAAAAAAAAAQI9AAAAAAAAA
        8D8AAAAAAAAAQAEDAAAAAQAAAAABaCorbdRAAAAAAAAA8D8AAAAAAAAAQAEBAAAAAQAAAAAAAAAAAPA/AAAAAJoCAACcAQAA
        AEhpZ2ggbG93IHBhc3MAEAAAAA==
      >
      PRESETNAME "High low pass"
      FLOATPOS 0 0 0 0
      FXID {A0C3BBA9-A9F5-1364-29D3-4590A7FF3B79}
      WAK 0 0
      BYPASS 0 0 0
      <VST "VSTi: ReaSynth (Cockos)" reasynth.vst.so 0 "" 1919251321<5653547265737972656173796E746800> ""
        eXNlcu9e7f4AAAAAAgAAAAEAAAAAAAAAAgAAAAAAAAA8AAAAAAAAAAAAEAA=
        776t3g3wrd6lm8Q7F7fROgAAAAAAAAAAAAAAAJCNuT3oZ4g9AACAPwAAAD8AAIA/AAAAAAAAAD8AAAAA
        AAAQAAAA
      >
      FLOATPOS 0 0 0 0
      FXID {CFEE163A-ACCF-0230-4338-02BEE9D30F1A}
      WAK 0 0
      BYPASS 0 0 0
      <JS guitar/amp-model ""
        "Dumble Overdrive Special - Tweed Deluxe.wav" -21.000000 1.000000 0.000000 0.000000 -1.000000 - - - - - - - - - - - - - - - - - - - - - - - - - - - - - - - - - - - - - - - - - - - - - - - - - - - - - - - - - - 
      >
      FLOATPOS 0 0 0 0
      FXID {E968B33E-87BF-131F-8D90-877A6671ADE4}
      WAK 0 0
      BYPASS 0 0 0
      <VST "VST: ReaComp (Cockos)" reacomp.vst.so 0 "" 1919247213<5653547265636D726561636F6D700000> ""
        bWNlcu9e7f4EAAAAAQAAAAAAAAACAAAAAAAAAAQAAAAAAAAACAAAAAAAAAACAAAAAQAAAAAAAAACAAAAAAAAAFQAAAAAAAAAAAAQAA==
        776t3g3wrd5FoYg9/AWpPKWbxDsK16M8AAAAAAAAAAAAAIA/AAAAAAAAAAAAAAAAnNEHMwAAgD8AAAAAzMxMPQAAAAAAAAAAAAAAAAAAgD7YiZ09
        AAAQAAAA
      >
      FLOATPOS 0 0 0 0
      FXID {8F2083BD-679F-FC55-6599-FD0E62E02583}
      WAK 0 0
      BYPASS 0 0 0
      <VST "VST: ReaDelay (Cockos)" readelay.vst.so 0 "" 1919247468<5653547265646C72656164656C617900> ""
        bGRlcu5e7f4CAAAAAQAAAAAAAAACAAAAAAAAAAIAAAABAAAAAAAAAAIAAAAAAAAA/AAAAAEAAAAAAAAA
        AAAAAAAAAAAFAAAALAAAAAIAAAAEAAAAAACAPwAAgD8AAAAAAACAPwAAAAAAAIA7vTeGNQAAgD8AAAAAAACAPwAAgD8AAIA/AAAAAAAAAAAAAIA/AAAAAAAAADwAAAAA
        AACAPwAAAAAAAIA/AACAP+87NT8AAIA/AAAAAAAAgD8AAAAAAABAPL03hjUAAIA/AAAAAAAAgD8AAIA/zk0AP6abhD4AAAAAAACAPwAAAAAAAIA8vTeGNQAAgD8AAAAA
        AACAPwAAgD8aqrU+pHA9PwAAAAAAAIA/AAAAAAAAoDy9N4Y1AACAPwAAAAAAAIA/AACAP/npAD4AAAA/
        AHN0b2NrIC0gYmFzaWMgNSB0YXAgcGluZyBwb25nAAAAAAA=
      >
      PRESETNAME "stock - basic 5 tap ping pong"
      FLOATPOS 0 0 0 0
      FXID {D2726B08-FBF0-A076-E22C-11C4CD4BDE21}
      WAK 0 0
      BYPASS 0 0 0
      <VST "VST: ReaVerb (Cockos)" reaverb.vst.so 0 "" 1919252066<56535472657662726561766572620000> ""
        YnZlcu5e7f4CAAAAAQAAAAAAAAACAAAAAAAAAAIAAAABAAAAAAAAAAIAAAAAAAAAcAAAAAEAAAAAAAAA
        AAAAwcybgD4AAIA/AAAAAAAAgD8AAIA/AAAAPwAAgD8AAAAAVkVSQkdFTgAYAAAAAAAAAJHgV0QdrLRA3rK7QsHIjEIAAIC/RUNIT0dFTgAcAAAAy/i2QLUjdUJdzdM/
        osdfP5lRrzyRzYxAnMQAPw==
        AHN3ZWV0dmVyYm8AAAAAAA==
      >
      PRESETNAME sweetverbo
      FLOATPOS 0 0 0 0
      FXID {734C8717-ED48-0B34-B8B3-DBFD6F9479A0}
      WAK 0 0
    >
    <ITEM
      POSITION 0
      SNAPOFFS 0
      LENGTH 8
      LOOP 1
      ALLTAKES 0
      FADEIN 1 0 0 1 0 0
      FADEOUT 1 0 0 1 0 0
      MUTE 0
      SEL 1
      IGUID {FFB4CD30-44DC-8ECD-D95E-6B3E057C7218}
      IID 10
      NAME "01-Recorded MIDI"
      VOLPAN 1 0 1 -1
      SOFFS 0 0
      PLAYRATE 1 1 0 -1 0 0.0021
      CHANMODE 0
      GUID {ABCBB435-86CD-913B-4507-398E98833969}
      RECPASS 1
      <SOURCE MIDI
        HASDATA 1 960 QN
        CCINTERP 32
        POOLEDEVTS {71B0A529-E308-9A4E-1FF8-D79531CE8955}
        E 0 90 3c 48
        E 0 90 40 48
        E 0 90 43 48
        E 1920 80 3c 00
        E 0 80 40 00
        E 0 80 43 00
        E 0 90 3c 48
        E 0 90 40 48
        E 0 90 43 48
        E 260 80 3c 00
        E 0 80 40 00
        E 0 80 43 00
        E 440 90 3c 48
        E 0 90 40 48
        E 0 90 43 48
        E 260 80 3c 00
        E 0 80 40 00
        E 0 80 43 00
        e 514 90 3c 48
        e 0 90 40 48
        e 0 90 43 48
        e 260 80 3c 00
        e 0 80 40 00
        e 0 80 43 00
        E 186 90 43 48
        E 0 90 47 48
        E 20 90 40 48
        E 1900 80 43 00
        E 0 80 47 00
        E 0 80 40 00
        E 0 90 43 48
        E 0 90 47 48
        E 20 90 40 48
        E 240 80 43 00
        E 0 80 47 00
        E 0 80 40 00
        E 440 90 43 48
        E 0 90 47 48
        E 20 90 40 48
        E 240 80 43 00
        E 0 80 47 00
        E 0 80 40 00
        e 514 90 43 48
        e 0 90 47 48
        e 20 90 40 48
        e 240 80 43 00
        e 0 80 47 00
        e 0 80 40 00
        E 186 90 41 48
        E 0 90 45 48
        E 0 90 48 48
        E 1920 80 41 00
        E 0 80 45 00
        E 0 80 48 00
        E 0 90 41 48
        E 0 90 45 48
        E 0 90 48 48
        E 260 80 41 00
        E 0 80 45 00
        E 0 80 48 00
        E 440 90 41 48
        E 0 90 45 48
        E 0 90 48 48
        E 260 80 41 00
        E 0 80 45 00
        E 0 80 48 00
        e 514 90 41 48
        e 0 90 45 48
        e 0 90 48 48
        e 260 80 41 00
        e 0 80 45 00
        e 0 80 48 00
        E 162 90 3e 48
        E 24 90 41 48
        E 0 90 45 48
        E 1896 90 3e 48
        E 24 80 3e 00
        E 0 80 41 00
        E 0 80 45 00
        E 0 90 41 48
        E 0 90 45 48
        E 260 80 3e 00
        E 0 80 41 00
        E 0 80 45 00
        E 416 90 3e 48
        E 24 90 41 48
        E 0 90 45 48
        E 260 80 3e 00
        E 0 80 41 00
        E 0 80 45 00
        e 490 90 3e 48
        e 24 90 41 48
        e 0 90 45 48
        e 260 80 3e 00
        e 0 80 41 00
        e 0 80 45 00
        E 186 b0 7b 00
        CHASE_CC_TAKEOFFS 1
        GUID {7B9D708B-43E1-C8D4-C4B3-87E2A6C27801}
        IGNTEMPO 0 120 4 4
        SRCCOLOR 17
        VELLANE -1 100 0
        CFGEDITVIEW 0 0.045808 45 12 0 -1 0 0 0 0.5
        KEYSNAP 0
        TRACKSEL 0
        EVTFILTER 0 -1 -1 -1 -1 0 0 0 0 -1 -1 -1 -1 0 -1 0 -1 -1
        CFGEDIT 1 1 0 1 0 0 1 1 1 1 1 1 58 171 1253 866 0 0 0 0 0.25 0 0 0 0 0.5 0 0 1 64
      >
    >
    <ITEM
      POSITION 8
      SNAPOFFS 0
      LENGTH 8
      LOOP 1
      ALLTAKES 0
      FADEIN 1 0 0 1 0 0
      FADEOUT 1 0 0 1 0 0
      MUTE 0
      SEL 1
      IGUID {BEB92A02-AB73-CDDC-D333-367E1A24D19C}
      IID 11
      NAME "01-Recorded MIDI"
      VOLPAN 1 0 1 -1
      SOFFS 0 0
      PLAYRATE 1 1 0 -1 0 0.0021
      CHANMODE 0
      GUID {1AE4963B-12DA-1901-8B7D-5C9F6A28C078}
      RECPASS 1
      <SOURCE MIDI
        HASDATA 1 960 QN
        CCINTERP 32
        POOLEDEVTS {962B761C-4125-FA0D-1B5A-A0B6532AF9BE}
        E 0 90 3c 48
        E 0 90 40 48
        E 0 90 43 48
        E 1920 80 3c 00
        E 0 80 40 00
        E 0 80 43 00
        E 0 90 3c 48
        E 0 90 40 48
        E 0 90 43 48
        E 260 80 3c 00
        E 0 80 40 00
        E 0 80 43 00
        E 440 90 3c 48
        E 0 90 40 48
        E 0 90 43 48
        E 260 80 3c 00
        E 0 80 40 00
        E 0 80 43 00
        e 514 90 3c 48
        e 0 90 40 48
        e 0 90 43 48
        e 260 80 3c 00
        e 0 80 40 00
        e 0 80 43 00
        E 186 90 43 48
        E 0 90 47 48
        E 20 90 40 48
        E 1900 80 43 00
        E 0 80 47 00
        E 0 80 40 00
        E 0 90 43 48
        E 0 90 47 48
        E 20 90 40 48
        E 240 80 43 00
        E 0 80 47 00
        E 0 80 40 00
        E 440 90 43 48
        E 0 90 47 48
        E 20 90 40 48
        E 240 80 43 00
        E 0 80 47 00
        E 0 80 40 00
        e 514 90 43 48
        e 0 90 47 48
        e 20 90 40 48
        e 240 80 43 00
        e 0 80 47 00
        e 0 80 40 00
        E 186 90 41 48
        E 0 90 45 48
        E 0 90 48 48
        E 1920 80 41 00
        E 0 80 45 00
        E 0 80 48 00
        E 0 90 41 48
        E 0 90 45 48
        E 0 90 48 48
        E 260 80 41 00
        E 0 80 45 00
        E 0 80 48 00
        E 440 90 41 48
        E 0 90 45 48
        E 0 90 48 48
        E 260 80 41 00
        E 0 80 45 00
        E 0 80 48 00
        e 514 90 41 48
        e 0 90 45 48
        e 0 90 48 48
        e 260 80 41 00
        e 0 80 45 00
        e 0 80 48 00
        E 162 90 3e 48
        E 24 90 41 48
        E 0 90 45 48
        E 1896 90 3e 48
        E 24 80 3e 00
        E 0 80 41 00
        E 0 80 45 00
        E 0 90 41 48
        E 0 90 45 48
        E 260 80 3e 00
        E 0 80 41 00
        E 0 80 45 00
        E 416 90 3e 48
        E 24 90 41 48
        E 0 90 45 48
        E 260 80 3e 00
        E 0 80 41 00
        E 0 80 45 00
        e 490 90 3e 48
        e 24 90 41 48
        e 0 90 45 48
        e 260 80 3e 00
        e 0 80 41 00
        e 0 80 45 00
        E 186 b0 7b 00
        CHASE_CC_TAKEOFFS 1
        GUID {3131B4E2-B370-E352-A9C5-C8CA31551A86}
        IGNTEMPO 0 120 4 4
        SRCCOLOR 18
        VELLANE -1 100 0
        CFGEDITVIEW 0 0.045808 45 12 0 -1 0 0 0 0.5
        KEYSNAP 0
        TRACKSEL 0
        EVTFILTER 0 -1 -1 -1 -1 0 0 0 0 -1 -1 -1 -1 0 -1 0 -1 -1
        CFGEDIT 1 1 0 1 0 0 1 1 1 1 1 1 58 171 1253 866 0 0 0 0 0.25 0 0 0 0 0.5 0 0 1 64
      >
    >
    <ITEM
      POSITION 16
      SNAPOFFS 0
      LENGTH 8
      LOOP 1
      ALLTAKES 0
      FADEIN 1 0 0 1 0 0
      FADEOUT 1 0 0 1 0 0
      MUTE 0
      SEL 1
      IGUID {DB426852-A82B-C29A-7003-7D24D58CAFEB}
      IID 12
      NAME "01-Recorded MIDI"
      VOLPAN 1 0 1 -1
      SOFFS 0 0
      PLAYRATE 1 1 0 -1 0 0.0021
      CHANMODE 0
      GUID {7D4DE757-14DC-0E4A-5059-0A9FD695AA23}
      RECPASS 1
      <SOURCE MIDI
        HASDATA 1 960 QN
        CCINTERP 32
        POOLEDEVTS {81987251-517A-FB24-CF44-B74332C9B7CA}
        E 0 90 3c 48
        E 0 90 40 48
        E 0 90 43 48
        E 1920 80 3c 00
        E 0 80 40 00
        E 0 80 43 00
        E 0 90 3c 48
        E 0 90 40 48
        E 0 90 43 48
        E 260 80 3c 00
        E 0 80 40 00
        E 0 80 43 00
        E 440 90 3c 48
        E 0 90 40 48
        E 0 90 43 48
        E 260 80 3c 00
        E 0 80 40 00
        E 0 80 43 00
        e 514 90 3c 48
        e 0 90 40 48
        e 0 90 43 48
        e 260 80 3c 00
        e 0 80 40 00
        e 0 80 43 00
        E 186 90 43 48
        E 0 90 47 48
        E 20 90 40 48
        E 1900 80 43 00
        E 0 80 47 00
        E 0 80 40 00
        E 0 90 43 48
        E 0 90 47 48
        E 20 90 40 48
        E 240 80 43 00
        E 0 80 47 00
        E 0 80 40 00
        E 440 90 43 48
        E 0 90 47 48
        E 20 90 40 48
        E 240 80 43 00
        E 0 80 47 00
        E 0 80 40 00
        e 514 90 43 48
        e 0 90 47 48
        e 20 90 40 48
        e 240 80 43 00
        e 0 80 47 00
        e 0 80 40 00
        E 186 90 41 48
        E 0 90 45 48
        E 0 90 48 48
        E 1920 80 41 00
        E 0 80 45 00
        E 0 80 48 00
        E 0 90 41 48
        E 0 90 45 48
        E 0 90 48 48
        E 260 80 41 00
        E 0 80 45 00
        E 0 80 48 00
        E 440 90 41 48
        E 0 90 45 48
        E 0 90 48 48
        E 260 80 41 00
        E 0 80 45 00
        E 0 80 48 00
        e 514 90 41 48
        e 0 90 45 48
        e 0 90 48 48
        e 260 80 41 00
        e 0 80 45 00
        e 0 80 48 00
        E 162 90 3e 48
        E 24 90 41 48
        E 0 90 45 48
        E 1896 90 3e 48
        E 24 80 3e 00
        E 0 80 41 00
        E 0 80 45 00
        E 0 90 41 48
        E 0 90 45 48
        E 260 80 3e 00
        E 0 80 41 00
        E 0 80 45 00
        E 416 90 3e 48
        E 24 90 41 48
        E 0 90 45 48
        E 260 80 3e 00
        E 0 80 41 00
        E 0 80 45 00
        e 490 90 3e 48
        e 24 90 41 48
        e 0 90 45 48
        e 260 80 3e 00
        e 0 80 41 00
        e 0 80 45 00
        E 186 b0 7b 00
        CHASE_CC_TAKEOFFS 1
        GUID {48C567A2-895C-FB9B-FDBA-0ADB7004ABF3}
        IGNTEMPO 0 120 4 4
        SRCCOLOR 19
        VELLANE -1 100 0
        CFGEDITVIEW 0 0.045808 45 12 0 -1 0 0 0 0.5
        KEYSNAP 0
        TRACKSEL 0
        EVTFILTER 0 -1 -1 -1 -1 0 0 0 0 -1 -1 -1 -1 0 -1 0 -1 -1
        CFGEDIT 1 1 0 1 0 0 1 1 1 1 1 1 58 171 1253 866 0 0 0 0 0.25 0 0 0 0 0.5 0 0 1 64
      >
    >
    <ITEM
      POSITION 24
      SNAPOFFS 0
      LENGTH 8
      LOOP 1
      ALLTAKES 0
      FADEIN 1 0 0 1 0 0
      FADEOUT 1 0 0 1 0 0
      MUTE 0
      SEL 1
      IGUID {59B61636-BB57-DB41-6B23-2AE0D6AB3B0E}
      IID 13
      NAME "01-Recorded MIDI"
      VOLPAN 1 0 1 -1
      SOFFS 0 0
      PLAYRATE 1 1 0 -1 0 0.0021
      CHANMODE 0
      GUID {5CE9A82C-F2A4-C0D3-D1C1-E9A312419580}
      RECPASS 1
      <SOURCE MIDI
        HASDATA 1 960 QN
        CCINTERP 32
        POOLEDEVTS {2020AB29-8B8D-EE56-7028-8D55435F5530}
        E 0 90 3c 48
        E 0 90 40 48
        E 0 90 43 48
        E 1920 80 3c 00
        E 0 80 40 00
        E 0 80 43 00
        E 0 90 3c 48
        E 0 90 40 48
        E 0 90 43 48
        E 260 80 3c 00
        E 0 80 40 00
        E 0 80 43 00
        E 440 90 3c 48
        E 0 90 40 48
        E 0 90 43 48
        E 260 80 3c 00
        E 0 80 40 00
        E 0 80 43 00
        e 514 90 3c 48
        e 0 90 40 48
        e 0 90 43 48
        e 260 80 3c 00
        e 0 80 40 00
        e 0 80 43 00
        E 186 90 43 48
        E 0 90 47 48
        E 20 90 40 48
        E 1900 80 43 00
        E 0 80 47 00
        E 0 80 40 00
        E 0 90 43 48
        E 0 90 47 48
        E 20 90 40 48
        E 240 80 43 00
        E 0 80 47 00
        E 0 80 40 00
        E 440 90 43 48
        E 0 90 47 48
        E 20 90 40 48
        E 240 80 43 00
        E 0 80 47 00
        E 0 80 40 00
        e 514 90 43 48
        e 0 90 47 48
        e 20 90 40 48
        e 240 80 43 00
        e 0 80 47 00
        e 0 80 40 00
        E 186 90 41 48
        E 0 90 45 48
        E 0 90 48 48
        E 1920 80 41 00
        E 0 80 45 00
        E 0 80 48 00
        E 0 90 41 48
        E 0 90 45 48
        E 0 90 48 48
        E 260 80 41 00
        E 0 80 45 00
        E 0 80 48 00
        E 440 90 41 48
        E 0 90 45 48
        E 0 90 48 48
        E 260 80 41 00
        E 0 80 45 00
        E 0 80 48 00
        e 514 90 41 48
        e 0 90 45 48
        e 0 90 48 48
        e 260 80 41 00
        e 0 80 45 00
        e 0 80 48 00
        E 162 90 3e 48
        E 24 90 41 48
        E 0 90 45 48
        E 1896 90 3e 48
        E 24 80 3e 00
        E 0 80 41 00
        E 0 80 45 00
        E 0 90 41 48
        E 0 90 45 48
        E 260 80 3e 00
        E 0 80 41 00
        E 0 80 45 00
        E 416 90 3e 48
        E 24 90 41 48
        E 0 90 45 48
        E 260 80 3e 00
        E 0 80 41 00
        E 0 80 45 00
        e 490 90 3e 48
        e 24 90 41 48
        e 0 90 45 48
        e 260 80 3e 00
        e 0 80 41 00
        e 0 80 45 00
        E 186 b0 7b 00
        CHASE_CC_TAKEOFFS 1
        GUID {1DE38800-E2A1-41B5-9C8C-3291891093B1}
        IGNTEMPO 0 120 4 4
        SRCCOLOR 20
        VELLANE -1 100 0
        CFGEDITVIEW 0 0.045808 45 12 0 -1 0 0 0 0.5
        KEYSNAP 0
        TRACKSEL 0
        EVTFILTER 0 -1 -1 -1 -1 0 0 0 0 -1 -1 -1 -1 0 -1 0 -1 -1
        CFGEDIT 1 1 0 1 0 0 1 1 1 1 1 1 58 171 1253 866 0 0 0 0 0.25 0 0 0 0 0.5 0 0 1 64
      >
    >
    <ITEM
      POSITION 32
      SNAPOFFS 0
      LENGTH 8
      LOOP 1
      ALLTAKES 0
      FADEIN 1 0 0 1 0 0
      FADEOUT 1 0 0 1 0 0
      MUTE 0
      SEL 1
      IGUID {004CE1B4-451A-1F7F-0006-38A8A05F29F8}
      IID 14
      NAME "01-Recorded MIDI"
      VOLPAN 1 0 1 -1
      SOFFS 0 0
      PLAYRATE 1 1 0 -1 0 0.0021
      CHANMODE 0
      GUID {F293A0B5-AC0E-A040-2D7A-D201A48E5DB6}
      RECPASS 1
      <SOURCE MIDI
        HASDATA 1 960 QN
        CCINTERP 32
        POOLEDEVTS {5D2BB8FA-C9DA-7DD5-70A1-0D6924A1B02B}
        E 0 90 3c 48
        E 0 90 40 48
        E 0 90 43 48
        E 1920 80 3c 00
        E 0 80 40 00
        E 0 80 43 00
        E 0 90 3c 48
        E 0 90 40 48
        E 0 90 43 48
        E 260 80 3c 00
        E 0 80 40 00
        E 0 80 43 00
        E 440 90 3c 48
        E 0 90 40 48
        E 0 90 43 48
        E 260 80 3c 00
        E 0 80 40 00
        E 0 80 43 00
        e 514 90 3c 48
        e 0 90 40 48
        e 0 90 43 48
        e 260 80 3c 00
        e 0 80 40 00
        e 0 80 43 00
        E 186 90 43 48
        E 0 90 47 48
        E 20 90 40 48
        E 1900 80 43 00
        E 0 80 47 00
        E 0 80 40 00
        E 0 90 43 48
        E 0 90 47 48
        E 20 90 40 48
        E 240 80 43 00
        E 0 80 47 00
        E 0 80 40 00
        E 440 90 43 48
        E 0 90 47 48
        E 20 90 40 48
        E 240 80 43 00
        E 0 80 47 00
        E 0 80 40 00
        e 514 90 43 48
        e 0 90 47 48
        e 20 90 40 48
        e 240 80 43 00
        e 0 80 47 00
        e 0 80 40 00
        E 186 90 41 48
        E 0 90 45 48
        E 0 90 48 48
        E 1920 80 41 00
        E 0 80 45 00
        E 0 80 48 00
        E 0 90 41 48
        E 0 90 45 48
        E 0 90 48 48
        E 260 80 41 00
        E 0 80 45 00
        E 0 80 48 00
        E 440 90 41 48
        E 0 90 45 48
        E 0 90 48 48
        E 260 80 41 00
        E 0 80 45 00
        E 0 80 48 00
        e 514 90 41 48
        e 0 90 45 48
        e 0 90 48 48
        e 260 80 41 00
        e 0 80 45 00
        e 0 80 48 00
        E 162 90 3e 48
        E 24 90 41 48
        E 0 90 45 48
        E 1896 90 3e 48
        E 24 80 3e 00
        E 0 80 41 00
        E 0 80 45 00
        E 0 90 41 48
        E 0 90 45 48
        E 260 80 3e 00
        E 0 80 41 00
        E 0 80 45 00
        E 416 90 3e 48
        E 24 90 41 48
        E 0 90 45 48
        E 260 80 3e 00
        E 0 80 41 00
        E 0 80 45 00
        e 490 90 3e 48
        e 24 90 41 48
        e 0 90 45 48
        e 260 80 3e 00
        e 0 80 41 00
        e 0 80 45 00
        E 186 b0 7b 00
        CHASE_CC_TAKEOFFS 1
        GUID {0C3271F4-E233-9088-9B25-A722FAE7C579}
        IGNTEMPO 0 120 4 4
        SRCCOLOR 21
        VELLANE -1 100 0
        CFGEDITVIEW 0 0.045808 45 12 0 -1 0 0 0 0.5
        KEYSNAP 0
        TRACKSEL 0
        EVTFILTER 0 -1 -1 -1 -1 0 0 0 0 -1 -1 -1 -1 0 -1 0 -1 -1
        CFGEDIT 1 1 0 1 0 0 1 1 1 1 1 1 58 171 1253 866 0 0 0 0 0.25 0 0 0 0 0.5 0 0 1 64
      >
    >
    <ITEM
      POSITION 40
      SNAPOFFS 0
      LENGTH 8
      LOOP 1
      ALLTAKES 0
      FADEIN 1 0 0 1 0 0
      FADEOUT 1 0 0 1 0 0
      MUTE 0
      SEL 1
      IGUID {6320E8C2-1F31-4E3C-A89C-31E29B27FB77}
      IID 15
      NAME "01-Recorded MIDI"
      VOLPAN 1 0 1 -1
      SOFFS 0 0
      PLAYRATE 1 1 0 -1 0 0.0021
      CHANMODE 0
      GUID {84D5B8DD-2A4B-2EE5-20EF-A88B63DAB37D}
      RECPASS 1
      <SOURCE MIDI
        HASDATA 1 960 QN
        CCINTERP 32
        POOLEDEVTS {F6916BA6-8792-A58C-209C-641D5BE83E67}
        E 0 90 3c 48
        E 0 90 40 48
        E 0 90 43 48
        E 1920 80 3c 00
        E 0 80 40 00
        E 0 80 43 00
        E 0 90 3c 48
        E 0 90 40 48
        E 0 90 43 48
        E 260 80 3c 00
        E 0 80 40 00
        E 0 80 43 00
        E 440 90 3c 48
        E 0 90 40 48
        E 0 90 43 48
        E 260 80 3c 00
        E 0 80 40 00
        E 0 80 43 00
        e 514 90 3c 48
        e 0 90 40 48
        e 0 90 43 48
        e 260 80 3c 00
        e 0 80 40 00
        e 0 80 43 00
        E 186 90 43 48
        E 0 90 47 48
        E 20 90 40 48
        E 1900 80 43 00
        E 0 80 47 00
        E 0 80 40 00
        E 0 90 43 48
        E 0 90 47 48
        E 20 90 40 48
        E 240 80 43 00
        E 0 80 47 00
        E 0 80 40 00
        E 440 90 43 48
        E 0 90 47 48
        E 20 90 40 48
        E 240 80 43 00
        E 0 80 47 00
        E 0 80 40 00
        e 514 90 43 48
        e 0 90 47 48
        e 20 90 40 48
        e 240 80 43 00
        e 0 80 47 00
        e 0 80 40 00
        E 186 90 41 48
        E 0 90 45 48
        E 0 90 48 48
        E 1920 80 41 00
        E 0 80 45 00
        E 0 80 48 00
        E 0 90 41 48
        E 0 90 45 48
        E 0 90 48 48
        E 260 80 41 00
        E 0 80 45 00
        E 0 80 48 00
        E 440 90 41 48
        E 0 90 45 48
        E 0 90 48 48
        E 260 80 41 00
        E 0 80 45 00
        E 0 80 48 00
        e 514 90 41 48
        e 0 90 45 48
        e 0 90 48 48
        e 260 80 41 00
        e 0 80 45 00
        e 0 80 48 00
        E 162 90 3e 48
        E 24 90 41 48
        E 0 90 45 48
        E 1896 90 3e 48
        E 24 80 3e 00
        E 0 80 41 00
        E 0 80 45 00
        E 0 90 41 48
        E 0 90 45 48
        E 260 80 3e 00
        E 0 80 41 00
        E 0 80 45 00
        E 416 90 3e 48
        E 24 90 41 48
        E 0 90 45 48
        E 260 80 3e 00
        E 0 80 41 00
        E 0 80 45 00
        e 490 90 3e 48
        e 24 90 41 48
        e 0 90 45 48
        e 260 80 3e 00
        e 0 80 41 00
        e 0 80 45 00
        E 186 b0 7b 00
        CHASE_CC_TAKEOFFS 1
        GUID {040E7AF8-3572-5D91-3C86-797AEE7444D4}
        IGNTEMPO 0 120 4 4
        SRCCOLOR 22
        VELLANE -1 100 0
        CFGEDITVIEW 0 0.045808 45 12 0 -1 0 0 0 0.5
        KEYSNAP 0
        TRACKSEL 0
        EVTFILTER 0 -1 -1 -1 -1 0 0 0 0 -1 -1 -1 -1 0 -1 0 -1 -1
        CFGEDIT 1 1 0 1 0 0 1 1 1 1 1 1 58 171 1253 866 0 0 0 0 0.25 0 0 0 0 0.5 0 0 1 64
      >
    >
    <ITEM
      POSITION 48
      SNAPOFFS 0
      LENGTH 8
      LOOP 1
      ALLTAKES 0
      FADEIN 1 0 0 1 0 0
      FADEOUT 1 0 0 1 0 0
      MUTE 0
      SEL 1
      IGUID {A8E23E24-BDB5-01C4-4E37-22246F380A58}
      IID 16
      NAME "01-Recorded MIDI"
      VOLPAN 1 0 1 -1
      SOFFS 0 0
      PLAYRATE 1 1 0 -1 0 0.0021
      CHANMODE 0
      GUID {3C89C005-5449-EDF6-5723-B0E3B666EDF1}
      RECPASS 1
      <SOURCE MIDI
        HASDATA 1 960 QN
        CCINTERP 32
        POOLEDEVTS {B0BF0206-21F0-EB71-B8BC-F6964F7F8279}
        E 0 90 3c 48
        E 0 90 40 48
        E 0 90 43 48
        E 1920 80 3c 00
        E 0 80 40 00
        E 0 80 43 00
        E 0 90 3c 48
        E 0 90 40 48
        E 0 90 43 48
        E 260 80 3c 00
        E 0 80 40 00
        E 0 80 43 00
        E 440 90 3c 48
        E 0 90 40 48
        E 0 90 43 48
        E 260 80 3c 00
        E 0 80 40 00
        E 0 80 43 00
        e 514 90 3c 48
        e 0 90 40 48
        e 0 90 43 48
        e 260 80 3c 00
        e 0 80 40 00
        e 0 80 43 00
        E 186 90 43 48
        E 0 90 47 48
        E 20 90 40 48
        E 1900 80 43 00
        E 0 80 47 00
        E 0 80 40 00
        E 0 90 43 48
        E 0 90 47 48
        E 20 90 40 48
        E 240 80 43 00
        E 0 80 47 00
        E 0 80 40 00
        E 440 90 43 48
        E 0 90 47 48
        E 20 90 40 48
        E 240 80 43 00
        E 0 80 47 00
        E 0 80 40 00
        e 514 90 43 48
        e 0 90 47 48
        e 20 90 40 48
        e 240 80 43 00
        e 0 80 47 00
        e 0 80 40 00
        E 186 90 41 48
        E 0 90 45 48
        E 0 90 48 48
        E 1920 80 41 00
        E 0 80 45 00
        E 0 80 48 00
        E 0 90 41 48
        E 0 90 45 48
        E 0 90 48 48
        E 260 80 41 00
        E 0 80 45 00
        E 0 80 48 00
        E 440 90 41 48
        E 0 90 45 48
        E 0 90 48 48
        E 260 80 41 00
        E 0 80 45 00
        E 0 80 48 00
        e 514 90 41 48
        e 0 90 45 48
        e 0 90 48 48
        e 260 80 41 00
        e 0 80 45 00
        e 0 80 48 00
        E 162 90 3e 48
        E 24 90 41 48
        E 0 90 45 48
        E 1896 90 3e 48
        E 24 80 3e 00
        E 0 80 41 00
        E 0 80 45 00
        E 0 90 41 48
        E 0 90 45 48
        E 260 80 3e 00
        E 0 80 41 00
        E 0 80 45 00
        E 416 90 3e 48
        E 24 90 41 48
        E 0 90 45 48
        E 260 80 3e 00
        E 0 80 41 00
        E 0 80 45 00
        e 490 90 3e 48
        e 24 90 41 48
        e 0 90 45 48
        e 260 80 3e 00
        e 0 80 41 00
        e 0 80 45 00
        E 186 b0 7b 00
        CHASE_CC_TAKEOFFS 1
        GUID {2338968B-6CF9-9F40-300F-DEB89D3392EA}
        IGNTEMPO 0 120 4 4
        SRCCOLOR 23
        VELLANE -1 100 0
        CFGEDITVIEW 0 0.045808 45 12 0 -1 0 0 0 0.5
        KEYSNAP 0
        TRACKSEL 0
        EVTFILTER 0 -1 -1 -1 -1 0 0 0 0 -1 -1 -1 -1 0 -1 0 -1 -1
        CFGEDIT 1 1 0 1 0 0 1 1 1 1 1 1 58 171 1253 866 0 0 0 0 0.25 0 0 0 0 0.5 0 0 1 64
      >
    >
    <ITEM
      POSITION 56
      SNAPOFFS 0
      LENGTH 8
      LOOP 1
      ALLTAKES 0
      FADEIN 1 0 0 1 0 0
      FADEOUT 1 0 0 1 0 0
      MUTE 0
      SEL 1
      IGUID {CFAF9D8E-0EDC-A5F6-D77E-3B1C3C22A78B}
      IID 17
      NAME "01-Recorded MIDI"
      VOLPAN 1 0 1 -1
      SOFFS 0 0
      PLAYRATE 1 1 0 -1 0 0.0021
      CHANMODE 0
      GUID {D001D38D-3009-08FF-B6A0-8C1D39485187}
      RECPASS 1
      <SOURCE MIDI
        HASDATA 1 960 QN
        CCINTERP 32
        POOLEDEVTS {9B24391E-939E-D771-A171-EE9A5EF86053}
        E 0 90 3c 48
        E 0 90 40 48
        E 0 90 43 48
        E 1920 80 3c 00
        E 0 80 40 00
        E 0 80 43 00
        E 0 90 3c 48
        E 0 90 40 48
        E 0 90 43 48
        E 260 80 3c 00
        E 0 80 40 00
        E 0 80 43 00
        E 440 90 3c 48
        E 0 90 40 48
        E 0 90 43 48
        E 260 80 3c 00
        E 0 80 40 00
        E 0 80 43 00
        e 514 90 3c 48
        e 0 90 40 48
        e 0 90 43 48
        e 260 80 3c 00
        e 0 80 40 00
        e 0 80 43 00
        E 186 90 43 48
        E 0 90 47 48
        E 20 90 40 48
        E 1900 80 43 00
        E 0 80 47 00
        E 0 80 40 00
        E 0 90 43 48
        E 0 90 47 48
        E 20 90 40 48
        E 240 80 43 00
        E 0 80 47 00
        E 0 80 40 00
        E 440 90 43 48
        E 0 90 47 48
        E 20 90 40 48
        E 240 80 43 00
        E 0 80 47 00
        E 0 80 40 00
        e 514 90 43 48
        e 0 90 47 48
        e 20 90 40 48
        e 240 80 43 00
        e 0 80 47 00
        e 0 80 40 00
        E 186 90 41 48
        E 0 90 45 48
        E 0 90 48 48
        E 1920 80 41 00
        E 0 80 45 00
        E 0 80 48 00
        E 0 90 41 48
        E 0 90 45 48
        E 0 90 48 48
        E 260 80 41 00
        E 0 80 45 00
        E 0 80 48 00
        E 440 90 41 48
        E 0 90 45 48
        E 0 90 48 48
        E 260 80 41 00
        E 0 80 45 00
        E 0 80 48 00
        e 514 90 41 48
        e 0 90 45 48
        e 0 90 48 48
        e 260 80 41 00
        e 0 80 45 00
        e 0 80 48 00
        E 162 90 3e 48
        E 24 90 41 48
        E 0 90 45 48
        E 1896 90 3e 48
        E 24 80 3e 00
        E 0 80 41 00
        E 0 80 45 00
        E 0 90 41 48
        E 0 90 45 48
        E 260 80 3e 00
        E 0 80 41 00
        E 0 80 45 00
        E 416 90 3e 48
        E 24 90 41 48
        E 0 90 45 48
        E 260 80 3e 00
        E 0 80 41 00
        E 0 80 45 00
        e 490 90 3e 48
        e 24 90 41 48
        e 0 90 45 48
        e 260 80 3e 00
        e 0 80 41 00
        e 0 80 45 00
        E 186 b0 7b 00
        CHASE_CC_TAKEOFFS 1
        GUID {A64857E2-94F8-0990-20DF-4C1E9B5E6251}
        IGNTEMPO 0 120 4 4
        SRCCOLOR 24
        VELLANE -1 100 0
        CFGEDITVIEW 0 0.045808 45 12 0 -1 0 0 0 0.5
        KEYSNAP 0
        TRACKSEL 0
        EVTFILTER 0 -1 -1 -1 -1 0 0 0 0 -1 -1 -1 -1 0 -1 0 -1 -1
        CFGEDIT 1 1 0 1 0 0 1 1 1 1 1 1 58 171 1253 866 0 0 0 0 0.25 0 0 0 0 0.5 0 0 1 64
      >
    >
    <ITEM
      POSITION 64
      SNAPOFFS 0
      LENGTH 8
      LOOP 1
      ALLTAKES 0
      FADEIN 1 0 0 1 0 0
      FADEOUT 1 0 0 1 0 0
      MUTE 0
      SEL 1
      IGUID {F2646D70-9B9F-0671-9F66-D9FDCDCC1B9F}
      IID 18
      NAME "01-Recorded MIDI"
      VOLPAN 1 0 1 -1
      SOFFS 0 0
      PLAYRATE 1 1 0 -1 0 0.0021
      CHANMODE 0
      GUID {078C377F-F31D-69C0-EDBC-9AC322BD8189}
      RECPASS 1
      <SOURCE MIDI
        HASDATA 1 960 QN
        CCINTERP 32
        POOLEDEVTS {A6D53E24-E82D-D283-4BBB-720D315B9F16}
        E 0 90 3c 48
        E 0 90 40 48
        E 0 90 43 48
        E 1920 80 3c 00
        E 0 80 40 00
        E 0 80 43 00
        E 0 90 3c 48
        E 0 90 40 48
        E 0 90 43 48
        E 260 80 3c 00
        E 0 80 40 00
        E 0 80 43 00
        E 440 90 3c 48
        E 0 90 40 48
        E 0 90 43 48
        E 260 80 3c 00
        E 0 80 40 00
        E 0 80 43 00
        e 514 90 3c 48
        e 0 90 40 48
        e 0 90 43 48
        e 260 80 3c 00
        e 0 80 40 00
        e 0 80 43 00
        E 186 90 43 48
        E 0 90 47 48
        E 20 90 40 48
        E 1900 80 43 00
        E 0 80 47 00
        E 0 80 40 00
        E 0 90 43 48
        E 0 90 47 48
        E 20 90 40 48
        E 240 80 43 00
        E 0 80 47 00
        E 0 80 40 00
        E 440 90 43 48
        E 0 90 47 48
        E 20 90 40 48
        E 240 80 43 00
        E 0 80 47 00
        E 0 80 40 00
        e 514 90 43 48
        e 0 90 47 48
        e 20 90 40 48
        e 240 80 43 00
        e 0 80 47 00
        e 0 80 40 00
        E 186 90 41 48
        E 0 90 45 48
        E 0 90 48 48
        E 1920 80 41 00
        E 0 80 45 00
        E 0 80 48 00
        E 0 90 41 48
        E 0 90 45 48
        E 0 90 48 48
        E 260 80 41 00
        E 0 80 45 00
        E 0 80 48 00
        E 440 90 41 48
        E 0 90 45 48
        E 0 90 48 48
        E 260 80 41 00
        E 0 80 45 00
        E 0 80 48 00
        e 514 90 41 48
        e 0 90 45 48
        e 0 90 48 48
        e 260 80 41 00
        e 0 80 45 00
        e 0 80 48 00
        E 162 90 3e 48
        E 24 90 41 48
        E 0 90 45 48
        E 1896 90 3e 48
        E 24 80 3e 00
        E 0 80 41 00
        E 0 80 45 00
        E 0 90 41 48
        E 0 90 45 48
        E 260 80 3e 00
        E 0 80 41 00
        E 0 80 45 00
        E 416 90 3e 48
        E 24 90 41 48
        E 0 90 45 48
        E 260 80 3e 00
        E 0 80 41 00
        E 0 80 45 00
        e 490 90 3e 48
        e 24 90 41 48
        e 0 90 45 48
        e 260 80 3e 00
        e 0 80 41 00
        e 0 80 45 00
        E 186 b0 7b 00
        CHASE_CC_TAKEOFFS 1
        GUID {19362806-85F2-5D9E-E1F9-07BE0CF3D16E}
        IGNTEMPO 0 120 4 4
        SRCCOLOR 25
        VELLANE -1 100 0
        CFGEDITVIEW 0 0.045808 45 12 0 -1 0 0 0 0.5
        KEYSNAP 0
        TRACKSEL 0
        EVTFILTER 0 -1 -1 -1 -1 0 0 0 0 -1 -1 -1 -1 0 -1 0 -1 -1
        CFGEDIT 1 1 0 1 0 0 1 1 1 1 1 1 58 171 1253 866 0 0 0 0 0.25 0 0 0 0 0.5 0 0 1 64
      >
    >
    <ITEM
      POSITION 72
      SNAPOFFS 0
      LENGTH 8
      LOOP 1
      ALLTAKES 0
      FADEIN 1 0 0 1 0 0
      FADEOUT 1 0 0 1 0 0
      MUTE 0
      SEL 1
      IGUID {0FBF90FE-302A-E6A9-78E4-55385549A4C1}
      IID 19
      NAME "01-Recorded MIDI"
      VOLPAN 1 0 1 -1
      SOFFS 0 0
      PLAYRATE 1 1 0 -1 0 0.0021
      CHANMODE 0
      GUID {959BE939-BE07-A590-F04A-F66AEB10D75D}
      RECPASS 1
      <SOURCE MIDI
        HASDATA 1 960 QN
        CCINTERP 32
        POOLEDEVTS {832DB550-4C6C-E83E-5AD4-E531F90CD8C4}
        E 0 90 3c 48
        E 0 90 40 48
        E 0 90 43 48
        E 1920 80 3c 00
        E 0 80 40 00
        E 0 80 43 00
        E 0 90 3c 48
        E 0 90 40 48
        E 0 90 43 48
        E 260 80 3c 00
        E 0 80 40 00
        E 0 80 43 00
        E 440 90 3c 48
        E 0 90 40 48
        E 0 90 43 48
        E 260 80 3c 00
        E 0 80 40 00
        E 0 80 43 00
        e 514 90 3c 48
        e 0 90 40 48
        e 0 90 43 48
        e 260 80 3c 00
        e 0 80 40 00
        e 0 80 43 00
        E 186 90 43 48
        E 0 90 47 48
        E 20 90 40 48
        E 1900 80 43 00
        E 0 80 47 00
        E 0 80 40 00
        E 0 90 43 48
        E 0 90 47 48
        E 20 90 40 48
        E 240 80 43 00
        E 0 80 47 00
        E 0 80 40 00
        E 440 90 43 48
        E 0 90 47 48
        E 20 90 40 48
        E 240 80 43 00
        E 0 80 47 00
        E 0 80 40 00
        e 514 90 43 48
        e 0 90 47 48
        e 20 90 40 48
        e 240 80 43 00
        e 0 80 47 00
        e 0 80 40 00
        E 186 90 41 48
        E 0 90 45 48
        E 0 90 48 48
        E 1920 80 41 00
        E 0 80 45 00
        E 0 80 48 00
        E 0 90 41 48
        E 0 90 45 48
        E 0 90 48 48
        E 260 80 41 00
        E 0 80 45 00
        E 0 80 48 00
        E 440 90 41 48
        E 0 90 45 48
        E 0 90 48 48
        E 260 80 41 00
        E 0 80 45 00
        E 0 80 48 00
        e 514 90 41 48
        e 0 90 45 48
        e 0 90 48 48
        e 260 80 41 00
        e 0 80 45 00
        e 0 80 48 00
        E 162 90 3e 48
        E 24 90 41 48
        E 0 90 45 48
        E 1896 90 3e 48
        E 24 80 3e 00
        E 0 80 41 00
        E 0 80 45 00
        E 0 90 41 48
        E 0 90 45 48
        E 260 80 3e 00
        E 0 80 41 00
        E 0 80 45 00
        E 416 90 3e 48
        E 24 90 41 48
        E 0 90 45 48
        E 260 80 3e 00
        E 0 80 41 00
        E 0 80 45 00
        e 490 90 3e 48
        e 24 90 41 48
        e 0 90 45 48
        e 260 80 3e 00
        e 0 80 41 00
        e 0 80 45 00
        E 186 b0 7b 00
        CHASE_CC_TAKEOFFS 1
        GUID {6844F8A9-6BE9-023C-4A46-0A676470C99B}
        IGNTEMPO 0 120 4 4
        SRCCOLOR 26
        VELLANE -1 100 0
        CFGEDITVIEW 0 0.045808 45 12 0 -1 0 0 0 0.5
        KEYSNAP 0
        TRACKSEL 0
        EVTFILTER 0 -1 -1 -1 -1 0 0 0 0 -1 -1 -1 -1 0 -1 0 -1 -1
        CFGEDIT 1 1 0 1 0 0 1 1 1 1 1 1 58 171 1253 866 0 0 0 0 0.25 0 0 0 0 0.5 0 0 1 64
      >
    >
    <ITEM
      POSITION 80
      SNAPOFFS 0
      LENGTH 8
      LOOP 1
      ALLTAKES 0
      FADEIN 1 0 0 1 0 0
      FADEOUT 1 0 0 1 0 0
      MUTE 0
      SEL 1
      IGUID {9DEB9CCD-51BF-7F15-E77B-E493E2079BB1}
      IID 20
      NAME "01-Recorded MIDI"
      VOLPAN 1 0 1 -1
      SOFFS 0 0
      PLAYRATE 1 1 0 -1 0 0.0021
      CHANMODE 0
      GUID {0418F17C-1F20-43B2-EF62-AB121633805B}
      RECPASS 1
      <SOURCE MIDI
        HASDATA 1 960 QN
        CCINTERP 32
        POOLEDEVTS {8A08A5DC-452C-C721-481E-B847E6B608A2}
        E 0 90 3c 48
        E 0 90 40 48
        E 0 90 43 48
        E 1920 80 3c 00
        E 0 80 40 00
        E 0 80 43 00
        E 0 90 3c 48
        E 0 90 40 48
        E 0 90 43 48
        E 260 80 3c 00
        E 0 80 40 00
        E 0 80 43 00
        E 440 90 3c 48
        E 0 90 40 48
        E 0 90 43 48
        E 260 80 3c 00
        E 0 80 40 00
        E 0 80 43 00
        e 514 90 3c 48
        e 0 90 40 48
        e 0 90 43 48
        e 260 80 3c 00
        e 0 80 40 00
        e 0 80 43 00
        E 186 90 43 48
        E 0 90 47 48
        E 20 90 40 48
        E 1900 80 43 00
        E 0 80 47 00
        E 0 80 40 00
        E 0 90 43 48
        E 0 90 47 48
        E 20 90 40 48
        E 240 80 43 00
        E 0 80 47 00
        E 0 80 40 00
        E 440 90 43 48
        E 0 90 47 48
        E 20 90 40 48
        E 240 80 43 00
        E 0 80 47 00
        E 0 80 40 00
        e 514 90 43 48
        e 0 90 47 48
        e 20 90 40 48
        e 240 80 43 00
        e 0 80 47 00
        e 0 80 40 00
        E 186 90 41 48
        E 0 90 45 48
        E 0 90 48 48
        E 1920 80 41 00
        E 0 80 45 00
        E 0 80 48 00
        E 0 90 41 48
        E 0 90 45 48
        E 0 90 48 48
        E 260 80 41 00
        E 0 80 45 00
        E 0 80 48 00
        E 440 90 41 48
        E 0 90 45 48
        E 0 90 48 48
        E 260 80 41 00
        E 0 80 45 00
        E 0 80 48 00
        e 514 90 41 48
        e 0 90 45 48
        e 0 90 48 48
        e 260 80 41 00
        e 0 80 45 00
        e 0 80 48 00
        E 162 90 3e 48
        E 24 90 41 48
        E 0 90 45 48
        E 1896 90 3e 48
        E 24 80 3e 00
        E 0 80 41 00
        E 0 80 45 00
        E 0 90 41 48
        E 0 90 45 48
        E 260 80 3e 00
        E 0 80 41 00
        E 0 80 45 00
        E 416 90 3e 48
        E 24 90 41 48
        E 0 90 45 48
        E 260 80 3e 00
        E 0 80 41 00
        E 0 80 45 00
        e 490 90 3e 48
        e 24 90 41 48
        e 0 90 45 48
        e 260 80 3e 00
        e 0 80 41 00
        e 0 80 45 00
        E 186 b0 7b 00
        CHASE_CC_TAKEOFFS 1
        GUID {E611ADB6-4869-6CCA-8E83-3954D5E743B1}
        IGNTEMPO 0 120 4 4
        SRCCOLOR 27
        VELLANE -1 100 0
        CFGEDITVIEW 0 0.045808 45 12 0 -1 0 0 0 0.5
        KEYSNAP 0
        TRACKSEL 0
        EVTFILTER 0 -1 -1 -1 -1 0 0 0 0 -1 -1 -1 -1 0 -1 0 -1 -1
        CFGEDIT 1 1 0 1 0 0 1 1 1 1 1 1 58 171 1253 866 0 0 0 0 0.25 0 0 0 0 0.5 0 0 1 64
      >
    >
    <ITEM
      POSITION 88
      SNAPOFFS 0
      LENGTH 8
      LOOP 1
      ALLTAKES 0
      FADEIN 1 0 0 1 0 0
      FADEOUT 1 0 0 1 0 0
      MUTE 0
      SEL 1
      IGUID {493A3B23-0BF2-91DD-1727-10A3B7D12F56}
      IID 21
      NAME "01-Recorded MIDI"
      VOLPAN 1 0 1 -1
      SOFFS 0 0
      PLAYRATE 1 1 0 -1 0 0.0021
      CHANMODE 0
      GUID {CA221820-FEBC-4BF1-F646-3C38F630F095}
      RECPASS 1
      <SOURCE MIDI
        HASDATA 1 960 QN
        CCINTERP 32
        POOLEDEVTS {3DA51037-61AC-7C8C-BB4B-78D916658A7E}
        E 0 90 3c 48
        E 0 90 40 48
        E 0 90 43 48
        E 1920 80 3c 00
        E 0 80 40 00
        E 0 80 43 00
        E 0 90 3c 48
        E 0 90 40 48
        E 0 90 43 48
        E 260 80 3c 00
        E 0 80 40 00
        E 0 80 43 00
        E 440 90 3c 48
        E 0 90 40 48
        E 0 90 43 48
        E 260 80 3c 00
        E 0 80 40 00
        E 0 80 43 00
        e 514 90 3c 48
        e 0 90 40 48
        e 0 90 43 48
        e 260 80 3c 00
        e 0 80 40 00
        e 0 80 43 00
        E 186 90 43 48
        E 0 90 47 48
        E 20 90 40 48
        E 1900 80 43 00
        E 0 80 47 00
        E 0 80 40 00
        E 0 90 43 48
        E 0 90 47 48
        E 20 90 40 48
        E 240 80 43 00
        E 0 80 47 00
        E 0 80 40 00
        E 440 90 43 48
        E 0 90 47 48
        E 20 90 40 48
        E 240 80 43 00
        E 0 80 47 00
        E 0 80 40 00
        e 514 90 43 48
        e 0 90 47 48
        e 20 90 40 48
        e 240 80 43 00
        e 0 80 47 00
        e 0 80 40 00
        E 186 90 41 48
        E 0 90 45 48
        E 0 90 48 48
        E 1920 80 41 00
        E 0 80 45 00
        E 0 80 48 00
        E 0 90 41 48
        E 0 90 45 48
        E 0 90 48 48
        E 260 80 41 00
        E 0 80 45 00
        E 0 80 48 00
        E 440 90 41 48
        E 0 90 45 48
        E 0 90 48 48
        E 260 80 41 00
        E 0 80 45 00
        E 0 80 48 00
        e 514 90 41 48
        e 0 90 45 48
        e 0 90 48 48
        e 260 80 41 00
        e 0 80 45 00
        e 0 80 48 00
        E 162 90 3e 48
        E 24 90 41 48
        E 0 90 45 48
        E 1896 90 3e 48
        E 24 80 3e 00
        E 0 80 41 00
        E 0 80 45 00
        E 0 90 41 48
        E 0 90 45 48
        E 260 80 3e 00
        E 0 80 41 00
        E 0 80 45 00
        E 416 90 3e 48
        E 24 90 41 48
        E 0 90 45 48
        E 260 80 3e 00
        E 0 80 41 00
        E 0 80 45 00
        e 490 90 3e 48
        e 24 90 41 48
        e 0 90 45 48
        e 260 80 3e 00
        e 0 80 41 00
        e 0 80 45 00
        E 186 b0 7b 00
        CHASE_CC_TAKEOFFS 1
        GUID {C762B555-17FC-D765-5340-11D3487D2955}
        IGNTEMPO 0 120 4 4
        SRCCOLOR 28
        VELLANE -1 100 0
        CFGEDITVIEW 0 0.045808 45 12 0 -1 0 0 0 0.5
        KEYSNAP 0
        TRACKSEL 0
        EVTFILTER 0 -1 -1 -1 -1 0 0 0 0 -1 -1 -1 -1 0 -1 0 -1 -1
        CFGEDIT 1 1 0 1 0 0 1 1 1 1 1 1 58 171 1253 866 0 0 0 0 0.25 0 0 0 0 0.5 0 0 1 64
      >
    >
  >
  <TRACK {D16CE309-54B2-6AC7-18E0-27568B9B52CF}
    NAME ""
    PEAKCOL 16576
    BEAT -1
    AUTOMODE 0
    VOLPAN 0.00052194381917 0 -1 -1 1
    MUTESOLO 0 0 0
    IPHASE 0
    PLAYOFFS 0 1
    ISBUS 0 0
    BUSCOMP 0 0 0 0 0
    SHOWINMIX 1 0.6667 0.5 1 0.5 0 0 0
    FREEMODE 0
    SEL 0
    REC 0 5056 1 0 0 0 0
    VU 2
    TRACKHEIGHT 21 0 0
    INQ 0 0 0 0.5 100 0 0 100
    NCHAN 2
    FX 0
    TRACKID {D16CE309-54B2-6AC7-18E0-27568B9B52CF}
    PERF 0
    MIDIOUT -1
    MAINSEND 1 0
    <FXCHAIN
      WNDRECT 346 266 902 608
      SHOW 0
      LASTSEL 5
      DOCKED 0
      BYPASS 0 0 0
      <VST "VST: ReaEQ (Cockos)" reaeq.vst.so 0 "" 1919247729<56535472656571726561657100000000> ""
        cWVlcu5e7f4CAAAAAQAAAAAAAAACAAAAAAAAAAIAAAABAAAAAAAAAAIAAAAAAAAAqAAAAAEAAAAAABAA
        IQAAAAQAAAAEAAAAAQAAAEC4Xhmm+DRAAAAAAAAA8D8AAAAAAAAAQAEIAAAAAQAAAAAAAAAAwHJAAAAAAAAA8D8AAAAAAAAAQAEIAAAAAQAAAAAAAAAAQI9AAAAAAAAA
        8D8AAAAAAAAAQAEDAAAAAQAAAAABaCorbdRAAAAAAAAA8D8AAAAAAAAAQAEBAAAAAQAAAAAAAAAAAPA/AAAAAJoCAACcAQAA
        AEhpZ2ggbG93IHBhc3MAEAAAAA==
      >
      PRESETNAME "High low pass"
      FLOATPOS 0 0 0 0
      FXID {E074EEC3-31B5-6F65-B115-A9150009A8AF}
      WAK 0 0
      BYPASS 0 0 0
      <VST "VSTi: ReaSynth (Cockos)" reasynth.vst.so 0 "" 1919251321<5653547265737972656173796E746800> ""
        eXNlcu9e7f4AAAAAAgAAAAEAAAAAAAAAAgAAAAAAAAA8AAAAAAAAAAAAEAA=
        776t3g3wrd6lm8Q7F7fROgAAAAAAAAAAAAAAAJCNuT3oZ4g9AACAPwAAAD8AAIA/AAAAAAAAAD8AAAAA
        AAAQAAAA
      >
      FLOATPOS 0 0 0 0
      FXID {59398012-7552-93BB-A439-6E52697A9F39}
      WAK 0 0
      BYPASS 0 0 0
      <JS guitar/amp-model ""
        "Dumble Overdrive Special - Tweed Deluxe.wav" -21.000000 1.000000 0.000000 0.000000 -1.000000 - - - - - - - - - - - - - - - - - - - - - - - - - - - - - - - - - - - - - - - - - - - - - - - - - - - - - - - - - - 
      >
      FLOATPOS 0 0 0 0
      FXID {A9753763-A4C5-048F-6F14-B43A9C5B70A9}
      WAK 0 0
      BYPASS 0 0 0
      <VST "VST: ReaComp (Cockos)" reacomp.vst.so 0 "" 1919247213<5653547265636D726561636F6D700000> ""
        bWNlcu9e7f4EAAAAAQAAAAAAAAACAAAAAAAAAAQAAAAAAAAACAAAAAAAAAACAAAAAQAAAAAAAAACAAAAAAAAAFQAAAAAAAAAAAAQAA==
        776t3g3wrd5FoYg9/AWpPKWbxDsK16M8AAAAAAAAAAAAAIA/AAAAAAAAAAAAAAAAnNEHMwAAgD8AAAAAzMxMPQAAAAAAAAAAAAAAAAAAgD7YiZ09
        AAAQAAAA
      >
      FLOATPOS 0 0 0 0
      FXID {0EE18E1D-2BB9-A777-1603-F42058146CBB}
      WAK 0 0
      BYPASS 0 0 0
      <VST "VST: ReaDelay (Cockos)" readelay.vst.so 0 "" 1919247468<5653547265646C72656164656C617900> ""
        bGRlcu5e7f4CAAAAAQAAAAAAAAACAAAAAAAAAAIAAAABAAAAAAAAAAIAAAAAAAAA/AAAAAEAAAAAAAAA
        AAAAAAAAAAAFAAAALAAAAAIAAAAEAAAAAACAPwAAgD8AAAAAAACAPwAAAAAAAIA7vTeGNQAAgD8AAAAAAACAPwAAgD8AAIA/AAAAAAAAAAAAAIA/AAAAAAAAADwAAAAA
        AACAPwAAAAAAAIA/AACAP+87NT8AAIA/AAAAAAAAgD8AAAAAAABAPL03hjUAAIA/AAAAAAAAgD8AAIA/zk0AP6abhD4AAAAAAACAPwAAAAAAAIA8vTeGNQAAgD8AAAAA
        AACAPwAAgD8aqrU+pHA9PwAAAAAAAIA/AAAAAAAAoDy9N4Y1AACAPwAAAAAAAIA/AACAP/npAD4AAAA/
        AHN0b2NrIC0gYmFzaWMgNSB0YXAgcGluZyBwb25nAAAAAAA=
      >
      PRESETNAME "stock - basic 5 tap ping pong"
      FLOATPOS 0 0 0 0
      FXID {DA166F6C-1EF5-275A-45EB-711A9717F39A}
      WAK 0 0
      BYPASS 0 0 0
      <VST "VST: ReaVerb (Cockos)" reaverb.vst.so 0 "" 1919252066<56535472657662726561766572620000> ""
        YnZlcu5e7f4CAAAAAQAAAAAAAAACAAAAAAAAAAIAAAABAAAAAAAAAAIAAAAAAAAAcAAAAAEAAAAAAAAA
        AAAAwcybgD4AAIA/AAAAAAAAgD8AAIA/AAAAPwAAgD8AAAAAVkVSQkdFTgAYAAAAAAAAAJHgV0QdrLRA3rK7QsHIjEIAAIC/RUNIT0dFTgAcAAAAy/i2QLUjdUJdzdM/
        osdfP5lRrzyRzYxAnMQAPw==
        AHN3ZWV0dmVyYm8AAAAAAA==
      >
      PRESETNAME sweetverbo
      FLOATPOS 0 0 0 0
      FXID {019B4552-A79B-06E5-4314-7D2FF8ED0941}
      WAK 0 0
    >
    <ITEM
      POSITION 0
      SNAPOFFS 0
      LENGTH 8
      LOOP 1
      ALLTAKES 0
      FADEIN 1 0 0 1 0 0
      FADEOUT 1 0 0 1 0 0
      MUTE 0
      SEL 1
      IGUID {128235EC-CAD1-F53D-4E28-5B06B597ED16}
      IID 10
      NAME "01-Recorded MIDI"
      VOLPAN 1 0 1 -1
      SOFFS 0 0
      PLAYRATE 1 1 0 -1 0 0.0021
      CHANMODE 0
      GUID {2195772C-CBEE-95A4-ED3C-E1D8585F9F8A}
      RECPASS 1
      <SOURCE MIDI
        HASDATA 1 960 QN
        CCINTERP 32
        POOLEDEVTS {8AA9C8AA-A190-C594-4ED1-96D09427BF6E}
        E 0 90 3c 48
        E 0 90 40 48
        E 0 90 43 48
        E 1920 80 3c 00
        E 0 80 40 00
        E 0 80 43 00
        E 0 90 3c 48
        E 0 90 40 48
        E 0 90 43 48
        E 260 80 3c 00
        E 0 80 40 00
        E 0 80 43 00
        E 440 90 3c 48
        E 0 90 40 48
        E 0 90 43 48
        E 260 80 3c 00
        E 0 80 40 00
        E 0 80 43 00
        e 514 90 3c 48
        e 0 90 40 48
        e 0 90 43 48
        e 260 80 3c 00
        e 0 80 40 00
        e 0 80 43 00
        E 186 90 43 48
        E 0 90 47 48
        E 20 90 40 48
        E 1900 80 43 00
        E 0 80 47 00
        E 0 80 40 00
        E 0 90 43 48
        E 0 90 47 48
        E 20 90 40 48
        E 240 80 43 00
        E 0 80 47 00
        E 0 80 40 00
        E 440 90 43 48
        E 0 90 47 48
        E 20 90 40 48
        E 240 80 43 00
        E 0 80 47 00
        E 0 80 40 00
        e 514 90 43 48
        e 0 90 47 48
        e 20 90 40 48
        e 240 80 43 00
        e 0 80 47 00
        e 0 80 40 00
        E 186 90 41 48
        E 0 90 45 48
        E 0 90 48 48
        E 1920 80 41 00
        E 0 80 45 00
        E 0 80 48 00
        E 0 90 41 48
        E 0 90 45 48
        E 0 90 48 48
        E 260 80 41 00
        E 0 80 45 00
        E 0 80 48 00
        E 440 90 41 48
        E 0 90 45 48
        E 0 90 48 48
        E 260 80 41 00
        E 0 80 45 00
        E 0 80 48 00
        e 514 90 41 48
        e 0 90 45 48
        e 0 90 48 48
        e 260 80 41 00
        e 0 80 45 00
        e 0 80 48 00
        E 162 90 3e 48
        E 24 90 41 48
        E 0 90 45 48
        E 1896 90 3e 48
        E 24 80 3e 00
        E 0 80 41 00
        E 0 80 45 00
        E 0 90 41 48
        E 0 90 45 48
        E 260 80 3e 00
        E 0 80 41 00
        E 0 80 45 00
        E 416 90 3e 48
        E 24 90 41 48
        E 0 90 45 48
        E 260 80 3e 00
        E 0 80 41 00
        E 0 80 45 00
        e 490 90 3e 48
        e 24 90 41 48
        e 0 90 45 48
        e 260 80 3e 00
        e 0 80 41 00
        e 0 80 45 00
        E 186 b0 7b 00
        CHASE_CC_TAKEOFFS 1
        GUID {7B9D708B-43E1-C8D4-C4B3-87E2A6C27801}
        IGNTEMPO 0 120 4 4
        SRCCOLOR 17
        VELLANE -1 100 0
        CFGEDITVIEW 0 0.045808 45 12 0 -1 0 0 0 0.5
        KEYSNAP 0
        TRACKSEL 0
        EVTFILTER 0 -1 -1 -1 -1 0 0 0 0 -1 -1 -1 -1 0 -1 0 -1 -1
        CFGEDIT 1 1 0 1 0 0 1 1 1 1 1 1 58 171 1253 866 0 0 0 0 0.25 0 0 0 0 0.5 0 0 1 64
      >
    >
    <ITEM
      POSITION 8
      SNAPOFFS 0
      LENGTH 8
      LOOP 1
      ALLTAKES 0
      FADEIN 1 0 0 1 0 0
      FADEOUT 1 0 0 1 0 0
      MUTE 0
      SEL 1
      IGUID {59DAFDFC-4902-0010-3EF9-47342C4C62ED}
      IID 11
      NAME "01-Recorded MIDI"
      VOLPAN 1 0 1 -1
      SOFFS 0 0
      PLAYRATE 1 1 0 -1 0 0.0021
      CHANMODE 0
      GUID {5F48127D-51D7-F85E-484B-50CB69CDFD49}
      RECPASS 1
      <SOURCE MIDI
        HASDATA 1 960 QN
        CCINTERP 32
        POOLEDEVTS {DCF38812-16AD-9585-327C-8F5E88476C60}
        E 0 90 3c 48
        E 0 90 40 48
        E 0 90 43 48
        E 1920 80 3c 00
        E 0 80 40 00
        E 0 80 43 00
        E 0 90 3c 48
        E 0 90 40 48
        E 0 90 43 48
        E 260 80 3c 00
        E 0 80 40 00
        E 0 80 43 00
        E 440 90 3c 48
        E 0 90 40 48
        E 0 90 43 48
        E 260 80 3c 00
        E 0 80 40 00
        E 0 80 43 00
        e 514 90 3c 48
        e 0 90 40 48
        e 0 90 43 48
        e 260 80 3c 00
        e 0 80 40 00
        e 0 80 43 00
        E 186 90 43 48
        E 0 90 47 48
        E 20 90 40 48
        E 1900 80 43 00
        E 0 80 47 00
        E 0 80 40 00
        E 0 90 43 48
        E 0 90 47 48
        E 20 90 40 48
        E 240 80 43 00
        E 0 80 47 00
        E 0 80 40 00
        E 440 90 43 48
        E 0 90 47 48
        E 20 90 40 48
        E 240 80 43 00
        E 0 80 47 00
        E 0 80 40 00
        e 514 90 43 48
        e 0 90 47 48
        e 20 90 40 48
        e 240 80 43 00
        e 0 80 47 00
        e 0 80 40 00
        E 186 90 41 48
        E 0 90 45 48
        E 0 90 48 48
        E 1920 80 41 00
        E 0 80 45 00
        E 0 80 48 00
        E 0 90 41 48
        E 0 90 45 48
        E 0 90 48 48
        E 260 80 41 00
        E 0 80 45 00
        E 0 80 48 00
        E 440 90 41 48
        E 0 90 45 48
        E 0 90 48 48
        E 260 80 41 00
        E 0 80 45 00
        E 0 80 48 00
        e 514 90 41 48
        e 0 90 45 48
        e 0 90 48 48
        e 260 80 41 00
        e 0 80 45 00
        e 0 80 48 00
        E 162 90 3e 48
        E 24 90 41 48
        E 0 90 45 48
        E 1896 90 3e 48
        E 24 80 3e 00
        E 0 80 41 00
        E 0 80 45 00
        E 0 90 41 48
        E 0 90 45 48
        E 260 80 3e 00
        E 0 80 41 00
        E 0 80 45 00
        E 416 90 3e 48
        E 24 90 41 48
        E 0 90 45 48
        E 260 80 3e 00
        E 0 80 41 00
        E 0 80 45 00
        e 490 90 3e 48
        e 24 90 41 48
        e 0 90 45 48
        e 260 80 3e 00
        e 0 80 41 00
        e 0 80 45 00
        E 186 b0 7b 00
        CHASE_CC_TAKEOFFS 1
        GUID {3131B4E2-B370-E352-A9C5-C8CA31551A86}
        IGNTEMPO 0 120 4 4
        SRCCOLOR 18
        VELLANE -1 100 0
        CFGEDITVIEW 0 0.045808 45 12 0 -1 0 0 0 0.5
        KEYSNAP 0
        TRACKSEL 0
        EVTFILTER 0 -1 -1 -1 -1 0 0 0 0 -1 -1 -1 -1 0 -1 0 -1 -1
        CFGEDIT 1 1 0 1 0 0 1 1 1 1 1 1 58 171 1253 866 0 0 0 0 0.25 0 0 0 0 0.5 0 0 1 64
      >
    >
    <ITEM
      POSITION 16
      SNAPOFFS 0
      LENGTH 8
      LOOP 1
      ALLTAKES 0
      FADEIN 1 0 0 1 0 0
      FADEOUT 1 0 0 1 0 0
      MUTE 0
      SEL 1
      IGUID {4A96E091-0C9F-3DF5-AD08-A4E4B7EBF771}
      IID 12
      NAME "01-Recorded MIDI"
      VOLPAN 1 0 1 -1
      SOFFS 0 0
      PLAYRATE 1 1 0 -1 0 0.0021
      CHANMODE 0
      GUID {D891C661-AED0-4C89-5209-B1590B1B4D10}
      RECPASS 1
      <SOURCE MIDI
        HASDATA 1 960 QN
        CCINTERP 32
        POOLEDEVTS {968D8CFF-F921-9D84-D3E2-AF48E0506DB9}
        E 0 90 3c 48
        E 0 90 40 48
        E 0 90 43 48
        E 1920 80 3c 00
        E 0 80 40 00
        E 0 80 43 00
        E 0 90 3c 48
        E 0 90 40 48
        E 0 90 43 48
        E 260 80 3c 00
        E 0 80 40 00
        E 0 80 43 00
        E 440 90 3c 48
        E 0 90 40 48
        E 0 90 43 48
        E 260 80 3c 00
        E 0 80 40 00
        E 0 80 43 00
        e 514 90 3c 48
        e 0 90 40 48
        e 0 90 43 48
        e 260 80 3c 00
        e 0 80 40 00
        e 0 80 43 00
        E 186 90 43 48
        E 0 90 47 48
        E 20 90 40 48
        E 1900 80 43 00
        E 0 80 47 00
        E 0 80 40 00
        E 0 90 43 48
        E 0 90 47 48
        E 20 90 40 48
        E 240 80 43 00
        E 0 80 47 00
        E 0 80 40 00
        E 440 90 43 48
        E 0 90 47 48
        E 20 90 40 48
        E 240 80 43 00
        E 0 80 47 00
        E 0 80 40 00
        e 514 90 43 48
        e 0 90 47 48
        e 20 90 40 48
        e 240 80 43 00
        e 0 80 47 00
        e 0 80 40 00
        E 186 90 41 48
        E 0 90 45 48
        E 0 90 48 48
        E 1920 80 41 00
        E 0 80 45 00
        E 0 80 48 00
        E 0 90 41 48
        E 0 90 45 48
        E 0 90 48 48
        E 260 80 41 00
        E 0 80 45 00
        E 0 80 48 00
        E 440 90 41 48
        E 0 90 45 48
        E 0 90 48 48
        E 260 80 41 00
        E 0 80 45 00
        E 0 80 48 00
        e 514 90 41 48
        e 0 90 45 48
        e 0 90 48 48
        e 260 80 41 00
        e 0 80 45 00
        e 0 80 48 00
        E 162 90 3e 48
        E 24 90 41 48
        E 0 90 45 48
        E 1896 90 3e 48
        E 24 80 3e 00
        E 0 80 41 00
        E 0 80 45 00
        E 0 90 41 48
        E 0 90 45 48
        E 260 80 3e 00
        E 0 80 41 00
        E 0 80 45 00
        E 416 90 3e 48
        E 24 90 41 48
        E 0 90 45 48
        E 260 80 3e 00
        E 0 80 41 00
        E 0 80 45 00
        e 490 90 3e 48
        e 24 90 41 48
        e 0 90 45 48
        e 260 80 3e 00
        e 0 80 41 00
        e 0 80 45 00
        E 186 b0 7b 00
        CHASE_CC_TAKEOFFS 1
        GUID {48C567A2-895C-FB9B-FDBA-0ADB7004ABF3}
        IGNTEMPO 0 120 4 4
        SRCCOLOR 19
        VELLANE -1 100 0
        CFGEDITVIEW 0 0.045808 45 12 0 -1 0 0 0 0.5
        KEYSNAP 0
        TRACKSEL 0
        EVTFILTER 0 -1 -1 -1 -1 0 0 0 0 -1 -1 -1 -1 0 -1 0 -1 -1
        CFGEDIT 1 1 0 1 0 0 1 1 1 1 1 1 58 171 1253 866 0 0 0 0 0.25 0 0 0 0 0.5 0 0 1 64
      >
    >
    <ITEM
      POSITION 24
      SNAPOFFS 0
      LENGTH 8
      LOOP 1
      ALLTAKES 0
      FADEIN 1 0 0 1 0 0
      FADEOUT 1 0 0 1 0 0
      MUTE 0
      SEL 1
      IGUID {E19AB1D7-6784-24D6-0129-C2C84E6B5F18}
      IID 13
      NAME "01-Recorded MIDI"
      VOLPAN 1 0 1 -1
      SOFFS 0 0
      PLAYRATE 1 1 0 -1 0 0.0021
      CHANMODE 0
      GUID {73DA310F-E893-D7E3-370A-E37DD97CB055}
      RECPASS 1
      <SOURCE MIDI
        HASDATA 1 960 QN
        CCINTERP 32
        POOLEDEVTS {BF127A57-1A31-F9CA-5DAE-1F0E5CFBDE7F}
        E 0 90 3c 48
        E 0 90 40 48
        E 0 90 43 48
        E 1920 80 3c 00
        E 0 80 40 00
        E 0 80 43 00
        E 0 90 3c 48
        E 0 90 40 48
        E 0 90 43 48
        E 260 80 3c 00
        E 0 80 40 00
        E 0 80 43 00
        E 440 90 3c 48
        E 0 90 40 48
        E 0 90 43 48
        E 260 80 3c 00
        E 0 80 40 00
        E 0 80 43 00
        e 514 90 3c 48
        e 0 90 40 48
        e 0 90 43 48
        e 260 80 3c 00
        e 0 80 40 00
        e 0 80 43 00
        E 186 90 43 48
        E 0 90 47 48
        E 20 90 40 48
        E 1900 80 43 00
        E 0 80 47 00
        E 0 80 40 00
        E 0 90 43 48
        E 0 90 47 48
        E 20 90 40 48
        E 240 80 43 00
        E 0 80 47 00
        E 0 80 40 00
        E 440 90 43 48
        E 0 90 47 48
        E 20 90 40 48
        E 240 80 43 00
        E 0 80 47 00
        E 0 80 40 00
        e 514 90 43 48
        e 0 90 47 48
        e 20 90 40 48
        e 240 80 43 00
        e 0 80 47 00
        e 0 80 40 00
        E 186 90 41 48
        E 0 90 45 48
        E 0 90 48 48
        E 1920 80 41 00
        E 0 80 45 00
        E 0 80 48 00
        E 0 90 41 48
        E 0 90 45 48
        E 0 90 48 48
        E 260 80 41 00
        E 0 80 45 00
        E 0 80 48 00
        E 440 90 41 48
        E 0 90 45 48
        E 0 90 48 48
        E 260 80 41 00
        E 0 80 45 00
        E 0 80 48 00
        e 514 90 41 48
        e 0 90 45 48
        e 0 90 48 48
        e 260 80 41 00
        e 0 80 45 00
        e 0 80 48 00
        E 162 90 3e 48
        E 24 90 41 48
        E 0 90 45 48
        E 1896 90 3e 48
        E 24 80 3e 00
        E 0 80 41 00
        E 0 80 45 00
        E 0 90 41 48
        E 0 90 45 48
        E 260 80 3e 00
        E 0 80 41 00
        E 0 80 45 00
        E 416 90 3e 48
        E 24 90 41 48
        E 0 90 45 48
        E 260 80 3e 00
        E 0 80 41 00
        E 0 80 45 00
        e 490 90 3e 48
        e 24 90 41 48
        e 0 90 45 48
        e 260 80 3e 00
        e 0 80 41 00
        e 0 80 45 00
        E 186 b0 7b 00
        CHASE_CC_TAKEOFFS 1
        GUID {1DE38800-E2A1-41B5-9C8C-3291891093B1}
        IGNTEMPO 0 120 4 4
        SRCCOLOR 20
        VELLANE -1 100 0
        CFGEDITVIEW 0 0.045808 45 12 0 -1 0 0 0 0.5
        KEYSNAP 0
        TRACKSEL 0
        EVTFILTER 0 -1 -1 -1 -1 0 0 0 0 -1 -1 -1 -1 0 -1 0 -1 -1
        CFGEDIT 1 1 0 1 0 0 1 1 1 1 1 1 58 171 1253 866 0 0 0 0 0.25 0 0 0 0 0.5 0 0 1 64
      >
    >
    <ITEM
      POSITION 32
      SNAPOFFS 0
      LENGTH 8
      LOOP 1
      ALLTAKES 0
      FADEIN 1 0 0 1 0 0
      FADEOUT 1 0 0 1 0 0
      MUTE 0
      SEL 1
      IGUID {46BB7419-18AD-43E6-DD3E-EE5448461D86}
      IID 14
      NAME "01-Recorded MIDI"
      VOLPAN 1 0 1 -1
      SOFFS 0 0
      PLAYRATE 1 1 0 -1 0 0.0021
      CHANMODE 0
      GUID {E78E9A90-605B-0FF0-7613-8340551FE452}
      RECPASS 1
      <SOURCE MIDI
        HASDATA 1 960 QN
        CCINTERP 32
        POOLEDEVTS {9194B9AD-22C9-81AB-3FBE-93A9753337C7}
        E 0 90 3c 48
        E 0 90 40 48
        E 0 90 43 48
        E 1920 80 3c 00
        E 0 80 40 00
        E 0 80 43 00
        E 0 90 3c 48
        E 0 90 40 48
        E 0 90 43 48
        E 260 80 3c 00
        E 0 80 40 00
        E 0 80 43 00
        E 440 90 3c 48
        E 0 90 40 48
        E 0 90 43 48
        E 260 80 3c 00
        E 0 80 40 00
        E 0 80 43 00
        e 514 90 3c 48
        e 0 90 40 48
        e 0 90 43 48
        e 260 80 3c 00
        e 0 80 40 00
        e 0 80 43 00
        E 186 90 43 48
        E 0 90 47 48
        E 20 90 40 48
        E 1900 80 43 00
        E 0 80 47 00
        E 0 80 40 00
        E 0 90 43 48
        E 0 90 47 48
        E 20 90 40 48
        E 240 80 43 00
        E 0 80 47 00
        E 0 80 40 00
        E 440 90 43 48
        E 0 90 47 48
        E 20 90 40 48
        E 240 80 43 00
        E 0 80 47 00
        E 0 80 40 00
        e 514 90 43 48
        e 0 90 47 48
        e 20 90 40 48
        e 240 80 43 00
        e 0 80 47 00
        e 0 80 40 00
        E 186 90 41 48
        E 0 90 45 48
        E 0 90 48 48
        E 1920 80 41 00
        E 0 80 45 00
        E 0 80 48 00
        E 0 90 41 48
        E 0 90 45 48
        E 0 90 48 48
        E 260 80 41 00
        E 0 80 45 00
        E 0 80 48 00
        E 440 90 41 48
        E 0 90 45 48
        E 0 90 48 48
        E 260 80 41 00
        E 0 80 45 00
        E 0 80 48 00
        e 514 90 41 48
        e 0 90 45 48
        e 0 90 48 48
        e 260 80 41 00
        e 0 80 45 00
        e 0 80 48 00
        E 162 90 3e 48
        E 24 90 41 48
        E 0 90 45 48
        E 1896 90 3e 48
        E 24 80 3e 00
        E 0 80 41 00
        E 0 80 45 00
        E 0 90 41 48
        E 0 90 45 48
        E 260 80 3e 00
        E 0 80 41 00
        E 0 80 45 00
        E 416 90 3e 48
        E 24 90 41 48
        E 0 90 45 48
        E 260 80 3e 00
        E 0 80 41 00
        E 0 80 45 00
        e 490 90 3e 48
        e 24 90 41 48
        e 0 90 45 48
        e 260 80 3e 00
        e 0 80 41 00
        e 0 80 45 00
        E 186 b0 7b 00
        CHASE_CC_TAKEOFFS 1
        GUID {0C3271F4-E233-9088-9B25-A722FAE7C579}
        IGNTEMPO 0 120 4 4
        SRCCOLOR 21
        VELLANE -1 100 0
        CFGEDITVIEW 0 0.045808 45 12 0 -1 0 0 0 0.5
        KEYSNAP 0
        TRACKSEL 0
        EVTFILTER 0 -1 -1 -1 -1 0 0 0 0 -1 -1 -1 -1 0 -1 0 -1 -1
        CFGEDIT 1 1 0 1 0 0 1 1 1 1 1 1 58 171 1253 866 0 0 0 0 0.25 0 0 0 0 0.5 0 0 1 64
      >
    >
    <ITEM
      POSITION 40
      SNAPOFFS 0
      LENGTH 8
      LOOP 1
      ALLTAKES 0
      FADEIN 1 0 0 1 0 0
      FADEOUT 1 0 0 1 0 0
      MUTE 0
      SEL 1
      IGUID {78E99D94-24DA-2206-B647-C7B1E6A00FD9}
      IID 15
      NAME "01-Recorded MIDI"
      VOLPAN 1 0 1 -1
      SOFFS 0 0
      PLAYRATE 1 1 0 -1 0 0.0021
      CHANMODE 0
      GUID {392E2904-C06B-989E-9049-BE3F5EB28F17}
      RECPASS 1
      <SOURCE MIDI
        HASDATA 1 960 QN
        CCINTERP 32
        POOLEDEVTS {9EA3BE9F-CFA9-9E2F-D23B-CFCF9F50467F}
        E 0 90 3c 48
        E 0 90 40 48
        E 0 90 43 48
        E 1920 80 3c 00
        E 0 80 40 00
        E 0 80 43 00
        E 0 90 3c 48
        E 0 90 40 48
        E 0 90 43 48
        E 260 80 3c 00
        E 0 80 40 00
        E 0 80 43 00
        E 440 90 3c 48
        E 0 90 40 48
        E 0 90 43 48
        E 260 80 3c 00
        E 0 80 40 00
        E 0 80 43 00
        e 514 90 3c 48
        e 0 90 40 48
        e 0 90 43 48
        e 260 80 3c 00
        e 0 80 40 00
        e 0 80 43 00
        E 186 90 43 48
        E 0 90 47 48
        E 20 90 40 48
        E 1900 80 43 00
        E 0 80 47 00
        E 0 80 40 00
        E 0 90 43 48
        E 0 90 47 48
        E 20 90 40 48
        E 240 80 43 00
        E 0 80 47 00
        E 0 80 40 00
        E 440 90 43 48
        E 0 90 47 48
        E 20 90 40 48
        E 240 80 43 00
        E 0 80 47 00
        E 0 80 40 00
        e 514 90 43 48
        e 0 90 47 48
        e 20 90 40 48
        e 240 80 43 00
        e 0 80 47 00
        e 0 80 40 00
        E 186 90 41 48
        E 0 90 45 48
        E 0 90 48 48
        E 1920 80 41 00
        E 0 80 45 00
        E 0 80 48 00
        E 0 90 41 48
        E 0 90 45 48
        E 0 90 48 48
        E 260 80 41 00
        E 0 80 45 00
        E 0 80 48 00
        E 440 90 41 48
        E 0 90 45 48
        E 0 90 48 48
        E 260 80 41 00
        E 0 80 45 00
        E 0 80 48 00
        e 514 90 41 48
        e 0 90 45 48
        e 0 90 48 48
        e 260 80 41 00
        e 0 80 45 00
        e 0 80 48 00
        E 162 90 3e 48
        E 24 90 41 48
        E 0 90 45 48
        E 1896 90 3e 48
        E 24 80 3e 00
        E 0 80 41 00
        E 0 80 45 00
        E 0 90 41 48
        E 0 90 45 48
        E 260 80 3e 00
        E 0 80 41 00
        E 0 80 45 00
        E 416 90 3e 48
        E 24 90 41 48
        E 0 90 45 48
        E 260 80 3e 00
        E 0 80 41 00
        E 0 80 45 00
        e 490 90 3e 48
        e 24 90 41 48
        e 0 90 45 48
        e 260 80 3e 00
        e 0 80 41 00
        e 0 80 45 00
        E 186 b0 7b 00
        CHASE_CC_TAKEOFFS 1
        GUID {040E7AF8-3572-5D91-3C86-797AEE7444D4}
        IGNTEMPO 0 120 4 4
        SRCCOLOR 22
        VELLANE -1 100 0
        CFGEDITVIEW 0 0.045808 45 12 0 -1 0 0 0 0.5
        KEYSNAP 0
        TRACKSEL 0
        EVTFILTER 0 -1 -1 -1 -1 0 0 0 0 -1 -1 -1 -1 0 -1 0 -1 -1
        CFGEDIT 1 1 0 1 0 0 1 1 1 1 1 1 58 171 1253 866 0 0 0 0 0.25 0 0 0 0 0.5 0 0 1 64
      >
    >
    <ITEM
      POSITION 48
      SNAPOFFS 0
      LENGTH 8
      LOOP 1
      ALLTAKES 0
      FADEIN 1 0 0 1 0 0
      FADEOUT 1 0 0 1 0 0
      MUTE 0
      SEL 1
      IGUID {C229A08F-8A56-7E44-9829-0B8D2B245275}
      IID 16
      NAME "01-Recorded MIDI"
      VOLPAN 1 0 1 -1
      SOFFS 0 0
      PLAYRATE 1 1 0 -1 0 0.0021
      CHANMODE 0
      GUID {830FEADB-ADF8-8D9B-2BA0-FA3E62185D6C}
      RECPASS 1
      <SOURCE MIDI
        HASDATA 1 960 QN
        CCINTERP 32
        POOLEDEVTS {B2D1DDDE-D472-8DE4-FE9F-B26C904983B6}
        E 0 90 3c 48
        E 0 90 40 48
        E 0 90 43 48
        E 1920 80 3c 00
        E 0 80 40 00
        E 0 80 43 00
        E 0 90 3c 48
        E 0 90 40 48
        E 0 90 43 48
        E 260 80 3c 00
        E 0 80 40 00
        E 0 80 43 00
        E 440 90 3c 48
        E 0 90 40 48
        E 0 90 43 48
        E 260 80 3c 00
        E 0 80 40 00
        E 0 80 43 00
        e 514 90 3c 48
        e 0 90 40 48
        e 0 90 43 48
        e 260 80 3c 00
        e 0 80 40 00
        e 0 80 43 00
        E 186 90 43 48
        E 0 90 47 48
        E 20 90 40 48
        E 1900 80 43 00
        E 0 80 47 00
        E 0 80 40 00
        E 0 90 43 48
        E 0 90 47 48
        E 20 90 40 48
        E 240 80 43 00
        E 0 80 47 00
        E 0 80 40 00
        E 440 90 43 48
        E 0 90 47 48
        E 20 90 40 48
        E 240 80 43 00
        E 0 80 47 00
        E 0 80 40 00
        e 514 90 43 48
        e 0 90 47 48
        e 20 90 40 48
        e 240 80 43 00
        e 0 80 47 00
        e 0 80 40 00
        E 186 90 41 48
        E 0 90 45 48
        E 0 90 48 48
        E 1920 80 41 00
        E 0 80 45 00
        E 0 80 48 00
        E 0 90 41 48
        E 0 90 45 48
        E 0 90 48 48
        E 260 80 41 00
        E 0 80 45 00
        E 0 80 48 00
        E 440 90 41 48
        E 0 90 45 48
        E 0 90 48 48
        E 260 80 41 00
        E 0 80 45 00
        E 0 80 48 00
        e 514 90 41 48
        e 0 90 45 48
        e 0 90 48 48
        e 260 80 41 00
        e 0 80 45 00
        e 0 80 48 00
        E 162 90 3e 48
        E 24 90 41 48
        E 0 90 45 48
        E 1896 90 3e 48
        E 24 80 3e 00
        E 0 80 41 00
        E 0 80 45 00
        E 0 90 41 48
        E 0 90 45 48
        E 260 80 3e 00
        E 0 80 41 00
        E 0 80 45 00
        E 416 90 3e 48
        E 24 90 41 48
        E 0 90 45 48
        E 260 80 3e 00
        E 0 80 41 00
        E 0 80 45 00
        e 490 90 3e 48
        e 24 90 41 48
        e 0 90 45 48
        e 260 80 3e 00
        e 0 80 41 00
        e 0 80 45 00
        E 186 b0 7b 00
        CHASE_CC_TAKEOFFS 1
        GUID {2338968B-6CF9-9F40-300F-DEB89D3392EA}
        IGNTEMPO 0 120 4 4
        SRCCOLOR 23
        VELLANE -1 100 0
        CFGEDITVIEW 0 0.045808 45 12 0 -1 0 0 0 0.5
        KEYSNAP 0
        TRACKSEL 0
        EVTFILTER 0 -1 -1 -1 -1 0 0 0 0 -1 -1 -1 -1 0 -1 0 -1 -1
        CFGEDIT 1 1 0 1 0 0 1 1 1 1 1 1 58 171 1253 866 0 0 0 0 0.25 0 0 0 0 0.5 0 0 1 64
      >
    >
    <ITEM
      POSITION 56
      SNAPOFFS 0
      LENGTH 8
      LOOP 1
      ALLTAKES 0
      FADEIN 1 0 0 1 0 0
      FADEOUT 1 0 0 1 0 0
      MUTE 0
      SEL 1
      IGUID {64C6B0CC-05D7-2AF9-7BF1-B1441372F202}
      IID 17
      NAME "01-Recorded MIDI"
      VOLPAN 1 0 1 -1
      SOFFS 0 0
      PLAYRATE 1 1 0 -1 0 0.0021
      CHANMODE 0
      GUID {9D457CCB-58DC-CADB-2456-FE619494855B}
      RECPASS 1
      <SOURCE MIDI
        HASDATA 1 960 QN
        CCINTERP 32
        POOLEDEVTS {510ECB6D-7631-3126-AEC1-D13D2A9A393E}
        E 0 90 3c 48
        E 0 90 40 48
        E 0 90 43 48
        E 1920 80 3c 00
        E 0 80 40 00
        E 0 80 43 00
        E 0 90 3c 48
        E 0 90 40 48
        E 0 90 43 48
        E 260 80 3c 00
        E 0 80 40 00
        E 0 80 43 00
        E 440 90 3c 48
        E 0 90 40 48
        E 0 90 43 48
        E 260 80 3c 00
        E 0 80 40 00
        E 0 80 43 00
        e 514 90 3c 48
        e 0 90 40 48
        e 0 90 43 48
        e 260 80 3c 00
        e 0 80 40 00
        e 0 80 43 00
        E 186 90 43 48
        E 0 90 47 48
        E 20 90 40 48
        E 1900 80 43 00
        E 0 80 47 00
        E 0 80 40 00
        E 0 90 43 48
        E 0 90 47 48
        E 20 90 40 48
        E 240 80 43 00
        E 0 80 47 00
        E 0 80 40 00
        E 440 90 43 48
        E 0 90 47 48
        E 20 90 40 48
        E 240 80 43 00
        E 0 80 47 00
        E 0 80 40 00
        e 514 90 43 48
        e 0 90 47 48
        e 20 90 40 48
        e 240 80 43 00
        e 0 80 47 00
        e 0 80 40 00
        E 186 90 41 48
        E 0 90 45 48
        E 0 90 48 48
        E 1920 80 41 00
        E 0 80 45 00
        E 0 80 48 00
        E 0 90 41 48
        E 0 90 45 48
        E 0 90 48 48
        E 260 80 41 00
        E 0 80 45 00
        E 0 80 48 00
        E 440 90 41 48
        E 0 90 45 48
        E 0 90 48 48
        E 260 80 41 00
        E 0 80 45 00
        E 0 80 48 00
        e 514 90 41 48
        e 0 90 45 48
        e 0 90 48 48
        e 260 80 41 00
        e 0 80 45 00
        e 0 80 48 00
        E 162 90 3e 48
        E 24 90 41 48
        E 0 90 45 48
        E 1896 90 3e 48
        E 24 80 3e 00
        E 0 80 41 00
        E 0 80 45 00
        E 0 90 41 48
        E 0 90 45 48
        E 260 80 3e 00
        E 0 80 41 00
        E 0 80 45 00
        E 416 90 3e 48
        E 24 90 41 48
        E 0 90 45 48
        E 260 80 3e 00
        E 0 80 41 00
        E 0 80 45 00
        e 490 90 3e 48
        e 24 90 41 48
        e 0 90 45 48
        e 260 80 3e 00
        e 0 80 41 00
        e 0 80 45 00
        E 186 b0 7b 00
        CHASE_CC_TAKEOFFS 1
        GUID {A64857E2-94F8-0990-20DF-4C1E9B5E6251}
        IGNTEMPO 0 120 4 4
        SRCCOLOR 24
        VELLANE -1 100 0
        CFGEDITVIEW 0 0.045808 45 12 0 -1 0 0 0 0.5
        KEYSNAP 0
        TRACKSEL 0
        EVTFILTER 0 -1 -1 -1 -1 0 0 0 0 -1 -1 -1 -1 0 -1 0 -1 -1
        CFGEDIT 1 1 0 1 0 0 1 1 1 1 1 1 58 171 1253 866 0 0 0 0 0.25 0 0 0 0 0.5 0 0 1 64
      >
    >
    <ITEM
      POSITION 64
      SNAPOFFS 0
      LENGTH 8
      LOOP 1
      ALLTAKES 0
      FADEIN 1 0 0 1 0 0
      FADEOUT 1 0 0 1 0 0
      MUTE 0
      SEL 1
      IGUID {213694DF-E3E5-36F8-11DA-A6CF7EE702CF}
      IID 18
      NAME "01-Recorded MIDI"
      VOLPAN 1 0 1 -1
      SOFFS 0 0
      PLAYRATE 1 1 0 -1 0 0.0021
      CHANMODE 0
      GUID {5D8E338A-D112-3028-2A1B-22FAC5BA93E4}
      RECPASS 1
      <SOURCE MIDI
        HASDATA 1 960 QN
        CCINTERP 32
        POOLEDEVTS {509F0729-CDC3-3310-24F7-2C383EB214C0}
        E 0 90 3c 48
        E 0 90 40 48
        E 0 90 43 48
        E 1920 80 3c 00
        E 0 80 40 00
        E 0 80 43 00
        E 0 90 3c 48
        E 0 90 40 48
        E 0 90 43 48
        E 260 80 3c 00
        E 0 80 40 00
        E 0 80 43 00
        E 440 90 3c 48
        E 0 90 40 48
        E 0 90 43 48
        E 260 80 3c 00
        E 0 80 40 00
        E 0 80 43 00
        e 514 90 3c 48
        e 0 90 40 48
        e 0 90 43 48
        e 260 80 3c 00
        e 0 80 40 00
        e 0 80 43 00
        E 186 90 43 48
        E 0 90 47 48
        E 20 90 40 48
        E 1900 80 43 00
        E 0 80 47 00
        E 0 80 40 00
        E 0 90 43 48
        E 0 90 47 48
        E 20 90 40 48
        E 240 80 43 00
        E 0 80 47 00
        E 0 80 40 00
        E 440 90 43 48
        E 0 90 47 48
        E 20 90 40 48
        E 240 80 43 00
        E 0 80 47 00
        E 0 80 40 00
        e 514 90 43 48
        e 0 90 47 48
        e 20 90 40 48
        e 240 80 43 00
        e 0 80 47 00
        e 0 80 40 00
        E 186 90 41 48
        E 0 90 45 48
        E 0 90 48 48
        E 1920 80 41 00
        E 0 80 45 00
        E 0 80 48 00
        E 0 90 41 48
        E 0 90 45 48
        E 0 90 48 48
        E 260 80 41 00
        E 0 80 45 00
        E 0 80 48 00
        E 440 90 41 48
        E 0 90 45 48
        E 0 90 48 48
        E 260 80 41 00
        E 0 80 45 00
        E 0 80 48 00
        e 514 90 41 48
        e 0 90 45 48
        e 0 90 48 48
        e 260 80 41 00
        e 0 80 45 00
        e 0 80 48 00
        E 162 90 3e 48
        E 24 90 41 48
        E 0 90 45 48
        E 1896 90 3e 48
        E 24 80 3e 00
        E 0 80 41 00
        E 0 80 45 00
        E 0 90 41 48
        E 0 90 45 48
        E 260 80 3e 00
        E 0 80 41 00
        E 0 80 45 00
        E 416 90 3e 48
        E 24 90 41 48
        E 0 90 45 48
        E 260 80 3e 00
        E 0 80 41 00
        E 0 80 45 00
        e 490 90 3e 48
        e 24 90 41 48
        e 0 90 45 48
        e 260 80 3e 00
        e 0 80 41 00
        e 0 80 45 00
        E 186 b0 7b 00
        CHASE_CC_TAKEOFFS 1
        GUID {19362806-85F2-5D9E-E1F9-07BE0CF3D16E}
        IGNTEMPO 0 120 4 4
        SRCCOLOR 25
        VELLANE -1 100 0
        CFGEDITVIEW 0 0.045808 45 12 0 -1 0 0 0 0.5
        KEYSNAP 0
        TRACKSEL 0
        EVTFILTER 0 -1 -1 -1 -1 0 0 0 0 -1 -1 -1 -1 0 -1 0 -1 -1
        CFGEDIT 1 1 0 1 0 0 1 1 1 1 1 1 58 171 1253 866 0 0 0 0 0.25 0 0 0 0 0.5 0 0 1 64
      >
    >
    <ITEM
      POSITION 72
      SNAPOFFS 0
      LENGTH 8
      LOOP 1
      ALLTAKES 0
      FADEIN 1 0 0 1 0 0
      FADEOUT 1 0 0 1 0 0
      MUTE 0
      SEL 1
      IGUID {CD08B603-4F48-E35D-B4F2-055A946AFF04}
      IID 19
      NAME "01-Recorded MIDI"
      VOLPAN 1 0 1 -1
      SOFFS 0 0
      PLAYRATE 1 1 0 -1 0 0.0021
      CHANMODE 0
      GUID {BF32D8C8-72BB-B9B5-52C6-5F6723F586F7}
      RECPASS 1
      <SOURCE MIDI
        HASDATA 1 960 QN
        CCINTERP 32
        POOLEDEVTS {C382EA4F-AACA-5950-B0AD-893BC9862B17}
        E 0 90 3c 48
        E 0 90 40 48
        E 0 90 43 48
        E 1920 80 3c 00
        E 0 80 40 00
        E 0 80 43 00
        E 0 90 3c 48
        E 0 90 40 48
        E 0 90 43 48
        E 260 80 3c 00
        E 0 80 40 00
        E 0 80 43 00
        E 440 90 3c 48
        E 0 90 40 48
        E 0 90 43 48
        E 260 80 3c 00
        E 0 80 40 00
        E 0 80 43 00
        e 514 90 3c 48
        e 0 90 40 48
        e 0 90 43 48
        e 260 80 3c 00
        e 0 80 40 00
        e 0 80 43 00
        E 186 90 43 48
        E 0 90 47 48
        E 20 90 40 48
        E 1900 80 43 00
        E 0 80 47 00
        E 0 80 40 00
        E 0 90 43 48
        E 0 90 47 48
        E 20 90 40 48
        E 240 80 43 00
        E 0 80 47 00
        E 0 80 40 00
        E 440 90 43 48
        E 0 90 47 48
        E 20 90 40 48
        E 240 80 43 00
        E 0 80 47 00
        E 0 80 40 00
        e 514 90 43 48
        e 0 90 47 48
        e 20 90 40 48
        e 240 80 43 00
        e 0 80 47 00
        e 0 80 40 00
        E 186 90 41 48
        E 0 90 45 48
        E 0 90 48 48
        E 1920 80 41 00
        E 0 80 45 00
        E 0 80 48 00
        E 0 90 41 48
        E 0 90 45 48
        E 0 90 48 48
        E 260 80 41 00
        E 0 80 45 00
        E 0 80 48 00
        E 440 90 41 48
        E 0 90 45 48
        E 0 90 48 48
        E 260 80 41 00
        E 0 80 45 00
        E 0 80 48 00
        e 514 90 41 48
        e 0 90 45 48
        e 0 90 48 48
        e 260 80 41 00
        e 0 80 45 00
        e 0 80 48 00
        E 162 90 3e 48
        E 24 90 41 48
        E 0 90 45 48
        E 1896 90 3e 48
        E 24 80 3e 00
        E 0 80 41 00
        E 0 80 45 00
        E 0 90 41 48
        E 0 90 45 48
        E 260 80 3e 00
        E 0 80 41 00
        E 0 80 45 00
        E 416 90 3e 48
        E 24 90 41 48
        E 0 90 45 48
        E 260 80 3e 00
        E 0 80 41 00
        E 0 80 45 00
        e 490 90 3e 48
        e 24 90 41 48
        e 0 90 45 48
        e 260 80 3e 00
        e 0 80 41 00
        e 0 80 45 00
        E 186 b0 7b 00
        CHASE_CC_TAKEOFFS 1
        GUID {6844F8A9-6BE9-023C-4A46-0A676470C99B}
        IGNTEMPO 0 120 4 4
        SRCCOLOR 26
        VELLANE -1 100 0
        CFGEDITVIEW 0 0.045808 45 12 0 -1 0 0 0 0.5
        KEYSNAP 0
        TRACKSEL 0
        EVTFILTER 0 -1 -1 -1 -1 0 0 0 0 -1 -1 -1 -1 0 -1 0 -1 -1
        CFGEDIT 1 1 0 1 0 0 1 1 1 1 1 1 58 171 1253 866 0 0 0 0 0.25 0 0 0 0 0.5 0 0 1 64
      >
    >
    <ITEM
      POSITION 80
      SNAPOFFS 0
      LENGTH 8
      LOOP 1
      ALLTAKES 0
      FADEIN 1 0 0 1 0 0
      FADEOUT 1 0 0 1 0 0
      MUTE 0
      SEL 1
      IGUID {A5D77C16-FAF0-7A30-82C3-E0CF38EA0D89}
      IID 20
      NAME "01-Recorded MIDI"
      VOLPAN 1 0 1 -1
      SOFFS 0 0
      PLAYRATE 1 1 0 -1 0 0.0021
      CHANMODE 0
      GUID {765C6F82-CFC0-8136-5E2D-82AD10574B86}
      RECPASS 1
      <SOURCE MIDI
        HASDATA 1 960 QN
        CCINTERP 32
        POOLEDEVTS {B5ECD348-F4A1-1AC3-9574-5EB69B7C5EB3}
        E 0 90 3c 48
        E 0 90 40 48
        E 0 90 43 48
        E 1920 80 3c 00
        E 0 80 40 00
        E 0 80 43 00
        E 0 90 3c 48
        E 0 90 40 48
        E 0 90 43 48
        E 260 80 3c 00
        E 0 80 40 00
        E 0 80 43 00
        E 440 90 3c 48
        E 0 90 40 48
        E 0 90 43 48
        E 260 80 3c 00
        E 0 80 40 00
        E 0 80 43 00
        e 514 90 3c 48
        e 0 90 40 48
        e 0 90 43 48
        e 260 80 3c 00
        e 0 80 40 00
        e 0 80 43 00
        E 186 90 43 48
        E 0 90 47 48
        E 20 90 40 48
        E 1900 80 43 00
        E 0 80 47 00
        E 0 80 40 00
        E 0 90 43 48
        E 0 90 47 48
        E 20 90 40 48
        E 240 80 43 00
        E 0 80 47 00
        E 0 80 40 00
        E 440 90 43 48
        E 0 90 47 48
        E 20 90 40 48
        E 240 80 43 00
        E 0 80 47 00
        E 0 80 40 00
        e 514 90 43 48
        e 0 90 47 48
        e 20 90 40 48
        e 240 80 43 00
        e 0 80 47 00
        e 0 80 40 00
        E 186 90 41 48
        E 0 90 45 48
        E 0 90 48 48
        E 1920 80 41 00
        E 0 80 45 00
        E 0 80 48 00
        E 0 90 41 48
        E 0 90 45 48
        E 0 90 48 48
        E 260 80 41 00
        E 0 80 45 00
        E 0 80 48 00
        E 440 90 41 48
        E 0 90 45 48
        E 0 90 48 48
        E 260 80 41 00
        E 0 80 45 00
        E 0 80 48 00
        e 514 90 41 48
        e 0 90 45 48
        e 0 90 48 48
        e 260 80 41 00
        e 0 80 45 00
        e 0 80 48 00
        E 162 90 3e 48
        E 24 90 41 48
        E 0 90 45 48
        E 1896 90 3e 48
        E 24 80 3e 00
        E 0 80 41 00
        E 0 80 45 00
        E 0 90 41 48
        E 0 90 45 48
        E 260 80 3e 00
        E 0 80 41 00
        E 0 80 45 00
        E 416 90 3e 48
        E 24 90 41 48
        E 0 90 45 48
        E 260 80 3e 00
        E 0 80 41 00
        E 0 80 45 00
        e 490 90 3e 48
        e 24 90 41 48
        e 0 90 45 48
        e 260 80 3e 00
        e 0 80 41 00
        e 0 80 45 00
        E 186 b0 7b 00
        CHASE_CC_TAKEOFFS 1
        GUID {E611ADB6-4869-6CCA-8E83-3954D5E743B1}
        IGNTEMPO 0 120 4 4
        SRCCOLOR 27
        VELLANE -1 100 0
        CFGEDITVIEW 0 0.045808 45 12 0 -1 0 0 0 0.5
        KEYSNAP 0
        TRACKSEL 0
        EVTFILTER 0 -1 -1 -1 -1 0 0 0 0 -1 -1 -1 -1 0 -1 0 -1 -1
        CFGEDIT 1 1 0 1 0 0 1 1 1 1 1 1 58 171 1253 866 0 0 0 0 0.25 0 0 0 0 0.5 0 0 1 64
      >
    >
    <ITEM
      POSITION 88
      SNAPOFFS 0
      LENGTH 8
      LOOP 1
      ALLTAKES 0
      FADEIN 1 0 0 1 0 0
      FADEOUT 1 0 0 1 0 0
      MUTE 0
      SEL 1
      IGUID {80204E1A-BD7D-E6FA-8F58-EA0E3B976C5A}
      IID 21
      NAME "01-Recorded MIDI"
      VOLPAN 1 0 1 -1
      SOFFS 0 0
      PLAYRATE 1 1 0 -1 0 0.0021
      CHANMODE 0
      GUID {0B1955F3-8C86-8754-D516-4F63CD57349F}
      RECPASS 1
      <SOURCE MIDI
        HASDATA 1 960 QN
        CCINTERP 32
        POOLEDEVTS {72184F6A-20B2-E2FD-EEA9-A7A6FAD17B9C}
        E 0 90 3c 48
        E 0 90 40 48
        E 0 90 43 48
        E 1920 80 3c 00
        E 0 80 40 00
        E 0 80 43 00
        E 0 90 3c 48
        E 0 90 40 48
        E 0 90 43 48
        E 260 80 3c 00
        E 0 80 40 00
        E 0 80 43 00
        E 440 90 3c 48
        E 0 90 40 48
        E 0 90 43 48
        E 260 80 3c 00
        E 0 80 40 00
        E 0 80 43 00
        e 514 90 3c 48
        e 0 90 40 48
        e 0 90 43 48
        e 260 80 3c 00
        e 0 80 40 00
        e 0 80 43 00
        E 186 90 43 48
        E 0 90 47 48
        E 20 90 40 48
        E 1900 80 43 00
        E 0 80 47 00
        E 0 80 40 00
        E 0 90 43 48
        E 0 90 47 48
        E 20 90 40 48
        E 240 80 43 00
        E 0 80 47 00
        E 0 80 40 00
        E 440 90 43 48
        E 0 90 47 48
        E 20 90 40 48
        E 240 80 43 00
        E 0 80 47 00
        E 0 80 40 00
        e 514 90 43 48
        e 0 90 47 48
        e 20 90 40 48
        e 240 80 43 00
        e 0 80 47 00
        e 0 80 40 00
        E 186 90 41 48
        E 0 90 45 48
        E 0 90 48 48
        E 1920 80 41 00
        E 0 80 45 00
        E 0 80 48 00
        E 0 90 41 48
        E 0 90 45 48
        E 0 90 48 48
        E 260 80 41 00
        E 0 80 45 00
        E 0 80 48 00
        E 440 90 41 48
        E 0 90 45 48
        E 0 90 48 48
        E 260 80 41 00
        E 0 80 45 00
        E 0 80 48 00
        e 514 90 41 48
        e 0 90 45 48
        e 0 90 48 48
        e 260 80 41 00
        e 0 80 45 00
        e 0 80 48 00
        E 162 90 3e 48
        E 24 90 41 48
        E 0 90 45 48
        E 1896 90 3e 48
        E 24 80 3e 00
        E 0 80 41 00
        E 0 80 45 00
        E 0 90 41 48
        E 0 90 45 48
        E 260 80 3e 00
        E 0 80 41 00
        E 0 80 45 00
        E 416 90 3e 48
        E 24 90 41 48
        E 0 90 45 48
        E 260 80 3e 00
        E 0 80 41 00
        E 0 80 45 00
        e 490 90 3e 48
        e 24 90 41 48
        e 0 90 45 48
        e 260 80 3e 00
        e 0 80 41 00
        e 0 80 45 00
        E 186 b0 7b 00
        CHASE_CC_TAKEOFFS 1
        GUID {C762B555-17FC-D765-5340-11D3487D2955}
        IGNTEMPO 0 120 4 4
        SRCCOLOR 28
        VELLANE -1 100 0
        CFGEDITVIEW 0 0.045808 45 12 0 -1 0 0 0 0.5
        KEYSNAP 0
        TRACKSEL 0
        EVTFILTER 0 -1 -1 -1 -1 0 0 0 0 -1 -1 -1 -1 0 -1 0 -1 -1
        CFGEDIT 1 1 0 1 0 0 1 1 1 1 1 1 58 171 1253 866 0 0 0 0 0.25 0 0 0 0 0.5 0 0 1 64
      >
    >
  >
  <TRACK {DA899605-71BE-3C5C-BE2D-0FE4C4CD3A6F}
    NAME ""
    PEAKCOL 16576
    BEAT -1
    AUTOMODE 0
    VOLPAN 0.00052194381917 0 -1 -1 1
    MUTESOLO 0 0 0
    IPHASE 0
    PLAYOFFS 0 1
    ISBUS 0 0
    BUSCOMP 0 0 0 0 0
    SHOWINMIX 1 0.6667 0.5 1 0.5 0 0 0
    FREEMODE 0
    SEL 0
    REC 0 5056 1 0 0 0 0
    VU 2
    TRACKHEIGHT 21 0 0
    INQ 0 0 0 0.5 100 0 0 100
    NCHAN 2
    FX 0
    TRACKID {DA899605-71BE-3C5C-BE2D-0FE4C4CD3A6F}
    PERF 0
    MIDIOUT -1
    MAINSEND 1 0
    <FXCHAIN
      WNDRECT 346 266 902 608
      SHOW 0
      LASTSEL 5
      DOCKED 0
      BYPASS 0 0 0
      <VST "VST: ReaEQ (Cockos)" reaeq.vst.so 0 "" 1919247729<56535472656571726561657100000000> ""
        cWVlcu5e7f4CAAAAAQAAAAAAAAACAAAAAAAAAAIAAAABAAAAAAAAAAIAAAAAAAAAqAAAAAEAAAAAABAA
        IQAAAAQAAAAEAAAAAQAAAEC4Xhmm+DRAAAAAAAAA8D8AAAAAAAAAQAEIAAAAAQAAAAAAAAAAwHJAAAAAAAAA8D8AAAAAAAAAQAEIAAAAAQAAAAAAAAAAQI9AAAAAAAAA
        8D8AAAAAAAAAQAEDAAAAAQAAAAABaCorbdRAAAAAAAAA8D8AAAAAAAAAQAEBAAAAAQAAAAAAAAAAAPA/AAAAAJoCAACcAQAA
        AEhpZ2ggbG93IHBhc3MAEAAAAA==
      >
      PRESETNAME "High low pass"
      FLOATPOS 0 0 0 0
      FXID {46B5DAD2-C3B2-BFCB-63AE-AFE78D4BAD7C}
      WAK 0 0
      BYPASS 0 0 0
      <VST "VSTi: ReaSynth (Cockos)" reasynth.vst.so 0 "" 1919251321<5653547265737972656173796E746800> ""
        eXNlcu9e7f4AAAAAAgAAAAEAAAAAAAAAAgAAAAAAAAA8AAAAAAAAAAAAEAA=
        776t3g3wrd6lm8Q7F7fROgAAAAAAAAAAAAAAAJCNuT3oZ4g9AACAPwAAAD8AAIA/AAAAAAAAAD8AAAAA
        AAAQAAAA
      >
      FLOATPOS 0 0 0 0
      FXID {4FB62E07-9463-29B1-2C28-DFE9868CC378}
      WAK 0 0
      BYPASS 0 0 0
      <JS guitar/amp-model ""
        "Dumble Overdrive Special - Tweed Deluxe.wav" -21.000000 1.000000 0.000000 0.000000 -1.000000 - - - - - - - - - - - - - - - - - - - - - - - - - - - - - - - - - - - - - - - - - - - - - - - - - - - - - - - - - - 
      >
      FLOATPOS 0 0 0 0
      FXID {037EF875-09C6-668B-5622-82A4828CAA46}
      WAK 0 0
      BYPASS 0 0 0
      <VST "VST: ReaComp (Cockos)" reacomp.vst.so 0 "" 1919247213<5653547265636D726561636F6D700000> ""
        bWNlcu9e7f4EAAAAAQAAAAAAAAACAAAAAAAAAAQAAAAAAAAACAAAAAAAAAACAAAAAQAAAAAAAAACAAAAAAAAAFQAAAAAAAAAAAAQAA==
        776t3g3wrd5FoYg9/AWpPKWbxDsK16M8AAAAAAAAAAAAAIA/AAAAAAAAAAAAAAAAnNEHMwAAgD8AAAAAzMxMPQAAAAAAAAAAAAAAAAAAgD7YiZ09
        AAAQAAAA
      >
      FLOATPOS 0 0 0 0
      FXID {CBC74D73-8125-117B-E3F7-262A328B8D6B}
      WAK 0 0
      BYPASS 0 0 0
      <VST "VST: ReaDelay (Cockos)" readelay.vst.so 0 "" 1919247468<5653547265646C72656164656C617900> ""
        bGRlcu5e7f4CAAAAAQAAAAAAAAACAAAAAAAAAAIAAAABAAAAAAAAAAIAAAAAAAAA/AAAAAEAAAAAAAAA
        AAAAAAAAAAAFAAAALAAAAAIAAAAEAAAAAACAPwAAgD8AAAAAAACAPwAAAAAAAIA7vTeGNQAAgD8AAAAAAACAPwAAgD8AAIA/AAAAAAAAAAAAAIA/AAAAAAAAADwAAAAA
        AACAPwAAAAAAAIA/AACAP+87NT8AAIA/AAAAAAAAgD8AAAAAAABAPL03hjUAAIA/AAAAAAAAgD8AAIA/zk0AP6abhD4AAAAAAACAPwAAAAAAAIA8vTeGNQAAgD8AAAAA
        AACAPwAAgD8aqrU+pHA9PwAAAAAAAIA/AAAAAAAAoDy9N4Y1AACAPwAAAAAAAIA/AACAP/npAD4AAAA/
        AHN0b2NrIC0gYmFzaWMgNSB0YXAgcGluZyBwb25nAAAAAAA=
      >
      PRESETNAME "stock - basic 5 tap ping pong"
      FLOATPOS 0 0 0 0
      FXID {17608EBD-D742-AE92-0D15-C23F9D29B18D}
      WAK 0 0
      BYPASS 0 0 0
      <VST "VST: ReaVerb (Cockos)" reaverb.vst.so 0 "" 1919252066<56535472657662726561766572620000> ""
        YnZlcu5e7f4CAAAAAQAAAAAAAAACAAAAAAAAAAIAAAABAAAAAAAAAAIAAAAAAAAAcAAAAAEAAAAAAAAA
        AAAAwcybgD4AAIA/AAAAAAAAgD8AAIA/AAAAPwAAgD8AAAAAVkVSQkdFTgAYAAAAAAAAAJHgV0QdrLRA3rK7QsHIjEIAAIC/RUNIT0dFTgAcAAAAy/i2QLUjdUJdzdM/
        osdfP5lRrzyRzYxAnMQAPw==
        AHN3ZWV0dmVyYm8AAAAAAA==
      >
      PRESETNAME sweetverbo
      FLOATPOS 0 0 0 0
      FXID {953135C2-76DD-762F-6E55-E351984137A8}
      WAK 0 0
    >
    <ITEM
      POSITION 0
      SNAPOFFS 0
      LENGTH 8
      LOOP 1
      ALLTAKES 0
      FADEIN 1 0 0 1 0 0
      FADEOUT 1 0 0 1 0 0
      MUTE 0
      SEL 1
      IGUID {F5239168-6476-8B84-C3BC-34B90AF6EE7C}
      IID 10
      NAME "01-Recorded MIDI"
      VOLPAN 1 0 1 -1
      SOFFS 0 0
      PLAYRATE 1 1 0 -1 0 0.0021
      CHANMODE 0
      GUID {8B5419AD-8480-27E4-67A7-379FFBF8A342}
      RECPASS 1
      <SOURCE MIDI
        HASDATA 1 960 QN
        CCINTERP 32
        POOLEDEVTS {77A36BB7-BAE9-888A-F660-6A695EABFE11}
        E 0 90 3c 48
        E 0 90 40 48
        E 0 90 43 48
        E 1920 80 3c 00
        E 0 80 40 00
        E 0 80 43 00
        E 0 90 3c 48
        E 0 90 40 48
        E 0 90 43 48
        E 260 80 3c 00
        E 0 80 40 00
        E 0 80 43 00
        E 440 90 3c 48
        E 0 90 40 48
        E 0 90 43 48
        E 260 80 3c 00
        E 0 80 40 00
        E 0 80 43 00
        e 514 90 3c 48
        e 0 90 40 48
        e 0 90 43 48
        e 260 80 3c 00
        e 0 80 40 00
        e 0 80 43 00
        E 186 90 43 48
        E 0 90 47 48
        E 20 90 40 48
        E 1900 80 43 00
        E 0 80 47 00
        E 0 80 40 00
        E 0 90 43 48
        E 0 90 47 48
        E 20 90 40 48
        E 240 80 43 00
        E 0 80 47 00
        E 0 80 40 00
        E 440 90 43 48
        E 0 90 47 48
        E 20 90 40 48
        E 240 80 43 00
        E 0 80 47 00
        E 0 80 40 00
        e 514 90 43 48
        e 0 90 47 48
        e 20 90 40 48
        e 240 80 43 00
        e 0 80 47 00
        e 0 80 40 00
        E 186 90 41 48
        E 0 90 45 48
        E 0 90 48 48
        E 1920 80 41 00
        E 0 80 45 00
        E 0 80 48 00
        E 0 90 41 48
        E 0 90 45 48
        E 0 90 48 48
        E 260 80 41 00
        E 0 80 45 00
        E 0 80 48 00
        E 440 90 41 48
        E 0 90 45 48
        E 0 90 48 48
        E 260 80 41 00
        E 0 80 45 00
        E 0 80 48 00
        e 514 90 41 48
        e 0 90 45 48
        e 0 90 48 48
        e 260 80 41 00
        e 0 80 45 00
        e 0 80 48 00
        E 162 90 3e 48
        E 24 90 41 48
        E 0 90 45 48
        E 1896 90 3e 48
        E 24 80 3e 00
        E 0 80 41 00
        E 0 80 45 00
        E 0 90 41 48
        E 0 90 45 48
        E 260 80 3e 00
        E 0 80 41 00
        E 0 80 45 00
        E 416 90 3e 48
        E 24 90 41 48
        E 0 90 45 48
        E 260 80 3e 00
        E 0 80 41 00
        E 0 80 45 00
        e 490 90 3e 48
        e 24 90 41 48
        e 0 90 45 48
        e 260 80 3e 00
        e 0 80 41 00
        e 0 80 45 00
        E 186 b0 7b 00
        CHASE_CC_TAKEOFFS 1
        GUID {7B9D708B-43E1-C8D4-C4B3-87E2A6C27801}
        IGNTEMPO 0 120 4 4
        SRCCOLOR 17
        VELLANE -1 100 0
        CFGEDITVIEW 0 0.045808 45 12 0 -1 0 0 0 0.5
        KEYSNAP 0
        TRACKSEL 0
        EVTFILTER 0 -1 -1 -1 -1 0 0 0 0 -1 -1 -1 -1 0 -1 0 -1 -1
        CFGEDIT 1 1 0 1 0 0 1 1 1 1 1 1 58 171 1253 866 0 0 0 0 0.25 0 0 0 0 0.5 0 0 1 64
      >
    >
    <ITEM
      POSITION 8
      SNAPOFFS 0
      LENGTH 8
      LOOP 1
      ALLTAKES 0
      FADEIN 1 0 0 1 0 0
      FADEOUT 1 0 0 1 0 0
      MUTE 0
      SEL 1
      IGUID {2D9FFA35-B54C-58CD-235A-B144405F80F4}
      IID 11
      NAME "01-Recorded MIDI"
      VOLPAN 1 0 1 -1
      SOFFS 0 0
      PLAYRATE 1 1 0 -1 0 0.0021
      CHANMODE 0
      GUID {D0DFDE8B-2E55-DFC3-235F-0E9918AB393E}
      RECPASS 1
      <SOURCE MIDI
        HASDATA 1 960 QN
        CCINTERP 32
        POOLEDEVTS {AAD73544-01B1-0BE8-A911-3EB8B25D2D6C}
        E 0 90 3c 48
        E 0 90 40 48
        E 0 90 43 48
        E 1920 80 3c 00
        E 0 80 40 00
        E 0 80 43 00
        E 0 90 3c 48
        E 0 90 40 48
        E 0 90 43 48
        E 260 80 3c 00
        E 0 80 40 00
        E 0 80 43 00
        E 440 90 3c 48
        E 0 90 40 48
        E 0 90 43 48
        E 260 80 3c 00
        E 0 80 40 00
        E 0 80 43 00
        e 514 90 3c 48
        e 0 90 40 48
        e 0 90 43 48
        e 260 80 3c 00
        e 0 80 40 00
        e 0 80 43 00
        E 186 90 43 48
        E 0 90 47 48
        E 20 90 40 48
        E 1900 80 43 00
        E 0 80 47 00
        E 0 80 40 00
        E 0 90 43 48
        E 0 90 47 48
        E 20 90 40 48
        E 240 80 43 00
        E 0 80 47 00
        E 0 80 40 00
        E 440 90 43 48
        E 0 90 47 48
        E 20 90 40 48
        E 240 80 43 00
        E 0 80 47 00
        E 0 80 40 00
        e 514 90 43 48
        e 0 90 47 48
        e 20 90 40 48
        e 240 80 43 00
        e 0 80 47 00
        e 0 80 40 00
        E 186 90 41 48
        E 0 90 45 48
        E 0 90 48 48
        E 1920 80 41 00
        E 0 80 45 00
        E 0 80 48 00
        E 0 90 41 48
        E 0 90 45 48
        E 0 90 48 48
        E 260 80 41 00
        E 0 80 45 00
        E 0 80 48 00
        E 440 90 41 48
        E 0 90 45 48
        E 0 90 48 48
        E 260 80 41 00
        E 0 80 45 00
        E 0 80 48 00
        e 514 90 41 48
        e 0 90 45 48
        e 0 90 48 48
        e 260 80 41 00
        e 0 80 45 00
        e 0 80 48 00
        E 162 90 3e 48
        E 24 90 41 48
        E 0 90 45 48
        E 1896 90 3e 48
        E 24 80 3e 00
        E 0 80 41 00
        E 0 80 45 00
        E 0 90 41 48
        E 0 90 45 48
        E 260 80 3e 00
        E 0 80 41 00
        E 0 80 45 00
        E 416 90 3e 48
        E 24 90 41 48
        E 0 90 45 48
        E 260 80 3e 00
        E 0 80 41 00
        E 0 80 45 00
        e 490 90 3e 48
        e 24 90 41 48
        e 0 90 45 48
        e 260 80 3e 00
        e 0 80 41 00
        e 0 80 45 00
        E 186 b0 7b 00
        CHASE_CC_TAKEOFFS 1
        GUID {3131B4E2-B370-E352-A9C5-C8CA31551A86}
        IGNTEMPO 0 120 4 4
        SRCCOLOR 18
        VELLANE -1 100 0
        CFGEDITVIEW 0 0.045808 45 12 0 -1 0 0 0 0.5
        KEYSNAP 0
        TRACKSEL 0
        EVTFILTER 0 -1 -1 -1 -1 0 0 0 0 -1 -1 -1 -1 0 -1 0 -1 -1
        CFGEDIT 1 1 0 1 0 0 1 1 1 1 1 1 58 171 1253 866 0 0 0 0 0.25 0 0 0 0 0.5 0 0 1 64
      >
    >
    <ITEM
      POSITION 16
      SNAPOFFS 0
      LENGTH 8
      LOOP 1
      ALLTAKES 0
      FADEIN 1 0 0 1 0 0
      FADEOUT 1 0 0 1 0 0
      MUTE 0
      SEL 1
      IGUID {95581A0B-4510-F759-4A59-2B882AD9B720}
      IID 12
      NAME "01-Recorded MIDI"
      VOLPAN 1 0 1 -1
      SOFFS 0 0
      PLAYRATE 1 1 0 -1 0 0.0021
      CHANMODE 0
      GUID {89BEC0CF-4D43-3C66-9CD4-A29FE5E7F7F4}
      RECPASS 1
      <SOURCE MIDI
        HASDATA 1 960 QN
        CCINTERP 32
        POOLEDEVTS {50BE8B5B-C404-D70C-4CA7-B20F425DCCB9}
        E 0 90 3c 48
        E 0 90 40 48
        E 0 90 43 48
        E 1920 80 3c 00
        E 0 80 40 00
        E 0 80 43 00
        E 0 90 3c 48
        E 0 90 40 48
        E 0 90 43 48
        E 260 80 3c 00
        E 0 80 40 00
        E 0 80 43 00
        E 440 90 3c 48
        E 0 90 40 48
        E 0 90 43 48
        E 260 80 3c 00
        E 0 80 40 00
        E 0 80 43 00
        e 514 90 3c 48
        e 0 90 40 48
        e 0 90 43 48
        e 260 80 3c 00
        e 0 80 40 00
        e 0 80 43 00
        E 186 90 43 48
        E 0 90 47 48
        E 20 90 40 48
        E 1900 80 43 00
        E 0 80 47 00
        E 0 80 40 00
        E 0 90 43 48
        E 0 90 47 48
        E 20 90 40 48
        E 240 80 43 00
        E 0 80 47 00
        E 0 80 40 00
        E 440 90 43 48
        E 0 90 47 48
        E 20 90 40 48
        E 240 80 43 00
        E 0 80 47 00
        E 0 80 40 00
        e 514 90 43 48
        e 0 90 47 48
        e 20 90 40 48
        e 240 80 43 00
        e 0 80 47 00
        e 0 80 40 00
        E 186 90 41 48
        E 0 90 45 48
        E 0 90 48 48
        E 1920 80 41 00
        E 0 80 45 00
        E 0 80 48 00
        E 0 90 41 48
        E 0 90 45 48
        E 0 90 48 48
        E 260 80 41 00
        E 0 80 45 00
        E 0 80 48 00
        E 440 90 41 48
        E 0 90 45 48
        E 0 90 48 48
        E 260 80 41 00
        E 0 80 45 00
        E 0 80 48 00
        e 514 90 41 48
        e 0 90 45 48
        e 0 90 48 48
        e 260 80 41 00
        e 0 80 45 00
        e 0 80 48 00
        E 162 90 3e 48
        E 24 90 41 48
        E 0 90 45 48
        E 1896 90 3e 48
        E 24 80 3e 00
        E 0 80 41 00
        E 0 80 45 00
        E 0 90 41 48
        E 0 90 45 48
        E 260 80 3e 00
        E 0 80 41 00
        E 0 80 45 00
        E 416 90 3e 48
        E 24 90 41 48
        E 0 90 45 48
        E 260 80 3e 00
        E 0 80 41 00
        E 0 80 45 00
        e 490 90 3e 48
        e 24 90 41 48
        e 0 90 45 48
        e 260 80 3e 00
        e 0 80 41 00
        e 0 80 45 00
        E 186 b0 7b 00
        CHASE_CC_TAKEOFFS 1
        GUID {48C567A2-895C-FB9B-FDBA-0ADB7004ABF3}
        IGNTEMPO 0 120 4 4
        SRCCOLOR 19
        VELLANE -1 100 0
        CFGEDITVIEW 0 0.045808 45 12 0 -1 0 0 0 0.5
        KEYSNAP 0
        TRACKSEL 0
        EVTFILTER 0 -1 -1 -1 -1 0 0 0 0 -1 -1 -1 -1 0 -1 0 -1 -1
        CFGEDIT 1 1 0 1 0 0 1 1 1 1 1 1 58 171 1253 866 0 0 0 0 0.25 0 0 0 0 0.5 0 0 1 64
      >
    >
    <ITEM
      POSITION 24
      SNAPOFFS 0
      LENGTH 8
      LOOP 1
      ALLTAKES 0
      FADEIN 1 0 0 1 0 0
      FADEOUT 1 0 0 1 0 0
      MUTE 0
      SEL 1
      IGUID {F65EE775-DC86-9C50-F0C6-87C33A7EBB16}
      IID 13
      NAME "01-Recorded MIDI"
      VOLPAN 1 0 1 -1
      SOFFS 0 0
      PLAYRATE 1 1 0 -1 0 0.0021
      CHANMODE 0
      GUID {C125C5F7-AE57-DEEC-274F-930C9F585D63}
      RECPASS 1
      <SOURCE MIDI
        HASDATA 1 960 QN
        CCINTERP 32
        POOLEDEVTS {AD88FF35-8C47-62BB-A6EC-17943AD75B1C}
        E 0 90 3c 48
        E 0 90 40 48
        E 0 90 43 48
        E 1920 80 3c 00
        E 0 80 40 00
        E 0 80 43 00
        E 0 90 3c 48
        E 0 90 40 48
        E 0 90 43 48
        E 260 80 3c 00
        E 0 80 40 00
        E 0 80 43 00
        E 440 90 3c 48
        E 0 90 40 48
        E 0 90 43 48
        E 260 80 3c 00
        E 0 80 40 00
        E 0 80 43 00
        e 514 90 3c 48
        e 0 90 40 48
        e 0 90 43 48
        e 260 80 3c 00
        e 0 80 40 00
        e 0 80 43 00
        E 186 90 43 48
        E 0 90 47 48
        E 20 90 40 48
        E 1900 80 43 00
        E 0 80 47 00
        E 0 80 40 00
        E 0 90 43 48
        E 0 90 47 48
        E 20 90 40 48
        E 240 80 43 00
        E 0 80 47 00
        E 0 80 40 00
        E 440 90 43 48
        E 0 90 47 48
        E 20 90 40 48
        E 240 80 43 00
        E 0 80 47 00
        E 0 80 40 00
        e 514 90 43 48
        e 0 90 47 48
        e 20 90 40 48
        e 240 80 43 00
        e 0 80 47 00
        e 0 80 40 00
        E 186 90 41 48
        E 0 90 45 48
        E 0 90 48 48
        E 1920 80 41 00
        E 0 80 45 00
        E 0 80 48 00
        E 0 90 41 48
        E 0 90 45 48
        E 0 90 48 48
        E 260 80 41 00
        E 0 80 45 00
        E 0 80 48 00
        E 440 90 41 48
        E 0 90 45 48
        E 0 90 48 48
        E 260 80 41 00
        E 0 80 45 00
        E 0 80 48 00
        e 514 90 41 48
        e 0 90 45 48
        e 0 90 48 48
        e 260 80 41 00
        e 0 80 45 00
        e 0 80 48 00
        E 162 90 3e 48
        E 24 90 41 48
        E 0 90 45 48
        E 1896 90 3e 48
        E 24 80 3e 00
        E 0 80 41 00
        E 0 80 45 00
        E 0 90 41 48
        E 0 90 45 48
        E 260 80 3e 00
        E 0 80 41 00
        E 0 80 45 00
        E 416 90 3e 48
        E 24 90 41 48
        E 0 90 45 48
        E 260 80 3e 00
        E 0 80 41 00
        E 0 80 45 00
        e 490 90 3e 48
        e 24 90 41 48
        e 0 90 45 48
        e 260 80 3e 00
        e 0 80 41 00
        e 0 80 45 00
        E 186 b0 7b 00
        CHASE_CC_TAKEOFFS 1
        GUID {1DE38800-E2A1-41B5-9C8C-3291891093B1}
        IGNTEMPO 0 120 4 4
        SRCCOLOR 20
        VELLANE -1 100 0
        CFGEDITVIEW 0 0.045808 45 12 0 -1 0 0 0 0.5
        KEYSNAP 0
        TRACKSEL 0
        EVTFILTER 0 -1 -1 -1 -1 0 0 0 0 -1 -1 -1 -1 0 -1 0 -1 -1
        CFGEDIT 1 1 0 1 0 0 1 1 1 1 1 1 58 171 1253 866 0 0 0 0 0.25 0 0 0 0 0.5 0 0 1 64
      >
    >
    <ITEM
      POSITION 32
      SNAPOFFS 0
      LENGTH 8
      LOOP 1
      ALLTAKES 0
      FADEIN 1 0 0 1 0 0
      FADEOUT 1 0 0 1 0 0
      MUTE 0
      SEL 1
      IGUID {B41359AA-B856-8898-9CBD-6BBA8861D180}
      IID 14
      NAME "01-Recorded MIDI"
      VOLPAN 1 0 1 -1
      SOFFS 0 0
      PLAYRATE 1 1 0 -1 0 0.0021
      CHANMODE 0
      GUID {96E43885-2963-99C1-5881-384FACCABA10}
      RECPASS 1
      <SOURCE MIDI
        HASDATA 1 960 QN
        CCINTERP 32
        POOLEDEVTS {BDBC9BDE-3FBE-A345-3399-72D50B90B9BC}
        E 0 90 3c 48
        E 0 90 40 48
        E 0 90 43 48
        E 1920 80 3c 00
        E 0 80 40 00
        E 0 80 43 00
        E 0 90 3c 48
        E 0 90 40 48
        E 0 90 43 48
        E 260 80 3c 00
        E 0 80 40 00
        E 0 80 43 00
        E 440 90 3c 48
        E 0 90 40 48
        E 0 90 43 48
        E 260 80 3c 00
        E 0 80 40 00
        E 0 80 43 00
        e 514 90 3c 48
        e 0 90 40 48
        e 0 90 43 48
        e 260 80 3c 00
        e 0 80 40 00
        e 0 80 43 00
        E 186 90 43 48
        E 0 90 47 48
        E 20 90 40 48
        E 1900 80 43 00
        E 0 80 47 00
        E 0 80 40 00
        E 0 90 43 48
        E 0 90 47 48
        E 20 90 40 48
        E 240 80 43 00
        E 0 80 47 00
        E 0 80 40 00
        E 440 90 43 48
        E 0 90 47 48
        E 20 90 40 48
        E 240 80 43 00
        E 0 80 47 00
        E 0 80 40 00
        e 514 90 43 48
        e 0 90 47 48
        e 20 90 40 48
        e 240 80 43 00
        e 0 80 47 00
        e 0 80 40 00
        E 186 90 41 48
        E 0 90 45 48
        E 0 90 48 48
        E 1920 80 41 00
        E 0 80 45 00
        E 0 80 48 00
        E 0 90 41 48
        E 0 90 45 48
        E 0 90 48 48
        E 260 80 41 00
        E 0 80 45 00
        E 0 80 48 00
        E 440 90 41 48
        E 0 90 45 48
        E 0 90 48 48
        E 260 80 41 00
        E 0 80 45 00
        E 0 80 48 00
        e 514 90 41 48
        e 0 90 45 48
        e 0 90 48 48
        e 260 80 41 00
        e 0 80 45 00
        e 0 80 48 00
        E 162 90 3e 48
        E 24 90 41 48
        E 0 90 45 48
        E 1896 90 3e 48
        E 24 80 3e 00
        E 0 80 41 00
        E 0 80 45 00
        E 0 90 41 48
        E 0 90 45 48
        E 260 80 3e 00
        E 0 80 41 00
        E 0 80 45 00
        E 416 90 3e 48
        E 24 90 41 48
        E 0 90 45 48
        E 260 80 3e 00
        E 0 80 41 00
        E 0 80 45 00
        e 490 90 3e 48
        e 24 90 41 48
        e 0 90 45 48
        e 260 80 3e 00
        e 0 80 41 00
        e 0 80 45 00
        E 186 b0 7b 00
        CHASE_CC_TAKEOFFS 1
        GUID {0C3271F4-E233-9088-9B25-A722FAE7C579}
        IGNTEMPO 0 120 4 4
        SRCCOLOR 21
        VELLANE -1 100 0
        CFGEDITVIEW 0 0.045808 45 12 0 -1 0 0 0 0.5
        KEYSNAP 0
        TRACKSEL 0
        EVTFILTER 0 -1 -1 -1 -1 0 0 0 0 -1 -1 -1 -1 0 -1 0 -1 -1
        CFGEDIT 1 1 0 1 0 0 1 1 1 1 1 1 58 171 1253 866 0 0 0 0 0.25 0 0 0 0 0.5 0 0 1 64
      >
    >
    <ITEM
      POSITION 40
      SNAPOFFS 0
      LENGTH 8
      LOOP 1
      ALLTAKES 0
      FADEIN 1 0 0 1 0 0
      FADEOUT 1 0 0 1 0 0
      MUTE 0
      SEL 1
      IGUID {F87095D9-4559-D696-CAC3-D68ED7153D04}
      IID 15
      NAME "01-Recorded MIDI"
      VOLPAN 1 0 1 -1
      SOFFS 0 0
      PLAYRATE 1 1 0 -1 0 0.0021
      CHANMODE 0
      GUID {FB580CCC-B79D-C866-79C7-F3275875FD50}
      RECPASS 1
      <SOURCE MIDI
        HASDATA 1 960 QN
        CCINTERP 32
        POOLEDEVTS {DF8703E8-5CAD-153C-46F2-3518792DD52D}
        E 0 90 3c 48
        E 0 90 40 48
        E 0 90 43 48
        E 1920 80 3c 00
        E 0 80 40 00
        E 0 80 43 00
        E 0 90 3c 48
        E 0 90 40 48
        E 0 90 43 48
        E 260 80 3c 00
        E 0 80 40 00
        E 0 80 43 00
        E 440 90 3c 48
        E 0 90 40 48
        E 0 90 43 48
        E 260 80 3c 00
        E 0 80 40 00
        E 0 80 43 00
        e 514 90 3c 48
        e 0 90 40 48
        e 0 90 43 48
        e 260 80 3c 00
        e 0 80 40 00
        e 0 80 43 00
        E 186 90 43 48
        E 0 90 47 48
        E 20 90 40 48
        E 1900 80 43 00
        E 0 80 47 00
        E 0 80 40 00
        E 0 90 43 48
        E 0 90 47 48
        E 20 90 40 48
        E 240 80 43 00
        E 0 80 47 00
        E 0 80 40 00
        E 440 90 43 48
        E 0 90 47 48
        E 20 90 40 48
        E 240 80 43 00
        E 0 80 47 00
        E 0 80 40 00
        e 514 90 43 48
        e 0 90 47 48
        e 20 90 40 48
        e 240 80 43 00
        e 0 80 47 00
        e 0 80 40 00
        E 186 90 41 48
        E 0 90 45 48
        E 0 90 48 48
        E 1920 80 41 00
        E 0 80 45 00
        E 0 80 48 00
        E 0 90 41 48
        E 0 90 45 48
        E 0 90 48 48
        E 260 80 41 00
        E 0 80 45 00
        E 0 80 48 00
        E 440 90 41 48
        E 0 90 45 48
        E 0 90 48 48
        E 260 80 41 00
        E 0 80 45 00
        E 0 80 48 00
        e 514 90 41 48
        e 0 90 45 48
        e 0 90 48 48
        e 260 80 41 00
        e 0 80 45 00
        e 0 80 48 00
        E 162 90 3e 48
        E 24 90 41 48
        E 0 90 45 48
        E 1896 90 3e 48
        E 24 80 3e 00
        E 0 80 41 00
        E 0 80 45 00
        E 0 90 41 48
        E 0 90 45 48
        E 260 80 3e 00
        E 0 80 41 00
        E 0 80 45 00
        E 416 90 3e 48
        E 24 90 41 48
        E 0 90 45 48
        E 260 80 3e 00
        E 0 80 41 00
        E 0 80 45 00
        e 490 90 3e 48
        e 24 90 41 48
        e 0 90 45 48
        e 260 80 3e 00
        e 0 80 41 00
        e 0 80 45 00
        E 186 b0 7b 00
        CHASE_CC_TAKEOFFS 1
        GUID {040E7AF8-3572-5D91-3C86-797AEE7444D4}
        IGNTEMPO 0 120 4 4
        SRCCOLOR 22
        VELLANE -1 100 0
        CFGEDITVIEW 0 0.045808 45 12 0 -1 0 0 0 0.5
        KEYSNAP 0
        TRACKSEL 0
        EVTFILTER 0 -1 -1 -1 -1 0 0 0 0 -1 -1 -1 -1 0 -1 0 -1 -1
        CFGEDIT 1 1 0 1 0 0 1 1 1 1 1 1 58 171 1253 866 0 0 0 0 0.25 0 0 0 0 0.5 0 0 1 64
      >
    >
    <ITEM
      POSITION 48
      SNAPOFFS 0
      LENGTH 8
      LOOP 1
      ALLTAKES 0
      FADEIN 1 0 0 1 0 0
      FADEOUT 1 0 0 1 0 0
      MUTE 0
      SEL 1
      IGUID {9CEE4B49-0CB0-85A8-D0FF-B52E913DB8D2}
      IID 16
      NAME "01-Recorded MIDI"
      VOLPAN 1 0 1 -1
      SOFFS 0 0
      PLAYRATE 1 1 0 -1 0 0.0021
      CHANMODE 0
      GUID {BB473370-4995-7A7D-6E7B-1D2338B467DB}
      RECPASS 1
      <SOURCE MIDI
        HASDATA 1 960 QN
        CCINTERP 32
        POOLEDEVTS {181EA190-8846-C264-68B4-8D12C5559CE9}
        E 0 90 3c 48
        E 0 90 40 48
        E 0 90 43 48
        E 1920 80 3c 00
        E 0 80 40 00
        E 0 80 43 00
        E 0 90 3c 48
        E 0 90 40 48
        E 0 90 43 48
        E 260 80 3c 00
        E 0 80 40 00
        E 0 80 43 00
        E 440 90 3c 48
        E 0 90 40 48
        E 0 90 43 48
        E 260 80 3c 00
        E 0 80 40 00
        E 0 80 43 00
        e 514 90 3c 48
        e 0 90 40 48
        e 0 90 43 48
        e 260 80 3c 00
        e 0 80 40 00
        e 0 80 43 00
        E 186 90 43 48
        E 0 90 47 48
        E 20 90 40 48
        E 1900 80 43 00
        E 0 80 47 00
        E 0 80 40 00
        E 0 90 43 48
        E 0 90 47 48
        E 20 90 40 48
        E 240 80 43 00
        E 0 80 47 00
        E 0 80 40 00
        E 440 90 43 48
        E 0 90 47 48
        E 20 90 40 48
        E 240 80 43 00
        E 0 80 47 00
        E 0 80 40 00
        e 514 90 43 48
        e 0 90 47 48
        e 20 90 40 48
        e 240 80 43 00
        e 0 80 47 00
        e 0 80 40 00
        E 186 90 41 48
        E 0 90 45 48
        E 0 90 48 48
        E 1920 80 41 00
        E 0 80 45 00
        E 0 80 48 00
        E 0 90 41 48
        E 0 90 45 48
        E 0 90 48 48
        E 260 80 41 00
        E 0 80 45 00
        E 0 80 48 00
        E 440 90 41 48
        E 0 90 45 48
        E 0 90 48 48
        E 260 80 41 00
        E 0 80 45 00
        E 0 80 48 00
        e 514 90 41 48
        e 0 90 45 48
        e 0 90 48 48
        e 260 80 41 00
        e 0 80 45 00
        e 0 80 48 00
        E 162 90 3e 48
        E 24 90 41 48
        E 0 90 45 48
        E 1896 90 3e 48
        E 24 80 3e 00
        E 0 80 41 00
        E 0 80 45 00
        E 0 90 41 48
        E 0 90 45 48
        E 260 80 3e 00
        E 0 80 41 00
        E 0 80 45 00
        E 416 90 3e 48
        E 24 90 41 48
        E 0 90 45 48
        E 260 80 3e 00
        E 0 80 41 00
        E 0 80 45 00
        e 490 90 3e 48
        e 24 90 41 48
        e 0 90 45 48
        e 260 80 3e 00
        e 0 80 41 00
        e 0 80 45 00
        E 186 b0 7b 00
        CHASE_CC_TAKEOFFS 1
        GUID {2338968B-6CF9-9F40-300F-DEB89D3392EA}
        IGNTEMPO 0 120 4 4
        SRCCOLOR 23
        VELLANE -1 100 0
        CFGEDITVIEW 0 0.045808 45 12 0 -1 0 0 0 0.5
        KEYSNAP 0
        TRACKSEL 0
        EVTFILTER 0 -1 -1 -1 -1 0 0 0 0 -1 -1 -1 -1 0 -1 0 -1 -1
        CFGEDIT 1 1 0 1 0 0 1 1 1 1 1 1 58 171 1253 866 0 0 0 0 0.25 0 0 0 0 0.5 0 0 1 64
      >
    >
    <ITEM
      POSITION 56
      SNAPOFFS 0
      LENGTH 8
      LOOP 1
      ALLTAKES 0
      FADEIN 1 0 0 1 0 0
      FADEOUT 1 0 0 1 0 0
      MUTE 0
      SEL 1
      IGUID {7D6CC218-94A2-A256-E86B-571E14493948}
      IID 17
      NAME "01-Recorded MIDI"
      VOLPAN 1 0 1 -1
      SOFFS 0 0
      PLAYRATE 1 1 0 -1 0 0.0021
      CHANMODE 0
      GUID {0980B077-679F-D0F8-9A09-B2117819E746}
      RECPASS 1
      <SOURCE MIDI
        HASDATA 1 960 QN
        CCINTERP 32
        POOLEDEVTS {E47F6CF3-1C85-4819-42A8-FD16F3394E13}
        E 0 90 3c 48
        E 0 90 40 48
        E 0 90 43 48
        E 1920 80 3c 00
        E 0 80 40 00
        E 0 80 43 00
        E 0 90 3c 48
        E 0 90 40 48
        E 0 90 43 48
        E 260 80 3c 00
        E 0 80 40 00
        E 0 80 43 00
        E 440 90 3c 48
        E 0 90 40 48
        E 0 90 43 48
        E 260 80 3c 00
        E 0 80 40 00
        E 0 80 43 00
        e 514 90 3c 48
        e 0 90 40 48
        e 0 90 43 48
        e 260 80 3c 00
        e 0 80 40 00
        e 0 80 43 00
        E 186 90 43 48
        E 0 90 47 48
        E 20 90 40 48
        E 1900 80 43 00
        E 0 80 47 00
        E 0 80 40 00
        E 0 90 43 48
        E 0 90 47 48
        E 20 90 40 48
        E 240 80 43 00
        E 0 80 47 00
        E 0 80 40 00
        E 440 90 43 48
        E 0 90 47 48
        E 20 90 40 48
        E 240 80 43 00
        E 0 80 47 00
        E 0 80 40 00
        e 514 90 43 48
        e 0 90 47 48
        e 20 90 40 48
        e 240 80 43 00
        e 0 80 47 00
        e 0 80 40 00
        E 186 90 41 48
        E 0 90 45 48
        E 0 90 48 48
        E 1920 80 41 00
        E 0 80 45 00
        E 0 80 48 00
        E 0 90 41 48
        E 0 90 45 48
        E 0 90 48 48
        E 260 80 41 00
        E 0 80 45 00
        E 0 80 48 00
        E 440 90 41 48
        E 0 90 45 48
        E 0 90 48 48
        E 260 80 41 00
        E 0 80 45 00
        E 0 80 48 00
        e 514 90 41 48
        e 0 90 45 48
        e 0 90 48 48
        e 260 80 41 00
        e 0 80 45 00
        e 0 80 48 00
        E 162 90 3e 48
        E 24 90 41 48
        E 0 90 45 48
        E 1896 90 3e 48
        E 24 80 3e 00
        E 0 80 41 00
        E 0 80 45 00
        E 0 90 41 48
        E 0 90 45 48
        E 260 80 3e 00
        E 0 80 41 00
        E 0 80 45 00
        E 416 90 3e 48
        E 24 90 41 48
        E 0 90 45 48
        E 260 80 3e 00
        E 0 80 41 00
        E 0 80 45 00
        e 490 90 3e 48
        e 24 90 41 48
        e 0 90 45 48
        e 260 80 3e 00
        e 0 80 41 00
        e 0 80 45 00
        E 186 b0 7b 00
        CHASE_CC_TAKEOFFS 1
        GUID {A64857E2-94F8-0990-20DF-4C1E9B5E6251}
        IGNTEMPO 0 120 4 4
        SRCCOLOR 24
        VELLANE -1 100 0
        CFGEDITVIEW 0 0.045808 45 12 0 -1 0 0 0 0.5
        KEYSNAP 0
        TRACKSEL 0
        EVTFILTER 0 -1 -1 -1 -1 0 0 0 0 -1 -1 -1 -1 0 -1 0 -1 -1
        CFGEDIT 1 1 0 1 0 0 1 1 1 1 1 1 58 171 1253 866 0 0 0 0 0.25 0 0 0 0 0.5 0 0 1 64
      >
    >
    <ITEM
      POSITION 64
      SNAPOFFS 0
      LENGTH 8
      LOOP 1
      ALLTAKES 0
      FADEIN 1 0 0 1 0 0
      FADEOUT 1 0 0 1 0 0
      MUTE 0
      SEL 1
      IGUID {78EED555-7D4D-DFFB-6EFC-10C5EF1A6876}
      IID 18
      NAME "01-Recorded MIDI"
      VOLPAN 1 0 1 -1
      SOFFS 0 0
      PLAYRATE 1 1 0 -1 0 0.0021
      CHANMODE 0
      GUID {D4445BA8-8355-6375-4585-2BCC7FE38409}
      RECPASS 1
      <SOURCE MIDI
        HASDATA 1 960 QN
        CCINTERP 32
        POOLEDEVTS {3E5342B6-E506-0C82-B84C-AD1797DE9B5A}
        E 0 90 3c 48
        E 0 90 40 48
        E 0 90 43 48
        E 1920 80 3c 00
        E 0 80 40 00
        E 0 80 43 00
        E 0 90 3c 48
        E 0 90 40 48
        E 0 90 43 48
        E 260 80 3c 00
        E 0 80 40 00
        E 0 80 43 00
        E 440 90 3c 48
        E 0 90 40 48
        E 0 90 43 48
        E 260 80 3c 00
        E 0 80 40 00
        E 0 80 43 00
        e 514 90 3c 48
        e 0 90 40 48
        e 0 90 43 48
        e 260 80 3c 00
        e 0 80 40 00
        e 0 80 43 00
        E 186 90 43 48
        E 0 90 47 48
        E 20 90 40 48
        E 1900 80 43 00
        E 0 80 47 00
        E 0 80 40 00
        E 0 90 43 48
        E 0 90 47 48
        E 20 90 40 48
        E 240 80 43 00
        E 0 80 47 00
        E 0 80 40 00
        E 440 90 43 48
        E 0 90 47 48
        E 20 90 40 48
        E 240 80 43 00
        E 0 80 47 00
        E 0 80 40 00
        e 514 90 43 48
        e 0 90 47 48
        e 20 90 40 48
        e 240 80 43 00
        e 0 80 47 00
        e 0 80 40 00
        E 186 90 41 48
        E 0 90 45 48
        E 0 90 48 48
        E 1920 80 41 00
        E 0 80 45 00
        E 0 80 48 00
        E 0 90 41 48
        E 0 90 45 48
        E 0 90 48 48
        E 260 80 41 00
        E 0 80 45 00
        E 0 80 48 00
        E 440 90 41 48
        E 0 90 45 48
        E 0 90 48 48
        E 260 80 41 00
        E 0 80 45 00
        E 0 80 48 00
        e 514 90 41 48
        e 0 90 45 48
        e 0 90 48 48
        e 260 80 41 00
        e 0 80 45 00
        e 0 80 48 00
        E 162 90 3e 48
        E 24 90 41 48
        E 0 90 45 48
        E 1896 90 3e 48
        E 24 80 3e 00
        E 0 80 41 00
        E 0 80 45 00
        E 0 90 41 48
        E 0 90 45 48
        E 260 80 3e 00
        E 0 80 41 00
        E 0 80 45 00
        E 416 90 3e 48
        E 24 90 41 48
        E 0 90 45 48
        E 260 80 3e 00
        E 0 80 41 00
        E 0 80 45 00
        e 490 90 3e 48
        e 24 90 41 48
        e 0 90 45 48
        e 260 80 3e 00
        e 0 80 41 00
        e 0 80 45 00
        E 186 b0 7b 00
        CHASE_CC_TAKEOFFS 1
        GUID {19362806-85F2-5D9E-E1F9-07BE0CF3D16E}
        IGNTEMPO 0 120 4 4
        SRCCOLOR 25
        VELLANE -1 100 0
        CFGEDITVIEW 0 0.045808 45 12 0 -1 0 0 0 0.5
        KEYSNAP 0
        TRACKSEL 0
        EVTFILTER 0 -1 -1 -1 -1 0 0 0 0 -1 -1 -1 -1 0 -1 0 -1 -1
        CFGEDIT 1 1 0 1 0 0 1 1 1 1 1 1 58 171 1253 866 0 0 0 0 0.25 0 0 0 0 0.5 0 0 1 64
      >
    >
    <ITEM
      POSITION 72
      SNAPOFFS 0
      LENGTH 8
      LOOP 1
      ALLTAKES 0
      FADEIN 1 0 0 1 0 0
      FADEOUT 1 0 0 1 0 0
      MUTE 0
      SEL 1
      IGUID {65E620AD-5AFB-751D-0E7C-DF304EB3DBED}
      IID 19
      NAME "01-Recorded MIDI"
      VOLPAN 1 0 1 -1
      SOFFS 0 0
      PLAYRATE 1 1 0 -1 0 0.0021
      CHANMODE 0
      GUID {FC2CCFD0-0CE7-112B-089D-9944D9D5F023}
      RECPASS 1
      <SOURCE MIDI
        HASDATA 1 960 QN
        CCINTERP 32
        POOLEDEVTS {D45ABA04-AA61-3496-2379-B75C93EE21E4}
        E 0 90 3c 48
        E 0 90 40 48
        E 0 90 43 48
        E 1920 80 3c 00
        E 0 80 40 00
        E 0 80 43 00
        E 0 90 3c 48
        E 0 90 40 48
        E 0 90 43 48
        E 260 80 3c 00
        E 0 80 40 00
        E 0 80 43 00
        E 440 90 3c 48
        E 0 90 40 48
        E 0 90 43 48
        E 260 80 3c 00
        E 0 80 40 00
        E 0 80 43 00
        e 514 90 3c 48
        e 0 90 40 48
        e 0 90 43 48
        e 260 80 3c 00
        e 0 80 40 00
        e 0 80 43 00
        E 186 90 43 48
        E 0 90 47 48
        E 20 90 40 48
        E 1900 80 43 00
        E 0 80 47 00
        E 0 80 40 00
        E 0 90 43 48
        E 0 90 47 48
        E 20 90 40 48
        E 240 80 43 00
        E 0 80 47 00
        E 0 80 40 00
        E 440 90 43 48
        E 0 90 47 48
        E 20 90 40 48
        E 240 80 43 00
        E 0 80 47 00
        E 0 80 40 00
        e 514 90 43 48
        e 0 90 47 48
        e 20 90 40 48
        e 240 80 43 00
        e 0 80 47 00
        e 0 80 40 00
        E 186 90 41 48
        E 0 90 45 48
        E 0 90 48 48
        E 1920 80 41 00
        E 0 80 45 00
        E 0 80 48 00
        E 0 90 41 48
        E 0 90 45 48
        E 0 90 48 48
        E 260 80 41 00
        E 0 80 45 00
        E 0 80 48 00
        E 440 90 41 48
        E 0 90 45 48
        E 0 90 48 48
        E 260 80 41 00
        E 0 80 45 00
        E 0 80 48 00
        e 514 90 41 48
        e 0 90 45 48
        e 0 90 48 48
        e 260 80 41 00
        e 0 80 45 00
        e 0 80 48 00
        E 162 90 3e 48
        E 24 90 41 48
        E 0 90 45 48
        E 1896 90 3e 48
        E 24 80 3e 00
        E 0 80 41 00
        E 0 80 45 00
        E 0 90 41 48
        E 0 90 45 48
        E 260 80 3e 00
        E 0 80 41 00
        E 0 80 45 00
        E 416 90 3e 48
        E 24 90 41 48
        E 0 90 45 48
        E 260 80 3e 00
        E 0 80 41 00
        E 0 80 45 00
        e 490 90 3e 48
        e 24 90 41 48
        e 0 90 45 48
        e 260 80 3e 00
        e 0 80 41 00
        e 0 80 45 00
        E 186 b0 7b 00
        CHASE_CC_TAKEOFFS 1
        GUID {6844F8A9-6BE9-023C-4A46-0A676470C99B}
        IGNTEMPO 0 120 4 4
        SRCCOLOR 26
        VELLANE -1 100 0
        CFGEDITVIEW 0 0.045808 45 12 0 -1 0 0 0 0.5
        KEYSNAP 0
        TRACKSEL 0
        EVTFILTER 0 -1 -1 -1 -1 0 0 0 0 -1 -1 -1 -1 0 -1 0 -1 -1
        CFGEDIT 1 1 0 1 0 0 1 1 1 1 1 1 58 171 1253 866 0 0 0 0 0.25 0 0 0 0 0.5 0 0 1 64
      >
    >
    <ITEM
      POSITION 80
      SNAPOFFS 0
      LENGTH 8
      LOOP 1
      ALLTAKES 0
      FADEIN 1 0 0 1 0 0
      FADEOUT 1 0 0 1 0 0
      MUTE 0
      SEL 1
      IGUID {39041EE6-24DF-81D6-BC67-FDAF14EF610A}
      IID 20
      NAME "01-Recorded MIDI"
      VOLPAN 1 0 1 -1
      SOFFS 0 0
      PLAYRATE 1 1 0 -1 0 0.0021
      CHANMODE 0
      GUID {98C45833-8074-E0BE-A043-D7762F630C10}
      RECPASS 1
      <SOURCE MIDI
        HASDATA 1 960 QN
        CCINTERP 32
        POOLEDEVTS {12DCE38A-8999-E6E4-AD27-B2508A6F33DA}
        E 0 90 3c 48
        E 0 90 40 48
        E 0 90 43 48
        E 1920 80 3c 00
        E 0 80 40 00
        E 0 80 43 00
        E 0 90 3c 48
        E 0 90 40 48
        E 0 90 43 48
        E 260 80 3c 00
        E 0 80 40 00
        E 0 80 43 00
        E 440 90 3c 48
        E 0 90 40 48
        E 0 90 43 48
        E 260 80 3c 00
        E 0 80 40 00
        E 0 80 43 00
        e 514 90 3c 48
        e 0 90 40 48
        e 0 90 43 48
        e 260 80 3c 00
        e 0 80 40 00
        e 0 80 43 00
        E 186 90 43 48
        E 0 90 47 48
        E 20 90 40 48
        E 1900 80 43 00
        E 0 80 47 00
        E 0 80 40 00
        E 0 90 43 48
        E 0 90 47 48
        E 20 90 40 48
        E 240 80 43 00
        E 0 80 47 00
        E 0 80 40 00
        E 440 90 43 48
        E 0 90 47 48
        E 20 90 40 48
        E 240 80 43 00
        E 0 80 47 00
        E 0 80 40 00
        e 514 90 43 48
        e 0 90 47 48
        e 20 90 40 48
        e 240 80 43 00
        e 0 80 47 00
        e 0 80 40 00
        E 186 90 41 48
        E 0 90 45 48
        E 0 90 48 48
        E 1920 80 41 00
        E 0 80 45 00
        E 0 80 48 00
        E 0 90 41 48
        E 0 90 45 48
        E 0 90 48 48
        E 260 80 41 00
        E 0 80 45 00
        E 0 80 48 00
        E 440 90 41 48
        E 0 90 45 48
        E 0 90 48 48
        E 260 80 41 00
        E 0 80 45 00
        E 0 80 48 00
        e 514 90 41 48
        e 0 90 45 48
        e 0 90 48 48
        e 260 80 41 00
        e 0 80 45 00
        e 0 80 48 00
        E 162 90 3e 48
        E 24 90 41 48
        E 0 90 45 48
        E 1896 90 3e 48
        E 24 80 3e 00
        E 0 80 41 00
        E 0 80 45 00
        E 0 90 41 48
        E 0 90 45 48
        E 260 80 3e 00
        E 0 80 41 00
        E 0 80 45 00
        E 416 90 3e 48
        E 24 90 41 48
        E 0 90 45 48
        E 260 80 3e 00
        E 0 80 41 00
        E 0 80 45 00
        e 490 90 3e 48
        e 24 90 41 48
        e 0 90 45 48
        e 260 80 3e 00
        e 0 80 41 00
        e 0 80 45 00
        E 186 b0 7b 00
        CHASE_CC_TAKEOFFS 1
        GUID {E611ADB6-4869-6CCA-8E83-3954D5E743B1}
        IGNTEMPO 0 120 4 4
        SRCCOLOR 27
        VELLANE -1 100 0
        CFGEDITVIEW 0 0.045808 45 12 0 -1 0 0 0 0.5
        KEYSNAP 0
        TRACKSEL 0
        EVTFILTER 0 -1 -1 -1 -1 0 0 0 0 -1 -1 -1 -1 0 -1 0 -1 -1
        CFGEDIT 1 1 0 1 0 0 1 1 1 1 1 1 58 171 1253 866 0 0 0 0 0.25 0 0 0 0 0.5 0 0 1 64
      >
    >
    <ITEM
      POSITION 88
      SNAPOFFS 0
      LENGTH 8
      LOOP 1
      ALLTAKES 0
      FADEIN 1 0 0 1 0 0
      FADEOUT 1 0 0 1 0 0
      MUTE 0
      SEL 1
      IGUID {C223B5CC-BF01-05F5-038E-C3E5F0675432}
      IID 21
      NAME "01-Recorded MIDI"
      VOLPAN 1 0 1 -1
      SOFFS 0 0
      PLAYRATE 1 1 0 -1 0 0.0021
      CHANMODE 0
      GUID {5D7B307C-127A-609C-6EBB-F02A13B6589F}
      RECPASS 1
      <SOURCE MIDI
        HASDATA 1 960 QN
        CCINTERP 32
        POOLEDEVTS {BB5D5A88-A29B-62DB-84EC-C3002F60BEAD}
        E 0 90 3c 48
        E 0 90 40 48
        E 0 90 43 48
        E 1920 80 3c 00
        E 0 80 40 00
        E 0 80 43 00
        E 0 90 3c 48
        E 0 90 40 48
        E 0 90 43 48
        E 260 80 3c 00
        E 0 80 40 00
        E 0 80 43 00
        E 440 90 3c 48
        E 0 90 40 48
        E 0 90 43 48
        E 260 80 3c 00
        E 0 80 40 00
        E 0 80 43 00
        e 514 90 3c 48
        e 0 90 40 48
        e 0 90 43 48
        e 260 80 3c 00
        e 0 80 40 00
        e 0 80 43 00
        E 186 90 43 48
        E 0 90 47 48
        E 20 90 40 48
        E 1900 80 43 00
        E 0 80 47 00
        E 0 80 40 00
        E 0 90 43 48
        E 0 90 47 48
        E 20 90 40 48
        E 240 80 43 00
        E 0 80 47 00
        E 0 80 40 00
        E 440 90 43 48
        E 0 90 47 48
        E 20 90 40 48
        E 240 80 43 00
        E 0 80 47 00
        E 0 80 40 00
        e 514 90 43 48
        e 0 90 47 48
        e 20 90 40 48
        e 240 80 43 00
        e 0 80 47 00
        e 0 80 40 00
        E 186 90 41 48
        E 0 90 45 48
        E 0 90 48 48
        E 1920 80 41 00
        E 0 80 45 00
        E 0 80 48 00
        E 0 90 41 48
        E 0 90 45 48
        E 0 90 48 48
        E 260 80 41 00
        E 0 80 45 00
        E 0 80 48 00
        E 440 90 41 48
        E 0 90 45 48
        E 0 90 48 48
        E 260 80 41 00
        E 0 80 45 00
        E 0 80 48 00
        e 514 90 41 48
        e 0 90 45 48
        e 0 90 48 48
        e 260 80 41 00
        e 0 80 45 00
        e 0 80 48 00
        E 162 90 3e 48
        E 24 90 41 48
        E 0 90 45 48
        E 1896 90 3e 48
        E 24 80 3e 00
        E 0 80 41 00
        E 0 80 45 00
        E 0 90 41 48
        E 0 90 45 48
        E 260 80 3e 00
        E 0 80 41 00
        E 0 80 45 00
        E 416 90 3e 48
        E 24 90 41 48
        E 0 90 45 48
        E 260 80 3e 00
        E 0 80 41 00
        E 0 80 45 00
        e 490 90 3e 48
        e 24 90 41 48
        e 0 90 45 48
        e 260 80 3e 00
        e 0 80 41 00
        e 0 80 45 00
        E 186 b0 7b 00
        CHASE_CC_TAKEOFFS 1
        GUID {C762B555-17FC-D765-5340-11D3487D2955}
        IGNTEMPO 0 120 4 4
        SRCCOLOR 28
        VELLANE -1 100 0
        CFGEDITVIEW 0 0.045808 45 12 0 -1 0 0 0 0.5
        KEYSNAP 0
        TRACKSEL 0
        EVTFILTER 0 -1 -1 -1 -1 0 0 0 0 -1 -1 -1 -1 0 -1 0 -1 -1
        CFGEDIT 1 1 0 1 0 0 1 1 1 1 1 1 58 171 1253 866 0 0 0 0 0.25 0 0 0 0 0.5 0 0 1 64
      >
    >
  >
  <TRACK {1EC8776F-E040-2927-38C9-3DFC6D3E5694}
    NAME ""
    PEAKCOL 16576
    BEAT -1
    AUTOMODE 0
    VOLPAN 0.00052194381917 0 -1 -1 1
    MUTESOLO 0 0 0
    IPHASE 0
    PLAYOFFS 0 1
    ISBUS 0 0
    BUSCOMP 0 0 0 0 0
    SHOWINMIX 1 0.6667 0.5 1 0.5 0 0 0
    FREEMODE 0
    SEL 0
    REC 0 5056 1 0 0 0 0
    VU 2
    TRACKHEIGHT 21 0 0
    INQ 0 0 0 0.5 100 0 0 100
    NCHAN 2
    FX 0
    TRACKID {1EC8776F-E040-2927-38C9-3DFC6D3E5694}
    PERF 0
    MIDIOUT -1
    MAINSEND 1 0
    <FXCHAIN
      WNDRECT 346 266 902 608
      SHOW 0
      LASTSEL 5
      DOCKED 0
      BYPASS 0 0 0
      <VST "VST: ReaEQ (Cockos)" reaeq.vst.so 0 "" 1919247729<56535472656571726561657100000000> ""
        cWVlcu5e7f4CAAAAAQAAAAAAAAACAAAAAAAAAAIAAAABAAAAAAAAAAIAAAAAAAAAqAAAAAEAAAAAABAA
        IQAAAAQAAAAEAAAAAQAAAEC4Xhmm+DRAAAAAAAAA8D8AAAAAAAAAQAEIAAAAAQAAAAAAAAAAwHJAAAAAAAAA8D8AAAAAAAAAQAEIAAAAAQAAAAAAAAAAQI9AAAAAAAAA
        8D8AAAAAAAAAQAEDAAAAAQAAAAABaCorbdRAAAAAAAAA8D8AAAAAAAAAQAEBAAAAAQAAAAAAAAAAAPA/AAAAAJoCAACcAQAA
        AEhpZ2ggbG93IHBhc3MAEAAAAA==
      >
      PRESETNAME "High low pass"
      FLOATPOS 0 0 0 0
      FXID {B9B59A48-E036-8348-4699-7A1127972C9F}
      WAK 0 0
      BYPASS 0 0 0
      <VST "VSTi: ReaSynth (Cockos)" reasynth.vst.so 0 "" 1919251321<5653547265737972656173796E746800> ""
        eXNlcu9e7f4AAAAAAgAAAAEAAAAAAAAAAgAAAAAAAAA8AAAAAAAAAAAAEAA=
        776t3g3wrd6lm8Q7F7fROgAAAAAAAAAAAAAAAJCNuT3oZ4g9AACAPwAAAD8AAIA/AAAAAAAAAD8AAAAA
        AAAQAAAA
      >
      FLOATPOS 0 0 0 0
      FXID {88D51763-628A-83AE-7547-9FEBC993584B}
      WAK 0 0
      BYPASS 0 0 0
      <JS guitar/amp-model ""
        "Dumble Overdrive Special - Tweed Deluxe.wav" -21.000000 1.000000 0.000000 0.000000 -1.000000 - - - - - - - - - - - - - - - - - - - - - - - - - - - - - - - - - - - - - - - - - - - - - - - - - - - - - - - - - - 
      >
      FLOATPOS 0 0 0 0
      FXID {6F5738EA-9976-5437-D3C6-1738F1D783DF}
      WAK 0 0
      BYPASS 0 0 0
      <VST "VST: ReaComp (Cockos)" reacomp.vst.so 0 "" 1919247213<5653547265636D726561636F6D700000> ""
        bWNlcu9e7f4EAAAAAQAAAAAAAAACAAAAAAAAAAQAAAAAAAAACAAAAAAAAAACAAAAAQAAAAAAAAACAAAAAAAAAFQAAAAAAAAAAAAQAA==
        776t3g3wrd5FoYg9/AWpPKWbxDsK16M8AAAAAAAAAAAAAIA/AAAAAAAAAAAAAAAAnNEHMwAAgD8AAAAAzMxMPQAAAAAAAAAAAAAAAAAAgD7YiZ09
        AAAQAAAA
      >
      FLOATPOS 0 0 0 0
      FXID {941E07F4-BC83-9C03-873C-5402D889AC14}
      WAK 0 0
      BYPASS 0 0 0
      <VST "VST: ReaDelay (Cockos)" readelay.vst.so 0 "" 1919247468<5653547265646C72656164656C617900> ""
        bGRlcu5e7f4CAAAAAQAAAAAAAAACAAAAAAAAAAIAAAABAAAAAAAAAAIAAAAAAAAA/AAAAAEAAAAAAAAA
        AAAAAAAAAAAFAAAALAAAAAIAAAAEAAAAAACAPwAAgD8AAAAAAACAPwAAAAAAAIA7vTeGNQAAgD8AAAAAAACAPwAAgD8AAIA/AAAAAAAAAAAAAIA/AAAAAAAAADwAAAAA
        AACAPwAAAAAAAIA/AACAP+87NT8AAIA/AAAAAAAAgD8AAAAAAABAPL03hjUAAIA/AAAAAAAAgD8AAIA/zk0AP6abhD4AAAAAAACAPwAAAAAAAIA8vTeGNQAAgD8AAAAA
        AACAPwAAgD8aqrU+pHA9PwAAAAAAAIA/AAAAAAAAoDy9N4Y1AACAPwAAAAAAAIA/AACAP/npAD4AAAA/
        AHN0b2NrIC0gYmFzaWMgNSB0YXAgcGluZyBwb25nAAAAAAA=
      >
      PRESETNAME "stock - basic 5 tap ping pong"
      FLOATPOS 0 0 0 0
      FXID {E495FE64-D974-8AB1-310C-E07D8AE8DDB9}
      WAK 0 0
      BYPASS 0 0 0
      <VST "VST: ReaVerb (Cockos)" reaverb.vst.so 0 "" 1919252066<56535472657662726561766572620000> ""
        YnZlcu5e7f4CAAAAAQAAAAAAAAACAAAAAAAAAAIAAAABAAAAAAAAAAIAAAAAAAAAcAAAAAEAAAAAAAAA
        AAAAwcybgD4AAIA/AAAAAAAAgD8AAIA/AAAAPwAAgD8AAAAAVkVSQkdFTgAYAAAAAAAAAJHgV0QdrLRA3rK7QsHIjEIAAIC/RUNIT0dFTgAcAAAAy/i2QLUjdUJdzdM/
        osdfP5lRrzyRzYxAnMQAPw==
        AHN3ZWV0dmVyYm8AAAAAAA==
      >
      PRESETNAME sweetverbo
      FLOATPOS 0 0 0 0
      FXID {E0A40EEE-5C77-AB66-6DA3-F42A9409F209}
      WAK 0 0
    >
    <ITEM
      POSITION 0
      SNAPOFFS 0
      LENGTH 8
      LOOP 1
      ALLTAKES 0
      FADEIN 1 0 0 1 0 0
      FADEOUT 1 0 0 1 0 0
      MUTE 0
      SEL 1
      IGUID {9114E406-D0CD-2131-372E-2A8935BE3BAE}
      IID 10
      NAME "01-Recorded MIDI"
      VOLPAN 1 0 1 -1
      SOFFS 0 0
      PLAYRATE 1 1 0 -1 0 0.0021
      CHANMODE 0
      GUID {BE29A85A-4D18-CDBE-0A65-48D614DDD9B0}
      RECPASS 1
      <SOURCE MIDI
        HASDATA 1 960 QN
        CCINTERP 32
        POOLEDEVTS {5CEA5A39-C2B3-FDE5-B5C3-65F791230A49}
        E 0 90 3c 48
        E 0 90 40 48
        E 0 90 43 48
        E 1920 80 3c 00
        E 0 80 40 00
        E 0 80 43 00
        E 0 90 3c 48
        E 0 90 40 48
        E 0 90 43 48
        E 260 80 3c 00
        E 0 80 40 00
        E 0 80 43 00
        E 440 90 3c 48
        E 0 90 40 48
        E 0 90 43 48
        E 260 80 3c 00
        E 0 80 40 00
        E 0 80 43 00
        e 514 90 3c 48
        e 0 90 40 48
        e 0 90 43 48
        e 260 80 3c 00
        e 0 80 40 00
        e 0 80 43 00
        E 186 90 43 48
        E 0 90 47 48
        E 20 90 40 48
        E 1900 80 43 00
        E 0 80 47 00
        E 0 80 40 00
        E 0 90 43 48
        E 0 90 47 48
        E 20 90 40 48
        E 240 80 43 00
        E 0 80 47 00
        E 0 80 40 00
        E 440 90 43 48
        E 0 90 47 48
        E 20 90 40 48
        E 240 80 43 00
        E 0 80 47 00
        E 0 80 40 00
        e 514 90 43 48
        e 0 90 47 48
        e 20 90 40 48
        e 240 80 43 00
        e 0 80 47 00
        e 0 80 40 00
        E 186 90 41 48
        E 0 90 45 48
        E 0 90 48 48
        E 1920 80 41 00
        E 0 80 45 00
        E 0 80 48 00
        E 0 90 41 48
        E 0 90 45 48
        E 0 90 48 48
        E 260 80 41 00
        E 0 80 45 00
        E 0 80 48 00
        E 440 90 41 48
        E 0 90 45 48
        E 0 90 48 48
        E 260 80 41 00
        E 0 80 45 00
        E 0 80 48 00
        e 514 90 41 48
        e 0 90 45 48
        e 0 90 48 48
        e 260 80 41 00
        e 0 80 45 00
        e 0 80 48 00
        E 162 90 3e 48
        E 24 90 41 48
        E 0 90 45 48
        E 1896 90 3e 48
        E 24 80 3e 00
        E 0 80 41 00
        E 0 80 45 00
        E 0 90 41 48
        E 0 90 45 48
        E 260 80 3e 00
        E 0 80 41 00
        E 0 80 45 00
        E 416 90 3e 48
        E 24 90 41 48
        E 0 90 45 48
        E 260 80 3e 00
        E 0 80 41 00
        E 0 80 45 00
        e 490 90 3e 48
        e 24 90 41 48
        e 0 90 45 48
        e 260 80 3e 00
        e 0 80 41 00
        e 0 80 45 00
        E 186 b0 7b 00
        CHASE_CC_TAKEOFFS 1
        GUID {7B9D708B-43E1-C8D4-C4B3-87E2A6C27801}
        IGNTEMPO 0 120 4 4
        SRCCOLOR 17
        VELLANE -1 100 0
        CFGEDITVIEW 0 0.045808 45 12 0 -1 0 0 0 0.5
        KEYSNAP 0
        TRACKSEL 0
        EVTFILTER 0 -1 -1 -1 -1 0 0 0 0 -1 -1 -1 -1 0 -1 0 -1 -1
        CFGEDIT 1 1 0 1 0 0 1 1 1 1 1 1 58 171 1253 866 0 0 0 0 0.25 0 0 0 0 0.5 0 0 1 64
      >
    >
    <ITEM
      POSITION 8
      SNAPOFFS 0
      LENGTH 8
      LOOP 1
      ALLTAKES 0
      FADEIN 1 0 0 1 0 0
      FADEOUT 1 0 0 1 0 0
      MUTE 0
      SEL 1
      IGUID {65ADC946-83D0-357C-227C-90000A8D8E61}
      IID 11
      NAME "01-Recorded MIDI"
      VOLPAN 1 0 1 -1
      SOFFS 0 0
      PLAYRATE 1 1 0 -1 0 0.0021
      CHANMODE 0
      GUID {638E450D-AA68-D636-A280-1B3870D7BD1D}
      RECPASS 1
      <SOURCE MIDI
        HASDATA 1 960 QN
        CCINTERP 32
        POOLEDEVTS {5DB9774F-923D-4F3D-3944-1FCDCA3466E6}
        E 0 90 3c 48
        E 0 90 40 48
        E 0 90 43 48
        E 1920 80 3c 00
        E 0 80 40 00
        E 0 80 43 00
        E 0 90 3c 48
        E 0 90 40 48
        E 0 90 43 48
        E 260 80 3c 00
        E 0 80 40 00
        E 0 80 43 00
        E 440 90 3c 48
        E 0 90 40 48
        E 0 90 43 48
        E 260 80 3c 00
        E 0 80 40 00
        E 0 80 43 00
        e 514 90 3c 48
        e 0 90 40 48
        e 0 90 43 48
        e 260 80 3c 00
        e 0 80 40 00
        e 0 80 43 00
        E 186 90 43 48
        E 0 90 47 48
        E 20 90 40 48
        E 1900 80 43 00
        E 0 80 47 00
        E 0 80 40 00
        E 0 90 43 48
        E 0 90 47 48
        E 20 90 40 48
        E 240 80 43 00
        E 0 80 47 00
        E 0 80 40 00
        E 440 90 43 48
        E 0 90 47 48
        E 20 90 40 48
        E 240 80 43 00
        E 0 80 47 00
        E 0 80 40 00
        e 514 90 43 48
        e 0 90 47 48
        e 20 90 40 48
        e 240 80 43 00
        e 0 80 47 00
        e 0 80 40 00
        E 186 90 41 48
        E 0 90 45 48
        E 0 90 48 48
        E 1920 80 41 00
        E 0 80 45 00
        E 0 80 48 00
        E 0 90 41 48
        E 0 90 45 48
        E 0 90 48 48
        E 260 80 41 00
        E 0 80 45 00
        E 0 80 48 00
        E 440 90 41 48
        E 0 90 45 48
        E 0 90 48 48
        E 260 80 41 00
        E 0 80 45 00
        E 0 80 48 00
        e 514 90 41 48
        e 0 90 45 48
        e 0 90 48 48
        e 260 80 41 00
        e 0 80 45 00
        e 0 80 48 00
        E 162 90 3e 48
        E 24 90 41 48
        E 0 90 45 48
        E 1896 90 3e 48
        E 24 80 3e 00
        E 0 80 41 00
        E 0 80 45 00
        E 0 90 41 48
        E 0 90 45 48
        E 260 80 3e 00
        E 0 80 41 00
        E 0 80 45 00
        E 416 90 3e 48
        E 24 90 41 48
        E 0 90 45 48
        E 260 80 3e 00
        E 0 80 41 00
        E 0 80 45 00
        e 490 90 3e 48
        e 24 90 41 48
        e 0 90 45 48
        e 260 80 3e 00
        e 0 80 41 00
        e 0 80 45 00
        E 186 b0 7b 00
        CHASE_CC_TAKEOFFS 1
        GUID {3131B4E2-B370-E352-A9C5-C8CA31551A86}
        IGNTEMPO 0 120 4 4
        SRCCOLOR 18
        VELLANE -1 100 0
        CFGEDITVIEW 0 0.045808 45 12 0 -1 0 0 0 0.5
        KEYSNAP 0
        TRACKSEL 0
        EVTFILTER 0 -1 -1 -1 -1 0 0 0 0 -1 -1 -1 -1 0 -1 0 -1 -1
        CFGEDIT 1 1 0 1 0 0 1 1 1 1 1 1 58 171 1253 866 0 0 0 0 0.25 0 0 0 0 0.5 0 0 1 64
      >
    >
    <ITEM
      POSITION 16
      SNAPOFFS 0
      LENGTH 8
      LOOP 1
      ALLTAKES 0
      FADEIN 1 0 0 1 0 0
      FADEOUT 1 0 0 1 0 0
      MUTE 0
      SEL 1
      IGUID {D2F67215-6EED-10B7-473F-93D18F6791B2}
      IID 12
      NAME "01-Recorded MIDI"
      VOLPAN 1 0 1 -1
      SOFFS 0 0
      PLAYRATE 1 1 0 -1 0 0.0021
      CHANMODE 0
      GUID {D7A6120C-BFA8-77EA-F6E1-9E7D701497A3}
      RECPASS 1
      <SOURCE MIDI
        HASDATA 1 960 QN
        CCINTERP 32
        POOLEDEVTS {F934DE6C-E684-6B8A-FC06-FAFA837EEF90}
        E 0 90 3c 48
        E 0 90 40 48
        E 0 90 43 48
        E 1920 80 3c 00
        E 0 80 40 00
        E 0 80 43 00
        E 0 90 3c 48
        E 0 90 40 48
        E 0 90 43 48
        E 260 80 3c 00
        E 0 80 40 00
        E 0 80 43 00
        E 440 90 3c 48
        E 0 90 40 48
        E 0 90 43 48
        E 260 80 3c 00
        E 0 80 40 00
        E 0 80 43 00
        e 514 90 3c 48
        e 0 90 40 48
        e 0 90 43 48
        e 260 80 3c 00
        e 0 80 40 00
        e 0 80 43 00
        E 186 90 43 48
        E 0 90 47 48
        E 20 90 40 48
        E 1900 80 43 00
        E 0 80 47 00
        E 0 80 40 00
        E 0 90 43 48
        E 0 90 47 48
        E 20 90 40 48
        E 240 80 43 00
        E 0 80 47 00
        E 0 80 40 00
        E 440 90 43 48
        E 0 90 47 48
        E 20 90 40 48
        E 240 80 43 00
        E 0 80 47 00
        E 0 80 40 00
        e 514 90 43 48
        e 0 90 47 48
        e 20 90 40 48
        e 240 80 43 00
        e 0 80 47 00
        e 0 80 40 00
        E 186 90 41 48
        E 0 90 45 48
        E 0 90 48 48
        E 1920 80 41 00
        E 0 80 45 00
        E 0 80 48 00
        E 0 90 41 48
        E 0 90 45 48
        E 0 90 48 48
        E 260 80 41 00
        E 0 80 45 00
        E 0 80 48 00
        E 440 90 41 48
        E 0 90 45 48
        E 0 90 48 48
        E 260 80 41 00
        E 0 80 45 00
        E 0 80 48 00
        e 514 90 41 48
        e 0 90 45 48
        e 0 90 48 48
        e 260 80 41 00
        e 0 80 45 00
        e 0 80 48 00
        E 162 90 3e 48
        E 24 90 41 48
        E 0 90 45 48
        E 1896 90 3e 48
        E 24 80 3e 00
        E 0 80 41 00
        E 0 80 45 00
        E 0 90 41 48
        E 0 90 45 48
        E 260 80 3e 00
        E 0 80 41 00
        E 0 80 45 00
        E 416 90 3e 48
        E 24 90 41 48
        E 0 90 45 48
        E 260 80 3e 00
        E 0 80 41 00
        E 0 80 45 00
        e 490 90 3e 48
        e 24 90 41 48
        e 0 90 45 48
        e 260 80 3e 00
        e 0 80 41 00
        e 0 80 45 00
        E 186 b0 7b 00
        CHASE_CC_TAKEOFFS 1
        GUID {48C567A2-895C-FB9B-FDBA-0ADB7004ABF3}
        IGNTEMPO 0 120 4 4
        SRCCOLOR 19
        VELLANE -1 100 0
        CFGEDITVIEW 0 0.045808 45 12 0 -1 0 0 0 0.5
        KEYSNAP 0
        TRACKSEL 0
        EVTFILTER 0 -1 -1 -1 -1 0 0 0 0 -1 -1 -1 -1 0 -1 0 -1 -1
        CFGEDIT 1 1 0 1 0 0 1 1 1 1 1 1 58 171 1253 866 0 0 0 0 0.25 0 0 0 0 0.5 0 0 1 64
      >
    >
    <ITEM
      POSITION 24
      SNAPOFFS 0
      LENGTH 8
      LOOP 1
      ALLTAKES 0
      FADEIN 1 0 0 1 0 0
      FADEOUT 1 0 0 1 0 0
      MUTE 0
      SEL 1
      IGUID {9188D91A-8CAA-4092-6C0B-A8B904CB0CBB}
      IID 13
      NAME "01-Recorded MIDI"
      VOLPAN 1 0 1 -1
      SOFFS 0 0
      PLAYRATE 1 1 0 -1 0 0.0021
      CHANMODE 0
      GUID {736F3DBE-2A15-283D-7165-880276E66AC6}
      RECPASS 1
      <SOURCE MIDI
        HASDATA 1 960 QN
        CCINTERP 32
        POOLEDEVTS {260AEFB2-9D5F-FAD0-CCC7-1CA5771BC358}
        E 0 90 3c 48
        E 0 90 40 48
        E 0 90 43 48
        E 1920 80 3c 00
        E 0 80 40 00
        E 0 80 43 00
        E 0 90 3c 48
        E 0 90 40 48
        E 0 90 43 48
        E 260 80 3c 00
        E 0 80 40 00
        E 0 80 43 00
        E 440 90 3c 48
        E 0 90 40 48
        E 0 90 43 48
        E 260 80 3c 00
        E 0 80 40 00
        E 0 80 43 00
        e 514 90 3c 48
        e 0 90 40 48
        e 0 90 43 48
        e 260 80 3c 00
        e 0 80 40 00
        e 0 80 43 00
        E 186 90 43 48
        E 0 90 47 48
        E 20 90 40 48
        E 1900 80 43 00
        E 0 80 47 00
        E 0 80 40 00
        E 0 90 43 48
        E 0 90 47 48
        E 20 90 40 48
        E 240 80 43 00
        E 0 80 47 00
        E 0 80 40 00
        E 440 90 43 48
        E 0 90 47 48
        E 20 90 40 48
        E 240 80 43 00
        E 0 80 47 00
        E 0 80 40 00
        e 514 90 43 48
        e 0 90 47 48
        e 20 90 40 48
        e 240 80 43 00
        e 0 80 47 00
        e 0 80 40 00
        E 186 90 41 48
        E 0 90 45 48
        E 0 90 48 48
        E 1920 80 41 00
        E 0 80 45 00
        E 0 80 48 00
        E 0 90 41 48
        E 0 90 45 48
        E 0 90 48 48
        E 260 80 41 00
        E 0 80 45 00
        E 0 80 48 00
        E 440 90 41 48
        E 0 90 45 48
        E 0 90 48 48
        E 260 80 41 00
        E 0 80 45 00
        E 0 80 48 00
        e 514 90 41 48
        e 0 90 45 48
        e 0 90 48 48
        e 260 80 41 00
        e 0 80 45 00
        e 0 80 48 00
        E 162 90 3e 48
        E 24 90 41 48
        E 0 90 45 48
        E 1896 90 3e 48
        E 24 80 3e 00
        E 0 80 41 00
        E 0 80 45 00
        E 0 90 41 48
        E 0 90 45 48
        E 260 80 3e 00
        E 0 80 41 00
        E 0 80 45 00
        E 416 90 3e 48
        E 24 90 41 48
        E 0 90 45 48
        E 260 80 3e 00
        E 0 80 41 00
        E 0 80 45 00
        e 490 90 3e 48
        e 24 90 41 48
        e 0 90 45 48
        e 260 80 3e 00
        e 0 80 41 00
        e 0 80 45 00
        E 186 b0 7b 00
        CHASE_CC_TAKEOFFS 1
        GUID {1DE38800-E2A1-41B5-9C8C-3291891093B1}
        IGNTEMPO 0 120 4 4
        SRCCOLOR 20
        VELLANE -1 100 0
        CFGEDITVIEW 0 0.045808 45 12 0 -1 0 0 0 0.5
        KEYSNAP 0
        TRACKSEL 0
        EVTFILTER 0 -1 -1 -1 -1 0 0 0 0 -1 -1 -1 -1 0 -1 0 -1 -1
        CFGEDIT 1 1 0 1 0 0 1 1 1 1 1 1 58 171 1253 866 0 0 0 0 0.25 0 0 0 0 0.5 0 0 1 64
      >
    >
    <ITEM
      POSITION 32
      SNAPOFFS 0
      LENGTH 8
      LOOP 1
      ALLTAKES 0
      FADEIN 1 0 0 1 0 0
      FADEOUT 1 0 0 1 0 0
      MUTE 0
      SEL 1
      IGUID {7CD5B569-2F06-7C32-5F85-8ED42B1C9E56}
      IID 14
      NAME "01-Recorded MIDI"
      VOLPAN 1 0 1 -1
      SOFFS 0 0
      PLAYRATE 1 1 0 -1 0 0.0021
      CHANMODE 0
      GUID {289993E1-5DEB-8126-C055-45C3705F634A}
      RECPASS 1
      <SOURCE MIDI
        HASDATA 1 960 QN
        CCINTERP 32
        POOLEDEVTS {EC4D9530-95B1-75A8-4DCA-D6915CF6224F}
        E 0 90 3c 48
        E 0 90 40 48
        E 0 90 43 48
        E 1920 80 3c 00
        E 0 80 40 00
        E 0 80 43 00
        E 0 90 3c 48
        E 0 90 40 48
        E 0 90 43 48
        E 260 80 3c 00
        E 0 80 40 00
        E 0 80 43 00
        E 440 90 3c 48
        E 0 90 40 48
        E 0 90 43 48
        E 260 80 3c 00
        E 0 80 40 00
        E 0 80 43 00
        e 514 90 3c 48
        e 0 90 40 48
        e 0 90 43 48
        e 260 80 3c 00
        e 0 80 40 00
        e 0 80 43 00
        E 186 90 43 48
        E 0 90 47 48
        E 20 90 40 48
        E 1900 80 43 00
        E 0 80 47 00
        E 0 80 40 00
        E 0 90 43 48
        E 0 90 47 48
        E 20 90 40 48
        E 240 80 43 00
        E 0 80 47 00
        E 0 80 40 00
        E 440 90 43 48
        E 0 90 47 48
        E 20 90 40 48
        E 240 80 43 00
        E 0 80 47 00
        E 0 80 40 00
        e 514 90 43 48
        e 0 90 47 48
        e 20 90 40 48
        e 240 80 43 00
        e 0 80 47 00
        e 0 80 40 00
        E 186 90 41 48
        E 0 90 45 48
        E 0 90 48 48
        E 1920 80 41 00
        E 0 80 45 00
        E 0 80 48 00
        E 0 90 41 48
        E 0 90 45 48
        E 0 90 48 48
        E 260 80 41 00
        E 0 80 45 00
        E 0 80 48 00
        E 440 90 41 48
        E 0 90 45 48
        E 0 90 48 48
        E 260 80 41 00
        E 0 80 45 00
        E 0 80 48 00
        e 514 90 41 48
        e 0 90 45 48
        e 0 90 48 48
        e 260 80 41 00
        e 0 80 45 00
        e 0 80 48 00
        E 162 90 3e 48
        E 24 90 41 48
        E 0 90 45 48
        E 1896 90 3e 48
        E 24 80 3e 00
        E 0 80 41 00
        E 0 80 45 00
        E 0 90 41 48
        E 0 90 45 48
        E 260 80 3e 00
        E 0 80 41 00
        E 0 80 45 00
        E 416 90 3e 48
        E 24 90 41 48
        E 0 90 45 48
        E 260 80 3e 00
        E 0 80 41 00
        E 0 80 45 00
        e 490 90 3e 48
        e 24 90 41 48
        e 0 90 45 48
        e 260 80 3e 00
        e 0 80 41 00
        e 0 80 45 00
        E 186 b0 7b 00
        CHASE_CC_TAKEOFFS 1
        GUID {0C3271F4-E233-9088-9B25-A722FAE7C579}
        IGNTEMPO 0 120 4 4
        SRCCOLOR 21
        VELLANE -1 100 0
        CFGEDITVIEW 0 0.045808 45 12 0 -1 0 0 0 0.5
        KEYSNAP 0
        TRACKSEL 0
        EVTFILTER 0 -1 -1 -1 -1 0 0 0 0 -1 -1 -1 -1 0 -1 0 -1 -1
        CFGEDIT 1 1 0 1 0 0 1 1 1 1 1 1 58 171 1253 866 0 0 0 0 0.25 0 0 0 0 0.5 0 0 1 64
      >
    >
    <ITEM
      POSITION 40
      SNAPOFFS 0
      LENGTH 8
      LOOP 1
      ALLTAKES 0
      FADEIN 1 0 0 1 0 0
      FADEOUT 1 0 0 1 0 0
      MUTE 0
      SEL 1
      IGUID {61C612C6-ADDF-F575-9303-E83F08E347AD}
      IID 15
      NAME "01-Recorded MIDI"
      VOLPAN 1 0 1 -1
      SOFFS 0 0
      PLAYRATE 1 1 0 -1 0 0.0021
      CHANMODE 0
      GUID {9B43BD83-2011-30BF-BA49-5FF508A8DCB6}
      RECPASS 1
      <SOURCE MIDI
        HASDATA 1 960 QN
        CCINTERP 32
        POOLEDEVTS {A6C464B0-7AA0-BA60-5D93-7007CB19A0BA}
        E 0 90 3c 48
        E 0 90 40 48
        E 0 90 43 48
        E 1920 80 3c 00
        E 0 80 40 00
        E 0 80 43 00
        E 0 90 3c 48
        E 0 90 40 48
        E 0 90 43 48
        E 260 80 3c 00
        E 0 80 40 00
        E 0 80 43 00
        E 440 90 3c 48
        E 0 90 40 48
        E 0 90 43 48
        E 260 80 3c 00
        E 0 80 40 00
        E 0 80 43 00
        e 514 90 3c 48
        e 0 90 40 48
        e 0 90 43 48
        e 260 80 3c 00
        e 0 80 40 00
        e 0 80 43 00
        E 186 90 43 48
        E 0 90 47 48
        E 20 90 40 48
        E 1900 80 43 00
        E 0 80 47 00
        E 0 80 40 00
        E 0 90 43 48
        E 0 90 47 48
        E 20 90 40 48
        E 240 80 43 00
        E 0 80 47 00
        E 0 80 40 00
        E 440 90 43 48
        E 0 90 47 48
        E 20 90 40 48
        E 240 80 43 00
        E 0 80 47 00
        E 0 80 40 00
        e 514 90 43 48
        e 0 90 47 48
        e 20 90 40 48
        e 240 80 43 00
        e 0 80 47 00
        e 0 80 40 00
        E 186 90 41 48
        E 0 90 45 48
        E 0 90 48 48
        E 1920 80 41 00
        E 0 80 45 00
        E 0 80 48 00
        E 0 90 41 48
        E 0 90 45 48
        E 0 90 48 48
        E 260 80 41 00
        E 0 80 45 00
        E 0 80 48 00
        E 440 90 41 48
        E 0 90 45 48
        E 0 90 48 48
        E 260 80 41 00
        E 0 80 45 00
        E 0 80 48 00
        e 514 90 41 48
        e 0 90 45 48
        e 0 90 48 48
        e 260 80 41 00
        e 0 80 45 00
        e 0 80 48 00
        E 162 90 3e 48
        E 24 90 41 48
        E 0 90 45 48
        E 1896 90 3e 48
        E 24 80 3e 00
        E 0 80 41 00
        E 0 80 45 00
        E 0 90 41 48
        E 0 90 45 48
        E 260 80 3e 00
        E 0 80 41 00
        E 0 80 45 00
        E 416 90 3e 48
        E 24 90 41 48
        E 0 90 45 48
        E 260 80 3e 00
        E 0 80 41 00
        E 0 80 45 00
        e 490 90 3e 48
        e 24 90 41 48
        e 0 90 45 48
        e 260 80 3e 00
        e 0 80 41 00
        e 0 80 45 00
        E 186 b0 7b 00
        CHASE_CC_TAKEOFFS 1
        GUID {040E7AF8-3572-5D91-3C86-797AEE7444D4}
        IGNTEMPO 0 120 4 4
        SRCCOLOR 22
        VELLANE -1 100 0
        CFGEDITVIEW 0 0.045808 45 12 0 -1 0 0 0 0.5
        KEYSNAP 0
        TRACKSEL 0
        EVTFILTER 0 -1 -1 -1 -1 0 0 0 0 -1 -1 -1 -1 0 -1 0 -1 -1
        CFGEDIT 1 1 0 1 0 0 1 1 1 1 1 1 58 171 1253 866 0 0 0 0 0.25 0 0 0 0 0.5 0 0 1 64
      >
    >
    <ITEM
      POSITION 48
      SNAPOFFS 0
      LENGTH 8
      LOOP 1
      ALLTAKES 0
      FADEIN 1 0 0 1 0 0
      FADEOUT 1 0 0 1 0 0
      MUTE 0
      SEL 1
      IGUID {E4DA3464-D026-4097-9EF2-35898B73BEAB}
      IID 16
      NAME "01-Recorded MIDI"
      VOLPAN 1 0 1 -1
      SOFFS 0 0
      PLAYRATE 1 1 0 -1 0 0.0021
      CHANMODE 0
      GUID {E7DA602A-A16D-EFA5-F5B2-5406B397BD8C}
      RECPASS 1
      <SOURCE MIDI
        HASDATA 1 960 QN
        CCINTERP 32
        POOLEDEVTS {63D540D2-0C95-F378-8BBE-99464E56622B}
        E 0 90 3c 48
        E 0 90 40 48
        E 0 90 43 48
        E 1920 80 3c 00
        E 0 80 40 00
        E 0 80 43 00
        E 0 90 3c 48
        E 0 90 40 48
        E 0 90 43 48
        E 260 80 3c 00
        E 0 80 40 00
        E 0 80 43 00
        E 440 90 3c 48
        E 0 90 40 48
        E 0 90 43 48
        E 260 80 3c 00
        E 0 80 40 00
        E 0 80 43 00
        e 514 90 3c 48
        e 0 90 40 48
        e 0 90 43 48
        e 260 80 3c 00
        e 0 80 40 00
        e 0 80 43 00
        E 186 90 43 48
        E 0 90 47 48
        E 20 90 40 48
        E 1900 80 43 00
        E 0 80 47 00
        E 0 80 40 00
        E 0 90 43 48
        E 0 90 47 48
        E 20 90 40 48
        E 240 80 43 00
        E 0 80 47 00
        E 0 80 40 00
        E 440 90 43 48
        E 0 90 47 48
        E 20 90 40 48
        E 240 80 43 00
        E 0 80 47 00
        E 0 80 40 00
        e 514 90 43 48
        e 0 90 47 48
        e 20 90 40 48
        e 240 80 43 00
        e 0 80 47 00
        e 0 80 40 00
        E 186 90 41 48
        E 0 90 45 48
        E 0 90 48 48
        E 1920 80 41 00
        E 0 80 45 00
        E 0 80 48 00
        E 0 90 41 48
        E 0 90 45 48
        E 0 90 48 48
        E 260 80 41 00
        E 0 80 45 00
        E 0 80 48 00
        E 440 90 41 48
        E 0 90 45 48
        E 0 90 48 48
        E 260 80 41 00
        E 0 80 45 00
        E 0 80 48 00
        e 514 90 41 48
        e 0 90 45 48
        e 0 90 48 48
        e 260 80 41 00
        e 0 80 45 00
        e 0 80 48 00
        E 162 90 3e 48
        E 24 90 41 48
        E 0 90 45 48
        E 1896 90 3e 48
        E 24 80 3e 00
        E 0 80 41 00
        E 0 80 45 00
        E 0 90 41 48
        E 0 90 45 48
        E 260 80 3e 00
        E 0 80 41 00
        E 0 80 45 00
        E 416 90 3e 48
        E 24 90 41 48
        E 0 90 45 48
        E 260 80 3e 00
        E 0 80 41 00
        E 0 80 45 00
        e 490 90 3e 48
        e 24 90 41 48
        e 0 90 45 48
        e 260 80 3e 00
        e 0 80 41 00
        e 0 80 45 00
        E 186 b0 7b 00
        CHASE_CC_TAKEOFFS 1
        GUID {2338968B-6CF9-9F40-300F-DEB89D3392EA}
        IGNTEMPO 0 120 4 4
        SRCCOLOR 23
        VELLANE -1 100 0
        CFGEDITVIEW 0 0.045808 45 12 0 -1 0 0 0 0.5
        KEYSNAP 0
        TRACKSEL 0
        EVTFILTER 0 -1 -1 -1 -1 0 0 0 0 -1 -1 -1 -1 0 -1 0 -1 -1
        CFGEDIT 1 1 0 1 0 0 1 1 1 1 1 1 58 171 1253 866 0 0 0 0 0.25 0 0 0 0 0.5 0 0 1 64
      >
    >
    <ITEM
      POSITION 56
      SNAPOFFS 0
      LENGTH 8
      LOOP 1
      ALLTAKES 0
      FADEIN 1 0 0 1 0 0
      FADEOUT 1 0 0 1 0 0
      MUTE 0
      SEL 1
      IGUID {436B1345-159D-BFB1-5263-63C7AAE08C53}
      IID 17
      NAME "01-Recorded MIDI"
      VOLPAN 1 0 1 -1
      SOFFS 0 0
      PLAYRATE 1 1 0 -1 0 0.0021
      CHANMODE 0
      GUID {4D3525D9-DF18-1C6B-EED0-88EA0E44DF03}
      RECPASS 1
      <SOURCE MIDI
        HASDATA 1 960 QN
        CCINTERP 32
        POOLEDEVTS {A2B75B20-B81D-D50D-006B-0CA593597B0E}
        E 0 90 3c 48
        E 0 90 40 48
        E 0 90 43 48
        E 1920 80 3c 00
        E 0 80 40 00
        E 0 80 43 00
        E 0 90 3c 48
        E 0 90 40 48
        E 0 90 43 48
        E 260 80 3c 00
        E 0 80 40 00
        E 0 80 43 00
        E 440 90 3c 48
        E 0 90 40 48
        E 0 90 43 48
        E 260 80 3c 00
        E 0 80 40 00
        E 0 80 43 00
        e 514 90 3c 48
        e 0 90 40 48
        e 0 90 43 48
        e 260 80 3c 00
        e 0 80 40 00
        e 0 80 43 00
        E 186 90 43 48
        E 0 90 47 48
        E 20 90 40 48
        E 1900 80 43 00
        E 0 80 47 00
        E 0 80 40 00
        E 0 90 43 48
        E 0 90 47 48
        E 20 90 40 48
        E 240 80 43 00
        E 0 80 47 00
        E 0 80 40 00
        E 440 90 43 48
        E 0 90 47 48
        E 20 90 40 48
        E 240 80 43 00
        E 0 80 47 00
        E 0 80 40 00
        e 514 90 43 48
        e 0 90 47 48
        e 20 90 40 48
        e 240 80 43 00
        e 0 80 47 00
        e 0 80 40 00
        E 186 90 41 48
        E 0 90 45 48
        E 0 90 48 48
        E 1920 80 41 00
        E 0 80 45 00
        E 0 80 48 00
        E 0 90 41 48
        E 0 90 45 48
        E 0 90 48 48
        E 260 80 41 00
        E 0 80 45 00
        E 0 80 48 00
        E 440 90 41 48
        E 0 90 45 48
        E 0 90 48 48
        E 260 80 41 00
        E 0 80 45 00
        E 0 80 48 00
        e 514 90 41 48
        e 0 90 45 48
        e 0 90 48 48
        e 260 80 41 00
        e 0 80 45 00
        e 0 80 48 00
        E 162 90 3e 48
        E 24 90 41 48
        E 0 90 45 48
        E 1896 90 3e 48
        E 24 80 3e 00
        E 0 80 41 00
        E 0 80 45 00
        E 0 90 41 48
        E 0 90 45 48
        E 260 80 3e 00
        E 0 80 41 00
        E 0 80 45 00
        E 416 90 3e 48
        E 24 90 41 48
        E 0 90 45 48
        E 260 80 3e 00
        E 0 80 41 00
        E 0 80 45 00
        e 490 90 3e 48
        e 24 90 41 48
        e 0 90 45 48
        e 260 80 3e 00
        e 0 80 41 00
        e 0 80 45 00
        E 186 b0 7b 00
        CHASE_CC_TAKEOFFS 1
        GUID {A64857E2-94F8-0990-20DF-4C1E9B5E6251}
        IGNTEMPO 0 120 4 4
        SRCCOLOR 24
        VELLANE -1 100 0
        CFGEDITVIEW 0 0.045808 45 12 0 -1 0 0 0 0.5
        KEYSNAP 0
        TRACKSEL 0
        EVTFILTER 0 -1 -1 -1 -1 0 0 0 0 -1 -1 -1 -1 0 -1 0 -1 -1
        CFGEDIT 1 1 0 1 0 0 1 1 1 1 1 1 58 171 1253 866 0 0 0 0 0.25 0 0 0 0 0.5 0 0 1 64
      >
    >
    <ITEM
      POSITION 64
      SNAPOFFS 0
      LENGTH 8
      LOOP 1
      ALLTAKES 0
      FADEIN 1 0 0 1 0 0
      FADEOUT 1 0 0 1 0 0
      MUTE 0
      SEL 1
      IGUID {C4C240B4-A5CB-814D-7138-3AA21142AFA7}
      IID 18
      NAME "01-Recorded MIDI"
      VOLPAN 1 0 1 -1
      SOFFS 0 0
      PLAYRATE 1 1 0 -1 0 0.0021
      CHANMODE 0
      GUID {03EAA72D-E4F5-BE76-E43D-490844CB4F66}
      RECPASS 1
      <SOURCE MIDI
        HASDATA 1 960 QN
        CCINTERP 32
        POOLEDEVTS {F2E175BC-7A6A-D83F-7EF7-49C8B0C235DF}
        E 0 90 3c 48
        E 0 90 40 48
        E 0 90 43 48
        E 1920 80 3c 00
        E 0 80 40 00
        E 0 80 43 00
        E 0 90 3c 48
        E 0 90 40 48
        E 0 90 43 48
        E 260 80 3c 00
        E 0 80 40 00
        E 0 80 43 00
        E 440 90 3c 48
        E 0 90 40 48
        E 0 90 43 48
        E 260 80 3c 00
        E 0 80 40 00
        E 0 80 43 00
        e 514 90 3c 48
        e 0 90 40 48
        e 0 90 43 48
        e 260 80 3c 00
        e 0 80 40 00
        e 0 80 43 00
        E 186 90 43 48
        E 0 90 47 48
        E 20 90 40 48
        E 1900 80 43 00
        E 0 80 47 00
        E 0 80 40 00
        E 0 90 43 48
        E 0 90 47 48
        E 20 90 40 48
        E 240 80 43 00
        E 0 80 47 00
        E 0 80 40 00
        E 440 90 43 48
        E 0 90 47 48
        E 20 90 40 48
        E 240 80 43 00
        E 0 80 47 00
        E 0 80 40 00
        e 514 90 43 48
        e 0 90 47 48
        e 20 90 40 48
        e 240 80 43 00
        e 0 80 47 00
        e 0 80 40 00
        E 186 90 41 48
        E 0 90 45 48
        E 0 90 48 48
        E 1920 80 41 00
        E 0 80 45 00
        E 0 80 48 00
        E 0 90 41 48
        E 0 90 45 48
        E 0 90 48 48
        E 260 80 41 00
        E 0 80 45 00
        E 0 80 48 00
        E 440 90 41 48
        E 0 90 45 48
        E 0 90 48 48
        E 260 80 41 00
        E 0 80 45 00
        E 0 80 48 00
        e 514 90 41 48
        e 0 90 45 48
        e 0 90 48 48
        e 260 80 41 00
        e 0 80 45 00
        e 0 80 48 00
        E 162 90 3e 48
        E 24 90 41 48
        E 0 90 45 48
        E 1896 90 3e 48
        E 24 80 3e 00
        E 0 80 41 00
        E 0 80 45 00
        E 0 90 41 48
        E 0 90 45 48
        E 260 80 3e 00
        E 0 80 41 00
        E 0 80 45 00
        E 416 90 3e 48
        E 24 90 41 48
        E 0 90 45 48
        E 260 80 3e 00
        E 0 80 41 00
        E 0 80 45 00
        e 490 90 3e 48
        e 24 90 41 48
        e 0 90 45 48
        e 260 80 3e 00
        e 0 80 41 00
        e 0 80 45 00
        E 186 b0 7b 00
        CHASE_CC_TAKEOFFS 1
        GUID {19362806-85F2-5D9E-E1F9-07BE0CF3D16E}
        IGNTEMPO 0 120 4 4
        SRCCOLOR 25
        VELLANE -1 100 0
        CFGEDITVIEW 0 0.045808 45 12 0 -1 0 0 0 0.5
        KEYSNAP 0
        TRACKSEL 0
        EVTFILTER 0 -1 -1 -1 -1 0 0 0 0 -1 -1 -1 -1 0 -1 0 -1 -1
        CFGEDIT 1 1 0 1 0 0 1 1 1 1 1 1 58 171 1253 866 0 0 0 0 0.25 0 0 0 0 0.5 0 0 1 64
      >
    >
    <ITEM
      POSITION 72
      SNAPOFFS 0
      LENGTH 8
      LOOP 1
      ALLTAKES 0
      FADEIN 1 0 0 1 0 0
      FADEOUT 1 0 0 1 0 0
      MUTE 0
      SEL 1
      IGUID {ABEDCEE8-6AAA-AF69-46C7-A2E0E2D08666}
      IID 19
      NAME "01-Recorded MIDI"
      VOLPAN 1 0 1 -1
      SOFFS 0 0
      PLAYRATE 1 1 0 -1 0 0.0021
      CHANMODE 0
      GUID {7D5FEAAC-C328-1561-1235-4FFFC1665915}
      RECPASS 1
      <SOURCE MIDI
        HASDATA 1 960 QN
        CCINTERP 32
        POOLEDEVTS {EE708B7D-3902-BDD3-F655-25C76938099E}
        E 0 90 3c 48
        E 0 90 40 48
        E 0 90 43 48
        E 1920 80 3c 00
        E 0 80 40 00
        E 0 80 43 00
        E 0 90 3c 48
        E 0 90 40 48
        E 0 90 43 48
        E 260 80 3c 00
        E 0 80 40 00
        E 0 80 43 00
        E 440 90 3c 48
        E 0 90 40 48
        E 0 90 43 48
        E 260 80 3c 00
        E 0 80 40 00
        E 0 80 43 00
        e 514 90 3c 48
        e 0 90 40 48
        e 0 90 43 48
        e 260 80 3c 00
        e 0 80 40 00
        e 0 80 43 00
        E 186 90 43 48
        E 0 90 47 48
        E 20 90 40 48
        E 1900 80 43 00
        E 0 80 47 00
        E 0 80 40 00
        E 0 90 43 48
        E 0 90 47 48
        E 20 90 40 48
        E 240 80 43 00
        E 0 80 47 00
        E 0 80 40 00
        E 440 90 43 48
        E 0 90 47 48
        E 20 90 40 48
        E 240 80 43 00
        E 0 80 47 00
        E 0 80 40 00
        e 514 90 43 48
        e 0 90 47 48
        e 20 90 40 48
        e 240 80 43 00
        e 0 80 47 00
        e 0 80 40 00
        E 186 90 41 48
        E 0 90 45 48
        E 0 90 48 48
        E 1920 80 41 00
        E 0 80 45 00
        E 0 80 48 00
        E 0 90 41 48
        E 0 90 45 48
        E 0 90 48 48
        E 260 80 41 00
        E 0 80 45 00
        E 0 80 48 00
        E 440 90 41 48
        E 0 90 45 48
        E 0 90 48 48
        E 260 80 41 00
        E 0 80 45 00
        E 0 80 48 00
        e 514 90 41 48
        e 0 90 45 48
        e 0 90 48 48
        e 260 80 41 00
        e 0 80 45 00
        e 0 80 48 00
        E 162 90 3e 48
        E 24 90 41 48
        E 0 90 45 48
        E 1896 90 3e 48
        E 24 80 3e 00
        E 0 80 41 00
        E 0 80 45 00
        E 0 90 41 48
        E 0 90 45 48
        E 260 80 3e 00
        E 0 80 41 00
        E 0 80 45 00
        E 416 90 3e 48
        E 24 90 41 48
        E 0 90 45 48
        E 260 80 3e 00
        E 0 80 41 00
        E 0 80 45 00
        e 490 90 3e 48
        e 24 90 41 48
        e 0 90 45 48
        e 260 80 3e 00
        e 0 80 41 00
        e 0 80 45 00
        E 186 b0 7b 00
        CHASE_CC_TAKEOFFS 1
        GUID {6844F8A9-6BE9-023C-4A46-0A676470C99B}
        IGNTEMPO 0 120 4 4
        SRCCOLOR 26
        VELLANE -1 100 0
        CFGEDITVIEW 0 0.045808 45 12 0 -1 0 0 0 0.5
        KEYSNAP 0
        TRACKSEL 0
        EVTFILTER 0 -1 -1 -1 -1 0 0 0 0 -1 -1 -1 -1 0 -1 0 -1 -1
        CFGEDIT 1 1 0 1 0 0 1 1 1 1 1 1 58 171 1253 866 0 0 0 0 0.25 0 0 0 0 0.5 0 0 1 64
      >
    >
    <ITEM
      POSITION 80
      SNAPOFFS 0
      LENGTH 8
      LOOP 1
      ALLTAKES 0
      FADEIN 1 0 0 1 0 0
      FADEOUT 1 0 0 1 0 0
      MUTE 0
      SEL 1
      IGUID {20B2BE04-85A1-61C8-750E-0CB880E48F0C}
      IID 20
      NAME "01-Recorded MIDI"
      VOLPAN 1 0 1 -1
      SOFFS 0 0
      PLAYRATE 1 1 0 -1 0 0.0021
      CHANMODE 0
      GUID {53B8B200-EA45-4E90-C16F-1547FAF91E38}
      RECPASS 1
      <SOURCE MIDI
        HASDATA 1 960 QN
        CCINTERP 32
        POOLEDEVTS {F70F54FC-0AC9-652B-3C32-4613DDED3D04}
        E 0 90 3c 48
        E 0 90 40 48
        E 0 90 43 48
        E 1920 80 3c 00
        E 0 80 40 00
        E 0 80 43 00
        E 0 90 3c 48
        E 0 90 40 48
        E 0 90 43 48
        E 260 80 3c 00
        E 0 80 40 00
        E 0 80 43 00
        E 440 90 3c 48
        E 0 90 40 48
        E 0 90 43 48
        E 260 80 3c 00
        E 0 80 40 00
        E 0 80 43 00
        e 514 90 3c 48
        e 0 90 40 48
        e 0 90 43 48
        e 260 80 3c 00
        e 0 80 40 00
        e 0 80 43 00
        E 186 90 43 48
        E 0 90 47 48
        E 20 90 40 48
        E 1900 80 43 00
        E 0 80 47 00
        E 0 80 40 00
        E 0 90 43 48
        E 0 90 47 48
        E 20 90 40 48
        E 240 80 43 00
        E 0 80 47 00
        E 0 80 40 00
        E 440 90 43 48
        E 0 90 47 48
        E 20 90 40 48
        E 240 80 43 00
        E 0 80 47 00
        E 0 80 40 00
        e 514 90 43 48
        e 0 90 47 48
        e 20 90 40 48
        e 240 80 43 00
        e 0 80 47 00
        e 0 80 40 00
        E 186 90 41 48
        E 0 90 45 48
        E 0 90 48 48
        E 1920 80 41 00
        E 0 80 45 00
        E 0 80 48 00
        E 0 90 41 48
        E 0 90 45 48
        E 0 90 48 48
        E 260 80 41 00
        E 0 80 45 00
        E 0 80 48 00
        E 440 90 41 48
        E 0 90 45 48
        E 0 90 48 48
        E 260 80 41 00
        E 0 80 45 00
        E 0 80 48 00
        e 514 90 41 48
        e 0 90 45 48
        e 0 90 48 48
        e 260 80 41 00
        e 0 80 45 00
        e 0 80 48 00
        E 162 90 3e 48
        E 24 90 41 48
        E 0 90 45 48
        E 1896 90 3e 48
        E 24 80 3e 00
        E 0 80 41 00
        E 0 80 45 00
        E 0 90 41 48
        E 0 90 45 48
        E 260 80 3e 00
        E 0 80 41 00
        E 0 80 45 00
        E 416 90 3e 48
        E 24 90 41 48
        E 0 90 45 48
        E 260 80 3e 00
        E 0 80 41 00
        E 0 80 45 00
        e 490 90 3e 48
        e 24 90 41 48
        e 0 90 45 48
        e 260 80 3e 00
        e 0 80 41 00
        e 0 80 45 00
        E 186 b0 7b 00
        CHASE_CC_TAKEOFFS 1
        GUID {E611ADB6-4869-6CCA-8E83-3954D5E743B1}
        IGNTEMPO 0 120 4 4
        SRCCOLOR 27
        VELLANE -1 100 0
        CFGEDITVIEW 0 0.045808 45 12 0 -1 0 0 0 0.5
        KEYSNAP 0
        TRACKSEL 0
        EVTFILTER 0 -1 -1 -1 -1 0 0 0 0 -1 -1 -1 -1 0 -1 0 -1 -1
        CFGEDIT 1 1 0 1 0 0 1 1 1 1 1 1 58 171 1253 866 0 0 0 0 0.25 0 0 0 0 0.5 0 0 1 64
      >
    >
    <ITEM
      POSITION 88
      SNAPOFFS 0
      LENGTH 8
      LOOP 1
      ALLTAKES 0
      FADEIN 1 0 0 1 0 0
      FADEOUT 1 0 0 1 0 0
      MUTE 0
      SEL 1
      IGUID {15A51C92-D1A6-98B0-358A-99749EB0320C}
      IID 21
      NAME "01-Recorded MIDI"
      VOLPAN 1 0 1 -1
      SOFFS 0 0
      PLAYRATE 1 1 0 -1 0 0.0021
      CHANMODE 0
      GUID {1FE8F17C-931D-8D35-E841-B35EAF5BCFFA}
      RECPASS 1
      <SOURCE MIDI
        HASDATA 1 960 QN
        CCINTERP 32
        POOLEDEVTS {62163990-11EC-8471-9FC0-EE914AEAA2C4}
        E 0 90 3c 48
        E 0 90 40 48
        E 0 90 43 48
        E 1920 80 3c 00
        E 0 80 40 00
        E 0 80 43 00
        E 0 90 3c 48
        E 0 90 40 48
        E 0 90 43 48
        E 260 80 3c 00
        E 0 80 40 00
        E 0 80 43 00
        E 440 90 3c 48
        E 0 90 40 48
        E 0 90 43 48
        E 260 80 3c 00
        E 0 80 40 00
        E 0 80 43 00
        e 514 90 3c 48
        e 0 90 40 48
        e 0 90 43 48
        e 260 80 3c 00
        e 0 80 40 00
        e 0 80 43 00
        E 186 90 43 48
        E 0 90 47 48
        E 20 90 40 48
        E 1900 80 43 00
        E 0 80 47 00
        E 0 80 40 00
        E 0 90 43 48
        E 0 90 47 48
        E 20 90 40 48
        E 240 80 43 00
        E 0 80 47 00
        E 0 80 40 00
        E 440 90 43 48
        E 0 90 47 48
        E 20 90 40 48
        E 240 80 43 00
        E 0 80 47 00
        E 0 80 40 00
        e 514 90 43 48
        e 0 90 47 48
        e 20 90 40 48
        e 240 80 43 00
        e 0 80 47 00
        e 0 80 40 00
        E 186 90 41 48
        E 0 90 45 48
        E 0 90 48 48
        E 1920 80 41 00
        E 0 80 45 00
        E 0 80 48 00
        E 0 90 41 48
        E 0 90 45 48
        E 0 90 48 48
        E 260 80 41 00
        E 0 80 45 00
        E 0 80 48 00
        E 440 90 41 48
        E 0 90 45 48
        E 0 90 48 48
        E 260 80 41 00
        E 0 80 45 00
        E 0 80 48 00
        e 514 90 41 48
        e 0 90 45 48
        e 0 90 48 48
        e 260 80 41 00
        e 0 80 45 00
        e 0 80 48 00
        E 162 90 3e 48
        E 24 90 41 48
        E 0 90 45 48
        E 1896 90 3e 48
        E 24 80 3e 00
        E 0 80 41 00
        E 0 80 45 00
        E 0 90 41 48
        E 0 90 45 48
        E 260 80 3e 00
        E 0 80 41 00
        E 0 80 45 00
        E 416 90 3e 48
        E 24 90 41 48
        E 0 90 45 48
        E 260 80 3e 00
        E 0 80 41 00
        E 0 80 45 00
        e 490 90 3e 48
        e 24 90 41 48
        e 0 90 45 48
        e 260 80 3e 00
        e 0 80 41 00
        e 0 80 45 00
        E 186 b0 7b 00
        CHASE_CC_TAKEOFFS 1
        GUID {C762B555-17FC-D765-5340-11D3487D2955}
        IGNTEMPO 0 120 4 4
        SRCCOLOR 28
        VELLANE -1 100 0
        CFGEDITVIEW 0 0.045808 45 12 0 -1 0 0 0 0.5
        KEYSNAP 0
        TRACKSEL 0
        EVTFILTER 0 -1 -1 -1 -1 0 0 0 0 -1 -1 -1 -1 0 -1 0 -1 -1
        CFGEDIT 1 1 0 1 0 0 1 1 1 1 1 1 58 171 1253 866 0 0 0 0 0.25 0 0 0 0 0.5 0 0 1 64
      >
    >
  >
  <TRACK {089460DF-B27B-CE76-A1D1-67F5CE7B7EB5}
    NAME ""
    PEAKCOL 16576
    BEAT -1
    AUTOMODE 0
    VOLPAN 0.00052194381917 0 -1 -1 1
    MUTESOLO 0 0 0
    IPHASE 0
    PLAYOFFS 0 1
    ISBUS 0 0
    BUSCOMP 0 0 0 0 0
    SHOWINMIX 1 0.6667 0.5 1 0.5 0 0 0
    FREEMODE 0
    SEL 0
    REC 0 5056 1 0 0 0 0
    VU 2
    TRACKHEIGHT 21 0 0
    INQ 0 0 0 0.5 100 0 0 100
    NCHAN 2
    FX 0
    TRACKID {089460DF-B27B-CE76-A1D1-67F5CE7B7EB5}
    PERF 0
    MIDIOUT -1
    MAINSEND 1 0
    <FXCHAIN
      WNDRECT 346 266 902 608
      SHOW 0
      LASTSEL 5
      DOCKED 0
      BYPASS 0 0 0
      <VST "VST: ReaEQ (Cockos)" reaeq.vst.so 0 "" 1919247729<56535472656571726561657100000000> ""
        cWVlcu5e7f4CAAAAAQAAAAAAAAACAAAAAAAAAAIAAAABAAAAAAAAAAIAAAAAAAAAqAAAAAEAAAAAABAA
        IQAAAAQAAAAEAAAAAQAAAEC4Xhmm+DRAAAAAAAAA8D8AAAAAAAAAQAEIAAAAAQAAAAAAAAAAwHJAAAAAAAAA8D8AAAAAAAAAQAEIAAAAAQAAAAAAAAAAQI9AAAAAAAAA
        8D8AAAAAAAAAQAEDAAAAAQAAAAABaCorbdRAAAAAAAAA8D8AAAAAAAAAQAEBAAAAAQAAAAAAAAAAAPA/AAAAAJoCAACcAQAA
        AEhpZ2ggbG93IHBhc3MAEAAAAA==
      >
      PRESETNAME "High low pass"
      FLOATPOS 0 0 0 0
      FXID {D153ECED-771F-2DD5-6F4D-0938C737E7EF}
      WAK 0 0
      BYPASS 0 0 0
      <VST "VSTi: ReaSynth (Cockos)" reasynth.vst.so 0 "" 1919251321<5653547265737972656173796E746800> ""
        eXNlcu9e7f4AAAAAAgAAAAEAAAAAAAAAAgAAAAAAAAA8AAAAAAAAAAAAEAA=
        776t3g3wrd6lm8Q7F7fROgAAAAAAAAAAAAAAAJCNuT3oZ4g9AACAPwAAAD8AAIA/AAAAAAAAAD8AAAAA
        AAAQAAAA
      >
      FLOATPOS 0 0 0 0
      FXID {9742305A-1C73-1B8B-D701-ED3100B83AAE}
      WAK 0 0
      BYPASS 0 0 0
      <JS guitar/amp-model ""
        "Dumble Overdrive Special - Tweed Deluxe.wav" -21.000000 1.000000 0.000000 0.000000 -1.000000 - - - - - - - - - - - - - - - - - - - - - - - - - - - - - - - - - - - - - - - - - - - - - - - - - - - - - - - - - - 
      >
      FLOATPOS 0 0 0 0
      FXID {0CA6A76A-5D14-015C-0480-D01A8033F2BB}
      WAK 0 0
      BYPASS 0 0 0
      <VST "VST: ReaComp (Cockos)" reacomp.vst.so 0 "" 1919247213<5653547265636D726561636F6D700000> ""
        bWNlcu9e7f4EAAAAAQAAAAAAAAACAAAAAAAAAAQAAAAAAAAACAAAAAAAAAACAAAAAQAAAAAAAAACAAAAAAAAAFQAAAAAAAAAAAAQAA==
        776t3g3wrd5FoYg9/AWpPKWbxDsK16M8AAAAAAAAAAAAAIA/AAAAAAAAAAAAAAAAnNEHMwAAgD8AAAAAzMxMPQAAAAAAAAAAAAAAAAAAgD7YiZ09
        AAAQAAAA
      >
      FLOATPOS 0 0 0 0
      FXID {022D8B40-2D6C-71DD-32A2-61101D91F206}
      WAK 0 0
      BYPASS 0 0 0
      <VST "VST: ReaDelay (Cockos)" readelay.vst.so 0 "" 1919247468<5653547265646C72656164656C617900> ""
        bGRlcu5e7f4CAAAAAQAAAAAAAAACAAAAAAAAAAIAAAABAAAAAAAAAAIAAAAAAAAA/AAAAAEAAAAAAAAA
        AAAAAAAAAAAFAAAALAAAAAIAAAAEAAAAAACAPwAAgD8AAAAAAACAPwAAAAAAAIA7vTeGNQAAgD8AAAAAAACAPwAAgD8AAIA/AAAAAAAAAAAAAIA/AAAAAAAAADwAAAAA
        AACAPwAAAAAAAIA/AACAP+87NT8AAIA/AAAAAAAAgD8AAAAAAABAPL03hjUAAIA/AAAAAAAAgD8AAIA/zk0AP6abhD4AAAAAAACAPwAAAAAAAIA8vTeGNQAAgD8AAAAA
        AACAPwAAgD8aqrU+pHA9PwAAAAAAAIA/AAAAAAAAoDy9N4Y1AACAPwAAAAAAAIA/AACAP/npAD4AAAA/
        AHN0b2NrIC0gYmFzaWMgNSB0YXAgcGluZyBwb25nAAAAAAA=
      >
      PRESETNAME "stock - basic 5 tap ping pong"
      FLOATPOS 0 0 0 0
      FXID {982DE54E-F766-CDB6-5DDD-22E99FD28833}
      WAK 0 0
      BYPASS 0 0 0
      <VST "VST: ReaVerb (Cockos)" reaverb.vst.so 0 "" 1919252066<56535472657662726561766572620000> ""
        YnZlcu5e7f4CAAAAAQAAAAAAAAACAAAAAAAAAAIAAAABAAAAAAAAAAIAAAAAAAAAcAAAAAEAAAAAAAAA
        AAAAwcybgD4AAIA/AAAAAAAAgD8AAIA/AAAAPwAAgD8AAAAAVkVSQkdFTgAYAAAAAAAAAJHgV0QdrLRA3rK7QsHIjEIAAIC/RUNIT0dFTgAcAAAAy/i2QLUjdUJdzdM/
        osdfP5lRrzyRzYxAnMQAPw==
        AHN3ZWV0dmVyYm8AAAAAAA==
      >
      PRESETNAME sweetverbo
      FLOATPOS 0 0 0 0
      FXID {C0C3D961-934D-C119-C377-F4123E6EBB5B}
      WAK 0 0
    >
    <ITEM
      POSITION 0
      SNAPOFFS 0
      LENGTH 8
      LOOP 1
      ALLTAKES 0
      FADEIN 1 0 0 1 0 0
      FADEOUT 1 0 0 1 0 0
      MUTE 0
      SEL 1
      IGUID {986EF47D-31C4-E42C-1FA5-344C13F16C27}
      IID 10
      NAME "01-Recorded MIDI"
      VOLPAN 1 0 1 -1
      SOFFS 0 0
      PLAYRATE 1 1 0 -1 0 0.0021
      CHANMODE 0
      GUID {C079D43D-87A2-CA45-701D-7E8498113279}
      RECPASS 1
      <SOURCE MIDI
        HASDATA 1 960 QN
        CCINTERP 32
        POOLEDEVTS {A1A86DCA-2FAA-1241-2092-0B25FEC6977B}
        E 0 90 3c 48
        E 0 90 40 48
        E 0 90 43 48
        E 1920 80 3c 00
        E 0 80 40 00
        E 0 80 43 00
        E 0 90 3c 48
        E 0 90 40 48
        E 0 90 43 48
        E 260 80 3c 00
        E 0 80 40 00
        E 0 80 43 00
        E 440 90 3c 48
        E 0 90 40 48
        E 0 90 43 48
        E 260 80 3c 00
        E 0 80 40 00
        E 0 80 43 00
        e 514 90 3c 48
        e 0 90 40 48
        e 0 90 43 48
        e 260 80 3c 00
        e 0 80 40 00
        e 0 80 43 00
        E 186 90 43 48
        E 0 90 47 48
        E 20 90 40 48
        E 1900 80 43 00
        E 0 80 47 00
        E 0 80 40 00
        E 0 90 43 48
        E 0 90 47 48
        E 20 90 40 48
        E 240 80 43 00
        E 0 80 47 00
        E 0 80 40 00
        E 440 90 43 48
        E 0 90 47 48
        E 20 90 40 48
        E 240 80 43 00
        E 0 80 47 00
        E 0 80 40 00
        e 514 90 43 48
        e 0 90 47 48
        e 20 90 40 48
        e 240 80 43 00
        e 0 80 47 00
        e 0 80 40 00
        E 186 90 41 48
        E 0 90 45 48
        E 0 90 48 48
        E 1920 80 41 00
        E 0 80 45 00
        E 0 80 48 00
        E 0 90 41 48
        E 0 90 45 48
        E 0 90 48 48
        E 260 80 41 00
        E 0 80 45 00
        E 0 80 48 00
        E 440 90 41 48
        E 0 90 45 48
        E 0 90 48 48
        E 260 80 41 00
        E 0 80 45 00
        E 0 80 48 00
        e 514 90 41 48
        e 0 90 45 48
        e 0 90 48 48
        e 260 80 41 00
        e 0 80 45 00
        e 0 80 48 00
        E 162 90 3e 48
        E 24 90 41 48
        E 0 90 45 48
        E 1896 90 3e 48
        E 24 80 3e 00
        E 0 80 41 00
        E 0 80 45 00
        E 0 90 41 48
        E 0 90 45 48
        E 260 80 3e 00
        E 0 80 41 00
        E 0 80 45 00
        E 416 90 3e 48
        E 24 90 41 48
        E 0 90 45 48
        E 260 80 3e 00
        E 0 80 41 00
        E 0 80 45 00
        e 490 90 3e 48
        e 24 90 41 48
        e 0 90 45 48
        e 260 80 3e 00
        e 0 80 41 00
        e 0 80 45 00
        E 186 b0 7b 00
        CHASE_CC_TAKEOFFS 1
        GUID {7B9D708B-43E1-C8D4-C4B3-87E2A6C27801}
        IGNTEMPO 0 120 4 4
        SRCCOLOR 17
        VELLANE -1 100 0
        CFGEDITVIEW 0 0.045808 45 12 0 -1 0 0 0 0.5
        KEYSNAP 0
        TRACKSEL 0
        EVTFILTER 0 -1 -1 -1 -1 0 0 0 0 -1 -1 -1 -1 0 -1 0 -1 -1
        CFGEDIT 1 1 0 1 0 0 1 1 1 1 1 1 58 171 1253 866 0 0 0 0 0.25 0 0 0 0 0.5 0 0 1 64
      >
    >
    <ITEM
      POSITION 8
      SNAPOFFS 0
      LENGTH 8
      LOOP 1
      ALLTAKES 0
      FADEIN 1 0 0 1 0 0
      FADEOUT 1 0 0 1 0 0
      MUTE 0
      SEL 1
      IGUID {095FFBE2-E0C0-BFF6-A734-6C1AE8EA451E}
      IID 11
      NAME "01-Recorded MIDI"
      VOLPAN 1 0 1 -1
      SOFFS 0 0
      PLAYRATE 1 1 0 -1 0 0.0021
      CHANMODE 0
      GUID {33D09B0F-6330-973B-B02C-09BB1261712E}
      RECPASS 1
      <SOURCE MIDI
        HASDATA 1 960 QN
        CCINTERP 32
        POOLEDEVTS {EE18D81C-E4D5-685B-7200-F9445CCCD6EE}
        E 0 90 3c 48
        E 0 90 40 48
        E 0 90 43 48
        E 1920 80 3c 00
        E 0 80 40 00
        E 0 80 43 00
        E 0 90 3c 48
        E 0 90 40 48
        E 0 90 43 48
        E 260 80 3c 00
        E 0 80 40 00
        E 0 80 43 00
        E 440 90 3c 48
        E 0 90 40 48
        E 0 90 43 48
        E 260 80 3c 00
        E 0 80 40 00
        E 0 80 43 00
        e 514 90 3c 48
        e 0 90 40 48
        e 0 90 43 48
        e 260 80 3c 00
        e 0 80 40 00
        e 0 80 43 00
        E 186 90 43 48
        E 0 90 47 48
        E 20 90 40 48
        E 1900 80 43 00
        E 0 80 47 00
        E 0 80 40 00
        E 0 90 43 48
        E 0 90 47 48
        E 20 90 40 48
        E 240 80 43 00
        E 0 80 47 00
        E 0 80 40 00
        E 440 90 43 48
        E 0 90 47 48
        E 20 90 40 48
        E 240 80 43 00
        E 0 80 47 00
        E 0 80 40 00
        e 514 90 43 48
        e 0 90 47 48
        e 20 90 40 48
        e 240 80 43 00
        e 0 80 47 00
        e 0 80 40 00
        E 186 90 41 48
        E 0 90 45 48
        E 0 90 48 48
        E 1920 80 41 00
        E 0 80 45 00
        E 0 80 48 00
        E 0 90 41 48
        E 0 90 45 48
        E 0 90 48 48
        E 260 80 41 00
        E 0 80 45 00
        E 0 80 48 00
        E 440 90 41 48
        E 0 90 45 48
        E 0 90 48 48
        E 260 80 41 00
        E 0 80 45 00
        E 0 80 48 00
        e 514 90 41 48
        e 0 90 45 48
        e 0 90 48 48
        e 260 80 41 00
        e 0 80 45 00
        e 0 80 48 00
        E 162 90 3e 48
        E 24 90 41 48
        E 0 90 45 48
        E 1896 90 3e 48
        E 24 80 3e 00
        E 0 80 41 00
        E 0 80 45 00
        E 0 90 41 48
        E 0 90 45 48
        E 260 80 3e 00
        E 0 80 41 00
        E 0 80 45 00
        E 416 90 3e 48
        E 24 90 41 48
        E 0 90 45 48
        E 260 80 3e 00
        E 0 80 41 00
        E 0 80 45 00
        e 490 90 3e 48
        e 24 90 41 48
        e 0 90 45 48
        e 260 80 3e 00
        e 0 80 41 00
        e 0 80 45 00
        E 186 b0 7b 00
        CHASE_CC_TAKEOFFS 1
        GUID {3131B4E2-B370-E352-A9C5-C8CA31551A86}
        IGNTEMPO 0 120 4 4
        SRCCOLOR 18
        VELLANE -1 100 0
        CFGEDITVIEW 0 0.045808 45 12 0 -1 0 0 0 0.5
        KEYSNAP 0
        TRACKSEL 0
        EVTFILTER 0 -1 -1 -1 -1 0 0 0 0 -1 -1 -1 -1 0 -1 0 -1 -1
        CFGEDIT 1 1 0 1 0 0 1 1 1 1 1 1 58 171 1253 866 0 0 0 0 0.25 0 0 0 0 0.5 0 0 1 64
      >
    >
    <ITEM
      POSITION 16
      SNAPOFFS 0
      LENGTH 8
      LOOP 1
      ALLTAKES 0
      FADEIN 1 0 0 1 0 0
      FADEOUT 1 0 0 1 0 0
      MUTE 0
      SEL 1
      IGUID {12CEAA80-4240-466B-1CB2-FDCE9FCE54A2}
      IID 12
      NAME "01-Recorded MIDI"
      VOLPAN 1 0 1 -1
      SOFFS 0 0
      PLAYRATE 1 1 0 -1 0 0.0021
      CHANMODE 0
      GUID {6E02C1F3-47DB-B5E3-F997-EECBEDC2115E}
      RECPASS 1
      <SOURCE MIDI
        HASDATA 1 960 QN
        CCINTERP 32
        POOLEDEVTS {D2DC257A-2AAD-BABF-E9BB-C87989FA841A}
        E 0 90 3c 48
        E 0 90 40 48
        E 0 90 43 48
        E 1920 80 3c 00
        E 0 80 40 00
        E 0 80 43 00
        E 0 90 3c 48
        E 0 90 40 48
        E 0 90 43 48
        E 260 80 3c 00
        E 0 80 40 00
        E 0 80 43 00
        E 440 90 3c 48
        E 0 90 40 48
        E 0 90 43 48
        E 260 80 3c 00
        E 0 80 40 00
        E 0 80 43 00
        e 514 90 3c 48
        e 0 90 40 48
        e 0 90 43 48
        e 260 80 3c 00
        e 0 80 40 00
        e 0 80 43 00
        E 186 90 43 48
        E 0 90 47 48
        E 20 90 40 48
        E 1900 80 43 00
        E 0 80 47 00
        E 0 80 40 00
        E 0 90 43 48
        E 0 90 47 48
        E 20 90 40 48
        E 240 80 43 00
        E 0 80 47 00
        E 0 80 40 00
        E 440 90 43 48
        E 0 90 47 48
        E 20 90 40 48
        E 240 80 43 00
        E 0 80 47 00
        E 0 80 40 00
        e 514 90 43 48
        e 0 90 47 48
        e 20 90 40 48
        e 240 80 43 00
        e 0 80 47 00
        e 0 80 40 00
        E 186 90 41 48
        E 0 90 45 48
        E 0 90 48 48
        E 1920 80 41 00
        E 0 80 45 00
        E 0 80 48 00
        E 0 90 41 48
        E 0 90 45 48
        E 0 90 48 48
        E 260 80 41 00
        E 0 80 45 00
        E 0 80 48 00
        E 440 90 41 48
        E 0 90 45 48
        E 0 90 48 48
        E 260 80 41 00
        E 0 80 45 00
        E 0 80 48 00
        e 514 90 41 48
        e 0 90 45 48
        e 0 90 48 48
        e 260 80 41 00
        e 0 80 45 00
        e 0 80 48 00
        E 162 90 3e 48
        E 24 90 41 48
        E 0 90 45 48
        E 1896 90 3e 48
        E 24 80 3e 00
        E 0 80 41 00
        E 0 80 45 00
        E 0 90 41 48
        E 0 90 45 48
        E 260 80 3e 00
        E 0 80 41 00
        E 0 80 45 00
        E 416 90 3e 48
        E 24 90 41 48
        E 0 90 45 48
        E 260 80 3e 00
        E 0 80 41 00
        E 0 80 45 00
        e 490 90 3e 48
        e 24 90 41 48
        e 0 90 45 48
        e 260 80 3e 00
        e 0 80 41 00
        e 0 80 45 00
        E 186 b0 7b 00
        CHASE_CC_TAKEOFFS 1
        GUID {48C567A2-895C-FB9B-FDBA-0ADB7004ABF3}
        IGNTEMPO 0 120 4 4
        SRCCOLOR 19
        VELLANE -1 100 0
        CFGEDITVIEW 0 0.045808 45 12 0 -1 0 0 0 0.5
        KEYSNAP 0
        TRACKSEL 0
        EVTFILTER 0 -1 -1 -1 -1 0 0 0 0 -1 -1 -1 -1 0 -1 0 -1 -1
        CFGEDIT 1 1 0 1 0 0 1 1 1 1 1 1 58 171 1253 866 0 0 0 0 0.25 0 0 0 0 0.5 0 0 1 64
      >
    >
    <ITEM
      POSITION 24
      SNAPOFFS 0
      LENGTH 8
      LOOP 1
      ALLTAKES 0
      FADEIN 1 0 0 1 0 0
      FADEOUT 1 0 0 1 0 0
      MUTE 0
      SEL 1
      IGUID {6D6C5421-A1BE-3C0B-CC37-39760A629D53}
      IID 13
      NAME "01-Recorded MIDI"
      VOLPAN 1 0 1 -1
      SOFFS 0 0
      PLAYRATE 1 1 0 -1 0 0.0021
      CHANMODE 0
      GUID {6D918144-3D9F-6739-DC99-9204E50E17E9}
      RECPASS 1
      <SOURCE MIDI
        HASDATA 1 960 QN
        CCINTERP 32
        POOLEDEVTS {69F64739-640A-B9AF-636D-ADDB43CE9EA6}
        E 0 90 3c 48
        E 0 90 40 48
        E 0 90 43 48
        E 1920 80 3c 00
        E 0 80 40 00
        E 0 80 43 00
        E 0 90 3c 48
        E 0 90 40 48
        E 0 90 43 48
        E 260 80 3c 00
        E 0 80 40 00
        E 0 80 43 00
        E 440 90 3c 48
        E 0 90 40 48
        E 0 90 43 48
        E 260 80 3c 00
        E 0 80 40 00
        E 0 80 43 00
        e 514 90 3c 48
        e 0 90 40 48
        e 0 90 43 48
        e 260 80 3c 00
        e 0 80 40 00
        e 0 80 43 00
        E 186 90 43 48
        E 0 90 47 48
        E 20 90 40 48
        E 1900 80 43 00
        E 0 80 47 00
        E 0 80 40 00
        E 0 90 43 48
        E 0 90 47 48
        E 20 90 40 48
        E 240 80 43 00
        E 0 80 47 00
        E 0 80 40 00
        E 440 90 43 48
        E 0 90 47 48
        E 20 90 40 48
        E 240 80 43 00
        E 0 80 47 00
        E 0 80 40 00
        e 514 90 43 48
        e 0 90 47 48
        e 20 90 40 48
        e 240 80 43 00
        e 0 80 47 00
        e 0 80 40 00
        E 186 90 41 48
        E 0 90 45 48
        E 0 90 48 48
        E 1920 80 41 00
        E 0 80 45 00
        E 0 80 48 00
        E 0 90 41 48
        E 0 90 45 48
        E 0 90 48 48
        E 260 80 41 00
        E 0 80 45 00
        E 0 80 48 00
        E 440 90 41 48
        E 0 90 45 48
        E 0 90 48 48
        E 260 80 41 00
        E 0 80 45 00
        E 0 80 48 00
        e 514 90 41 48
        e 0 90 45 48
        e 0 90 48 48
        e 260 80 41 00
        e 0 80 45 00
        e 0 80 48 00
        E 162 90 3e 48
        E 24 90 41 48
        E 0 90 45 48
        E 1896 90 3e 48
        E 24 80 3e 00
        E 0 80 41 00
        E 0 80 45 00
        E 0 90 41 48
        E 0 90 45 48
        E 260 80 3e 00
        E 0 80 41 00
        E 0 80 45 00
        E 416 90 3e 48
        E 24 90 41 48
        E 0 90 45 48
        E 260 80 3e 00
        E 0 80 41 00
        E 0 80 45 00
        e 490 90 3e 48
        e 24 90 41 48
        e 0 90 45 48
        e 260 80 3e 00
        e 0 80 41 00
        e 0 80 45 00
        E 186 b0 7b 00
        CHASE_CC_TAKEOFFS 1
        GUID {1DE38800-E2A1-41B5-9C8C-3291891093B1}
        IGNTEMPO 0 120 4 4
        SRCCOLOR 20
        VELLANE -1 100 0
        CFGEDITVIEW 0 0.045808 45 12 0 -1 0 0 0 0.5
        KEYSNAP 0
        TRACKSEL 0
        EVTFILTER 0 -1 -1 -1 -1 0 0 0 0 -1 -1 -1 -1 0 -1 0 -1 -1
        CFGEDIT 1 1 0 1 0 0 1 1 1 1 1 1 58 171 1253 866 0 0 0 0 0.25 0 0 0 0 0.5 0 0 1 64
      >
    >
    <ITEM
      POSITION 32
      SNAPOFFS 0
      LENGTH 8
      LOOP 1
      ALLTAKES 0
      FADEIN 1 0 0 1 0 0
      FADEOUT 1 0 0 1 0 0
      MUTE 0
      SEL 1
      IGUID {25DCED2B-9AA4-153B-D831-46AB094F8D2D}
      IID 14
      NAME "01-Recorded MIDI"
      VOLPAN 1 0 1 -1
      SOFFS 0 0
      PLAYRATE 1 1 0 -1 0 0.0021
      CHANMODE 0
      GUID {3531996A-88F4-76EE-C4E2-01165579A964}
      RECPASS 1
      <SOURCE MIDI
        HASDATA 1 960 QN
        CCINTERP 32
        POOLEDEVTS {678B4CDD-A536-D200-0ECD-EC00642D95F9}
        E 0 90 3c 48
        E 0 90 40 48
        E 0 90 43 48
        E 1920 80 3c 00
        E 0 80 40 00
        E 0 80 43 00
        E 0 90 3c 48
        E 0 90 40 48
        E 0 90 43 48
        E 260 80 3c 00
        E 0 80 40 00
        E 0 80 43 00
        E 440 90 3c 48
        E 0 90 40 48
        E 0 90 43 48
        E 260 80 3c 00
        E 0 80 40 00
        E 0 80 43 00
        e 514 90 3c 48
        e 0 90 40 48
        e 0 90 43 48
        e 260 80 3c 00
        e 0 80 40 00
        e 0 80 43 00
        E 186 90 43 48
        E 0 90 47 48
        E 20 90 40 48
        E 1900 80 43 00
        E 0 80 47 00
        E 0 80 40 00
        E 0 90 43 48
        E 0 90 47 48
        E 20 90 40 48
        E 240 80 43 00
        E 0 80 47 00
        E 0 80 40 00
        E 440 90 43 48
        E 0 90 47 48
        E 20 90 40 48
        E 240 80 43 00
        E 0 80 47 00
        E 0 80 40 00
        e 514 90 43 48
        e 0 90 47 48
        e 20 90 40 48
        e 240 80 43 00
        e 0 80 47 00
        e 0 80 40 00
        E 186 90 41 48
        E 0 90 45 48
        E 0 90 48 48
        E 1920 80 41 00
        E 0 80 45 00
        E 0 80 48 00
        E 0 90 41 48
        E 0 90 45 48
        E 0 90 48 48
        E 260 80 41 00
        E 0 80 45 00
        E 0 80 48 00
        E 440 90 41 48
        E 0 90 45 48
        E 0 90 48 48
        E 260 80 41 00
        E 0 80 45 00
        E 0 80 48 00
        e 514 90 41 48
        e 0 90 45 48
        e 0 90 48 48
        e 260 80 41 00
        e 0 80 45 00
        e 0 80 48 00
        E 162 90 3e 48
        E 24 90 41 48
        E 0 90 45 48
        E 1896 90 3e 48
        E 24 80 3e 00
        E 0 80 41 00
        E 0 80 45 00
        E 0 90 41 48
        E 0 90 45 48
        E 260 80 3e 00
        E 0 80 41 00
        E 0 80 45 00
        E 416 90 3e 48
        E 24 90 41 48
        E 0 90 45 48
        E 260 80 3e 00
        E 0 80 41 00
        E 0 80 45 00
        e 490 90 3e 48
        e 24 90 41 48
        e 0 90 45 48
        e 260 80 3e 00
        e 0 80 41 00
        e 0 80 45 00
        E 186 b0 7b 00
        CHASE_CC_TAKEOFFS 1
        GUID {0C3271F4-E233-9088-9B25-A722FAE7C579}
        IGNTEMPO 0 120 4 4
        SRCCOLOR 21
        VELLANE -1 100 0
        CFGEDITVIEW 0 0.045808 45 12 0 -1 0 0 0 0.5
        KEYSNAP 0
        TRACKSEL 0
        EVTFILTER 0 -1 -1 -1 -1 0 0 0 0 -1 -1 -1 -1 0 -1 0 -1 -1
        CFGEDIT 1 1 0 1 0 0 1 1 1 1 1 1 58 171 1253 866 0 0 0 0 0.25 0 0 0 0 0.5 0 0 1 64
      >
    >
    <ITEM
      POSITION 40
      SNAPOFFS 0
      LENGTH 8
      LOOP 1
      ALLTAKES 0
      FADEIN 1 0 0 1 0 0
      FADEOUT 1 0 0 1 0 0
      MUTE 0
      SEL 1
      IGUID {AEEA66C4-1E98-DC34-1A21-36A0D877EDB1}
      IID 15
      NAME "01-Recorded MIDI"
      VOLPAN 1 0 1 -1
      SOFFS 0 0
      PLAYRATE 1 1 0 -1 0 0.0021
      CHANMODE 0
      GUID {2B0ECF37-BD0C-E3B0-CCDF-AA001330F552}
      RECPASS 1
      <SOURCE MIDI
        HASDATA 1 960 QN
        CCINTERP 32
        POOLEDEVTS {5E03BAA6-6AA2-8FEB-83DA-3D6CEF8AFAFC}
        E 0 90 3c 48
        E 0 90 40 48
        E 0 90 43 48
        E 1920 80 3c 00
        E 0 80 40 00
        E 0 80 43 00
        E 0 90 3c 48
        E 0 90 40 48
        E 0 90 43 48
        E 260 80 3c 00
        E 0 80 40 00
        E 0 80 43 00
        E 440 90 3c 48
        E 0 90 40 48
        E 0 90 43 48
        E 260 80 3c 00
        E 0 80 40 00
        E 0 80 43 00
        e 514 90 3c 48
        e 0 90 40 48
        e 0 90 43 48
        e 260 80 3c 00
        e 0 80 40 00
        e 0 80 43 00
        E 186 90 43 48
        E 0 90 47 48
        E 20 90 40 48
        E 1900 80 43 00
        E 0 80 47 00
        E 0 80 40 00
        E 0 90 43 48
        E 0 90 47 48
        E 20 90 40 48
        E 240 80 43 00
        E 0 80 47 00
        E 0 80 40 00
        E 440 90 43 48
        E 0 90 47 48
        E 20 90 40 48
        E 240 80 43 00
        E 0 80 47 00
        E 0 80 40 00
        e 514 90 43 48
        e 0 90 47 48
        e 20 90 40 48
        e 240 80 43 00
        e 0 80 47 00
        e 0 80 40 00
        E 186 90 41 48
        E 0 90 45 48
        E 0 90 48 48
        E 1920 80 41 00
        E 0 80 45 00
        E 0 80 48 00
        E 0 90 41 48
        E 0 90 45 48
        E 0 90 48 48
        E 260 80 41 00
        E 0 80 45 00
        E 0 80 48 00
        E 440 90 41 48
        E 0 90 45 48
        E 0 90 48 48
        E 260 80 41 00
        E 0 80 45 00
        E 0 80 48 00
        e 514 90 41 48
        e 0 90 45 48
        e 0 90 48 48
        e 260 80 41 00
        e 0 80 45 00
        e 0 80 48 00
        E 162 90 3e 48
        E 24 90 41 48
        E 0 90 45 48
        E 1896 90 3e 48
        E 24 80 3e 00
        E 0 80 41 00
        E 0 80 45 00
        E 0 90 41 48
        E 0 90 45 48
        E 260 80 3e 00
        E 0 80 41 00
        E 0 80 45 00
        E 416 90 3e 48
        E 24 90 41 48
        E 0 90 45 48
        E 260 80 3e 00
        E 0 80 41 00
        E 0 80 45 00
        e 490 90 3e 48
        e 24 90 41 48
        e 0 90 45 48
        e 260 80 3e 00
        e 0 80 41 00
        e 0 80 45 00
        E 186 b0 7b 00
        CHASE_CC_TAKEOFFS 1
        GUID {040E7AF8-3572-5D91-3C86-797AEE7444D4}
        IGNTEMPO 0 120 4 4
        SRCCOLOR 22
        VELLANE -1 100 0
        CFGEDITVIEW 0 0.045808 45 12 0 -1 0 0 0 0.5
        KEYSNAP 0
        TRACKSEL 0
        EVTFILTER 0 -1 -1 -1 -1 0 0 0 0 -1 -1 -1 -1 0 -1 0 -1 -1
        CFGEDIT 1 1 0 1 0 0 1 1 1 1 1 1 58 171 1253 866 0 0 0 0 0.25 0 0 0 0 0.5 0 0 1 64
      >
    >
    <ITEM
      POSITION 48
      SNAPOFFS 0
      LENGTH 8
      LOOP 1
      ALLTAKES 0
      FADEIN 1 0 0 1 0 0
      FADEOUT 1 0 0 1 0 0
      MUTE 0
      SEL 1
      IGUID {7B8A452F-B6FC-8E53-713B-F58F33FB7D22}
      IID 16
      NAME "01-Recorded MIDI"
      VOLPAN 1 0 1 -1
      SOFFS 0 0
      PLAYRATE 1 1 0 -1 0 0.0021
      CHANMODE 0
      GUID {B8E976AE-4729-676C-0D1A-41B3AD2540BB}
      RECPASS 1
      <SOURCE MIDI
        HASDATA 1 960 QN
        CCINTERP 32
        POOLEDEVTS {3EF5B7BD-44DA-6868-20C5-10FFCA90CF0C}
        E 0 90 3c 48
        E 0 90 40 48
        E 0 90 43 48
        E 1920 80 3c 00
        E 0 80 40 00
        E 0 80 43 00
        E 0 90 3c 48
        E 0 90 40 48
        E 0 90 43 48
        E 260 80 3c 00
        E 0 80 40 00
        E 0 80 43 00
        E 440 90 3c 48
        E 0 90 40 48
        E 0 90 43 48
        E 260 80 3c 00
        E 0 80 40 00
        E 0 80 43 00
        e 514 90 3c 48
        e 0 90 40 48
        e 0 90 43 48
        e 260 80 3c 00
        e 0 80 40 00
        e 0 80 43 00
        E 186 90 43 48
        E 0 90 47 48
        E 20 90 40 48
        E 1900 80 43 00
        E 0 80 47 00
        E 0 80 40 00
        E 0 90 43 48
        E 0 90 47 48
        E 20 90 40 48
        E 240 80 43 00
        E 0 80 47 00
        E 0 80 40 00
        E 440 90 43 48
        E 0 90 47 48
        E 20 90 40 48
        E 240 80 43 00
        E 0 80 47 00
        E 0 80 40 00
        e 514 90 43 48
        e 0 90 47 48
        e 20 90 40 48
        e 240 80 43 00
        e 0 80 47 00
        e 0 80 40 00
        E 186 90 41 48
        E 0 90 45 48
        E 0 90 48 48
        E 1920 80 41 00
        E 0 80 45 00
        E 0 80 48 00
        E 0 90 41 48
        E 0 90 45 48
        E 0 90 48 48
        E 260 80 41 00
        E 0 80 45 00
        E 0 80 48 00
        E 440 90 41 48
        E 0 90 45 48
        E 0 90 48 48
        E 260 80 41 00
        E 0 80 45 00
        E 0 80 48 00
        e 514 90 41 48
        e 0 90 45 48
        e 0 90 48 48
        e 260 80 41 00
        e 0 80 45 00
        e 0 80 48 00
        E 162 90 3e 48
        E 24 90 41 48
        E 0 90 45 48
        E 1896 90 3e 48
        E 24 80 3e 00
        E 0 80 41 00
        E 0 80 45 00
        E 0 90 41 48
        E 0 90 45 48
        E 260 80 3e 00
        E 0 80 41 00
        E 0 80 45 00
        E 416 90 3e 48
        E 24 90 41 48
        E 0 90 45 48
        E 260 80 3e 00
        E 0 80 41 00
        E 0 80 45 00
        e 490 90 3e 48
        e 24 90 41 48
        e 0 90 45 48
        e 260 80 3e 00
        e 0 80 41 00
        e 0 80 45 00
        E 186 b0 7b 00
        CHASE_CC_TAKEOFFS 1
        GUID {2338968B-6CF9-9F40-300F-DEB89D3392EA}
        IGNTEMPO 0 120 4 4
        SRCCOLOR 23
        VELLANE -1 100 0
        CFGEDITVIEW 0 0.045808 45 12 0 -1 0 0 0 0.5
        KEYSNAP 0
        TRACKSEL 0
        EVTFILTER 0 -1 -1 -1 -1 0 0 0 0 -1 -1 -1 -1 0 -1 0 -1 -1
        CFGEDIT 1 1 0 1 0 0 1 1 1 1 1 1 58 171 1253 866 0 0 0 0 0.25 0 0 0 0 0.5 0 0 1 64
      >
    >
    <ITEM
      POSITION 56
      SNAPOFFS 0
      LENGTH 8
      LOOP 1
      ALLTAKES 0
      FADEIN 1 0 0 1 0 0
      FADEOUT 1 0 0 1 0 0
      MUTE 0
      SEL 1
      IGUID {B008D0EF-DA7C-AF61-ED6B-93F40215FB4D}
      IID 17
      NAME "01-Recorded MIDI"
      VOLPAN 1 0 1 -1
      SOFFS 0 0
      PLAYRATE 1 1 0 -1 0 0.0021
      CHANMODE 0
      GUID {07C98EC0-6DCA-CB5A-C8A9-B47028F577A7}
      RECPASS 1
      <SOURCE MIDI
        HASDATA 1 960 QN
        CCINTERP 32
        POOLEDEVTS {4F119028-E08F-CA47-C5CB-6397BEDBD872}
        E 0 90 3c 48
        E 0 90 40 48
        E 0 90 43 48
        E 1920 80 3c 00
        E 0 80 40 00
        E 0 80 43 00
        E 0 90 3c 48
        E 0 90 40 48
        E 0 90 43 48
        E 260 80 3c 00
        E 0 80 40 00
        E 0 80 43 00
        E 440 90 3c 48
        E 0 90 40 48
        E 0 90 43 48
        E 260 80 3c 00
        E 0 80 40 00
        E 0 80 43 00
        e 514 90 3c 48
        e 0 90 40 48
        e 0 90 43 48
        e 260 80 3c 00
        e 0 80 40 00
        e 0 80 43 00
        E 186 90 43 48
        E 0 90 47 48
        E 20 90 40 48
        E 1900 80 43 00
        E 0 80 47 00
        E 0 80 40 00
        E 0 90 43 48
        E 0 90 47 48
        E 20 90 40 48
        E 240 80 43 00
        E 0 80 47 00
        E 0 80 40 00
        E 440 90 43 48
        E 0 90 47 48
        E 20 90 40 48
        E 240 80 43 00
        E 0 80 47 00
        E 0 80 40 00
        e 514 90 43 48
        e 0 90 47 48
        e 20 90 40 48
        e 240 80 43 00
        e 0 80 47 00
        e 0 80 40 00
        E 186 90 41 48
        E 0 90 45 48
        E 0 90 48 48
        E 1920 80 41 00
        E 0 80 45 00
        E 0 80 48 00
        E 0 90 41 48
        E 0 90 45 48
        E 0 90 48 48
        E 260 80 41 00
        E 0 80 45 00
        E 0 80 48 00
        E 440 90 41 48
        E 0 90 45 48
        E 0 90 48 48
        E 260 80 41 00
        E 0 80 45 00
        E 0 80 48 00
        e 514 90 41 48
        e 0 90 45 48
        e 0 90 48 48
        e 260 80 41 00
        e 0 80 45 00
        e 0 80 48 00
        E 162 90 3e 48
        E 24 90 41 48
        E 0 90 45 48
        E 1896 90 3e 48
        E 24 80 3e 00
        E 0 80 41 00
        E 0 80 45 00
        E 0 90 41 48
        E 0 90 45 48
        E 260 80 3e 00
        E 0 80 41 00
        E 0 80 45 00
        E 416 90 3e 48
        E 24 90 41 48
        E 0 90 45 48
        E 260 80 3e 00
        E 0 80 41 00
        E 0 80 45 00
        e 490 90 3e 48
        e 24 90 41 48
        e 0 90 45 48
        e 260 80 3e 00
        e 0 80 41 00
        e 0 80 45 00
        E 186 b0 7b 00
        CHASE_CC_TAKEOFFS 1
        GUID {A64857E2-94F8-0990-20DF-4C1E9B5E6251}
        IGNTEMPO 0 120 4 4
        SRCCOLOR 24
        VELLANE -1 100 0
        CFGEDITVIEW 0 0.045808 45 12 0 -1 0 0 0 0.5
        KEYSNAP 0
        TRACKSEL 0
        EVTFILTER 0 -1 -1 -1 -1 0 0 0 0 -1 -1 -1 -1 0 -1 0 -1 -1
        CFGEDIT 1 1 0 1 0 0 1 1 1 1 1 1 58 171 1253 866 0 0 0 0 0.25 0 0 0 0 0.5 0 0 1 64
      >
    >
    <ITEM
      POSITION 64
      SNAPOFFS 0
      LENGTH 8
      LOOP 1
      ALLTAKES 0
      FADEIN 1 0 0 1 0 0
      FADEOUT 1 0 0 1 0 0
      MUTE 0
      SEL 1
      IGUID {0A6558BD-634C-D29C-202A-8B8140A841A3}
      IID 18
      NAME "01-Recorded MIDI"
      VOLPAN 1 0 1 -1
      SOFFS 0 0
      PLAYRATE 1 1 0 -1 0 0.0021
      CHANMODE 0
      GUID {672949C2-16BF-3D1F-39FF-29BEAF47FF68}
      RECPASS 1
      <SOURCE MIDI
        HASDATA 1 960 QN
        CCINTERP 32
        POOLEDEVTS {DBD8240F-E159-88DB-AA39-AB7454CF5145}
        E 0 90 3c 48
        E 0 90 40 48
        E 0 90 43 48
        E 1920 80 3c 00
        E 0 80 40 00
        E 0 80 43 00
        E 0 90 3c 48
        E 0 90 40 48
        E 0 90 43 48
        E 260 80 3c 00
        E 0 80 40 00
        E 0 80 43 00
        E 440 90 3c 48
        E 0 90 40 48
        E 0 90 43 48
        E 260 80 3c 00
        E 0 80 40 00
        E 0 80 43 00
        e 514 90 3c 48
        e 0 90 40 48
        e 0 90 43 48
        e 260 80 3c 00
        e 0 80 40 00
        e 0 80 43 00
        E 186 90 43 48
        E 0 90 47 48
        E 20 90 40 48
        E 1900 80 43 00
        E 0 80 47 00
        E 0 80 40 00
        E 0 90 43 48
        E 0 90 47 48
        E 20 90 40 48
        E 240 80 43 00
        E 0 80 47 00
        E 0 80 40 00
        E 440 90 43 48
        E 0 90 47 48
        E 20 90 40 48
        E 240 80 43 00
        E 0 80 47 00
        E 0 80 40 00
        e 514 90 43 48
        e 0 90 47 48
        e 20 90 40 48
        e 240 80 43 00
        e 0 80 47 00
        e 0 80 40 00
        E 186 90 41 48
        E 0 90 45 48
        E 0 90 48 48
        E 1920 80 41 00
        E 0 80 45 00
        E 0 80 48 00
        E 0 90 41 48
        E 0 90 45 48
        E 0 90 48 48
        E 260 80 41 00
        E 0 80 45 00
        E 0 80 48 00
        E 440 90 41 48
        E 0 90 45 48
        E 0 90 48 48
        E 260 80 41 00
        E 0 80 45 00
        E 0 80 48 00
        e 514 90 41 48
        e 0 90 45 48
        e 0 90 48 48
        e 260 80 41 00
        e 0 80 45 00
        e 0 80 48 00
        E 162 90 3e 48
        E 24 90 41 48
        E 0 90 45 48
        E 1896 90 3e 48
        E 24 80 3e 00
        E 0 80 41 00
        E 0 80 45 00
        E 0 90 41 48
        E 0 90 45 48
        E 260 80 3e 00
        E 0 80 41 00
        E 0 80 45 00
        E 416 90 3e 48
        E 24 90 41 48
        E 0 90 45 48
        E 260 80 3e 00
        E 0 80 41 00
        E 0 80 45 00
        e 490 90 3e 48
        e 24 90 41 48
        e 0 90 45 48
        e 260 80 3e 00
        e 0 80 41 00
        e 0 80 45 00
        E 186 b0 7b 00
        CHASE_CC_TAKEOFFS 1
        GUID {19362806-85F2-5D9E-E1F9-07BE0CF3D16E}
        IGNTEMPO 0 120 4 4
        SRCCOLOR 25
        VELLANE -1 100 0
        CFGEDITVIEW 0 0.045808 45 12 0 -1 0 0 0 0.5
        KEYSNAP 0
        TRACKSEL 0
        EVTFILTER 0 -1 -1 -1 -1 0 0 0 0 -1 -1 -1 -1 0 -1 0 -1 -1
        CFGEDIT 1 1 0 1 0 0 1 1 1 1 1 1 58 171 1253 866 0 0 0 0 0.25 0 0 0 0 0.5 0 0 1 64
      >
    >
    <ITEM
      POSITION 72
      SNAPOFFS 0
      LENGTH 8
      LOOP 1
      ALLTAKES 0
      FADEIN 1 0 0 1 0 0
      FADEOUT 1 0 0 1 0 0
      MUTE 0
      SEL 1
      IGUID {B0C5C6C2-EC39-6888-9B08-D0ABBCF70BD3}
      IID 19
      NAME "01-Recorded MIDI"
      VOLPAN 1 0 1 -1
      SOFFS 0 0
      PLAYRATE 1 1 0 -1 0 0.0021
      CHANMODE 0
      GUID {DC1C1A38-E22D-1E12-90A4-78DFD4E7D4E7}
      RECPASS 1
      <SOURCE MIDI
        HASDATA 1 960 QN
        CCINTERP 32
        POOLEDEVTS {C60D8E9B-96CA-6502-6023-EF82F0FE8E75}
        E 0 90 3c 48
        E 0 90 40 48
        E 0 90 43 48
        E 1920 80 3c 00
        E 0 80 40 00
        E 0 80 43 00
        E 0 90 3c 48
        E 0 90 40 48
        E 0 90 43 48
        E 260 80 3c 00
        E 0 80 40 00
        E 0 80 43 00
        E 440 90 3c 48
        E 0 90 40 48
        E 0 90 43 48
        E 260 80 3c 00
        E 0 80 40 00
        E 0 80 43 00
        e 514 90 3c 48
        e 0 90 40 48
        e 0 90 43 48
        e 260 80 3c 00
        e 0 80 40 00
        e 0 80 43 00
        E 186 90 43 48
        E 0 90 47 48
        E 20 90 40 48
        E 1900 80 43 00
        E 0 80 47 00
        E 0 80 40 00
        E 0 90 43 48
        E 0 90 47 48
        E 20 90 40 48
        E 240 80 43 00
        E 0 80 47 00
        E 0 80 40 00
        E 440 90 43 48
        E 0 90 47 48
        E 20 90 40 48
        E 240 80 43 00
        E 0 80 47 00
        E 0 80 40 00
        e 514 90 43 48
        e 0 90 47 48
        e 20 90 40 48
        e 240 80 43 00
        e 0 80 47 00
        e 0 80 40 00
        E 186 90 41 48
        E 0 90 45 48
        E 0 90 48 48
        E 1920 80 41 00
        E 0 80 45 00
        E 0 80 48 00
        E 0 90 41 48
        E 0 90 45 48
        E 0 90 48 48
        E 260 80 41 00
        E 0 80 45 00
        E 0 80 48 00
        E 440 90 41 48
        E 0 90 45 48
        E 0 90 48 48
        E 260 80 41 00
        E 0 80 45 00
        E 0 80 48 00
        e 514 90 41 48
        e 0 90 45 48
        e 0 90 48 48
        e 260 80 41 00
        e 0 80 45 00
        e 0 80 48 00
        E 162 90 3e 48
        E 24 90 41 48
        E 0 90 45 48
        E 1896 90 3e 48
        E 24 80 3e 00
        E 0 80 41 00
        E 0 80 45 00
        E 0 90 41 48
        E 0 90 45 48
        E 260 80 3e 00
        E 0 80 41 00
        E 0 80 45 00
        E 416 90 3e 48
        E 24 90 41 48
        E 0 90 45 48
        E 260 80 3e 00
        E 0 80 41 00
        E 0 80 45 00
        e 490 90 3e 48
        e 24 90 41 48
        e 0 90 45 48
        e 260 80 3e 00
        e 0 80 41 00
        e 0 80 45 00
        E 186 b0 7b 00
        CHASE_CC_TAKEOFFS 1
        GUID {6844F8A9-6BE9-023C-4A46-0A676470C99B}
        IGNTEMPO 0 120 4 4
        SRCCOLOR 26
        VELLANE -1 100 0
        CFGEDITVIEW 0 0.045808 45 12 0 -1 0 0 0 0.5
        KEYSNAP 0
        TRACKSEL 0
        EVTFILTER 0 -1 -1 -1 -1 0 0 0 0 -1 -1 -1 -1 0 -1 0 -1 -1
        CFGEDIT 1 1 0 1 0 0 1 1 1 1 1 1 58 171 1253 866 0 0 0 0 0.25 0 0 0 0 0.5 0 0 1 64
      >
    >
    <ITEM
      POSITION 80
      SNAPOFFS 0
      LENGTH 8
      LOOP 1
      ALLTAKES 0
      FADEIN 1 0 0 1 0 0
      FADEOUT 1 0 0 1 0 0
      MUTE 0
      SEL 1
      IGUID {D43684D4-E3E6-5560-ECAE-0883B82EDB98}
      IID 20
      NAME "01-Recorded MIDI"
      VOLPAN 1 0 1 -1
      SOFFS 0 0
      PLAYRATE 1 1 0 -1 0 0.0021
      CHANMODE 0
      GUID {15ACDF86-E1F4-7863-82E2-76BB7AA7C47C}
      RECPASS 1
      <SOURCE MIDI
        HASDATA 1 960 QN
        CCINTERP 32
        POOLEDEVTS {6126709C-12B0-1AD4-72C1-B93E8A474454}
        E 0 90 3c 48
        E 0 90 40 48
        E 0 90 43 48
        E 1920 80 3c 00
        E 0 80 40 00
        E 0 80 43 00
        E 0 90 3c 48
        E 0 90 40 48
        E 0 90 43 48
        E 260 80 3c 00
        E 0 80 40 00
        E 0 80 43 00
        E 440 90 3c 48
        E 0 90 40 48
        E 0 90 43 48
        E 260 80 3c 00
        E 0 80 40 00
        E 0 80 43 00
        e 514 90 3c 48
        e 0 90 40 48
        e 0 90 43 48
        e 260 80 3c 00
        e 0 80 40 00
        e 0 80 43 00
        E 186 90 43 48
        E 0 90 47 48
        E 20 90 40 48
        E 1900 80 43 00
        E 0 80 47 00
        E 0 80 40 00
        E 0 90 43 48
        E 0 90 47 48
        E 20 90 40 48
        E 240 80 43 00
        E 0 80 47 00
        E 0 80 40 00
        E 440 90 43 48
        E 0 90 47 48
        E 20 90 40 48
        E 240 80 43 00
        E 0 80 47 00
        E 0 80 40 00
        e 514 90 43 48
        e 0 90 47 48
        e 20 90 40 48
        e 240 80 43 00
        e 0 80 47 00
        e 0 80 40 00
        E 186 90 41 48
        E 0 90 45 48
        E 0 90 48 48
        E 1920 80 41 00
        E 0 80 45 00
        E 0 80 48 00
        E 0 90 41 48
        E 0 90 45 48
        E 0 90 48 48
        E 260 80 41 00
        E 0 80 45 00
        E 0 80 48 00
        E 440 90 41 48
        E 0 90 45 48
        E 0 90 48 48
        E 260 80 41 00
        E 0 80 45 00
        E 0 80 48 00
        e 514 90 41 48
        e 0 90 45 48
        e 0 90 48 48
        e 260 80 41 00
        e 0 80 45 00
        e 0 80 48 00
        E 162 90 3e 48
        E 24 90 41 48
        E 0 90 45 48
        E 1896 90 3e 48
        E 24 80 3e 00
        E 0 80 41 00
        E 0 80 45 00
        E 0 90 41 48
        E 0 90 45 48
        E 260 80 3e 00
        E 0 80 41 00
        E 0 80 45 00
        E 416 90 3e 48
        E 24 90 41 48
        E 0 90 45 48
        E 260 80 3e 00
        E 0 80 41 00
        E 0 80 45 00
        e 490 90 3e 48
        e 24 90 41 48
        e 0 90 45 48
        e 260 80 3e 00
        e 0 80 41 00
        e 0 80 45 00
        E 186 b0 7b 00
        CHASE_CC_TAKEOFFS 1
        GUID {E611ADB6-4869-6CCA-8E83-3954D5E743B1}
        IGNTEMPO 0 120 4 4
        SRCCOLOR 27
        VELLANE -1 100 0
        CFGEDITVIEW 0 0.045808 45 12 0 -1 0 0 0 0.5
        KEYSNAP 0
        TRACKSEL 0
        EVTFILTER 0 -1 -1 -1 -1 0 0 0 0 -1 -1 -1 -1 0 -1 0 -1 -1
        CFGEDIT 1 1 0 1 0 0 1 1 1 1 1 1 58 171 1253 866 0 0 0 0 0.25 0 0 0 0 0.5 0 0 1 64
      >
    >
    <ITEM
      POSITION 88
      SNAPOFFS 0
      LENGTH 8
      LOOP 1
      ALLTAKES 0
      FADEIN 1 0 0 1 0 0
      FADEOUT 1 0 0 1 0 0
      MUTE 0
      SEL 1
      IGUID {9C40AB05-9F4E-0C22-2736-FCF7037232A2}
      IID 21
      NAME "01-Recorded MIDI"
      VOLPAN 1 0 1 -1
      SOFFS 0 0
      PLAYRATE 1 1 0 -1 0 0.0021
      CHANMODE 0
      GUID {6128E16A-D139-716C-301C-6AAFD54CC478}
      RECPASS 1
      <SOURCE MIDI
        HASDATA 1 960 QN
        CCINTERP 32
        POOLEDEVTS {07103976-F31E-66FD-066D-169C787571D6}
        E 0 90 3c 48
        E 0 90 40 48
        E 0 90 43 48
        E 1920 80 3c 00
        E 0 80 40 00
        E 0 80 43 00
        E 0 90 3c 48
        E 0 90 40 48
        E 0 90 43 48
        E 260 80 3c 00
        E 0 80 40 00
        E 0 80 43 00
        E 440 90 3c 48
        E 0 90 40 48
        E 0 90 43 48
        E 260 80 3c 00
        E 0 80 40 00
        E 0 80 43 00
        e 514 90 3c 48
        e 0 90 40 48
        e 0 90 43 48
        e 260 80 3c 00
        e 0 80 40 00
        e 0 80 43 00
        E 186 90 43 48
        E 0 90 47 48
        E 20 90 40 48
        E 1900 80 43 00
        E 0 80 47 00
        E 0 80 40 00
        E 0 90 43 48
        E 0 90 47 48
        E 20 90 40 48
        E 240 80 43 00
        E 0 80 47 00
        E 0 80 40 00
        E 440 90 43 48
        E 0 90 47 48
        E 20 90 40 48
        E 240 80 43 00
        E 0 80 47 00
        E 0 80 40 00
        e 514 90 43 48
        e 0 90 47 48
        e 20 90 40 48
        e 240 80 43 00
        e 0 80 47 00
        e 0 80 40 00
        E 186 90 41 48
        E 0 90 45 48
        E 0 90 48 48
        E 1920 80 41 00
        E 0 80 45 00
        E 0 80 48 00
        E 0 90 41 48
        E 0 90 45 48
        E 0 90 48 48
        E 260 80 41 00
        E 0 80 45 00
        E 0 80 48 00
        E 440 90 41 48
        E 0 90 45 48
        E 0 90 48 48
        E 260 80 41 00
        E 0 80 45 00
        E 0 80 48 00
        e 514 90 41 48
        e 0 90 45 48
        e 0 90 48 48
        e 260 80 41 00
        e 0 80 45 00
        e 0 80 48 00
        E 162 90 3e 48
        E 24 90 41 48
        E 0 90 45 48
        E 1896 90 3e 48
        E 24 80 3e 00
        E 0 80 41 00
        E 0 80 45 00
        E 0 90 41 48
        E 0 90 45 48
        E 260 80 3e 00
        E 0 80 41 00
        E 0 80 45 00
        E 416 90 3e 48
        E 24 90 41 48
        E 0 90 45 48
        E 260 80 3e 00
        E 0 80 41 00
        E 0 80 45 00
        e 490 90 3e 48
        e 24 90 41 48
        e 0 90 45 48
        e 260 80 3e 00
        e 0 80 41 00
        e 0 80 45 00
        E 186 b0 7b 00
        CHASE_CC_TAKEOFFS 1
        GUID {C762B555-17FC-D765-5340-11D3487D2955}
        IGNTEMPO 0 120 4 4
        SRCCOLOR 28
        VELLANE -1 100 0
        CFGEDITVIEW 0 0.045808 45 12 0 -1 0 0 0 0.5
        KEYSNAP 0
        TRACKSEL 0
        EVTFILTER 0 -1 -1 -1 -1 0 0 0 0 -1 -1 -1 -1 0 -1 0 -1 -1
        CFGEDIT 1 1 0 1 0 0 1 1 1 1 1 1 58 171 1253 866 0 0 0 0 0.25 0 0 0 0 0.5 0 0 1 64
      >
    >
  >
  <TRACK {6FC7E556-6571-ADDB-9255-E74E0F2CD90B}
    NAME ""
    PEAKCOL 16576
    BEAT -1
    AUTOMODE 0
    VOLPAN 0.00052194381917 0 -1 -1 1
    MUTESOLO 0 0 0
    IPHASE 0
    PLAYOFFS 0 1
    ISBUS 0 0
    BUSCOMP 0 0 0 0 0
    SHOWINMIX 1 0.6667 0.5 1 0.5 0 0 0
    FREEMODE 0
    SEL 0
    REC 0 5056 1 0 0 0 0
    VU 2
    TRACKHEIGHT 21 0 0
    INQ 0 0 0 0.5 100 0 0 100
    NCHAN 2
    FX 0
    TRACKID {6FC7E556-6571-ADDB-9255-E74E0F2CD90B}
    PERF 0
    MIDIOUT -1
    MAINSEND 1 0
    <FXCHAIN
      WNDRECT 346 266 902 608
      SHOW 0
      LASTSEL 5
      DOCKED 0
      BYPASS 0 0 0
      <VST "VST: ReaEQ (Cockos)" reaeq.vst.so 0 "" 1919247729<56535472656571726561657100000000> ""
        cWVlcu5e7f4CAAAAAQAAAAAAAAACAAAAAAAAAAIAAAABAAAAAAAAAAIAAAAAAAAAqAAAAAEAAAAAABAA
        IQAAAAQAAAAEAAAAAQAAAEC4Xhmm+DRAAAAAAAAA8D8AAAAAAAAAQAEIAAAAAQAAAAAAAAAAwHJAAAAAAAAA8D8AAAAAAAAAQAEIAAAAAQAAAAAAAAAAQI9AAAAAAAAA
        8D8AAAAAAAAAQAEDAAAAAQAAAAABaCorbdRAAAAAAAAA8D8AAAAAAAAAQAEBAAAAAQAAAAAAAAAAAPA/AAAAAJoCAACcAQAA
        AEhpZ2ggbG93IHBhc3MAEAAAAA==
      >
      PRESETNAME "High low pass"
      FLOATPOS 0 0 0 0
      FXID {3EC9AD4B-F45E-1751-8DF3-D659BAB94735}
      WAK 0 0
      BYPASS 0 0 0
      <VST "VSTi: ReaSynth (Cockos)" reasynth.vst.so 0 "" 1919251321<5653547265737972656173796E746800> ""
        eXNlcu9e7f4AAAAAAgAAAAEAAAAAAAAAAgAAAAAAAAA8AAAAAAAAAAAAEAA=
        776t3g3wrd6lm8Q7F7fROgAAAAAAAAAAAAAAAJCNuT3oZ4g9AACAPwAAAD8AAIA/AAAAAAAAAD8AAAAA
        AAAQAAAA
      >
      FLOATPOS 0 0 0 0
      FXID {A7F9B316-EAC9-FC71-48F8-54ECBF1263D2}
      WAK 0 0
      BYPASS 0 0 0
      <JS guitar/amp-model ""
        "Dumble Overdrive Special - Tweed Deluxe.wav" -21.000000 1.000000 0.000000 0.000000 -1.000000 - - - - - - - - - - - - - - - - - - - - - - - - - - - - - - - - - - - - - - - - - - - - - - - - - - - - - - - - - - 
      >
      FLOATPOS 0 0 0 0
      FXID {E92EA639-15ED-8FF4-1E7D-B45CF76FA8D4}
      WAK 0 0
      BYPASS 0 0 0
      <VST "VST: ReaComp (Cockos)" reacomp.vst.so 0 "" 1919247213<5653547265636D726561636F6D700000> ""
        bWNlcu9e7f4EAAAAAQAAAAAAAAACAAAAAAAAAAQAAAAAAAAACAAAAAAAAAACAAAAAQAAAAAAAAACAAAAAAAAAFQAAAAAAAAAAAAQAA==
        776t3g3wrd5FoYg9/AWpPKWbxDsK16M8AAAAAAAAAAAAAIA/AAAAAAAAAAAAAAAAnNEHMwAAgD8AAAAAzMxMPQAAAAAAAAAAAAAAAAAAgD7YiZ09
        AAAQAAAA
      >
      FLOATPOS 0 0 0 0
      FXID {35B5C218-F31F-C0B1-9972-E7615C47F538}
      WAK 0 0
      BYPASS 0 0 0
      <VST "VST: ReaDelay (Cockos)" readelay.vst.so 0 "" 1919247468<5653547265646C72656164656C617900> ""
        bGRlcu5e7f4CAAAAAQAAAAAAAAACAAAAAAAAAAIAAAABAAAAAAAAAAIAAAAAAAAA/AAAAAEAAAAAAAAA
        AAAAAAAAAAAFAAAALAAAAAIAAAAEAAAAAACAPwAAgD8AAAAAAACAPwAAAAAAAIA7vTeGNQAAgD8AAAAAAACAPwAAgD8AAIA/AAAAAAAAAAAAAIA/AAAAAAAAADwAAAAA
        AACAPwAAAAAAAIA/AACAP+87NT8AAIA/AAAAAAAAgD8AAAAAAABAPL03hjUAAIA/AAAAAAAAgD8AAIA/zk0AP6abhD4AAAAAAACAPwAAAAAAAIA8vTeGNQAAgD8AAAAA
        AACAPwAAgD8aqrU+pHA9PwAAAAAAAIA/AAAAAAAAoDy9N4Y1AACAPwAAAAAAAIA/AACAP/npAD4AAAA/
        AHN0b2NrIC0gYmFzaWMgNSB0YXAgcGluZyBwb25nAAAAAAA=
      >
      PRESETNAME "stock - basic 5 tap ping pong"
      FLOATPOS 0 0 0 0
      FXID {0C27FEE3-24D4-B76E-EBF4-8624D45040B7}
      WAK 0 0
      BYPASS 0 0 0
      <VST "VST: ReaVerb (Cockos)" reaverb.vst.so 0 "" 1919252066<56535472657662726561766572620000> ""
        YnZlcu5e7f4CAAAAAQAAAAAAAAACAAAAAAAAAAIAAAABAAAAAAAAAAIAAAAAAAAAcAAAAAEAAAAAAAAA
        AAAAwcybgD4AAIA/AAAAAAAAgD8AAIA/AAAAPwAAgD8AAAAAVkVSQkdFTgAYAAAAAAAAAJHgV0QdrLRA3rK7QsHIjEIAAIC/RUNIT0dFTgAcAAAAy/i2QLUjdUJdzdM/
        osdfP5lRrzyRzYxAnMQAPw==
        AHN3ZWV0dmVyYm8AAAAAAA==
      >
      PRESETNAME sweetverbo
      FLOATPOS 0 0 0 0
      FXID {F13D5476-4F39-C620-6538-DE8665B27C77}
      WAK 0 0
    >
    <ITEM
      POSITION 0
      SNAPOFFS 0
      LENGTH 8
      LOOP 1
      ALLTAKES 0
      FADEIN 1 0 0 1 0 0
      FADEOUT 1 0 0 1 0 0
      MUTE 0
      SEL 1
      IGUID {0C26D75A-DEF0-FA2D-13D0-663AA349E1B7}
      IID 10
      NAME "01-Recorded MIDI"
      VOLPAN 1 0 1 -1
      SOFFS 0 0
      PLAYRATE 1 1 0 -1 0 0.0021
      CHANMODE 0
      GUID {F7C7B018-78BE-3B79-39E5-2A5164E8476D}
      RECPASS 1
      <SOURCE MIDI
        HASDATA 1 960 QN
        CCINTERP 32
        POOLEDEVTS {6CA8C0C1-472F-EEE4-80C1-DC202B2920ED}
        E 0 90 3c 48
        E 0 90 40 48
        E 0 90 43 48
        E 1920 80 3c 00
        E 0 80 40 00
        E 0 80 43 00
        E 0 90 3c 48
        E 0 90 40 48
        E 0 90 43 48
        E 260 80 3c 00
        E 0 80 40 00
        E 0 80 43 00
        E 440 90 3c 48
        E 0 90 40 48
        E 0 90 43 48
        E 260 80 3c 00
        E 0 80 40 00
        E 0 80 43 00
        e 514 90 3c 48
        e 0 90 40 48
        e 0 90 43 48
        e 260 80 3c 00
        e 0 80 40 00
        e 0 80 43 00
        E 186 90 43 48
        E 0 90 47 48
        E 20 90 40 48
        E 1900 80 43 00
        E 0 80 47 00
        E 0 80 40 00
        E 0 90 43 48
        E 0 90 47 48
        E 20 90 40 48
        E 240 80 43 00
        E 0 80 47 00
        E 0 80 40 00
        E 440 90 43 48
        E 0 90 47 48
        E 20 90 40 48
        E 240 80 43 00
        E 0 80 47 00
        E 0 80 40 00
        e 514 90 43 48
        e 0 90 47 48
        e 20 90 40 48
        e 240 80 43 00
        e 0 80 47 00
        e 0 80 40 00
        E 186 90 41 48
        E 0 90 45 48
        E 0 90 48 48
        E 1920 80 41 00
        E 0 80 45 00
        E 0 80 48 00
        E 0 90 41 48
        E 0 90 45 48
        E 0 90 48 48
        E 260 80 41 00
        E 0 80 45 00
        E 0 80 48 00
        E 440 90 41 48
        E 0 90 45 48
        E 0 90 48 48
        E 260 80 41 00
        E 0 80 45 00
        E 0 80 48 00
        e 514 90 41 48
        e 0 90 45 48
        e 0 90 48 48
        e 260 80 41 00
        e 0 80 45 00
        e 0 80 48 00
        E 162 90 3e 48
        E 24 90 41 48
        E 0 90 45 48
        E 1896 90 3e 48
        E 24 80 3e 00
        E 0 80 41 00
        E 0 80 45 00
        E 0 90 41 48
        E 0 90 45 48
        E 260 80 3e 00
        E 0 80 41 00
        E 0 80 45 00
        E 416 90 3e 48
        E 24 90 41 48
        E 0 90 45 48
        E 260 80 3e 00
        E 0 80 41 00
        E 0 80 45 00
        e 490 90 3e 48
        e 24 90 41 48
        e 0 90 45 48
        e 260 80 3e 00
        e 0 80 41 00
        e 0 80 45 00
        E 186 b0 7b 00
        CHASE_CC_TAKEOFFS 1
        GUID {7B9D708B-43E1-C8D4-C4B3-87E2A6C27801}
        IGNTEMPO 0 120 4 4
        SRCCOLOR 17
        VELLANE -1 100 0
        CFGEDITVIEW 0 0.045808 45 12 0 -1 0 0 0 0.5
        KEYSNAP 0
        TRACKSEL 0
        EVTFILTER 0 -1 -1 -1 -1 0 0 0 0 -1 -1 -1 -1 0 -1 0 -1 -1
        CFGEDIT 1 1 0 1 0 0 1 1 1 1 1 1 58 171 1253 866 0 0 0 0 0.25 0 0 0 0 0.5 0 0 1 64
      >
    >
    <ITEM
      POSITION 8
      SNAPOFFS 0
      LENGTH 8
      LOOP 1
      ALLTAKES 0
      FADEIN 1 0 0 1 0 0
      FADEOUT 1 0 0 1 0 0
      MUTE 0
      SEL 1
      IGUID {D6B7D074-CFAF-69D1-092C-CB31F7E2999C}
      IID 11
      NAME "01-Recorded MIDI"
      VOLPAN 1 0 1 -1
      SOFFS 0 0
      PLAYRATE 1 1 0 -1 0 0.0021
      CHANMODE 0
      GUID {8BCF28A3-9F09-F0FF-6591-C2CB50B753E6}
      RECPASS 1
      <SOURCE MIDI
        HASDATA 1 960 QN
        CCINTERP 32
        POOLEDEVTS {BFBDD670-FB3A-28F7-E459-8629039C0A67}
        E 0 90 3c 48
        E 0 90 40 48
        E 0 90 43 48
        E 1920 80 3c 00
        E 0 80 40 00
        E 0 80 43 00
        E 0 90 3c 48
        E 0 90 40 48
        E 0 90 43 48
        E 260 80 3c 00
        E 0 80 40 00
        E 0 80 43 00
        E 440 90 3c 48
        E 0 90 40 48
        E 0 90 43 48
        E 260 80 3c 00
        E 0 80 40 00
        E 0 80 43 00
        e 514 90 3c 48
        e 0 90 40 48
        e 0 90 43 48
        e 260 80 3c 00
        e 0 80 40 00
        e 0 80 43 00
        E 186 90 43 48
        E 0 90 47 48
        E 20 90 40 48
        E 1900 80 43 00
        E 0 80 47 00
        E 0 80 40 00
        E 0 90 43 48
        E 0 90 47 48
        E 20 90 40 48
        E 240 80 43 00
        E 0 80 47 00
        E 0 80 40 00
        E 440 90 43 48
        E 0 90 47 48
        E 20 90 40 48
        E 240 80 43 00
        E 0 80 47 00
        E 0 80 40 00
        e 514 90 43 48
        e 0 90 47 48
        e 20 90 40 48
        e 240 80 43 00
        e 0 80 47 00
        e 0 80 40 00
        E 186 90 41 48
        E 0 90 45 48
        E 0 90 48 48
        E 1920 80 41 00
        E 0 80 45 00
        E 0 80 48 00
        E 0 90 41 48
        E 0 90 45 48
        E 0 90 48 48
        E 260 80 41 00
        E 0 80 45 00
        E 0 80 48 00
        E 440 90 41 48
        E 0 90 45 48
        E 0 90 48 48
        E 260 80 41 00
        E 0 80 45 00
        E 0 80 48 00
        e 514 90 41 48
        e 0 90 45 48
        e 0 90 48 48
        e 260 80 41 00
        e 0 80 45 00
        e 0 80 48 00
        E 162 90 3e 48
        E 24 90 41 48
        E 0 90 45 48
        E 1896 90 3e 48
        E 24 80 3e 00
        E 0 80 41 00
        E 0 80 45 00
        E 0 90 41 48
        E 0 90 45 48
        E 260 80 3e 00
        E 0 80 41 00
        E 0 80 45 00
        E 416 90 3e 48
        E 24 90 41 48
        E 0 90 45 48
        E 260 80 3e 00
        E 0 80 41 00
        E 0 80 45 00
        e 490 90 3e 48
        e 24 90 41 48
        e 0 90 45 48
        e 260 80 3e 00
        e 0 80 41 00
        e 0 80 45 00
        E 186 b0 7b 00
        CHASE_CC_TAKEOFFS 1
        GUID {3131B4E2-B370-E352-A9C5-C8CA31551A86}
        IGNTEMPO 0 120 4 4
        SRCCOLOR 18
        VELLANE -1 100 0
        CFGEDITVIEW 0 0.045808 45 12 0 -1 0 0 0 0.5
        KEYSNAP 0
        TRACKSEL 0
        EVTFILTER 0 -1 -1 -1 -1 0 0 0 0 -1 -1 -1 -1 0 -1 0 -1 -1
        CFGEDIT 1 1 0 1 0 0 1 1 1 1 1 1 58 171 1253 866 0 0 0 0 0.25 0 0 0 0 0.5 0 0 1 64
      >
    >
    <ITEM
      POSITION 16
      SNAPOFFS 0
      LENGTH 8
      LOOP 1
      ALLTAKES 0
      FADEIN 1 0 0 1 0 0
      FADEOUT 1 0 0 1 0 0
      MUTE 0
      SEL 1
      IGUID {BCF72A0B-08A8-1E53-E637-9FDC06F8CBF2}
      IID 12
      NAME "01-Recorded MIDI"
      VOLPAN 1 0 1 -1
      SOFFS 0 0
      PLAYRATE 1 1 0 -1 0 0.0021
      CHANMODE 0
      GUID {4F1107A6-6DAF-E902-3C78-05229DFCECD0}
      RECPASS 1
      <SOURCE MIDI
        HASDATA 1 960 QN
        CCINTERP 32
        POOLEDEVTS {86595B33-31BA-E42F-AF13-13B2DDC12E98}
        E 0 90 3c 48
        E 0 90 40 48
        E 0 90 43 48
        E 1920 80 3c 00
        E 0 80 40 00
        E 0 80 43 00
        E 0 90 3c 48
        E 0 90 40 48
        E 0 90 43 48
        E 260 80 3c 00
        E 0 80 40 00
        E 0 80 43 00
        E 440 90 3c 48
        E 0 90 40 48
        E 0 90 43 48
        E 260 80 3c 00
        E 0 80 40 00
        E 0 80 43 00
        e 514 90 3c 48
        e 0 90 40 48
        e 0 90 43 48
        e 260 80 3c 00
        e 0 80 40 00
        e 0 80 43 00
        E 186 90 43 48
        E 0 90 47 48
        E 20 90 40 48
        E 1900 80 43 00
        E 0 80 47 00
        E 0 80 40 00
        E 0 90 43 48
        E 0 90 47 48
        E 20 90 40 48
        E 240 80 43 00
        E 0 80 47 00
        E 0 80 40 00
        E 440 90 43 48
        E 0 90 47 48
        E 20 90 40 48
        E 240 80 43 00
        E 0 80 47 00
        E 0 80 40 00
        e 514 90 43 48
        e 0 90 47 48
        e 20 90 40 48
        e 240 80 43 00
        e 0 80 47 00
        e 0 80 40 00
        E 186 90 41 48
        E 0 90 45 48
        E 0 90 48 48
        E 1920 80 41 00
        E 0 80 45 00
        E 0 80 48 00
        E 0 90 41 48
        E 0 90 45 48
        E 0 90 48 48
        E 260 80 41 00
        E 0 80 45 00
        E 0 80 48 00
        E 440 90 41 48
        E 0 90 45 48
        E 0 90 48 48
        E 260 80 41 00
        E 0 80 45 00
        E 0 80 48 00
        e 514 90 41 48
        e 0 90 45 48
        e 0 90 48 48
        e 260 80 41 00
        e 0 80 45 00
        e 0 80 48 00
        E 162 90 3e 48
        E 24 90 41 48
        E 0 90 45 48
        E 1896 90 3e 48
        E 24 80 3e 00
        E 0 80 41 00
        E 0 80 45 00
        E 0 90 41 48
        E 0 90 45 48
        E 260 80 3e 00
        E 0 80 41 00
        E 0 80 45 00
        E 416 90 3e 48
        E 24 90 41 48
        E 0 90 45 48
        E 260 80 3e 00
        E 0 80 41 00
        E 0 80 45 00
        e 490 90 3e 48
        e 24 90 41 48
        e 0 90 45 48
        e 260 80 3e 00
        e 0 80 41 00
        e 0 80 45 00
        E 186 b0 7b 00
        CHASE_CC_TAKEOFFS 1
        GUID {48C567A2-895C-FB9B-FDBA-0ADB7004ABF3}
        IGNTEMPO 0 120 4 4
        SRCCOLOR 19
        VELLANE -1 100 0
        CFGEDITVIEW 0 0.045808 45 12 0 -1 0 0 0 0.5
        KEYSNAP 0
        TRACKSEL 0
        EVTFILTER 0 -1 -1 -1 -1 0 0 0 0 -1 -1 -1 -1 0 -1 0 -1 -1
        CFGEDIT 1 1 0 1 0 0 1 1 1 1 1 1 58 171 1253 866 0 0 0 0 0.25 0 0 0 0 0.5 0 0 1 64
      >
    >
    <ITEM
      POSITION 24
      SNAPOFFS 0
      LENGTH 8
      LOOP 1
      ALLTAKES 0
      FADEIN 1 0 0 1 0 0
      FADEOUT 1 0 0 1 0 0
      MUTE 0
      SEL 1
      IGUID {76A9DAD2-D308-3E84-22AB-DCAD9F08638A}
      IID 13
      NAME "01-Recorded MIDI"
      VOLPAN 1 0 1 -1
      SOFFS 0 0
      PLAYRATE 1 1 0 -1 0 0.0021
      CHANMODE 0
      GUID {3CDF1EAC-E22F-C5C4-64AC-3B20E98D2609}
      RECPASS 1
      <SOURCE MIDI
        HASDATA 1 960 QN
        CCINTERP 32
        POOLEDEVTS {655963DB-683C-45D3-2945-4CBDFC2CF3D2}
        E 0 90 3c 48
        E 0 90 40 48
        E 0 90 43 48
        E 1920 80 3c 00
        E 0 80 40 00
        E 0 80 43 00
        E 0 90 3c 48
        E 0 90 40 48
        E 0 90 43 48
        E 260 80 3c 00
        E 0 80 40 00
        E 0 80 43 00
        E 440 90 3c 48
        E 0 90 40 48
        E 0 90 43 48
        E 260 80 3c 00
        E 0 80 40 00
        E 0 80 43 00
        e 514 90 3c 48
        e 0 90 40 48
        e 0 90 43 48
        e 260 80 3c 00
        e 0 80 40 00
        e 0 80 43 00
        E 186 90 43 48
        E 0 90 47 48
        E 20 90 40 48
        E 1900 80 43 00
        E 0 80 47 00
        E 0 80 40 00
        E 0 90 43 48
        E 0 90 47 48
        E 20 90 40 48
        E 240 80 43 00
        E 0 80 47 00
        E 0 80 40 00
        E 440 90 43 48
        E 0 90 47 48
        E 20 90 40 48
        E 240 80 43 00
        E 0 80 47 00
        E 0 80 40 00
        e 514 90 43 48
        e 0 90 47 48
        e 20 90 40 48
        e 240 80 43 00
        e 0 80 47 00
        e 0 80 40 00
        E 186 90 41 48
        E 0 90 45 48
        E 0 90 48 48
        E 1920 80 41 00
        E 0 80 45 00
        E 0 80 48 00
        E 0 90 41 48
        E 0 90 45 48
        E 0 90 48 48
        E 260 80 41 00
        E 0 80 45 00
        E 0 80 48 00
        E 440 90 41 48
        E 0 90 45 48
        E 0 90 48 48
        E 260 80 41 00
        E 0 80 45 00
        E 0 80 48 00
        e 514 90 41 48
        e 0 90 45 48
        e 0 90 48 48
        e 260 80 41 00
        e 0 80 45 00
        e 0 80 48 00
        E 162 90 3e 48
        E 24 90 41 48
        E 0 90 45 48
        E 1896 90 3e 48
        E 24 80 3e 00
        E 0 80 41 00
        E 0 80 45 00
        E 0 90 41 48
        E 0 90 45 48
        E 260 80 3e 00
        E 0 80 41 00
        E 0 80 45 00
        E 416 90 3e 48
        E 24 90 41 48
        E 0 90 45 48
        E 260 80 3e 00
        E 0 80 41 00
        E 0 80 45 00
        e 490 90 3e 48
        e 24 90 41 48
        e 0 90 45 48
        e 260 80 3e 00
        e 0 80 41 00
        e 0 80 45 00
        E 186 b0 7b 00
        CHASE_CC_TAKEOFFS 1
        GUID {1DE38800-E2A1-41B5-9C8C-3291891093B1}
        IGNTEMPO 0 120 4 4
        SRCCOLOR 20
        VELLANE -1 100 0
        CFGEDITVIEW 0 0.045808 45 12 0 -1 0 0 0 0.5
        KEYSNAP 0
        TRACKSEL 0
        EVTFILTER 0 -1 -1 -1 -1 0 0 0 0 -1 -1 -1 -1 0 -1 0 -1 -1
        CFGEDIT 1 1 0 1 0 0 1 1 1 1 1 1 58 171 1253 866 0 0 0 0 0.25 0 0 0 0 0.5 0 0 1 64
      >
    >
    <ITEM
      POSITION 32
      SNAPOFFS 0
      LENGTH 8
      LOOP 1
      ALLTAKES 0
      FADEIN 1 0 0 1 0 0
      FADEOUT 1 0 0 1 0 0
      MUTE 0
      SEL 1
      IGUID {7AB52976-898F-875C-B5EC-91E7F4B36766}
      IID 14
      NAME "01-Recorded MIDI"
      VOLPAN 1 0 1 -1
      SOFFS 0 0
      PLAYRATE 1 1 0 -1 0 0.0021
      CHANMODE 0
      GUID {538BC2C5-C9A9-DDED-D652-32F915EF5AF4}
      RECPASS 1
      <SOURCE MIDI
        HASDATA 1 960 QN
        CCINTERP 32
        POOLEDEVTS {3FD3943D-16E6-316A-718E-85E83EE0250E}
        E 0 90 3c 48
        E 0 90 40 48
        E 0 90 43 48
        E 1920 80 3c 00
        E 0 80 40 00
        E 0 80 43 00
        E 0 90 3c 48
        E 0 90 40 48
        E 0 90 43 48
        E 260 80 3c 00
        E 0 80 40 00
        E 0 80 43 00
        E 440 90 3c 48
        E 0 90 40 48
        E 0 90 43 48
        E 260 80 3c 00
        E 0 80 40 00
        E 0 80 43 00
        e 514 90 3c 48
        e 0 90 40 48
        e 0 90 43 48
        e 260 80 3c 00
        e 0 80 40 00
        e 0 80 43 00
        E 186 90 43 48
        E 0 90 47 48
        E 20 90 40 48
        E 1900 80 43 00
        E 0 80 47 00
        E 0 80 40 00
        E 0 90 43 48
        E 0 90 47 48
        E 20 90 40 48
        E 240 80 43 00
        E 0 80 47 00
        E 0 80 40 00
        E 440 90 43 48
        E 0 90 47 48
        E 20 90 40 48
        E 240 80 43 00
        E 0 80 47 00
        E 0 80 40 00
        e 514 90 43 48
        e 0 90 47 48
        e 20 90 40 48
        e 240 80 43 00
        e 0 80 47 00
        e 0 80 40 00
        E 186 90 41 48
        E 0 90 45 48
        E 0 90 48 48
        E 1920 80 41 00
        E 0 80 45 00
        E 0 80 48 00
        E 0 90 41 48
        E 0 90 45 48
        E 0 90 48 48
        E 260 80 41 00
        E 0 80 45 00
        E 0 80 48 00
        E 440 90 41 48
        E 0 90 45 48
        E 0 90 48 48
        E 260 80 41 00
        E 0 80 45 00
        E 0 80 48 00
        e 514 90 41 48
        e 0 90 45 48
        e 0 90 48 48
        e 260 80 41 00
        e 0 80 45 00
        e 0 80 48 00
        E 162 90 3e 48
        E 24 90 41 48
        E 0 90 45 48
        E 1896 90 3e 48
        E 24 80 3e 00
        E 0 80 41 00
        E 0 80 45 00
        E 0 90 41 48
        E 0 90 45 48
        E 260 80 3e 00
        E 0 80 41 00
        E 0 80 45 00
        E 416 90 3e 48
        E 24 90 41 48
        E 0 90 45 48
        E 260 80 3e 00
        E 0 80 41 00
        E 0 80 45 00
        e 490 90 3e 48
        e 24 90 41 48
        e 0 90 45 48
        e 260 80 3e 00
        e 0 80 41 00
        e 0 80 45 00
        E 186 b0 7b 00
        CHASE_CC_TAKEOFFS 1
        GUID {0C3271F4-E233-9088-9B25-A722FAE7C579}
        IGNTEMPO 0 120 4 4
        SRCCOLOR 21
        VELLANE -1 100 0
        CFGEDITVIEW 0 0.045808 45 12 0 -1 0 0 0 0.5
        KEYSNAP 0
        TRACKSEL 0
        EVTFILTER 0 -1 -1 -1 -1 0 0 0 0 -1 -1 -1 -1 0 -1 0 -1 -1
        CFGEDIT 1 1 0 1 0 0 1 1 1 1 1 1 58 171 1253 866 0 0 0 0 0.25 0 0 0 0 0.5 0 0 1 64
      >
    >
    <ITEM
      POSITION 40
      SNAPOFFS 0
      LENGTH 8
      LOOP 1
      ALLTAKES 0
      FADEIN 1 0 0 1 0 0
      FADEOUT 1 0 0 1 0 0
      MUTE 0
      SEL 1
      IGUID {78B5160E-38B1-D491-EED2-B4DDB91F08E4}
      IID 15
      NAME "01-Recorded MIDI"
      VOLPAN 1 0 1 -1
      SOFFS 0 0
      PLAYRATE 1 1 0 -1 0 0.0021
      CHANMODE 0
      GUID {563E5705-8D88-7CA6-3E85-5C10964F1636}
      RECPASS 1
      <SOURCE MIDI
        HASDATA 1 960 QN
        CCINTERP 32
        POOLEDEVTS {37940214-A35C-EE83-F1F5-E5BEDEE9502E}
        E 0 90 3c 48
        E 0 90 40 48
        E 0 90 43 48
        E 1920 80 3c 00
        E 0 80 40 00
        E 0 80 43 00
        E 0 90 3c 48
        E 0 90 40 48
        E 0 90 43 48
        E 260 80 3c 00
        E 0 80 40 00
        E 0 80 43 00
        E 440 90 3c 48
        E 0 90 40 48
        E 0 90 43 48
        E 260 80 3c 00
        E 0 80 40 00
        E 0 80 43 00
        e 514 90 3c 48
        e 0 90 40 48
        e 0 90 43 48
        e 260 80 3c 00
        e 0 80 40 00
        e 0 80 43 00
        E 186 90 43 48
        E 0 90 47 48
        E 20 90 40 48
        E 1900 80 43 00
        E 0 80 47 00
        E 0 80 40 00
        E 0 90 43 48
        E 0 90 47 48
        E 20 90 40 48
        E 240 80 43 00
        E 0 80 47 00
        E 0 80 40 00
        E 440 90 43 48
        E 0 90 47 48
        E 20 90 40 48
        E 240 80 43 00
        E 0 80 47 00
        E 0 80 40 00
        e 514 90 43 48
        e 0 90 47 48
        e 20 90 40 48
        e 240 80 43 00
        e 0 80 47 00
        e 0 80 40 00
        E 186 90 41 48
        E 0 90 45 48
        E 0 90 48 48
        E 1920 80 41 00
        E 0 80 45 00
        E 0 80 48 00
        E 0 90 41 48
        E 0 90 45 48
        E 0 90 48 48
        E 260 80 41 00
        E 0 80 45 00
        E 0 80 48 00
        E 440 90 41 48
        E 0 90 45 48
        E 0 90 48 48
        E 260 80 41 00
        E 0 80 45 00
        E 0 80 48 00
        e 514 90 41 48
        e 0 90 45 48
        e 0 90 48 48
        e 260 80 41 00
        e 0 80 45 00
        e 0 80 48 00
        E 162 90 3e 48
        E 24 90 41 48
        E 0 90 45 48
        E 1896 90 3e 48
        E 24 80 3e 00
        E 0 80 41 00
        E 0 80 45 00
        E 0 90 41 48
        E 0 90 45 48
        E 260 80 3e 00
        E 0 80 41 00
        E 0 80 45 00
        E 416 90 3e 48
        E 24 90 41 48
        E 0 90 45 48
        E 260 80 3e 00
        E 0 80 41 00
        E 0 80 45 00
        e 490 90 3e 48
        e 24 90 41 48
        e 0 90 45 48
        e 260 80 3e 00
        e 0 80 41 00
        e 0 80 45 00
        E 186 b0 7b 00
        CHASE_CC_TAKEOFFS 1
        GUID {040E7AF8-3572-5D91-3C86-797AEE7444D4}
        IGNTEMPO 0 120 4 4
        SRCCOLOR 22
        VELLANE -1 100 0
        CFGEDITVIEW 0 0.045808 45 12 0 -1 0 0 0 0.5
        KEYSNAP 0
        TRACKSEL 0
        EVTFILTER 0 -1 -1 -1 -1 0 0 0 0 -1 -1 -1 -1 0 -1 0 -1 -1
        CFGEDIT 1 1 0 1 0 0 1 1 1 1 1 1 58 171 1253 866 0 0 0 0 0.25 0 0 0 0 0.5 0 0 1 64
      >
    >
    <ITEM
      POSITION 48
      SNAPOFFS 0
      LENGTH 8
      LOOP 1
      ALLTAKES 0
      FADEIN 1 0 0 1 0 0
      FADEOUT 1 0 0 1 0 0
      MUTE 0
      SEL 1
      IGUID {D9E4DEEC-C619-EE22-2923-287149AC05BA}
      IID 16
      NAME "01-Recorded MIDI"
      VOLPAN 1 0 1 -1
      SOFFS 0 0
      PLAYRATE 1 1 0 -1 0 0.0021
      CHANMODE 0
      GUID {8192FA8E-89A8-70F5-898F-6A21CAE91587}
      RECPASS 1
      <SOURCE MIDI
        HASDATA 1 960 QN
        CCINTERP 32
        POOLEDEVTS {4F1D55A5-B3D0-87E1-AC17-3425B62D9F51}
        E 0 90 3c 48
        E 0 90 40 48
        E 0 90 43 48
        E 1920 80 3c 00
        E 0 80 40 00
        E 0 80 43 00
        E 0 90 3c 48
        E 0 90 40 48
        E 0 90 43 48
        E 260 80 3c 00
        E 0 80 40 00
        E 0 80 43 00
        E 440 90 3c 48
        E 0 90 40 48
        E 0 90 43 48
        E 260 80 3c 00
        E 0 80 40 00
        E 0 80 43 00
        e 514 90 3c 48
        e 0 90 40 48
        e 0 90 43 48
        e 260 80 3c 00
        e 0 80 40 00
        e 0 80 43 00
        E 186 90 43 48
        E 0 90 47 48
        E 20 90 40 48
        E 1900 80 43 00
        E 0 80 47 00
        E 0 80 40 00
        E 0 90 43 48
        E 0 90 47 48
        E 20 90 40 48
        E 240 80 43 00
        E 0 80 47 00
        E 0 80 40 00
        E 440 90 43 48
        E 0 90 47 48
        E 20 90 40 48
        E 240 80 43 00
        E 0 80 47 00
        E 0 80 40 00
        e 514 90 43 48
        e 0 90 47 48
        e 20 90 40 48
        e 240 80 43 00
        e 0 80 47 00
        e 0 80 40 00
        E 186 90 41 48
        E 0 90 45 48
        E 0 90 48 48
        E 1920 80 41 00
        E 0 80 45 00
        E 0 80 48 00
        E 0 90 41 48
        E 0 90 45 48
        E 0 90 48 48
        E 260 80 41 00
        E 0 80 45 00
        E 0 80 48 00
        E 440 90 41 48
        E 0 90 45 48
        E 0 90 48 48
        E 260 80 41 00
        E 0 80 45 00
        E 0 80 48 00
        e 514 90 41 48
        e 0 90 45 48
        e 0 90 48 48
        e 260 80 41 00
        e 0 80 45 00
        e 0 80 48 00
        E 162 90 3e 48
        E 24 90 41 48
        E 0 90 45 48
        E 1896 90 3e 48
        E 24 80 3e 00
        E 0 80 41 00
        E 0 80 45 00
        E 0 90 41 48
        E 0 90 45 48
        E 260 80 3e 00
        E 0 80 41 00
        E 0 80 45 00
        E 416 90 3e 48
        E 24 90 41 48
        E 0 90 45 48
        E 260 80 3e 00
        E 0 80 41 00
        E 0 80 45 00
        e 490 90 3e 48
        e 24 90 41 48
        e 0 90 45 48
        e 260 80 3e 00
        e 0 80 41 00
        e 0 80 45 00
        E 186 b0 7b 00
        CHASE_CC_TAKEOFFS 1
        GUID {2338968B-6CF9-9F40-300F-DEB89D3392EA}
        IGNTEMPO 0 120 4 4
        SRCCOLOR 23
        VELLANE -1 100 0
        CFGEDITVIEW 0 0.045808 45 12 0 -1 0 0 0 0.5
        KEYSNAP 0
        TRACKSEL 0
        EVTFILTER 0 -1 -1 -1 -1 0 0 0 0 -1 -1 -1 -1 0 -1 0 -1 -1
        CFGEDIT 1 1 0 1 0 0 1 1 1 1 1 1 58 171 1253 866 0 0 0 0 0.25 0 0 0 0 0.5 0 0 1 64
      >
    >
    <ITEM
      POSITION 56
      SNAPOFFS 0
      LENGTH 8
      LOOP 1
      ALLTAKES 0
      FADEIN 1 0 0 1 0 0
      FADEOUT 1 0 0 1 0 0
      MUTE 0
      SEL 1
      IGUID {7F4FE7DC-4E18-E6A4-9523-114D6A231217}
      IID 17
      NAME "01-Recorded MIDI"
      VOLPAN 1 0 1 -1
      SOFFS 0 0
      PLAYRATE 1 1 0 -1 0 0.0021
      CHANMODE 0
      GUID {091C1047-14F2-F038-17F6-4836694C4E6D}
      RECPASS 1
      <SOURCE MIDI
        HASDATA 1 960 QN
        CCINTERP 32
        POOLEDEVTS {C1643258-D84D-A073-3B13-E9C7E32A5471}
        E 0 90 3c 48
        E 0 90 40 48
        E 0 90 43 48
        E 1920 80 3c 00
        E 0 80 40 00
        E 0 80 43 00
        E 0 90 3c 48
        E 0 90 40 48
        E 0 90 43 48
        E 260 80 3c 00
        E 0 80 40 00
        E 0 80 43 00
        E 440 90 3c 48
        E 0 90 40 48
        E 0 90 43 48
        E 260 80 3c 00
        E 0 80 40 00
        E 0 80 43 00
        e 514 90 3c 48
        e 0 90 40 48
        e 0 90 43 48
        e 260 80 3c 00
        e 0 80 40 00
        e 0 80 43 00
        E 186 90 43 48
        E 0 90 47 48
        E 20 90 40 48
        E 1900 80 43 00
        E 0 80 47 00
        E 0 80 40 00
        E 0 90 43 48
        E 0 90 47 48
        E 20 90 40 48
        E 240 80 43 00
        E 0 80 47 00
        E 0 80 40 00
        E 440 90 43 48
        E 0 90 47 48
        E 20 90 40 48
        E 240 80 43 00
        E 0 80 47 00
        E 0 80 40 00
        e 514 90 43 48
        e 0 90 47 48
        e 20 90 40 48
        e 240 80 43 00
        e 0 80 47 00
        e 0 80 40 00
        E 186 90 41 48
        E 0 90 45 48
        E 0 90 48 48
        E 1920 80 41 00
        E 0 80 45 00
        E 0 80 48 00
        E 0 90 41 48
        E 0 90 45 48
        E 0 90 48 48
        E 260 80 41 00
        E 0 80 45 00
        E 0 80 48 00
        E 440 90 41 48
        E 0 90 45 48
        E 0 90 48 48
        E 260 80 41 00
        E 0 80 45 00
        E 0 80 48 00
        e 514 90 41 48
        e 0 90 45 48
        e 0 90 48 48
        e 260 80 41 00
        e 0 80 45 00
        e 0 80 48 00
        E 162 90 3e 48
        E 24 90 41 48
        E 0 90 45 48
        E 1896 90 3e 48
        E 24 80 3e 00
        E 0 80 41 00
        E 0 80 45 00
        E 0 90 41 48
        E 0 90 45 48
        E 260 80 3e 00
        E 0 80 41 00
        E 0 80 45 00
        E 416 90 3e 48
        E 24 90 41 48
        E 0 90 45 48
        E 260 80 3e 00
        E 0 80 41 00
        E 0 80 45 00
        e 490 90 3e 48
        e 24 90 41 48
        e 0 90 45 48
        e 260 80 3e 00
        e 0 80 41 00
        e 0 80 45 00
        E 186 b0 7b 00
        CHASE_CC_TAKEOFFS 1
        GUID {A64857E2-94F8-0990-20DF-4C1E9B5E6251}
        IGNTEMPO 0 120 4 4
        SRCCOLOR 24
        VELLANE -1 100 0
        CFGEDITVIEW 0 0.045808 45 12 0 -1 0 0 0 0.5
        KEYSNAP 0
        TRACKSEL 0
        EVTFILTER 0 -1 -1 -1 -1 0 0 0 0 -1 -1 -1 -1 0 -1 0 -1 -1
        CFGEDIT 1 1 0 1 0 0 1 1 1 1 1 1 58 171 1253 866 0 0 0 0 0.25 0 0 0 0 0.5 0 0 1 64
      >
    >
    <ITEM
      POSITION 64
      SNAPOFFS 0
      LENGTH 8
      LOOP 1
      ALLTAKES 0
      FADEIN 1 0 0 1 0 0
      FADEOUT 1 0 0 1 0 0
      MUTE 0
      SEL 1
      IGUID {0A6F5B23-F6D3-9AF0-9AF1-4935E16B2076}
      IID 18
      NAME "01-Recorded MIDI"
      VOLPAN 1 0 1 -1
      SOFFS 0 0
      PLAYRATE 1 1 0 -1 0 0.0021
      CHANMODE 0
      GUID {12F27321-7719-C8EB-AE73-55E661157E23}
      RECPASS 1
      <SOURCE MIDI
        HASDATA 1 960 QN
        CCINTERP 32
        POOLEDEVTS {1B5669D4-9735-6EF2-4F4E-EF891E442787}
        E 0 90 3c 48
        E 0 90 40 48
        E 0 90 43 48
        E 1920 80 3c 00
        E 0 80 40 00
        E 0 80 43 00
        E 0 90 3c 48
        E 0 90 40 48
        E 0 90 43 48
        E 260 80 3c 00
        E 0 80 40 00
        E 0 80 43 00
        E 440 90 3c 48
        E 0 90 40 48
        E 0 90 43 48
        E 260 80 3c 00
        E 0 80 40 00
        E 0 80 43 00
        e 514 90 3c 48
        e 0 90 40 48
        e 0 90 43 48
        e 260 80 3c 00
        e 0 80 40 00
        e 0 80 43 00
        E 186 90 43 48
        E 0 90 47 48
        E 20 90 40 48
        E 1900 80 43 00
        E 0 80 47 00
        E 0 80 40 00
        E 0 90 43 48
        E 0 90 47 48
        E 20 90 40 48
        E 240 80 43 00
        E 0 80 47 00
        E 0 80 40 00
        E 440 90 43 48
        E 0 90 47 48
        E 20 90 40 48
        E 240 80 43 00
        E 0 80 47 00
        E 0 80 40 00
        e 514 90 43 48
        e 0 90 47 48
        e 20 90 40 48
        e 240 80 43 00
        e 0 80 47 00
        e 0 80 40 00
        E 186 90 41 48
        E 0 90 45 48
        E 0 90 48 48
        E 1920 80 41 00
        E 0 80 45 00
        E 0 80 48 00
        E 0 90 41 48
        E 0 90 45 48
        E 0 90 48 48
        E 260 80 41 00
        E 0 80 45 00
        E 0 80 48 00
        E 440 90 41 48
        E 0 90 45 48
        E 0 90 48 48
        E 260 80 41 00
        E 0 80 45 00
        E 0 80 48 00
        e 514 90 41 48
        e 0 90 45 48
        e 0 90 48 48
        e 260 80 41 00
        e 0 80 45 00
        e 0 80 48 00
        E 162 90 3e 48
        E 24 90 41 48
        E 0 90 45 48
        E 1896 90 3e 48
        E 24 80 3e 00
        E 0 80 41 00
        E 0 80 45 00
        E 0 90 41 48
        E 0 90 45 48
        E 260 80 3e 00
        E 0 80 41 00
        E 0 80 45 00
        E 416 90 3e 48
        E 24 90 41 48
        E 0 90 45 48
        E 260 80 3e 00
        E 0 80 41 00
        E 0 80 45 00
        e 490 90 3e 48
        e 24 90 41 48
        e 0 90 45 48
        e 260 80 3e 00
        e 0 80 41 00
        e 0 80 45 00
        E 186 b0 7b 00
        CHASE_CC_TAKEOFFS 1
        GUID {19362806-85F2-5D9E-E1F9-07BE0CF3D16E}
        IGNTEMPO 0 120 4 4
        SRCCOLOR 25
        VELLANE -1 100 0
        CFGEDITVIEW 0 0.045808 45 12 0 -1 0 0 0 0.5
        KEYSNAP 0
        TRACKSEL 0
        EVTFILTER 0 -1 -1 -1 -1 0 0 0 0 -1 -1 -1 -1 0 -1 0 -1 -1
        CFGEDIT 1 1 0 1 0 0 1 1 1 1 1 1 58 171 1253 866 0 0 0 0 0.25 0 0 0 0 0.5 0 0 1 64
      >
    >
    <ITEM
      POSITION 72
      SNAPOFFS 0
      LENGTH 8
      LOOP 1
      ALLTAKES 0
      FADEIN 1 0 0 1 0 0
      FADEOUT 1 0 0 1 0 0
      MUTE 0
      SEL 1
      IGUID {0CA35636-5136-20C8-B10E-10EEFF2E650F}
      IID 19
      NAME "01-Recorded MIDI"
      VOLPAN 1 0 1 -1
      SOFFS 0 0
      PLAYRATE 1 1 0 -1 0 0.0021
      CHANMODE 0
      GUID {49C394A3-0B9C-29E0-5A30-E85AD6104DE0}
      RECPASS 1
      <SOURCE MIDI
        HASDATA 1 960 QN
        CCINTERP 32
        POOLEDEVTS {61A0FE2F-1BC0-7850-D6C6-81F846F0749D}
        E 0 90 3c 48
        E 0 90 40 48
        E 0 90 43 48
        E 1920 80 3c 00
        E 0 80 40 00
        E 0 80 43 00
        E 0 90 3c 48
        E 0 90 40 48
        E 0 90 43 48
        E 260 80 3c 00
        E 0 80 40 00
        E 0 80 43 00
        E 440 90 3c 48
        E 0 90 40 48
        E 0 90 43 48
        E 260 80 3c 00
        E 0 80 40 00
        E 0 80 43 00
        e 514 90 3c 48
        e 0 90 40 48
        e 0 90 43 48
        e 260 80 3c 00
        e 0 80 40 00
        e 0 80 43 00
        E 186 90 43 48
        E 0 90 47 48
        E 20 90 40 48
        E 1900 80 43 00
        E 0 80 47 00
        E 0 80 40 00
        E 0 90 43 48
        E 0 90 47 48
        E 20 90 40 48
        E 240 80 43 00
        E 0 80 47 00
        E 0 80 40 00
        E 440 90 43 48
        E 0 90 47 48
        E 20 90 40 48
        E 240 80 43 00
        E 0 80 47 00
        E 0 80 40 00
        e 514 90 43 48
        e 0 90 47 48
        e 20 90 40 48
        e 240 80 43 00
        e 0 80 47 00
        e 0 80 40 00
        E 186 90 41 48
        E 0 90 45 48
        E 0 90 48 48
        E 1920 80 41 00
        E 0 80 45 00
        E 0 80 48 00
        E 0 90 41 48
        E 0 90 45 48
        E 0 90 48 48
        E 260 80 41 00
        E 0 80 45 00
        E 0 80 48 00
        E 440 90 41 48
        E 0 90 45 48
        E 0 90 48 48
        E 260 80 41 00
        E 0 80 45 00
        E 0 80 48 00
        e 514 90 41 48
        e 0 90 45 48
        e 0 90 48 48
        e 260 80 41 00
        e 0 80 45 00
        e 0 80 48 00
        E 162 90 3e 48
        E 24 90 41 48
        E 0 90 45 48
        E 1896 90 3e 48
        E 24 80 3e 00
        E 0 80 41 00
        E 0 80 45 00
        E 0 90 41 48
        E 0 90 45 48
        E 260 80 3e 00
        E 0 80 41 00
        E 0 80 45 00
        E 416 90 3e 48
        E 24 90 41 48
        E 0 90 45 48
        E 260 80 3e 00
        E 0 80 41 00
        E 0 80 45 00
        e 490 90 3e 48
        e 24 90 41 48
        e 0 90 45 48
        e 260 80 3e 00
        e 0 80 41 00
        e 0 80 45 00
        E 186 b0 7b 00
        CHASE_CC_TAKEOFFS 1
        GUID {6844F8A9-6BE9-023C-4A46-0A676470C99B}
        IGNTEMPO 0 120 4 4
        SRCCOLOR 26
        VELLANE -1 100 0
        CFGEDITVIEW 0 0.045808 45 12 0 -1 0 0 0 0.5
        KEYSNAP 0
        TRACKSEL 0
        EVTFILTER 0 -1 -1 -1 -1 0 0 0 0 -1 -1 -1 -1 0 -1 0 -1 -1
        CFGEDIT 1 1 0 1 0 0 1 1 1 1 1 1 58 171 1253 866 0 0 0 0 0.25 0 0 0 0 0.5 0 0 1 64
      >
    >
    <ITEM
      POSITION 80
      SNAPOFFS 0
      LENGTH 8
      LOOP 1
      ALLTAKES 0
      FADEIN 1 0 0 1 0 0
      FADEOUT 1 0 0 1 0 0
      MUTE 0
      SEL 1
      IGUID {8D1AC4CB-6B23-345F-958D-298993F83399}
      IID 20
      NAME "01-Recorded MIDI"
      VOLPAN 1 0 1 -1
      SOFFS 0 0
      PLAYRATE 1 1 0 -1 0 0.0021
      CHANMODE 0
      GUID {108C106F-7922-EBFD-6E8E-B23272C9040B}
      RECPASS 1
      <SOURCE MIDI
        HASDATA 1 960 QN
        CCINTERP 32
        POOLEDEVTS {BFB2E199-31A5-74D4-754A-C9EA8729AA23}
        E 0 90 3c 48
        E 0 90 40 48
        E 0 90 43 48
        E 1920 80 3c 00
        E 0 80 40 00
        E 0 80 43 00
        E 0 90 3c 48
        E 0 90 40 48
        E 0 90 43 48
        E 260 80 3c 00
        E 0 80 40 00
        E 0 80 43 00
        E 440 90 3c 48
        E 0 90 40 48
        E 0 90 43 48
        E 260 80 3c 00
        E 0 80 40 00
        E 0 80 43 00
        e 514 90 3c 48
        e 0 90 40 48
        e 0 90 43 48
        e 260 80 3c 00
        e 0 80 40 00
        e 0 80 43 00
        E 186 90 43 48
        E 0 90 47 48
        E 20 90 40 48
        E 1900 80 43 00
        E 0 80 47 00
        E 0 80 40 00
        E 0 90 43 48
        E 0 90 47 48
        E 20 90 40 48
        E 240 80 43 00
        E 0 80 47 00
        E 0 80 40 00
        E 440 90 43 48
        E 0 90 47 48
        E 20 90 40 48
        E 240 80 43 00
        E 0 80 47 00
        E 0 80 40 00
        e 514 90 43 48
        e 0 90 47 48
        e 20 90 40 48
        e 240 80 43 00
        e 0 80 47 00
        e 0 80 40 00
        E 186 90 41 48
        E 0 90 45 48
        E 0 90 48 48
        E 1920 80 41 00
        E 0 80 45 00
        E 0 80 48 00
        E 0 90 41 48
        E 0 90 45 48
        E 0 90 48 48
        E 260 80 41 00
        E 0 80 45 00
        E 0 80 48 00
        E 440 90 41 48
        E 0 90 45 48
        E 0 90 48 48
        E 260 80 41 00
        E 0 80 45 00
        E 0 80 48 00
        e 514 90 41 48
        e 0 90 45 48
        e 0 90 48 48
        e 260 80 41 00
        e 0 80 45 00
        e 0 80 48 00
        E 162 90 3e 48
        E 24 90 41 48
        E 0 90 45 48
        E 1896 90 3e 48
        E 24 80 3e 00
        E 0 80 41 00
        E 0 80 45 00
        E 0 90 41 48
        E 0 90 45 48
        E 260 80 3e 00
        E 0 80 41 00
        E 0 80 45 00
        E 416 90 3e 48
        E 24 90 41 48
        E 0 90 45 48
        E 260 80 3e 00
        E 0 80 41 00
        E 0 80 45 00
        e 490 90 3e 48
        e 24 90 41 48
        e 0 90 45 48
        e 260 80 3e 00
        e 0 80 41 00
        e 0 80 45 00
        E 186 b0 7b 00
        CHASE_CC_TAKEOFFS 1
        GUID {E611ADB6-4869-6CCA-8E83-3954D5E743B1}
        IGNTEMPO 0 120 4 4
        SRCCOLOR 27
        VELLANE -1 100 0
        CFGEDITVIEW 0 0.045808 45 12 0 -1 0 0 0 0.5
        KEYSNAP 0
        TRACKSEL 0
        EVTFILTER 0 -1 -1 -1 -1 0 0 0 0 -1 -1 -1 -1 0 -1 0 -1 -1
        CFGEDIT 1 1 0 1 0 0 1 1 1 1 1 1 58 171 1253 866 0 0 0 0 0.25 0 0 0 0 0.5 0 0 1 64
      >
    >
    <ITEM
      POSITION 88
      SNAPOFFS 0
      LENGTH 8
      LOOP 1
      ALLTAKES 0
      FADEIN 1 0 0 1 0 0
      FADEOUT 1 0 0 1 0 0
      MUTE 0
      SEL 1
      IGUID {CB0C03CD-FB81-A87C-EF00-E56E5BEACE25}
      IID 21
      NAME "01-Recorded MIDI"
      VOLPAN 1 0 1 -1
      SOFFS 0 0
      PLAYRATE 1 1 0 -1 0 0.0021
      CHANMODE 0
      GUID {2BFC7B57-71D7-98FE-455D-7A7D661AD796}
      RECPASS 1
      <SOURCE MIDI
        HASDATA 1 960 QN
        CCINTERP 32
        POOLEDEVTS {E9A14545-5241-2A98-0EE8-23A0178AA7EB}
        E 0 90 3c 48
        E 0 90 40 48
        E 0 90 43 48
        E 1920 80 3c 00
        E 0 80 40 00
        E 0 80 43 00
        E 0 90 3c 48
        E 0 90 40 48
        E 0 90 43 48
        E 260 80 3c 00
        E 0 80 40 00
        E 0 80 43 00
        E 440 90 3c 48
        E 0 90 40 48
        E 0 90 43 48
        E 260 80 3c 00
        E 0 80 40 00
        E 0 80 43 00
        e 514 90 3c 48
        e 0 90 40 48
        e 0 90 43 48
        e 260 80 3c 00
        e 0 80 40 00
        e 0 80 43 00
        E 186 90 43 48
        E 0 90 47 48
        E 20 90 40 48
        E 1900 80 43 00
        E 0 80 47 00
        E 0 80 40 00
        E 0 90 43 48
        E 0 90 47 48
        E 20 90 40 48
        E 240 80 43 00
        E 0 80 47 00
        E 0 80 40 00
        E 440 90 43 48
        E 0 90 47 48
        E 20 90 40 48
        E 240 80 43 00
        E 0 80 47 00
        E 0 80 40 00
        e 514 90 43 48
        e 0 90 47 48
        e 20 90 40 48
        e 240 80 43 00
        e 0 80 47 00
        e 0 80 40 00
        E 186 90 41 48
        E 0 90 45 48
        E 0 90 48 48
        E 1920 80 41 00
        E 0 80 45 00
        E 0 80 48 00
        E 0 90 41 48
        E 0 90 45 48
        E 0 90 48 48
        E 260 80 41 00
        E 0 80 45 00
        E 0 80 48 00
        E 440 90 41 48
        E 0 90 45 48
        E 0 90 48 48
        E 260 80 41 00
        E 0 80 45 00
        E 0 80 48 00
        e 514 90 41 48
        e 0 90 45 48
        e 0 90 48 48
        e 260 80 41 00
        e 0 80 45 00
        e 0 80 48 00
        E 162 90 3e 48
        E 24 90 41 48
        E 0 90 45 48
        E 1896 90 3e 48
        E 24 80 3e 00
        E 0 80 41 00
        E 0 80 45 00
        E 0 90 41 48
        E 0 90 45 48
        E 260 80 3e 00
        E 0 80 41 00
        E 0 80 45 00
        E 416 90 3e 48
        E 24 90 41 48
        E 0 90 45 48
        E 260 80 3e 00
        E 0 80 41 00
        E 0 80 45 00
        e 490 90 3e 48
        e 24 90 41 48
        e 0 90 45 48
        e 260 80 3e 00
        e 0 80 41 00
        e 0 80 45 00
        E 186 b0 7b 00
        CHASE_CC_TAKEOFFS 1
        GUID {C762B555-17FC-D765-5340-11D3487D2955}
        IGNTEMPO 0 120 4 4
        SRCCOLOR 28
        VELLANE -1 100 0
        CFGEDITVIEW 0 0.045808 45 12 0 -1 0 0 0 0.5
        KEYSNAP 0
        TRACKSEL 0
        EVTFILTER 0 -1 -1 -1 -1 0 0 0 0 -1 -1 -1 -1 0 -1 0 -1 -1
        CFGEDIT 1 1 0 1 0 0 1 1 1 1 1 1 58 171 1253 866 0 0 0 0 0.25 0 0 0 0 0.5 0 0 1 64
      >
    >
  >
  <TRACK {15204FF4-C17D-D349-7947-E883EAA2B346}
    NAME ""
    PEAKCOL 16576
    BEAT -1
    AUTOMODE 0
    VOLPAN 0.00052194381917 0 -1 -1 1
    MUTESOLO 0 0 0
    IPHASE 0
    PLAYOFFS 0 1
    ISBUS 0 0
    BUSCOMP 0 0 0 0 0
    SHOWINMIX 1 0.6667 0.5 1 0.5 0 0 0
    FREEMODE 0
    SEL 0
    REC 0 5056 1 0 0 0 0
    VU 2
    TRACKHEIGHT 21 0 0
    INQ 0 0 0 0.5 100 0 0 100
    NCHAN 2
    FX 0
    TRACKID {15204FF4-C17D-D349-7947-E883EAA2B346}
    PERF 0
    MIDIOUT -1
    MAINSEND 1 0
    <FXCHAIN
      WNDRECT 346 266 902 608
      SHOW 0
      LASTSEL 5
      DOCKED 0
      BYPASS 0 0 0
      <VST "VST: ReaEQ (Cockos)" reaeq.vst.so 0 "" 1919247729<56535472656571726561657100000000> ""
        cWVlcu5e7f4CAAAAAQAAAAAAAAACAAAAAAAAAAIAAAABAAAAAAAAAAIAAAAAAAAAqAAAAAEAAAAAABAA
        IQAAAAQAAAAEAAAAAQAAAEC4Xhmm+DRAAAAAAAAA8D8AAAAAAAAAQAEIAAAAAQAAAAAAAAAAwHJAAAAAAAAA8D8AAAAAAAAAQAEIAAAAAQAAAAAAAAAAQI9AAAAAAAAA
        8D8AAAAAAAAAQAEDAAAAAQAAAAABaCorbdRAAAAAAAAA8D8AAAAAAAAAQAEBAAAAAQAAAAAAAAAAAPA/AAAAAJoCAACcAQAA
        AEhpZ2ggbG93IHBhc3MAEAAAAA==
      >
      PRESETNAME "High low pass"
      FLOATPOS 0 0 0 0
      FXID {4B34CE4B-F80B-02A4-6BD0-3F55058F5DBB}
      WAK 0 0
      BYPASS 0 0 0
      <VST "VSTi: ReaSynth (Cockos)" reasynth.vst.so 0 "" 1919251321<5653547265737972656173796E746800> ""
        eXNlcu9e7f4AAAAAAgAAAAEAAAAAAAAAAgAAAAAAAAA8AAAAAAAAAAAAEAA=
        776t3g3wrd6lm8Q7F7fROgAAAAAAAAAAAAAAAJCNuT3oZ4g9AACAPwAAAD8AAIA/AAAAAAAAAD8AAAAA
        AAAQAAAA
      >
      FLOATPOS 0 0 0 0
      FXID {D55E5199-FA46-DDD1-B770-A0C5B6DA44EF}
      WAK 0 0
      BYPASS 0 0 0
      <JS guitar/amp-model ""
        "Dumble Overdrive Special - Tweed Deluxe.wav" -21.000000 1.000000 0.000000 0.000000 -1.000000 - - - - - - - - - - - - - - - - - - - - - - - - - - - - - - - - - - - - - - - - - - - - - - - - - - - - - - - - - - 
      >
      FLOATPOS 0 0 0 0
      FXID {D1B29A22-ED71-BC76-77EB-7C6994327D27}
      WAK 0 0
      BYPASS 0 0 0
      <VST "VST: ReaComp (Cockos)" reacomp.vst.so 0 "" 1919247213<5653547265636D726561636F6D700000> ""
        bWNlcu9e7f4EAAAAAQAAAAAAAAACAAAAAAAAAAQAAAAAAAAACAAAAAAAAAACAAAAAQAAAAAAAAACAAAAAAAAAFQAAAAAAAAAAAAQAA==
        776t3g3wrd5FoYg9/AWpPKWbxDsK16M8AAAAAAAAAAAAAIA/AAAAAAAAAAAAAAAAnNEHMwAAgD8AAAAAzMxMPQAAAAAAAAAAAAAAAAAAgD7YiZ09
        AAAQAAAA
      >
      FLOATPOS 0 0 0 0
      FXID {7BD18B3B-A402-5E6D-E803-5053C12F5230}
      WAK 0 0
      BYPASS 0 0 0
      <VST "VST: ReaDelay (Cockos)" readelay.vst.so 0 "" 1919247468<5653547265646C72656164656C617900> ""
        bGRlcu5e7f4CAAAAAQAAAAAAAAACAAAAAAAAAAIAAAABAAAAAAAAAAIAAAAAAAAA/AAAAAEAAAAAAAAA
        AAAAAAAAAAAFAAAALAAAAAIAAAAEAAAAAACAPwAAgD8AAAAAAACAPwAAAAAAAIA7vTeGNQAAgD8AAAAAAACAPwAAgD8AAIA/AAAAAAAAAAAAAIA/AAAAAAAAADwAAAAA
        AACAPwAAAAAAAIA/AACAP+87NT8AAIA/AAAAAAAAgD8AAAAAAABAPL03hjUAAIA/AAAAAAAAgD8AAIA/zk0AP6abhD4AAAAAAACAPwAAAAAAAIA8vTeGNQAAgD8AAAAA
        AACAPwAAgD8aqrU+pHA9PwAAAAAAAIA/AAAAAAAAoDy9N4Y1AACAPwAAAAAAAIA/AACAP/npAD4AAAA/
        AHN0b2NrIC0gYmFzaWMgNSB0YXAgcGluZyBwb25nAAAAAAA=
      >
      PRESETNAME "stock - basic 5 tap ping pong"
      FLOATPOS 0 0 0 0
      FXID {B7B78962-2242-D98D-D667-05C8941737C2}
      WAK 0 0
      BYPASS 0 0 0
      <VST "VST: ReaVerb (Cockos)" reaverb.vst.so 0 "" 1919252066<56535472657662726561766572620000> ""
        YnZlcu5e7f4CAAAAAQAAAAAAAAACAAAAAAAAAAIAAAABAAAAAAAAAAIAAAAAAAAAcAAAAAEAAAAAAAAA
        AAAAwcybgD4AAIA/AAAAAAAAgD8AAIA/AAAAPwAAgD8AAAAAVkVSQkdFTgAYAAAAAAAAAJHgV0QdrLRA3rK7QsHIjEIAAIC/RUNIT0dFTgAcAAAAy/i2QLUjdUJdzdM/
        osdfP5lRrzyRzYxAnMQAPw==
        AHN3ZWV0dmVyYm8AAAAAAA==
      >
      PRESETNAME sweetverbo
      FLOATPOS 0 0 0 0
      FXID {A4A993D0-1815-FBF5-CC5B-7DDF84A58A04}
      WAK 0 0
    >
    <ITEM
      POSITION 0
      SNAPOFFS 0
      LENGTH 8
      LOOP 1
      ALLTAKES 0
      FADEIN 1 0 0 1 0 0
      FADEOUT 1 0 0 1 0 0
      MUTE 0
      SEL 1
      IGUID {9C6C04CE-929B-37D1-D253-8FF5DED52CC1}
      IID 10
      NAME "01-Recorded MIDI"
      VOLPAN 1 0 1 -1
      SOFFS 0 0
      PLAYRATE 1 1 0 -1 0 0.0021
      CHANMODE 0
      GUID {6D73EA49-951E-4E6D-EE3C-D6306F51680C}
      RECPASS 1
      <SOURCE MIDI
        HASDATA 1 960 QN
        CCINTERP 32
        POOLEDEVTS {F96E0F04-0C2E-14FB-6F5E-9C410930A6F3}
        E 0 90 3c 48
        E 0 90 40 48
        E 0 90 43 48
        E 1920 80 3c 00
        E 0 80 40 00
        E 0 80 43 00
        E 0 90 3c 48
        E 0 90 40 48
        E 0 90 43 48
        E 260 80 3c 00
        E 0 80 40 00
        E 0 80 43 00
        E 440 90 3c 48
        E 0 90 40 48
        E 0 90 43 48
        E 260 80 3c 00
        E 0 80 40 00
        E 0 80 43 00
        e 514 90 3c 48
        e 0 90 40 48
        e 0 90 43 48
        e 260 80 3c 00
        e 0 80 40 00
        e 0 80 43 00
        E 186 90 43 48
        E 0 90 47 48
        E 20 90 40 48
        E 1900 80 43 00
        E 0 80 47 00
        E 0 80 40 00
        E 0 90 43 48
        E 0 90 47 48
        E 20 90 40 48
        E 240 80 43 00
        E 0 80 47 00
        E 0 80 40 00
        E 440 90 43 48
        E 0 90 47 48
        E 20 90 40 48
        E 240 80 43 00
        E 0 80 47 00
        E 0 80 40 00
        e 514 90 43 48
        e 0 90 47 48
        e 20 90 40 48
        e 240 80 43 00
        e 0 80 47 00
        e 0 80 40 00
        E 186 90 41 48
        E 0 90 45 48
        E 0 90 48 48
        E 1920 80 41 00
        E 0 80 45 00
        E 0 80 48 00
        E 0 90 41 48
        E 0 90 45 48
        E 0 90 48 48
        E 260 80 41 00
        E 0 80 45 00
        E 0 80 48 00
        E 440 90 41 48
        E 0 90 45 48
        E 0 90 48 48
        E 260 80 41 00
        E 0 80 45 00
        E 0 80 48 00
        e 514 90 41 48
        e 0 90 45 48
        e 0 90 48 48
        e 260 80 41 00
        e 0 80 45 00
        e 0 80 48 00
        E 162 90 3e 48
        E 24 90 41 48
        E 0 90 45 48
        E 1896 90 3e 48
        E 24 80 3e 00
        E 0 80 41 00
        E 0 80 45 00
        E 0 90 41 48
        E 0 90 45 48
        E 260 80 3e 00
        E 0 80 41 00
        E 0 80 45 00
        E 416 90 3e 48
        E 24 90 41 48
        E 0 90 45 48
        E 260 80 3e 00
        E 0 80 41 00
        E 0 80 45 00
        e 490 90 3e 48
        e 24 90 41 48
        e 0 90 45 48
        e 260 80 3e 00
        e 0 80 41 00
        e 0 80 45 00
        E 186 b0 7b 00
        CHASE_CC_TAKEOFFS 1
        GUID {7B9D708B-43E1-C8D4-C4B3-87E2A6C27801}
        IGNTEMPO 0 120 4 4
        SRCCOLOR 17
        VELLANE -1 100 0
        CFGEDITVIEW 0 0.045808 45 12 0 -1 0 0 0 0.5
        KEYSNAP 0
        TRACKSEL 0
        EVTFILTER 0 -1 -1 -1 -1 0 0 0 0 -1 -1 -1 -1 0 -1 0 -1 -1
        CFGEDIT 1 1 0 1 0 0 1 1 1 1 1 1 58 171 1253 866 0 0 0 0 0.25 0 0 0 0 0.5 0 0 1 64
      >
    >
    <ITEM
      POSITION 8
      SNAPOFFS 0
      LENGTH 8
      LOOP 1
      ALLTAKES 0
      FADEIN 1 0 0 1 0 0
      FADEOUT 1 0 0 1 0 0
      MUTE 0
      SEL 1
      IGUID {74CB08FA-EBA4-4C9C-E3F2-5B3D3AB92551}
      IID 11
      NAME "01-Recorded MIDI"
      VOLPAN 1 0 1 -1
      SOFFS 0 0
      PLAYRATE 1 1 0 -1 0 0.0021
      CHANMODE 0
      GUID {9EF09B23-8BC8-CF4D-995C-67F218A4865C}
      RECPASS 1
      <SOURCE MIDI
        HASDATA 1 960 QN
        CCINTERP 32
        POOLEDEVTS {B2BDBE6F-242D-AB0B-5DAB-2D86DE629907}
        E 0 90 3c 48
        E 0 90 40 48
        E 0 90 43 48
        E 1920 80 3c 00
        E 0 80 40 00
        E 0 80 43 00
        E 0 90 3c 48
        E 0 90 40 48
        E 0 90 43 48
        E 260 80 3c 00
        E 0 80 40 00
        E 0 80 43 00
        E 440 90 3c 48
        E 0 90 40 48
        E 0 90 43 48
        E 260 80 3c 00
        E 0 80 40 00
        E 0 80 43 00
        e 514 90 3c 48
        e 0 90 40 48
        e 0 90 43 48
        e 260 80 3c 00
        e 0 80 40 00
        e 0 80 43 00
        E 186 90 43 48
        E 0 90 47 48
        E 20 90 40 48
        E 1900 80 43 00
        E 0 80 47 00
        E 0 80 40 00
        E 0 90 43 48
        E 0 90 47 48
        E 20 90 40 48
        E 240 80 43 00
        E 0 80 47 00
        E 0 80 40 00
        E 440 90 43 48
        E 0 90 47 48
        E 20 90 40 48
        E 240 80 43 00
        E 0 80 47 00
        E 0 80 40 00
        e 514 90 43 48
        e 0 90 47 48
        e 20 90 40 48
        e 240 80 43 00
        e 0 80 47 00
        e 0 80 40 00
        E 186 90 41 48
        E 0 90 45 48
        E 0 90 48 48
        E 1920 80 41 00
        E 0 80 45 00
        E 0 80 48 00
        E 0 90 41 48
        E 0 90 45 48
        E 0 90 48 48
        E 260 80 41 00
        E 0 80 45 00
        E 0 80 48 00
        E 440 90 41 48
        E 0 90 45 48
        E 0 90 48 48
        E 260 80 41 00
        E 0 80 45 00
        E 0 80 48 00
        e 514 90 41 48
        e 0 90 45 48
        e 0 90 48 48
        e 260 80 41 00
        e 0 80 45 00
        e 0 80 48 00
        E 162 90 3e 48
        E 24 90 41 48
        E 0 90 45 48
        E 1896 90 3e 48
        E 24 80 3e 00
        E 0 80 41 00
        E 0 80 45 00
        E 0 90 41 48
        E 0 90 45 48
        E 260 80 3e 00
        E 0 80 41 00
        E 0 80 45 00
        E 416 90 3e 48
        E 24 90 41 48
        E 0 90 45 48
        E 260 80 3e 00
        E 0 80 41 00
        E 0 80 45 00
        e 490 90 3e 48
        e 24 90 41 48
        e 0 90 45 48
        e 260 80 3e 00
        e 0 80 41 00
        e 0 80 45 00
        E 186 b0 7b 00
        CHASE_CC_TAKEOFFS 1
        GUID {3131B4E2-B370-E352-A9C5-C8CA31551A86}
        IGNTEMPO 0 120 4 4
        SRCCOLOR 18
        VELLANE -1 100 0
        CFGEDITVIEW 0 0.045808 45 12 0 -1 0 0 0 0.5
        KEYSNAP 0
        TRACKSEL 0
        EVTFILTER 0 -1 -1 -1 -1 0 0 0 0 -1 -1 -1 -1 0 -1 0 -1 -1
        CFGEDIT 1 1 0 1 0 0 1 1 1 1 1 1 58 171 1253 866 0 0 0 0 0.25 0 0 0 0 0.5 0 0 1 64
      >
    >
    <ITEM
      POSITION 16
      SNAPOFFS 0
      LENGTH 8
      LOOP 1
      ALLTAKES 0
      FADEIN 1 0 0 1 0 0
      FADEOUT 1 0 0 1 0 0
      MUTE 0
      SEL 1
      IGUID {348A4046-D388-5FA3-95DA-3DBA5BCD38F4}
      IID 12
      NAME "01-Recorded MIDI"
      VOLPAN 1 0 1 -1
      SOFFS 0 0
      PLAYRATE 1 1 0 -1 0 0.0021
      CHANMODE 0
      GUID {F46AB2A1-FBD4-1551-8567-B8BE104E22C4}
      RECPASS 1
      <SOURCE MIDI
        HASDATA 1 960 QN
        CCINTERP 32
        POOLEDEVTS {F813AC90-5C66-A5B1-ADDC-09E614479D69}
        E 0 90 3c 48
        E 0 90 40 48
        E 0 90 43 48
        E 1920 80 3c 00
        E 0 80 40 00
        E 0 80 43 00
        E 0 90 3c 48
        E 0 90 40 48
        E 0 90 43 48
        E 260 80 3c 00
        E 0 80 40 00
        E 0 80 43 00
        E 440 90 3c 48
        E 0 90 40 48
        E 0 90 43 48
        E 260 80 3c 00
        E 0 80 40 00
        E 0 80 43 00
        e 514 90 3c 48
        e 0 90 40 48
        e 0 90 43 48
        e 260 80 3c 00
        e 0 80 40 00
        e 0 80 43 00
        E 186 90 43 48
        E 0 90 47 48
        E 20 90 40 48
        E 1900 80 43 00
        E 0 80 47 00
        E 0 80 40 00
        E 0 90 43 48
        E 0 90 47 48
        E 20 90 40 48
        E 240 80 43 00
        E 0 80 47 00
        E 0 80 40 00
        E 440 90 43 48
        E 0 90 47 48
        E 20 90 40 48
        E 240 80 43 00
        E 0 80 47 00
        E 0 80 40 00
        e 514 90 43 48
        e 0 90 47 48
        e 20 90 40 48
        e 240 80 43 00
        e 0 80 47 00
        e 0 80 40 00
        E 186 90 41 48
        E 0 90 45 48
        E 0 90 48 48
        E 1920 80 41 00
        E 0 80 45 00
        E 0 80 48 00
        E 0 90 41 48
        E 0 90 45 48
        E 0 90 48 48
        E 260 80 41 00
        E 0 80 45 00
        E 0 80 48 00
        E 440 90 41 48
        E 0 90 45 48
        E 0 90 48 48
        E 260 80 41 00
        E 0 80 45 00
        E 0 80 48 00
        e 514 90 41 48
        e 0 90 45 48
        e 0 90 48 48
        e 260 80 41 00
        e 0 80 45 00
        e 0 80 48 00
        E 162 90 3e 48
        E 24 90 41 48
        E 0 90 45 48
        E 1896 90 3e 48
        E 24 80 3e 00
        E 0 80 41 00
        E 0 80 45 00
        E 0 90 41 48
        E 0 90 45 48
        E 260 80 3e 00
        E 0 80 41 00
        E 0 80 45 00
        E 416 90 3e 48
        E 24 90 41 48
        E 0 90 45 48
        E 260 80 3e 00
        E 0 80 41 00
        E 0 80 45 00
        e 490 90 3e 48
        e 24 90 41 48
        e 0 90 45 48
        e 260 80 3e 00
        e 0 80 41 00
        e 0 80 45 00
        E 186 b0 7b 00
        CHASE_CC_TAKEOFFS 1
        GUID {48C567A2-895C-FB9B-FDBA-0ADB7004ABF3}
        IGNTEMPO 0 120 4 4
        SRCCOLOR 19
        VELLANE -1 100 0
        CFGEDITVIEW 0 0.045808 45 12 0 -1 0 0 0 0.5
        KEYSNAP 0
        TRACKSEL 0
        EVTFILTER 0 -1 -1 -1 -1 0 0 0 0 -1 -1 -1 -1 0 -1 0 -1 -1
        CFGEDIT 1 1 0 1 0 0 1 1 1 1 1 1 58 171 1253 866 0 0 0 0 0.25 0 0 0 0 0.5 0 0 1 64
      >
    >
    <ITEM
      POSITION 24
      SNAPOFFS 0
      LENGTH 8
      LOOP 1
      ALLTAKES 0
      FADEIN 1 0 0 1 0 0
      FADEOUT 1 0 0 1 0 0
      MUTE 0
      SEL 1
      IGUID {8FA23901-D2BD-E40E-DC15-02211EF73AF3}
      IID 13
      NAME "01-Recorded MIDI"
      VOLPAN 1 0 1 -1
      SOFFS 0 0
      PLAYRATE 1 1 0 -1 0 0.0021
      CHANMODE 0
      GUID {F6418C24-FCBC-B2C2-1FCF-74369BBAC3E2}
      RECPASS 1
      <SOURCE MIDI
        HASDATA 1 960 QN
        CCINTERP 32
        POOLEDEVTS {25426316-4692-088D-EA18-DA61FEF37A5F}
        E 0 90 3c 48
        E 0 90 40 48
        E 0 90 43 48
        E 1920 80 3c 00
        E 0 80 40 00
        E 0 80 43 00
        E 0 90 3c 48
        E 0 90 40 48
        E 0 90 43 48
        E 260 80 3c 00
        E 0 80 40 00
        E 0 80 43 00
        E 440 90 3c 48
        E 0 90 40 48
        E 0 90 43 48
        E 260 80 3c 00
        E 0 80 40 00
        E 0 80 43 00
        e 514 90 3c 48
        e 0 90 40 48
        e 0 90 43 48
        e 260 80 3c 00
        e 0 80 40 00
        e 0 80 43 00
        E 186 90 43 48
        E 0 90 47 48
        E 20 90 40 48
        E 1900 80 43 00
        E 0 80 47 00
        E 0 80 40 00
        E 0 90 43 48
        E 0 90 47 48
        E 20 90 40 48
        E 240 80 43 00
        E 0 80 47 00
        E 0 80 40 00
        E 440 90 43 48
        E 0 90 47 48
        E 20 90 40 48
        E 240 80 43 00
        E 0 80 47 00
        E 0 80 40 00
        e 514 90 43 48
        e 0 90 47 48
        e 20 90 40 48
        e 240 80 43 00
        e 0 80 47 00
        e 0 80 40 00
        E 186 90 41 48
        E 0 90 45 48
        E 0 90 48 48
        E 1920 80 41 00
        E 0 80 45 00
        E 0 80 48 00
        E 0 90 41 48
        E 0 90 45 48
        E 0 90 48 48
        E 260 80 41 00
        E 0 80 45 00
        E 0 80 48 00
        E 440 90 41 48
        E 0 90 45 48
        E 0 90 48 48
        E 260 80 41 00
        E 0 80 45 00
        E 0 80 48 00
        e 514 90 41 48
        e 0 90 45 48
        e 0 90 48 48
        e 260 80 41 00
        e 0 80 45 00
        e 0 80 48 00
        E 162 90 3e 48
        E 24 90 41 48
        E 0 90 45 48
        E 1896 90 3e 48
        E 24 80 3e 00
        E 0 80 41 00
        E 0 80 45 00
        E 0 90 41 48
        E 0 90 45 48
        E 260 80 3e 00
        E 0 80 41 00
        E 0 80 45 00
        E 416 90 3e 48
        E 24 90 41 48
        E 0 90 45 48
        E 260 80 3e 00
        E 0 80 41 00
        E 0 80 45 00
        e 490 90 3e 48
        e 24 90 41 48
        e 0 90 45 48
        e 260 80 3e 00
        e 0 80 41 00
        e 0 80 45 00
        E 186 b0 7b 00
        CHASE_CC_TAKEOFFS 1
        GUID {1DE38800-E2A1-41B5-9C8C-3291891093B1}
        IGNTEMPO 0 120 4 4
        SRCCOLOR 20
        VELLANE -1 100 0
        CFGEDITVIEW 0 0.045808 45 12 0 -1 0 0 0 0.5
        KEYSNAP 0
        TRACKSEL 0
        EVTFILTER 0 -1 -1 -1 -1 0 0 0 0 -1 -1 -1 -1 0 -1 0 -1 -1
        CFGEDIT 1 1 0 1 0 0 1 1 1 1 1 1 58 171 1253 866 0 0 0 0 0.25 0 0 0 0 0.5 0 0 1 64
      >
    >
    <ITEM
      POSITION 32
      SNAPOFFS 0
      LENGTH 8
      LOOP 1
      ALLTAKES 0
      FADEIN 1 0 0 1 0 0
      FADEOUT 1 0 0 1 0 0
      MUTE 0
      SEL 1
      IGUID {10B8CA86-3A93-4F12-F2E1-916D9882BEEA}
      IID 14
      NAME "01-Recorded MIDI"
      VOLPAN 1 0 1 -1
      SOFFS 0 0
      PLAYRATE 1 1 0 -1 0 0.0021
      CHANMODE 0
      GUID {FD23F333-11FC-6EBB-738C-0EAFBA3F2047}
      RECPASS 1
      <SOURCE MIDI
        HASDATA 1 960 QN
        CCINTERP 32
        POOLEDEVTS {693EB9A1-DAFD-EDE6-FC74-CD8699773060}
        E 0 90 3c 48
        E 0 90 40 48
        E 0 90 43 48
        E 1920 80 3c 00
        E 0 80 40 00
        E 0 80 43 00
        E 0 90 3c 48
        E 0 90 40 48
        E 0 90 43 48
        E 260 80 3c 00
        E 0 80 40 00
        E 0 80 43 00
        E 440 90 3c 48
        E 0 90 40 48
        E 0 90 43 48
        E 260 80 3c 00
        E 0 80 40 00
        E 0 80 43 00
        e 514 90 3c 48
        e 0 90 40 48
        e 0 90 43 48
        e 260 80 3c 00
        e 0 80 40 00
        e 0 80 43 00
        E 186 90 43 48
        E 0 90 47 48
        E 20 90 40 48
        E 1900 80 43 00
        E 0 80 47 00
        E 0 80 40 00
        E 0 90 43 48
        E 0 90 47 48
        E 20 90 40 48
        E 240 80 43 00
        E 0 80 47 00
        E 0 80 40 00
        E 440 90 43 48
        E 0 90 47 48
        E 20 90 40 48
        E 240 80 43 00
        E 0 80 47 00
        E 0 80 40 00
        e 514 90 43 48
        e 0 90 47 48
        e 20 90 40 48
        e 240 80 43 00
        e 0 80 47 00
        e 0 80 40 00
        E 186 90 41 48
        E 0 90 45 48
        E 0 90 48 48
        E 1920 80 41 00
        E 0 80 45 00
        E 0 80 48 00
        E 0 90 41 48
        E 0 90 45 48
        E 0 90 48 48
        E 260 80 41 00
        E 0 80 45 00
        E 0 80 48 00
        E 440 90 41 48
        E 0 90 45 48
        E 0 90 48 48
        E 260 80 41 00
        E 0 80 45 00
        E 0 80 48 00
        e 514 90 41 48
        e 0 90 45 48
        e 0 90 48 48
        e 260 80 41 00
        e 0 80 45 00
        e 0 80 48 00
        E 162 90 3e 48
        E 24 90 41 48
        E 0 90 45 48
        E 1896 90 3e 48
        E 24 80 3e 00
        E 0 80 41 00
        E 0 80 45 00
        E 0 90 41 48
        E 0 90 45 48
        E 260 80 3e 00
        E 0 80 41 00
        E 0 80 45 00
        E 416 90 3e 48
        E 24 90 41 48
        E 0 90 45 48
        E 260 80 3e 00
        E 0 80 41 00
        E 0 80 45 00
        e 490 90 3e 48
        e 24 90 41 48
        e 0 90 45 48
        e 260 80 3e 00
        e 0 80 41 00
        e 0 80 45 00
        E 186 b0 7b 00
        CHASE_CC_TAKEOFFS 1
        GUID {0C3271F4-E233-9088-9B25-A722FAE7C579}
        IGNTEMPO 0 120 4 4
        SRCCOLOR 21
        VELLANE -1 100 0
        CFGEDITVIEW 0 0.045808 45 12 0 -1 0 0 0 0.5
        KEYSNAP 0
        TRACKSEL 0
        EVTFILTER 0 -1 -1 -1 -1 0 0 0 0 -1 -1 -1 -1 0 -1 0 -1 -1
        CFGEDIT 1 1 0 1 0 0 1 1 1 1 1 1 58 171 1253 866 0 0 0 0 0.25 0 0 0 0 0.5 0 0 1 64
      >
    >
    <ITEM
      POSITION 40
      SNAPOFFS 0
      LENGTH 8
      LOOP 1
      ALLTAKES 0
      FADEIN 1 0 0 1 0 0
      FADEOUT 1 0 0 1 0 0
      MUTE 0
      SEL 1
      IGUID {F13E6A60-2FBE-DC2D-2C69-867B1556434B}
      IID 15
      NAME "01-Recorded MIDI"
      VOLPAN 1 0 1 -1
      SOFFS 0 0
      PLAYRATE 1 1 0 -1 0 0.0021
      CHANMODE 0
      GUID {BCD32AC8-8EFB-3CD4-280B-3B9C5CF82979}
      RECPASS 1
      <SOURCE MIDI
        HASDATA 1 960 QN
        CCINTERP 32
        POOLEDEVTS {7D58E405-78E5-2AFE-F8BB-E28E6C81A1FF}
        E 0 90 3c 48
        E 0 90 40 48
        E 0 90 43 48
        E 1920 80 3c 00
        E 0 80 40 00
        E 0 80 43 00
        E 0 90 3c 48
        E 0 90 40 48
        E 0 90 43 48
        E 260 80 3c 00
        E 0 80 40 00
        E 0 80 43 00
        E 440 90 3c 48
        E 0 90 40 48
        E 0 90 43 48
        E 260 80 3c 00
        E 0 80 40 00
        E 0 80 43 00
        e 514 90 3c 48
        e 0 90 40 48
        e 0 90 43 48
        e 260 80 3c 00
        e 0 80 40 00
        e 0 80 43 00
        E 186 90 43 48
        E 0 90 47 48
        E 20 90 40 48
        E 1900 80 43 00
        E 0 80 47 00
        E 0 80 40 00
        E 0 90 43 48
        E 0 90 47 48
        E 20 90 40 48
        E 240 80 43 00
        E 0 80 47 00
        E 0 80 40 00
        E 440 90 43 48
        E 0 90 47 48
        E 20 90 40 48
        E 240 80 43 00
        E 0 80 47 00
        E 0 80 40 00
        e 514 90 43 48
        e 0 90 47 48
        e 20 90 40 48
        e 240 80 43 00
        e 0 80 47 00
        e 0 80 40 00
        E 186 90 41 48
        E 0 90 45 48
        E 0 90 48 48
        E 1920 80 41 00
        E 0 80 45 00
        E 0 80 48 00
        E 0 90 41 48
        E 0 90 45 48
        E 0 90 48 48
        E 260 80 41 00
        E 0 80 45 00
        E 0 80 48 00
        E 440 90 41 48
        E 0 90 45 48
        E 0 90 48 48
        E 260 80 41 00
        E 0 80 45 00
        E 0 80 48 00
        e 514 90 41 48
        e 0 90 45 48
        e 0 90 48 48
        e 260 80 41 00
        e 0 80 45 00
        e 0 80 48 00
        E 162 90 3e 48
        E 24 90 41 48
        E 0 90 45 48
        E 1896 90 3e 48
        E 24 80 3e 00
        E 0 80 41 00
        E 0 80 45 00
        E 0 90 41 48
        E 0 90 45 48
        E 260 80 3e 00
        E 0 80 41 00
        E 0 80 45 00
        E 416 90 3e 48
        E 24 90 41 48
        E 0 90 45 48
        E 260 80 3e 00
        E 0 80 41 00
        E 0 80 45 00
        e 490 90 3e 48
        e 24 90 41 48
        e 0 90 45 48
        e 260 80 3e 00
        e 0 80 41 00
        e 0 80 45 00
        E 186 b0 7b 00
        CHASE_CC_TAKEOFFS 1
        GUID {040E7AF8-3572-5D91-3C86-797AEE7444D4}
        IGNTEMPO 0 120 4 4
        SRCCOLOR 22
        VELLANE -1 100 0
        CFGEDITVIEW 0 0.045808 45 12 0 -1 0 0 0 0.5
        KEYSNAP 0
        TRACKSEL 0
        EVTFILTER 0 -1 -1 -1 -1 0 0 0 0 -1 -1 -1 -1 0 -1 0 -1 -1
        CFGEDIT 1 1 0 1 0 0 1 1 1 1 1 1 58 171 1253 866 0 0 0 0 0.25 0 0 0 0 0.5 0 0 1 64
      >
    >
    <ITEM
      POSITION 48
      SNAPOFFS 0
      LENGTH 8
      LOOP 1
      ALLTAKES 0
      FADEIN 1 0 0 1 0 0
      FADEOUT 1 0 0 1 0 0
      MUTE 0
      SEL 1
      IGUID {0EEB80B0-4220-2C99-8969-A13B27FF3B80}
      IID 16
      NAME "01-Recorded MIDI"
      VOLPAN 1 0 1 -1
      SOFFS 0 0
      PLAYRATE 1 1 0 -1 0 0.0021
      CHANMODE 0
      GUID {847158A5-A042-8E91-72AF-EF8CF8391618}
      RECPASS 1
      <SOURCE MIDI
        HASDATA 1 960 QN
        CCINTERP 32
        POOLEDEVTS {9FCBFB8C-F03E-E5CA-1A90-BF54B2EB0629}
        E 0 90 3c 48
        E 0 90 40 48
        E 0 90 43 48
        E 1920 80 3c 00
        E 0 80 40 00
        E 0 80 43 00
        E 0 90 3c 48
        E 0 90 40 48
        E 0 90 43 48
        E 260 80 3c 00
        E 0 80 40 00
        E 0 80 43 00
        E 440 90 3c 48
        E 0 90 40 48
        E 0 90 43 48
        E 260 80 3c 00
        E 0 80 40 00
        E 0 80 43 00
        e 514 90 3c 48
        e 0 90 40 48
        e 0 90 43 48
        e 260 80 3c 00
        e 0 80 40 00
        e 0 80 43 00
        E 186 90 43 48
        E 0 90 47 48
        E 20 90 40 48
        E 1900 80 43 00
        E 0 80 47 00
        E 0 80 40 00
        E 0 90 43 48
        E 0 90 47 48
        E 20 90 40 48
        E 240 80 43 00
        E 0 80 47 00
        E 0 80 40 00
        E 440 90 43 48
        E 0 90 47 48
        E 20 90 40 48
        E 240 80 43 00
        E 0 80 47 00
        E 0 80 40 00
        e 514 90 43 48
        e 0 90 47 48
        e 20 90 40 48
        e 240 80 43 00
        e 0 80 47 00
        e 0 80 40 00
        E 186 90 41 48
        E 0 90 45 48
        E 0 90 48 48
        E 1920 80 41 00
        E 0 80 45 00
        E 0 80 48 00
        E 0 90 41 48
        E 0 90 45 48
        E 0 90 48 48
        E 260 80 41 00
        E 0 80 45 00
        E 0 80 48 00
        E 440 90 41 48
        E 0 90 45 48
        E 0 90 48 48
        E 260 80 41 00
        E 0 80 45 00
        E 0 80 48 00
        e 514 90 41 48
        e 0 90 45 48
        e 0 90 48 48
        e 260 80 41 00
        e 0 80 45 00
        e 0 80 48 00
        E 162 90 3e 48
        E 24 90 41 48
        E 0 90 45 48
        E 1896 90 3e 48
        E 24 80 3e 00
        E 0 80 41 00
        E 0 80 45 00
        E 0 90 41 48
        E 0 90 45 48
        E 260 80 3e 00
        E 0 80 41 00
        E 0 80 45 00
        E 416 90 3e 48
        E 24 90 41 48
        E 0 90 45 48
        E 260 80 3e 00
        E 0 80 41 00
        E 0 80 45 00
        e 490 90 3e 48
        e 24 90 41 48
        e 0 90 45 48
        e 260 80 3e 00
        e 0 80 41 00
        e 0 80 45 00
        E 186 b0 7b 00
        CHASE_CC_TAKEOFFS 1
        GUID {2338968B-6CF9-9F40-300F-DEB89D3392EA}
        IGNTEMPO 0 120 4 4
        SRCCOLOR 23
        VELLANE -1 100 0
        CFGEDITVIEW 0 0.045808 45 12 0 -1 0 0 0 0.5
        KEYSNAP 0
        TRACKSEL 0
        EVTFILTER 0 -1 -1 -1 -1 0 0 0 0 -1 -1 -1 -1 0 -1 0 -1 -1
        CFGEDIT 1 1 0 1 0 0 1 1 1 1 1 1 58 171 1253 866 0 0 0 0 0.25 0 0 0 0 0.5 0 0 1 64
      >
    >
    <ITEM
      POSITION 56
      SNAPOFFS 0
      LENGTH 8
      LOOP 1
      ALLTAKES 0
      FADEIN 1 0 0 1 0 0
      FADEOUT 1 0 0 1 0 0
      MUTE 0
      SEL 1
      IGUID {DC4E6835-792C-9D0C-43D1-92F4F3B586B6}
      IID 17
      NAME "01-Recorded MIDI"
      VOLPAN 1 0 1 -1
      SOFFS 0 0
      PLAYRATE 1 1 0 -1 0 0.0021
      CHANMODE 0
      GUID {71CC54F3-024E-2F99-5FC2-12F6A4E0DEE8}
      RECPASS 1
      <SOURCE MIDI
        HASDATA 1 960 QN
        CCINTERP 32
        POOLEDEVTS {661E6A3F-2019-CB2B-58A5-E3FC7AAFD6EF}
        E 0 90 3c 48
        E 0 90 40 48
        E 0 90 43 48
        E 1920 80 3c 00
        E 0 80 40 00
        E 0 80 43 00
        E 0 90 3c 48
        E 0 90 40 48
        E 0 90 43 48
        E 260 80 3c 00
        E 0 80 40 00
        E 0 80 43 00
        E 440 90 3c 48
        E 0 90 40 48
        E 0 90 43 48
        E 260 80 3c 00
        E 0 80 40 00
        E 0 80 43 00
        e 514 90 3c 48
        e 0 90 40 48
        e 0 90 43 48
        e 260 80 3c 00
        e 0 80 40 00
        e 0 80 43 00
        E 186 90 43 48
        E 0 90 47 48
        E 20 90 40 48
        E 1900 80 43 00
        E 0 80 47 00
        E 0 80 40 00
        E 0 90 43 48
        E 0 90 47 48
        E 20 90 40 48
        E 240 80 43 00
        E 0 80 47 00
        E 0 80 40 00
        E 440 90 43 48
        E 0 90 47 48
        E 20 90 40 48
        E 240 80 43 00
        E 0 80 47 00
        E 0 80 40 00
        e 514 90 43 48
        e 0 90 47 48
        e 20 90 40 48
        e 240 80 43 00
        e 0 80 47 00
        e 0 80 40 00
        E 186 90 41 48
        E 0 90 45 48
        E 0 90 48 48
        E 1920 80 41 00
        E 0 80 45 00
        E 0 80 48 00
        E 0 90 41 48
        E 0 90 45 48
        E 0 90 48 48
        E 260 80 41 00
        E 0 80 45 00
        E 0 80 48 00
        E 440 90 41 48
        E 0 90 45 48
        E 0 90 48 48
        E 260 80 41 00
        E 0 80 45 00
        E 0 80 48 00
        e 514 90 41 48
        e 0 90 45 48
        e 0 90 48 48
        e 260 80 41 00
        e 0 80 45 00
        e 0 80 48 00
        E 162 90 3e 48
        E 24 90 41 48
        E 0 90 45 48
        E 1896 90 3e 48
        E 24 80 3e 00
        E 0 80 41 00
        E 0 80 45 00
        E 0 90 41 48
        E 0 90 45 48
        E 260 80 3e 00
        E 0 80 41 00
        E 0 80 45 00
        E 416 90 3e 48
        E 24 90 41 48
        E 0 90 45 48
        E 260 80 3e 00
        E 0 80 41 00
        E 0 80 45 00
        e 490 90 3e 48
        e 24 90 41 48
        e 0 90 45 48
        e 260 80 3e 00
        e 0 80 41 00
        e 0 80 45 00
        E 186 b0 7b 00
        CHASE_CC_TAKEOFFS 1
        GUID {A64857E2-94F8-0990-20DF-4C1E9B5E6251}
        IGNTEMPO 0 120 4 4
        SRCCOLOR 24
        VELLANE -1 100 0
        CFGEDITVIEW 0 0.045808 45 12 0 -1 0 0 0 0.5
        KEYSNAP 0
        TRACKSEL 0
        EVTFILTER 0 -1 -1 -1 -1 0 0 0 0 -1 -1 -1 -1 0 -1 0 -1 -1
        CFGEDIT 1 1 0 1 0 0 1 1 1 1 1 1 58 171 1253 866 0 0 0 0 0.25 0 0 0 0 0.5 0 0 1 64
      >
    >
    <ITEM
      POSITION 64
      SNAPOFFS 0
      LENGTH 8
      LOOP 1
      ALLTAKES 0
      FADEIN 1 0 0 1 0 0
      FADEOUT 1 0 0 1 0 0
      MUTE 0
      SEL 1
      IGUID {157CEB35-A998-5F9B-2009-43D5D745D4F9}
      IID 18
      NAME "01-Recorded MIDI"
      VOLPAN 1 0 1 -1
      SOFFS 0 0
      PLAYRATE 1 1 0 -1 0 0.0021
      CHANMODE 0
      GUID {B582081F-1817-B7DF-006C-865AAFC20932}
      RECPASS 1
      <SOURCE MIDI
        HASDATA 1 960 QN
        CCINTERP 32
        POOLEDEVTS {609CAD3F-72D3-3EAA-FB4F-7070E7A459B1}
        E 0 90 3c 48
        E 0 90 40 48
        E 0 90 43 48
        E 1920 80 3c 00
        E 0 80 40 00
        E 0 80 43 00
        E 0 90 3c 48
        E 0 90 40 48
        E 0 90 43 48
        E 260 80 3c 00
        E 0 80 40 00
        E 0 80 43 00
        E 440 90 3c 48
        E 0 90 40 48
        E 0 90 43 48
        E 260 80 3c 00
        E 0 80 40 00
        E 0 80 43 00
        e 514 90 3c 48
        e 0 90 40 48
        e 0 90 43 48
        e 260 80 3c 00
        e 0 80 40 00
        e 0 80 43 00
        E 186 90 43 48
        E 0 90 47 48
        E 20 90 40 48
        E 1900 80 43 00
        E 0 80 47 00
        E 0 80 40 00
        E 0 90 43 48
        E 0 90 47 48
        E 20 90 40 48
        E 240 80 43 00
        E 0 80 47 00
        E 0 80 40 00
        E 440 90 43 48
        E 0 90 47 48
        E 20 90 40 48
        E 240 80 43 00
        E 0 80 47 00
        E 0 80 40 00
        e 514 90 43 48
        e 0 90 47 48
        e 20 90 40 48
        e 240 80 43 00
        e 0 80 47 00
        e 0 80 40 00
        E 186 90 41 48
        E 0 90 45 48
        E 0 90 48 48
        E 1920 80 41 00
        E 0 80 45 00
        E 0 80 48 00
        E 0 90 41 48
        E 0 90 45 48
        E 0 90 48 48
        E 260 80 41 00
        E 0 80 45 00
        E 0 80 48 00
        E 440 90 41 48
        E 0 90 45 48
        E 0 90 48 48
        E 260 80 41 00
        E 0 80 45 00
        E 0 80 48 00
        e 514 90 41 48
        e 0 90 45 48
        e 0 90 48 48
        e 260 80 41 00
        e 0 80 45 00
        e 0 80 48 00
        E 162 90 3e 48
        E 24 90 41 48
        E 0 90 45 48
        E 1896 90 3e 48
        E 24 80 3e 00
        E 0 80 41 00
        E 0 80 45 00
        E 0 90 41 48
        E 0 90 45 48
        E 260 80 3e 00
        E 0 80 41 00
        E 0 80 45 00
        E 416 90 3e 48
        E 24 90 41 48
        E 0 90 45 48
        E 260 80 3e 00
        E 0 80 41 00
        E 0 80 45 00
        e 490 90 3e 48
        e 24 90 41 48
        e 0 90 45 48
        e 260 80 3e 00
        e 0 80 41 00
        e 0 80 45 00
        E 186 b0 7b 00
        CHASE_CC_TAKEOFFS 1
        GUID {19362806-85F2-5D9E-E1F9-07BE0CF3D16E}
        IGNTEMPO 0 120 4 4
        SRCCOLOR 25
        VELLANE -1 100 0
        CFGEDITVIEW 0 0.045808 45 12 0 -1 0 0 0 0.5
        KEYSNAP 0
        TRACKSEL 0
        EVTFILTER 0 -1 -1 -1 -1 0 0 0 0 -1 -1 -1 -1 0 -1 0 -1 -1
        CFGEDIT 1 1 0 1 0 0 1 1 1 1 1 1 58 171 1253 866 0 0 0 0 0.25 0 0 0 0 0.5 0 0 1 64
      >
    >
    <ITEM
      POSITION 72
      SNAPOFFS 0
      LENGTH 8
      LOOP 1
      ALLTAKES 0
      FADEIN 1 0 0 1 0 0
      FADEOUT 1 0 0 1 0 0
      MUTE 0
      SEL 1
      IGUID {F3CBAEAB-23A0-4F5C-C6DF-65BA13FB51C4}
      IID 19
      NAME "01-Recorded MIDI"
      VOLPAN 1 0 1 -1
      SOFFS 0 0
      PLAYRATE 1 1 0 -1 0 0.0021
      CHANMODE 0
      GUID {CFD918D3-FAB4-4F54-136E-F42917664CED}
      RECPASS 1
      <SOURCE MIDI
        HASDATA 1 960 QN
        CCINTERP 32
        POOLEDEVTS {81D55DD8-21E9-4F71-2711-D16CDAEA1D6D}
        E 0 90 3c 48
        E 0 90 40 48
        E 0 90 43 48
        E 1920 80 3c 00
        E 0 80 40 00
        E 0 80 43 00
        E 0 90 3c 48
        E 0 90 40 48
        E 0 90 43 48
        E 260 80 3c 00
        E 0 80 40 00
        E 0 80 43 00
        E 440 90 3c 48
        E 0 90 40 48
        E 0 90 43 48
        E 260 80 3c 00
        E 0 80 40 00
        E 0 80 43 00
        e 514 90 3c 48
        e 0 90 40 48
        e 0 90 43 48
        e 260 80 3c 00
        e 0 80 40 00
        e 0 80 43 00
        E 186 90 43 48
        E 0 90 47 48
        E 20 90 40 48
        E 1900 80 43 00
        E 0 80 47 00
        E 0 80 40 00
        E 0 90 43 48
        E 0 90 47 48
        E 20 90 40 48
        E 240 80 43 00
        E 0 80 47 00
        E 0 80 40 00
        E 440 90 43 48
        E 0 90 47 48
        E 20 90 40 48
        E 240 80 43 00
        E 0 80 47 00
        E 0 80 40 00
        e 514 90 43 48
        e 0 90 47 48
        e 20 90 40 48
        e 240 80 43 00
        e 0 80 47 00
        e 0 80 40 00
        E 186 90 41 48
        E 0 90 45 48
        E 0 90 48 48
        E 1920 80 41 00
        E 0 80 45 00
        E 0 80 48 00
        E 0 90 41 48
        E 0 90 45 48
        E 0 90 48 48
        E 260 80 41 00
        E 0 80 45 00
        E 0 80 48 00
        E 440 90 41 48
        E 0 90 45 48
        E 0 90 48 48
        E 260 80 41 00
        E 0 80 45 00
        E 0 80 48 00
        e 514 90 41 48
        e 0 90 45 48
        e 0 90 48 48
        e 260 80 41 00
        e 0 80 45 00
        e 0 80 48 00
        E 162 90 3e 48
        E 24 90 41 48
        E 0 90 45 48
        E 1896 90 3e 48
        E 24 80 3e 00
        E 0 80 41 00
        E 0 80 45 00
        E 0 90 41 48
        E 0 90 45 48
        E 260 80 3e 00
        E 0 80 41 00
        E 0 80 45 00
        E 416 90 3e 48
        E 24 90 41 48
        E 0 90 45 48
        E 260 80 3e 00
        E 0 80 41 00
        E 0 80 45 00
        e 490 90 3e 48
        e 24 90 41 48
        e 0 90 45 48
        e 260 80 3e 00
        e 0 80 41 00
        e 0 80 45 00
        E 186 b0 7b 00
        CHASE_CC_TAKEOFFS 1
        GUID {6844F8A9-6BE9-023C-4A46-0A676470C99B}
        IGNTEMPO 0 120 4 4
        SRCCOLOR 26
        VELLANE -1 100 0
        CFGEDITVIEW 0 0.045808 45 12 0 -1 0 0 0 0.5
        KEYSNAP 0
        TRACKSEL 0
        EVTFILTER 0 -1 -1 -1 -1 0 0 0 0 -1 -1 -1 -1 0 -1 0 -1 -1
        CFGEDIT 1 1 0 1 0 0 1 1 1 1 1 1 58 171 1253 866 0 0 0 0 0.25 0 0 0 0 0.5 0 0 1 64
      >
    >
    <ITEM
      POSITION 80
      SNAPOFFS 0
      LENGTH 8
      LOOP 1
      ALLTAKES 0
      FADEIN 1 0 0 1 0 0
      FADEOUT 1 0 0 1 0 0
      MUTE 0
      SEL 1
      IGUID {E7FC5C23-041A-63D1-6998-0FF87EE16BAA}
      IID 20
      NAME "01-Recorded MIDI"
      VOLPAN 1 0 1 -1
      SOFFS 0 0
      PLAYRATE 1 1 0 -1 0 0.0021
      CHANMODE 0
      GUID {42C0F193-0BFF-F146-9110-2C9ECFEB8B9C}
      RECPASS 1
      <SOURCE MIDI
        HASDATA 1 960 QN
        CCINTERP 32
        POOLEDEVTS {59266D13-34CA-94B0-BB72-917CB79D7400}
        E 0 90 3c 48
        E 0 90 40 48
        E 0 90 43 48
        E 1920 80 3c 00
        E 0 80 40 00
        E 0 80 43 00
        E 0 90 3c 48
        E 0 90 40 48
        E 0 90 43 48
        E 260 80 3c 00
        E 0 80 40 00
        E 0 80 43 00
        E 440 90 3c 48
        E 0 90 40 48
        E 0 90 43 48
        E 260 80 3c 00
        E 0 80 40 00
        E 0 80 43 00
        e 514 90 3c 48
        e 0 90 40 48
        e 0 90 43 48
        e 260 80 3c 00
        e 0 80 40 00
        e 0 80 43 00
        E 186 90 43 48
        E 0 90 47 48
        E 20 90 40 48
        E 1900 80 43 00
        E 0 80 47 00
        E 0 80 40 00
        E 0 90 43 48
        E 0 90 47 48
        E 20 90 40 48
        E 240 80 43 00
        E 0 80 47 00
        E 0 80 40 00
        E 440 90 43 48
        E 0 90 47 48
        E 20 90 40 48
        E 240 80 43 00
        E 0 80 47 00
        E 0 80 40 00
        e 514 90 43 48
        e 0 90 47 48
        e 20 90 40 48
        e 240 80 43 00
        e 0 80 47 00
        e 0 80 40 00
        E 186 90 41 48
        E 0 90 45 48
        E 0 90 48 48
        E 1920 80 41 00
        E 0 80 45 00
        E 0 80 48 00
        E 0 90 41 48
        E 0 90 45 48
        E 0 90 48 48
        E 260 80 41 00
        E 0 80 45 00
        E 0 80 48 00
        E 440 90 41 48
        E 0 90 45 48
        E 0 90 48 48
        E 260 80 41 00
        E 0 80 45 00
        E 0 80 48 00
        e 514 90 41 48
        e 0 90 45 48
        e 0 90 48 48
        e 260 80 41 00
        e 0 80 45 00
        e 0 80 48 00
        E 162 90 3e 48
        E 24 90 41 48
        E 0 90 45 48
        E 1896 90 3e 48
        E 24 80 3e 00
        E 0 80 41 00
        E 0 80 45 00
        E 0 90 41 48
        E 0 90 45 48
        E 260 80 3e 00
        E 0 80 41 00
        E 0 80 45 00
        E 416 90 3e 48
        E 24 90 41 48
        E 0 90 45 48
        E 260 80 3e 00
        E 0 80 41 00
        E 0 80 45 00
        e 490 90 3e 48
        e 24 90 41 48
        e 0 90 45 48
        e 260 80 3e 00
        e 0 80 41 00
        e 0 80 45 00
        E 186 b0 7b 00
        CHASE_CC_TAKEOFFS 1
        GUID {E611ADB6-4869-6CCA-8E83-3954D5E743B1}
        IGNTEMPO 0 120 4 4
        SRCCOLOR 27
        VELLANE -1 100 0
        CFGEDITVIEW 0 0.045808 45 12 0 -1 0 0 0 0.5
        KEYSNAP 0
        TRACKSEL 0
        EVTFILTER 0 -1 -1 -1 -1 0 0 0 0 -1 -1 -1 -1 0 -1 0 -1 -1
        CFGEDIT 1 1 0 1 0 0 1 1 1 1 1 1 58 171 1253 866 0 0 0 0 0.25 0 0 0 0 0.5 0 0 1 64
      >
    >
    <ITEM
      POSITION 88
      SNAPOFFS 0
      LENGTH 8
      LOOP 1
      ALLTAKES 0
      FADEIN 1 0 0 1 0 0
      FADEOUT 1 0 0 1 0 0
      MUTE 0
      SEL 1
      IGUID {5A6EBEF8-5887-80B2-A098-BC87672D51EC}
      IID 21
      NAME "01-Recorded MIDI"
      VOLPAN 1 0 1 -1
      SOFFS 0 0
      PLAYRATE 1 1 0 -1 0 0.0021
      CHANMODE 0
      GUID {7F731EE7-67A6-F572-F1AB-E6D1A5876A77}
      RECPASS 1
      <SOURCE MIDI
        HASDATA 1 960 QN
        CCINTERP 32
        POOLEDEVTS {9A960E64-D805-42BD-B6E6-5100C1912950}
        E 0 90 3c 48
        E 0 90 40 48
        E 0 90 43 48
        E 1920 80 3c 00
        E 0 80 40 00
        E 0 80 43 00
        E 0 90 3c 48
        E 0 90 40 48
        E 0 90 43 48
        E 260 80 3c 00
        E 0 80 40 00
        E 0 80 43 00
        E 440 90 3c 48
        E 0 90 40 48
        E 0 90 43 48
        E 260 80 3c 00
        E 0 80 40 00
        E 0 80 43 00
        e 514 90 3c 48
        e 0 90 40 48
        e 0 90 43 48
        e 260 80 3c 00
        e 0 80 40 00
        e 0 80 43 00
        E 186 90 43 48
        E 0 90 47 48
        E 20 90 40 48
        E 1900 80 43 00
        E 0 80 47 00
        E 0 80 40 00
        E 0 90 43 48
        E 0 90 47 48
        E 20 90 40 48
        E 240 80 43 00
        E 0 80 47 00
        E 0 80 40 00
        E 440 90 43 48
        E 0 90 47 48
        E 20 90 40 48
        E 240 80 43 00
        E 0 80 47 00
        E 0 80 40 00
        e 514 90 43 48
        e 0 90 47 48
        e 20 90 40 48
        e 240 80 43 00
        e 0 80 47 00
        e 0 80 40 00
        E 186 90 41 48
        E 0 90 45 48
        E 0 90 48 48
        E 1920 80 41 00
        E 0 80 45 00
        E 0 80 48 00
        E 0 90 41 48
        E 0 90 45 48
        E 0 90 48 48
        E 260 80 41 00
        E 0 80 45 00
        E 0 80 48 00
        E 440 90 41 48
        E 0 90 45 48
        E 0 90 48 48
        E 260 80 41 00
        E 0 80 45 00
        E 0 80 48 00
        e 514 90 41 48
        e 0 90 45 48
        e 0 90 48 48
        e 260 80 41 00
        e 0 80 45 00
        e 0 80 48 00
        E 162 90 3e 48
        E 24 90 41 48
        E 0 90 45 48
        E 1896 90 3e 48
        E 24 80 3e 00
        E 0 80 41 00
        E 0 80 45 00
        E 0 90 41 48
        E 0 90 45 48
        E 260 80 3e 00
        E 0 80 41 00
        E 0 80 45 00
        E 416 90 3e 48
        E 24 90 41 48
        E 0 90 45 48
        E 260 80 3e 00
        E 0 80 41 00
        E 0 80 45 00
        e 490 90 3e 48
        e 24 90 41 48
        e 0 90 45 48
        e 260 80 3e 00
        e 0 80 41 00
        e 0 80 45 00
        E 186 b0 7b 00
        CHASE_CC_TAKEOFFS 1
        GUID {C762B555-17FC-D765-5340-11D3487D2955}
        IGNTEMPO 0 120 4 4
        SRCCOLOR 28
        VELLANE -1 100 0
        CFGEDITVIEW 0 0.045808 45 12 0 -1 0 0 0 0.5
        KEYSNAP 0
        TRACKSEL 0
        EVTFILTER 0 -1 -1 -1 -1 0 0 0 0 -1 -1 -1 -1 0 -1 0 -1 -1
        CFGEDIT 1 1 0 1 0 0 1 1 1 1 1 1 58 171 1253 866 0 0 0 0 0.25 0 0 0 0 0.5 0 0 1 64
      >
    >
  >
  <TRACK {23461EE0-B368-83EA-428C-C98DB51F133E}
    NAME ""
    PEAKCOL 16576
    BEAT -1
    AUTOMODE 0
    VOLPAN 0.00052194381917 0 -1 -1 1
    MUTESOLO 0 0 0
    IPHASE 0
    PLAYOFFS 0 1
    ISBUS 0 0
    BUSCOMP 0 0 0 0 0
    SHOWINMIX 1 0.6667 0.5 1 0.5 0 0 0
    FREEMODE 0
    SEL 0
    REC 0 5056 1 0 0 0 0
    VU 2
    TRACKHEIGHT 21 0 0
    INQ 0 0 0 0.5 100 0 0 100
    NCHAN 2
    FX 0
    TRACKID {23461EE0-B368-83EA-428C-C98DB51F133E}
    PERF 0
    MIDIOUT -1
    MAINSEND 1 0
    <FXCHAIN
      WNDRECT 346 266 902 608
      SHOW 0
      LASTSEL 5
      DOCKED 0
      BYPASS 0 0 0
      <VST "VST: ReaEQ (Cockos)" reaeq.vst.so 0 "" 1919247729<56535472656571726561657100000000> ""
        cWVlcu5e7f4CAAAAAQAAAAAAAAACAAAAAAAAAAIAAAABAAAAAAAAAAIAAAAAAAAAqAAAAAEAAAAAABAA
        IQAAAAQAAAAEAAAAAQAAAEC4Xhmm+DRAAAAAAAAA8D8AAAAAAAAAQAEIAAAAAQAAAAAAAAAAwHJAAAAAAAAA8D8AAAAAAAAAQAEIAAAAAQAAAAAAAAAAQI9AAAAAAAAA
        8D8AAAAAAAAAQAEDAAAAAQAAAAABaCorbdRAAAAAAAAA8D8AAAAAAAAAQAEBAAAAAQAAAAAAAAAAAPA/AAAAAJoCAACcAQAA
        AEhpZ2ggbG93IHBhc3MAEAAAAA==
      >
      PRESETNAME "High low pass"
      FLOATPOS 0 0 0 0
      FXID {87B4C9E9-2C81-7A32-D221-D310FE0BC222}
      WAK 0 0
      BYPASS 0 0 0
      <VST "VSTi: ReaSynth (Cockos)" reasynth.vst.so 0 "" 1919251321<5653547265737972656173796E746800> ""
        eXNlcu9e7f4AAAAAAgAAAAEAAAAAAAAAAgAAAAAAAAA8AAAAAAAAAAAAEAA=
        776t3g3wrd6lm8Q7F7fROgAAAAAAAAAAAAAAAJCNuT3oZ4g9AACAPwAAAD8AAIA/AAAAAAAAAD8AAAAA
        AAAQAAAA
      >
      FLOATPOS 0 0 0 0
      FXID {18F32768-9F3E-99AA-55B7-D8575A772B50}
      WAK 0 0
      BYPASS 0 0 0
      <JS guitar/amp-model ""
        "Dumble Overdrive Special - Tweed Deluxe.wav" -21.000000 1.000000 0.000000 0.000000 -1.000000 - - - - - - - - - - - - - - - - - - - - - - - - - - - - - - - - - - - - - - - - - - - - - - - - - - - - - - - - - - 
      >
      FLOATPOS 0 0 0 0
      FXID {489EAEE9-51D1-0133-D22F-D90C52AD5DC0}
      WAK 0 0
      BYPASS 0 0 0
      <VST "VST: ReaComp (Cockos)" reacomp.vst.so 0 "" 1919247213<5653547265636D726561636F6D700000> ""
        bWNlcu9e7f4EAAAAAQAAAAAAAAACAAAAAAAAAAQAAAAAAAAACAAAAAAAAAACAAAAAQAAAAAAAAACAAAAAAAAAFQAAAAAAAAAAAAQAA==
        776t3g3wrd5FoYg9/AWpPKWbxDsK16M8AAAAAAAAAAAAAIA/AAAAAAAAAAAAAAAAnNEHMwAAgD8AAAAAzMxMPQAAAAAAAAAAAAAAAAAAgD7YiZ09
        AAAQAAAA
      >
      FLOATPOS 0 0 0 0
      FXID {7CEB6F59-B609-328B-6848-C9400A74B9F3}
      WAK 0 0
      BYPASS 0 0 0
      <VST "VST: ReaDelay (Cockos)" readelay.vst.so 0 "" 1919247468<5653547265646C72656164656C617900> ""
        bGRlcu5e7f4CAAAAAQAAAAAAAAACAAAAAAAAAAIAAAABAAAAAAAAAAIAAAAAAAAA/AAAAAEAAAAAAAAA
        AAAAAAAAAAAFAAAALAAAAAIAAAAEAAAAAACAPwAAgD8AAAAAAACAPwAAAAAAAIA7vTeGNQAAgD8AAAAAAACAPwAAgD8AAIA/AAAAAAAAAAAAAIA/AAAAAAAAADwAAAAA
        AACAPwAAAAAAAIA/AACAP+87NT8AAIA/AAAAAAAAgD8AAAAAAABAPL03hjUAAIA/AAAAAAAAgD8AAIA/zk0AP6abhD4AAAAAAACAPwAAAAAAAIA8vTeGNQAAgD8AAAAA
        AACAPwAAgD8aqrU+pHA9PwAAAAAAAIA/AAAAAAAAoDy9N4Y1AACAPwAAAAAAAIA/AACAP/npAD4AAAA/
        AHN0b2NrIC0gYmFzaWMgNSB0YXAgcGluZyBwb25nAAAAAAA=
      >
      PRESETNAME "stock - basic 5 tap ping pong"
      FLOATPOS 0 0 0 0
      FXID {DD671E20-37EA-4E17-00E0-5CEFB35C5202}
      WAK 0 0
      BYPASS 0 0 0
      <VST "VST: ReaVerb (Cockos)" reaverb.vst.so 0 "" 1919252066<56535472657662726561766572620000> ""
        YnZlcu5e7f4CAAAAAQAAAAAAAAACAAAAAAAAAAIAAAABAAAAAAAAAAIAAAAAAAAAcAAAAAEAAAAAAAAA
        AAAAwcybgD4AAIA/AAAAAAAAgD8AAIA/AAAAPwAAgD8AAAAAVkVSQkdFTgAYAAAAAAAAAJHgV0QdrLRA3rK7QsHIjEIAAIC/RUNIT0dFTgAcAAAAy/i2QLUjdUJdzdM/
        osdfP5lRrzyRzYxAnMQAPw==
        AHN3ZWV0dmVyYm8AAAAAAA==
      >
      PRESETNAME sweetverbo
      FLOATPOS 0 0 0 0
      FXID {3C0FEB41-B25D-AA2A-758F-1E963028433A}
      WAK 0 0
    >
    <ITEM
      POSITION 0
      SNAPOFFS 0
      LENGTH 8
      LOOP 1
      ALLTAKES 0
      FADEIN 1 0 0 1 0 0
      FADEOUT 1 0 0 1 0 0
      MUTE 0
      SEL 1
      IGUID {A065F7E2-DF34-B734-57A9-644A50BCE2C1}
      IID 10
      NAME "01-Recorded MIDI"
      VOLPAN 1 0 1 -1
      SOFFS 0 0
      PLAYRATE 1 1 0 -1 0 0.0021
      CHANMODE 0
      GUID {ACEA89D8-DCF1-2D3A-2133-748FE460742A}
      RECPASS 1
      <SOURCE MIDI
        HASDATA 1 960 QN
        CCINTERP 32
        POOLEDEVTS {B165045B-405E-CFE3-EF9A-0AD282589A1D}
        E 0 90 3c 48
        E 0 90 40 48
        E 0 90 43 48
        E 1920 80 3c 00
        E 0 80 40 00
        E 0 80 43 00
        E 0 90 3c 48
        E 0 90 40 48
        E 0 90 43 48
        E 260 80 3c 00
        E 0 80 40 00
        E 0 80 43 00
        E 440 90 3c 48
        E 0 90 40 48
        E 0 90 43 48
        E 260 80 3c 00
        E 0 80 40 00
        E 0 80 43 00
        e 514 90 3c 48
        e 0 90 40 48
        e 0 90 43 48
        e 260 80 3c 00
        e 0 80 40 00
        e 0 80 43 00
        E 186 90 43 48
        E 0 90 47 48
        E 20 90 40 48
        E 1900 80 43 00
        E 0 80 47 00
        E 0 80 40 00
        E 0 90 43 48
        E 0 90 47 48
        E 20 90 40 48
        E 240 80 43 00
        E 0 80 47 00
        E 0 80 40 00
        E 440 90 43 48
        E 0 90 47 48
        E 20 90 40 48
        E 240 80 43 00
        E 0 80 47 00
        E 0 80 40 00
        e 514 90 43 48
        e 0 90 47 48
        e 20 90 40 48
        e 240 80 43 00
        e 0 80 47 00
        e 0 80 40 00
        E 186 90 41 48
        E 0 90 45 48
        E 0 90 48 48
        E 1920 80 41 00
        E 0 80 45 00
        E 0 80 48 00
        E 0 90 41 48
        E 0 90 45 48
        E 0 90 48 48
        E 260 80 41 00
        E 0 80 45 00
        E 0 80 48 00
        E 440 90 41 48
        E 0 90 45 48
        E 0 90 48 48
        E 260 80 41 00
        E 0 80 45 00
        E 0 80 48 00
        e 514 90 41 48
        e 0 90 45 48
        e 0 90 48 48
        e 260 80 41 00
        e 0 80 45 00
        e 0 80 48 00
        E 162 90 3e 48
        E 24 90 41 48
        E 0 90 45 48
        E 1896 90 3e 48
        E 24 80 3e 00
        E 0 80 41 00
        E 0 80 45 00
        E 0 90 41 48
        E 0 90 45 48
        E 260 80 3e 00
        E 0 80 41 00
        E 0 80 45 00
        E 416 90 3e 48
        E 24 90 41 48
        E 0 90 45 48
        E 260 80 3e 00
        E 0 80 41 00
        E 0 80 45 00
        e 490 90 3e 48
        e 24 90 41 48
        e 0 90 45 48
        e 260 80 3e 00
        e 0 80 41 00
        e 0 80 45 00
        E 186 b0 7b 00
        CHASE_CC_TAKEOFFS 1
        GUID {7B9D708B-43E1-C8D4-C4B3-87E2A6C27801}
        IGNTEMPO 0 120 4 4
        SRCCOLOR 17
        VELLANE -1 100 0
        CFGEDITVIEW 0 0.045808 45 12 0 -1 0 0 0 0.5
        KEYSNAP 0
        TRACKSEL 0
        EVTFILTER 0 -1 -1 -1 -1 0 0 0 0 -1 -1 -1 -1 0 -1 0 -1 -1
        CFGEDIT 1 1 0 1 0 0 1 1 1 1 1 1 58 171 1253 866 0 0 0 0 0.25 0 0 0 0 0.5 0 0 1 64
      >
    >
    <ITEM
      POSITION 8
      SNAPOFFS 0
      LENGTH 8
      LOOP 1
      ALLTAKES 0
      FADEIN 1 0 0 1 0 0
      FADEOUT 1 0 0 1 0 0
      MUTE 0
      SEL 1
      IGUID {B5C60B4B-6E15-49DA-1BF9-538843576405}
      IID 11
      NAME "01-Recorded MIDI"
      VOLPAN 1 0 1 -1
      SOFFS 0 0
      PLAYRATE 1 1 0 -1 0 0.0021
      CHANMODE 0
      GUID {DCF5746C-BCB2-DC49-5AEB-8E89C706B70F}
      RECPASS 1
      <SOURCE MIDI
        HASDATA 1 960 QN
        CCINTERP 32
        POOLEDEVTS {01BC4F68-F189-C00C-1B14-E70784A98318}
        E 0 90 3c 48
        E 0 90 40 48
        E 0 90 43 48
        E 1920 80 3c 00
        E 0 80 40 00
        E 0 80 43 00
        E 0 90 3c 48
        E 0 90 40 48
        E 0 90 43 48
        E 260 80 3c 00
        E 0 80 40 00
        E 0 80 43 00
        E 440 90 3c 48
        E 0 90 40 48
        E 0 90 43 48
        E 260 80 3c 00
        E 0 80 40 00
        E 0 80 43 00
        e 514 90 3c 48
        e 0 90 40 48
        e 0 90 43 48
        e 260 80 3c 00
        e 0 80 40 00
        e 0 80 43 00
        E 186 90 43 48
        E 0 90 47 48
        E 20 90 40 48
        E 1900 80 43 00
        E 0 80 47 00
        E 0 80 40 00
        E 0 90 43 48
        E 0 90 47 48
        E 20 90 40 48
        E 240 80 43 00
        E 0 80 47 00
        E 0 80 40 00
        E 440 90 43 48
        E 0 90 47 48
        E 20 90 40 48
        E 240 80 43 00
        E 0 80 47 00
        E 0 80 40 00
        e 514 90 43 48
        e 0 90 47 48
        e 20 90 40 48
        e 240 80 43 00
        e 0 80 47 00
        e 0 80 40 00
        E 186 90 41 48
        E 0 90 45 48
        E 0 90 48 48
        E 1920 80 41 00
        E 0 80 45 00
        E 0 80 48 00
        E 0 90 41 48
        E 0 90 45 48
        E 0 90 48 48
        E 260 80 41 00
        E 0 80 45 00
        E 0 80 48 00
        E 440 90 41 48
        E 0 90 45 48
        E 0 90 48 48
        E 260 80 41 00
        E 0 80 45 00
        E 0 80 48 00
        e 514 90 41 48
        e 0 90 45 48
        e 0 90 48 48
        e 260 80 41 00
        e 0 80 45 00
        e 0 80 48 00
        E 162 90 3e 48
        E 24 90 41 48
        E 0 90 45 48
        E 1896 90 3e 48
        E 24 80 3e 00
        E 0 80 41 00
        E 0 80 45 00
        E 0 90 41 48
        E 0 90 45 48
        E 260 80 3e 00
        E 0 80 41 00
        E 0 80 45 00
        E 416 90 3e 48
        E 24 90 41 48
        E 0 90 45 48
        E 260 80 3e 00
        E 0 80 41 00
        E 0 80 45 00
        e 490 90 3e 48
        e 24 90 41 48
        e 0 90 45 48
        e 260 80 3e 00
        e 0 80 41 00
        e 0 80 45 00
        E 186 b0 7b 00
        CHASE_CC_TAKEOFFS 1
        GUID {3131B4E2-B370-E352-A9C5-C8CA31551A86}
        IGNTEMPO 0 120 4 4
        SRCCOLOR 18
        VELLANE -1 100 0
        CFGEDITVIEW 0 0.045808 45 12 0 -1 0 0 0 0.5
        KEYSNAP 0
        TRACKSEL 0
        EVTFILTER 0 -1 -1 -1 -1 0 0 0 0 -1 -1 -1 -1 0 -1 0 -1 -1
        CFGEDIT 1 1 0 1 0 0 1 1 1 1 1 1 58 171 1253 866 0 0 0 0 0.25 0 0 0 0 0.5 0 0 1 64
      >
    >
    <ITEM
      POSITION 16
      SNAPOFFS 0
      LENGTH 8
      LOOP 1
      ALLTAKES 0
      FADEIN 1 0 0 1 0 0
      FADEOUT 1 0 0 1 0 0
      MUTE 0
      SEL 1
      IGUID {478EB5AB-D3B0-0CF2-2C2F-199A24EEFAAE}
      IID 12
      NAME "01-Recorded MIDI"
      VOLPAN 1 0 1 -1
      SOFFS 0 0
      PLAYRATE 1 1 0 -1 0 0.0021
      CHANMODE 0
      GUID {A6F38040-C064-81A6-65A9-56BC34E8CD92}
      RECPASS 1
      <SOURCE MIDI
        HASDATA 1 960 QN
        CCINTERP 32
        POOLEDEVTS {3BCEBB90-EE73-69F7-43E3-3C676CC57D32}
        E 0 90 3c 48
        E 0 90 40 48
        E 0 90 43 48
        E 1920 80 3c 00
        E 0 80 40 00
        E 0 80 43 00
        E 0 90 3c 48
        E 0 90 40 48
        E 0 90 43 48
        E 260 80 3c 00
        E 0 80 40 00
        E 0 80 43 00
        E 440 90 3c 48
        E 0 90 40 48
        E 0 90 43 48
        E 260 80 3c 00
        E 0 80 40 00
        E 0 80 43 00
        e 514 90 3c 48
        e 0 90 40 48
        e 0 90 43 48
        e 260 80 3c 00
        e 0 80 40 00
        e 0 80 43 00
        E 186 90 43 48
        E 0 90 47 48
        E 20 90 40 48
        E 1900 80 43 00
        E 0 80 47 00
        E 0 80 40 00
        E 0 90 43 48
        E 0 90 47 48
        E 20 90 40 48
        E 240 80 43 00
        E 0 80 47 00
        E 0 80 40 00
        E 440 90 43 48
        E 0 90 47 48
        E 20 90 40 48
        E 240 80 43 00
        E 0 80 47 00
        E 0 80 40 00
        e 514 90 43 48
        e 0 90 47 48
        e 20 90 40 48
        e 240 80 43 00
        e 0 80 47 00
        e 0 80 40 00
        E 186 90 41 48
        E 0 90 45 48
        E 0 90 48 48
        E 1920 80 41 00
        E 0 80 45 00
        E 0 80 48 00
        E 0 90 41 48
        E 0 90 45 48
        E 0 90 48 48
        E 260 80 41 00
        E 0 80 45 00
        E 0 80 48 00
        E 440 90 41 48
        E 0 90 45 48
        E 0 90 48 48
        E 260 80 41 00
        E 0 80 45 00
        E 0 80 48 00
        e 514 90 41 48
        e 0 90 45 48
        e 0 90 48 48
        e 260 80 41 00
        e 0 80 45 00
        e 0 80 48 00
        E 162 90 3e 48
        E 24 90 41 48
        E 0 90 45 48
        E 1896 90 3e 48
        E 24 80 3e 00
        E 0 80 41 00
        E 0 80 45 00
        E 0 90 41 48
        E 0 90 45 48
        E 260 80 3e 00
        E 0 80 41 00
        E 0 80 45 00
        E 416 90 3e 48
        E 24 90 41 48
        E 0 90 45 48
        E 260 80 3e 00
        E 0 80 41 00
        E 0 80 45 00
        e 490 90 3e 48
        e 24 90 41 48
        e 0 90 45 48
        e 260 80 3e 00
        e 0 80 41 00
        e 0 80 45 00
        E 186 b0 7b 00
        CHASE_CC_TAKEOFFS 1
        GUID {48C567A2-895C-FB9B-FDBA-0ADB7004ABF3}
        IGNTEMPO 0 120 4 4
        SRCCOLOR 19
        VELLANE -1 100 0
        CFGEDITVIEW 0 0.045808 45 12 0 -1 0 0 0 0.5
        KEYSNAP 0
        TRACKSEL 0
        EVTFILTER 0 -1 -1 -1 -1 0 0 0 0 -1 -1 -1 -1 0 -1 0 -1 -1
        CFGEDIT 1 1 0 1 0 0 1 1 1 1 1 1 58 171 1253 866 0 0 0 0 0.25 0 0 0 0 0.5 0 0 1 64
      >
    >
    <ITEM
      POSITION 24
      SNAPOFFS 0
      LENGTH 8
      LOOP 1
      ALLTAKES 0
      FADEIN 1 0 0 1 0 0
      FADEOUT 1 0 0 1 0 0
      MUTE 0
      SEL 1
      IGUID {755DB3F1-EB8F-AE52-954A-2DA8728191BA}
      IID 13
      NAME "01-Recorded MIDI"
      VOLPAN 1 0 1 -1
      SOFFS 0 0
      PLAYRATE 1 1 0 -1 0 0.0021
      CHANMODE 0
      GUID {7C492D7F-D2EC-A0C3-EFCD-2E5422BBA7E2}
      RECPASS 1
      <SOURCE MIDI
        HASDATA 1 960 QN
        CCINTERP 32
        POOLEDEVTS {301E449E-7332-E5E2-0C1F-62FABC250637}
        E 0 90 3c 48
        E 0 90 40 48
        E 0 90 43 48
        E 1920 80 3c 00
        E 0 80 40 00
        E 0 80 43 00
        E 0 90 3c 48
        E 0 90 40 48
        E 0 90 43 48
        E 260 80 3c 00
        E 0 80 40 00
        E 0 80 43 00
        E 440 90 3c 48
        E 0 90 40 48
        E 0 90 43 48
        E 260 80 3c 00
        E 0 80 40 00
        E 0 80 43 00
        e 514 90 3c 48
        e 0 90 40 48
        e 0 90 43 48
        e 260 80 3c 00
        e 0 80 40 00
        e 0 80 43 00
        E 186 90 43 48
        E 0 90 47 48
        E 20 90 40 48
        E 1900 80 43 00
        E 0 80 47 00
        E 0 80 40 00
        E 0 90 43 48
        E 0 90 47 48
        E 20 90 40 48
        E 240 80 43 00
        E 0 80 47 00
        E 0 80 40 00
        E 440 90 43 48
        E 0 90 47 48
        E 20 90 40 48
        E 240 80 43 00
        E 0 80 47 00
        E 0 80 40 00
        e 514 90 43 48
        e 0 90 47 48
        e 20 90 40 48
        e 240 80 43 00
        e 0 80 47 00
        e 0 80 40 00
        E 186 90 41 48
        E 0 90 45 48
        E 0 90 48 48
        E 1920 80 41 00
        E 0 80 45 00
        E 0 80 48 00
        E 0 90 41 48
        E 0 90 45 48
        E 0 90 48 48
        E 260 80 41 00
        E 0 80 45 00
        E 0 80 48 00
        E 440 90 41 48
        E 0 90 45 48
        E 0 90 48 48
        E 260 80 41 00
        E 0 80 45 00
        E 0 80 48 00
        e 514 90 41 48
        e 0 90 45 48
        e 0 90 48 48
        e 260 80 41 00
        e 0 80 45 00
        e 0 80 48 00
        E 162 90 3e 48
        E 24 90 41 48
        E 0 90 45 48
        E 1896 90 3e 48
        E 24 80 3e 00
        E 0 80 41 00
        E 0 80 45 00
        E 0 90 41 48
        E 0 90 45 48
        E 260 80 3e 00
        E 0 80 41 00
        E 0 80 45 00
        E 416 90 3e 48
        E 24 90 41 48
        E 0 90 45 48
        E 260 80 3e 00
        E 0 80 41 00
        E 0 80 45 00
        e 490 90 3e 48
        e 24 90 41 48
        e 0 90 45 48
        e 260 80 3e 00
        e 0 80 41 00
        e 0 80 45 00
        E 186 b0 7b 00
        CHASE_CC_TAKEOFFS 1
        GUID {1DE38800-E2A1-41B5-9C8C-3291891093B1}
        IGNTEMPO 0 120 4 4
        SRCCOLOR 20
        VELLANE -1 100 0
        CFGEDITVIEW 0 0.045808 45 12 0 -1 0 0 0 0.5
        KEYSNAP 0
        TRACKSEL 0
        EVTFILTER 0 -1 -1 -1 -1 0 0 0 0 -1 -1 -1 -1 0 -1 0 -1 -1
        CFGEDIT 1 1 0 1 0 0 1 1 1 1 1 1 58 171 1253 866 0 0 0 0 0.25 0 0 0 0 0.5 0 0 1 64
      >
    >
    <ITEM
      POSITION 32
      SNAPOFFS 0
      LENGTH 8
      LOOP 1
      ALLTAKES 0
      FADEIN 1 0 0 1 0 0
      FADEOUT 1 0 0 1 0 0
      MUTE 0
      SEL 1
      IGUID {0C6467FA-5F8E-F740-1BC2-E1ED7AF64A4E}
      IID 14
      NAME "01-Recorded MIDI"
      VOLPAN 1 0 1 -1
      SOFFS 0 0
      PLAYRATE 1 1 0 -1 0 0.0021
      CHANMODE 0
      GUID {888C53A3-4616-CFA0-B796-1FE0D02399DD}
      RECPASS 1
      <SOURCE MIDI
        HASDATA 1 960 QN
        CCINTERP 32
        POOLEDEVTS {A0D8577F-9B66-0415-D3AC-8BEC8840F979}
        E 0 90 3c 48
        E 0 90 40 48
        E 0 90 43 48
        E 1920 80 3c 00
        E 0 80 40 00
        E 0 80 43 00
        E 0 90 3c 48
        E 0 90 40 48
        E 0 90 43 48
        E 260 80 3c 00
        E 0 80 40 00
        E 0 80 43 00
        E 440 90 3c 48
        E 0 90 40 48
        E 0 90 43 48
        E 260 80 3c 00
        E 0 80 40 00
        E 0 80 43 00
        e 514 90 3c 48
        e 0 90 40 48
        e 0 90 43 48
        e 260 80 3c 00
        e 0 80 40 00
        e 0 80 43 00
        E 186 90 43 48
        E 0 90 47 48
        E 20 90 40 48
        E 1900 80 43 00
        E 0 80 47 00
        E 0 80 40 00
        E 0 90 43 48
        E 0 90 47 48
        E 20 90 40 48
        E 240 80 43 00
        E 0 80 47 00
        E 0 80 40 00
        E 440 90 43 48
        E 0 90 47 48
        E 20 90 40 48
        E 240 80 43 00
        E 0 80 47 00
        E 0 80 40 00
        e 514 90 43 48
        e 0 90 47 48
        e 20 90 40 48
        e 240 80 43 00
        e 0 80 47 00
        e 0 80 40 00
        E 186 90 41 48
        E 0 90 45 48
        E 0 90 48 48
        E 1920 80 41 00
        E 0 80 45 00
        E 0 80 48 00
        E 0 90 41 48
        E 0 90 45 48
        E 0 90 48 48
        E 260 80 41 00
        E 0 80 45 00
        E 0 80 48 00
        E 440 90 41 48
        E 0 90 45 48
        E 0 90 48 48
        E 260 80 41 00
        E 0 80 45 00
        E 0 80 48 00
        e 514 90 41 48
        e 0 90 45 48
        e 0 90 48 48
        e 260 80 41 00
        e 0 80 45 00
        e 0 80 48 00
        E 162 90 3e 48
        E 24 90 41 48
        E 0 90 45 48
        E 1896 90 3e 48
        E 24 80 3e 00
        E 0 80 41 00
        E 0 80 45 00
        E 0 90 41 48
        E 0 90 45 48
        E 260 80 3e 00
        E 0 80 41 00
        E 0 80 45 00
        E 416 90 3e 48
        E 24 90 41 48
        E 0 90 45 48
        E 260 80 3e 00
        E 0 80 41 00
        E 0 80 45 00
        e 490 90 3e 48
        e 24 90 41 48
        e 0 90 45 48
        e 260 80 3e 00
        e 0 80 41 00
        e 0 80 45 00
        E 186 b0 7b 00
        CHASE_CC_TAKEOFFS 1
        GUID {0C3271F4-E233-9088-9B25-A722FAE7C579}
        IGNTEMPO 0 120 4 4
        SRCCOLOR 21
        VELLANE -1 100 0
        CFGEDITVIEW 0 0.045808 45 12 0 -1 0 0 0 0.5
        KEYSNAP 0
        TRACKSEL 0
        EVTFILTER 0 -1 -1 -1 -1 0 0 0 0 -1 -1 -1 -1 0 -1 0 -1 -1
        CFGEDIT 1 1 0 1 0 0 1 1 1 1 1 1 58 171 1253 866 0 0 0 0 0.25 0 0 0 0 0.5 0 0 1 64
      >
    >
    <ITEM
      POSITION 40
      SNAPOFFS 0
      LENGTH 8
      LOOP 1
      ALLTAKES 0
      FADEIN 1 0 0 1 0 0
      FADEOUT 1 0 0 1 0 0
      MUTE 0
      SEL 1
      IGUID {1E87F24B-69FE-30C7-E49A-14AF12058349}
      IID 15
      NAME "01-Recorded MIDI"
      VOLPAN 1 0 1 -1
      SOFFS 0 0
      PLAYRATE 1 1 0 -1 0 0.0021
      CHANMODE 0
      GUID {85ED9170-1AAD-C0DF-5ADA-BDCD7DD40DEF}
      RECPASS 1
      <SOURCE MIDI
        HASDATA 1 960 QN
        CCINTERP 32
        POOLEDEVTS {D0816A85-0259-7918-827C-B95EE9BA4E7C}
        E 0 90 3c 48
        E 0 90 40 48
        E 0 90 43 48
        E 1920 80 3c 00
        E 0 80 40 00
        E 0 80 43 00
        E 0 90 3c 48
        E 0 90 40 48
        E 0 90 43 48
        E 260 80 3c 00
        E 0 80 40 00
        E 0 80 43 00
        E 440 90 3c 48
        E 0 90 40 48
        E 0 90 43 48
        E 260 80 3c 00
        E 0 80 40 00
        E 0 80 43 00
        e 514 90 3c 48
        e 0 90 40 48
        e 0 90 43 48
        e 260 80 3c 00
        e 0 80 40 00
        e 0 80 43 00
        E 186 90 43 48
        E 0 90 47 48
        E 20 90 40 48
        E 1900 80 43 00
        E 0 80 47 00
        E 0 80 40 00
        E 0 90 43 48
        E 0 90 47 48
        E 20 90 40 48
        E 240 80 43 00
        E 0 80 47 00
        E 0 80 40 00
        E 440 90 43 48
        E 0 90 47 48
        E 20 90 40 48
        E 240 80 43 00
        E 0 80 47 00
        E 0 80 40 00
        e 514 90 43 48
        e 0 90 47 48
        e 20 90 40 48
        e 240 80 43 00
        e 0 80 47 00
        e 0 80 40 00
        E 186 90 41 48
        E 0 90 45 48
        E 0 90 48 48
        E 1920 80 41 00
        E 0 80 45 00
        E 0 80 48 00
        E 0 90 41 48
        E 0 90 45 48
        E 0 90 48 48
        E 260 80 41 00
        E 0 80 45 00
        E 0 80 48 00
        E 440 90 41 48
        E 0 90 45 48
        E 0 90 48 48
        E 260 80 41 00
        E 0 80 45 00
        E 0 80 48 00
        e 514 90 41 48
        e 0 90 45 48
        e 0 90 48 48
        e 260 80 41 00
        e 0 80 45 00
        e 0 80 48 00
        E 162 90 3e 48
        E 24 90 41 48
        E 0 90 45 48
        E 1896 90 3e 48
        E 24 80 3e 00
        E 0 80 41 00
        E 0 80 45 00
        E 0 90 41 48
        E 0 90 45 48
        E 260 80 3e 00
        E 0 80 41 00
        E 0 80 45 00
        E 416 90 3e 48
        E 24 90 41 48
        E 0 90 45 48
        E 260 80 3e 00
        E 0 80 41 00
        E 0 80 45 00
        e 490 90 3e 48
        e 24 90 41 48
        e 0 90 45 48
        e 260 80 3e 00
        e 0 80 41 00
        e 0 80 45 00
        E 186 b0 7b 00
        CHASE_CC_TAKEOFFS 1
        GUID {040E7AF8-3572-5D91-3C86-797AEE7444D4}
        IGNTEMPO 0 120 4 4
        SRCCOLOR 22
        VELLANE -1 100 0
        CFGEDITVIEW 0 0.045808 45 12 0 -1 0 0 0 0.5
        KEYSNAP 0
        TRACKSEL 0
        EVTFILTER 0 -1 -1 -1 -1 0 0 0 0 -1 -1 -1 -1 0 -1 0 -1 -1
        CFGEDIT 1 1 0 1 0 0 1 1 1 1 1 1 58 171 1253 866 0 0 0 0 0.25 0 0 0 0 0.5 0 0 1 64
      >
    >
    <ITEM
      POSITION 48
      SNAPOFFS 0
      LENGTH 8
      LOOP 1
      ALLTAKES 0
      FADEIN 1 0 0 1 0 0
      FADEOUT 1 0 0 1 0 0
      MUTE 0
      SEL 1
      IGUID {A4604FCE-7F6F-4FD9-406D-4B25E91A36C2}
      IID 16
      NAME "01-Recorded MIDI"
      VOLPAN 1 0 1 -1
      SOFFS 0 0
      PLAYRATE 1 1 0 -1 0 0.0021
      CHANMODE 0
      GUID {70792514-8B3C-F887-D417-C2C65198F44D}
      RECPASS 1
      <SOURCE MIDI
        HASDATA 1 960 QN
        CCINTERP 32
        POOLEDEVTS {816EE792-2D91-9B22-6009-5AE599B2A4D1}
        E 0 90 3c 48
        E 0 90 40 48
        E 0 90 43 48
        E 1920 80 3c 00
        E 0 80 40 00
        E 0 80 43 00
        E 0 90 3c 48
        E 0 90 40 48
        E 0 90 43 48
        E 260 80 3c 00
        E 0 80 40 00
        E 0 80 43 00
        E 440 90 3c 48
        E 0 90 40 48
        E 0 90 43 48
        E 260 80 3c 00
        E 0 80 40 00
        E 0 80 43 00
        e 514 90 3c 48
        e 0 90 40 48
        e 0 90 43 48
        e 260 80 3c 00
        e 0 80 40 00
        e 0 80 43 00
        E 186 90 43 48
        E 0 90 47 48
        E 20 90 40 48
        E 1900 80 43 00
        E 0 80 47 00
        E 0 80 40 00
        E 0 90 43 48
        E 0 90 47 48
        E 20 90 40 48
        E 240 80 43 00
        E 0 80 47 00
        E 0 80 40 00
        E 440 90 43 48
        E 0 90 47 48
        E 20 90 40 48
        E 240 80 43 00
        E 0 80 47 00
        E 0 80 40 00
        e 514 90 43 48
        e 0 90 47 48
        e 20 90 40 48
        e 240 80 43 00
        e 0 80 47 00
        e 0 80 40 00
        E 186 90 41 48
        E 0 90 45 48
        E 0 90 48 48
        E 1920 80 41 00
        E 0 80 45 00
        E 0 80 48 00
        E 0 90 41 48
        E 0 90 45 48
        E 0 90 48 48
        E 260 80 41 00
        E 0 80 45 00
        E 0 80 48 00
        E 440 90 41 48
        E 0 90 45 48
        E 0 90 48 48
        E 260 80 41 00
        E 0 80 45 00
        E 0 80 48 00
        e 514 90 41 48
        e 0 90 45 48
        e 0 90 48 48
        e 260 80 41 00
        e 0 80 45 00
        e 0 80 48 00
        E 162 90 3e 48
        E 24 90 41 48
        E 0 90 45 48
        E 1896 90 3e 48
        E 24 80 3e 00
        E 0 80 41 00
        E 0 80 45 00
        E 0 90 41 48
        E 0 90 45 48
        E 260 80 3e 00
        E 0 80 41 00
        E 0 80 45 00
        E 416 90 3e 48
        E 24 90 41 48
        E 0 90 45 48
        E 260 80 3e 00
        E 0 80 41 00
        E 0 80 45 00
        e 490 90 3e 48
        e 24 90 41 48
        e 0 90 45 48
        e 260 80 3e 00
        e 0 80 41 00
        e 0 80 45 00
        E 186 b0 7b 00
        CHASE_CC_TAKEOFFS 1
        GUID {2338968B-6CF9-9F40-300F-DEB89D3392EA}
        IGNTEMPO 0 120 4 4
        SRCCOLOR 23
        VELLANE -1 100 0
        CFGEDITVIEW 0 0.045808 45 12 0 -1 0 0 0 0.5
        KEYSNAP 0
        TRACKSEL 0
        EVTFILTER 0 -1 -1 -1 -1 0 0 0 0 -1 -1 -1 -1 0 -1 0 -1 -1
        CFGEDIT 1 1 0 1 0 0 1 1 1 1 1 1 58 171 1253 866 0 0 0 0 0.25 0 0 0 0 0.5 0 0 1 64
      >
    >
    <ITEM
      POSITION 56
      SNAPOFFS 0
      LENGTH 8
      LOOP 1
      ALLTAKES 0
      FADEIN 1 0 0 1 0 0
      FADEOUT 1 0 0 1 0 0
      MUTE 0
      SEL 1
      IGUID {FB483336-8C3C-DB4B-31BD-7ADF3894DA10}
      IID 17
      NAME "01-Recorded MIDI"
      VOLPAN 1 0 1 -1
      SOFFS 0 0
      PLAYRATE 1 1 0 -1 0 0.0021
      CHANMODE 0
      GUID {ADF900AF-B942-E2B2-5A81-214F2F270A94}
      RECPASS 1
      <SOURCE MIDI
        HASDATA 1 960 QN
        CCINTERP 32
        POOLEDEVTS {0EA22011-76D6-5527-1F80-435A07931C73}
        E 0 90 3c 48
        E 0 90 40 48
        E 0 90 43 48
        E 1920 80 3c 00
        E 0 80 40 00
        E 0 80 43 00
        E 0 90 3c 48
        E 0 90 40 48
        E 0 90 43 48
        E 260 80 3c 00
        E 0 80 40 00
        E 0 80 43 00
        E 440 90 3c 48
        E 0 90 40 48
        E 0 90 43 48
        E 260 80 3c 00
        E 0 80 40 00
        E 0 80 43 00
        e 514 90 3c 48
        e 0 90 40 48
        e 0 90 43 48
        e 260 80 3c 00
        e 0 80 40 00
        e 0 80 43 00
        E 186 90 43 48
        E 0 90 47 48
        E 20 90 40 48
        E 1900 80 43 00
        E 0 80 47 00
        E 0 80 40 00
        E 0 90 43 48
        E 0 90 47 48
        E 20 90 40 48
        E 240 80 43 00
        E 0 80 47 00
        E 0 80 40 00
        E 440 90 43 48
        E 0 90 47 48
        E 20 90 40 48
        E 240 80 43 00
        E 0 80 47 00
        E 0 80 40 00
        e 514 90 43 48
        e 0 90 47 48
        e 20 90 40 48
        e 240 80 43 00
        e 0 80 47 00
        e 0 80 40 00
        E 186 90 41 48
        E 0 90 45 48
        E 0 90 48 48
        E 1920 80 41 00
        E 0 80 45 00
        E 0 80 48 00
        E 0 90 41 48
        E 0 90 45 48
        E 0 90 48 48
        E 260 80 41 00
        E 0 80 45 00
        E 0 80 48 00
        E 440 90 41 48
        E 0 90 45 48
        E 0 90 48 48
        E 260 80 41 00
        E 0 80 45 00
        E 0 80 48 00
        e 514 90 41 48
        e 0 90 45 48
        e 0 90 48 48
        e 260 80 41 00
        e 0 80 45 00
        e 0 80 48 00
        E 162 90 3e 48
        E 24 90 41 48
        E 0 90 45 48
        E 1896 90 3e 48
        E 24 80 3e 00
        E 0 80 41 00
        E 0 80 45 00
        E 0 90 41 48
        E 0 90 45 48
        E 260 80 3e 00
        E 0 80 41 00
        E 0 80 45 00
        E 416 90 3e 48
        E 24 90 41 48
        E 0 90 45 48
        E 260 80 3e 00
        E 0 80 41 00
        E 0 80 45 00
        e 490 90 3e 48
        e 24 90 41 48
        e 0 90 45 48
        e 260 80 3e 00
        e 0 80 41 00
        e 0 80 45 00
        E 186 b0 7b 00
        CHASE_CC_TAKEOFFS 1
        GUID {A64857E2-94F8-0990-20DF-4C1E9B5E6251}
        IGNTEMPO 0 120 4 4
        SRCCOLOR 24
        VELLANE -1 100 0
        CFGEDITVIEW 0 0.045808 45 12 0 -1 0 0 0 0.5
        KEYSNAP 0
        TRACKSEL 0
        EVTFILTER 0 -1 -1 -1 -1 0 0 0 0 -1 -1 -1 -1 0 -1 0 -1 -1
        CFGEDIT 1 1 0 1 0 0 1 1 1 1 1 1 58 171 1253 866 0 0 0 0 0.25 0 0 0 0 0.5 0 0 1 64
      >
    >
    <ITEM
      POSITION 64
      SNAPOFFS 0
      LENGTH 8
      LOOP 1
      ALLTAKES 0
      FADEIN 1 0 0 1 0 0
      FADEOUT 1 0 0 1 0 0
      MUTE 0
      SEL 1
      IGUID {FF0F22C3-500C-8DA3-6733-7CFFE775BAC0}
      IID 18
      NAME "01-Recorded MIDI"
      VOLPAN 1 0 1 -1
      SOFFS 0 0
      PLAYRATE 1 1 0 -1 0 0.0021
      CHANMODE 0
      GUID {31F5CB78-4A96-69CE-CA83-3E07F61AD5A1}
      RECPASS 1
      <SOURCE MIDI
        HASDATA 1 960 QN
        CCINTERP 32
        POOLEDEVTS {291751AF-3718-F1F0-2D0B-FE94BD7241E0}
        E 0 90 3c 48
        E 0 90 40 48
        E 0 90 43 48
        E 1920 80 3c 00
        E 0 80 40 00
        E 0 80 43 00
        E 0 90 3c 48
        E 0 90 40 48
        E 0 90 43 48
        E 260 80 3c 00
        E 0 80 40 00
        E 0 80 43 00
        E 440 90 3c 48
        E 0 90 40 48
        E 0 90 43 48
        E 260 80 3c 00
        E 0 80 40 00
        E 0 80 43 00
        e 514 90 3c 48
        e 0 90 40 48
        e 0 90 43 48
        e 260 80 3c 00
        e 0 80 40 00
        e 0 80 43 00
        E 186 90 43 48
        E 0 90 47 48
        E 20 90 40 48
        E 1900 80 43 00
        E 0 80 47 00
        E 0 80 40 00
        E 0 90 43 48
        E 0 90 47 48
        E 20 90 40 48
        E 240 80 43 00
        E 0 80 47 00
        E 0 80 40 00
        E 440 90 43 48
        E 0 90 47 48
        E 20 90 40 48
        E 240 80 43 00
        E 0 80 47 00
        E 0 80 40 00
        e 514 90 43 48
        e 0 90 47 48
        e 20 90 40 48
        e 240 80 43 00
        e 0 80 47 00
        e 0 80 40 00
        E 186 90 41 48
        E 0 90 45 48
        E 0 90 48 48
        E 1920 80 41 00
        E 0 80 45 00
        E 0 80 48 00
        E 0 90 41 48
        E 0 90 45 48
        E 0 90 48 48
        E 260 80 41 00
        E 0 80 45 00
        E 0 80 48 00
        E 440 90 41 48
        E 0 90 45 48
        E 0 90 48 48
        E 260 80 41 00
        E 0 80 45 00
        E 0 80 48 00
        e 514 90 41 48
        e 0 90 45 48
        e 0 90 48 48
        e 260 80 41 00
        e 0 80 45 00
        e 0 80 48 00
        E 162 90 3e 48
        E 24 90 41 48
        E 0 90 45 48
        E 1896 90 3e 48
        E 24 80 3e 00
        E 0 80 41 00
        E 0 80 45 00
        E 0 90 41 48
        E 0 90 45 48
        E 260 80 3e 00
        E 0 80 41 00
        E 0 80 45 00
        E 416 90 3e 48
        E 24 90 41 48
        E 0 90 45 48
        E 260 80 3e 00
        E 0 80 41 00
        E 0 80 45 00
        e 490 90 3e 48
        e 24 90 41 48
        e 0 90 45 48
        e 260 80 3e 00
        e 0 80 41 00
        e 0 80 45 00
        E 186 b0 7b 00
        CHASE_CC_TAKEOFFS 1
        GUID {19362806-85F2-5D9E-E1F9-07BE0CF3D16E}
        IGNTEMPO 0 120 4 4
        SRCCOLOR 25
        VELLANE -1 100 0
        CFGEDITVIEW 0 0.045808 45 12 0 -1 0 0 0 0.5
        KEYSNAP 0
        TRACKSEL 0
        EVTFILTER 0 -1 -1 -1 -1 0 0 0 0 -1 -1 -1 -1 0 -1 0 -1 -1
        CFGEDIT 1 1 0 1 0 0 1 1 1 1 1 1 58 171 1253 866 0 0 0 0 0.25 0 0 0 0 0.5 0 0 1 64
      >
    >
    <ITEM
      POSITION 72
      SNAPOFFS 0
      LENGTH 8
      LOOP 1
      ALLTAKES 0
      FADEIN 1 0 0 1 0 0
      FADEOUT 1 0 0 1 0 0
      MUTE 0
      SEL 1
      IGUID {48C410A5-D308-C55E-098B-5A5D27B27D95}
      IID 19
      NAME "01-Recorded MIDI"
      VOLPAN 1 0 1 -1
      SOFFS 0 0
      PLAYRATE 1 1 0 -1 0 0.0021
      CHANMODE 0
      GUID {7810827E-0B5D-DFEA-D4F9-F9E5CBA2F282}
      RECPASS 1
      <SOURCE MIDI
        HASDATA 1 960 QN
        CCINTERP 32
        POOLEDEVTS {473A73F0-4659-1056-3B38-CA890F67A3C4}
        E 0 90 3c 48
        E 0 90 40 48
        E 0 90 43 48
        E 1920 80 3c 00
        E 0 80 40 00
        E 0 80 43 00
        E 0 90 3c 48
        E 0 90 40 48
        E 0 90 43 48
        E 260 80 3c 00
        E 0 80 40 00
        E 0 80 43 00
        E 440 90 3c 48
        E 0 90 40 48
        E 0 90 43 48
        E 260 80 3c 00
        E 0 80 40 00
        E 0 80 43 00
        e 514 90 3c 48
        e 0 90 40 48
        e 0 90 43 48
        e 260 80 3c 00
        e 0 80 40 00
        e 0 80 43 00
        E 186 90 43 48
        E 0 90 47 48
        E 20 90 40 48
        E 1900 80 43 00
        E 0 80 47 00
        E 0 80 40 00
        E 0 90 43 48
        E 0 90 47 48
        E 20 90 40 48
        E 240 80 43 00
        E 0 80 47 00
        E 0 80 40 00
        E 440 90 43 48
        E 0 90 47 48
        E 20 90 40 48
        E 240 80 43 00
        E 0 80 47 00
        E 0 80 40 00
        e 514 90 43 48
        e 0 90 47 48
        e 20 90 40 48
        e 240 80 43 00
        e 0 80 47 00
        e 0 80 40 00
        E 186 90 41 48
        E 0 90 45 48
        E 0 90 48 48
        E 1920 80 41 00
        E 0 80 45 00
        E 0 80 48 00
        E 0 90 41 48
        E 0 90 45 48
        E 0 90 48 48
        E 260 80 41 00
        E 0 80 45 00
        E 0 80 48 00
        E 440 90 41 48
        E 0 90 45 48
        E 0 90 48 48
        E 260 80 41 00
        E 0 80 45 00
        E 0 80 48 00
        e 514 90 41 48
        e 0 90 45 48
        e 0 90 48 48
        e 260 80 41 00
        e 0 80 45 00
        e 0 80 48 00
        E 162 90 3e 48
        E 24 90 41 48
        E 0 90 45 48
        E 1896 90 3e 48
        E 24 80 3e 00
        E 0 80 41 00
        E 0 80 45 00
        E 0 90 41 48
        E 0 90 45 48
        E 260 80 3e 00
        E 0 80 41 00
        E 0 80 45 00
        E 416 90 3e 48
        E 24 90 41 48
        E 0 90 45 48
        E 260 80 3e 00
        E 0 80 41 00
        E 0 80 45 00
        e 490 90 3e 48
        e 24 90 41 48
        e 0 90 45 48
        e 260 80 3e 00
        e 0 80 41 00
        e 0 80 45 00
        E 186 b0 7b 00
        CHASE_CC_TAKEOFFS 1
        GUID {6844F8A9-6BE9-023C-4A46-0A676470C99B}
        IGNTEMPO 0 120 4 4
        SRCCOLOR 26
        VELLANE -1 100 0
        CFGEDITVIEW 0 0.045808 45 12 0 -1 0 0 0 0.5
        KEYSNAP 0
        TRACKSEL 0
        EVTFILTER 0 -1 -1 -1 -1 0 0 0 0 -1 -1 -1 -1 0 -1 0 -1 -1
        CFGEDIT 1 1 0 1 0 0 1 1 1 1 1 1 58 171 1253 866 0 0 0 0 0.25 0 0 0 0 0.5 0 0 1 64
      >
    >
    <ITEM
      POSITION 80
      SNAPOFFS 0
      LENGTH 8
      LOOP 1
      ALLTAKES 0
      FADEIN 1 0 0 1 0 0
      FADEOUT 1 0 0 1 0 0
      MUTE 0
      SEL 1
      IGUID {14148A68-73C9-0D50-B905-87F3A89FC7C8}
      IID 20
      NAME "01-Recorded MIDI"
      VOLPAN 1 0 1 -1
      SOFFS 0 0
      PLAYRATE 1 1 0 -1 0 0.0021
      CHANMODE 0
      GUID {D8B4D353-64E3-80E6-33B8-DAD4681EDDE3}
      RECPASS 1
      <SOURCE MIDI
        HASDATA 1 960 QN
        CCINTERP 32
        POOLEDEVTS {3F6F1D7E-DC46-07CB-9935-29969DF36837}
        E 0 90 3c 48
        E 0 90 40 48
        E 0 90 43 48
        E 1920 80 3c 00
        E 0 80 40 00
        E 0 80 43 00
        E 0 90 3c 48
        E 0 90 40 48
        E 0 90 43 48
        E 260 80 3c 00
        E 0 80 40 00
        E 0 80 43 00
        E 440 90 3c 48
        E 0 90 40 48
        E 0 90 43 48
        E 260 80 3c 00
        E 0 80 40 00
        E 0 80 43 00
        e 514 90 3c 48
        e 0 90 40 48
        e 0 90 43 48
        e 260 80 3c 00
        e 0 80 40 00
        e 0 80 43 00
        E 186 90 43 48
        E 0 90 47 48
        E 20 90 40 48
        E 1900 80 43 00
        E 0 80 47 00
        E 0 80 40 00
        E 0 90 43 48
        E 0 90 47 48
        E 20 90 40 48
        E 240 80 43 00
        E 0 80 47 00
        E 0 80 40 00
        E 440 90 43 48
        E 0 90 47 48
        E 20 90 40 48
        E 240 80 43 00
        E 0 80 47 00
        E 0 80 40 00
        e 514 90 43 48
        e 0 90 47 48
        e 20 90 40 48
        e 240 80 43 00
        e 0 80 47 00
        e 0 80 40 00
        E 186 90 41 48
        E 0 90 45 48
        E 0 90 48 48
        E 1920 80 41 00
        E 0 80 45 00
        E 0 80 48 00
        E 0 90 41 48
        E 0 90 45 48
        E 0 90 48 48
        E 260 80 41 00
        E 0 80 45 00
        E 0 80 48 00
        E 440 90 41 48
        E 0 90 45 48
        E 0 90 48 48
        E 260 80 41 00
        E 0 80 45 00
        E 0 80 48 00
        e 514 90 41 48
        e 0 90 45 48
        e 0 90 48 48
        e 260 80 41 00
        e 0 80 45 00
        e 0 80 48 00
        E 162 90 3e 48
        E 24 90 41 48
        E 0 90 45 48
        E 1896 90 3e 48
        E 24 80 3e 00
        E 0 80 41 00
        E 0 80 45 00
        E 0 90 41 48
        E 0 90 45 48
        E 260 80 3e 00
        E 0 80 41 00
        E 0 80 45 00
        E 416 90 3e 48
        E 24 90 41 48
        E 0 90 45 48
        E 260 80 3e 00
        E 0 80 41 00
        E 0 80 45 00
        e 490 90 3e 48
        e 24 90 41 48
        e 0 90 45 48
        e 260 80 3e 00
        e 0 80 41 00
        e 0 80 45 00
        E 186 b0 7b 00
        CHASE_CC_TAKEOFFS 1
        GUID {E611ADB6-4869-6CCA-8E83-3954D5E743B1}
        IGNTEMPO 0 120 4 4
        SRCCOLOR 27
        VELLANE -1 100 0
        CFGEDITVIEW 0 0.045808 45 12 0 -1 0 0 0 0.5
        KEYSNAP 0
        TRACKSEL 0
        EVTFILTER 0 -1 -1 -1 -1 0 0 0 0 -1 -1 -1 -1 0 -1 0 -1 -1
        CFGEDIT 1 1 0 1 0 0 1 1 1 1 1 1 58 171 1253 866 0 0 0 0 0.25 0 0 0 0 0.5 0 0 1 64
      >
    >
    <ITEM
      POSITION 88
      SNAPOFFS 0
      LENGTH 8
      LOOP 1
      ALLTAKES 0
      FADEIN 1 0 0 1 0 0
      FADEOUT 1 0 0 1 0 0
      MUTE 0
      SEL 1
      IGUID {9AED603F-621A-F83A-8444-71D9E9E90194}
      IID 21
      NAME "01-Recorded MIDI"
      VOLPAN 1 0 1 -1
      SOFFS 0 0
      PLAYRATE 1 1 0 -1 0 0.0021
      CHANMODE 0
      GUID {51A22338-141D-7062-DCF1-C53DCAFA7508}
      RECPASS 1
      <SOURCE MIDI
        HASDATA 1 960 QN
        CCINTERP 32
        POOLEDEVTS {C6D90415-D2A4-72E1-7CDF-DECC8300C8D0}
        E 0 90 3c 48
        E 0 90 40 48
        E 0 90 43 48
        E 1920 80 3c 00
        E 0 80 40 00
        E 0 80 43 00
        E 0 90 3c 48
        E 0 90 40 48
        E 0 90 43 48
        E 260 80 3c 00
        E 0 80 40 00
        E 0 80 43 00
        E 440 90 3c 48
        E 0 90 40 48
        E 0 90 43 48
        E 260 80 3c 00
        E 0 80 40 00
        E 0 80 43 00
        e 514 90 3c 48
        e 0 90 40 48
        e 0 90 43 48
        e 260 80 3c 00
        e 0 80 40 00
        e 0 80 43 00
        E 186 90 43 48
        E 0 90 47 48
        E 20 90 40 48
        E 1900 80 43 00
        E 0 80 47 00
        E 0 80 40 00
        E 0 90 43 48
        E 0 90 47 48
        E 20 90 40 48
        E 240 80 43 00
        E 0 80 47 00
        E 0 80 40 00
        E 440 90 43 48
        E 0 90 47 48
        E 20 90 40 48
        E 240 80 43 00
        E 0 80 47 00
        E 0 80 40 00
        e 514 90 43 48
        e 0 90 47 48
        e 20 90 40 48
        e 240 80 43 00
        e 0 80 47 00
        e 0 80 40 00
        E 186 90 41 48
        E 0 90 45 48
        E 0 90 48 48
        E 1920 80 41 00
        E 0 80 45 00
        E 0 80 48 00
        E 0 90 41 48
        E 0 90 45 48
        E 0 90 48 48
        E 260 80 41 00
        E 0 80 45 00
        E 0 80 48 00
        E 440 90 41 48
        E 0 90 45 48
        E 0 90 48 48
        E 260 80 41 00
        E 0 80 45 00
        E 0 80 48 00
        e 514 90 41 48
        e 0 90 45 48
        e 0 90 48 48
        e 260 80 41 00
        e 0 80 45 00
        e 0 80 48 00
        E 162 90 3e 48
        E 24 90 41 48
        E 0 90 45 48
        E 1896 90 3e 48
        E 24 80 3e 00
        E 0 80 41 00
        E 0 80 45 00
        E 0 90 41 48
        E 0 90 45 48
        E 260 80 3e 00
        E 0 80 41 00
        E 0 80 45 00
        E 416 90 3e 48
        E 24 90 41 48
        E 0 90 45 48
        E 260 80 3e 00
        E 0 80 41 00
        E 0 80 45 00
        e 490 90 3e 48
        e 24 90 41 48
        e 0 90 45 48
        e 260 80 3e 00
        e 0 80 41 00
        e 0 80 45 00
        E 186 b0 7b 00
        CHASE_CC_TAKEOFFS 1
        GUID {C762B555-17FC-D765-5340-11D3487D2955}
        IGNTEMPO 0 120 4 4
        SRCCOLOR 28
        VELLANE -1 100 0
        CFGEDITVIEW 0 0.045808 45 12 0 -1 0 0 0 0.5
        KEYSNAP 0
        TRACKSEL 0
        EVTFILTER 0 -1 -1 -1 -1 0 0 0 0 -1 -1 -1 -1 0 -1 0 -1 -1
        CFGEDIT 1 1 0 1 0 0 1 1 1 1 1 1 58 171 1253 866 0 0 0 0 0.25 0 0 0 0 0.5 0 0 1 64
      >
    >
  >
  <TRACK {A984D6EE-034F-13D2-8E19-9DC55BDAA501}
    NAME ""
    PEAKCOL 16576
    BEAT -1
    AUTOMODE 0
    VOLPAN 0.00052194381917 0 -1 -1 1
    MUTESOLO 0 0 0
    IPHASE 0
    PLAYOFFS 0 1
    ISBUS 0 0
    BUSCOMP 0 0 0 0 0
    SHOWINMIX 1 0.6667 0.5 1 0.5 0 0 0
    FREEMODE 0
    SEL 0
    REC 0 5056 1 0 0 0 0
    VU 2
    TRACKHEIGHT 21 0 0
    INQ 0 0 0 0.5 100 0 0 100
    NCHAN 2
    FX 0
    TRACKID {A984D6EE-034F-13D2-8E19-9DC55BDAA501}
    PERF 0
    MIDIOUT -1
    MAINSEND 1 0
    <FXCHAIN
      WNDRECT 346 266 902 608
      SHOW 0
      LASTSEL 5
      DOCKED 0
      BYPASS 0 0 0
      <VST "VST: ReaEQ (Cockos)" reaeq.vst.so 0 "" 1919247729<56535472656571726561657100000000> ""
        cWVlcu5e7f4CAAAAAQAAAAAAAAACAAAAAAAAAAIAAAABAAAAAAAAAAIAAAAAAAAAqAAAAAEAAAAAABAA
        IQAAAAQAAAAEAAAAAQAAAEC4Xhmm+DRAAAAAAAAA8D8AAAAAAAAAQAEIAAAAAQAAAAAAAAAAwHJAAAAAAAAA8D8AAAAAAAAAQAEIAAAAAQAAAAAAAAAAQI9AAAAAAAAA
        8D8AAAAAAAAAQAEDAAAAAQAAAAABaCorbdRAAAAAAAAA8D8AAAAAAAAAQAEBAAAAAQAAAAAAAAAAAPA/AAAAAJoCAACcAQAA
        AEhpZ2ggbG93IHBhc3MAEAAAAA==
      >
      PRESETNAME "High low pass"
      FLOATPOS 0 0 0 0
      FXID {61CE0D87-EB28-35EB-6EB2-42784439D054}
      WAK 0 0
      BYPASS 0 0 0
      <VST "VSTi: ReaSynth (Cockos)" reasynth.vst.so 0 "" 1919251321<5653547265737972656173796E746800> ""
        eXNlcu9e7f4AAAAAAgAAAAEAAAAAAAAAAgAAAAAAAAA8AAAAAAAAAAAAEAA=
        776t3g3wrd6lm8Q7F7fROgAAAAAAAAAAAAAAAJCNuT3oZ4g9AACAPwAAAD8AAIA/AAAAAAAAAD8AAAAA
        AAAQAAAA
      >
      FLOATPOS 0 0 0 0
      FXID {46F60567-833A-C832-2B15-7F34AF205281}
      WAK 0 0
      BYPASS 0 0 0
      <JS guitar/amp-model ""
        "Dumble Overdrive Special - Tweed Deluxe.wav" -21.000000 1.000000 0.000000 0.000000 -1.000000 - - - - - - - - - - - - - - - - - - - - - - - - - - - - - - - - - - - - - - - - - - - - - - - - - - - - - - - - - - 
      >
      FLOATPOS 0 0 0 0
      FXID {79E83DC8-0B6D-0916-4905-06B80A0D637C}
      WAK 0 0
      BYPASS 0 0 0
      <VST "VST: ReaComp (Cockos)" reacomp.vst.so 0 "" 1919247213<5653547265636D726561636F6D700000> ""
        bWNlcu9e7f4EAAAAAQAAAAAAAAACAAAAAAAAAAQAAAAAAAAACAAAAAAAAAACAAAAAQAAAAAAAAACAAAAAAAAAFQAAAAAAAAAAAAQAA==
        776t3g3wrd5FoYg9/AWpPKWbxDsK16M8AAAAAAAAAAAAAIA/AAAAAAAAAAAAAAAAnNEHMwAAgD8AAAAAzMxMPQAAAAAAAAAAAAAAAAAAgD7YiZ09
        AAAQAAAA
      >
      FLOATPOS 0 0 0 0
      FXID {32F63F89-C9B1-1EE9-2F20-666C5198C036}
      WAK 0 0
      BYPASS 0 0 0
      <VST "VST: ReaDelay (Cockos)" readelay.vst.so 0 "" 1919247468<5653547265646C72656164656C617900> ""
        bGRlcu5e7f4CAAAAAQAAAAAAAAACAAAAAAAAAAIAAAABAAAAAAAAAAIAAAAAAAAA/AAAAAEAAAAAAAAA
        AAAAAAAAAAAFAAAALAAAAAIAAAAEAAAAAACAPwAAgD8AAAAAAACAPwAAAAAAAIA7vTeGNQAAgD8AAAAAAACAPwAAgD8AAIA/AAAAAAAAAAAAAIA/AAAAAAAAADwAAAAA
        AACAPwAAAAAAAIA/AACAP+87NT8AAIA/AAAAAAAAgD8AAAAAAABAPL03hjUAAIA/AAAAAAAAgD8AAIA/zk0AP6abhD4AAAAAAACAPwAAAAAAAIA8vTeGNQAAgD8AAAAA
        AACAPwAAgD8aqrU+pHA9PwAAAAAAAIA/AAAAAAAAoDy9N4Y1AACAPwAAAAAAAIA/AACAP/npAD4AAAA/
        AHN0b2NrIC0gYmFzaWMgNSB0YXAgcGluZyBwb25nAAAAAAA=
      >
      PRESETNAME "stock - basic 5 tap ping pong"
      FLOATPOS 0 0 0 0
      FXID {CA09F1E2-6B8F-F93D-C681-A2A294FAA04D}
      WAK 0 0
      BYPASS 0 0 0
      <VST "VST: ReaVerb (Cockos)" reaverb.vst.so 0 "" 1919252066<56535472657662726561766572620000> ""
        YnZlcu5e7f4CAAAAAQAAAAAAAAACAAAAAAAAAAIAAAABAAAAAAAAAAIAAAAAAAAAcAAAAAEAAAAAAAAA
        AAAAwcybgD4AAIA/AAAAAAAAgD8AAIA/AAAAPwAAgD8AAAAAVkVSQkdFTgAYAAAAAAAAAJHgV0QdrLRA3rK7QsHIjEIAAIC/RUNIT0dFTgAcAAAAy/i2QLUjdUJdzdM/
        osdfP5lRrzyRzYxAnMQAPw==
        AHN3ZWV0dmVyYm8AAAAAAA==
      >
      PRESETNAME sweetverbo
      FLOATPOS 0 0 0 0
      FXID {C23F60AC-8017-4CA1-F369-619F758B6CEA}
      WAK 0 0
    >
    <ITEM
      POSITION 0
      SNAPOFFS 0
      LENGTH 8
      LOOP 1
      ALLTAKES 0
      FADEIN 1 0 0 1 0 0
      FADEOUT 1 0 0 1 0 0
      MUTE 0
      SEL 1
      IGUID {DE34779D-8906-5C09-839B-70BE0705730B}
      IID 10
      NAME "01-Recorded MIDI"
      VOLPAN 1 0 1 -1
      SOFFS 0 0
      PLAYRATE 1 1 0 -1 0 0.0021
      CHANMODE 0
      GUID {2BB61648-E6DC-958B-10A8-7F650076DA55}
      RECPASS 1
      <SOURCE MIDI
        HASDATA 1 960 QN
        CCINTERP 32
        POOLEDEVTS {3CBA39EF-B287-CCDB-0CA5-2944F7D236FD}
        E 0 90 3c 48
        E 0 90 40 48
        E 0 90 43 48
        E 1920 80 3c 00
        E 0 80 40 00
        E 0 80 43 00
        E 0 90 3c 48
        E 0 90 40 48
        E 0 90 43 48
        E 260 80 3c 00
        E 0 80 40 00
        E 0 80 43 00
        E 440 90 3c 48
        E 0 90 40 48
        E 0 90 43 48
        E 260 80 3c 00
        E 0 80 40 00
        E 0 80 43 00
        e 514 90 3c 48
        e 0 90 40 48
        e 0 90 43 48
        e 260 80 3c 00
        e 0 80 40 00
        e 0 80 43 00
        E 186 90 43 48
        E 0 90 47 48
        E 20 90 40 48
        E 1900 80 43 00
        E 0 80 47 00
        E 0 80 40 00
        E 0 90 43 48
        E 0 90 47 48
        E 20 90 40 48
        E 240 80 43 00
        E 0 80 47 00
        E 0 80 40 00
        E 440 90 43 48
        E 0 90 47 48
        E 20 90 40 48
        E 240 80 43 00
        E 0 80 47 00
        E 0 80 40 00
        e 514 90 43 48
        e 0 90 47 48
        e 20 90 40 48
        e 240 80 43 00
        e 0 80 47 00
        e 0 80 40 00
        E 186 90 41 48
        E 0 90 45 48
        E 0 90 48 48
        E 1920 80 41 00
        E 0 80 45 00
        E 0 80 48 00
        E 0 90 41 48
        E 0 90 45 48
        E 0 90 48 48
        E 260 80 41 00
        E 0 80 45 00
        E 0 80 48 00
        E 440 90 41 48
        E 0 90 45 48
        E 0 90 48 48
        E 260 80 41 00
        E 0 80 45 00
        E 0 80 48 00
        e 514 90 41 48
        e 0 90 45 48
        e 0 90 48 48
        e 260 80 41 00
        e 0 80 45 00
        e 0 80 48 00
        E 162 90 3e 48
        E 24 90 41 48
        E 0 90 45 48
        E 1896 90 3e 48
        E 24 80 3e 00
        E 0 80 41 00
        E 0 80 45 00
        E 0 90 41 48
        E 0 90 45 48
        E 260 80 3e 00
        E 0 80 41 00
        E 0 80 45 00
        E 416 90 3e 48
        E 24 90 41 48
        E 0 90 45 48
        E 260 80 3e 00
        E 0 80 41 00
        E 0 80 45 00
        e 490 90 3e 48
        e 24 90 41 48
        e 0 90 45 48
        e 260 80 3e 00
        e 0 80 41 00
        e 0 80 45 00
        E 186 b0 7b 00
        CHASE_CC_TAKEOFFS 1
        GUID {7B9D708B-43E1-C8D4-C4B3-87E2A6C27801}
        IGNTEMPO 0 120 4 4
        SRCCOLOR 17
        VELLANE -1 100 0
        CFGEDITVIEW 0 0.045808 45 12 0 -1 0 0 0 0.5
        KEYSNAP 0
        TRACKSEL 0
        EVTFILTER 0 -1 -1 -1 -1 0 0 0 0 -1 -1 -1 -1 0 -1 0 -1 -1
        CFGEDIT 1 1 0 1 0 0 1 1 1 1 1 1 58 171 1253 866 0 0 0 0 0.25 0 0 0 0 0.5 0 0 1 64
      >
    >
    <ITEM
      POSITION 8
      SNAPOFFS 0
      LENGTH 8
      LOOP 1
      ALLTAKES 0
      FADEIN 1 0 0 1 0 0
      FADEOUT 1 0 0 1 0 0
      MUTE 0
      SEL 1
      IGUID {9D75DB26-0AAE-844A-7563-6ED42683C876}
      IID 11
      NAME "01-Recorded MIDI"
      VOLPAN 1 0 1 -1
      SOFFS 0 0
      PLAYRATE 1 1 0 -1 0 0.0021
      CHANMODE 0
      GUID {ACBEADC9-3166-716C-DD17-D683B2592CCE}
      RECPASS 1
      <SOURCE MIDI
        HASDATA 1 960 QN
        CCINTERP 32
        POOLEDEVTS {F9AC57F4-EFF0-CA83-9F81-A08B2E61C8CC}
        E 0 90 3c 48
        E 0 90 40 48
        E 0 90 43 48
        E 1920 80 3c 00
        E 0 80 40 00
        E 0 80 43 00
        E 0 90 3c 48
        E 0 90 40 48
        E 0 90 43 48
        E 260 80 3c 00
        E 0 80 40 00
        E 0 80 43 00
        E 440 90 3c 48
        E 0 90 40 48
        E 0 90 43 48
        E 260 80 3c 00
        E 0 80 40 00
        E 0 80 43 00
        e 514 90 3c 48
        e 0 90 40 48
        e 0 90 43 48
        e 260 80 3c 00
        e 0 80 40 00
        e 0 80 43 00
        E 186 90 43 48
        E 0 90 47 48
        E 20 90 40 48
        E 1900 80 43 00
        E 0 80 47 00
        E 0 80 40 00
        E 0 90 43 48
        E 0 90 47 48
        E 20 90 40 48
        E 240 80 43 00
        E 0 80 47 00
        E 0 80 40 00
        E 440 90 43 48
        E 0 90 47 48
        E 20 90 40 48
        E 240 80 43 00
        E 0 80 47 00
        E 0 80 40 00
        e 514 90 43 48
        e 0 90 47 48
        e 20 90 40 48
        e 240 80 43 00
        e 0 80 47 00
        e 0 80 40 00
        E 186 90 41 48
        E 0 90 45 48
        E 0 90 48 48
        E 1920 80 41 00
        E 0 80 45 00
        E 0 80 48 00
        E 0 90 41 48
        E 0 90 45 48
        E 0 90 48 48
        E 260 80 41 00
        E 0 80 45 00
        E 0 80 48 00
        E 440 90 41 48
        E 0 90 45 48
        E 0 90 48 48
        E 260 80 41 00
        E 0 80 45 00
        E 0 80 48 00
        e 514 90 41 48
        e 0 90 45 48
        e 0 90 48 48
        e 260 80 41 00
        e 0 80 45 00
        e 0 80 48 00
        E 162 90 3e 48
        E 24 90 41 48
        E 0 90 45 48
        E 1896 90 3e 48
        E 24 80 3e 00
        E 0 80 41 00
        E 0 80 45 00
        E 0 90 41 48
        E 0 90 45 48
        E 260 80 3e 00
        E 0 80 41 00
        E 0 80 45 00
        E 416 90 3e 48
        E 24 90 41 48
        E 0 90 45 48
        E 260 80 3e 00
        E 0 80 41 00
        E 0 80 45 00
        e 490 90 3e 48
        e 24 90 41 48
        e 0 90 45 48
        e 260 80 3e 00
        e 0 80 41 00
        e 0 80 45 00
        E 186 b0 7b 00
        CHASE_CC_TAKEOFFS 1
        GUID {3131B4E2-B370-E352-A9C5-C8CA31551A86}
        IGNTEMPO 0 120 4 4
        SRCCOLOR 18
        VELLANE -1 100 0
        CFGEDITVIEW 0 0.045808 45 12 0 -1 0 0 0 0.5
        KEYSNAP 0
        TRACKSEL 0
        EVTFILTER 0 -1 -1 -1 -1 0 0 0 0 -1 -1 -1 -1 0 -1 0 -1 -1
        CFGEDIT 1 1 0 1 0 0 1 1 1 1 1 1 58 171 1253 866 0 0 0 0 0.25 0 0 0 0 0.5 0 0 1 64
      >
    >
    <ITEM
      POSITION 16
      SNAPOFFS 0
      LENGTH 8
      LOOP 1
      ALLTAKES 0
      FADEIN 1 0 0 1 0 0
      FADEOUT 1 0 0 1 0 0
      MUTE 0
      SEL 1
      IGUID {46DFC7E9-A709-E6E3-4945-CAE6C89A0745}
      IID 12
      NAME "01-Recorded MIDI"
      VOLPAN 1 0 1 -1
      SOFFS 0 0
      PLAYRATE 1 1 0 -1 0 0.0021
      CHANMODE 0
      GUID {77A0B2E8-55BC-DA05-FE20-CE56A9696757}
      RECPASS 1
      <SOURCE MIDI
        HASDATA 1 960 QN
        CCINTERP 32
        POOLEDEVTS {4EC635A3-ADE2-8CFF-3219-26A73EB4D7AA}
        E 0 90 3c 48
        E 0 90 40 48
        E 0 90 43 48
        E 1920 80 3c 00
        E 0 80 40 00
        E 0 80 43 00
        E 0 90 3c 48
        E 0 90 40 48
        E 0 90 43 48
        E 260 80 3c 00
        E 0 80 40 00
        E 0 80 43 00
        E 440 90 3c 48
        E 0 90 40 48
        E 0 90 43 48
        E 260 80 3c 00
        E 0 80 40 00
        E 0 80 43 00
        e 514 90 3c 48
        e 0 90 40 48
        e 0 90 43 48
        e 260 80 3c 00
        e 0 80 40 00
        e 0 80 43 00
        E 186 90 43 48
        E 0 90 47 48
        E 20 90 40 48
        E 1900 80 43 00
        E 0 80 47 00
        E 0 80 40 00
        E 0 90 43 48
        E 0 90 47 48
        E 20 90 40 48
        E 240 80 43 00
        E 0 80 47 00
        E 0 80 40 00
        E 440 90 43 48
        E 0 90 47 48
        E 20 90 40 48
        E 240 80 43 00
        E 0 80 47 00
        E 0 80 40 00
        e 514 90 43 48
        e 0 90 47 48
        e 20 90 40 48
        e 240 80 43 00
        e 0 80 47 00
        e 0 80 40 00
        E 186 90 41 48
        E 0 90 45 48
        E 0 90 48 48
        E 1920 80 41 00
        E 0 80 45 00
        E 0 80 48 00
        E 0 90 41 48
        E 0 90 45 48
        E 0 90 48 48
        E 260 80 41 00
        E 0 80 45 00
        E 0 80 48 00
        E 440 90 41 48
        E 0 90 45 48
        E 0 90 48 48
        E 260 80 41 00
        E 0 80 45 00
        E 0 80 48 00
        e 514 90 41 48
        e 0 90 45 48
        e 0 90 48 48
        e 260 80 41 00
        e 0 80 45 00
        e 0 80 48 00
        E 162 90 3e 48
        E 24 90 41 48
        E 0 90 45 48
        E 1896 90 3e 48
        E 24 80 3e 00
        E 0 80 41 00
        E 0 80 45 00
        E 0 90 41 48
        E 0 90 45 48
        E 260 80 3e 00
        E 0 80 41 00
        E 0 80 45 00
        E 416 90 3e 48
        E 24 90 41 48
        E 0 90 45 48
        E 260 80 3e 00
        E 0 80 41 00
        E 0 80 45 00
        e 490 90 3e 48
        e 24 90 41 48
        e 0 90 45 48
        e 260 80 3e 00
        e 0 80 41 00
        e 0 80 45 00
        E 186 b0 7b 00
        CHASE_CC_TAKEOFFS 1
        GUID {48C567A2-895C-FB9B-FDBA-0ADB7004ABF3}
        IGNTEMPO 0 120 4 4
        SRCCOLOR 19
        VELLANE -1 100 0
        CFGEDITVIEW 0 0.045808 45 12 0 -1 0 0 0 0.5
        KEYSNAP 0
        TRACKSEL 0
        EVTFILTER 0 -1 -1 -1 -1 0 0 0 0 -1 -1 -1 -1 0 -1 0 -1 -1
        CFGEDIT 1 1 0 1 0 0 1 1 1 1 1 1 58 171 1253 866 0 0 0 0 0.25 0 0 0 0 0.5 0 0 1 64
      >
    >
    <ITEM
      POSITION 24
      SNAPOFFS 0
      LENGTH 8
      LOOP 1
      ALLTAKES 0
      FADEIN 1 0 0 1 0 0
      FADEOUT 1 0 0 1 0 0
      MUTE 0
      SEL 1
      IGUID {E0275619-756D-14E8-3DBA-87641D282555}
      IID 13
      NAME "01-Recorded MIDI"
      VOLPAN 1 0 1 -1
      SOFFS 0 0
      PLAYRATE 1 1 0 -1 0 0.0021
      CHANMODE 0
      GUID {0262CF17-850B-02FF-A528-12211DD1FCC8}
      RECPASS 1
      <SOURCE MIDI
        HASDATA 1 960 QN
        CCINTERP 32
        POOLEDEVTS {3C5315CC-B5EB-39AB-300A-EFD6F1579881}
        E 0 90 3c 48
        E 0 90 40 48
        E 0 90 43 48
        E 1920 80 3c 00
        E 0 80 40 00
        E 0 80 43 00
        E 0 90 3c 48
        E 0 90 40 48
        E 0 90 43 48
        E 260 80 3c 00
        E 0 80 40 00
        E 0 80 43 00
        E 440 90 3c 48
        E 0 90 40 48
        E 0 90 43 48
        E 260 80 3c 00
        E 0 80 40 00
        E 0 80 43 00
        e 514 90 3c 48
        e 0 90 40 48
        e 0 90 43 48
        e 260 80 3c 00
        e 0 80 40 00
        e 0 80 43 00
        E 186 90 43 48
        E 0 90 47 48
        E 20 90 40 48
        E 1900 80 43 00
        E 0 80 47 00
        E 0 80 40 00
        E 0 90 43 48
        E 0 90 47 48
        E 20 90 40 48
        E 240 80 43 00
        E 0 80 47 00
        E 0 80 40 00
        E 440 90 43 48
        E 0 90 47 48
        E 20 90 40 48
        E 240 80 43 00
        E 0 80 47 00
        E 0 80 40 00
        e 514 90 43 48
        e 0 90 47 48
        e 20 90 40 48
        e 240 80 43 00
        e 0 80 47 00
        e 0 80 40 00
        E 186 90 41 48
        E 0 90 45 48
        E 0 90 48 48
        E 1920 80 41 00
        E 0 80 45 00
        E 0 80 48 00
        E 0 90 41 48
        E 0 90 45 48
        E 0 90 48 48
        E 260 80 41 00
        E 0 80 45 00
        E 0 80 48 00
        E 440 90 41 48
        E 0 90 45 48
        E 0 90 48 48
        E 260 80 41 00
        E 0 80 45 00
        E 0 80 48 00
        e 514 90 41 48
        e 0 90 45 48
        e 0 90 48 48
        e 260 80 41 00
        e 0 80 45 00
        e 0 80 48 00
        E 162 90 3e 48
        E 24 90 41 48
        E 0 90 45 48
        E 1896 90 3e 48
        E 24 80 3e 00
        E 0 80 41 00
        E 0 80 45 00
        E 0 90 41 48
        E 0 90 45 48
        E 260 80 3e 00
        E 0 80 41 00
        E 0 80 45 00
        E 416 90 3e 48
        E 24 90 41 48
        E 0 90 45 48
        E 260 80 3e 00
        E 0 80 41 00
        E 0 80 45 00
        e 490 90 3e 48
        e 24 90 41 48
        e 0 90 45 48
        e 260 80 3e 00
        e 0 80 41 00
        e 0 80 45 00
        E 186 b0 7b 00
        CHASE_CC_TAKEOFFS 1
        GUID {1DE38800-E2A1-41B5-9C8C-3291891093B1}
        IGNTEMPO 0 120 4 4
        SRCCOLOR 20
        VELLANE -1 100 0
        CFGEDITVIEW 0 0.045808 45 12 0 -1 0 0 0 0.5
        KEYSNAP 0
        TRACKSEL 0
        EVTFILTER 0 -1 -1 -1 -1 0 0 0 0 -1 -1 -1 -1 0 -1 0 -1 -1
        CFGEDIT 1 1 0 1 0 0 1 1 1 1 1 1 58 171 1253 866 0 0 0 0 0.25 0 0 0 0 0.5 0 0 1 64
      >
    >
    <ITEM
      POSITION 32
      SNAPOFFS 0
      LENGTH 8
      LOOP 1
      ALLTAKES 0
      FADEIN 1 0 0 1 0 0
      FADEOUT 1 0 0 1 0 0
      MUTE 0
      SEL 1
      IGUID {416ED529-8FAA-29C1-AE40-57846F57AABC}
      IID 14
      NAME "01-Recorded MIDI"
      VOLPAN 1 0 1 -1
      SOFFS 0 0
      PLAYRATE 1 1 0 -1 0 0.0021
      CHANMODE 0
      GUID {A4B41283-66BF-FDFE-8A0E-F914E9970FB1}
      RECPASS 1
      <SOURCE MIDI
        HASDATA 1 960 QN
        CCINTERP 32
        POOLEDEVTS {F1F11525-50CC-F4EF-5708-3769912E84BD}
        E 0 90 3c 48
        E 0 90 40 48
        E 0 90 43 48
        E 1920 80 3c 00
        E 0 80 40 00
        E 0 80 43 00
        E 0 90 3c 48
        E 0 90 40 48
        E 0 90 43 48
        E 260 80 3c 00
        E 0 80 40 00
        E 0 80 43 00
        E 440 90 3c 48
        E 0 90 40 48
        E 0 90 43 48
        E 260 80 3c 00
        E 0 80 40 00
        E 0 80 43 00
        e 514 90 3c 48
        e 0 90 40 48
        e 0 90 43 48
        e 260 80 3c 00
        e 0 80 40 00
        e 0 80 43 00
        E 186 90 43 48
        E 0 90 47 48
        E 20 90 40 48
        E 1900 80 43 00
        E 0 80 47 00
        E 0 80 40 00
        E 0 90 43 48
        E 0 90 47 48
        E 20 90 40 48
        E 240 80 43 00
        E 0 80 47 00
        E 0 80 40 00
        E 440 90 43 48
        E 0 90 47 48
        E 20 90 40 48
        E 240 80 43 00
        E 0 80 47 00
        E 0 80 40 00
        e 514 90 43 48
        e 0 90 47 48
        e 20 90 40 48
        e 240 80 43 00
        e 0 80 47 00
        e 0 80 40 00
        E 186 90 41 48
        E 0 90 45 48
        E 0 90 48 48
        E 1920 80 41 00
        E 0 80 45 00
        E 0 80 48 00
        E 0 90 41 48
        E 0 90 45 48
        E 0 90 48 48
        E 260 80 41 00
        E 0 80 45 00
        E 0 80 48 00
        E 440 90 41 48
        E 0 90 45 48
        E 0 90 48 48
        E 260 80 41 00
        E 0 80 45 00
        E 0 80 48 00
        e 514 90 41 48
        e 0 90 45 48
        e 0 90 48 48
        e 260 80 41 00
        e 0 80 45 00
        e 0 80 48 00
        E 162 90 3e 48
        E 24 90 41 48
        E 0 90 45 48
        E 1896 90 3e 48
        E 24 80 3e 00
        E 0 80 41 00
        E 0 80 45 00
        E 0 90 41 48
        E 0 90 45 48
        E 260 80 3e 00
        E 0 80 41 00
        E 0 80 45 00
        E 416 90 3e 48
        E 24 90 41 48
        E 0 90 45 48
        E 260 80 3e 00
        E 0 80 41 00
        E 0 80 45 00
        e 490 90 3e 48
        e 24 90 41 48
        e 0 90 45 48
        e 260 80 3e 00
        e 0 80 41 00
        e 0 80 45 00
        E 186 b0 7b 00
        CHASE_CC_TAKEOFFS 1
        GUID {0C3271F4-E233-9088-9B25-A722FAE7C579}
        IGNTEMPO 0 120 4 4
        SRCCOLOR 21
        VELLANE -1 100 0
        CFGEDITVIEW 0 0.045808 45 12 0 -1 0 0 0 0.5
        KEYSNAP 0
        TRACKSEL 0
        EVTFILTER 0 -1 -1 -1 -1 0 0 0 0 -1 -1 -1 -1 0 -1 0 -1 -1
        CFGEDIT 1 1 0 1 0 0 1 1 1 1 1 1 58 171 1253 866 0 0 0 0 0.25 0 0 0 0 0.5 0 0 1 64
      >
    >
    <ITEM
      POSITION 40
      SNAPOFFS 0
      LENGTH 8
      LOOP 1
      ALLTAKES 0
      FADEIN 1 0 0 1 0 0
      FADEOUT 1 0 0 1 0 0
      MUTE 0
      SEL 1
      IGUID {F40A8D9D-9CE2-EF51-BBEB-C066210ABB59}
      IID 15
      NAME "01-Recorded MIDI"
      VOLPAN 1 0 1 -1
      SOFFS 0 0
      PLAYRATE 1 1 0 -1 0 0.0021
      CHANMODE 0
      GUID {44D072A7-DBA1-E949-40B1-FA9AFB08F755}
      RECPASS 1
      <SOURCE MIDI
        HASDATA 1 960 QN
        CCINTERP 32
        POOLEDEVTS {66D7B3FB-1C38-AE18-878E-436250352097}
        E 0 90 3c 48
        E 0 90 40 48
        E 0 90 43 48
        E 1920 80 3c 00
        E 0 80 40 00
        E 0 80 43 00
        E 0 90 3c 48
        E 0 90 40 48
        E 0 90 43 48
        E 260 80 3c 00
        E 0 80 40 00
        E 0 80 43 00
        E 440 90 3c 48
        E 0 90 40 48
        E 0 90 43 48
        E 260 80 3c 00
        E 0 80 40 00
        E 0 80 43 00
        e 514 90 3c 48
        e 0 90 40 48
        e 0 90 43 48
        e 260 80 3c 00
        e 0 80 40 00
        e 0 80 43 00
        E 186 90 43 48
        E 0 90 47 48
        E 20 90 40 48
        E 1900 80 43 00
        E 0 80 47 00
        E 0 80 40 00
        E 0 90 43 48
        E 0 90 47 48
        E 20 90 40 48
        E 240 80 43 00
        E 0 80 47 00
        E 0 80 40 00
        E 440 90 43 48
        E 0 90 47 48
        E 20 90 40 48
        E 240 80 43 00
        E 0 80 47 00
        E 0 80 40 00
        e 514 90 43 48
        e 0 90 47 48
        e 20 90 40 48
        e 240 80 43 00
        e 0 80 47 00
        e 0 80 40 00
        E 186 90 41 48
        E 0 90 45 48
        E 0 90 48 48
        E 1920 80 41 00
        E 0 80 45 00
        E 0 80 48 00
        E 0 90 41 48
        E 0 90 45 48
        E 0 90 48 48
        E 260 80 41 00
        E 0 80 45 00
        E 0 80 48 00
        E 440 90 41 48
        E 0 90 45 48
        E 0 90 48 48
        E 260 80 41 00
        E 0 80 45 00
        E 0 80 48 00
        e 514 90 41 48
        e 0 90 45 48
        e 0 90 48 48
        e 260 80 41 00
        e 0 80 45 00
        e 0 80 48 00
        E 162 90 3e 48
        E 24 90 41 48
        E 0 90 45 48
        E 1896 90 3e 48
        E 24 80 3e 00
        E 0 80 41 00
        E 0 80 45 00
        E 0 90 41 48
        E 0 90 45 48
        E 260 80 3e 00
        E 0 80 41 00
        E 0 80 45 00
        E 416 90 3e 48
        E 24 90 41 48
        E 0 90 45 48
        E 260 80 3e 00
        E 0 80 41 00
        E 0 80 45 00
        e 490 90 3e 48
        e 24 90 41 48
        e 0 90 45 48
        e 260 80 3e 00
        e 0 80 41 00
        e 0 80 45 00
        E 186 b0 7b 00
        CHASE_CC_TAKEOFFS 1
        GUID {040E7AF8-3572-5D91-3C86-797AEE7444D4}
        IGNTEMPO 0 120 4 4
        SRCCOLOR 22
        VELLANE -1 100 0
        CFGEDITVIEW 0 0.045808 45 12 0 -1 0 0 0 0.5
        KEYSNAP 0
        TRACKSEL 0
        EVTFILTER 0 -1 -1 -1 -1 0 0 0 0 -1 -1 -1 -1 0 -1 0 -1 -1
        CFGEDIT 1 1 0 1 0 0 1 1 1 1 1 1 58 171 1253 866 0 0 0 0 0.25 0 0 0 0 0.5 0 0 1 64
      >
    >
    <ITEM
      POSITION 48
      SNAPOFFS 0
      LENGTH 8
      LOOP 1
      ALLTAKES 0
      FADEIN 1 0 0 1 0 0
      FADEOUT 1 0 0 1 0 0
      MUTE 0
      SEL 1
      IGUID {99AB5906-D21F-EECE-E7CC-92F01D0CA4D9}
      IID 16
      NAME "01-Recorded MIDI"
      VOLPAN 1 0 1 -1
      SOFFS 0 0
      PLAYRATE 1 1 0 -1 0 0.0021
      CHANMODE 0
      GUID {EE5F8F32-515B-7B84-0312-935FB4B9963B}
      RECPASS 1
      <SOURCE MIDI
        HASDATA 1 960 QN
        CCINTERP 32
        POOLEDEVTS {3C35DF27-D1C8-F1FB-DAD2-9ED61E8D861B}
        E 0 90 3c 48
        E 0 90 40 48
        E 0 90 43 48
        E 1920 80 3c 00
        E 0 80 40 00
        E 0 80 43 00
        E 0 90 3c 48
        E 0 90 40 48
        E 0 90 43 48
        E 260 80 3c 00
        E 0 80 40 00
        E 0 80 43 00
        E 440 90 3c 48
        E 0 90 40 48
        E 0 90 43 48
        E 260 80 3c 00
        E 0 80 40 00
        E 0 80 43 00
        e 514 90 3c 48
        e 0 90 40 48
        e 0 90 43 48
        e 260 80 3c 00
        e 0 80 40 00
        e 0 80 43 00
        E 186 90 43 48
        E 0 90 47 48
        E 20 90 40 48
        E 1900 80 43 00
        E 0 80 47 00
        E 0 80 40 00
        E 0 90 43 48
        E 0 90 47 48
        E 20 90 40 48
        E 240 80 43 00
        E 0 80 47 00
        E 0 80 40 00
        E 440 90 43 48
        E 0 90 47 48
        E 20 90 40 48
        E 240 80 43 00
        E 0 80 47 00
        E 0 80 40 00
        e 514 90 43 48
        e 0 90 47 48
        e 20 90 40 48
        e 240 80 43 00
        e 0 80 47 00
        e 0 80 40 00
        E 186 90 41 48
        E 0 90 45 48
        E 0 90 48 48
        E 1920 80 41 00
        E 0 80 45 00
        E 0 80 48 00
        E 0 90 41 48
        E 0 90 45 48
        E 0 90 48 48
        E 260 80 41 00
        E 0 80 45 00
        E 0 80 48 00
        E 440 90 41 48
        E 0 90 45 48
        E 0 90 48 48
        E 260 80 41 00
        E 0 80 45 00
        E 0 80 48 00
        e 514 90 41 48
        e 0 90 45 48
        e 0 90 48 48
        e 260 80 41 00
        e 0 80 45 00
        e 0 80 48 00
        E 162 90 3e 48
        E 24 90 41 48
        E 0 90 45 48
        E 1896 90 3e 48
        E 24 80 3e 00
        E 0 80 41 00
        E 0 80 45 00
        E 0 90 41 48
        E 0 90 45 48
        E 260 80 3e 00
        E 0 80 41 00
        E 0 80 45 00
        E 416 90 3e 48
        E 24 90 41 48
        E 0 90 45 48
        E 260 80 3e 00
        E 0 80 41 00
        E 0 80 45 00
        e 490 90 3e 48
        e 24 90 41 48
        e 0 90 45 48
        e 260 80 3e 00
        e 0 80 41 00
        e 0 80 45 00
        E 186 b0 7b 00
        CHASE_CC_TAKEOFFS 1
        GUID {2338968B-6CF9-9F40-300F-DEB89D3392EA}
        IGNTEMPO 0 120 4 4
        SRCCOLOR 23
        VELLANE -1 100 0
        CFGEDITVIEW 0 0.045808 45 12 0 -1 0 0 0 0.5
        KEYSNAP 0
        TRACKSEL 0
        EVTFILTER 0 -1 -1 -1 -1 0 0 0 0 -1 -1 -1 -1 0 -1 0 -1 -1
        CFGEDIT 1 1 0 1 0 0 1 1 1 1 1 1 58 171 1253 866 0 0 0 0 0.25 0 0 0 0 0.5 0 0 1 64
      >
    >
    <ITEM
      POSITION 56
      SNAPOFFS 0
      LENGTH 8
      LOOP 1
      ALLTAKES 0
      FADEIN 1 0 0 1 0 0
      FADEOUT 1 0 0 1 0 0
      MUTE 0
      SEL 1
      IGUID {11510ABC-8DE0-6332-DFF1-6CF503B31A37}
      IID 17
      NAME "01-Recorded MIDI"
      VOLPAN 1 0 1 -1
      SOFFS 0 0
      PLAYRATE 1 1 0 -1 0 0.0021
      CHANMODE 0
      GUID {28149CA1-23C0-23F7-4597-D9761B8285FA}
      RECPASS 1
      <SOURCE MIDI
        HASDATA 1 960 QN
        CCINTERP 32
        POOLEDEVTS {67418086-6FDA-4690-4E88-3519989816DD}
        E 0 90 3c 48
        E 0 90 40 48
        E 0 90 43 48
        E 1920 80 3c 00
        E 0 80 40 00
        E 0 80 43 00
        E 0 90 3c 48
        E 0 90 40 48
        E 0 90 43 48
        E 260 80 3c 00
        E 0 80 40 00
        E 0 80 43 00
        E 440 90 3c 48
        E 0 90 40 48
        E 0 90 43 48
        E 260 80 3c 00
        E 0 80 40 00
        E 0 80 43 00
        e 514 90 3c 48
        e 0 90 40 48
        e 0 90 43 48
        e 260 80 3c 00
        e 0 80 40 00
        e 0 80 43 00
        E 186 90 43 48
        E 0 90 47 48
        E 20 90 40 48
        E 1900 80 43 00
        E 0 80 47 00
        E 0 80 40 00
        E 0 90 43 48
        E 0 90 47 48
        E 20 90 40 48
        E 240 80 43 00
        E 0 80 47 00
        E 0 80 40 00
        E 440 90 43 48
        E 0 90 47 48
        E 20 90 40 48
        E 240 80 43 00
        E 0 80 47 00
        E 0 80 40 00
        e 514 90 43 48
        e 0 90 47 48
        e 20 90 40 48
        e 240 80 43 00
        e 0 80 47 00
        e 0 80 40 00
        E 186 90 41 48
        E 0 90 45 48
        E 0 90 48 48
        E 1920 80 41 00
        E 0 80 45 00
        E 0 80 48 00
        E 0 90 41 48
        E 0 90 45 48
        E 0 90 48 48
        E 260 80 41 00
        E 0 80 45 00
        E 0 80 48 00
        E 440 90 41 48
        E 0 90 45 48
        E 0 90 48 48
        E 260 80 41 00
        E 0 80 45 00
        E 0 80 48 00
        e 514 90 41 48
        e 0 90 45 48
        e 0 90 48 48
        e 260 80 41 00
        e 0 80 45 00
        e 0 80 48 00
        E 162 90 3e 48
        E 24 90 41 48
        E 0 90 45 48
        E 1896 90 3e 48
        E 24 80 3e 00
        E 0 80 41 00
        E 0 80 45 00
        E 0 90 41 48
        E 0 90 45 48
        E 260 80 3e 00
        E 0 80 41 00
        E 0 80 45 00
        E 416 90 3e 48
        E 24 90 41 48
        E 0 90 45 48
        E 260 80 3e 00
        E 0 80 41 00
        E 0 80 45 00
        e 490 90 3e 48
        e 24 90 41 48
        e 0 90 45 48
        e 260 80 3e 00
        e 0 80 41 00
        e 0 80 45 00
        E 186 b0 7b 00
        CHASE_CC_TAKEOFFS 1
        GUID {A64857E2-94F8-0990-20DF-4C1E9B5E6251}
        IGNTEMPO 0 120 4 4
        SRCCOLOR 24
        VELLANE -1 100 0
        CFGEDITVIEW 0 0.045808 45 12 0 -1 0 0 0 0.5
        KEYSNAP 0
        TRACKSEL 0
        EVTFILTER 0 -1 -1 -1 -1 0 0 0 0 -1 -1 -1 -1 0 -1 0 -1 -1
        CFGEDIT 1 1 0 1 0 0 1 1 1 1 1 1 58 171 1253 866 0 0 0 0 0.25 0 0 0 0 0.5 0 0 1 64
      >
    >
    <ITEM
      POSITION 64
      SNAPOFFS 0
      LENGTH 8
      LOOP 1
      ALLTAKES 0
      FADEIN 1 0 0 1 0 0
      FADEOUT 1 0 0 1 0 0
      MUTE 0
      SEL 1
      IGUID {196ED71E-CCD3-DDB9-FA9A-F9C530115F67}
      IID 18
      NAME "01-Recorded MIDI"
      VOLPAN 1 0 1 -1
      SOFFS 0 0
      PLAYRATE 1 1 0 -1 0 0.0021
      CHANMODE 0
      GUID {ACC83306-5062-21E5-7B3E-BE34DA1A7D03}
      RECPASS 1
      <SOURCE MIDI
        HASDATA 1 960 QN
        CCINTERP 32
        POOLEDEVTS {4CD16487-7C79-5FEB-F910-EF46608C30F8}
        E 0 90 3c 48
        E 0 90 40 48
        E 0 90 43 48
        E 1920 80 3c 00
        E 0 80 40 00
        E 0 80 43 00
        E 0 90 3c 48
        E 0 90 40 48
        E 0 90 43 48
        E 260 80 3c 00
        E 0 80 40 00
        E 0 80 43 00
        E 440 90 3c 48
        E 0 90 40 48
        E 0 90 43 48
        E 260 80 3c 00
        E 0 80 40 00
        E 0 80 43 00
        e 514 90 3c 48
        e 0 90 40 48
        e 0 90 43 48
        e 260 80 3c 00
        e 0 80 40 00
        e 0 80 43 00
        E 186 90 43 48
        E 0 90 47 48
        E 20 90 40 48
        E 1900 80 43 00
        E 0 80 47 00
        E 0 80 40 00
        E 0 90 43 48
        E 0 90 47 48
        E 20 90 40 48
        E 240 80 43 00
        E 0 80 47 00
        E 0 80 40 00
        E 440 90 43 48
        E 0 90 47 48
        E 20 90 40 48
        E 240 80 43 00
        E 0 80 47 00
        E 0 80 40 00
        e 514 90 43 48
        e 0 90 47 48
        e 20 90 40 48
        e 240 80 43 00
        e 0 80 47 00
        e 0 80 40 00
        E 186 90 41 48
        E 0 90 45 48
        E 0 90 48 48
        E 1920 80 41 00
        E 0 80 45 00
        E 0 80 48 00
        E 0 90 41 48
        E 0 90 45 48
        E 0 90 48 48
        E 260 80 41 00
        E 0 80 45 00
        E 0 80 48 00
        E 440 90 41 48
        E 0 90 45 48
        E 0 90 48 48
        E 260 80 41 00
        E 0 80 45 00
        E 0 80 48 00
        e 514 90 41 48
        e 0 90 45 48
        e 0 90 48 48
        e 260 80 41 00
        e 0 80 45 00
        e 0 80 48 00
        E 162 90 3e 48
        E 24 90 41 48
        E 0 90 45 48
        E 1896 90 3e 48
        E 24 80 3e 00
        E 0 80 41 00
        E 0 80 45 00
        E 0 90 41 48
        E 0 90 45 48
        E 260 80 3e 00
        E 0 80 41 00
        E 0 80 45 00
        E 416 90 3e 48
        E 24 90 41 48
        E 0 90 45 48
        E 260 80 3e 00
        E 0 80 41 00
        E 0 80 45 00
        e 490 90 3e 48
        e 24 90 41 48
        e 0 90 45 48
        e 260 80 3e 00
        e 0 80 41 00
        e 0 80 45 00
        E 186 b0 7b 00
        CHASE_CC_TAKEOFFS 1
        GUID {19362806-85F2-5D9E-E1F9-07BE0CF3D16E}
        IGNTEMPO 0 120 4 4
        SRCCOLOR 25
        VELLANE -1 100 0
        CFGEDITVIEW 0 0.045808 45 12 0 -1 0 0 0 0.5
        KEYSNAP 0
        TRACKSEL 0
        EVTFILTER 0 -1 -1 -1 -1 0 0 0 0 -1 -1 -1 -1 0 -1 0 -1 -1
        CFGEDIT 1 1 0 1 0 0 1 1 1 1 1 1 58 171 1253 866 0 0 0 0 0.25 0 0 0 0 0.5 0 0 1 64
      >
    >
    <ITEM
      POSITION 72
      SNAPOFFS 0
      LENGTH 8
      LOOP 1
      ALLTAKES 0
      FADEIN 1 0 0 1 0 0
      FADEOUT 1 0 0 1 0 0
      MUTE 0
      SEL 1
      IGUID {67EE4798-74D7-1592-4275-A96354991F46}
      IID 19
      NAME "01-Recorded MIDI"
      VOLPAN 1 0 1 -1
      SOFFS 0 0
      PLAYRATE 1 1 0 -1 0 0.0021
      CHANMODE 0
      GUID {61ED3261-B3A8-D6E6-B442-5D073B91696D}
      RECPASS 1
      <SOURCE MIDI
        HASDATA 1 960 QN
        CCINTERP 32
        POOLEDEVTS {11B72402-5983-F330-9391-C1A91926B44A}
        E 0 90 3c 48
        E 0 90 40 48
        E 0 90 43 48
        E 1920 80 3c 00
        E 0 80 40 00
        E 0 80 43 00
        E 0 90 3c 48
        E 0 90 40 48
        E 0 90 43 48
        E 260 80 3c 00
        E 0 80 40 00
        E 0 80 43 00
        E 440 90 3c 48
        E 0 90 40 48
        E 0 90 43 48
        E 260 80 3c 00
        E 0 80 40 00
        E 0 80 43 00
        e 514 90 3c 48
        e 0 90 40 48
        e 0 90 43 48
        e 260 80 3c 00
        e 0 80 40 00
        e 0 80 43 00
        E 186 90 43 48
        E 0 90 47 48
        E 20 90 40 48
        E 1900 80 43 00
        E 0 80 47 00
        E 0 80 40 00
        E 0 90 43 48
        E 0 90 47 48
        E 20 90 40 48
        E 240 80 43 00
        E 0 80 47 00
        E 0 80 40 00
        E 440 90 43 48
        E 0 90 47 48
        E 20 90 40 48
        E 240 80 43 00
        E 0 80 47 00
        E 0 80 40 00
        e 514 90 43 48
        e 0 90 47 48
        e 20 90 40 48
        e 240 80 43 00
        e 0 80 47 00
        e 0 80 40 00
        E 186 90 41 48
        E 0 90 45 48
        E 0 90 48 48
        E 1920 80 41 00
        E 0 80 45 00
        E 0 80 48 00
        E 0 90 41 48
        E 0 90 45 48
        E 0 90 48 48
        E 260 80 41 00
        E 0 80 45 00
        E 0 80 48 00
        E 440 90 41 48
        E 0 90 45 48
        E 0 90 48 48
        E 260 80 41 00
        E 0 80 45 00
        E 0 80 48 00
        e 514 90 41 48
        e 0 90 45 48
        e 0 90 48 48
        e 260 80 41 00
        e 0 80 45 00
        e 0 80 48 00
        E 162 90 3e 48
        E 24 90 41 48
        E 0 90 45 48
        E 1896 90 3e 48
        E 24 80 3e 00
        E 0 80 41 00
        E 0 80 45 00
        E 0 90 41 48
        E 0 90 45 48
        E 260 80 3e 00
        E 0 80 41 00
        E 0 80 45 00
        E 416 90 3e 48
        E 24 90 41 48
        E 0 90 45 48
        E 260 80 3e 00
        E 0 80 41 00
        E 0 80 45 00
        e 490 90 3e 48
        e 24 90 41 48
        e 0 90 45 48
        e 260 80 3e 00
        e 0 80 41 00
        e 0 80 45 00
        E 186 b0 7b 00
        CHASE_CC_TAKEOFFS 1
        GUID {6844F8A9-6BE9-023C-4A46-0A676470C99B}
        IGNTEMPO 0 120 4 4
        SRCCOLOR 26
        VELLANE -1 100 0
        CFGEDITVIEW 0 0.045808 45 12 0 -1 0 0 0 0.5
        KEYSNAP 0
        TRACKSEL 0
        EVTFILTER 0 -1 -1 -1 -1 0 0 0 0 -1 -1 -1 -1 0 -1 0 -1 -1
        CFGEDIT 1 1 0 1 0 0 1 1 1 1 1 1 58 171 1253 866 0 0 0 0 0.25 0 0 0 0 0.5 0 0 1 64
      >
    >
    <ITEM
      POSITION 80
      SNAPOFFS 0
      LENGTH 8
      LOOP 1
      ALLTAKES 0
      FADEIN 1 0 0 1 0 0
      FADEOUT 1 0 0 1 0 0
      MUTE 0
      SEL 1
      IGUID {3769E69F-AFC0-294B-ECB8-6CAE6F7745E4}
      IID 20
      NAME "01-Recorded MIDI"
      VOLPAN 1 0 1 -1
      SOFFS 0 0
      PLAYRATE 1 1 0 -1 0 0.0021
      CHANMODE 0
      GUID {4554F673-0B4A-5893-5E7F-289BA0C0C653}
      RECPASS 1
      <SOURCE MIDI
        HASDATA 1 960 QN
        CCINTERP 32
        POOLEDEVTS {95814AE4-957E-F4C1-028D-EA19984DAFBA}
        E 0 90 3c 48
        E 0 90 40 48
        E 0 90 43 48
        E 1920 80 3c 00
        E 0 80 40 00
        E 0 80 43 00
        E 0 90 3c 48
        E 0 90 40 48
        E 0 90 43 48
        E 260 80 3c 00
        E 0 80 40 00
        E 0 80 43 00
        E 440 90 3c 48
        E 0 90 40 48
        E 0 90 43 48
        E 260 80 3c 00
        E 0 80 40 00
        E 0 80 43 00
        e 514 90 3c 48
        e 0 90 40 48
        e 0 90 43 48
        e 260 80 3c 00
        e 0 80 40 00
        e 0 80 43 00
        E 186 90 43 48
        E 0 90 47 48
        E 20 90 40 48
        E 1900 80 43 00
        E 0 80 47 00
        E 0 80 40 00
        E 0 90 43 48
        E 0 90 47 48
        E 20 90 40 48
        E 240 80 43 00
        E 0 80 47 00
        E 0 80 40 00
        E 440 90 43 48
        E 0 90 47 48
        E 20 90 40 48
        E 240 80 43 00
        E 0 80 47 00
        E 0 80 40 00
        e 514 90 43 48
        e 0 90 47 48
        e 20 90 40 48
        e 240 80 43 00
        e 0 80 47 00
        e 0 80 40 00
        E 186 90 41 48
        E 0 90 45 48
        E 0 90 48 48
        E 1920 80 41 00
        E 0 80 45 00
        E 0 80 48 00
        E 0 90 41 48
        E 0 90 45 48
        E 0 90 48 48
        E 260 80 41 00
        E 0 80 45 00
        E 0 80 48 00
        E 440 90 41 48
        E 0 90 45 48
        E 0 90 48 48
        E 260 80 41 00
        E 0 80 45 00
        E 0 80 48 00
        e 514 90 41 48
        e 0 90 45 48
        e 0 90 48 48
        e 260 80 41 00
        e 0 80 45 00
        e 0 80 48 00
        E 162 90 3e 48
        E 24 90 41 48
        E 0 90 45 48
        E 1896 90 3e 48
        E 24 80 3e 00
        E 0 80 41 00
        E 0 80 45 00
        E 0 90 41 48
        E 0 90 45 48
        E 260 80 3e 00
        E 0 80 41 00
        E 0 80 45 00
        E 416 90 3e 48
        E 24 90 41 48
        E 0 90 45 48
        E 260 80 3e 00
        E 0 80 41 00
        E 0 80 45 00
        e 490 90 3e 48
        e 24 90 41 48
        e 0 90 45 48
        e 260 80 3e 00
        e 0 80 41 00
        e 0 80 45 00
        E 186 b0 7b 00
        CHASE_CC_TAKEOFFS 1
        GUID {E611ADB6-4869-6CCA-8E83-3954D5E743B1}
        IGNTEMPO 0 120 4 4
        SRCCOLOR 27
        VELLANE -1 100 0
        CFGEDITVIEW 0 0.045808 45 12 0 -1 0 0 0 0.5
        KEYSNAP 0
        TRACKSEL 0
        EVTFILTER 0 -1 -1 -1 -1 0 0 0 0 -1 -1 -1 -1 0 -1 0 -1 -1
        CFGEDIT 1 1 0 1 0 0 1 1 1 1 1 1 58 171 1253 866 0 0 0 0 0.25 0 0 0 0 0.5 0 0 1 64
      >
    >
    <ITEM
      POSITION 88
      SNAPOFFS 0
      LENGTH 8
      LOOP 1
      ALLTAKES 0
      FADEIN 1 0 0 1 0 0
      FADEOUT 1 0 0 1 0 0
      MUTE 0
      SEL 1
      IGUID {EE918B77-1AED-D634-E11B-D0C677DF42AB}
      IID 21
      NAME "01-Recorded MIDI"
      VOLPAN 1 0 1 -1
      SOFFS 0 0
      PLAYRATE 1 1 0 -1 0 0.0021
      CHANMODE 0
      GUID {ACC691B1-7344-51D8-400D-19F5CA0D5355}
      RECPASS 1
      <SOURCE MIDI
        HASDATA 1 960 QN
        CCINTERP 32
        POOLEDEVTS {091C87CE-F9E7-09BC-82BD-9A69DAC94046}
        E 0 90 3c 48
        E 0 90 40 48
        E 0 90 43 48
        E 1920 80 3c 00
        E 0 80 40 00
        E 0 80 43 00
        E 0 90 3c 48
        E 0 90 40 48
        E 0 90 43 48
        E 260 80 3c 00
        E 0 80 40 00
        E 0 80 43 00
        E 440 90 3c 48
        E 0 90 40 48
        E 0 90 43 48
        E 260 80 3c 00
        E 0 80 40 00
        E 0 80 43 00
        e 514 90 3c 48
        e 0 90 40 48
        e 0 90 43 48
        e 260 80 3c 00
        e 0 80 40 00
        e 0 80 43 00
        E 186 90 43 48
        E 0 90 47 48
        E 20 90 40 48
        E 1900 80 43 00
        E 0 80 47 00
        E 0 80 40 00
        E 0 90 43 48
        E 0 90 47 48
        E 20 90 40 48
        E 240 80 43 00
        E 0 80 47 00
        E 0 80 40 00
        E 440 90 43 48
        E 0 90 47 48
        E 20 90 40 48
        E 240 80 43 00
        E 0 80 47 00
        E 0 80 40 00
        e 514 90 43 48
        e 0 90 47 48
        e 20 90 40 48
        e 240 80 43 00
        e 0 80 47 00
        e 0 80 40 00
        E 186 90 41 48
        E 0 90 45 48
        E 0 90 48 48
        E 1920 80 41 00
        E 0 80 45 00
        E 0 80 48 00
        E 0 90 41 48
        E 0 90 45 48
        E 0 90 48 48
        E 260 80 41 00
        E 0 80 45 00
        E 0 80 48 00
        E 440 90 41 48
        E 0 90 45 48
        E 0 90 48 48
        E 260 80 41 00
        E 0 80 45 00
        E 0 80 48 00
        e 514 90 41 48
        e 0 90 45 48
        e 0 90 48 48
        e 260 80 41 00
        e 0 80 45 00
        e 0 80 48 00
        E 162 90 3e 48
        E 24 90 41 48
        E 0 90 45 48
        E 1896 90 3e 48
        E 24 80 3e 00
        E 0 80 41 00
        E 0 80 45 00
        E 0 90 41 48
        E 0 90 45 48
        E 260 80 3e 00
        E 0 80 41 00
        E 0 80 45 00
        E 416 90 3e 48
        E 24 90 41 48
        E 0 90 45 48
        E 260 80 3e 00
        E 0 80 41 00
        E 0 80 45 00
        e 490 90 3e 48
        e 24 90 41 48
        e 0 90 45 48
        e 260 80 3e 00
        e 0 80 41 00
        e 0 80 45 00
        E 186 b0 7b 00
        CHASE_CC_TAKEOFFS 1
        GUID {C762B555-17FC-D765-5340-11D3487D2955}
        IGNTEMPO 0 120 4 4
        SRCCOLOR 28
        VELLANE -1 100 0
        CFGEDITVIEW 0 0.045808 45 12 0 -1 0 0 0 0.5
        KEYSNAP 0
        TRACKSEL 0
        EVTFILTER 0 -1 -1 -1 -1 0 0 0 0 -1 -1 -1 -1 0 -1 0 -1 -1
        CFGEDIT 1 1 0 1 0 0 1 1 1 1 1 1 58 171 1253 866 0 0 0 0 0.25 0 0 0 0 0.5 0 0 1 64
      >
    >
  >
  <TRACK {83EE9F74-7D0C-0CCC-92B8-60E1B7F6F290}
    NAME ""
    PEAKCOL 16576
    BEAT -1
    AUTOMODE 0
    VOLPAN 0.00052194381917 0 -1 -1 1
    MUTESOLO 0 0 0
    IPHASE 0
    PLAYOFFS 0 1
    ISBUS 0 0
    BUSCOMP 0 0 0 0 0
    SHOWINMIX 1 0.6667 0.5 1 0.5 0 0 0
    FREEMODE 0
    SEL 0
    REC 0 5056 1 0 0 0 0
    VU 2
    TRACKHEIGHT 21 0 0
    INQ 0 0 0 0.5 100 0 0 100
    NCHAN 2
    FX 0
    TRACKID {83EE9F74-7D0C-0CCC-92B8-60E1B7F6F290}
    PERF 0
    MIDIOUT -1
    MAINSEND 1 0
    <FXCHAIN
      WNDRECT 346 266 902 608
      SHOW 0
      LASTSEL 5
      DOCKED 0
      BYPASS 0 0 0
      <VST "VST: ReaEQ (Cockos)" reaeq.vst.so 0 "" 1919247729<56535472656571726561657100000000> ""
        cWVlcu5e7f4CAAAAAQAAAAAAAAACAAAAAAAAAAIAAAABAAAAAAAAAAIAAAAAAAAAqAAAAAEAAAAAABAA
        IQAAAAQAAAAEAAAAAQAAAEC4Xhmm+DRAAAAAAAAA8D8AAAAAAAAAQAEIAAAAAQAAAAAAAAAAwHJAAAAAAAAA8D8AAAAAAAAAQAEIAAAAAQAAAAAAAAAAQI9AAAAAAAAA
        8D8AAAAAAAAAQAEDAAAAAQAAAAABaCorbdRAAAAAAAAA8D8AAAAAAAAAQAEBAAAAAQAAAAAAAAAAAPA/AAAAAJoCAACcAQAA
        AEhpZ2ggbG93IHBhc3MAEAAAAA==
      >
      PRESETNAME "High low pass"
      FLOATPOS 0 0 0 0
      FXID {A18A28E4-1FBD-F16A-6665-CABCE7F790C3}
      WAK 0 0
      BYPASS 0 0 0
      <VST "VSTi: ReaSynth (Cockos)" reasynth.vst.so 0 "" 1919251321<5653547265737972656173796E746800> ""
        eXNlcu9e7f4AAAAAAgAAAAEAAAAAAAAAAgAAAAAAAAA8AAAAAAAAAAAAEAA=
        776t3g3wrd6lm8Q7F7fROgAAAAAAAAAAAAAAAJCNuT3oZ4g9AACAPwAAAD8AAIA/AAAAAAAAAD8AAAAA
        AAAQAAAA
      >
      FLOATPOS 0 0 0 0
      FXID {415EE6AF-0E65-0C04-ED56-5DF03939C9AA}
      WAK 0 0
      BYPASS 0 0 0
      <JS guitar/amp-model ""
        "Dumble Overdrive Special - Tweed Deluxe.wav" -21.000000 1.000000 0.000000 0.000000 -1.000000 - - - - - - - - - - - - - - - - - - - - - - - - - - - - - - - - - - - - - - - - - - - - - - - - - - - - - - - - - - 
      >
      FLOATPOS 0 0 0 0
      FXID {AC2C1927-4A83-7939-F748-3394C780A14C}
      WAK 0 0
      BYPASS 0 0 0
      <VST "VST: ReaComp (Cockos)" reacomp.vst.so 0 "" 1919247213<5653547265636D726561636F6D700000> ""
        bWNlcu9e7f4EAAAAAQAAAAAAAAACAAAAAAAAAAQAAAAAAAAACAAAAAAAAAACAAAAAQAAAAAAAAACAAAAAAAAAFQAAAAAAAAAAAAQAA==
        776t3g3wrd5FoYg9/AWpPKWbxDsK16M8AAAAAAAAAAAAAIA/AAAAAAAAAAAAAAAAnNEHMwAAgD8AAAAAzMxMPQAAAAAAAAAAAAAAAAAAgD7YiZ09
        AAAQAAAA
      >
      FLOATPOS 0 0 0 0
      FXID {DC121F3A-8C06-7D57-3234-D72134B5FF32}
      WAK 0 0
      BYPASS 0 0 0
      <VST "VST: ReaDelay (Cockos)" readelay.vst.so 0 "" 1919247468<5653547265646C72656164656C617900> ""
        bGRlcu5e7f4CAAAAAQAAAAAAAAACAAAAAAAAAAIAAAABAAAAAAAAAAIAAAAAAAAA/AAAAAEAAAAAAAAA
        AAAAAAAAAAAFAAAALAAAAAIAAAAEAAAAAACAPwAAgD8AAAAAAACAPwAAAAAAAIA7vTeGNQAAgD8AAAAAAACAPwAAgD8AAIA/AAAAAAAAAAAAAIA/AAAAAAAAADwAAAAA
        AACAPwAAAAAAAIA/AACAP+87NT8AAIA/AAAAAAAAgD8AAAAAAABAPL03hjUAAIA/AAAAAAAAgD8AAIA/zk0AP6abhD4AAAAAAACAPwAAAAAAAIA8vTeGNQAAgD8AAAAA
        AACAPwAAgD8aqrU+pHA9PwAAAAAAAIA/AAAAAAAAoDy9N4Y1AACAPwAAAAAAAIA/AACAP/npAD4AAAA/
        AHN0b2NrIC0gYmFzaWMgNSB0YXAgcGluZyBwb25nAAAAAAA=
      >
      PRESETNAME "stock - basic 5 tap ping pong"
      FLOATPOS 0 0 0 0
      FXID {61EAC7B7-299C-3E63-4EDA-22D71DE60FE0}
      WAK 0 0
      BYPASS 0 0 0
      <VST "VST: ReaVerb (Cockos)" reaverb.vst.so 0 "" 1919252066<56535472657662726561766572620000> ""
        YnZlcu5e7f4CAAAAAQAAAAAAAAACAAAAAAAAAAIAAAABAAAAAAAAAAIAAAAAAAAAcAAAAAEAAAAAAAAA
        AAAAwcybgD4AAIA/AAAAAAAAgD8AAIA/AAAAPwAAgD8AAAAAVkVSQkdFTgAYAAAAAAAAAJHgV0QdrLRA3rK7QsHIjEIAAIC/RUNIT0dFTgAcAAAAy/i2QLUjdUJdzdM/
        osdfP5lRrzyRzYxAnMQAPw==
        AHN3ZWV0dmVyYm8AAAAAAA==
      >
      PRESETNAME sweetverbo
      FLOATPOS 0 0 0 0
      FXID {4ED01CD9-9D8D-431A-2C2A-B91797CF2435}
      WAK 0 0
    >
    <ITEM
      POSITION 0
      SNAPOFFS 0
      LENGTH 8
      LOOP 1
      ALLTAKES 0
      FADEIN 1 0 0 1 0 0
      FADEOUT 1 0 0 1 0 0
      MUTE 0
      SEL 1
      IGUID {59776861-9ABB-08C3-1B3F-96D2AA216A71}
      IID 10
      NAME "01-Recorded MIDI"
      VOLPAN 1 0 1 -1
      SOFFS 0 0
      PLAYRATE 1 1 0 -1 0 0.0021
      CHANMODE 0
      GUID {F80295E8-7A9F-8359-1D87-EB0096CD4B95}
      RECPASS 1
      <SOURCE MIDI
        HASDATA 1 960 QN
        CCINTERP 32
        POOLEDEVTS {C3FC1FB7-EE15-88DD-B4B3-2ADE6457E347}
        E 0 90 3c 48
        E 0 90 40 48
        E 0 90 43 48
        E 1920 80 3c 00
        E 0 80 40 00
        E 0 80 43 00
        E 0 90 3c 48
        E 0 90 40 48
        E 0 90 43 48
        E 260 80 3c 00
        E 0 80 40 00
        E 0 80 43 00
        E 440 90 3c 48
        E 0 90 40 48
        E 0 90 43 48
        E 260 80 3c 00
        E 0 80 40 00
        E 0 80 43 00
        e 514 90 3c 48
        e 0 90 40 48
        e 0 90 43 48
        e 260 80 3c 00
        e 0 80 40 00
        e 0 80 43 00
        E 186 90 43 48
        E 0 90 47 48
        E 20 90 40 48
        E 1900 80 43 00
        E 0 80 47 00
        E 0 80 40 00
        E 0 90 43 48
        E 0 90 47 48
        E 20 90 40 48
        E 240 80 43 00
        E 0 80 47 00
        E 0 80 40 00
        E 440 90 43 48
        E 0 90 47 48
        E 20 90 40 48
        E 240 80 43 00
        E 0 80 47 00
        E 0 80 40 00
        e 514 90 43 48
        e 0 90 47 48
        e 20 90 40 48
        e 240 80 43 00
        e 0 80 47 00
        e 0 80 40 00
        E 186 90 41 48
        E 0 90 45 48
        E 0 90 48 48
        E 1920 80 41 00
        E 0 80 45 00
        E 0 80 48 00
        E 0 90 41 48
        E 0 90 45 48
        E 0 90 48 48
        E 260 80 41 00
        E 0 80 45 00
        E 0 80 48 00
        E 440 90 41 48
        E 0 90 45 48
        E 0 90 48 48
        E 260 80 41 00
        E 0 80 45 00
        E 0 80 48 00
        e 514 90 41 48
        e 0 90 45 48
        e 0 90 48 48
        e 260 80 41 00
        e 0 80 45 00
        e 0 80 48 00
        E 162 90 3e 48
        E 24 90 41 48
        E 0 90 45 48
        E 1896 90 3e 48
        E 24 80 3e 00
        E 0 80 41 00
        E 0 80 45 00
        E 0 90 41 48
        E 0 90 45 48
        E 260 80 3e 00
        E 0 80 41 00
        E 0 80 45 00
        E 416 90 3e 48
        E 24 90 41 48
        E 0 90 45 48
        E 260 80 3e 00
        E 0 80 41 00
        E 0 80 45 00
        e 490 90 3e 48
        e 24 90 41 48
        e 0 90 45 48
        e 260 80 3e 00
        e 0 80 41 00
        e 0 80 45 00
        E 186 b0 7b 00
        CHASE_CC_TAKEOFFS 1
        GUID {7B9D708B-43E1-C8D4-C4B3-87E2A6C27801}
        IGNTEMPO 0 120 4 4
        SRCCOLOR 17
        VELLANE -1 100 0
        CFGEDITVIEW 0 0.045808 45 12 0 -1 0 0 0 0.5
        KEYSNAP 0
        TRACKSEL 0
        EVTFILTER 0 -1 -1 -1 -1 0 0 0 0 -1 -1 -1 -1 0 -1 0 -1 -1
        CFGEDIT 1 1 0 1 0 0 1 1 1 1 1 1 58 171 1253 866 0 0 0 0 0.25 0 0 0 0 0.5 0 0 1 64
      >
    >
    <ITEM
      POSITION 8
      SNAPOFFS 0
      LENGTH 8
      LOOP 1
      ALLTAKES 0
      FADEIN 1 0 0 1 0 0
      FADEOUT 1 0 0 1 0 0
      MUTE 0
      SEL 1
      IGUID {19BBF939-385C-C7B5-8E16-A3B9C76DE9DA}
      IID 11
      NAME "01-Recorded MIDI"
      VOLPAN 1 0 1 -1
      SOFFS 0 0
      PLAYRATE 1 1 0 -1 0 0.0021
      CHANMODE 0
      GUID {84BC1139-09F9-0288-40A6-48161627C3B2}
      RECPASS 1
      <SOURCE MIDI
        HASDATA 1 960 QN
        CCINTERP 32
        POOLEDEVTS {842BA3EC-A522-18BE-02F4-462FAA0FCFFD}
        E 0 90 3c 48
        E 0 90 40 48
        E 0 90 43 48
        E 1920 80 3c 00
        E 0 80 40 00
        E 0 80 43 00
        E 0 90 3c 48
        E 0 90 40 48
        E 0 90 43 48
        E 260 80 3c 00
        E 0 80 40 00
        E 0 80 43 00
        E 440 90 3c 48
        E 0 90 40 48
        E 0 90 43 48
        E 260 80 3c 00
        E 0 80 40 00
        E 0 80 43 00
        e 514 90 3c 48
        e 0 90 40 48
        e 0 90 43 48
        e 260 80 3c 00
        e 0 80 40 00
        e 0 80 43 00
        E 186 90 43 48
        E 0 90 47 48
        E 20 90 40 48
        E 1900 80 43 00
        E 0 80 47 00
        E 0 80 40 00
        E 0 90 43 48
        E 0 90 47 48
        E 20 90 40 48
        E 240 80 43 00
        E 0 80 47 00
        E 0 80 40 00
        E 440 90 43 48
        E 0 90 47 48
        E 20 90 40 48
        E 240 80 43 00
        E 0 80 47 00
        E 0 80 40 00
        e 514 90 43 48
        e 0 90 47 48
        e 20 90 40 48
        e 240 80 43 00
        e 0 80 47 00
        e 0 80 40 00
        E 186 90 41 48
        E 0 90 45 48
        E 0 90 48 48
        E 1920 80 41 00
        E 0 80 45 00
        E 0 80 48 00
        E 0 90 41 48
        E 0 90 45 48
        E 0 90 48 48
        E 260 80 41 00
        E 0 80 45 00
        E 0 80 48 00
        E 440 90 41 48
        E 0 90 45 48
        E 0 90 48 48
        E 260 80 41 00
        E 0 80 45 00
        E 0 80 48 00
        e 514 90 41 48
        e 0 90 45 48
        e 0 90 48 48
        e 260 80 41 00
        e 0 80 45 00
        e 0 80 48 00
        E 162 90 3e 48
        E 24 90 41 48
        E 0 90 45 48
        E 1896 90 3e 48
        E 24 80 3e 00
        E 0 80 41 00
        E 0 80 45 00
        E 0 90 41 48
        E 0 90 45 48
        E 260 80 3e 00
        E 0 80 41 00
        E 0 80 45 00
        E 416 90 3e 48
        E 24 90 41 48
        E 0 90 45 48
        E 260 80 3e 00
        E 0 80 41 00
        E 0 80 45 00
        e 490 90 3e 48
        e 24 90 41 48
        e 0 90 45 48
        e 260 80 3e 00
        e 0 80 41 00
        e 0 80 45 00
        E 186 b0 7b 00
        CHASE_CC_TAKEOFFS 1
        GUID {3131B4E2-B370-E352-A9C5-C8CA31551A86}
        IGNTEMPO 0 120 4 4
        SRCCOLOR 18
        VELLANE -1 100 0
        CFGEDITVIEW 0 0.045808 45 12 0 -1 0 0 0 0.5
        KEYSNAP 0
        TRACKSEL 0
        EVTFILTER 0 -1 -1 -1 -1 0 0 0 0 -1 -1 -1 -1 0 -1 0 -1 -1
        CFGEDIT 1 1 0 1 0 0 1 1 1 1 1 1 58 171 1253 866 0 0 0 0 0.25 0 0 0 0 0.5 0 0 1 64
      >
    >
    <ITEM
      POSITION 16
      SNAPOFFS 0
      LENGTH 8
      LOOP 1
      ALLTAKES 0
      FADEIN 1 0 0 1 0 0
      FADEOUT 1 0 0 1 0 0
      MUTE 0
      SEL 1
      IGUID {47CB5C1B-B0D4-B9E1-725C-3AE6E9F2BA1D}
      IID 12
      NAME "01-Recorded MIDI"
      VOLPAN 1 0 1 -1
      SOFFS 0 0
      PLAYRATE 1 1 0 -1 0 0.0021
      CHANMODE 0
      GUID {01E24479-16AC-D2F3-F55F-8C3C2BB42F9B}
      RECPASS 1
      <SOURCE MIDI
        HASDATA 1 960 QN
        CCINTERP 32
        POOLEDEVTS {74164284-D7CA-C4F3-CB66-A7D0CBD10D78}
        E 0 90 3c 48
        E 0 90 40 48
        E 0 90 43 48
        E 1920 80 3c 00
        E 0 80 40 00
        E 0 80 43 00
        E 0 90 3c 48
        E 0 90 40 48
        E 0 90 43 48
        E 260 80 3c 00
        E 0 80 40 00
        E 0 80 43 00
        E 440 90 3c 48
        E 0 90 40 48
        E 0 90 43 48
        E 260 80 3c 00
        E 0 80 40 00
        E 0 80 43 00
        e 514 90 3c 48
        e 0 90 40 48
        e 0 90 43 48
        e 260 80 3c 00
        e 0 80 40 00
        e 0 80 43 00
        E 186 90 43 48
        E 0 90 47 48
        E 20 90 40 48
        E 1900 80 43 00
        E 0 80 47 00
        E 0 80 40 00
        E 0 90 43 48
        E 0 90 47 48
        E 20 90 40 48
        E 240 80 43 00
        E 0 80 47 00
        E 0 80 40 00
        E 440 90 43 48
        E 0 90 47 48
        E 20 90 40 48
        E 240 80 43 00
        E 0 80 47 00
        E 0 80 40 00
        e 514 90 43 48
        e 0 90 47 48
        e 20 90 40 48
        e 240 80 43 00
        e 0 80 47 00
        e 0 80 40 00
        E 186 90 41 48
        E 0 90 45 48
        E 0 90 48 48
        E 1920 80 41 00
        E 0 80 45 00
        E 0 80 48 00
        E 0 90 41 48
        E 0 90 45 48
        E 0 90 48 48
        E 260 80 41 00
        E 0 80 45 00
        E 0 80 48 00
        E 440 90 41 48
        E 0 90 45 48
        E 0 90 48 48
        E 260 80 41 00
        E 0 80 45 00
        E 0 80 48 00
        e 514 90 41 48
        e 0 90 45 48
        e 0 90 48 48
        e 260 80 41 00
        e 0 80 45 00
        e 0 80 48 00
        E 162 90 3e 48
        E 24 90 41 48
        E 0 90 45 48
        E 1896 90 3e 48
        E 24 80 3e 00
        E 0 80 41 00
        E 0 80 45 00
        E 0 90 41 48
        E 0 90 45 48
        E 260 80 3e 00
        E 0 80 41 00
        E 0 80 45 00
        E 416 90 3e 48
        E 24 90 41 48
        E 0 90 45 48
        E 260 80 3e 00
        E 0 80 41 00
        E 0 80 45 00
        e 490 90 3e 48
        e 24 90 41 48
        e 0 90 45 48
        e 260 80 3e 00
        e 0 80 41 00
        e 0 80 45 00
        E 186 b0 7b 00
        CHASE_CC_TAKEOFFS 1
        GUID {48C567A2-895C-FB9B-FDBA-0ADB7004ABF3}
        IGNTEMPO 0 120 4 4
        SRCCOLOR 19
        VELLANE -1 100 0
        CFGEDITVIEW 0 0.045808 45 12 0 -1 0 0 0 0.5
        KEYSNAP 0
        TRACKSEL 0
        EVTFILTER 0 -1 -1 -1 -1 0 0 0 0 -1 -1 -1 -1 0 -1 0 -1 -1
        CFGEDIT 1 1 0 1 0 0 1 1 1 1 1 1 58 171 1253 866 0 0 0 0 0.25 0 0 0 0 0.5 0 0 1 64
      >
    >
    <ITEM
      POSITION 24
      SNAPOFFS 0
      LENGTH 8
      LOOP 1
      ALLTAKES 0
      FADEIN 1 0 0 1 0 0
      FADEOUT 1 0 0 1 0 0
      MUTE 0
      SEL 1
      IGUID {21E35189-18BC-541B-FCEC-30A1BA518B47}
      IID 13
      NAME "01-Recorded MIDI"
      VOLPAN 1 0 1 -1
      SOFFS 0 0
      PLAYRATE 1 1 0 -1 0 0.0021
      CHANMODE 0
      GUID {57919A27-92B7-F14D-CCCC-139FE5A6748F}
      RECPASS 1
      <SOURCE MIDI
        HASDATA 1 960 QN
        CCINTERP 32
        POOLEDEVTS {50770831-F517-9E7D-D07F-FA75A919E47A}
        E 0 90 3c 48
        E 0 90 40 48
        E 0 90 43 48
        E 1920 80 3c 00
        E 0 80 40 00
        E 0 80 43 00
        E 0 90 3c 48
        E 0 90 40 48
        E 0 90 43 48
        E 260 80 3c 00
        E 0 80 40 00
        E 0 80 43 00
        E 440 90 3c 48
        E 0 90 40 48
        E 0 90 43 48
        E 260 80 3c 00
        E 0 80 40 00
        E 0 80 43 00
        e 514 90 3c 48
        e 0 90 40 48
        e 0 90 43 48
        e 260 80 3c 00
        e 0 80 40 00
        e 0 80 43 00
        E 186 90 43 48
        E 0 90 47 48
        E 20 90 40 48
        E 1900 80 43 00
        E 0 80 47 00
        E 0 80 40 00
        E 0 90 43 48
        E 0 90 47 48
        E 20 90 40 48
        E 240 80 43 00
        E 0 80 47 00
        E 0 80 40 00
        E 440 90 43 48
        E 0 90 47 48
        E 20 90 40 48
        E 240 80 43 00
        E 0 80 47 00
        E 0 80 40 00
        e 514 90 43 48
        e 0 90 47 48
        e 20 90 40 48
        e 240 80 43 00
        e 0 80 47 00
        e 0 80 40 00
        E 186 90 41 48
        E 0 90 45 48
        E 0 90 48 48
        E 1920 80 41 00
        E 0 80 45 00
        E 0 80 48 00
        E 0 90 41 48
        E 0 90 45 48
        E 0 90 48 48
        E 260 80 41 00
        E 0 80 45 00
        E 0 80 48 00
        E 440 90 41 48
        E 0 90 45 48
        E 0 90 48 48
        E 260 80 41 00
        E 0 80 45 00
        E 0 80 48 00
        e 514 90 41 48
        e 0 90 45 48
        e 0 90 48 48
        e 260 80 41 00
        e 0 80 45 00
        e 0 80 48 00
        E 162 90 3e 48
        E 24 90 41 48
        E 0 90 45 48
        E 1896 90 3e 48
        E 24 80 3e 00
        E 0 80 41 00
        E 0 80 45 00
        E 0 90 41 48
        E 0 90 45 48
        E 260 80 3e 00
        E 0 80 41 00
        E 0 80 45 00
        E 416 90 3e 48
        E 24 90 41 48
        E 0 90 45 48
        E 260 80 3e 00
        E 0 80 41 00
        E 0 80 45 00
        e 490 90 3e 48
        e 24 90 41 48
        e 0 90 45 48
        e 260 80 3e 00
        e 0 80 41 00
        e 0 80 45 00
        E 186 b0 7b 00
        CHASE_CC_TAKEOFFS 1
        GUID {1DE38800-E2A1-41B5-9C8C-3291891093B1}
        IGNTEMPO 0 120 4 4
        SRCCOLOR 20
        VELLANE -1 100 0
        CFGEDITVIEW 0 0.045808 45 12 0 -1 0 0 0 0.5
        KEYSNAP 0
        TRACKSEL 0
        EVTFILTER 0 -1 -1 -1 -1 0 0 0 0 -1 -1 -1 -1 0 -1 0 -1 -1
        CFGEDIT 1 1 0 1 0 0 1 1 1 1 1 1 58 171 1253 866 0 0 0 0 0.25 0 0 0 0 0.5 0 0 1 64
      >
    >
    <ITEM
      POSITION 32
      SNAPOFFS 0
      LENGTH 8
      LOOP 1
      ALLTAKES 0
      FADEIN 1 0 0 1 0 0
      FADEOUT 1 0 0 1 0 0
      MUTE 0
      SEL 1
      IGUID {67D70E07-F43A-28DB-D569-FB5BCBE73347}
      IID 14
      NAME "01-Recorded MIDI"
      VOLPAN 1 0 1 -1
      SOFFS 0 0
      PLAYRATE 1 1 0 -1 0 0.0021
      CHANMODE 0
      GUID {63A61063-021A-7D09-861D-4E9D443EA1E6}
      RECPASS 1
      <SOURCE MIDI
        HASDATA 1 960 QN
        CCINTERP 32
        POOLEDEVTS {FD10199C-0E1F-A550-CE11-5A20FF741994}
        E 0 90 3c 48
        E 0 90 40 48
        E 0 90 43 48
        E 1920 80 3c 00
        E 0 80 40 00
        E 0 80 43 00
        E 0 90 3c 48
        E 0 90 40 48
        E 0 90 43 48
        E 260 80 3c 00
        E 0 80 40 00
        E 0 80 43 00
        E 440 90 3c 48
        E 0 90 40 48
        E 0 90 43 48
        E 260 80 3c 00
        E 0 80 40 00
        E 0 80 43 00
        e 514 90 3c 48
        e 0 90 40 48
        e 0 90 43 48
        e 260 80 3c 00
        e 0 80 40 00
        e 0 80 43 00
        E 186 90 43 48
        E 0 90 47 48
        E 20 90 40 48
        E 1900 80 43 00
        E 0 80 47 00
        E 0 80 40 00
        E 0 90 43 48
        E 0 90 47 48
        E 20 90 40 48
        E 240 80 43 00
        E 0 80 47 00
        E 0 80 40 00
        E 440 90 43 48
        E 0 90 47 48
        E 20 90 40 48
        E 240 80 43 00
        E 0 80 47 00
        E 0 80 40 00
        e 514 90 43 48
        e 0 90 47 48
        e 20 90 40 48
        e 240 80 43 00
        e 0 80 47 00
        e 0 80 40 00
        E 186 90 41 48
        E 0 90 45 48
        E 0 90 48 48
        E 1920 80 41 00
        E 0 80 45 00
        E 0 80 48 00
        E 0 90 41 48
        E 0 90 45 48
        E 0 90 48 48
        E 260 80 41 00
        E 0 80 45 00
        E 0 80 48 00
        E 440 90 41 48
        E 0 90 45 48
        E 0 90 48 48
        E 260 80 41 00
        E 0 80 45 00
        E 0 80 48 00
        e 514 90 41 48
        e 0 90 45 48
        e 0 90 48 48
        e 260 80 41 00
        e 0 80 45 00
        e 0 80 48 00
        E 162 90 3e 48
        E 24 90 41 48
        E 0 90 45 48
        E 1896 90 3e 48
        E 24 80 3e 00
        E 0 80 41 00
        E 0 80 45 00
        E 0 90 41 48
        E 0 90 45 48
        E 260 80 3e 00
        E 0 80 41 00
        E 0 80 45 00
        E 416 90 3e 48
        E 24 90 41 48
        E 0 90 45 48
        E 260 80 3e 00
        E 0 80 41 00
        E 0 80 45 00
        e 490 90 3e 48
        e 24 90 41 48
        e 0 90 45 48
        e 260 80 3e 00
        e 0 80 41 00
        e 0 80 45 00
        E 186 b0 7b 00
        CHASE_CC_TAKEOFFS 1
        GUID {0C3271F4-E233-9088-9B25-A722FAE7C579}
        IGNTEMPO 0 120 4 4
        SRCCOLOR 21
        VELLANE -1 100 0
        CFGEDITVIEW 0 0.045808 45 12 0 -1 0 0 0 0.5
        KEYSNAP 0
        TRACKSEL 0
        EVTFILTER 0 -1 -1 -1 -1 0 0 0 0 -1 -1 -1 -1 0 -1 0 -1 -1
        CFGEDIT 1 1 0 1 0 0 1 1 1 1 1 1 58 171 1253 866 0 0 0 0 0.25 0 0 0 0 0.5 0 0 1 64
      >
    >
    <ITEM
      POSITION 40
      SNAPOFFS 0
      LENGTH 8
      LOOP 1
      ALLTAKES 0
      FADEIN 1 0 0 1 0 0
      FADEOUT 1 0 0 1 0 0
      MUTE 0
      SEL 1
      IGUID {8C5FCC9E-CE13-22DF-ED50-4B9189B212F3}
      IID 15
      NAME "01-Recorded MIDI"
      VOLPAN 1 0 1 -1
      SOFFS 0 0
      PLAYRATE 1 1 0 -1 0 0.0021
      CHANMODE 0
      GUID {F0C04CDB-6597-5862-DE7B-80E430DD414A}
      RECPASS 1
      <SOURCE MIDI
        HASDATA 1 960 QN
        CCINTERP 32
        POOLEDEVTS {0A5C8634-EED1-D00B-6DCF-3DD739163C28}
        E 0 90 3c 48
        E 0 90 40 48
        E 0 90 43 48
        E 1920 80 3c 00
        E 0 80 40 00
        E 0 80 43 00
        E 0 90 3c 48
        E 0 90 40 48
        E 0 90 43 48
        E 260 80 3c 00
        E 0 80 40 00
        E 0 80 43 00
        E 440 90 3c 48
        E 0 90 40 48
        E 0 90 43 48
        E 260 80 3c 00
        E 0 80 40 00
        E 0 80 43 00
        e 514 90 3c 48
        e 0 90 40 48
        e 0 90 43 48
        e 260 80 3c 00
        e 0 80 40 00
        e 0 80 43 00
        E 186 90 43 48
        E 0 90 47 48
        E 20 90 40 48
        E 1900 80 43 00
        E 0 80 47 00
        E 0 80 40 00
        E 0 90 43 48
        E 0 90 47 48
        E 20 90 40 48
        E 240 80 43 00
        E 0 80 47 00
        E 0 80 40 00
        E 440 90 43 48
        E 0 90 47 48
        E 20 90 40 48
        E 240 80 43 00
        E 0 80 47 00
        E 0 80 40 00
        e 514 90 43 48
        e 0 90 47 48
        e 20 90 40 48
        e 240 80 43 00
        e 0 80 47 00
        e 0 80 40 00
        E 186 90 41 48
        E 0 90 45 48
        E 0 90 48 48
        E 1920 80 41 00
        E 0 80 45 00
        E 0 80 48 00
        E 0 90 41 48
        E 0 90 45 48
        E 0 90 48 48
        E 260 80 41 00
        E 0 80 45 00
        E 0 80 48 00
        E 440 90 41 48
        E 0 90 45 48
        E 0 90 48 48
        E 260 80 41 00
        E 0 80 45 00
        E 0 80 48 00
        e 514 90 41 48
        e 0 90 45 48
        e 0 90 48 48
        e 260 80 41 00
        e 0 80 45 00
        e 0 80 48 00
        E 162 90 3e 48
        E 24 90 41 48
        E 0 90 45 48
        E 1896 90 3e 48
        E 24 80 3e 00
        E 0 80 41 00
        E 0 80 45 00
        E 0 90 41 48
        E 0 90 45 48
        E 260 80 3e 00
        E 0 80 41 00
        E 0 80 45 00
        E 416 90 3e 48
        E 24 90 41 48
        E 0 90 45 48
        E 260 80 3e 00
        E 0 80 41 00
        E 0 80 45 00
        e 490 90 3e 48
        e 24 90 41 48
        e 0 90 45 48
        e 260 80 3e 00
        e 0 80 41 00
        e 0 80 45 00
        E 186 b0 7b 00
        CHASE_CC_TAKEOFFS 1
        GUID {040E7AF8-3572-5D91-3C86-797AEE7444D4}
        IGNTEMPO 0 120 4 4
        SRCCOLOR 22
        VELLANE -1 100 0
        CFGEDITVIEW 0 0.045808 45 12 0 -1 0 0 0 0.5
        KEYSNAP 0
        TRACKSEL 0
        EVTFILTER 0 -1 -1 -1 -1 0 0 0 0 -1 -1 -1 -1 0 -1 0 -1 -1
        CFGEDIT 1 1 0 1 0 0 1 1 1 1 1 1 58 171 1253 866 0 0 0 0 0.25 0 0 0 0 0.5 0 0 1 64
      >
    >
    <ITEM
      POSITION 48
      SNAPOFFS 0
      LENGTH 8
      LOOP 1
      ALLTAKES 0
      FADEIN 1 0 0 1 0 0
      FADEOUT 1 0 0 1 0 0
      MUTE 0
      SEL 1
      IGUID {A18DFC65-CC14-8118-3727-EE699D7E1C11}
      IID 16
      NAME "01-Recorded MIDI"
      VOLPAN 1 0 1 -1
      SOFFS 0 0
      PLAYRATE 1 1 0 -1 0 0.0021
      CHANMODE 0
      GUID {83C07802-425D-9B28-4490-50EF58B160A5}
      RECPASS 1
      <SOURCE MIDI
        HASDATA 1 960 QN
        CCINTERP 32
        POOLEDEVTS {B384F6EB-C282-D3B3-B502-ADD14E89B50C}
        E 0 90 3c 48
        E 0 90 40 48
        E 0 90 43 48
        E 1920 80 3c 00
        E 0 80 40 00
        E 0 80 43 00
        E 0 90 3c 48
        E 0 90 40 48
        E 0 90 43 48
        E 260 80 3c 00
        E 0 80 40 00
        E 0 80 43 00
        E 440 90 3c 48
        E 0 90 40 48
        E 0 90 43 48
        E 260 80 3c 00
        E 0 80 40 00
        E 0 80 43 00
        e 514 90 3c 48
        e 0 90 40 48
        e 0 90 43 48
        e 260 80 3c 00
        e 0 80 40 00
        e 0 80 43 00
        E 186 90 43 48
        E 0 90 47 48
        E 20 90 40 48
        E 1900 80 43 00
        E 0 80 47 00
        E 0 80 40 00
        E 0 90 43 48
        E 0 90 47 48
        E 20 90 40 48
        E 240 80 43 00
        E 0 80 47 00
        E 0 80 40 00
        E 440 90 43 48
        E 0 90 47 48
        E 20 90 40 48
        E 240 80 43 00
        E 0 80 47 00
        E 0 80 40 00
        e 514 90 43 48
        e 0 90 47 48
        e 20 90 40 48
        e 240 80 43 00
        e 0 80 47 00
        e 0 80 40 00
        E 186 90 41 48
        E 0 90 45 48
        E 0 90 48 48
        E 1920 80 41 00
        E 0 80 45 00
        E 0 80 48 00
        E 0 90 41 48
        E 0 90 45 48
        E 0 90 48 48
        E 260 80 41 00
        E 0 80 45 00
        E 0 80 48 00
        E 440 90 41 48
        E 0 90 45 48
        E 0 90 48 48
        E 260 80 41 00
        E 0 80 45 00
        E 0 80 48 00
        e 514 90 41 48
        e 0 90 45 48
        e 0 90 48 48
        e 260 80 41 00
        e 0 80 45 00
        e 0 80 48 00
        E 162 90 3e 48
        E 24 90 41 48
        E 0 90 45 48
        E 1896 90 3e 48
        E 24 80 3e 00
        E 0 80 41 00
        E 0 80 45 00
        E 0 90 41 48
        E 0 90 45 48
        E 260 80 3e 00
        E 0 80 41 00
        E 0 80 45 00
        E 416 90 3e 48
        E 24 90 41 48
        E 0 90 45 48
        E 260 80 3e 00
        E 0 80 41 00
        E 0 80 45 00
        e 490 90 3e 48
        e 24 90 41 48
        e 0 90 45 48
        e 260 80 3e 00
        e 0 80 41 00
        e 0 80 45 00
        E 186 b0 7b 00
        CHASE_CC_TAKEOFFS 1
        GUID {2338968B-6CF9-9F40-300F-DEB89D3392EA}
        IGNTEMPO 0 120 4 4
        SRCCOLOR 23
        VELLANE -1 100 0
        CFGEDITVIEW 0 0.045808 45 12 0 -1 0 0 0 0.5
        KEYSNAP 0
        TRACKSEL 0
        EVTFILTER 0 -1 -1 -1 -1 0 0 0 0 -1 -1 -1 -1 0 -1 0 -1 -1
        CFGEDIT 1 1 0 1 0 0 1 1 1 1 1 1 58 171 1253 866 0 0 0 0 0.25 0 0 0 0 0.5 0 0 1 64
      >
    >
    <ITEM
      POSITION 56
      SNAPOFFS 0
      LENGTH 8
      LOOP 1
      ALLTAKES 0
      FADEIN 1 0 0 1 0 0
      FADEOUT 1 0 0 1 0 0
      MUTE 0
      SEL 1
      IGUID {A2898B10-0B1E-7BCA-5BBF-817DC8B37254}
      IID 17
      NAME "01-Recorded MIDI"
      VOLPAN 1 0 1 -1
      SOFFS 0 0
      PLAYRATE 1 1 0 -1 0 0.0021
      CHANMODE 0
      GUID {125CB06C-221D-D472-877A-7823153FF262}
      RECPASS 1
      <SOURCE MIDI
        HASDATA 1 960 QN
        CCINTERP 32
        POOLEDEVTS {189510AA-CE44-CB0A-6D5E-EE12EABE748B}
        E 0 90 3c 48
        E 0 90 40 48
        E 0 90 43 48
        E 1920 80 3c 00
        E 0 80 40 00
        E 0 80 43 00
        E 0 90 3c 48
        E 0 90 40 48
        E 0 90 43 48
        E 260 80 3c 00
        E 0 80 40 00
        E 0 80 43 00
        E 440 90 3c 48
        E 0 90 40 48
        E 0 90 43 48
        E 260 80 3c 00
        E 0 80 40 00
        E 0 80 43 00
        e 514 90 3c 48
        e 0 90 40 48
        e 0 90 43 48
        e 260 80 3c 00
        e 0 80 40 00
        e 0 80 43 00
        E 186 90 43 48
        E 0 90 47 48
        E 20 90 40 48
        E 1900 80 43 00
        E 0 80 47 00
        E 0 80 40 00
        E 0 90 43 48
        E 0 90 47 48
        E 20 90 40 48
        E 240 80 43 00
        E 0 80 47 00
        E 0 80 40 00
        E 440 90 43 48
        E 0 90 47 48
        E 20 90 40 48
        E 240 80 43 00
        E 0 80 47 00
        E 0 80 40 00
        e 514 90 43 48
        e 0 90 47 48
        e 20 90 40 48
        e 240 80 43 00
        e 0 80 47 00
        e 0 80 40 00
        E 186 90 41 48
        E 0 90 45 48
        E 0 90 48 48
        E 1920 80 41 00
        E 0 80 45 00
        E 0 80 48 00
        E 0 90 41 48
        E 0 90 45 48
        E 0 90 48 48
        E 260 80 41 00
        E 0 80 45 00
        E 0 80 48 00
        E 440 90 41 48
        E 0 90 45 48
        E 0 90 48 48
        E 260 80 41 00
        E 0 80 45 00
        E 0 80 48 00
        e 514 90 41 48
        e 0 90 45 48
        e 0 90 48 48
        e 260 80 41 00
        e 0 80 45 00
        e 0 80 48 00
        E 162 90 3e 48
        E 24 90 41 48
        E 0 90 45 48
        E 1896 90 3e 48
        E 24 80 3e 00
        E 0 80 41 00
        E 0 80 45 00
        E 0 90 41 48
        E 0 90 45 48
        E 260 80 3e 00
        E 0 80 41 00
        E 0 80 45 00
        E 416 90 3e 48
        E 24 90 41 48
        E 0 90 45 48
        E 260 80 3e 00
        E 0 80 41 00
        E 0 80 45 00
        e 490 90 3e 48
        e 24 90 41 48
        e 0 90 45 48
        e 260 80 3e 00
        e 0 80 41 00
        e 0 80 45 00
        E 186 b0 7b 00
        CHASE_CC_TAKEOFFS 1
        GUID {A64857E2-94F8-0990-20DF-4C1E9B5E6251}
        IGNTEMPO 0 120 4 4
        SRCCOLOR 24
        VELLANE -1 100 0
        CFGEDITVIEW 0 0.045808 45 12 0 -1 0 0 0 0.5
        KEYSNAP 0
        TRACKSEL 0
        EVTFILTER 0 -1 -1 -1 -1 0 0 0 0 -1 -1 -1 -1 0 -1 0 -1 -1
        CFGEDIT 1 1 0 1 0 0 1 1 1 1 1 1 58 171 1253 866 0 0 0 0 0.25 0 0 0 0 0.5 0 0 1 64
      >
    >
    <ITEM
      POSITION 64
      SNAPOFFS 0
      LENGTH 8
      LOOP 1
      ALLTAKES 0
      FADEIN 1 0 0 1 0 0
      FADEOUT 1 0 0 1 0 0
      MUTE 0
      SEL 1
      IGUID {55BFFE57-7E2E-B624-73A4-B4FAA76A243A}
      IID 18
      NAME "01-Recorded MIDI"
      VOLPAN 1 0 1 -1
      SOFFS 0 0
      PLAYRATE 1 1 0 -1 0 0.0021
      CHANMODE 0
      GUID {68E0E58B-C346-5B60-A433-360CB08E586D}
      RECPASS 1
      <SOURCE MIDI
        HASDATA 1 960 QN
        CCINTERP 32
        POOLEDEVTS {D4F63F72-F3FF-E7AF-688A-56B84951C998}
        E 0 90 3c 48
        E 0 90 40 48
        E 0 90 43 48
        E 1920 80 3c 00
        E 0 80 40 00
        E 0 80 43 00
        E 0 90 3c 48
        E 0 90 40 48
        E 0 90 43 48
        E 260 80 3c 00
        E 0 80 40 00
        E 0 80 43 00
        E 440 90 3c 48
        E 0 90 40 48
        E 0 90 43 48
        E 260 80 3c 00
        E 0 80 40 00
        E 0 80 43 00
        e 514 90 3c 48
        e 0 90 40 48
        e 0 90 43 48
        e 260 80 3c 00
        e 0 80 40 00
        e 0 80 43 00
        E 186 90 43 48
        E 0 90 47 48
        E 20 90 40 48
        E 1900 80 43 00
        E 0 80 47 00
        E 0 80 40 00
        E 0 90 43 48
        E 0 90 47 48
        E 20 90 40 48
        E 240 80 43 00
        E 0 80 47 00
        E 0 80 40 00
        E 440 90 43 48
        E 0 90 47 48
        E 20 90 40 48
        E 240 80 43 00
        E 0 80 47 00
        E 0 80 40 00
        e 514 90 43 48
        e 0 90 47 48
        e 20 90 40 48
        e 240 80 43 00
        e 0 80 47 00
        e 0 80 40 00
        E 186 90 41 48
        E 0 90 45 48
        E 0 90 48 48
        E 1920 80 41 00
        E 0 80 45 00
        E 0 80 48 00
        E 0 90 41 48
        E 0 90 45 48
        E 0 90 48 48
        E 260 80 41 00
        E 0 80 45 00
        E 0 80 48 00
        E 440 90 41 48
        E 0 90 45 48
        E 0 90 48 48
        E 260 80 41 00
        E 0 80 45 00
        E 0 80 48 00
        e 514 90 41 48
        e 0 90 45 48
        e 0 90 48 48
        e 260 80 41 00
        e 0 80 45 00
        e 0 80 48 00
        E 162 90 3e 48
        E 24 90 41 48
        E 0 90 45 48
        E 1896 90 3e 48
        E 24 80 3e 00
        E 0 80 41 00
        E 0 80 45 00
        E 0 90 41 48
        E 0 90 45 48
        E 260 80 3e 00
        E 0 80 41 00
        E 0 80 45 00
        E 416 90 3e 48
        E 24 90 41 48
        E 0 90 45 48
        E 260 80 3e 00
        E 0 80 41 00
        E 0 80 45 00
        e 490 90 3e 48
        e 24 90 41 48
        e 0 90 45 48
        e 260 80 3e 00
        e 0 80 41 00
        e 0 80 45 00
        E 186 b0 7b 00
        CHASE_CC_TAKEOFFS 1
        GUID {19362806-85F2-5D9E-E1F9-07BE0CF3D16E}
        IGNTEMPO 0 120 4 4
        SRCCOLOR 25
        VELLANE -1 100 0
        CFGEDITVIEW 0 0.045808 45 12 0 -1 0 0 0 0.5
        KEYSNAP 0
        TRACKSEL 0
        EVTFILTER 0 -1 -1 -1 -1 0 0 0 0 -1 -1 -1 -1 0 -1 0 -1 -1
        CFGEDIT 1 1 0 1 0 0 1 1 1 1 1 1 58 171 1253 866 0 0 0 0 0.25 0 0 0 0 0.5 0 0 1 64
      >
    >
    <ITEM
      POSITION 72
      SNAPOFFS 0
      LENGTH 8
      LOOP 1
      ALLTAKES 0
      FADEIN 1 0 0 1 0 0
      FADEOUT 1 0 0 1 0 0
      MUTE 0
      SEL 1
      IGUID {4119B5EE-EA04-D9F9-3FEC-8BFCC503CC22}
      IID 19
      NAME "01-Recorded MIDI"
      VOLPAN 1 0 1 -1
      SOFFS 0 0
      PLAYRATE 1 1 0 -1 0 0.0021
      CHANMODE 0
      GUID {78359BCA-EEE7-8F49-3B90-FAFE9C77207B}
      RECPASS 1
      <SOURCE MIDI
        HASDATA 1 960 QN
        CCINTERP 32
        POOLEDEVTS {985F5DBD-1CA6-98A9-5866-5F17EDA97DD8}
        E 0 90 3c 48
        E 0 90 40 48
        E 0 90 43 48
        E 1920 80 3c 00
        E 0 80 40 00
        E 0 80 43 00
        E 0 90 3c 48
        E 0 90 40 48
        E 0 90 43 48
        E 260 80 3c 00
        E 0 80 40 00
        E 0 80 43 00
        E 440 90 3c 48
        E 0 90 40 48
        E 0 90 43 48
        E 260 80 3c 00
        E 0 80 40 00
        E 0 80 43 00
        e 514 90 3c 48
        e 0 90 40 48
        e 0 90 43 48
        e 260 80 3c 00
        e 0 80 40 00
        e 0 80 43 00
        E 186 90 43 48
        E 0 90 47 48
        E 20 90 40 48
        E 1900 80 43 00
        E 0 80 47 00
        E 0 80 40 00
        E 0 90 43 48
        E 0 90 47 48
        E 20 90 40 48
        E 240 80 43 00
        E 0 80 47 00
        E 0 80 40 00
        E 440 90 43 48
        E 0 90 47 48
        E 20 90 40 48
        E 240 80 43 00
        E 0 80 47 00
        E 0 80 40 00
        e 514 90 43 48
        e 0 90 47 48
        e 20 90 40 48
        e 240 80 43 00
        e 0 80 47 00
        e 0 80 40 00
        E 186 90 41 48
        E 0 90 45 48
        E 0 90 48 48
        E 1920 80 41 00
        E 0 80 45 00
        E 0 80 48 00
        E 0 90 41 48
        E 0 90 45 48
        E 0 90 48 48
        E 260 80 41 00
        E 0 80 45 00
        E 0 80 48 00
        E 440 90 41 48
        E 0 90 45 48
        E 0 90 48 48
        E 260 80 41 00
        E 0 80 45 00
        E 0 80 48 00
        e 514 90 41 48
        e 0 90 45 48
        e 0 90 48 48
        e 260 80 41 00
        e 0 80 45 00
        e 0 80 48 00
        E 162 90 3e 48
        E 24 90 41 48
        E 0 90 45 48
        E 1896 90 3e 48
        E 24 80 3e 00
        E 0 80 41 00
        E 0 80 45 00
        E 0 90 41 48
        E 0 90 45 48
        E 260 80 3e 00
        E 0 80 41 00
        E 0 80 45 00
        E 416 90 3e 48
        E 24 90 41 48
        E 0 90 45 48
        E 260 80 3e 00
        E 0 80 41 00
        E 0 80 45 00
        e 490 90 3e 48
        e 24 90 41 48
        e 0 90 45 48
        e 260 80 3e 00
        e 0 80 41 00
        e 0 80 45 00
        E 186 b0 7b 00
        CHASE_CC_TAKEOFFS 1
        GUID {6844F8A9-6BE9-023C-4A46-0A676470C99B}
        IGNTEMPO 0 120 4 4
        SRCCOLOR 26
        VELLANE -1 100 0
        CFGEDITVIEW 0 0.045808 45 12 0 -1 0 0 0 0.5
        KEYSNAP 0
        TRACKSEL 0
        EVTFILTER 0 -1 -1 -1 -1 0 0 0 0 -1 -1 -1 -1 0 -1 0 -1 -1
        CFGEDIT 1 1 0 1 0 0 1 1 1 1 1 1 58 171 1253 866 0 0 0 0 0.25 0 0 0 0 0.5 0 0 1 64
      >
    >
    <ITEM
      POSITION 80
      SNAPOFFS 0
      LENGTH 8
      LOOP 1
      ALLTAKES 0
      FADEIN 1 0 0 1 0 0
      FADEOUT 1 0 0 1 0 0
      MUTE 0
      SEL 1
      IGUID {A9F94051-091D-5CB3-7F33-A4924201FDD4}
      IID 20
      NAME "01-Recorded MIDI"
      VOLPAN 1 0 1 -1
      SOFFS 0 0
      PLAYRATE 1 1 0 -1 0 0.0021
      CHANMODE 0
      GUID {EEC644C3-0C01-412F-B0D7-EEA527124C2D}
      RECPASS 1
      <SOURCE MIDI
        HASDATA 1 960 QN
        CCINTERP 32
        POOLEDEVTS {210F689A-90DF-1C2C-432F-D67AC07ECE14}
        E 0 90 3c 48
        E 0 90 40 48
        E 0 90 43 48
        E 1920 80 3c 00
        E 0 80 40 00
        E 0 80 43 00
        E 0 90 3c 48
        E 0 90 40 48
        E 0 90 43 48
        E 260 80 3c 00
        E 0 80 40 00
        E 0 80 43 00
        E 440 90 3c 48
        E 0 90 40 48
        E 0 90 43 48
        E 260 80 3c 00
        E 0 80 40 00
        E 0 80 43 00
        e 514 90 3c 48
        e 0 90 40 48
        e 0 90 43 48
        e 260 80 3c 00
        e 0 80 40 00
        e 0 80 43 00
        E 186 90 43 48
        E 0 90 47 48
        E 20 90 40 48
        E 1900 80 43 00
        E 0 80 47 00
        E 0 80 40 00
        E 0 90 43 48
        E 0 90 47 48
        E 20 90 40 48
        E 240 80 43 00
        E 0 80 47 00
        E 0 80 40 00
        E 440 90 43 48
        E 0 90 47 48
        E 20 90 40 48
        E 240 80 43 00
        E 0 80 47 00
        E 0 80 40 00
        e 514 90 43 48
        e 0 90 47 48
        e 20 90 40 48
        e 240 80 43 00
        e 0 80 47 00
        e 0 80 40 00
        E 186 90 41 48
        E 0 90 45 48
        E 0 90 48 48
        E 1920 80 41 00
        E 0 80 45 00
        E 0 80 48 00
        E 0 90 41 48
        E 0 90 45 48
        E 0 90 48 48
        E 260 80 41 00
        E 0 80 45 00
        E 0 80 48 00
        E 440 90 41 48
        E 0 90 45 48
        E 0 90 48 48
        E 260 80 41 00
        E 0 80 45 00
        E 0 80 48 00
        e 514 90 41 48
        e 0 90 45 48
        e 0 90 48 48
        e 260 80 41 00
        e 0 80 45 00
        e 0 80 48 00
        E 162 90 3e 48
        E 24 90 41 48
        E 0 90 45 48
        E 1896 90 3e 48
        E 24 80 3e 00
        E 0 80 41 00
        E 0 80 45 00
        E 0 90 41 48
        E 0 90 45 48
        E 260 80 3e 00
        E 0 80 41 00
        E 0 80 45 00
        E 416 90 3e 48
        E 24 90 41 48
        E 0 90 45 48
        E 260 80 3e 00
        E 0 80 41 00
        E 0 80 45 00
        e 490 90 3e 48
        e 24 90 41 48
        e 0 90 45 48
        e 260 80 3e 00
        e 0 80 41 00
        e 0 80 45 00
        E 186 b0 7b 00
        CHASE_CC_TAKEOFFS 1
        GUID {E611ADB6-4869-6CCA-8E83-3954D5E743B1}
        IGNTEMPO 0 120 4 4
        SRCCOLOR 27
        VELLANE -1 100 0
        CFGEDITVIEW 0 0.045808 45 12 0 -1 0 0 0 0.5
        KEYSNAP 0
        TRACKSEL 0
        EVTFILTER 0 -1 -1 -1 -1 0 0 0 0 -1 -1 -1 -1 0 -1 0 -1 -1
        CFGEDIT 1 1 0 1 0 0 1 1 1 1 1 1 58 171 1253 866 0 0 0 0 0.25 0 0 0 0 0.5 0 0 1 64
      >
    >
    <ITEM
      POSITION 88
      SNAPOFFS 0
      LENGTH 8
      LOOP 1
      ALLTAKES 0
      FADEIN 1 0 0 1 0 0
      FADEOUT 1 0 0 1 0 0
      MUTE 0
      SEL 1
      IGUID {464D56A8-FB43-E4BE-07E3-C28E5FB5A2FB}
      IID 21
      NAME "01-Recorded MIDI"
      VOLPAN 1 0 1 -1
      SOFFS 0 0
      PLAYRATE 1 1 0 -1 0 0.0021
      CHANMODE 0
      GUID {82C7795A-32FD-B6D0-15FD-AE3A83276F9E}
      RECPASS 1
      <SOURCE MIDI
        HASDATA 1 960 QN
        CCINTERP 32
        POOLEDEVTS {81E0D2E8-0181-661A-FE28-F11CF53761BD}
        E 0 90 3c 48
        E 0 90 40 48
        E 0 90 43 48
        E 1920 80 3c 00
        E 0 80 40 00
        E 0 80 43 00
        E 0 90 3c 48
        E 0 90 40 48
        E 0 90 43 48
        E 260 80 3c 00
        E 0 80 40 00
        E 0 80 43 00
        E 440 90 3c 48
        E 0 90 40 48
        E 0 90 43 48
        E 260 80 3c 00
        E 0 80 40 00
        E 0 80 43 00
        e 514 90 3c 48
        e 0 90 40 48
        e 0 90 43 48
        e 260 80 3c 00
        e 0 80 40 00
        e 0 80 43 00
        E 186 90 43 48
        E 0 90 47 48
        E 20 90 40 48
        E 1900 80 43 00
        E 0 80 47 00
        E 0 80 40 00
        E 0 90 43 48
        E 0 90 47 48
        E 20 90 40 48
        E 240 80 43 00
        E 0 80 47 00
        E 0 80 40 00
        E 440 90 43 48
        E 0 90 47 48
        E 20 90 40 48
        E 240 80 43 00
        E 0 80 47 00
        E 0 80 40 00
        e 514 90 43 48
        e 0 90 47 48
        e 20 90 40 48
        e 240 80 43 00
        e 0 80 47 00
        e 0 80 40 00
        E 186 90 41 48
        E 0 90 45 48
        E 0 90 48 48
        E 1920 80 41 00
        E 0 80 45 00
        E 0 80 48 00
        E 0 90 41 48
        E 0 90 45 48
        E 0 90 48 48
        E 260 80 41 00
        E 0 80 45 00
        E 0 80 48 00
        E 440 90 41 48
        E 0 90 45 48
        E 0 90 48 48
        E 260 80 41 00
        E 0 80 45 00
        E 0 80 48 00
        e 514 90 41 48
        e 0 90 45 48
        e 0 90 48 48
        e 260 80 41 00
        e 0 80 45 00
        e 0 80 48 00
        E 162 90 3e 48
        E 24 90 41 48
        E 0 90 45 48
        E 1896 90 3e 48
        E 24 80 3e 00
        E 0 80 41 00
        E 0 80 45 00
        E 0 90 41 48
        E 0 90 45 48
        E 260 80 3e 00
        E 0 80 41 00
        E 0 80 45 00
        E 416 90 3e 48
        E 24 90 41 48
        E 0 90 45 48
        E 260 80 3e 00
        E 0 80 41 00
        E 0 80 45 00
        e 490 90 3e 48
        e 24 90 41 48
        e 0 90 45 48
        e 260 80 3e 00
        e 0 80 41 00
        e 0 80 45 00
        E 186 b0 7b 00
        CHASE_CC_TAKEOFFS 1
        GUID {C762B555-17FC-D765-5340-11D3487D2955}
        IGNTEMPO 0 120 4 4
        SRCCOLOR 28
        VELLANE -1 100 0
        CFGEDITVIEW 0 0.045808 45 12 0 -1 0 0 0 0.5
        KEYSNAP 0
        TRACKSEL 0
        EVTFILTER 0 -1 -1 -1 -1 0 0 0 0 -1 -1 -1 -1 0 -1 0 -1 -1
        CFGEDIT 1 1 0 1 0 0 1 1 1 1 1 1 58 171 1253 866 0 0 0 0 0.25 0 0 0 0 0.5 0 0 1 64
      >
    >
  >
  <TRACK {BF7EE45D-0CF7-257B-E785-0E42E67518FD}
    NAME ""
    PEAKCOL 16576
    BEAT -1
    AUTOMODE 0
    VOLPAN 0.00052194381917 0 -1 -1 1
    MUTESOLO 0 0 0
    IPHASE 0
    PLAYOFFS 0 1
    ISBUS 0 0
    BUSCOMP 0 0 0 0 0
    SHOWINMIX 1 0.6667 0.5 1 0.5 0 0 0
    FREEMODE 0
    SEL 0
    REC 0 5056 1 0 0 0 0
    VU 2
    TRACKHEIGHT 21 0 0
    INQ 0 0 0 0.5 100 0 0 100
    NCHAN 2
    FX 0
    TRACKID {BF7EE45D-0CF7-257B-E785-0E42E67518FD}
    PERF 0
    MIDIOUT -1
    MAINSEND 1 0
    <FXCHAIN
      WNDRECT 346 266 902 608
      SHOW 0
      LASTSEL 5
      DOCKED 0
      BYPASS 0 0 0
      <VST "VST: ReaEQ (Cockos)" reaeq.vst.so 0 "" 1919247729<56535472656571726561657100000000> ""
        cWVlcu5e7f4CAAAAAQAAAAAAAAACAAAAAAAAAAIAAAABAAAAAAAAAAIAAAAAAAAAqAAAAAEAAAAAABAA
        IQAAAAQAAAAEAAAAAQAAAEC4Xhmm+DRAAAAAAAAA8D8AAAAAAAAAQAEIAAAAAQAAAAAAAAAAwHJAAAAAAAAA8D8AAAAAAAAAQAEIAAAAAQAAAAAAAAAAQI9AAAAAAAAA
        8D8AAAAAAAAAQAEDAAAAAQAAAAABaCorbdRAAAAAAAAA8D8AAAAAAAAAQAEBAAAAAQAAAAAAAAAAAPA/AAAAAJoCAACcAQAA
        AEhpZ2ggbG93IHBhc3MAEAAAAA==
      >
      PRESETNAME "High low pass"
      FLOATPOS 0 0 0 0
      FXID {8E4322EC-4450-87E5-810B-F0D7095FBB67}
      WAK 0 0
      BYPASS 0 0 0
      <VST "VSTi: ReaSynth (Cockos)" reasynth.vst.so 0 "" 1919251321<5653547265737972656173796E746800> ""
        eXNlcu9e7f4AAAAAAgAAAAEAAAAAAAAAAgAAAAAAAAA8AAAAAAAAAAAAEAA=
        776t3g3wrd6lm8Q7F7fROgAAAAAAAAAAAAAAAJCNuT3oZ4g9AACAPwAAAD8AAIA/AAAAAAAAAD8AAAAA
        AAAQAAAA
      >
      FLOATPOS 0 0 0 0
      FXID {FDC1AD0E-8C40-6762-6597-4AADAE2E9CEB}
      WAK 0 0
      BYPASS 0 0 0
      <JS guitar/amp-model ""
        "Dumble Overdrive Special - Tweed Deluxe.wav" -21.000000 1.000000 0.000000 0.000000 -1.000000 - - - - - - - - - - - - - - - - - - - - - - - - - - - - - - - - - - - - - - - - - - - - - - - - - - - - - - - - - - 
      >
      FLOATPOS 0 0 0 0
      FXID {F3A3E561-BBDE-9278-7D92-F9F7C2B25336}
      WAK 0 0
      BYPASS 0 0 0
      <VST "VST: ReaComp (Cockos)" reacomp.vst.so 0 "" 1919247213<5653547265636D726561636F6D700000> ""
        bWNlcu9e7f4EAAAAAQAAAAAAAAACAAAAAAAAAAQAAAAAAAAACAAAAAAAAAACAAAAAQAAAAAAAAACAAAAAAAAAFQAAAAAAAAAAAAQAA==
        776t3g3wrd5FoYg9/AWpPKWbxDsK16M8AAAAAAAAAAAAAIA/AAAAAAAAAAAAAAAAnNEHMwAAgD8AAAAAzMxMPQAAAAAAAAAAAAAAAAAAgD7YiZ09
        AAAQAAAA
      >
      FLOATPOS 0 0 0 0
      FXID {BFE319B8-BD38-8944-8E97-B90D6CDBD2E6}
      WAK 0 0
      BYPASS 0 0 0
      <VST "VST: ReaDelay (Cockos)" readelay.vst.so 0 "" 1919247468<5653547265646C72656164656C617900> ""
        bGRlcu5e7f4CAAAAAQAAAAAAAAACAAAAAAAAAAIAAAABAAAAAAAAAAIAAAAAAAAA/AAAAAEAAAAAAAAA
        AAAAAAAAAAAFAAAALAAAAAIAAAAEAAAAAACAPwAAgD8AAAAAAACAPwAAAAAAAIA7vTeGNQAAgD8AAAAAAACAPwAAgD8AAIA/AAAAAAAAAAAAAIA/AAAAAAAAADwAAAAA
        AACAPwAAAAAAAIA/AACAP+87NT8AAIA/AAAAAAAAgD8AAAAAAABAPL03hjUAAIA/AAAAAAAAgD8AAIA/zk0AP6abhD4AAAAAAACAPwAAAAAAAIA8vTeGNQAAgD8AAAAA
        AACAPwAAgD8aqrU+pHA9PwAAAAAAAIA/AAAAAAAAoDy9N4Y1AACAPwAAAAAAAIA/AACAP/npAD4AAAA/
        AHN0b2NrIC0gYmFzaWMgNSB0YXAgcGluZyBwb25nAAAAAAA=
      >
      PRESETNAME "stock - basic 5 tap ping pong"
      FLOATPOS 0 0 0 0
      FXID {7524FDE7-077E-A5C2-95EB-95871D77B6A9}
      WAK 0 0
      BYPASS 0 0 0
      <VST "VST: ReaVerb (Cockos)" reaverb.vst.so 0 "" 1919252066<56535472657662726561766572620000> ""
        YnZlcu5e7f4CAAAAAQAAAAAAAAACAAAAAAAAAAIAAAABAAAAAAAAAAIAAAAAAAAAcAAAAAEAAAAAAAAA
        AAAAwcybgD4AAIA/AAAAAAAAgD8AAIA/AAAAPwAAgD8AAAAAVkVSQkdFTgAYAAAAAAAAAJHgV0QdrLRA3rK7QsHIjEIAAIC/RUNIT0dFTgAcAAAAy/i2QLUjdUJdzdM/
        osdfP5lRrzyRzYxAnMQAPw==
        AHN3ZWV0dmVyYm8AAAAAAA==
      >
      PRESETNAME sweetverbo
      FLOATPOS 0 0 0 0
      FXID {7DE5ED7C-D602-7C69-50D6-883B434DE76E}
      WAK 0 0
    >
    <ITEM
      POSITION 0
      SNAPOFFS 0
      LENGTH 8
      LOOP 1
      ALLTAKES 0
      FADEIN 1 0 0 1 0 0
      FADEOUT 1 0 0 1 0 0
      MUTE 0
      SEL 1
      IGUID {BCE48A49-82DF-2667-B384-B789110FAA82}
      IID 10
      NAME "01-Recorded MIDI"
      VOLPAN 1 0 1 -1
      SOFFS 0 0
      PLAYRATE 1 1 0 -1 0 0.0021
      CHANMODE 0
      GUID {B1246F0A-1A2C-ECFF-D645-6C3E5AB4699A}
      RECPASS 1
      <SOURCE MIDI
        HASDATA 1 960 QN
        CCINTERP 32
        POOLEDEVTS {D04F0016-5A7F-47A3-4D86-7749D68121C5}
        E 0 90 3c 48
        E 0 90 40 48
        E 0 90 43 48
        E 1920 80 3c 00
        E 0 80 40 00
        E 0 80 43 00
        E 0 90 3c 48
        E 0 90 40 48
        E 0 90 43 48
        E 260 80 3c 00
        E 0 80 40 00
        E 0 80 43 00
        E 440 90 3c 48
        E 0 90 40 48
        E 0 90 43 48
        E 260 80 3c 00
        E 0 80 40 00
        E 0 80 43 00
        e 514 90 3c 48
        e 0 90 40 48
        e 0 90 43 48
        e 260 80 3c 00
        e 0 80 40 00
        e 0 80 43 00
        E 186 90 43 48
        E 0 90 47 48
        E 20 90 40 48
        E 1900 80 43 00
        E 0 80 47 00
        E 0 80 40 00
        E 0 90 43 48
        E 0 90 47 48
        E 20 90 40 48
        E 240 80 43 00
        E 0 80 47 00
        E 0 80 40 00
        E 440 90 43 48
        E 0 90 47 48
        E 20 90 40 48
        E 240 80 43 00
        E 0 80 47 00
        E 0 80 40 00
        e 514 90 43 48
        e 0 90 47 48
        e 20 90 40 48
        e 240 80 43 00
        e 0 80 47 00
        e 0 80 40 00
        E 186 90 41 48
        E 0 90 45 48
        E 0 90 48 48
        E 1920 80 41 00
        E 0 80 45 00
        E 0 80 48 00
        E 0 90 41 48
        E 0 90 45 48
        E 0 90 48 48
        E 260 80 41 00
        E 0 80 45 00
        E 0 80 48 00
        E 440 90 41 48
        E 0 90 45 48
        E 0 90 48 48
        E 260 80 41 00
        E 0 80 45 00
        E 0 80 48 00
        e 514 90 41 48
        e 0 90 45 48
        e 0 90 48 48
        e 260 80 41 00
        e 0 80 45 00
        e 0 80 48 00
        E 162 90 3e 48
        E 24 90 41 48
        E 0 90 45 48
        E 1896 90 3e 48
        E 24 80 3e 00
        E 0 80 41 00
        E 0 80 45 00
        E 0 90 41 48
        E 0 90 45 48
        E 260 80 3e 00
        E 0 80 41 00
        E 0 80 45 00
        E 416 90 3e 48
        E 24 90 41 48
        E 0 90 45 48
        E 260 80 3e 00
        E 0 80 41 00
        E 0 80 45 00
        e 490 90 3e 48
        e 24 90 41 48
        e 0 90 45 48
        e 260 80 3e 00
        e 0 80 41 00
        e 0 80 45 00
        E 186 b0 7b 00
        CHASE_CC_TAKEOFFS 1
        GUID {7B9D708B-43E1-C8D4-C4B3-87E2A6C27801}
        IGNTEMPO 0 120 4 4
        SRCCOLOR 17
        VELLANE -1 100 0
        CFGEDITVIEW 0 0.045808 45 12 0 -1 0 0 0 0.5
        KEYSNAP 0
        TRACKSEL 0
        EVTFILTER 0 -1 -1 -1 -1 0 0 0 0 -1 -1 -1 -1 0 -1 0 -1 -1
        CFGEDIT 1 1 0 1 0 0 1 1 1 1 1 1 58 171 1253 866 0 0 0 0 0.25 0 0 0 0 0.5 0 0 1 64
      >
    >
    <ITEM
      POSITION 8
      SNAPOFFS 0
      LENGTH 8
      LOOP 1
      ALLTAKES 0
      FADEIN 1 0 0 1 0 0
      FADEOUT 1 0 0 1 0 0
      MUTE 0
      SEL 1
      IGUID {64AB6F79-5D8A-D4CF-6A87-42F0E0DAD91A}
      IID 11
      NAME "01-Recorded MIDI"
      VOLPAN 1 0 1 -1
      SOFFS 0 0
      PLAYRATE 1 1 0 -1 0 0.0021
      CHANMODE 0
      GUID {336AA6AB-F978-3362-F068-F9D80A315D7D}
      RECPASS 1
      <SOURCE MIDI
        HASDATA 1 960 QN
        CCINTERP 32
        POOLEDEVTS {76F3D072-CF66-5058-17F2-CFD86DFFB8C4}
        E 0 90 3c 48
        E 0 90 40 48
        E 0 90 43 48
        E 1920 80 3c 00
        E 0 80 40 00
        E 0 80 43 00
        E 0 90 3c 48
        E 0 90 40 48
        E 0 90 43 48
        E 260 80 3c 00
        E 0 80 40 00
        E 0 80 43 00
        E 440 90 3c 48
        E 0 90 40 48
        E 0 90 43 48
        E 260 80 3c 00
        E 0 80 40 00
        E 0 80 43 00
        e 514 90 3c 48
        e 0 90 40 48
        e 0 90 43 48
        e 260 80 3c 00
        e 0 80 40 00
        e 0 80 43 00
        E 186 90 43 48
        E 0 90 47 48
        E 20 90 40 48
        E 1900 80 43 00
        E 0 80 47 00
        E 0 80 40 00
        E 0 90 43 48
        E 0 90 47 48
        E 20 90 40 48
        E 240 80 43 00
        E 0 80 47 00
        E 0 80 40 00
        E 440 90 43 48
        E 0 90 47 48
        E 20 90 40 48
        E 240 80 43 00
        E 0 80 47 00
        E 0 80 40 00
        e 514 90 43 48
        e 0 90 47 48
        e 20 90 40 48
        e 240 80 43 00
        e 0 80 47 00
        e 0 80 40 00
        E 186 90 41 48
        E 0 90 45 48
        E 0 90 48 48
        E 1920 80 41 00
        E 0 80 45 00
        E 0 80 48 00
        E 0 90 41 48
        E 0 90 45 48
        E 0 90 48 48
        E 260 80 41 00
        E 0 80 45 00
        E 0 80 48 00
        E 440 90 41 48
        E 0 90 45 48
        E 0 90 48 48
        E 260 80 41 00
        E 0 80 45 00
        E 0 80 48 00
        e 514 90 41 48
        e 0 90 45 48
        e 0 90 48 48
        e 260 80 41 00
        e 0 80 45 00
        e 0 80 48 00
        E 162 90 3e 48
        E 24 90 41 48
        E 0 90 45 48
        E 1896 90 3e 48
        E 24 80 3e 00
        E 0 80 41 00
        E 0 80 45 00
        E 0 90 41 48
        E 0 90 45 48
        E 260 80 3e 00
        E 0 80 41 00
        E 0 80 45 00
        E 416 90 3e 48
        E 24 90 41 48
        E 0 90 45 48
        E 260 80 3e 00
        E 0 80 41 00
        E 0 80 45 00
        e 490 90 3e 48
        e 24 90 41 48
        e 0 90 45 48
        e 260 80 3e 00
        e 0 80 41 00
        e 0 80 45 00
        E 186 b0 7b 00
        CHASE_CC_TAKEOFFS 1
        GUID {3131B4E2-B370-E352-A9C5-C8CA31551A86}
        IGNTEMPO 0 120 4 4
        SRCCOLOR 18
        VELLANE -1 100 0
        CFGEDITVIEW 0 0.045808 45 12 0 -1 0 0 0 0.5
        KEYSNAP 0
        TRACKSEL 0
        EVTFILTER 0 -1 -1 -1 -1 0 0 0 0 -1 -1 -1 -1 0 -1 0 -1 -1
        CFGEDIT 1 1 0 1 0 0 1 1 1 1 1 1 58 171 1253 866 0 0 0 0 0.25 0 0 0 0 0.5 0 0 1 64
      >
    >
    <ITEM
      POSITION 16
      SNAPOFFS 0
      LENGTH 8
      LOOP 1
      ALLTAKES 0
      FADEIN 1 0 0 1 0 0
      FADEOUT 1 0 0 1 0 0
      MUTE 0
      SEL 1
      IGUID {68FF4D7D-ED32-0E1B-C2BA-CBFFA9A7B0B3}
      IID 12
      NAME "01-Recorded MIDI"
      VOLPAN 1 0 1 -1
      SOFFS 0 0
      PLAYRATE 1 1 0 -1 0 0.0021
      CHANMODE 0
      GUID {73765432-34E5-252E-F977-2FB1FC4BAE6E}
      RECPASS 1
      <SOURCE MIDI
        HASDATA 1 960 QN
        CCINTERP 32
        POOLEDEVTS {9976F2F6-D3D3-4D31-20E7-0395617001CE}
        E 0 90 3c 48
        E 0 90 40 48
        E 0 90 43 48
        E 1920 80 3c 00
        E 0 80 40 00
        E 0 80 43 00
        E 0 90 3c 48
        E 0 90 40 48
        E 0 90 43 48
        E 260 80 3c 00
        E 0 80 40 00
        E 0 80 43 00
        E 440 90 3c 48
        E 0 90 40 48
        E 0 90 43 48
        E 260 80 3c 00
        E 0 80 40 00
        E 0 80 43 00
        e 514 90 3c 48
        e 0 90 40 48
        e 0 90 43 48
        e 260 80 3c 00
        e 0 80 40 00
        e 0 80 43 00
        E 186 90 43 48
        E 0 90 47 48
        E 20 90 40 48
        E 1900 80 43 00
        E 0 80 47 00
        E 0 80 40 00
        E 0 90 43 48
        E 0 90 47 48
        E 20 90 40 48
        E 240 80 43 00
        E 0 80 47 00
        E 0 80 40 00
        E 440 90 43 48
        E 0 90 47 48
        E 20 90 40 48
        E 240 80 43 00
        E 0 80 47 00
        E 0 80 40 00
        e 514 90 43 48
        e 0 90 47 48
        e 20 90 40 48
        e 240 80 43 00
        e 0 80 47 00
        e 0 80 40 00
        E 186 90 41 48
        E 0 90 45 48
        E 0 90 48 48
        E 1920 80 41 00
        E 0 80 45 00
        E 0 80 48 00
        E 0 90 41 48
        E 0 90 45 48
        E 0 90 48 48
        E 260 80 41 00
        E 0 80 45 00
        E 0 80 48 00
        E 440 90 41 48
        E 0 90 45 48
        E 0 90 48 48
        E 260 80 41 00
        E 0 80 45 00
        E 0 80 48 00
        e 514 90 41 48
        e 0 90 45 48
        e 0 90 48 48
        e 260 80 41 00
        e 0 80 45 00
        e 0 80 48 00
        E 162 90 3e 48
        E 24 90 41 48
        E 0 90 45 48
        E 1896 90 3e 48
        E 24 80 3e 00
        E 0 80 41 00
        E 0 80 45 00
        E 0 90 41 48
        E 0 90 45 48
        E 260 80 3e 00
        E 0 80 41 00
        E 0 80 45 00
        E 416 90 3e 48
        E 24 90 41 48
        E 0 90 45 48
        E 260 80 3e 00
        E 0 80 41 00
        E 0 80 45 00
        e 490 90 3e 48
        e 24 90 41 48
        e 0 90 45 48
        e 260 80 3e 00
        e 0 80 41 00
        e 0 80 45 00
        E 186 b0 7b 00
        CHASE_CC_TAKEOFFS 1
        GUID {48C567A2-895C-FB9B-FDBA-0ADB7004ABF3}
        IGNTEMPO 0 120 4 4
        SRCCOLOR 19
        VELLANE -1 100 0
        CFGEDITVIEW 0 0.045808 45 12 0 -1 0 0 0 0.5
        KEYSNAP 0
        TRACKSEL 0
        EVTFILTER 0 -1 -1 -1 -1 0 0 0 0 -1 -1 -1 -1 0 -1 0 -1 -1
        CFGEDIT 1 1 0 1 0 0 1 1 1 1 1 1 58 171 1253 866 0 0 0 0 0.25 0 0 0 0 0.5 0 0 1 64
      >
    >
    <ITEM
      POSITION 24
      SNAPOFFS 0
      LENGTH 8
      LOOP 1
      ALLTAKES 0
      FADEIN 1 0 0 1 0 0
      FADEOUT 1 0 0 1 0 0
      MUTE 0
      SEL 1
      IGUID {0F64607A-2021-6645-A4F8-E69D0A19CF03}
      IID 13
      NAME "01-Recorded MIDI"
      VOLPAN 1 0 1 -1
      SOFFS 0 0
      PLAYRATE 1 1 0 -1 0 0.0021
      CHANMODE 0
      GUID {2DA399CF-845F-4EFF-5966-8F9055296769}
      RECPASS 1
      <SOURCE MIDI
        HASDATA 1 960 QN
        CCINTERP 32
        POOLEDEVTS {28500A61-44FC-35BD-1EF5-E4E2B4BBA3E8}
        E 0 90 3c 48
        E 0 90 40 48
        E 0 90 43 48
        E 1920 80 3c 00
        E 0 80 40 00
        E 0 80 43 00
        E 0 90 3c 48
        E 0 90 40 48
        E 0 90 43 48
        E 260 80 3c 00
        E 0 80 40 00
        E 0 80 43 00
        E 440 90 3c 48
        E 0 90 40 48
        E 0 90 43 48
        E 260 80 3c 00
        E 0 80 40 00
        E 0 80 43 00
        e 514 90 3c 48
        e 0 90 40 48
        e 0 90 43 48
        e 260 80 3c 00
        e 0 80 40 00
        e 0 80 43 00
        E 186 90 43 48
        E 0 90 47 48
        E 20 90 40 48
        E 1900 80 43 00
        E 0 80 47 00
        E 0 80 40 00
        E 0 90 43 48
        E 0 90 47 48
        E 20 90 40 48
        E 240 80 43 00
        E 0 80 47 00
        E 0 80 40 00
        E 440 90 43 48
        E 0 90 47 48
        E 20 90 40 48
        E 240 80 43 00
        E 0 80 47 00
        E 0 80 40 00
        e 514 90 43 48
        e 0 90 47 48
        e 20 90 40 48
        e 240 80 43 00
        e 0 80 47 00
        e 0 80 40 00
        E 186 90 41 48
        E 0 90 45 48
        E 0 90 48 48
        E 1920 80 41 00
        E 0 80 45 00
        E 0 80 48 00
        E 0 90 41 48
        E 0 90 45 48
        E 0 90 48 48
        E 260 80 41 00
        E 0 80 45 00
        E 0 80 48 00
        E 440 90 41 48
        E 0 90 45 48
        E 0 90 48 48
        E 260 80 41 00
        E 0 80 45 00
        E 0 80 48 00
        e 514 90 41 48
        e 0 90 45 48
        e 0 90 48 48
        e 260 80 41 00
        e 0 80 45 00
        e 0 80 48 00
        E 162 90 3e 48
        E 24 90 41 48
        E 0 90 45 48
        E 1896 90 3e 48
        E 24 80 3e 00
        E 0 80 41 00
        E 0 80 45 00
        E 0 90 41 48
        E 0 90 45 48
        E 260 80 3e 00
        E 0 80 41 00
        E 0 80 45 00
        E 416 90 3e 48
        E 24 90 41 48
        E 0 90 45 48
        E 260 80 3e 00
        E 0 80 41 00
        E 0 80 45 00
        e 490 90 3e 48
        e 24 90 41 48
        e 0 90 45 48
        e 260 80 3e 00
        e 0 80 41 00
        e 0 80 45 00
        E 186 b0 7b 00
        CHASE_CC_TAKEOFFS 1
        GUID {1DE38800-E2A1-41B5-9C8C-3291891093B1}
        IGNTEMPO 0 120 4 4
        SRCCOLOR 20
        VELLANE -1 100 0
        CFGEDITVIEW 0 0.045808 45 12 0 -1 0 0 0 0.5
        KEYSNAP 0
        TRACKSEL 0
        EVTFILTER 0 -1 -1 -1 -1 0 0 0 0 -1 -1 -1 -1 0 -1 0 -1 -1
        CFGEDIT 1 1 0 1 0 0 1 1 1 1 1 1 58 171 1253 866 0 0 0 0 0.25 0 0 0 0 0.5 0 0 1 64
      >
    >
    <ITEM
      POSITION 32
      SNAPOFFS 0
      LENGTH 8
      LOOP 1
      ALLTAKES 0
      FADEIN 1 0 0 1 0 0
      FADEOUT 1 0 0 1 0 0
      MUTE 0
      SEL 1
      IGUID {721D88B3-D661-C19B-AA67-8DF94B696BBA}
      IID 14
      NAME "01-Recorded MIDI"
      VOLPAN 1 0 1 -1
      SOFFS 0 0
      PLAYRATE 1 1 0 -1 0 0.0021
      CHANMODE 0
      GUID {0F7813D3-08F2-BB5E-D991-4FBFD43E17FD}
      RECPASS 1
      <SOURCE MIDI
        HASDATA 1 960 QN
        CCINTERP 32
        POOLEDEVTS {1D067D9B-A526-66B2-BD75-FFB42EBA61B3}
        E 0 90 3c 48
        E 0 90 40 48
        E 0 90 43 48
        E 1920 80 3c 00
        E 0 80 40 00
        E 0 80 43 00
        E 0 90 3c 48
        E 0 90 40 48
        E 0 90 43 48
        E 260 80 3c 00
        E 0 80 40 00
        E 0 80 43 00
        E 440 90 3c 48
        E 0 90 40 48
        E 0 90 43 48
        E 260 80 3c 00
        E 0 80 40 00
        E 0 80 43 00
        e 514 90 3c 48
        e 0 90 40 48
        e 0 90 43 48
        e 260 80 3c 00
        e 0 80 40 00
        e 0 80 43 00
        E 186 90 43 48
        E 0 90 47 48
        E 20 90 40 48
        E 1900 80 43 00
        E 0 80 47 00
        E 0 80 40 00
        E 0 90 43 48
        E 0 90 47 48
        E 20 90 40 48
        E 240 80 43 00
        E 0 80 47 00
        E 0 80 40 00
        E 440 90 43 48
        E 0 90 47 48
        E 20 90 40 48
        E 240 80 43 00
        E 0 80 47 00
        E 0 80 40 00
        e 514 90 43 48
        e 0 90 47 48
        e 20 90 40 48
        e 240 80 43 00
        e 0 80 47 00
        e 0 80 40 00
        E 186 90 41 48
        E 0 90 45 48
        E 0 90 48 48
        E 1920 80 41 00
        E 0 80 45 00
        E 0 80 48 00
        E 0 90 41 48
        E 0 90 45 48
        E 0 90 48 48
        E 260 80 41 00
        E 0 80 45 00
        E 0 80 48 00
        E 440 90 41 48
        E 0 90 45 48
        E 0 90 48 48
        E 260 80 41 00
        E 0 80 45 00
        E 0 80 48 00
        e 514 90 41 48
        e 0 90 45 48
        e 0 90 48 48
        e 260 80 41 00
        e 0 80 45 00
        e 0 80 48 00
        E 162 90 3e 48
        E 24 90 41 48
        E 0 90 45 48
        E 1896 90 3e 48
        E 24 80 3e 00
        E 0 80 41 00
        E 0 80 45 00
        E 0 90 41 48
        E 0 90 45 48
        E 260 80 3e 00
        E 0 80 41 00
        E 0 80 45 00
        E 416 90 3e 48
        E 24 90 41 48
        E 0 90 45 48
        E 260 80 3e 00
        E 0 80 41 00
        E 0 80 45 00
        e 490 90 3e 48
        e 24 90 41 48
        e 0 90 45 48
        e 260 80 3e 00
        e 0 80 41 00
        e 0 80 45 00
        E 186 b0 7b 00
        CHASE_CC_TAKEOFFS 1
        GUID {0C3271F4-E233-9088-9B25-A722FAE7C579}
        IGNTEMPO 0 120 4 4
        SRCCOLOR 21
        VELLANE -1 100 0
        CFGEDITVIEW 0 0.045808 45 12 0 -1 0 0 0 0.5
        KEYSNAP 0
        TRACKSEL 0
        EVTFILTER 0 -1 -1 -1 -1 0 0 0 0 -1 -1 -1 -1 0 -1 0 -1 -1
        CFGEDIT 1 1 0 1 0 0 1 1 1 1 1 1 58 171 1253 866 0 0 0 0 0.25 0 0 0 0 0.5 0 0 1 64
      >
    >
    <ITEM
      POSITION 40
      SNAPOFFS 0
      LENGTH 8
      LOOP 1
      ALLTAKES 0
      FADEIN 1 0 0 1 0 0
      FADEOUT 1 0 0 1 0 0
      MUTE 0
      SEL 1
      IGUID {FD6DF4AE-6697-9703-04E9-20A4BE36570D}
      IID 15
      NAME "01-Recorded MIDI"
      VOLPAN 1 0 1 -1
      SOFFS 0 0
      PLAYRATE 1 1 0 -1 0 0.0021
      CHANMODE 0
      GUID {3F31D7CB-6DE0-C793-1546-DE637EC18A98}
      RECPASS 1
      <SOURCE MIDI
        HASDATA 1 960 QN
        CCINTERP 32
        POOLEDEVTS {3E406774-F92C-DAC2-6FD4-11005512D968}
        E 0 90 3c 48
        E 0 90 40 48
        E 0 90 43 48
        E 1920 80 3c 00
        E 0 80 40 00
        E 0 80 43 00
        E 0 90 3c 48
        E 0 90 40 48
        E 0 90 43 48
        E 260 80 3c 00
        E 0 80 40 00
        E 0 80 43 00
        E 440 90 3c 48
        E 0 90 40 48
        E 0 90 43 48
        E 260 80 3c 00
        E 0 80 40 00
        E 0 80 43 00
        e 514 90 3c 48
        e 0 90 40 48
        e 0 90 43 48
        e 260 80 3c 00
        e 0 80 40 00
        e 0 80 43 00
        E 186 90 43 48
        E 0 90 47 48
        E 20 90 40 48
        E 1900 80 43 00
        E 0 80 47 00
        E 0 80 40 00
        E 0 90 43 48
        E 0 90 47 48
        E 20 90 40 48
        E 240 80 43 00
        E 0 80 47 00
        E 0 80 40 00
        E 440 90 43 48
        E 0 90 47 48
        E 20 90 40 48
        E 240 80 43 00
        E 0 80 47 00
        E 0 80 40 00
        e 514 90 43 48
        e 0 90 47 48
        e 20 90 40 48
        e 240 80 43 00
        e 0 80 47 00
        e 0 80 40 00
        E 186 90 41 48
        E 0 90 45 48
        E 0 90 48 48
        E 1920 80 41 00
        E 0 80 45 00
        E 0 80 48 00
        E 0 90 41 48
        E 0 90 45 48
        E 0 90 48 48
        E 260 80 41 00
        E 0 80 45 00
        E 0 80 48 00
        E 440 90 41 48
        E 0 90 45 48
        E 0 90 48 48
        E 260 80 41 00
        E 0 80 45 00
        E 0 80 48 00
        e 514 90 41 48
        e 0 90 45 48
        e 0 90 48 48
        e 260 80 41 00
        e 0 80 45 00
        e 0 80 48 00
        E 162 90 3e 48
        E 24 90 41 48
        E 0 90 45 48
        E 1896 90 3e 48
        E 24 80 3e 00
        E 0 80 41 00
        E 0 80 45 00
        E 0 90 41 48
        E 0 90 45 48
        E 260 80 3e 00
        E 0 80 41 00
        E 0 80 45 00
        E 416 90 3e 48
        E 24 90 41 48
        E 0 90 45 48
        E 260 80 3e 00
        E 0 80 41 00
        E 0 80 45 00
        e 490 90 3e 48
        e 24 90 41 48
        e 0 90 45 48
        e 260 80 3e 00
        e 0 80 41 00
        e 0 80 45 00
        E 186 b0 7b 00
        CHASE_CC_TAKEOFFS 1
        GUID {040E7AF8-3572-5D91-3C86-797AEE7444D4}
        IGNTEMPO 0 120 4 4
        SRCCOLOR 22
        VELLANE -1 100 0
        CFGEDITVIEW 0 0.045808 45 12 0 -1 0 0 0 0.5
        KEYSNAP 0
        TRACKSEL 0
        EVTFILTER 0 -1 -1 -1 -1 0 0 0 0 -1 -1 -1 -1 0 -1 0 -1 -1
        CFGEDIT 1 1 0 1 0 0 1 1 1 1 1 1 58 171 1253 866 0 0 0 0 0.25 0 0 0 0 0.5 0 0 1 64
      >
    >
    <ITEM
      POSITION 48
      SNAPOFFS 0
      LENGTH 8
      LOOP 1
      ALLTAKES 0
      FADEIN 1 0 0 1 0 0
      FADEOUT 1 0 0 1 0 0
      MUTE 0
      SEL 1
      IGUID {706579E5-22DF-0EA2-711C-1B840EF24F81}
      IID 16
      NAME "01-Recorded MIDI"
      VOLPAN 1 0 1 -1
      SOFFS 0 0
      PLAYRATE 1 1 0 -1 0 0.0021
      CHANMODE 0
      GUID {29E84768-5DF9-8FEE-EC65-3B908A1DB284}
      RECPASS 1
      <SOURCE MIDI
        HASDATA 1 960 QN
        CCINTERP 32
        POOLEDEVTS {4C0D3388-E593-7C40-2717-57E9F42ED9D6}
        E 0 90 3c 48
        E 0 90 40 48
        E 0 90 43 48
        E 1920 80 3c 00
        E 0 80 40 00
        E 0 80 43 00
        E 0 90 3c 48
        E 0 90 40 48
        E 0 90 43 48
        E 260 80 3c 00
        E 0 80 40 00
        E 0 80 43 00
        E 440 90 3c 48
        E 0 90 40 48
        E 0 90 43 48
        E 260 80 3c 00
        E 0 80 40 00
        E 0 80 43 00
        e 514 90 3c 48
        e 0 90 40 48
        e 0 90 43 48
        e 260 80 3c 00
        e 0 80 40 00
        e 0 80 43 00
        E 186 90 43 48
        E 0 90 47 48
        E 20 90 40 48
        E 1900 80 43 00
        E 0 80 47 00
        E 0 80 40 00
        E 0 90 43 48
        E 0 90 47 48
        E 20 90 40 48
        E 240 80 43 00
        E 0 80 47 00
        E 0 80 40 00
        E 440 90 43 48
        E 0 90 47 48
        E 20 90 40 48
        E 240 80 43 00
        E 0 80 47 00
        E 0 80 40 00
        e 514 90 43 48
        e 0 90 47 48
        e 20 90 40 48
        e 240 80 43 00
        e 0 80 47 00
        e 0 80 40 00
        E 186 90 41 48
        E 0 90 45 48
        E 0 90 48 48
        E 1920 80 41 00
        E 0 80 45 00
        E 0 80 48 00
        E 0 90 41 48
        E 0 90 45 48
        E 0 90 48 48
        E 260 80 41 00
        E 0 80 45 00
        E 0 80 48 00
        E 440 90 41 48
        E 0 90 45 48
        E 0 90 48 48
        E 260 80 41 00
        E 0 80 45 00
        E 0 80 48 00
        e 514 90 41 48
        e 0 90 45 48
        e 0 90 48 48
        e 260 80 41 00
        e 0 80 45 00
        e 0 80 48 00
        E 162 90 3e 48
        E 24 90 41 48
        E 0 90 45 48
        E 1896 90 3e 48
        E 24 80 3e 00
        E 0 80 41 00
        E 0 80 45 00
        E 0 90 41 48
        E 0 90 45 48
        E 260 80 3e 00
        E 0 80 41 00
        E 0 80 45 00
        E 416 90 3e 48
        E 24 90 41 48
        E 0 90 45 48
        E 260 80 3e 00
        E 0 80 41 00
        E 0 80 45 00
        e 490 90 3e 48
        e 24 90 41 48
        e 0 90 45 48
        e 260 80 3e 00
        e 0 80 41 00
        e 0 80 45 00
        E 186 b0 7b 00
        CHASE_CC_TAKEOFFS 1
        GUID {2338968B-6CF9-9F40-300F-DEB89D3392EA}
        IGNTEMPO 0 120 4 4
        SRCCOLOR 23
        VELLANE -1 100 0
        CFGEDITVIEW 0 0.045808 45 12 0 -1 0 0 0 0.5
        KEYSNAP 0
        TRACKSEL 0
        EVTFILTER 0 -1 -1 -1 -1 0 0 0 0 -1 -1 -1 -1 0 -1 0 -1 -1
        CFGEDIT 1 1 0 1 0 0 1 1 1 1 1 1 58 171 1253 866 0 0 0 0 0.25 0 0 0 0 0.5 0 0 1 64
      >
    >
    <ITEM
      POSITION 56
      SNAPOFFS 0
      LENGTH 8
      LOOP 1
      ALLTAKES 0
      FADEIN 1 0 0 1 0 0
      FADEOUT 1 0 0 1 0 0
      MUTE 0
      SEL 1
      IGUID {E47158C4-26E5-48BE-A98C-E28F55A1A636}
      IID 17
      NAME "01-Recorded MIDI"
      VOLPAN 1 0 1 -1
      SOFFS 0 0
      PLAYRATE 1 1 0 -1 0 0.0021
      CHANMODE 0
      GUID {C2967E60-AFD3-CC54-6DFA-90F70CF924F8}
      RECPASS 1
      <SOURCE MIDI
        HASDATA 1 960 QN
        CCINTERP 32
        POOLEDEVTS {D002D87B-42F3-C3AA-EDFE-2B22576E2B8D}
        E 0 90 3c 48
        E 0 90 40 48
        E 0 90 43 48
        E 1920 80 3c 00
        E 0 80 40 00
        E 0 80 43 00
        E 0 90 3c 48
        E 0 90 40 48
        E 0 90 43 48
        E 260 80 3c 00
        E 0 80 40 00
        E 0 80 43 00
        E 440 90 3c 48
        E 0 90 40 48
        E 0 90 43 48
        E 260 80 3c 00
        E 0 80 40 00
        E 0 80 43 00
        e 514 90 3c 48
        e 0 90 40 48
        e 0 90 43 48
        e 260 80 3c 00
        e 0 80 40 00
        e 0 80 43 00
        E 186 90 43 48
        E 0 90 47 48
        E 20 90 40 48
        E 1900 80 43 00
        E 0 80 47 00
        E 0 80 40 00
        E 0 90 43 48
        E 0 90 47 48
        E 20 90 40 48
        E 240 80 43 00
        E 0 80 47 00
        E 0 80 40 00
        E 440 90 43 48
        E 0 90 47 48
        E 20 90 40 48
        E 240 80 43 00
        E 0 80 47 00
        E 0 80 40 00
        e 514 90 43 48
        e 0 90 47 48
        e 20 90 40 48
        e 240 80 43 00
        e 0 80 47 00
        e 0 80 40 00
        E 186 90 41 48
        E 0 90 45 48
        E 0 90 48 48
        E 1920 80 41 00
        E 0 80 45 00
        E 0 80 48 00
        E 0 90 41 48
        E 0 90 45 48
        E 0 90 48 48
        E 260 80 41 00
        E 0 80 45 00
        E 0 80 48 00
        E 440 90 41 48
        E 0 90 45 48
        E 0 90 48 48
        E 260 80 41 00
        E 0 80 45 00
        E 0 80 48 00
        e 514 90 41 48
        e 0 90 45 48
        e 0 90 48 48
        e 260 80 41 00
        e 0 80 45 00
        e 0 80 48 00
        E 162 90 3e 48
        E 24 90 41 48
        E 0 90 45 48
        E 1896 90 3e 48
        E 24 80 3e 00
        E 0 80 41 00
        E 0 80 45 00
        E 0 90 41 48
        E 0 90 45 48
        E 260 80 3e 00
        E 0 80 41 00
        E 0 80 45 00
        E 416 90 3e 48
        E 24 90 41 48
        E 0 90 45 48
        E 260 80 3e 00
        E 0 80 41 00
        E 0 80 45 00
        e 490 90 3e 48
        e 24 90 41 48
        e 0 90 45 48
        e 260 80 3e 00
        e 0 80 41 00
        e 0 80 45 00
        E 186 b0 7b 00
        CHASE_CC_TAKEOFFS 1
        GUID {A64857E2-94F8-0990-20DF-4C1E9B5E6251}
        IGNTEMPO 0 120 4 4
        SRCCOLOR 24
        VELLANE -1 100 0
        CFGEDITVIEW 0 0.045808 45 12 0 -1 0 0 0 0.5
        KEYSNAP 0
        TRACKSEL 0
        EVTFILTER 0 -1 -1 -1 -1 0 0 0 0 -1 -1 -1 -1 0 -1 0 -1 -1
        CFGEDIT 1 1 0 1 0 0 1 1 1 1 1 1 58 171 1253 866 0 0 0 0 0.25 0 0 0 0 0.5 0 0 1 64
      >
    >
    <ITEM
      POSITION 64
      SNAPOFFS 0
      LENGTH 8
      LOOP 1
      ALLTAKES 0
      FADEIN 1 0 0 1 0 0
      FADEOUT 1 0 0 1 0 0
      MUTE 0
      SEL 1
      IGUID {DFE0D354-C950-D47B-BB5C-0035D4074451}
      IID 18
      NAME "01-Recorded MIDI"
      VOLPAN 1 0 1 -1
      SOFFS 0 0
      PLAYRATE 1 1 0 -1 0 0.0021
      CHANMODE 0
      GUID {B39E0325-AF50-2668-D014-8D60D9FEDD43}
      RECPASS 1
      <SOURCE MIDI
        HASDATA 1 960 QN
        CCINTERP 32
        POOLEDEVTS {B0B52E40-C87E-12D9-FF04-16E218C69A5F}
        E 0 90 3c 48
        E 0 90 40 48
        E 0 90 43 48
        E 1920 80 3c 00
        E 0 80 40 00
        E 0 80 43 00
        E 0 90 3c 48
        E 0 90 40 48
        E 0 90 43 48
        E 260 80 3c 00
        E 0 80 40 00
        E 0 80 43 00
        E 440 90 3c 48
        E 0 90 40 48
        E 0 90 43 48
        E 260 80 3c 00
        E 0 80 40 00
        E 0 80 43 00
        e 514 90 3c 48
        e 0 90 40 48
        e 0 90 43 48
        e 260 80 3c 00
        e 0 80 40 00
        e 0 80 43 00
        E 186 90 43 48
        E 0 90 47 48
        E 20 90 40 48
        E 1900 80 43 00
        E 0 80 47 00
        E 0 80 40 00
        E 0 90 43 48
        E 0 90 47 48
        E 20 90 40 48
        E 240 80 43 00
        E 0 80 47 00
        E 0 80 40 00
        E 440 90 43 48
        E 0 90 47 48
        E 20 90 40 48
        E 240 80 43 00
        E 0 80 47 00
        E 0 80 40 00
        e 514 90 43 48
        e 0 90 47 48
        e 20 90 40 48
        e 240 80 43 00
        e 0 80 47 00
        e 0 80 40 00
        E 186 90 41 48
        E 0 90 45 48
        E 0 90 48 48
        E 1920 80 41 00
        E 0 80 45 00
        E 0 80 48 00
        E 0 90 41 48
        E 0 90 45 48
        E 0 90 48 48
        E 260 80 41 00
        E 0 80 45 00
        E 0 80 48 00
        E 440 90 41 48
        E 0 90 45 48
        E 0 90 48 48
        E 260 80 41 00
        E 0 80 45 00
        E 0 80 48 00
        e 514 90 41 48
        e 0 90 45 48
        e 0 90 48 48
        e 260 80 41 00
        e 0 80 45 00
        e 0 80 48 00
        E 162 90 3e 48
        E 24 90 41 48
        E 0 90 45 48
        E 1896 90 3e 48
        E 24 80 3e 00
        E 0 80 41 00
        E 0 80 45 00
        E 0 90 41 48
        E 0 90 45 48
        E 260 80 3e 00
        E 0 80 41 00
        E 0 80 45 00
        E 416 90 3e 48
        E 24 90 41 48
        E 0 90 45 48
        E 260 80 3e 00
        E 0 80 41 00
        E 0 80 45 00
        e 490 90 3e 48
        e 24 90 41 48
        e 0 90 45 48
        e 260 80 3e 00
        e 0 80 41 00
        e 0 80 45 00
        E 186 b0 7b 00
        CHASE_CC_TAKEOFFS 1
        GUID {19362806-85F2-5D9E-E1F9-07BE0CF3D16E}
        IGNTEMPO 0 120 4 4
        SRCCOLOR 25
        VELLANE -1 100 0
        CFGEDITVIEW 0 0.045808 45 12 0 -1 0 0 0 0.5
        KEYSNAP 0
        TRACKSEL 0
        EVTFILTER 0 -1 -1 -1 -1 0 0 0 0 -1 -1 -1 -1 0 -1 0 -1 -1
        CFGEDIT 1 1 0 1 0 0 1 1 1 1 1 1 58 171 1253 866 0 0 0 0 0.25 0 0 0 0 0.5 0 0 1 64
      >
    >
    <ITEM
      POSITION 72
      SNAPOFFS 0
      LENGTH 8
      LOOP 1
      ALLTAKES 0
      FADEIN 1 0 0 1 0 0
      FADEOUT 1 0 0 1 0 0
      MUTE 0
      SEL 1
      IGUID {326EA0F2-907B-1854-45A6-D573EE5F0B12}
      IID 19
      NAME "01-Recorded MIDI"
      VOLPAN 1 0 1 -1
      SOFFS 0 0
      PLAYRATE 1 1 0 -1 0 0.0021
      CHANMODE 0
      GUID {E75A57DB-87C3-B97D-83FE-7EB280EAB1B0}
      RECPASS 1
      <SOURCE MIDI
        HASDATA 1 960 QN
        CCINTERP 32
        POOLEDEVTS {869515F5-D07A-8639-532C-01506584CAE3}
        E 0 90 3c 48
        E 0 90 40 48
        E 0 90 43 48
        E 1920 80 3c 00
        E 0 80 40 00
        E 0 80 43 00
        E 0 90 3c 48
        E 0 90 40 48
        E 0 90 43 48
        E 260 80 3c 00
        E 0 80 40 00
        E 0 80 43 00
        E 440 90 3c 48
        E 0 90 40 48
        E 0 90 43 48
        E 260 80 3c 00
        E 0 80 40 00
        E 0 80 43 00
        e 514 90 3c 48
        e 0 90 40 48
        e 0 90 43 48
        e 260 80 3c 00
        e 0 80 40 00
        e 0 80 43 00
        E 186 90 43 48
        E 0 90 47 48
        E 20 90 40 48
        E 1900 80 43 00
        E 0 80 47 00
        E 0 80 40 00
        E 0 90 43 48
        E 0 90 47 48
        E 20 90 40 48
        E 240 80 43 00
        E 0 80 47 00
        E 0 80 40 00
        E 440 90 43 48
        E 0 90 47 48
        E 20 90 40 48
        E 240 80 43 00
        E 0 80 47 00
        E 0 80 40 00
        e 514 90 43 48
        e 0 90 47 48
        e 20 90 40 48
        e 240 80 43 00
        e 0 80 47 00
        e 0 80 40 00
        E 186 90 41 48
        E 0 90 45 48
        E 0 90 48 48
        E 1920 80 41 00
        E 0 80 45 00
        E 0 80 48 00
        E 0 90 41 48
        E 0 90 45 48
        E 0 90 48 48
        E 260 80 41 00
        E 0 80 45 00
        E 0 80 48 00
        E 440 90 41 48
        E 0 90 45 48
        E 0 90 48 48
        E 260 80 41 00
        E 0 80 45 00
        E 0 80 48 00
        e 514 90 41 48
        e 0 90 45 48
        e 0 90 48 48
        e 260 80 41 00
        e 0 80 45 00
        e 0 80 48 00
        E 162 90 3e 48
        E 24 90 41 48
        E 0 90 45 48
        E 1896 90 3e 48
        E 24 80 3e 00
        E 0 80 41 00
        E 0 80 45 00
        E 0 90 41 48
        E 0 90 45 48
        E 260 80 3e 00
        E 0 80 41 00
        E 0 80 45 00
        E 416 90 3e 48
        E 24 90 41 48
        E 0 90 45 48
        E 260 80 3e 00
        E 0 80 41 00
        E 0 80 45 00
        e 490 90 3e 48
        e 24 90 41 48
        e 0 90 45 48
        e 260 80 3e 00
        e 0 80 41 00
        e 0 80 45 00
        E 186 b0 7b 00
        CHASE_CC_TAKEOFFS 1
        GUID {6844F8A9-6BE9-023C-4A46-0A676470C99B}
        IGNTEMPO 0 120 4 4
        SRCCOLOR 26
        VELLANE -1 100 0
        CFGEDITVIEW 0 0.045808 45 12 0 -1 0 0 0 0.5
        KEYSNAP 0
        TRACKSEL 0
        EVTFILTER 0 -1 -1 -1 -1 0 0 0 0 -1 -1 -1 -1 0 -1 0 -1 -1
        CFGEDIT 1 1 0 1 0 0 1 1 1 1 1 1 58 171 1253 866 0 0 0 0 0.25 0 0 0 0 0.5 0 0 1 64
      >
    >
    <ITEM
      POSITION 80
      SNAPOFFS 0
      LENGTH 8
      LOOP 1
      ALLTAKES 0
      FADEIN 1 0 0 1 0 0
      FADEOUT 1 0 0 1 0 0
      MUTE 0
      SEL 1
      IGUID {BABB7D0A-4620-84FA-9543-E92BE28C840D}
      IID 20
      NAME "01-Recorded MIDI"
      VOLPAN 1 0 1 -1
      SOFFS 0 0
      PLAYRATE 1 1 0 -1 0 0.0021
      CHANMODE 0
      GUID {2D29077A-62B7-AC45-A539-0260C41CC06E}
      RECPASS 1
      <SOURCE MIDI
        HASDATA 1 960 QN
        CCINTERP 32
        POOLEDEVTS {A7D9FE76-5141-8F6C-9E2D-BC5EFA058D64}
        E 0 90 3c 48
        E 0 90 40 48
        E 0 90 43 48
        E 1920 80 3c 00
        E 0 80 40 00
        E 0 80 43 00
        E 0 90 3c 48
        E 0 90 40 48
        E 0 90 43 48
        E 260 80 3c 00
        E 0 80 40 00
        E 0 80 43 00
        E 440 90 3c 48
        E 0 90 40 48
        E 0 90 43 48
        E 260 80 3c 00
        E 0 80 40 00
        E 0 80 43 00
        e 514 90 3c 48
        e 0 90 40 48
        e 0 90 43 48
        e 260 80 3c 00
        e 0 80 40 00
        e 0 80 43 00
        E 186 90 43 48
        E 0 90 47 48
        E 20 90 40 48
        E 1900 80 43 00
        E 0 80 47 00
        E 0 80 40 00
        E 0 90 43 48
        E 0 90 47 48
        E 20 90 40 48
        E 240 80 43 00
        E 0 80 47 00
        E 0 80 40 00
        E 440 90 43 48
        E 0 90 47 48
        E 20 90 40 48
        E 240 80 43 00
        E 0 80 47 00
        E 0 80 40 00
        e 514 90 43 48
        e 0 90 47 48
        e 20 90 40 48
        e 240 80 43 00
        e 0 80 47 00
        e 0 80 40 00
        E 186 90 41 48
        E 0 90 45 48
        E 0 90 48 48
        E 1920 80 41 00
        E 0 80 45 00
        E 0 80 48 00
        E 0 90 41 48
        E 0 90 45 48
        E 0 90 48 48
        E 260 80 41 00
        E 0 80 45 00
        E 0 80 48 00
        E 440 90 41 48
        E 0 90 45 48
        E 0 90 48 48
        E 260 80 41 00
        E 0 80 45 00
        E 0 80 48 00
        e 514 90 41 48
        e 0 90 45 48
        e 0 90 48 48
        e 260 80 41 00
        e 0 80 45 00
        e 0 80 48 00
        E 162 90 3e 48
        E 24 90 41 48
        E 0 90 45 48
        E 1896 90 3e 48
        E 24 80 3e 00
        E 0 80 41 00
        E 0 80 45 00
        E 0 90 41 48
        E 0 90 45 48
        E 260 80 3e 00
        E 0 80 41 00
        E 0 80 45 00
        E 416 90 3e 48
        E 24 90 41 48
        E 0 90 45 48
        E 260 80 3e 00
        E 0 80 41 00
        E 0 80 45 00
        e 490 90 3e 48
        e 24 90 41 48
        e 0 90 45 48
        e 260 80 3e 00
        e 0 80 41 00
        e 0 80 45 00
        E 186 b0 7b 00
        CHASE_CC_TAKEOFFS 1
        GUID {E611ADB6-4869-6CCA-8E83-3954D5E743B1}
        IGNTEMPO 0 120 4 4
        SRCCOLOR 27
        VELLANE -1 100 0
        CFGEDITVIEW 0 0.045808 45 12 0 -1 0 0 0 0.5
        KEYSNAP 0
        TRACKSEL 0
        EVTFILTER 0 -1 -1 -1 -1 0 0 0 0 -1 -1 -1 -1 0 -1 0 -1 -1
        CFGEDIT 1 1 0 1 0 0 1 1 1 1 1 1 58 171 1253 866 0 0 0 0 0.25 0 0 0 0 0.5 0 0 1 64
      >
    >
    <ITEM
      POSITION 88
      SNAPOFFS 0
      LENGTH 8
      LOOP 1
      ALLTAKES 0
      FADEIN 1 0 0 1 0 0
      FADEOUT 1 0 0 1 0 0
      MUTE 0
      SEL 1
      IGUID {220DCC00-F59E-6B8D-F2E1-83A3B20318D3}
      IID 21
      NAME "01-Recorded MIDI"
      VOLPAN 1 0 1 -1
      SOFFS 0 0
      PLAYRATE 1 1 0 -1 0 0.0021
      CHANMODE 0
      GUID {15B7BB1F-9C27-0D06-4686-5F943087C09C}
      RECPASS 1
      <SOURCE MIDI
        HASDATA 1 960 QN
        CCINTERP 32
        POOLEDEVTS {2682519A-718F-7F37-27A6-033FED1AF6C7}
        E 0 90 3c 48
        E 0 90 40 48
        E 0 90 43 48
        E 1920 80 3c 00
        E 0 80 40 00
        E 0 80 43 00
        E 0 90 3c 48
        E 0 90 40 48
        E 0 90 43 48
        E 260 80 3c 00
        E 0 80 40 00
        E 0 80 43 00
        E 440 90 3c 48
        E 0 90 40 48
        E 0 90 43 48
        E 260 80 3c 00
        E 0 80 40 00
        E 0 80 43 00
        e 514 90 3c 48
        e 0 90 40 48
        e 0 90 43 48
        e 260 80 3c 00
        e 0 80 40 00
        e 0 80 43 00
        E 186 90 43 48
        E 0 90 47 48
        E 20 90 40 48
        E 1900 80 43 00
        E 0 80 47 00
        E 0 80 40 00
        E 0 90 43 48
        E 0 90 47 48
        E 20 90 40 48
        E 240 80 43 00
        E 0 80 47 00
        E 0 80 40 00
        E 440 90 43 48
        E 0 90 47 48
        E 20 90 40 48
        E 240 80 43 00
        E 0 80 47 00
        E 0 80 40 00
        e 514 90 43 48
        e 0 90 47 48
        e 20 90 40 48
        e 240 80 43 00
        e 0 80 47 00
        e 0 80 40 00
        E 186 90 41 48
        E 0 90 45 48
        E 0 90 48 48
        E 1920 80 41 00
        E 0 80 45 00
        E 0 80 48 00
        E 0 90 41 48
        E 0 90 45 48
        E 0 90 48 48
        E 260 80 41 00
        E 0 80 45 00
        E 0 80 48 00
        E 440 90 41 48
        E 0 90 45 48
        E 0 90 48 48
        E 260 80 41 00
        E 0 80 45 00
        E 0 80 48 00
        e 514 90 41 48
        e 0 90 45 48
        e 0 90 48 48
        e 260 80 41 00
        e 0 80 45 00
        e 0 80 48 00
        E 162 90 3e 48
        E 24 90 41 48
        E 0 90 45 48
        E 1896 90 3e 48
        E 24 80 3e 00
        E 0 80 41 00
        E 0 80 45 00
        E 0 90 41 48
        E 0 90 45 48
        E 260 80 3e 00
        E 0 80 41 00
        E 0 80 45 00
        E 416 90 3e 48
        E 24 90 41 48
        E 0 90 45 48
        E 260 80 3e 00
        E 0 80 41 00
        E 0 80 45 00
        e 490 90 3e 48
        e 24 90 41 48
        e 0 90 45 48
        e 260 80 3e 00
        e 0 80 41 00
        e 0 80 45 00
        E 186 b0 7b 00
        CHASE_CC_TAKEOFFS 1
        GUID {C762B555-17FC-D765-5340-11D3487D2955}
        IGNTEMPO 0 120 4 4
        SRCCOLOR 28
        VELLANE -1 100 0
        CFGEDITVIEW 0 0.045808 45 12 0 -1 0 0 0 0.5
        KEYSNAP 0
        TRACKSEL 0
        EVTFILTER 0 -1 -1 -1 -1 0 0 0 0 -1 -1 -1 -1 0 -1 0 -1 -1
        CFGEDIT 1 1 0 1 0 0 1 1 1 1 1 1 58 171 1253 866 0 0 0 0 0.25 0 0 0 0 0.5 0 0 1 64
      >
    >
  >
  <TRACK {45D4E195-DE77-4079-29B3-04ECA6952CD5}
    NAME ""
    PEAKCOL 16576
    BEAT -1
    AUTOMODE 0
    VOLPAN 0.00052194381917 0 -1 -1 1
    MUTESOLO 0 0 0
    IPHASE 0
    PLAYOFFS 0 1
    ISBUS 0 0
    BUSCOMP 0 0 0 0 0
    SHOWINMIX 1 0.6667 0.5 1 0.5 0 0 0
    FREEMODE 0
    SEL 0
    REC 0 5056 1 0 0 0 0
    VU 2
    TRACKHEIGHT 21 0 0
    INQ 0 0 0 0.5 100 0 0 100
    NCHAN 2
    FX 0
    TRACKID {45D4E195-DE77-4079-29B3-04ECA6952CD5}
    PERF 0
    MIDIOUT -1
    MAINSEND 1 0
    <FXCHAIN
      WNDRECT 346 266 902 608
      SHOW 0
      LASTSEL 5
      DOCKED 0
      BYPASS 0 0 0
      <VST "VST: ReaEQ (Cockos)" reaeq.vst.so 0 "" 1919247729<56535472656571726561657100000000> ""
        cWVlcu5e7f4CAAAAAQAAAAAAAAACAAAAAAAAAAIAAAABAAAAAAAAAAIAAAAAAAAAqAAAAAEAAAAAABAA
        IQAAAAQAAAAEAAAAAQAAAEC4Xhmm+DRAAAAAAAAA8D8AAAAAAAAAQAEIAAAAAQAAAAAAAAAAwHJAAAAAAAAA8D8AAAAAAAAAQAEIAAAAAQAAAAAAAAAAQI9AAAAAAAAA
        8D8AAAAAAAAAQAEDAAAAAQAAAAABaCorbdRAAAAAAAAA8D8AAAAAAAAAQAEBAAAAAQAAAAAAAAAAAPA/AAAAAJoCAACcAQAA
        AEhpZ2ggbG93IHBhc3MAEAAAAA==
      >
      PRESETNAME "High low pass"
      FLOATPOS 0 0 0 0
      FXID {80AA261B-B81A-AD78-2C28-D84D68004CCD}
      WAK 0 0
      BYPASS 0 0 0
      <VST "VSTi: ReaSynth (Cockos)" reasynth.vst.so 0 "" 1919251321<5653547265737972656173796E746800> ""
        eXNlcu9e7f4AAAAAAgAAAAEAAAAAAAAAAgAAAAAAAAA8AAAAAAAAAAAAEAA=
        776t3g3wrd6lm8Q7F7fROgAAAAAAAAAAAAAAAJCNuT3oZ4g9AACAPwAAAD8AAIA/AAAAAAAAAD8AAAAA
        AAAQAAAA
      >
      FLOATPOS 0 0 0 0
      FXID {820D575A-0E26-FDF4-9A71-F66A784A8FF1}
      WAK 0 0
      BYPASS 0 0 0
      <JS guitar/amp-model ""
        "Dumble Overdrive Special - Tweed Deluxe.wav" -21.000000 1.000000 0.000000 0.000000 -1.000000 - - - - - - - - - - - - - - - - - - - - - - - - - - - - - - - - - - - - - - - - - - - - - - - - - - - - - - - - - - 
      >
      FLOATPOS 0 0 0 0
      FXID {225544E0-BD43-30D8-0512-46927BCFE51F}
      WAK 0 0
      BYPASS 0 0 0
      <VST "VST: ReaComp (Cockos)" reacomp.vst.so 0 "" 1919247213<5653547265636D726561636F6D700000> ""
        bWNlcu9e7f4EAAAAAQAAAAAAAAACAAAAAAAAAAQAAAAAAAAACAAAAAAAAAACAAAAAQAAAAAAAAACAAAAAAAAAFQAAAAAAAAAAAAQAA==
        776t3g3wrd5FoYg9/AWpPKWbxDsK16M8AAAAAAAAAAAAAIA/AAAAAAAAAAAAAAAAnNEHMwAAgD8AAAAAzMxMPQAAAAAAAAAAAAAAAAAAgD7YiZ09
        AAAQAAAA
      >
      FLOATPOS 0 0 0 0
      FXID {1604F553-A231-2804-9D6E-993363735FBA}
      WAK 0 0
      BYPASS 0 0 0
      <VST "VST: ReaDelay (Cockos)" readelay.vst.so 0 "" 1919247468<5653547265646C72656164656C617900> ""
        bGRlcu5e7f4CAAAAAQAAAAAAAAACAAAAAAAAAAIAAAABAAAAAAAAAAIAAAAAAAAA/AAAAAEAAAAAAAAA
        AAAAAAAAAAAFAAAALAAAAAIAAAAEAAAAAACAPwAAgD8AAAAAAACAPwAAAAAAAIA7vTeGNQAAgD8AAAAAAACAPwAAgD8AAIA/AAAAAAAAAAAAAIA/AAAAAAAAADwAAAAA
        AACAPwAAAAAAAIA/AACAP+87NT8AAIA/AAAAAAAAgD8AAAAAAABAPL03hjUAAIA/AAAAAAAAgD8AAIA/zk0AP6abhD4AAAAAAACAPwAAAAAAAIA8vTeGNQAAgD8AAAAA
        AACAPwAAgD8aqrU+pHA9PwAAAAAAAIA/AAAAAAAAoDy9N4Y1AACAPwAAAAAAAIA/AACAP/npAD4AAAA/
        AHN0b2NrIC0gYmFzaWMgNSB0YXAgcGluZyBwb25nAAAAAAA=
      >
      PRESETNAME "stock - basic 5 tap ping pong"
      FLOATPOS 0 0 0 0
      FXID {4C3204B2-6A3D-E7D8-F2FD-03FF2052BB76}
      WAK 0 0
      BYPASS 0 0 0
      <VST "VST: ReaVerb (Cockos)" reaverb.vst.so 0 "" 1919252066<56535472657662726561766572620000> ""
        YnZlcu5e7f4CAAAAAQAAAAAAAAACAAAAAAAAAAIAAAABAAAAAAAAAAIAAAAAAAAAcAAAAAEAAAAAAAAA
        AAAAwcybgD4AAIA/AAAAAAAAgD8AAIA/AAAAPwAAgD8AAAAAVkVSQkdFTgAYAAAAAAAAAJHgV0QdrLRA3rK7QsHIjEIAAIC/RUNIT0dFTgAcAAAAy/i2QLUjdUJdzdM/
        osdfP5lRrzyRzYxAnMQAPw==
        AHN3ZWV0dmVyYm8AAAAAAA==
      >
      PRESETNAME sweetverbo
      FLOATPOS 0 0 0 0
      FXID {E55B1223-9CDE-928F-64C9-3A7B25B332F9}
      WAK 0 0
    >
    <ITEM
      POSITION 0
      SNAPOFFS 0
      LENGTH 8
      LOOP 1
      ALLTAKES 0
      FADEIN 1 0 0 1 0 0
      FADEOUT 1 0 0 1 0 0
      MUTE 0
      SEL 1
      IGUID {A12D5D8A-58FE-A7E2-8B06-AC58F4870657}
      IID 10
      NAME "01-Recorded MIDI"
      VOLPAN 1 0 1 -1
      SOFFS 0 0
      PLAYRATE 1 1 0 -1 0 0.0021
      CHANMODE 0
      GUID {CCE696C6-E4C8-2E55-2DEC-B64CA397B768}
      RECPASS 1
      <SOURCE MIDI
        HASDATA 1 960 QN
        CCINTERP 32
        POOLEDEVTS {8DA66E7D-1B9E-8EE9-5C23-568884640F6D}
        E 0 90 3c 48
        E 0 90 40 48
        E 0 90 43 48
        E 1920 80 3c 00
        E 0 80 40 00
        E 0 80 43 00
        E 0 90 3c 48
        E 0 90 40 48
        E 0 90 43 48
        E 260 80 3c 00
        E 0 80 40 00
        E 0 80 43 00
        E 440 90 3c 48
        E 0 90 40 48
        E 0 90 43 48
        E 260 80 3c 00
        E 0 80 40 00
        E 0 80 43 00
        e 514 90 3c 48
        e 0 90 40 48
        e 0 90 43 48
        e 260 80 3c 00
        e 0 80 40 00
        e 0 80 43 00
        E 186 90 43 48
        E 0 90 47 48
        E 20 90 40 48
        E 1900 80 43 00
        E 0 80 47 00
        E 0 80 40 00
        E 0 90 43 48
        E 0 90 47 48
        E 20 90 40 48
        E 240 80 43 00
        E 0 80 47 00
        E 0 80 40 00
        E 440 90 43 48
        E 0 90 47 48
        E 20 90 40 48
        E 240 80 43 00
        E 0 80 47 00
        E 0 80 40 00
        e 514 90 43 48
        e 0 90 47 48
        e 20 90 40 48
        e 240 80 43 00
        e 0 80 47 00
        e 0 80 40 00
        E 186 90 41 48
        E 0 90 45 48
        E 0 90 48 48
        E 1920 80 41 00
        E 0 80 45 00
        E 0 80 48 00
        E 0 90 41 48
        E 0 90 45 48
        E 0 90 48 48
        E 260 80 41 00
        E 0 80 45 00
        E 0 80 48 00
        E 440 90 41 48
        E 0 90 45 48
        E 0 90 48 48
        E 260 80 41 00
        E 0 80 45 00
        E 0 80 48 00
        e 514 90 41 48
        e 0 90 45 48
        e 0 90 48 48
        e 260 80 41 00
        e 0 80 45 00
        e 0 80 48 00
        E 162 90 3e 48
        E 24 90 41 48
        E 0 90 45 48
        E 1896 90 3e 48
        E 24 80 3e 00
        E 0 80 41 00
        E 0 80 45 00
        E 0 90 41 48
        E 0 90 45 48
        E 260 80 3e 00
        E 0 80 41 00
        E 0 80 45 00
        E 416 90 3e 48
        E 24 90 41 48
        E 0 90 45 48
        E 260 80 3e 00
        E 0 80 41 00
        E 0 80 45 00
        e 490 90 3e 48
        e 24 90 41 48
        e 0 90 45 48
        e 260 80 3e 00
        e 0 80 41 00
        e 0 80 45 00
        E 186 b0 7b 00
        CHASE_CC_TAKEOFFS 1
        GUID {7B9D708B-43E1-C8D4-C4B3-87E2A6C27801}
        IGNTEMPO 0 120 4 4
        SRCCOLOR 17
        VELLANE -1 100 0
        CFGEDITVIEW 0 0.045808 45 12 0 -1 0 0 0 0.5
        KEYSNAP 0
        TRACKSEL 0
        EVTFILTER 0 -1 -1 -1 -1 0 0 0 0 -1 -1 -1 -1 0 -1 0 -1 -1
        CFGEDIT 1 1 0 1 0 0 1 1 1 1 1 1 58 171 1253 866 0 0 0 0 0.25 0 0 0 0 0.5 0 0 1 64
      >
    >
    <ITEM
      POSITION 8
      SNAPOFFS 0
      LENGTH 8
      LOOP 1
      ALLTAKES 0
      FADEIN 1 0 0 1 0 0
      FADEOUT 1 0 0 1 0 0
      MUTE 0
      SEL 1
      IGUID {E662B749-9782-ED65-24B0-183600CF277B}
      IID 11
      NAME "01-Recorded MIDI"
      VOLPAN 1 0 1 -1
      SOFFS 0 0
      PLAYRATE 1 1 0 -1 0 0.0021
      CHANMODE 0
      GUID {18D48CA4-328F-D720-D0BB-359F18C54775}
      RECPASS 1
      <SOURCE MIDI
        HASDATA 1 960 QN
        CCINTERP 32
        POOLEDEVTS {D505E2AB-5FBA-EAF4-2520-DA4140C508CF}
        E 0 90 3c 48
        E 0 90 40 48
        E 0 90 43 48
        E 1920 80 3c 00
        E 0 80 40 00
        E 0 80 43 00
        E 0 90 3c 48
        E 0 90 40 48
        E 0 90 43 48
        E 260 80 3c 00
        E 0 80 40 00
        E 0 80 43 00
        E 440 90 3c 48
        E 0 90 40 48
        E 0 90 43 48
        E 260 80 3c 00
        E 0 80 40 00
        E 0 80 43 00
        e 514 90 3c 48
        e 0 90 40 48
        e 0 90 43 48
        e 260 80 3c 00
        e 0 80 40 00
        e 0 80 43 00
        E 186 90 43 48
        E 0 90 47 48
        E 20 90 40 48
        E 1900 80 43 00
        E 0 80 47 00
        E 0 80 40 00
        E 0 90 43 48
        E 0 90 47 48
        E 20 90 40 48
        E 240 80 43 00
        E 0 80 47 00
        E 0 80 40 00
        E 440 90 43 48
        E 0 90 47 48
        E 20 90 40 48
        E 240 80 43 00
        E 0 80 47 00
        E 0 80 40 00
        e 514 90 43 48
        e 0 90 47 48
        e 20 90 40 48
        e 240 80 43 00
        e 0 80 47 00
        e 0 80 40 00
        E 186 90 41 48
        E 0 90 45 48
        E 0 90 48 48
        E 1920 80 41 00
        E 0 80 45 00
        E 0 80 48 00
        E 0 90 41 48
        E 0 90 45 48
        E 0 90 48 48
        E 260 80 41 00
        E 0 80 45 00
        E 0 80 48 00
        E 440 90 41 48
        E 0 90 45 48
        E 0 90 48 48
        E 260 80 41 00
        E 0 80 45 00
        E 0 80 48 00
        e 514 90 41 48
        e 0 90 45 48
        e 0 90 48 48
        e 260 80 41 00
        e 0 80 45 00
        e 0 80 48 00
        E 162 90 3e 48
        E 24 90 41 48
        E 0 90 45 48
        E 1896 90 3e 48
        E 24 80 3e 00
        E 0 80 41 00
        E 0 80 45 00
        E 0 90 41 48
        E 0 90 45 48
        E 260 80 3e 00
        E 0 80 41 00
        E 0 80 45 00
        E 416 90 3e 48
        E 24 90 41 48
        E 0 90 45 48
        E 260 80 3e 00
        E 0 80 41 00
        E 0 80 45 00
        e 490 90 3e 48
        e 24 90 41 48
        e 0 90 45 48
        e 260 80 3e 00
        e 0 80 41 00
        e 0 80 45 00
        E 186 b0 7b 00
        CHASE_CC_TAKEOFFS 1
        GUID {3131B4E2-B370-E352-A9C5-C8CA31551A86}
        IGNTEMPO 0 120 4 4
        SRCCOLOR 18
        VELLANE -1 100 0
        CFGEDITVIEW 0 0.045808 45 12 0 -1 0 0 0 0.5
        KEYSNAP 0
        TRACKSEL 0
        EVTFILTER 0 -1 -1 -1 -1 0 0 0 0 -1 -1 -1 -1 0 -1 0 -1 -1
        CFGEDIT 1 1 0 1 0 0 1 1 1 1 1 1 58 171 1253 866 0 0 0 0 0.25 0 0 0 0 0.5 0 0 1 64
      >
    >
    <ITEM
      POSITION 16
      SNAPOFFS 0
      LENGTH 8
      LOOP 1
      ALLTAKES 0
      FADEIN 1 0 0 1 0 0
      FADEOUT 1 0 0 1 0 0
      MUTE 0
      SEL 1
      IGUID {C3A52676-9CAC-50AA-FCAD-1BB1737EED70}
      IID 12
      NAME "01-Recorded MIDI"
      VOLPAN 1 0 1 -1
      SOFFS 0 0
      PLAYRATE 1 1 0 -1 0 0.0021
      CHANMODE 0
      GUID {80A2B149-16FA-E4D5-D5FC-DADA78B5B3CD}
      RECPASS 1
      <SOURCE MIDI
        HASDATA 1 960 QN
        CCINTERP 32
        POOLEDEVTS {7BC06632-57D5-BCCE-91D8-C383EB87BEDF}
        E 0 90 3c 48
        E 0 90 40 48
        E 0 90 43 48
        E 1920 80 3c 00
        E 0 80 40 00
        E 0 80 43 00
        E 0 90 3c 48
        E 0 90 40 48
        E 0 90 43 48
        E 260 80 3c 00
        E 0 80 40 00
        E 0 80 43 00
        E 440 90 3c 48
        E 0 90 40 48
        E 0 90 43 48
        E 260 80 3c 00
        E 0 80 40 00
        E 0 80 43 00
        e 514 90 3c 48
        e 0 90 40 48
        e 0 90 43 48
        e 260 80 3c 00
        e 0 80 40 00
        e 0 80 43 00
        E 186 90 43 48
        E 0 90 47 48
        E 20 90 40 48
        E 1900 80 43 00
        E 0 80 47 00
        E 0 80 40 00
        E 0 90 43 48
        E 0 90 47 48
        E 20 90 40 48
        E 240 80 43 00
        E 0 80 47 00
        E 0 80 40 00
        E 440 90 43 48
        E 0 90 47 48
        E 20 90 40 48
        E 240 80 43 00
        E 0 80 47 00
        E 0 80 40 00
        e 514 90 43 48
        e 0 90 47 48
        e 20 90 40 48
        e 240 80 43 00
        e 0 80 47 00
        e 0 80 40 00
        E 186 90 41 48
        E 0 90 45 48
        E 0 90 48 48
        E 1920 80 41 00
        E 0 80 45 00
        E 0 80 48 00
        E 0 90 41 48
        E 0 90 45 48
        E 0 90 48 48
        E 260 80 41 00
        E 0 80 45 00
        E 0 80 48 00
        E 440 90 41 48
        E 0 90 45 48
        E 0 90 48 48
        E 260 80 41 00
        E 0 80 45 00
        E 0 80 48 00
        e 514 90 41 48
        e 0 90 45 48
        e 0 90 48 48
        e 260 80 41 00
        e 0 80 45 00
        e 0 80 48 00
        E 162 90 3e 48
        E 24 90 41 48
        E 0 90 45 48
        E 1896 90 3e 48
        E 24 80 3e 00
        E 0 80 41 00
        E 0 80 45 00
        E 0 90 41 48
        E 0 90 45 48
        E 260 80 3e 00
        E 0 80 41 00
        E 0 80 45 00
        E 416 90 3e 48
        E 24 90 41 48
        E 0 90 45 48
        E 260 80 3e 00
        E 0 80 41 00
        E 0 80 45 00
        e 490 90 3e 48
        e 24 90 41 48
        e 0 90 45 48
        e 260 80 3e 00
        e 0 80 41 00
        e 0 80 45 00
        E 186 b0 7b 00
        CHASE_CC_TAKEOFFS 1
        GUID {48C567A2-895C-FB9B-FDBA-0ADB7004ABF3}
        IGNTEMPO 0 120 4 4
        SRCCOLOR 19
        VELLANE -1 100 0
        CFGEDITVIEW 0 0.045808 45 12 0 -1 0 0 0 0.5
        KEYSNAP 0
        TRACKSEL 0
        EVTFILTER 0 -1 -1 -1 -1 0 0 0 0 -1 -1 -1 -1 0 -1 0 -1 -1
        CFGEDIT 1 1 0 1 0 0 1 1 1 1 1 1 58 171 1253 866 0 0 0 0 0.25 0 0 0 0 0.5 0 0 1 64
      >
    >
    <ITEM
      POSITION 24
      SNAPOFFS 0
      LENGTH 8
      LOOP 1
      ALLTAKES 0
      FADEIN 1 0 0 1 0 0
      FADEOUT 1 0 0 1 0 0
      MUTE 0
      SEL 1
      IGUID {43531119-950A-7113-D0A3-3BA653722933}
      IID 13
      NAME "01-Recorded MIDI"
      VOLPAN 1 0 1 -1
      SOFFS 0 0
      PLAYRATE 1 1 0 -1 0 0.0021
      CHANMODE 0
      GUID {9DAF71E5-9B52-87FE-9C11-498C9D5FC3FC}
      RECPASS 1
      <SOURCE MIDI
        HASDATA 1 960 QN
        CCINTERP 32
        POOLEDEVTS {4352C00F-5470-7AE5-C8EC-24E424937DF6}
        E 0 90 3c 48
        E 0 90 40 48
        E 0 90 43 48
        E 1920 80 3c 00
        E 0 80 40 00
        E 0 80 43 00
        E 0 90 3c 48
        E 0 90 40 48
        E 0 90 43 48
        E 260 80 3c 00
        E 0 80 40 00
        E 0 80 43 00
        E 440 90 3c 48
        E 0 90 40 48
        E 0 90 43 48
        E 260 80 3c 00
        E 0 80 40 00
        E 0 80 43 00
        e 514 90 3c 48
        e 0 90 40 48
        e 0 90 43 48
        e 260 80 3c 00
        e 0 80 40 00
        e 0 80 43 00
        E 186 90 43 48
        E 0 90 47 48
        E 20 90 40 48
        E 1900 80 43 00
        E 0 80 47 00
        E 0 80 40 00
        E 0 90 43 48
        E 0 90 47 48
        E 20 90 40 48
        E 240 80 43 00
        E 0 80 47 00
        E 0 80 40 00
        E 440 90 43 48
        E 0 90 47 48
        E 20 90 40 48
        E 240 80 43 00
        E 0 80 47 00
        E 0 80 40 00
        e 514 90 43 48
        e 0 90 47 48
        e 20 90 40 48
        e 240 80 43 00
        e 0 80 47 00
        e 0 80 40 00
        E 186 90 41 48
        E 0 90 45 48
        E 0 90 48 48
        E 1920 80 41 00
        E 0 80 45 00
        E 0 80 48 00
        E 0 90 41 48
        E 0 90 45 48
        E 0 90 48 48
        E 260 80 41 00
        E 0 80 45 00
        E 0 80 48 00
        E 440 90 41 48
        E 0 90 45 48
        E 0 90 48 48
        E 260 80 41 00
        E 0 80 45 00
        E 0 80 48 00
        e 514 90 41 48
        e 0 90 45 48
        e 0 90 48 48
        e 260 80 41 00
        e 0 80 45 00
        e 0 80 48 00
        E 162 90 3e 48
        E 24 90 41 48
        E 0 90 45 48
        E 1896 90 3e 48
        E 24 80 3e 00
        E 0 80 41 00
        E 0 80 45 00
        E 0 90 41 48
        E 0 90 45 48
        E 260 80 3e 00
        E 0 80 41 00
        E 0 80 45 00
        E 416 90 3e 48
        E 24 90 41 48
        E 0 90 45 48
        E 260 80 3e 00
        E 0 80 41 00
        E 0 80 45 00
        e 490 90 3e 48
        e 24 90 41 48
        e 0 90 45 48
        e 260 80 3e 00
        e 0 80 41 00
        e 0 80 45 00
        E 186 b0 7b 00
        CHASE_CC_TAKEOFFS 1
        GUID {1DE38800-E2A1-41B5-9C8C-3291891093B1}
        IGNTEMPO 0 120 4 4
        SRCCOLOR 20
        VELLANE -1 100 0
        CFGEDITVIEW 0 0.045808 45 12 0 -1 0 0 0 0.5
        KEYSNAP 0
        TRACKSEL 0
        EVTFILTER 0 -1 -1 -1 -1 0 0 0 0 -1 -1 -1 -1 0 -1 0 -1 -1
        CFGEDIT 1 1 0 1 0 0 1 1 1 1 1 1 58 171 1253 866 0 0 0 0 0.25 0 0 0 0 0.5 0 0 1 64
      >
    >
    <ITEM
      POSITION 32
      SNAPOFFS 0
      LENGTH 8
      LOOP 1
      ALLTAKES 0
      FADEIN 1 0 0 1 0 0
      FADEOUT 1 0 0 1 0 0
      MUTE 0
      SEL 1
      IGUID {ADB9B18C-9116-91DA-5359-31B8E62FC415}
      IID 14
      NAME "01-Recorded MIDI"
      VOLPAN 1 0 1 -1
      SOFFS 0 0
      PLAYRATE 1 1 0 -1 0 0.0021
      CHANMODE 0
      GUID {DEE462CC-7C7A-EA4C-7E42-D178AB643BCF}
      RECPASS 1
      <SOURCE MIDI
        HASDATA 1 960 QN
        CCINTERP 32
        POOLEDEVTS {46C31A68-F4BB-6230-77C0-55CEE12E9BC8}
        E 0 90 3c 48
        E 0 90 40 48
        E 0 90 43 48
        E 1920 80 3c 00
        E 0 80 40 00
        E 0 80 43 00
        E 0 90 3c 48
        E 0 90 40 48
        E 0 90 43 48
        E 260 80 3c 00
        E 0 80 40 00
        E 0 80 43 00
        E 440 90 3c 48
        E 0 90 40 48
        E 0 90 43 48
        E 260 80 3c 00
        E 0 80 40 00
        E 0 80 43 00
        e 514 90 3c 48
        e 0 90 40 48
        e 0 90 43 48
        e 260 80 3c 00
        e 0 80 40 00
        e 0 80 43 00
        E 186 90 43 48
        E 0 90 47 48
        E 20 90 40 48
        E 1900 80 43 00
        E 0 80 47 00
        E 0 80 40 00
        E 0 90 43 48
        E 0 90 47 48
        E 20 90 40 48
        E 240 80 43 00
        E 0 80 47 00
        E 0 80 40 00
        E 440 90 43 48
        E 0 90 47 48
        E 20 90 40 48
        E 240 80 43 00
        E 0 80 47 00
        E 0 80 40 00
        e 514 90 43 48
        e 0 90 47 48
        e 20 90 40 48
        e 240 80 43 00
        e 0 80 47 00
        e 0 80 40 00
        E 186 90 41 48
        E 0 90 45 48
        E 0 90 48 48
        E 1920 80 41 00
        E 0 80 45 00
        E 0 80 48 00
        E 0 90 41 48
        E 0 90 45 48
        E 0 90 48 48
        E 260 80 41 00
        E 0 80 45 00
        E 0 80 48 00
        E 440 90 41 48
        E 0 90 45 48
        E 0 90 48 48
        E 260 80 41 00
        E 0 80 45 00
        E 0 80 48 00
        e 514 90 41 48
        e 0 90 45 48
        e 0 90 48 48
        e 260 80 41 00
        e 0 80 45 00
        e 0 80 48 00
        E 162 90 3e 48
        E 24 90 41 48
        E 0 90 45 48
        E 1896 90 3e 48
        E 24 80 3e 00
        E 0 80 41 00
        E 0 80 45 00
        E 0 90 41 48
        E 0 90 45 48
        E 260 80 3e 00
        E 0 80 41 00
        E 0 80 45 00
        E 416 90 3e 48
        E 24 90 41 48
        E 0 90 45 48
        E 260 80 3e 00
        E 0 80 41 00
        E 0 80 45 00
        e 490 90 3e 48
        e 24 90 41 48
        e 0 90 45 48
        e 260 80 3e 00
        e 0 80 41 00
        e 0 80 45 00
        E 186 b0 7b 00
        CHASE_CC_TAKEOFFS 1
        GUID {0C3271F4-E233-9088-9B25-A722FAE7C579}
        IGNTEMPO 0 120 4 4
        SRCCOLOR 21
        VELLANE -1 100 0
        CFGEDITVIEW 0 0.045808 45 12 0 -1 0 0 0 0.5
        KEYSNAP 0
        TRACKSEL 0
        EVTFILTER 0 -1 -1 -1 -1 0 0 0 0 -1 -1 -1 -1 0 -1 0 -1 -1
        CFGEDIT 1 1 0 1 0 0 1 1 1 1 1 1 58 171 1253 866 0 0 0 0 0.25 0 0 0 0 0.5 0 0 1 64
      >
    >
    <ITEM
      POSITION 40
      SNAPOFFS 0
      LENGTH 8
      LOOP 1
      ALLTAKES 0
      FADEIN 1 0 0 1 0 0
      FADEOUT 1 0 0 1 0 0
      MUTE 0
      SEL 1
      IGUID {8897E70E-9738-5314-B62B-BB5D91D8122B}
      IID 15
      NAME "01-Recorded MIDI"
      VOLPAN 1 0 1 -1
      SOFFS 0 0
      PLAYRATE 1 1 0 -1 0 0.0021
      CHANMODE 0
      GUID {DD4DF835-795C-FE1A-2FF1-3BC27596EAD2}
      RECPASS 1
      <SOURCE MIDI
        HASDATA 1 960 QN
        CCINTERP 32
        POOLEDEVTS {E440B78A-4524-308A-BFC8-5BEEDBB303E9}
        E 0 90 3c 48
        E 0 90 40 48
        E 0 90 43 48
        E 1920 80 3c 00
        E 0 80 40 00
        E 0 80 43 00
        E 0 90 3c 48
        E 0 90 40 48
        E 0 90 43 48
        E 260 80 3c 00
        E 0 80 40 00
        E 0 80 43 00
        E 440 90 3c 48
        E 0 90 40 48
        E 0 90 43 48
        E 260 80 3c 00
        E 0 80 40 00
        E 0 80 43 00
        e 514 90 3c 48
        e 0 90 40 48
        e 0 90 43 48
        e 260 80 3c 00
        e 0 80 40 00
        e 0 80 43 00
        E 186 90 43 48
        E 0 90 47 48
        E 20 90 40 48
        E 1900 80 43 00
        E 0 80 47 00
        E 0 80 40 00
        E 0 90 43 48
        E 0 90 47 48
        E 20 90 40 48
        E 240 80 43 00
        E 0 80 47 00
        E 0 80 40 00
        E 440 90 43 48
        E 0 90 47 48
        E 20 90 40 48
        E 240 80 43 00
        E 0 80 47 00
        E 0 80 40 00
        e 514 90 43 48
        e 0 90 47 48
        e 20 90 40 48
        e 240 80 43 00
        e 0 80 47 00
        e 0 80 40 00
        E 186 90 41 48
        E 0 90 45 48
        E 0 90 48 48
        E 1920 80 41 00
        E 0 80 45 00
        E 0 80 48 00
        E 0 90 41 48
        E 0 90 45 48
        E 0 90 48 48
        E 260 80 41 00
        E 0 80 45 00
        E 0 80 48 00
        E 440 90 41 48
        E 0 90 45 48
        E 0 90 48 48
        E 260 80 41 00
        E 0 80 45 00
        E 0 80 48 00
        e 514 90 41 48
        e 0 90 45 48
        e 0 90 48 48
        e 260 80 41 00
        e 0 80 45 00
        e 0 80 48 00
        E 162 90 3e 48
        E 24 90 41 48
        E 0 90 45 48
        E 1896 90 3e 48
        E 24 80 3e 00
        E 0 80 41 00
        E 0 80 45 00
        E 0 90 41 48
        E 0 90 45 48
        E 260 80 3e 00
        E 0 80 41 00
        E 0 80 45 00
        E 416 90 3e 48
        E 24 90 41 48
        E 0 90 45 48
        E 260 80 3e 00
        E 0 80 41 00
        E 0 80 45 00
        e 490 90 3e 48
        e 24 90 41 48
        e 0 90 45 48
        e 260 80 3e 00
        e 0 80 41 00
        e 0 80 45 00
        E 186 b0 7b 00
        CHASE_CC_TAKEOFFS 1
        GUID {040E7AF8-3572-5D91-3C86-797AEE7444D4}
        IGNTEMPO 0 120 4 4
        SRCCOLOR 22
        VELLANE -1 100 0
        CFGEDITVIEW 0 0.045808 45 12 0 -1 0 0 0 0.5
        KEYSNAP 0
        TRACKSEL 0
        EVTFILTER 0 -1 -1 -1 -1 0 0 0 0 -1 -1 -1 -1 0 -1 0 -1 -1
        CFGEDIT 1 1 0 1 0 0 1 1 1 1 1 1 58 171 1253 866 0 0 0 0 0.25 0 0 0 0 0.5 0 0 1 64
      >
    >
    <ITEM
      POSITION 48
      SNAPOFFS 0
      LENGTH 8
      LOOP 1
      ALLTAKES 0
      FADEIN 1 0 0 1 0 0
      FADEOUT 1 0 0 1 0 0
      MUTE 0
      SEL 1
      IGUID {743C746A-B6FF-2C6E-1E6A-C7C86B375084}
      IID 16
      NAME "01-Recorded MIDI"
      VOLPAN 1 0 1 -1
      SOFFS 0 0
      PLAYRATE 1 1 0 -1 0 0.0021
      CHANMODE 0
      GUID {D18D3A1C-05A0-CEF8-33E8-3A46D3040B5C}
      RECPASS 1
      <SOURCE MIDI
        HASDATA 1 960 QN
        CCINTERP 32
        POOLEDEVTS {19904911-193F-99AB-1132-35C2B1B1EF48}
        E 0 90 3c 48
        E 0 90 40 48
        E 0 90 43 48
        E 1920 80 3c 00
        E 0 80 40 00
        E 0 80 43 00
        E 0 90 3c 48
        E 0 90 40 48
        E 0 90 43 48
        E 260 80 3c 00
        E 0 80 40 00
        E 0 80 43 00
        E 440 90 3c 48
        E 0 90 40 48
        E 0 90 43 48
        E 260 80 3c 00
        E 0 80 40 00
        E 0 80 43 00
        e 514 90 3c 48
        e 0 90 40 48
        e 0 90 43 48
        e 260 80 3c 00
        e 0 80 40 00
        e 0 80 43 00
        E 186 90 43 48
        E 0 90 47 48
        E 20 90 40 48
        E 1900 80 43 00
        E 0 80 47 00
        E 0 80 40 00
        E 0 90 43 48
        E 0 90 47 48
        E 20 90 40 48
        E 240 80 43 00
        E 0 80 47 00
        E 0 80 40 00
        E 440 90 43 48
        E 0 90 47 48
        E 20 90 40 48
        E 240 80 43 00
        E 0 80 47 00
        E 0 80 40 00
        e 514 90 43 48
        e 0 90 47 48
        e 20 90 40 48
        e 240 80 43 00
        e 0 80 47 00
        e 0 80 40 00
        E 186 90 41 48
        E 0 90 45 48
        E 0 90 48 48
        E 1920 80 41 00
        E 0 80 45 00
        E 0 80 48 00
        E 0 90 41 48
        E 0 90 45 48
        E 0 90 48 48
        E 260 80 41 00
        E 0 80 45 00
        E 0 80 48 00
        E 440 90 41 48
        E 0 90 45 48
        E 0 90 48 48
        E 260 80 41 00
        E 0 80 45 00
        E 0 80 48 00
        e 514 90 41 48
        e 0 90 45 48
        e 0 90 48 48
        e 260 80 41 00
        e 0 80 45 00
        e 0 80 48 00
        E 162 90 3e 48
        E 24 90 41 48
        E 0 90 45 48
        E 1896 90 3e 48
        E 24 80 3e 00
        E 0 80 41 00
        E 0 80 45 00
        E 0 90 41 48
        E 0 90 45 48
        E 260 80 3e 00
        E 0 80 41 00
        E 0 80 45 00
        E 416 90 3e 48
        E 24 90 41 48
        E 0 90 45 48
        E 260 80 3e 00
        E 0 80 41 00
        E 0 80 45 00
        e 490 90 3e 48
        e 24 90 41 48
        e 0 90 45 48
        e 260 80 3e 00
        e 0 80 41 00
        e 0 80 45 00
        E 186 b0 7b 00
        CHASE_CC_TAKEOFFS 1
        GUID {2338968B-6CF9-9F40-300F-DEB89D3392EA}
        IGNTEMPO 0 120 4 4
        SRCCOLOR 23
        VELLANE -1 100 0
        CFGEDITVIEW 0 0.045808 45 12 0 -1 0 0 0 0.5
        KEYSNAP 0
        TRACKSEL 0
        EVTFILTER 0 -1 -1 -1 -1 0 0 0 0 -1 -1 -1 -1 0 -1 0 -1 -1
        CFGEDIT 1 1 0 1 0 0 1 1 1 1 1 1 58 171 1253 866 0 0 0 0 0.25 0 0 0 0 0.5 0 0 1 64
      >
    >
    <ITEM
      POSITION 56
      SNAPOFFS 0
      LENGTH 8
      LOOP 1
      ALLTAKES 0
      FADEIN 1 0 0 1 0 0
      FADEOUT 1 0 0 1 0 0
      MUTE 0
      SEL 1
      IGUID {DE3983C2-8B93-8DBF-B1C6-8BE7E9844415}
      IID 17
      NAME "01-Recorded MIDI"
      VOLPAN 1 0 1 -1
      SOFFS 0 0
      PLAYRATE 1 1 0 -1 0 0.0021
      CHANMODE 0
      GUID {B660C814-A236-6ABE-E1E0-69C3455022AC}
      RECPASS 1
      <SOURCE MIDI
        HASDATA 1 960 QN
        CCINTERP 32
        POOLEDEVTS {4B8406FE-785F-73FD-BDBE-0F9E32FE561C}
        E 0 90 3c 48
        E 0 90 40 48
        E 0 90 43 48
        E 1920 80 3c 00
        E 0 80 40 00
        E 0 80 43 00
        E 0 90 3c 48
        E 0 90 40 48
        E 0 90 43 48
        E 260 80 3c 00
        E 0 80 40 00
        E 0 80 43 00
        E 440 90 3c 48
        E 0 90 40 48
        E 0 90 43 48
        E 260 80 3c 00
        E 0 80 40 00
        E 0 80 43 00
        e 514 90 3c 48
        e 0 90 40 48
        e 0 90 43 48
        e 260 80 3c 00
        e 0 80 40 00
        e 0 80 43 00
        E 186 90 43 48
        E 0 90 47 48
        E 20 90 40 48
        E 1900 80 43 00
        E 0 80 47 00
        E 0 80 40 00
        E 0 90 43 48
        E 0 90 47 48
        E 20 90 40 48
        E 240 80 43 00
        E 0 80 47 00
        E 0 80 40 00
        E 440 90 43 48
        E 0 90 47 48
        E 20 90 40 48
        E 240 80 43 00
        E 0 80 47 00
        E 0 80 40 00
        e 514 90 43 48
        e 0 90 47 48
        e 20 90 40 48
        e 240 80 43 00
        e 0 80 47 00
        e 0 80 40 00
        E 186 90 41 48
        E 0 90 45 48
        E 0 90 48 48
        E 1920 80 41 00
        E 0 80 45 00
        E 0 80 48 00
        E 0 90 41 48
        E 0 90 45 48
        E 0 90 48 48
        E 260 80 41 00
        E 0 80 45 00
        E 0 80 48 00
        E 440 90 41 48
        E 0 90 45 48
        E 0 90 48 48
        E 260 80 41 00
        E 0 80 45 00
        E 0 80 48 00
        e 514 90 41 48
        e 0 90 45 48
        e 0 90 48 48
        e 260 80 41 00
        e 0 80 45 00
        e 0 80 48 00
        E 162 90 3e 48
        E 24 90 41 48
        E 0 90 45 48
        E 1896 90 3e 48
        E 24 80 3e 00
        E 0 80 41 00
        E 0 80 45 00
        E 0 90 41 48
        E 0 90 45 48
        E 260 80 3e 00
        E 0 80 41 00
        E 0 80 45 00
        E 416 90 3e 48
        E 24 90 41 48
        E 0 90 45 48
        E 260 80 3e 00
        E 0 80 41 00
        E 0 80 45 00
        e 490 90 3e 48
        e 24 90 41 48
        e 0 90 45 48
        e 260 80 3e 00
        e 0 80 41 00
        e 0 80 45 00
        E 186 b0 7b 00
        CHASE_CC_TAKEOFFS 1
        GUID {A64857E2-94F8-0990-20DF-4C1E9B5E6251}
        IGNTEMPO 0 120 4 4
        SRCCOLOR 24
        VELLANE -1 100 0
        CFGEDITVIEW 0 0.045808 45 12 0 -1 0 0 0 0.5
        KEYSNAP 0
        TRACKSEL 0
        EVTFILTER 0 -1 -1 -1 -1 0 0 0 0 -1 -1 -1 -1 0 -1 0 -1 -1
        CFGEDIT 1 1 0 1 0 0 1 1 1 1 1 1 58 171 1253 866 0 0 0 0 0.25 0 0 0 0 0.5 0 0 1 64
      >
    >
    <ITEM
      POSITION 64
      SNAPOFFS 0
      LENGTH 8
      LOOP 1
      ALLTAKES 0
      FADEIN 1 0 0 1 0 0
      FADEOUT 1 0 0 1 0 0
      MUTE 0
      SEL 1
      IGUID {31F21D98-E517-1BEC-808B-63055EBF1CD4}
      IID 18
      NAME "01-Recorded MIDI"
      VOLPAN 1 0 1 -1
      SOFFS 0 0
      PLAYRATE 1 1 0 -1 0 0.0021
      CHANMODE 0
      GUID {582081D3-75B0-1509-7921-CE7EB396F49C}
      RECPASS 1
      <SOURCE MIDI
        HASDATA 1 960 QN
        CCINTERP 32
        POOLEDEVTS {CB02937E-7EFD-B0A6-B843-30ED37292A08}
        E 0 90 3c 48
        E 0 90 40 48
        E 0 90 43 48
        E 1920 80 3c 00
        E 0 80 40 00
        E 0 80 43 00
        E 0 90 3c 48
        E 0 90 40 48
        E 0 90 43 48
        E 260 80 3c 00
        E 0 80 40 00
        E 0 80 43 00
        E 440 90 3c 48
        E 0 90 40 48
        E 0 90 43 48
        E 260 80 3c 00
        E 0 80 40 00
        E 0 80 43 00
        e 514 90 3c 48
        e 0 90 40 48
        e 0 90 43 48
        e 260 80 3c 00
        e 0 80 40 00
        e 0 80 43 00
        E 186 90 43 48
        E 0 90 47 48
        E 20 90 40 48
        E 1900 80 43 00
        E 0 80 47 00
        E 0 80 40 00
        E 0 90 43 48
        E 0 90 47 48
        E 20 90 40 48
        E 240 80 43 00
        E 0 80 47 00
        E 0 80 40 00
        E 440 90 43 48
        E 0 90 47 48
        E 20 90 40 48
        E 240 80 43 00
        E 0 80 47 00
        E 0 80 40 00
        e 514 90 43 48
        e 0 90 47 48
        e 20 90 40 48
        e 240 80 43 00
        e 0 80 47 00
        e 0 80 40 00
        E 186 90 41 48
        E 0 90 45 48
        E 0 90 48 48
        E 1920 80 41 00
        E 0 80 45 00
        E 0 80 48 00
        E 0 90 41 48
        E 0 90 45 48
        E 0 90 48 48
        E 260 80 41 00
        E 0 80 45 00
        E 0 80 48 00
        E 440 90 41 48
        E 0 90 45 48
        E 0 90 48 48
        E 260 80 41 00
        E 0 80 45 00
        E 0 80 48 00
        e 514 90 41 48
        e 0 90 45 48
        e 0 90 48 48
        e 260 80 41 00
        e 0 80 45 00
        e 0 80 48 00
        E 162 90 3e 48
        E 24 90 41 48
        E 0 90 45 48
        E 1896 90 3e 48
        E 24 80 3e 00
        E 0 80 41 00
        E 0 80 45 00
        E 0 90 41 48
        E 0 90 45 48
        E 260 80 3e 00
        E 0 80 41 00
        E 0 80 45 00
        E 416 90 3e 48
        E 24 90 41 48
        E 0 90 45 48
        E 260 80 3e 00
        E 0 80 41 00
        E 0 80 45 00
        e 490 90 3e 48
        e 24 90 41 48
        e 0 90 45 48
        e 260 80 3e 00
        e 0 80 41 00
        e 0 80 45 00
        E 186 b0 7b 00
        CHASE_CC_TAKEOFFS 1
        GUID {19362806-85F2-5D9E-E1F9-07BE0CF3D16E}
        IGNTEMPO 0 120 4 4
        SRCCOLOR 25
        VELLANE -1 100 0
        CFGEDITVIEW 0 0.045808 45 12 0 -1 0 0 0 0.5
        KEYSNAP 0
        TRACKSEL 0
        EVTFILTER 0 -1 -1 -1 -1 0 0 0 0 -1 -1 -1 -1 0 -1 0 -1 -1
        CFGEDIT 1 1 0 1 0 0 1 1 1 1 1 1 58 171 1253 866 0 0 0 0 0.25 0 0 0 0 0.5 0 0 1 64
      >
    >
    <ITEM
      POSITION 72
      SNAPOFFS 0
      LENGTH 8
      LOOP 1
      ALLTAKES 0
      FADEIN 1 0 0 1 0 0
      FADEOUT 1 0 0 1 0 0
      MUTE 0
      SEL 1
      IGUID {EA2BD18D-3555-660F-BB4E-722788D93B47}
      IID 19
      NAME "01-Recorded MIDI"
      VOLPAN 1 0 1 -1
      SOFFS 0 0
      PLAYRATE 1 1 0 -1 0 0.0021
      CHANMODE 0
      GUID {6D857E5F-9C84-CD88-A569-DF5472EC9F84}
      RECPASS 1
      <SOURCE MIDI
        HASDATA 1 960 QN
        CCINTERP 32
        POOLEDEVTS {A98F348E-9ECD-E64E-E3D7-933E4E88ACA1}
        E 0 90 3c 48
        E 0 90 40 48
        E 0 90 43 48
        E 1920 80 3c 00
        E 0 80 40 00
        E 0 80 43 00
        E 0 90 3c 48
        E 0 90 40 48
        E 0 90 43 48
        E 260 80 3c 00
        E 0 80 40 00
        E 0 80 43 00
        E 440 90 3c 48
        E 0 90 40 48
        E 0 90 43 48
        E 260 80 3c 00
        E 0 80 40 00
        E 0 80 43 00
        e 514 90 3c 48
        e 0 90 40 48
        e 0 90 43 48
        e 260 80 3c 00
        e 0 80 40 00
        e 0 80 43 00
        E 186 90 43 48
        E 0 90 47 48
        E 20 90 40 48
        E 1900 80 43 00
        E 0 80 47 00
        E 0 80 40 00
        E 0 90 43 48
        E 0 90 47 48
        E 20 90 40 48
        E 240 80 43 00
        E 0 80 47 00
        E 0 80 40 00
        E 440 90 43 48
        E 0 90 47 48
        E 20 90 40 48
        E 240 80 43 00
        E 0 80 47 00
        E 0 80 40 00
        e 514 90 43 48
        e 0 90 47 48
        e 20 90 40 48
        e 240 80 43 00
        e 0 80 47 00
        e 0 80 40 00
        E 186 90 41 48
        E 0 90 45 48
        E 0 90 48 48
        E 1920 80 41 00
        E 0 80 45 00
        E 0 80 48 00
        E 0 90 41 48
        E 0 90 45 48
        E 0 90 48 48
        E 260 80 41 00
        E 0 80 45 00
        E 0 80 48 00
        E 440 90 41 48
        E 0 90 45 48
        E 0 90 48 48
        E 260 80 41 00
        E 0 80 45 00
        E 0 80 48 00
        e 514 90 41 48
        e 0 90 45 48
        e 0 90 48 48
        e 260 80 41 00
        e 0 80 45 00
        e 0 80 48 00
        E 162 90 3e 48
        E 24 90 41 48
        E 0 90 45 48
        E 1896 90 3e 48
        E 24 80 3e 00
        E 0 80 41 00
        E 0 80 45 00
        E 0 90 41 48
        E 0 90 45 48
        E 260 80 3e 00
        E 0 80 41 00
        E 0 80 45 00
        E 416 90 3e 48
        E 24 90 41 48
        E 0 90 45 48
        E 260 80 3e 00
        E 0 80 41 00
        E 0 80 45 00
        e 490 90 3e 48
        e 24 90 41 48
        e 0 90 45 48
        e 260 80 3e 00
        e 0 80 41 00
        e 0 80 45 00
        E 186 b0 7b 00
        CHASE_CC_TAKEOFFS 1
        GUID {6844F8A9-6BE9-023C-4A46-0A676470C99B}
        IGNTEMPO 0 120 4 4
        SRCCOLOR 26
        VELLANE -1 100 0
        CFGEDITVIEW 0 0.045808 45 12 0 -1 0 0 0 0.5
        KEYSNAP 0
        TRACKSEL 0
        EVTFILTER 0 -1 -1 -1 -1 0 0 0 0 -1 -1 -1 -1 0 -1 0 -1 -1
        CFGEDIT 1 1 0 1 0 0 1 1 1 1 1 1 58 171 1253 866 0 0 0 0 0.25 0 0 0 0 0.5 0 0 1 64
      >
    >
    <ITEM
      POSITION 80
      SNAPOFFS 0
      LENGTH 8
      LOOP 1
      ALLTAKES 0
      FADEIN 1 0 0 1 0 0
      FADEOUT 1 0 0 1 0 0
      MUTE 0
      SEL 1
      IGUID {107892EB-5626-B1EC-E965-0BA87444BD66}
      IID 20
      NAME "01-Recorded MIDI"
      VOLPAN 1 0 1 -1
      SOFFS 0 0
      PLAYRATE 1 1 0 -1 0 0.0021
      CHANMODE 0
      GUID {98B5154D-E667-58A6-BE58-A9B57408B7FC}
      RECPASS 1
      <SOURCE MIDI
        HASDATA 1 960 QN
        CCINTERP 32
        POOLEDEVTS {1D491515-E44C-AB13-650F-933B1D80EB52}
        E 0 90 3c 48
        E 0 90 40 48
        E 0 90 43 48
        E 1920 80 3c 00
        E 0 80 40 00
        E 0 80 43 00
        E 0 90 3c 48
        E 0 90 40 48
        E 0 90 43 48
        E 260 80 3c 00
        E 0 80 40 00
        E 0 80 43 00
        E 440 90 3c 48
        E 0 90 40 48
        E 0 90 43 48
        E 260 80 3c 00
        E 0 80 40 00
        E 0 80 43 00
        e 514 90 3c 48
        e 0 90 40 48
        e 0 90 43 48
        e 260 80 3c 00
        e 0 80 40 00
        e 0 80 43 00
        E 186 90 43 48
        E 0 90 47 48
        E 20 90 40 48
        E 1900 80 43 00
        E 0 80 47 00
        E 0 80 40 00
        E 0 90 43 48
        E 0 90 47 48
        E 20 90 40 48
        E 240 80 43 00
        E 0 80 47 00
        E 0 80 40 00
        E 440 90 43 48
        E 0 90 47 48
        E 20 90 40 48
        E 240 80 43 00
        E 0 80 47 00
        E 0 80 40 00
        e 514 90 43 48
        e 0 90 47 48
        e 20 90 40 48
        e 240 80 43 00
        e 0 80 47 00
        e 0 80 40 00
        E 186 90 41 48
        E 0 90 45 48
        E 0 90 48 48
        E 1920 80 41 00
        E 0 80 45 00
        E 0 80 48 00
        E 0 90 41 48
        E 0 90 45 48
        E 0 90 48 48
        E 260 80 41 00
        E 0 80 45 00
        E 0 80 48 00
        E 440 90 41 48
        E 0 90 45 48
        E 0 90 48 48
        E 260 80 41 00
        E 0 80 45 00
        E 0 80 48 00
        e 514 90 41 48
        e 0 90 45 48
        e 0 90 48 48
        e 260 80 41 00
        e 0 80 45 00
        e 0 80 48 00
        E 162 90 3e 48
        E 24 90 41 48
        E 0 90 45 48
        E 1896 90 3e 48
        E 24 80 3e 00
        E 0 80 41 00
        E 0 80 45 00
        E 0 90 41 48
        E 0 90 45 48
        E 260 80 3e 00
        E 0 80 41 00
        E 0 80 45 00
        E 416 90 3e 48
        E 24 90 41 48
        E 0 90 45 48
        E 260 80 3e 00
        E 0 80 41 00
        E 0 80 45 00
        e 490 90 3e 48
        e 24 90 41 48
        e 0 90 45 48
        e 260 80 3e 00
        e 0 80 41 00
        e 0 80 45 00
        E 186 b0 7b 00
        CHASE_CC_TAKEOFFS 1
        GUID {E611ADB6-4869-6CCA-8E83-3954D5E743B1}
        IGNTEMPO 0 120 4 4
        SRCCOLOR 27
        VELLANE -1 100 0
        CFGEDITVIEW 0 0.045808 45 12 0 -1 0 0 0 0.5
        KEYSNAP 0
        TRACKSEL 0
        EVTFILTER 0 -1 -1 -1 -1 0 0 0 0 -1 -1 -1 -1 0 -1 0 -1 -1
        CFGEDIT 1 1 0 1 0 0 1 1 1 1 1 1 58 171 1253 866 0 0 0 0 0.25 0 0 0 0 0.5 0 0 1 64
      >
    >
    <ITEM
      POSITION 88
      SNAPOFFS 0
      LENGTH 8
      LOOP 1
      ALLTAKES 0
      FADEIN 1 0 0 1 0 0
      FADEOUT 1 0 0 1 0 0
      MUTE 0
      SEL 1
      IGUID {0DDAF21B-4DD3-6DC8-7B3E-87140EBC9631}
      IID 21
      NAME "01-Recorded MIDI"
      VOLPAN 1 0 1 -1
      SOFFS 0 0
      PLAYRATE 1 1 0 -1 0 0.0021
      CHANMODE 0
      GUID {2E77888D-C92B-1508-40D3-A5A7120CB970}
      RECPASS 1
      <SOURCE MIDI
        HASDATA 1 960 QN
        CCINTERP 32
        POOLEDEVTS {2C526BF1-8D71-EAC6-1081-FDF8C476447E}
        E 0 90 3c 48
        E 0 90 40 48
        E 0 90 43 48
        E 1920 80 3c 00
        E 0 80 40 00
        E 0 80 43 00
        E 0 90 3c 48
        E 0 90 40 48
        E 0 90 43 48
        E 260 80 3c 00
        E 0 80 40 00
        E 0 80 43 00
        E 440 90 3c 48
        E 0 90 40 48
        E 0 90 43 48
        E 260 80 3c 00
        E 0 80 40 00
        E 0 80 43 00
        e 514 90 3c 48
        e 0 90 40 48
        e 0 90 43 48
        e 260 80 3c 00
        e 0 80 40 00
        e 0 80 43 00
        E 186 90 43 48
        E 0 90 47 48
        E 20 90 40 48
        E 1900 80 43 00
        E 0 80 47 00
        E 0 80 40 00
        E 0 90 43 48
        E 0 90 47 48
        E 20 90 40 48
        E 240 80 43 00
        E 0 80 47 00
        E 0 80 40 00
        E 440 90 43 48
        E 0 90 47 48
        E 20 90 40 48
        E 240 80 43 00
        E 0 80 47 00
        E 0 80 40 00
        e 514 90 43 48
        e 0 90 47 48
        e 20 90 40 48
        e 240 80 43 00
        e 0 80 47 00
        e 0 80 40 00
        E 186 90 41 48
        E 0 90 45 48
        E 0 90 48 48
        E 1920 80 41 00
        E 0 80 45 00
        E 0 80 48 00
        E 0 90 41 48
        E 0 90 45 48
        E 0 90 48 48
        E 260 80 41 00
        E 0 80 45 00
        E 0 80 48 00
        E 440 90 41 48
        E 0 90 45 48
        E 0 90 48 48
        E 260 80 41 00
        E 0 80 45 00
        E 0 80 48 00
        e 514 90 41 48
        e 0 90 45 48
        e 0 90 48 48
        e 260 80 41 00
        e 0 80 45 00
        e 0 80 48 00
        E 162 90 3e 48
        E 24 90 41 48
        E 0 90 45 48
        E 1896 90 3e 48
        E 24 80 3e 00
        E 0 80 41 00
        E 0 80 45 00
        E 0 90 41 48
        E 0 90 45 48
        E 260 80 3e 00
        E 0 80 41 00
        E 0 80 45 00
        E 416 90 3e 48
        E 24 90 41 48
        E 0 90 45 48
        E 260 80 3e 00
        E 0 80 41 00
        E 0 80 45 00
        e 490 90 3e 48
        e 24 90 41 48
        e 0 90 45 48
        e 260 80 3e 00
        e 0 80 41 00
        e 0 80 45 00
        E 186 b0 7b 00
        CHASE_CC_TAKEOFFS 1
        GUID {C762B555-17FC-D765-5340-11D3487D2955}
        IGNTEMPO 0 120 4 4
        SRCCOLOR 28
        VELLANE -1 100 0
        CFGEDITVIEW 0 0.045808 45 12 0 -1 0 0 0 0.5
        KEYSNAP 0
        TRACKSEL 0
        EVTFILTER 0 -1 -1 -1 -1 0 0 0 0 -1 -1 -1 -1 0 -1 0 -1 -1
        CFGEDIT 1 1 0 1 0 0 1 1 1 1 1 1 58 171 1253 866 0 0 0 0 0.25 0 0 0 0 0.5 0 0 1 64
      >
    >
  >
  <TRACK {F38A705E-FEE5-F712-F0B2-6CB35C36FE30}
    NAME ""
    PEAKCOL 16576
    BEAT -1
    AUTOMODE 0
    VOLPAN 0.00052194381917 0 -1 -1 1
    MUTESOLO 0 0 0
    IPHASE 0
    PLAYOFFS 0 1
    ISBUS 0 0
    BUSCOMP 0 0 0 0 0
    SHOWINMIX 1 0.6667 0.5 1 0.5 0 0 0
    FREEMODE 0
    SEL 0
    REC 0 5056 1 0 0 0 0
    VU 2
    TRACKHEIGHT 21 0 0
    INQ 0 0 0 0.5 100 0 0 100
    NCHAN 2
    FX 0
    TRACKID {F38A705E-FEE5-F712-F0B2-6CB35C36FE30}
    PERF 0
    MIDIOUT -1
    MAINSEND 1 0
    <FXCHAIN
      WNDRECT 346 266 902 608
      SHOW 0
      LASTSEL 5
      DOCKED 0
      BYPASS 0 0 0
      <VST "VST: ReaEQ (Cockos)" reaeq.vst.so 0 "" 1919247729<56535472656571726561657100000000> ""
        cWVlcu5e7f4CAAAAAQAAAAAAAAACAAAAAAAAAAIAAAABAAAAAAAAAAIAAAAAAAAAqAAAAAEAAAAAABAA
        IQAAAAQAAAAEAAAAAQAAAEC4Xhmm+DRAAAAAAAAA8D8AAAAAAAAAQAEIAAAAAQAAAAAAAAAAwHJAAAAAAAAA8D8AAAAAAAAAQAEIAAAAAQAAAAAAAAAAQI9AAAAAAAAA
        8D8AAAAAAAAAQAEDAAAAAQAAAAABaCorbdRAAAAAAAAA8D8AAAAAAAAAQAEBAAAAAQAAAAAAAAAAAPA/AAAAAJoCAACcAQAA
        AEhpZ2ggbG93IHBhc3MAEAAAAA==
      >
      PRESETNAME "High low pass"
      FLOATPOS 0 0 0 0
      FXID {02D23CA2-CDC5-F376-E17C-FA4AB77F47CA}
      WAK 0 0
      BYPASS 0 0 0
      <VST "VSTi: ReaSynth (Cockos)" reasynth.vst.so 0 "" 1919251321<5653547265737972656173796E746800> ""
        eXNlcu9e7f4AAAAAAgAAAAEAAAAAAAAAAgAAAAAAAAA8AAAAAAAAAAAAEAA=
        776t3g3wrd6lm8Q7F7fROgAAAAAAAAAAAAAAAJCNuT3oZ4g9AACAPwAAAD8AAIA/AAAAAAAAAD8AAAAA
        AAAQAAAA
      >
      FLOATPOS 0 0 0 0
      FXID {73BFDE0C-640C-3524-11F6-C8A6A6A15749}
      WAK 0 0
      BYPASS 0 0 0
      <JS guitar/amp-model ""
        "Dumble Overdrive Special - Tweed Deluxe.wav" -21.000000 1.000000 0.000000 0.000000 -1.000000 - - - - - - - - - - - - - - - - - - - - - - - - - - - - - - - - - - - - - - - - - - - - - - - - - - - - - - - - - - 
      >
      FLOATPOS 0 0 0 0
      FXID {24E146A9-26E3-BEB3-66BC-5A4BA8E1E01F}
      WAK 0 0
      BYPASS 0 0 0
      <VST "VST: ReaComp (Cockos)" reacomp.vst.so 0 "" 1919247213<5653547265636D726561636F6D700000> ""
        bWNlcu9e7f4EAAAAAQAAAAAAAAACAAAAAAAAAAQAAAAAAAAACAAAAAAAAAACAAAAAQAAAAAAAAACAAAAAAAAAFQAAAAAAAAAAAAQAA==
        776t3g3wrd5FoYg9/AWpPKWbxDsK16M8AAAAAAAAAAAAAIA/AAAAAAAAAAAAAAAAnNEHMwAAgD8AAAAAzMxMPQAAAAAAAAAAAAAAAAAAgD7YiZ09
        AAAQAAAA
      >
      FLOATPOS 0 0 0 0
      FXID {6D09F3BA-8FFA-359E-7270-8E53A298E6EE}
      WAK 0 0
      BYPASS 0 0 0
      <VST "VST: ReaDelay (Cockos)" readelay.vst.so 0 "" 1919247468<5653547265646C72656164656C617900> ""
        bGRlcu5e7f4CAAAAAQAAAAAAAAACAAAAAAAAAAIAAAABAAAAAAAAAAIAAAAAAAAA/AAAAAEAAAAAAAAA
        AAAAAAAAAAAFAAAALAAAAAIAAAAEAAAAAACAPwAAgD8AAAAAAACAPwAAAAAAAIA7vTeGNQAAgD8AAAAAAACAPwAAgD8AAIA/AAAAAAAAAAAAAIA/AAAAAAAAADwAAAAA
        AACAPwAAAAAAAIA/AACAP+87NT8AAIA/AAAAAAAAgD8AAAAAAABAPL03hjUAAIA/AAAAAAAAgD8AAIA/zk0AP6abhD4AAAAAAACAPwAAAAAAAIA8vTeGNQAAgD8AAAAA
        AACAPwAAgD8aqrU+pHA9PwAAAAAAAIA/AAAAAAAAoDy9N4Y1AACAPwAAAAAAAIA/AACAP/npAD4AAAA/
        AHN0b2NrIC0gYmFzaWMgNSB0YXAgcGluZyBwb25nAAAAAAA=
      >
      PRESETNAME "stock - basic 5 tap ping pong"
      FLOATPOS 0 0 0 0
      FXID {CD8BAA82-0FD5-9962-5D57-0C13D25A6C4F}
      WAK 0 0
      BYPASS 0 0 0
      <VST "VST: ReaVerb (Cockos)" reaverb.vst.so 0 "" 1919252066<56535472657662726561766572620000> ""
        YnZlcu5e7f4CAAAAAQAAAAAAAAACAAAAAAAAAAIAAAABAAAAAAAAAAIAAAAAAAAAcAAAAAEAAAAAAAAA
        AAAAwcybgD4AAIA/AAAAAAAAgD8AAIA/AAAAPwAAgD8AAAAAVkVSQkdFTgAYAAAAAAAAAJHgV0QdrLRA3rK7QsHIjEIAAIC/RUNIT0dFTgAcAAAAy/i2QLUjdUJdzdM/
        osdfP5lRrzyRzYxAnMQAPw==
        AHN3ZWV0dmVyYm8AAAAAAA==
      >
      PRESETNAME sweetverbo
      FLOATPOS 0 0 0 0
      FXID {769F33D2-CFCF-B87B-3CEA-90FD78CA52E4}
      WAK 0 0
    >
    <ITEM
      POSITION 0
      SNAPOFFS 0
      LENGTH 8
      LOOP 1
      ALLTAKES 0
      FADEIN 1 0 0 1 0 0
      FADEOUT 1 0 0 1 0 0
      MUTE 0
      SEL 1
      IGUID {36373DF4-13A3-B60C-58D2-96FF8B8A358E}
      IID 10
      NAME "01-Recorded MIDI"
      VOLPAN 1 0 1 -1
      SOFFS 0 0
      PLAYRATE 1 1 0 -1 0 0.0021
      CHANMODE 0
      GUID {10BC7E66-8CC4-5E6D-DC64-9E0CDCC849A8}
      RECPASS 1
      <SOURCE MIDI
        HASDATA 1 960 QN
        CCINTERP 32
        POOLEDEVTS {D0BA6719-3ACA-1FB1-9B7D-AA449A581CD8}
        E 0 90 3c 48
        E 0 90 40 48
        E 0 90 43 48
        E 1920 80 3c 00
        E 0 80 40 00
        E 0 80 43 00
        E 0 90 3c 48
        E 0 90 40 48
        E 0 90 43 48
        E 260 80 3c 00
        E 0 80 40 00
        E 0 80 43 00
        E 440 90 3c 48
        E 0 90 40 48
        E 0 90 43 48
        E 260 80 3c 00
        E 0 80 40 00
        E 0 80 43 00
        e 514 90 3c 48
        e 0 90 40 48
        e 0 90 43 48
        e 260 80 3c 00
        e 0 80 40 00
        e 0 80 43 00
        E 186 90 43 48
        E 0 90 47 48
        E 20 90 40 48
        E 1900 80 43 00
        E 0 80 47 00
        E 0 80 40 00
        E 0 90 43 48
        E 0 90 47 48
        E 20 90 40 48
        E 240 80 43 00
        E 0 80 47 00
        E 0 80 40 00
        E 440 90 43 48
        E 0 90 47 48
        E 20 90 40 48
        E 240 80 43 00
        E 0 80 47 00
        E 0 80 40 00
        e 514 90 43 48
        e 0 90 47 48
        e 20 90 40 48
        e 240 80 43 00
        e 0 80 47 00
        e 0 80 40 00
        E 186 90 41 48
        E 0 90 45 48
        E 0 90 48 48
        E 1920 80 41 00
        E 0 80 45 00
        E 0 80 48 00
        E 0 90 41 48
        E 0 90 45 48
        E 0 90 48 48
        E 260 80 41 00
        E 0 80 45 00
        E 0 80 48 00
        E 440 90 41 48
        E 0 90 45 48
        E 0 90 48 48
        E 260 80 41 00
        E 0 80 45 00
        E 0 80 48 00
        e 514 90 41 48
        e 0 90 45 48
        e 0 90 48 48
        e 260 80 41 00
        e 0 80 45 00
        e 0 80 48 00
        E 162 90 3e 48
        E 24 90 41 48
        E 0 90 45 48
        E 1896 90 3e 48
        E 24 80 3e 00
        E 0 80 41 00
        E 0 80 45 00
        E 0 90 41 48
        E 0 90 45 48
        E 260 80 3e 00
        E 0 80 41 00
        E 0 80 45 00
        E 416 90 3e 48
        E 24 90 41 48
        E 0 90 45 48
        E 260 80 3e 00
        E 0 80 41 00
        E 0 80 45 00
        e 490 90 3e 48
        e 24 90 41 48
        e 0 90 45 48
        e 260 80 3e 00
        e 0 80 41 00
        e 0 80 45 00
        E 186 b0 7b 00
        CHASE_CC_TAKEOFFS 1
        GUID {7B9D708B-43E1-C8D4-C4B3-87E2A6C27801}
        IGNTEMPO 0 120 4 4
        SRCCOLOR 17
        VELLANE -1 100 0
        CFGEDITVIEW 0 0.045808 45 12 0 -1 0 0 0 0.5
        KEYSNAP 0
        TRACKSEL 0
        EVTFILTER 0 -1 -1 -1 -1 0 0 0 0 -1 -1 -1 -1 0 -1 0 -1 -1
        CFGEDIT 1 1 0 1 0 0 1 1 1 1 1 1 58 171 1253 866 0 0 0 0 0.25 0 0 0 0 0.5 0 0 1 64
      >
    >
    <ITEM
      POSITION 8
      SNAPOFFS 0
      LENGTH 8
      LOOP 1
      ALLTAKES 0
      FADEIN 1 0 0 1 0 0
      FADEOUT 1 0 0 1 0 0
      MUTE 0
      SEL 1
      IGUID {A78076BF-DD3D-2881-D0CB-966F6DB4196D}
      IID 11
      NAME "01-Recorded MIDI"
      VOLPAN 1 0 1 -1
      SOFFS 0 0
      PLAYRATE 1 1 0 -1 0 0.0021
      CHANMODE 0
      GUID {CA2F1062-4380-AACC-7377-9195D2F3917A}
      RECPASS 1
      <SOURCE MIDI
        HASDATA 1 960 QN
        CCINTERP 32
        POOLEDEVTS {58528534-4277-ECD6-77C5-B067A879EE68}
        E 0 90 3c 48
        E 0 90 40 48
        E 0 90 43 48
        E 1920 80 3c 00
        E 0 80 40 00
        E 0 80 43 00
        E 0 90 3c 48
        E 0 90 40 48
        E 0 90 43 48
        E 260 80 3c 00
        E 0 80 40 00
        E 0 80 43 00
        E 440 90 3c 48
        E 0 90 40 48
        E 0 90 43 48
        E 260 80 3c 00
        E 0 80 40 00
        E 0 80 43 00
        e 514 90 3c 48
        e 0 90 40 48
        e 0 90 43 48
        e 260 80 3c 00
        e 0 80 40 00
        e 0 80 43 00
        E 186 90 43 48
        E 0 90 47 48
        E 20 90 40 48
        E 1900 80 43 00
        E 0 80 47 00
        E 0 80 40 00
        E 0 90 43 48
        E 0 90 47 48
        E 20 90 40 48
        E 240 80 43 00
        E 0 80 47 00
        E 0 80 40 00
        E 440 90 43 48
        E 0 90 47 48
        E 20 90 40 48
        E 240 80 43 00
        E 0 80 47 00
        E 0 80 40 00
        e 514 90 43 48
        e 0 90 47 48
        e 20 90 40 48
        e 240 80 43 00
        e 0 80 47 00
        e 0 80 40 00
        E 186 90 41 48
        E 0 90 45 48
        E 0 90 48 48
        E 1920 80 41 00
        E 0 80 45 00
        E 0 80 48 00
        E 0 90 41 48
        E 0 90 45 48
        E 0 90 48 48
        E 260 80 41 00
        E 0 80 45 00
        E 0 80 48 00
        E 440 90 41 48
        E 0 90 45 48
        E 0 90 48 48
        E 260 80 41 00
        E 0 80 45 00
        E 0 80 48 00
        e 514 90 41 48
        e 0 90 45 48
        e 0 90 48 48
        e 260 80 41 00
        e 0 80 45 00
        e 0 80 48 00
        E 162 90 3e 48
        E 24 90 41 48
        E 0 90 45 48
        E 1896 90 3e 48
        E 24 80 3e 00
        E 0 80 41 00
        E 0 80 45 00
        E 0 90 41 48
        E 0 90 45 48
        E 260 80 3e 00
        E 0 80 41 00
        E 0 80 45 00
        E 416 90 3e 48
        E 24 90 41 48
        E 0 90 45 48
        E 260 80 3e 00
        E 0 80 41 00
        E 0 80 45 00
        e 490 90 3e 48
        e 24 90 41 48
        e 0 90 45 48
        e 260 80 3e 00
        e 0 80 41 00
        e 0 80 45 00
        E 186 b0 7b 00
        CHASE_CC_TAKEOFFS 1
        GUID {3131B4E2-B370-E352-A9C5-C8CA31551A86}
        IGNTEMPO 0 120 4 4
        SRCCOLOR 18
        VELLANE -1 100 0
        CFGEDITVIEW 0 0.045808 45 12 0 -1 0 0 0 0.5
        KEYSNAP 0
        TRACKSEL 0
        EVTFILTER 0 -1 -1 -1 -1 0 0 0 0 -1 -1 -1 -1 0 -1 0 -1 -1
        CFGEDIT 1 1 0 1 0 0 1 1 1 1 1 1 58 171 1253 866 0 0 0 0 0.25 0 0 0 0 0.5 0 0 1 64
      >
    >
    <ITEM
      POSITION 16
      SNAPOFFS 0
      LENGTH 8
      LOOP 1
      ALLTAKES 0
      FADEIN 1 0 0 1 0 0
      FADEOUT 1 0 0 1 0 0
      MUTE 0
      SEL 1
      IGUID {8F96C296-32C5-2ADC-3EAC-3D050AE3378E}
      IID 12
      NAME "01-Recorded MIDI"
      VOLPAN 1 0 1 -1
      SOFFS 0 0
      PLAYRATE 1 1 0 -1 0 0.0021
      CHANMODE 0
      GUID {0F9100F5-D499-0AAA-2F6E-8AF264AF8740}
      RECPASS 1
      <SOURCE MIDI
        HASDATA 1 960 QN
        CCINTERP 32
        POOLEDEVTS {EFBC4377-5363-596E-CBF1-7F26452A08FF}
        E 0 90 3c 48
        E 0 90 40 48
        E 0 90 43 48
        E 1920 80 3c 00
        E 0 80 40 00
        E 0 80 43 00
        E 0 90 3c 48
        E 0 90 40 48
        E 0 90 43 48
        E 260 80 3c 00
        E 0 80 40 00
        E 0 80 43 00
        E 440 90 3c 48
        E 0 90 40 48
        E 0 90 43 48
        E 260 80 3c 00
        E 0 80 40 00
        E 0 80 43 00
        e 514 90 3c 48
        e 0 90 40 48
        e 0 90 43 48
        e 260 80 3c 00
        e 0 80 40 00
        e 0 80 43 00
        E 186 90 43 48
        E 0 90 47 48
        E 20 90 40 48
        E 1900 80 43 00
        E 0 80 47 00
        E 0 80 40 00
        E 0 90 43 48
        E 0 90 47 48
        E 20 90 40 48
        E 240 80 43 00
        E 0 80 47 00
        E 0 80 40 00
        E 440 90 43 48
        E 0 90 47 48
        E 20 90 40 48
        E 240 80 43 00
        E 0 80 47 00
        E 0 80 40 00
        e 514 90 43 48
        e 0 90 47 48
        e 20 90 40 48
        e 240 80 43 00
        e 0 80 47 00
        e 0 80 40 00
        E 186 90 41 48
        E 0 90 45 48
        E 0 90 48 48
        E 1920 80 41 00
        E 0 80 45 00
        E 0 80 48 00
        E 0 90 41 48
        E 0 90 45 48
        E 0 90 48 48
        E 260 80 41 00
        E 0 80 45 00
        E 0 80 48 00
        E 440 90 41 48
        E 0 90 45 48
        E 0 90 48 48
        E 260 80 41 00
        E 0 80 45 00
        E 0 80 48 00
        e 514 90 41 48
        e 0 90 45 48
        e 0 90 48 48
        e 260 80 41 00
        e 0 80 45 00
        e 0 80 48 00
        E 162 90 3e 48
        E 24 90 41 48
        E 0 90 45 48
        E 1896 90 3e 48
        E 24 80 3e 00
        E 0 80 41 00
        E 0 80 45 00
        E 0 90 41 48
        E 0 90 45 48
        E 260 80 3e 00
        E 0 80 41 00
        E 0 80 45 00
        E 416 90 3e 48
        E 24 90 41 48
        E 0 90 45 48
        E 260 80 3e 00
        E 0 80 41 00
        E 0 80 45 00
        e 490 90 3e 48
        e 24 90 41 48
        e 0 90 45 48
        e 260 80 3e 00
        e 0 80 41 00
        e 0 80 45 00
        E 186 b0 7b 00
        CHASE_CC_TAKEOFFS 1
        GUID {48C567A2-895C-FB9B-FDBA-0ADB7004ABF3}
        IGNTEMPO 0 120 4 4
        SRCCOLOR 19
        VELLANE -1 100 0
        CFGEDITVIEW 0 0.045808 45 12 0 -1 0 0 0 0.5
        KEYSNAP 0
        TRACKSEL 0
        EVTFILTER 0 -1 -1 -1 -1 0 0 0 0 -1 -1 -1 -1 0 -1 0 -1 -1
        CFGEDIT 1 1 0 1 0 0 1 1 1 1 1 1 58 171 1253 866 0 0 0 0 0.25 0 0 0 0 0.5 0 0 1 64
      >
    >
    <ITEM
      POSITION 24
      SNAPOFFS 0
      LENGTH 8
      LOOP 1
      ALLTAKES 0
      FADEIN 1 0 0 1 0 0
      FADEOUT 1 0 0 1 0 0
      MUTE 0
      SEL 1
      IGUID {55B72400-F3E9-A587-B11B-7A35F0C91C66}
      IID 13
      NAME "01-Recorded MIDI"
      VOLPAN 1 0 1 -1
      SOFFS 0 0
      PLAYRATE 1 1 0 -1 0 0.0021
      CHANMODE 0
      GUID {B4976CDD-528C-E3F5-AF2A-4842B744F435}
      RECPASS 1
      <SOURCE MIDI
        HASDATA 1 960 QN
        CCINTERP 32
        POOLEDEVTS {3B0DB079-31D5-ACE4-A3D3-D49E5730C71B}
        E 0 90 3c 48
        E 0 90 40 48
        E 0 90 43 48
        E 1920 80 3c 00
        E 0 80 40 00
        E 0 80 43 00
        E 0 90 3c 48
        E 0 90 40 48
        E 0 90 43 48
        E 260 80 3c 00
        E 0 80 40 00
        E 0 80 43 00
        E 440 90 3c 48
        E 0 90 40 48
        E 0 90 43 48
        E 260 80 3c 00
        E 0 80 40 00
        E 0 80 43 00
        e 514 90 3c 48
        e 0 90 40 48
        e 0 90 43 48
        e 260 80 3c 00
        e 0 80 40 00
        e 0 80 43 00
        E 186 90 43 48
        E 0 90 47 48
        E 20 90 40 48
        E 1900 80 43 00
        E 0 80 47 00
        E 0 80 40 00
        E 0 90 43 48
        E 0 90 47 48
        E 20 90 40 48
        E 240 80 43 00
        E 0 80 47 00
        E 0 80 40 00
        E 440 90 43 48
        E 0 90 47 48
        E 20 90 40 48
        E 240 80 43 00
        E 0 80 47 00
        E 0 80 40 00
        e 514 90 43 48
        e 0 90 47 48
        e 20 90 40 48
        e 240 80 43 00
        e 0 80 47 00
        e 0 80 40 00
        E 186 90 41 48
        E 0 90 45 48
        E 0 90 48 48
        E 1920 80 41 00
        E 0 80 45 00
        E 0 80 48 00
        E 0 90 41 48
        E 0 90 45 48
        E 0 90 48 48
        E 260 80 41 00
        E 0 80 45 00
        E 0 80 48 00
        E 440 90 41 48
        E 0 90 45 48
        E 0 90 48 48
        E 260 80 41 00
        E 0 80 45 00
        E 0 80 48 00
        e 514 90 41 48
        e 0 90 45 48
        e 0 90 48 48
        e 260 80 41 00
        e 0 80 45 00
        e 0 80 48 00
        E 162 90 3e 48
        E 24 90 41 48
        E 0 90 45 48
        E 1896 90 3e 48
        E 24 80 3e 00
        E 0 80 41 00
        E 0 80 45 00
        E 0 90 41 48
        E 0 90 45 48
        E 260 80 3e 00
        E 0 80 41 00
        E 0 80 45 00
        E 416 90 3e 48
        E 24 90 41 48
        E 0 90 45 48
        E 260 80 3e 00
        E 0 80 41 00
        E 0 80 45 00
        e 490 90 3e 48
        e 24 90 41 48
        e 0 90 45 48
        e 260 80 3e 00
        e 0 80 41 00
        e 0 80 45 00
        E 186 b0 7b 00
        CHASE_CC_TAKEOFFS 1
        GUID {1DE38800-E2A1-41B5-9C8C-3291891093B1}
        IGNTEMPO 0 120 4 4
        SRCCOLOR 20
        VELLANE -1 100 0
        CFGEDITVIEW 0 0.045808 45 12 0 -1 0 0 0 0.5
        KEYSNAP 0
        TRACKSEL 0
        EVTFILTER 0 -1 -1 -1 -1 0 0 0 0 -1 -1 -1 -1 0 -1 0 -1 -1
        CFGEDIT 1 1 0 1 0 0 1 1 1 1 1 1 58 171 1253 866 0 0 0 0 0.25 0 0 0 0 0.5 0 0 1 64
      >
    >
    <ITEM
      POSITION 32
      SNAPOFFS 0
      LENGTH 8
      LOOP 1
      ALLTAKES 0
      FADEIN 1 0 0 1 0 0
      FADEOUT 1 0 0 1 0 0
      MUTE 0
      SEL 1
      IGUID {22C85B34-75D4-B8CA-859C-D0C2BB3877BD}
      IID 14
      NAME "01-Recorded MIDI"
      VOLPAN 1 0 1 -1
      SOFFS 0 0
      PLAYRATE 1 1 0 -1 0 0.0021
      CHANMODE 0
      GUID {AD6EEB9F-AF2C-2F54-D38F-FA7BEEE53E10}
      RECPASS 1
      <SOURCE MIDI
        HASDATA 1 960 QN
        CCINTERP 32
        POOLEDEVTS {97E50ED1-46F6-E2BC-8DF3-C2219FC46DD0}
        E 0 90 3c 48
        E 0 90 40 48
        E 0 90 43 48
        E 1920 80 3c 00
        E 0 80 40 00
        E 0 80 43 00
        E 0 90 3c 48
        E 0 90 40 48
        E 0 90 43 48
        E 260 80 3c 00
        E 0 80 40 00
        E 0 80 43 00
        E 440 90 3c 48
        E 0 90 40 48
        E 0 90 43 48
        E 260 80 3c 00
        E 0 80 40 00
        E 0 80 43 00
        e 514 90 3c 48
        e 0 90 40 48
        e 0 90 43 48
        e 260 80 3c 00
        e 0 80 40 00
        e 0 80 43 00
        E 186 90 43 48
        E 0 90 47 48
        E 20 90 40 48
        E 1900 80 43 00
        E 0 80 47 00
        E 0 80 40 00
        E 0 90 43 48
        E 0 90 47 48
        E 20 90 40 48
        E 240 80 43 00
        E 0 80 47 00
        E 0 80 40 00
        E 440 90 43 48
        E 0 90 47 48
        E 20 90 40 48
        E 240 80 43 00
        E 0 80 47 00
        E 0 80 40 00
        e 514 90 43 48
        e 0 90 47 48
        e 20 90 40 48
        e 240 80 43 00
        e 0 80 47 00
        e 0 80 40 00
        E 186 90 41 48
        E 0 90 45 48
        E 0 90 48 48
        E 1920 80 41 00
        E 0 80 45 00
        E 0 80 48 00
        E 0 90 41 48
        E 0 90 45 48
        E 0 90 48 48
        E 260 80 41 00
        E 0 80 45 00
        E 0 80 48 00
        E 440 90 41 48
        E 0 90 45 48
        E 0 90 48 48
        E 260 80 41 00
        E 0 80 45 00
        E 0 80 48 00
        e 514 90 41 48
        e 0 90 45 48
        e 0 90 48 48
        e 260 80 41 00
        e 0 80 45 00
        e 0 80 48 00
        E 162 90 3e 48
        E 24 90 41 48
        E 0 90 45 48
        E 1896 90 3e 48
        E 24 80 3e 00
        E 0 80 41 00
        E 0 80 45 00
        E 0 90 41 48
        E 0 90 45 48
        E 260 80 3e 00
        E 0 80 41 00
        E 0 80 45 00
        E 416 90 3e 48
        E 24 90 41 48
        E 0 90 45 48
        E 260 80 3e 00
        E 0 80 41 00
        E 0 80 45 00
        e 490 90 3e 48
        e 24 90 41 48
        e 0 90 45 48
        e 260 80 3e 00
        e 0 80 41 00
        e 0 80 45 00
        E 186 b0 7b 00
        CHASE_CC_TAKEOFFS 1
        GUID {0C3271F4-E233-9088-9B25-A722FAE7C579}
        IGNTEMPO 0 120 4 4
        SRCCOLOR 21
        VELLANE -1 100 0
        CFGEDITVIEW 0 0.045808 45 12 0 -1 0 0 0 0.5
        KEYSNAP 0
        TRACKSEL 0
        EVTFILTER 0 -1 -1 -1 -1 0 0 0 0 -1 -1 -1 -1 0 -1 0 -1 -1
        CFGEDIT 1 1 0 1 0 0 1 1 1 1 1 1 58 171 1253 866 0 0 0 0 0.25 0 0 0 0 0.5 0 0 1 64
      >
    >
    <ITEM
      POSITION 40
      SNAPOFFS 0
      LENGTH 8
      LOOP 1
      ALLTAKES 0
      FADEIN 1 0 0 1 0 0
      FADEOUT 1 0 0 1 0 0
      MUTE 0
      SEL 1
      IGUID {C9709886-87AC-C8C3-278E-9A3F2EE1A202}
      IID 15
      NAME "01-Recorded MIDI"
      VOLPAN 1 0 1 -1
      SOFFS 0 0
      PLAYRATE 1 1 0 -1 0 0.0021
      CHANMODE 0
      GUID {41842A56-6CAB-BE4B-66E3-118DB27225E9}
      RECPASS 1
      <SOURCE MIDI
        HASDATA 1 960 QN
        CCINTERP 32
        POOLEDEVTS {5F804A43-799E-63E1-68A4-33BDC8070717}
        E 0 90 3c 48
        E 0 90 40 48
        E 0 90 43 48
        E 1920 80 3c 00
        E 0 80 40 00
        E 0 80 43 00
        E 0 90 3c 48
        E 0 90 40 48
        E 0 90 43 48
        E 260 80 3c 00
        E 0 80 40 00
        E 0 80 43 00
        E 440 90 3c 48
        E 0 90 40 48
        E 0 90 43 48
        E 260 80 3c 00
        E 0 80 40 00
        E 0 80 43 00
        e 514 90 3c 48
        e 0 90 40 48
        e 0 90 43 48
        e 260 80 3c 00
        e 0 80 40 00
        e 0 80 43 00
        E 186 90 43 48
        E 0 90 47 48
        E 20 90 40 48
        E 1900 80 43 00
        E 0 80 47 00
        E 0 80 40 00
        E 0 90 43 48
        E 0 90 47 48
        E 20 90 40 48
        E 240 80 43 00
        E 0 80 47 00
        E 0 80 40 00
        E 440 90 43 48
        E 0 90 47 48
        E 20 90 40 48
        E 240 80 43 00
        E 0 80 47 00
        E 0 80 40 00
        e 514 90 43 48
        e 0 90 47 48
        e 20 90 40 48
        e 240 80 43 00
        e 0 80 47 00
        e 0 80 40 00
        E 186 90 41 48
        E 0 90 45 48
        E 0 90 48 48
        E 1920 80 41 00
        E 0 80 45 00
        E 0 80 48 00
        E 0 90 41 48
        E 0 90 45 48
        E 0 90 48 48
        E 260 80 41 00
        E 0 80 45 00
        E 0 80 48 00
        E 440 90 41 48
        E 0 90 45 48
        E 0 90 48 48
        E 260 80 41 00
        E 0 80 45 00
        E 0 80 48 00
        e 514 90 41 48
        e 0 90 45 48
        e 0 90 48 48
        e 260 80 41 00
        e 0 80 45 00
        e 0 80 48 00
        E 162 90 3e 48
        E 24 90 41 48
        E 0 90 45 48
        E 1896 90 3e 48
        E 24 80 3e 00
        E 0 80 41 00
        E 0 80 45 00
        E 0 90 41 48
        E 0 90 45 48
        E 260 80 3e 00
        E 0 80 41 00
        E 0 80 45 00
        E 416 90 3e 48
        E 24 90 41 48
        E 0 90 45 48
        E 260 80 3e 00
        E 0 80 41 00
        E 0 80 45 00
        e 490 90 3e 48
        e 24 90 41 48
        e 0 90 45 48
        e 260 80 3e 00
        e 0 80 41 00
        e 0 80 45 00
        E 186 b0 7b 00
        CHASE_CC_TAKEOFFS 1
        GUID {040E7AF8-3572-5D91-3C86-797AEE7444D4}
        IGNTEMPO 0 120 4 4
        SRCCOLOR 22
        VELLANE -1 100 0
        CFGEDITVIEW 0 0.045808 45 12 0 -1 0 0 0 0.5
        KEYSNAP 0
        TRACKSEL 0
        EVTFILTER 0 -1 -1 -1 -1 0 0 0 0 -1 -1 -1 -1 0 -1 0 -1 -1
        CFGEDIT 1 1 0 1 0 0 1 1 1 1 1 1 58 171 1253 866 0 0 0 0 0.25 0 0 0 0 0.5 0 0 1 64
      >
    >
    <ITEM
      POSITION 48
      SNAPOFFS 0
      LENGTH 8
      LOOP 1
      ALLTAKES 0
      FADEIN 1 0 0 1 0 0
      FADEOUT 1 0 0 1 0 0
      MUTE 0
      SEL 1
      IGUID {5B631E59-28CF-9272-3D47-69ADE4B0D77A}
      IID 16
      NAME "01-Recorded MIDI"
      VOLPAN 1 0 1 -1
      SOFFS 0 0
      PLAYRATE 1 1 0 -1 0 0.0021
      CHANMODE 0
      GUID {AE991D17-6FA0-D6D2-FFB6-8903652C60A6}
      RECPASS 1
      <SOURCE MIDI
        HASDATA 1 960 QN
        CCINTERP 32
        POOLEDEVTS {C55F7B18-345C-CE52-13D4-78E4EDB38201}
        E 0 90 3c 48
        E 0 90 40 48
        E 0 90 43 48
        E 1920 80 3c 00
        E 0 80 40 00
        E 0 80 43 00
        E 0 90 3c 48
        E 0 90 40 48
        E 0 90 43 48
        E 260 80 3c 00
        E 0 80 40 00
        E 0 80 43 00
        E 440 90 3c 48
        E 0 90 40 48
        E 0 90 43 48
        E 260 80 3c 00
        E 0 80 40 00
        E 0 80 43 00
        e 514 90 3c 48
        e 0 90 40 48
        e 0 90 43 48
        e 260 80 3c 00
        e 0 80 40 00
        e 0 80 43 00
        E 186 90 43 48
        E 0 90 47 48
        E 20 90 40 48
        E 1900 80 43 00
        E 0 80 47 00
        E 0 80 40 00
        E 0 90 43 48
        E 0 90 47 48
        E 20 90 40 48
        E 240 80 43 00
        E 0 80 47 00
        E 0 80 40 00
        E 440 90 43 48
        E 0 90 47 48
        E 20 90 40 48
        E 240 80 43 00
        E 0 80 47 00
        E 0 80 40 00
        e 514 90 43 48
        e 0 90 47 48
        e 20 90 40 48
        e 240 80 43 00
        e 0 80 47 00
        e 0 80 40 00
        E 186 90 41 48
        E 0 90 45 48
        E 0 90 48 48
        E 1920 80 41 00
        E 0 80 45 00
        E 0 80 48 00
        E 0 90 41 48
        E 0 90 45 48
        E 0 90 48 48
        E 260 80 41 00
        E 0 80 45 00
        E 0 80 48 00
        E 440 90 41 48
        E 0 90 45 48
        E 0 90 48 48
        E 260 80 41 00
        E 0 80 45 00
        E 0 80 48 00
        e 514 90 41 48
        e 0 90 45 48
        e 0 90 48 48
        e 260 80 41 00
        e 0 80 45 00
        e 0 80 48 00
        E 162 90 3e 48
        E 24 90 41 48
        E 0 90 45 48
        E 1896 90 3e 48
        E 24 80 3e 00
        E 0 80 41 00
        E 0 80 45 00
        E 0 90 41 48
        E 0 90 45 48
        E 260 80 3e 00
        E 0 80 41 00
        E 0 80 45 00
        E 416 90 3e 48
        E 24 90 41 48
        E 0 90 45 48
        E 260 80 3e 00
        E 0 80 41 00
        E 0 80 45 00
        e 490 90 3e 48
        e 24 90 41 48
        e 0 90 45 48
        e 260 80 3e 00
        e 0 80 41 00
        e 0 80 45 00
        E 186 b0 7b 00
        CHASE_CC_TAKEOFFS 1
        GUID {2338968B-6CF9-9F40-300F-DEB89D3392EA}
        IGNTEMPO 0 120 4 4
        SRCCOLOR 23
        VELLANE -1 100 0
        CFGEDITVIEW 0 0.045808 45 12 0 -1 0 0 0 0.5
        KEYSNAP 0
        TRACKSEL 0
        EVTFILTER 0 -1 -1 -1 -1 0 0 0 0 -1 -1 -1 -1 0 -1 0 -1 -1
        CFGEDIT 1 1 0 1 0 0 1 1 1 1 1 1 58 171 1253 866 0 0 0 0 0.25 0 0 0 0 0.5 0 0 1 64
      >
    >
    <ITEM
      POSITION 56
      SNAPOFFS 0
      LENGTH 8
      LOOP 1
      ALLTAKES 0
      FADEIN 1 0 0 1 0 0
      FADEOUT 1 0 0 1 0 0
      MUTE 0
      SEL 1
      IGUID {ED5436AA-BFD9-5D12-A346-A4D57B88CCFF}
      IID 17
      NAME "01-Recorded MIDI"
      VOLPAN 1 0 1 -1
      SOFFS 0 0
      PLAYRATE 1 1 0 -1 0 0.0021
      CHANMODE 0
      GUID {ED104AC4-7F3F-3C30-9556-4293BFCF91A9}
      RECPASS 1
      <SOURCE MIDI
        HASDATA 1 960 QN
        CCINTERP 32
        POOLEDEVTS {FBEE25D7-EE7B-F9CC-CAB7-177E8DD1FD33}
        E 0 90 3c 48
        E 0 90 40 48
        E 0 90 43 48
        E 1920 80 3c 00
        E 0 80 40 00
        E 0 80 43 00
        E 0 90 3c 48
        E 0 90 40 48
        E 0 90 43 48
        E 260 80 3c 00
        E 0 80 40 00
        E 0 80 43 00
        E 440 90 3c 48
        E 0 90 40 48
        E 0 90 43 48
        E 260 80 3c 00
        E 0 80 40 00
        E 0 80 43 00
        e 514 90 3c 48
        e 0 90 40 48
        e 0 90 43 48
        e 260 80 3c 00
        e 0 80 40 00
        e 0 80 43 00
        E 186 90 43 48
        E 0 90 47 48
        E 20 90 40 48
        E 1900 80 43 00
        E 0 80 47 00
        E 0 80 40 00
        E 0 90 43 48
        E 0 90 47 48
        E 20 90 40 48
        E 240 80 43 00
        E 0 80 47 00
        E 0 80 40 00
        E 440 90 43 48
        E 0 90 47 48
        E 20 90 40 48
        E 240 80 43 00
        E 0 80 47 00
        E 0 80 40 00
        e 514 90 43 48
        e 0 90 47 48
        e 20 90 40 48
        e 240 80 43 00
        e 0 80 47 00
        e 0 80 40 00
        E 186 90 41 48
        E 0 90 45 48
        E 0 90 48 48
        E 1920 80 41 00
        E 0 80 45 00
        E 0 80 48 00
        E 0 90 41 48
        E 0 90 45 48
        E 0 90 48 48
        E 260 80 41 00
        E 0 80 45 00
        E 0 80 48 00
        E 440 90 41 48
        E 0 90 45 48
        E 0 90 48 48
        E 260 80 41 00
        E 0 80 45 00
        E 0 80 48 00
        e 514 90 41 48
        e 0 90 45 48
        e 0 90 48 48
        e 260 80 41 00
        e 0 80 45 00
        e 0 80 48 00
        E 162 90 3e 48
        E 24 90 41 48
        E 0 90 45 48
        E 1896 90 3e 48
        E 24 80 3e 00
        E 0 80 41 00
        E 0 80 45 00
        E 0 90 41 48
        E 0 90 45 48
        E 260 80 3e 00
        E 0 80 41 00
        E 0 80 45 00
        E 416 90 3e 48
        E 24 90 41 48
        E 0 90 45 48
        E 260 80 3e 00
        E 0 80 41 00
        E 0 80 45 00
        e 490 90 3e 48
        e 24 90 41 48
        e 0 90 45 48
        e 260 80 3e 00
        e 0 80 41 00
        e 0 80 45 00
        E 186 b0 7b 00
        CHASE_CC_TAKEOFFS 1
        GUID {A64857E2-94F8-0990-20DF-4C1E9B5E6251}
        IGNTEMPO 0 120 4 4
        SRCCOLOR 24
        VELLANE -1 100 0
        CFGEDITVIEW 0 0.045808 45 12 0 -1 0 0 0 0.5
        KEYSNAP 0
        TRACKSEL 0
        EVTFILTER 0 -1 -1 -1 -1 0 0 0 0 -1 -1 -1 -1 0 -1 0 -1 -1
        CFGEDIT 1 1 0 1 0 0 1 1 1 1 1 1 58 171 1253 866 0 0 0 0 0.25 0 0 0 0 0.5 0 0 1 64
      >
    >
    <ITEM
      POSITION 64
      SNAPOFFS 0
      LENGTH 8
      LOOP 1
      ALLTAKES 0
      FADEIN 1 0 0 1 0 0
      FADEOUT 1 0 0 1 0 0
      MUTE 0
      SEL 1
      IGUID {5D0398C7-7C16-E5A8-A603-A14E56DDDD39}
      IID 18
      NAME "01-Recorded MIDI"
      VOLPAN 1 0 1 -1
      SOFFS 0 0
      PLAYRATE 1 1 0 -1 0 0.0021
      CHANMODE 0
      GUID {688AE7DD-FDCE-D440-3D40-B48F05D20094}
      RECPASS 1
      <SOURCE MIDI
        HASDATA 1 960 QN
        CCINTERP 32
        POOLEDEVTS {49A18D5E-8F0F-FDE6-CFFB-16250D721408}
        E 0 90 3c 48
        E 0 90 40 48
        E 0 90 43 48
        E 1920 80 3c 00
        E 0 80 40 00
        E 0 80 43 00
        E 0 90 3c 48
        E 0 90 40 48
        E 0 90 43 48
        E 260 80 3c 00
        E 0 80 40 00
        E 0 80 43 00
        E 440 90 3c 48
        E 0 90 40 48
        E 0 90 43 48
        E 260 80 3c 00
        E 0 80 40 00
        E 0 80 43 00
        e 514 90 3c 48
        e 0 90 40 48
        e 0 90 43 48
        e 260 80 3c 00
        e 0 80 40 00
        e 0 80 43 00
        E 186 90 43 48
        E 0 90 47 48
        E 20 90 40 48
        E 1900 80 43 00
        E 0 80 47 00
        E 0 80 40 00
        E 0 90 43 48
        E 0 90 47 48
        E 20 90 40 48
        E 240 80 43 00
        E 0 80 47 00
        E 0 80 40 00
        E 440 90 43 48
        E 0 90 47 48
        E 20 90 40 48
        E 240 80 43 00
        E 0 80 47 00
        E 0 80 40 00
        e 514 90 43 48
        e 0 90 47 48
        e 20 90 40 48
        e 240 80 43 00
        e 0 80 47 00
        e 0 80 40 00
        E 186 90 41 48
        E 0 90 45 48
        E 0 90 48 48
        E 1920 80 41 00
        E 0 80 45 00
        E 0 80 48 00
        E 0 90 41 48
        E 0 90 45 48
        E 0 90 48 48
        E 260 80 41 00
        E 0 80 45 00
        E 0 80 48 00
        E 440 90 41 48
        E 0 90 45 48
        E 0 90 48 48
        E 260 80 41 00
        E 0 80 45 00
        E 0 80 48 00
        e 514 90 41 48
        e 0 90 45 48
        e 0 90 48 48
        e 260 80 41 00
        e 0 80 45 00
        e 0 80 48 00
        E 162 90 3e 48
        E 24 90 41 48
        E 0 90 45 48
        E 1896 90 3e 48
        E 24 80 3e 00
        E 0 80 41 00
        E 0 80 45 00
        E 0 90 41 48
        E 0 90 45 48
        E 260 80 3e 00
        E 0 80 41 00
        E 0 80 45 00
        E 416 90 3e 48
        E 24 90 41 48
        E 0 90 45 48
        E 260 80 3e 00
        E 0 80 41 00
        E 0 80 45 00
        e 490 90 3e 48
        e 24 90 41 48
        e 0 90 45 48
        e 260 80 3e 00
        e 0 80 41 00
        e 0 80 45 00
        E 186 b0 7b 00
        CHASE_CC_TAKEOFFS 1
        GUID {19362806-85F2-5D9E-E1F9-07BE0CF3D16E}
        IGNTEMPO 0 120 4 4
        SRCCOLOR 25
        VELLANE -1 100 0
        CFGEDITVIEW 0 0.045808 45 12 0 -1 0 0 0 0.5
        KEYSNAP 0
        TRACKSEL 0
        EVTFILTER 0 -1 -1 -1 -1 0 0 0 0 -1 -1 -1 -1 0 -1 0 -1 -1
        CFGEDIT 1 1 0 1 0 0 1 1 1 1 1 1 58 171 1253 866 0 0 0 0 0.25 0 0 0 0 0.5 0 0 1 64
      >
    >
    <ITEM
      POSITION 72
      SNAPOFFS 0
      LENGTH 8
      LOOP 1
      ALLTAKES 0
      FADEIN 1 0 0 1 0 0
      FADEOUT 1 0 0 1 0 0
      MUTE 0
      SEL 1
      IGUID {7B9A6C38-A6C3-D724-2241-2AB55067C77E}
      IID 19
      NAME "01-Recorded MIDI"
      VOLPAN 1 0 1 -1
      SOFFS 0 0
      PLAYRATE 1 1 0 -1 0 0.0021
      CHANMODE 0
      GUID {9E7974F4-14BC-CAA3-8B5C-DDD026643FCD}
      RECPASS 1
      <SOURCE MIDI
        HASDATA 1 960 QN
        CCINTERP 32
        POOLEDEVTS {EEDA5C48-B0C0-D226-7348-45406E972B2D}
        E 0 90 3c 48
        E 0 90 40 48
        E 0 90 43 48
        E 1920 80 3c 00
        E 0 80 40 00
        E 0 80 43 00
        E 0 90 3c 48
        E 0 90 40 48
        E 0 90 43 48
        E 260 80 3c 00
        E 0 80 40 00
        E 0 80 43 00
        E 440 90 3c 48
        E 0 90 40 48
        E 0 90 43 48
        E 260 80 3c 00
        E 0 80 40 00
        E 0 80 43 00
        e 514 90 3c 48
        e 0 90 40 48
        e 0 90 43 48
        e 260 80 3c 00
        e 0 80 40 00
        e 0 80 43 00
        E 186 90 43 48
        E 0 90 47 48
        E 20 90 40 48
        E 1900 80 43 00
        E 0 80 47 00
        E 0 80 40 00
        E 0 90 43 48
        E 0 90 47 48
        E 20 90 40 48
        E 240 80 43 00
        E 0 80 47 00
        E 0 80 40 00
        E 440 90 43 48
        E 0 90 47 48
        E 20 90 40 48
        E 240 80 43 00
        E 0 80 47 00
        E 0 80 40 00
        e 514 90 43 48
        e 0 90 47 48
        e 20 90 40 48
        e 240 80 43 00
        e 0 80 47 00
        e 0 80 40 00
        E 186 90 41 48
        E 0 90 45 48
        E 0 90 48 48
        E 1920 80 41 00
        E 0 80 45 00
        E 0 80 48 00
        E 0 90 41 48
        E 0 90 45 48
        E 0 90 48 48
        E 260 80 41 00
        E 0 80 45 00
        E 0 80 48 00
        E 440 90 41 48
        E 0 90 45 48
        E 0 90 48 48
        E 260 80 41 00
        E 0 80 45 00
        E 0 80 48 00
        e 514 90 41 48
        e 0 90 45 48
        e 0 90 48 48
        e 260 80 41 00
        e 0 80 45 00
        e 0 80 48 00
        E 162 90 3e 48
        E 24 90 41 48
        E 0 90 45 48
        E 1896 90 3e 48
        E 24 80 3e 00
        E 0 80 41 00
        E 0 80 45 00
        E 0 90 41 48
        E 0 90 45 48
        E 260 80 3e 00
        E 0 80 41 00
        E 0 80 45 00
        E 416 90 3e 48
        E 24 90 41 48
        E 0 90 45 48
        E 260 80 3e 00
        E 0 80 41 00
        E 0 80 45 00
        e 490 90 3e 48
        e 24 90 41 48
        e 0 90 45 48
        e 260 80 3e 00
        e 0 80 41 00
        e 0 80 45 00
        E 186 b0 7b 00
        CHASE_CC_TAKEOFFS 1
        GUID {6844F8A9-6BE9-023C-4A46-0A676470C99B}
        IGNTEMPO 0 120 4 4
        SRCCOLOR 26
        VELLANE -1 100 0
        CFGEDITVIEW 0 0.045808 45 12 0 -1 0 0 0 0.5
        KEYSNAP 0
        TRACKSEL 0
        EVTFILTER 0 -1 -1 -1 -1 0 0 0 0 -1 -1 -1 -1 0 -1 0 -1 -1
        CFGEDIT 1 1 0 1 0 0 1 1 1 1 1 1 58 171 1253 866 0 0 0 0 0.25 0 0 0 0 0.5 0 0 1 64
      >
    >
    <ITEM
      POSITION 80
      SNAPOFFS 0
      LENGTH 8
      LOOP 1
      ALLTAKES 0
      FADEIN 1 0 0 1 0 0
      FADEOUT 1 0 0 1 0 0
      MUTE 0
      SEL 1
      IGUID {46D82C31-AC9B-AF65-2C11-77BF7A5E9119}
      IID 20
      NAME "01-Recorded MIDI"
      VOLPAN 1 0 1 -1
      SOFFS 0 0
      PLAYRATE 1 1 0 -1 0 0.0021
      CHANMODE 0
      GUID {4115BEB9-19FE-E2CB-240B-C9D750A989DA}
      RECPASS 1
      <SOURCE MIDI
        HASDATA 1 960 QN
        CCINTERP 32
        POOLEDEVTS {1DB4B9E9-811B-C458-B4DD-9E6BBE8DBA31}
        E 0 90 3c 48
        E 0 90 40 48
        E 0 90 43 48
        E 1920 80 3c 00
        E 0 80 40 00
        E 0 80 43 00
        E 0 90 3c 48
        E 0 90 40 48
        E 0 90 43 48
        E 260 80 3c 00
        E 0 80 40 00
        E 0 80 43 00
        E 440 90 3c 48
        E 0 90 40 48
        E 0 90 43 48
        E 260 80 3c 00
        E 0 80 40 00
        E 0 80 43 00
        e 514 90 3c 48
        e 0 90 40 48
        e 0 90 43 48
        e 260 80 3c 00
        e 0 80 40 00
        e 0 80 43 00
        E 186 90 43 48
        E 0 90 47 48
        E 20 90 40 48
        E 1900 80 43 00
        E 0 80 47 00
        E 0 80 40 00
        E 0 90 43 48
        E 0 90 47 48
        E 20 90 40 48
        E 240 80 43 00
        E 0 80 47 00
        E 0 80 40 00
        E 440 90 43 48
        E 0 90 47 48
        E 20 90 40 48
        E 240 80 43 00
        E 0 80 47 00
        E 0 80 40 00
        e 514 90 43 48
        e 0 90 47 48
        e 20 90 40 48
        e 240 80 43 00
        e 0 80 47 00
        e 0 80 40 00
        E 186 90 41 48
        E 0 90 45 48
        E 0 90 48 48
        E 1920 80 41 00
        E 0 80 45 00
        E 0 80 48 00
        E 0 90 41 48
        E 0 90 45 48
        E 0 90 48 48
        E 260 80 41 00
        E 0 80 45 00
        E 0 80 48 00
        E 440 90 41 48
        E 0 90 45 48
        E 0 90 48 48
        E 260 80 41 00
        E 0 80 45 00
        E 0 80 48 00
        e 514 90 41 48
        e 0 90 45 48
        e 0 90 48 48
        e 260 80 41 00
        e 0 80 45 00
        e 0 80 48 00
        E 162 90 3e 48
        E 24 90 41 48
        E 0 90 45 48
        E 1896 90 3e 48
        E 24 80 3e 00
        E 0 80 41 00
        E 0 80 45 00
        E 0 90 41 48
        E 0 90 45 48
        E 260 80 3e 00
        E 0 80 41 00
        E 0 80 45 00
        E 416 90 3e 48
        E 24 90 41 48
        E 0 90 45 48
        E 260 80 3e 00
        E 0 80 41 00
        E 0 80 45 00
        e 490 90 3e 48
        e 24 90 41 48
        e 0 90 45 48
        e 260 80 3e 00
        e 0 80 41 00
        e 0 80 45 00
        E 186 b0 7b 00
        CHASE_CC_TAKEOFFS 1
        GUID {E611ADB6-4869-6CCA-8E83-3954D5E743B1}
        IGNTEMPO 0 120 4 4
        SRCCOLOR 27
        VELLANE -1 100 0
        CFGEDITVIEW 0 0.045808 45 12 0 -1 0 0 0 0.5
        KEYSNAP 0
        TRACKSEL 0
        EVTFILTER 0 -1 -1 -1 -1 0 0 0 0 -1 -1 -1 -1 0 -1 0 -1 -1
        CFGEDIT 1 1 0 1 0 0 1 1 1 1 1 1 58 171 1253 866 0 0 0 0 0.25 0 0 0 0 0.5 0 0 1 64
      >
    >
    <ITEM
      POSITION 88
      SNAPOFFS 0
      LENGTH 8
      LOOP 1
      ALLTAKES 0
      FADEIN 1 0 0 1 0 0
      FADEOUT 1 0 0 1 0 0
      MUTE 0
      SEL 1
      IGUID {54BBA718-DEE8-1028-EB7B-51BEBAFBFA5F}
      IID 21
      NAME "01-Recorded MIDI"
      VOLPAN 1 0 1 -1
      SOFFS 0 0
      PLAYRATE 1 1 0 -1 0 0.0021
      CHANMODE 0
      GUID {77A50532-A53F-922D-A2D2-4D4F82B75AA5}
      RECPASS 1
      <SOURCE MIDI
        HASDATA 1 960 QN
        CCINTERP 32
        POOLEDEVTS {1C6D8157-6CFB-3A9C-8145-F0E327F51191}
        E 0 90 3c 48
        E 0 90 40 48
        E 0 90 43 48
        E 1920 80 3c 00
        E 0 80 40 00
        E 0 80 43 00
        E 0 90 3c 48
        E 0 90 40 48
        E 0 90 43 48
        E 260 80 3c 00
        E 0 80 40 00
        E 0 80 43 00
        E 440 90 3c 48
        E 0 90 40 48
        E 0 90 43 48
        E 260 80 3c 00
        E 0 80 40 00
        E 0 80 43 00
        e 514 90 3c 48
        e 0 90 40 48
        e 0 90 43 48
        e 260 80 3c 00
        e 0 80 40 00
        e 0 80 43 00
        E 186 90 43 48
        E 0 90 47 48
        E 20 90 40 48
        E 1900 80 43 00
        E 0 80 47 00
        E 0 80 40 00
        E 0 90 43 48
        E 0 90 47 48
        E 20 90 40 48
        E 240 80 43 00
        E 0 80 47 00
        E 0 80 40 00
        E 440 90 43 48
        E 0 90 47 48
        E 20 90 40 48
        E 240 80 43 00
        E 0 80 47 00
        E 0 80 40 00
        e 514 90 43 48
        e 0 90 47 48
        e 20 90 40 48
        e 240 80 43 00
        e 0 80 47 00
        e 0 80 40 00
        E 186 90 41 48
        E 0 90 45 48
        E 0 90 48 48
        E 1920 80 41 00
        E 0 80 45 00
        E 0 80 48 00
        E 0 90 41 48
        E 0 90 45 48
        E 0 90 48 48
        E 260 80 41 00
        E 0 80 45 00
        E 0 80 48 00
        E 440 90 41 48
        E 0 90 45 48
        E 0 90 48 48
        E 260 80 41 00
        E 0 80 45 00
        E 0 80 48 00
        e 514 90 41 48
        e 0 90 45 48
        e 0 90 48 48
        e 260 80 41 00
        e 0 80 45 00
        e 0 80 48 00
        E 162 90 3e 48
        E 24 90 41 48
        E 0 90 45 48
        E 1896 90 3e 48
        E 24 80 3e 00
        E 0 80 41 00
        E 0 80 45 00
        E 0 90 41 48
        E 0 90 45 48
        E 260 80 3e 00
        E 0 80 41 00
        E 0 80 45 00
        E 416 90 3e 48
        E 24 90 41 48
        E 0 90 45 48
        E 260 80 3e 00
        E 0 80 41 00
        E 0 80 45 00
        e 490 90 3e 48
        e 24 90 41 48
        e 0 90 45 48
        e 260 80 3e 00
        e 0 80 41 00
        e 0 80 45 00
        E 186 b0 7b 00
        CHASE_CC_TAKEOFFS 1
        GUID {C762B555-17FC-D765-5340-11D3487D2955}
        IGNTEMPO 0 120 4 4
        SRCCOLOR 28
        VELLANE -1 100 0
        CFGEDITVIEW 0 0.045808 45 12 0 -1 0 0 0 0.5
        KEYSNAP 0
        TRACKSEL 0
        EVTFILTER 0 -1 -1 -1 -1 0 0 0 0 -1 -1 -1 -1 0 -1 0 -1 -1
        CFGEDIT 1 1 0 1 0 0 1 1 1 1 1 1 58 171 1253 866 0 0 0 0 0.25 0 0 0 0 0.5 0 0 1 64
      >
    >
  >
  <TRACK {3C0869D3-384E-B001-B937-186B80A5B1B8}
    NAME ""
    PEAKCOL 16576
    BEAT -1
    AUTOMODE 0
    VOLPAN 0.00052194381917 0 -1 -1 1
    MUTESOLO 0 0 0
    IPHASE 0
    PLAYOFFS 0 1
    ISBUS 0 0
    BUSCOMP 0 0 0 0 0
    SHOWINMIX 1 0.6667 0.5 1 0.5 0 0 0
    FREEMODE 0
    SEL 0
    REC 0 5056 1 0 0 0 0
    VU 2
    TRACKHEIGHT 21 0 0
    INQ 0 0 0 0.5 100 0 0 100
    NCHAN 2
    FX 0
    TRACKID {3C0869D3-384E-B001-B937-186B80A5B1B8}
    PERF 0
    MIDIOUT -1
    MAINSEND 1 0
    <FXCHAIN
      WNDRECT 346 266 902 608
      SHOW 0
      LASTSEL 5
      DOCKED 0
      BYPASS 0 0 0
      <VST "VST: ReaEQ (Cockos)" reaeq.vst.so 0 "" 1919247729<56535472656571726561657100000000> ""
        cWVlcu5e7f4CAAAAAQAAAAAAAAACAAAAAAAAAAIAAAABAAAAAAAAAAIAAAAAAAAAqAAAAAEAAAAAABAA
        IQAAAAQAAAAEAAAAAQAAAEC4Xhmm+DRAAAAAAAAA8D8AAAAAAAAAQAEIAAAAAQAAAAAAAAAAwHJAAAAAAAAA8D8AAAAAAAAAQAEIAAAAAQAAAAAAAAAAQI9AAAAAAAAA
        8D8AAAAAAAAAQAEDAAAAAQAAAAABaCorbdRAAAAAAAAA8D8AAAAAAAAAQAEBAAAAAQAAAAAAAAAAAPA/AAAAAJoCAACcAQAA
        AEhpZ2ggbG93IHBhc3MAEAAAAA==
      >
      PRESETNAME "High low pass"
      FLOATPOS 0 0 0 0
      FXID {495954B6-71BD-2B91-7781-E7B16A380D1C}
      WAK 0 0
      BYPASS 0 0 0
      <VST "VSTi: ReaSynth (Cockos)" reasynth.vst.so 0 "" 1919251321<5653547265737972656173796E746800> ""
        eXNlcu9e7f4AAAAAAgAAAAEAAAAAAAAAAgAAAAAAAAA8AAAAAAAAAAAAEAA=
        776t3g3wrd6lm8Q7F7fROgAAAAAAAAAAAAAAAJCNuT3oZ4g9AACAPwAAAD8AAIA/AAAAAAAAAD8AAAAA
        AAAQAAAA
      >
      FLOATPOS 0 0 0 0
      FXID {065F37DE-CF3C-3EF3-94F1-21573CFF8A9F}
      WAK 0 0
      BYPASS 0 0 0
      <JS guitar/amp-model ""
        "Dumble Overdrive Special - Tweed Deluxe.wav" -21.000000 1.000000 0.000000 0.000000 -1.000000 - - - - - - - - - - - - - - - - - - - - - - - - - - - - - - - - - - - - - - - - - - - - - - - - - - - - - - - - - - 
      >
      FLOATPOS 0 0 0 0
      FXID {987828E9-7996-CA40-1E5A-5B45F15EC9CB}
      WAK 0 0
      BYPASS 0 0 0
      <VST "VST: ReaComp (Cockos)" reacomp.vst.so 0 "" 1919247213<5653547265636D726561636F6D700000> ""
        bWNlcu9e7f4EAAAAAQAAAAAAAAACAAAAAAAAAAQAAAAAAAAACAAAAAAAAAACAAAAAQAAAAAAAAACAAAAAAAAAFQAAAAAAAAAAAAQAA==
        776t3g3wrd5FoYg9/AWpPKWbxDsK16M8AAAAAAAAAAAAAIA/AAAAAAAAAAAAAAAAnNEHMwAAgD8AAAAAzMxMPQAAAAAAAAAAAAAAAAAAgD7YiZ09
        AAAQAAAA
      >
      FLOATPOS 0 0 0 0
      FXID {943A5F49-EF94-8D6E-F1EC-4187DC48FF93}
      WAK 0 0
      BYPASS 0 0 0
      <VST "VST: ReaDelay (Cockos)" readelay.vst.so 0 "" 1919247468<5653547265646C72656164656C617900> ""
        bGRlcu5e7f4CAAAAAQAAAAAAAAACAAAAAAAAAAIAAAABAAAAAAAAAAIAAAAAAAAA/AAAAAEAAAAAAAAA
        AAAAAAAAAAAFAAAALAAAAAIAAAAEAAAAAACAPwAAgD8AAAAAAACAPwAAAAAAAIA7vTeGNQAAgD8AAAAAAACAPwAAgD8AAIA/AAAAAAAAAAAAAIA/AAAAAAAAADwAAAAA
        AACAPwAAAAAAAIA/AACAP+87NT8AAIA/AAAAAAAAgD8AAAAAAABAPL03hjUAAIA/AAAAAAAAgD8AAIA/zk0AP6abhD4AAAAAAACAPwAAAAAAAIA8vTeGNQAAgD8AAAAA
        AACAPwAAgD8aqrU+pHA9PwAAAAAAAIA/AAAAAAAAoDy9N4Y1AACAPwAAAAAAAIA/AACAP/npAD4AAAA/
        AHN0b2NrIC0gYmFzaWMgNSB0YXAgcGluZyBwb25nAAAAAAA=
      >
      PRESETNAME "stock - basic 5 tap ping pong"
      FLOATPOS 0 0 0 0
      FXID {E7106412-F292-2FA3-D911-F6FBE851585D}
      WAK 0 0
      BYPASS 0 0 0
      <VST "VST: ReaVerb (Cockos)" reaverb.vst.so 0 "" 1919252066<56535472657662726561766572620000> ""
        YnZlcu5e7f4CAAAAAQAAAAAAAAACAAAAAAAAAAIAAAABAAAAAAAAAAIAAAAAAAAAcAAAAAEAAAAAAAAA
        AAAAwcybgD4AAIA/AAAAAAAAgD8AAIA/AAAAPwAAgD8AAAAAVkVSQkdFTgAYAAAAAAAAAJHgV0QdrLRA3rK7QsHIjEIAAIC/RUNIT0dFTgAcAAAAy/i2QLUjdUJdzdM/
        osdfP5lRrzyRzYxAnMQAPw==
        AHN3ZWV0dmVyYm8AAAAAAA==
      >
      PRESETNAME sweetverbo
      FLOATPOS 0 0 0 0
      FXID {61AF65F9-CB4A-DED7-B4B0-D931D488D23F}
      WAK 0 0
    >
    <ITEM
      POSITION 0
      SNAPOFFS 0
      LENGTH 8
      LOOP 1
      ALLTAKES 0
      FADEIN 1 0 0 1 0 0
      FADEOUT 1 0 0 1 0 0
      MUTE 0
      SEL 1
      IGUID {631BFFDB-4AC9-CD3D-01DC-BB485B6921EA}
      IID 10
      NAME "01-Recorded MIDI"
      VOLPAN 1 0 1 -1
      SOFFS 0 0
      PLAYRATE 1 1 0 -1 0 0.0021
      CHANMODE 0
      GUID {27AE37FC-94C8-3653-FAED-E420DB07F300}
      RECPASS 1
      <SOURCE MIDI
        HASDATA 1 960 QN
        CCINTERP 32
        POOLEDEVTS {8396C747-C730-967B-657F-31433BDDAF7E}
        E 0 90 3c 48
        E 0 90 40 48
        E 0 90 43 48
        E 1920 80 3c 00
        E 0 80 40 00
        E 0 80 43 00
        E 0 90 3c 48
        E 0 90 40 48
        E 0 90 43 48
        E 260 80 3c 00
        E 0 80 40 00
        E 0 80 43 00
        E 440 90 3c 48
        E 0 90 40 48
        E 0 90 43 48
        E 260 80 3c 00
        E 0 80 40 00
        E 0 80 43 00
        e 514 90 3c 48
        e 0 90 40 48
        e 0 90 43 48
        e 260 80 3c 00
        e 0 80 40 00
        e 0 80 43 00
        E 186 90 43 48
        E 0 90 47 48
        E 20 90 40 48
        E 1900 80 43 00
        E 0 80 47 00
        E 0 80 40 00
        E 0 90 43 48
        E 0 90 47 48
        E 20 90 40 48
        E 240 80 43 00
        E 0 80 47 00
        E 0 80 40 00
        E 440 90 43 48
        E 0 90 47 48
        E 20 90 40 48
        E 240 80 43 00
        E 0 80 47 00
        E 0 80 40 00
        e 514 90 43 48
        e 0 90 47 48
        e 20 90 40 48
        e 240 80 43 00
        e 0 80 47 00
        e 0 80 40 00
        E 186 90 41 48
        E 0 90 45 48
        E 0 90 48 48
        E 1920 80 41 00
        E 0 80 45 00
        E 0 80 48 00
        E 0 90 41 48
        E 0 90 45 48
        E 0 90 48 48
        E 260 80 41 00
        E 0 80 45 00
        E 0 80 48 00
        E 440 90 41 48
        E 0 90 45 48
        E 0 90 48 48
        E 260 80 41 00
        E 0 80 45 00
        E 0 80 48 00
        e 514 90 41 48
        e 0 90 45 48
        e 0 90 48 48
        e 260 80 41 00
        e 0 80 45 00
        e 0 80 48 00
        E 162 90 3e 48
        E 24 90 41 48
        E 0 90 45 48
        E 1896 90 3e 48
        E 24 80 3e 00
        E 0 80 41 00
        E 0 80 45 00
        E 0 90 41 48
        E 0 90 45 48
        E 260 80 3e 00
        E 0 80 41 00
        E 0 80 45 00
        E 416 90 3e 48
        E 24 90 41 48
        E 0 90 45 48
        E 260 80 3e 00
        E 0 80 41 00
        E 0 80 45 00
        e 490 90 3e 48
        e 24 90 41 48
        e 0 90 45 48
        e 260 80 3e 00
        e 0 80 41 00
        e 0 80 45 00
        E 186 b0 7b 00
        CHASE_CC_TAKEOFFS 1
        GUID {7B9D708B-43E1-C8D4-C4B3-87E2A6C27801}
        IGNTEMPO 0 120 4 4
        SRCCOLOR 17
        VELLANE -1 100 0
        CFGEDITVIEW 0 0.045808 45 12 0 -1 0 0 0 0.5
        KEYSNAP 0
        TRACKSEL 0
        EVTFILTER 0 -1 -1 -1 -1 0 0 0 0 -1 -1 -1 -1 0 -1 0 -1 -1
        CFGEDIT 1 1 0 1 0 0 1 1 1 1 1 1 58 171 1253 866 0 0 0 0 0.25 0 0 0 0 0.5 0 0 1 64
      >
    >
    <ITEM
      POSITION 8
      SNAPOFFS 0
      LENGTH 8
      LOOP 1
      ALLTAKES 0
      FADEIN 1 0 0 1 0 0
      FADEOUT 1 0 0 1 0 0
      MUTE 0
      SEL 1
      IGUID {DE809696-F645-DCB4-BB60-63CB7E230E52}
      IID 11
      NAME "01-Recorded MIDI"
      VOLPAN 1 0 1 -1
      SOFFS 0 0
      PLAYRATE 1 1 0 -1 0 0.0021
      CHANMODE 0
      GUID {6B622954-4B45-6C0E-1119-8ED0A5941FD2}
      RECPASS 1
      <SOURCE MIDI
        HASDATA 1 960 QN
        CCINTERP 32
        POOLEDEVTS {7A79B4AB-22B2-82E4-03E7-842A2B7D8732}
        E 0 90 3c 48
        E 0 90 40 48
        E 0 90 43 48
        E 1920 80 3c 00
        E 0 80 40 00
        E 0 80 43 00
        E 0 90 3c 48
        E 0 90 40 48
        E 0 90 43 48
        E 260 80 3c 00
        E 0 80 40 00
        E 0 80 43 00
        E 440 90 3c 48
        E 0 90 40 48
        E 0 90 43 48
        E 260 80 3c 00
        E 0 80 40 00
        E 0 80 43 00
        e 514 90 3c 48
        e 0 90 40 48
        e 0 90 43 48
        e 260 80 3c 00
        e 0 80 40 00
        e 0 80 43 00
        E 186 90 43 48
        E 0 90 47 48
        E 20 90 40 48
        E 1900 80 43 00
        E 0 80 47 00
        E 0 80 40 00
        E 0 90 43 48
        E 0 90 47 48
        E 20 90 40 48
        E 240 80 43 00
        E 0 80 47 00
        E 0 80 40 00
        E 440 90 43 48
        E 0 90 47 48
        E 20 90 40 48
        E 240 80 43 00
        E 0 80 47 00
        E 0 80 40 00
        e 514 90 43 48
        e 0 90 47 48
        e 20 90 40 48
        e 240 80 43 00
        e 0 80 47 00
        e 0 80 40 00
        E 186 90 41 48
        E 0 90 45 48
        E 0 90 48 48
        E 1920 80 41 00
        E 0 80 45 00
        E 0 80 48 00
        E 0 90 41 48
        E 0 90 45 48
        E 0 90 48 48
        E 260 80 41 00
        E 0 80 45 00
        E 0 80 48 00
        E 440 90 41 48
        E 0 90 45 48
        E 0 90 48 48
        E 260 80 41 00
        E 0 80 45 00
        E 0 80 48 00
        e 514 90 41 48
        e 0 90 45 48
        e 0 90 48 48
        e 260 80 41 00
        e 0 80 45 00
        e 0 80 48 00
        E 162 90 3e 48
        E 24 90 41 48
        E 0 90 45 48
        E 1896 90 3e 48
        E 24 80 3e 00
        E 0 80 41 00
        E 0 80 45 00
        E 0 90 41 48
        E 0 90 45 48
        E 260 80 3e 00
        E 0 80 41 00
        E 0 80 45 00
        E 416 90 3e 48
        E 24 90 41 48
        E 0 90 45 48
        E 260 80 3e 00
        E 0 80 41 00
        E 0 80 45 00
        e 490 90 3e 48
        e 24 90 41 48
        e 0 90 45 48
        e 260 80 3e 00
        e 0 80 41 00
        e 0 80 45 00
        E 186 b0 7b 00
        CHASE_CC_TAKEOFFS 1
        GUID {3131B4E2-B370-E352-A9C5-C8CA31551A86}
        IGNTEMPO 0 120 4 4
        SRCCOLOR 18
        VELLANE -1 100 0
        CFGEDITVIEW 0 0.045808 45 12 0 -1 0 0 0 0.5
        KEYSNAP 0
        TRACKSEL 0
        EVTFILTER 0 -1 -1 -1 -1 0 0 0 0 -1 -1 -1 -1 0 -1 0 -1 -1
        CFGEDIT 1 1 0 1 0 0 1 1 1 1 1 1 58 171 1253 866 0 0 0 0 0.25 0 0 0 0 0.5 0 0 1 64
      >
    >
    <ITEM
      POSITION 16
      SNAPOFFS 0
      LENGTH 8
      LOOP 1
      ALLTAKES 0
      FADEIN 1 0 0 1 0 0
      FADEOUT 1 0 0 1 0 0
      MUTE 0
      SEL 1
      IGUID {87FCDA21-2164-B68F-70E4-A92819AF47B9}
      IID 12
      NAME "01-Recorded MIDI"
      VOLPAN 1 0 1 -1
      SOFFS 0 0
      PLAYRATE 1 1 0 -1 0 0.0021
      CHANMODE 0
      GUID {109B95E1-8D89-DF7A-752E-09D5F03793EC}
      RECPASS 1
      <SOURCE MIDI
        HASDATA 1 960 QN
        CCINTERP 32
        POOLEDEVTS {0BC6E558-0EE0-4FAE-4DF9-C5D4B816CF65}
        E 0 90 3c 48
        E 0 90 40 48
        E 0 90 43 48
        E 1920 80 3c 00
        E 0 80 40 00
        E 0 80 43 00
        E 0 90 3c 48
        E 0 90 40 48
        E 0 90 43 48
        E 260 80 3c 00
        E 0 80 40 00
        E 0 80 43 00
        E 440 90 3c 48
        E 0 90 40 48
        E 0 90 43 48
        E 260 80 3c 00
        E 0 80 40 00
        E 0 80 43 00
        e 514 90 3c 48
        e 0 90 40 48
        e 0 90 43 48
        e 260 80 3c 00
        e 0 80 40 00
        e 0 80 43 00
        E 186 90 43 48
        E 0 90 47 48
        E 20 90 40 48
        E 1900 80 43 00
        E 0 80 47 00
        E 0 80 40 00
        E 0 90 43 48
        E 0 90 47 48
        E 20 90 40 48
        E 240 80 43 00
        E 0 80 47 00
        E 0 80 40 00
        E 440 90 43 48
        E 0 90 47 48
        E 20 90 40 48
        E 240 80 43 00
        E 0 80 47 00
        E 0 80 40 00
        e 514 90 43 48
        e 0 90 47 48
        e 20 90 40 48
        e 240 80 43 00
        e 0 80 47 00
        e 0 80 40 00
        E 186 90 41 48
        E 0 90 45 48
        E 0 90 48 48
        E 1920 80 41 00
        E 0 80 45 00
        E 0 80 48 00
        E 0 90 41 48
        E 0 90 45 48
        E 0 90 48 48
        E 260 80 41 00
        E 0 80 45 00
        E 0 80 48 00
        E 440 90 41 48
        E 0 90 45 48
        E 0 90 48 48
        E 260 80 41 00
        E 0 80 45 00
        E 0 80 48 00
        e 514 90 41 48
        e 0 90 45 48
        e 0 90 48 48
        e 260 80 41 00
        e 0 80 45 00
        e 0 80 48 00
        E 162 90 3e 48
        E 24 90 41 48
        E 0 90 45 48
        E 1896 90 3e 48
        E 24 80 3e 00
        E 0 80 41 00
        E 0 80 45 00
        E 0 90 41 48
        E 0 90 45 48
        E 260 80 3e 00
        E 0 80 41 00
        E 0 80 45 00
        E 416 90 3e 48
        E 24 90 41 48
        E 0 90 45 48
        E 260 80 3e 00
        E 0 80 41 00
        E 0 80 45 00
        e 490 90 3e 48
        e 24 90 41 48
        e 0 90 45 48
        e 260 80 3e 00
        e 0 80 41 00
        e 0 80 45 00
        E 186 b0 7b 00
        CHASE_CC_TAKEOFFS 1
        GUID {48C567A2-895C-FB9B-FDBA-0ADB7004ABF3}
        IGNTEMPO 0 120 4 4
        SRCCOLOR 19
        VELLANE -1 100 0
        CFGEDITVIEW 0 0.045808 45 12 0 -1 0 0 0 0.5
        KEYSNAP 0
        TRACKSEL 0
        EVTFILTER 0 -1 -1 -1 -1 0 0 0 0 -1 -1 -1 -1 0 -1 0 -1 -1
        CFGEDIT 1 1 0 1 0 0 1 1 1 1 1 1 58 171 1253 866 0 0 0 0 0.25 0 0 0 0 0.5 0 0 1 64
      >
    >
    <ITEM
      POSITION 24
      SNAPOFFS 0
      LENGTH 8
      LOOP 1
      ALLTAKES 0
      FADEIN 1 0 0 1 0 0
      FADEOUT 1 0 0 1 0 0
      MUTE 0
      SEL 1
      IGUID {F26BC46C-DF1D-448E-47F6-EDD3C2F65F65}
      IID 13
      NAME "01-Recorded MIDI"
      VOLPAN 1 0 1 -1
      SOFFS 0 0
      PLAYRATE 1 1 0 -1 0 0.0021
      CHANMODE 0
      GUID {F440373B-720A-120E-FDC9-AEB1BFC63294}
      RECPASS 1
      <SOURCE MIDI
        HASDATA 1 960 QN
        CCINTERP 32
        POOLEDEVTS {B636F56D-674B-0A11-A9EB-494CFD7E7621}
        E 0 90 3c 48
        E 0 90 40 48
        E 0 90 43 48
        E 1920 80 3c 00
        E 0 80 40 00
        E 0 80 43 00
        E 0 90 3c 48
        E 0 90 40 48
        E 0 90 43 48
        E 260 80 3c 00
        E 0 80 40 00
        E 0 80 43 00
        E 440 90 3c 48
        E 0 90 40 48
        E 0 90 43 48
        E 260 80 3c 00
        E 0 80 40 00
        E 0 80 43 00
        e 514 90 3c 48
        e 0 90 40 48
        e 0 90 43 48
        e 260 80 3c 00
        e 0 80 40 00
        e 0 80 43 00
        E 186 90 43 48
        E 0 90 47 48
        E 20 90 40 48
        E 1900 80 43 00
        E 0 80 47 00
        E 0 80 40 00
        E 0 90 43 48
        E 0 90 47 48
        E 20 90 40 48
        E 240 80 43 00
        E 0 80 47 00
        E 0 80 40 00
        E 440 90 43 48
        E 0 90 47 48
        E 20 90 40 48
        E 240 80 43 00
        E 0 80 47 00
        E 0 80 40 00
        e 514 90 43 48
        e 0 90 47 48
        e 20 90 40 48
        e 240 80 43 00
        e 0 80 47 00
        e 0 80 40 00
        E 186 90 41 48
        E 0 90 45 48
        E 0 90 48 48
        E 1920 80 41 00
        E 0 80 45 00
        E 0 80 48 00
        E 0 90 41 48
        E 0 90 45 48
        E 0 90 48 48
        E 260 80 41 00
        E 0 80 45 00
        E 0 80 48 00
        E 440 90 41 48
        E 0 90 45 48
        E 0 90 48 48
        E 260 80 41 00
        E 0 80 45 00
        E 0 80 48 00
        e 514 90 41 48
        e 0 90 45 48
        e 0 90 48 48
        e 260 80 41 00
        e 0 80 45 00
        e 0 80 48 00
        E 162 90 3e 48
        E 24 90 41 48
        E 0 90 45 48
        E 1896 90 3e 48
        E 24 80 3e 00
        E 0 80 41 00
        E 0 80 45 00
        E 0 90 41 48
        E 0 90 45 48
        E 260 80 3e 00
        E 0 80 41 00
        E 0 80 45 00
        E 416 90 3e 48
        E 24 90 41 48
        E 0 90 45 48
        E 260 80 3e 00
        E 0 80 41 00
        E 0 80 45 00
        e 490 90 3e 48
        e 24 90 41 48
        e 0 90 45 48
        e 260 80 3e 00
        e 0 80 41 00
        e 0 80 45 00
        E 186 b0 7b 00
        CHASE_CC_TAKEOFFS 1
        GUID {1DE38800-E2A1-41B5-9C8C-3291891093B1}
        IGNTEMPO 0 120 4 4
        SRCCOLOR 20
        VELLANE -1 100 0
        CFGEDITVIEW 0 0.045808 45 12 0 -1 0 0 0 0.5
        KEYSNAP 0
        TRACKSEL 0
        EVTFILTER 0 -1 -1 -1 -1 0 0 0 0 -1 -1 -1 -1 0 -1 0 -1 -1
        CFGEDIT 1 1 0 1 0 0 1 1 1 1 1 1 58 171 1253 866 0 0 0 0 0.25 0 0 0 0 0.5 0 0 1 64
      >
    >
    <ITEM
      POSITION 32
      SNAPOFFS 0
      LENGTH 8
      LOOP 1
      ALLTAKES 0
      FADEIN 1 0 0 1 0 0
      FADEOUT 1 0 0 1 0 0
      MUTE 0
      SEL 1
      IGUID {30F6ED8A-CBF9-417B-B4E0-CA3093D1E0CE}
      IID 14
      NAME "01-Recorded MIDI"
      VOLPAN 1 0 1 -1
      SOFFS 0 0
      PLAYRATE 1 1 0 -1 0 0.0021
      CHANMODE 0
      GUID {440E4C52-2F46-568B-1E8B-B2BB722C53CF}
      RECPASS 1
      <SOURCE MIDI
        HASDATA 1 960 QN
        CCINTERP 32
        POOLEDEVTS {E94B3BAE-28D3-FBEA-DEF3-FBA184A79FE2}
        E 0 90 3c 48
        E 0 90 40 48
        E 0 90 43 48
        E 1920 80 3c 00
        E 0 80 40 00
        E 0 80 43 00
        E 0 90 3c 48
        E 0 90 40 48
        E 0 90 43 48
        E 260 80 3c 00
        E 0 80 40 00
        E 0 80 43 00
        E 440 90 3c 48
        E 0 90 40 48
        E 0 90 43 48
        E 260 80 3c 00
        E 0 80 40 00
        E 0 80 43 00
        e 514 90 3c 48
        e 0 90 40 48
        e 0 90 43 48
        e 260 80 3c 00
        e 0 80 40 00
        e 0 80 43 00
        E 186 90 43 48
        E 0 90 47 48
        E 20 90 40 48
        E 1900 80 43 00
        E 0 80 47 00
        E 0 80 40 00
        E 0 90 43 48
        E 0 90 47 48
        E 20 90 40 48
        E 240 80 43 00
        E 0 80 47 00
        E 0 80 40 00
        E 440 90 43 48
        E 0 90 47 48
        E 20 90 40 48
        E 240 80 43 00
        E 0 80 47 00
        E 0 80 40 00
        e 514 90 43 48
        e 0 90 47 48
        e 20 90 40 48
        e 240 80 43 00
        e 0 80 47 00
        e 0 80 40 00
        E 186 90 41 48
        E 0 90 45 48
        E 0 90 48 48
        E 1920 80 41 00
        E 0 80 45 00
        E 0 80 48 00
        E 0 90 41 48
        E 0 90 45 48
        E 0 90 48 48
        E 260 80 41 00
        E 0 80 45 00
        E 0 80 48 00
        E 440 90 41 48
        E 0 90 45 48
        E 0 90 48 48
        E 260 80 41 00
        E 0 80 45 00
        E 0 80 48 00
        e 514 90 41 48
        e 0 90 45 48
        e 0 90 48 48
        e 260 80 41 00
        e 0 80 45 00
        e 0 80 48 00
        E 162 90 3e 48
        E 24 90 41 48
        E 0 90 45 48
        E 1896 90 3e 48
        E 24 80 3e 00
        E 0 80 41 00
        E 0 80 45 00
        E 0 90 41 48
        E 0 90 45 48
        E 260 80 3e 00
        E 0 80 41 00
        E 0 80 45 00
        E 416 90 3e 48
        E 24 90 41 48
        E 0 90 45 48
        E 260 80 3e 00
        E 0 80 41 00
        E 0 80 45 00
        e 490 90 3e 48
        e 24 90 41 48
        e 0 90 45 48
        e 260 80 3e 00
        e 0 80 41 00
        e 0 80 45 00
        E 186 b0 7b 00
        CHASE_CC_TAKEOFFS 1
        GUID {0C3271F4-E233-9088-9B25-A722FAE7C579}
        IGNTEMPO 0 120 4 4
        SRCCOLOR 21
        VELLANE -1 100 0
        CFGEDITVIEW 0 0.045808 45 12 0 -1 0 0 0 0.5
        KEYSNAP 0
        TRACKSEL 0
        EVTFILTER 0 -1 -1 -1 -1 0 0 0 0 -1 -1 -1 -1 0 -1 0 -1 -1
        CFGEDIT 1 1 0 1 0 0 1 1 1 1 1 1 58 171 1253 866 0 0 0 0 0.25 0 0 0 0 0.5 0 0 1 64
      >
    >
    <ITEM
      POSITION 40
      SNAPOFFS 0
      LENGTH 8
      LOOP 1
      ALLTAKES 0
      FADEIN 1 0 0 1 0 0
      FADEOUT 1 0 0 1 0 0
      MUTE 0
      SEL 1
      IGUID {7D052C48-EFBF-9192-CA2C-9D9ADB1EE69D}
      IID 15
      NAME "01-Recorded MIDI"
      VOLPAN 1 0 1 -1
      SOFFS 0 0
      PLAYRATE 1 1 0 -1 0 0.0021
      CHANMODE 0
      GUID {4F2B00D5-6301-9B80-A34B-D5C4B5399E77}
      RECPASS 1
      <SOURCE MIDI
        HASDATA 1 960 QN
        CCINTERP 32
        POOLEDEVTS {893A7BD2-78A7-BA92-A660-160D4FA0EEBB}
        E 0 90 3c 48
        E 0 90 40 48
        E 0 90 43 48
        E 1920 80 3c 00
        E 0 80 40 00
        E 0 80 43 00
        E 0 90 3c 48
        E 0 90 40 48
        E 0 90 43 48
        E 260 80 3c 00
        E 0 80 40 00
        E 0 80 43 00
        E 440 90 3c 48
        E 0 90 40 48
        E 0 90 43 48
        E 260 80 3c 00
        E 0 80 40 00
        E 0 80 43 00
        e 514 90 3c 48
        e 0 90 40 48
        e 0 90 43 48
        e 260 80 3c 00
        e 0 80 40 00
        e 0 80 43 00
        E 186 90 43 48
        E 0 90 47 48
        E 20 90 40 48
        E 1900 80 43 00
        E 0 80 47 00
        E 0 80 40 00
        E 0 90 43 48
        E 0 90 47 48
        E 20 90 40 48
        E 240 80 43 00
        E 0 80 47 00
        E 0 80 40 00
        E 440 90 43 48
        E 0 90 47 48
        E 20 90 40 48
        E 240 80 43 00
        E 0 80 47 00
        E 0 80 40 00
        e 514 90 43 48
        e 0 90 47 48
        e 20 90 40 48
        e 240 80 43 00
        e 0 80 47 00
        e 0 80 40 00
        E 186 90 41 48
        E 0 90 45 48
        E 0 90 48 48
        E 1920 80 41 00
        E 0 80 45 00
        E 0 80 48 00
        E 0 90 41 48
        E 0 90 45 48
        E 0 90 48 48
        E 260 80 41 00
        E 0 80 45 00
        E 0 80 48 00
        E 440 90 41 48
        E 0 90 45 48
        E 0 90 48 48
        E 260 80 41 00
        E 0 80 45 00
        E 0 80 48 00
        e 514 90 41 48
        e 0 90 45 48
        e 0 90 48 48
        e 260 80 41 00
        e 0 80 45 00
        e 0 80 48 00
        E 162 90 3e 48
        E 24 90 41 48
        E 0 90 45 48
        E 1896 90 3e 48
        E 24 80 3e 00
        E 0 80 41 00
        E 0 80 45 00
        E 0 90 41 48
        E 0 90 45 48
        E 260 80 3e 00
        E 0 80 41 00
        E 0 80 45 00
        E 416 90 3e 48
        E 24 90 41 48
        E 0 90 45 48
        E 260 80 3e 00
        E 0 80 41 00
        E 0 80 45 00
        e 490 90 3e 48
        e 24 90 41 48
        e 0 90 45 48
        e 260 80 3e 00
        e 0 80 41 00
        e 0 80 45 00
        E 186 b0 7b 00
        CHASE_CC_TAKEOFFS 1
        GUID {040E7AF8-3572-5D91-3C86-797AEE7444D4}
        IGNTEMPO 0 120 4 4
        SRCCOLOR 22
        VELLANE -1 100 0
        CFGEDITVIEW 0 0.045808 45 12 0 -1 0 0 0 0.5
        KEYSNAP 0
        TRACKSEL 0
        EVTFILTER 0 -1 -1 -1 -1 0 0 0 0 -1 -1 -1 -1 0 -1 0 -1 -1
        CFGEDIT 1 1 0 1 0 0 1 1 1 1 1 1 58 171 1253 866 0 0 0 0 0.25 0 0 0 0 0.5 0 0 1 64
      >
    >
    <ITEM
      POSITION 48
      SNAPOFFS 0
      LENGTH 8
      LOOP 1
      ALLTAKES 0
      FADEIN 1 0 0 1 0 0
      FADEOUT 1 0 0 1 0 0
      MUTE 0
      SEL 1
      IGUID {15DD1ECB-AA61-C9E2-E0AE-FE5E19B12A93}
      IID 16
      NAME "01-Recorded MIDI"
      VOLPAN 1 0 1 -1
      SOFFS 0 0
      PLAYRATE 1 1 0 -1 0 0.0021
      CHANMODE 0
      GUID {8766C673-61BD-AFC9-8DBF-EBE2138736E8}
      RECPASS 1
      <SOURCE MIDI
        HASDATA 1 960 QN
        CCINTERP 32
        POOLEDEVTS {31211483-729A-E727-2604-A6F4C4CC0719}
        E 0 90 3c 48
        E 0 90 40 48
        E 0 90 43 48
        E 1920 80 3c 00
        E 0 80 40 00
        E 0 80 43 00
        E 0 90 3c 48
        E 0 90 40 48
        E 0 90 43 48
        E 260 80 3c 00
        E 0 80 40 00
        E 0 80 43 00
        E 440 90 3c 48
        E 0 90 40 48
        E 0 90 43 48
        E 260 80 3c 00
        E 0 80 40 00
        E 0 80 43 00
        e 514 90 3c 48
        e 0 90 40 48
        e 0 90 43 48
        e 260 80 3c 00
        e 0 80 40 00
        e 0 80 43 00
        E 186 90 43 48
        E 0 90 47 48
        E 20 90 40 48
        E 1900 80 43 00
        E 0 80 47 00
        E 0 80 40 00
        E 0 90 43 48
        E 0 90 47 48
        E 20 90 40 48
        E 240 80 43 00
        E 0 80 47 00
        E 0 80 40 00
        E 440 90 43 48
        E 0 90 47 48
        E 20 90 40 48
        E 240 80 43 00
        E 0 80 47 00
        E 0 80 40 00
        e 514 90 43 48
        e 0 90 47 48
        e 20 90 40 48
        e 240 80 43 00
        e 0 80 47 00
        e 0 80 40 00
        E 186 90 41 48
        E 0 90 45 48
        E 0 90 48 48
        E 1920 80 41 00
        E 0 80 45 00
        E 0 80 48 00
        E 0 90 41 48
        E 0 90 45 48
        E 0 90 48 48
        E 260 80 41 00
        E 0 80 45 00
        E 0 80 48 00
        E 440 90 41 48
        E 0 90 45 48
        E 0 90 48 48
        E 260 80 41 00
        E 0 80 45 00
        E 0 80 48 00
        e 514 90 41 48
        e 0 90 45 48
        e 0 90 48 48
        e 260 80 41 00
        e 0 80 45 00
        e 0 80 48 00
        E 162 90 3e 48
        E 24 90 41 48
        E 0 90 45 48
        E 1896 90 3e 48
        E 24 80 3e 00
        E 0 80 41 00
        E 0 80 45 00
        E 0 90 41 48
        E 0 90 45 48
        E 260 80 3e 00
        E 0 80 41 00
        E 0 80 45 00
        E 416 90 3e 48
        E 24 90 41 48
        E 0 90 45 48
        E 260 80 3e 00
        E 0 80 41 00
        E 0 80 45 00
        e 490 90 3e 48
        e 24 90 41 48
        e 0 90 45 48
        e 260 80 3e 00
        e 0 80 41 00
        e 0 80 45 00
        E 186 b0 7b 00
        CHASE_CC_TAKEOFFS 1
        GUID {2338968B-6CF9-9F40-300F-DEB89D3392EA}
        IGNTEMPO 0 120 4 4
        SRCCOLOR 23
        VELLANE -1 100 0
        CFGEDITVIEW 0 0.045808 45 12 0 -1 0 0 0 0.5
        KEYSNAP 0
        TRACKSEL 0
        EVTFILTER 0 -1 -1 -1 -1 0 0 0 0 -1 -1 -1 -1 0 -1 0 -1 -1
        CFGEDIT 1 1 0 1 0 0 1 1 1 1 1 1 58 171 1253 866 0 0 0 0 0.25 0 0 0 0 0.5 0 0 1 64
      >
    >
    <ITEM
      POSITION 56
      SNAPOFFS 0
      LENGTH 8
      LOOP 1
      ALLTAKES 0
      FADEIN 1 0 0 1 0 0
      FADEOUT 1 0 0 1 0 0
      MUTE 0
      SEL 1
      IGUID {B6CE06BC-9585-A8C0-C7E5-FA6FCE269EF4}
      IID 17
      NAME "01-Recorded MIDI"
      VOLPAN 1 0 1 -1
      SOFFS 0 0
      PLAYRATE 1 1 0 -1 0 0.0021
      CHANMODE 0
      GUID {C90D9673-E53A-20DB-96F9-67B783B8127E}
      RECPASS 1
      <SOURCE MIDI
        HASDATA 1 960 QN
        CCINTERP 32
        POOLEDEVTS {09379234-4AA8-7127-909A-992883C29B7E}
        E 0 90 3c 48
        E 0 90 40 48
        E 0 90 43 48
        E 1920 80 3c 00
        E 0 80 40 00
        E 0 80 43 00
        E 0 90 3c 48
        E 0 90 40 48
        E 0 90 43 48
        E 260 80 3c 00
        E 0 80 40 00
        E 0 80 43 00
        E 440 90 3c 48
        E 0 90 40 48
        E 0 90 43 48
        E 260 80 3c 00
        E 0 80 40 00
        E 0 80 43 00
        e 514 90 3c 48
        e 0 90 40 48
        e 0 90 43 48
        e 260 80 3c 00
        e 0 80 40 00
        e 0 80 43 00
        E 186 90 43 48
        E 0 90 47 48
        E 20 90 40 48
        E 1900 80 43 00
        E 0 80 47 00
        E 0 80 40 00
        E 0 90 43 48
        E 0 90 47 48
        E 20 90 40 48
        E 240 80 43 00
        E 0 80 47 00
        E 0 80 40 00
        E 440 90 43 48
        E 0 90 47 48
        E 20 90 40 48
        E 240 80 43 00
        E 0 80 47 00
        E 0 80 40 00
        e 514 90 43 48
        e 0 90 47 48
        e 20 90 40 48
        e 240 80 43 00
        e 0 80 47 00
        e 0 80 40 00
        E 186 90 41 48
        E 0 90 45 48
        E 0 90 48 48
        E 1920 80 41 00
        E 0 80 45 00
        E 0 80 48 00
        E 0 90 41 48
        E 0 90 45 48
        E 0 90 48 48
        E 260 80 41 00
        E 0 80 45 00
        E 0 80 48 00
        E 440 90 41 48
        E 0 90 45 48
        E 0 90 48 48
        E 260 80 41 00
        E 0 80 45 00
        E 0 80 48 00
        e 514 90 41 48
        e 0 90 45 48
        e 0 90 48 48
        e 260 80 41 00
        e 0 80 45 00
        e 0 80 48 00
        E 162 90 3e 48
        E 24 90 41 48
        E 0 90 45 48
        E 1896 90 3e 48
        E 24 80 3e 00
        E 0 80 41 00
        E 0 80 45 00
        E 0 90 41 48
        E 0 90 45 48
        E 260 80 3e 00
        E 0 80 41 00
        E 0 80 45 00
        E 416 90 3e 48
        E 24 90 41 48
        E 0 90 45 48
        E 260 80 3e 00
        E 0 80 41 00
        E 0 80 45 00
        e 490 90 3e 48
        e 24 90 41 48
        e 0 90 45 48
        e 260 80 3e 00
        e 0 80 41 00
        e 0 80 45 00
        E 186 b0 7b 00
        CHASE_CC_TAKEOFFS 1
        GUID {A64857E2-94F8-0990-20DF-4C1E9B5E6251}
        IGNTEMPO 0 120 4 4
        SRCCOLOR 24
        VELLANE -1 100 0
        CFGEDITVIEW 0 0.045808 45 12 0 -1 0 0 0 0.5
        KEYSNAP 0
        TRACKSEL 0
        EVTFILTER 0 -1 -1 -1 -1 0 0 0 0 -1 -1 -1 -1 0 -1 0 -1 -1
        CFGEDIT 1 1 0 1 0 0 1 1 1 1 1 1 58 171 1253 866 0 0 0 0 0.25 0 0 0 0 0.5 0 0 1 64
      >
    >
    <ITEM
      POSITION 64
      SNAPOFFS 0
      LENGTH 8
      LOOP 1
      ALLTAKES 0
      FADEIN 1 0 0 1 0 0
      FADEOUT 1 0 0 1 0 0
      MUTE 0
      SEL 1
      IGUID {6D75615A-5556-1417-E006-F34356B0AC5C}
      IID 18
      NAME "01-Recorded MIDI"
      VOLPAN 1 0 1 -1
      SOFFS 0 0
      PLAYRATE 1 1 0 -1 0 0.0021
      CHANMODE 0
      GUID {8448B313-1F91-78E3-310A-1F0B82D18ECC}
      RECPASS 1
      <SOURCE MIDI
        HASDATA 1 960 QN
        CCINTERP 32
        POOLEDEVTS {FDE32AC9-3742-6BC5-9026-4EEA97B7B867}
        E 0 90 3c 48
        E 0 90 40 48
        E 0 90 43 48
        E 1920 80 3c 00
        E 0 80 40 00
        E 0 80 43 00
        E 0 90 3c 48
        E 0 90 40 48
        E 0 90 43 48
        E 260 80 3c 00
        E 0 80 40 00
        E 0 80 43 00
        E 440 90 3c 48
        E 0 90 40 48
        E 0 90 43 48
        E 260 80 3c 00
        E 0 80 40 00
        E 0 80 43 00
        e 514 90 3c 48
        e 0 90 40 48
        e 0 90 43 48
        e 260 80 3c 00
        e 0 80 40 00
        e 0 80 43 00
        E 186 90 43 48
        E 0 90 47 48
        E 20 90 40 48
        E 1900 80 43 00
        E 0 80 47 00
        E 0 80 40 00
        E 0 90 43 48
        E 0 90 47 48
        E 20 90 40 48
        E 240 80 43 00
        E 0 80 47 00
        E 0 80 40 00
        E 440 90 43 48
        E 0 90 47 48
        E 20 90 40 48
        E 240 80 43 00
        E 0 80 47 00
        E 0 80 40 00
        e 514 90 43 48
        e 0 90 47 48
        e 20 90 40 48
        e 240 80 43 00
        e 0 80 47 00
        e 0 80 40 00
        E 186 90 41 48
        E 0 90 45 48
        E 0 90 48 48
        E 1920 80 41 00
        E 0 80 45 00
        E 0 80 48 00
        E 0 90 41 48
        E 0 90 45 48
        E 0 90 48 48
        E 260 80 41 00
        E 0 80 45 00
        E 0 80 48 00
        E 440 90 41 48
        E 0 90 45 48
        E 0 90 48 48
        E 260 80 41 00
        E 0 80 45 00
        E 0 80 48 00
        e 514 90 41 48
        e 0 90 45 48
        e 0 90 48 48
        e 260 80 41 00
        e 0 80 45 00
        e 0 80 48 00
        E 162 90 3e 48
        E 24 90 41 48
        E 0 90 45 48
        E 1896 90 3e 48
        E 24 80 3e 00
        E 0 80 41 00
        E 0 80 45 00
        E 0 90 41 48
        E 0 90 45 48
        E 260 80 3e 00
        E 0 80 41 00
        E 0 80 45 00
        E 416 90 3e 48
        E 24 90 41 48
        E 0 90 45 48
        E 260 80 3e 00
        E 0 80 41 00
        E 0 80 45 00
        e 490 90 3e 48
        e 24 90 41 48
        e 0 90 45 48
        e 260 80 3e 00
        e 0 80 41 00
        e 0 80 45 00
        E 186 b0 7b 00
        CHASE_CC_TAKEOFFS 1
        GUID {19362806-85F2-5D9E-E1F9-07BE0CF3D16E}
        IGNTEMPO 0 120 4 4
        SRCCOLOR 25
        VELLANE -1 100 0
        CFGEDITVIEW 0 0.045808 45 12 0 -1 0 0 0 0.5
        KEYSNAP 0
        TRACKSEL 0
        EVTFILTER 0 -1 -1 -1 -1 0 0 0 0 -1 -1 -1 -1 0 -1 0 -1 -1
        CFGEDIT 1 1 0 1 0 0 1 1 1 1 1 1 58 171 1253 866 0 0 0 0 0.25 0 0 0 0 0.5 0 0 1 64
      >
    >
    <ITEM
      POSITION 72
      SNAPOFFS 0
      LENGTH 8
      LOOP 1
      ALLTAKES 0
      FADEIN 1 0 0 1 0 0
      FADEOUT 1 0 0 1 0 0
      MUTE 0
      SEL 1
      IGUID {A1ED7E46-CBC3-3322-28A0-56397902FF79}
      IID 19
      NAME "01-Recorded MIDI"
      VOLPAN 1 0 1 -1
      SOFFS 0 0
      PLAYRATE 1 1 0 -1 0 0.0021
      CHANMODE 0
      GUID {6A39D0A9-37C3-F3B5-C085-9B981899B6F1}
      RECPASS 1
      <SOURCE MIDI
        HASDATA 1 960 QN
        CCINTERP 32
        POOLEDEVTS {69D364EB-B7AD-DADA-92FD-F478EEC9C1F6}
        E 0 90 3c 48
        E 0 90 40 48
        E 0 90 43 48
        E 1920 80 3c 00
        E 0 80 40 00
        E 0 80 43 00
        E 0 90 3c 48
        E 0 90 40 48
        E 0 90 43 48
        E 260 80 3c 00
        E 0 80 40 00
        E 0 80 43 00
        E 440 90 3c 48
        E 0 90 40 48
        E 0 90 43 48
        E 260 80 3c 00
        E 0 80 40 00
        E 0 80 43 00
        e 514 90 3c 48
        e 0 90 40 48
        e 0 90 43 48
        e 260 80 3c 00
        e 0 80 40 00
        e 0 80 43 00
        E 186 90 43 48
        E 0 90 47 48
        E 20 90 40 48
        E 1900 80 43 00
        E 0 80 47 00
        E 0 80 40 00
        E 0 90 43 48
        E 0 90 47 48
        E 20 90 40 48
        E 240 80 43 00
        E 0 80 47 00
        E 0 80 40 00
        E 440 90 43 48
        E 0 90 47 48
        E 20 90 40 48
        E 240 80 43 00
        E 0 80 47 00
        E 0 80 40 00
        e 514 90 43 48
        e 0 90 47 48
        e 20 90 40 48
        e 240 80 43 00
        e 0 80 47 00
        e 0 80 40 00
        E 186 90 41 48
        E 0 90 45 48
        E 0 90 48 48
        E 1920 80 41 00
        E 0 80 45 00
        E 0 80 48 00
        E 0 90 41 48
        E 0 90 45 48
        E 0 90 48 48
        E 260 80 41 00
        E 0 80 45 00
        E 0 80 48 00
        E 440 90 41 48
        E 0 90 45 48
        E 0 90 48 48
        E 260 80 41 00
        E 0 80 45 00
        E 0 80 48 00
        e 514 90 41 48
        e 0 90 45 48
        e 0 90 48 48
        e 260 80 41 00
        e 0 80 45 00
        e 0 80 48 00
        E 162 90 3e 48
        E 24 90 41 48
        E 0 90 45 48
        E 1896 90 3e 48
        E 24 80 3e 00
        E 0 80 41 00
        E 0 80 45 00
        E 0 90 41 48
        E 0 90 45 48
        E 260 80 3e 00
        E 0 80 41 00
        E 0 80 45 00
        E 416 90 3e 48
        E 24 90 41 48
        E 0 90 45 48
        E 260 80 3e 00
        E 0 80 41 00
        E 0 80 45 00
        e 490 90 3e 48
        e 24 90 41 48
        e 0 90 45 48
        e 260 80 3e 00
        e 0 80 41 00
        e 0 80 45 00
        E 186 b0 7b 00
        CHASE_CC_TAKEOFFS 1
        GUID {6844F8A9-6BE9-023C-4A46-0A676470C99B}
        IGNTEMPO 0 120 4 4
        SRCCOLOR 26
        VELLANE -1 100 0
        CFGEDITVIEW 0 0.045808 45 12 0 -1 0 0 0 0.5
        KEYSNAP 0
        TRACKSEL 0
        EVTFILTER 0 -1 -1 -1 -1 0 0 0 0 -1 -1 -1 -1 0 -1 0 -1 -1
        CFGEDIT 1 1 0 1 0 0 1 1 1 1 1 1 58 171 1253 866 0 0 0 0 0.25 0 0 0 0 0.5 0 0 1 64
      >
    >
    <ITEM
      POSITION 80
      SNAPOFFS 0
      LENGTH 8
      LOOP 1
      ALLTAKES 0
      FADEIN 1 0 0 1 0 0
      FADEOUT 1 0 0 1 0 0
      MUTE 0
      SEL 1
      IGUID {6ED29A5C-0716-1563-E472-49B9591314CC}
      IID 20
      NAME "01-Recorded MIDI"
      VOLPAN 1 0 1 -1
      SOFFS 0 0
      PLAYRATE 1 1 0 -1 0 0.0021
      CHANMODE 0
      GUID {435053A0-2B6D-6D8D-7377-A87F7DB768BF}
      RECPASS 1
      <SOURCE MIDI
        HASDATA 1 960 QN
        CCINTERP 32
        POOLEDEVTS {B70DA776-2F91-A459-5217-3EC2767AB8B8}
        E 0 90 3c 48
        E 0 90 40 48
        E 0 90 43 48
        E 1920 80 3c 00
        E 0 80 40 00
        E 0 80 43 00
        E 0 90 3c 48
        E 0 90 40 48
        E 0 90 43 48
        E 260 80 3c 00
        E 0 80 40 00
        E 0 80 43 00
        E 440 90 3c 48
        E 0 90 40 48
        E 0 90 43 48
        E 260 80 3c 00
        E 0 80 40 00
        E 0 80 43 00
        e 514 90 3c 48
        e 0 90 40 48
        e 0 90 43 48
        e 260 80 3c 00
        e 0 80 40 00
        e 0 80 43 00
        E 186 90 43 48
        E 0 90 47 48
        E 20 90 40 48
        E 1900 80 43 00
        E 0 80 47 00
        E 0 80 40 00
        E 0 90 43 48
        E 0 90 47 48
        E 20 90 40 48
        E 240 80 43 00
        E 0 80 47 00
        E 0 80 40 00
        E 440 90 43 48
        E 0 90 47 48
        E 20 90 40 48
        E 240 80 43 00
        E 0 80 47 00
        E 0 80 40 00
        e 514 90 43 48
        e 0 90 47 48
        e 20 90 40 48
        e 240 80 43 00
        e 0 80 47 00
        e 0 80 40 00
        E 186 90 41 48
        E 0 90 45 48
        E 0 90 48 48
        E 1920 80 41 00
        E 0 80 45 00
        E 0 80 48 00
        E 0 90 41 48
        E 0 90 45 48
        E 0 90 48 48
        E 260 80 41 00
        E 0 80 45 00
        E 0 80 48 00
        E 440 90 41 48
        E 0 90 45 48
        E 0 90 48 48
        E 260 80 41 00
        E 0 80 45 00
        E 0 80 48 00
        e 514 90 41 48
        e 0 90 45 48
        e 0 90 48 48
        e 260 80 41 00
        e 0 80 45 00
        e 0 80 48 00
        E 162 90 3e 48
        E 24 90 41 48
        E 0 90 45 48
        E 1896 90 3e 48
        E 24 80 3e 00
        E 0 80 41 00
        E 0 80 45 00
        E 0 90 41 48
        E 0 90 45 48
        E 260 80 3e 00
        E 0 80 41 00
        E 0 80 45 00
        E 416 90 3e 48
        E 24 90 41 48
        E 0 90 45 48
        E 260 80 3e 00
        E 0 80 41 00
        E 0 80 45 00
        e 490 90 3e 48
        e 24 90 41 48
        e 0 90 45 48
        e 260 80 3e 00
        e 0 80 41 00
        e 0 80 45 00
        E 186 b0 7b 00
        CHASE_CC_TAKEOFFS 1
        GUID {E611ADB6-4869-6CCA-8E83-3954D5E743B1}
        IGNTEMPO 0 120 4 4
        SRCCOLOR 27
        VELLANE -1 100 0
        CFGEDITVIEW 0 0.045808 45 12 0 -1 0 0 0 0.5
        KEYSNAP 0
        TRACKSEL 0
        EVTFILTER 0 -1 -1 -1 -1 0 0 0 0 -1 -1 -1 -1 0 -1 0 -1 -1
        CFGEDIT 1 1 0 1 0 0 1 1 1 1 1 1 58 171 1253 866 0 0 0 0 0.25 0 0 0 0 0.5 0 0 1 64
      >
    >
    <ITEM
      POSITION 88
      SNAPOFFS 0
      LENGTH 8
      LOOP 1
      ALLTAKES 0
      FADEIN 1 0 0 1 0 0
      FADEOUT 1 0 0 1 0 0
      MUTE 0
      SEL 1
      IGUID {1F638FA4-5974-8B32-846D-7F32E5D94741}
      IID 21
      NAME "01-Recorded MIDI"
      VOLPAN 1 0 1 -1
      SOFFS 0 0
      PLAYRATE 1 1 0 -1 0 0.0021
      CHANMODE 0
      GUID {1A631067-BE9E-3D3E-DDED-9779F8B47279}
      RECPASS 1
      <SOURCE MIDI
        HASDATA 1 960 QN
        CCINTERP 32
        POOLEDEVTS {CFACB675-0E6B-7F45-E22B-D36B5B191EBF}
        E 0 90 3c 48
        E 0 90 40 48
        E 0 90 43 48
        E 1920 80 3c 00
        E 0 80 40 00
        E 0 80 43 00
        E 0 90 3c 48
        E 0 90 40 48
        E 0 90 43 48
        E 260 80 3c 00
        E 0 80 40 00
        E 0 80 43 00
        E 440 90 3c 48
        E 0 90 40 48
        E 0 90 43 48
        E 260 80 3c 00
        E 0 80 40 00
        E 0 80 43 00
        e 514 90 3c 48
        e 0 90 40 48
        e 0 90 43 48
        e 260 80 3c 00
        e 0 80 40 00
        e 0 80 43 00
        E 186 90 43 48
        E 0 90 47 48
        E 20 90 40 48
        E 1900 80 43 00
        E 0 80 47 00
        E 0 80 40 00
        E 0 90 43 48
        E 0 90 47 48
        E 20 90 40 48
        E 240 80 43 00
        E 0 80 47 00
        E 0 80 40 00
        E 440 90 43 48
        E 0 90 47 48
        E 20 90 40 48
        E 240 80 43 00
        E 0 80 47 00
        E 0 80 40 00
        e 514 90 43 48
        e 0 90 47 48
        e 20 90 40 48
        e 240 80 43 00
        e 0 80 47 00
        e 0 80 40 00
        E 186 90 41 48
        E 0 90 45 48
        E 0 90 48 48
        E 1920 80 41 00
        E 0 80 45 00
        E 0 80 48 00
        E 0 90 41 48
        E 0 90 45 48
        E 0 90 48 48
        E 260 80 41 00
        E 0 80 45 00
        E 0 80 48 00
        E 440 90 41 48
        E 0 90 45 48
        E 0 90 48 48
        E 260 80 41 00
        E 0 80 45 00
        E 0 80 48 00
        e 514 90 41 48
        e 0 90 45 48
        e 0 90 48 48
        e 260 80 41 00
        e 0 80 45 00
        e 0 80 48 00
        E 162 90 3e 48
        E 24 90 41 48
        E 0 90 45 48
        E 1896 90 3e 48
        E 24 80 3e 00
        E 0 80 41 00
        E 0 80 45 00
        E 0 90 41 48
        E 0 90 45 48
        E 260 80 3e 00
        E 0 80 41 00
        E 0 80 45 00
        E 416 90 3e 48
        E 24 90 41 48
        E 0 90 45 48
        E 260 80 3e 00
        E 0 80 41 00
        E 0 80 45 00
        e 490 90 3e 48
        e 24 90 41 48
        e 0 90 45 48
        e 260 80 3e 00
        e 0 80 41 00
        e 0 80 45 00
        E 186 b0 7b 00
        CHASE_CC_TAKEOFFS 1
        GUID {C762B555-17FC-D765-5340-11D3487D2955}
        IGNTEMPO 0 120 4 4
        SRCCOLOR 28
        VELLANE -1 100 0
        CFGEDITVIEW 0 0.045808 45 12 0 -1 0 0 0 0.5
        KEYSNAP 0
        TRACKSEL 0
        EVTFILTER 0 -1 -1 -1 -1 0 0 0 0 -1 -1 -1 -1 0 -1 0 -1 -1
        CFGEDIT 1 1 0 1 0 0 1 1 1 1 1 1 58 171 1253 866 0 0 0 0 0.25 0 0 0 0 0.5 0 0 1 64
      >
    >
  >
  <TRACK {0231304E-5CEB-F6DC-3EFC-91E5EF874057}
    NAME ""
    PEAKCOL 16576
    BEAT -1
    AUTOMODE 0
    VOLPAN 0.00052194381917 0 -1 -1 1
    MUTESOLO 0 0 0
    IPHASE 0
    PLAYOFFS 0 1
    ISBUS 0 0
    BUSCOMP 0 0 0 0 0
    SHOWINMIX 1 0.6667 0.5 1 0.5 0 0 0
    FREEMODE 0
    SEL 0
    REC 0 5056 1 0 0 0 0
    VU 2
    TRACKHEIGHT 21 0 0
    INQ 0 0 0 0.5 100 0 0 100
    NCHAN 2
    FX 0
    TRACKID {0231304E-5CEB-F6DC-3EFC-91E5EF874057}
    PERF 0
    MIDIOUT -1
    MAINSEND 1 0
    <FXCHAIN
      WNDRECT 346 266 902 608
      SHOW 0
      LASTSEL 5
      DOCKED 0
      BYPASS 0 0 0
      <VST "VST: ReaEQ (Cockos)" reaeq.vst.so 0 "" 1919247729<56535472656571726561657100000000> ""
        cWVlcu5e7f4CAAAAAQAAAAAAAAACAAAAAAAAAAIAAAABAAAAAAAAAAIAAAAAAAAAqAAAAAEAAAAAABAA
        IQAAAAQAAAAEAAAAAQAAAEC4Xhmm+DRAAAAAAAAA8D8AAAAAAAAAQAEIAAAAAQAAAAAAAAAAwHJAAAAAAAAA8D8AAAAAAAAAQAEIAAAAAQAAAAAAAAAAQI9AAAAAAAAA
        8D8AAAAAAAAAQAEDAAAAAQAAAAABaCorbdRAAAAAAAAA8D8AAAAAAAAAQAEBAAAAAQAAAAAAAAAAAPA/AAAAAJoCAACcAQAA
        AEhpZ2ggbG93IHBhc3MAEAAAAA==
      >
      PRESETNAME "High low pass"
      FLOATPOS 0 0 0 0
      FXID {21AE8331-F480-A781-1791-858A18FAC5A2}
      WAK 0 0
      BYPASS 0 0 0
      <VST "VSTi: ReaSynth (Cockos)" reasynth.vst.so 0 "" 1919251321<5653547265737972656173796E746800> ""
        eXNlcu9e7f4AAAAAAgAAAAEAAAAAAAAAAgAAAAAAAAA8AAAAAAAAAAAAEAA=
        776t3g3wrd6lm8Q7F7fROgAAAAAAAAAAAAAAAJCNuT3oZ4g9AACAPwAAAD8AAIA/AAAAAAAAAD8AAAAA
        AAAQAAAA
      >
      FLOATPOS 0 0 0 0
      FXID {E9AE4FCE-2421-8411-6521-83E7EC8E45D1}
      WAK 0 0
      BYPASS 0 0 0
      <JS guitar/amp-model ""
        "Dumble Overdrive Special - Tweed Deluxe.wav" -21.000000 1.000000 0.000000 0.000000 -1.000000 - - - - - - - - - - - - - - - - - - - - - - - - - - - - - - - - - - - - - - - - - - - - - - - - - - - - - - - - - - 
      >
      FLOATPOS 0 0 0 0
      FXID {5089E908-D63B-608C-CDE4-04B9FB30C1B2}
      WAK 0 0
      BYPASS 0 0 0
      <VST "VST: ReaComp (Cockos)" reacomp.vst.so 0 "" 1919247213<5653547265636D726561636F6D700000> ""
        bWNlcu9e7f4EAAAAAQAAAAAAAAACAAAAAAAAAAQAAAAAAAAACAAAAAAAAAACAAAAAQAAAAAAAAACAAAAAAAAAFQAAAAAAAAAAAAQAA==
        776t3g3wrd5FoYg9/AWpPKWbxDsK16M8AAAAAAAAAAAAAIA/AAAAAAAAAAAAAAAAnNEHMwAAgD8AAAAAzMxMPQAAAAAAAAAAAAAAAAAAgD7YiZ09
        AAAQAAAA
      >
      FLOATPOS 0 0 0 0
      FXID {F24A5BBB-2174-CC93-BE45-C7CF978ACE21}
      WAK 0 0
      BYPASS 0 0 0
      <VST "VST: ReaDelay (Cockos)" readelay.vst.so 0 "" 1919247468<5653547265646C72656164656C617900> ""
        bGRlcu5e7f4CAAAAAQAAAAAAAAACAAAAAAAAAAIAAAABAAAAAAAAAAIAAAAAAAAA/AAAAAEAAAAAAAAA
        AAAAAAAAAAAFAAAALAAAAAIAAAAEAAAAAACAPwAAgD8AAAAAAACAPwAAAAAAAIA7vTeGNQAAgD8AAAAAAACAPwAAgD8AAIA/AAAAAAAAAAAAAIA/AAAAAAAAADwAAAAA
        AACAPwAAAAAAAIA/AACAP+87NT8AAIA/AAAAAAAAgD8AAAAAAABAPL03hjUAAIA/AAAAAAAAgD8AAIA/zk0AP6abhD4AAAAAAACAPwAAAAAAAIA8vTeGNQAAgD8AAAAA
        AACAPwAAgD8aqrU+pHA9PwAAAAAAAIA/AAAAAAAAoDy9N4Y1AACAPwAAAAAAAIA/AACAP/npAD4AAAA/
        AHN0b2NrIC0gYmFzaWMgNSB0YXAgcGluZyBwb25nAAAAAAA=
      >
      PRESETNAME "stock - basic 5 tap ping pong"
      FLOATPOS 0 0 0 0
      FXID {2012875E-A6C3-6086-4E12-E5012C033F6E}
      WAK 0 0
      BYPASS 0 0 0
      <VST "VST: ReaVerb (Cockos)" reaverb.vst.so 0 "" 1919252066<56535472657662726561766572620000> ""
        YnZlcu5e7f4CAAAAAQAAAAAAAAACAAAAAAAAAAIAAAABAAAAAAAAAAIAAAAAAAAAcAAAAAEAAAAAAAAA
        AAAAwcybgD4AAIA/AAAAAAAAgD8AAIA/AAAAPwAAgD8AAAAAVkVSQkdFTgAYAAAAAAAAAJHgV0QdrLRA3rK7QsHIjEIAAIC/RUNIT0dFTgAcAAAAy/i2QLUjdUJdzdM/
        osdfP5lRrzyRzYxAnMQAPw==
        AHN3ZWV0dmVyYm8AAAAAAA==
      >
      PRESETNAME sweetverbo
      FLOATPOS 0 0 0 0
      FXID {D91A62F7-990D-4914-AF39-D9E8DABA4609}
      WAK 0 0
    >
    <ITEM
      POSITION 0
      SNAPOFFS 0
      LENGTH 8
      LOOP 1
      ALLTAKES 0
      FADEIN 1 0 0 1 0 0
      FADEOUT 1 0 0 1 0 0
      MUTE 0
      SEL 1
      IGUID {50F6D62B-1CF5-1AC9-75CC-5FD41521D923}
      IID 10
      NAME "01-Recorded MIDI"
      VOLPAN 1 0 1 -1
      SOFFS 0 0
      PLAYRATE 1 1 0 -1 0 0.0021
      CHANMODE 0
      GUID {B4D43718-728C-AD0C-C501-276FDAA5F647}
      RECPASS 1
      <SOURCE MIDI
        HASDATA 1 960 QN
        CCINTERP 32
        POOLEDEVTS {3AD44232-2793-D3E2-D01C-CA5A3BCFBB25}
        E 0 90 3c 48
        E 0 90 40 48
        E 0 90 43 48
        E 1920 80 3c 00
        E 0 80 40 00
        E 0 80 43 00
        E 0 90 3c 48
        E 0 90 40 48
        E 0 90 43 48
        E 260 80 3c 00
        E 0 80 40 00
        E 0 80 43 00
        E 440 90 3c 48
        E 0 90 40 48
        E 0 90 43 48
        E 260 80 3c 00
        E 0 80 40 00
        E 0 80 43 00
        e 514 90 3c 48
        e 0 90 40 48
        e 0 90 43 48
        e 260 80 3c 00
        e 0 80 40 00
        e 0 80 43 00
        E 186 90 43 48
        E 0 90 47 48
        E 20 90 40 48
        E 1900 80 43 00
        E 0 80 47 00
        E 0 80 40 00
        E 0 90 43 48
        E 0 90 47 48
        E 20 90 40 48
        E 240 80 43 00
        E 0 80 47 00
        E 0 80 40 00
        E 440 90 43 48
        E 0 90 47 48
        E 20 90 40 48
        E 240 80 43 00
        E 0 80 47 00
        E 0 80 40 00
        e 514 90 43 48
        e 0 90 47 48
        e 20 90 40 48
        e 240 80 43 00
        e 0 80 47 00
        e 0 80 40 00
        E 186 90 41 48
        E 0 90 45 48
        E 0 90 48 48
        E 1920 80 41 00
        E 0 80 45 00
        E 0 80 48 00
        E 0 90 41 48
        E 0 90 45 48
        E 0 90 48 48
        E 260 80 41 00
        E 0 80 45 00
        E 0 80 48 00
        E 440 90 41 48
        E 0 90 45 48
        E 0 90 48 48
        E 260 80 41 00
        E 0 80 45 00
        E 0 80 48 00
        e 514 90 41 48
        e 0 90 45 48
        e 0 90 48 48
        e 260 80 41 00
        e 0 80 45 00
        e 0 80 48 00
        E 162 90 3e 48
        E 24 90 41 48
        E 0 90 45 48
        E 1896 90 3e 48
        E 24 80 3e 00
        E 0 80 41 00
        E 0 80 45 00
        E 0 90 41 48
        E 0 90 45 48
        E 260 80 3e 00
        E 0 80 41 00
        E 0 80 45 00
        E 416 90 3e 48
        E 24 90 41 48
        E 0 90 45 48
        E 260 80 3e 00
        E 0 80 41 00
        E 0 80 45 00
        e 490 90 3e 48
        e 24 90 41 48
        e 0 90 45 48
        e 260 80 3e 00
        e 0 80 41 00
        e 0 80 45 00
        E 186 b0 7b 00
        CHASE_CC_TAKEOFFS 1
        GUID {7B9D708B-43E1-C8D4-C4B3-87E2A6C27801}
        IGNTEMPO 0 120 4 4
        SRCCOLOR 17
        VELLANE -1 100 0
        CFGEDITVIEW 0 0.045808 45 12 0 -1 0 0 0 0.5
        KEYSNAP 0
        TRACKSEL 0
        EVTFILTER 0 -1 -1 -1 -1 0 0 0 0 -1 -1 -1 -1 0 -1 0 -1 -1
        CFGEDIT 1 1 0 1 0 0 1 1 1 1 1 1 58 171 1253 866 0 0 0 0 0.25 0 0 0 0 0.5 0 0 1 64
      >
    >
    <ITEM
      POSITION 8
      SNAPOFFS 0
      LENGTH 8
      LOOP 1
      ALLTAKES 0
      FADEIN 1 0 0 1 0 0
      FADEOUT 1 0 0 1 0 0
      MUTE 0
      SEL 1
      IGUID {7BE3F0F4-DFBA-02FE-2323-A45C045B545E}
      IID 11
      NAME "01-Recorded MIDI"
      VOLPAN 1 0 1 -1
      SOFFS 0 0
      PLAYRATE 1 1 0 -1 0 0.0021
      CHANMODE 0
      GUID {D38D9B23-6FA5-58F5-26DB-E1906F387183}
      RECPASS 1
      <SOURCE MIDI
        HASDATA 1 960 QN
        CCINTERP 32
        POOLEDEVTS {C1583F69-2405-D1FA-0688-4E3A43A0511F}
        E 0 90 3c 48
        E 0 90 40 48
        E 0 90 43 48
        E 1920 80 3c 00
        E 0 80 40 00
        E 0 80 43 00
        E 0 90 3c 48
        E 0 90 40 48
        E 0 90 43 48
        E 260 80 3c 00
        E 0 80 40 00
        E 0 80 43 00
        E 440 90 3c 48
        E 0 90 40 48
        E 0 90 43 48
        E 260 80 3c 00
        E 0 80 40 00
        E 0 80 43 00
        e 514 90 3c 48
        e 0 90 40 48
        e 0 90 43 48
        e 260 80 3c 00
        e 0 80 40 00
        e 0 80 43 00
        E 186 90 43 48
        E 0 90 47 48
        E 20 90 40 48
        E 1900 80 43 00
        E 0 80 47 00
        E 0 80 40 00
        E 0 90 43 48
        E 0 90 47 48
        E 20 90 40 48
        E 240 80 43 00
        E 0 80 47 00
        E 0 80 40 00
        E 440 90 43 48
        E 0 90 47 48
        E 20 90 40 48
        E 240 80 43 00
        E 0 80 47 00
        E 0 80 40 00
        e 514 90 43 48
        e 0 90 47 48
        e 20 90 40 48
        e 240 80 43 00
        e 0 80 47 00
        e 0 80 40 00
        E 186 90 41 48
        E 0 90 45 48
        E 0 90 48 48
        E 1920 80 41 00
        E 0 80 45 00
        E 0 80 48 00
        E 0 90 41 48
        E 0 90 45 48
        E 0 90 48 48
        E 260 80 41 00
        E 0 80 45 00
        E 0 80 48 00
        E 440 90 41 48
        E 0 90 45 48
        E 0 90 48 48
        E 260 80 41 00
        E 0 80 45 00
        E 0 80 48 00
        e 514 90 41 48
        e 0 90 45 48
        e 0 90 48 48
        e 260 80 41 00
        e 0 80 45 00
        e 0 80 48 00
        E 162 90 3e 48
        E 24 90 41 48
        E 0 90 45 48
        E 1896 90 3e 48
        E 24 80 3e 00
        E 0 80 41 00
        E 0 80 45 00
        E 0 90 41 48
        E 0 90 45 48
        E 260 80 3e 00
        E 0 80 41 00
        E 0 80 45 00
        E 416 90 3e 48
        E 24 90 41 48
        E 0 90 45 48
        E 260 80 3e 00
        E 0 80 41 00
        E 0 80 45 00
        e 490 90 3e 48
        e 24 90 41 48
        e 0 90 45 48
        e 260 80 3e 00
        e 0 80 41 00
        e 0 80 45 00
        E 186 b0 7b 00
        CHASE_CC_TAKEOFFS 1
        GUID {3131B4E2-B370-E352-A9C5-C8CA31551A86}
        IGNTEMPO 0 120 4 4
        SRCCOLOR 18
        VELLANE -1 100 0
        CFGEDITVIEW 0 0.045808 45 12 0 -1 0 0 0 0.5
        KEYSNAP 0
        TRACKSEL 0
        EVTFILTER 0 -1 -1 -1 -1 0 0 0 0 -1 -1 -1 -1 0 -1 0 -1 -1
        CFGEDIT 1 1 0 1 0 0 1 1 1 1 1 1 58 171 1253 866 0 0 0 0 0.25 0 0 0 0 0.5 0 0 1 64
      >
    >
    <ITEM
      POSITION 16
      SNAPOFFS 0
      LENGTH 8
      LOOP 1
      ALLTAKES 0
      FADEIN 1 0 0 1 0 0
      FADEOUT 1 0 0 1 0 0
      MUTE 0
      SEL 1
      IGUID {7D997FB2-1005-67C3-9F5E-4F95AFCEAF67}
      IID 12
      NAME "01-Recorded MIDI"
      VOLPAN 1 0 1 -1
      SOFFS 0 0
      PLAYRATE 1 1 0 -1 0 0.0021
      CHANMODE 0
      GUID {983F857F-1ADC-C398-EE28-05AF1EC7AFBF}
      RECPASS 1
      <SOURCE MIDI
        HASDATA 1 960 QN
        CCINTERP 32
        POOLEDEVTS {8B577523-1907-5786-4AF4-C613570C2BA0}
        E 0 90 3c 48
        E 0 90 40 48
        E 0 90 43 48
        E 1920 80 3c 00
        E 0 80 40 00
        E 0 80 43 00
        E 0 90 3c 48
        E 0 90 40 48
        E 0 90 43 48
        E 260 80 3c 00
        E 0 80 40 00
        E 0 80 43 00
        E 440 90 3c 48
        E 0 90 40 48
        E 0 90 43 48
        E 260 80 3c 00
        E 0 80 40 00
        E 0 80 43 00
        e 514 90 3c 48
        e 0 90 40 48
        e 0 90 43 48
        e 260 80 3c 00
        e 0 80 40 00
        e 0 80 43 00
        E 186 90 43 48
        E 0 90 47 48
        E 20 90 40 48
        E 1900 80 43 00
        E 0 80 47 00
        E 0 80 40 00
        E 0 90 43 48
        E 0 90 47 48
        E 20 90 40 48
        E 240 80 43 00
        E 0 80 47 00
        E 0 80 40 00
        E 440 90 43 48
        E 0 90 47 48
        E 20 90 40 48
        E 240 80 43 00
        E 0 80 47 00
        E 0 80 40 00
        e 514 90 43 48
        e 0 90 47 48
        e 20 90 40 48
        e 240 80 43 00
        e 0 80 47 00
        e 0 80 40 00
        E 186 90 41 48
        E 0 90 45 48
        E 0 90 48 48
        E 1920 80 41 00
        E 0 80 45 00
        E 0 80 48 00
        E 0 90 41 48
        E 0 90 45 48
        E 0 90 48 48
        E 260 80 41 00
        E 0 80 45 00
        E 0 80 48 00
        E 440 90 41 48
        E 0 90 45 48
        E 0 90 48 48
        E 260 80 41 00
        E 0 80 45 00
        E 0 80 48 00
        e 514 90 41 48
        e 0 90 45 48
        e 0 90 48 48
        e 260 80 41 00
        e 0 80 45 00
        e 0 80 48 00
        E 162 90 3e 48
        E 24 90 41 48
        E 0 90 45 48
        E 1896 90 3e 48
        E 24 80 3e 00
        E 0 80 41 00
        E 0 80 45 00
        E 0 90 41 48
        E 0 90 45 48
        E 260 80 3e 00
        E 0 80 41 00
        E 0 80 45 00
        E 416 90 3e 48
        E 24 90 41 48
        E 0 90 45 48
        E 260 80 3e 00
        E 0 80 41 00
        E 0 80 45 00
        e 490 90 3e 48
        e 24 90 41 48
        e 0 90 45 48
        e 260 80 3e 00
        e 0 80 41 00
        e 0 80 45 00
        E 186 b0 7b 00
        CHASE_CC_TAKEOFFS 1
        GUID {48C567A2-895C-FB9B-FDBA-0ADB7004ABF3}
        IGNTEMPO 0 120 4 4
        SRCCOLOR 19
        VELLANE -1 100 0
        CFGEDITVIEW 0 0.045808 45 12 0 -1 0 0 0 0.5
        KEYSNAP 0
        TRACKSEL 0
        EVTFILTER 0 -1 -1 -1 -1 0 0 0 0 -1 -1 -1 -1 0 -1 0 -1 -1
        CFGEDIT 1 1 0 1 0 0 1 1 1 1 1 1 58 171 1253 866 0 0 0 0 0.25 0 0 0 0 0.5 0 0 1 64
      >
    >
    <ITEM
      POSITION 24
      SNAPOFFS 0
      LENGTH 8
      LOOP 1
      ALLTAKES 0
      FADEIN 1 0 0 1 0 0
      FADEOUT 1 0 0 1 0 0
      MUTE 0
      SEL 1
      IGUID {3EB5C0A0-8FD2-DFE7-FD5C-D322898D0EDA}
      IID 13
      NAME "01-Recorded MIDI"
      VOLPAN 1 0 1 -1
      SOFFS 0 0
      PLAYRATE 1 1 0 -1 0 0.0021
      CHANMODE 0
      GUID {0B755BA8-013C-CD5F-4A9B-A6013EE39703}
      RECPASS 1
      <SOURCE MIDI
        HASDATA 1 960 QN
        CCINTERP 32
        POOLEDEVTS {D33C40DE-5C29-7A21-5F4B-365B72F50BD3}
        E 0 90 3c 48
        E 0 90 40 48
        E 0 90 43 48
        E 1920 80 3c 00
        E 0 80 40 00
        E 0 80 43 00
        E 0 90 3c 48
        E 0 90 40 48
        E 0 90 43 48
        E 260 80 3c 00
        E 0 80 40 00
        E 0 80 43 00
        E 440 90 3c 48
        E 0 90 40 48
        E 0 90 43 48
        E 260 80 3c 00
        E 0 80 40 00
        E 0 80 43 00
        e 514 90 3c 48
        e 0 90 40 48
        e 0 90 43 48
        e 260 80 3c 00
        e 0 80 40 00
        e 0 80 43 00
        E 186 90 43 48
        E 0 90 47 48
        E 20 90 40 48
        E 1900 80 43 00
        E 0 80 47 00
        E 0 80 40 00
        E 0 90 43 48
        E 0 90 47 48
        E 20 90 40 48
        E 240 80 43 00
        E 0 80 47 00
        E 0 80 40 00
        E 440 90 43 48
        E 0 90 47 48
        E 20 90 40 48
        E 240 80 43 00
        E 0 80 47 00
        E 0 80 40 00
        e 514 90 43 48
        e 0 90 47 48
        e 20 90 40 48
        e 240 80 43 00
        e 0 80 47 00
        e 0 80 40 00
        E 186 90 41 48
        E 0 90 45 48
        E 0 90 48 48
        E 1920 80 41 00
        E 0 80 45 00
        E 0 80 48 00
        E 0 90 41 48
        E 0 90 45 48
        E 0 90 48 48
        E 260 80 41 00
        E 0 80 45 00
        E 0 80 48 00
        E 440 90 41 48
        E 0 90 45 48
        E 0 90 48 48
        E 260 80 41 00
        E 0 80 45 00
        E 0 80 48 00
        e 514 90 41 48
        e 0 90 45 48
        e 0 90 48 48
        e 260 80 41 00
        e 0 80 45 00
        e 0 80 48 00
        E 162 90 3e 48
        E 24 90 41 48
        E 0 90 45 48
        E 1896 90 3e 48
        E 24 80 3e 00
        E 0 80 41 00
        E 0 80 45 00
        E 0 90 41 48
        E 0 90 45 48
        E 260 80 3e 00
        E 0 80 41 00
        E 0 80 45 00
        E 416 90 3e 48
        E 24 90 41 48
        E 0 90 45 48
        E 260 80 3e 00
        E 0 80 41 00
        E 0 80 45 00
        e 490 90 3e 48
        e 24 90 41 48
        e 0 90 45 48
        e 260 80 3e 00
        e 0 80 41 00
        e 0 80 45 00
        E 186 b0 7b 00
        CHASE_CC_TAKEOFFS 1
        GUID {1DE38800-E2A1-41B5-9C8C-3291891093B1}
        IGNTEMPO 0 120 4 4
        SRCCOLOR 20
        VELLANE -1 100 0
        CFGEDITVIEW 0 0.045808 45 12 0 -1 0 0 0 0.5
        KEYSNAP 0
        TRACKSEL 0
        EVTFILTER 0 -1 -1 -1 -1 0 0 0 0 -1 -1 -1 -1 0 -1 0 -1 -1
        CFGEDIT 1 1 0 1 0 0 1 1 1 1 1 1 58 171 1253 866 0 0 0 0 0.25 0 0 0 0 0.5 0 0 1 64
      >
    >
    <ITEM
      POSITION 32
      SNAPOFFS 0
      LENGTH 8
      LOOP 1
      ALLTAKES 0
      FADEIN 1 0 0 1 0 0
      FADEOUT 1 0 0 1 0 0
      MUTE 0
      SEL 1
      IGUID {FF9F9F5C-A5A7-C67E-1E9B-FE86BD712078}
      IID 14
      NAME "01-Recorded MIDI"
      VOLPAN 1 0 1 -1
      SOFFS 0 0
      PLAYRATE 1 1 0 -1 0 0.0021
      CHANMODE 0
      GUID {02EE90FC-69F3-B189-B60B-16E8A976387C}
      RECPASS 1
      <SOURCE MIDI
        HASDATA 1 960 QN
        CCINTERP 32
        POOLEDEVTS {4FA93115-E1A1-629E-069E-B161CBF4D863}
        E 0 90 3c 48
        E 0 90 40 48
        E 0 90 43 48
        E 1920 80 3c 00
        E 0 80 40 00
        E 0 80 43 00
        E 0 90 3c 48
        E 0 90 40 48
        E 0 90 43 48
        E 260 80 3c 00
        E 0 80 40 00
        E 0 80 43 00
        E 440 90 3c 48
        E 0 90 40 48
        E 0 90 43 48
        E 260 80 3c 00
        E 0 80 40 00
        E 0 80 43 00
        e 514 90 3c 48
        e 0 90 40 48
        e 0 90 43 48
        e 260 80 3c 00
        e 0 80 40 00
        e 0 80 43 00
        E 186 90 43 48
        E 0 90 47 48
        E 20 90 40 48
        E 1900 80 43 00
        E 0 80 47 00
        E 0 80 40 00
        E 0 90 43 48
        E 0 90 47 48
        E 20 90 40 48
        E 240 80 43 00
        E 0 80 47 00
        E 0 80 40 00
        E 440 90 43 48
        E 0 90 47 48
        E 20 90 40 48
        E 240 80 43 00
        E 0 80 47 00
        E 0 80 40 00
        e 514 90 43 48
        e 0 90 47 48
        e 20 90 40 48
        e 240 80 43 00
        e 0 80 47 00
        e 0 80 40 00
        E 186 90 41 48
        E 0 90 45 48
        E 0 90 48 48
        E 1920 80 41 00
        E 0 80 45 00
        E 0 80 48 00
        E 0 90 41 48
        E 0 90 45 48
        E 0 90 48 48
        E 260 80 41 00
        E 0 80 45 00
        E 0 80 48 00
        E 440 90 41 48
        E 0 90 45 48
        E 0 90 48 48
        E 260 80 41 00
        E 0 80 45 00
        E 0 80 48 00
        e 514 90 41 48
        e 0 90 45 48
        e 0 90 48 48
        e 260 80 41 00
        e 0 80 45 00
        e 0 80 48 00
        E 162 90 3e 48
        E 24 90 41 48
        E 0 90 45 48
        E 1896 90 3e 48
        E 24 80 3e 00
        E 0 80 41 00
        E 0 80 45 00
        E 0 90 41 48
        E 0 90 45 48
        E 260 80 3e 00
        E 0 80 41 00
        E 0 80 45 00
        E 416 90 3e 48
        E 24 90 41 48
        E 0 90 45 48
        E 260 80 3e 00
        E 0 80 41 00
        E 0 80 45 00
        e 490 90 3e 48
        e 24 90 41 48
        e 0 90 45 48
        e 260 80 3e 00
        e 0 80 41 00
        e 0 80 45 00
        E 186 b0 7b 00
        CHASE_CC_TAKEOFFS 1
        GUID {0C3271F4-E233-9088-9B25-A722FAE7C579}
        IGNTEMPO 0 120 4 4
        SRCCOLOR 21
        VELLANE -1 100 0
        CFGEDITVIEW 0 0.045808 45 12 0 -1 0 0 0 0.5
        KEYSNAP 0
        TRACKSEL 0
        EVTFILTER 0 -1 -1 -1 -1 0 0 0 0 -1 -1 -1 -1 0 -1 0 -1 -1
        CFGEDIT 1 1 0 1 0 0 1 1 1 1 1 1 58 171 1253 866 0 0 0 0 0.25 0 0 0 0 0.5 0 0 1 64
      >
    >
    <ITEM
      POSITION 40
      SNAPOFFS 0
      LENGTH 8
      LOOP 1
      ALLTAKES 0
      FADEIN 1 0 0 1 0 0
      FADEOUT 1 0 0 1 0 0
      MUTE 0
      SEL 1
      IGUID {75EECB9A-3431-2964-91D5-4A429C512910}
      IID 15
      NAME "01-Recorded MIDI"
      VOLPAN 1 0 1 -1
      SOFFS 0 0
      PLAYRATE 1 1 0 -1 0 0.0021
      CHANMODE 0
      GUID {F16B957B-C056-8295-9F67-04729641D6F2}
      RECPASS 1
      <SOURCE MIDI
        HASDATA 1 960 QN
        CCINTERP 32
        POOLEDEVTS {CE202272-94B6-FFD9-732C-F9ABB2B3F0C2}
        E 0 90 3c 48
        E 0 90 40 48
        E 0 90 43 48
        E 1920 80 3c 00
        E 0 80 40 00
        E 0 80 43 00
        E 0 90 3c 48
        E 0 90 40 48
        E 0 90 43 48
        E 260 80 3c 00
        E 0 80 40 00
        E 0 80 43 00
        E 440 90 3c 48
        E 0 90 40 48
        E 0 90 43 48
        E 260 80 3c 00
        E 0 80 40 00
        E 0 80 43 00
        e 514 90 3c 48
        e 0 90 40 48
        e 0 90 43 48
        e 260 80 3c 00
        e 0 80 40 00
        e 0 80 43 00
        E 186 90 43 48
        E 0 90 47 48
        E 20 90 40 48
        E 1900 80 43 00
        E 0 80 47 00
        E 0 80 40 00
        E 0 90 43 48
        E 0 90 47 48
        E 20 90 40 48
        E 240 80 43 00
        E 0 80 47 00
        E 0 80 40 00
        E 440 90 43 48
        E 0 90 47 48
        E 20 90 40 48
        E 240 80 43 00
        E 0 80 47 00
        E 0 80 40 00
        e 514 90 43 48
        e 0 90 47 48
        e 20 90 40 48
        e 240 80 43 00
        e 0 80 47 00
        e 0 80 40 00
        E 186 90 41 48
        E 0 90 45 48
        E 0 90 48 48
        E 1920 80 41 00
        E 0 80 45 00
        E 0 80 48 00
        E 0 90 41 48
        E 0 90 45 48
        E 0 90 48 48
        E 260 80 41 00
        E 0 80 45 00
        E 0 80 48 00
        E 440 90 41 48
        E 0 90 45 48
        E 0 90 48 48
        E 260 80 41 00
        E 0 80 45 00
        E 0 80 48 00
        e 514 90 41 48
        e 0 90 45 48
        e 0 90 48 48
        e 260 80 41 00
        e 0 80 45 00
        e 0 80 48 00
        E 162 90 3e 48
        E 24 90 41 48
        E 0 90 45 48
        E 1896 90 3e 48
        E 24 80 3e 00
        E 0 80 41 00
        E 0 80 45 00
        E 0 90 41 48
        E 0 90 45 48
        E 260 80 3e 00
        E 0 80 41 00
        E 0 80 45 00
        E 416 90 3e 48
        E 24 90 41 48
        E 0 90 45 48
        E 260 80 3e 00
        E 0 80 41 00
        E 0 80 45 00
        e 490 90 3e 48
        e 24 90 41 48
        e 0 90 45 48
        e 260 80 3e 00
        e 0 80 41 00
        e 0 80 45 00
        E 186 b0 7b 00
        CHASE_CC_TAKEOFFS 1
        GUID {040E7AF8-3572-5D91-3C86-797AEE7444D4}
        IGNTEMPO 0 120 4 4
        SRCCOLOR 22
        VELLANE -1 100 0
        CFGEDITVIEW 0 0.045808 45 12 0 -1 0 0 0 0.5
        KEYSNAP 0
        TRACKSEL 0
        EVTFILTER 0 -1 -1 -1 -1 0 0 0 0 -1 -1 -1 -1 0 -1 0 -1 -1
        CFGEDIT 1 1 0 1 0 0 1 1 1 1 1 1 58 171 1253 866 0 0 0 0 0.25 0 0 0 0 0.5 0 0 1 64
      >
    >
    <ITEM
      POSITION 48
      SNAPOFFS 0
      LENGTH 8
      LOOP 1
      ALLTAKES 0
      FADEIN 1 0 0 1 0 0
      FADEOUT 1 0 0 1 0 0
      MUTE 0
      SEL 1
      IGUID {AA8289D6-933E-E666-6F3A-1B7EEFBA7977}
      IID 16
      NAME "01-Recorded MIDI"
      VOLPAN 1 0 1 -1
      SOFFS 0 0
      PLAYRATE 1 1 0 -1 0 0.0021
      CHANMODE 0
      GUID {FC740C92-0916-C89C-6249-CF4955D4751F}
      RECPASS 1
      <SOURCE MIDI
        HASDATA 1 960 QN
        CCINTERP 32
        POOLEDEVTS {41BC2D95-0314-8612-BF70-637A0953629B}
        E 0 90 3c 48
        E 0 90 40 48
        E 0 90 43 48
        E 1920 80 3c 00
        E 0 80 40 00
        E 0 80 43 00
        E 0 90 3c 48
        E 0 90 40 48
        E 0 90 43 48
        E 260 80 3c 00
        E 0 80 40 00
        E 0 80 43 00
        E 440 90 3c 48
        E 0 90 40 48
        E 0 90 43 48
        E 260 80 3c 00
        E 0 80 40 00
        E 0 80 43 00
        e 514 90 3c 48
        e 0 90 40 48
        e 0 90 43 48
        e 260 80 3c 00
        e 0 80 40 00
        e 0 80 43 00
        E 186 90 43 48
        E 0 90 47 48
        E 20 90 40 48
        E 1900 80 43 00
        E 0 80 47 00
        E 0 80 40 00
        E 0 90 43 48
        E 0 90 47 48
        E 20 90 40 48
        E 240 80 43 00
        E 0 80 47 00
        E 0 80 40 00
        E 440 90 43 48
        E 0 90 47 48
        E 20 90 40 48
        E 240 80 43 00
        E 0 80 47 00
        E 0 80 40 00
        e 514 90 43 48
        e 0 90 47 48
        e 20 90 40 48
        e 240 80 43 00
        e 0 80 47 00
        e 0 80 40 00
        E 186 90 41 48
        E 0 90 45 48
        E 0 90 48 48
        E 1920 80 41 00
        E 0 80 45 00
        E 0 80 48 00
        E 0 90 41 48
        E 0 90 45 48
        E 0 90 48 48
        E 260 80 41 00
        E 0 80 45 00
        E 0 80 48 00
        E 440 90 41 48
        E 0 90 45 48
        E 0 90 48 48
        E 260 80 41 00
        E 0 80 45 00
        E 0 80 48 00
        e 514 90 41 48
        e 0 90 45 48
        e 0 90 48 48
        e 260 80 41 00
        e 0 80 45 00
        e 0 80 48 00
        E 162 90 3e 48
        E 24 90 41 48
        E 0 90 45 48
        E 1896 90 3e 48
        E 24 80 3e 00
        E 0 80 41 00
        E 0 80 45 00
        E 0 90 41 48
        E 0 90 45 48
        E 260 80 3e 00
        E 0 80 41 00
        E 0 80 45 00
        E 416 90 3e 48
        E 24 90 41 48
        E 0 90 45 48
        E 260 80 3e 00
        E 0 80 41 00
        E 0 80 45 00
        e 490 90 3e 48
        e 24 90 41 48
        e 0 90 45 48
        e 260 80 3e 00
        e 0 80 41 00
        e 0 80 45 00
        E 186 b0 7b 00
        CHASE_CC_TAKEOFFS 1
        GUID {2338968B-6CF9-9F40-300F-DEB89D3392EA}
        IGNTEMPO 0 120 4 4
        SRCCOLOR 23
        VELLANE -1 100 0
        CFGEDITVIEW 0 0.045808 45 12 0 -1 0 0 0 0.5
        KEYSNAP 0
        TRACKSEL 0
        EVTFILTER 0 -1 -1 -1 -1 0 0 0 0 -1 -1 -1 -1 0 -1 0 -1 -1
        CFGEDIT 1 1 0 1 0 0 1 1 1 1 1 1 58 171 1253 866 0 0 0 0 0.25 0 0 0 0 0.5 0 0 1 64
      >
    >
    <ITEM
      POSITION 56
      SNAPOFFS 0
      LENGTH 8
      LOOP 1
      ALLTAKES 0
      FADEIN 1 0 0 1 0 0
      FADEOUT 1 0 0 1 0 0
      MUTE 0
      SEL 1
      IGUID {5AE6B6DE-F0A9-4359-65AE-A687EC939CAC}
      IID 17
      NAME "01-Recorded MIDI"
      VOLPAN 1 0 1 -1
      SOFFS 0 0
      PLAYRATE 1 1 0 -1 0 0.0021
      CHANMODE 0
      GUID {C32BA505-DD28-4E47-5D6C-F124C24F5BA0}
      RECPASS 1
      <SOURCE MIDI
        HASDATA 1 960 QN
        CCINTERP 32
        POOLEDEVTS {D8A4FEEB-9B86-62D1-0F68-21C102420BB5}
        E 0 90 3c 48
        E 0 90 40 48
        E 0 90 43 48
        E 1920 80 3c 00
        E 0 80 40 00
        E 0 80 43 00
        E 0 90 3c 48
        E 0 90 40 48
        E 0 90 43 48
        E 260 80 3c 00
        E 0 80 40 00
        E 0 80 43 00
        E 440 90 3c 48
        E 0 90 40 48
        E 0 90 43 48
        E 260 80 3c 00
        E 0 80 40 00
        E 0 80 43 00
        e 514 90 3c 48
        e 0 90 40 48
        e 0 90 43 48
        e 260 80 3c 00
        e 0 80 40 00
        e 0 80 43 00
        E 186 90 43 48
        E 0 90 47 48
        E 20 90 40 48
        E 1900 80 43 00
        E 0 80 47 00
        E 0 80 40 00
        E 0 90 43 48
        E 0 90 47 48
        E 20 90 40 48
        E 240 80 43 00
        E 0 80 47 00
        E 0 80 40 00
        E 440 90 43 48
        E 0 90 47 48
        E 20 90 40 48
        E 240 80 43 00
        E 0 80 47 00
        E 0 80 40 00
        e 514 90 43 48
        e 0 90 47 48
        e 20 90 40 48
        e 240 80 43 00
        e 0 80 47 00
        e 0 80 40 00
        E 186 90 41 48
        E 0 90 45 48
        E 0 90 48 48
        E 1920 80 41 00
        E 0 80 45 00
        E 0 80 48 00
        E 0 90 41 48
        E 0 90 45 48
        E 0 90 48 48
        E 260 80 41 00
        E 0 80 45 00
        E 0 80 48 00
        E 440 90 41 48
        E 0 90 45 48
        E 0 90 48 48
        E 260 80 41 00
        E 0 80 45 00
        E 0 80 48 00
        e 514 90 41 48
        e 0 90 45 48
        e 0 90 48 48
        e 260 80 41 00
        e 0 80 45 00
        e 0 80 48 00
        E 162 90 3e 48
        E 24 90 41 48
        E 0 90 45 48
        E 1896 90 3e 48
        E 24 80 3e 00
        E 0 80 41 00
        E 0 80 45 00
        E 0 90 41 48
        E 0 90 45 48
        E 260 80 3e 00
        E 0 80 41 00
        E 0 80 45 00
        E 416 90 3e 48
        E 24 90 41 48
        E 0 90 45 48
        E 260 80 3e 00
        E 0 80 41 00
        E 0 80 45 00
        e 490 90 3e 48
        e 24 90 41 48
        e 0 90 45 48
        e 260 80 3e 00
        e 0 80 41 00
        e 0 80 45 00
        E 186 b0 7b 00
        CHASE_CC_TAKEOFFS 1
        GUID {A64857E2-94F8-0990-20DF-4C1E9B5E6251}
        IGNTEMPO 0 120 4 4
        SRCCOLOR 24
        VELLANE -1 100 0
        CFGEDITVIEW 0 0.045808 45 12 0 -1 0 0 0 0.5
        KEYSNAP 0
        TRACKSEL 0
        EVTFILTER 0 -1 -1 -1 -1 0 0 0 0 -1 -1 -1 -1 0 -1 0 -1 -1
        CFGEDIT 1 1 0 1 0 0 1 1 1 1 1 1 58 171 1253 866 0 0 0 0 0.25 0 0 0 0 0.5 0 0 1 64
      >
    >
    <ITEM
      POSITION 64
      SNAPOFFS 0
      LENGTH 8
      LOOP 1
      ALLTAKES 0
      FADEIN 1 0 0 1 0 0
      FADEOUT 1 0 0 1 0 0
      MUTE 0
      SEL 1
      IGUID {476D6DB4-10FB-60CA-16F1-6B7867FAA597}
      IID 18
      NAME "01-Recorded MIDI"
      VOLPAN 1 0 1 -1
      SOFFS 0 0
      PLAYRATE 1 1 0 -1 0 0.0021
      CHANMODE 0
      GUID {4D8D27D1-37A5-AD00-83E8-C2C01968318A}
      RECPASS 1
      <SOURCE MIDI
        HASDATA 1 960 QN
        CCINTERP 32
        POOLEDEVTS {BCF558F9-9FC4-C123-3903-5F350224C301}
        E 0 90 3c 48
        E 0 90 40 48
        E 0 90 43 48
        E 1920 80 3c 00
        E 0 80 40 00
        E 0 80 43 00
        E 0 90 3c 48
        E 0 90 40 48
        E 0 90 43 48
        E 260 80 3c 00
        E 0 80 40 00
        E 0 80 43 00
        E 440 90 3c 48
        E 0 90 40 48
        E 0 90 43 48
        E 260 80 3c 00
        E 0 80 40 00
        E 0 80 43 00
        e 514 90 3c 48
        e 0 90 40 48
        e 0 90 43 48
        e 260 80 3c 00
        e 0 80 40 00
        e 0 80 43 00
        E 186 90 43 48
        E 0 90 47 48
        E 20 90 40 48
        E 1900 80 43 00
        E 0 80 47 00
        E 0 80 40 00
        E 0 90 43 48
        E 0 90 47 48
        E 20 90 40 48
        E 240 80 43 00
        E 0 80 47 00
        E 0 80 40 00
        E 440 90 43 48
        E 0 90 47 48
        E 20 90 40 48
        E 240 80 43 00
        E 0 80 47 00
        E 0 80 40 00
        e 514 90 43 48
        e 0 90 47 48
        e 20 90 40 48
        e 240 80 43 00
        e 0 80 47 00
        e 0 80 40 00
        E 186 90 41 48
        E 0 90 45 48
        E 0 90 48 48
        E 1920 80 41 00
        E 0 80 45 00
        E 0 80 48 00
        E 0 90 41 48
        E 0 90 45 48
        E 0 90 48 48
        E 260 80 41 00
        E 0 80 45 00
        E 0 80 48 00
        E 440 90 41 48
        E 0 90 45 48
        E 0 90 48 48
        E 260 80 41 00
        E 0 80 45 00
        E 0 80 48 00
        e 514 90 41 48
        e 0 90 45 48
        e 0 90 48 48
        e 260 80 41 00
        e 0 80 45 00
        e 0 80 48 00
        E 162 90 3e 48
        E 24 90 41 48
        E 0 90 45 48
        E 1896 90 3e 48
        E 24 80 3e 00
        E 0 80 41 00
        E 0 80 45 00
        E 0 90 41 48
        E 0 90 45 48
        E 260 80 3e 00
        E 0 80 41 00
        E 0 80 45 00
        E 416 90 3e 48
        E 24 90 41 48
        E 0 90 45 48
        E 260 80 3e 00
        E 0 80 41 00
        E 0 80 45 00
        e 490 90 3e 48
        e 24 90 41 48
        e 0 90 45 48
        e 260 80 3e 00
        e 0 80 41 00
        e 0 80 45 00
        E 186 b0 7b 00
        CHASE_CC_TAKEOFFS 1
        GUID {19362806-85F2-5D9E-E1F9-07BE0CF3D16E}
        IGNTEMPO 0 120 4 4
        SRCCOLOR 25
        VELLANE -1 100 0
        CFGEDITVIEW 0 0.045808 45 12 0 -1 0 0 0 0.5
        KEYSNAP 0
        TRACKSEL 0
        EVTFILTER 0 -1 -1 -1 -1 0 0 0 0 -1 -1 -1 -1 0 -1 0 -1 -1
        CFGEDIT 1 1 0 1 0 0 1 1 1 1 1 1 58 171 1253 866 0 0 0 0 0.25 0 0 0 0 0.5 0 0 1 64
      >
    >
    <ITEM
      POSITION 72
      SNAPOFFS 0
      LENGTH 8
      LOOP 1
      ALLTAKES 0
      FADEIN 1 0 0 1 0 0
      FADEOUT 1 0 0 1 0 0
      MUTE 0
      SEL 1
      IGUID {9CBDC302-7902-FC6A-0F11-10675F7CFE54}
      IID 19
      NAME "01-Recorded MIDI"
      VOLPAN 1 0 1 -1
      SOFFS 0 0
      PLAYRATE 1 1 0 -1 0 0.0021
      CHANMODE 0
      GUID {586B47C2-DA82-EFE1-777A-1BE69C4E29C7}
      RECPASS 1
      <SOURCE MIDI
        HASDATA 1 960 QN
        CCINTERP 32
        POOLEDEVTS {6D5A9475-F010-755C-E1AF-3295EE26A8D7}
        E 0 90 3c 48
        E 0 90 40 48
        E 0 90 43 48
        E 1920 80 3c 00
        E 0 80 40 00
        E 0 80 43 00
        E 0 90 3c 48
        E 0 90 40 48
        E 0 90 43 48
        E 260 80 3c 00
        E 0 80 40 00
        E 0 80 43 00
        E 440 90 3c 48
        E 0 90 40 48
        E 0 90 43 48
        E 260 80 3c 00
        E 0 80 40 00
        E 0 80 43 00
        e 514 90 3c 48
        e 0 90 40 48
        e 0 90 43 48
        e 260 80 3c 00
        e 0 80 40 00
        e 0 80 43 00
        E 186 90 43 48
        E 0 90 47 48
        E 20 90 40 48
        E 1900 80 43 00
        E 0 80 47 00
        E 0 80 40 00
        E 0 90 43 48
        E 0 90 47 48
        E 20 90 40 48
        E 240 80 43 00
        E 0 80 47 00
        E 0 80 40 00
        E 440 90 43 48
        E 0 90 47 48
        E 20 90 40 48
        E 240 80 43 00
        E 0 80 47 00
        E 0 80 40 00
        e 514 90 43 48
        e 0 90 47 48
        e 20 90 40 48
        e 240 80 43 00
        e 0 80 47 00
        e 0 80 40 00
        E 186 90 41 48
        E 0 90 45 48
        E 0 90 48 48
        E 1920 80 41 00
        E 0 80 45 00
        E 0 80 48 00
        E 0 90 41 48
        E 0 90 45 48
        E 0 90 48 48
        E 260 80 41 00
        E 0 80 45 00
        E 0 80 48 00
        E 440 90 41 48
        E 0 90 45 48
        E 0 90 48 48
        E 260 80 41 00
        E 0 80 45 00
        E 0 80 48 00
        e 514 90 41 48
        e 0 90 45 48
        e 0 90 48 48
        e 260 80 41 00
        e 0 80 45 00
        e 0 80 48 00
        E 162 90 3e 48
        E 24 90 41 48
        E 0 90 45 48
        E 1896 90 3e 48
        E 24 80 3e 00
        E 0 80 41 00
        E 0 80 45 00
        E 0 90 41 48
        E 0 90 45 48
        E 260 80 3e 00
        E 0 80 41 00
        E 0 80 45 00
        E 416 90 3e 48
        E 24 90 41 48
        E 0 90 45 48
        E 260 80 3e 00
        E 0 80 41 00
        E 0 80 45 00
        e 490 90 3e 48
        e 24 90 41 48
        e 0 90 45 48
        e 260 80 3e 00
        e 0 80 41 00
        e 0 80 45 00
        E 186 b0 7b 00
        CHASE_CC_TAKEOFFS 1
        GUID {6844F8A9-6BE9-023C-4A46-0A676470C99B}
        IGNTEMPO 0 120 4 4
        SRCCOLOR 26
        VELLANE -1 100 0
        CFGEDITVIEW 0 0.045808 45 12 0 -1 0 0 0 0.5
        KEYSNAP 0
        TRACKSEL 0
        EVTFILTER 0 -1 -1 -1 -1 0 0 0 0 -1 -1 -1 -1 0 -1 0 -1 -1
        CFGEDIT 1 1 0 1 0 0 1 1 1 1 1 1 58 171 1253 866 0 0 0 0 0.25 0 0 0 0 0.5 0 0 1 64
      >
    >
    <ITEM
      POSITION 80
      SNAPOFFS 0
      LENGTH 8
      LOOP 1
      ALLTAKES 0
      FADEIN 1 0 0 1 0 0
      FADEOUT 1 0 0 1 0 0
      MUTE 0
      SEL 1
      IGUID {45A1D2AD-C21E-2A7C-DDE0-14FDAB3BE83F}
      IID 20
      NAME "01-Recorded MIDI"
      VOLPAN 1 0 1 -1
      SOFFS 0 0
      PLAYRATE 1 1 0 -1 0 0.0021
      CHANMODE 0
      GUID {F8031F13-F8AD-08B1-25E1-920BD14F1A27}
      RECPASS 1
      <SOURCE MIDI
        HASDATA 1 960 QN
        CCINTERP 32
        POOLEDEVTS {3213ED95-B2DB-CB83-7B91-0FEB8256524F}
        E 0 90 3c 48
        E 0 90 40 48
        E 0 90 43 48
        E 1920 80 3c 00
        E 0 80 40 00
        E 0 80 43 00
        E 0 90 3c 48
        E 0 90 40 48
        E 0 90 43 48
        E 260 80 3c 00
        E 0 80 40 00
        E 0 80 43 00
        E 440 90 3c 48
        E 0 90 40 48
        E 0 90 43 48
        E 260 80 3c 00
        E 0 80 40 00
        E 0 80 43 00
        e 514 90 3c 48
        e 0 90 40 48
        e 0 90 43 48
        e 260 80 3c 00
        e 0 80 40 00
        e 0 80 43 00
        E 186 90 43 48
        E 0 90 47 48
        E 20 90 40 48
        E 1900 80 43 00
        E 0 80 47 00
        E 0 80 40 00
        E 0 90 43 48
        E 0 90 47 48
        E 20 90 40 48
        E 240 80 43 00
        E 0 80 47 00
        E 0 80 40 00
        E 440 90 43 48
        E 0 90 47 48
        E 20 90 40 48
        E 240 80 43 00
        E 0 80 47 00
        E 0 80 40 00
        e 514 90 43 48
        e 0 90 47 48
        e 20 90 40 48
        e 240 80 43 00
        e 0 80 47 00
        e 0 80 40 00
        E 186 90 41 48
        E 0 90 45 48
        E 0 90 48 48
        E 1920 80 41 00
        E 0 80 45 00
        E 0 80 48 00
        E 0 90 41 48
        E 0 90 45 48
        E 0 90 48 48
        E 260 80 41 00
        E 0 80 45 00
        E 0 80 48 00
        E 440 90 41 48
        E 0 90 45 48
        E 0 90 48 48
        E 260 80 41 00
        E 0 80 45 00
        E 0 80 48 00
        e 514 90 41 48
        e 0 90 45 48
        e 0 90 48 48
        e 260 80 41 00
        e 0 80 45 00
        e 0 80 48 00
        E 162 90 3e 48
        E 24 90 41 48
        E 0 90 45 48
        E 1896 90 3e 48
        E 24 80 3e 00
        E 0 80 41 00
        E 0 80 45 00
        E 0 90 41 48
        E 0 90 45 48
        E 260 80 3e 00
        E 0 80 41 00
        E 0 80 45 00
        E 416 90 3e 48
        E 24 90 41 48
        E 0 90 45 48
        E 260 80 3e 00
        E 0 80 41 00
        E 0 80 45 00
        e 490 90 3e 48
        e 24 90 41 48
        e 0 90 45 48
        e 260 80 3e 00
        e 0 80 41 00
        e 0 80 45 00
        E 186 b0 7b 00
        CHASE_CC_TAKEOFFS 1
        GUID {E611ADB6-4869-6CCA-8E83-3954D5E743B1}
        IGNTEMPO 0 120 4 4
        SRCCOLOR 27
        VELLANE -1 100 0
        CFGEDITVIEW 0 0.045808 45 12 0 -1 0 0 0 0.5
        KEYSNAP 0
        TRACKSEL 0
        EVTFILTER 0 -1 -1 -1 -1 0 0 0 0 -1 -1 -1 -1 0 -1 0 -1 -1
        CFGEDIT 1 1 0 1 0 0 1 1 1 1 1 1 58 171 1253 866 0 0 0 0 0.25 0 0 0 0 0.5 0 0 1 64
      >
    >
    <ITEM
      POSITION 88
      SNAPOFFS 0
      LENGTH 8
      LOOP 1
      ALLTAKES 0
      FADEIN 1 0 0 1 0 0
      FADEOUT 1 0 0 1 0 0
      MUTE 0
      SEL 1
      IGUID {8A47C2BC-FF6E-0270-2A6D-4D6A7A59BA75}
      IID 21
      NAME "01-Recorded MIDI"
      VOLPAN 1 0 1 -1
      SOFFS 0 0
      PLAYRATE 1 1 0 -1 0 0.0021
      CHANMODE 0
      GUID {92F92B64-E6A7-483E-6A60-0B1C72C97E34}
      RECPASS 1
      <SOURCE MIDI
        HASDATA 1 960 QN
        CCINTERP 32
        POOLEDEVTS {B2F055AE-A54B-E633-CC07-9C8D855F7E22}
        E 0 90 3c 48
        E 0 90 40 48
        E 0 90 43 48
        E 1920 80 3c 00
        E 0 80 40 00
        E 0 80 43 00
        E 0 90 3c 48
        E 0 90 40 48
        E 0 90 43 48
        E 260 80 3c 00
        E 0 80 40 00
        E 0 80 43 00
        E 440 90 3c 48
        E 0 90 40 48
        E 0 90 43 48
        E 260 80 3c 00
        E 0 80 40 00
        E 0 80 43 00
        e 514 90 3c 48
        e 0 90 40 48
        e 0 90 43 48
        e 260 80 3c 00
        e 0 80 40 00
        e 0 80 43 00
        E 186 90 43 48
        E 0 90 47 48
        E 20 90 40 48
        E 1900 80 43 00
        E 0 80 47 00
        E 0 80 40 00
        E 0 90 43 48
        E 0 90 47 48
        E 20 90 40 48
        E 240 80 43 00
        E 0 80 47 00
        E 0 80 40 00
        E 440 90 43 48
        E 0 90 47 48
        E 20 90 40 48
        E 240 80 43 00
        E 0 80 47 00
        E 0 80 40 00
        e 514 90 43 48
        e 0 90 47 48
        e 20 90 40 48
        e 240 80 43 00
        e 0 80 47 00
        e 0 80 40 00
        E 186 90 41 48
        E 0 90 45 48
        E 0 90 48 48
        E 1920 80 41 00
        E 0 80 45 00
        E 0 80 48 00
        E 0 90 41 48
        E 0 90 45 48
        E 0 90 48 48
        E 260 80 41 00
        E 0 80 45 00
        E 0 80 48 00
        E 440 90 41 48
        E 0 90 45 48
        E 0 90 48 48
        E 260 80 41 00
        E 0 80 45 00
        E 0 80 48 00
        e 514 90 41 48
        e 0 90 45 48
        e 0 90 48 48
        e 260 80 41 00
        e 0 80 45 00
        e 0 80 48 00
        E 162 90 3e 48
        E 24 90 41 48
        E 0 90 45 48
        E 1896 90 3e 48
        E 24 80 3e 00
        E 0 80 41 00
        E 0 80 45 00
        E 0 90 41 48
        E 0 90 45 48
        E 260 80 3e 00
        E 0 80 41 00
        E 0 80 45 00
        E 416 90 3e 48
        E 24 90 41 48
        E 0 90 45 48
        E 260 80 3e 00
        E 0 80 41 00
        E 0 80 45 00
        e 490 90 3e 48
        e 24 90 41 48
        e 0 90 45 48
        e 260 80 3e 00
        e 0 80 41 00
        e 0 80 45 00
        E 186 b0 7b 00
        CHASE_CC_TAKEOFFS 1
        GUID {C762B555-17FC-D765-5340-11D3487D2955}
        IGNTEMPO 0 120 4 4
        SRCCOLOR 28
        VELLANE -1 100 0
        CFGEDITVIEW 0 0.045808 45 12 0 -1 0 0 0 0.5
        KEYSNAP 0
        TRACKSEL 0
        EVTFILTER 0 -1 -1 -1 -1 0 0 0 0 -1 -1 -1 -1 0 -1 0 -1 -1
        CFGEDIT 1 1 0 1 0 0 1 1 1 1 1 1 58 171 1253 866 0 0 0 0 0.25 0 0 0 0 0.5 0 0 1 64
      >
    >
  >
  <TRACK {DCFE1811-830C-8BFE-05F8-89EBBDF4EFA2}
    NAME ""
    PEAKCOL 16576
    BEAT -1
    AUTOMODE 0
    VOLPAN 0.00052194381917 0 -1 -1 1
    MUTESOLO 0 0 0
    IPHASE 0
    PLAYOFFS 0 1
    ISBUS 0 0
    BUSCOMP 0 0 0 0 0
    SHOWINMIX 1 0.6667 0.5 1 0.5 0 0 0
    FREEMODE 0
    SEL 0
    REC 0 5056 1 0 0 0 0
    VU 2
    TRACKHEIGHT 21 0 0
    INQ 0 0 0 0.5 100 0 0 100
    NCHAN 2
    FX 0
    TRACKID {DCFE1811-830C-8BFE-05F8-89EBBDF4EFA2}
    PERF 0
    MIDIOUT -1
    MAINSEND 1 0
    <FXCHAIN
      WNDRECT 346 266 902 608
      SHOW 0
      LASTSEL 5
      DOCKED 0
      BYPASS 0 0 0
      <VST "VST: ReaEQ (Cockos)" reaeq.vst.so 0 "" 1919247729<56535472656571726561657100000000> ""
        cWVlcu5e7f4CAAAAAQAAAAAAAAACAAAAAAAAAAIAAAABAAAAAAAAAAIAAAAAAAAAqAAAAAEAAAAAABAA
        IQAAAAQAAAAEAAAAAQAAAEC4Xhmm+DRAAAAAAAAA8D8AAAAAAAAAQAEIAAAAAQAAAAAAAAAAwHJAAAAAAAAA8D8AAAAAAAAAQAEIAAAAAQAAAAAAAAAAQI9AAAAAAAAA
        8D8AAAAAAAAAQAEDAAAAAQAAAAABaCorbdRAAAAAAAAA8D8AAAAAAAAAQAEBAAAAAQAAAAAAAAAAAPA/AAAAAJoCAACcAQAA
        AEhpZ2ggbG93IHBhc3MAEAAAAA==
      >
      PRESETNAME "High low pass"
      FLOATPOS 0 0 0 0
      FXID {E24E1468-8197-49E7-D7AF-BD33E8F7C2DF}
      WAK 0 0
      BYPASS 0 0 0
      <VST "VSTi: ReaSynth (Cockos)" reasynth.vst.so 0 "" 1919251321<5653547265737972656173796E746800> ""
        eXNlcu9e7f4AAAAAAgAAAAEAAAAAAAAAAgAAAAAAAAA8AAAAAAAAAAAAEAA=
        776t3g3wrd6lm8Q7F7fROgAAAAAAAAAAAAAAAJCNuT3oZ4g9AACAPwAAAD8AAIA/AAAAAAAAAD8AAAAA
        AAAQAAAA
      >
      FLOATPOS 0 0 0 0
      FXID {6665FF11-1A51-4E3B-1C01-3971C6CFAB9E}
      WAK 0 0
      BYPASS 0 0 0
      <JS guitar/amp-model ""
        "Dumble Overdrive Special - Tweed Deluxe.wav" -21.000000 1.000000 0.000000 0.000000 -1.000000 - - - - - - - - - - - - - - - - - - - - - - - - - - - - - - - - - - - - - - - - - - - - - - - - - - - - - - - - - - 
      >
      FLOATPOS 0 0 0 0
      FXID {170404C6-ED6D-D756-DA72-F2E2A6072892}
      WAK 0 0
      BYPASS 0 0 0
      <VST "VST: ReaComp (Cockos)" reacomp.vst.so 0 "" 1919247213<5653547265636D726561636F6D700000> ""
        bWNlcu9e7f4EAAAAAQAAAAAAAAACAAAAAAAAAAQAAAAAAAAACAAAAAAAAAACAAAAAQAAAAAAAAACAAAAAAAAAFQAAAAAAAAAAAAQAA==
        776t3g3wrd5FoYg9/AWpPKWbxDsK16M8AAAAAAAAAAAAAIA/AAAAAAAAAAAAAAAAnNEHMwAAgD8AAAAAzMxMPQAAAAAAAAAAAAAAAAAAgD7YiZ09
        AAAQAAAA
      >
      FLOATPOS 0 0 0 0
      FXID {11954CE6-5FCF-2324-8C29-7150DF522377}
      WAK 0 0
      BYPASS 0 0 0
      <VST "VST: ReaDelay (Cockos)" readelay.vst.so 0 "" 1919247468<5653547265646C72656164656C617900> ""
        bGRlcu5e7f4CAAAAAQAAAAAAAAACAAAAAAAAAAIAAAABAAAAAAAAAAIAAAAAAAAA/AAAAAEAAAAAAAAA
        AAAAAAAAAAAFAAAALAAAAAIAAAAEAAAAAACAPwAAgD8AAAAAAACAPwAAAAAAAIA7vTeGNQAAgD8AAAAAAACAPwAAgD8AAIA/AAAAAAAAAAAAAIA/AAAAAAAAADwAAAAA
        AACAPwAAAAAAAIA/AACAP+87NT8AAIA/AAAAAAAAgD8AAAAAAABAPL03hjUAAIA/AAAAAAAAgD8AAIA/zk0AP6abhD4AAAAAAACAPwAAAAAAAIA8vTeGNQAAgD8AAAAA
        AACAPwAAgD8aqrU+pHA9PwAAAAAAAIA/AAAAAAAAoDy9N4Y1AACAPwAAAAAAAIA/AACAP/npAD4AAAA/
        AHN0b2NrIC0gYmFzaWMgNSB0YXAgcGluZyBwb25nAAAAAAA=
      >
      PRESETNAME "stock - basic 5 tap ping pong"
      FLOATPOS 0 0 0 0
      FXID {CDE57819-FA5D-2863-BB84-DF4B02E6A5C9}
      WAK 0 0
      BYPASS 0 0 0
      <VST "VST: ReaVerb (Cockos)" reaverb.vst.so 0 "" 1919252066<56535472657662726561766572620000> ""
        YnZlcu5e7f4CAAAAAQAAAAAAAAACAAAAAAAAAAIAAAABAAAAAAAAAAIAAAAAAAAAcAAAAAEAAAAAAAAA
        AAAAwcybgD4AAIA/AAAAAAAAgD8AAIA/AAAAPwAAgD8AAAAAVkVSQkdFTgAYAAAAAAAAAJHgV0QdrLRA3rK7QsHIjEIAAIC/RUNIT0dFTgAcAAAAy/i2QLUjdUJdzdM/
        osdfP5lRrzyRzYxAnMQAPw==
        AHN3ZWV0dmVyYm8AAAAAAA==
      >
      PRESETNAME sweetverbo
      FLOATPOS 0 0 0 0
      FXID {62975CBB-39AB-B2AD-4EDE-146791989D52}
      WAK 0 0
    >
    <ITEM
      POSITION 0
      SNAPOFFS 0
      LENGTH 8
      LOOP 1
      ALLTAKES 0
      FADEIN 1 0 0 1 0 0
      FADEOUT 1 0 0 1 0 0
      MUTE 0
      SEL 1
      IGUID {225FD090-30EC-7A14-58BE-65B7D514C202}
      IID 10
      NAME "01-Recorded MIDI"
      VOLPAN 1 0 1 -1
      SOFFS 0 0
      PLAYRATE 1 1 0 -1 0 0.0021
      CHANMODE 0
      GUID {C42DCC17-2B45-C9A2-1283-FB0B6E1A53AD}
      RECPASS 1
      <SOURCE MIDI
        HASDATA 1 960 QN
        CCINTERP 32
        POOLEDEVTS {431F4A67-B6E4-9DA7-6E5B-EF71D899C74A}
        E 0 90 3c 48
        E 0 90 40 48
        E 0 90 43 48
        E 1920 80 3c 00
        E 0 80 40 00
        E 0 80 43 00
        E 0 90 3c 48
        E 0 90 40 48
        E 0 90 43 48
        E 260 80 3c 00
        E 0 80 40 00
        E 0 80 43 00
        E 440 90 3c 48
        E 0 90 40 48
        E 0 90 43 48
        E 260 80 3c 00
        E 0 80 40 00
        E 0 80 43 00
        e 514 90 3c 48
        e 0 90 40 48
        e 0 90 43 48
        e 260 80 3c 00
        e 0 80 40 00
        e 0 80 43 00
        E 186 90 43 48
        E 0 90 47 48
        E 20 90 40 48
        E 1900 80 43 00
        E 0 80 47 00
        E 0 80 40 00
        E 0 90 43 48
        E 0 90 47 48
        E 20 90 40 48
        E 240 80 43 00
        E 0 80 47 00
        E 0 80 40 00
        E 440 90 43 48
        E 0 90 47 48
        E 20 90 40 48
        E 240 80 43 00
        E 0 80 47 00
        E 0 80 40 00
        e 514 90 43 48
        e 0 90 47 48
        e 20 90 40 48
        e 240 80 43 00
        e 0 80 47 00
        e 0 80 40 00
        E 186 90 41 48
        E 0 90 45 48
        E 0 90 48 48
        E 1920 80 41 00
        E 0 80 45 00
        E 0 80 48 00
        E 0 90 41 48
        E 0 90 45 48
        E 0 90 48 48
        E 260 80 41 00
        E 0 80 45 00
        E 0 80 48 00
        E 440 90 41 48
        E 0 90 45 48
        E 0 90 48 48
        E 260 80 41 00
        E 0 80 45 00
        E 0 80 48 00
        e 514 90 41 48
        e 0 90 45 48
        e 0 90 48 48
        e 260 80 41 00
        e 0 80 45 00
        e 0 80 48 00
        E 162 90 3e 48
        E 24 90 41 48
        E 0 90 45 48
        E 1896 90 3e 48
        E 24 80 3e 00
        E 0 80 41 00
        E 0 80 45 00
        E 0 90 41 48
        E 0 90 45 48
        E 260 80 3e 00
        E 0 80 41 00
        E 0 80 45 00
        E 416 90 3e 48
        E 24 90 41 48
        E 0 90 45 48
        E 260 80 3e 00
        E 0 80 41 00
        E 0 80 45 00
        e 490 90 3e 48
        e 24 90 41 48
        e 0 90 45 48
        e 260 80 3e 00
        e 0 80 41 00
        e 0 80 45 00
        E 186 b0 7b 00
        CHASE_CC_TAKEOFFS 1
        GUID {7B9D708B-43E1-C8D4-C4B3-87E2A6C27801}
        IGNTEMPO 0 120 4 4
        SRCCOLOR 17
        VELLANE -1 100 0
        CFGEDITVIEW 0 0.045808 45 12 0 -1 0 0 0 0.5
        KEYSNAP 0
        TRACKSEL 0
        EVTFILTER 0 -1 -1 -1 -1 0 0 0 0 -1 -1 -1 -1 0 -1 0 -1 -1
        CFGEDIT 1 1 0 1 0 0 1 1 1 1 1 1 58 171 1253 866 0 0 0 0 0.25 0 0 0 0 0.5 0 0 1 64
      >
    >
    <ITEM
      POSITION 8
      SNAPOFFS 0
      LENGTH 8
      LOOP 1
      ALLTAKES 0
      FADEIN 1 0 0 1 0 0
      FADEOUT 1 0 0 1 0 0
      MUTE 0
      SEL 1
      IGUID {C2511BAB-5062-07C5-28AA-2F16E6E35231}
      IID 11
      NAME "01-Recorded MIDI"
      VOLPAN 1 0 1 -1
      SOFFS 0 0
      PLAYRATE 1 1 0 -1 0 0.0021
      CHANMODE 0
      GUID {51151672-CE0B-F029-F4B1-E52F88D99C6E}
      RECPASS 1
      <SOURCE MIDI
        HASDATA 1 960 QN
        CCINTERP 32
        POOLEDEVTS {89B8C9A8-FB6C-14FB-2F0C-8401F0A7378A}
        E 0 90 3c 48
        E 0 90 40 48
        E 0 90 43 48
        E 1920 80 3c 00
        E 0 80 40 00
        E 0 80 43 00
        E 0 90 3c 48
        E 0 90 40 48
        E 0 90 43 48
        E 260 80 3c 00
        E 0 80 40 00
        E 0 80 43 00
        E 440 90 3c 48
        E 0 90 40 48
        E 0 90 43 48
        E 260 80 3c 00
        E 0 80 40 00
        E 0 80 43 00
        e 514 90 3c 48
        e 0 90 40 48
        e 0 90 43 48
        e 260 80 3c 00
        e 0 80 40 00
        e 0 80 43 00
        E 186 90 43 48
        E 0 90 47 48
        E 20 90 40 48
        E 1900 80 43 00
        E 0 80 47 00
        E 0 80 40 00
        E 0 90 43 48
        E 0 90 47 48
        E 20 90 40 48
        E 240 80 43 00
        E 0 80 47 00
        E 0 80 40 00
        E 440 90 43 48
        E 0 90 47 48
        E 20 90 40 48
        E 240 80 43 00
        E 0 80 47 00
        E 0 80 40 00
        e 514 90 43 48
        e 0 90 47 48
        e 20 90 40 48
        e 240 80 43 00
        e 0 80 47 00
        e 0 80 40 00
        E 186 90 41 48
        E 0 90 45 48
        E 0 90 48 48
        E 1920 80 41 00
        E 0 80 45 00
        E 0 80 48 00
        E 0 90 41 48
        E 0 90 45 48
        E 0 90 48 48
        E 260 80 41 00
        E 0 80 45 00
        E 0 80 48 00
        E 440 90 41 48
        E 0 90 45 48
        E 0 90 48 48
        E 260 80 41 00
        E 0 80 45 00
        E 0 80 48 00
        e 514 90 41 48
        e 0 90 45 48
        e 0 90 48 48
        e 260 80 41 00
        e 0 80 45 00
        e 0 80 48 00
        E 162 90 3e 48
        E 24 90 41 48
        E 0 90 45 48
        E 1896 90 3e 48
        E 24 80 3e 00
        E 0 80 41 00
        E 0 80 45 00
        E 0 90 41 48
        E 0 90 45 48
        E 260 80 3e 00
        E 0 80 41 00
        E 0 80 45 00
        E 416 90 3e 48
        E 24 90 41 48
        E 0 90 45 48
        E 260 80 3e 00
        E 0 80 41 00
        E 0 80 45 00
        e 490 90 3e 48
        e 24 90 41 48
        e 0 90 45 48
        e 260 80 3e 00
        e 0 80 41 00
        e 0 80 45 00
        E 186 b0 7b 00
        CHASE_CC_TAKEOFFS 1
        GUID {3131B4E2-B370-E352-A9C5-C8CA31551A86}
        IGNTEMPO 0 120 4 4
        SRCCOLOR 18
        VELLANE -1 100 0
        CFGEDITVIEW 0 0.045808 45 12 0 -1 0 0 0 0.5
        KEYSNAP 0
        TRACKSEL 0
        EVTFILTER 0 -1 -1 -1 -1 0 0 0 0 -1 -1 -1 -1 0 -1 0 -1 -1
        CFGEDIT 1 1 0 1 0 0 1 1 1 1 1 1 58 171 1253 866 0 0 0 0 0.25 0 0 0 0 0.5 0 0 1 64
      >
    >
    <ITEM
      POSITION 16
      SNAPOFFS 0
      LENGTH 8
      LOOP 1
      ALLTAKES 0
      FADEIN 1 0 0 1 0 0
      FADEOUT 1 0 0 1 0 0
      MUTE 0
      SEL 1
      IGUID {805CE5DF-DAE6-FC1A-F139-F89CE8FA4342}
      IID 12
      NAME "01-Recorded MIDI"
      VOLPAN 1 0 1 -1
      SOFFS 0 0
      PLAYRATE 1 1 0 -1 0 0.0021
      CHANMODE 0
      GUID {6A58AE07-FE5F-1982-0B96-08E3EF3286C6}
      RECPASS 1
      <SOURCE MIDI
        HASDATA 1 960 QN
        CCINTERP 32
        POOLEDEVTS {B248BC15-E048-734C-D460-4514F4848A93}
        E 0 90 3c 48
        E 0 90 40 48
        E 0 90 43 48
        E 1920 80 3c 00
        E 0 80 40 00
        E 0 80 43 00
        E 0 90 3c 48
        E 0 90 40 48
        E 0 90 43 48
        E 260 80 3c 00
        E 0 80 40 00
        E 0 80 43 00
        E 440 90 3c 48
        E 0 90 40 48
        E 0 90 43 48
        E 260 80 3c 00
        E 0 80 40 00
        E 0 80 43 00
        e 514 90 3c 48
        e 0 90 40 48
        e 0 90 43 48
        e 260 80 3c 00
        e 0 80 40 00
        e 0 80 43 00
        E 186 90 43 48
        E 0 90 47 48
        E 20 90 40 48
        E 1900 80 43 00
        E 0 80 47 00
        E 0 80 40 00
        E 0 90 43 48
        E 0 90 47 48
        E 20 90 40 48
        E 240 80 43 00
        E 0 80 47 00
        E 0 80 40 00
        E 440 90 43 48
        E 0 90 47 48
        E 20 90 40 48
        E 240 80 43 00
        E 0 80 47 00
        E 0 80 40 00
        e 514 90 43 48
        e 0 90 47 48
        e 20 90 40 48
        e 240 80 43 00
        e 0 80 47 00
        e 0 80 40 00
        E 186 90 41 48
        E 0 90 45 48
        E 0 90 48 48
        E 1920 80 41 00
        E 0 80 45 00
        E 0 80 48 00
        E 0 90 41 48
        E 0 90 45 48
        E 0 90 48 48
        E 260 80 41 00
        E 0 80 45 00
        E 0 80 48 00
        E 440 90 41 48
        E 0 90 45 48
        E 0 90 48 48
        E 260 80 41 00
        E 0 80 45 00
        E 0 80 48 00
        e 514 90 41 48
        e 0 90 45 48
        e 0 90 48 48
        e 260 80 41 00
        e 0 80 45 00
        e 0 80 48 00
        E 162 90 3e 48
        E 24 90 41 48
        E 0 90 45 48
        E 1896 90 3e 48
        E 24 80 3e 00
        E 0 80 41 00
        E 0 80 45 00
        E 0 90 41 48
        E 0 90 45 48
        E 260 80 3e 00
        E 0 80 41 00
        E 0 80 45 00
        E 416 90 3e 48
        E 24 90 41 48
        E 0 90 45 48
        E 260 80 3e 00
        E 0 80 41 00
        E 0 80 45 00
        e 490 90 3e 48
        e 24 90 41 48
        e 0 90 45 48
        e 260 80 3e 00
        e 0 80 41 00
        e 0 80 45 00
        E 186 b0 7b 00
        CHASE_CC_TAKEOFFS 1
        GUID {48C567A2-895C-FB9B-FDBA-0ADB7004ABF3}
        IGNTEMPO 0 120 4 4
        SRCCOLOR 19
        VELLANE -1 100 0
        CFGEDITVIEW 0 0.045808 45 12 0 -1 0 0 0 0.5
        KEYSNAP 0
        TRACKSEL 0
        EVTFILTER 0 -1 -1 -1 -1 0 0 0 0 -1 -1 -1 -1 0 -1 0 -1 -1
        CFGEDIT 1 1 0 1 0 0 1 1 1 1 1 1 58 171 1253 866 0 0 0 0 0.25 0 0 0 0 0.5 0 0 1 64
      >
    >
    <ITEM
      POSITION 24
      SNAPOFFS 0
      LENGTH 8
      LOOP 1
      ALLTAKES 0
      FADEIN 1 0 0 1 0 0
      FADEOUT 1 0 0 1 0 0
      MUTE 0
      SEL 1
      IGUID {5BDCE283-CD1B-F169-03C6-D1574199C408}
      IID 13
      NAME "01-Recorded MIDI"
      VOLPAN 1 0 1 -1
      SOFFS 0 0
      PLAYRATE 1 1 0 -1 0 0.0021
      CHANMODE 0
      GUID {6F9F618B-63BD-25BE-9F4E-35E931E9A41B}
      RECPASS 1
      <SOURCE MIDI
        HASDATA 1 960 QN
        CCINTERP 32
        POOLEDEVTS {27ADAFCE-1481-1947-1AE9-7F6AEB03A034}
        E 0 90 3c 48
        E 0 90 40 48
        E 0 90 43 48
        E 1920 80 3c 00
        E 0 80 40 00
        E 0 80 43 00
        E 0 90 3c 48
        E 0 90 40 48
        E 0 90 43 48
        E 260 80 3c 00
        E 0 80 40 00
        E 0 80 43 00
        E 440 90 3c 48
        E 0 90 40 48
        E 0 90 43 48
        E 260 80 3c 00
        E 0 80 40 00
        E 0 80 43 00
        e 514 90 3c 48
        e 0 90 40 48
        e 0 90 43 48
        e 260 80 3c 00
        e 0 80 40 00
        e 0 80 43 00
        E 186 90 43 48
        E 0 90 47 48
        E 20 90 40 48
        E 1900 80 43 00
        E 0 80 47 00
        E 0 80 40 00
        E 0 90 43 48
        E 0 90 47 48
        E 20 90 40 48
        E 240 80 43 00
        E 0 80 47 00
        E 0 80 40 00
        E 440 90 43 48
        E 0 90 47 48
        E 20 90 40 48
        E 240 80 43 00
        E 0 80 47 00
        E 0 80 40 00
        e 514 90 43 48
        e 0 90 47 48
        e 20 90 40 48
        e 240 80 43 00
        e 0 80 47 00
        e 0 80 40 00
        E 186 90 41 48
        E 0 90 45 48
        E 0 90 48 48
        E 1920 80 41 00
        E 0 80 45 00
        E 0 80 48 00
        E 0 90 41 48
        E 0 90 45 48
        E 0 90 48 48
        E 260 80 41 00
        E 0 80 45 00
        E 0 80 48 00
        E 440 90 41 48
        E 0 90 45 48
        E 0 90 48 48
        E 260 80 41 00
        E 0 80 45 00
        E 0 80 48 00
        e 514 90 41 48
        e 0 90 45 48
        e 0 90 48 48
        e 260 80 41 00
        e 0 80 45 00
        e 0 80 48 00
        E 162 90 3e 48
        E 24 90 41 48
        E 0 90 45 48
        E 1896 90 3e 48
        E 24 80 3e 00
        E 0 80 41 00
        E 0 80 45 00
        E 0 90 41 48
        E 0 90 45 48
        E 260 80 3e 00
        E 0 80 41 00
        E 0 80 45 00
        E 416 90 3e 48
        E 24 90 41 48
        E 0 90 45 48
        E 260 80 3e 00
        E 0 80 41 00
        E 0 80 45 00
        e 490 90 3e 48
        e 24 90 41 48
        e 0 90 45 48
        e 260 80 3e 00
        e 0 80 41 00
        e 0 80 45 00
        E 186 b0 7b 00
        CHASE_CC_TAKEOFFS 1
        GUID {1DE38800-E2A1-41B5-9C8C-3291891093B1}
        IGNTEMPO 0 120 4 4
        SRCCOLOR 20
        VELLANE -1 100 0
        CFGEDITVIEW 0 0.045808 45 12 0 -1 0 0 0 0.5
        KEYSNAP 0
        TRACKSEL 0
        EVTFILTER 0 -1 -1 -1 -1 0 0 0 0 -1 -1 -1 -1 0 -1 0 -1 -1
        CFGEDIT 1 1 0 1 0 0 1 1 1 1 1 1 58 171 1253 866 0 0 0 0 0.25 0 0 0 0 0.5 0 0 1 64
      >
    >
    <ITEM
      POSITION 32
      SNAPOFFS 0
      LENGTH 8
      LOOP 1
      ALLTAKES 0
      FADEIN 1 0 0 1 0 0
      FADEOUT 1 0 0 1 0 0
      MUTE 0
      SEL 1
      IGUID {ED56BF75-11E2-58E7-870A-3AB201FF1ADD}
      IID 14
      NAME "01-Recorded MIDI"
      VOLPAN 1 0 1 -1
      SOFFS 0 0
      PLAYRATE 1 1 0 -1 0 0.0021
      CHANMODE 0
      GUID {B97A862D-7D58-2578-A8A7-1FA20B87D513}
      RECPASS 1
      <SOURCE MIDI
        HASDATA 1 960 QN
        CCINTERP 32
        POOLEDEVTS {92125374-8D68-BE7B-2E29-A15C95B44B06}
        E 0 90 3c 48
        E 0 90 40 48
        E 0 90 43 48
        E 1920 80 3c 00
        E 0 80 40 00
        E 0 80 43 00
        E 0 90 3c 48
        E 0 90 40 48
        E 0 90 43 48
        E 260 80 3c 00
        E 0 80 40 00
        E 0 80 43 00
        E 440 90 3c 48
        E 0 90 40 48
        E 0 90 43 48
        E 260 80 3c 00
        E 0 80 40 00
        E 0 80 43 00
        e 514 90 3c 48
        e 0 90 40 48
        e 0 90 43 48
        e 260 80 3c 00
        e 0 80 40 00
        e 0 80 43 00
        E 186 90 43 48
        E 0 90 47 48
        E 20 90 40 48
        E 1900 80 43 00
        E 0 80 47 00
        E 0 80 40 00
        E 0 90 43 48
        E 0 90 47 48
        E 20 90 40 48
        E 240 80 43 00
        E 0 80 47 00
        E 0 80 40 00
        E 440 90 43 48
        E 0 90 47 48
        E 20 90 40 48
        E 240 80 43 00
        E 0 80 47 00
        E 0 80 40 00
        e 514 90 43 48
        e 0 90 47 48
        e 20 90 40 48
        e 240 80 43 00
        e 0 80 47 00
        e 0 80 40 00
        E 186 90 41 48
        E 0 90 45 48
        E 0 90 48 48
        E 1920 80 41 00
        E 0 80 45 00
        E 0 80 48 00
        E 0 90 41 48
        E 0 90 45 48
        E 0 90 48 48
        E 260 80 41 00
        E 0 80 45 00
        E 0 80 48 00
        E 440 90 41 48
        E 0 90 45 48
        E 0 90 48 48
        E 260 80 41 00
        E 0 80 45 00
        E 0 80 48 00
        e 514 90 41 48
        e 0 90 45 48
        e 0 90 48 48
        e 260 80 41 00
        e 0 80 45 00
        e 0 80 48 00
        E 162 90 3e 48
        E 24 90 41 48
        E 0 90 45 48
        E 1896 90 3e 48
        E 24 80 3e 00
        E 0 80 41 00
        E 0 80 45 00
        E 0 90 41 48
        E 0 90 45 48
        E 260 80 3e 00
        E 0 80 41 00
        E 0 80 45 00
        E 416 90 3e 48
        E 24 90 41 48
        E 0 90 45 48
        E 260 80 3e 00
        E 0 80 41 00
        E 0 80 45 00
        e 490 90 3e 48
        e 24 90 41 48
        e 0 90 45 48
        e 260 80 3e 00
        e 0 80 41 00
        e 0 80 45 00
        E 186 b0 7b 00
        CHASE_CC_TAKEOFFS 1
        GUID {0C3271F4-E233-9088-9B25-A722FAE7C579}
        IGNTEMPO 0 120 4 4
        SRCCOLOR 21
        VELLANE -1 100 0
        CFGEDITVIEW 0 0.045808 45 12 0 -1 0 0 0 0.5
        KEYSNAP 0
        TRACKSEL 0
        EVTFILTER 0 -1 -1 -1 -1 0 0 0 0 -1 -1 -1 -1 0 -1 0 -1 -1
        CFGEDIT 1 1 0 1 0 0 1 1 1 1 1 1 58 171 1253 866 0 0 0 0 0.25 0 0 0 0 0.5 0 0 1 64
      >
    >
    <ITEM
      POSITION 40
      SNAPOFFS 0
      LENGTH 8
      LOOP 1
      ALLTAKES 0
      FADEIN 1 0 0 1 0 0
      FADEOUT 1 0 0 1 0 0
      MUTE 0
      SEL 1
      IGUID {86225AA4-AF3E-FB26-B6F3-15EDF1D82CA3}
      IID 15
      NAME "01-Recorded MIDI"
      VOLPAN 1 0 1 -1
      SOFFS 0 0
      PLAYRATE 1 1 0 -1 0 0.0021
      CHANMODE 0
      GUID {1DC2CFC5-256E-CA61-62FD-1AF2EEB1EDBD}
      RECPASS 1
      <SOURCE MIDI
        HASDATA 1 960 QN
        CCINTERP 32
        POOLEDEVTS {FA367EB8-E00F-676D-87B6-E8D39524E3D1}
        E 0 90 3c 48
        E 0 90 40 48
        E 0 90 43 48
        E 1920 80 3c 00
        E 0 80 40 00
        E 0 80 43 00
        E 0 90 3c 48
        E 0 90 40 48
        E 0 90 43 48
        E 260 80 3c 00
        E 0 80 40 00
        E 0 80 43 00
        E 440 90 3c 48
        E 0 90 40 48
        E 0 90 43 48
        E 260 80 3c 00
        E 0 80 40 00
        E 0 80 43 00
        e 514 90 3c 48
        e 0 90 40 48
        e 0 90 43 48
        e 260 80 3c 00
        e 0 80 40 00
        e 0 80 43 00
        E 186 90 43 48
        E 0 90 47 48
        E 20 90 40 48
        E 1900 80 43 00
        E 0 80 47 00
        E 0 80 40 00
        E 0 90 43 48
        E 0 90 47 48
        E 20 90 40 48
        E 240 80 43 00
        E 0 80 47 00
        E 0 80 40 00
        E 440 90 43 48
        E 0 90 47 48
        E 20 90 40 48
        E 240 80 43 00
        E 0 80 47 00
        E 0 80 40 00
        e 514 90 43 48
        e 0 90 47 48
        e 20 90 40 48
        e 240 80 43 00
        e 0 80 47 00
        e 0 80 40 00
        E 186 90 41 48
        E 0 90 45 48
        E 0 90 48 48
        E 1920 80 41 00
        E 0 80 45 00
        E 0 80 48 00
        E 0 90 41 48
        E 0 90 45 48
        E 0 90 48 48
        E 260 80 41 00
        E 0 80 45 00
        E 0 80 48 00
        E 440 90 41 48
        E 0 90 45 48
        E 0 90 48 48
        E 260 80 41 00
        E 0 80 45 00
        E 0 80 48 00
        e 514 90 41 48
        e 0 90 45 48
        e 0 90 48 48
        e 260 80 41 00
        e 0 80 45 00
        e 0 80 48 00
        E 162 90 3e 48
        E 24 90 41 48
        E 0 90 45 48
        E 1896 90 3e 48
        E 24 80 3e 00
        E 0 80 41 00
        E 0 80 45 00
        E 0 90 41 48
        E 0 90 45 48
        E 260 80 3e 00
        E 0 80 41 00
        E 0 80 45 00
        E 416 90 3e 48
        E 24 90 41 48
        E 0 90 45 48
        E 260 80 3e 00
        E 0 80 41 00
        E 0 80 45 00
        e 490 90 3e 48
        e 24 90 41 48
        e 0 90 45 48
        e 260 80 3e 00
        e 0 80 41 00
        e 0 80 45 00
        E 186 b0 7b 00
        CHASE_CC_TAKEOFFS 1
        GUID {040E7AF8-3572-5D91-3C86-797AEE7444D4}
        IGNTEMPO 0 120 4 4
        SRCCOLOR 22
        VELLANE -1 100 0
        CFGEDITVIEW 0 0.045808 45 12 0 -1 0 0 0 0.5
        KEYSNAP 0
        TRACKSEL 0
        EVTFILTER 0 -1 -1 -1 -1 0 0 0 0 -1 -1 -1 -1 0 -1 0 -1 -1
        CFGEDIT 1 1 0 1 0 0 1 1 1 1 1 1 58 171 1253 866 0 0 0 0 0.25 0 0 0 0 0.5 0 0 1 64
      >
    >
    <ITEM
      POSITION 48
      SNAPOFFS 0
      LENGTH 8
      LOOP 1
      ALLTAKES 0
      FADEIN 1 0 0 1 0 0
      FADEOUT 1 0 0 1 0 0
      MUTE 0
      SEL 1
      IGUID {3CBCF0A1-B78C-6716-8001-6E9825706563}
      IID 16
      NAME "01-Recorded MIDI"
      VOLPAN 1 0 1 -1
      SOFFS 0 0
      PLAYRATE 1 1 0 -1 0 0.0021
      CHANMODE 0
      GUID {F36E976E-81B0-31D7-ECF9-6B31D8CCA538}
      RECPASS 1
      <SOURCE MIDI
        HASDATA 1 960 QN
        CCINTERP 32
        POOLEDEVTS {80502452-7D7E-8107-A2C0-9137BC3ECE4A}
        E 0 90 3c 48
        E 0 90 40 48
        E 0 90 43 48
        E 1920 80 3c 00
        E 0 80 40 00
        E 0 80 43 00
        E 0 90 3c 48
        E 0 90 40 48
        E 0 90 43 48
        E 260 80 3c 00
        E 0 80 40 00
        E 0 80 43 00
        E 440 90 3c 48
        E 0 90 40 48
        E 0 90 43 48
        E 260 80 3c 00
        E 0 80 40 00
        E 0 80 43 00
        e 514 90 3c 48
        e 0 90 40 48
        e 0 90 43 48
        e 260 80 3c 00
        e 0 80 40 00
        e 0 80 43 00
        E 186 90 43 48
        E 0 90 47 48
        E 20 90 40 48
        E 1900 80 43 00
        E 0 80 47 00
        E 0 80 40 00
        E 0 90 43 48
        E 0 90 47 48
        E 20 90 40 48
        E 240 80 43 00
        E 0 80 47 00
        E 0 80 40 00
        E 440 90 43 48
        E 0 90 47 48
        E 20 90 40 48
        E 240 80 43 00
        E 0 80 47 00
        E 0 80 40 00
        e 514 90 43 48
        e 0 90 47 48
        e 20 90 40 48
        e 240 80 43 00
        e 0 80 47 00
        e 0 80 40 00
        E 186 90 41 48
        E 0 90 45 48
        E 0 90 48 48
        E 1920 80 41 00
        E 0 80 45 00
        E 0 80 48 00
        E 0 90 41 48
        E 0 90 45 48
        E 0 90 48 48
        E 260 80 41 00
        E 0 80 45 00
        E 0 80 48 00
        E 440 90 41 48
        E 0 90 45 48
        E 0 90 48 48
        E 260 80 41 00
        E 0 80 45 00
        E 0 80 48 00
        e 514 90 41 48
        e 0 90 45 48
        e 0 90 48 48
        e 260 80 41 00
        e 0 80 45 00
        e 0 80 48 00
        E 162 90 3e 48
        E 24 90 41 48
        E 0 90 45 48
        E 1896 90 3e 48
        E 24 80 3e 00
        E 0 80 41 00
        E 0 80 45 00
        E 0 90 41 48
        E 0 90 45 48
        E 260 80 3e 00
        E 0 80 41 00
        E 0 80 45 00
        E 416 90 3e 48
        E 24 90 41 48
        E 0 90 45 48
        E 260 80 3e 00
        E 0 80 41 00
        E 0 80 45 00
        e 490 90 3e 48
        e 24 90 41 48
        e 0 90 45 48
        e 260 80 3e 00
        e 0 80 41 00
        e 0 80 45 00
        E 186 b0 7b 00
        CHASE_CC_TAKEOFFS 1
        GUID {2338968B-6CF9-9F40-300F-DEB89D3392EA}
        IGNTEMPO 0 120 4 4
        SRCCOLOR 23
        VELLANE -1 100 0
        CFGEDITVIEW 0 0.045808 45 12 0 -1 0 0 0 0.5
        KEYSNAP 0
        TRACKSEL 0
        EVTFILTER 0 -1 -1 -1 -1 0 0 0 0 -1 -1 -1 -1 0 -1 0 -1 -1
        CFGEDIT 1 1 0 1 0 0 1 1 1 1 1 1 58 171 1253 866 0 0 0 0 0.25 0 0 0 0 0.5 0 0 1 64
      >
    >
    <ITEM
      POSITION 56
      SNAPOFFS 0
      LENGTH 8
      LOOP 1
      ALLTAKES 0
      FADEIN 1 0 0 1 0 0
      FADEOUT 1 0 0 1 0 0
      MUTE 0
      SEL 1
      IGUID {51371E5D-ABE2-62A8-8849-F5BC2A430DCC}
      IID 17
      NAME "01-Recorded MIDI"
      VOLPAN 1 0 1 -1
      SOFFS 0 0
      PLAYRATE 1 1 0 -1 0 0.0021
      CHANMODE 0
      GUID {D44B3E18-C681-2A59-5AD9-8EBDF231C9DA}
      RECPASS 1
      <SOURCE MIDI
        HASDATA 1 960 QN
        CCINTERP 32
        POOLEDEVTS {498A2369-3B71-B6AF-FBBC-AF682BED9A20}
        E 0 90 3c 48
        E 0 90 40 48
        E 0 90 43 48
        E 1920 80 3c 00
        E 0 80 40 00
        E 0 80 43 00
        E 0 90 3c 48
        E 0 90 40 48
        E 0 90 43 48
        E 260 80 3c 00
        E 0 80 40 00
        E 0 80 43 00
        E 440 90 3c 48
        E 0 90 40 48
        E 0 90 43 48
        E 260 80 3c 00
        E 0 80 40 00
        E 0 80 43 00
        e 514 90 3c 48
        e 0 90 40 48
        e 0 90 43 48
        e 260 80 3c 00
        e 0 80 40 00
        e 0 80 43 00
        E 186 90 43 48
        E 0 90 47 48
        E 20 90 40 48
        E 1900 80 43 00
        E 0 80 47 00
        E 0 80 40 00
        E 0 90 43 48
        E 0 90 47 48
        E 20 90 40 48
        E 240 80 43 00
        E 0 80 47 00
        E 0 80 40 00
        E 440 90 43 48
        E 0 90 47 48
        E 20 90 40 48
        E 240 80 43 00
        E 0 80 47 00
        E 0 80 40 00
        e 514 90 43 48
        e 0 90 47 48
        e 20 90 40 48
        e 240 80 43 00
        e 0 80 47 00
        e 0 80 40 00
        E 186 90 41 48
        E 0 90 45 48
        E 0 90 48 48
        E 1920 80 41 00
        E 0 80 45 00
        E 0 80 48 00
        E 0 90 41 48
        E 0 90 45 48
        E 0 90 48 48
        E 260 80 41 00
        E 0 80 45 00
        E 0 80 48 00
        E 440 90 41 48
        E 0 90 45 48
        E 0 90 48 48
        E 260 80 41 00
        E 0 80 45 00
        E 0 80 48 00
        e 514 90 41 48
        e 0 90 45 48
        e 0 90 48 48
        e 260 80 41 00
        e 0 80 45 00
        e 0 80 48 00
        E 162 90 3e 48
        E 24 90 41 48
        E 0 90 45 48
        E 1896 90 3e 48
        E 24 80 3e 00
        E 0 80 41 00
        E 0 80 45 00
        E 0 90 41 48
        E 0 90 45 48
        E 260 80 3e 00
        E 0 80 41 00
        E 0 80 45 00
        E 416 90 3e 48
        E 24 90 41 48
        E 0 90 45 48
        E 260 80 3e 00
        E 0 80 41 00
        E 0 80 45 00
        e 490 90 3e 48
        e 24 90 41 48
        e 0 90 45 48
        e 260 80 3e 00
        e 0 80 41 00
        e 0 80 45 00
        E 186 b0 7b 00
        CHASE_CC_TAKEOFFS 1
        GUID {A64857E2-94F8-0990-20DF-4C1E9B5E6251}
        IGNTEMPO 0 120 4 4
        SRCCOLOR 24
        VELLANE -1 100 0
        CFGEDITVIEW 0 0.045808 45 12 0 -1 0 0 0 0.5
        KEYSNAP 0
        TRACKSEL 0
        EVTFILTER 0 -1 -1 -1 -1 0 0 0 0 -1 -1 -1 -1 0 -1 0 -1 -1
        CFGEDIT 1 1 0 1 0 0 1 1 1 1 1 1 58 171 1253 866 0 0 0 0 0.25 0 0 0 0 0.5 0 0 1 64
      >
    >
    <ITEM
      POSITION 64
      SNAPOFFS 0
      LENGTH 8
      LOOP 1
      ALLTAKES 0
      FADEIN 1 0 0 1 0 0
      FADEOUT 1 0 0 1 0 0
      MUTE 0
      SEL 1
      IGUID {A21BC465-08B7-272D-5054-18244A70108A}
      IID 18
      NAME "01-Recorded MIDI"
      VOLPAN 1 0 1 -1
      SOFFS 0 0
      PLAYRATE 1 1 0 -1 0 0.0021
      CHANMODE 0
      GUID {A2E02349-48F8-7ABB-C300-1CF84A2C7C09}
      RECPASS 1
      <SOURCE MIDI
        HASDATA 1 960 QN
        CCINTERP 32
        POOLEDEVTS {AD87E330-B453-C5E9-1417-CDF4DAB19141}
        E 0 90 3c 48
        E 0 90 40 48
        E 0 90 43 48
        E 1920 80 3c 00
        E 0 80 40 00
        E 0 80 43 00
        E 0 90 3c 48
        E 0 90 40 48
        E 0 90 43 48
        E 260 80 3c 00
        E 0 80 40 00
        E 0 80 43 00
        E 440 90 3c 48
        E 0 90 40 48
        E 0 90 43 48
        E 260 80 3c 00
        E 0 80 40 00
        E 0 80 43 00
        e 514 90 3c 48
        e 0 90 40 48
        e 0 90 43 48
        e 260 80 3c 00
        e 0 80 40 00
        e 0 80 43 00
        E 186 90 43 48
        E 0 90 47 48
        E 20 90 40 48
        E 1900 80 43 00
        E 0 80 47 00
        E 0 80 40 00
        E 0 90 43 48
        E 0 90 47 48
        E 20 90 40 48
        E 240 80 43 00
        E 0 80 47 00
        E 0 80 40 00
        E 440 90 43 48
        E 0 90 47 48
        E 20 90 40 48
        E 240 80 43 00
        E 0 80 47 00
        E 0 80 40 00
        e 514 90 43 48
        e 0 90 47 48
        e 20 90 40 48
        e 240 80 43 00
        e 0 80 47 00
        e 0 80 40 00
        E 186 90 41 48
        E 0 90 45 48
        E 0 90 48 48
        E 1920 80 41 00
        E 0 80 45 00
        E 0 80 48 00
        E 0 90 41 48
        E 0 90 45 48
        E 0 90 48 48
        E 260 80 41 00
        E 0 80 45 00
        E 0 80 48 00
        E 440 90 41 48
        E 0 90 45 48
        E 0 90 48 48
        E 260 80 41 00
        E 0 80 45 00
        E 0 80 48 00
        e 514 90 41 48
        e 0 90 45 48
        e 0 90 48 48
        e 260 80 41 00
        e 0 80 45 00
        e 0 80 48 00
        E 162 90 3e 48
        E 24 90 41 48
        E 0 90 45 48
        E 1896 90 3e 48
        E 24 80 3e 00
        E 0 80 41 00
        E 0 80 45 00
        E 0 90 41 48
        E 0 90 45 48
        E 260 80 3e 00
        E 0 80 41 00
        E 0 80 45 00
        E 416 90 3e 48
        E 24 90 41 48
        E 0 90 45 48
        E 260 80 3e 00
        E 0 80 41 00
        E 0 80 45 00
        e 490 90 3e 48
        e 24 90 41 48
        e 0 90 45 48
        e 260 80 3e 00
        e 0 80 41 00
        e 0 80 45 00
        E 186 b0 7b 00
        CHASE_CC_TAKEOFFS 1
        GUID {19362806-85F2-5D9E-E1F9-07BE0CF3D16E}
        IGNTEMPO 0 120 4 4
        SRCCOLOR 25
        VELLANE -1 100 0
        CFGEDITVIEW 0 0.045808 45 12 0 -1 0 0 0 0.5
        KEYSNAP 0
        TRACKSEL 0
        EVTFILTER 0 -1 -1 -1 -1 0 0 0 0 -1 -1 -1 -1 0 -1 0 -1 -1
        CFGEDIT 1 1 0 1 0 0 1 1 1 1 1 1 58 171 1253 866 0 0 0 0 0.25 0 0 0 0 0.5 0 0 1 64
      >
    >
    <ITEM
      POSITION 72
      SNAPOFFS 0
      LENGTH 8
      LOOP 1
      ALLTAKES 0
      FADEIN 1 0 0 1 0 0
      FADEOUT 1 0 0 1 0 0
      MUTE 0
      SEL 1
      IGUID {DA7409E2-9C0F-7C14-12FD-61AC50DB1C26}
      IID 19
      NAME "01-Recorded MIDI"
      VOLPAN 1 0 1 -1
      SOFFS 0 0
      PLAYRATE 1 1 0 -1 0 0.0021
      CHANMODE 0
      GUID {A7A0FCCB-F59C-C516-EE1F-AB06CF3C530B}
      RECPASS 1
      <SOURCE MIDI
        HASDATA 1 960 QN
        CCINTERP 32
        POOLEDEVTS {546B1F50-C98E-52BB-3F51-CE9C8A1E7B94}
        E 0 90 3c 48
        E 0 90 40 48
        E 0 90 43 48
        E 1920 80 3c 00
        E 0 80 40 00
        E 0 80 43 00
        E 0 90 3c 48
        E 0 90 40 48
        E 0 90 43 48
        E 260 80 3c 00
        E 0 80 40 00
        E 0 80 43 00
        E 440 90 3c 48
        E 0 90 40 48
        E 0 90 43 48
        E 260 80 3c 00
        E 0 80 40 00
        E 0 80 43 00
        e 514 90 3c 48
        e 0 90 40 48
        e 0 90 43 48
        e 260 80 3c 00
        e 0 80 40 00
        e 0 80 43 00
        E 186 90 43 48
        E 0 90 47 48
        E 20 90 40 48
        E 1900 80 43 00
        E 0 80 47 00
        E 0 80 40 00
        E 0 90 43 48
        E 0 90 47 48
        E 20 90 40 48
        E 240 80 43 00
        E 0 80 47 00
        E 0 80 40 00
        E 440 90 43 48
        E 0 90 47 48
        E 20 90 40 48
        E 240 80 43 00
        E 0 80 47 00
        E 0 80 40 00
        e 514 90 43 48
        e 0 90 47 48
        e 20 90 40 48
        e 240 80 43 00
        e 0 80 47 00
        e 0 80 40 00
        E 186 90 41 48
        E 0 90 45 48
        E 0 90 48 48
        E 1920 80 41 00
        E 0 80 45 00
        E 0 80 48 00
        E 0 90 41 48
        E 0 90 45 48
        E 0 90 48 48
        E 260 80 41 00
        E 0 80 45 00
        E 0 80 48 00
        E 440 90 41 48
        E 0 90 45 48
        E 0 90 48 48
        E 260 80 41 00
        E 0 80 45 00
        E 0 80 48 00
        e 514 90 41 48
        e 0 90 45 48
        e 0 90 48 48
        e 260 80 41 00
        e 0 80 45 00
        e 0 80 48 00
        E 162 90 3e 48
        E 24 90 41 48
        E 0 90 45 48
        E 1896 90 3e 48
        E 24 80 3e 00
        E 0 80 41 00
        E 0 80 45 00
        E 0 90 41 48
        E 0 90 45 48
        E 260 80 3e 00
        E 0 80 41 00
        E 0 80 45 00
        E 416 90 3e 48
        E 24 90 41 48
        E 0 90 45 48
        E 260 80 3e 00
        E 0 80 41 00
        E 0 80 45 00
        e 490 90 3e 48
        e 24 90 41 48
        e 0 90 45 48
        e 260 80 3e 00
        e 0 80 41 00
        e 0 80 45 00
        E 186 b0 7b 00
        CHASE_CC_TAKEOFFS 1
        GUID {6844F8A9-6BE9-023C-4A46-0A676470C99B}
        IGNTEMPO 0 120 4 4
        SRCCOLOR 26
        VELLANE -1 100 0
        CFGEDITVIEW 0 0.045808 45 12 0 -1 0 0 0 0.5
        KEYSNAP 0
        TRACKSEL 0
        EVTFILTER 0 -1 -1 -1 -1 0 0 0 0 -1 -1 -1 -1 0 -1 0 -1 -1
        CFGEDIT 1 1 0 1 0 0 1 1 1 1 1 1 58 171 1253 866 0 0 0 0 0.25 0 0 0 0 0.5 0 0 1 64
      >
    >
    <ITEM
      POSITION 80
      SNAPOFFS 0
      LENGTH 8
      LOOP 1
      ALLTAKES 0
      FADEIN 1 0 0 1 0 0
      FADEOUT 1 0 0 1 0 0
      MUTE 0
      SEL 1
      IGUID {ECC5176E-9C39-4480-944E-D0401992014E}
      IID 20
      NAME "01-Recorded MIDI"
      VOLPAN 1 0 1 -1
      SOFFS 0 0
      PLAYRATE 1 1 0 -1 0 0.0021
      CHANMODE 0
      GUID {AEA0F06E-3F86-C273-2BA5-A048D6BD4439}
      RECPASS 1
      <SOURCE MIDI
        HASDATA 1 960 QN
        CCINTERP 32
        POOLEDEVTS {698FEE64-8411-8FF8-8489-51F42360770E}
        E 0 90 3c 48
        E 0 90 40 48
        E 0 90 43 48
        E 1920 80 3c 00
        E 0 80 40 00
        E 0 80 43 00
        E 0 90 3c 48
        E 0 90 40 48
        E 0 90 43 48
        E 260 80 3c 00
        E 0 80 40 00
        E 0 80 43 00
        E 440 90 3c 48
        E 0 90 40 48
        E 0 90 43 48
        E 260 80 3c 00
        E 0 80 40 00
        E 0 80 43 00
        e 514 90 3c 48
        e 0 90 40 48
        e 0 90 43 48
        e 260 80 3c 00
        e 0 80 40 00
        e 0 80 43 00
        E 186 90 43 48
        E 0 90 47 48
        E 20 90 40 48
        E 1900 80 43 00
        E 0 80 47 00
        E 0 80 40 00
        E 0 90 43 48
        E 0 90 47 48
        E 20 90 40 48
        E 240 80 43 00
        E 0 80 47 00
        E 0 80 40 00
        E 440 90 43 48
        E 0 90 47 48
        E 20 90 40 48
        E 240 80 43 00
        E 0 80 47 00
        E 0 80 40 00
        e 514 90 43 48
        e 0 90 47 48
        e 20 90 40 48
        e 240 80 43 00
        e 0 80 47 00
        e 0 80 40 00
        E 186 90 41 48
        E 0 90 45 48
        E 0 90 48 48
        E 1920 80 41 00
        E 0 80 45 00
        E 0 80 48 00
        E 0 90 41 48
        E 0 90 45 48
        E 0 90 48 48
        E 260 80 41 00
        E 0 80 45 00
        E 0 80 48 00
        E 440 90 41 48
        E 0 90 45 48
        E 0 90 48 48
        E 260 80 41 00
        E 0 80 45 00
        E 0 80 48 00
        e 514 90 41 48
        e 0 90 45 48
        e 0 90 48 48
        e 260 80 41 00
        e 0 80 45 00
        e 0 80 48 00
        E 162 90 3e 48
        E 24 90 41 48
        E 0 90 45 48
        E 1896 90 3e 48
        E 24 80 3e 00
        E 0 80 41 00
        E 0 80 45 00
        E 0 90 41 48
        E 0 90 45 48
        E 260 80 3e 00
        E 0 80 41 00
        E 0 80 45 00
        E 416 90 3e 48
        E 24 90 41 48
        E 0 90 45 48
        E 260 80 3e 00
        E 0 80 41 00
        E 0 80 45 00
        e 490 90 3e 48
        e 24 90 41 48
        e 0 90 45 48
        e 260 80 3e 00
        e 0 80 41 00
        e 0 80 45 00
        E 186 b0 7b 00
        CHASE_CC_TAKEOFFS 1
        GUID {E611ADB6-4869-6CCA-8E83-3954D5E743B1}
        IGNTEMPO 0 120 4 4
        SRCCOLOR 27
        VELLANE -1 100 0
        CFGEDITVIEW 0 0.045808 45 12 0 -1 0 0 0 0.5
        KEYSNAP 0
        TRACKSEL 0
        EVTFILTER 0 -1 -1 -1 -1 0 0 0 0 -1 -1 -1 -1 0 -1 0 -1 -1
        CFGEDIT 1 1 0 1 0 0 1 1 1 1 1 1 58 171 1253 866 0 0 0 0 0.25 0 0 0 0 0.5 0 0 1 64
      >
    >
    <ITEM
      POSITION 88
      SNAPOFFS 0
      LENGTH 8
      LOOP 1
      ALLTAKES 0
      FADEIN 1 0 0 1 0 0
      FADEOUT 1 0 0 1 0 0
      MUTE 0
      SEL 1
      IGUID {8DB7DA62-2258-8803-A71C-5127D4BB71CA}
      IID 21
      NAME "01-Recorded MIDI"
      VOLPAN 1 0 1 -1
      SOFFS 0 0
      PLAYRATE 1 1 0 -1 0 0.0021
      CHANMODE 0
      GUID {F15581FB-AED5-7A58-DD6B-C404D7C48F7C}
      RECPASS 1
      <SOURCE MIDI
        HASDATA 1 960 QN
        CCINTERP 32
        POOLEDEVTS {BC85ED22-EAE3-85B6-B7FA-7408C5CD02B6}
        E 0 90 3c 48
        E 0 90 40 48
        E 0 90 43 48
        E 1920 80 3c 00
        E 0 80 40 00
        E 0 80 43 00
        E 0 90 3c 48
        E 0 90 40 48
        E 0 90 43 48
        E 260 80 3c 00
        E 0 80 40 00
        E 0 80 43 00
        E 440 90 3c 48
        E 0 90 40 48
        E 0 90 43 48
        E 260 80 3c 00
        E 0 80 40 00
        E 0 80 43 00
        e 514 90 3c 48
        e 0 90 40 48
        e 0 90 43 48
        e 260 80 3c 00
        e 0 80 40 00
        e 0 80 43 00
        E 186 90 43 48
        E 0 90 47 48
        E 20 90 40 48
        E 1900 80 43 00
        E 0 80 47 00
        E 0 80 40 00
        E 0 90 43 48
        E 0 90 47 48
        E 20 90 40 48
        E 240 80 43 00
        E 0 80 47 00
        E 0 80 40 00
        E 440 90 43 48
        E 0 90 47 48
        E 20 90 40 48
        E 240 80 43 00
        E 0 80 47 00
        E 0 80 40 00
        e 514 90 43 48
        e 0 90 47 48
        e 20 90 40 48
        e 240 80 43 00
        e 0 80 47 00
        e 0 80 40 00
        E 186 90 41 48
        E 0 90 45 48
        E 0 90 48 48
        E 1920 80 41 00
        E 0 80 45 00
        E 0 80 48 00
        E 0 90 41 48
        E 0 90 45 48
        E 0 90 48 48
        E 260 80 41 00
        E 0 80 45 00
        E 0 80 48 00
        E 440 90 41 48
        E 0 90 45 48
        E 0 90 48 48
        E 260 80 41 00
        E 0 80 45 00
        E 0 80 48 00
        e 514 90 41 48
        e 0 90 45 48
        e 0 90 48 48
        e 260 80 41 00
        e 0 80 45 00
        e 0 80 48 00
        E 162 90 3e 48
        E 24 90 41 48
        E 0 90 45 48
        E 1896 90 3e 48
        E 24 80 3e 00
        E 0 80 41 00
        E 0 80 45 00
        E 0 90 41 48
        E 0 90 45 48
        E 260 80 3e 00
        E 0 80 41 00
        E 0 80 45 00
        E 416 90 3e 48
        E 24 90 41 48
        E 0 90 45 48
        E 260 80 3e 00
        E 0 80 41 00
        E 0 80 45 00
        e 490 90 3e 48
        e 24 90 41 48
        e 0 90 45 48
        e 260 80 3e 00
        e 0 80 41 00
        e 0 80 45 00
        E 186 b0 7b 00
        CHASE_CC_TAKEOFFS 1
        GUID {C762B555-17FC-D765-5340-11D3487D2955}
        IGNTEMPO 0 120 4 4
        SRCCOLOR 28
        VELLANE -1 100 0
        CFGEDITVIEW 0 0.045808 45 12 0 -1 0 0 0 0.5
        KEYSNAP 0
        TRACKSEL 0
        EVTFILTER 0 -1 -1 -1 -1 0 0 0 0 -1 -1 -1 -1 0 -1 0 -1 -1
        CFGEDIT 1 1 0 1 0 0 1 1 1 1 1 1 58 171 1253 866 0 0 0 0 0.25 0 0 0 0 0.5 0 0 1 64
      >
    >
  >
  <TRACK {B5898D74-9BCB-C4D4-FE93-D4C716FABEDB}
    NAME ""
    PEAKCOL 16576
    BEAT -1
    AUTOMODE 0
    VOLPAN 0.00052194381917 0 -1 -1 1
    MUTESOLO 0 0 0
    IPHASE 0
    PLAYOFFS 0 1
    ISBUS 0 0
    BUSCOMP 0 0 0 0 0
    SHOWINMIX 1 0.6667 0.5 1 0.5 0 0 0
    FREEMODE 0
    SEL 0
    REC 0 5056 1 0 0 0 0
    VU 2
    TRACKHEIGHT 21 0 0
    INQ 0 0 0 0.5 100 0 0 100
    NCHAN 2
    FX 0
    TRACKID {B5898D74-9BCB-C4D4-FE93-D4C716FABEDB}
    PERF 0
    MIDIOUT -1
    MAINSEND 1 0
    <FXCHAIN
      WNDRECT 346 266 902 608
      SHOW 0
      LASTSEL 5
      DOCKED 0
      BYPASS 0 0 0
      <VST "VST: ReaEQ (Cockos)" reaeq.vst.so 0 "" 1919247729<56535472656571726561657100000000> ""
        cWVlcu5e7f4CAAAAAQAAAAAAAAACAAAAAAAAAAIAAAABAAAAAAAAAAIAAAAAAAAAqAAAAAEAAAAAABAA
        IQAAAAQAAAAEAAAAAQAAAEC4Xhmm+DRAAAAAAAAA8D8AAAAAAAAAQAEIAAAAAQAAAAAAAAAAwHJAAAAAAAAA8D8AAAAAAAAAQAEIAAAAAQAAAAAAAAAAQI9AAAAAAAAA
        8D8AAAAAAAAAQAEDAAAAAQAAAAABaCorbdRAAAAAAAAA8D8AAAAAAAAAQAEBAAAAAQAAAAAAAAAAAPA/AAAAAJoCAACcAQAA
        AEhpZ2ggbG93IHBhc3MAEAAAAA==
      >
      PRESETNAME "High low pass"
      FLOATPOS 0 0 0 0
      FXID {DA276950-BF7A-CA69-947E-EB1E369FEC25}
      WAK 0 0
      BYPASS 0 0 0
      <VST "VSTi: ReaSynth (Cockos)" reasynth.vst.so 0 "" 1919251321<5653547265737972656173796E746800> ""
        eXNlcu9e7f4AAAAAAgAAAAEAAAAAAAAAAgAAAAAAAAA8AAAAAAAAAAAAEAA=
        776t3g3wrd6lm8Q7F7fROgAAAAAAAAAAAAAAAJCNuT3oZ4g9AACAPwAAAD8AAIA/AAAAAAAAAD8AAAAA
        AAAQAAAA
      >
      FLOATPOS 0 0 0 0
      FXID {2047C90F-0050-4223-DCD9-14DEC217565A}
      WAK 0 0
      BYPASS 0 0 0
      <JS guitar/amp-model ""
        "Dumble Overdrive Special - Tweed Deluxe.wav" -21.000000 1.000000 0.000000 0.000000 -1.000000 - - - - - - - - - - - - - - - - - - - - - - - - - - - - - - - - - - - - - - - - - - - - - - - - - - - - - - - - - - 
      >
      FLOATPOS 0 0 0 0
      FXID {23AB5335-9E2E-055F-6547-FC5C2480D3C3}
      WAK 0 0
      BYPASS 0 0 0
      <VST "VST: ReaComp (Cockos)" reacomp.vst.so 0 "" 1919247213<5653547265636D726561636F6D700000> ""
        bWNlcu9e7f4EAAAAAQAAAAAAAAACAAAAAAAAAAQAAAAAAAAACAAAAAAAAAACAAAAAQAAAAAAAAACAAAAAAAAAFQAAAAAAAAAAAAQAA==
        776t3g3wrd5FoYg9/AWpPKWbxDsK16M8AAAAAAAAAAAAAIA/AAAAAAAAAAAAAAAAnNEHMwAAgD8AAAAAzMxMPQAAAAAAAAAAAAAAAAAAgD7YiZ09
        AAAQAAAA
      >
      FLOATPOS 0 0 0 0
      FXID {4735A208-C3C2-4321-36A6-66510F3D26EB}
      WAK 0 0
      BYPASS 0 0 0
      <VST "VST: ReaDelay (Cockos)" readelay.vst.so 0 "" 1919247468<5653547265646C72656164656C617900> ""
        bGRlcu5e7f4CAAAAAQAAAAAAAAACAAAAAAAAAAIAAAABAAAAAAAAAAIAAAAAAAAA/AAAAAEAAAAAAAAA
        AAAAAAAAAAAFAAAALAAAAAIAAAAEAAAAAACAPwAAgD8AAAAAAACAPwAAAAAAAIA7vTeGNQAAgD8AAAAAAACAPwAAgD8AAIA/AAAAAAAAAAAAAIA/AAAAAAAAADwAAAAA
        AACAPwAAAAAAAIA/AACAP+87NT8AAIA/AAAAAAAAgD8AAAAAAABAPL03hjUAAIA/AAAAAAAAgD8AAIA/zk0AP6abhD4AAAAAAACAPwAAAAAAAIA8vTeGNQAAgD8AAAAA
        AACAPwAAgD8aqrU+pHA9PwAAAAAAAIA/AAAAAAAAoDy9N4Y1AACAPwAAAAAAAIA/AACAP/npAD4AAAA/
        AHN0b2NrIC0gYmFzaWMgNSB0YXAgcGluZyBwb25nAAAAAAA=
      >
      PRESETNAME "stock - basic 5 tap ping pong"
      FLOATPOS 0 0 0 0
      FXID {71FC2FB7-3A4F-25A9-3AC3-A9AC0AD06D9D}
      WAK 0 0
      BYPASS 0 0 0
      <VST "VST: ReaVerb (Cockos)" reaverb.vst.so 0 "" 1919252066<56535472657662726561766572620000> ""
        YnZlcu5e7f4CAAAAAQAAAAAAAAACAAAAAAAAAAIAAAABAAAAAAAAAAIAAAAAAAAAcAAAAAEAAAAAAAAA
        AAAAwcybgD4AAIA/AAAAAAAAgD8AAIA/AAAAPwAAgD8AAAAAVkVSQkdFTgAYAAAAAAAAAJHgV0QdrLRA3rK7QsHIjEIAAIC/RUNIT0dFTgAcAAAAy/i2QLUjdUJdzdM/
        osdfP5lRrzyRzYxAnMQAPw==
        AHN3ZWV0dmVyYm8AAAAAAA==
      >
      PRESETNAME sweetverbo
      FLOATPOS 0 0 0 0
      FXID {78B4BECC-8E8F-AFE4-CD03-3F3F9AD017AF}
      WAK 0 0
    >
    <ITEM
      POSITION 0
      SNAPOFFS 0
      LENGTH 8
      LOOP 1
      ALLTAKES 0
      FADEIN 1 0 0 1 0 0
      FADEOUT 1 0 0 1 0 0
      MUTE 0
      SEL 1
      IGUID {083AB270-A669-FB97-6A8D-1205E49735EF}
      IID 10
      NAME "01-Recorded MIDI"
      VOLPAN 1 0 1 -1
      SOFFS 0 0
      PLAYRATE 1 1 0 -1 0 0.0021
      CHANMODE 0
      GUID {F43E0785-C9F0-1705-4F81-F23724EAD479}
      RECPASS 1
      <SOURCE MIDI
        HASDATA 1 960 QN
        CCINTERP 32
        POOLEDEVTS {00BAB320-71A6-4547-A6F6-2302E3A81395}
        E 0 90 3c 48
        E 0 90 40 48
        E 0 90 43 48
        E 1920 80 3c 00
        E 0 80 40 00
        E 0 80 43 00
        E 0 90 3c 48
        E 0 90 40 48
        E 0 90 43 48
        E 260 80 3c 00
        E 0 80 40 00
        E 0 80 43 00
        E 440 90 3c 48
        E 0 90 40 48
        E 0 90 43 48
        E 260 80 3c 00
        E 0 80 40 00
        E 0 80 43 00
        e 514 90 3c 48
        e 0 90 40 48
        e 0 90 43 48
        e 260 80 3c 00
        e 0 80 40 00
        e 0 80 43 00
        E 186 90 43 48
        E 0 90 47 48
        E 20 90 40 48
        E 1900 80 43 00
        E 0 80 47 00
        E 0 80 40 00
        E 0 90 43 48
        E 0 90 47 48
        E 20 90 40 48
        E 240 80 43 00
        E 0 80 47 00
        E 0 80 40 00
        E 440 90 43 48
        E 0 90 47 48
        E 20 90 40 48
        E 240 80 43 00
        E 0 80 47 00
        E 0 80 40 00
        e 514 90 43 48
        e 0 90 47 48
        e 20 90 40 48
        e 240 80 43 00
        e 0 80 47 00
        e 0 80 40 00
        E 186 90 41 48
        E 0 90 45 48
        E 0 90 48 48
        E 1920 80 41 00
        E 0 80 45 00
        E 0 80 48 00
        E 0 90 41 48
        E 0 90 45 48
        E 0 90 48 48
        E 260 80 41 00
        E 0 80 45 00
        E 0 80 48 00
        E 440 90 41 48
        E 0 90 45 48
        E 0 90 48 48
        E 260 80 41 00
        E 0 80 45 00
        E 0 80 48 00
        e 514 90 41 48
        e 0 90 45 48
        e 0 90 48 48
        e 260 80 41 00
        e 0 80 45 00
        e 0 80 48 00
        E 162 90 3e 48
        E 24 90 41 48
        E 0 90 45 48
        E 1896 90 3e 48
        E 24 80 3e 00
        E 0 80 41 00
        E 0 80 45 00
        E 0 90 41 48
        E 0 90 45 48
        E 260 80 3e 00
        E 0 80 41 00
        E 0 80 45 00
        E 416 90 3e 48
        E 24 90 41 48
        E 0 90 45 48
        E 260 80 3e 00
        E 0 80 41 00
        E 0 80 45 00
        e 490 90 3e 48
        e 24 90 41 48
        e 0 90 45 48
        e 260 80 3e 00
        e 0 80 41 00
        e 0 80 45 00
        E 186 b0 7b 00
        CHASE_CC_TAKEOFFS 1
        GUID {7B9D708B-43E1-C8D4-C4B3-87E2A6C27801}
        IGNTEMPO 0 120 4 4
        SRCCOLOR 17
        VELLANE -1 100 0
        CFGEDITVIEW 0 0.045808 45 12 0 -1 0 0 0 0.5
        KEYSNAP 0
        TRACKSEL 0
        EVTFILTER 0 -1 -1 -1 -1 0 0 0 0 -1 -1 -1 -1 0 -1 0 -1 -1
        CFGEDIT 1 1 0 1 0 0 1 1 1 1 1 1 58 171 1253 866 0 0 0 0 0.25 0 0 0 0 0.5 0 0 1 64
      >
    >
    <ITEM
      POSITION 8
      SNAPOFFS 0
      LENGTH 8
      LOOP 1
      ALLTAKES 0
      FADEIN 1 0 0 1 0 0
      FADEOUT 1 0 0 1 0 0
      MUTE 0
      SEL 1
      IGUID {91C667A0-7F08-CC1B-7277-2B49A5948025}
      IID 11
      NAME "01-Recorded MIDI"
      VOLPAN 1 0 1 -1
      SOFFS 0 0
      PLAYRATE 1 1 0 -1 0 0.0021
      CHANMODE 0
      GUID {C9308456-CDAD-8CE6-2CCE-06C8B2D1516A}
      RECPASS 1
      <SOURCE MIDI
        HASDATA 1 960 QN
        CCINTERP 32
        POOLEDEVTS {828BF799-B67D-273E-ADB5-0D8D5AB524E9}
        E 0 90 3c 48
        E 0 90 40 48
        E 0 90 43 48
        E 1920 80 3c 00
        E 0 80 40 00
        E 0 80 43 00
        E 0 90 3c 48
        E 0 90 40 48
        E 0 90 43 48
        E 260 80 3c 00
        E 0 80 40 00
        E 0 80 43 00
        E 440 90 3c 48
        E 0 90 40 48
        E 0 90 43 48
        E 260 80 3c 00
        E 0 80 40 00
        E 0 80 43 00
        e 514 90 3c 48
        e 0 90 40 48
        e 0 90 43 48
        e 260 80 3c 00
        e 0 80 40 00
        e 0 80 43 00
        E 186 90 43 48
        E 0 90 47 48
        E 20 90 40 48
        E 1900 80 43 00
        E 0 80 47 00
        E 0 80 40 00
        E 0 90 43 48
        E 0 90 47 48
        E 20 90 40 48
        E 240 80 43 00
        E 0 80 47 00
        E 0 80 40 00
        E 440 90 43 48
        E 0 90 47 48
        E 20 90 40 48
        E 240 80 43 00
        E 0 80 47 00
        E 0 80 40 00
        e 514 90 43 48
        e 0 90 47 48
        e 20 90 40 48
        e 240 80 43 00
        e 0 80 47 00
        e 0 80 40 00
        E 186 90 41 48
        E 0 90 45 48
        E 0 90 48 48
        E 1920 80 41 00
        E 0 80 45 00
        E 0 80 48 00
        E 0 90 41 48
        E 0 90 45 48
        E 0 90 48 48
        E 260 80 41 00
        E 0 80 45 00
        E 0 80 48 00
        E 440 90 41 48
        E 0 90 45 48
        E 0 90 48 48
        E 260 80 41 00
        E 0 80 45 00
        E 0 80 48 00
        e 514 90 41 48
        e 0 90 45 48
        e 0 90 48 48
        e 260 80 41 00
        e 0 80 45 00
        e 0 80 48 00
        E 162 90 3e 48
        E 24 90 41 48
        E 0 90 45 48
        E 1896 90 3e 48
        E 24 80 3e 00
        E 0 80 41 00
        E 0 80 45 00
        E 0 90 41 48
        E 0 90 45 48
        E 260 80 3e 00
        E 0 80 41 00
        E 0 80 45 00
        E 416 90 3e 48
        E 24 90 41 48
        E 0 90 45 48
        E 260 80 3e 00
        E 0 80 41 00
        E 0 80 45 00
        e 490 90 3e 48
        e 24 90 41 48
        e 0 90 45 48
        e 260 80 3e 00
        e 0 80 41 00
        e 0 80 45 00
        E 186 b0 7b 00
        CHASE_CC_TAKEOFFS 1
        GUID {3131B4E2-B370-E352-A9C5-C8CA31551A86}
        IGNTEMPO 0 120 4 4
        SRCCOLOR 18
        VELLANE -1 100 0
        CFGEDITVIEW 0 0.045808 45 12 0 -1 0 0 0 0.5
        KEYSNAP 0
        TRACKSEL 0
        EVTFILTER 0 -1 -1 -1 -1 0 0 0 0 -1 -1 -1 -1 0 -1 0 -1 -1
        CFGEDIT 1 1 0 1 0 0 1 1 1 1 1 1 58 171 1253 866 0 0 0 0 0.25 0 0 0 0 0.5 0 0 1 64
      >
    >
    <ITEM
      POSITION 16
      SNAPOFFS 0
      LENGTH 8
      LOOP 1
      ALLTAKES 0
      FADEIN 1 0 0 1 0 0
      FADEOUT 1 0 0 1 0 0
      MUTE 0
      SEL 1
      IGUID {85482D30-1FCF-5ADC-956B-687D988A2FEE}
      IID 12
      NAME "01-Recorded MIDI"
      VOLPAN 1 0 1 -1
      SOFFS 0 0
      PLAYRATE 1 1 0 -1 0 0.0021
      CHANMODE 0
      GUID {335C6263-FC87-F062-A66B-3BB305867B6D}
      RECPASS 1
      <SOURCE MIDI
        HASDATA 1 960 QN
        CCINTERP 32
        POOLEDEVTS {8F78A4C6-BF50-CFCF-1102-91C554B55F25}
        E 0 90 3c 48
        E 0 90 40 48
        E 0 90 43 48
        E 1920 80 3c 00
        E 0 80 40 00
        E 0 80 43 00
        E 0 90 3c 48
        E 0 90 40 48
        E 0 90 43 48
        E 260 80 3c 00
        E 0 80 40 00
        E 0 80 43 00
        E 440 90 3c 48
        E 0 90 40 48
        E 0 90 43 48
        E 260 80 3c 00
        E 0 80 40 00
        E 0 80 43 00
        e 514 90 3c 48
        e 0 90 40 48
        e 0 90 43 48
        e 260 80 3c 00
        e 0 80 40 00
        e 0 80 43 00
        E 186 90 43 48
        E 0 90 47 48
        E 20 90 40 48
        E 1900 80 43 00
        E 0 80 47 00
        E 0 80 40 00
        E 0 90 43 48
        E 0 90 47 48
        E 20 90 40 48
        E 240 80 43 00
        E 0 80 47 00
        E 0 80 40 00
        E 440 90 43 48
        E 0 90 47 48
        E 20 90 40 48
        E 240 80 43 00
        E 0 80 47 00
        E 0 80 40 00
        e 514 90 43 48
        e 0 90 47 48
        e 20 90 40 48
        e 240 80 43 00
        e 0 80 47 00
        e 0 80 40 00
        E 186 90 41 48
        E 0 90 45 48
        E 0 90 48 48
        E 1920 80 41 00
        E 0 80 45 00
        E 0 80 48 00
        E 0 90 41 48
        E 0 90 45 48
        E 0 90 48 48
        E 260 80 41 00
        E 0 80 45 00
        E 0 80 48 00
        E 440 90 41 48
        E 0 90 45 48
        E 0 90 48 48
        E 260 80 41 00
        E 0 80 45 00
        E 0 80 48 00
        e 514 90 41 48
        e 0 90 45 48
        e 0 90 48 48
        e 260 80 41 00
        e 0 80 45 00
        e 0 80 48 00
        E 162 90 3e 48
        E 24 90 41 48
        E 0 90 45 48
        E 1896 90 3e 48
        E 24 80 3e 00
        E 0 80 41 00
        E 0 80 45 00
        E 0 90 41 48
        E 0 90 45 48
        E 260 80 3e 00
        E 0 80 41 00
        E 0 80 45 00
        E 416 90 3e 48
        E 24 90 41 48
        E 0 90 45 48
        E 260 80 3e 00
        E 0 80 41 00
        E 0 80 45 00
        e 490 90 3e 48
        e 24 90 41 48
        e 0 90 45 48
        e 260 80 3e 00
        e 0 80 41 00
        e 0 80 45 00
        E 186 b0 7b 00
        CHASE_CC_TAKEOFFS 1
        GUID {48C567A2-895C-FB9B-FDBA-0ADB7004ABF3}
        IGNTEMPO 0 120 4 4
        SRCCOLOR 19
        VELLANE -1 100 0
        CFGEDITVIEW 0 0.045808 45 12 0 -1 0 0 0 0.5
        KEYSNAP 0
        TRACKSEL 0
        EVTFILTER 0 -1 -1 -1 -1 0 0 0 0 -1 -1 -1 -1 0 -1 0 -1 -1
        CFGEDIT 1 1 0 1 0 0 1 1 1 1 1 1 58 171 1253 866 0 0 0 0 0.25 0 0 0 0 0.5 0 0 1 64
      >
    >
    <ITEM
      POSITION 24
      SNAPOFFS 0
      LENGTH 8
      LOOP 1
      ALLTAKES 0
      FADEIN 1 0 0 1 0 0
      FADEOUT 1 0 0 1 0 0
      MUTE 0
      SEL 1
      IGUID {F658765D-0DF1-5F18-CDF4-089BBD5CA2F7}
      IID 13
      NAME "01-Recorded MIDI"
      VOLPAN 1 0 1 -1
      SOFFS 0 0
      PLAYRATE 1 1 0 -1 0 0.0021
      CHANMODE 0
      GUID {91DBD872-086F-08F4-EB2C-285AB4E37700}
      RECPASS 1
      <SOURCE MIDI
        HASDATA 1 960 QN
        CCINTERP 32
        POOLEDEVTS {2D6D7C07-0273-03A0-CE44-D0C4E15FF62A}
        E 0 90 3c 48
        E 0 90 40 48
        E 0 90 43 48
        E 1920 80 3c 00
        E 0 80 40 00
        E 0 80 43 00
        E 0 90 3c 48
        E 0 90 40 48
        E 0 90 43 48
        E 260 80 3c 00
        E 0 80 40 00
        E 0 80 43 00
        E 440 90 3c 48
        E 0 90 40 48
        E 0 90 43 48
        E 260 80 3c 00
        E 0 80 40 00
        E 0 80 43 00
        e 514 90 3c 48
        e 0 90 40 48
        e 0 90 43 48
        e 260 80 3c 00
        e 0 80 40 00
        e 0 80 43 00
        E 186 90 43 48
        E 0 90 47 48
        E 20 90 40 48
        E 1900 80 43 00
        E 0 80 47 00
        E 0 80 40 00
        E 0 90 43 48
        E 0 90 47 48
        E 20 90 40 48
        E 240 80 43 00
        E 0 80 47 00
        E 0 80 40 00
        E 440 90 43 48
        E 0 90 47 48
        E 20 90 40 48
        E 240 80 43 00
        E 0 80 47 00
        E 0 80 40 00
        e 514 90 43 48
        e 0 90 47 48
        e 20 90 40 48
        e 240 80 43 00
        e 0 80 47 00
        e 0 80 40 00
        E 186 90 41 48
        E 0 90 45 48
        E 0 90 48 48
        E 1920 80 41 00
        E 0 80 45 00
        E 0 80 48 00
        E 0 90 41 48
        E 0 90 45 48
        E 0 90 48 48
        E 260 80 41 00
        E 0 80 45 00
        E 0 80 48 00
        E 440 90 41 48
        E 0 90 45 48
        E 0 90 48 48
        E 260 80 41 00
        E 0 80 45 00
        E 0 80 48 00
        e 514 90 41 48
        e 0 90 45 48
        e 0 90 48 48
        e 260 80 41 00
        e 0 80 45 00
        e 0 80 48 00
        E 162 90 3e 48
        E 24 90 41 48
        E 0 90 45 48
        E 1896 90 3e 48
        E 24 80 3e 00
        E 0 80 41 00
        E 0 80 45 00
        E 0 90 41 48
        E 0 90 45 48
        E 260 80 3e 00
        E 0 80 41 00
        E 0 80 45 00
        E 416 90 3e 48
        E 24 90 41 48
        E 0 90 45 48
        E 260 80 3e 00
        E 0 80 41 00
        E 0 80 45 00
        e 490 90 3e 48
        e 24 90 41 48
        e 0 90 45 48
        e 260 80 3e 00
        e 0 80 41 00
        e 0 80 45 00
        E 186 b0 7b 00
        CHASE_CC_TAKEOFFS 1
        GUID {1DE38800-E2A1-41B5-9C8C-3291891093B1}
        IGNTEMPO 0 120 4 4
        SRCCOLOR 20
        VELLANE -1 100 0
        CFGEDITVIEW 0 0.045808 45 12 0 -1 0 0 0 0.5
        KEYSNAP 0
        TRACKSEL 0
        EVTFILTER 0 -1 -1 -1 -1 0 0 0 0 -1 -1 -1 -1 0 -1 0 -1 -1
        CFGEDIT 1 1 0 1 0 0 1 1 1 1 1 1 58 171 1253 866 0 0 0 0 0.25 0 0 0 0 0.5 0 0 1 64
      >
    >
    <ITEM
      POSITION 32
      SNAPOFFS 0
      LENGTH 8
      LOOP 1
      ALLTAKES 0
      FADEIN 1 0 0 1 0 0
      FADEOUT 1 0 0 1 0 0
      MUTE 0
      SEL 1
      IGUID {1665BF54-B4FF-8606-0723-D2DAF5FC1D9B}
      IID 14
      NAME "01-Recorded MIDI"
      VOLPAN 1 0 1 -1
      SOFFS 0 0
      PLAYRATE 1 1 0 -1 0 0.0021
      CHANMODE 0
      GUID {C0D71D3C-3AC9-022C-AE18-EB5C31879D80}
      RECPASS 1
      <SOURCE MIDI
        HASDATA 1 960 QN
        CCINTERP 32
        POOLEDEVTS {121389A7-02F9-DECA-1D50-8DC4140EA622}
        E 0 90 3c 48
        E 0 90 40 48
        E 0 90 43 48
        E 1920 80 3c 00
        E 0 80 40 00
        E 0 80 43 00
        E 0 90 3c 48
        E 0 90 40 48
        E 0 90 43 48
        E 260 80 3c 00
        E 0 80 40 00
        E 0 80 43 00
        E 440 90 3c 48
        E 0 90 40 48
        E 0 90 43 48
        E 260 80 3c 00
        E 0 80 40 00
        E 0 80 43 00
        e 514 90 3c 48
        e 0 90 40 48
        e 0 90 43 48
        e 260 80 3c 00
        e 0 80 40 00
        e 0 80 43 00
        E 186 90 43 48
        E 0 90 47 48
        E 20 90 40 48
        E 1900 80 43 00
        E 0 80 47 00
        E 0 80 40 00
        E 0 90 43 48
        E 0 90 47 48
        E 20 90 40 48
        E 240 80 43 00
        E 0 80 47 00
        E 0 80 40 00
        E 440 90 43 48
        E 0 90 47 48
        E 20 90 40 48
        E 240 80 43 00
        E 0 80 47 00
        E 0 80 40 00
        e 514 90 43 48
        e 0 90 47 48
        e 20 90 40 48
        e 240 80 43 00
        e 0 80 47 00
        e 0 80 40 00
        E 186 90 41 48
        E 0 90 45 48
        E 0 90 48 48
        E 1920 80 41 00
        E 0 80 45 00
        E 0 80 48 00
        E 0 90 41 48
        E 0 90 45 48
        E 0 90 48 48
        E 260 80 41 00
        E 0 80 45 00
        E 0 80 48 00
        E 440 90 41 48
        E 0 90 45 48
        E 0 90 48 48
        E 260 80 41 00
        E 0 80 45 00
        E 0 80 48 00
        e 514 90 41 48
        e 0 90 45 48
        e 0 90 48 48
        e 260 80 41 00
        e 0 80 45 00
        e 0 80 48 00
        E 162 90 3e 48
        E 24 90 41 48
        E 0 90 45 48
        E 1896 90 3e 48
        E 24 80 3e 00
        E 0 80 41 00
        E 0 80 45 00
        E 0 90 41 48
        E 0 90 45 48
        E 260 80 3e 00
        E 0 80 41 00
        E 0 80 45 00
        E 416 90 3e 48
        E 24 90 41 48
        E 0 90 45 48
        E 260 80 3e 00
        E 0 80 41 00
        E 0 80 45 00
        e 490 90 3e 48
        e 24 90 41 48
        e 0 90 45 48
        e 260 80 3e 00
        e 0 80 41 00
        e 0 80 45 00
        E 186 b0 7b 00
        CHASE_CC_TAKEOFFS 1
        GUID {0C3271F4-E233-9088-9B25-A722FAE7C579}
        IGNTEMPO 0 120 4 4
        SRCCOLOR 21
        VELLANE -1 100 0
        CFGEDITVIEW 0 0.045808 45 12 0 -1 0 0 0 0.5
        KEYSNAP 0
        TRACKSEL 0
        EVTFILTER 0 -1 -1 -1 -1 0 0 0 0 -1 -1 -1 -1 0 -1 0 -1 -1
        CFGEDIT 1 1 0 1 0 0 1 1 1 1 1 1 58 171 1253 866 0 0 0 0 0.25 0 0 0 0 0.5 0 0 1 64
      >
    >
    <ITEM
      POSITION 40
      SNAPOFFS 0
      LENGTH 8
      LOOP 1
      ALLTAKES 0
      FADEIN 1 0 0 1 0 0
      FADEOUT 1 0 0 1 0 0
      MUTE 0
      SEL 1
      IGUID {4DDC5764-97C2-9A65-372F-5E2DBC6BAB9B}
      IID 15
      NAME "01-Recorded MIDI"
      VOLPAN 1 0 1 -1
      SOFFS 0 0
      PLAYRATE 1 1 0 -1 0 0.0021
      CHANMODE 0
      GUID {98948726-D4E9-390A-9A15-DD49964C8246}
      RECPASS 1
      <SOURCE MIDI
        HASDATA 1 960 QN
        CCINTERP 32
        POOLEDEVTS {73368AF0-5132-0719-F369-CF10324A9CC8}
        E 0 90 3c 48
        E 0 90 40 48
        E 0 90 43 48
        E 1920 80 3c 00
        E 0 80 40 00
        E 0 80 43 00
        E 0 90 3c 48
        E 0 90 40 48
        E 0 90 43 48
        E 260 80 3c 00
        E 0 80 40 00
        E 0 80 43 00
        E 440 90 3c 48
        E 0 90 40 48
        E 0 90 43 48
        E 260 80 3c 00
        E 0 80 40 00
        E 0 80 43 00
        e 514 90 3c 48
        e 0 90 40 48
        e 0 90 43 48
        e 260 80 3c 00
        e 0 80 40 00
        e 0 80 43 00
        E 186 90 43 48
        E 0 90 47 48
        E 20 90 40 48
        E 1900 80 43 00
        E 0 80 47 00
        E 0 80 40 00
        E 0 90 43 48
        E 0 90 47 48
        E 20 90 40 48
        E 240 80 43 00
        E 0 80 47 00
        E 0 80 40 00
        E 440 90 43 48
        E 0 90 47 48
        E 20 90 40 48
        E 240 80 43 00
        E 0 80 47 00
        E 0 80 40 00
        e 514 90 43 48
        e 0 90 47 48
        e 20 90 40 48
        e 240 80 43 00
        e 0 80 47 00
        e 0 80 40 00
        E 186 90 41 48
        E 0 90 45 48
        E 0 90 48 48
        E 1920 80 41 00
        E 0 80 45 00
        E 0 80 48 00
        E 0 90 41 48
        E 0 90 45 48
        E 0 90 48 48
        E 260 80 41 00
        E 0 80 45 00
        E 0 80 48 00
        E 440 90 41 48
        E 0 90 45 48
        E 0 90 48 48
        E 260 80 41 00
        E 0 80 45 00
        E 0 80 48 00
        e 514 90 41 48
        e 0 90 45 48
        e 0 90 48 48
        e 260 80 41 00
        e 0 80 45 00
        e 0 80 48 00
        E 162 90 3e 48
        E 24 90 41 48
        E 0 90 45 48
        E 1896 90 3e 48
        E 24 80 3e 00
        E 0 80 41 00
        E 0 80 45 00
        E 0 90 41 48
        E 0 90 45 48
        E 260 80 3e 00
        E 0 80 41 00
        E 0 80 45 00
        E 416 90 3e 48
        E 24 90 41 48
        E 0 90 45 48
        E 260 80 3e 00
        E 0 80 41 00
        E 0 80 45 00
        e 490 90 3e 48
        e 24 90 41 48
        e 0 90 45 48
        e 260 80 3e 00
        e 0 80 41 00
        e 0 80 45 00
        E 186 b0 7b 00
        CHASE_CC_TAKEOFFS 1
        GUID {040E7AF8-3572-5D91-3C86-797AEE7444D4}
        IGNTEMPO 0 120 4 4
        SRCCOLOR 22
        VELLANE -1 100 0
        CFGEDITVIEW 0 0.045808 45 12 0 -1 0 0 0 0.5
        KEYSNAP 0
        TRACKSEL 0
        EVTFILTER 0 -1 -1 -1 -1 0 0 0 0 -1 -1 -1 -1 0 -1 0 -1 -1
        CFGEDIT 1 1 0 1 0 0 1 1 1 1 1 1 58 171 1253 866 0 0 0 0 0.25 0 0 0 0 0.5 0 0 1 64
      >
    >
    <ITEM
      POSITION 48
      SNAPOFFS 0
      LENGTH 8
      LOOP 1
      ALLTAKES 0
      FADEIN 1 0 0 1 0 0
      FADEOUT 1 0 0 1 0 0
      MUTE 0
      SEL 1
      IGUID {92D56F02-204F-5C24-0E07-8BE442D918C9}
      IID 16
      NAME "01-Recorded MIDI"
      VOLPAN 1 0 1 -1
      SOFFS 0 0
      PLAYRATE 1 1 0 -1 0 0.0021
      CHANMODE 0
      GUID {2DAA558C-982F-CB96-AC49-75493200CB82}
      RECPASS 1
      <SOURCE MIDI
        HASDATA 1 960 QN
        CCINTERP 32
        POOLEDEVTS {9A28B6E3-B9B5-718E-1BB1-177EBF79AAC0}
        E 0 90 3c 48
        E 0 90 40 48
        E 0 90 43 48
        E 1920 80 3c 00
        E 0 80 40 00
        E 0 80 43 00
        E 0 90 3c 48
        E 0 90 40 48
        E 0 90 43 48
        E 260 80 3c 00
        E 0 80 40 00
        E 0 80 43 00
        E 440 90 3c 48
        E 0 90 40 48
        E 0 90 43 48
        E 260 80 3c 00
        E 0 80 40 00
        E 0 80 43 00
        e 514 90 3c 48
        e 0 90 40 48
        e 0 90 43 48
        e 260 80 3c 00
        e 0 80 40 00
        e 0 80 43 00
        E 186 90 43 48
        E 0 90 47 48
        E 20 90 40 48
        E 1900 80 43 00
        E 0 80 47 00
        E 0 80 40 00
        E 0 90 43 48
        E 0 90 47 48
        E 20 90 40 48
        E 240 80 43 00
        E 0 80 47 00
        E 0 80 40 00
        E 440 90 43 48
        E 0 90 47 48
        E 20 90 40 48
        E 240 80 43 00
        E 0 80 47 00
        E 0 80 40 00
        e 514 90 43 48
        e 0 90 47 48
        e 20 90 40 48
        e 240 80 43 00
        e 0 80 47 00
        e 0 80 40 00
        E 186 90 41 48
        E 0 90 45 48
        E 0 90 48 48
        E 1920 80 41 00
        E 0 80 45 00
        E 0 80 48 00
        E 0 90 41 48
        E 0 90 45 48
        E 0 90 48 48
        E 260 80 41 00
        E 0 80 45 00
        E 0 80 48 00
        E 440 90 41 48
        E 0 90 45 48
        E 0 90 48 48
        E 260 80 41 00
        E 0 80 45 00
        E 0 80 48 00
        e 514 90 41 48
        e 0 90 45 48
        e 0 90 48 48
        e 260 80 41 00
        e 0 80 45 00
        e 0 80 48 00
        E 162 90 3e 48
        E 24 90 41 48
        E 0 90 45 48
        E 1896 90 3e 48
        E 24 80 3e 00
        E 0 80 41 00
        E 0 80 45 00
        E 0 90 41 48
        E 0 90 45 48
        E 260 80 3e 00
        E 0 80 41 00
        E 0 80 45 00
        E 416 90 3e 48
        E 24 90 41 48
        E 0 90 45 48
        E 260 80 3e 00
        E 0 80 41 00
        E 0 80 45 00
        e 490 90 3e 48
        e 24 90 41 48
        e 0 90 45 48
        e 260 80 3e 00
        e 0 80 41 00
        e 0 80 45 00
        E 186 b0 7b 00
        CHASE_CC_TAKEOFFS 1
        GUID {2338968B-6CF9-9F40-300F-DEB89D3392EA}
        IGNTEMPO 0 120 4 4
        SRCCOLOR 23
        VELLANE -1 100 0
        CFGEDITVIEW 0 0.045808 45 12 0 -1 0 0 0 0.5
        KEYSNAP 0
        TRACKSEL 0
        EVTFILTER 0 -1 -1 -1 -1 0 0 0 0 -1 -1 -1 -1 0 -1 0 -1 -1
        CFGEDIT 1 1 0 1 0 0 1 1 1 1 1 1 58 171 1253 866 0 0 0 0 0.25 0 0 0 0 0.5 0 0 1 64
      >
    >
    <ITEM
      POSITION 56
      SNAPOFFS 0
      LENGTH 8
      LOOP 1
      ALLTAKES 0
      FADEIN 1 0 0 1 0 0
      FADEOUT 1 0 0 1 0 0
      MUTE 0
      SEL 1
      IGUID {66EBB21C-A274-235E-BA2D-A53AC9222EA9}
      IID 17
      NAME "01-Recorded MIDI"
      VOLPAN 1 0 1 -1
      SOFFS 0 0
      PLAYRATE 1 1 0 -1 0 0.0021
      CHANMODE 0
      GUID {EE7CC5EC-EC84-7483-C755-2B5FF6F64DFE}
      RECPASS 1
      <SOURCE MIDI
        HASDATA 1 960 QN
        CCINTERP 32
        POOLEDEVTS {05B8335A-1B92-6D5D-6000-9481D447CCB6}
        E 0 90 3c 48
        E 0 90 40 48
        E 0 90 43 48
        E 1920 80 3c 00
        E 0 80 40 00
        E 0 80 43 00
        E 0 90 3c 48
        E 0 90 40 48
        E 0 90 43 48
        E 260 80 3c 00
        E 0 80 40 00
        E 0 80 43 00
        E 440 90 3c 48
        E 0 90 40 48
        E 0 90 43 48
        E 260 80 3c 00
        E 0 80 40 00
        E 0 80 43 00
        e 514 90 3c 48
        e 0 90 40 48
        e 0 90 43 48
        e 260 80 3c 00
        e 0 80 40 00
        e 0 80 43 00
        E 186 90 43 48
        E 0 90 47 48
        E 20 90 40 48
        E 1900 80 43 00
        E 0 80 47 00
        E 0 80 40 00
        E 0 90 43 48
        E 0 90 47 48
        E 20 90 40 48
        E 240 80 43 00
        E 0 80 47 00
        E 0 80 40 00
        E 440 90 43 48
        E 0 90 47 48
        E 20 90 40 48
        E 240 80 43 00
        E 0 80 47 00
        E 0 80 40 00
        e 514 90 43 48
        e 0 90 47 48
        e 20 90 40 48
        e 240 80 43 00
        e 0 80 47 00
        e 0 80 40 00
        E 186 90 41 48
        E 0 90 45 48
        E 0 90 48 48
        E 1920 80 41 00
        E 0 80 45 00
        E 0 80 48 00
        E 0 90 41 48
        E 0 90 45 48
        E 0 90 48 48
        E 260 80 41 00
        E 0 80 45 00
        E 0 80 48 00
        E 440 90 41 48
        E 0 90 45 48
        E 0 90 48 48
        E 260 80 41 00
        E 0 80 45 00
        E 0 80 48 00
        e 514 90 41 48
        e 0 90 45 48
        e 0 90 48 48
        e 260 80 41 00
        e 0 80 45 00
        e 0 80 48 00
        E 162 90 3e 48
        E 24 90 41 48
        E 0 90 45 48
        E 1896 90 3e 48
        E 24 80 3e 00
        E 0 80 41 00
        E 0 80 45 00
        E 0 90 41 48
        E 0 90 45 48
        E 260 80 3e 00
        E 0 80 41 00
        E 0 80 45 00
        E 416 90 3e 48
        E 24 90 41 48
        E 0 90 45 48
        E 260 80 3e 00
        E 0 80 41 00
        E 0 80 45 00
        e 490 90 3e 48
        e 24 90 41 48
        e 0 90 45 48
        e 260 80 3e 00
        e 0 80 41 00
        e 0 80 45 00
        E 186 b0 7b 00
        CHASE_CC_TAKEOFFS 1
        GUID {A64857E2-94F8-0990-20DF-4C1E9B5E6251}
        IGNTEMPO 0 120 4 4
        SRCCOLOR 24
        VELLANE -1 100 0
        CFGEDITVIEW 0 0.045808 45 12 0 -1 0 0 0 0.5
        KEYSNAP 0
        TRACKSEL 0
        EVTFILTER 0 -1 -1 -1 -1 0 0 0 0 -1 -1 -1 -1 0 -1 0 -1 -1
        CFGEDIT 1 1 0 1 0 0 1 1 1 1 1 1 58 171 1253 866 0 0 0 0 0.25 0 0 0 0 0.5 0 0 1 64
      >
    >
    <ITEM
      POSITION 64
      SNAPOFFS 0
      LENGTH 8
      LOOP 1
      ALLTAKES 0
      FADEIN 1 0 0 1 0 0
      FADEOUT 1 0 0 1 0 0
      MUTE 0
      SEL 1
      IGUID {186A6A03-92CB-C59F-5ACF-6E1BEA3E3BA0}
      IID 18
      NAME "01-Recorded MIDI"
      VOLPAN 1 0 1 -1
      SOFFS 0 0
      PLAYRATE 1 1 0 -1 0 0.0021
      CHANMODE 0
      GUID {AF5DD443-9A33-E678-BDDA-B8737D9BF3F4}
      RECPASS 1
      <SOURCE MIDI
        HASDATA 1 960 QN
        CCINTERP 32
        POOLEDEVTS {5E34ADBA-C2B5-51CF-C705-91833929AC3C}
        E 0 90 3c 48
        E 0 90 40 48
        E 0 90 43 48
        E 1920 80 3c 00
        E 0 80 40 00
        E 0 80 43 00
        E 0 90 3c 48
        E 0 90 40 48
        E 0 90 43 48
        E 260 80 3c 00
        E 0 80 40 00
        E 0 80 43 00
        E 440 90 3c 48
        E 0 90 40 48
        E 0 90 43 48
        E 260 80 3c 00
        E 0 80 40 00
        E 0 80 43 00
        e 514 90 3c 48
        e 0 90 40 48
        e 0 90 43 48
        e 260 80 3c 00
        e 0 80 40 00
        e 0 80 43 00
        E 186 90 43 48
        E 0 90 47 48
        E 20 90 40 48
        E 1900 80 43 00
        E 0 80 47 00
        E 0 80 40 00
        E 0 90 43 48
        E 0 90 47 48
        E 20 90 40 48
        E 240 80 43 00
        E 0 80 47 00
        E 0 80 40 00
        E 440 90 43 48
        E 0 90 47 48
        E 20 90 40 48
        E 240 80 43 00
        E 0 80 47 00
        E 0 80 40 00
        e 514 90 43 48
        e 0 90 47 48
        e 20 90 40 48
        e 240 80 43 00
        e 0 80 47 00
        e 0 80 40 00
        E 186 90 41 48
        E 0 90 45 48
        E 0 90 48 48
        E 1920 80 41 00
        E 0 80 45 00
        E 0 80 48 00
        E 0 90 41 48
        E 0 90 45 48
        E 0 90 48 48
        E 260 80 41 00
        E 0 80 45 00
        E 0 80 48 00
        E 440 90 41 48
        E 0 90 45 48
        E 0 90 48 48
        E 260 80 41 00
        E 0 80 45 00
        E 0 80 48 00
        e 514 90 41 48
        e 0 90 45 48
        e 0 90 48 48
        e 260 80 41 00
        e 0 80 45 00
        e 0 80 48 00
        E 162 90 3e 48
        E 24 90 41 48
        E 0 90 45 48
        E 1896 90 3e 48
        E 24 80 3e 00
        E 0 80 41 00
        E 0 80 45 00
        E 0 90 41 48
        E 0 90 45 48
        E 260 80 3e 00
        E 0 80 41 00
        E 0 80 45 00
        E 416 90 3e 48
        E 24 90 41 48
        E 0 90 45 48
        E 260 80 3e 00
        E 0 80 41 00
        E 0 80 45 00
        e 490 90 3e 48
        e 24 90 41 48
        e 0 90 45 48
        e 260 80 3e 00
        e 0 80 41 00
        e 0 80 45 00
        E 186 b0 7b 00
        CHASE_CC_TAKEOFFS 1
        GUID {19362806-85F2-5D9E-E1F9-07BE0CF3D16E}
        IGNTEMPO 0 120 4 4
        SRCCOLOR 25
        VELLANE -1 100 0
        CFGEDITVIEW 0 0.045808 45 12 0 -1 0 0 0 0.5
        KEYSNAP 0
        TRACKSEL 0
        EVTFILTER 0 -1 -1 -1 -1 0 0 0 0 -1 -1 -1 -1 0 -1 0 -1 -1
        CFGEDIT 1 1 0 1 0 0 1 1 1 1 1 1 58 171 1253 866 0 0 0 0 0.25 0 0 0 0 0.5 0 0 1 64
      >
    >
    <ITEM
      POSITION 72
      SNAPOFFS 0
      LENGTH 8
      LOOP 1
      ALLTAKES 0
      FADEIN 1 0 0 1 0 0
      FADEOUT 1 0 0 1 0 0
      MUTE 0
      SEL 1
      IGUID {6B87D595-8D20-A048-6B60-D5ED5AC8ADAB}
      IID 19
      NAME "01-Recorded MIDI"
      VOLPAN 1 0 1 -1
      SOFFS 0 0
      PLAYRATE 1 1 0 -1 0 0.0021
      CHANMODE 0
      GUID {090EE30B-775B-56CB-3495-39A4774A6CB4}
      RECPASS 1
      <SOURCE MIDI
        HASDATA 1 960 QN
        CCINTERP 32
        POOLEDEVTS {00AB4670-B7DA-1002-C26A-65BFC3C5A03A}
        E 0 90 3c 48
        E 0 90 40 48
        E 0 90 43 48
        E 1920 80 3c 00
        E 0 80 40 00
        E 0 80 43 00
        E 0 90 3c 48
        E 0 90 40 48
        E 0 90 43 48
        E 260 80 3c 00
        E 0 80 40 00
        E 0 80 43 00
        E 440 90 3c 48
        E 0 90 40 48
        E 0 90 43 48
        E 260 80 3c 00
        E 0 80 40 00
        E 0 80 43 00
        e 514 90 3c 48
        e 0 90 40 48
        e 0 90 43 48
        e 260 80 3c 00
        e 0 80 40 00
        e 0 80 43 00
        E 186 90 43 48
        E 0 90 47 48
        E 20 90 40 48
        E 1900 80 43 00
        E 0 80 47 00
        E 0 80 40 00
        E 0 90 43 48
        E 0 90 47 48
        E 20 90 40 48
        E 240 80 43 00
        E 0 80 47 00
        E 0 80 40 00
        E 440 90 43 48
        E 0 90 47 48
        E 20 90 40 48
        E 240 80 43 00
        E 0 80 47 00
        E 0 80 40 00
        e 514 90 43 48
        e 0 90 47 48
        e 20 90 40 48
        e 240 80 43 00
        e 0 80 47 00
        e 0 80 40 00
        E 186 90 41 48
        E 0 90 45 48
        E 0 90 48 48
        E 1920 80 41 00
        E 0 80 45 00
        E 0 80 48 00
        E 0 90 41 48
        E 0 90 45 48
        E 0 90 48 48
        E 260 80 41 00
        E 0 80 45 00
        E 0 80 48 00
        E 440 90 41 48
        E 0 90 45 48
        E 0 90 48 48
        E 260 80 41 00
        E 0 80 45 00
        E 0 80 48 00
        e 514 90 41 48
        e 0 90 45 48
        e 0 90 48 48
        e 260 80 41 00
        e 0 80 45 00
        e 0 80 48 00
        E 162 90 3e 48
        E 24 90 41 48
        E 0 90 45 48
        E 1896 90 3e 48
        E 24 80 3e 00
        E 0 80 41 00
        E 0 80 45 00
        E 0 90 41 48
        E 0 90 45 48
        E 260 80 3e 00
        E 0 80 41 00
        E 0 80 45 00
        E 416 90 3e 48
        E 24 90 41 48
        E 0 90 45 48
        E 260 80 3e 00
        E 0 80 41 00
        E 0 80 45 00
        e 490 90 3e 48
        e 24 90 41 48
        e 0 90 45 48
        e 260 80 3e 00
        e 0 80 41 00
        e 0 80 45 00
        E 186 b0 7b 00
        CHASE_CC_TAKEOFFS 1
        GUID {6844F8A9-6BE9-023C-4A46-0A676470C99B}
        IGNTEMPO 0 120 4 4
        SRCCOLOR 26
        VELLANE -1 100 0
        CFGEDITVIEW 0 0.045808 45 12 0 -1 0 0 0 0.5
        KEYSNAP 0
        TRACKSEL 0
        EVTFILTER 0 -1 -1 -1 -1 0 0 0 0 -1 -1 -1 -1 0 -1 0 -1 -1
        CFGEDIT 1 1 0 1 0 0 1 1 1 1 1 1 58 171 1253 866 0 0 0 0 0.25 0 0 0 0 0.5 0 0 1 64
      >
    >
    <ITEM
      POSITION 80
      SNAPOFFS 0
      LENGTH 8
      LOOP 1
      ALLTAKES 0
      FADEIN 1 0 0 1 0 0
      FADEOUT 1 0 0 1 0 0
      MUTE 0
      SEL 1
      IGUID {3BEFEA4A-8750-D8E4-47A1-A66A457F1E06}
      IID 20
      NAME "01-Recorded MIDI"
      VOLPAN 1 0 1 -1
      SOFFS 0 0
      PLAYRATE 1 1 0 -1 0 0.0021
      CHANMODE 0
      GUID {A558E9BC-E48A-52D4-80E0-B231FCB146A2}
      RECPASS 1
      <SOURCE MIDI
        HASDATA 1 960 QN
        CCINTERP 32
        POOLEDEVTS {9F03A7FA-D41A-F207-DB2C-0D6BD78531CF}
        E 0 90 3c 48
        E 0 90 40 48
        E 0 90 43 48
        E 1920 80 3c 00
        E 0 80 40 00
        E 0 80 43 00
        E 0 90 3c 48
        E 0 90 40 48
        E 0 90 43 48
        E 260 80 3c 00
        E 0 80 40 00
        E 0 80 43 00
        E 440 90 3c 48
        E 0 90 40 48
        E 0 90 43 48
        E 260 80 3c 00
        E 0 80 40 00
        E 0 80 43 00
        e 514 90 3c 48
        e 0 90 40 48
        e 0 90 43 48
        e 260 80 3c 00
        e 0 80 40 00
        e 0 80 43 00
        E 186 90 43 48
        E 0 90 47 48
        E 20 90 40 48
        E 1900 80 43 00
        E 0 80 47 00
        E 0 80 40 00
        E 0 90 43 48
        E 0 90 47 48
        E 20 90 40 48
        E 240 80 43 00
        E 0 80 47 00
        E 0 80 40 00
        E 440 90 43 48
        E 0 90 47 48
        E 20 90 40 48
        E 240 80 43 00
        E 0 80 47 00
        E 0 80 40 00
        e 514 90 43 48
        e 0 90 47 48
        e 20 90 40 48
        e 240 80 43 00
        e 0 80 47 00
        e 0 80 40 00
        E 186 90 41 48
        E 0 90 45 48
        E 0 90 48 48
        E 1920 80 41 00
        E 0 80 45 00
        E 0 80 48 00
        E 0 90 41 48
        E 0 90 45 48
        E 0 90 48 48
        E 260 80 41 00
        E 0 80 45 00
        E 0 80 48 00
        E 440 90 41 48
        E 0 90 45 48
        E 0 90 48 48
        E 260 80 41 00
        E 0 80 45 00
        E 0 80 48 00
        e 514 90 41 48
        e 0 90 45 48
        e 0 90 48 48
        e 260 80 41 00
        e 0 80 45 00
        e 0 80 48 00
        E 162 90 3e 48
        E 24 90 41 48
        E 0 90 45 48
        E 1896 90 3e 48
        E 24 80 3e 00
        E 0 80 41 00
        E 0 80 45 00
        E 0 90 41 48
        E 0 90 45 48
        E 260 80 3e 00
        E 0 80 41 00
        E 0 80 45 00
        E 416 90 3e 48
        E 24 90 41 48
        E 0 90 45 48
        E 260 80 3e 00
        E 0 80 41 00
        E 0 80 45 00
        e 490 90 3e 48
        e 24 90 41 48
        e 0 90 45 48
        e 260 80 3e 00
        e 0 80 41 00
        e 0 80 45 00
        E 186 b0 7b 00
        CHASE_CC_TAKEOFFS 1
        GUID {E611ADB6-4869-6CCA-8E83-3954D5E743B1}
        IGNTEMPO 0 120 4 4
        SRCCOLOR 27
        VELLANE -1 100 0
        CFGEDITVIEW 0 0.045808 45 12 0 -1 0 0 0 0.5
        KEYSNAP 0
        TRACKSEL 0
        EVTFILTER 0 -1 -1 -1 -1 0 0 0 0 -1 -1 -1 -1 0 -1 0 -1 -1
        CFGEDIT 1 1 0 1 0 0 1 1 1 1 1 1 58 171 1253 866 0 0 0 0 0.25 0 0 0 0 0.5 0 0 1 64
      >
    >
    <ITEM
      POSITION 88
      SNAPOFFS 0
      LENGTH 8
      LOOP 1
      ALLTAKES 0
      FADEIN 1 0 0 1 0 0
      FADEOUT 1 0 0 1 0 0
      MUTE 0
      SEL 1
      IGUID {2227C678-79C4-9D27-8823-FA55A1E877DF}
      IID 21
      NAME "01-Recorded MIDI"
      VOLPAN 1 0 1 -1
      SOFFS 0 0
      PLAYRATE 1 1 0 -1 0 0.0021
      CHANMODE 0
      GUID {AA4B818C-004F-F8A2-56BE-3E6A580C780F}
      RECPASS 1
      <SOURCE MIDI
        HASDATA 1 960 QN
        CCINTERP 32
        POOLEDEVTS {C2119A50-C78E-F373-519D-F87E480ABEB8}
        E 0 90 3c 48
        E 0 90 40 48
        E 0 90 43 48
        E 1920 80 3c 00
        E 0 80 40 00
        E 0 80 43 00
        E 0 90 3c 48
        E 0 90 40 48
        E 0 90 43 48
        E 260 80 3c 00
        E 0 80 40 00
        E 0 80 43 00
        E 440 90 3c 48
        E 0 90 40 48
        E 0 90 43 48
        E 260 80 3c 00
        E 0 80 40 00
        E 0 80 43 00
        e 514 90 3c 48
        e 0 90 40 48
        e 0 90 43 48
        e 260 80 3c 00
        e 0 80 40 00
        e 0 80 43 00
        E 186 90 43 48
        E 0 90 47 48
        E 20 90 40 48
        E 1900 80 43 00
        E 0 80 47 00
        E 0 80 40 00
        E 0 90 43 48
        E 0 90 47 48
        E 20 90 40 48
        E 240 80 43 00
        E 0 80 47 00
        E 0 80 40 00
        E 440 90 43 48
        E 0 90 47 48
        E 20 90 40 48
        E 240 80 43 00
        E 0 80 47 00
        E 0 80 40 00
        e 514 90 43 48
        e 0 90 47 48
        e 20 90 40 48
        e 240 80 43 00
        e 0 80 47 00
        e 0 80 40 00
        E 186 90 41 48
        E 0 90 45 48
        E 0 90 48 48
        E 1920 80 41 00
        E 0 80 45 00
        E 0 80 48 00
        E 0 90 41 48
        E 0 90 45 48
        E 0 90 48 48
        E 260 80 41 00
        E 0 80 45 00
        E 0 80 48 00
        E 440 90 41 48
        E 0 90 45 48
        E 0 90 48 48
        E 260 80 41 00
        E 0 80 45 00
        E 0 80 48 00
        e 514 90 41 48
        e 0 90 45 48
        e 0 90 48 48
        e 260 80 41 00
        e 0 80 45 00
        e 0 80 48 00
        E 162 90 3e 48
        E 24 90 41 48
        E 0 90 45 48
        E 1896 90 3e 48
        E 24 80 3e 00
        E 0 80 41 00
        E 0 80 45 00
        E 0 90 41 48
        E 0 90 45 48
        E 260 80 3e 00
        E 0 80 41 00
        E 0 80 45 00
        E 416 90 3e 48
        E 24 90 41 48
        E 0 90 45 48
        E 260 80 3e 00
        E 0 80 41 00
        E 0 80 45 00
        e 490 90 3e 48
        e 24 90 41 48
        e 0 90 45 48
        e 260 80 3e 00
        e 0 80 41 00
        e 0 80 45 00
        E 186 b0 7b 00
        CHASE_CC_TAKEOFFS 1
        GUID {C762B555-17FC-D765-5340-11D3487D2955}
        IGNTEMPO 0 120 4 4
        SRCCOLOR 28
        VELLANE -1 100 0
        CFGEDITVIEW 0 0.045808 45 12 0 -1 0 0 0 0.5
        KEYSNAP 0
        TRACKSEL 0
        EVTFILTER 0 -1 -1 -1 -1 0 0 0 0 -1 -1 -1 -1 0 -1 0 -1 -1
        CFGEDIT 1 1 0 1 0 0 1 1 1 1 1 1 58 171 1253 866 0 0 0 0 0.25 0 0 0 0 0.5 0 0 1 64
      >
    >
  >
  <TRACK {4444531A-27FC-000B-4F01-B8F0D2A75A17}
    NAME ""
    PEAKCOL 16576
    BEAT -1
    AUTOMODE 0
    VOLPAN 0.00052194381917 0 -1 -1 1
    MUTESOLO 0 0 0
    IPHASE 0
    PLAYOFFS 0 1
    ISBUS 0 0
    BUSCOMP 0 0 0 0 0
    SHOWINMIX 1 0.6667 0.5 1 0.5 0 0 0
    FREEMODE 0
    SEL 0
    REC 0 5056 1 0 0 0 0
    VU 2
    TRACKHEIGHT 21 0 0
    INQ 0 0 0 0.5 100 0 0 100
    NCHAN 2
    FX 0
    TRACKID {4444531A-27FC-000B-4F01-B8F0D2A75A17}
    PERF 0
    MIDIOUT -1
    MAINSEND 1 0
    <FXCHAIN
      WNDRECT 346 266 902 608
      SHOW 0
      LASTSEL 5
      DOCKED 0
      BYPASS 0 0 0
      <VST "VST: ReaEQ (Cockos)" reaeq.vst.so 0 "" 1919247729<56535472656571726561657100000000> ""
        cWVlcu5e7f4CAAAAAQAAAAAAAAACAAAAAAAAAAIAAAABAAAAAAAAAAIAAAAAAAAAqAAAAAEAAAAAABAA
        IQAAAAQAAAAEAAAAAQAAAEC4Xhmm+DRAAAAAAAAA8D8AAAAAAAAAQAEIAAAAAQAAAAAAAAAAwHJAAAAAAAAA8D8AAAAAAAAAQAEIAAAAAQAAAAAAAAAAQI9AAAAAAAAA
        8D8AAAAAAAAAQAEDAAAAAQAAAAABaCorbdRAAAAAAAAA8D8AAAAAAAAAQAEBAAAAAQAAAAAAAAAAAPA/AAAAAJoCAACcAQAA
        AEhpZ2ggbG93IHBhc3MAEAAAAA==
      >
      PRESETNAME "High low pass"
      FLOATPOS 0 0 0 0
      FXID {1305DB26-373A-097D-D32E-D230B8127147}
      WAK 0 0
      BYPASS 0 0 0
      <VST "VSTi: ReaSynth (Cockos)" reasynth.vst.so 0 "" 1919251321<5653547265737972656173796E746800> ""
        eXNlcu9e7f4AAAAAAgAAAAEAAAAAAAAAAgAAAAAAAAA8AAAAAAAAAAAAEAA=
        776t3g3wrd6lm8Q7F7fROgAAAAAAAAAAAAAAAJCNuT3oZ4g9AACAPwAAAD8AAIA/AAAAAAAAAD8AAAAA
        AAAQAAAA
      >
      FLOATPOS 0 0 0 0
      FXID {BC2DF309-2406-49CC-74FF-A942A3AEA630}
      WAK 0 0
      BYPASS 0 0 0
      <JS guitar/amp-model ""
        "Dumble Overdrive Special - Tweed Deluxe.wav" -21.000000 1.000000 0.000000 0.000000 -1.000000 - - - - - - - - - - - - - - - - - - - - - - - - - - - - - - - - - - - - - - - - - - - - - - - - - - - - - - - - - - 
      >
      FLOATPOS 0 0 0 0
      FXID {07395FD1-6508-B7AD-8A98-104B87F91EBC}
      WAK 0 0
      BYPASS 0 0 0
      <VST "VST: ReaComp (Cockos)" reacomp.vst.so 0 "" 1919247213<5653547265636D726561636F6D700000> ""
        bWNlcu9e7f4EAAAAAQAAAAAAAAACAAAAAAAAAAQAAAAAAAAACAAAAAAAAAACAAAAAQAAAAAAAAACAAAAAAAAAFQAAAAAAAAAAAAQAA==
        776t3g3wrd5FoYg9/AWpPKWbxDsK16M8AAAAAAAAAAAAAIA/AAAAAAAAAAAAAAAAnNEHMwAAgD8AAAAAzMxMPQAAAAAAAAAAAAAAAAAAgD7YiZ09
        AAAQAAAA
      >
      FLOATPOS 0 0 0 0
      FXID {301C613C-FD97-DA25-B91F-29E1CFD27BCC}
      WAK 0 0
      BYPASS 0 0 0
      <VST "VST: ReaDelay (Cockos)" readelay.vst.so 0 "" 1919247468<5653547265646C72656164656C617900> ""
        bGRlcu5e7f4CAAAAAQAAAAAAAAACAAAAAAAAAAIAAAABAAAAAAAAAAIAAAAAAAAA/AAAAAEAAAAAAAAA
        AAAAAAAAAAAFAAAALAAAAAIAAAAEAAAAAACAPwAAgD8AAAAAAACAPwAAAAAAAIA7vTeGNQAAgD8AAAAAAACAPwAAgD8AAIA/AAAAAAAAAAAAAIA/AAAAAAAAADwAAAAA
        AACAPwAAAAAAAIA/AACAP+87NT8AAIA/AAAAAAAAgD8AAAAAAABAPL03hjUAAIA/AAAAAAAAgD8AAIA/zk0AP6abhD4AAAAAAACAPwAAAAAAAIA8vTeGNQAAgD8AAAAA
        AACAPwAAgD8aqrU+pHA9PwAAAAAAAIA/AAAAAAAAoDy9N4Y1AACAPwAAAAAAAIA/AACAP/npAD4AAAA/
        AHN0b2NrIC0gYmFzaWMgNSB0YXAgcGluZyBwb25nAAAAAAA=
      >
      PRESETNAME "stock - basic 5 tap ping pong"
      FLOATPOS 0 0 0 0
      FXID {35069C62-FC74-A391-4118-3FB2DEA16196}
      WAK 0 0
      BYPASS 0 0 0
      <VST "VST: ReaVerb (Cockos)" reaverb.vst.so 0 "" 1919252066<56535472657662726561766572620000> ""
        YnZlcu5e7f4CAAAAAQAAAAAAAAACAAAAAAAAAAIAAAABAAAAAAAAAAIAAAAAAAAAcAAAAAEAAAAAAAAA
        AAAAwcybgD4AAIA/AAAAAAAAgD8AAIA/AAAAPwAAgD8AAAAAVkVSQkdFTgAYAAAAAAAAAJHgV0QdrLRA3rK7QsHIjEIAAIC/RUNIT0dFTgAcAAAAy/i2QLUjdUJdzdM/
        osdfP5lRrzyRzYxAnMQAPw==
        AHN3ZWV0dmVyYm8AAAAAAA==
      >
      PRESETNAME sweetverbo
      FLOATPOS 0 0 0 0
      FXID {E63672C5-406A-0C7E-5AC5-823E967EFAB2}
      WAK 0 0
    >
    <ITEM
      POSITION 0
      SNAPOFFS 0
      LENGTH 8
      LOOP 1
      ALLTAKES 0
      FADEIN 1 0 0 1 0 0
      FADEOUT 1 0 0 1 0 0
      MUTE 0
      SEL 1
      IGUID {4904E2F8-D079-7A00-9CC6-EDF724E45ADA}
      IID 10
      NAME "01-Recorded MIDI"
      VOLPAN 1 0 1 -1
      SOFFS 0 0
      PLAYRATE 1 1 0 -1 0 0.0021
      CHANMODE 0
      GUID {A9AA2396-E624-9915-58AD-675777BE4518}
      RECPASS 1
      <SOURCE MIDI
        HASDATA 1 960 QN
        CCINTERP 32
        POOLEDEVTS {65B3E782-B5DD-F920-5453-983F543EE058}
        E 0 90 3c 48
        E 0 90 40 48
        E 0 90 43 48
        E 1920 80 3c 00
        E 0 80 40 00
        E 0 80 43 00
        E 0 90 3c 48
        E 0 90 40 48
        E 0 90 43 48
        E 260 80 3c 00
        E 0 80 40 00
        E 0 80 43 00
        E 440 90 3c 48
        E 0 90 40 48
        E 0 90 43 48
        E 260 80 3c 00
        E 0 80 40 00
        E 0 80 43 00
        e 514 90 3c 48
        e 0 90 40 48
        e 0 90 43 48
        e 260 80 3c 00
        e 0 80 40 00
        e 0 80 43 00
        E 186 90 43 48
        E 0 90 47 48
        E 20 90 40 48
        E 1900 80 43 00
        E 0 80 47 00
        E 0 80 40 00
        E 0 90 43 48
        E 0 90 47 48
        E 20 90 40 48
        E 240 80 43 00
        E 0 80 47 00
        E 0 80 40 00
        E 440 90 43 48
        E 0 90 47 48
        E 20 90 40 48
        E 240 80 43 00
        E 0 80 47 00
        E 0 80 40 00
        e 514 90 43 48
        e 0 90 47 48
        e 20 90 40 48
        e 240 80 43 00
        e 0 80 47 00
        e 0 80 40 00
        E 186 90 41 48
        E 0 90 45 48
        E 0 90 48 48
        E 1920 80 41 00
        E 0 80 45 00
        E 0 80 48 00
        E 0 90 41 48
        E 0 90 45 48
        E 0 90 48 48
        E 260 80 41 00
        E 0 80 45 00
        E 0 80 48 00
        E 440 90 41 48
        E 0 90 45 48
        E 0 90 48 48
        E 260 80 41 00
        E 0 80 45 00
        E 0 80 48 00
        e 514 90 41 48
        e 0 90 45 48
        e 0 90 48 48
        e 260 80 41 00
        e 0 80 45 00
        e 0 80 48 00
        E 162 90 3e 48
        E 24 90 41 48
        E 0 90 45 48
        E 1896 90 3e 48
        E 24 80 3e 00
        E 0 80 41 00
        E 0 80 45 00
        E 0 90 41 48
        E 0 90 45 48
        E 260 80 3e 00
        E 0 80 41 00
        E 0 80 45 00
        E 416 90 3e 48
        E 24 90 41 48
        E 0 90 45 48
        E 260 80 3e 00
        E 0 80 41 00
        E 0 80 45 00
        e 490 90 3e 48
        e 24 90 41 48
        e 0 90 45 48
        e 260 80 3e 00
        e 0 80 41 00
        e 0 80 45 00
        E 186 b0 7b 00
        CHASE_CC_TAKEOFFS 1
        GUID {7B9D708B-43E1-C8D4-C4B3-87E2A6C27801}
        IGNTEMPO 0 120 4 4
        SRCCOLOR 17
        VELLANE -1 100 0
        CFGEDITVIEW 0 0.045808 45 12 0 -1 0 0 0 0.5
        KEYSNAP 0
        TRACKSEL 0
        EVTFILTER 0 -1 -1 -1 -1 0 0 0 0 -1 -1 -1 -1 0 -1 0 -1 -1
        CFGEDIT 1 1 0 1 0 0 1 1 1 1 1 1 58 171 1253 866 0 0 0 0 0.25 0 0 0 0 0.5 0 0 1 64
      >
    >
    <ITEM
      POSITION 8
      SNAPOFFS 0
      LENGTH 8
      LOOP 1
      ALLTAKES 0
      FADEIN 1 0 0 1 0 0
      FADEOUT 1 0 0 1 0 0
      MUTE 0
      SEL 1
      IGUID {C609CE0A-992C-47A1-C66C-DD04064D081A}
      IID 11
      NAME "01-Recorded MIDI"
      VOLPAN 1 0 1 -1
      SOFFS 0 0
      PLAYRATE 1 1 0 -1 0 0.0021
      CHANMODE 0
      GUID {E0FDF17F-D9E6-8049-FB72-02CE0292B258}
      RECPASS 1
      <SOURCE MIDI
        HASDATA 1 960 QN
        CCINTERP 32
        POOLEDEVTS {CBFC5A5E-4766-A85C-703A-C81458DD2533}
        E 0 90 3c 48
        E 0 90 40 48
        E 0 90 43 48
        E 1920 80 3c 00
        E 0 80 40 00
        E 0 80 43 00
        E 0 90 3c 48
        E 0 90 40 48
        E 0 90 43 48
        E 260 80 3c 00
        E 0 80 40 00
        E 0 80 43 00
        E 440 90 3c 48
        E 0 90 40 48
        E 0 90 43 48
        E 260 80 3c 00
        E 0 80 40 00
        E 0 80 43 00
        e 514 90 3c 48
        e 0 90 40 48
        e 0 90 43 48
        e 260 80 3c 00
        e 0 80 40 00
        e 0 80 43 00
        E 186 90 43 48
        E 0 90 47 48
        E 20 90 40 48
        E 1900 80 43 00
        E 0 80 47 00
        E 0 80 40 00
        E 0 90 43 48
        E 0 90 47 48
        E 20 90 40 48
        E 240 80 43 00
        E 0 80 47 00
        E 0 80 40 00
        E 440 90 43 48
        E 0 90 47 48
        E 20 90 40 48
        E 240 80 43 00
        E 0 80 47 00
        E 0 80 40 00
        e 514 90 43 48
        e 0 90 47 48
        e 20 90 40 48
        e 240 80 43 00
        e 0 80 47 00
        e 0 80 40 00
        E 186 90 41 48
        E 0 90 45 48
        E 0 90 48 48
        E 1920 80 41 00
        E 0 80 45 00
        E 0 80 48 00
        E 0 90 41 48
        E 0 90 45 48
        E 0 90 48 48
        E 260 80 41 00
        E 0 80 45 00
        E 0 80 48 00
        E 440 90 41 48
        E 0 90 45 48
        E 0 90 48 48
        E 260 80 41 00
        E 0 80 45 00
        E 0 80 48 00
        e 514 90 41 48
        e 0 90 45 48
        e 0 90 48 48
        e 260 80 41 00
        e 0 80 45 00
        e 0 80 48 00
        E 162 90 3e 48
        E 24 90 41 48
        E 0 90 45 48
        E 1896 90 3e 48
        E 24 80 3e 00
        E 0 80 41 00
        E 0 80 45 00
        E 0 90 41 48
        E 0 90 45 48
        E 260 80 3e 00
        E 0 80 41 00
        E 0 80 45 00
        E 416 90 3e 48
        E 24 90 41 48
        E 0 90 45 48
        E 260 80 3e 00
        E 0 80 41 00
        E 0 80 45 00
        e 490 90 3e 48
        e 24 90 41 48
        e 0 90 45 48
        e 260 80 3e 00
        e 0 80 41 00
        e 0 80 45 00
        E 186 b0 7b 00
        CHASE_CC_TAKEOFFS 1
        GUID {3131B4E2-B370-E352-A9C5-C8CA31551A86}
        IGNTEMPO 0 120 4 4
        SRCCOLOR 18
        VELLANE -1 100 0
        CFGEDITVIEW 0 0.045808 45 12 0 -1 0 0 0 0.5
        KEYSNAP 0
        TRACKSEL 0
        EVTFILTER 0 -1 -1 -1 -1 0 0 0 0 -1 -1 -1 -1 0 -1 0 -1 -1
        CFGEDIT 1 1 0 1 0 0 1 1 1 1 1 1 58 171 1253 866 0 0 0 0 0.25 0 0 0 0 0.5 0 0 1 64
      >
    >
    <ITEM
      POSITION 16
      SNAPOFFS 0
      LENGTH 8
      LOOP 1
      ALLTAKES 0
      FADEIN 1 0 0 1 0 0
      FADEOUT 1 0 0 1 0 0
      MUTE 0
      SEL 1
      IGUID {F9B4A145-5F94-5CE5-983F-5BE28057D170}
      IID 12
      NAME "01-Recorded MIDI"
      VOLPAN 1 0 1 -1
      SOFFS 0 0
      PLAYRATE 1 1 0 -1 0 0.0021
      CHANMODE 0
      GUID {1347A0DD-9DC1-9E35-E966-D85A47B68C23}
      RECPASS 1
      <SOURCE MIDI
        HASDATA 1 960 QN
        CCINTERP 32
        POOLEDEVTS {C59CE54E-F6A0-E5E9-C0D1-1E99D085B1DA}
        E 0 90 3c 48
        E 0 90 40 48
        E 0 90 43 48
        E 1920 80 3c 00
        E 0 80 40 00
        E 0 80 43 00
        E 0 90 3c 48
        E 0 90 40 48
        E 0 90 43 48
        E 260 80 3c 00
        E 0 80 40 00
        E 0 80 43 00
        E 440 90 3c 48
        E 0 90 40 48
        E 0 90 43 48
        E 260 80 3c 00
        E 0 80 40 00
        E 0 80 43 00
        e 514 90 3c 48
        e 0 90 40 48
        e 0 90 43 48
        e 260 80 3c 00
        e 0 80 40 00
        e 0 80 43 00
        E 186 90 43 48
        E 0 90 47 48
        E 20 90 40 48
        E 1900 80 43 00
        E 0 80 47 00
        E 0 80 40 00
        E 0 90 43 48
        E 0 90 47 48
        E 20 90 40 48
        E 240 80 43 00
        E 0 80 47 00
        E 0 80 40 00
        E 440 90 43 48
        E 0 90 47 48
        E 20 90 40 48
        E 240 80 43 00
        E 0 80 47 00
        E 0 80 40 00
        e 514 90 43 48
        e 0 90 47 48
        e 20 90 40 48
        e 240 80 43 00
        e 0 80 47 00
        e 0 80 40 00
        E 186 90 41 48
        E 0 90 45 48
        E 0 90 48 48
        E 1920 80 41 00
        E 0 80 45 00
        E 0 80 48 00
        E 0 90 41 48
        E 0 90 45 48
        E 0 90 48 48
        E 260 80 41 00
        E 0 80 45 00
        E 0 80 48 00
        E 440 90 41 48
        E 0 90 45 48
        E 0 90 48 48
        E 260 80 41 00
        E 0 80 45 00
        E 0 80 48 00
        e 514 90 41 48
        e 0 90 45 48
        e 0 90 48 48
        e 260 80 41 00
        e 0 80 45 00
        e 0 80 48 00
        E 162 90 3e 48
        E 24 90 41 48
        E 0 90 45 48
        E 1896 90 3e 48
        E 24 80 3e 00
        E 0 80 41 00
        E 0 80 45 00
        E 0 90 41 48
        E 0 90 45 48
        E 260 80 3e 00
        E 0 80 41 00
        E 0 80 45 00
        E 416 90 3e 48
        E 24 90 41 48
        E 0 90 45 48
        E 260 80 3e 00
        E 0 80 41 00
        E 0 80 45 00
        e 490 90 3e 48
        e 24 90 41 48
        e 0 90 45 48
        e 260 80 3e 00
        e 0 80 41 00
        e 0 80 45 00
        E 186 b0 7b 00
        CHASE_CC_TAKEOFFS 1
        GUID {48C567A2-895C-FB9B-FDBA-0ADB7004ABF3}
        IGNTEMPO 0 120 4 4
        SRCCOLOR 19
        VELLANE -1 100 0
        CFGEDITVIEW 0 0.045808 45 12 0 -1 0 0 0 0.5
        KEYSNAP 0
        TRACKSEL 0
        EVTFILTER 0 -1 -1 -1 -1 0 0 0 0 -1 -1 -1 -1 0 -1 0 -1 -1
        CFGEDIT 1 1 0 1 0 0 1 1 1 1 1 1 58 171 1253 866 0 0 0 0 0.25 0 0 0 0 0.5 0 0 1 64
      >
    >
    <ITEM
      POSITION 24
      SNAPOFFS 0
      LENGTH 8
      LOOP 1
      ALLTAKES 0
      FADEIN 1 0 0 1 0 0
      FADEOUT 1 0 0 1 0 0
      MUTE 0
      SEL 1
      IGUID {E3A77AD6-A78B-FD99-368E-308EEF4C834A}
      IID 13
      NAME "01-Recorded MIDI"
      VOLPAN 1 0 1 -1
      SOFFS 0 0
      PLAYRATE 1 1 0 -1 0 0.0021
      CHANMODE 0
      GUID {9262C098-5FCB-FAD7-60D4-DD250CFB3DA2}
      RECPASS 1
      <SOURCE MIDI
        HASDATA 1 960 QN
        CCINTERP 32
        POOLEDEVTS {E8BB749D-B108-0AFD-501E-5F0A8E987F74}
        E 0 90 3c 48
        E 0 90 40 48
        E 0 90 43 48
        E 1920 80 3c 00
        E 0 80 40 00
        E 0 80 43 00
        E 0 90 3c 48
        E 0 90 40 48
        E 0 90 43 48
        E 260 80 3c 00
        E 0 80 40 00
        E 0 80 43 00
        E 440 90 3c 48
        E 0 90 40 48
        E 0 90 43 48
        E 260 80 3c 00
        E 0 80 40 00
        E 0 80 43 00
        e 514 90 3c 48
        e 0 90 40 48
        e 0 90 43 48
        e 260 80 3c 00
        e 0 80 40 00
        e 0 80 43 00
        E 186 90 43 48
        E 0 90 47 48
        E 20 90 40 48
        E 1900 80 43 00
        E 0 80 47 00
        E 0 80 40 00
        E 0 90 43 48
        E 0 90 47 48
        E 20 90 40 48
        E 240 80 43 00
        E 0 80 47 00
        E 0 80 40 00
        E 440 90 43 48
        E 0 90 47 48
        E 20 90 40 48
        E 240 80 43 00
        E 0 80 47 00
        E 0 80 40 00
        e 514 90 43 48
        e 0 90 47 48
        e 20 90 40 48
        e 240 80 43 00
        e 0 80 47 00
        e 0 80 40 00
        E 186 90 41 48
        E 0 90 45 48
        E 0 90 48 48
        E 1920 80 41 00
        E 0 80 45 00
        E 0 80 48 00
        E 0 90 41 48
        E 0 90 45 48
        E 0 90 48 48
        E 260 80 41 00
        E 0 80 45 00
        E 0 80 48 00
        E 440 90 41 48
        E 0 90 45 48
        E 0 90 48 48
        E 260 80 41 00
        E 0 80 45 00
        E 0 80 48 00
        e 514 90 41 48
        e 0 90 45 48
        e 0 90 48 48
        e 260 80 41 00
        e 0 80 45 00
        e 0 80 48 00
        E 162 90 3e 48
        E 24 90 41 48
        E 0 90 45 48
        E 1896 90 3e 48
        E 24 80 3e 00
        E 0 80 41 00
        E 0 80 45 00
        E 0 90 41 48
        E 0 90 45 48
        E 260 80 3e 00
        E 0 80 41 00
        E 0 80 45 00
        E 416 90 3e 48
        E 24 90 41 48
        E 0 90 45 48
        E 260 80 3e 00
        E 0 80 41 00
        E 0 80 45 00
        e 490 90 3e 48
        e 24 90 41 48
        e 0 90 45 48
        e 260 80 3e 00
        e 0 80 41 00
        e 0 80 45 00
        E 186 b0 7b 00
        CHASE_CC_TAKEOFFS 1
        GUID {1DE38800-E2A1-41B5-9C8C-3291891093B1}
        IGNTEMPO 0 120 4 4
        SRCCOLOR 20
        VELLANE -1 100 0
        CFGEDITVIEW 0 0.045808 45 12 0 -1 0 0 0 0.5
        KEYSNAP 0
        TRACKSEL 0
        EVTFILTER 0 -1 -1 -1 -1 0 0 0 0 -1 -1 -1 -1 0 -1 0 -1 -1
        CFGEDIT 1 1 0 1 0 0 1 1 1 1 1 1 58 171 1253 866 0 0 0 0 0.25 0 0 0 0 0.5 0 0 1 64
      >
    >
    <ITEM
      POSITION 32
      SNAPOFFS 0
      LENGTH 8
      LOOP 1
      ALLTAKES 0
      FADEIN 1 0 0 1 0 0
      FADEOUT 1 0 0 1 0 0
      MUTE 0
      SEL 1
      IGUID {F6CC386E-37D4-B4CB-A9F6-44C56C28561F}
      IID 14
      NAME "01-Recorded MIDI"
      VOLPAN 1 0 1 -1
      SOFFS 0 0
      PLAYRATE 1 1 0 -1 0 0.0021
      CHANMODE 0
      GUID {68FACD54-B599-D456-F956-C491894AE204}
      RECPASS 1
      <SOURCE MIDI
        HASDATA 1 960 QN
        CCINTERP 32
        POOLEDEVTS {7948F259-8351-162E-0561-8FC7EFE475FC}
        E 0 90 3c 48
        E 0 90 40 48
        E 0 90 43 48
        E 1920 80 3c 00
        E 0 80 40 00
        E 0 80 43 00
        E 0 90 3c 48
        E 0 90 40 48
        E 0 90 43 48
        E 260 80 3c 00
        E 0 80 40 00
        E 0 80 43 00
        E 440 90 3c 48
        E 0 90 40 48
        E 0 90 43 48
        E 260 80 3c 00
        E 0 80 40 00
        E 0 80 43 00
        e 514 90 3c 48
        e 0 90 40 48
        e 0 90 43 48
        e 260 80 3c 00
        e 0 80 40 00
        e 0 80 43 00
        E 186 90 43 48
        E 0 90 47 48
        E 20 90 40 48
        E 1900 80 43 00
        E 0 80 47 00
        E 0 80 40 00
        E 0 90 43 48
        E 0 90 47 48
        E 20 90 40 48
        E 240 80 43 00
        E 0 80 47 00
        E 0 80 40 00
        E 440 90 43 48
        E 0 90 47 48
        E 20 90 40 48
        E 240 80 43 00
        E 0 80 47 00
        E 0 80 40 00
        e 514 90 43 48
        e 0 90 47 48
        e 20 90 40 48
        e 240 80 43 00
        e 0 80 47 00
        e 0 80 40 00
        E 186 90 41 48
        E 0 90 45 48
        E 0 90 48 48
        E 1920 80 41 00
        E 0 80 45 00
        E 0 80 48 00
        E 0 90 41 48
        E 0 90 45 48
        E 0 90 48 48
        E 260 80 41 00
        E 0 80 45 00
        E 0 80 48 00
        E 440 90 41 48
        E 0 90 45 48
        E 0 90 48 48
        E 260 80 41 00
        E 0 80 45 00
        E 0 80 48 00
        e 514 90 41 48
        e 0 90 45 48
        e 0 90 48 48
        e 260 80 41 00
        e 0 80 45 00
        e 0 80 48 00
        E 162 90 3e 48
        E 24 90 41 48
        E 0 90 45 48
        E 1896 90 3e 48
        E 24 80 3e 00
        E 0 80 41 00
        E 0 80 45 00
        E 0 90 41 48
        E 0 90 45 48
        E 260 80 3e 00
        E 0 80 41 00
        E 0 80 45 00
        E 416 90 3e 48
        E 24 90 41 48
        E 0 90 45 48
        E 260 80 3e 00
        E 0 80 41 00
        E 0 80 45 00
        e 490 90 3e 48
        e 24 90 41 48
        e 0 90 45 48
        e 260 80 3e 00
        e 0 80 41 00
        e 0 80 45 00
        E 186 b0 7b 00
        CHASE_CC_TAKEOFFS 1
        GUID {0C3271F4-E233-9088-9B25-A722FAE7C579}
        IGNTEMPO 0 120 4 4
        SRCCOLOR 21
        VELLANE -1 100 0
        CFGEDITVIEW 0 0.045808 45 12 0 -1 0 0 0 0.5
        KEYSNAP 0
        TRACKSEL 0
        EVTFILTER 0 -1 -1 -1 -1 0 0 0 0 -1 -1 -1 -1 0 -1 0 -1 -1
        CFGEDIT 1 1 0 1 0 0 1 1 1 1 1 1 58 171 1253 866 0 0 0 0 0.25 0 0 0 0 0.5 0 0 1 64
      >
    >
    <ITEM
      POSITION 40
      SNAPOFFS 0
      LENGTH 8
      LOOP 1
      ALLTAKES 0
      FADEIN 1 0 0 1 0 0
      FADEOUT 1 0 0 1 0 0
      MUTE 0
      SEL 1
      IGUID {1D6220C6-1B42-1AE9-3294-45508DB6F24E}
      IID 15
      NAME "01-Recorded MIDI"
      VOLPAN 1 0 1 -1
      SOFFS 0 0
      PLAYRATE 1 1 0 -1 0 0.0021
      CHANMODE 0
      GUID {A1D1CFD7-CAFA-71DA-EFDE-7C8ABF02D2B6}
      RECPASS 1
      <SOURCE MIDI
        HASDATA 1 960 QN
        CCINTERP 32
        POOLEDEVTS {1691CEA1-F884-7034-A174-49AF938E7E0A}
        E 0 90 3c 48
        E 0 90 40 48
        E 0 90 43 48
        E 1920 80 3c 00
        E 0 80 40 00
        E 0 80 43 00
        E 0 90 3c 48
        E 0 90 40 48
        E 0 90 43 48
        E 260 80 3c 00
        E 0 80 40 00
        E 0 80 43 00
        E 440 90 3c 48
        E 0 90 40 48
        E 0 90 43 48
        E 260 80 3c 00
        E 0 80 40 00
        E 0 80 43 00
        e 514 90 3c 48
        e 0 90 40 48
        e 0 90 43 48
        e 260 80 3c 00
        e 0 80 40 00
        e 0 80 43 00
        E 186 90 43 48
        E 0 90 47 48
        E 20 90 40 48
        E 1900 80 43 00
        E 0 80 47 00
        E 0 80 40 00
        E 0 90 43 48
        E 0 90 47 48
        E 20 90 40 48
        E 240 80 43 00
        E 0 80 47 00
        E 0 80 40 00
        E 440 90 43 48
        E 0 90 47 48
        E 20 90 40 48
        E 240 80 43 00
        E 0 80 47 00
        E 0 80 40 00
        e 514 90 43 48
        e 0 90 47 48
        e 20 90 40 48
        e 240 80 43 00
        e 0 80 47 00
        e 0 80 40 00
        E 186 90 41 48
        E 0 90 45 48
        E 0 90 48 48
        E 1920 80 41 00
        E 0 80 45 00
        E 0 80 48 00
        E 0 90 41 48
        E 0 90 45 48
        E 0 90 48 48
        E 260 80 41 00
        E 0 80 45 00
        E 0 80 48 00
        E 440 90 41 48
        E 0 90 45 48
        E 0 90 48 48
        E 260 80 41 00
        E 0 80 45 00
        E 0 80 48 00
        e 514 90 41 48
        e 0 90 45 48
        e 0 90 48 48
        e 260 80 41 00
        e 0 80 45 00
        e 0 80 48 00
        E 162 90 3e 48
        E 24 90 41 48
        E 0 90 45 48
        E 1896 90 3e 48
        E 24 80 3e 00
        E 0 80 41 00
        E 0 80 45 00
        E 0 90 41 48
        E 0 90 45 48
        E 260 80 3e 00
        E 0 80 41 00
        E 0 80 45 00
        E 416 90 3e 48
        E 24 90 41 48
        E 0 90 45 48
        E 260 80 3e 00
        E 0 80 41 00
        E 0 80 45 00
        e 490 90 3e 48
        e 24 90 41 48
        e 0 90 45 48
        e 260 80 3e 00
        e 0 80 41 00
        e 0 80 45 00
        E 186 b0 7b 00
        CHASE_CC_TAKEOFFS 1
        GUID {040E7AF8-3572-5D91-3C86-797AEE7444D4}
        IGNTEMPO 0 120 4 4
        SRCCOLOR 22
        VELLANE -1 100 0
        CFGEDITVIEW 0 0.045808 45 12 0 -1 0 0 0 0.5
        KEYSNAP 0
        TRACKSEL 0
        EVTFILTER 0 -1 -1 -1 -1 0 0 0 0 -1 -1 -1 -1 0 -1 0 -1 -1
        CFGEDIT 1 1 0 1 0 0 1 1 1 1 1 1 58 171 1253 866 0 0 0 0 0.25 0 0 0 0 0.5 0 0 1 64
      >
    >
    <ITEM
      POSITION 48
      SNAPOFFS 0
      LENGTH 8
      LOOP 1
      ALLTAKES 0
      FADEIN 1 0 0 1 0 0
      FADEOUT 1 0 0 1 0 0
      MUTE 0
      SEL 1
      IGUID {434281D7-ABF2-7C6E-B34B-307BB7B3DA73}
      IID 16
      NAME "01-Recorded MIDI"
      VOLPAN 1 0 1 -1
      SOFFS 0 0
      PLAYRATE 1 1 0 -1 0 0.0021
      CHANMODE 0
      GUID {D2D79B79-C539-7243-DF30-FF0D743C206B}
      RECPASS 1
      <SOURCE MIDI
        HASDATA 1 960 QN
        CCINTERP 32
        POOLEDEVTS {EC4D719B-3BA6-41AB-2469-80256A6DB6FC}
        E 0 90 3c 48
        E 0 90 40 48
        E 0 90 43 48
        E 1920 80 3c 00
        E 0 80 40 00
        E 0 80 43 00
        E 0 90 3c 48
        E 0 90 40 48
        E 0 90 43 48
        E 260 80 3c 00
        E 0 80 40 00
        E 0 80 43 00
        E 440 90 3c 48
        E 0 90 40 48
        E 0 90 43 48
        E 260 80 3c 00
        E 0 80 40 00
        E 0 80 43 00
        e 514 90 3c 48
        e 0 90 40 48
        e 0 90 43 48
        e 260 80 3c 00
        e 0 80 40 00
        e 0 80 43 00
        E 186 90 43 48
        E 0 90 47 48
        E 20 90 40 48
        E 1900 80 43 00
        E 0 80 47 00
        E 0 80 40 00
        E 0 90 43 48
        E 0 90 47 48
        E 20 90 40 48
        E 240 80 43 00
        E 0 80 47 00
        E 0 80 40 00
        E 440 90 43 48
        E 0 90 47 48
        E 20 90 40 48
        E 240 80 43 00
        E 0 80 47 00
        E 0 80 40 00
        e 514 90 43 48
        e 0 90 47 48
        e 20 90 40 48
        e 240 80 43 00
        e 0 80 47 00
        e 0 80 40 00
        E 186 90 41 48
        E 0 90 45 48
        E 0 90 48 48
        E 1920 80 41 00
        E 0 80 45 00
        E 0 80 48 00
        E 0 90 41 48
        E 0 90 45 48
        E 0 90 48 48
        E 260 80 41 00
        E 0 80 45 00
        E 0 80 48 00
        E 440 90 41 48
        E 0 90 45 48
        E 0 90 48 48
        E 260 80 41 00
        E 0 80 45 00
        E 0 80 48 00
        e 514 90 41 48
        e 0 90 45 48
        e 0 90 48 48
        e 260 80 41 00
        e 0 80 45 00
        e 0 80 48 00
        E 162 90 3e 48
        E 24 90 41 48
        E 0 90 45 48
        E 1896 90 3e 48
        E 24 80 3e 00
        E 0 80 41 00
        E 0 80 45 00
        E 0 90 41 48
        E 0 90 45 48
        E 260 80 3e 00
        E 0 80 41 00
        E 0 80 45 00
        E 416 90 3e 48
        E 24 90 41 48
        E 0 90 45 48
        E 260 80 3e 00
        E 0 80 41 00
        E 0 80 45 00
        e 490 90 3e 48
        e 24 90 41 48
        e 0 90 45 48
        e 260 80 3e 00
        e 0 80 41 00
        e 0 80 45 00
        E 186 b0 7b 00
        CHASE_CC_TAKEOFFS 1
        GUID {2338968B-6CF9-9F40-300F-DEB89D3392EA}
        IGNTEMPO 0 120 4 4
        SRCCOLOR 23
        VELLANE -1 100 0
        CFGEDITVIEW 0 0.045808 45 12 0 -1 0 0 0 0.5
        KEYSNAP 0
        TRACKSEL 0
        EVTFILTER 0 -1 -1 -1 -1 0 0 0 0 -1 -1 -1 -1 0 -1 0 -1 -1
        CFGEDIT 1 1 0 1 0 0 1 1 1 1 1 1 58 171 1253 866 0 0 0 0 0.25 0 0 0 0 0.5 0 0 1 64
      >
    >
    <ITEM
      POSITION 56
      SNAPOFFS 0
      LENGTH 8
      LOOP 1
      ALLTAKES 0
      FADEIN 1 0 0 1 0 0
      FADEOUT 1 0 0 1 0 0
      MUTE 0
      SEL 1
      IGUID {746FC45A-D917-74F4-C95F-2F992916740B}
      IID 17
      NAME "01-Recorded MIDI"
      VOLPAN 1 0 1 -1
      SOFFS 0 0
      PLAYRATE 1 1 0 -1 0 0.0021
      CHANMODE 0
      GUID {1C9A5D39-A176-48D9-0FB3-E4B849D4D850}
      RECPASS 1
      <SOURCE MIDI
        HASDATA 1 960 QN
        CCINTERP 32
        POOLEDEVTS {9FD4E940-321D-1B82-C80E-B3F606B7AFCC}
        E 0 90 3c 48
        E 0 90 40 48
        E 0 90 43 48
        E 1920 80 3c 00
        E 0 80 40 00
        E 0 80 43 00
        E 0 90 3c 48
        E 0 90 40 48
        E 0 90 43 48
        E 260 80 3c 00
        E 0 80 40 00
        E 0 80 43 00
        E 440 90 3c 48
        E 0 90 40 48
        E 0 90 43 48
        E 260 80 3c 00
        E 0 80 40 00
        E 0 80 43 00
        e 514 90 3c 48
        e 0 90 40 48
        e 0 90 43 48
        e 260 80 3c 00
        e 0 80 40 00
        e 0 80 43 00
        E 186 90 43 48
        E 0 90 47 48
        E 20 90 40 48
        E 1900 80 43 00
        E 0 80 47 00
        E 0 80 40 00
        E 0 90 43 48
        E 0 90 47 48
        E 20 90 40 48
        E 240 80 43 00
        E 0 80 47 00
        E 0 80 40 00
        E 440 90 43 48
        E 0 90 47 48
        E 20 90 40 48
        E 240 80 43 00
        E 0 80 47 00
        E 0 80 40 00
        e 514 90 43 48
        e 0 90 47 48
        e 20 90 40 48
        e 240 80 43 00
        e 0 80 47 00
        e 0 80 40 00
        E 186 90 41 48
        E 0 90 45 48
        E 0 90 48 48
        E 1920 80 41 00
        E 0 80 45 00
        E 0 80 48 00
        E 0 90 41 48
        E 0 90 45 48
        E 0 90 48 48
        E 260 80 41 00
        E 0 80 45 00
        E 0 80 48 00
        E 440 90 41 48
        E 0 90 45 48
        E 0 90 48 48
        E 260 80 41 00
        E 0 80 45 00
        E 0 80 48 00
        e 514 90 41 48
        e 0 90 45 48
        e 0 90 48 48
        e 260 80 41 00
        e 0 80 45 00
        e 0 80 48 00
        E 162 90 3e 48
        E 24 90 41 48
        E 0 90 45 48
        E 1896 90 3e 48
        E 24 80 3e 00
        E 0 80 41 00
        E 0 80 45 00
        E 0 90 41 48
        E 0 90 45 48
        E 260 80 3e 00
        E 0 80 41 00
        E 0 80 45 00
        E 416 90 3e 48
        E 24 90 41 48
        E 0 90 45 48
        E 260 80 3e 00
        E 0 80 41 00
        E 0 80 45 00
        e 490 90 3e 48
        e 24 90 41 48
        e 0 90 45 48
        e 260 80 3e 00
        e 0 80 41 00
        e 0 80 45 00
        E 186 b0 7b 00
        CHASE_CC_TAKEOFFS 1
        GUID {A64857E2-94F8-0990-20DF-4C1E9B5E6251}
        IGNTEMPO 0 120 4 4
        SRCCOLOR 24
        VELLANE -1 100 0
        CFGEDITVIEW 0 0.045808 45 12 0 -1 0 0 0 0.5
        KEYSNAP 0
        TRACKSEL 0
        EVTFILTER 0 -1 -1 -1 -1 0 0 0 0 -1 -1 -1 -1 0 -1 0 -1 -1
        CFGEDIT 1 1 0 1 0 0 1 1 1 1 1 1 58 171 1253 866 0 0 0 0 0.25 0 0 0 0 0.5 0 0 1 64
      >
    >
    <ITEM
      POSITION 64
      SNAPOFFS 0
      LENGTH 8
      LOOP 1
      ALLTAKES 0
      FADEIN 1 0 0 1 0 0
      FADEOUT 1 0 0 1 0 0
      MUTE 0
      SEL 1
      IGUID {4E1509F5-40D8-14E8-F085-373664F413FE}
      IID 18
      NAME "01-Recorded MIDI"
      VOLPAN 1 0 1 -1
      SOFFS 0 0
      PLAYRATE 1 1 0 -1 0 0.0021
      CHANMODE 0
      GUID {57DFC16C-3219-AE2D-301C-346BC84356F9}
      RECPASS 1
      <SOURCE MIDI
        HASDATA 1 960 QN
        CCINTERP 32
        POOLEDEVTS {548A8678-E135-0D70-3B4B-B2C29508D9B0}
        E 0 90 3c 48
        E 0 90 40 48
        E 0 90 43 48
        E 1920 80 3c 00
        E 0 80 40 00
        E 0 80 43 00
        E 0 90 3c 48
        E 0 90 40 48
        E 0 90 43 48
        E 260 80 3c 00
        E 0 80 40 00
        E 0 80 43 00
        E 440 90 3c 48
        E 0 90 40 48
        E 0 90 43 48
        E 260 80 3c 00
        E 0 80 40 00
        E 0 80 43 00
        e 514 90 3c 48
        e 0 90 40 48
        e 0 90 43 48
        e 260 80 3c 00
        e 0 80 40 00
        e 0 80 43 00
        E 186 90 43 48
        E 0 90 47 48
        E 20 90 40 48
        E 1900 80 43 00
        E 0 80 47 00
        E 0 80 40 00
        E 0 90 43 48
        E 0 90 47 48
        E 20 90 40 48
        E 240 80 43 00
        E 0 80 47 00
        E 0 80 40 00
        E 440 90 43 48
        E 0 90 47 48
        E 20 90 40 48
        E 240 80 43 00
        E 0 80 47 00
        E 0 80 40 00
        e 514 90 43 48
        e 0 90 47 48
        e 20 90 40 48
        e 240 80 43 00
        e 0 80 47 00
        e 0 80 40 00
        E 186 90 41 48
        E 0 90 45 48
        E 0 90 48 48
        E 1920 80 41 00
        E 0 80 45 00
        E 0 80 48 00
        E 0 90 41 48
        E 0 90 45 48
        E 0 90 48 48
        E 260 80 41 00
        E 0 80 45 00
        E 0 80 48 00
        E 440 90 41 48
        E 0 90 45 48
        E 0 90 48 48
        E 260 80 41 00
        E 0 80 45 00
        E 0 80 48 00
        e 514 90 41 48
        e 0 90 45 48
        e 0 90 48 48
        e 260 80 41 00
        e 0 80 45 00
        e 0 80 48 00
        E 162 90 3e 48
        E 24 90 41 48
        E 0 90 45 48
        E 1896 90 3e 48
        E 24 80 3e 00
        E 0 80 41 00
        E 0 80 45 00
        E 0 90 41 48
        E 0 90 45 48
        E 260 80 3e 00
        E 0 80 41 00
        E 0 80 45 00
        E 416 90 3e 48
        E 24 90 41 48
        E 0 90 45 48
        E 260 80 3e 00
        E 0 80 41 00
        E 0 80 45 00
        e 490 90 3e 48
        e 24 90 41 48
        e 0 90 45 48
        e 260 80 3e 00
        e 0 80 41 00
        e 0 80 45 00
        E 186 b0 7b 00
        CHASE_CC_TAKEOFFS 1
        GUID {19362806-85F2-5D9E-E1F9-07BE0CF3D16E}
        IGNTEMPO 0 120 4 4
        SRCCOLOR 25
        VELLANE -1 100 0
        CFGEDITVIEW 0 0.045808 45 12 0 -1 0 0 0 0.5
        KEYSNAP 0
        TRACKSEL 0
        EVTFILTER 0 -1 -1 -1 -1 0 0 0 0 -1 -1 -1 -1 0 -1 0 -1 -1
        CFGEDIT 1 1 0 1 0 0 1 1 1 1 1 1 58 171 1253 866 0 0 0 0 0.25 0 0 0 0 0.5 0 0 1 64
      >
    >
    <ITEM
      POSITION 72
      SNAPOFFS 0
      LENGTH 8
      LOOP 1
      ALLTAKES 0
      FADEIN 1 0 0 1 0 0
      FADEOUT 1 0 0 1 0 0
      MUTE 0
      SEL 1
      IGUID {48840B0D-422F-0820-A3D7-4E124ED1F7A8}
      IID 19
      NAME "01-Recorded MIDI"
      VOLPAN 1 0 1 -1
      SOFFS 0 0
      PLAYRATE 1 1 0 -1 0 0.0021
      CHANMODE 0
      GUID {8982993B-A64C-EE3A-2A5F-024313CF21B9}
      RECPASS 1
      <SOURCE MIDI
        HASDATA 1 960 QN
        CCINTERP 32
        POOLEDEVTS {A6418F1F-EB47-4950-C8B3-AACC0F8FBDF8}
        E 0 90 3c 48
        E 0 90 40 48
        E 0 90 43 48
        E 1920 80 3c 00
        E 0 80 40 00
        E 0 80 43 00
        E 0 90 3c 48
        E 0 90 40 48
        E 0 90 43 48
        E 260 80 3c 00
        E 0 80 40 00
        E 0 80 43 00
        E 440 90 3c 48
        E 0 90 40 48
        E 0 90 43 48
        E 260 80 3c 00
        E 0 80 40 00
        E 0 80 43 00
        e 514 90 3c 48
        e 0 90 40 48
        e 0 90 43 48
        e 260 80 3c 00
        e 0 80 40 00
        e 0 80 43 00
        E 186 90 43 48
        E 0 90 47 48
        E 20 90 40 48
        E 1900 80 43 00
        E 0 80 47 00
        E 0 80 40 00
        E 0 90 43 48
        E 0 90 47 48
        E 20 90 40 48
        E 240 80 43 00
        E 0 80 47 00
        E 0 80 40 00
        E 440 90 43 48
        E 0 90 47 48
        E 20 90 40 48
        E 240 80 43 00
        E 0 80 47 00
        E 0 80 40 00
        e 514 90 43 48
        e 0 90 47 48
        e 20 90 40 48
        e 240 80 43 00
        e 0 80 47 00
        e 0 80 40 00
        E 186 90 41 48
        E 0 90 45 48
        E 0 90 48 48
        E 1920 80 41 00
        E 0 80 45 00
        E 0 80 48 00
        E 0 90 41 48
        E 0 90 45 48
        E 0 90 48 48
        E 260 80 41 00
        E 0 80 45 00
        E 0 80 48 00
        E 440 90 41 48
        E 0 90 45 48
        E 0 90 48 48
        E 260 80 41 00
        E 0 80 45 00
        E 0 80 48 00
        e 514 90 41 48
        e 0 90 45 48
        e 0 90 48 48
        e 260 80 41 00
        e 0 80 45 00
        e 0 80 48 00
        E 162 90 3e 48
        E 24 90 41 48
        E 0 90 45 48
        E 1896 90 3e 48
        E 24 80 3e 00
        E 0 80 41 00
        E 0 80 45 00
        E 0 90 41 48
        E 0 90 45 48
        E 260 80 3e 00
        E 0 80 41 00
        E 0 80 45 00
        E 416 90 3e 48
        E 24 90 41 48
        E 0 90 45 48
        E 260 80 3e 00
        E 0 80 41 00
        E 0 80 45 00
        e 490 90 3e 48
        e 24 90 41 48
        e 0 90 45 48
        e 260 80 3e 00
        e 0 80 41 00
        e 0 80 45 00
        E 186 b0 7b 00
        CHASE_CC_TAKEOFFS 1
        GUID {6844F8A9-6BE9-023C-4A46-0A676470C99B}
        IGNTEMPO 0 120 4 4
        SRCCOLOR 26
        VELLANE -1 100 0
        CFGEDITVIEW 0 0.045808 45 12 0 -1 0 0 0 0.5
        KEYSNAP 0
        TRACKSEL 0
        EVTFILTER 0 -1 -1 -1 -1 0 0 0 0 -1 -1 -1 -1 0 -1 0 -1 -1
        CFGEDIT 1 1 0 1 0 0 1 1 1 1 1 1 58 171 1253 866 0 0 0 0 0.25 0 0 0 0 0.5 0 0 1 64
      >
    >
    <ITEM
      POSITION 80
      SNAPOFFS 0
      LENGTH 8
      LOOP 1
      ALLTAKES 0
      FADEIN 1 0 0 1 0 0
      FADEOUT 1 0 0 1 0 0
      MUTE 0
      SEL 1
      IGUID {B1C4B238-544A-038E-42B7-0463F319C2DA}
      IID 20
      NAME "01-Recorded MIDI"
      VOLPAN 1 0 1 -1
      SOFFS 0 0
      PLAYRATE 1 1 0 -1 0 0.0021
      CHANMODE 0
      GUID {7D355EF3-F220-C533-28C5-F5317F4D0720}
      RECPASS 1
      <SOURCE MIDI
        HASDATA 1 960 QN
        CCINTERP 32
        POOLEDEVTS {1C8867AC-31AF-EB2B-E291-F1C871C6E3F5}
        E 0 90 3c 48
        E 0 90 40 48
        E 0 90 43 48
        E 1920 80 3c 00
        E 0 80 40 00
        E 0 80 43 00
        E 0 90 3c 48
        E 0 90 40 48
        E 0 90 43 48
        E 260 80 3c 00
        E 0 80 40 00
        E 0 80 43 00
        E 440 90 3c 48
        E 0 90 40 48
        E 0 90 43 48
        E 260 80 3c 00
        E 0 80 40 00
        E 0 80 43 00
        e 514 90 3c 48
        e 0 90 40 48
        e 0 90 43 48
        e 260 80 3c 00
        e 0 80 40 00
        e 0 80 43 00
        E 186 90 43 48
        E 0 90 47 48
        E 20 90 40 48
        E 1900 80 43 00
        E 0 80 47 00
        E 0 80 40 00
        E 0 90 43 48
        E 0 90 47 48
        E 20 90 40 48
        E 240 80 43 00
        E 0 80 47 00
        E 0 80 40 00
        E 440 90 43 48
        E 0 90 47 48
        E 20 90 40 48
        E 240 80 43 00
        E 0 80 47 00
        E 0 80 40 00
        e 514 90 43 48
        e 0 90 47 48
        e 20 90 40 48
        e 240 80 43 00
        e 0 80 47 00
        e 0 80 40 00
        E 186 90 41 48
        E 0 90 45 48
        E 0 90 48 48
        E 1920 80 41 00
        E 0 80 45 00
        E 0 80 48 00
        E 0 90 41 48
        E 0 90 45 48
        E 0 90 48 48
        E 260 80 41 00
        E 0 80 45 00
        E 0 80 48 00
        E 440 90 41 48
        E 0 90 45 48
        E 0 90 48 48
        E 260 80 41 00
        E 0 80 45 00
        E 0 80 48 00
        e 514 90 41 48
        e 0 90 45 48
        e 0 90 48 48
        e 260 80 41 00
        e 0 80 45 00
        e 0 80 48 00
        E 162 90 3e 48
        E 24 90 41 48
        E 0 90 45 48
        E 1896 90 3e 48
        E 24 80 3e 00
        E 0 80 41 00
        E 0 80 45 00
        E 0 90 41 48
        E 0 90 45 48
        E 260 80 3e 00
        E 0 80 41 00
        E 0 80 45 00
        E 416 90 3e 48
        E 24 90 41 48
        E 0 90 45 48
        E 260 80 3e 00
        E 0 80 41 00
        E 0 80 45 00
        e 490 90 3e 48
        e 24 90 41 48
        e 0 90 45 48
        e 260 80 3e 00
        e 0 80 41 00
        e 0 80 45 00
        E 186 b0 7b 00
        CHASE_CC_TAKEOFFS 1
        GUID {E611ADB6-4869-6CCA-8E83-3954D5E743B1}
        IGNTEMPO 0 120 4 4
        SRCCOLOR 27
        VELLANE -1 100 0
        CFGEDITVIEW 0 0.045808 45 12 0 -1 0 0 0 0.5
        KEYSNAP 0
        TRACKSEL 0
        EVTFILTER 0 -1 -1 -1 -1 0 0 0 0 -1 -1 -1 -1 0 -1 0 -1 -1
        CFGEDIT 1 1 0 1 0 0 1 1 1 1 1 1 58 171 1253 866 0 0 0 0 0.25 0 0 0 0 0.5 0 0 1 64
      >
    >
    <ITEM
      POSITION 88
      SNAPOFFS 0
      LENGTH 8
      LOOP 1
      ALLTAKES 0
      FADEIN 1 0 0 1 0 0
      FADEOUT 1 0 0 1 0 0
      MUTE 0
      SEL 1
      IGUID {8CD71AC5-B330-0E97-94D5-2CB1605DBDE1}
      IID 21
      NAME "01-Recorded MIDI"
      VOLPAN 1 0 1 -1
      SOFFS 0 0
      PLAYRATE 1 1 0 -1 0 0.0021
      CHANMODE 0
      GUID {53A0F571-00BE-067C-339A-A236A5721810}
      RECPASS 1
      <SOURCE MIDI
        HASDATA 1 960 QN
        CCINTERP 32
        POOLEDEVTS {A000DA53-91CA-26E3-A6BA-001BCE5E73A3}
        E 0 90 3c 48
        E 0 90 40 48
        E 0 90 43 48
        E 1920 80 3c 00
        E 0 80 40 00
        E 0 80 43 00
        E 0 90 3c 48
        E 0 90 40 48
        E 0 90 43 48
        E 260 80 3c 00
        E 0 80 40 00
        E 0 80 43 00
        E 440 90 3c 48
        E 0 90 40 48
        E 0 90 43 48
        E 260 80 3c 00
        E 0 80 40 00
        E 0 80 43 00
        e 514 90 3c 48
        e 0 90 40 48
        e 0 90 43 48
        e 260 80 3c 00
        e 0 80 40 00
        e 0 80 43 00
        E 186 90 43 48
        E 0 90 47 48
        E 20 90 40 48
        E 1900 80 43 00
        E 0 80 47 00
        E 0 80 40 00
        E 0 90 43 48
        E 0 90 47 48
        E 20 90 40 48
        E 240 80 43 00
        E 0 80 47 00
        E 0 80 40 00
        E 440 90 43 48
        E 0 90 47 48
        E 20 90 40 48
        E 240 80 43 00
        E 0 80 47 00
        E 0 80 40 00
        e 514 90 43 48
        e 0 90 47 48
        e 20 90 40 48
        e 240 80 43 00
        e 0 80 47 00
        e 0 80 40 00
        E 186 90 41 48
        E 0 90 45 48
        E 0 90 48 48
        E 1920 80 41 00
        E 0 80 45 00
        E 0 80 48 00
        E 0 90 41 48
        E 0 90 45 48
        E 0 90 48 48
        E 260 80 41 00
        E 0 80 45 00
        E 0 80 48 00
        E 440 90 41 48
        E 0 90 45 48
        E 0 90 48 48
        E 260 80 41 00
        E 0 80 45 00
        E 0 80 48 00
        e 514 90 41 48
        e 0 90 45 48
        e 0 90 48 48
        e 260 80 41 00
        e 0 80 45 00
        e 0 80 48 00
        E 162 90 3e 48
        E 24 90 41 48
        E 0 90 45 48
        E 1896 90 3e 48
        E 24 80 3e 00
        E 0 80 41 00
        E 0 80 45 00
        E 0 90 41 48
        E 0 90 45 48
        E 260 80 3e 00
        E 0 80 41 00
        E 0 80 45 00
        E 416 90 3e 48
        E 24 90 41 48
        E 0 90 45 48
        E 260 80 3e 00
        E 0 80 41 00
        E 0 80 45 00
        e 490 90 3e 48
        e 24 90 41 48
        e 0 90 45 48
        e 260 80 3e 00
        e 0 80 41 00
        e 0 80 45 00
        E 186 b0 7b 00
        CHASE_CC_TAKEOFFS 1
        GUID {C762B555-17FC-D765-5340-11D3487D2955}
        IGNTEMPO 0 120 4 4
        SRCCOLOR 28
        VELLANE -1 100 0
        CFGEDITVIEW 0 0.045808 45 12 0 -1 0 0 0 0.5
        KEYSNAP 0
        TRACKSEL 0
        EVTFILTER 0 -1 -1 -1 -1 0 0 0 0 -1 -1 -1 -1 0 -1 0 -1 -1
        CFGEDIT 1 1 0 1 0 0 1 1 1 1 1 1 58 171 1253 866 0 0 0 0 0.25 0 0 0 0 0.5 0 0 1 64
      >
    >
  >
  <TRACK {4646533B-F103-E768-AB2E-3A4389F5ED8B}
    NAME ""
    PEAKCOL 16576
    BEAT -1
    AUTOMODE 0
    VOLPAN 0.00052194381917 0 -1 -1 1
    MUTESOLO 0 0 0
    IPHASE 0
    PLAYOFFS 0 1
    ISBUS 0 0
    BUSCOMP 0 0 0 0 0
    SHOWINMIX 1 0.6667 0.5 1 0.5 0 0 0
    FREEMODE 0
    SEL 0
    REC 0 5056 1 0 0 0 0
    VU 2
    TRACKHEIGHT 21 0 0
    INQ 0 0 0 0.5 100 0 0 100
    NCHAN 2
    FX 0
    TRACKID {4646533B-F103-E768-AB2E-3A4389F5ED8B}
    PERF 0
    MIDIOUT -1
    MAINSEND 1 0
    <FXCHAIN
      WNDRECT 346 266 902 608
      SHOW 0
      LASTSEL 5
      DOCKED 0
      BYPASS 0 0 0
      <VST "VST: ReaEQ (Cockos)" reaeq.vst.so 0 "" 1919247729<56535472656571726561657100000000> ""
        cWVlcu5e7f4CAAAAAQAAAAAAAAACAAAAAAAAAAIAAAABAAAAAAAAAAIAAAAAAAAAqAAAAAEAAAAAABAA
        IQAAAAQAAAAEAAAAAQAAAEC4Xhmm+DRAAAAAAAAA8D8AAAAAAAAAQAEIAAAAAQAAAAAAAAAAwHJAAAAAAAAA8D8AAAAAAAAAQAEIAAAAAQAAAAAAAAAAQI9AAAAAAAAA
        8D8AAAAAAAAAQAEDAAAAAQAAAAABaCorbdRAAAAAAAAA8D8AAAAAAAAAQAEBAAAAAQAAAAAAAAAAAPA/AAAAAJoCAACcAQAA
        AEhpZ2ggbG93IHBhc3MAEAAAAA==
      >
      PRESETNAME "High low pass"
      FLOATPOS 0 0 0 0
      FXID {2389BEA1-E69D-55F9-24E3-EDDE79BD44D7}
      WAK 0 0
      BYPASS 0 0 0
      <VST "VSTi: ReaSynth (Cockos)" reasynth.vst.so 0 "" 1919251321<5653547265737972656173796E746800> ""
        eXNlcu9e7f4AAAAAAgAAAAEAAAAAAAAAAgAAAAAAAAA8AAAAAAAAAAAAEAA=
        776t3g3wrd6lm8Q7F7fROgAAAAAAAAAAAAAAAJCNuT3oZ4g9AACAPwAAAD8AAIA/AAAAAAAAAD8AAAAA
        AAAQAAAA
      >
      FLOATPOS 0 0 0 0
      FXID {9BE47ADB-BD38-0729-CE70-603EF007F32D}
      WAK 0 0
      BYPASS 0 0 0
      <JS guitar/amp-model ""
        "Dumble Overdrive Special - Tweed Deluxe.wav" -21.000000 1.000000 0.000000 0.000000 -1.000000 - - - - - - - - - - - - - - - - - - - - - - - - - - - - - - - - - - - - - - - - - - - - - - - - - - - - - - - - - - 
      >
      FLOATPOS 0 0 0 0
      FXID {7FFB5C1D-6724-9E85-8711-C5A2EC50EDC1}
      WAK 0 0
      BYPASS 0 0 0
      <VST "VST: ReaComp (Cockos)" reacomp.vst.so 0 "" 1919247213<5653547265636D726561636F6D700000> ""
        bWNlcu9e7f4EAAAAAQAAAAAAAAACAAAAAAAAAAQAAAAAAAAACAAAAAAAAAACAAAAAQAAAAAAAAACAAAAAAAAAFQAAAAAAAAAAAAQAA==
        776t3g3wrd5FoYg9/AWpPKWbxDsK16M8AAAAAAAAAAAAAIA/AAAAAAAAAAAAAAAAnNEHMwAAgD8AAAAAzMxMPQAAAAAAAAAAAAAAAAAAgD7YiZ09
        AAAQAAAA
      >
      FLOATPOS 0 0 0 0
      FXID {07B1903E-9CE5-0C1F-6AB6-7F97F26D0F64}
      WAK 0 0
      BYPASS 0 0 0
      <VST "VST: ReaDelay (Cockos)" readelay.vst.so 0 "" 1919247468<5653547265646C72656164656C617900> ""
        bGRlcu5e7f4CAAAAAQAAAAAAAAACAAAAAAAAAAIAAAABAAAAAAAAAAIAAAAAAAAA/AAAAAEAAAAAAAAA
        AAAAAAAAAAAFAAAALAAAAAIAAAAEAAAAAACAPwAAgD8AAAAAAACAPwAAAAAAAIA7vTeGNQAAgD8AAAAAAACAPwAAgD8AAIA/AAAAAAAAAAAAAIA/AAAAAAAAADwAAAAA
        AACAPwAAAAAAAIA/AACAP+87NT8AAIA/AAAAAAAAgD8AAAAAAABAPL03hjUAAIA/AAAAAAAAgD8AAIA/zk0AP6abhD4AAAAAAACAPwAAAAAAAIA8vTeGNQAAgD8AAAAA
        AACAPwAAgD8aqrU+pHA9PwAAAAAAAIA/AAAAAAAAoDy9N4Y1AACAPwAAAAAAAIA/AACAP/npAD4AAAA/
        AHN0b2NrIC0gYmFzaWMgNSB0YXAgcGluZyBwb25nAAAAAAA=
      >
      PRESETNAME "stock - basic 5 tap ping pong"
      FLOATPOS 0 0 0 0
      FXID {955E5AB6-979F-A604-BC83-CF36AE8C3304}
      WAK 0 0
      BYPASS 0 0 0
      <VST "VST: ReaVerb (Cockos)" reaverb.vst.so 0 "" 1919252066<56535472657662726561766572620000> ""
        YnZlcu5e7f4CAAAAAQAAAAAAAAACAAAAAAAAAAIAAAABAAAAAAAAAAIAAAAAAAAAcAAAAAEAAAAAAAAA
        AAAAwcybgD4AAIA/AAAAAAAAgD8AAIA/AAAAPwAAgD8AAAAAVkVSQkdFTgAYAAAAAAAAAJHgV0QdrLRA3rK7QsHIjEIAAIC/RUNIT0dFTgAcAAAAy/i2QLUjdUJdzdM/
        osdfP5lRrzyRzYxAnMQAPw==
        AHN3ZWV0dmVyYm8AAAAAAA==
      >
      PRESETNAME sweetverbo
      FLOATPOS 0 0 0 0
      FXID {6F1DAD96-9E41-9B33-7B99-E6CF36AE7636}
      WAK 0 0
    >
    <ITEM
      POSITION 0
      SNAPOFFS 0
      LENGTH 8
      LOOP 1
      ALLTAKES 0
      FADEIN 1 0 0 1 0 0
      FADEOUT 1 0 0 1 0 0
      MUTE 0
      SEL 1
      IGUID {953EC4D0-2539-FC7E-A40F-D62459EE2122}
      IID 10
      NAME "01-Recorded MIDI"
      VOLPAN 1 0 1 -1
      SOFFS 0 0
      PLAYRATE 1 1 0 -1 0 0.0021
      CHANMODE 0
      GUID {040E2D40-A00C-741D-07A3-D893069162C5}
      RECPASS 1
      <SOURCE MIDI
        HASDATA 1 960 QN
        CCINTERP 32
        POOLEDEVTS {3B53B280-D59D-3EB3-31D4-9B782DFA9B10}
        E 0 90 3c 48
        E 0 90 40 48
        E 0 90 43 48
        E 1920 80 3c 00
        E 0 80 40 00
        E 0 80 43 00
        E 0 90 3c 48
        E 0 90 40 48
        E 0 90 43 48
        E 260 80 3c 00
        E 0 80 40 00
        E 0 80 43 00
        E 440 90 3c 48
        E 0 90 40 48
        E 0 90 43 48
        E 260 80 3c 00
        E 0 80 40 00
        E 0 80 43 00
        e 514 90 3c 48
        e 0 90 40 48
        e 0 90 43 48
        e 260 80 3c 00
        e 0 80 40 00
        e 0 80 43 00
        E 186 90 43 48
        E 0 90 47 48
        E 20 90 40 48
        E 1900 80 43 00
        E 0 80 47 00
        E 0 80 40 00
        E 0 90 43 48
        E 0 90 47 48
        E 20 90 40 48
        E 240 80 43 00
        E 0 80 47 00
        E 0 80 40 00
        E 440 90 43 48
        E 0 90 47 48
        E 20 90 40 48
        E 240 80 43 00
        E 0 80 47 00
        E 0 80 40 00
        e 514 90 43 48
        e 0 90 47 48
        e 20 90 40 48
        e 240 80 43 00
        e 0 80 47 00
        e 0 80 40 00
        E 186 90 41 48
        E 0 90 45 48
        E 0 90 48 48
        E 1920 80 41 00
        E 0 80 45 00
        E 0 80 48 00
        E 0 90 41 48
        E 0 90 45 48
        E 0 90 48 48
        E 260 80 41 00
        E 0 80 45 00
        E 0 80 48 00
        E 440 90 41 48
        E 0 90 45 48
        E 0 90 48 48
        E 260 80 41 00
        E 0 80 45 00
        E 0 80 48 00
        e 514 90 41 48
        e 0 90 45 48
        e 0 90 48 48
        e 260 80 41 00
        e 0 80 45 00
        e 0 80 48 00
        E 162 90 3e 48
        E 24 90 41 48
        E 0 90 45 48
        E 1896 90 3e 48
        E 24 80 3e 00
        E 0 80 41 00
        E 0 80 45 00
        E 0 90 41 48
        E 0 90 45 48
        E 260 80 3e 00
        E 0 80 41 00
        E 0 80 45 00
        E 416 90 3e 48
        E 24 90 41 48
        E 0 90 45 48
        E 260 80 3e 00
        E 0 80 41 00
        E 0 80 45 00
        e 490 90 3e 48
        e 24 90 41 48
        e 0 90 45 48
        e 260 80 3e 00
        e 0 80 41 00
        e 0 80 45 00
        E 186 b0 7b 00
        CHASE_CC_TAKEOFFS 1
        GUID {7B9D708B-43E1-C8D4-C4B3-87E2A6C27801}
        IGNTEMPO 0 120 4 4
        SRCCOLOR 17
        VELLANE -1 100 0
        CFGEDITVIEW 0 0.045808 45 12 0 -1 0 0 0 0.5
        KEYSNAP 0
        TRACKSEL 0
        EVTFILTER 0 -1 -1 -1 -1 0 0 0 0 -1 -1 -1 -1 0 -1 0 -1 -1
        CFGEDIT 1 1 0 1 0 0 1 1 1 1 1 1 58 171 1253 866 0 0 0 0 0.25 0 0 0 0 0.5 0 0 1 64
      >
    >
    <ITEM
      POSITION 8
      SNAPOFFS 0
      LENGTH 8
      LOOP 1
      ALLTAKES 0
      FADEIN 1 0 0 1 0 0
      FADEOUT 1 0 0 1 0 0
      MUTE 0
      SEL 1
      IGUID {A3DEA0B3-3AAC-E3A5-BED4-D6FCD657ADA7}
      IID 11
      NAME "01-Recorded MIDI"
      VOLPAN 1 0 1 -1
      SOFFS 0 0
      PLAYRATE 1 1 0 -1 0 0.0021
      CHANMODE 0
      GUID {5C84ECDD-081F-19B6-49CE-4A310CBEDA13}
      RECPASS 1
      <SOURCE MIDI
        HASDATA 1 960 QN
        CCINTERP 32
        POOLEDEVTS {6205B31D-37D9-C3E1-75F0-95C889074D4C}
        E 0 90 3c 48
        E 0 90 40 48
        E 0 90 43 48
        E 1920 80 3c 00
        E 0 80 40 00
        E 0 80 43 00
        E 0 90 3c 48
        E 0 90 40 48
        E 0 90 43 48
        E 260 80 3c 00
        E 0 80 40 00
        E 0 80 43 00
        E 440 90 3c 48
        E 0 90 40 48
        E 0 90 43 48
        E 260 80 3c 00
        E 0 80 40 00
        E 0 80 43 00
        e 514 90 3c 48
        e 0 90 40 48
        e 0 90 43 48
        e 260 80 3c 00
        e 0 80 40 00
        e 0 80 43 00
        E 186 90 43 48
        E 0 90 47 48
        E 20 90 40 48
        E 1900 80 43 00
        E 0 80 47 00
        E 0 80 40 00
        E 0 90 43 48
        E 0 90 47 48
        E 20 90 40 48
        E 240 80 43 00
        E 0 80 47 00
        E 0 80 40 00
        E 440 90 43 48
        E 0 90 47 48
        E 20 90 40 48
        E 240 80 43 00
        E 0 80 47 00
        E 0 80 40 00
        e 514 90 43 48
        e 0 90 47 48
        e 20 90 40 48
        e 240 80 43 00
        e 0 80 47 00
        e 0 80 40 00
        E 186 90 41 48
        E 0 90 45 48
        E 0 90 48 48
        E 1920 80 41 00
        E 0 80 45 00
        E 0 80 48 00
        E 0 90 41 48
        E 0 90 45 48
        E 0 90 48 48
        E 260 80 41 00
        E 0 80 45 00
        E 0 80 48 00
        E 440 90 41 48
        E 0 90 45 48
        E 0 90 48 48
        E 260 80 41 00
        E 0 80 45 00
        E 0 80 48 00
        e 514 90 41 48
        e 0 90 45 48
        e 0 90 48 48
        e 260 80 41 00
        e 0 80 45 00
        e 0 80 48 00
        E 162 90 3e 48
        E 24 90 41 48
        E 0 90 45 48
        E 1896 90 3e 48
        E 24 80 3e 00
        E 0 80 41 00
        E 0 80 45 00
        E 0 90 41 48
        E 0 90 45 48
        E 260 80 3e 00
        E 0 80 41 00
        E 0 80 45 00
        E 416 90 3e 48
        E 24 90 41 48
        E 0 90 45 48
        E 260 80 3e 00
        E 0 80 41 00
        E 0 80 45 00
        e 490 90 3e 48
        e 24 90 41 48
        e 0 90 45 48
        e 260 80 3e 00
        e 0 80 41 00
        e 0 80 45 00
        E 186 b0 7b 00
        CHASE_CC_TAKEOFFS 1
        GUID {3131B4E2-B370-E352-A9C5-C8CA31551A86}
        IGNTEMPO 0 120 4 4
        SRCCOLOR 18
        VELLANE -1 100 0
        CFGEDITVIEW 0 0.045808 45 12 0 -1 0 0 0 0.5
        KEYSNAP 0
        TRACKSEL 0
        EVTFILTER 0 -1 -1 -1 -1 0 0 0 0 -1 -1 -1 -1 0 -1 0 -1 -1
        CFGEDIT 1 1 0 1 0 0 1 1 1 1 1 1 58 171 1253 866 0 0 0 0 0.25 0 0 0 0 0.5 0 0 1 64
      >
    >
    <ITEM
      POSITION 16
      SNAPOFFS 0
      LENGTH 8
      LOOP 1
      ALLTAKES 0
      FADEIN 1 0 0 1 0 0
      FADEOUT 1 0 0 1 0 0
      MUTE 0
      SEL 1
      IGUID {B85B47D9-7DCC-CB37-A6B9-5D29129F116C}
      IID 12
      NAME "01-Recorded MIDI"
      VOLPAN 1 0 1 -1
      SOFFS 0 0
      PLAYRATE 1 1 0 -1 0 0.0021
      CHANMODE 0
      GUID {7031E6EA-94CE-1E04-A652-3D1E28A9ECB3}
      RECPASS 1
      <SOURCE MIDI
        HASDATA 1 960 QN
        CCINTERP 32
        POOLEDEVTS {8DE661A5-6C77-BF7E-707D-A3A26F09D964}
        E 0 90 3c 48
        E 0 90 40 48
        E 0 90 43 48
        E 1920 80 3c 00
        E 0 80 40 00
        E 0 80 43 00
        E 0 90 3c 48
        E 0 90 40 48
        E 0 90 43 48
        E 260 80 3c 00
        E 0 80 40 00
        E 0 80 43 00
        E 440 90 3c 48
        E 0 90 40 48
        E 0 90 43 48
        E 260 80 3c 00
        E 0 80 40 00
        E 0 80 43 00
        e 514 90 3c 48
        e 0 90 40 48
        e 0 90 43 48
        e 260 80 3c 00
        e 0 80 40 00
        e 0 80 43 00
        E 186 90 43 48
        E 0 90 47 48
        E 20 90 40 48
        E 1900 80 43 00
        E 0 80 47 00
        E 0 80 40 00
        E 0 90 43 48
        E 0 90 47 48
        E 20 90 40 48
        E 240 80 43 00
        E 0 80 47 00
        E 0 80 40 00
        E 440 90 43 48
        E 0 90 47 48
        E 20 90 40 48
        E 240 80 43 00
        E 0 80 47 00
        E 0 80 40 00
        e 514 90 43 48
        e 0 90 47 48
        e 20 90 40 48
        e 240 80 43 00
        e 0 80 47 00
        e 0 80 40 00
        E 186 90 41 48
        E 0 90 45 48
        E 0 90 48 48
        E 1920 80 41 00
        E 0 80 45 00
        E 0 80 48 00
        E 0 90 41 48
        E 0 90 45 48
        E 0 90 48 48
        E 260 80 41 00
        E 0 80 45 00
        E 0 80 48 00
        E 440 90 41 48
        E 0 90 45 48
        E 0 90 48 48
        E 260 80 41 00
        E 0 80 45 00
        E 0 80 48 00
        e 514 90 41 48
        e 0 90 45 48
        e 0 90 48 48
        e 260 80 41 00
        e 0 80 45 00
        e 0 80 48 00
        E 162 90 3e 48
        E 24 90 41 48
        E 0 90 45 48
        E 1896 90 3e 48
        E 24 80 3e 00
        E 0 80 41 00
        E 0 80 45 00
        E 0 90 41 48
        E 0 90 45 48
        E 260 80 3e 00
        E 0 80 41 00
        E 0 80 45 00
        E 416 90 3e 48
        E 24 90 41 48
        E 0 90 45 48
        E 260 80 3e 00
        E 0 80 41 00
        E 0 80 45 00
        e 490 90 3e 48
        e 24 90 41 48
        e 0 90 45 48
        e 260 80 3e 00
        e 0 80 41 00
        e 0 80 45 00
        E 186 b0 7b 00
        CHASE_CC_TAKEOFFS 1
        GUID {48C567A2-895C-FB9B-FDBA-0ADB7004ABF3}
        IGNTEMPO 0 120 4 4
        SRCCOLOR 19
        VELLANE -1 100 0
        CFGEDITVIEW 0 0.045808 45 12 0 -1 0 0 0 0.5
        KEYSNAP 0
        TRACKSEL 0
        EVTFILTER 0 -1 -1 -1 -1 0 0 0 0 -1 -1 -1 -1 0 -1 0 -1 -1
        CFGEDIT 1 1 0 1 0 0 1 1 1 1 1 1 58 171 1253 866 0 0 0 0 0.25 0 0 0 0 0.5 0 0 1 64
      >
    >
    <ITEM
      POSITION 24
      SNAPOFFS 0
      LENGTH 8
      LOOP 1
      ALLTAKES 0
      FADEIN 1 0 0 1 0 0
      FADEOUT 1 0 0 1 0 0
      MUTE 0
      SEL 1
      IGUID {6B54B6FC-CFAF-8D05-62C5-D2CD52A65FE3}
      IID 13
      NAME "01-Recorded MIDI"
      VOLPAN 1 0 1 -1
      SOFFS 0 0
      PLAYRATE 1 1 0 -1 0 0.0021
      CHANMODE 0
      GUID {732C3F20-2B57-6919-0170-D6F97285D83B}
      RECPASS 1
      <SOURCE MIDI
        HASDATA 1 960 QN
        CCINTERP 32
        POOLEDEVTS {EF8D00DD-262A-52BC-074F-359C8D0DEBAB}
        E 0 90 3c 48
        E 0 90 40 48
        E 0 90 43 48
        E 1920 80 3c 00
        E 0 80 40 00
        E 0 80 43 00
        E 0 90 3c 48
        E 0 90 40 48
        E 0 90 43 48
        E 260 80 3c 00
        E 0 80 40 00
        E 0 80 43 00
        E 440 90 3c 48
        E 0 90 40 48
        E 0 90 43 48
        E 260 80 3c 00
        E 0 80 40 00
        E 0 80 43 00
        e 514 90 3c 48
        e 0 90 40 48
        e 0 90 43 48
        e 260 80 3c 00
        e 0 80 40 00
        e 0 80 43 00
        E 186 90 43 48
        E 0 90 47 48
        E 20 90 40 48
        E 1900 80 43 00
        E 0 80 47 00
        E 0 80 40 00
        E 0 90 43 48
        E 0 90 47 48
        E 20 90 40 48
        E 240 80 43 00
        E 0 80 47 00
        E 0 80 40 00
        E 440 90 43 48
        E 0 90 47 48
        E 20 90 40 48
        E 240 80 43 00
        E 0 80 47 00
        E 0 80 40 00
        e 514 90 43 48
        e 0 90 47 48
        e 20 90 40 48
        e 240 80 43 00
        e 0 80 47 00
        e 0 80 40 00
        E 186 90 41 48
        E 0 90 45 48
        E 0 90 48 48
        E 1920 80 41 00
        E 0 80 45 00
        E 0 80 48 00
        E 0 90 41 48
        E 0 90 45 48
        E 0 90 48 48
        E 260 80 41 00
        E 0 80 45 00
        E 0 80 48 00
        E 440 90 41 48
        E 0 90 45 48
        E 0 90 48 48
        E 260 80 41 00
        E 0 80 45 00
        E 0 80 48 00
        e 514 90 41 48
        e 0 90 45 48
        e 0 90 48 48
        e 260 80 41 00
        e 0 80 45 00
        e 0 80 48 00
        E 162 90 3e 48
        E 24 90 41 48
        E 0 90 45 48
        E 1896 90 3e 48
        E 24 80 3e 00
        E 0 80 41 00
        E 0 80 45 00
        E 0 90 41 48
        E 0 90 45 48
        E 260 80 3e 00
        E 0 80 41 00
        E 0 80 45 00
        E 416 90 3e 48
        E 24 90 41 48
        E 0 90 45 48
        E 260 80 3e 00
        E 0 80 41 00
        E 0 80 45 00
        e 490 90 3e 48
        e 24 90 41 48
        e 0 90 45 48
        e 260 80 3e 00
        e 0 80 41 00
        e 0 80 45 00
        E 186 b0 7b 00
        CHASE_CC_TAKEOFFS 1
        GUID {1DE38800-E2A1-41B5-9C8C-3291891093B1}
        IGNTEMPO 0 120 4 4
        SRCCOLOR 20
        VELLANE -1 100 0
        CFGEDITVIEW 0 0.045808 45 12 0 -1 0 0 0 0.5
        KEYSNAP 0
        TRACKSEL 0
        EVTFILTER 0 -1 -1 -1 -1 0 0 0 0 -1 -1 -1 -1 0 -1 0 -1 -1
        CFGEDIT 1 1 0 1 0 0 1 1 1 1 1 1 58 171 1253 866 0 0 0 0 0.25 0 0 0 0 0.5 0 0 1 64
      >
    >
    <ITEM
      POSITION 32
      SNAPOFFS 0
      LENGTH 8
      LOOP 1
      ALLTAKES 0
      FADEIN 1 0 0 1 0 0
      FADEOUT 1 0 0 1 0 0
      MUTE 0
      SEL 1
      IGUID {AD8DE61B-90D6-5CF4-58E9-CD661EB98807}
      IID 14
      NAME "01-Recorded MIDI"
      VOLPAN 1 0 1 -1
      SOFFS 0 0
      PLAYRATE 1 1 0 -1 0 0.0021
      CHANMODE 0
      GUID {A681D2F2-48A9-1D47-8E6E-ECCC36CC01CB}
      RECPASS 1
      <SOURCE MIDI
        HASDATA 1 960 QN
        CCINTERP 32
        POOLEDEVTS {4396ACD3-1FCA-0BF7-9009-9E32137D5F49}
        E 0 90 3c 48
        E 0 90 40 48
        E 0 90 43 48
        E 1920 80 3c 00
        E 0 80 40 00
        E 0 80 43 00
        E 0 90 3c 48
        E 0 90 40 48
        E 0 90 43 48
        E 260 80 3c 00
        E 0 80 40 00
        E 0 80 43 00
        E 440 90 3c 48
        E 0 90 40 48
        E 0 90 43 48
        E 260 80 3c 00
        E 0 80 40 00
        E 0 80 43 00
        e 514 90 3c 48
        e 0 90 40 48
        e 0 90 43 48
        e 260 80 3c 00
        e 0 80 40 00
        e 0 80 43 00
        E 186 90 43 48
        E 0 90 47 48
        E 20 90 40 48
        E 1900 80 43 00
        E 0 80 47 00
        E 0 80 40 00
        E 0 90 43 48
        E 0 90 47 48
        E 20 90 40 48
        E 240 80 43 00
        E 0 80 47 00
        E 0 80 40 00
        E 440 90 43 48
        E 0 90 47 48
        E 20 90 40 48
        E 240 80 43 00
        E 0 80 47 00
        E 0 80 40 00
        e 514 90 43 48
        e 0 90 47 48
        e 20 90 40 48
        e 240 80 43 00
        e 0 80 47 00
        e 0 80 40 00
        E 186 90 41 48
        E 0 90 45 48
        E 0 90 48 48
        E 1920 80 41 00
        E 0 80 45 00
        E 0 80 48 00
        E 0 90 41 48
        E 0 90 45 48
        E 0 90 48 48
        E 260 80 41 00
        E 0 80 45 00
        E 0 80 48 00
        E 440 90 41 48
        E 0 90 45 48
        E 0 90 48 48
        E 260 80 41 00
        E 0 80 45 00
        E 0 80 48 00
        e 514 90 41 48
        e 0 90 45 48
        e 0 90 48 48
        e 260 80 41 00
        e 0 80 45 00
        e 0 80 48 00
        E 162 90 3e 48
        E 24 90 41 48
        E 0 90 45 48
        E 1896 90 3e 48
        E 24 80 3e 00
        E 0 80 41 00
        E 0 80 45 00
        E 0 90 41 48
        E 0 90 45 48
        E 260 80 3e 00
        E 0 80 41 00
        E 0 80 45 00
        E 416 90 3e 48
        E 24 90 41 48
        E 0 90 45 48
        E 260 80 3e 00
        E 0 80 41 00
        E 0 80 45 00
        e 490 90 3e 48
        e 24 90 41 48
        e 0 90 45 48
        e 260 80 3e 00
        e 0 80 41 00
        e 0 80 45 00
        E 186 b0 7b 00
        CHASE_CC_TAKEOFFS 1
        GUID {0C3271F4-E233-9088-9B25-A722FAE7C579}
        IGNTEMPO 0 120 4 4
        SRCCOLOR 21
        VELLANE -1 100 0
        CFGEDITVIEW 0 0.045808 45 12 0 -1 0 0 0 0.5
        KEYSNAP 0
        TRACKSEL 0
        EVTFILTER 0 -1 -1 -1 -1 0 0 0 0 -1 -1 -1 -1 0 -1 0 -1 -1
        CFGEDIT 1 1 0 1 0 0 1 1 1 1 1 1 58 171 1253 866 0 0 0 0 0.25 0 0 0 0 0.5 0 0 1 64
      >
    >
    <ITEM
      POSITION 40
      SNAPOFFS 0
      LENGTH 8
      LOOP 1
      ALLTAKES 0
      FADEIN 1 0 0 1 0 0
      FADEOUT 1 0 0 1 0 0
      MUTE 0
      SEL 1
      IGUID {998BE36B-06D2-9579-36CF-21B3F52C6A28}
      IID 15
      NAME "01-Recorded MIDI"
      VOLPAN 1 0 1 -1
      SOFFS 0 0
      PLAYRATE 1 1 0 -1 0 0.0021
      CHANMODE 0
      GUID {61287F31-567D-9668-FE4E-1C1285947CED}
      RECPASS 1
      <SOURCE MIDI
        HASDATA 1 960 QN
        CCINTERP 32
        POOLEDEVTS {2F83FE93-98D8-2048-43B2-7F651C4AC6F5}
        E 0 90 3c 48
        E 0 90 40 48
        E 0 90 43 48
        E 1920 80 3c 00
        E 0 80 40 00
        E 0 80 43 00
        E 0 90 3c 48
        E 0 90 40 48
        E 0 90 43 48
        E 260 80 3c 00
        E 0 80 40 00
        E 0 80 43 00
        E 440 90 3c 48
        E 0 90 40 48
        E 0 90 43 48
        E 260 80 3c 00
        E 0 80 40 00
        E 0 80 43 00
        e 514 90 3c 48
        e 0 90 40 48
        e 0 90 43 48
        e 260 80 3c 00
        e 0 80 40 00
        e 0 80 43 00
        E 186 90 43 48
        E 0 90 47 48
        E 20 90 40 48
        E 1900 80 43 00
        E 0 80 47 00
        E 0 80 40 00
        E 0 90 43 48
        E 0 90 47 48
        E 20 90 40 48
        E 240 80 43 00
        E 0 80 47 00
        E 0 80 40 00
        E 440 90 43 48
        E 0 90 47 48
        E 20 90 40 48
        E 240 80 43 00
        E 0 80 47 00
        E 0 80 40 00
        e 514 90 43 48
        e 0 90 47 48
        e 20 90 40 48
        e 240 80 43 00
        e 0 80 47 00
        e 0 80 40 00
        E 186 90 41 48
        E 0 90 45 48
        E 0 90 48 48
        E 1920 80 41 00
        E 0 80 45 00
        E 0 80 48 00
        E 0 90 41 48
        E 0 90 45 48
        E 0 90 48 48
        E 260 80 41 00
        E 0 80 45 00
        E 0 80 48 00
        E 440 90 41 48
        E 0 90 45 48
        E 0 90 48 48
        E 260 80 41 00
        E 0 80 45 00
        E 0 80 48 00
        e 514 90 41 48
        e 0 90 45 48
        e 0 90 48 48
        e 260 80 41 00
        e 0 80 45 00
        e 0 80 48 00
        E 162 90 3e 48
        E 24 90 41 48
        E 0 90 45 48
        E 1896 90 3e 48
        E 24 80 3e 00
        E 0 80 41 00
        E 0 80 45 00
        E 0 90 41 48
        E 0 90 45 48
        E 260 80 3e 00
        E 0 80 41 00
        E 0 80 45 00
        E 416 90 3e 48
        E 24 90 41 48
        E 0 90 45 48
        E 260 80 3e 00
        E 0 80 41 00
        E 0 80 45 00
        e 490 90 3e 48
        e 24 90 41 48
        e 0 90 45 48
        e 260 80 3e 00
        e 0 80 41 00
        e 0 80 45 00
        E 186 b0 7b 00
        CHASE_CC_TAKEOFFS 1
        GUID {040E7AF8-3572-5D91-3C86-797AEE7444D4}
        IGNTEMPO 0 120 4 4
        SRCCOLOR 22
        VELLANE -1 100 0
        CFGEDITVIEW 0 0.045808 45 12 0 -1 0 0 0 0.5
        KEYSNAP 0
        TRACKSEL 0
        EVTFILTER 0 -1 -1 -1 -1 0 0 0 0 -1 -1 -1 -1 0 -1 0 -1 -1
        CFGEDIT 1 1 0 1 0 0 1 1 1 1 1 1 58 171 1253 866 0 0 0 0 0.25 0 0 0 0 0.5 0 0 1 64
      >
    >
    <ITEM
      POSITION 48
      SNAPOFFS 0
      LENGTH 8
      LOOP 1
      ALLTAKES 0
      FADEIN 1 0 0 1 0 0
      FADEOUT 1 0 0 1 0 0
      MUTE 0
      SEL 1
      IGUID {70D3ABB9-0ABA-859F-0948-EC31AAF67894}
      IID 16
      NAME "01-Recorded MIDI"
      VOLPAN 1 0 1 -1
      SOFFS 0 0
      PLAYRATE 1 1 0 -1 0 0.0021
      CHANMODE 0
      GUID {6D873726-714D-95B1-E91E-281F595BCC55}
      RECPASS 1
      <SOURCE MIDI
        HASDATA 1 960 QN
        CCINTERP 32
        POOLEDEVTS {3BA897D9-6F34-0149-8E6D-F63B39495CF6}
        E 0 90 3c 48
        E 0 90 40 48
        E 0 90 43 48
        E 1920 80 3c 00
        E 0 80 40 00
        E 0 80 43 00
        E 0 90 3c 48
        E 0 90 40 48
        E 0 90 43 48
        E 260 80 3c 00
        E 0 80 40 00
        E 0 80 43 00
        E 440 90 3c 48
        E 0 90 40 48
        E 0 90 43 48
        E 260 80 3c 00
        E 0 80 40 00
        E 0 80 43 00
        e 514 90 3c 48
        e 0 90 40 48
        e 0 90 43 48
        e 260 80 3c 00
        e 0 80 40 00
        e 0 80 43 00
        E 186 90 43 48
        E 0 90 47 48
        E 20 90 40 48
        E 1900 80 43 00
        E 0 80 47 00
        E 0 80 40 00
        E 0 90 43 48
        E 0 90 47 48
        E 20 90 40 48
        E 240 80 43 00
        E 0 80 47 00
        E 0 80 40 00
        E 440 90 43 48
        E 0 90 47 48
        E 20 90 40 48
        E 240 80 43 00
        E 0 80 47 00
        E 0 80 40 00
        e 514 90 43 48
        e 0 90 47 48
        e 20 90 40 48
        e 240 80 43 00
        e 0 80 47 00
        e 0 80 40 00
        E 186 90 41 48
        E 0 90 45 48
        E 0 90 48 48
        E 1920 80 41 00
        E 0 80 45 00
        E 0 80 48 00
        E 0 90 41 48
        E 0 90 45 48
        E 0 90 48 48
        E 260 80 41 00
        E 0 80 45 00
        E 0 80 48 00
        E 440 90 41 48
        E 0 90 45 48
        E 0 90 48 48
        E 260 80 41 00
        E 0 80 45 00
        E 0 80 48 00
        e 514 90 41 48
        e 0 90 45 48
        e 0 90 48 48
        e 260 80 41 00
        e 0 80 45 00
        e 0 80 48 00
        E 162 90 3e 48
        E 24 90 41 48
        E 0 90 45 48
        E 1896 90 3e 48
        E 24 80 3e 00
        E 0 80 41 00
        E 0 80 45 00
        E 0 90 41 48
        E 0 90 45 48
        E 260 80 3e 00
        E 0 80 41 00
        E 0 80 45 00
        E 416 90 3e 48
        E 24 90 41 48
        E 0 90 45 48
        E 260 80 3e 00
        E 0 80 41 00
        E 0 80 45 00
        e 490 90 3e 48
        e 24 90 41 48
        e 0 90 45 48
        e 260 80 3e 00
        e 0 80 41 00
        e 0 80 45 00
        E 186 b0 7b 00
        CHASE_CC_TAKEOFFS 1
        GUID {2338968B-6CF9-9F40-300F-DEB89D3392EA}
        IGNTEMPO 0 120 4 4
        SRCCOLOR 23
        VELLANE -1 100 0
        CFGEDITVIEW 0 0.045808 45 12 0 -1 0 0 0 0.5
        KEYSNAP 0
        TRACKSEL 0
        EVTFILTER 0 -1 -1 -1 -1 0 0 0 0 -1 -1 -1 -1 0 -1 0 -1 -1
        CFGEDIT 1 1 0 1 0 0 1 1 1 1 1 1 58 171 1253 866 0 0 0 0 0.25 0 0 0 0 0.5 0 0 1 64
      >
    >
    <ITEM
      POSITION 56
      SNAPOFFS 0
      LENGTH 8
      LOOP 1
      ALLTAKES 0
      FADEIN 1 0 0 1 0 0
      FADEOUT 1 0 0 1 0 0
      MUTE 0
      SEL 1
      IGUID {8CF3CF36-483D-D6E6-347F-F216EA30E610}
      IID 17
      NAME "01-Recorded MIDI"
      VOLPAN 1 0 1 -1
      SOFFS 0 0
      PLAYRATE 1 1 0 -1 0 0.0021
      CHANMODE 0
      GUID {A479710C-966D-7CCE-EACB-864B9E1D543F}
      RECPASS 1
      <SOURCE MIDI
        HASDATA 1 960 QN
        CCINTERP 32
        POOLEDEVTS {8DCDAD50-8C9C-5085-A26D-6354D82910F2}
        E 0 90 3c 48
        E 0 90 40 48
        E 0 90 43 48
        E 1920 80 3c 00
        E 0 80 40 00
        E 0 80 43 00
        E 0 90 3c 48
        E 0 90 40 48
        E 0 90 43 48
        E 260 80 3c 00
        E 0 80 40 00
        E 0 80 43 00
        E 440 90 3c 48
        E 0 90 40 48
        E 0 90 43 48
        E 260 80 3c 00
        E 0 80 40 00
        E 0 80 43 00
        e 514 90 3c 48
        e 0 90 40 48
        e 0 90 43 48
        e 260 80 3c 00
        e 0 80 40 00
        e 0 80 43 00
        E 186 90 43 48
        E 0 90 47 48
        E 20 90 40 48
        E 1900 80 43 00
        E 0 80 47 00
        E 0 80 40 00
        E 0 90 43 48
        E 0 90 47 48
        E 20 90 40 48
        E 240 80 43 00
        E 0 80 47 00
        E 0 80 40 00
        E 440 90 43 48
        E 0 90 47 48
        E 20 90 40 48
        E 240 80 43 00
        E 0 80 47 00
        E 0 80 40 00
        e 514 90 43 48
        e 0 90 47 48
        e 20 90 40 48
        e 240 80 43 00
        e 0 80 47 00
        e 0 80 40 00
        E 186 90 41 48
        E 0 90 45 48
        E 0 90 48 48
        E 1920 80 41 00
        E 0 80 45 00
        E 0 80 48 00
        E 0 90 41 48
        E 0 90 45 48
        E 0 90 48 48
        E 260 80 41 00
        E 0 80 45 00
        E 0 80 48 00
        E 440 90 41 48
        E 0 90 45 48
        E 0 90 48 48
        E 260 80 41 00
        E 0 80 45 00
        E 0 80 48 00
        e 514 90 41 48
        e 0 90 45 48
        e 0 90 48 48
        e 260 80 41 00
        e 0 80 45 00
        e 0 80 48 00
        E 162 90 3e 48
        E 24 90 41 48
        E 0 90 45 48
        E 1896 90 3e 48
        E 24 80 3e 00
        E 0 80 41 00
        E 0 80 45 00
        E 0 90 41 48
        E 0 90 45 48
        E 260 80 3e 00
        E 0 80 41 00
        E 0 80 45 00
        E 416 90 3e 48
        E 24 90 41 48
        E 0 90 45 48
        E 260 80 3e 00
        E 0 80 41 00
        E 0 80 45 00
        e 490 90 3e 48
        e 24 90 41 48
        e 0 90 45 48
        e 260 80 3e 00
        e 0 80 41 00
        e 0 80 45 00
        E 186 b0 7b 00
        CHASE_CC_TAKEOFFS 1
        GUID {A64857E2-94F8-0990-20DF-4C1E9B5E6251}
        IGNTEMPO 0 120 4 4
        SRCCOLOR 24
        VELLANE -1 100 0
        CFGEDITVIEW 0 0.045808 45 12 0 -1 0 0 0 0.5
        KEYSNAP 0
        TRACKSEL 0
        EVTFILTER 0 -1 -1 -1 -1 0 0 0 0 -1 -1 -1 -1 0 -1 0 -1 -1
        CFGEDIT 1 1 0 1 0 0 1 1 1 1 1 1 58 171 1253 866 0 0 0 0 0.25 0 0 0 0 0.5 0 0 1 64
      >
    >
    <ITEM
      POSITION 64
      SNAPOFFS 0
      LENGTH 8
      LOOP 1
      ALLTAKES 0
      FADEIN 1 0 0 1 0 0
      FADEOUT 1 0 0 1 0 0
      MUTE 0
      SEL 1
      IGUID {D9BD0F52-C334-F50E-30EB-208199DEE652}
      IID 18
      NAME "01-Recorded MIDI"
      VOLPAN 1 0 1 -1
      SOFFS 0 0
      PLAYRATE 1 1 0 -1 0 0.0021
      CHANMODE 0
      GUID {97A1B4ED-BA30-5500-C92C-E6009070D328}
      RECPASS 1
      <SOURCE MIDI
        HASDATA 1 960 QN
        CCINTERP 32
        POOLEDEVTS {FA5A188A-6862-A170-5EF0-CF68CDAA751D}
        E 0 90 3c 48
        E 0 90 40 48
        E 0 90 43 48
        E 1920 80 3c 00
        E 0 80 40 00
        E 0 80 43 00
        E 0 90 3c 48
        E 0 90 40 48
        E 0 90 43 48
        E 260 80 3c 00
        E 0 80 40 00
        E 0 80 43 00
        E 440 90 3c 48
        E 0 90 40 48
        E 0 90 43 48
        E 260 80 3c 00
        E 0 80 40 00
        E 0 80 43 00
        e 514 90 3c 48
        e 0 90 40 48
        e 0 90 43 48
        e 260 80 3c 00
        e 0 80 40 00
        e 0 80 43 00
        E 186 90 43 48
        E 0 90 47 48
        E 20 90 40 48
        E 1900 80 43 00
        E 0 80 47 00
        E 0 80 40 00
        E 0 90 43 48
        E 0 90 47 48
        E 20 90 40 48
        E 240 80 43 00
        E 0 80 47 00
        E 0 80 40 00
        E 440 90 43 48
        E 0 90 47 48
        E 20 90 40 48
        E 240 80 43 00
        E 0 80 47 00
        E 0 80 40 00
        e 514 90 43 48
        e 0 90 47 48
        e 20 90 40 48
        e 240 80 43 00
        e 0 80 47 00
        e 0 80 40 00
        E 186 90 41 48
        E 0 90 45 48
        E 0 90 48 48
        E 1920 80 41 00
        E 0 80 45 00
        E 0 80 48 00
        E 0 90 41 48
        E 0 90 45 48
        E 0 90 48 48
        E 260 80 41 00
        E 0 80 45 00
        E 0 80 48 00
        E 440 90 41 48
        E 0 90 45 48
        E 0 90 48 48
        E 260 80 41 00
        E 0 80 45 00
        E 0 80 48 00
        e 514 90 41 48
        e 0 90 45 48
        e 0 90 48 48
        e 260 80 41 00
        e 0 80 45 00
        e 0 80 48 00
        E 162 90 3e 48
        E 24 90 41 48
        E 0 90 45 48
        E 1896 90 3e 48
        E 24 80 3e 00
        E 0 80 41 00
        E 0 80 45 00
        E 0 90 41 48
        E 0 90 45 48
        E 260 80 3e 00
        E 0 80 41 00
        E 0 80 45 00
        E 416 90 3e 48
        E 24 90 41 48
        E 0 90 45 48
        E 260 80 3e 00
        E 0 80 41 00
        E 0 80 45 00
        e 490 90 3e 48
        e 24 90 41 48
        e 0 90 45 48
        e 260 80 3e 00
        e 0 80 41 00
        e 0 80 45 00
        E 186 b0 7b 00
        CHASE_CC_TAKEOFFS 1
        GUID {19362806-85F2-5D9E-E1F9-07BE0CF3D16E}
        IGNTEMPO 0 120 4 4
        SRCCOLOR 25
        VELLANE -1 100 0
        CFGEDITVIEW 0 0.045808 45 12 0 -1 0 0 0 0.5
        KEYSNAP 0
        TRACKSEL 0
        EVTFILTER 0 -1 -1 -1 -1 0 0 0 0 -1 -1 -1 -1 0 -1 0 -1 -1
        CFGEDIT 1 1 0 1 0 0 1 1 1 1 1 1 58 171 1253 866 0 0 0 0 0.25 0 0 0 0 0.5 0 0 1 64
      >
    >
    <ITEM
      POSITION 72
      SNAPOFFS 0
      LENGTH 8
      LOOP 1
      ALLTAKES 0
      FADEIN 1 0 0 1 0 0
      FADEOUT 1 0 0 1 0 0
      MUTE 0
      SEL 1
      IGUID {EEEBAD34-25EF-1663-7979-845FEDEA5806}
      IID 19
      NAME "01-Recorded MIDI"
      VOLPAN 1 0 1 -1
      SOFFS 0 0
      PLAYRATE 1 1 0 -1 0 0.0021
      CHANMODE 0
      GUID {08664913-D416-A9FB-67F9-883D595E9813}
      RECPASS 1
      <SOURCE MIDI
        HASDATA 1 960 QN
        CCINTERP 32
        POOLEDEVTS {75889D09-DB3F-0687-6327-344E348192B0}
        E 0 90 3c 48
        E 0 90 40 48
        E 0 90 43 48
        E 1920 80 3c 00
        E 0 80 40 00
        E 0 80 43 00
        E 0 90 3c 48
        E 0 90 40 48
        E 0 90 43 48
        E 260 80 3c 00
        E 0 80 40 00
        E 0 80 43 00
        E 440 90 3c 48
        E 0 90 40 48
        E 0 90 43 48
        E 260 80 3c 00
        E 0 80 40 00
        E 0 80 43 00
        e 514 90 3c 48
        e 0 90 40 48
        e 0 90 43 48
        e 260 80 3c 00
        e 0 80 40 00
        e 0 80 43 00
        E 186 90 43 48
        E 0 90 47 48
        E 20 90 40 48
        E 1900 80 43 00
        E 0 80 47 00
        E 0 80 40 00
        E 0 90 43 48
        E 0 90 47 48
        E 20 90 40 48
        E 240 80 43 00
        E 0 80 47 00
        E 0 80 40 00
        E 440 90 43 48
        E 0 90 47 48
        E 20 90 40 48
        E 240 80 43 00
        E 0 80 47 00
        E 0 80 40 00
        e 514 90 43 48
        e 0 90 47 48
        e 20 90 40 48
        e 240 80 43 00
        e 0 80 47 00
        e 0 80 40 00
        E 186 90 41 48
        E 0 90 45 48
        E 0 90 48 48
        E 1920 80 41 00
        E 0 80 45 00
        E 0 80 48 00
        E 0 90 41 48
        E 0 90 45 48
        E 0 90 48 48
        E 260 80 41 00
        E 0 80 45 00
        E 0 80 48 00
        E 440 90 41 48
        E 0 90 45 48
        E 0 90 48 48
        E 260 80 41 00
        E 0 80 45 00
        E 0 80 48 00
        e 514 90 41 48
        e 0 90 45 48
        e 0 90 48 48
        e 260 80 41 00
        e 0 80 45 00
        e 0 80 48 00
        E 162 90 3e 48
        E 24 90 41 48
        E 0 90 45 48
        E 1896 90 3e 48
        E 24 80 3e 00
        E 0 80 41 00
        E 0 80 45 00
        E 0 90 41 48
        E 0 90 45 48
        E 260 80 3e 00
        E 0 80 41 00
        E 0 80 45 00
        E 416 90 3e 48
        E 24 90 41 48
        E 0 90 45 48
        E 260 80 3e 00
        E 0 80 41 00
        E 0 80 45 00
        e 490 90 3e 48
        e 24 90 41 48
        e 0 90 45 48
        e 260 80 3e 00
        e 0 80 41 00
        e 0 80 45 00
        E 186 b0 7b 00
        CHASE_CC_TAKEOFFS 1
        GUID {6844F8A9-6BE9-023C-4A46-0A676470C99B}
        IGNTEMPO 0 120 4 4
        SRCCOLOR 26
        VELLANE -1 100 0
        CFGEDITVIEW 0 0.045808 45 12 0 -1 0 0 0 0.5
        KEYSNAP 0
        TRACKSEL 0
        EVTFILTER 0 -1 -1 -1 -1 0 0 0 0 -1 -1 -1 -1 0 -1 0 -1 -1
        CFGEDIT 1 1 0 1 0 0 1 1 1 1 1 1 58 171 1253 866 0 0 0 0 0.25 0 0 0 0 0.5 0 0 1 64
      >
    >
    <ITEM
      POSITION 80
      SNAPOFFS 0
      LENGTH 8
      LOOP 1
      ALLTAKES 0
      FADEIN 1 0 0 1 0 0
      FADEOUT 1 0 0 1 0 0
      MUTE 0
      SEL 1
      IGUID {5D37EA82-9E9F-C257-3F8F-8BC773B6DA02}
      IID 20
      NAME "01-Recorded MIDI"
      VOLPAN 1 0 1 -1
      SOFFS 0 0
      PLAYRATE 1 1 0 -1 0 0.0021
      CHANMODE 0
      GUID {F1560421-9585-7929-A734-8B5F902D9F22}
      RECPASS 1
      <SOURCE MIDI
        HASDATA 1 960 QN
        CCINTERP 32
        POOLEDEVTS {251861A0-A62C-2570-32E1-5E103A4AF102}
        E 0 90 3c 48
        E 0 90 40 48
        E 0 90 43 48
        E 1920 80 3c 00
        E 0 80 40 00
        E 0 80 43 00
        E 0 90 3c 48
        E 0 90 40 48
        E 0 90 43 48
        E 260 80 3c 00
        E 0 80 40 00
        E 0 80 43 00
        E 440 90 3c 48
        E 0 90 40 48
        E 0 90 43 48
        E 260 80 3c 00
        E 0 80 40 00
        E 0 80 43 00
        e 514 90 3c 48
        e 0 90 40 48
        e 0 90 43 48
        e 260 80 3c 00
        e 0 80 40 00
        e 0 80 43 00
        E 186 90 43 48
        E 0 90 47 48
        E 20 90 40 48
        E 1900 80 43 00
        E 0 80 47 00
        E 0 80 40 00
        E 0 90 43 48
        E 0 90 47 48
        E 20 90 40 48
        E 240 80 43 00
        E 0 80 47 00
        E 0 80 40 00
        E 440 90 43 48
        E 0 90 47 48
        E 20 90 40 48
        E 240 80 43 00
        E 0 80 47 00
        E 0 80 40 00
        e 514 90 43 48
        e 0 90 47 48
        e 20 90 40 48
        e 240 80 43 00
        e 0 80 47 00
        e 0 80 40 00
        E 186 90 41 48
        E 0 90 45 48
        E 0 90 48 48
        E 1920 80 41 00
        E 0 80 45 00
        E 0 80 48 00
        E 0 90 41 48
        E 0 90 45 48
        E 0 90 48 48
        E 260 80 41 00
        E 0 80 45 00
        E 0 80 48 00
        E 440 90 41 48
        E 0 90 45 48
        E 0 90 48 48
        E 260 80 41 00
        E 0 80 45 00
        E 0 80 48 00
        e 514 90 41 48
        e 0 90 45 48
        e 0 90 48 48
        e 260 80 41 00
        e 0 80 45 00
        e 0 80 48 00
        E 162 90 3e 48
        E 24 90 41 48
        E 0 90 45 48
        E 1896 90 3e 48
        E 24 80 3e 00
        E 0 80 41 00
        E 0 80 45 00
        E 0 90 41 48
        E 0 90 45 48
        E 260 80 3e 00
        E 0 80 41 00
        E 0 80 45 00
        E 416 90 3e 48
        E 24 90 41 48
        E 0 90 45 48
        E 260 80 3e 00
        E 0 80 41 00
        E 0 80 45 00
        e 490 90 3e 48
        e 24 90 41 48
        e 0 90 45 48
        e 260 80 3e 00
        e 0 80 41 00
        e 0 80 45 00
        E 186 b0 7b 00
        CHASE_CC_TAKEOFFS 1
        GUID {E611ADB6-4869-6CCA-8E83-3954D5E743B1}
        IGNTEMPO 0 120 4 4
        SRCCOLOR 27
        VELLANE -1 100 0
        CFGEDITVIEW 0 0.045808 45 12 0 -1 0 0 0 0.5
        KEYSNAP 0
        TRACKSEL 0
        EVTFILTER 0 -1 -1 -1 -1 0 0 0 0 -1 -1 -1 -1 0 -1 0 -1 -1
        CFGEDIT 1 1 0 1 0 0 1 1 1 1 1 1 58 171 1253 866 0 0 0 0 0.25 0 0 0 0 0.5 0 0 1 64
      >
    >
    <ITEM
      POSITION 88
      SNAPOFFS 0
      LENGTH 8
      LOOP 1
      ALLTAKES 0
      FADEIN 1 0 0 1 0 0
      FADEOUT 1 0 0 1 0 0
      MUTE 0
      SEL 1
      IGUID {8F1F03A7-9B79-ECF9-561D-39653E143080}
      IID 21
      NAME "01-Recorded MIDI"
      VOLPAN 1 0 1 -1
      SOFFS 0 0
      PLAYRATE 1 1 0 -1 0 0.0021
      CHANMODE 0
      GUID {2262378A-721E-C3E6-1AC5-86C2D58790DA}
      RECPASS 1
      <SOURCE MIDI
        HASDATA 1 960 QN
        CCINTERP 32
        POOLEDEVTS {22450689-9BAA-2AF6-0F94-8660B733399D}
        E 0 90 3c 48
        E 0 90 40 48
        E 0 90 43 48
        E 1920 80 3c 00
        E 0 80 40 00
        E 0 80 43 00
        E 0 90 3c 48
        E 0 90 40 48
        E 0 90 43 48
        E 260 80 3c 00
        E 0 80 40 00
        E 0 80 43 00
        E 440 90 3c 48
        E 0 90 40 48
        E 0 90 43 48
        E 260 80 3c 00
        E 0 80 40 00
        E 0 80 43 00
        e 514 90 3c 48
        e 0 90 40 48
        e 0 90 43 48
        e 260 80 3c 00
        e 0 80 40 00
        e 0 80 43 00
        E 186 90 43 48
        E 0 90 47 48
        E 20 90 40 48
        E 1900 80 43 00
        E 0 80 47 00
        E 0 80 40 00
        E 0 90 43 48
        E 0 90 47 48
        E 20 90 40 48
        E 240 80 43 00
        E 0 80 47 00
        E 0 80 40 00
        E 440 90 43 48
        E 0 90 47 48
        E 20 90 40 48
        E 240 80 43 00
        E 0 80 47 00
        E 0 80 40 00
        e 514 90 43 48
        e 0 90 47 48
        e 20 90 40 48
        e 240 80 43 00
        e 0 80 47 00
        e 0 80 40 00
        E 186 90 41 48
        E 0 90 45 48
        E 0 90 48 48
        E 1920 80 41 00
        E 0 80 45 00
        E 0 80 48 00
        E 0 90 41 48
        E 0 90 45 48
        E 0 90 48 48
        E 260 80 41 00
        E 0 80 45 00
        E 0 80 48 00
        E 440 90 41 48
        E 0 90 45 48
        E 0 90 48 48
        E 260 80 41 00
        E 0 80 45 00
        E 0 80 48 00
        e 514 90 41 48
        e 0 90 45 48
        e 0 90 48 48
        e 260 80 41 00
        e 0 80 45 00
        e 0 80 48 00
        E 162 90 3e 48
        E 24 90 41 48
        E 0 90 45 48
        E 1896 90 3e 48
        E 24 80 3e 00
        E 0 80 41 00
        E 0 80 45 00
        E 0 90 41 48
        E 0 90 45 48
        E 260 80 3e 00
        E 0 80 41 00
        E 0 80 45 00
        E 416 90 3e 48
        E 24 90 41 48
        E 0 90 45 48
        E 260 80 3e 00
        E 0 80 41 00
        E 0 80 45 00
        e 490 90 3e 48
        e 24 90 41 48
        e 0 90 45 48
        e 260 80 3e 00
        e 0 80 41 00
        e 0 80 45 00
        E 186 b0 7b 00
        CHASE_CC_TAKEOFFS 1
        GUID {C762B555-17FC-D765-5340-11D3487D2955}
        IGNTEMPO 0 120 4 4
        SRCCOLOR 28
        VELLANE -1 100 0
        CFGEDITVIEW 0 0.045808 45 12 0 -1 0 0 0 0.5
        KEYSNAP 0
        TRACKSEL 0
        EVTFILTER 0 -1 -1 -1 -1 0 0 0 0 -1 -1 -1 -1 0 -1 0 -1 -1
        CFGEDIT 1 1 0 1 0 0 1 1 1 1 1 1 58 171 1253 866 0 0 0 0 0.25 0 0 0 0 0.5 0 0 1 64
      >
    >
  >
  <TRACK {0B61A764-9093-C66D-2123-53551841CC97}
    NAME ""
    PEAKCOL 16576
    BEAT -1
    AUTOMODE 0
    VOLPAN 0.00052194381917 0 -1 -1 1
    MUTESOLO 0 0 0
    IPHASE 0
    PLAYOFFS 0 1
    ISBUS 0 0
    BUSCOMP 0 0 0 0 0
    SHOWINMIX 1 0.6667 0.5 1 0.5 0 0 0
    FREEMODE 0
    SEL 0
    REC 0 5056 1 0 0 0 0
    VU 2
    TRACKHEIGHT 21 0 0
    INQ 0 0 0 0.5 100 0 0 100
    NCHAN 2
    FX 0
    TRACKID {0B61A764-9093-C66D-2123-53551841CC97}
    PERF 0
    MIDIOUT -1
    MAINSEND 1 0
    <FXCHAIN
      WNDRECT 346 266 902 608
      SHOW 0
      LASTSEL 5
      DOCKED 0
      BYPASS 0 0 0
      <VST "VST: ReaEQ (Cockos)" reaeq.vst.so 0 "" 1919247729<56535472656571726561657100000000> ""
        cWVlcu5e7f4CAAAAAQAAAAAAAAACAAAAAAAAAAIAAAABAAAAAAAAAAIAAAAAAAAAqAAAAAEAAAAAABAA
        IQAAAAQAAAAEAAAAAQAAAEC4Xhmm+DRAAAAAAAAA8D8AAAAAAAAAQAEIAAAAAQAAAAAAAAAAwHJAAAAAAAAA8D8AAAAAAAAAQAEIAAAAAQAAAAAAAAAAQI9AAAAAAAAA
        8D8AAAAAAAAAQAEDAAAAAQAAAAABaCorbdRAAAAAAAAA8D8AAAAAAAAAQAEBAAAAAQAAAAAAAAAAAPA/AAAAAJoCAACcAQAA
        AEhpZ2ggbG93IHBhc3MAEAAAAA==
      >
      PRESETNAME "High low pass"
      FLOATPOS 0 0 0 0
      FXID {E8DA9E90-67EC-4BD3-6C17-9BC842391162}
      WAK 0 0
      BYPASS 0 0 0
      <VST "VSTi: ReaSynth (Cockos)" reasynth.vst.so 0 "" 1919251321<5653547265737972656173796E746800> ""
        eXNlcu9e7f4AAAAAAgAAAAEAAAAAAAAAAgAAAAAAAAA8AAAAAAAAAAAAEAA=
        776t3g3wrd6lm8Q7F7fROgAAAAAAAAAAAAAAAJCNuT3oZ4g9AACAPwAAAD8AAIA/AAAAAAAAAD8AAAAA
        AAAQAAAA
      >
      FLOATPOS 0 0 0 0
      FXID {7D10F2F0-B323-B0AD-E2A5-0A284E386A50}
      WAK 0 0
      BYPASS 0 0 0
      <JS guitar/amp-model ""
        "Dumble Overdrive Special - Tweed Deluxe.wav" -21.000000 1.000000 0.000000 0.000000 -1.000000 - - - - - - - - - - - - - - - - - - - - - - - - - - - - - - - - - - - - - - - - - - - - - - - - - - - - - - - - - - 
      >
      FLOATPOS 0 0 0 0
      FXID {B03CAE63-2799-9E57-D821-2BF212F9694D}
      WAK 0 0
      BYPASS 0 0 0
      <VST "VST: ReaComp (Cockos)" reacomp.vst.so 0 "" 1919247213<5653547265636D726561636F6D700000> ""
        bWNlcu9e7f4EAAAAAQAAAAAAAAACAAAAAAAAAAQAAAAAAAAACAAAAAAAAAACAAAAAQAAAAAAAAACAAAAAAAAAFQAAAAAAAAAAAAQAA==
        776t3g3wrd5FoYg9/AWpPKWbxDsK16M8AAAAAAAAAAAAAIA/AAAAAAAAAAAAAAAAnNEHMwAAgD8AAAAAzMxMPQAAAAAAAAAAAAAAAAAAgD7YiZ09
        AAAQAAAA
      >
      FLOATPOS 0 0 0 0
      FXID {1E21219D-E914-8CE7-8F65-EF7015834275}
      WAK 0 0
      BYPASS 0 0 0
      <VST "VST: ReaDelay (Cockos)" readelay.vst.so 0 "" 1919247468<5653547265646C72656164656C617900> ""
        bGRlcu5e7f4CAAAAAQAAAAAAAAACAAAAAAAAAAIAAAABAAAAAAAAAAIAAAAAAAAA/AAAAAEAAAAAAAAA
        AAAAAAAAAAAFAAAALAAAAAIAAAAEAAAAAACAPwAAgD8AAAAAAACAPwAAAAAAAIA7vTeGNQAAgD8AAAAAAACAPwAAgD8AAIA/AAAAAAAAAAAAAIA/AAAAAAAAADwAAAAA
        AACAPwAAAAAAAIA/AACAP+87NT8AAIA/AAAAAAAAgD8AAAAAAABAPL03hjUAAIA/AAAAAAAAgD8AAIA/zk0AP6abhD4AAAAAAACAPwAAAAAAAIA8vTeGNQAAgD8AAAAA
        AACAPwAAgD8aqrU+pHA9PwAAAAAAAIA/AAAAAAAAoDy9N4Y1AACAPwAAAAAAAIA/AACAP/npAD4AAAA/
        AHN0b2NrIC0gYmFzaWMgNSB0YXAgcGluZyBwb25nAAAAAAA=
      >
      PRESETNAME "stock - basic 5 tap ping pong"
      FLOATPOS 0 0 0 0
      FXID {02E5BE73-D51D-BA3A-934B-9DA340486388}
      WAK 0 0
      BYPASS 0 0 0
      <VST "VST: ReaVerb (Cockos)" reaverb.vst.so 0 "" 1919252066<56535472657662726561766572620000> ""
        YnZlcu5e7f4CAAAAAQAAAAAAAAACAAAAAAAAAAIAAAABAAAAAAAAAAIAAAAAAAAAcAAAAAEAAAAAAAAA
        AAAAwcybgD4AAIA/AAAAAAAAgD8AAIA/AAAAPwAAgD8AAAAAVkVSQkdFTgAYAAAAAAAAAJHgV0QdrLRA3rK7QsHIjEIAAIC/RUNIT0dFTgAcAAAAy/i2QLUjdUJdzdM/
        osdfP5lRrzyRzYxAnMQAPw==
        AHN3ZWV0dmVyYm8AAAAAAA==
      >
      PRESETNAME sweetverbo
      FLOATPOS 0 0 0 0
      FXID {1987ACEB-4CD7-B879-010C-D88828457328}
      WAK 0 0
    >
    <ITEM
      POSITION 0
      SNAPOFFS 0
      LENGTH 8
      LOOP 1
      ALLTAKES 0
      FADEIN 1 0 0 1 0 0
      FADEOUT 1 0 0 1 0 0
      MUTE 0
      SEL 1
      IGUID {798E2F2F-BC76-3ABF-C38B-32870E4DAB92}
      IID 10
      NAME "01-Recorded MIDI"
      VOLPAN 1 0 1 -1
      SOFFS 0 0
      PLAYRATE 1 1 0 -1 0 0.0021
      CHANMODE 0
      GUID {4D935F4B-EC53-15B2-481A-55D6B07E1382}
      RECPASS 1
      <SOURCE MIDI
        HASDATA 1 960 QN
        CCINTERP 32
        POOLEDEVTS {5DE789D2-1E99-FA9F-4F25-E04CCBECEE6F}
        E 0 90 3c 48
        E 0 90 40 48
        E 0 90 43 48
        E 1920 80 3c 00
        E 0 80 40 00
        E 0 80 43 00
        E 0 90 3c 48
        E 0 90 40 48
        E 0 90 43 48
        E 260 80 3c 00
        E 0 80 40 00
        E 0 80 43 00
        E 440 90 3c 48
        E 0 90 40 48
        E 0 90 43 48
        E 260 80 3c 00
        E 0 80 40 00
        E 0 80 43 00
        e 514 90 3c 48
        e 0 90 40 48
        e 0 90 43 48
        e 260 80 3c 00
        e 0 80 40 00
        e 0 80 43 00
        E 186 90 43 48
        E 0 90 47 48
        E 20 90 40 48
        E 1900 80 43 00
        E 0 80 47 00
        E 0 80 40 00
        E 0 90 43 48
        E 0 90 47 48
        E 20 90 40 48
        E 240 80 43 00
        E 0 80 47 00
        E 0 80 40 00
        E 440 90 43 48
        E 0 90 47 48
        E 20 90 40 48
        E 240 80 43 00
        E 0 80 47 00
        E 0 80 40 00
        e 514 90 43 48
        e 0 90 47 48
        e 20 90 40 48
        e 240 80 43 00
        e 0 80 47 00
        e 0 80 40 00
        E 186 90 41 48
        E 0 90 45 48
        E 0 90 48 48
        E 1920 80 41 00
        E 0 80 45 00
        E 0 80 48 00
        E 0 90 41 48
        E 0 90 45 48
        E 0 90 48 48
        E 260 80 41 00
        E 0 80 45 00
        E 0 80 48 00
        E 440 90 41 48
        E 0 90 45 48
        E 0 90 48 48
        E 260 80 41 00
        E 0 80 45 00
        E 0 80 48 00
        e 514 90 41 48
        e 0 90 45 48
        e 0 90 48 48
        e 260 80 41 00
        e 0 80 45 00
        e 0 80 48 00
        E 162 90 3e 48
        E 24 90 41 48
        E 0 90 45 48
        E 1896 90 3e 48
        E 24 80 3e 00
        E 0 80 41 00
        E 0 80 45 00
        E 0 90 41 48
        E 0 90 45 48
        E 260 80 3e 00
        E 0 80 41 00
        E 0 80 45 00
        E 416 90 3e 48
        E 24 90 41 48
        E 0 90 45 48
        E 260 80 3e 00
        E 0 80 41 00
        E 0 80 45 00
        e 490 90 3e 48
        e 24 90 41 48
        e 0 90 45 48
        e 260 80 3e 00
        e 0 80 41 00
        e 0 80 45 00
        E 186 b0 7b 00
        CHASE_CC_TAKEOFFS 1
        GUID {7B9D708B-43E1-C8D4-C4B3-87E2A6C27801}
        IGNTEMPO 0 120 4 4
        SRCCOLOR 17
        VELLANE -1 100 0
        CFGEDITVIEW 0 0.045808 45 12 0 -1 0 0 0 0.5
        KEYSNAP 0
        TRACKSEL 0
        EVTFILTER 0 -1 -1 -1 -1 0 0 0 0 -1 -1 -1 -1 0 -1 0 -1 -1
        CFGEDIT 1 1 0 1 0 0 1 1 1 1 1 1 58 171 1253 866 0 0 0 0 0.25 0 0 0 0 0.5 0 0 1 64
      >
    >
    <ITEM
      POSITION 8
      SNAPOFFS 0
      LENGTH 8
      LOOP 1
      ALLTAKES 0
      FADEIN 1 0 0 1 0 0
      FADEOUT 1 0 0 1 0 0
      MUTE 0
      SEL 1
      IGUID {8810010B-DB5D-2BBE-312B-D95C140218A2}
      IID 11
      NAME "01-Recorded MIDI"
      VOLPAN 1 0 1 -1
      SOFFS 0 0
      PLAYRATE 1 1 0 -1 0 0.0021
      CHANMODE 0
      GUID {C5344E5C-DCD9-D3A6-08C4-0F5A8D580244}
      RECPASS 1
      <SOURCE MIDI
        HASDATA 1 960 QN
        CCINTERP 32
        POOLEDEVTS {0DC127CE-CE85-E3C1-7484-F818EC08C4B2}
        E 0 90 3c 48
        E 0 90 40 48
        E 0 90 43 48
        E 1920 80 3c 00
        E 0 80 40 00
        E 0 80 43 00
        E 0 90 3c 48
        E 0 90 40 48
        E 0 90 43 48
        E 260 80 3c 00
        E 0 80 40 00
        E 0 80 43 00
        E 440 90 3c 48
        E 0 90 40 48
        E 0 90 43 48
        E 260 80 3c 00
        E 0 80 40 00
        E 0 80 43 00
        e 514 90 3c 48
        e 0 90 40 48
        e 0 90 43 48
        e 260 80 3c 00
        e 0 80 40 00
        e 0 80 43 00
        E 186 90 43 48
        E 0 90 47 48
        E 20 90 40 48
        E 1900 80 43 00
        E 0 80 47 00
        E 0 80 40 00
        E 0 90 43 48
        E 0 90 47 48
        E 20 90 40 48
        E 240 80 43 00
        E 0 80 47 00
        E 0 80 40 00
        E 440 90 43 48
        E 0 90 47 48
        E 20 90 40 48
        E 240 80 43 00
        E 0 80 47 00
        E 0 80 40 00
        e 514 90 43 48
        e 0 90 47 48
        e 20 90 40 48
        e 240 80 43 00
        e 0 80 47 00
        e 0 80 40 00
        E 186 90 41 48
        E 0 90 45 48
        E 0 90 48 48
        E 1920 80 41 00
        E 0 80 45 00
        E 0 80 48 00
        E 0 90 41 48
        E 0 90 45 48
        E 0 90 48 48
        E 260 80 41 00
        E 0 80 45 00
        E 0 80 48 00
        E 440 90 41 48
        E 0 90 45 48
        E 0 90 48 48
        E 260 80 41 00
        E 0 80 45 00
        E 0 80 48 00
        e 514 90 41 48
        e 0 90 45 48
        e 0 90 48 48
        e 260 80 41 00
        e 0 80 45 00
        e 0 80 48 00
        E 162 90 3e 48
        E 24 90 41 48
        E 0 90 45 48
        E 1896 90 3e 48
        E 24 80 3e 00
        E 0 80 41 00
        E 0 80 45 00
        E 0 90 41 48
        E 0 90 45 48
        E 260 80 3e 00
        E 0 80 41 00
        E 0 80 45 00
        E 416 90 3e 48
        E 24 90 41 48
        E 0 90 45 48
        E 260 80 3e 00
        E 0 80 41 00
        E 0 80 45 00
        e 490 90 3e 48
        e 24 90 41 48
        e 0 90 45 48
        e 260 80 3e 00
        e 0 80 41 00
        e 0 80 45 00
        E 186 b0 7b 00
        CHASE_CC_TAKEOFFS 1
        GUID {3131B4E2-B370-E352-A9C5-C8CA31551A86}
        IGNTEMPO 0 120 4 4
        SRCCOLOR 18
        VELLANE -1 100 0
        CFGEDITVIEW 0 0.045808 45 12 0 -1 0 0 0 0.5
        KEYSNAP 0
        TRACKSEL 0
        EVTFILTER 0 -1 -1 -1 -1 0 0 0 0 -1 -1 -1 -1 0 -1 0 -1 -1
        CFGEDIT 1 1 0 1 0 0 1 1 1 1 1 1 58 171 1253 866 0 0 0 0 0.25 0 0 0 0 0.5 0 0 1 64
      >
    >
    <ITEM
      POSITION 16
      SNAPOFFS 0
      LENGTH 8
      LOOP 1
      ALLTAKES 0
      FADEIN 1 0 0 1 0 0
      FADEOUT 1 0 0 1 0 0
      MUTE 0
      SEL 1
      IGUID {C02751A2-2E83-B107-F82C-0707F469FC41}
      IID 12
      NAME "01-Recorded MIDI"
      VOLPAN 1 0 1 -1
      SOFFS 0 0
      PLAYRATE 1 1 0 -1 0 0.0021
      CHANMODE 0
      GUID {9BFA2283-3844-8AB2-5319-E6D294FCF356}
      RECPASS 1
      <SOURCE MIDI
        HASDATA 1 960 QN
        CCINTERP 32
        POOLEDEVTS {6B3B4792-86B8-C929-9F9D-E2E843743D1F}
        E 0 90 3c 48
        E 0 90 40 48
        E 0 90 43 48
        E 1920 80 3c 00
        E 0 80 40 00
        E 0 80 43 00
        E 0 90 3c 48
        E 0 90 40 48
        E 0 90 43 48
        E 260 80 3c 00
        E 0 80 40 00
        E 0 80 43 00
        E 440 90 3c 48
        E 0 90 40 48
        E 0 90 43 48
        E 260 80 3c 00
        E 0 80 40 00
        E 0 80 43 00
        e 514 90 3c 48
        e 0 90 40 48
        e 0 90 43 48
        e 260 80 3c 00
        e 0 80 40 00
        e 0 80 43 00
        E 186 90 43 48
        E 0 90 47 48
        E 20 90 40 48
        E 1900 80 43 00
        E 0 80 47 00
        E 0 80 40 00
        E 0 90 43 48
        E 0 90 47 48
        E 20 90 40 48
        E 240 80 43 00
        E 0 80 47 00
        E 0 80 40 00
        E 440 90 43 48
        E 0 90 47 48
        E 20 90 40 48
        E 240 80 43 00
        E 0 80 47 00
        E 0 80 40 00
        e 514 90 43 48
        e 0 90 47 48
        e 20 90 40 48
        e 240 80 43 00
        e 0 80 47 00
        e 0 80 40 00
        E 186 90 41 48
        E 0 90 45 48
        E 0 90 48 48
        E 1920 80 41 00
        E 0 80 45 00
        E 0 80 48 00
        E 0 90 41 48
        E 0 90 45 48
        E 0 90 48 48
        E 260 80 41 00
        E 0 80 45 00
        E 0 80 48 00
        E 440 90 41 48
        E 0 90 45 48
        E 0 90 48 48
        E 260 80 41 00
        E 0 80 45 00
        E 0 80 48 00
        e 514 90 41 48
        e 0 90 45 48
        e 0 90 48 48
        e 260 80 41 00
        e 0 80 45 00
        e 0 80 48 00
        E 162 90 3e 48
        E 24 90 41 48
        E 0 90 45 48
        E 1896 90 3e 48
        E 24 80 3e 00
        E 0 80 41 00
        E 0 80 45 00
        E 0 90 41 48
        E 0 90 45 48
        E 260 80 3e 00
        E 0 80 41 00
        E 0 80 45 00
        E 416 90 3e 48
        E 24 90 41 48
        E 0 90 45 48
        E 260 80 3e 00
        E 0 80 41 00
        E 0 80 45 00
        e 490 90 3e 48
        e 24 90 41 48
        e 0 90 45 48
        e 260 80 3e 00
        e 0 80 41 00
        e 0 80 45 00
        E 186 b0 7b 00
        CHASE_CC_TAKEOFFS 1
        GUID {48C567A2-895C-FB9B-FDBA-0ADB7004ABF3}
        IGNTEMPO 0 120 4 4
        SRCCOLOR 19
        VELLANE -1 100 0
        CFGEDITVIEW 0 0.045808 45 12 0 -1 0 0 0 0.5
        KEYSNAP 0
        TRACKSEL 0
        EVTFILTER 0 -1 -1 -1 -1 0 0 0 0 -1 -1 -1 -1 0 -1 0 -1 -1
        CFGEDIT 1 1 0 1 0 0 1 1 1 1 1 1 58 171 1253 866 0 0 0 0 0.25 0 0 0 0 0.5 0 0 1 64
      >
    >
    <ITEM
      POSITION 24
      SNAPOFFS 0
      LENGTH 8
      LOOP 1
      ALLTAKES 0
      FADEIN 1 0 0 1 0 0
      FADEOUT 1 0 0 1 0 0
      MUTE 0
      SEL 1
      IGUID {3E63218A-B580-1814-6125-3623B2B90DF3}
      IID 13
      NAME "01-Recorded MIDI"
      VOLPAN 1 0 1 -1
      SOFFS 0 0
      PLAYRATE 1 1 0 -1 0 0.0021
      CHANMODE 0
      GUID {55FFBA2E-2DBF-360F-827E-FCFE0AACF400}
      RECPASS 1
      <SOURCE MIDI
        HASDATA 1 960 QN
        CCINTERP 32
        POOLEDEVTS {E1727C88-D0A4-9456-8C9C-8DDA7D422DF8}
        E 0 90 3c 48
        E 0 90 40 48
        E 0 90 43 48
        E 1920 80 3c 00
        E 0 80 40 00
        E 0 80 43 00
        E 0 90 3c 48
        E 0 90 40 48
        E 0 90 43 48
        E 260 80 3c 00
        E 0 80 40 00
        E 0 80 43 00
        E 440 90 3c 48
        E 0 90 40 48
        E 0 90 43 48
        E 260 80 3c 00
        E 0 80 40 00
        E 0 80 43 00
        e 514 90 3c 48
        e 0 90 40 48
        e 0 90 43 48
        e 260 80 3c 00
        e 0 80 40 00
        e 0 80 43 00
        E 186 90 43 48
        E 0 90 47 48
        E 20 90 40 48
        E 1900 80 43 00
        E 0 80 47 00
        E 0 80 40 00
        E 0 90 43 48
        E 0 90 47 48
        E 20 90 40 48
        E 240 80 43 00
        E 0 80 47 00
        E 0 80 40 00
        E 440 90 43 48
        E 0 90 47 48
        E 20 90 40 48
        E 240 80 43 00
        E 0 80 47 00
        E 0 80 40 00
        e 514 90 43 48
        e 0 90 47 48
        e 20 90 40 48
        e 240 80 43 00
        e 0 80 47 00
        e 0 80 40 00
        E 186 90 41 48
        E 0 90 45 48
        E 0 90 48 48
        E 1920 80 41 00
        E 0 80 45 00
        E 0 80 48 00
        E 0 90 41 48
        E 0 90 45 48
        E 0 90 48 48
        E 260 80 41 00
        E 0 80 45 00
        E 0 80 48 00
        E 440 90 41 48
        E 0 90 45 48
        E 0 90 48 48
        E 260 80 41 00
        E 0 80 45 00
        E 0 80 48 00
        e 514 90 41 48
        e 0 90 45 48
        e 0 90 48 48
        e 260 80 41 00
        e 0 80 45 00
        e 0 80 48 00
        E 162 90 3e 48
        E 24 90 41 48
        E 0 90 45 48
        E 1896 90 3e 48
        E 24 80 3e 00
        E 0 80 41 00
        E 0 80 45 00
        E 0 90 41 48
        E 0 90 45 48
        E 260 80 3e 00
        E 0 80 41 00
        E 0 80 45 00
        E 416 90 3e 48
        E 24 90 41 48
        E 0 90 45 48
        E 260 80 3e 00
        E 0 80 41 00
        E 0 80 45 00
        e 490 90 3e 48
        e 24 90 41 48
        e 0 90 45 48
        e 260 80 3e 00
        e 0 80 41 00
        e 0 80 45 00
        E 186 b0 7b 00
        CHASE_CC_TAKEOFFS 1
        GUID {1DE38800-E2A1-41B5-9C8C-3291891093B1}
        IGNTEMPO 0 120 4 4
        SRCCOLOR 20
        VELLANE -1 100 0
        CFGEDITVIEW 0 0.045808 45 12 0 -1 0 0 0 0.5
        KEYSNAP 0
        TRACKSEL 0
        EVTFILTER 0 -1 -1 -1 -1 0 0 0 0 -1 -1 -1 -1 0 -1 0 -1 -1
        CFGEDIT 1 1 0 1 0 0 1 1 1 1 1 1 58 171 1253 866 0 0 0 0 0.25 0 0 0 0 0.5 0 0 1 64
      >
    >
    <ITEM
      POSITION 32
      SNAPOFFS 0
      LENGTH 8
      LOOP 1
      ALLTAKES 0
      FADEIN 1 0 0 1 0 0
      FADEOUT 1 0 0 1 0 0
      MUTE 0
      SEL 1
      IGUID {B1A24CCF-1108-6C0B-DA12-B1438BDA3DF6}
      IID 14
      NAME "01-Recorded MIDI"
      VOLPAN 1 0 1 -1
      SOFFS 0 0
      PLAYRATE 1 1 0 -1 0 0.0021
      CHANMODE 0
      GUID {F6D377B6-73C8-BE33-24C7-98A8F3A83A81}
      RECPASS 1
      <SOURCE MIDI
        HASDATA 1 960 QN
        CCINTERP 32
        POOLEDEVTS {C1364E0D-975F-8E66-E334-A03E3AD0FFDF}
        E 0 90 3c 48
        E 0 90 40 48
        E 0 90 43 48
        E 1920 80 3c 00
        E 0 80 40 00
        E 0 80 43 00
        E 0 90 3c 48
        E 0 90 40 48
        E 0 90 43 48
        E 260 80 3c 00
        E 0 80 40 00
        E 0 80 43 00
        E 440 90 3c 48
        E 0 90 40 48
        E 0 90 43 48
        E 260 80 3c 00
        E 0 80 40 00
        E 0 80 43 00
        e 514 90 3c 48
        e 0 90 40 48
        e 0 90 43 48
        e 260 80 3c 00
        e 0 80 40 00
        e 0 80 43 00
        E 186 90 43 48
        E 0 90 47 48
        E 20 90 40 48
        E 1900 80 43 00
        E 0 80 47 00
        E 0 80 40 00
        E 0 90 43 48
        E 0 90 47 48
        E 20 90 40 48
        E 240 80 43 00
        E 0 80 47 00
        E 0 80 40 00
        E 440 90 43 48
        E 0 90 47 48
        E 20 90 40 48
        E 240 80 43 00
        E 0 80 47 00
        E 0 80 40 00
        e 514 90 43 48
        e 0 90 47 48
        e 20 90 40 48
        e 240 80 43 00
        e 0 80 47 00
        e 0 80 40 00
        E 186 90 41 48
        E 0 90 45 48
        E 0 90 48 48
        E 1920 80 41 00
        E 0 80 45 00
        E 0 80 48 00
        E 0 90 41 48
        E 0 90 45 48
        E 0 90 48 48
        E 260 80 41 00
        E 0 80 45 00
        E 0 80 48 00
        E 440 90 41 48
        E 0 90 45 48
        E 0 90 48 48
        E 260 80 41 00
        E 0 80 45 00
        E 0 80 48 00
        e 514 90 41 48
        e 0 90 45 48
        e 0 90 48 48
        e 260 80 41 00
        e 0 80 45 00
        e 0 80 48 00
        E 162 90 3e 48
        E 24 90 41 48
        E 0 90 45 48
        E 1896 90 3e 48
        E 24 80 3e 00
        E 0 80 41 00
        E 0 80 45 00
        E 0 90 41 48
        E 0 90 45 48
        E 260 80 3e 00
        E 0 80 41 00
        E 0 80 45 00
        E 416 90 3e 48
        E 24 90 41 48
        E 0 90 45 48
        E 260 80 3e 00
        E 0 80 41 00
        E 0 80 45 00
        e 490 90 3e 48
        e 24 90 41 48
        e 0 90 45 48
        e 260 80 3e 00
        e 0 80 41 00
        e 0 80 45 00
        E 186 b0 7b 00
        CHASE_CC_TAKEOFFS 1
        GUID {0C3271F4-E233-9088-9B25-A722FAE7C579}
        IGNTEMPO 0 120 4 4
        SRCCOLOR 21
        VELLANE -1 100 0
        CFGEDITVIEW 0 0.045808 45 12 0 -1 0 0 0 0.5
        KEYSNAP 0
        TRACKSEL 0
        EVTFILTER 0 -1 -1 -1 -1 0 0 0 0 -1 -1 -1 -1 0 -1 0 -1 -1
        CFGEDIT 1 1 0 1 0 0 1 1 1 1 1 1 58 171 1253 866 0 0 0 0 0.25 0 0 0 0 0.5 0 0 1 64
      >
    >
    <ITEM
      POSITION 40
      SNAPOFFS 0
      LENGTH 8
      LOOP 1
      ALLTAKES 0
      FADEIN 1 0 0 1 0 0
      FADEOUT 1 0 0 1 0 0
      MUTE 0
      SEL 1
      IGUID {0713761D-A87C-483D-0FBD-B7F8685E9056}
      IID 15
      NAME "01-Recorded MIDI"
      VOLPAN 1 0 1 -1
      SOFFS 0 0
      PLAYRATE 1 1 0 -1 0 0.0021
      CHANMODE 0
      GUID {8AAC39E2-195A-4112-AC3D-1A786420AB40}
      RECPASS 1
      <SOURCE MIDI
        HASDATA 1 960 QN
        CCINTERP 32
        POOLEDEVTS {6E228C4A-0AE1-69E3-0C80-96EDAFEC7AEC}
        E 0 90 3c 48
        E 0 90 40 48
        E 0 90 43 48
        E 1920 80 3c 00
        E 0 80 40 00
        E 0 80 43 00
        E 0 90 3c 48
        E 0 90 40 48
        E 0 90 43 48
        E 260 80 3c 00
        E 0 80 40 00
        E 0 80 43 00
        E 440 90 3c 48
        E 0 90 40 48
        E 0 90 43 48
        E 260 80 3c 00
        E 0 80 40 00
        E 0 80 43 00
        e 514 90 3c 48
        e 0 90 40 48
        e 0 90 43 48
        e 260 80 3c 00
        e 0 80 40 00
        e 0 80 43 00
        E 186 90 43 48
        E 0 90 47 48
        E 20 90 40 48
        E 1900 80 43 00
        E 0 80 47 00
        E 0 80 40 00
        E 0 90 43 48
        E 0 90 47 48
        E 20 90 40 48
        E 240 80 43 00
        E 0 80 47 00
        E 0 80 40 00
        E 440 90 43 48
        E 0 90 47 48
        E 20 90 40 48
        E 240 80 43 00
        E 0 80 47 00
        E 0 80 40 00
        e 514 90 43 48
        e 0 90 47 48
        e 20 90 40 48
        e 240 80 43 00
        e 0 80 47 00
        e 0 80 40 00
        E 186 90 41 48
        E 0 90 45 48
        E 0 90 48 48
        E 1920 80 41 00
        E 0 80 45 00
        E 0 80 48 00
        E 0 90 41 48
        E 0 90 45 48
        E 0 90 48 48
        E 260 80 41 00
        E 0 80 45 00
        E 0 80 48 00
        E 440 90 41 48
        E 0 90 45 48
        E 0 90 48 48
        E 260 80 41 00
        E 0 80 45 00
        E 0 80 48 00
        e 514 90 41 48
        e 0 90 45 48
        e 0 90 48 48
        e 260 80 41 00
        e 0 80 45 00
        e 0 80 48 00
        E 162 90 3e 48
        E 24 90 41 48
        E 0 90 45 48
        E 1896 90 3e 48
        E 24 80 3e 00
        E 0 80 41 00
        E 0 80 45 00
        E 0 90 41 48
        E 0 90 45 48
        E 260 80 3e 00
        E 0 80 41 00
        E 0 80 45 00
        E 416 90 3e 48
        E 24 90 41 48
        E 0 90 45 48
        E 260 80 3e 00
        E 0 80 41 00
        E 0 80 45 00
        e 490 90 3e 48
        e 24 90 41 48
        e 0 90 45 48
        e 260 80 3e 00
        e 0 80 41 00
        e 0 80 45 00
        E 186 b0 7b 00
        CHASE_CC_TAKEOFFS 1
        GUID {040E7AF8-3572-5D91-3C86-797AEE7444D4}
        IGNTEMPO 0 120 4 4
        SRCCOLOR 22
        VELLANE -1 100 0
        CFGEDITVIEW 0 0.045808 45 12 0 -1 0 0 0 0.5
        KEYSNAP 0
        TRACKSEL 0
        EVTFILTER 0 -1 -1 -1 -1 0 0 0 0 -1 -1 -1 -1 0 -1 0 -1 -1
        CFGEDIT 1 1 0 1 0 0 1 1 1 1 1 1 58 171 1253 866 0 0 0 0 0.25 0 0 0 0 0.5 0 0 1 64
      >
    >
    <ITEM
      POSITION 48
      SNAPOFFS 0
      LENGTH 8
      LOOP 1
      ALLTAKES 0
      FADEIN 1 0 0 1 0 0
      FADEOUT 1 0 0 1 0 0
      MUTE 0
      SEL 1
      IGUID {D77F8BEF-0777-D331-2481-A6BAC411D228}
      IID 16
      NAME "01-Recorded MIDI"
      VOLPAN 1 0 1 -1
      SOFFS 0 0
      PLAYRATE 1 1 0 -1 0 0.0021
      CHANMODE 0
      GUID {1B96D2EB-4D71-2D58-584E-EA93B21BCBA9}
      RECPASS 1
      <SOURCE MIDI
        HASDATA 1 960 QN
        CCINTERP 32
        POOLEDEVTS {50144F5A-0A45-E874-AA1D-E5B07FAC6268}
        E 0 90 3c 48
        E 0 90 40 48
        E 0 90 43 48
        E 1920 80 3c 00
        E 0 80 40 00
        E 0 80 43 00
        E 0 90 3c 48
        E 0 90 40 48
        E 0 90 43 48
        E 260 80 3c 00
        E 0 80 40 00
        E 0 80 43 00
        E 440 90 3c 48
        E 0 90 40 48
        E 0 90 43 48
        E 260 80 3c 00
        E 0 80 40 00
        E 0 80 43 00
        e 514 90 3c 48
        e 0 90 40 48
        e 0 90 43 48
        e 260 80 3c 00
        e 0 80 40 00
        e 0 80 43 00
        E 186 90 43 48
        E 0 90 47 48
        E 20 90 40 48
        E 1900 80 43 00
        E 0 80 47 00
        E 0 80 40 00
        E 0 90 43 48
        E 0 90 47 48
        E 20 90 40 48
        E 240 80 43 00
        E 0 80 47 00
        E 0 80 40 00
        E 440 90 43 48
        E 0 90 47 48
        E 20 90 40 48
        E 240 80 43 00
        E 0 80 47 00
        E 0 80 40 00
        e 514 90 43 48
        e 0 90 47 48
        e 20 90 40 48
        e 240 80 43 00
        e 0 80 47 00
        e 0 80 40 00
        E 186 90 41 48
        E 0 90 45 48
        E 0 90 48 48
        E 1920 80 41 00
        E 0 80 45 00
        E 0 80 48 00
        E 0 90 41 48
        E 0 90 45 48
        E 0 90 48 48
        E 260 80 41 00
        E 0 80 45 00
        E 0 80 48 00
        E 440 90 41 48
        E 0 90 45 48
        E 0 90 48 48
        E 260 80 41 00
        E 0 80 45 00
        E 0 80 48 00
        e 514 90 41 48
        e 0 90 45 48
        e 0 90 48 48
        e 260 80 41 00
        e 0 80 45 00
        e 0 80 48 00
        E 162 90 3e 48
        E 24 90 41 48
        E 0 90 45 48
        E 1896 90 3e 48
        E 24 80 3e 00
        E 0 80 41 00
        E 0 80 45 00
        E 0 90 41 48
        E 0 90 45 48
        E 260 80 3e 00
        E 0 80 41 00
        E 0 80 45 00
        E 416 90 3e 48
        E 24 90 41 48
        E 0 90 45 48
        E 260 80 3e 00
        E 0 80 41 00
        E 0 80 45 00
        e 490 90 3e 48
        e 24 90 41 48
        e 0 90 45 48
        e 260 80 3e 00
        e 0 80 41 00
        e 0 80 45 00
        E 186 b0 7b 00
        CHASE_CC_TAKEOFFS 1
        GUID {2338968B-6CF9-9F40-300F-DEB89D3392EA}
        IGNTEMPO 0 120 4 4
        SRCCOLOR 23
        VELLANE -1 100 0
        CFGEDITVIEW 0 0.045808 45 12 0 -1 0 0 0 0.5
        KEYSNAP 0
        TRACKSEL 0
        EVTFILTER 0 -1 -1 -1 -1 0 0 0 0 -1 -1 -1 -1 0 -1 0 -1 -1
        CFGEDIT 1 1 0 1 0 0 1 1 1 1 1 1 58 171 1253 866 0 0 0 0 0.25 0 0 0 0 0.5 0 0 1 64
      >
    >
    <ITEM
      POSITION 56
      SNAPOFFS 0
      LENGTH 8
      LOOP 1
      ALLTAKES 0
      FADEIN 1 0 0 1 0 0
      FADEOUT 1 0 0 1 0 0
      MUTE 0
      SEL 1
      IGUID {B86FB329-BB16-84CD-8739-2F3E009D028E}
      IID 17
      NAME "01-Recorded MIDI"
      VOLPAN 1 0 1 -1
      SOFFS 0 0
      PLAYRATE 1 1 0 -1 0 0.0021
      CHANMODE 0
      GUID {E3C703C7-B960-9751-2A22-703903745E10}
      RECPASS 1
      <SOURCE MIDI
        HASDATA 1 960 QN
        CCINTERP 32
        POOLEDEVTS {FBA631BF-08AC-921C-19FA-DB0F236FFC15}
        E 0 90 3c 48
        E 0 90 40 48
        E 0 90 43 48
        E 1920 80 3c 00
        E 0 80 40 00
        E 0 80 43 00
        E 0 90 3c 48
        E 0 90 40 48
        E 0 90 43 48
        E 260 80 3c 00
        E 0 80 40 00
        E 0 80 43 00
        E 440 90 3c 48
        E 0 90 40 48
        E 0 90 43 48
        E 260 80 3c 00
        E 0 80 40 00
        E 0 80 43 00
        e 514 90 3c 48
        e 0 90 40 48
        e 0 90 43 48
        e 260 80 3c 00
        e 0 80 40 00
        e 0 80 43 00
        E 186 90 43 48
        E 0 90 47 48
        E 20 90 40 48
        E 1900 80 43 00
        E 0 80 47 00
        E 0 80 40 00
        E 0 90 43 48
        E 0 90 47 48
        E 20 90 40 48
        E 240 80 43 00
        E 0 80 47 00
        E 0 80 40 00
        E 440 90 43 48
        E 0 90 47 48
        E 20 90 40 48
        E 240 80 43 00
        E 0 80 47 00
        E 0 80 40 00
        e 514 90 43 48
        e 0 90 47 48
        e 20 90 40 48
        e 240 80 43 00
        e 0 80 47 00
        e 0 80 40 00
        E 186 90 41 48
        E 0 90 45 48
        E 0 90 48 48
        E 1920 80 41 00
        E 0 80 45 00
        E 0 80 48 00
        E 0 90 41 48
        E 0 90 45 48
        E 0 90 48 48
        E 260 80 41 00
        E 0 80 45 00
        E 0 80 48 00
        E 440 90 41 48
        E 0 90 45 48
        E 0 90 48 48
        E 260 80 41 00
        E 0 80 45 00
        E 0 80 48 00
        e 514 90 41 48
        e 0 90 45 48
        e 0 90 48 48
        e 260 80 41 00
        e 0 80 45 00
        e 0 80 48 00
        E 162 90 3e 48
        E 24 90 41 48
        E 0 90 45 48
        E 1896 90 3e 48
        E 24 80 3e 00
        E 0 80 41 00
        E 0 80 45 00
        E 0 90 41 48
        E 0 90 45 48
        E 260 80 3e 00
        E 0 80 41 00
        E 0 80 45 00
        E 416 90 3e 48
        E 24 90 41 48
        E 0 90 45 48
        E 260 80 3e 00
        E 0 80 41 00
        E 0 80 45 00
        e 490 90 3e 48
        e 24 90 41 48
        e 0 90 45 48
        e 260 80 3e 00
        e 0 80 41 00
        e 0 80 45 00
        E 186 b0 7b 00
        CHASE_CC_TAKEOFFS 1
        GUID {A64857E2-94F8-0990-20DF-4C1E9B5E6251}
        IGNTEMPO 0 120 4 4
        SRCCOLOR 24
        VELLANE -1 100 0
        CFGEDITVIEW 0 0.045808 45 12 0 -1 0 0 0 0.5
        KEYSNAP 0
        TRACKSEL 0
        EVTFILTER 0 -1 -1 -1 -1 0 0 0 0 -1 -1 -1 -1 0 -1 0 -1 -1
        CFGEDIT 1 1 0 1 0 0 1 1 1 1 1 1 58 171 1253 866 0 0 0 0 0.25 0 0 0 0 0.5 0 0 1 64
      >
    >
    <ITEM
      POSITION 64
      SNAPOFFS 0
      LENGTH 8
      LOOP 1
      ALLTAKES 0
      FADEIN 1 0 0 1 0 0
      FADEOUT 1 0 0 1 0 0
      MUTE 0
      SEL 1
      IGUID {DDB4E0AD-DED3-1DE7-18D6-3D95AB4F474B}
      IID 18
      NAME "01-Recorded MIDI"
      VOLPAN 1 0 1 -1
      SOFFS 0 0
      PLAYRATE 1 1 0 -1 0 0.0021
      CHANMODE 0
      GUID {E0B6986D-2E18-D9B4-CD64-3F8C7ECB5C6A}
      RECPASS 1
      <SOURCE MIDI
        HASDATA 1 960 QN
        CCINTERP 32
        POOLEDEVTS {F1178625-891D-0B7B-F66C-983F927C2E3E}
        E 0 90 3c 48
        E 0 90 40 48
        E 0 90 43 48
        E 1920 80 3c 00
        E 0 80 40 00
        E 0 80 43 00
        E 0 90 3c 48
        E 0 90 40 48
        E 0 90 43 48
        E 260 80 3c 00
        E 0 80 40 00
        E 0 80 43 00
        E 440 90 3c 48
        E 0 90 40 48
        E 0 90 43 48
        E 260 80 3c 00
        E 0 80 40 00
        E 0 80 43 00
        e 514 90 3c 48
        e 0 90 40 48
        e 0 90 43 48
        e 260 80 3c 00
        e 0 80 40 00
        e 0 80 43 00
        E 186 90 43 48
        E 0 90 47 48
        E 20 90 40 48
        E 1900 80 43 00
        E 0 80 47 00
        E 0 80 40 00
        E 0 90 43 48
        E 0 90 47 48
        E 20 90 40 48
        E 240 80 43 00
        E 0 80 47 00
        E 0 80 40 00
        E 440 90 43 48
        E 0 90 47 48
        E 20 90 40 48
        E 240 80 43 00
        E 0 80 47 00
        E 0 80 40 00
        e 514 90 43 48
        e 0 90 47 48
        e 20 90 40 48
        e 240 80 43 00
        e 0 80 47 00
        e 0 80 40 00
        E 186 90 41 48
        E 0 90 45 48
        E 0 90 48 48
        E 1920 80 41 00
        E 0 80 45 00
        E 0 80 48 00
        E 0 90 41 48
        E 0 90 45 48
        E 0 90 48 48
        E 260 80 41 00
        E 0 80 45 00
        E 0 80 48 00
        E 440 90 41 48
        E 0 90 45 48
        E 0 90 48 48
        E 260 80 41 00
        E 0 80 45 00
        E 0 80 48 00
        e 514 90 41 48
        e 0 90 45 48
        e 0 90 48 48
        e 260 80 41 00
        e 0 80 45 00
        e 0 80 48 00
        E 162 90 3e 48
        E 24 90 41 48
        E 0 90 45 48
        E 1896 90 3e 48
        E 24 80 3e 00
        E 0 80 41 00
        E 0 80 45 00
        E 0 90 41 48
        E 0 90 45 48
        E 260 80 3e 00
        E 0 80 41 00
        E 0 80 45 00
        E 416 90 3e 48
        E 24 90 41 48
        E 0 90 45 48
        E 260 80 3e 00
        E 0 80 41 00
        E 0 80 45 00
        e 490 90 3e 48
        e 24 90 41 48
        e 0 90 45 48
        e 260 80 3e 00
        e 0 80 41 00
        e 0 80 45 00
        E 186 b0 7b 00
        CHASE_CC_TAKEOFFS 1
        GUID {19362806-85F2-5D9E-E1F9-07BE0CF3D16E}
        IGNTEMPO 0 120 4 4
        SRCCOLOR 25
        VELLANE -1 100 0
        CFGEDITVIEW 0 0.045808 45 12 0 -1 0 0 0 0.5
        KEYSNAP 0
        TRACKSEL 0
        EVTFILTER 0 -1 -1 -1 -1 0 0 0 0 -1 -1 -1 -1 0 -1 0 -1 -1
        CFGEDIT 1 1 0 1 0 0 1 1 1 1 1 1 58 171 1253 866 0 0 0 0 0.25 0 0 0 0 0.5 0 0 1 64
      >
    >
    <ITEM
      POSITION 72
      SNAPOFFS 0
      LENGTH 8
      LOOP 1
      ALLTAKES 0
      FADEIN 1 0 0 1 0 0
      FADEOUT 1 0 0 1 0 0
      MUTE 0
      SEL 1
      IGUID {BE3F8D4E-E039-1EB6-E4E0-BE4A2AFA7A4E}
      IID 19
      NAME "01-Recorded MIDI"
      VOLPAN 1 0 1 -1
      SOFFS 0 0
      PLAYRATE 1 1 0 -1 0 0.0021
      CHANMODE 0
      GUID {79D13CE0-5204-CCC7-D9F8-0AC3A951CC27}
      RECPASS 1
      <SOURCE MIDI
        HASDATA 1 960 QN
        CCINTERP 32
        POOLEDEVTS {9F94CA60-B605-4C97-EA33-76FC7D7144D3}
        E 0 90 3c 48
        E 0 90 40 48
        E 0 90 43 48
        E 1920 80 3c 00
        E 0 80 40 00
        E 0 80 43 00
        E 0 90 3c 48
        E 0 90 40 48
        E 0 90 43 48
        E 260 80 3c 00
        E 0 80 40 00
        E 0 80 43 00
        E 440 90 3c 48
        E 0 90 40 48
        E 0 90 43 48
        E 260 80 3c 00
        E 0 80 40 00
        E 0 80 43 00
        e 514 90 3c 48
        e 0 90 40 48
        e 0 90 43 48
        e 260 80 3c 00
        e 0 80 40 00
        e 0 80 43 00
        E 186 90 43 48
        E 0 90 47 48
        E 20 90 40 48
        E 1900 80 43 00
        E 0 80 47 00
        E 0 80 40 00
        E 0 90 43 48
        E 0 90 47 48
        E 20 90 40 48
        E 240 80 43 00
        E 0 80 47 00
        E 0 80 40 00
        E 440 90 43 48
        E 0 90 47 48
        E 20 90 40 48
        E 240 80 43 00
        E 0 80 47 00
        E 0 80 40 00
        e 514 90 43 48
        e 0 90 47 48
        e 20 90 40 48
        e 240 80 43 00
        e 0 80 47 00
        e 0 80 40 00
        E 186 90 41 48
        E 0 90 45 48
        E 0 90 48 48
        E 1920 80 41 00
        E 0 80 45 00
        E 0 80 48 00
        E 0 90 41 48
        E 0 90 45 48
        E 0 90 48 48
        E 260 80 41 00
        E 0 80 45 00
        E 0 80 48 00
        E 440 90 41 48
        E 0 90 45 48
        E 0 90 48 48
        E 260 80 41 00
        E 0 80 45 00
        E 0 80 48 00
        e 514 90 41 48
        e 0 90 45 48
        e 0 90 48 48
        e 260 80 41 00
        e 0 80 45 00
        e 0 80 48 00
        E 162 90 3e 48
        E 24 90 41 48
        E 0 90 45 48
        E 1896 90 3e 48
        E 24 80 3e 00
        E 0 80 41 00
        E 0 80 45 00
        E 0 90 41 48
        E 0 90 45 48
        E 260 80 3e 00
        E 0 80 41 00
        E 0 80 45 00
        E 416 90 3e 48
        E 24 90 41 48
        E 0 90 45 48
        E 260 80 3e 00
        E 0 80 41 00
        E 0 80 45 00
        e 490 90 3e 48
        e 24 90 41 48
        e 0 90 45 48
        e 260 80 3e 00
        e 0 80 41 00
        e 0 80 45 00
        E 186 b0 7b 00
        CHASE_CC_TAKEOFFS 1
        GUID {6844F8A9-6BE9-023C-4A46-0A676470C99B}
        IGNTEMPO 0 120 4 4
        SRCCOLOR 26
        VELLANE -1 100 0
        CFGEDITVIEW 0 0.045808 45 12 0 -1 0 0 0 0.5
        KEYSNAP 0
        TRACKSEL 0
        EVTFILTER 0 -1 -1 -1 -1 0 0 0 0 -1 -1 -1 -1 0 -1 0 -1 -1
        CFGEDIT 1 1 0 1 0 0 1 1 1 1 1 1 58 171 1253 866 0 0 0 0 0.25 0 0 0 0 0.5 0 0 1 64
      >
    >
    <ITEM
      POSITION 80
      SNAPOFFS 0
      LENGTH 8
      LOOP 1
      ALLTAKES 0
      FADEIN 1 0 0 1 0 0
      FADEOUT 1 0 0 1 0 0
      MUTE 0
      SEL 1
      IGUID {1DC149DE-EFAF-D47F-8D90-7402DB0B70AB}
      IID 20
      NAME "01-Recorded MIDI"
      VOLPAN 1 0 1 -1
      SOFFS 0 0
      PLAYRATE 1 1 0 -1 0 0.0021
      CHANMODE 0
      GUID {4D8ADDBD-06FA-ED99-B3CC-AF2B311FDDBE}
      RECPASS 1
      <SOURCE MIDI
        HASDATA 1 960 QN
        CCINTERP 32
        POOLEDEVTS {42F8472E-651B-9D9D-2508-A936FE94BB6E}
        E 0 90 3c 48
        E 0 90 40 48
        E 0 90 43 48
        E 1920 80 3c 00
        E 0 80 40 00
        E 0 80 43 00
        E 0 90 3c 48
        E 0 90 40 48
        E 0 90 43 48
        E 260 80 3c 00
        E 0 80 40 00
        E 0 80 43 00
        E 440 90 3c 48
        E 0 90 40 48
        E 0 90 43 48
        E 260 80 3c 00
        E 0 80 40 00
        E 0 80 43 00
        e 514 90 3c 48
        e 0 90 40 48
        e 0 90 43 48
        e 260 80 3c 00
        e 0 80 40 00
        e 0 80 43 00
        E 186 90 43 48
        E 0 90 47 48
        E 20 90 40 48
        E 1900 80 43 00
        E 0 80 47 00
        E 0 80 40 00
        E 0 90 43 48
        E 0 90 47 48
        E 20 90 40 48
        E 240 80 43 00
        E 0 80 47 00
        E 0 80 40 00
        E 440 90 43 48
        E 0 90 47 48
        E 20 90 40 48
        E 240 80 43 00
        E 0 80 47 00
        E 0 80 40 00
        e 514 90 43 48
        e 0 90 47 48
        e 20 90 40 48
        e 240 80 43 00
        e 0 80 47 00
        e 0 80 40 00
        E 186 90 41 48
        E 0 90 45 48
        E 0 90 48 48
        E 1920 80 41 00
        E 0 80 45 00
        E 0 80 48 00
        E 0 90 41 48
        E 0 90 45 48
        E 0 90 48 48
        E 260 80 41 00
        E 0 80 45 00
        E 0 80 48 00
        E 440 90 41 48
        E 0 90 45 48
        E 0 90 48 48
        E 260 80 41 00
        E 0 80 45 00
        E 0 80 48 00
        e 514 90 41 48
        e 0 90 45 48
        e 0 90 48 48
        e 260 80 41 00
        e 0 80 45 00
        e 0 80 48 00
        E 162 90 3e 48
        E 24 90 41 48
        E 0 90 45 48
        E 1896 90 3e 48
        E 24 80 3e 00
        E 0 80 41 00
        E 0 80 45 00
        E 0 90 41 48
        E 0 90 45 48
        E 260 80 3e 00
        E 0 80 41 00
        E 0 80 45 00
        E 416 90 3e 48
        E 24 90 41 48
        E 0 90 45 48
        E 260 80 3e 00
        E 0 80 41 00
        E 0 80 45 00
        e 490 90 3e 48
        e 24 90 41 48
        e 0 90 45 48
        e 260 80 3e 00
        e 0 80 41 00
        e 0 80 45 00
        E 186 b0 7b 00
        CHASE_CC_TAKEOFFS 1
        GUID {E611ADB6-4869-6CCA-8E83-3954D5E743B1}
        IGNTEMPO 0 120 4 4
        SRCCOLOR 27
        VELLANE -1 100 0
        CFGEDITVIEW 0 0.045808 45 12 0 -1 0 0 0 0.5
        KEYSNAP 0
        TRACKSEL 0
        EVTFILTER 0 -1 -1 -1 -1 0 0 0 0 -1 -1 -1 -1 0 -1 0 -1 -1
        CFGEDIT 1 1 0 1 0 0 1 1 1 1 1 1 58 171 1253 866 0 0 0 0 0.25 0 0 0 0 0.5 0 0 1 64
      >
    >
    <ITEM
      POSITION 88
      SNAPOFFS 0
      LENGTH 8
      LOOP 1
      ALLTAKES 0
      FADEIN 1 0 0 1 0 0
      FADEOUT 1 0 0 1 0 0
      MUTE 0
      SEL 1
      IGUID {0DA5C91F-7F5D-AC66-2D33-BE3345A0DF63}
      IID 21
      NAME "01-Recorded MIDI"
      VOLPAN 1 0 1 -1
      SOFFS 0 0
      PLAYRATE 1 1 0 -1 0 0.0021
      CHANMODE 0
      GUID {89C01D58-EC26-339C-8523-77BF25E10EBF}
      RECPASS 1
      <SOURCE MIDI
        HASDATA 1 960 QN
        CCINTERP 32
        POOLEDEVTS {2047379D-9D3F-BF02-E23A-0A2F5A43B62B}
        E 0 90 3c 48
        E 0 90 40 48
        E 0 90 43 48
        E 1920 80 3c 00
        E 0 80 40 00
        E 0 80 43 00
        E 0 90 3c 48
        E 0 90 40 48
        E 0 90 43 48
        E 260 80 3c 00
        E 0 80 40 00
        E 0 80 43 00
        E 440 90 3c 48
        E 0 90 40 48
        E 0 90 43 48
        E 260 80 3c 00
        E 0 80 40 00
        E 0 80 43 00
        e 514 90 3c 48
        e 0 90 40 48
        e 0 90 43 48
        e 260 80 3c 00
        e 0 80 40 00
        e 0 80 43 00
        E 186 90 43 48
        E 0 90 47 48
        E 20 90 40 48
        E 1900 80 43 00
        E 0 80 47 00
        E 0 80 40 00
        E 0 90 43 48
        E 0 90 47 48
        E 20 90 40 48
        E 240 80 43 00
        E 0 80 47 00
        E 0 80 40 00
        E 440 90 43 48
        E 0 90 47 48
        E 20 90 40 48
        E 240 80 43 00
        E 0 80 47 00
        E 0 80 40 00
        e 514 90 43 48
        e 0 90 47 48
        e 20 90 40 48
        e 240 80 43 00
        e 0 80 47 00
        e 0 80 40 00
        E 186 90 41 48
        E 0 90 45 48
        E 0 90 48 48
        E 1920 80 41 00
        E 0 80 45 00
        E 0 80 48 00
        E 0 90 41 48
        E 0 90 45 48
        E 0 90 48 48
        E 260 80 41 00
        E 0 80 45 00
        E 0 80 48 00
        E 440 90 41 48
        E 0 90 45 48
        E 0 90 48 48
        E 260 80 41 00
        E 0 80 45 00
        E 0 80 48 00
        e 514 90 41 48
        e 0 90 45 48
        e 0 90 48 48
        e 260 80 41 00
        e 0 80 45 00
        e 0 80 48 00
        E 162 90 3e 48
        E 24 90 41 48
        E 0 90 45 48
        E 1896 90 3e 48
        E 24 80 3e 00
        E 0 80 41 00
        E 0 80 45 00
        E 0 90 41 48
        E 0 90 45 48
        E 260 80 3e 00
        E 0 80 41 00
        E 0 80 45 00
        E 416 90 3e 48
        E 24 90 41 48
        E 0 90 45 48
        E 260 80 3e 00
        E 0 80 41 00
        E 0 80 45 00
        e 490 90 3e 48
        e 24 90 41 48
        e 0 90 45 48
        e 260 80 3e 00
        e 0 80 41 00
        e 0 80 45 00
        E 186 b0 7b 00
        CHASE_CC_TAKEOFFS 1
        GUID {C762B555-17FC-D765-5340-11D3487D2955}
        IGNTEMPO 0 120 4 4
        SRCCOLOR 28
        VELLANE -1 100 0
        CFGEDITVIEW 0 0.045808 45 12 0 -1 0 0 0 0.5
        KEYSNAP 0
        TRACKSEL 0
        EVTFILTER 0 -1 -1 -1 -1 0 0 0 0 -1 -1 -1 -1 0 -1 0 -1 -1
        CFGEDIT 1 1 0 1 0 0 1 1 1 1 1 1 58 171 1253 866 0 0 0 0 0.25 0 0 0 0 0.5 0 0 1 64
      >
    >
  >
  <TRACK {B92C330B-D495-8766-12DC-8D9857209AB6}
    NAME ""
    PEAKCOL 16576
    BEAT -1
    AUTOMODE 0
    VOLPAN 0.00052194381917 0 -1 -1 1
    MUTESOLO 0 0 0
    IPHASE 0
    PLAYOFFS 0 1
    ISBUS 0 0
    BUSCOMP 0 0 0 0 0
    SHOWINMIX 1 0.6667 0.5 1 0.5 0 0 0
    FREEMODE 0
    SEL 0
    REC 0 5056 1 0 0 0 0
    VU 2
    TRACKHEIGHT 21 0 0
    INQ 0 0 0 0.5 100 0 0 100
    NCHAN 2
    FX 0
    TRACKID {B92C330B-D495-8766-12DC-8D9857209AB6}
    PERF 0
    MIDIOUT -1
    MAINSEND 1 0
    <FXCHAIN
      WNDRECT 346 266 902 608
      SHOW 0
      LASTSEL 5
      DOCKED 0
      BYPASS 0 0 0
      <VST "VST: ReaEQ (Cockos)" reaeq.vst.so 0 "" 1919247729<56535472656571726561657100000000> ""
        cWVlcu5e7f4CAAAAAQAAAAAAAAACAAAAAAAAAAIAAAABAAAAAAAAAAIAAAAAAAAAqAAAAAEAAAAAABAA
        IQAAAAQAAAAEAAAAAQAAAEC4Xhmm+DRAAAAAAAAA8D8AAAAAAAAAQAEIAAAAAQAAAAAAAAAAwHJAAAAAAAAA8D8AAAAAAAAAQAEIAAAAAQAAAAAAAAAAQI9AAAAAAAAA
        8D8AAAAAAAAAQAEDAAAAAQAAAAABaCorbdRAAAAAAAAA8D8AAAAAAAAAQAEBAAAAAQAAAAAAAAAAAPA/AAAAAJoCAACcAQAA
        AEhpZ2ggbG93IHBhc3MAEAAAAA==
      >
      PRESETNAME "High low pass"
      FLOATPOS 0 0 0 0
      FXID {30391419-C5B4-142F-EBA3-2FC4595FA6D2}
      WAK 0 0
      BYPASS 0 0 0
      <VST "VSTi: ReaSynth (Cockos)" reasynth.vst.so 0 "" 1919251321<5653547265737972656173796E746800> ""
        eXNlcu9e7f4AAAAAAgAAAAEAAAAAAAAAAgAAAAAAAAA8AAAAAAAAAAAAEAA=
        776t3g3wrd6lm8Q7F7fROgAAAAAAAAAAAAAAAJCNuT3oZ4g9AACAPwAAAD8AAIA/AAAAAAAAAD8AAAAA
        AAAQAAAA
      >
      FLOATPOS 0 0 0 0
      FXID {B5A97949-A5D7-CC81-EDEA-4C57011CAFDB}
      WAK 0 0
      BYPASS 0 0 0
      <JS guitar/amp-model ""
        "Dumble Overdrive Special - Tweed Deluxe.wav" -21.000000 1.000000 0.000000 0.000000 -1.000000 - - - - - - - - - - - - - - - - - - - - - - - - - - - - - - - - - - - - - - - - - - - - - - - - - - - - - - - - - - 
      >
      FLOATPOS 0 0 0 0
      FXID {2454D15C-6DD7-9128-6311-0E37AE2E4C7A}
      WAK 0 0
      BYPASS 0 0 0
      <VST "VST: ReaComp (Cockos)" reacomp.vst.so 0 "" 1919247213<5653547265636D726561636F6D700000> ""
        bWNlcu9e7f4EAAAAAQAAAAAAAAACAAAAAAAAAAQAAAAAAAAACAAAAAAAAAACAAAAAQAAAAAAAAACAAAAAAAAAFQAAAAAAAAAAAAQAA==
        776t3g3wrd5FoYg9/AWpPKWbxDsK16M8AAAAAAAAAAAAAIA/AAAAAAAAAAAAAAAAnNEHMwAAgD8AAAAAzMxMPQAAAAAAAAAAAAAAAAAAgD7YiZ09
        AAAQAAAA
      >
      FLOATPOS 0 0 0 0
      FXID {40919120-5064-2CE9-49A4-AB467542978C}
      WAK 0 0
      BYPASS 0 0 0
      <VST "VST: ReaDelay (Cockos)" readelay.vst.so 0 "" 1919247468<5653547265646C72656164656C617900> ""
        bGRlcu5e7f4CAAAAAQAAAAAAAAACAAAAAAAAAAIAAAABAAAAAAAAAAIAAAAAAAAA/AAAAAEAAAAAAAAA
        AAAAAAAAAAAFAAAALAAAAAIAAAAEAAAAAACAPwAAgD8AAAAAAACAPwAAAAAAAIA7vTeGNQAAgD8AAAAAAACAPwAAgD8AAIA/AAAAAAAAAAAAAIA/AAAAAAAAADwAAAAA
        AACAPwAAAAAAAIA/AACAP+87NT8AAIA/AAAAAAAAgD8AAAAAAABAPL03hjUAAIA/AAAAAAAAgD8AAIA/zk0AP6abhD4AAAAAAACAPwAAAAAAAIA8vTeGNQAAgD8AAAAA
        AACAPwAAgD8aqrU+pHA9PwAAAAAAAIA/AAAAAAAAoDy9N4Y1AACAPwAAAAAAAIA/AACAP/npAD4AAAA/
        AHN0b2NrIC0gYmFzaWMgNSB0YXAgcGluZyBwb25nAAAAAAA=
      >
      PRESETNAME "stock - basic 5 tap ping pong"
      FLOATPOS 0 0 0 0
      FXID {27EFC6FE-368D-6FCF-32F7-2C3334DE593D}
      WAK 0 0
      BYPASS 0 0 0
      <VST "VST: ReaVerb (Cockos)" reaverb.vst.so 0 "" 1919252066<56535472657662726561766572620000> ""
        YnZlcu5e7f4CAAAAAQAAAAAAAAACAAAAAAAAAAIAAAABAAAAAAAAAAIAAAAAAAAAcAAAAAEAAAAAAAAA
        AAAAwcybgD4AAIA/AAAAAAAAgD8AAIA/AAAAPwAAgD8AAAAAVkVSQkdFTgAYAAAAAAAAAJHgV0QdrLRA3rK7QsHIjEIAAIC/RUNIT0dFTgAcAAAAy/i2QLUjdUJdzdM/
        osdfP5lRrzyRzYxAnMQAPw==
        AHN3ZWV0dmVyYm8AAAAAAA==
      >
      PRESETNAME sweetverbo
      FLOATPOS 0 0 0 0
      FXID {57A3DDB5-3795-4C44-F42F-7A61DAB235CD}
      WAK 0 0
    >
    <ITEM
      POSITION 0
      SNAPOFFS 0
      LENGTH 8
      LOOP 1
      ALLTAKES 0
      FADEIN 1 0 0 1 0 0
      FADEOUT 1 0 0 1 0 0
      MUTE 0
      SEL 1
      IGUID {116E538E-687E-1660-A0FA-5A0EE9A76819}
      IID 10
      NAME "01-Recorded MIDI"
      VOLPAN 1 0 1 -1
      SOFFS 0 0
      PLAYRATE 1 1 0 -1 0 0.0021
      CHANMODE 0
      GUID {6200B2AC-6CA4-323D-F0CA-3E105E90EB44}
      RECPASS 1
      <SOURCE MIDI
        HASDATA 1 960 QN
        CCINTERP 32
        POOLEDEVTS {ED326DC4-13CF-150D-F0F6-B8963A2D7060}
        E 0 90 3c 48
        E 0 90 40 48
        E 0 90 43 48
        E 1920 80 3c 00
        E 0 80 40 00
        E 0 80 43 00
        E 0 90 3c 48
        E 0 90 40 48
        E 0 90 43 48
        E 260 80 3c 00
        E 0 80 40 00
        E 0 80 43 00
        E 440 90 3c 48
        E 0 90 40 48
        E 0 90 43 48
        E 260 80 3c 00
        E 0 80 40 00
        E 0 80 43 00
        e 514 90 3c 48
        e 0 90 40 48
        e 0 90 43 48
        e 260 80 3c 00
        e 0 80 40 00
        e 0 80 43 00
        E 186 90 43 48
        E 0 90 47 48
        E 20 90 40 48
        E 1900 80 43 00
        E 0 80 47 00
        E 0 80 40 00
        E 0 90 43 48
        E 0 90 47 48
        E 20 90 40 48
        E 240 80 43 00
        E 0 80 47 00
        E 0 80 40 00
        E 440 90 43 48
        E 0 90 47 48
        E 20 90 40 48
        E 240 80 43 00
        E 0 80 47 00
        E 0 80 40 00
        e 514 90 43 48
        e 0 90 47 48
        e 20 90 40 48
        e 240 80 43 00
        e 0 80 47 00
        e 0 80 40 00
        E 186 90 41 48
        E 0 90 45 48
        E 0 90 48 48
        E 1920 80 41 00
        E 0 80 45 00
        E 0 80 48 00
        E 0 90 41 48
        E 0 90 45 48
        E 0 90 48 48
        E 260 80 41 00
        E 0 80 45 00
        E 0 80 48 00
        E 440 90 41 48
        E 0 90 45 48
        E 0 90 48 48
        E 260 80 41 00
        E 0 80 45 00
        E 0 80 48 00
        e 514 90 41 48
        e 0 90 45 48
        e 0 90 48 48
        e 260 80 41 00
        e 0 80 45 00
        e 0 80 48 00
        E 162 90 3e 48
        E 24 90 41 48
        E 0 90 45 48
        E 1896 90 3e 48
        E 24 80 3e 00
        E 0 80 41 00
        E 0 80 45 00
        E 0 90 41 48
        E 0 90 45 48
        E 260 80 3e 00
        E 0 80 41 00
        E 0 80 45 00
        E 416 90 3e 48
        E 24 90 41 48
        E 0 90 45 48
        E 260 80 3e 00
        E 0 80 41 00
        E 0 80 45 00
        e 490 90 3e 48
        e 24 90 41 48
        e 0 90 45 48
        e 260 80 3e 00
        e 0 80 41 00
        e 0 80 45 00
        E 186 b0 7b 00
        CHASE_CC_TAKEOFFS 1
        GUID {7B9D708B-43E1-C8D4-C4B3-87E2A6C27801}
        IGNTEMPO 0 120 4 4
        SRCCOLOR 17
        VELLANE -1 100 0
        CFGEDITVIEW 0 0.045808 45 12 0 -1 0 0 0 0.5
        KEYSNAP 0
        TRACKSEL 0
        EVTFILTER 0 -1 -1 -1 -1 0 0 0 0 -1 -1 -1 -1 0 -1 0 -1 -1
        CFGEDIT 1 1 0 1 0 0 1 1 1 1 1 1 58 171 1253 866 0 0 0 0 0.25 0 0 0 0 0.5 0 0 1 64
      >
    >
    <ITEM
      POSITION 8
      SNAPOFFS 0
      LENGTH 8
      LOOP 1
      ALLTAKES 0
      FADEIN 1 0 0 1 0 0
      FADEOUT 1 0 0 1 0 0
      MUTE 0
      SEL 1
      IGUID {BAF4C7A1-7263-6C76-E3D7-226FE3E1664B}
      IID 11
      NAME "01-Recorded MIDI"
      VOLPAN 1 0 1 -1
      SOFFS 0 0
      PLAYRATE 1 1 0 -1 0 0.0021
      CHANMODE 0
      GUID {DF2236B9-6CDC-76F4-5DA5-8C5234219E36}
      RECPASS 1
      <SOURCE MIDI
        HASDATA 1 960 QN
        CCINTERP 32
        POOLEDEVTS {400559B3-BEB1-A324-95B5-9D02B4CF7BAF}
        E 0 90 3c 48
        E 0 90 40 48
        E 0 90 43 48
        E 1920 80 3c 00
        E 0 80 40 00
        E 0 80 43 00
        E 0 90 3c 48
        E 0 90 40 48
        E 0 90 43 48
        E 260 80 3c 00
        E 0 80 40 00
        E 0 80 43 00
        E 440 90 3c 48
        E 0 90 40 48
        E 0 90 43 48
        E 260 80 3c 00
        E 0 80 40 00
        E 0 80 43 00
        e 514 90 3c 48
        e 0 90 40 48
        e 0 90 43 48
        e 260 80 3c 00
        e 0 80 40 00
        e 0 80 43 00
        E 186 90 43 48
        E 0 90 47 48
        E 20 90 40 48
        E 1900 80 43 00
        E 0 80 47 00
        E 0 80 40 00
        E 0 90 43 48
        E 0 90 47 48
        E 20 90 40 48
        E 240 80 43 00
        E 0 80 47 00
        E 0 80 40 00
        E 440 90 43 48
        E 0 90 47 48
        E 20 90 40 48
        E 240 80 43 00
        E 0 80 47 00
        E 0 80 40 00
        e 514 90 43 48
        e 0 90 47 48
        e 20 90 40 48
        e 240 80 43 00
        e 0 80 47 00
        e 0 80 40 00
        E 186 90 41 48
        E 0 90 45 48
        E 0 90 48 48
        E 1920 80 41 00
        E 0 80 45 00
        E 0 80 48 00
        E 0 90 41 48
        E 0 90 45 48
        E 0 90 48 48
        E 260 80 41 00
        E 0 80 45 00
        E 0 80 48 00
        E 440 90 41 48
        E 0 90 45 48
        E 0 90 48 48
        E 260 80 41 00
        E 0 80 45 00
        E 0 80 48 00
        e 514 90 41 48
        e 0 90 45 48
        e 0 90 48 48
        e 260 80 41 00
        e 0 80 45 00
        e 0 80 48 00
        E 162 90 3e 48
        E 24 90 41 48
        E 0 90 45 48
        E 1896 90 3e 48
        E 24 80 3e 00
        E 0 80 41 00
        E 0 80 45 00
        E 0 90 41 48
        E 0 90 45 48
        E 260 80 3e 00
        E 0 80 41 00
        E 0 80 45 00
        E 416 90 3e 48
        E 24 90 41 48
        E 0 90 45 48
        E 260 80 3e 00
        E 0 80 41 00
        E 0 80 45 00
        e 490 90 3e 48
        e 24 90 41 48
        e 0 90 45 48
        e 260 80 3e 00
        e 0 80 41 00
        e 0 80 45 00
        E 186 b0 7b 00
        CHASE_CC_TAKEOFFS 1
        GUID {3131B4E2-B370-E352-A9C5-C8CA31551A86}
        IGNTEMPO 0 120 4 4
        SRCCOLOR 18
        VELLANE -1 100 0
        CFGEDITVIEW 0 0.045808 45 12 0 -1 0 0 0 0.5
        KEYSNAP 0
        TRACKSEL 0
        EVTFILTER 0 -1 -1 -1 -1 0 0 0 0 -1 -1 -1 -1 0 -1 0 -1 -1
        CFGEDIT 1 1 0 1 0 0 1 1 1 1 1 1 58 171 1253 866 0 0 0 0 0.25 0 0 0 0 0.5 0 0 1 64
      >
    >
    <ITEM
      POSITION 16
      SNAPOFFS 0
      LENGTH 8
      LOOP 1
      ALLTAKES 0
      FADEIN 1 0 0 1 0 0
      FADEOUT 1 0 0 1 0 0
      MUTE 0
      SEL 1
      IGUID {D2A809F1-FAF1-1186-14AE-D61368335AF3}
      IID 12
      NAME "01-Recorded MIDI"
      VOLPAN 1 0 1 -1
      SOFFS 0 0
      PLAYRATE 1 1 0 -1 0 0.0021
      CHANMODE 0
      GUID {1F5AF561-9EE9-E4DD-CBDF-687894E0FB4D}
      RECPASS 1
      <SOURCE MIDI
        HASDATA 1 960 QN
        CCINTERP 32
        POOLEDEVTS {F7C4B87E-6AAD-52E7-60C1-C283C6220F7A}
        E 0 90 3c 48
        E 0 90 40 48
        E 0 90 43 48
        E 1920 80 3c 00
        E 0 80 40 00
        E 0 80 43 00
        E 0 90 3c 48
        E 0 90 40 48
        E 0 90 43 48
        E 260 80 3c 00
        E 0 80 40 00
        E 0 80 43 00
        E 440 90 3c 48
        E 0 90 40 48
        E 0 90 43 48
        E 260 80 3c 00
        E 0 80 40 00
        E 0 80 43 00
        e 514 90 3c 48
        e 0 90 40 48
        e 0 90 43 48
        e 260 80 3c 00
        e 0 80 40 00
        e 0 80 43 00
        E 186 90 43 48
        E 0 90 47 48
        E 20 90 40 48
        E 1900 80 43 00
        E 0 80 47 00
        E 0 80 40 00
        E 0 90 43 48
        E 0 90 47 48
        E 20 90 40 48
        E 240 80 43 00
        E 0 80 47 00
        E 0 80 40 00
        E 440 90 43 48
        E 0 90 47 48
        E 20 90 40 48
        E 240 80 43 00
        E 0 80 47 00
        E 0 80 40 00
        e 514 90 43 48
        e 0 90 47 48
        e 20 90 40 48
        e 240 80 43 00
        e 0 80 47 00
        e 0 80 40 00
        E 186 90 41 48
        E 0 90 45 48
        E 0 90 48 48
        E 1920 80 41 00
        E 0 80 45 00
        E 0 80 48 00
        E 0 90 41 48
        E 0 90 45 48
        E 0 90 48 48
        E 260 80 41 00
        E 0 80 45 00
        E 0 80 48 00
        E 440 90 41 48
        E 0 90 45 48
        E 0 90 48 48
        E 260 80 41 00
        E 0 80 45 00
        E 0 80 48 00
        e 514 90 41 48
        e 0 90 45 48
        e 0 90 48 48
        e 260 80 41 00
        e 0 80 45 00
        e 0 80 48 00
        E 162 90 3e 48
        E 24 90 41 48
        E 0 90 45 48
        E 1896 90 3e 48
        E 24 80 3e 00
        E 0 80 41 00
        E 0 80 45 00
        E 0 90 41 48
        E 0 90 45 48
        E 260 80 3e 00
        E 0 80 41 00
        E 0 80 45 00
        E 416 90 3e 48
        E 24 90 41 48
        E 0 90 45 48
        E 260 80 3e 00
        E 0 80 41 00
        E 0 80 45 00
        e 490 90 3e 48
        e 24 90 41 48
        e 0 90 45 48
        e 260 80 3e 00
        e 0 80 41 00
        e 0 80 45 00
        E 186 b0 7b 00
        CHASE_CC_TAKEOFFS 1
        GUID {48C567A2-895C-FB9B-FDBA-0ADB7004ABF3}
        IGNTEMPO 0 120 4 4
        SRCCOLOR 19
        VELLANE -1 100 0
        CFGEDITVIEW 0 0.045808 45 12 0 -1 0 0 0 0.5
        KEYSNAP 0
        TRACKSEL 0
        EVTFILTER 0 -1 -1 -1 -1 0 0 0 0 -1 -1 -1 -1 0 -1 0 -1 -1
        CFGEDIT 1 1 0 1 0 0 1 1 1 1 1 1 58 171 1253 866 0 0 0 0 0.25 0 0 0 0 0.5 0 0 1 64
      >
    >
    <ITEM
      POSITION 24
      SNAPOFFS 0
      LENGTH 8
      LOOP 1
      ALLTAKES 0
      FADEIN 1 0 0 1 0 0
      FADEOUT 1 0 0 1 0 0
      MUTE 0
      SEL 1
      IGUID {D0824F82-00E9-C0B8-E4E5-99419BC1CCA2}
      IID 13
      NAME "01-Recorded MIDI"
      VOLPAN 1 0 1 -1
      SOFFS 0 0
      PLAYRATE 1 1 0 -1 0 0.0021
      CHANMODE 0
      GUID {93C0B18F-31AB-2D33-63B7-E3BC3260FFAE}
      RECPASS 1
      <SOURCE MIDI
        HASDATA 1 960 QN
        CCINTERP 32
        POOLEDEVTS {5C39CF0F-A99E-BCEC-7B16-9BE7859DD316}
        E 0 90 3c 48
        E 0 90 40 48
        E 0 90 43 48
        E 1920 80 3c 00
        E 0 80 40 00
        E 0 80 43 00
        E 0 90 3c 48
        E 0 90 40 48
        E 0 90 43 48
        E 260 80 3c 00
        E 0 80 40 00
        E 0 80 43 00
        E 440 90 3c 48
        E 0 90 40 48
        E 0 90 43 48
        E 260 80 3c 00
        E 0 80 40 00
        E 0 80 43 00
        e 514 90 3c 48
        e 0 90 40 48
        e 0 90 43 48
        e 260 80 3c 00
        e 0 80 40 00
        e 0 80 43 00
        E 186 90 43 48
        E 0 90 47 48
        E 20 90 40 48
        E 1900 80 43 00
        E 0 80 47 00
        E 0 80 40 00
        E 0 90 43 48
        E 0 90 47 48
        E 20 90 40 48
        E 240 80 43 00
        E 0 80 47 00
        E 0 80 40 00
        E 440 90 43 48
        E 0 90 47 48
        E 20 90 40 48
        E 240 80 43 00
        E 0 80 47 00
        E 0 80 40 00
        e 514 90 43 48
        e 0 90 47 48
        e 20 90 40 48
        e 240 80 43 00
        e 0 80 47 00
        e 0 80 40 00
        E 186 90 41 48
        E 0 90 45 48
        E 0 90 48 48
        E 1920 80 41 00
        E 0 80 45 00
        E 0 80 48 00
        E 0 90 41 48
        E 0 90 45 48
        E 0 90 48 48
        E 260 80 41 00
        E 0 80 45 00
        E 0 80 48 00
        E 440 90 41 48
        E 0 90 45 48
        E 0 90 48 48
        E 260 80 41 00
        E 0 80 45 00
        E 0 80 48 00
        e 514 90 41 48
        e 0 90 45 48
        e 0 90 48 48
        e 260 80 41 00
        e 0 80 45 00
        e 0 80 48 00
        E 162 90 3e 48
        E 24 90 41 48
        E 0 90 45 48
        E 1896 90 3e 48
        E 24 80 3e 00
        E 0 80 41 00
        E 0 80 45 00
        E 0 90 41 48
        E 0 90 45 48
        E 260 80 3e 00
        E 0 80 41 00
        E 0 80 45 00
        E 416 90 3e 48
        E 24 90 41 48
        E 0 90 45 48
        E 260 80 3e 00
        E 0 80 41 00
        E 0 80 45 00
        e 490 90 3e 48
        e 24 90 41 48
        e 0 90 45 48
        e 260 80 3e 00
        e 0 80 41 00
        e 0 80 45 00
        E 186 b0 7b 00
        CHASE_CC_TAKEOFFS 1
        GUID {1DE38800-E2A1-41B5-9C8C-3291891093B1}
        IGNTEMPO 0 120 4 4
        SRCCOLOR 20
        VELLANE -1 100 0
        CFGEDITVIEW 0 0.045808 45 12 0 -1 0 0 0 0.5
        KEYSNAP 0
        TRACKSEL 0
        EVTFILTER 0 -1 -1 -1 -1 0 0 0 0 -1 -1 -1 -1 0 -1 0 -1 -1
        CFGEDIT 1 1 0 1 0 0 1 1 1 1 1 1 58 171 1253 866 0 0 0 0 0.25 0 0 0 0 0.5 0 0 1 64
      >
    >
    <ITEM
      POSITION 32
      SNAPOFFS 0
      LENGTH 8
      LOOP 1
      ALLTAKES 0
      FADEIN 1 0 0 1 0 0
      FADEOUT 1 0 0 1 0 0
      MUTE 0
      SEL 1
      IGUID {A4495473-71BE-0A15-B2DF-692F677B281E}
      IID 14
      NAME "01-Recorded MIDI"
      VOLPAN 1 0 1 -1
      SOFFS 0 0
      PLAYRATE 1 1 0 -1 0 0.0021
      CHANMODE 0
      GUID {5B9CF01A-9C02-9BE7-4886-B0AA75EDC677}
      RECPASS 1
      <SOURCE MIDI
        HASDATA 1 960 QN
        CCINTERP 32
        POOLEDEVTS {2ACCD93A-A5A7-80D2-2F9A-0A6796390D03}
        E 0 90 3c 48
        E 0 90 40 48
        E 0 90 43 48
        E 1920 80 3c 00
        E 0 80 40 00
        E 0 80 43 00
        E 0 90 3c 48
        E 0 90 40 48
        E 0 90 43 48
        E 260 80 3c 00
        E 0 80 40 00
        E 0 80 43 00
        E 440 90 3c 48
        E 0 90 40 48
        E 0 90 43 48
        E 260 80 3c 00
        E 0 80 40 00
        E 0 80 43 00
        e 514 90 3c 48
        e 0 90 40 48
        e 0 90 43 48
        e 260 80 3c 00
        e 0 80 40 00
        e 0 80 43 00
        E 186 90 43 48
        E 0 90 47 48
        E 20 90 40 48
        E 1900 80 43 00
        E 0 80 47 00
        E 0 80 40 00
        E 0 90 43 48
        E 0 90 47 48
        E 20 90 40 48
        E 240 80 43 00
        E 0 80 47 00
        E 0 80 40 00
        E 440 90 43 48
        E 0 90 47 48
        E 20 90 40 48
        E 240 80 43 00
        E 0 80 47 00
        E 0 80 40 00
        e 514 90 43 48
        e 0 90 47 48
        e 20 90 40 48
        e 240 80 43 00
        e 0 80 47 00
        e 0 80 40 00
        E 186 90 41 48
        E 0 90 45 48
        E 0 90 48 48
        E 1920 80 41 00
        E 0 80 45 00
        E 0 80 48 00
        E 0 90 41 48
        E 0 90 45 48
        E 0 90 48 48
        E 260 80 41 00
        E 0 80 45 00
        E 0 80 48 00
        E 440 90 41 48
        E 0 90 45 48
        E 0 90 48 48
        E 260 80 41 00
        E 0 80 45 00
        E 0 80 48 00
        e 514 90 41 48
        e 0 90 45 48
        e 0 90 48 48
        e 260 80 41 00
        e 0 80 45 00
        e 0 80 48 00
        E 162 90 3e 48
        E 24 90 41 48
        E 0 90 45 48
        E 1896 90 3e 48
        E 24 80 3e 00
        E 0 80 41 00
        E 0 80 45 00
        E 0 90 41 48
        E 0 90 45 48
        E 260 80 3e 00
        E 0 80 41 00
        E 0 80 45 00
        E 416 90 3e 48
        E 24 90 41 48
        E 0 90 45 48
        E 260 80 3e 00
        E 0 80 41 00
        E 0 80 45 00
        e 490 90 3e 48
        e 24 90 41 48
        e 0 90 45 48
        e 260 80 3e 00
        e 0 80 41 00
        e 0 80 45 00
        E 186 b0 7b 00
        CHASE_CC_TAKEOFFS 1
        GUID {0C3271F4-E233-9088-9B25-A722FAE7C579}
        IGNTEMPO 0 120 4 4
        SRCCOLOR 21
        VELLANE -1 100 0
        CFGEDITVIEW 0 0.045808 45 12 0 -1 0 0 0 0.5
        KEYSNAP 0
        TRACKSEL 0
        EVTFILTER 0 -1 -1 -1 -1 0 0 0 0 -1 -1 -1 -1 0 -1 0 -1 -1
        CFGEDIT 1 1 0 1 0 0 1 1 1 1 1 1 58 171 1253 866 0 0 0 0 0.25 0 0 0 0 0.5 0 0 1 64
      >
    >
    <ITEM
      POSITION 40
      SNAPOFFS 0
      LENGTH 8
      LOOP 1
      ALLTAKES 0
      FADEIN 1 0 0 1 0 0
      FADEOUT 1 0 0 1 0 0
      MUTE 0
      SEL 1
      IGUID {423800FF-5823-147D-3232-80521B692DD9}
      IID 15
      NAME "01-Recorded MIDI"
      VOLPAN 1 0 1 -1
      SOFFS 0 0
      PLAYRATE 1 1 0 -1 0 0.0021
      CHANMODE 0
      GUID {92CE05AD-5717-D57F-FD1F-5CEAE65900A9}
      RECPASS 1
      <SOURCE MIDI
        HASDATA 1 960 QN
        CCINTERP 32
        POOLEDEVTS {2D427715-7C75-E525-B47C-E139FBF17015}
        E 0 90 3c 48
        E 0 90 40 48
        E 0 90 43 48
        E 1920 80 3c 00
        E 0 80 40 00
        E 0 80 43 00
        E 0 90 3c 48
        E 0 90 40 48
        E 0 90 43 48
        E 260 80 3c 00
        E 0 80 40 00
        E 0 80 43 00
        E 440 90 3c 48
        E 0 90 40 48
        E 0 90 43 48
        E 260 80 3c 00
        E 0 80 40 00
        E 0 80 43 00
        e 514 90 3c 48
        e 0 90 40 48
        e 0 90 43 48
        e 260 80 3c 00
        e 0 80 40 00
        e 0 80 43 00
        E 186 90 43 48
        E 0 90 47 48
        E 20 90 40 48
        E 1900 80 43 00
        E 0 80 47 00
        E 0 80 40 00
        E 0 90 43 48
        E 0 90 47 48
        E 20 90 40 48
        E 240 80 43 00
        E 0 80 47 00
        E 0 80 40 00
        E 440 90 43 48
        E 0 90 47 48
        E 20 90 40 48
        E 240 80 43 00
        E 0 80 47 00
        E 0 80 40 00
        e 514 90 43 48
        e 0 90 47 48
        e 20 90 40 48
        e 240 80 43 00
        e 0 80 47 00
        e 0 80 40 00
        E 186 90 41 48
        E 0 90 45 48
        E 0 90 48 48
        E 1920 80 41 00
        E 0 80 45 00
        E 0 80 48 00
        E 0 90 41 48
        E 0 90 45 48
        E 0 90 48 48
        E 260 80 41 00
        E 0 80 45 00
        E 0 80 48 00
        E 440 90 41 48
        E 0 90 45 48
        E 0 90 48 48
        E 260 80 41 00
        E 0 80 45 00
        E 0 80 48 00
        e 514 90 41 48
        e 0 90 45 48
        e 0 90 48 48
        e 260 80 41 00
        e 0 80 45 00
        e 0 80 48 00
        E 162 90 3e 48
        E 24 90 41 48
        E 0 90 45 48
        E 1896 90 3e 48
        E 24 80 3e 00
        E 0 80 41 00
        E 0 80 45 00
        E 0 90 41 48
        E 0 90 45 48
        E 260 80 3e 00
        E 0 80 41 00
        E 0 80 45 00
        E 416 90 3e 48
        E 24 90 41 48
        E 0 90 45 48
        E 260 80 3e 00
        E 0 80 41 00
        E 0 80 45 00
        e 490 90 3e 48
        e 24 90 41 48
        e 0 90 45 48
        e 260 80 3e 00
        e 0 80 41 00
        e 0 80 45 00
        E 186 b0 7b 00
        CHASE_CC_TAKEOFFS 1
        GUID {040E7AF8-3572-5D91-3C86-797AEE7444D4}
        IGNTEMPO 0 120 4 4
        SRCCOLOR 22
        VELLANE -1 100 0
        CFGEDITVIEW 0 0.045808 45 12 0 -1 0 0 0 0.5
        KEYSNAP 0
        TRACKSEL 0
        EVTFILTER 0 -1 -1 -1 -1 0 0 0 0 -1 -1 -1 -1 0 -1 0 -1 -1
        CFGEDIT 1 1 0 1 0 0 1 1 1 1 1 1 58 171 1253 866 0 0 0 0 0.25 0 0 0 0 0.5 0 0 1 64
      >
    >
    <ITEM
      POSITION 48
      SNAPOFFS 0
      LENGTH 8
      LOOP 1
      ALLTAKES 0
      FADEIN 1 0 0 1 0 0
      FADEOUT 1 0 0 1 0 0
      MUTE 0
      SEL 1
      IGUID {26FC64AE-1860-9C91-42DF-E79D70597571}
      IID 16
      NAME "01-Recorded MIDI"
      VOLPAN 1 0 1 -1
      SOFFS 0 0
      PLAYRATE 1 1 0 -1 0 0.0021
      CHANMODE 0
      GUID {D6D7CA96-53F3-B715-4734-9858A4579DD6}
      RECPASS 1
      <SOURCE MIDI
        HASDATA 1 960 QN
        CCINTERP 32
        POOLEDEVTS {85A3FEE7-2330-C114-F4A5-3AA4338E80AB}
        E 0 90 3c 48
        E 0 90 40 48
        E 0 90 43 48
        E 1920 80 3c 00
        E 0 80 40 00
        E 0 80 43 00
        E 0 90 3c 48
        E 0 90 40 48
        E 0 90 43 48
        E 260 80 3c 00
        E 0 80 40 00
        E 0 80 43 00
        E 440 90 3c 48
        E 0 90 40 48
        E 0 90 43 48
        E 260 80 3c 00
        E 0 80 40 00
        E 0 80 43 00
        e 514 90 3c 48
        e 0 90 40 48
        e 0 90 43 48
        e 260 80 3c 00
        e 0 80 40 00
        e 0 80 43 00
        E 186 90 43 48
        E 0 90 47 48
        E 20 90 40 48
        E 1900 80 43 00
        E 0 80 47 00
        E 0 80 40 00
        E 0 90 43 48
        E 0 90 47 48
        E 20 90 40 48
        E 240 80 43 00
        E 0 80 47 00
        E 0 80 40 00
        E 440 90 43 48
        E 0 90 47 48
        E 20 90 40 48
        E 240 80 43 00
        E 0 80 47 00
        E 0 80 40 00
        e 514 90 43 48
        e 0 90 47 48
        e 20 90 40 48
        e 240 80 43 00
        e 0 80 47 00
        e 0 80 40 00
        E 186 90 41 48
        E 0 90 45 48
        E 0 90 48 48
        E 1920 80 41 00
        E 0 80 45 00
        E 0 80 48 00
        E 0 90 41 48
        E 0 90 45 48
        E 0 90 48 48
        E 260 80 41 00
        E 0 80 45 00
        E 0 80 48 00
        E 440 90 41 48
        E 0 90 45 48
        E 0 90 48 48
        E 260 80 41 00
        E 0 80 45 00
        E 0 80 48 00
        e 514 90 41 48
        e 0 90 45 48
        e 0 90 48 48
        e 260 80 41 00
        e 0 80 45 00
        e 0 80 48 00
        E 162 90 3e 48
        E 24 90 41 48
        E 0 90 45 48
        E 1896 90 3e 48
        E 24 80 3e 00
        E 0 80 41 00
        E 0 80 45 00
        E 0 90 41 48
        E 0 90 45 48
        E 260 80 3e 00
        E 0 80 41 00
        E 0 80 45 00
        E 416 90 3e 48
        E 24 90 41 48
        E 0 90 45 48
        E 260 80 3e 00
        E 0 80 41 00
        E 0 80 45 00
        e 490 90 3e 48
        e 24 90 41 48
        e 0 90 45 48
        e 260 80 3e 00
        e 0 80 41 00
        e 0 80 45 00
        E 186 b0 7b 00
        CHASE_CC_TAKEOFFS 1
        GUID {2338968B-6CF9-9F40-300F-DEB89D3392EA}
        IGNTEMPO 0 120 4 4
        SRCCOLOR 23
        VELLANE -1 100 0
        CFGEDITVIEW 0 0.045808 45 12 0 -1 0 0 0 0.5
        KEYSNAP 0
        TRACKSEL 0
        EVTFILTER 0 -1 -1 -1 -1 0 0 0 0 -1 -1 -1 -1 0 -1 0 -1 -1
        CFGEDIT 1 1 0 1 0 0 1 1 1 1 1 1 58 171 1253 866 0 0 0 0 0.25 0 0 0 0 0.5 0 0 1 64
      >
    >
    <ITEM
      POSITION 56
      SNAPOFFS 0
      LENGTH 8
      LOOP 1
      ALLTAKES 0
      FADEIN 1 0 0 1 0 0
      FADEOUT 1 0 0 1 0 0
      MUTE 0
      SEL 1
      IGUID {6DF9657F-72EA-47A7-2E44-CCF84D078587}
      IID 17
      NAME "01-Recorded MIDI"
      VOLPAN 1 0 1 -1
      SOFFS 0 0
      PLAYRATE 1 1 0 -1 0 0.0021
      CHANMODE 0
      GUID {AEA9F8BA-DA16-031E-BB82-4485A2F42BBB}
      RECPASS 1
      <SOURCE MIDI
        HASDATA 1 960 QN
        CCINTERP 32
        POOLEDEVTS {D8347440-17C3-AF6C-64D4-DCDCB9B81116}
        E 0 90 3c 48
        E 0 90 40 48
        E 0 90 43 48
        E 1920 80 3c 00
        E 0 80 40 00
        E 0 80 43 00
        E 0 90 3c 48
        E 0 90 40 48
        E 0 90 43 48
        E 260 80 3c 00
        E 0 80 40 00
        E 0 80 43 00
        E 440 90 3c 48
        E 0 90 40 48
        E 0 90 43 48
        E 260 80 3c 00
        E 0 80 40 00
        E 0 80 43 00
        e 514 90 3c 48
        e 0 90 40 48
        e 0 90 43 48
        e 260 80 3c 00
        e 0 80 40 00
        e 0 80 43 00
        E 186 90 43 48
        E 0 90 47 48
        E 20 90 40 48
        E 1900 80 43 00
        E 0 80 47 00
        E 0 80 40 00
        E 0 90 43 48
        E 0 90 47 48
        E 20 90 40 48
        E 240 80 43 00
        E 0 80 47 00
        E 0 80 40 00
        E 440 90 43 48
        E 0 90 47 48
        E 20 90 40 48
        E 240 80 43 00
        E 0 80 47 00
        E 0 80 40 00
        e 514 90 43 48
        e 0 90 47 48
        e 20 90 40 48
        e 240 80 43 00
        e 0 80 47 00
        e 0 80 40 00
        E 186 90 41 48
        E 0 90 45 48
        E 0 90 48 48
        E 1920 80 41 00
        E 0 80 45 00
        E 0 80 48 00
        E 0 90 41 48
        E 0 90 45 48
        E 0 90 48 48
        E 260 80 41 00
        E 0 80 45 00
        E 0 80 48 00
        E 440 90 41 48
        E 0 90 45 48
        E 0 90 48 48
        E 260 80 41 00
        E 0 80 45 00
        E 0 80 48 00
        e 514 90 41 48
        e 0 90 45 48
        e 0 90 48 48
        e 260 80 41 00
        e 0 80 45 00
        e 0 80 48 00
        E 162 90 3e 48
        E 24 90 41 48
        E 0 90 45 48
        E 1896 90 3e 48
        E 24 80 3e 00
        E 0 80 41 00
        E 0 80 45 00
        E 0 90 41 48
        E 0 90 45 48
        E 260 80 3e 00
        E 0 80 41 00
        E 0 80 45 00
        E 416 90 3e 48
        E 24 90 41 48
        E 0 90 45 48
        E 260 80 3e 00
        E 0 80 41 00
        E 0 80 45 00
        e 490 90 3e 48
        e 24 90 41 48
        e 0 90 45 48
        e 260 80 3e 00
        e 0 80 41 00
        e 0 80 45 00
        E 186 b0 7b 00
        CHASE_CC_TAKEOFFS 1
        GUID {A64857E2-94F8-0990-20DF-4C1E9B5E6251}
        IGNTEMPO 0 120 4 4
        SRCCOLOR 24
        VELLANE -1 100 0
        CFGEDITVIEW 0 0.045808 45 12 0 -1 0 0 0 0.5
        KEYSNAP 0
        TRACKSEL 0
        EVTFILTER 0 -1 -1 -1 -1 0 0 0 0 -1 -1 -1 -1 0 -1 0 -1 -1
        CFGEDIT 1 1 0 1 0 0 1 1 1 1 1 1 58 171 1253 866 0 0 0 0 0.25 0 0 0 0 0.5 0 0 1 64
      >
    >
    <ITEM
      POSITION 64
      SNAPOFFS 0
      LENGTH 8
      LOOP 1
      ALLTAKES 0
      FADEIN 1 0 0 1 0 0
      FADEOUT 1 0 0 1 0 0
      MUTE 0
      SEL 1
      IGUID {D5EA9852-66FD-02C6-38EF-947F8990578E}
      IID 18
      NAME "01-Recorded MIDI"
      VOLPAN 1 0 1 -1
      SOFFS 0 0
      PLAYRATE 1 1 0 -1 0 0.0021
      CHANMODE 0
      GUID {9822BE8D-EFCD-9C69-3919-150216076076}
      RECPASS 1
      <SOURCE MIDI
        HASDATA 1 960 QN
        CCINTERP 32
        POOLEDEVTS {B1FDE3EA-819B-5239-11FD-AA3D3556B3C6}
        E 0 90 3c 48
        E 0 90 40 48
        E 0 90 43 48
        E 1920 80 3c 00
        E 0 80 40 00
        E 0 80 43 00
        E 0 90 3c 48
        E 0 90 40 48
        E 0 90 43 48
        E 260 80 3c 00
        E 0 80 40 00
        E 0 80 43 00
        E 440 90 3c 48
        E 0 90 40 48
        E 0 90 43 48
        E 260 80 3c 00
        E 0 80 40 00
        E 0 80 43 00
        e 514 90 3c 48
        e 0 90 40 48
        e 0 90 43 48
        e 260 80 3c 00
        e 0 80 40 00
        e 0 80 43 00
        E 186 90 43 48
        E 0 90 47 48
        E 20 90 40 48
        E 1900 80 43 00
        E 0 80 47 00
        E 0 80 40 00
        E 0 90 43 48
        E 0 90 47 48
        E 20 90 40 48
        E 240 80 43 00
        E 0 80 47 00
        E 0 80 40 00
        E 440 90 43 48
        E 0 90 47 48
        E 20 90 40 48
        E 240 80 43 00
        E 0 80 47 00
        E 0 80 40 00
        e 514 90 43 48
        e 0 90 47 48
        e 20 90 40 48
        e 240 80 43 00
        e 0 80 47 00
        e 0 80 40 00
        E 186 90 41 48
        E 0 90 45 48
        E 0 90 48 48
        E 1920 80 41 00
        E 0 80 45 00
        E 0 80 48 00
        E 0 90 41 48
        E 0 90 45 48
        E 0 90 48 48
        E 260 80 41 00
        E 0 80 45 00
        E 0 80 48 00
        E 440 90 41 48
        E 0 90 45 48
        E 0 90 48 48
        E 260 80 41 00
        E 0 80 45 00
        E 0 80 48 00
        e 514 90 41 48
        e 0 90 45 48
        e 0 90 48 48
        e 260 80 41 00
        e 0 80 45 00
        e 0 80 48 00
        E 162 90 3e 48
        E 24 90 41 48
        E 0 90 45 48
        E 1896 90 3e 48
        E 24 80 3e 00
        E 0 80 41 00
        E 0 80 45 00
        E 0 90 41 48
        E 0 90 45 48
        E 260 80 3e 00
        E 0 80 41 00
        E 0 80 45 00
        E 416 90 3e 48
        E 24 90 41 48
        E 0 90 45 48
        E 260 80 3e 00
        E 0 80 41 00
        E 0 80 45 00
        e 490 90 3e 48
        e 24 90 41 48
        e 0 90 45 48
        e 260 80 3e 00
        e 0 80 41 00
        e 0 80 45 00
        E 186 b0 7b 00
        CHASE_CC_TAKEOFFS 1
        GUID {19362806-85F2-5D9E-E1F9-07BE0CF3D16E}
        IGNTEMPO 0 120 4 4
        SRCCOLOR 25
        VELLANE -1 100 0
        CFGEDITVIEW 0 0.045808 45 12 0 -1 0 0 0 0.5
        KEYSNAP 0
        TRACKSEL 0
        EVTFILTER 0 -1 -1 -1 -1 0 0 0 0 -1 -1 -1 -1 0 -1 0 -1 -1
        CFGEDIT 1 1 0 1 0 0 1 1 1 1 1 1 58 171 1253 866 0 0 0 0 0.25 0 0 0 0 0.5 0 0 1 64
      >
    >
    <ITEM
      POSITION 72
      SNAPOFFS 0
      LENGTH 8
      LOOP 1
      ALLTAKES 0
      FADEIN 1 0 0 1 0 0
      FADEOUT 1 0 0 1 0 0
      MUTE 0
      SEL 1
      IGUID {C78796E5-5C43-93E1-A2A9-63053747A341}
      IID 19
      NAME "01-Recorded MIDI"
      VOLPAN 1 0 1 -1
      SOFFS 0 0
      PLAYRATE 1 1 0 -1 0 0.0021
      CHANMODE 0
      GUID {75E52FE3-EA70-D280-B1D5-5189988EF1E0}
      RECPASS 1
      <SOURCE MIDI
        HASDATA 1 960 QN
        CCINTERP 32
        POOLEDEVTS {B6203857-6BE1-E369-EA84-C0D4ACB80718}
        E 0 90 3c 48
        E 0 90 40 48
        E 0 90 43 48
        E 1920 80 3c 00
        E 0 80 40 00
        E 0 80 43 00
        E 0 90 3c 48
        E 0 90 40 48
        E 0 90 43 48
        E 260 80 3c 00
        E 0 80 40 00
        E 0 80 43 00
        E 440 90 3c 48
        E 0 90 40 48
        E 0 90 43 48
        E 260 80 3c 00
        E 0 80 40 00
        E 0 80 43 00
        e 514 90 3c 48
        e 0 90 40 48
        e 0 90 43 48
        e 260 80 3c 00
        e 0 80 40 00
        e 0 80 43 00
        E 186 90 43 48
        E 0 90 47 48
        E 20 90 40 48
        E 1900 80 43 00
        E 0 80 47 00
        E 0 80 40 00
        E 0 90 43 48
        E 0 90 47 48
        E 20 90 40 48
        E 240 80 43 00
        E 0 80 47 00
        E 0 80 40 00
        E 440 90 43 48
        E 0 90 47 48
        E 20 90 40 48
        E 240 80 43 00
        E 0 80 47 00
        E 0 80 40 00
        e 514 90 43 48
        e 0 90 47 48
        e 20 90 40 48
        e 240 80 43 00
        e 0 80 47 00
        e 0 80 40 00
        E 186 90 41 48
        E 0 90 45 48
        E 0 90 48 48
        E 1920 80 41 00
        E 0 80 45 00
        E 0 80 48 00
        E 0 90 41 48
        E 0 90 45 48
        E 0 90 48 48
        E 260 80 41 00
        E 0 80 45 00
        E 0 80 48 00
        E 440 90 41 48
        E 0 90 45 48
        E 0 90 48 48
        E 260 80 41 00
        E 0 80 45 00
        E 0 80 48 00
        e 514 90 41 48
        e 0 90 45 48
        e 0 90 48 48
        e 260 80 41 00
        e 0 80 45 00
        e 0 80 48 00
        E 162 90 3e 48
        E 24 90 41 48
        E 0 90 45 48
        E 1896 90 3e 48
        E 24 80 3e 00
        E 0 80 41 00
        E 0 80 45 00
        E 0 90 41 48
        E 0 90 45 48
        E 260 80 3e 00
        E 0 80 41 00
        E 0 80 45 00
        E 416 90 3e 48
        E 24 90 41 48
        E 0 90 45 48
        E 260 80 3e 00
        E 0 80 41 00
        E 0 80 45 00
        e 490 90 3e 48
        e 24 90 41 48
        e 0 90 45 48
        e 260 80 3e 00
        e 0 80 41 00
        e 0 80 45 00
        E 186 b0 7b 00
        CHASE_CC_TAKEOFFS 1
        GUID {6844F8A9-6BE9-023C-4A46-0A676470C99B}
        IGNTEMPO 0 120 4 4
        SRCCOLOR 26
        VELLANE -1 100 0
        CFGEDITVIEW 0 0.045808 45 12 0 -1 0 0 0 0.5
        KEYSNAP 0
        TRACKSEL 0
        EVTFILTER 0 -1 -1 -1 -1 0 0 0 0 -1 -1 -1 -1 0 -1 0 -1 -1
        CFGEDIT 1 1 0 1 0 0 1 1 1 1 1 1 58 171 1253 866 0 0 0 0 0.25 0 0 0 0 0.5 0 0 1 64
      >
    >
    <ITEM
      POSITION 80
      SNAPOFFS 0
      LENGTH 8
      LOOP 1
      ALLTAKES 0
      FADEIN 1 0 0 1 0 0
      FADEOUT 1 0 0 1 0 0
      MUTE 0
      SEL 1
      IGUID {A99B665C-D2F5-0118-FC3C-252B10AF76B9}
      IID 20
      NAME "01-Recorded MIDI"
      VOLPAN 1 0 1 -1
      SOFFS 0 0
      PLAYRATE 1 1 0 -1 0 0.0021
      CHANMODE 0
      GUID {CB6D6965-A371-1D82-1D74-38BF472800C8}
      RECPASS 1
      <SOURCE MIDI
        HASDATA 1 960 QN
        CCINTERP 32
        POOLEDEVTS {E9602EB1-8F89-AF2E-BDCE-7A9D357BD0EB}
        E 0 90 3c 48
        E 0 90 40 48
        E 0 90 43 48
        E 1920 80 3c 00
        E 0 80 40 00
        E 0 80 43 00
        E 0 90 3c 48
        E 0 90 40 48
        E 0 90 43 48
        E 260 80 3c 00
        E 0 80 40 00
        E 0 80 43 00
        E 440 90 3c 48
        E 0 90 40 48
        E 0 90 43 48
        E 260 80 3c 00
        E 0 80 40 00
        E 0 80 43 00
        e 514 90 3c 48
        e 0 90 40 48
        e 0 90 43 48
        e 260 80 3c 00
        e 0 80 40 00
        e 0 80 43 00
        E 186 90 43 48
        E 0 90 47 48
        E 20 90 40 48
        E 1900 80 43 00
        E 0 80 47 00
        E 0 80 40 00
        E 0 90 43 48
        E 0 90 47 48
        E 20 90 40 48
        E 240 80 43 00
        E 0 80 47 00
        E 0 80 40 00
        E 440 90 43 48
        E 0 90 47 48
        E 20 90 40 48
        E 240 80 43 00
        E 0 80 47 00
        E 0 80 40 00
        e 514 90 43 48
        e 0 90 47 48
        e 20 90 40 48
        e 240 80 43 00
        e 0 80 47 00
        e 0 80 40 00
        E 186 90 41 48
        E 0 90 45 48
        E 0 90 48 48
        E 1920 80 41 00
        E 0 80 45 00
        E 0 80 48 00
        E 0 90 41 48
        E 0 90 45 48
        E 0 90 48 48
        E 260 80 41 00
        E 0 80 45 00
        E 0 80 48 00
        E 440 90 41 48
        E 0 90 45 48
        E 0 90 48 48
        E 260 80 41 00
        E 0 80 45 00
        E 0 80 48 00
        e 514 90 41 48
        e 0 90 45 48
        e 0 90 48 48
        e 260 80 41 00
        e 0 80 45 00
        e 0 80 48 00
        E 162 90 3e 48
        E 24 90 41 48
        E 0 90 45 48
        E 1896 90 3e 48
        E 24 80 3e 00
        E 0 80 41 00
        E 0 80 45 00
        E 0 90 41 48
        E 0 90 45 48
        E 260 80 3e 00
        E 0 80 41 00
        E 0 80 45 00
        E 416 90 3e 48
        E 24 90 41 48
        E 0 90 45 48
        E 260 80 3e 00
        E 0 80 41 00
        E 0 80 45 00
        e 490 90 3e 48
        e 24 90 41 48
        e 0 90 45 48
        e 260 80 3e 00
        e 0 80 41 00
        e 0 80 45 00
        E 186 b0 7b 00
        CHASE_CC_TAKEOFFS 1
        GUID {E611ADB6-4869-6CCA-8E83-3954D5E743B1}
        IGNTEMPO 0 120 4 4
        SRCCOLOR 27
        VELLANE -1 100 0
        CFGEDITVIEW 0 0.045808 45 12 0 -1 0 0 0 0.5
        KEYSNAP 0
        TRACKSEL 0
        EVTFILTER 0 -1 -1 -1 -1 0 0 0 0 -1 -1 -1 -1 0 -1 0 -1 -1
        CFGEDIT 1 1 0 1 0 0 1 1 1 1 1 1 58 171 1253 866 0 0 0 0 0.25 0 0 0 0 0.5 0 0 1 64
      >
    >
    <ITEM
      POSITION 88
      SNAPOFFS 0
      LENGTH 8
      LOOP 1
      ALLTAKES 0
      FADEIN 1 0 0 1 0 0
      FADEOUT 1 0 0 1 0 0
      MUTE 0
      SEL 1
      IGUID {ABB5F198-F758-C8AF-2F89-929A2655BD6F}
      IID 21
      NAME "01-Recorded MIDI"
      VOLPAN 1 0 1 -1
      SOFFS 0 0
      PLAYRATE 1 1 0 -1 0 0.0021
      CHANMODE 0
      GUID {243824EC-7791-F912-76F7-984FDB71F48D}
      RECPASS 1
      <SOURCE MIDI
        HASDATA 1 960 QN
        CCINTERP 32
        POOLEDEVTS {9465087F-4315-4EA9-561E-EDB9CF9A7C8F}
        E 0 90 3c 48
        E 0 90 40 48
        E 0 90 43 48
        E 1920 80 3c 00
        E 0 80 40 00
        E 0 80 43 00
        E 0 90 3c 48
        E 0 90 40 48
        E 0 90 43 48
        E 260 80 3c 00
        E 0 80 40 00
        E 0 80 43 00
        E 440 90 3c 48
        E 0 90 40 48
        E 0 90 43 48
        E 260 80 3c 00
        E 0 80 40 00
        E 0 80 43 00
        e 514 90 3c 48
        e 0 90 40 48
        e 0 90 43 48
        e 260 80 3c 00
        e 0 80 40 00
        e 0 80 43 00
        E 186 90 43 48
        E 0 90 47 48
        E 20 90 40 48
        E 1900 80 43 00
        E 0 80 47 00
        E 0 80 40 00
        E 0 90 43 48
        E 0 90 47 48
        E 20 90 40 48
        E 240 80 43 00
        E 0 80 47 00
        E 0 80 40 00
        E 440 90 43 48
        E 0 90 47 48
        E 20 90 40 48
        E 240 80 43 00
        E 0 80 47 00
        E 0 80 40 00
        e 514 90 43 48
        e 0 90 47 48
        e 20 90 40 48
        e 240 80 43 00
        e 0 80 47 00
        e 0 80 40 00
        E 186 90 41 48
        E 0 90 45 48
        E 0 90 48 48
        E 1920 80 41 00
        E 0 80 45 00
        E 0 80 48 00
        E 0 90 41 48
        E 0 90 45 48
        E 0 90 48 48
        E 260 80 41 00
        E 0 80 45 00
        E 0 80 48 00
        E 440 90 41 48
        E 0 90 45 48
        E 0 90 48 48
        E 260 80 41 00
        E 0 80 45 00
        E 0 80 48 00
        e 514 90 41 48
        e 0 90 45 48
        e 0 90 48 48
        e 260 80 41 00
        e 0 80 45 00
        e 0 80 48 00
        E 162 90 3e 48
        E 24 90 41 48
        E 0 90 45 48
        E 1896 90 3e 48
        E 24 80 3e 00
        E 0 80 41 00
        E 0 80 45 00
        E 0 90 41 48
        E 0 90 45 48
        E 260 80 3e 00
        E 0 80 41 00
        E 0 80 45 00
        E 416 90 3e 48
        E 24 90 41 48
        E 0 90 45 48
        E 260 80 3e 00
        E 0 80 41 00
        E 0 80 45 00
        e 490 90 3e 48
        e 24 90 41 48
        e 0 90 45 48
        e 260 80 3e 00
        e 0 80 41 00
        e 0 80 45 00
        E 186 b0 7b 00
        CHASE_CC_TAKEOFFS 1
        GUID {C762B555-17FC-D765-5340-11D3487D2955}
        IGNTEMPO 0 120 4 4
        SRCCOLOR 28
        VELLANE -1 100 0
        CFGEDITVIEW 0 0.045808 45 12 0 -1 0 0 0 0.5
        KEYSNAP 0
        TRACKSEL 0
        EVTFILTER 0 -1 -1 -1 -1 0 0 0 0 -1 -1 -1 -1 0 -1 0 -1 -1
        CFGEDIT 1 1 0 1 0 0 1 1 1 1 1 1 58 171 1253 866 0 0 0 0 0.25 0 0 0 0 0.5 0 0 1 64
      >
    >
  >
  <TRACK {4563E6D1-9545-0420-6CB8-BF8E046D3090}
    NAME ""
    PEAKCOL 16576
    BEAT -1
    AUTOMODE 0
    VOLPAN 0.00052194381917 0 -1 -1 1
    MUTESOLO 0 0 0
    IPHASE 0
    PLAYOFFS 0 1
    ISBUS 0 0
    BUSCOMP 0 0 0 0 0
    SHOWINMIX 1 0.6667 0.5 1 0.5 0 0 0
    FREEMODE 0
    SEL 0
    REC 0 5056 1 0 0 0 0
    VU 2
    TRACKHEIGHT 21 0 0
    INQ 0 0 0 0.5 100 0 0 100
    NCHAN 2
    FX 0
    TRACKID {4563E6D1-9545-0420-6CB8-BF8E046D3090}
    PERF 0
    MIDIOUT -1
    MAINSEND 1 0
    <FXCHAIN
      WNDRECT 346 266 902 608
      SHOW 0
      LASTSEL 5
      DOCKED 0
      BYPASS 0 0 0
      <VST "VST: ReaEQ (Cockos)" reaeq.vst.so 0 "" 1919247729<56535472656571726561657100000000> ""
        cWVlcu5e7f4CAAAAAQAAAAAAAAACAAAAAAAAAAIAAAABAAAAAAAAAAIAAAAAAAAAqAAAAAEAAAAAABAA
        IQAAAAQAAAAEAAAAAQAAAEC4Xhmm+DRAAAAAAAAA8D8AAAAAAAAAQAEIAAAAAQAAAAAAAAAAwHJAAAAAAAAA8D8AAAAAAAAAQAEIAAAAAQAAAAAAAAAAQI9AAAAAAAAA
        8D8AAAAAAAAAQAEDAAAAAQAAAAABaCorbdRAAAAAAAAA8D8AAAAAAAAAQAEBAAAAAQAAAAAAAAAAAPA/AAAAAJoCAACcAQAA
        AEhpZ2ggbG93IHBhc3MAEAAAAA==
      >
      PRESETNAME "High low pass"
      FLOATPOS 0 0 0 0
      FXID {9F6963D7-55A5-D988-C547-46CA44DF4735}
      WAK 0 0
      BYPASS 0 0 0
      <VST "VSTi: ReaSynth (Cockos)" reasynth.vst.so 0 "" 1919251321<5653547265737972656173796E746800> ""
        eXNlcu9e7f4AAAAAAgAAAAEAAAAAAAAAAgAAAAAAAAA8AAAAAAAAAAAAEAA=
        776t3g3wrd6lm8Q7F7fROgAAAAAAAAAAAAAAAJCNuT3oZ4g9AACAPwAAAD8AAIA/AAAAAAAAAD8AAAAA
        AAAQAAAA
      >
      FLOATPOS 0 0 0 0
      FXID {47638F59-9948-8093-FFF5-97211CD8331F}
      WAK 0 0
      BYPASS 0 0 0
      <JS guitar/amp-model ""
        "Dumble Overdrive Special - Tweed Deluxe.wav" -21.000000 1.000000 0.000000 0.000000 -1.000000 - - - - - - - - - - - - - - - - - - - - - - - - - - - - - - - - - - - - - - - - - - - - - - - - - - - - - - - - - - 
      >
      FLOATPOS 0 0 0 0
      FXID {800C3D7C-815B-527C-F94E-9A6229A03ED5}
      WAK 0 0
      BYPASS 0 0 0
      <VST "VST: ReaComp (Cockos)" reacomp.vst.so 0 "" 1919247213<5653547265636D726561636F6D700000> ""
        bWNlcu9e7f4EAAAAAQAAAAAAAAACAAAAAAAAAAQAAAAAAAAACAAAAAAAAAACAAAAAQAAAAAAAAACAAAAAAAAAFQAAAAAAAAAAAAQAA==
        776t3g3wrd5FoYg9/AWpPKWbxDsK16M8AAAAAAAAAAAAAIA/AAAAAAAAAAAAAAAAnNEHMwAAgD8AAAAAzMxMPQAAAAAAAAAAAAAAAAAAgD7YiZ09
        AAAQAAAA
      >
      FLOATPOS 0 0 0 0
      FXID {B6F92CDB-70E5-6F5E-15DB-A8F13E735BAA}
      WAK 0 0
      BYPASS 0 0 0
      <VST "VST: ReaDelay (Cockos)" readelay.vst.so 0 "" 1919247468<5653547265646C72656164656C617900> ""
        bGRlcu5e7f4CAAAAAQAAAAAAAAACAAAAAAAAAAIAAAABAAAAAAAAAAIAAAAAAAAA/AAAAAEAAAAAAAAA
        AAAAAAAAAAAFAAAALAAAAAIAAAAEAAAAAACAPwAAgD8AAAAAAACAPwAAAAAAAIA7vTeGNQAAgD8AAAAAAACAPwAAgD8AAIA/AAAAAAAAAAAAAIA/AAAAAAAAADwAAAAA
        AACAPwAAAAAAAIA/AACAP+87NT8AAIA/AAAAAAAAgD8AAAAAAABAPL03hjUAAIA/AAAAAAAAgD8AAIA/zk0AP6abhD4AAAAAAACAPwAAAAAAAIA8vTeGNQAAgD8AAAAA
        AACAPwAAgD8aqrU+pHA9PwAAAAAAAIA/AAAAAAAAoDy9N4Y1AACAPwAAAAAAAIA/AACAP/npAD4AAAA/
        AHN0b2NrIC0gYmFzaWMgNSB0YXAgcGluZyBwb25nAAAAAAA=
      >
      PRESETNAME "stock - basic 5 tap ping pong"
      FLOATPOS 0 0 0 0
      FXID {5DE06C17-9CB6-FCB5-68DB-84F8ABE82AB2}
      WAK 0 0
      BYPASS 0 0 0
      <VST "VST: ReaVerb (Cockos)" reaverb.vst.so 0 "" 1919252066<56535472657662726561766572620000> ""
        YnZlcu5e7f4CAAAAAQAAAAAAAAACAAAAAAAAAAIAAAABAAAAAAAAAAIAAAAAAAAAcAAAAAEAAAAAAAAA
        AAAAwcybgD4AAIA/AAAAAAAAgD8AAIA/AAAAPwAAgD8AAAAAVkVSQkdFTgAYAAAAAAAAAJHgV0QdrLRA3rK7QsHIjEIAAIC/RUNIT0dFTgAcAAAAy/i2QLUjdUJdzdM/
        osdfP5lRrzyRzYxAnMQAPw==
        AHN3ZWV0dmVyYm8AAAAAAA==
      >
      PRESETNAME sweetverbo
      FLOATPOS 0 0 0 0
      FXID {1051723D-A9F1-E316-83BD-C457114F4EAB}
      WAK 0 0
    >
    <ITEM
      POSITION 0
      SNAPOFFS 0
      LENGTH 8
      LOOP 1
      ALLTAKES 0
      FADEIN 1 0 0 1 0 0
      FADEOUT 1 0 0 1 0 0
      MUTE 0
      SEL 1
      IGUID {BE2C1009-29E8-0352-2C69-95F2B8444E73}
      IID 10
      NAME "01-Recorded MIDI"
      VOLPAN 1 0 1 -1
      SOFFS 0 0
      PLAYRATE 1 1 0 -1 0 0.0021
      CHANMODE 0
      GUID {1737AEA9-C3CE-99AE-15A5-B6960B854990}
      RECPASS 1
      <SOURCE MIDI
        HASDATA 1 960 QN
        CCINTERP 32
        POOLEDEVTS {598E52D7-C67D-CF8F-31FF-507C9745877A}
        E 0 90 3c 48
        E 0 90 40 48
        E 0 90 43 48
        E 1920 80 3c 00
        E 0 80 40 00
        E 0 80 43 00
        E 0 90 3c 48
        E 0 90 40 48
        E 0 90 43 48
        E 260 80 3c 00
        E 0 80 40 00
        E 0 80 43 00
        E 440 90 3c 48
        E 0 90 40 48
        E 0 90 43 48
        E 260 80 3c 00
        E 0 80 40 00
        E 0 80 43 00
        e 514 90 3c 48
        e 0 90 40 48
        e 0 90 43 48
        e 260 80 3c 00
        e 0 80 40 00
        e 0 80 43 00
        E 186 90 43 48
        E 0 90 47 48
        E 20 90 40 48
        E 1900 80 43 00
        E 0 80 47 00
        E 0 80 40 00
        E 0 90 43 48
        E 0 90 47 48
        E 20 90 40 48
        E 240 80 43 00
        E 0 80 47 00
        E 0 80 40 00
        E 440 90 43 48
        E 0 90 47 48
        E 20 90 40 48
        E 240 80 43 00
        E 0 80 47 00
        E 0 80 40 00
        e 514 90 43 48
        e 0 90 47 48
        e 20 90 40 48
        e 240 80 43 00
        e 0 80 47 00
        e 0 80 40 00
        E 186 90 41 48
        E 0 90 45 48
        E 0 90 48 48
        E 1920 80 41 00
        E 0 80 45 00
        E 0 80 48 00
        E 0 90 41 48
        E 0 90 45 48
        E 0 90 48 48
        E 260 80 41 00
        E 0 80 45 00
        E 0 80 48 00
        E 440 90 41 48
        E 0 90 45 48
        E 0 90 48 48
        E 260 80 41 00
        E 0 80 45 00
        E 0 80 48 00
        e 514 90 41 48
        e 0 90 45 48
        e 0 90 48 48
        e 260 80 41 00
        e 0 80 45 00
        e 0 80 48 00
        E 162 90 3e 48
        E 24 90 41 48
        E 0 90 45 48
        E 1896 90 3e 48
        E 24 80 3e 00
        E 0 80 41 00
        E 0 80 45 00
        E 0 90 41 48
        E 0 90 45 48
        E 260 80 3e 00
        E 0 80 41 00
        E 0 80 45 00
        E 416 90 3e 48
        E 24 90 41 48
        E 0 90 45 48
        E 260 80 3e 00
        E 0 80 41 00
        E 0 80 45 00
        e 490 90 3e 48
        e 24 90 41 48
        e 0 90 45 48
        e 260 80 3e 00
        e 0 80 41 00
        e 0 80 45 00
        E 186 b0 7b 00
        CHASE_CC_TAKEOFFS 1
        GUID {7B9D708B-43E1-C8D4-C4B3-87E2A6C27801}
        IGNTEMPO 0 120 4 4
        SRCCOLOR 17
        VELLANE -1 100 0
        CFGEDITVIEW 0 0.045808 45 12 0 -1 0 0 0 0.5
        KEYSNAP 0
        TRACKSEL 0
        EVTFILTER 0 -1 -1 -1 -1 0 0 0 0 -1 -1 -1 -1 0 -1 0 -1 -1
        CFGEDIT 1 1 0 1 0 0 1 1 1 1 1 1 58 171 1253 866 0 0 0 0 0.25 0 0 0 0 0.5 0 0 1 64
      >
    >
    <ITEM
      POSITION 8
      SNAPOFFS 0
      LENGTH 8
      LOOP 1
      ALLTAKES 0
      FADEIN 1 0 0 1 0 0
      FADEOUT 1 0 0 1 0 0
      MUTE 0
      SEL 1
      IGUID {71E8BA34-D8CC-147A-004D-FC9639F70813}
      IID 11
      NAME "01-Recorded MIDI"
      VOLPAN 1 0 1 -1
      SOFFS 0 0
      PLAYRATE 1 1 0 -1 0 0.0021
      CHANMODE 0
      GUID {D4430952-6065-1009-55E5-66B6254AE019}
      RECPASS 1
      <SOURCE MIDI
        HASDATA 1 960 QN
        CCINTERP 32
        POOLEDEVTS {F0C1C690-5EA5-8275-7A2C-75DBDD3F3ED5}
        E 0 90 3c 48
        E 0 90 40 48
        E 0 90 43 48
        E 1920 80 3c 00
        E 0 80 40 00
        E 0 80 43 00
        E 0 90 3c 48
        E 0 90 40 48
        E 0 90 43 48
        E 260 80 3c 00
        E 0 80 40 00
        E 0 80 43 00
        E 440 90 3c 48
        E 0 90 40 48
        E 0 90 43 48
        E 260 80 3c 00
        E 0 80 40 00
        E 0 80 43 00
        e 514 90 3c 48
        e 0 90 40 48
        e 0 90 43 48
        e 260 80 3c 00
        e 0 80 40 00
        e 0 80 43 00
        E 186 90 43 48
        E 0 90 47 48
        E 20 90 40 48
        E 1900 80 43 00
        E 0 80 47 00
        E 0 80 40 00
        E 0 90 43 48
        E 0 90 47 48
        E 20 90 40 48
        E 240 80 43 00
        E 0 80 47 00
        E 0 80 40 00
        E 440 90 43 48
        E 0 90 47 48
        E 20 90 40 48
        E 240 80 43 00
        E 0 80 47 00
        E 0 80 40 00
        e 514 90 43 48
        e 0 90 47 48
        e 20 90 40 48
        e 240 80 43 00
        e 0 80 47 00
        e 0 80 40 00
        E 186 90 41 48
        E 0 90 45 48
        E 0 90 48 48
        E 1920 80 41 00
        E 0 80 45 00
        E 0 80 48 00
        E 0 90 41 48
        E 0 90 45 48
        E 0 90 48 48
        E 260 80 41 00
        E 0 80 45 00
        E 0 80 48 00
        E 440 90 41 48
        E 0 90 45 48
        E 0 90 48 48
        E 260 80 41 00
        E 0 80 45 00
        E 0 80 48 00
        e 514 90 41 48
        e 0 90 45 48
        e 0 90 48 48
        e 260 80 41 00
        e 0 80 45 00
        e 0 80 48 00
        E 162 90 3e 48
        E 24 90 41 48
        E 0 90 45 48
        E 1896 90 3e 48
        E 24 80 3e 00
        E 0 80 41 00
        E 0 80 45 00
        E 0 90 41 48
        E 0 90 45 48
        E 260 80 3e 00
        E 0 80 41 00
        E 0 80 45 00
        E 416 90 3e 48
        E 24 90 41 48
        E 0 90 45 48
        E 260 80 3e 00
        E 0 80 41 00
        E 0 80 45 00
        e 490 90 3e 48
        e 24 90 41 48
        e 0 90 45 48
        e 260 80 3e 00
        e 0 80 41 00
        e 0 80 45 00
        E 186 b0 7b 00
        CHASE_CC_TAKEOFFS 1
        GUID {3131B4E2-B370-E352-A9C5-C8CA31551A86}
        IGNTEMPO 0 120 4 4
        SRCCOLOR 18
        VELLANE -1 100 0
        CFGEDITVIEW 0 0.045808 45 12 0 -1 0 0 0 0.5
        KEYSNAP 0
        TRACKSEL 0
        EVTFILTER 0 -1 -1 -1 -1 0 0 0 0 -1 -1 -1 -1 0 -1 0 -1 -1
        CFGEDIT 1 1 0 1 0 0 1 1 1 1 1 1 58 171 1253 866 0 0 0 0 0.25 0 0 0 0 0.5 0 0 1 64
      >
    >
    <ITEM
      POSITION 16
      SNAPOFFS 0
      LENGTH 8
      LOOP 1
      ALLTAKES 0
      FADEIN 1 0 0 1 0 0
      FADEOUT 1 0 0 1 0 0
      MUTE 0
      SEL 1
      IGUID {B356F506-3F55-CCC2-0523-68412666B10B}
      IID 12
      NAME "01-Recorded MIDI"
      VOLPAN 1 0 1 -1
      SOFFS 0 0
      PLAYRATE 1 1 0 -1 0 0.0021
      CHANMODE 0
      GUID {8EF61BB9-7A71-5E75-3F26-7E3FA4078096}
      RECPASS 1
      <SOURCE MIDI
        HASDATA 1 960 QN
        CCINTERP 32
        POOLEDEVTS {7C4A461D-008F-0722-0DE0-26FF62A0DDA6}
        E 0 90 3c 48
        E 0 90 40 48
        E 0 90 43 48
        E 1920 80 3c 00
        E 0 80 40 00
        E 0 80 43 00
        E 0 90 3c 48
        E 0 90 40 48
        E 0 90 43 48
        E 260 80 3c 00
        E 0 80 40 00
        E 0 80 43 00
        E 440 90 3c 48
        E 0 90 40 48
        E 0 90 43 48
        E 260 80 3c 00
        E 0 80 40 00
        E 0 80 43 00
        e 514 90 3c 48
        e 0 90 40 48
        e 0 90 43 48
        e 260 80 3c 00
        e 0 80 40 00
        e 0 80 43 00
        E 186 90 43 48
        E 0 90 47 48
        E 20 90 40 48
        E 1900 80 43 00
        E 0 80 47 00
        E 0 80 40 00
        E 0 90 43 48
        E 0 90 47 48
        E 20 90 40 48
        E 240 80 43 00
        E 0 80 47 00
        E 0 80 40 00
        E 440 90 43 48
        E 0 90 47 48
        E 20 90 40 48
        E 240 80 43 00
        E 0 80 47 00
        E 0 80 40 00
        e 514 90 43 48
        e 0 90 47 48
        e 20 90 40 48
        e 240 80 43 00
        e 0 80 47 00
        e 0 80 40 00
        E 186 90 41 48
        E 0 90 45 48
        E 0 90 48 48
        E 1920 80 41 00
        E 0 80 45 00
        E 0 80 48 00
        E 0 90 41 48
        E 0 90 45 48
        E 0 90 48 48
        E 260 80 41 00
        E 0 80 45 00
        E 0 80 48 00
        E 440 90 41 48
        E 0 90 45 48
        E 0 90 48 48
        E 260 80 41 00
        E 0 80 45 00
        E 0 80 48 00
        e 514 90 41 48
        e 0 90 45 48
        e 0 90 48 48
        e 260 80 41 00
        e 0 80 45 00
        e 0 80 48 00
        E 162 90 3e 48
        E 24 90 41 48
        E 0 90 45 48
        E 1896 90 3e 48
        E 24 80 3e 00
        E 0 80 41 00
        E 0 80 45 00
        E 0 90 41 48
        E 0 90 45 48
        E 260 80 3e 00
        E 0 80 41 00
        E 0 80 45 00
        E 416 90 3e 48
        E 24 90 41 48
        E 0 90 45 48
        E 260 80 3e 00
        E 0 80 41 00
        E 0 80 45 00
        e 490 90 3e 48
        e 24 90 41 48
        e 0 90 45 48
        e 260 80 3e 00
        e 0 80 41 00
        e 0 80 45 00
        E 186 b0 7b 00
        CHASE_CC_TAKEOFFS 1
        GUID {48C567A2-895C-FB9B-FDBA-0ADB7004ABF3}
        IGNTEMPO 0 120 4 4
        SRCCOLOR 19
        VELLANE -1 100 0
        CFGEDITVIEW 0 0.045808 45 12 0 -1 0 0 0 0.5
        KEYSNAP 0
        TRACKSEL 0
        EVTFILTER 0 -1 -1 -1 -1 0 0 0 0 -1 -1 -1 -1 0 -1 0 -1 -1
        CFGEDIT 1 1 0 1 0 0 1 1 1 1 1 1 58 171 1253 866 0 0 0 0 0.25 0 0 0 0 0.5 0 0 1 64
      >
    >
    <ITEM
      POSITION 24
      SNAPOFFS 0
      LENGTH 8
      LOOP 1
      ALLTAKES 0
      FADEIN 1 0 0 1 0 0
      FADEOUT 1 0 0 1 0 0
      MUTE 0
      SEL 1
      IGUID {FC247308-3DD1-CBCB-FF79-A6B7751E0410}
      IID 13
      NAME "01-Recorded MIDI"
      VOLPAN 1 0 1 -1
      SOFFS 0 0
      PLAYRATE 1 1 0 -1 0 0.0021
      CHANMODE 0
      GUID {3B3EA547-4C64-BD43-F5A7-D8AAE19E8C60}
      RECPASS 1
      <SOURCE MIDI
        HASDATA 1 960 QN
        CCINTERP 32
        POOLEDEVTS {7EE1B0E3-AF7E-C126-8061-210021E02E49}
        E 0 90 3c 48
        E 0 90 40 48
        E 0 90 43 48
        E 1920 80 3c 00
        E 0 80 40 00
        E 0 80 43 00
        E 0 90 3c 48
        E 0 90 40 48
        E 0 90 43 48
        E 260 80 3c 00
        E 0 80 40 00
        E 0 80 43 00
        E 440 90 3c 48
        E 0 90 40 48
        E 0 90 43 48
        E 260 80 3c 00
        E 0 80 40 00
        E 0 80 43 00
        e 514 90 3c 48
        e 0 90 40 48
        e 0 90 43 48
        e 260 80 3c 00
        e 0 80 40 00
        e 0 80 43 00
        E 186 90 43 48
        E 0 90 47 48
        E 20 90 40 48
        E 1900 80 43 00
        E 0 80 47 00
        E 0 80 40 00
        E 0 90 43 48
        E 0 90 47 48
        E 20 90 40 48
        E 240 80 43 00
        E 0 80 47 00
        E 0 80 40 00
        E 440 90 43 48
        E 0 90 47 48
        E 20 90 40 48
        E 240 80 43 00
        E 0 80 47 00
        E 0 80 40 00
        e 514 90 43 48
        e 0 90 47 48
        e 20 90 40 48
        e 240 80 43 00
        e 0 80 47 00
        e 0 80 40 00
        E 186 90 41 48
        E 0 90 45 48
        E 0 90 48 48
        E 1920 80 41 00
        E 0 80 45 00
        E 0 80 48 00
        E 0 90 41 48
        E 0 90 45 48
        E 0 90 48 48
        E 260 80 41 00
        E 0 80 45 00
        E 0 80 48 00
        E 440 90 41 48
        E 0 90 45 48
        E 0 90 48 48
        E 260 80 41 00
        E 0 80 45 00
        E 0 80 48 00
        e 514 90 41 48
        e 0 90 45 48
        e 0 90 48 48
        e 260 80 41 00
        e 0 80 45 00
        e 0 80 48 00
        E 162 90 3e 48
        E 24 90 41 48
        E 0 90 45 48
        E 1896 90 3e 48
        E 24 80 3e 00
        E 0 80 41 00
        E 0 80 45 00
        E 0 90 41 48
        E 0 90 45 48
        E 260 80 3e 00
        E 0 80 41 00
        E 0 80 45 00
        E 416 90 3e 48
        E 24 90 41 48
        E 0 90 45 48
        E 260 80 3e 00
        E 0 80 41 00
        E 0 80 45 00
        e 490 90 3e 48
        e 24 90 41 48
        e 0 90 45 48
        e 260 80 3e 00
        e 0 80 41 00
        e 0 80 45 00
        E 186 b0 7b 00
        CHASE_CC_TAKEOFFS 1
        GUID {1DE38800-E2A1-41B5-9C8C-3291891093B1}
        IGNTEMPO 0 120 4 4
        SRCCOLOR 20
        VELLANE -1 100 0
        CFGEDITVIEW 0 0.045808 45 12 0 -1 0 0 0 0.5
        KEYSNAP 0
        TRACKSEL 0
        EVTFILTER 0 -1 -1 -1 -1 0 0 0 0 -1 -1 -1 -1 0 -1 0 -1 -1
        CFGEDIT 1 1 0 1 0 0 1 1 1 1 1 1 58 171 1253 866 0 0 0 0 0.25 0 0 0 0 0.5 0 0 1 64
      >
    >
    <ITEM
      POSITION 32
      SNAPOFFS 0
      LENGTH 8
      LOOP 1
      ALLTAKES 0
      FADEIN 1 0 0 1 0 0
      FADEOUT 1 0 0 1 0 0
      MUTE 0
      SEL 1
      IGUID {1827B184-0B64-F6CE-201C-BAA56B694579}
      IID 14
      NAME "01-Recorded MIDI"
      VOLPAN 1 0 1 -1
      SOFFS 0 0
      PLAYRATE 1 1 0 -1 0 0.0021
      CHANMODE 0
      GUID {7E4CC685-3BDD-54EE-C873-7532623802EE}
      RECPASS 1
      <SOURCE MIDI
        HASDATA 1 960 QN
        CCINTERP 32
        POOLEDEVTS {3FA20D9D-0580-6A2C-D087-06066EE02EB2}
        E 0 90 3c 48
        E 0 90 40 48
        E 0 90 43 48
        E 1920 80 3c 00
        E 0 80 40 00
        E 0 80 43 00
        E 0 90 3c 48
        E 0 90 40 48
        E 0 90 43 48
        E 260 80 3c 00
        E 0 80 40 00
        E 0 80 43 00
        E 440 90 3c 48
        E 0 90 40 48
        E 0 90 43 48
        E 260 80 3c 00
        E 0 80 40 00
        E 0 80 43 00
        e 514 90 3c 48
        e 0 90 40 48
        e 0 90 43 48
        e 260 80 3c 00
        e 0 80 40 00
        e 0 80 43 00
        E 186 90 43 48
        E 0 90 47 48
        E 20 90 40 48
        E 1900 80 43 00
        E 0 80 47 00
        E 0 80 40 00
        E 0 90 43 48
        E 0 90 47 48
        E 20 90 40 48
        E 240 80 43 00
        E 0 80 47 00
        E 0 80 40 00
        E 440 90 43 48
        E 0 90 47 48
        E 20 90 40 48
        E 240 80 43 00
        E 0 80 47 00
        E 0 80 40 00
        e 514 90 43 48
        e 0 90 47 48
        e 20 90 40 48
        e 240 80 43 00
        e 0 80 47 00
        e 0 80 40 00
        E 186 90 41 48
        E 0 90 45 48
        E 0 90 48 48
        E 1920 80 41 00
        E 0 80 45 00
        E 0 80 48 00
        E 0 90 41 48
        E 0 90 45 48
        E 0 90 48 48
        E 260 80 41 00
        E 0 80 45 00
        E 0 80 48 00
        E 440 90 41 48
        E 0 90 45 48
        E 0 90 48 48
        E 260 80 41 00
        E 0 80 45 00
        E 0 80 48 00
        e 514 90 41 48
        e 0 90 45 48
        e 0 90 48 48
        e 260 80 41 00
        e 0 80 45 00
        e 0 80 48 00
        E 162 90 3e 48
        E 24 90 41 48
        E 0 90 45 48
        E 1896 90 3e 48
        E 24 80 3e 00
        E 0 80 41 00
        E 0 80 45 00
        E 0 90 41 48
        E 0 90 45 48
        E 260 80 3e 00
        E 0 80 41 00
        E 0 80 45 00
        E 416 90 3e 48
        E 24 90 41 48
        E 0 90 45 48
        E 260 80 3e 00
        E 0 80 41 00
        E 0 80 45 00
        e 490 90 3e 48
        e 24 90 41 48
        e 0 90 45 48
        e 260 80 3e 00
        e 0 80 41 00
        e 0 80 45 00
        E 186 b0 7b 00
        CHASE_CC_TAKEOFFS 1
        GUID {0C3271F4-E233-9088-9B25-A722FAE7C579}
        IGNTEMPO 0 120 4 4
        SRCCOLOR 21
        VELLANE -1 100 0
        CFGEDITVIEW 0 0.045808 45 12 0 -1 0 0 0 0.5
        KEYSNAP 0
        TRACKSEL 0
        EVTFILTER 0 -1 -1 -1 -1 0 0 0 0 -1 -1 -1 -1 0 -1 0 -1 -1
        CFGEDIT 1 1 0 1 0 0 1 1 1 1 1 1 58 171 1253 866 0 0 0 0 0.25 0 0 0 0 0.5 0 0 1 64
      >
    >
    <ITEM
      POSITION 40
      SNAPOFFS 0
      LENGTH 8
      LOOP 1
      ALLTAKES 0
      FADEIN 1 0 0 1 0 0
      FADEOUT 1 0 0 1 0 0
      MUTE 0
      SEL 1
      IGUID {5F5B2BD8-6747-2A87-8FA2-DF8A37677614}
      IID 15
      NAME "01-Recorded MIDI"
      VOLPAN 1 0 1 -1
      SOFFS 0 0
      PLAYRATE 1 1 0 -1 0 0.0021
      CHANMODE 0
      GUID {DA94762F-81B2-021C-5604-5665C411215B}
      RECPASS 1
      <SOURCE MIDI
        HASDATA 1 960 QN
        CCINTERP 32
        POOLEDEVTS {6DE63BED-FA9B-7D42-5A88-C747C2996FC6}
        E 0 90 3c 48
        E 0 90 40 48
        E 0 90 43 48
        E 1920 80 3c 00
        E 0 80 40 00
        E 0 80 43 00
        E 0 90 3c 48
        E 0 90 40 48
        E 0 90 43 48
        E 260 80 3c 00
        E 0 80 40 00
        E 0 80 43 00
        E 440 90 3c 48
        E 0 90 40 48
        E 0 90 43 48
        E 260 80 3c 00
        E 0 80 40 00
        E 0 80 43 00
        e 514 90 3c 48
        e 0 90 40 48
        e 0 90 43 48
        e 260 80 3c 00
        e 0 80 40 00
        e 0 80 43 00
        E 186 90 43 48
        E 0 90 47 48
        E 20 90 40 48
        E 1900 80 43 00
        E 0 80 47 00
        E 0 80 40 00
        E 0 90 43 48
        E 0 90 47 48
        E 20 90 40 48
        E 240 80 43 00
        E 0 80 47 00
        E 0 80 40 00
        E 440 90 43 48
        E 0 90 47 48
        E 20 90 40 48
        E 240 80 43 00
        E 0 80 47 00
        E 0 80 40 00
        e 514 90 43 48
        e 0 90 47 48
        e 20 90 40 48
        e 240 80 43 00
        e 0 80 47 00
        e 0 80 40 00
        E 186 90 41 48
        E 0 90 45 48
        E 0 90 48 48
        E 1920 80 41 00
        E 0 80 45 00
        E 0 80 48 00
        E 0 90 41 48
        E 0 90 45 48
        E 0 90 48 48
        E 260 80 41 00
        E 0 80 45 00
        E 0 80 48 00
        E 440 90 41 48
        E 0 90 45 48
        E 0 90 48 48
        E 260 80 41 00
        E 0 80 45 00
        E 0 80 48 00
        e 514 90 41 48
        e 0 90 45 48
        e 0 90 48 48
        e 260 80 41 00
        e 0 80 45 00
        e 0 80 48 00
        E 162 90 3e 48
        E 24 90 41 48
        E 0 90 45 48
        E 1896 90 3e 48
        E 24 80 3e 00
        E 0 80 41 00
        E 0 80 45 00
        E 0 90 41 48
        E 0 90 45 48
        E 260 80 3e 00
        E 0 80 41 00
        E 0 80 45 00
        E 416 90 3e 48
        E 24 90 41 48
        E 0 90 45 48
        E 260 80 3e 00
        E 0 80 41 00
        E 0 80 45 00
        e 490 90 3e 48
        e 24 90 41 48
        e 0 90 45 48
        e 260 80 3e 00
        e 0 80 41 00
        e 0 80 45 00
        E 186 b0 7b 00
        CHASE_CC_TAKEOFFS 1
        GUID {040E7AF8-3572-5D91-3C86-797AEE7444D4}
        IGNTEMPO 0 120 4 4
        SRCCOLOR 22
        VELLANE -1 100 0
        CFGEDITVIEW 0 0.045808 45 12 0 -1 0 0 0 0.5
        KEYSNAP 0
        TRACKSEL 0
        EVTFILTER 0 -1 -1 -1 -1 0 0 0 0 -1 -1 -1 -1 0 -1 0 -1 -1
        CFGEDIT 1 1 0 1 0 0 1 1 1 1 1 1 58 171 1253 866 0 0 0 0 0.25 0 0 0 0 0.5 0 0 1 64
      >
    >
    <ITEM
      POSITION 48
      SNAPOFFS 0
      LENGTH 8
      LOOP 1
      ALLTAKES 0
      FADEIN 1 0 0 1 0 0
      FADEOUT 1 0 0 1 0 0
      MUTE 0
      SEL 1
      IGUID {8086FF4A-B324-A446-C5C4-77DCFEB46621}
      IID 16
      NAME "01-Recorded MIDI"
      VOLPAN 1 0 1 -1
      SOFFS 0 0
      PLAYRATE 1 1 0 -1 0 0.0021
      CHANMODE 0
      GUID {9265A81B-744B-93BE-D5A3-F1748B300920}
      RECPASS 1
      <SOURCE MIDI
        HASDATA 1 960 QN
        CCINTERP 32
        POOLEDEVTS {E646E2B4-7368-78E3-F4D3-C41015BB6194}
        E 0 90 3c 48
        E 0 90 40 48
        E 0 90 43 48
        E 1920 80 3c 00
        E 0 80 40 00
        E 0 80 43 00
        E 0 90 3c 48
        E 0 90 40 48
        E 0 90 43 48
        E 260 80 3c 00
        E 0 80 40 00
        E 0 80 43 00
        E 440 90 3c 48
        E 0 90 40 48
        E 0 90 43 48
        E 260 80 3c 00
        E 0 80 40 00
        E 0 80 43 00
        e 514 90 3c 48
        e 0 90 40 48
        e 0 90 43 48
        e 260 80 3c 00
        e 0 80 40 00
        e 0 80 43 00
        E 186 90 43 48
        E 0 90 47 48
        E 20 90 40 48
        E 1900 80 43 00
        E 0 80 47 00
        E 0 80 40 00
        E 0 90 43 48
        E 0 90 47 48
        E 20 90 40 48
        E 240 80 43 00
        E 0 80 47 00
        E 0 80 40 00
        E 440 90 43 48
        E 0 90 47 48
        E 20 90 40 48
        E 240 80 43 00
        E 0 80 47 00
        E 0 80 40 00
        e 514 90 43 48
        e 0 90 47 48
        e 20 90 40 48
        e 240 80 43 00
        e 0 80 47 00
        e 0 80 40 00
        E 186 90 41 48
        E 0 90 45 48
        E 0 90 48 48
        E 1920 80 41 00
        E 0 80 45 00
        E 0 80 48 00
        E 0 90 41 48
        E 0 90 45 48
        E 0 90 48 48
        E 260 80 41 00
        E 0 80 45 00
        E 0 80 48 00
        E 440 90 41 48
        E 0 90 45 48
        E 0 90 48 48
        E 260 80 41 00
        E 0 80 45 00
        E 0 80 48 00
        e 514 90 41 48
        e 0 90 45 48
        e 0 90 48 48
        e 260 80 41 00
        e 0 80 45 00
        e 0 80 48 00
        E 162 90 3e 48
        E 24 90 41 48
        E 0 90 45 48
        E 1896 90 3e 48
        E 24 80 3e 00
        E 0 80 41 00
        E 0 80 45 00
        E 0 90 41 48
        E 0 90 45 48
        E 260 80 3e 00
        E 0 80 41 00
        E 0 80 45 00
        E 416 90 3e 48
        E 24 90 41 48
        E 0 90 45 48
        E 260 80 3e 00
        E 0 80 41 00
        E 0 80 45 00
        e 490 90 3e 48
        e 24 90 41 48
        e 0 90 45 48
        e 260 80 3e 00
        e 0 80 41 00
        e 0 80 45 00
        E 186 b0 7b 00
        CHASE_CC_TAKEOFFS 1
        GUID {2338968B-6CF9-9F40-300F-DEB89D3392EA}
        IGNTEMPO 0 120 4 4
        SRCCOLOR 23
        VELLANE -1 100 0
        CFGEDITVIEW 0 0.045808 45 12 0 -1 0 0 0 0.5
        KEYSNAP 0
        TRACKSEL 0
        EVTFILTER 0 -1 -1 -1 -1 0 0 0 0 -1 -1 -1 -1 0 -1 0 -1 -1
        CFGEDIT 1 1 0 1 0 0 1 1 1 1 1 1 58 171 1253 866 0 0 0 0 0.25 0 0 0 0 0.5 0 0 1 64
      >
    >
    <ITEM
      POSITION 56
      SNAPOFFS 0
      LENGTH 8
      LOOP 1
      ALLTAKES 0
      FADEIN 1 0 0 1 0 0
      FADEOUT 1 0 0 1 0 0
      MUTE 0
      SEL 1
      IGUID {EC783101-26E7-62CF-7637-8420B9674CAF}
      IID 17
      NAME "01-Recorded MIDI"
      VOLPAN 1 0 1 -1
      SOFFS 0 0
      PLAYRATE 1 1 0 -1 0 0.0021
      CHANMODE 0
      GUID {ACEB6E30-5E9E-4885-109D-36520AB954C6}
      RECPASS 1
      <SOURCE MIDI
        HASDATA 1 960 QN
        CCINTERP 32
        POOLEDEVTS {38B0AF52-B78B-897D-5586-20AA67E6E60E}
        E 0 90 3c 48
        E 0 90 40 48
        E 0 90 43 48
        E 1920 80 3c 00
        E 0 80 40 00
        E 0 80 43 00
        E 0 90 3c 48
        E 0 90 40 48
        E 0 90 43 48
        E 260 80 3c 00
        E 0 80 40 00
        E 0 80 43 00
        E 440 90 3c 48
        E 0 90 40 48
        E 0 90 43 48
        E 260 80 3c 00
        E 0 80 40 00
        E 0 80 43 00
        e 514 90 3c 48
        e 0 90 40 48
        e 0 90 43 48
        e 260 80 3c 00
        e 0 80 40 00
        e 0 80 43 00
        E 186 90 43 48
        E 0 90 47 48
        E 20 90 40 48
        E 1900 80 43 00
        E 0 80 47 00
        E 0 80 40 00
        E 0 90 43 48
        E 0 90 47 48
        E 20 90 40 48
        E 240 80 43 00
        E 0 80 47 00
        E 0 80 40 00
        E 440 90 43 48
        E 0 90 47 48
        E 20 90 40 48
        E 240 80 43 00
        E 0 80 47 00
        E 0 80 40 00
        e 514 90 43 48
        e 0 90 47 48
        e 20 90 40 48
        e 240 80 43 00
        e 0 80 47 00
        e 0 80 40 00
        E 186 90 41 48
        E 0 90 45 48
        E 0 90 48 48
        E 1920 80 41 00
        E 0 80 45 00
        E 0 80 48 00
        E 0 90 41 48
        E 0 90 45 48
        E 0 90 48 48
        E 260 80 41 00
        E 0 80 45 00
        E 0 80 48 00
        E 440 90 41 48
        E 0 90 45 48
        E 0 90 48 48
        E 260 80 41 00
        E 0 80 45 00
        E 0 80 48 00
        e 514 90 41 48
        e 0 90 45 48
        e 0 90 48 48
        e 260 80 41 00
        e 0 80 45 00
        e 0 80 48 00
        E 162 90 3e 48
        E 24 90 41 48
        E 0 90 45 48
        E 1896 90 3e 48
        E 24 80 3e 00
        E 0 80 41 00
        E 0 80 45 00
        E 0 90 41 48
        E 0 90 45 48
        E 260 80 3e 00
        E 0 80 41 00
        E 0 80 45 00
        E 416 90 3e 48
        E 24 90 41 48
        E 0 90 45 48
        E 260 80 3e 00
        E 0 80 41 00
        E 0 80 45 00
        e 490 90 3e 48
        e 24 90 41 48
        e 0 90 45 48
        e 260 80 3e 00
        e 0 80 41 00
        e 0 80 45 00
        E 186 b0 7b 00
        CHASE_CC_TAKEOFFS 1
        GUID {A64857E2-94F8-0990-20DF-4C1E9B5E6251}
        IGNTEMPO 0 120 4 4
        SRCCOLOR 24
        VELLANE -1 100 0
        CFGEDITVIEW 0 0.045808 45 12 0 -1 0 0 0 0.5
        KEYSNAP 0
        TRACKSEL 0
        EVTFILTER 0 -1 -1 -1 -1 0 0 0 0 -1 -1 -1 -1 0 -1 0 -1 -1
        CFGEDIT 1 1 0 1 0 0 1 1 1 1 1 1 58 171 1253 866 0 0 0 0 0.25 0 0 0 0 0.5 0 0 1 64
      >
    >
    <ITEM
      POSITION 64
      SNAPOFFS 0
      LENGTH 8
      LOOP 1
      ALLTAKES 0
      FADEIN 1 0 0 1 0 0
      FADEOUT 1 0 0 1 0 0
      MUTE 0
      SEL 1
      IGUID {E35EBC70-E7AA-E940-B06E-22FECB73465A}
      IID 18
      NAME "01-Recorded MIDI"
      VOLPAN 1 0 1 -1
      SOFFS 0 0
      PLAYRATE 1 1 0 -1 0 0.0021
      CHANMODE 0
      GUID {18C5ECE2-2021-578D-1C41-93FFCFC23313}
      RECPASS 1
      <SOURCE MIDI
        HASDATA 1 960 QN
        CCINTERP 32
        POOLEDEVTS {9BBA3553-84B3-6374-C802-1CF4F9C76C1F}
        E 0 90 3c 48
        E 0 90 40 48
        E 0 90 43 48
        E 1920 80 3c 00
        E 0 80 40 00
        E 0 80 43 00
        E 0 90 3c 48
        E 0 90 40 48
        E 0 90 43 48
        E 260 80 3c 00
        E 0 80 40 00
        E 0 80 43 00
        E 440 90 3c 48
        E 0 90 40 48
        E 0 90 43 48
        E 260 80 3c 00
        E 0 80 40 00
        E 0 80 43 00
        e 514 90 3c 48
        e 0 90 40 48
        e 0 90 43 48
        e 260 80 3c 00
        e 0 80 40 00
        e 0 80 43 00
        E 186 90 43 48
        E 0 90 47 48
        E 20 90 40 48
        E 1900 80 43 00
        E 0 80 47 00
        E 0 80 40 00
        E 0 90 43 48
        E 0 90 47 48
        E 20 90 40 48
        E 240 80 43 00
        E 0 80 47 00
        E 0 80 40 00
        E 440 90 43 48
        E 0 90 47 48
        E 20 90 40 48
        E 240 80 43 00
        E 0 80 47 00
        E 0 80 40 00
        e 514 90 43 48
        e 0 90 47 48
        e 20 90 40 48
        e 240 80 43 00
        e 0 80 47 00
        e 0 80 40 00
        E 186 90 41 48
        E 0 90 45 48
        E 0 90 48 48
        E 1920 80 41 00
        E 0 80 45 00
        E 0 80 48 00
        E 0 90 41 48
        E 0 90 45 48
        E 0 90 48 48
        E 260 80 41 00
        E 0 80 45 00
        E 0 80 48 00
        E 440 90 41 48
        E 0 90 45 48
        E 0 90 48 48
        E 260 80 41 00
        E 0 80 45 00
        E 0 80 48 00
        e 514 90 41 48
        e 0 90 45 48
        e 0 90 48 48
        e 260 80 41 00
        e 0 80 45 00
        e 0 80 48 00
        E 162 90 3e 48
        E 24 90 41 48
        E 0 90 45 48
        E 1896 90 3e 48
        E 24 80 3e 00
        E 0 80 41 00
        E 0 80 45 00
        E 0 90 41 48
        E 0 90 45 48
        E 260 80 3e 00
        E 0 80 41 00
        E 0 80 45 00
        E 416 90 3e 48
        E 24 90 41 48
        E 0 90 45 48
        E 260 80 3e 00
        E 0 80 41 00
        E 0 80 45 00
        e 490 90 3e 48
        e 24 90 41 48
        e 0 90 45 48
        e 260 80 3e 00
        e 0 80 41 00
        e 0 80 45 00
        E 186 b0 7b 00
        CHASE_CC_TAKEOFFS 1
        GUID {19362806-85F2-5D9E-E1F9-07BE0CF3D16E}
        IGNTEMPO 0 120 4 4
        SRCCOLOR 25
        VELLANE -1 100 0
        CFGEDITVIEW 0 0.045808 45 12 0 -1 0 0 0 0.5
        KEYSNAP 0
        TRACKSEL 0
        EVTFILTER 0 -1 -1 -1 -1 0 0 0 0 -1 -1 -1 -1 0 -1 0 -1 -1
        CFGEDIT 1 1 0 1 0 0 1 1 1 1 1 1 58 171 1253 866 0 0 0 0 0.25 0 0 0 0 0.5 0 0 1 64
      >
    >
    <ITEM
      POSITION 72
      SNAPOFFS 0
      LENGTH 8
      LOOP 1
      ALLTAKES 0
      FADEIN 1 0 0 1 0 0
      FADEOUT 1 0 0 1 0 0
      MUTE 0
      SEL 1
      IGUID {333BD39A-6463-3855-F253-A8D1C4601F60}
      IID 19
      NAME "01-Recorded MIDI"
      VOLPAN 1 0 1 -1
      SOFFS 0 0
      PLAYRATE 1 1 0 -1 0 0.0021
      CHANMODE 0
      GUID {7CC6E59C-0B87-8E03-377C-4A46ADCFD462}
      RECPASS 1
      <SOURCE MIDI
        HASDATA 1 960 QN
        CCINTERP 32
        POOLEDEVTS {0026EAB8-1A09-9498-B945-23D68EFF1C20}
        E 0 90 3c 48
        E 0 90 40 48
        E 0 90 43 48
        E 1920 80 3c 00
        E 0 80 40 00
        E 0 80 43 00
        E 0 90 3c 48
        E 0 90 40 48
        E 0 90 43 48
        E 260 80 3c 00
        E 0 80 40 00
        E 0 80 43 00
        E 440 90 3c 48
        E 0 90 40 48
        E 0 90 43 48
        E 260 80 3c 00
        E 0 80 40 00
        E 0 80 43 00
        e 514 90 3c 48
        e 0 90 40 48
        e 0 90 43 48
        e 260 80 3c 00
        e 0 80 40 00
        e 0 80 43 00
        E 186 90 43 48
        E 0 90 47 48
        E 20 90 40 48
        E 1900 80 43 00
        E 0 80 47 00
        E 0 80 40 00
        E 0 90 43 48
        E 0 90 47 48
        E 20 90 40 48
        E 240 80 43 00
        E 0 80 47 00
        E 0 80 40 00
        E 440 90 43 48
        E 0 90 47 48
        E 20 90 40 48
        E 240 80 43 00
        E 0 80 47 00
        E 0 80 40 00
        e 514 90 43 48
        e 0 90 47 48
        e 20 90 40 48
        e 240 80 43 00
        e 0 80 47 00
        e 0 80 40 00
        E 186 90 41 48
        E 0 90 45 48
        E 0 90 48 48
        E 1920 80 41 00
        E 0 80 45 00
        E 0 80 48 00
        E 0 90 41 48
        E 0 90 45 48
        E 0 90 48 48
        E 260 80 41 00
        E 0 80 45 00
        E 0 80 48 00
        E 440 90 41 48
        E 0 90 45 48
        E 0 90 48 48
        E 260 80 41 00
        E 0 80 45 00
        E 0 80 48 00
        e 514 90 41 48
        e 0 90 45 48
        e 0 90 48 48
        e 260 80 41 00
        e 0 80 45 00
        e 0 80 48 00
        E 162 90 3e 48
        E 24 90 41 48
        E 0 90 45 48
        E 1896 90 3e 48
        E 24 80 3e 00
        E 0 80 41 00
        E 0 80 45 00
        E 0 90 41 48
        E 0 90 45 48
        E 260 80 3e 00
        E 0 80 41 00
        E 0 80 45 00
        E 416 90 3e 48
        E 24 90 41 48
        E 0 90 45 48
        E 260 80 3e 00
        E 0 80 41 00
        E 0 80 45 00
        e 490 90 3e 48
        e 24 90 41 48
        e 0 90 45 48
        e 260 80 3e 00
        e 0 80 41 00
        e 0 80 45 00
        E 186 b0 7b 00
        CHASE_CC_TAKEOFFS 1
        GUID {6844F8A9-6BE9-023C-4A46-0A676470C99B}
        IGNTEMPO 0 120 4 4
        SRCCOLOR 26
        VELLANE -1 100 0
        CFGEDITVIEW 0 0.045808 45 12 0 -1 0 0 0 0.5
        KEYSNAP 0
        TRACKSEL 0
        EVTFILTER 0 -1 -1 -1 -1 0 0 0 0 -1 -1 -1 -1 0 -1 0 -1 -1
        CFGEDIT 1 1 0 1 0 0 1 1 1 1 1 1 58 171 1253 866 0 0 0 0 0.25 0 0 0 0 0.5 0 0 1 64
      >
    >
    <ITEM
      POSITION 80
      SNAPOFFS 0
      LENGTH 8
      LOOP 1
      ALLTAKES 0
      FADEIN 1 0 0 1 0 0
      FADEOUT 1 0 0 1 0 0
      MUTE 0
      SEL 1
      IGUID {DE97E641-60F0-2DF1-D67C-2D16252F11B4}
      IID 20
      NAME "01-Recorded MIDI"
      VOLPAN 1 0 1 -1
      SOFFS 0 0
      PLAYRATE 1 1 0 -1 0 0.0021
      CHANMODE 0
      GUID {676B88D4-7096-4FE1-01CA-E29E06FBC8DD}
      RECPASS 1
      <SOURCE MIDI
        HASDATA 1 960 QN
        CCINTERP 32
        POOLEDEVTS {B41D6483-1516-F3A6-7E5C-483B61185A51}
        E 0 90 3c 48
        E 0 90 40 48
        E 0 90 43 48
        E 1920 80 3c 00
        E 0 80 40 00
        E 0 80 43 00
        E 0 90 3c 48
        E 0 90 40 48
        E 0 90 43 48
        E 260 80 3c 00
        E 0 80 40 00
        E 0 80 43 00
        E 440 90 3c 48
        E 0 90 40 48
        E 0 90 43 48
        E 260 80 3c 00
        E 0 80 40 00
        E 0 80 43 00
        e 514 90 3c 48
        e 0 90 40 48
        e 0 90 43 48
        e 260 80 3c 00
        e 0 80 40 00
        e 0 80 43 00
        E 186 90 43 48
        E 0 90 47 48
        E 20 90 40 48
        E 1900 80 43 00
        E 0 80 47 00
        E 0 80 40 00
        E 0 90 43 48
        E 0 90 47 48
        E 20 90 40 48
        E 240 80 43 00
        E 0 80 47 00
        E 0 80 40 00
        E 440 90 43 48
        E 0 90 47 48
        E 20 90 40 48
        E 240 80 43 00
        E 0 80 47 00
        E 0 80 40 00
        e 514 90 43 48
        e 0 90 47 48
        e 20 90 40 48
        e 240 80 43 00
        e 0 80 47 00
        e 0 80 40 00
        E 186 90 41 48
        E 0 90 45 48
        E 0 90 48 48
        E 1920 80 41 00
        E 0 80 45 00
        E 0 80 48 00
        E 0 90 41 48
        E 0 90 45 48
        E 0 90 48 48
        E 260 80 41 00
        E 0 80 45 00
        E 0 80 48 00
        E 440 90 41 48
        E 0 90 45 48
        E 0 90 48 48
        E 260 80 41 00
        E 0 80 45 00
        E 0 80 48 00
        e 514 90 41 48
        e 0 90 45 48
        e 0 90 48 48
        e 260 80 41 00
        e 0 80 45 00
        e 0 80 48 00
        E 162 90 3e 48
        E 24 90 41 48
        E 0 90 45 48
        E 1896 90 3e 48
        E 24 80 3e 00
        E 0 80 41 00
        E 0 80 45 00
        E 0 90 41 48
        E 0 90 45 48
        E 260 80 3e 00
        E 0 80 41 00
        E 0 80 45 00
        E 416 90 3e 48
        E 24 90 41 48
        E 0 90 45 48
        E 260 80 3e 00
        E 0 80 41 00
        E 0 80 45 00
        e 490 90 3e 48
        e 24 90 41 48
        e 0 90 45 48
        e 260 80 3e 00
        e 0 80 41 00
        e 0 80 45 00
        E 186 b0 7b 00
        CHASE_CC_TAKEOFFS 1
        GUID {E611ADB6-4869-6CCA-8E83-3954D5E743B1}
        IGNTEMPO 0 120 4 4
        SRCCOLOR 27
        VELLANE -1 100 0
        CFGEDITVIEW 0 0.045808 45 12 0 -1 0 0 0 0.5
        KEYSNAP 0
        TRACKSEL 0
        EVTFILTER 0 -1 -1 -1 -1 0 0 0 0 -1 -1 -1 -1 0 -1 0 -1 -1
        CFGEDIT 1 1 0 1 0 0 1 1 1 1 1 1 58 171 1253 866 0 0 0 0 0.25 0 0 0 0 0.5 0 0 1 64
      >
    >
    <ITEM
      POSITION 88
      SNAPOFFS 0
      LENGTH 8
      LOOP 1
      ALLTAKES 0
      FADEIN 1 0 0 1 0 0
      FADEOUT 1 0 0 1 0 0
      MUTE 0
      SEL 1
      IGUID {DBE1465D-7301-6A03-81E3-EAD98CD6541D}
      IID 21
      NAME "01-Recorded MIDI"
      VOLPAN 1 0 1 -1
      SOFFS 0 0
      PLAYRATE 1 1 0 -1 0 0.0021
      CHANMODE 0
      GUID {0E5E0D49-0813-B5B7-1FB1-C073DC7ED8E2}
      RECPASS 1
      <SOURCE MIDI
        HASDATA 1 960 QN
        CCINTERP 32
        POOLEDEVTS {D361FFAB-80BA-DEF3-87E6-2CFF14161773}
        E 0 90 3c 48
        E 0 90 40 48
        E 0 90 43 48
        E 1920 80 3c 00
        E 0 80 40 00
        E 0 80 43 00
        E 0 90 3c 48
        E 0 90 40 48
        E 0 90 43 48
        E 260 80 3c 00
        E 0 80 40 00
        E 0 80 43 00
        E 440 90 3c 48
        E 0 90 40 48
        E 0 90 43 48
        E 260 80 3c 00
        E 0 80 40 00
        E 0 80 43 00
        e 514 90 3c 48
        e 0 90 40 48
        e 0 90 43 48
        e 260 80 3c 00
        e 0 80 40 00
        e 0 80 43 00
        E 186 90 43 48
        E 0 90 47 48
        E 20 90 40 48
        E 1900 80 43 00
        E 0 80 47 00
        E 0 80 40 00
        E 0 90 43 48
        E 0 90 47 48
        E 20 90 40 48
        E 240 80 43 00
        E 0 80 47 00
        E 0 80 40 00
        E 440 90 43 48
        E 0 90 47 48
        E 20 90 40 48
        E 240 80 43 00
        E 0 80 47 00
        E 0 80 40 00
        e 514 90 43 48
        e 0 90 47 48
        e 20 90 40 48
        e 240 80 43 00
        e 0 80 47 00
        e 0 80 40 00
        E 186 90 41 48
        E 0 90 45 48
        E 0 90 48 48
        E 1920 80 41 00
        E 0 80 45 00
        E 0 80 48 00
        E 0 90 41 48
        E 0 90 45 48
        E 0 90 48 48
        E 260 80 41 00
        E 0 80 45 00
        E 0 80 48 00
        E 440 90 41 48
        E 0 90 45 48
        E 0 90 48 48
        E 260 80 41 00
        E 0 80 45 00
        E 0 80 48 00
        e 514 90 41 48
        e 0 90 45 48
        e 0 90 48 48
        e 260 80 41 00
        e 0 80 45 00
        e 0 80 48 00
        E 162 90 3e 48
        E 24 90 41 48
        E 0 90 45 48
        E 1896 90 3e 48
        E 24 80 3e 00
        E 0 80 41 00
        E 0 80 45 00
        E 0 90 41 48
        E 0 90 45 48
        E 260 80 3e 00
        E 0 80 41 00
        E 0 80 45 00
        E 416 90 3e 48
        E 24 90 41 48
        E 0 90 45 48
        E 260 80 3e 00
        E 0 80 41 00
        E 0 80 45 00
        e 490 90 3e 48
        e 24 90 41 48
        e 0 90 45 48
        e 260 80 3e 00
        e 0 80 41 00
        e 0 80 45 00
        E 186 b0 7b 00
        CHASE_CC_TAKEOFFS 1
        GUID {C762B555-17FC-D765-5340-11D3487D2955}
        IGNTEMPO 0 120 4 4
        SRCCOLOR 28
        VELLANE -1 100 0
        CFGEDITVIEW 0 0.045808 45 12 0 -1 0 0 0 0.5
        KEYSNAP 0
        TRACKSEL 0
        EVTFILTER 0 -1 -1 -1 -1 0 0 0 0 -1 -1 -1 -1 0 -1 0 -1 -1
        CFGEDIT 1 1 0 1 0 0 1 1 1 1 1 1 58 171 1253 866 0 0 0 0 0.25 0 0 0 0 0.5 0 0 1 64
      >
    >
  >
  <TRACK {98EFF691-B22E-75F0-EFD4-918932C34750}
    NAME ""
    PEAKCOL 16576
    BEAT -1
    AUTOMODE 0
    VOLPAN 0.00052194381917 0 -1 -1 1
    MUTESOLO 0 0 0
    IPHASE 0
    PLAYOFFS 0 1
    ISBUS 0 0
    BUSCOMP 0 0 0 0 0
    SHOWINMIX 1 0.6667 0.5 1 0.5 0 0 0
    FREEMODE 0
    SEL 0
    REC 0 5056 1 0 0 0 0
    VU 2
    TRACKHEIGHT 21 0 0
    INQ 0 0 0 0.5 100 0 0 100
    NCHAN 2
    FX 0
    TRACKID {98EFF691-B22E-75F0-EFD4-918932C34750}
    PERF 0
    MIDIOUT -1
    MAINSEND 1 0
    <FXCHAIN
      WNDRECT 346 266 902 608
      SHOW 0
      LASTSEL 5
      DOCKED 0
      BYPASS 0 0 0
      <VST "VST: ReaEQ (Cockos)" reaeq.vst.so 0 "" 1919247729<56535472656571726561657100000000> ""
        cWVlcu5e7f4CAAAAAQAAAAAAAAACAAAAAAAAAAIAAAABAAAAAAAAAAIAAAAAAAAAqAAAAAEAAAAAABAA
        IQAAAAQAAAAEAAAAAQAAAEC4Xhmm+DRAAAAAAAAA8D8AAAAAAAAAQAEIAAAAAQAAAAAAAAAAwHJAAAAAAAAA8D8AAAAAAAAAQAEIAAAAAQAAAAAAAAAAQI9AAAAAAAAA
        8D8AAAAAAAAAQAEDAAAAAQAAAAABaCorbdRAAAAAAAAA8D8AAAAAAAAAQAEBAAAAAQAAAAAAAAAAAPA/AAAAAJoCAACcAQAA
        AEhpZ2ggbG93IHBhc3MAEAAAAA==
      >
      PRESETNAME "High low pass"
      FLOATPOS 0 0 0 0
      FXID {8031AC8F-F8AD-2125-307B-162D840D36FD}
      WAK 0 0
      BYPASS 0 0 0
      <VST "VSTi: ReaSynth (Cockos)" reasynth.vst.so 0 "" 1919251321<5653547265737972656173796E746800> ""
        eXNlcu9e7f4AAAAAAgAAAAEAAAAAAAAAAgAAAAAAAAA8AAAAAAAAAAAAEAA=
        776t3g3wrd6lm8Q7F7fROgAAAAAAAAAAAAAAAJCNuT3oZ4g9AACAPwAAAD8AAIA/AAAAAAAAAD8AAAAA
        AAAQAAAA
      >
      FLOATPOS 0 0 0 0
      FXID {BD551279-8C5C-3DDC-E9C2-F72496197700}
      WAK 0 0
      BYPASS 0 0 0
      <JS guitar/amp-model ""
        "Dumble Overdrive Special - Tweed Deluxe.wav" -21.000000 1.000000 0.000000 0.000000 -1.000000 - - - - - - - - - - - - - - - - - - - - - - - - - - - - - - - - - - - - - - - - - - - - - - - - - - - - - - - - - - 
      >
      FLOATPOS 0 0 0 0
      FXID {9AF5E219-A0C1-EC94-4FA1-610B1C90D653}
      WAK 0 0
      BYPASS 0 0 0
      <VST "VST: ReaComp (Cockos)" reacomp.vst.so 0 "" 1919247213<5653547265636D726561636F6D700000> ""
        bWNlcu9e7f4EAAAAAQAAAAAAAAACAAAAAAAAAAQAAAAAAAAACAAAAAAAAAACAAAAAQAAAAAAAAACAAAAAAAAAFQAAAAAAAAAAAAQAA==
        776t3g3wrd5FoYg9/AWpPKWbxDsK16M8AAAAAAAAAAAAAIA/AAAAAAAAAAAAAAAAnNEHMwAAgD8AAAAAzMxMPQAAAAAAAAAAAAAAAAAAgD7YiZ09
        AAAQAAAA
      >
      FLOATPOS 0 0 0 0
      FXID {5053CB5E-EC96-485B-73B8-92FCD372260F}
      WAK 0 0
      BYPASS 0 0 0
      <VST "VST: ReaDelay (Cockos)" readelay.vst.so 0 "" 1919247468<5653547265646C72656164656C617900> ""
        bGRlcu5e7f4CAAAAAQAAAAAAAAACAAAAAAAAAAIAAAABAAAAAAAAAAIAAAAAAAAA/AAAAAEAAAAAAAAA
        AAAAAAAAAAAFAAAALAAAAAIAAAAEAAAAAACAPwAAgD8AAAAAAACAPwAAAAAAAIA7vTeGNQAAgD8AAAAAAACAPwAAgD8AAIA/AAAAAAAAAAAAAIA/AAAAAAAAADwAAAAA
        AACAPwAAAAAAAIA/AACAP+87NT8AAIA/AAAAAAAAgD8AAAAAAABAPL03hjUAAIA/AAAAAAAAgD8AAIA/zk0AP6abhD4AAAAAAACAPwAAAAAAAIA8vTeGNQAAgD8AAAAA
        AACAPwAAgD8aqrU+pHA9PwAAAAAAAIA/AAAAAAAAoDy9N4Y1AACAPwAAAAAAAIA/AACAP/npAD4AAAA/
        AHN0b2NrIC0gYmFzaWMgNSB0YXAgcGluZyBwb25nAAAAAAA=
      >
      PRESETNAME "stock - basic 5 tap ping pong"
      FLOATPOS 0 0 0 0
      FXID {AC461FDF-20D6-B660-6C97-8E087ED371B4}
      WAK 0 0
      BYPASS 0 0 0
      <VST "VST: ReaVerb (Cockos)" reaverb.vst.so 0 "" 1919252066<56535472657662726561766572620000> ""
        YnZlcu5e7f4CAAAAAQAAAAAAAAACAAAAAAAAAAIAAAABAAAAAAAAAAIAAAAAAAAAcAAAAAEAAAAAAAAA
        AAAAwcybgD4AAIA/AAAAAAAAgD8AAIA/AAAAPwAAgD8AAAAAVkVSQkdFTgAYAAAAAAAAAJHgV0QdrLRA3rK7QsHIjEIAAIC/RUNIT0dFTgAcAAAAy/i2QLUjdUJdzdM/
        osdfP5lRrzyRzYxAnMQAPw==
        AHN3ZWV0dmVyYm8AAAAAAA==
      >
      PRESETNAME sweetverbo
      FLOATPOS 0 0 0 0
      FXID {7AD6CA64-2058-8B62-0F0B-6229CA4F4D29}
      WAK 0 0
    >
    <ITEM
      POSITION 0
      SNAPOFFS 0
      LENGTH 8
      LOOP 1
      ALLTAKES 0
      FADEIN 1 0 0 1 0 0
      FADEOUT 1 0 0 1 0 0
      MUTE 0
      SEL 1
      IGUID {C87F26A0-8F8F-F7DF-CDF3-352A560C1C7D}
      IID 10
      NAME "01-Recorded MIDI"
      VOLPAN 1 0 1 -1
      SOFFS 0 0
      PLAYRATE 1 1 0 -1 0 0.0021
      CHANMODE 0
      GUID {BD34F679-6102-1707-FC11-C49B55000F2A}
      RECPASS 1
      <SOURCE MIDI
        HASDATA 1 960 QN
        CCINTERP 32
        POOLEDEVTS {6AA8C135-0380-9619-8F17-8C92B1998FC7}
        E 0 90 3c 48
        E 0 90 40 48
        E 0 90 43 48
        E 1920 80 3c 00
        E 0 80 40 00
        E 0 80 43 00
        E 0 90 3c 48
        E 0 90 40 48
        E 0 90 43 48
        E 260 80 3c 00
        E 0 80 40 00
        E 0 80 43 00
        E 440 90 3c 48
        E 0 90 40 48
        E 0 90 43 48
        E 260 80 3c 00
        E 0 80 40 00
        E 0 80 43 00
        e 514 90 3c 48
        e 0 90 40 48
        e 0 90 43 48
        e 260 80 3c 00
        e 0 80 40 00
        e 0 80 43 00
        E 186 90 43 48
        E 0 90 47 48
        E 20 90 40 48
        E 1900 80 43 00
        E 0 80 47 00
        E 0 80 40 00
        E 0 90 43 48
        E 0 90 47 48
        E 20 90 40 48
        E 240 80 43 00
        E 0 80 47 00
        E 0 80 40 00
        E 440 90 43 48
        E 0 90 47 48
        E 20 90 40 48
        E 240 80 43 00
        E 0 80 47 00
        E 0 80 40 00
        e 514 90 43 48
        e 0 90 47 48
        e 20 90 40 48
        e 240 80 43 00
        e 0 80 47 00
        e 0 80 40 00
        E 186 90 41 48
        E 0 90 45 48
        E 0 90 48 48
        E 1920 80 41 00
        E 0 80 45 00
        E 0 80 48 00
        E 0 90 41 48
        E 0 90 45 48
        E 0 90 48 48
        E 260 80 41 00
        E 0 80 45 00
        E 0 80 48 00
        E 440 90 41 48
        E 0 90 45 48
        E 0 90 48 48
        E 260 80 41 00
        E 0 80 45 00
        E 0 80 48 00
        e 514 90 41 48
        e 0 90 45 48
        e 0 90 48 48
        e 260 80 41 00
        e 0 80 45 00
        e 0 80 48 00
        E 162 90 3e 48
        E 24 90 41 48
        E 0 90 45 48
        E 1896 90 3e 48
        E 24 80 3e 00
        E 0 80 41 00
        E 0 80 45 00
        E 0 90 41 48
        E 0 90 45 48
        E 260 80 3e 00
        E 0 80 41 00
        E 0 80 45 00
        E 416 90 3e 48
        E 24 90 41 48
        E 0 90 45 48
        E 260 80 3e 00
        E 0 80 41 00
        E 0 80 45 00
        e 490 90 3e 48
        e 24 90 41 48
        e 0 90 45 48
        e 260 80 3e 00
        e 0 80 41 00
        e 0 80 45 00
        E 186 b0 7b 00
        CHASE_CC_TAKEOFFS 1
        GUID {7B9D708B-43E1-C8D4-C4B3-87E2A6C27801}
        IGNTEMPO 0 120 4 4
        SRCCOLOR 17
        VELLANE -1 100 0
        CFGEDITVIEW 0 0.045808 45 12 0 -1 0 0 0 0.5
        KEYSNAP 0
        TRACKSEL 0
        EVTFILTER 0 -1 -1 -1 -1 0 0 0 0 -1 -1 -1 -1 0 -1 0 -1 -1
        CFGEDIT 1 1 0 1 0 0 1 1 1 1 1 1 58 171 1253 866 0 0 0 0 0.25 0 0 0 0 0.5 0 0 1 64
      >
    >
    <ITEM
      POSITION 8
      SNAPOFFS 0
      LENGTH 8
      LOOP 1
      ALLTAKES 0
      FADEIN 1 0 0 1 0 0
      FADEOUT 1 0 0 1 0 0
      MUTE 0
      SEL 1
      IGUID {B50715F5-3B64-95D8-D186-417C10CE4E14}
      IID 11
      NAME "01-Recorded MIDI"
      VOLPAN 1 0 1 -1
      SOFFS 0 0
      PLAYRATE 1 1 0 -1 0 0.0021
      CHANMODE 0
      GUID {B1EEF68A-D4C1-B595-C4BB-9748993BF718}
      RECPASS 1
      <SOURCE MIDI
        HASDATA 1 960 QN
        CCINTERP 32
        POOLEDEVTS {E63AC097-E243-16E4-BF35-B96F965715BF}
        E 0 90 3c 48
        E 0 90 40 48
        E 0 90 43 48
        E 1920 80 3c 00
        E 0 80 40 00
        E 0 80 43 00
        E 0 90 3c 48
        E 0 90 40 48
        E 0 90 43 48
        E 260 80 3c 00
        E 0 80 40 00
        E 0 80 43 00
        E 440 90 3c 48
        E 0 90 40 48
        E 0 90 43 48
        E 260 80 3c 00
        E 0 80 40 00
        E 0 80 43 00
        e 514 90 3c 48
        e 0 90 40 48
        e 0 90 43 48
        e 260 80 3c 00
        e 0 80 40 00
        e 0 80 43 00
        E 186 90 43 48
        E 0 90 47 48
        E 20 90 40 48
        E 1900 80 43 00
        E 0 80 47 00
        E 0 80 40 00
        E 0 90 43 48
        E 0 90 47 48
        E 20 90 40 48
        E 240 80 43 00
        E 0 80 47 00
        E 0 80 40 00
        E 440 90 43 48
        E 0 90 47 48
        E 20 90 40 48
        E 240 80 43 00
        E 0 80 47 00
        E 0 80 40 00
        e 514 90 43 48
        e 0 90 47 48
        e 20 90 40 48
        e 240 80 43 00
        e 0 80 47 00
        e 0 80 40 00
        E 186 90 41 48
        E 0 90 45 48
        E 0 90 48 48
        E 1920 80 41 00
        E 0 80 45 00
        E 0 80 48 00
        E 0 90 41 48
        E 0 90 45 48
        E 0 90 48 48
        E 260 80 41 00
        E 0 80 45 00
        E 0 80 48 00
        E 440 90 41 48
        E 0 90 45 48
        E 0 90 48 48
        E 260 80 41 00
        E 0 80 45 00
        E 0 80 48 00
        e 514 90 41 48
        e 0 90 45 48
        e 0 90 48 48
        e 260 80 41 00
        e 0 80 45 00
        e 0 80 48 00
        E 162 90 3e 48
        E 24 90 41 48
        E 0 90 45 48
        E 1896 90 3e 48
        E 24 80 3e 00
        E 0 80 41 00
        E 0 80 45 00
        E 0 90 41 48
        E 0 90 45 48
        E 260 80 3e 00
        E 0 80 41 00
        E 0 80 45 00
        E 416 90 3e 48
        E 24 90 41 48
        E 0 90 45 48
        E 260 80 3e 00
        E 0 80 41 00
        E 0 80 45 00
        e 490 90 3e 48
        e 24 90 41 48
        e 0 90 45 48
        e 260 80 3e 00
        e 0 80 41 00
        e 0 80 45 00
        E 186 b0 7b 00
        CHASE_CC_TAKEOFFS 1
        GUID {3131B4E2-B370-E352-A9C5-C8CA31551A86}
        IGNTEMPO 0 120 4 4
        SRCCOLOR 18
        VELLANE -1 100 0
        CFGEDITVIEW 0 0.045808 45 12 0 -1 0 0 0 0.5
        KEYSNAP 0
        TRACKSEL 0
        EVTFILTER 0 -1 -1 -1 -1 0 0 0 0 -1 -1 -1 -1 0 -1 0 -1 -1
        CFGEDIT 1 1 0 1 0 0 1 1 1 1 1 1 58 171 1253 866 0 0 0 0 0.25 0 0 0 0 0.5 0 0 1 64
      >
    >
    <ITEM
      POSITION 16
      SNAPOFFS 0
      LENGTH 8
      LOOP 1
      ALLTAKES 0
      FADEIN 1 0 0 1 0 0
      FADEOUT 1 0 0 1 0 0
      MUTE 0
      SEL 1
      IGUID {2FB2D079-7FE7-68E6-07D5-11A8BE85D47D}
      IID 12
      NAME "01-Recorded MIDI"
      VOLPAN 1 0 1 -1
      SOFFS 0 0
      PLAYRATE 1 1 0 -1 0 0.0021
      CHANMODE 0
      GUID {3A4EF6EA-420A-7CB3-8701-965F50838C0E}
      RECPASS 1
      <SOURCE MIDI
        HASDATA 1 960 QN
        CCINTERP 32
        POOLEDEVTS {CB25E02C-0702-681A-2CBC-E9CF59189FD5}
        E 0 90 3c 48
        E 0 90 40 48
        E 0 90 43 48
        E 1920 80 3c 00
        E 0 80 40 00
        E 0 80 43 00
        E 0 90 3c 48
        E 0 90 40 48
        E 0 90 43 48
        E 260 80 3c 00
        E 0 80 40 00
        E 0 80 43 00
        E 440 90 3c 48
        E 0 90 40 48
        E 0 90 43 48
        E 260 80 3c 00
        E 0 80 40 00
        E 0 80 43 00
        e 514 90 3c 48
        e 0 90 40 48
        e 0 90 43 48
        e 260 80 3c 00
        e 0 80 40 00
        e 0 80 43 00
        E 186 90 43 48
        E 0 90 47 48
        E 20 90 40 48
        E 1900 80 43 00
        E 0 80 47 00
        E 0 80 40 00
        E 0 90 43 48
        E 0 90 47 48
        E 20 90 40 48
        E 240 80 43 00
        E 0 80 47 00
        E 0 80 40 00
        E 440 90 43 48
        E 0 90 47 48
        E 20 90 40 48
        E 240 80 43 00
        E 0 80 47 00
        E 0 80 40 00
        e 514 90 43 48
        e 0 90 47 48
        e 20 90 40 48
        e 240 80 43 00
        e 0 80 47 00
        e 0 80 40 00
        E 186 90 41 48
        E 0 90 45 48
        E 0 90 48 48
        E 1920 80 41 00
        E 0 80 45 00
        E 0 80 48 00
        E 0 90 41 48
        E 0 90 45 48
        E 0 90 48 48
        E 260 80 41 00
        E 0 80 45 00
        E 0 80 48 00
        E 440 90 41 48
        E 0 90 45 48
        E 0 90 48 48
        E 260 80 41 00
        E 0 80 45 00
        E 0 80 48 00
        e 514 90 41 48
        e 0 90 45 48
        e 0 90 48 48
        e 260 80 41 00
        e 0 80 45 00
        e 0 80 48 00
        E 162 90 3e 48
        E 24 90 41 48
        E 0 90 45 48
        E 1896 90 3e 48
        E 24 80 3e 00
        E 0 80 41 00
        E 0 80 45 00
        E 0 90 41 48
        E 0 90 45 48
        E 260 80 3e 00
        E 0 80 41 00
        E 0 80 45 00
        E 416 90 3e 48
        E 24 90 41 48
        E 0 90 45 48
        E 260 80 3e 00
        E 0 80 41 00
        E 0 80 45 00
        e 490 90 3e 48
        e 24 90 41 48
        e 0 90 45 48
        e 260 80 3e 00
        e 0 80 41 00
        e 0 80 45 00
        E 186 b0 7b 00
        CHASE_CC_TAKEOFFS 1
        GUID {48C567A2-895C-FB9B-FDBA-0ADB7004ABF3}
        IGNTEMPO 0 120 4 4
        SRCCOLOR 19
        VELLANE -1 100 0
        CFGEDITVIEW 0 0.045808 45 12 0 -1 0 0 0 0.5
        KEYSNAP 0
        TRACKSEL 0
        EVTFILTER 0 -1 -1 -1 -1 0 0 0 0 -1 -1 -1 -1 0 -1 0 -1 -1
        CFGEDIT 1 1 0 1 0 0 1 1 1 1 1 1 58 171 1253 866 0 0 0 0 0.25 0 0 0 0 0.5 0 0 1 64
      >
    >
    <ITEM
      POSITION 24
      SNAPOFFS 0
      LENGTH 8
      LOOP 1
      ALLTAKES 0
      FADEIN 1 0 0 1 0 0
      FADEOUT 1 0 0 1 0 0
      MUTE 0
      SEL 1
      IGUID {1F911C3D-E573-20A4-5261-6B939234EB65}
      IID 13
      NAME "01-Recorded MIDI"
      VOLPAN 1 0 1 -1
      SOFFS 0 0
      PLAYRATE 1 1 0 -1 0 0.0021
      CHANMODE 0
      GUID {F1F0B254-F5DF-4883-0020-F074DA0DEF19}
      RECPASS 1
      <SOURCE MIDI
        HASDATA 1 960 QN
        CCINTERP 32
        POOLEDEVTS {4FFEDCDA-B79B-AFE4-9411-095386CBFAF9}
        E 0 90 3c 48
        E 0 90 40 48
        E 0 90 43 48
        E 1920 80 3c 00
        E 0 80 40 00
        E 0 80 43 00
        E 0 90 3c 48
        E 0 90 40 48
        E 0 90 43 48
        E 260 80 3c 00
        E 0 80 40 00
        E 0 80 43 00
        E 440 90 3c 48
        E 0 90 40 48
        E 0 90 43 48
        E 260 80 3c 00
        E 0 80 40 00
        E 0 80 43 00
        e 514 90 3c 48
        e 0 90 40 48
        e 0 90 43 48
        e 260 80 3c 00
        e 0 80 40 00
        e 0 80 43 00
        E 186 90 43 48
        E 0 90 47 48
        E 20 90 40 48
        E 1900 80 43 00
        E 0 80 47 00
        E 0 80 40 00
        E 0 90 43 48
        E 0 90 47 48
        E 20 90 40 48
        E 240 80 43 00
        E 0 80 47 00
        E 0 80 40 00
        E 440 90 43 48
        E 0 90 47 48
        E 20 90 40 48
        E 240 80 43 00
        E 0 80 47 00
        E 0 80 40 00
        e 514 90 43 48
        e 0 90 47 48
        e 20 90 40 48
        e 240 80 43 00
        e 0 80 47 00
        e 0 80 40 00
        E 186 90 41 48
        E 0 90 45 48
        E 0 90 48 48
        E 1920 80 41 00
        E 0 80 45 00
        E 0 80 48 00
        E 0 90 41 48
        E 0 90 45 48
        E 0 90 48 48
        E 260 80 41 00
        E 0 80 45 00
        E 0 80 48 00
        E 440 90 41 48
        E 0 90 45 48
        E 0 90 48 48
        E 260 80 41 00
        E 0 80 45 00
        E 0 80 48 00
        e 514 90 41 48
        e 0 90 45 48
        e 0 90 48 48
        e 260 80 41 00
        e 0 80 45 00
        e 0 80 48 00
        E 162 90 3e 48
        E 24 90 41 48
        E 0 90 45 48
        E 1896 90 3e 48
        E 24 80 3e 00
        E 0 80 41 00
        E 0 80 45 00
        E 0 90 41 48
        E 0 90 45 48
        E 260 80 3e 00
        E 0 80 41 00
        E 0 80 45 00
        E 416 90 3e 48
        E 24 90 41 48
        E 0 90 45 48
        E 260 80 3e 00
        E 0 80 41 00
        E 0 80 45 00
        e 490 90 3e 48
        e 24 90 41 48
        e 0 90 45 48
        e 260 80 3e 00
        e 0 80 41 00
        e 0 80 45 00
        E 186 b0 7b 00
        CHASE_CC_TAKEOFFS 1
        GUID {1DE38800-E2A1-41B5-9C8C-3291891093B1}
        IGNTEMPO 0 120 4 4
        SRCCOLOR 20
        VELLANE -1 100 0
        CFGEDITVIEW 0 0.045808 45 12 0 -1 0 0 0 0.5
        KEYSNAP 0
        TRACKSEL 0
        EVTFILTER 0 -1 -1 -1 -1 0 0 0 0 -1 -1 -1 -1 0 -1 0 -1 -1
        CFGEDIT 1 1 0 1 0 0 1 1 1 1 1 1 58 171 1253 866 0 0 0 0 0.25 0 0 0 0 0.5 0 0 1 64
      >
    >
    <ITEM
      POSITION 32
      SNAPOFFS 0
      LENGTH 8
      LOOP 1
      ALLTAKES 0
      FADEIN 1 0 0 1 0 0
      FADEOUT 1 0 0 1 0 0
      MUTE 0
      SEL 1
      IGUID {BCAE2C68-9C80-7FFB-902D-C07C554373D5}
      IID 14
      NAME "01-Recorded MIDI"
      VOLPAN 1 0 1 -1
      SOFFS 0 0
      PLAYRATE 1 1 0 -1 0 0.0021
      CHANMODE 0
      GUID {BB4CC9A9-F956-8995-9CD5-89CF3CC1FC9E}
      RECPASS 1
      <SOURCE MIDI
        HASDATA 1 960 QN
        CCINTERP 32
        POOLEDEVTS {72703D9D-333F-FDB9-EA0A-4B8373B55F38}
        E 0 90 3c 48
        E 0 90 40 48
        E 0 90 43 48
        E 1920 80 3c 00
        E 0 80 40 00
        E 0 80 43 00
        E 0 90 3c 48
        E 0 90 40 48
        E 0 90 43 48
        E 260 80 3c 00
        E 0 80 40 00
        E 0 80 43 00
        E 440 90 3c 48
        E 0 90 40 48
        E 0 90 43 48
        E 260 80 3c 00
        E 0 80 40 00
        E 0 80 43 00
        e 514 90 3c 48
        e 0 90 40 48
        e 0 90 43 48
        e 260 80 3c 00
        e 0 80 40 00
        e 0 80 43 00
        E 186 90 43 48
        E 0 90 47 48
        E 20 90 40 48
        E 1900 80 43 00
        E 0 80 47 00
        E 0 80 40 00
        E 0 90 43 48
        E 0 90 47 48
        E 20 90 40 48
        E 240 80 43 00
        E 0 80 47 00
        E 0 80 40 00
        E 440 90 43 48
        E 0 90 47 48
        E 20 90 40 48
        E 240 80 43 00
        E 0 80 47 00
        E 0 80 40 00
        e 514 90 43 48
        e 0 90 47 48
        e 20 90 40 48
        e 240 80 43 00
        e 0 80 47 00
        e 0 80 40 00
        E 186 90 41 48
        E 0 90 45 48
        E 0 90 48 48
        E 1920 80 41 00
        E 0 80 45 00
        E 0 80 48 00
        E 0 90 41 48
        E 0 90 45 48
        E 0 90 48 48
        E 260 80 41 00
        E 0 80 45 00
        E 0 80 48 00
        E 440 90 41 48
        E 0 90 45 48
        E 0 90 48 48
        E 260 80 41 00
        E 0 80 45 00
        E 0 80 48 00
        e 514 90 41 48
        e 0 90 45 48
        e 0 90 48 48
        e 260 80 41 00
        e 0 80 45 00
        e 0 80 48 00
        E 162 90 3e 48
        E 24 90 41 48
        E 0 90 45 48
        E 1896 90 3e 48
        E 24 80 3e 00
        E 0 80 41 00
        E 0 80 45 00
        E 0 90 41 48
        E 0 90 45 48
        E 260 80 3e 00
        E 0 80 41 00
        E 0 80 45 00
        E 416 90 3e 48
        E 24 90 41 48
        E 0 90 45 48
        E 260 80 3e 00
        E 0 80 41 00
        E 0 80 45 00
        e 490 90 3e 48
        e 24 90 41 48
        e 0 90 45 48
        e 260 80 3e 00
        e 0 80 41 00
        e 0 80 45 00
        E 186 b0 7b 00
        CHASE_CC_TAKEOFFS 1
        GUID {0C3271F4-E233-9088-9B25-A722FAE7C579}
        IGNTEMPO 0 120 4 4
        SRCCOLOR 21
        VELLANE -1 100 0
        CFGEDITVIEW 0 0.045808 45 12 0 -1 0 0 0 0.5
        KEYSNAP 0
        TRACKSEL 0
        EVTFILTER 0 -1 -1 -1 -1 0 0 0 0 -1 -1 -1 -1 0 -1 0 -1 -1
        CFGEDIT 1 1 0 1 0 0 1 1 1 1 1 1 58 171 1253 866 0 0 0 0 0.25 0 0 0 0 0.5 0 0 1 64
      >
    >
    <ITEM
      POSITION 40
      SNAPOFFS 0
      LENGTH 8
      LOOP 1
      ALLTAKES 0
      FADEIN 1 0 0 1 0 0
      FADEOUT 1 0 0 1 0 0
      MUTE 0
      SEL 1
      IGUID {818EACBD-17AC-16A9-0753-B43159C700C6}
      IID 15
      NAME "01-Recorded MIDI"
      VOLPAN 1 0 1 -1
      SOFFS 0 0
      PLAYRATE 1 1 0 -1 0 0.0021
      CHANMODE 0
      GUID {59DFAC22-368C-D265-6AD5-D00FBB1DD6D0}
      RECPASS 1
      <SOURCE MIDI
        HASDATA 1 960 QN
        CCINTERP 32
        POOLEDEVTS {46969600-24D4-0ABB-8F10-63545F963D6B}
        E 0 90 3c 48
        E 0 90 40 48
        E 0 90 43 48
        E 1920 80 3c 00
        E 0 80 40 00
        E 0 80 43 00
        E 0 90 3c 48
        E 0 90 40 48
        E 0 90 43 48
        E 260 80 3c 00
        E 0 80 40 00
        E 0 80 43 00
        E 440 90 3c 48
        E 0 90 40 48
        E 0 90 43 48
        E 260 80 3c 00
        E 0 80 40 00
        E 0 80 43 00
        e 514 90 3c 48
        e 0 90 40 48
        e 0 90 43 48
        e 260 80 3c 00
        e 0 80 40 00
        e 0 80 43 00
        E 186 90 43 48
        E 0 90 47 48
        E 20 90 40 48
        E 1900 80 43 00
        E 0 80 47 00
        E 0 80 40 00
        E 0 90 43 48
        E 0 90 47 48
        E 20 90 40 48
        E 240 80 43 00
        E 0 80 47 00
        E 0 80 40 00
        E 440 90 43 48
        E 0 90 47 48
        E 20 90 40 48
        E 240 80 43 00
        E 0 80 47 00
        E 0 80 40 00
        e 514 90 43 48
        e 0 90 47 48
        e 20 90 40 48
        e 240 80 43 00
        e 0 80 47 00
        e 0 80 40 00
        E 186 90 41 48
        E 0 90 45 48
        E 0 90 48 48
        E 1920 80 41 00
        E 0 80 45 00
        E 0 80 48 00
        E 0 90 41 48
        E 0 90 45 48
        E 0 90 48 48
        E 260 80 41 00
        E 0 80 45 00
        E 0 80 48 00
        E 440 90 41 48
        E 0 90 45 48
        E 0 90 48 48
        E 260 80 41 00
        E 0 80 45 00
        E 0 80 48 00
        e 514 90 41 48
        e 0 90 45 48
        e 0 90 48 48
        e 260 80 41 00
        e 0 80 45 00
        e 0 80 48 00
        E 162 90 3e 48
        E 24 90 41 48
        E 0 90 45 48
        E 1896 90 3e 48
        E 24 80 3e 00
        E 0 80 41 00
        E 0 80 45 00
        E 0 90 41 48
        E 0 90 45 48
        E 260 80 3e 00
        E 0 80 41 00
        E 0 80 45 00
        E 416 90 3e 48
        E 24 90 41 48
        E 0 90 45 48
        E 260 80 3e 00
        E 0 80 41 00
        E 0 80 45 00
        e 490 90 3e 48
        e 24 90 41 48
        e 0 90 45 48
        e 260 80 3e 00
        e 0 80 41 00
        e 0 80 45 00
        E 186 b0 7b 00
        CHASE_CC_TAKEOFFS 1
        GUID {040E7AF8-3572-5D91-3C86-797AEE7444D4}
        IGNTEMPO 0 120 4 4
        SRCCOLOR 22
        VELLANE -1 100 0
        CFGEDITVIEW 0 0.045808 45 12 0 -1 0 0 0 0.5
        KEYSNAP 0
        TRACKSEL 0
        EVTFILTER 0 -1 -1 -1 -1 0 0 0 0 -1 -1 -1 -1 0 -1 0 -1 -1
        CFGEDIT 1 1 0 1 0 0 1 1 1 1 1 1 58 171 1253 866 0 0 0 0 0.25 0 0 0 0 0.5 0 0 1 64
      >
    >
    <ITEM
      POSITION 48
      SNAPOFFS 0
      LENGTH 8
      LOOP 1
      ALLTAKES 0
      FADEIN 1 0 0 1 0 0
      FADEOUT 1 0 0 1 0 0
      MUTE 0
      SEL 1
      IGUID {DECAB8E4-5020-0FF1-6762-D890B5D6B79D}
      IID 16
      NAME "01-Recorded MIDI"
      VOLPAN 1 0 1 -1
      SOFFS 0 0
      PLAYRATE 1 1 0 -1 0 0.0021
      CHANMODE 0
      GUID {C798753C-E465-AE4E-A325-10E11D4884EB}
      RECPASS 1
      <SOURCE MIDI
        HASDATA 1 960 QN
        CCINTERP 32
        POOLEDEVTS {A47187A1-827E-BC69-2614-A55DD9B716B2}
        E 0 90 3c 48
        E 0 90 40 48
        E 0 90 43 48
        E 1920 80 3c 00
        E 0 80 40 00
        E 0 80 43 00
        E 0 90 3c 48
        E 0 90 40 48
        E 0 90 43 48
        E 260 80 3c 00
        E 0 80 40 00
        E 0 80 43 00
        E 440 90 3c 48
        E 0 90 40 48
        E 0 90 43 48
        E 260 80 3c 00
        E 0 80 40 00
        E 0 80 43 00
        e 514 90 3c 48
        e 0 90 40 48
        e 0 90 43 48
        e 260 80 3c 00
        e 0 80 40 00
        e 0 80 43 00
        E 186 90 43 48
        E 0 90 47 48
        E 20 90 40 48
        E 1900 80 43 00
        E 0 80 47 00
        E 0 80 40 00
        E 0 90 43 48
        E 0 90 47 48
        E 20 90 40 48
        E 240 80 43 00
        E 0 80 47 00
        E 0 80 40 00
        E 440 90 43 48
        E 0 90 47 48
        E 20 90 40 48
        E 240 80 43 00
        E 0 80 47 00
        E 0 80 40 00
        e 514 90 43 48
        e 0 90 47 48
        e 20 90 40 48
        e 240 80 43 00
        e 0 80 47 00
        e 0 80 40 00
        E 186 90 41 48
        E 0 90 45 48
        E 0 90 48 48
        E 1920 80 41 00
        E 0 80 45 00
        E 0 80 48 00
        E 0 90 41 48
        E 0 90 45 48
        E 0 90 48 48
        E 260 80 41 00
        E 0 80 45 00
        E 0 80 48 00
        E 440 90 41 48
        E 0 90 45 48
        E 0 90 48 48
        E 260 80 41 00
        E 0 80 45 00
        E 0 80 48 00
        e 514 90 41 48
        e 0 90 45 48
        e 0 90 48 48
        e 260 80 41 00
        e 0 80 45 00
        e 0 80 48 00
        E 162 90 3e 48
        E 24 90 41 48
        E 0 90 45 48
        E 1896 90 3e 48
        E 24 80 3e 00
        E 0 80 41 00
        E 0 80 45 00
        E 0 90 41 48
        E 0 90 45 48
        E 260 80 3e 00
        E 0 80 41 00
        E 0 80 45 00
        E 416 90 3e 48
        E 24 90 41 48
        E 0 90 45 48
        E 260 80 3e 00
        E 0 80 41 00
        E 0 80 45 00
        e 490 90 3e 48
        e 24 90 41 48
        e 0 90 45 48
        e 260 80 3e 00
        e 0 80 41 00
        e 0 80 45 00
        E 186 b0 7b 00
        CHASE_CC_TAKEOFFS 1
        GUID {2338968B-6CF9-9F40-300F-DEB89D3392EA}
        IGNTEMPO 0 120 4 4
        SRCCOLOR 23
        VELLANE -1 100 0
        CFGEDITVIEW 0 0.045808 45 12 0 -1 0 0 0 0.5
        KEYSNAP 0
        TRACKSEL 0
        EVTFILTER 0 -1 -1 -1 -1 0 0 0 0 -1 -1 -1 -1 0 -1 0 -1 -1
        CFGEDIT 1 1 0 1 0 0 1 1 1 1 1 1 58 171 1253 866 0 0 0 0 0.25 0 0 0 0 0.5 0 0 1 64
      >
    >
    <ITEM
      POSITION 56
      SNAPOFFS 0
      LENGTH 8
      LOOP 1
      ALLTAKES 0
      FADEIN 1 0 0 1 0 0
      FADEOUT 1 0 0 1 0 0
      MUTE 0
      SEL 1
      IGUID {A37A1F7E-5606-C869-C6B5-4C7C4BF4C7E7}
      IID 17
      NAME "01-Recorded MIDI"
      VOLPAN 1 0 1 -1
      SOFFS 0 0
      PLAYRATE 1 1 0 -1 0 0.0021
      CHANMODE 0
      GUID {D77C7472-E271-CE5C-0087-29C2105C1119}
      RECPASS 1
      <SOURCE MIDI
        HASDATA 1 960 QN
        CCINTERP 32
        POOLEDEVTS {28C9AA71-0C34-DA0E-F1A9-42887401BC1E}
        E 0 90 3c 48
        E 0 90 40 48
        E 0 90 43 48
        E 1920 80 3c 00
        E 0 80 40 00
        E 0 80 43 00
        E 0 90 3c 48
        E 0 90 40 48
        E 0 90 43 48
        E 260 80 3c 00
        E 0 80 40 00
        E 0 80 43 00
        E 440 90 3c 48
        E 0 90 40 48
        E 0 90 43 48
        E 260 80 3c 00
        E 0 80 40 00
        E 0 80 43 00
        e 514 90 3c 48
        e 0 90 40 48
        e 0 90 43 48
        e 260 80 3c 00
        e 0 80 40 00
        e 0 80 43 00
        E 186 90 43 48
        E 0 90 47 48
        E 20 90 40 48
        E 1900 80 43 00
        E 0 80 47 00
        E 0 80 40 00
        E 0 90 43 48
        E 0 90 47 48
        E 20 90 40 48
        E 240 80 43 00
        E 0 80 47 00
        E 0 80 40 00
        E 440 90 43 48
        E 0 90 47 48
        E 20 90 40 48
        E 240 80 43 00
        E 0 80 47 00
        E 0 80 40 00
        e 514 90 43 48
        e 0 90 47 48
        e 20 90 40 48
        e 240 80 43 00
        e 0 80 47 00
        e 0 80 40 00
        E 186 90 41 48
        E 0 90 45 48
        E 0 90 48 48
        E 1920 80 41 00
        E 0 80 45 00
        E 0 80 48 00
        E 0 90 41 48
        E 0 90 45 48
        E 0 90 48 48
        E 260 80 41 00
        E 0 80 45 00
        E 0 80 48 00
        E 440 90 41 48
        E 0 90 45 48
        E 0 90 48 48
        E 260 80 41 00
        E 0 80 45 00
        E 0 80 48 00
        e 514 90 41 48
        e 0 90 45 48
        e 0 90 48 48
        e 260 80 41 00
        e 0 80 45 00
        e 0 80 48 00
        E 162 90 3e 48
        E 24 90 41 48
        E 0 90 45 48
        E 1896 90 3e 48
        E 24 80 3e 00
        E 0 80 41 00
        E 0 80 45 00
        E 0 90 41 48
        E 0 90 45 48
        E 260 80 3e 00
        E 0 80 41 00
        E 0 80 45 00
        E 416 90 3e 48
        E 24 90 41 48
        E 0 90 45 48
        E 260 80 3e 00
        E 0 80 41 00
        E 0 80 45 00
        e 490 90 3e 48
        e 24 90 41 48
        e 0 90 45 48
        e 260 80 3e 00
        e 0 80 41 00
        e 0 80 45 00
        E 186 b0 7b 00
        CHASE_CC_TAKEOFFS 1
        GUID {A64857E2-94F8-0990-20DF-4C1E9B5E6251}
        IGNTEMPO 0 120 4 4
        SRCCOLOR 24
        VELLANE -1 100 0
        CFGEDITVIEW 0 0.045808 45 12 0 -1 0 0 0 0.5
        KEYSNAP 0
        TRACKSEL 0
        EVTFILTER 0 -1 -1 -1 -1 0 0 0 0 -1 -1 -1 -1 0 -1 0 -1 -1
        CFGEDIT 1 1 0 1 0 0 1 1 1 1 1 1 58 171 1253 866 0 0 0 0 0.25 0 0 0 0 0.5 0 0 1 64
      >
    >
    <ITEM
      POSITION 64
      SNAPOFFS 0
      LENGTH 8
      LOOP 1
      ALLTAKES 0
      FADEIN 1 0 0 1 0 0
      FADEOUT 1 0 0 1 0 0
      MUTE 0
      SEL 1
      IGUID {4855F0F8-B6BC-F356-7D1C-57428BCDB963}
      IID 18
      NAME "01-Recorded MIDI"
      VOLPAN 1 0 1 -1
      SOFFS 0 0
      PLAYRATE 1 1 0 -1 0 0.0021
      CHANMODE 0
      GUID {A7151569-5241-26BB-05CD-B980D35FEEC1}
      RECPASS 1
      <SOURCE MIDI
        HASDATA 1 960 QN
        CCINTERP 32
        POOLEDEVTS {83F4C9BB-46D5-E3C6-C33B-FDABFAE4C014}
        E 0 90 3c 48
        E 0 90 40 48
        E 0 90 43 48
        E 1920 80 3c 00
        E 0 80 40 00
        E 0 80 43 00
        E 0 90 3c 48
        E 0 90 40 48
        E 0 90 43 48
        E 260 80 3c 00
        E 0 80 40 00
        E 0 80 43 00
        E 440 90 3c 48
        E 0 90 40 48
        E 0 90 43 48
        E 260 80 3c 00
        E 0 80 40 00
        E 0 80 43 00
        e 514 90 3c 48
        e 0 90 40 48
        e 0 90 43 48
        e 260 80 3c 00
        e 0 80 40 00
        e 0 80 43 00
        E 186 90 43 48
        E 0 90 47 48
        E 20 90 40 48
        E 1900 80 43 00
        E 0 80 47 00
        E 0 80 40 00
        E 0 90 43 48
        E 0 90 47 48
        E 20 90 40 48
        E 240 80 43 00
        E 0 80 47 00
        E 0 80 40 00
        E 440 90 43 48
        E 0 90 47 48
        E 20 90 40 48
        E 240 80 43 00
        E 0 80 47 00
        E 0 80 40 00
        e 514 90 43 48
        e 0 90 47 48
        e 20 90 40 48
        e 240 80 43 00
        e 0 80 47 00
        e 0 80 40 00
        E 186 90 41 48
        E 0 90 45 48
        E 0 90 48 48
        E 1920 80 41 00
        E 0 80 45 00
        E 0 80 48 00
        E 0 90 41 48
        E 0 90 45 48
        E 0 90 48 48
        E 260 80 41 00
        E 0 80 45 00
        E 0 80 48 00
        E 440 90 41 48
        E 0 90 45 48
        E 0 90 48 48
        E 260 80 41 00
        E 0 80 45 00
        E 0 80 48 00
        e 514 90 41 48
        e 0 90 45 48
        e 0 90 48 48
        e 260 80 41 00
        e 0 80 45 00
        e 0 80 48 00
        E 162 90 3e 48
        E 24 90 41 48
        E 0 90 45 48
        E 1896 90 3e 48
        E 24 80 3e 00
        E 0 80 41 00
        E 0 80 45 00
        E 0 90 41 48
        E 0 90 45 48
        E 260 80 3e 00
        E 0 80 41 00
        E 0 80 45 00
        E 416 90 3e 48
        E 24 90 41 48
        E 0 90 45 48
        E 260 80 3e 00
        E 0 80 41 00
        E 0 80 45 00
        e 490 90 3e 48
        e 24 90 41 48
        e 0 90 45 48
        e 260 80 3e 00
        e 0 80 41 00
        e 0 80 45 00
        E 186 b0 7b 00
        CHASE_CC_TAKEOFFS 1
        GUID {19362806-85F2-5D9E-E1F9-07BE0CF3D16E}
        IGNTEMPO 0 120 4 4
        SRCCOLOR 25
        VELLANE -1 100 0
        CFGEDITVIEW 0 0.045808 45 12 0 -1 0 0 0 0.5
        KEYSNAP 0
        TRACKSEL 0
        EVTFILTER 0 -1 -1 -1 -1 0 0 0 0 -1 -1 -1 -1 0 -1 0 -1 -1
        CFGEDIT 1 1 0 1 0 0 1 1 1 1 1 1 58 171 1253 866 0 0 0 0 0.25 0 0 0 0 0.5 0 0 1 64
      >
    >
    <ITEM
      POSITION 72
      SNAPOFFS 0
      LENGTH 8
      LOOP 1
      ALLTAKES 0
      FADEIN 1 0 0 1 0 0
      FADEOUT 1 0 0 1 0 0
      MUTE 0
      SEL 1
      IGUID {90B7844E-E88A-F495-7191-8A1F1F70699F}
      IID 19
      NAME "01-Recorded MIDI"
      VOLPAN 1 0 1 -1
      SOFFS 0 0
      PLAYRATE 1 1 0 -1 0 0.0021
      CHANMODE 0
      GUID {E29FFA74-B1EC-6F29-592E-4B143DA7FCF3}
      RECPASS 1
      <SOURCE MIDI
        HASDATA 1 960 QN
        CCINTERP 32
        POOLEDEVTS {53BBDBDA-F871-722D-581D-11C3EFF0D593}
        E 0 90 3c 48
        E 0 90 40 48
        E 0 90 43 48
        E 1920 80 3c 00
        E 0 80 40 00
        E 0 80 43 00
        E 0 90 3c 48
        E 0 90 40 48
        E 0 90 43 48
        E 260 80 3c 00
        E 0 80 40 00
        E 0 80 43 00
        E 440 90 3c 48
        E 0 90 40 48
        E 0 90 43 48
        E 260 80 3c 00
        E 0 80 40 00
        E 0 80 43 00
        e 514 90 3c 48
        e 0 90 40 48
        e 0 90 43 48
        e 260 80 3c 00
        e 0 80 40 00
        e 0 80 43 00
        E 186 90 43 48
        E 0 90 47 48
        E 20 90 40 48
        E 1900 80 43 00
        E 0 80 47 00
        E 0 80 40 00
        E 0 90 43 48
        E 0 90 47 48
        E 20 90 40 48
        E 240 80 43 00
        E 0 80 47 00
        E 0 80 40 00
        E 440 90 43 48
        E 0 90 47 48
        E 20 90 40 48
        E 240 80 43 00
        E 0 80 47 00
        E 0 80 40 00
        e 514 90 43 48
        e 0 90 47 48
        e 20 90 40 48
        e 240 80 43 00
        e 0 80 47 00
        e 0 80 40 00
        E 186 90 41 48
        E 0 90 45 48
        E 0 90 48 48
        E 1920 80 41 00
        E 0 80 45 00
        E 0 80 48 00
        E 0 90 41 48
        E 0 90 45 48
        E 0 90 48 48
        E 260 80 41 00
        E 0 80 45 00
        E 0 80 48 00
        E 440 90 41 48
        E 0 90 45 48
        E 0 90 48 48
        E 260 80 41 00
        E 0 80 45 00
        E 0 80 48 00
        e 514 90 41 48
        e 0 90 45 48
        e 0 90 48 48
        e 260 80 41 00
        e 0 80 45 00
        e 0 80 48 00
        E 162 90 3e 48
        E 24 90 41 48
        E 0 90 45 48
        E 1896 90 3e 48
        E 24 80 3e 00
        E 0 80 41 00
        E 0 80 45 00
        E 0 90 41 48
        E 0 90 45 48
        E 260 80 3e 00
        E 0 80 41 00
        E 0 80 45 00
        E 416 90 3e 48
        E 24 90 41 48
        E 0 90 45 48
        E 260 80 3e 00
        E 0 80 41 00
        E 0 80 45 00
        e 490 90 3e 48
        e 24 90 41 48
        e 0 90 45 48
        e 260 80 3e 00
        e 0 80 41 00
        e 0 80 45 00
        E 186 b0 7b 00
        CHASE_CC_TAKEOFFS 1
        GUID {6844F8A9-6BE9-023C-4A46-0A676470C99B}
        IGNTEMPO 0 120 4 4
        SRCCOLOR 26
        VELLANE -1 100 0
        CFGEDITVIEW 0 0.045808 45 12 0 -1 0 0 0 0.5
        KEYSNAP 0
        TRACKSEL 0
        EVTFILTER 0 -1 -1 -1 -1 0 0 0 0 -1 -1 -1 -1 0 -1 0 -1 -1
        CFGEDIT 1 1 0 1 0 0 1 1 1 1 1 1 58 171 1253 866 0 0 0 0 0.25 0 0 0 0 0.5 0 0 1 64
      >
    >
    <ITEM
      POSITION 80
      SNAPOFFS 0
      LENGTH 8
      LOOP 1
      ALLTAKES 0
      FADEIN 1 0 0 1 0 0
      FADEOUT 1 0 0 1 0 0
      MUTE 0
      SEL 1
      IGUID {D4E9FC95-AA47-D3DE-A1D3-81219F8AC318}
      IID 20
      NAME "01-Recorded MIDI"
      VOLPAN 1 0 1 -1
      SOFFS 0 0
      PLAYRATE 1 1 0 -1 0 0.0021
      CHANMODE 0
      GUID {1886457D-B062-2C00-52C6-E04EC26FFC5C}
      RECPASS 1
      <SOURCE MIDI
        HASDATA 1 960 QN
        CCINTERP 32
        POOLEDEVTS {52C42DB8-EA36-2C78-868C-1512AD283A29}
        E 0 90 3c 48
        E 0 90 40 48
        E 0 90 43 48
        E 1920 80 3c 00
        E 0 80 40 00
        E 0 80 43 00
        E 0 90 3c 48
        E 0 90 40 48
        E 0 90 43 48
        E 260 80 3c 00
        E 0 80 40 00
        E 0 80 43 00
        E 440 90 3c 48
        E 0 90 40 48
        E 0 90 43 48
        E 260 80 3c 00
        E 0 80 40 00
        E 0 80 43 00
        e 514 90 3c 48
        e 0 90 40 48
        e 0 90 43 48
        e 260 80 3c 00
        e 0 80 40 00
        e 0 80 43 00
        E 186 90 43 48
        E 0 90 47 48
        E 20 90 40 48
        E 1900 80 43 00
        E 0 80 47 00
        E 0 80 40 00
        E 0 90 43 48
        E 0 90 47 48
        E 20 90 40 48
        E 240 80 43 00
        E 0 80 47 00
        E 0 80 40 00
        E 440 90 43 48
        E 0 90 47 48
        E 20 90 40 48
        E 240 80 43 00
        E 0 80 47 00
        E 0 80 40 00
        e 514 90 43 48
        e 0 90 47 48
        e 20 90 40 48
        e 240 80 43 00
        e 0 80 47 00
        e 0 80 40 00
        E 186 90 41 48
        E 0 90 45 48
        E 0 90 48 48
        E 1920 80 41 00
        E 0 80 45 00
        E 0 80 48 00
        E 0 90 41 48
        E 0 90 45 48
        E 0 90 48 48
        E 260 80 41 00
        E 0 80 45 00
        E 0 80 48 00
        E 440 90 41 48
        E 0 90 45 48
        E 0 90 48 48
        E 260 80 41 00
        E 0 80 45 00
        E 0 80 48 00
        e 514 90 41 48
        e 0 90 45 48
        e 0 90 48 48
        e 260 80 41 00
        e 0 80 45 00
        e 0 80 48 00
        E 162 90 3e 48
        E 24 90 41 48
        E 0 90 45 48
        E 1896 90 3e 48
        E 24 80 3e 00
        E 0 80 41 00
        E 0 80 45 00
        E 0 90 41 48
        E 0 90 45 48
        E 260 80 3e 00
        E 0 80 41 00
        E 0 80 45 00
        E 416 90 3e 48
        E 24 90 41 48
        E 0 90 45 48
        E 260 80 3e 00
        E 0 80 41 00
        E 0 80 45 00
        e 490 90 3e 48
        e 24 90 41 48
        e 0 90 45 48
        e 260 80 3e 00
        e 0 80 41 00
        e 0 80 45 00
        E 186 b0 7b 00
        CHASE_CC_TAKEOFFS 1
        GUID {E611ADB6-4869-6CCA-8E83-3954D5E743B1}
        IGNTEMPO 0 120 4 4
        SRCCOLOR 27
        VELLANE -1 100 0
        CFGEDITVIEW 0 0.045808 45 12 0 -1 0 0 0 0.5
        KEYSNAP 0
        TRACKSEL 0
        EVTFILTER 0 -1 -1 -1 -1 0 0 0 0 -1 -1 -1 -1 0 -1 0 -1 -1
        CFGEDIT 1 1 0 1 0 0 1 1 1 1 1 1 58 171 1253 866 0 0 0 0 0.25 0 0 0 0 0.5 0 0 1 64
      >
    >
    <ITEM
      POSITION 88
      SNAPOFFS 0
      LENGTH 8
      LOOP 1
      ALLTAKES 0
      FADEIN 1 0 0 1 0 0
      FADEOUT 1 0 0 1 0 0
      MUTE 0
      SEL 1
      IGUID {1A0E7601-BC48-8A7E-34BB-67D545AA2123}
      IID 21
      NAME "01-Recorded MIDI"
      VOLPAN 1 0 1 -1
      SOFFS 0 0
      PLAYRATE 1 1 0 -1 0 0.0021
      CHANMODE 0
      GUID {42427736-7324-16F6-E447-FE495D0B3C5D}
      RECPASS 1
      <SOURCE MIDI
        HASDATA 1 960 QN
        CCINTERP 32
        POOLEDEVTS {8AC64DDC-7CA3-E660-15C7-A47E571C3D97}
        E 0 90 3c 48
        E 0 90 40 48
        E 0 90 43 48
        E 1920 80 3c 00
        E 0 80 40 00
        E 0 80 43 00
        E 0 90 3c 48
        E 0 90 40 48
        E 0 90 43 48
        E 260 80 3c 00
        E 0 80 40 00
        E 0 80 43 00
        E 440 90 3c 48
        E 0 90 40 48
        E 0 90 43 48
        E 260 80 3c 00
        E 0 80 40 00
        E 0 80 43 00
        e 514 90 3c 48
        e 0 90 40 48
        e 0 90 43 48
        e 260 80 3c 00
        e 0 80 40 00
        e 0 80 43 00
        E 186 90 43 48
        E 0 90 47 48
        E 20 90 40 48
        E 1900 80 43 00
        E 0 80 47 00
        E 0 80 40 00
        E 0 90 43 48
        E 0 90 47 48
        E 20 90 40 48
        E 240 80 43 00
        E 0 80 47 00
        E 0 80 40 00
        E 440 90 43 48
        E 0 90 47 48
        E 20 90 40 48
        E 240 80 43 00
        E 0 80 47 00
        E 0 80 40 00
        e 514 90 43 48
        e 0 90 47 48
        e 20 90 40 48
        e 240 80 43 00
        e 0 80 47 00
        e 0 80 40 00
        E 186 90 41 48
        E 0 90 45 48
        E 0 90 48 48
        E 1920 80 41 00
        E 0 80 45 00
        E 0 80 48 00
        E 0 90 41 48
        E 0 90 45 48
        E 0 90 48 48
        E 260 80 41 00
        E 0 80 45 00
        E 0 80 48 00
        E 440 90 41 48
        E 0 90 45 48
        E 0 90 48 48
        E 260 80 41 00
        E 0 80 45 00
        E 0 80 48 00
        e 514 90 41 48
        e 0 90 45 48
        e 0 90 48 48
        e 260 80 41 00
        e 0 80 45 00
        e 0 80 48 00
        E 162 90 3e 48
        E 24 90 41 48
        E 0 90 45 48
        E 1896 90 3e 48
        E 24 80 3e 00
        E 0 80 41 00
        E 0 80 45 00
        E 0 90 41 48
        E 0 90 45 48
        E 260 80 3e 00
        E 0 80 41 00
        E 0 80 45 00
        E 416 90 3e 48
        E 24 90 41 48
        E 0 90 45 48
        E 260 80 3e 00
        E 0 80 41 00
        E 0 80 45 00
        e 490 90 3e 48
        e 24 90 41 48
        e 0 90 45 48
        e 260 80 3e 00
        e 0 80 41 00
        e 0 80 45 00
        E 186 b0 7b 00
        CHASE_CC_TAKEOFFS 1
        GUID {C762B555-17FC-D765-5340-11D3487D2955}
        IGNTEMPO 0 120 4 4
        SRCCOLOR 28
        VELLANE -1 100 0
        CFGEDITVIEW 0 0.045808 45 12 0 -1 0 0 0 0.5
        KEYSNAP 0
        TRACKSEL 0
        EVTFILTER 0 -1 -1 -1 -1 0 0 0 0 -1 -1 -1 -1 0 -1 0 -1 -1
        CFGEDIT 1 1 0 1 0 0 1 1 1 1 1 1 58 171 1253 866 0 0 0 0 0.25 0 0 0 0 0.5 0 0 1 64
      >
    >
  >
>
